<svg width="400" height="400" viewBox="0 0 400 400" fill="none" xmlns="http://www.w3.org/2000/svg">
<path d="M181.306 128.109C188.588 124.918 195.873 121.736 203.149 118.533C210.514 115.294 217.867 112.029 225.232 108.796C226.088 108.42 226.899 107.885 227.88 107.854C228.739 108.588 228.964 109.647 229.376 110.578C237.643 129.279 245.883 147.988 254.133 166.695C264.752 190.771 275.37 214.846 285.995 238.921C287.44 242.195 287.522 241.685 284.305 243.105C247.508 259.347 210.705 275.578 173.899 291.803C173.051 292.175 172.269 292.776 171.282 292.722C170.007 290.576 112.968 161.29 112.254 158.93C112.948 158.088 114.015 157.88 114.945 157.467C129.916 150.838 144.895 144.231 159.872 137.613C160.734 137.232 161.573 136.796 162.424 136.386C162.691 136.218 162.967 136.198 163.254 136.324C165.575 138.541 166.537 141.388 167.035 144.456C166.995 144.752 166.89 145.025 166.733 145.279C165.45 146.759 163.692 147.502 161.957 148.25C150.832 153.038 139.755 157.937 128.713 162.918C125.899 164.188 125.868 164.284 127.128 167.154C136.424 188.289 145.74 209.415 155.079 230.53C159.022 239.442 162.981 248.349 166.838 257.298C168.537 261.234 168.67 261.189 172.69 259.441C187.703 252.917 202.646 246.234 217.634 239.653C231.322 233.644 244.987 227.575 258.661 221.532C259.267 221.265 259.85 220.943 260.462 220.687C265.67 218.506 265.596 218.543 263.278 213.323C255.595 196.028 248.011 178.687 240.356 161.381C234.96 149.178 229.658 136.933 224.14 124.784C222.689 121.59 222.632 121.508 219.301 122.923C210.503 126.657 201.838 130.699 193.04 134.425C190.471 135.512 188.124 137.346 185.115 137.212C184.825 137.18 184.552 137.098 184.293 136.967C182.057 134.804 181.104 132.034 180.569 129.065C180.655 128.624 180.859 128.274 181.306 128.109Z" fill="white"/>
<path d="M162.886 136.547C162.723 136.513 162.567 136.459 162.419 136.385C162.172 134.97 161.409 133.758 160.863 132.46C160.314 131.159 159.768 129.852 159.136 128.591C158.587 127.495 158.829 126.656 159.626 125.788C161.409 123.843 163.164 121.874 164.863 119.858C165.608 118.973 166.447 118.654 167.576 118.731C169.078 118.831 170.589 118.802 172.096 118.833C172.824 118.848 173.331 118.563 173.655 117.871C174.082 116.955 174.315 115.922 175.038 115.207C175.948 115.44 176.016 116.189 176.266 116.764C177.504 119.613 178.69 122.486 179.927 125.338C180.337 126.283 180.846 127.185 181.307 128.107C181.33 128.281 181.267 128.426 181.119 128.543C180.63 129.482 179.973 130.254 178.972 130.669C174.474 132.537 170.119 134.731 165.591 136.525C164.658 136.889 163.79 137.008 162.886 136.547Z" fill="#808080"/>
<path d="M184.887 136.658C195.881 131.796 206.875 126.931 217.867 122.07C219.426 121.381 220.976 120.675 222.543 120.009C223.033 119.801 223.473 119.949 223.715 120.461C223.997 121.062 224.264 121.668 224.532 122.275C238.407 153.714 252.286 185.15 266.148 216.592C267.328 219.27 267.621 219.025 264.828 220.258C233.304 234.166 201.786 248.082 170.266 261.99C167.836 263.06 168.01 263.202 166.841 260.555C152.897 228.94 138.947 197.33 125.006 165.714C124.707 165.037 124.474 164.328 124.246 163.727C124.656 163.064 125.239 162.922 125.742 162.7C138.904 156.887 152.072 151.089 165.239 145.297C165.581 145.146 165.953 145.066 166.312 144.952C168.115 145.006 168.493 146.538 169.151 147.742C169.779 148.892 170.379 149.492 171.301 148.009C172.336 146.347 173.801 145.487 175.801 145.652C176.179 145.684 176.669 145.749 176.885 145.465C178.575 143.259 180.973 143.082 183.467 142.977C185.194 142.903 185.345 141.764 184.898 140.349C184.514 139.131 183.686 137.887 184.887 136.658Z" fill="black"/>
<path d="M162.887 136.549C163.279 136.299 163.646 135.991 164.067 135.806C169.296 133.484 174.527 131.172 179.766 128.875C180.185 128.693 180.663 128.65 181.115 128.545C182.435 131.107 183.624 133.726 184.46 136.492C184.602 138.166 183.365 138.787 182.167 139.29C177.946 141.067 173.799 143.016 169.563 144.761C168.468 145.211 167.407 145.425 166.428 144.508C165.017 141.958 163.842 139.302 162.887 136.549Z" fill="#C2C2C2"/>
<path d="M166.434 144.503C166.974 144.344 167.537 144.241 168.049 144.019C172.976 141.867 177.895 139.698 182.81 137.521C183.404 137.256 184.059 137.065 184.465 136.49C184.619 136.51 184.758 136.564 184.886 136.655C185.467 138.15 186.07 139.636 186.616 141.141C186.898 141.918 187.484 142.633 187.219 143.638C185.916 144.124 184.5 144.173 183.097 144.298C182.156 144.381 181.211 144.44 180.27 144.489C179.294 144.54 178.776 144.947 178.56 145.986C178.293 147.273 178.04 147.347 176.831 147.193C176.643 147.17 176.452 147.156 176.27 147.105C173.713 146.365 173.778 146.638 172.424 148.696C171.804 149.641 171.161 150.577 170.496 151.494C170.197 151.904 169.577 151.824 169.344 151.34C168.812 150.236 168.334 149.103 167.808 147.993C167.324 146.971 166.809 145.963 166.309 144.95C166.334 144.793 166.374 144.645 166.434 144.503Z" fill="#808080"/>
<path d="M227.874 252.382C227.533 255.43 227.533 255.43 224.964 254.92C224.933 255.481 224.927 256.03 224.856 256.571C224.839 256.696 224.623 256.856 224.472 256.89C224.313 256.927 224.068 256.89 223.963 256.785C223.775 256.594 223.61 256.346 223.525 256.093C223.286 255.382 223.024 254.664 222.902 253.93C222.762 253.09 221.605 252.094 222.691 251.457C223.445 251.015 223.971 252.293 224.657 252.723C224.896 252.871 225.12 253.042 225.362 253.187C225.763 253.429 226.364 253.139 226.403 252.638C226.475 251.701 226.477 250.762 226.529 249.823C226.543 249.561 226.574 249.271 226.921 249.182C227.243 249.103 227.49 249.245 227.646 249.476C228.608 250.867 229.552 252.271 230.491 253.679C230.591 253.83 230.645 254.027 230.67 254.209C230.721 254.607 230.591 254.986 230.204 255.105C229.99 255.171 229.586 255.083 229.467 254.918C228.983 254.246 228.577 253.52 227.874 252.382Z" fill="black"/>
<path d="M267.58 235.775C267.569 237.364 266.249 239.117 264.733 239.629C263.843 239.931 263.055 239.681 262.306 239.254C260.987 238.499 260.361 236.92 260.708 235.354C261.029 233.908 262.363 232.681 263.842 232.476C265.199 232.289 266.397 232.909 267.145 234.164C267.444 234.668 267.586 235.198 267.58 235.775Z" fill="black"/>
<path d="M214.7 260.384C214.299 260.899 213.946 261.46 213.485 261.918C212.404 262.991 210.874 263.173 209.634 262.45C208.447 261.758 207.716 260.199 207.95 258.858C208.348 256.564 210.493 255.198 212.743 255.841C213.181 255.966 213.57 256.256 213.983 256.473C215.957 257.458 214.66 259.043 214.7 260.384Z" fill="black"/>
<path d="M205.874 262.822C206.963 263.235 207.842 263.551 208.704 263.915C208.818 263.963 208.863 264.234 208.889 264.41C208.943 264.797 208.599 264.94 208.365 264.903C207.532 264.772 206.716 264.538 205.888 264.382C205.043 264.222 204.389 264.362 204.349 265.441C204.34 265.702 204.082 265.987 203.769 265.907C203.53 265.845 203.243 265.654 203.14 265.441C202.654 264.419 202.261 263.351 201.769 262.335C200.89 260.531 200.936 260.292 202.674 259.355C203.422 258.951 204.187 258.584 205.077 258.584C206.036 258.584 206.727 259.25 206.61 260.186C206.554 260.647 206.38 261.094 206.252 261.547C206.15 261.906 206.042 262.261 205.874 262.822Z" fill="black"/>
<path d="M193.343 271.68C192.609 271.52 191.878 271.338 191.138 271.21C190.313 271.065 189.759 271.259 189.429 272.195C189.193 272.864 188.373 272.804 188.137 272.161C187.523 270.496 186.888 268.853 185.574 267.513C187.275 265.927 189.01 264.976 191.28 265.64C191.77 265.742 192.276 266.044 192.253 266.488C192.179 267.928 192.41 269.132 193.656 270.1C194.011 270.376 194.242 271.304 193.343 271.68Z" fill="black"/>
<path d="M215.687 254.516C215.929 253.492 216.737 252.993 217.59 252.609C218.933 252.003 220.415 252.413 221.371 253.566C222.471 254.889 222.392 256.634 221.166 258.18C219.985 259.665 218.549 260.041 216.984 259.199C216.503 258.94 216.117 258.504 215.684 258.148C215.531 257.986 215.405 257.804 215.303 257.605C215.198 257.172 214.976 256.776 214.922 256.329C214.93 256.105 214.993 255.894 215.104 255.698C215.42 255.364 215.599 254.963 215.687 254.516Z" fill="black"/>
<path d="M178.908 272.78C178.641 274.585 177.685 276.481 176.263 278.155C175.956 278.516 175.324 278.388 175.105 277.907C174.445 276.464 173.97 274.935 173.12 273.575C172.912 273.244 173.08 272.82 173.373 272.556C174.357 271.67 175.452 270.942 176.752 270.62C178.126 270.281 178.951 270.976 178.908 272.78Z" fill="black"/>
<path d="M250.965 239.033C252.177 237.584 253.431 236.639 254.947 236.078C256.048 235.671 257.038 236.343 257.163 237.516C257.192 237.792 257.203 238.085 257.149 238.355C256.785 240.214 256.136 241.962 255.067 243.536C254.703 244.071 253.98 244.048 253.696 243.487C253.442 242.989 253.263 242.454 253.041 241.939C252.572 240.852 252.279 239.653 250.965 239.033Z" fill="black"/>
<path d="M271.702 233.157C270.659 233.038 269.725 233.633 268.699 233.763C267.931 233.86 267.475 233.408 267.501 232.611C267.527 231.822 267.8 231.134 268.238 230.507C268.764 229.756 269.524 229.54 270.485 229.89C270.821 230.012 271.233 230.243 271.125 230.684C271.082 230.857 270.698 231.037 270.459 231.054C269.993 231.085 269.521 231 269.151 231.395C268.943 231.617 268.798 231.862 268.957 232.141C269.026 232.258 269.267 232.375 269.39 232.34C270.479 232.027 271.56 231.697 272.715 231.811C274.035 231.942 274.74 233.023 274.294 234.222C273.665 235.898 271.825 236.971 269.987 236.706C269.714 236.667 269.404 236.459 269.458 236.154C269.501 235.924 269.728 235.625 269.944 235.545C270.73 235.252 271.637 235.332 272.345 234.78C272.712 234.495 273.145 234.227 272.946 233.655C272.795 233.22 272.374 233.231 272.013 233.16C271.924 233.143 271.828 233.157 271.702 233.157Z" fill="black"/>
<path d="M191.828 264.25C191.976 263.937 192.3 263.834 192.49 264.039C192.991 264.574 193.415 265.183 193.879 265.778C194.857 264.97 195.048 263.786 195.665 262.861C195.784 262.681 196.114 262.639 196.348 262.533C196.413 262.792 196.589 263.085 196.524 263.305C196.171 264.463 195.756 265.602 195.295 266.943C196.459 267.054 197.451 267.145 198.441 267.25C198.84 267.293 199.178 267.478 199.187 267.922C199.195 268.403 198.797 268.554 198.421 268.545C197.67 268.528 196.922 268.42 196.171 268.377C195.409 268.334 195.221 268.787 195.29 269.45C195.309 269.635 195.284 269.826 195.278 270.014C192.439 270.802 192.331 268.796 192.101 266.914C192.001 266.521 191.887 266.134 191.759 265.753C191.668 265.508 191.62 265.255 191.617 264.99C191.637 264.728 191.708 264.48 191.828 264.25Z" fill="black"/>
<path d="M245.868 240.711C246.033 240.76 246.292 240.757 246.349 240.862C246.83 241.773 247.259 242.712 247.731 243.626C247.985 244.116 248.252 244.722 248.972 244.466C249.871 244.147 250.314 243.282 250.024 242.493C249.669 241.526 249.259 240.581 248.906 239.613C248.861 239.485 248.969 239.226 249.088 239.126C249.316 238.935 249.615 238.907 249.788 239.211C250.718 240.842 251.64 242.479 252.212 244.278C252.325 244.639 252.177 245.18 251.745 245.084C250.593 244.824 250.087 245.829 249.262 246.185C248.588 246.475 247.899 246.367 247.515 245.761C246.611 244.329 245.934 242.789 245.572 241.124C245.547 241.01 245.763 240.851 245.868 240.711Z" fill="black"/>
<path d="M181.407 271.476C181.356 270.99 181.25 270.144 181.182 269.296C181.154 268.943 181.06 268.525 181.558 268.365C181.967 268.234 182.303 268.408 182.59 268.658C184.081 269.971 185.568 271.291 187.036 272.629C187.227 272.803 187.343 273.096 187.409 273.358C187.446 273.503 187.349 273.734 187.235 273.853C187.124 273.97 186.874 274.092 186.757 274.044C186.334 273.862 185.924 273.628 185.537 273.372C185.167 273.124 184.835 273.176 184.493 273.392C184.334 273.492 184.2 273.634 184.041 273.731C183.239 274.212 182.923 275.239 181.973 275.552C180.906 274.753 181.743 273.628 181.495 272.686C181.424 272.418 181.45 272.122 181.407 271.476Z" fill="black"/>
<path d="M244.271 248.422C243.816 248.561 243.52 248.274 243.366 247.944C242.926 247.004 242.567 246.031 242.143 245.086C241.7 244.095 241.68 244.101 240.502 244.764C240.337 244.855 240.195 245.032 240.027 245.057C239.873 245.08 239.646 244.989 239.552 244.867C239.469 244.761 239.461 244.499 239.535 244.385C240.377 243.104 241.469 242.071 242.789 241.3C243.093 241.12 243.503 241.046 243.859 241.058C244.086 241.066 244.365 241.274 244.518 241.473C244.729 241.747 244.533 241.994 244.294 242.176C244.22 242.233 244.126 242.265 244.049 242.319C242.689 243.25 242.684 243.253 243.372 244.699C243.776 245.55 244.217 246.387 244.598 247.249C244.706 247.491 244.715 247.807 244.672 248.072C244.646 248.2 244.41 248.302 244.271 248.422Z" fill="black"/>
<path d="M239.519 247.273C240.245 248.036 239.966 248.804 239.533 249.576C239.289 249.621 239.078 249.558 238.91 249.368C238.927 249.131 238.964 248.898 239.013 248.667L239.09 248.77C238.057 247.66 236.854 248.152 235.676 248.408L235.483 248.517L235.261 248.505C234.814 248.759 234.37 248.81 233.932 248.485H233.935C233.588 247.981 233.767 247.469 233.907 246.957C233.816 246.029 234.277 245.368 234.982 244.862C235.525 244.469 236.162 244.355 236.822 244.48C237.081 244.529 237.354 244.622 237.357 244.987C237.36 245.3 237.212 245.476 236.922 245.573C236.316 245.775 235.713 245.992 235.107 246.202C234.826 246.427 234.635 246.712 234.555 247.065C235.07 247.125 235.582 247.182 236.097 247.241C236.296 247.162 236.492 247.079 236.689 246.997C237.519 246.644 238.35 246.572 239.181 246.994C239.374 246.991 239.488 247.085 239.519 247.273Z" fill="black"/>
<path d="M191.868 264.995C191.848 265.189 191.9 265.36 192.019 265.513C192.156 265.738 192.286 265.969 192.406 266.205C192.827 267.253 193.265 268.297 193.666 269.353C193.979 270.17 194.588 270.173 195.282 270.011C194.756 270.708 194.155 271.314 193.342 271.676C193.561 271.115 193.663 270.54 192.969 270.27C192.372 270.036 191.729 269.925 190.992 269.732C191.334 268.354 191.897 267.019 191.277 265.636C191.325 265.354 191.373 265.072 191.419 264.79C191.635 264.722 191.78 264.796 191.868 264.995Z" fill="white"/>
<path d="M260.852 240.862C260.736 240.996 260.642 241.184 260.497 241.246C260.349 241.309 260.144 241.263 259.971 241.232C259.891 241.218 259.791 241.144 259.76 241.07C259.015 239.37 258.27 237.671 257.553 235.96C257.507 235.849 257.629 235.593 257.749 235.505C257.868 235.414 258.184 235.363 258.241 235.434C259.458 236.982 260.346 238.704 260.909 240.594C260.926 240.668 260.872 240.771 260.852 240.862Z" fill="black"/>
<path d="M239.096 250.156C238.186 251.525 236.903 252.1 235.284 251.94C235.017 251.915 234.763 251.795 234.724 251.456C234.684 251.12 234.891 250.876 235.148 250.83C236.351 250.611 237.497 250.264 238.515 249.566L238.746 249.598C238.891 249.669 238.999 249.777 239.067 249.922L239.096 250.156Z" fill="black"/>
<path d="M215.315 255.839C215.315 256.03 215.315 256.221 215.315 256.411C215.534 256.804 215.491 257.277 215.71 257.67C215.721 257.832 215.713 257.994 215.682 258.156C215.189 258.825 215.383 259.801 214.697 260.385C214.987 258.985 214.74 257.681 213.98 256.471C214.364 256.067 214.749 255.66 215.133 255.256C215.354 255.33 215.454 255.441 215.434 255.589C215.414 255.754 215.374 255.839 215.315 255.839Z" fill="white"/>
<path d="M235.676 248.408C236.902 247.705 238.068 247.554 239.089 248.77C238.025 247.944 236.834 248.357 235.676 248.408Z" fill="black"/>
<path d="M233.91 246.953C233.919 247.463 233.93 247.972 233.939 248.482C233.375 247.984 233.5 247.471 233.91 246.953Z" fill="black"/>
<path d="M215.319 255.837C215.259 255.644 215.199 255.447 215.137 255.254C215.319 255.009 215.504 254.764 215.686 254.52C215.737 255.006 215.592 255.439 215.319 255.837Z" fill="#3B2B0D"/>
<path d="M233.938 248.48C234.381 248.486 234.822 248.492 235.266 248.5C234.819 248.748 234.37 249.2 233.938 248.48Z" fill="black"/>
<path d="M236.692 246.996C236.493 247.079 236.297 247.158 236.098 247.241C236.297 247.158 236.496 247.076 236.692 246.996Z" fill="black"/>
<path d="M239.108 249.566C239.25 249.569 239.389 249.572 239.532 249.572C239.514 249.862 239.352 250.044 239.093 250.152C239.017 250.095 238.945 250.03 238.883 249.959L238.852 249.68L239.108 249.566Z" fill="black"/>
<path d="M239.012 248.668C239.044 248.97 239.075 249.269 239.106 249.57L238.938 249.736L238.708 249.781C238.637 249.716 238.571 249.644 238.512 249.568C238.68 249.266 238.845 248.967 239.012 248.668Z" fill="black"/>
<path d="M239.519 247.269C239.388 247.198 239.275 247.104 239.184 246.985C239.38 246.979 239.491 247.076 239.519 247.269Z" fill="#3C2D0D"/>
<path d="M191.868 264.996C191.726 264.913 191.578 264.842 191.422 264.788C191.558 264.606 191.698 264.426 191.834 264.244C191.846 264.495 191.857 264.745 191.868 264.996Z" fill="#34270D"/>
<path d="M234.559 247.06C234.743 246.772 234.928 246.485 235.113 246.197C234.928 246.485 234.743 246.772 234.559 247.06Z" fill="#3C2D0D"/>
<path d="M227.431 193.669C227.132 211.408 212.363 224.132 196.036 223.457C180.484 222.814 166.91 210.002 167.172 192.867C167.433 175.746 181.608 162.598 198.402 163.218C214.551 163.819 227.522 176.975 227.431 193.669Z" fill="white"/>
<path d="M214.377 138.546C218.291 138.443 221.802 141.426 221.822 145.852C221.842 150.128 218.553 153.213 214.417 153.216C210.389 153.219 207.212 150.054 207.149 146.035C207.087 141.842 210.227 138.585 214.377 138.546Z" fill="white"/>
<path d="M263.694 238.094C262.335 238.049 261.535 236.939 261.908 235.92C262.329 234.764 263.199 234.093 264.377 233.868C265.077 233.734 265.654 234.061 266.067 234.639C266.442 235.166 266.32 235.695 266.035 236.219C265.472 237.26 264.687 237.995 263.694 238.094Z" fill="white"/>
<path d="M213.577 258.402C213.631 259.786 212.041 261.323 210.676 261.209C209.398 261.101 208.764 259.902 209.376 258.775C209.896 257.813 210.67 257.204 211.765 257.053C212.644 256.931 213.546 257.617 213.577 258.402Z" fill="white"/>
<path d="M203.775 262.906C203.568 262.98 203.428 262.906 203.323 262.698C203.24 262.533 203.115 262.388 203.03 262.226C202.273 260.783 202.686 259.988 204.31 259.755C204.939 259.664 205.436 260.159 205.306 260.731C205.135 261.474 204.799 262.129 204.264 262.67C204.142 262.79 203.94 262.829 203.775 262.906Z" fill="white"/>
<path d="M189.003 269.722C188.921 269.722 188.827 269.748 188.756 269.716C188.312 269.523 187.467 268.102 187.595 267.575C187.774 266.849 188.446 266.662 189.094 266.528C189.475 266.448 189.851 266.482 190.09 266.841C190.186 266.986 190.249 267.185 190.252 267.359C190.266 268.256 189.896 268.99 189.251 269.591C189.185 269.656 189.086 269.682 189.003 269.722Z" fill="white"/>
<path d="M220.871 255.1C220.965 256.429 219.295 258.088 217.964 257.989C216.852 257.906 216.072 256.762 216.482 255.771C216.948 254.644 217.819 253.97 219.005 253.748C219.813 253.597 220.82 254.357 220.871 255.1Z" fill="white"/>
<path d="M215.712 257.668C215.311 257.332 215.22 256.903 215.317 256.41C215.595 256.783 215.74 257.199 215.712 257.668Z" fill="#3B2B0D"/>
<path d="M174.605 273.294C175.18 272.491 176.033 272.324 176.836 272.073C177.094 271.99 177.427 271.905 177.587 272.215C177.703 272.446 177.734 272.733 177.737 272.998C177.74 273.175 177.666 273.382 177.555 273.528C177.012 274.239 176.81 275.583 175.743 275.392C174.987 275.261 174.802 274.094 174.605 273.294Z" fill="white"/>
<path d="M254.5 240.934C254.412 240.94 254.295 240.983 254.238 240.94C253.598 240.473 253.288 239.762 253.146 239.047C253.018 238.415 253.63 238.094 254.108 237.809C254.423 237.618 254.782 237.49 255.132 237.365C255.57 237.205 256.153 237.655 256.065 238.082C255.851 239.104 255.402 240.018 254.748 240.829C254.696 240.892 254.583 240.9 254.5 240.934Z" fill="white"/>
<path d="M192.399 266.205C192.14 266.049 191.98 265.835 192.012 265.514C192.143 265.747 192.271 265.977 192.399 266.205Z" fill="#34270D"/>
<path d="M182.449 271.602C182.503 271.26 182.6 270.967 182.953 271.064C183.505 271.214 183.891 271.587 184.014 272.165C184.071 272.441 183.428 273.161 183.152 273.127C182.722 273.076 182.574 272.74 182.515 272.364C182.472 272.097 182.466 271.824 182.449 271.602Z" fill="white"/>
<path d="M238.707 249.781L238.94 249.732L238.883 249.96L238.707 249.781Z" fill="black"/>
<path d="M197.185 174.877C207.343 174.82 215.666 183.044 215.788 193.16C215.896 202.169 208.924 211.821 197.261 211.804C185.721 211.784 178.783 202.268 178.809 193.376C178.834 183.22 187.024 174.937 197.185 174.877Z" fill="black"/>
</svg>
