<svg width="400" height="400" viewBox="0 0 400 400" fill="none" xmlns="http://www.w3.org/2000/svg">
<path d="M164.349 230.791C165.14 230.791 165.809 230.891 166.437 230.774C171.761 229.789 177.061 228.681 182.399 227.785C186.018 227.18 189.683 226.829 193.334 226.422C196.604 226.054 199.879 225.764 203.155 225.443C203.637 225.397 204.12 225.357 204.603 225.337C215.163 224.912 225.722 224.871 236.279 225.362C239.464 225.512 242.641 225.916 245.812 226.267C249.175 226.637 252.532 227.085 255.891 227.492C261.561 228.181 267.155 229.287 272.737 230.455C279.745 231.922 286.651 233.779 293.502 235.846C294.057 236.013 294.616 236.173 295.16 236.369C297.28 237.135 297.679 238.496 296.274 240.313C296.064 240.586 295.657 240.815 295.314 240.861C294.648 240.956 293.961 240.945 293.283 240.91C289.906 240.738 286.747 241.456 283.803 243.1C283.387 243.333 282.93 243.494 282.576 243.649C281.653 243.482 281.293 242.917 281.328 242.196C281.371 241.255 281.517 240.313 281.7 239.386C282.046 237.629 281.688 236.88 279.923 236.406C277.499 235.754 275.053 235.172 272.595 234.646C265.695 233.174 258.754 231.942 251.743 231.078C245.21 230.274 238.676 229.666 232.093 229.341C227.253 229.103 222.418 228.876 217.574 228.968C211.669 229.08 205.77 229.327 199.891 229.947C195.661 230.392 191.408 230.667 187.196 231.25C179.921 232.258 172.692 233.57 165.527 235.197C164.006 235.542 163.281 236.4 162.836 237.813C160.919 243.878 156.943 248.291 151.276 251.179C144.684 254.537 138.043 254.382 131.518 250.96C127.524 248.865 124.31 245.819 121.479 242.377C120.502 241.191 119.632 239.923 118.71 238.694C118.308 238.157 117.948 237.583 117.494 237.092C116.711 236.242 115.891 236.182 114.922 236.871C114.372 237.261 113.895 237.747 113.346 238.134C112.877 238.467 112.371 238.763 111.845 239.001C111.301 239.248 110.64 239.357 110.248 238.837C110.003 238.516 109.913 237.939 110.006 237.534C110.792 234.155 110.963 230.739 110.92 227.286C110.885 224.593 110.588 221.955 109.802 219.374C109.608 218.734 109.462 218.079 109.293 217.433C109.078 216.612 109.322 215.903 109.913 215.338C111.094 214.207 112.374 213.211 114.093 212.654C114.512 213.081 114.986 213.423 115.274 213.88C116.092 215.177 116.807 216.535 117.61 217.841C118.413 219.147 119.222 220.456 120.118 221.702C122.145 224.518 124.289 227.211 127.541 228.816C128.679 229.376 128.653 230.366 127.539 231.012C126.628 231.54 125.616 231.893 124.65 232.33C123.3 232.938 122.966 233.805 123.603 235.08C123.731 235.335 123.876 235.588 124.042 235.82C127.763 241.071 132.28 245.432 138.2 248.268C140.681 249.453 143.296 250.088 145.996 250.389C148.346 250.653 150.61 250.068 152.841 249.399C154.042 249.037 154.758 248.15 155.377 247.16C157.507 243.769 158.723 240.063 159.101 236.11C159.738 229.45 157.937 223.436 153.946 218.051C150.834 213.848 147.049 210.3 142.88 207.142C137.484 203.054 131.71 199.578 125.499 196.807C122.765 195.587 120.068 194.287 117.404 192.926C113.849 191.112 110.661 188.792 107.981 185.833C105.238 182.801 103.118 179.422 101.948 175.492C101.361 173.52 101.34 171.525 101.602 169.527C101.832 167.782 102.664 166.257 103.88 164.971C105.474 163.283 107.269 161.819 109.314 160.697C111.411 159.546 113.613 158.977 116.002 159.836C116.999 160.194 118.041 160.436 119.038 160.794C120.033 161.153 120.912 161.03 121.787 160.45C122.59 159.919 123.422 159.419 124.286 158.997C125.275 158.515 125.956 158.762 126.325 159.841C127.699 163.849 129.924 167.452 131.806 171.215C132.449 172.498 133.234 173.71 133.903 174.981C134.514 176.141 134.433 176.675 133.409 177.467C132.431 178.225 131.355 178.863 130.468 179.454C129.086 179.204 128.801 178.188 128.306 177.407C125.93 173.664 123.126 170.271 119.635 167.463C117.523 165.764 115.268 164.274 112.642 163.461C111.542 163.123 110.39 162.89 109.247 162.772C107.696 162.614 106.841 163.235 106.51 164.722C106.021 166.9 106.146 169.088 106.678 171.252C107.932 176.348 110.71 180.516 114.695 183.929C118.16 186.898 122.122 189.108 126.174 191.169C128.929 192.57 131.722 193.894 134.494 195.26C141.208 198.57 147.381 202.655 152.87 207.722C156.512 211.083 159.569 214.89 161.626 219.403C162.987 222.385 163.799 225.52 163.991 228.801C164.023 229.445 164.215 230.076 164.349 230.791Z" fill="#F9F8F4"/>
<path d="M158.46 190.36C158.529 192.975 159.827 194.89 160.749 196.954C161.689 199.05 162.727 201.099 163.728 203.166C164.731 205.233 165.755 207.289 166.744 209.361C167.733 211.428 168.693 213.507 169.677 215.605C168.99 216.937 167.768 217.566 166.631 218.24C165.43 218.952 164.673 218.726 164.056 217.477C162.704 214.73 161.403 211.956 160.089 209.192C154.416 197.267 148.744 185.345 143.077 173.417C142.591 172.395 142.134 171.356 141.672 170.346C142.655 168.853 143.982 168.083 145.375 167.426C146.038 167.113 146.71 167.251 147.19 167.874C147.481 168.253 147.755 168.649 148.019 169.048C150.783 173.225 154.035 177.011 157.569 180.56C160.894 183.898 164.289 187.168 167.669 190.452C168.184 190.954 168.624 191.663 169.581 191.523C169.947 190.529 169.345 189.815 168.996 189.071C166.552 183.878 164.083 178.694 161.622 173.509C161.459 173.165 161.296 172.817 161.13 172.473C159.998 170.136 159.737 169.791 162.302 168.029C162.925 167.601 163.64 167.303 164.187 167.01C165.255 167.216 165.563 167.928 165.895 168.623C167.163 171.304 168.44 173.983 169.712 176.661C175.413 188.678 181.115 200.695 186.816 212.709C186.939 212.967 187.084 213.217 187.203 213.478C188.23 215.729 188.122 216.148 186.162 217.528C185.848 217.75 185.525 217.965 185.19 218.154C183.84 218.921 183.119 218.803 182.313 217.44C177.435 209.189 170.82 202.345 164.132 195.562C162.649 194.055 161.13 192.579 159.603 191.115C159.271 190.808 158.841 190.61 158.46 190.36Z" fill="#F9F8F4"/>
<path d="M213.988 183.118C214.692 181.883 215.643 181.375 216.545 180.838C217.613 180.204 218.369 180.376 218.974 181.444C219.78 182.859 220.487 184.326 221.246 185.767C221.557 186.359 221.848 186.973 222.238 187.513C222.427 187.777 222.826 187.892 223.09 188.049C223.282 187.877 223.396 187.828 223.416 187.754C224.414 183.878 225.476 180.017 226.354 176.113C226.663 174.738 226.68 173.251 226.541 171.841C226.375 170.199 226.916 169.065 228.289 168.227C229.019 167.782 229.735 167.314 230.343 166.93C231.564 167.139 231.838 168 232.207 168.764C233.708 171.867 235.215 174.968 236.702 178.077C238.435 181.705 240.239 185.302 241.833 188.991C242.697 190.986 243.881 192.175 246.173 192.002C246.458 191.982 246.755 192.02 247.04 192.066C247.93 192.212 248.457 192.855 248.227 193.693C247.924 194.796 247.508 195.869 247.122 196.949C246.93 197.48 246.694 197.996 246.441 198.614C247.89 201.72 249.332 204.843 250.796 207.955C251.732 209.947 252.733 211.911 253.649 213.912C254.455 215.671 254.315 216.099 252.675 217.242C252.046 217.678 251.374 218.077 250.679 218.401C250.1 218.674 249.498 218.519 249.146 217.977C248.73 217.336 248.381 216.653 248.055 215.964C245.589 210.777 243.13 205.587 240.675 200.394C239.282 197.445 239.462 197.316 235.707 196.94C234.459 196.814 233.188 196.779 231.934 196.834C230.244 196.908 229.531 197.816 229.737 199.498C229.796 199.969 229.956 200.425 230.066 200.89C231.102 205.182 232.731 209.264 234.572 213.269C234.889 213.958 235.174 214.658 235.468 215.338C234.729 216.909 233.362 217.649 232.012 218.373C231.422 218.691 230.86 218.433 230.514 217.893C230.153 217.331 229.848 216.731 229.56 216.128C224.656 205.845 219.754 195.562 214.861 185.276C214.538 184.593 214.291 183.873 213.988 183.118ZM228.239 188.153C228.268 188.319 228.303 188.997 228.516 189.614C228.658 190.03 228.964 190.536 229.336 190.705C230.857 191.405 232.478 191.603 234.092 191.038C234.982 190.725 235.503 189.781 235.145 188.965C234.153 186.703 233.057 184.49 231.986 182.262C231.908 182.099 231.739 181.975 231.599 181.846C230.834 181.134 229.662 181.22 229.109 182.107C228.818 182.572 228.62 183.143 228.556 183.686C228.408 185.001 228.362 186.333 228.239 188.153Z" fill="#F9F8F4"/>
<path d="M266.323 166.834C268.011 168.752 268.194 170.816 268.52 172.736C268.872 174.792 268.828 176.922 268.834 179.017C268.84 181.021 268.589 183.005 268.086 184.965C267.6 186.863 266.742 188.666 266.166 191C267.714 190.345 268.162 189.372 268.607 188.491C269.567 186.602 271.199 185.433 272.918 184.351C274.087 183.613 274.8 183.837 275.51 185.08C275.842 185.66 276.112 186.277 276.4 186.883C280.665 195.874 284.929 204.865 289.179 213.859C289.458 214.448 289.63 215.088 289.851 215.696C288.926 217.011 287.62 217.66 286.372 218.355C285.604 218.779 284.906 218.527 284.443 217.671C283.85 216.578 283.335 215.447 282.806 214.321C279.76 207.825 276.72 201.326 273.674 194.829C273.389 194.223 273.116 193.609 272.796 193.023C271.693 191.002 270.559 190.819 269 192.426C268.197 193.253 267.458 194.143 266.67 194.981C266.012 195.682 265.323 196.351 264.651 197.037C263.973 197.726 263.836 198.541 264.156 199.417C264.386 200.042 264.689 200.645 264.974 201.251C266.931 205.405 268.904 209.553 270.85 213.713C271.859 215.874 271.781 216.095 269.814 217.45C267.312 219.176 266.768 219.055 265.491 216.374C258.466 201.598 251.45 186.82 244.439 172.039C244.157 171.444 243.95 170.816 243.703 170.184C244.512 168.826 245.737 168.083 247.04 167.454C247.854 167.061 248.596 167.267 249.038 168.034C249.611 169.027 250.112 170.064 250.603 171.1C253.352 176.89 256.084 182.692 258.836 188.479C259.202 189.251 259.586 190.041 260.098 190.721C260.886 191.766 262.385 191.625 262.966 190.448C263.342 189.688 263.574 188.841 263.758 188.008C264.825 183.14 264.395 178.331 263.077 173.569C262.949 173.109 262.801 172.653 262.629 172.208C261.858 170.213 261.608 169.745 263.941 168.189C264.648 167.71 265.419 167.339 266.323 166.834Z" fill="#F9F8F4"/>
<path d="M203.896 180.73C202.305 181.898 201.048 183.072 199.166 183.658C198.648 182.957 198.11 182.308 197.659 181.608C195.675 178.533 193.444 175.657 190.713 173.191C189.86 172.422 188.927 171.727 187.972 171.084C187.167 170.544 186.274 170.091 185.282 170.714C184.316 171.319 184.316 172.293 184.333 173.263C184.339 173.645 184.333 174.032 184.394 174.405C185.61 181.562 189.258 186.996 196.033 190.125C197.418 190.766 198.96 191.084 200.426 191.549C200.72 192.304 200.068 192.568 199.661 192.873C198.814 193.501 197.921 194.078 197.014 194.615C195.879 195.284 195.411 196.246 195.623 197.506C195.798 198.539 195.972 199.584 196.283 200.58C197.523 204.559 199.498 208.159 202.398 211.191C203.515 212.359 204.876 213.309 206.162 214.314C206.61 214.664 207.151 214.92 207.678 215.155C210.089 216.237 211.564 215.287 211.311 212.741C211.172 211.323 210.936 209.887 210.505 208.535C209.813 206.356 208.967 204.223 208.108 202.099C207.608 200.862 206.945 199.688 206.372 198.476C205.38 196.375 205.447 196.151 207.425 194.733C209.941 192.927 210.395 192.985 211.721 195.677C212.862 197.991 213.947 200.339 214.878 202.742C215.928 205.452 216.242 208.288 215.843 211.191C215.628 212.755 215.046 214.142 213.953 215.287C212.547 216.763 210.939 217.997 209.007 218.715C206.334 219.708 203.707 219.656 201.211 218.129C200.801 217.877 200.379 217.633 200.007 217.334C195.332 213.611 192.228 208.929 190.916 203.092C190.492 201.209 190.713 199.504 191.553 197.825C191.725 197.483 191.964 197.173 192.115 196.823C192.635 195.629 192.38 194.822 191.271 194.144C190.942 193.943 190.573 193.814 190.236 193.628C182.981 189.6 179.641 183.336 179.478 175.267C179.437 173.24 180.168 171.512 181.701 170.177C182.856 169.172 184.022 168.139 185.331 167.361C187.03 166.353 188.921 165.899 190.884 166.723C192.144 167.252 193.307 167.217 194.398 166.324C194.619 166.143 194.89 166.017 195.152 165.897C195.984 165.512 196.641 165.753 197.04 166.603C198.221 169.109 199.361 171.635 200.577 174.124C201.374 175.755 202.287 177.333 203.125 178.947C203.381 179.446 203.573 179.98 203.896 180.73Z" fill="#F9F8F4"/>
<path d="M197.098 143.217C195.946 146.719 190.327 155.853 187.214 159.421C187.123 159.322 186.944 159.213 186.953 159.124C187.283 154.161 187.488 149.179 188.019 144.235C188.416 140.545 189.445 140.008 192.883 141.05C193.893 141.356 194.89 141.738 195.859 142.166C196.248 142.341 196.549 142.737 197.098 143.217Z" fill="#FFBD00"/>
</svg>
