<svg width="400" height="400" viewBox="0 0 400 400" fill="none" xmlns="http://www.w3.org/2000/svg">
<path d="M208.288 258.939V251.93H212.281V272.055H208.755L208.609 270.248C207.603 271.779 206.19 272.536 204.368 272.536C202.517 272.536 201.016 271.808 199.85 270.365C198.684 268.922 198.102 267.028 198.102 264.71C198.102 262.408 198.67 260.572 199.792 259.173C200.929 257.803 202.342 257.103 204.062 257.103C205.869 257.103 207.283 257.715 208.288 258.939ZM205.213 269.039C206.175 269.039 206.962 268.645 207.574 267.858C208.186 267.071 208.492 266.022 208.492 264.725C208.492 263.428 208.186 262.379 207.589 261.606C206.991 260.819 206.19 260.44 205.213 260.44C204.237 260.44 203.435 260.834 202.838 261.606C202.24 262.393 201.934 263.428 201.934 264.725C201.934 266.022 202.24 267.071 202.838 267.858C203.435 268.645 204.222 269.039 205.213 269.039Z" fill="#F9F8F4"/>
<path d="M229.008 265.278V265.963H218.443C218.516 267.056 218.851 267.916 219.463 268.543C220.075 269.169 220.862 269.476 221.867 269.476C223.281 269.476 224.228 268.849 224.695 267.581L228.659 267.858C228.163 269.403 227.347 270.583 226.196 271.385C225.044 272.186 223.631 272.594 221.955 272.594C219.594 272.594 217.743 271.866 216.388 270.394C215.033 268.922 214.348 267.042 214.348 264.739C214.348 262.539 215.003 260.717 216.3 259.289C217.598 257.861 219.346 257.146 221.532 257.146C223.733 257.146 225.54 257.875 226.939 259.347C228.309 260.804 229.008 262.786 229.008 265.278ZM223.864 260.863C223.296 260.294 222.567 260.017 221.663 260.017C220.76 260.017 220.017 260.294 219.434 260.863C218.851 261.46 218.516 262.262 218.414 263.238H224.884C224.768 262.218 224.432 261.431 223.864 260.863Z" fill="#F9F8F4"/>
<path d="M235.005 272.07H231.012V251.93H235.005V272.07Z" fill="#F9F8F4"/>
<path d="M245.233 260.413L242.522 260.325V267.481C242.522 267.976 242.639 268.326 242.843 268.545C243.047 268.763 243.411 268.865 243.906 268.865H245.233V272.057H242.624C241.152 272.057 240.103 271.736 239.476 271.11C238.849 270.483 238.529 269.434 238.529 267.962V260.325L236.547 260.413V257.469L238.529 257.527V252.98H242.507V257.556L245.218 257.469V260.413H245.233Z" fill="#F9F8F4"/>
<path d="M259.849 272.07H255.812C255.608 271.123 255.506 270.642 255.506 270.599C254.472 271.866 252.971 272.493 251.018 272.493C249.488 272.493 248.264 272.085 247.345 271.283C246.427 270.482 245.961 269.404 245.961 268.063C245.961 265.702 247.433 264.23 250.391 263.647L255.477 262.627V261.549C255.477 260.499 254.661 259.96 253.014 259.96C252.198 259.96 251.586 260.106 251.178 260.412C250.756 260.718 250.508 261.199 250.42 261.884L246.777 261.825C247.025 258.692 249.094 257.133 253 257.133C257.197 257.133 259.31 258.94 259.31 262.554V268.995C259.281 270.38 259.47 271.4 259.849 272.07ZM252.14 269.549C253.146 269.549 253.947 269.258 254.559 268.66C255.171 268.063 255.477 267.261 255.477 266.241V265.163L251.747 265.95C250.479 266.197 249.852 266.809 249.852 267.786C249.852 268.311 250.056 268.733 250.464 269.054C250.858 269.389 251.426 269.549 252.14 269.549Z" fill="#F9F8F4"/>
<path d="M264.789 272.871C266.196 272.871 267.336 271.731 267.336 270.324C267.336 268.918 266.196 267.777 264.789 267.777C263.382 267.777 262.242 268.918 262.242 270.324C262.242 271.731 263.382 272.871 264.789 272.871Z" fill="#F9F8F4"/>
<path d="M259.395 194.799L149.179 130.355L145.319 128.098C142.651 126.546 139.278 128.367 139.124 131.445L138.894 135.908L132.468 260.436L132.225 265.156C132.058 268.336 135.405 270.491 138.227 269.029L142.42 266.862L259.087 206.79L263.486 204.52C266.372 203.033 266.487 198.942 263.679 197.3L259.395 194.799ZM251.79 198.275L174.252 218.923C172.79 219.307 171.289 218.448 170.891 216.973L149.923 138.717L251.79 198.275ZM139.599 254.973L145.152 147.335L165.082 221.654C165.313 222.501 165.12 223.411 164.569 224.091L139.599 254.973ZM146.832 256.91L170.584 227.528C170.956 227.079 171.456 226.746 172.007 226.605L241.761 208.022L146.832 256.91Z" fill="#F9F8F4"/>
</svg>
