<svg width="400" height="400" viewBox="0 0 400 400" fill="none" xmlns="http://www.w3.org/2000/svg">
<g clip-path="url(#clip0)">
<path d="M174.93 164.486H183.363L179.225 180.444C178.901 181.658 178.668 182.611 178.527 183.299C178.385 183.987 178.287 184.59 178.236 185.113C178.097 186.474 178.367 187.534 179.047 188.295C179.727 189.057 180.749 189.436 182.105 189.436C185.338 189.436 188.08 185.079 190.327 176.363L190.4 176.058L193.386 164.486H201.819L197.168 182.53V182.552C196.153 186.459 195.099 189.226 194.004 190.845C192.618 192.916 190.804 194.491 188.553 195.577C186.302 196.662 183.727 197.206 180.821 197.206C177.072 197.206 174.163 196.298 172.086 194.48C170.01 192.663 169.126 190.249 169.435 187.239C169.526 186.341 169.737 185.142 170.061 183.633C170.384 182.129 170.835 180.26 171.406 178.03L174.93 164.486Z" fill="#F9F8F4"/>
<path d="M203.426 196.272L209.736 171.867H202.695L204.652 164.486H226.842L224.886 171.867H218.169L211.86 196.272H203.426Z" fill="#F9F8F4"/>
<path d="M238.926 197.117C236.678 197.117 234.667 196.804 232.893 196.182C231.118 195.561 229.58 194.626 228.274 193.382C226.907 192.05 225.903 190.41 225.26 188.452C224.616 186.498 224.405 184.42 224.63 182.219C224.874 179.846 225.46 177.628 226.394 175.563C227.329 173.499 228.594 171.63 230.198 169.949C232.075 167.951 234.275 166.42 236.795 165.357C239.315 164.294 241.981 163.768 244.799 163.768C249.519 163.768 253.196 165.144 255.829 167.892C258.458 170.644 259.549 174.217 259.102 178.617C258.862 180.976 258.265 183.194 257.316 185.273C256.367 187.352 255.102 189.221 253.512 190.888C251.574 192.93 249.37 194.479 246.901 195.535C244.432 196.591 241.773 197.117 238.926 197.117ZM243.468 171.542C240.908 171.542 238.664 172.477 236.744 174.342C234.824 176.207 233.722 178.525 233.438 181.288C233.187 183.735 233.678 185.689 234.911 187.15C236.144 188.61 237.911 189.343 240.213 189.343C242.73 189.343 244.97 188.375 246.926 186.443C248.883 184.512 250.003 182.153 250.287 179.375C250.519 177.087 249.996 175.21 248.716 173.742C247.436 172.274 245.686 171.542 243.468 171.542Z" fill="#F9F8F4"/>
<path d="M180.496 233.936L188.697 202.146H198.29L203.319 217.846C203.363 217.975 203.432 218.199 203.53 218.519C204.083 220.241 204.439 221.746 204.592 223.034L204.676 222.232C204.734 221.654 204.832 221.014 204.967 220.311C205.101 219.609 205.287 218.759 205.516 217.762L209.534 202.15H217.924L209.723 233.939H200.494L195.104 217.762C194.708 216.588 194.417 215.62 194.232 214.851C194.046 214.082 193.897 213.317 193.792 212.548L193.701 213.438C193.642 214.016 193.555 214.63 193.439 215.274C193.322 215.918 193.144 216.775 192.908 217.846L188.882 233.936H180.496V233.936Z" fill="#F9F8F4"/>
<path d="M232.254 234.782C230.007 234.782 227.996 234.47 226.221 233.848C224.446 233.226 222.908 232.292 221.602 231.048C220.235 229.716 219.231 228.075 218.588 226.118C217.944 224.164 217.733 222.085 217.959 219.885C218.202 217.512 218.788 215.293 219.722 213.229C220.657 211.165 221.922 209.296 223.526 207.614C225.403 205.617 227.603 204.086 230.123 203.023C232.643 201.959 235.312 201.426 238.131 201.426C242.851 201.426 246.528 202.802 249.161 205.55C251.79 208.302 252.881 211.875 252.434 216.276C252.194 218.634 251.597 220.853 250.648 222.931C249.699 225.01 248.433 226.879 246.844 228.546C244.906 230.588 242.702 232.137 240.233 233.193C237.76 234.256 235.101 234.782 232.254 234.782ZM236.796 209.208C234.236 209.208 231.992 210.142 230.072 212.008C228.152 213.877 227.05 216.191 226.766 218.954C226.515 221.401 227.006 223.355 228.239 224.815C229.472 226.276 231.239 227.008 233.541 227.008C236.058 227.008 238.298 226.04 240.255 224.109C242.211 222.177 243.331 219.819 243.615 217.041C243.848 214.752 243.324 212.876 242.044 211.408C240.764 209.94 239.014 209.208 236.796 209.208Z" fill="#F9F8F4"/>
<path d="M250.629 233.938L263.488 202.148H272.823L273.67 214.459C273.721 215.213 273.758 216.005 273.783 216.836C273.809 217.668 273.82 218.532 273.83 219.43C274.052 218.793 274.332 218.109 274.674 217.377C275.012 216.645 275.481 215.729 276.081 214.628L282.98 202.145H292.25L289.755 233.934H282.009L283.471 218.779C283.558 217.925 283.66 217.083 283.773 216.247C283.886 215.412 284.013 214.581 284.158 213.738C283.733 214.809 283.06 216.148 282.14 217.756C281.965 218.076 281.835 218.311 281.744 218.473L272.998 233.934H267.91L266.546 218.495C266.47 217.715 266.408 216.928 266.368 216.141C266.328 215.353 266.295 214.559 266.277 213.764C266.023 214.706 265.764 215.596 265.499 216.435C265.233 217.274 264.972 218.058 264.713 218.779L258.811 233.934H250.629V233.938Z" fill="#F9F8F4"/>
<path d="M302.731 226.857H312.452L310.634 233.936H292.52L300.72 202.146H318.834L316.947 209.487H307.226L305.902 214.675H314.917L313.161 221.581H304.106L302.731 226.857Z" fill="#F9F8F4"/>
<path d="M176.236 233.933H143.059L138.037 170.586C138.037 170.571 137.979 169.78 137.972 169.766C137.63 166.039 130.004 164.479 130.004 164.479H158.359C159.355 164.479 160.191 165.236 160.3 166.241L166.559 225.066C166.559 225.07 166.559 225.081 166.563 225.088C167.381 232.642 176.236 233.933 176.236 233.933Z" fill="#FBB040"/>
<path d="M140.03 196.242C140.03 196.242 133.909 197.548 128.705 206.728L114.144 232.414C113.61 233.355 112.62 233.937 111.548 233.937H81.1602C81.1602 233.937 88.2988 231.582 90.7935 227.483L108.5 197.876C109.107 196.86 110.191 196.242 111.362 196.242H140.03Z" fill="#FBB040"/>
</g>
<defs>
<clipPath id="clip0">
<rect width="237.681" height="71.0145" fill="white" transform="translate(81.1602 163.768)"/>
</clipPath>
</defs>
</svg>
