<svg width="400" height="400" viewBox="0 0 400 400" fill="none" xmlns="http://www.w3.org/2000/svg">
<path d="M130.567 184.812C130.243 184.644 129.886 184.697 129.509 184.948C129.132 185.2 128.912 185.577 128.849 186.08C127.266 205.129 124.772 224.231 121.377 243.396C121.262 243.878 121.367 244.192 121.692 244.349C122.017 244.517 122.373 244.465 122.771 244.203C123.169 243.951 123.41 243.584 123.494 243.113C126.921 223.938 129.436 204.825 131.018 185.776C131.039 185.294 130.892 184.969 130.567 184.812Z" fill="#F9F8F4" stroke="#F9F8F4" stroke-width="0.5"/>
<path d="M193.209 188.102C193.021 187.882 192.78 187.798 192.465 187.851C190.6 188.05 188.829 189.192 187.184 191.267C185.581 193.268 184.145 195.867 182.867 199.063C182.856 199.01 182.846 198.968 182.825 198.926C183.516 194.662 184.344 190.041 185.329 185.064C185.381 184.707 185.329 184.403 185.172 184.173C185.015 183.932 184.805 183.806 184.522 183.796C184.25 183.775 183.977 183.89 183.715 184.131C183.464 184.372 183.307 184.655 183.244 184.98C182.049 191.015 181.148 195.992 180.54 199.89C180.352 200.205 180.132 200.54 179.911 200.886C179.492 201.525 178.968 202.248 178.35 203.055C177.732 203.851 177.135 204.532 176.548 205.077C175.971 205.622 175.385 206.072 174.777 206.439C174.159 206.806 173.635 206.869 173.205 206.638C172.796 206.324 172.691 205.444 172.87 203.977C173.048 202.51 173.467 200.697 174.106 198.56C174.609 197.187 175.07 195.835 175.489 194.515C175.605 194.211 175.605 193.918 175.479 193.635C175.343 193.362 175.154 193.184 174.892 193.111C174.63 193.038 174.368 193.1 174.106 193.289C173.844 193.478 173.645 193.729 173.498 194.043V194.148C173.184 193.677 172.828 193.352 172.419 193.174C171.706 192.88 170.931 192.996 170.072 193.52C169.097 194.085 168.007 195.248 166.802 197.019C165.587 198.78 164.56 200.708 163.711 202.803C163.575 203.139 163.449 203.463 163.334 203.778C163.271 203.799 163.219 203.809 163.156 203.83C160.945 204.606 158.702 205.632 156.407 206.921C155.621 203.212 154.123 200.666 151.922 199.304C148.978 197.533 144.838 197.7 139.515 199.796C142.282 197.313 144.692 194.976 146.756 192.786C148.82 190.596 150.665 188.259 152.289 185.797C153.473 184.005 154.395 182.14 155.076 180.191C155.757 178.253 156.135 176.409 156.198 174.659C156.271 172.909 155.841 171.4 154.919 170.132C153.987 168.864 152.593 168.078 150.707 167.764C148.579 167.408 146.305 167.502 143.885 168.047C141.454 168.581 139.075 169.493 136.717 170.771C134.37 172.06 132.054 173.611 129.791 175.424C127.527 177.236 125.431 179.311 123.503 181.637C121.586 183.974 119.909 186.384 118.463 188.888C117.017 191.392 115.906 194.033 115.131 196.82C114.355 199.597 113.999 202.3 114.062 204.909C114.072 205.088 114.104 205.213 114.167 205.297C114.355 205.873 114.753 206.062 115.372 205.873C115.948 205.685 116.22 205.276 116.189 204.626C116.158 202.583 116.388 200.498 116.881 198.371C117.373 196.233 118.096 194.18 119.039 192.22C119.982 190.261 121.104 188.333 122.424 186.415C123.734 184.498 125.159 182.769 126.71 181.208C128.261 179.646 129.906 178.158 131.656 176.754C133.406 175.35 135.187 174.187 137.011 173.276C138.824 172.353 140.636 171.589 142.449 170.991C144.252 170.384 146.002 170.09 147.699 170.101C149.722 170.027 151.262 170.405 152.299 171.243C153.347 172.092 153.882 173.192 153.913 174.543C153.945 175.906 153.693 177.414 153.148 179.081C152.603 180.747 151.849 182.402 150.885 184.026C149.921 185.661 148.862 187.17 147.72 188.542C146.63 189.863 145.362 191.246 143.916 192.713C142.481 194.18 141.349 195.29 140.521 196.055C139.704 196.82 138.279 198.099 136.235 199.89C134.202 201.682 132.955 202.793 132.505 203.222C132.012 203.652 131.845 204.207 131.991 204.857C132.138 205.517 132.515 205.674 133.133 205.339C134.653 204.501 136.005 203.799 137.189 203.233C138.362 202.667 139.714 202.112 141.223 201.567C142.743 201.022 144.189 200.697 145.572 200.603C146.955 200.498 148.234 200.645 149.407 201.043C150.675 201.473 151.734 202.332 152.582 203.6C153.431 204.867 154.039 206.376 154.395 208.116C151.587 209.845 148.82 211.909 146.085 214.319C143.35 216.718 140.815 219.265 138.478 221.968C136.151 224.661 133.951 227.511 131.907 230.497C131.541 231.042 131.101 231.723 130.598 232.551C130.084 233.368 129.455 234.448 128.701 235.768C127.946 237.078 127.318 238.356 126.815 239.571C126.312 240.797 125.903 241.96 125.62 243.082C125.327 244.192 125.337 245.083 125.651 245.743C125.966 246.414 126.636 246.728 127.653 246.707C127.957 246.697 128.292 246.644 128.659 246.55C129.026 246.456 129.413 246.33 129.812 246.152C130.21 245.984 130.566 245.816 130.891 245.67C131.205 245.513 131.593 245.303 132.033 245.031C132.473 244.769 132.83 244.549 133.081 244.402C133.343 244.245 133.689 244.025 134.118 243.742C134.265 243.637 134.391 243.553 134.485 243.49C137.807 241.29 141.118 238.503 144.43 235.16C146.064 233.525 147.573 231.828 148.946 230.068C150.329 228.307 151.618 226.421 152.823 224.399C154.018 222.366 154.982 220.25 155.705 218.039C156.428 215.828 156.805 213.659 156.847 211.532C156.868 210.872 156.837 210.096 156.763 209.216C158.775 208.105 160.725 207.183 162.621 206.46C162.537 207.005 162.495 207.498 162.516 207.948C162.569 209.834 163.355 210.83 164.864 210.924C166.708 210.997 168.647 209.352 170.659 205.999C170.711 207.613 171.203 208.608 172.126 208.996C172.744 209.247 173.425 209.279 174.159 209.09C174.892 208.902 175.678 208.493 176.495 207.864C177.323 207.236 178.046 206.565 178.685 205.852C179.094 205.381 179.503 204.888 179.922 204.344C179.513 207.686 179.471 209.677 179.807 210.337C179.995 210.735 180.32 210.882 180.781 210.767C180.813 210.756 180.844 210.725 180.876 210.683C181.368 210.526 181.672 210.149 181.787 209.572C182.51 206.366 183.38 203.38 184.407 200.603C185.434 197.826 186.639 195.458 188.043 193.488C189.447 191.508 190.862 190.449 192.277 190.292C192.549 190.25 192.811 190.093 193.052 189.831C193.293 189.559 193.429 189.255 193.45 188.92C193.482 188.584 193.398 188.312 193.209 188.102ZM144.891 231.713C139.641 237.507 134.674 241.458 129.958 243.574C129.927 243.574 129.78 243.637 129.529 243.763C129.267 243.878 129.057 243.972 128.91 244.046C128.753 244.119 128.565 244.182 128.355 244.213C128.135 244.255 127.967 244.255 127.842 244.224C127.726 244.213 127.642 244.213 127.611 244.224C127.611 243.983 127.737 243.333 127.999 242.254C128.47 240.441 129.235 238.597 130.304 236.753C131.373 234.898 132.662 232.897 134.171 230.738C137.094 226.62 140.312 222.817 143.801 219.317C147.291 215.817 150.927 212.873 154.71 210.484C154.71 211.071 154.72 211.511 154.72 211.825C154.626 217.976 151.346 224.608 144.891 231.713ZM172.115 198.088C170.994 200.98 169.82 203.432 168.594 205.465C167.379 207.498 166.32 208.482 165.43 208.441C164.937 208.388 164.686 208.042 164.675 207.382C164.623 205.842 165.346 203.662 166.823 200.854C168.311 198.046 169.621 196.307 170.742 195.636C170.868 195.573 170.973 195.521 171.067 195.5C171.162 195.479 171.235 195.489 171.298 195.542C171.675 195.689 171.927 196.15 172.052 196.904C172.126 197.103 172.22 197.271 172.346 197.407C172.251 197.669 172.178 197.899 172.115 198.088Z" fill="#F9F8F4" stroke="#F9F8F4" stroke-width="0.5"/>
<path d="M285.886 171.641C285.792 171.347 285.603 171.169 285.321 171.106C285.048 171.043 284.765 171.096 284.493 171.263C283.277 172.07 282.009 173.013 280.699 174.113C280.605 169.503 279.945 166.747 278.698 165.857C278.446 165.678 278.142 165.647 277.776 165.783C277.315 165.93 276.801 166.422 276.225 167.24C275.648 168.068 274.611 169.744 273.113 172.28C269.288 178.776 267.014 182.119 266.28 182.307C265.777 182.025 265.861 180.359 266.511 177.341C267.16 174.313 268.135 171.001 269.445 167.407C269.592 167.093 269.613 166.789 269.497 166.485C269.392 166.181 269.204 166.003 268.942 165.93C268.68 165.857 268.397 165.919 268.114 166.119C267.821 166.318 267.622 166.569 267.496 166.873C266.605 169.283 265.798 171.85 265.065 174.564C263.734 179.583 263.524 182.758 264.467 184.11C264.321 184.256 264.164 184.393 264.006 184.529C263.608 184.854 263.315 184.979 263.126 184.885C262.791 184.697 262.476 183.135 262.193 180.191C262.078 179.143 261.984 178.378 261.9 177.875C261.816 177.383 261.701 176.806 261.533 176.157C261.366 175.507 261.146 175.057 260.842 174.826C260.548 174.595 260.192 174.491 259.762 174.533C258.893 174.616 257.929 175.371 256.839 176.796C255.749 178.221 254.209 180.568 252.228 183.858C251.893 184.424 251.62 184.896 251.411 185.262C252.123 180.924 252.941 176.523 253.863 172.06C253.926 171.724 253.873 171.442 253.716 171.19C253.559 170.928 253.328 170.802 253.035 170.813C252.741 170.823 252.479 170.939 252.238 171.18C251.997 171.41 251.83 171.693 251.735 172.028C251.662 172.385 251.599 172.741 251.536 173.087L251.526 173.097C249.954 174.878 247.785 175.539 244.998 175.067C244.495 174.648 243.887 174.522 243.143 174.721C242.074 174.994 241.057 175.759 240.083 177.016C239.119 178.263 238.364 179.594 237.83 180.998C237.295 182.402 236.992 183.617 236.918 184.634C236.918 184.707 236.897 184.864 236.876 185.116C236.667 187.484 236.813 189.265 237.327 190.46C237.17 190.596 237.044 190.763 236.95 190.963C236.897 191.151 236.772 191.424 236.593 191.759C236.415 192.105 236.059 192.66 235.535 193.435C235.011 194.211 234.456 194.923 233.879 195.552C233.303 196.181 232.59 196.757 231.731 197.27C230.882 197.794 230.023 198.067 229.164 198.119C226.02 198.234 224.228 195.531 223.788 189.999C223.882 189.904 223.956 189.799 224.019 189.684C224.763 188.133 225.611 186.363 226.555 184.351C227.487 182.339 228.87 179.248 230.694 175.077C232.507 170.897 234.068 167.083 235.357 163.635C236.646 160.188 237.694 156.793 238.501 153.471C239.297 150.15 239.475 147.803 239.025 146.43C238.668 145.414 238.029 144.848 237.107 144.732C237.044 144.722 236.981 144.722 236.929 144.732C235.724 144.837 234.487 145.686 233.198 147.279C231.909 148.871 230.704 150.925 229.562 153.44C228.43 155.944 227.361 158.731 226.355 161.802C225.349 164.861 224.49 167.973 223.767 171.117C223.034 174.271 222.489 177.226 222.132 179.981C221.745 182.821 221.556 185.388 221.546 187.672C221.525 187.693 221.504 187.714 221.493 187.735C220.896 188.615 220.194 189.548 219.408 190.533C218.622 191.518 217.752 192.534 216.778 193.603C215.803 194.672 214.881 195.562 214.001 196.296C213.121 197.019 212.272 197.585 211.465 197.962C210.648 198.339 210.008 198.339 209.547 197.941C208.772 197.344 208.447 196.139 208.573 194.347C209.484 193.446 210.365 192.555 211.213 191.665C212.062 190.763 212.995 189.716 214.011 188.5C215.017 187.285 215.814 186.122 216.379 185C216.956 183.89 217.186 182.957 217.082 182.224C216.914 181.197 216.212 180.641 214.986 180.579C213.718 180.526 212.471 181.26 211.234 182.769C209.987 184.288 208.95 186.048 208.122 188.071C207.839 188.773 207.588 189.464 207.378 190.145C206.886 190.868 206.288 191.675 205.618 192.555C204.758 193.687 203.784 194.86 202.715 196.086C201.636 197.323 200.598 198.392 199.592 199.314C198.597 200.225 197.654 200.938 196.763 201.441C195.872 201.944 195.191 202.038 194.688 201.713C194.29 201.514 194.049 201.105 193.986 200.498C193.839 199.324 194.185 197.679 195.023 195.583C195.851 193.477 196.69 191.675 197.528 190.177C197.832 189.684 198.146 189.255 198.481 188.898C198.513 189.087 198.534 189.328 198.544 189.611C198.544 189.852 198.597 190.04 198.712 190.187C198.817 190.334 198.953 190.439 199.11 190.501C199.257 190.564 199.446 190.564 199.666 190.512C199.969 190.428 200.221 190.25 200.41 189.957C200.609 189.663 200.703 189.338 200.703 188.993C200.651 187.243 200.158 186.31 199.236 186.205C198.188 186.059 197.056 187.023 195.862 189.108C195.558 189.6 195.233 190.187 194.887 190.889C194.541 191.581 194.08 192.587 193.504 193.896C192.917 195.206 192.467 196.537 192.142 197.878C191.827 199.23 191.733 200.382 191.869 201.357C192.037 202.593 192.55 203.463 193.378 203.976C194.07 204.385 194.887 204.469 195.83 204.228C196.847 203.966 198.01 203.306 199.341 202.258C200.661 201.21 201.856 200.1 202.914 198.947C203.972 197.784 205.052 196.516 206.163 195.122C206.257 194.997 206.351 194.881 206.445 194.766C206.393 195.583 206.435 196.369 206.561 197.124C206.781 198.465 207.305 199.471 208.143 200.121C208.95 200.665 209.914 200.802 211.035 200.519C212.156 200.225 213.393 199.544 214.745 198.465C216.097 197.386 217.385 196.128 218.612 194.682C219.838 193.247 220.781 192.105 221.43 191.256C221.514 191.141 221.598 191.036 221.671 190.931C221.829 192.618 222.111 194.106 222.52 195.395C223.683 198.989 225.769 200.728 228.776 200.613C229.269 200.582 229.761 200.508 230.254 200.382C231.239 200.131 232.192 199.659 233.146 198.968C234.089 198.266 234.864 197.564 235.493 196.851C236.111 196.139 236.698 195.353 237.254 194.504C237.809 193.645 238.186 193.027 238.385 192.65C238.522 192.398 238.626 192.178 238.7 192C238.941 192.115 239.213 192.188 239.507 192.23C239.852 192.283 240.198 192.262 240.575 192.168C241.215 192 241.822 191.633 242.399 191.067C243.405 190.114 244.243 188.762 244.903 186.991C245.574 185.231 245.962 183.827 246.077 182.789C246.286 180.558 246.307 178.85 246.14 177.687C247.921 177.687 249.493 177.267 250.876 176.419C249.556 183.313 248.833 187.672 248.707 189.496C248.676 189.946 248.833 190.271 249.179 190.46C249.514 190.648 249.87 190.606 250.237 190.313C250.604 190.03 251.044 189.517 251.557 188.762C252.071 187.997 252.846 186.74 253.905 184.979C256.818 180.138 258.641 177.508 259.375 177.079C259.595 177.435 259.815 178.724 260.035 180.956C260.171 182.203 260.286 183.146 260.37 183.785C260.454 184.414 260.632 185.084 260.905 185.797C261.177 186.509 261.523 186.96 261.963 187.159C262.393 187.4 262.875 187.442 263.399 187.316C264.467 187.033 265.515 186.205 266.542 184.833C266.616 184.728 266.678 184.623 266.72 184.518C267.307 184.194 267.999 183.554 268.795 182.59C269.717 181.49 270.608 180.275 271.446 178.944C272.295 177.624 273.416 175.759 274.831 173.349C276.277 170.897 277.241 169.314 277.723 168.602C278.289 170.006 278.572 172.5 278.562 176.073C274.946 179.468 271.478 183.596 268.166 188.469C264.845 193.341 262.162 198.025 260.119 202.499C258.075 206.973 256.818 210.724 256.367 213.753C255.864 216.97 256.304 219.065 257.698 220.061C258.327 220.522 259.06 220.647 259.92 220.417C260.255 220.333 260.632 220.186 261.02 219.977C262.77 219.044 264.771 217.043 267.056 213.983C269.34 210.913 271.509 207.319 273.574 203.18C275.648 199.041 277.262 195.028 278.446 191.12C279.798 186.614 280.553 181.867 280.699 176.869C282.219 175.549 283.738 174.375 285.258 173.359C285.446 173.244 285.593 173.076 285.719 172.877C285.834 172.667 285.907 172.468 285.939 172.269C285.97 172.07 285.949 171.861 285.886 171.641ZM209.631 189.747C209.757 189.422 209.883 189.097 210.019 188.773C210.648 187.264 211.339 185.985 212.115 184.938C212.88 183.89 213.571 183.282 214.189 183.125C214.284 183.104 214.368 183.093 214.462 183.104C214.808 183.093 214.975 183.093 214.975 183.135C214.975 183.617 214.441 184.571 213.351 185.996C212.324 187.348 211.067 188.804 209.558 190.397C209.631 190.208 209.652 190.03 209.642 189.831C209.642 189.799 209.642 189.768 209.631 189.747ZM224.249 179.803C224.721 176.178 225.475 172.416 226.523 168.518C227.561 164.61 228.661 161.152 229.814 158.155C230.977 155.158 232.15 152.633 233.355 150.59C234.56 148.547 235.587 147.415 236.447 147.195L236.541 147.174C236.761 147.258 236.918 147.436 237.013 147.729C237.463 149.102 237.002 152.004 235.629 156.447C234.257 160.89 232.549 165.574 230.495 170.498C228.441 175.434 226.177 180.463 223.725 185.598C223.799 183.785 223.966 181.846 224.249 179.803ZM243.908 183.093C243.887 183.481 243.761 184.047 243.541 184.801C243.321 185.545 242.996 186.384 242.556 187.285C242.126 188.196 241.697 188.877 241.267 189.338C240.879 189.674 240.502 189.82 240.167 189.778C239.548 189.695 239.171 189.118 239.014 188.071C238.857 187.023 238.867 185.933 239.035 184.812C239.035 184.571 239.045 184.403 239.077 184.288C239.129 183.167 239.569 181.805 240.408 180.201C241.246 178.598 242.095 177.603 242.954 177.205C243.195 177.32 243.457 177.393 243.74 177.425C244.149 178.179 244.201 180.076 243.908 183.093ZM276.413 190.763C275.292 194.546 273.72 198.433 271.698 202.415C269.675 206.407 267.653 209.771 265.631 212.506C263.608 215.241 261.89 216.99 260.485 217.724C259.878 218.059 259.417 218.112 259.102 217.881C258.327 217.347 258.128 215.953 258.494 213.669C258.914 210.892 260.035 207.476 261.858 203.421C263.681 199.366 266.081 195.101 269.068 190.627C272.054 186.153 275.187 182.276 278.467 179.007C278.216 183.198 277.524 187.107 276.413 190.763Z" fill="#F9F8F4" stroke="#F9F8F4" stroke-width="0.5"/>
<path d="M200.089 266.165C180.536 266.165 162.155 258.547 148.334 244.726C147.956 244.349 147.956 243.741 148.334 243.375C148.711 242.997 149.319 242.997 149.685 243.375C163.151 256.839 181.049 264.247 200.089 264.247C217.264 264.247 233.852 258.055 246.794 246.812C247.192 246.466 247.8 246.508 248.146 246.906C248.492 247.304 248.45 247.912 248.051 248.258C234.754 259.805 217.725 266.165 200.089 266.165Z" fill="#F9F8F4" stroke="#F9F8F4" stroke-width="0.5"/>
<path d="M256.762 238.722C256.552 238.722 256.343 238.659 256.164 238.512C255.745 238.187 255.682 237.58 256.007 237.161C257.831 234.866 259.518 232.424 261.037 229.931C261.31 229.48 261.896 229.333 262.358 229.606C262.808 229.878 262.955 230.475 262.682 230.926C261.121 233.493 259.382 235.998 257.516 238.355C257.328 238.596 257.045 238.722 256.762 238.722Z" fill="#F9F8F4" stroke="#F9F8F4" stroke-width="0.5"/>
<path d="M262.044 156.771C261.719 156.771 261.404 156.604 261.216 156.31C248.19 134.641 225.336 121.701 200.092 121.701C185.474 121.701 171.422 126.091 159.465 134.4C159.025 134.704 158.428 134.599 158.134 134.159C157.83 133.73 157.935 133.122 158.375 132.829C170.657 124.299 185.076 119.783 200.092 119.783C226.017 119.783 249.49 133.07 262.861 155.315C263.133 155.766 262.987 156.363 262.536 156.635C262.379 156.719 262.211 156.771 262.044 156.771Z" fill="#F9F8F4" stroke="#F9F8F4" stroke-width="0.5"/>
<path d="M137.962 157.055C137.794 157.055 137.627 157.013 137.47 156.919C137.019 156.646 136.862 156.06 137.134 155.599C138.748 152.885 140.561 150.244 142.52 147.75C142.845 147.331 143.453 147.268 143.872 147.593C144.291 147.918 144.365 148.526 144.029 148.945C142.122 151.365 140.362 153.943 138.779 156.584C138.612 156.887 138.297 157.055 137.962 157.055Z" fill="#F9F8F4" stroke="#F9F8F4" stroke-width="0.5"/>
<path d="M159.154 231.398C158.944 231.398 158.745 231.314 158.598 231.146C158.347 230.843 158.378 230.392 158.682 230.13C168.344 221.988 179.148 215.597 190.79 211.133C214.242 202.143 235.943 202.97 250.027 205.255C250.415 205.318 250.687 205.684 250.624 206.082C250.562 206.47 250.195 206.743 249.797 206.68C235.891 204.427 214.462 203.61 191.303 212.485C179.808 216.896 169.151 223.204 159.604 231.23C159.479 231.346 159.311 231.398 159.154 231.398Z" fill="#F9F8F4" stroke="#F9F8F4" stroke-width="0.5"/>
<path d="M248.865 214.904C248.812 214.904 248.77 214.904 248.718 214.893C244.348 213.992 239.863 213.479 235.399 213.364C231.009 213.248 226.587 213.521 222.248 214.17C221.85 214.223 221.494 213.961 221.431 213.563C221.368 213.175 221.64 212.808 222.039 212.745C226.461 212.085 230.967 211.813 235.441 211.928C239.989 212.043 244.558 212.567 249.011 213.489C249.399 213.573 249.651 213.95 249.567 214.338C249.504 214.673 249.2 214.904 248.865 214.904Z" fill="#F9F8F4" stroke="#F9F8F4" stroke-width="0.5"/>
<path d="M251.576 130C251.157 130 250.727 129.947 250.308 129.842C247.469 129.14 245.719 126.269 246.421 123.43C247.123 120.59 249.994 118.851 252.834 119.542C255.674 120.244 257.424 123.115 256.721 125.955C256.386 127.328 255.527 128.491 254.322 129.224C253.483 129.738 252.54 130 251.576 130ZM248.454 123.922C248.034 125.641 249.093 127.38 250.811 127.799C251.639 128.009 252.509 127.872 253.242 127.422C253.976 126.982 254.489 126.269 254.699 125.442C255.118 123.723 254.06 121.984 252.341 121.565C250.612 121.145 248.873 122.204 248.454 123.922Z" fill="#F9F8F4" stroke="#F9F8F4" stroke-width="0.5"/>
<path d="M174.734 281.577C173.424 281.577 172.103 281.095 171.076 280.121C168.96 278.109 168.876 274.735 170.898 272.618C171.873 271.591 173.193 271.004 174.608 270.973C176.033 270.931 177.374 271.455 178.391 272.44C179.418 273.414 180.004 274.735 180.036 276.149C180.067 277.564 179.554 278.905 178.569 279.932C177.531 281.032 176.127 281.577 174.734 281.577ZM172.523 278.601C173.801 279.817 175.834 279.775 177.06 278.486C177.647 277.868 177.961 277.05 177.94 276.191C177.919 275.332 177.563 274.536 176.945 273.949C176.326 273.352 175.499 273.027 174.65 273.069C173.79 273.09 172.994 273.446 172.407 274.064C171.181 275.342 171.234 277.386 172.523 278.601Z" fill="#F9F8F4" stroke="#F9F8F4" stroke-width="0.5"/>
<path d="M264.581 135.229C264.34 135.229 264.089 135.197 263.837 135.145C263.041 134.946 262.36 134.453 261.941 133.751C261.511 133.049 261.385 132.222 261.584 131.425C261.993 129.78 263.659 128.764 265.304 129.172C266.95 129.581 267.966 131.247 267.557 132.892C267.358 133.689 266.866 134.37 266.164 134.789C265.692 135.072 265.137 135.229 264.581 135.229ZM263.628 131.918C263.565 132.169 263.607 132.442 263.743 132.662C263.879 132.882 264.089 133.049 264.351 133.102C264.602 133.165 264.875 133.123 265.095 132.987C265.315 132.85 265.472 132.641 265.535 132.379C265.661 131.855 265.336 131.32 264.812 131.195C264.288 131.059 263.753 131.383 263.628 131.918Z" fill="#F9F8F4" stroke="#F9F8F4" stroke-width="0.5"/>
<path d="M160.695 274.693C159.899 274.693 159.155 274.39 158.578 273.845C157.352 272.671 157.3 270.722 158.473 269.496C159.647 268.27 161.596 268.218 162.822 269.391C163.42 269.957 163.755 270.722 163.776 271.55C163.797 272.367 163.493 273.153 162.927 273.75C162.361 274.348 161.596 274.683 160.768 274.704C160.747 274.693 160.716 274.693 160.695 274.693ZM160.014 272.325C160.202 272.503 160.443 272.587 160.716 272.598C160.978 272.587 161.219 272.482 161.408 272.294C161.586 272.105 161.69 271.854 161.68 271.592C161.67 271.33 161.565 271.089 161.376 270.9C161.187 270.722 160.926 270.638 160.674 270.628C160.412 270.638 160.171 270.743 159.982 270.932C159.616 271.33 159.626 271.948 160.014 272.325Z" fill="#F9F8F4" stroke="#F9F8F4" stroke-width="0.5"/>
</svg>
