<svg width="400" height="400" viewBox="0 0 400 400" fill="none" xmlns="http://www.w3.org/2000/svg">
<g clip-path="url(#clip0)">
<path d="M167.963 183.815V190.249C167.963 198.12 166.411 201.001 159.006 201.001H145.637V153.668H158.913C166.04 153.668 167.593 156.549 167.593 164.42V170.132C167.593 172.963 166.935 174.97 164.498 176.306V176.918C166.986 178.414 167.963 180.632 167.963 183.815ZM155.54 162.723V173.424H156.476C157.7 173.424 157.978 172.963 157.978 171.728V164.58C157.978 163.245 157.649 162.723 156.435 162.723H155.54V162.723ZM158.07 182.279C158.07 181.044 157.834 180.532 156.62 180.532H155.54V191.856H156.569C157.741 191.856 158.07 191.394 158.07 190.059V182.279V182.279Z" fill="#3A95FF"/>
<path d="M167.963 233.356V239.79C167.963 247.661 166.411 250.542 159.006 250.542H145.637V203.209H158.913C166.04 203.209 167.593 206.09 167.593 213.961V219.673C167.593 222.504 166.935 224.511 164.498 225.847V226.459C166.986 227.955 167.963 230.173 167.963 233.356ZM155.54 212.264V222.965H156.476C157.7 222.965 157.978 222.504 157.978 221.269V214.121C157.978 212.786 157.649 212.264 156.435 212.264H155.54ZM158.07 231.82C158.07 230.585 157.834 230.073 156.62 230.073H155.54V241.397H156.569C157.741 241.397 158.07 240.935 158.07 239.6V231.82V231.82Z" fill="#F9F8F4"/>
<path d="M179.925 141.049V151.028H185.93V159.982H179.925V170.272H186.074V179.327H170.031V131.994H186.074V141.049H179.925Z" fill="#F9F8F4"/>
<path d="M179.925 190.944V200.922H185.93V209.877H179.925V220.167H186.074V229.222H170.031V181.889H186.074V190.944H179.925Z" fill="#3A95FF"/>
<path d="M179.925 239.981V249.959H185.93V258.914H179.925V269.204H186.074V278.259H170.031V230.926H186.074V239.981H179.925Z" fill="#F9F8F4"/>
<path d="M202.437 193.643H197.604L197.131 201.001H187.566L191.505 153.668H208.536L212.433 201.001H202.91L202.437 193.643ZM201.83 184.537L200.422 163.496H199.63L198.221 184.537H201.83Z" fill="#3A95FF"/>
<path d="M202.437 243.617H197.604L197.131 250.976H187.566L191.505 203.643H208.536L212.433 250.976H202.91L202.437 243.617ZM201.83 234.512L200.422 213.471H199.63L198.221 234.512H201.83Z" fill="#F9F8F4"/>
<path d="M233.29 129.344H227.706V167.622H217.854V129.344H212.27V120.289H233.28V129.344H233.29Z" fill="#F9F8F4"/>
<path d="M233.29 179.118H227.706V217.396H217.854V179.118H212.27V170.062H233.28V179.118H233.29Z" fill="#3A95FF"/>
<path d="M233.29 228.729H227.706V267.007H217.854V228.729H212.27V219.674H233.28V228.729H233.29Z" fill="#F9F8F4"/>
<path d="M247.522 158.275V151.539C247.522 150.204 247.049 149.792 246.299 149.792C245.548 149.792 245.075 150.204 245.075 151.539V157.251C245.075 162.702 257.179 160.393 257.179 171.968V178.353C257.179 186.273 252.952 189.054 246.299 189.054C239.634 189.054 235.459 186.273 235.459 178.353V171.556H244.982V178.292C244.982 179.628 245.455 180.039 246.247 180.039C246.946 180.039 247.471 179.628 247.471 178.292V172.58C247.471 167.129 235.418 169.438 235.418 157.863V151.479C235.418 143.558 239.645 140.777 246.257 140.777C252.921 140.777 257.045 143.558 257.045 151.479V158.275H247.522Z" fill="#F9F8F4"/>
<path d="M247.522 208.742V202.006C247.522 200.671 247.049 200.259 246.299 200.259C245.548 200.259 245.075 200.671 245.075 202.006V207.718C245.075 213.169 257.179 210.86 257.179 222.435V228.819C257.179 236.74 252.952 239.521 246.299 239.521C239.634 239.521 235.459 236.74 235.459 228.819V222.023H244.982V228.759C244.982 230.094 245.455 230.506 246.247 230.506C246.946 230.506 247.471 230.094 247.471 228.759V223.047C247.471 217.596 235.418 219.905 235.418 208.33V201.946C235.418 194.025 239.645 191.244 246.257 191.244C252.921 191.244 257.045 194.025 257.045 201.946V208.742H247.522Z" fill="#3A95FF"/>
</g>
<defs>
<clipPath id="clip0">
<rect width="114.493" height="157.971" fill="white" transform="translate(143.477 120.289)"/>
</clipPath>
</defs>
</svg>
