<svg width="400" height="400" viewBox="0 0 400 400" fill="none" xmlns="http://www.w3.org/2000/svg">
<path d="M199.81 177.641C189.639 177.641 184.259 172.377 181.536 167.959C178.605 163.204 178.075 158.514 178.054 158.316L178.051 158.242V127.535H221.571L221.569 157.646C221.547 157.849 221.02 162.698 218.091 167.619C215.366 172.191 209.986 177.641 199.81 177.641ZM179.419 158.206C179.471 158.629 180.066 162.992 182.726 167.284C186.423 173.248 192.17 176.271 199.807 176.271C207.444 176.271 213.189 173.138 216.885 166.957C219.553 162.498 220.145 157.962 220.195 157.539V128.908H179.419V158.206Z" fill="#F9F8F4"/>
<path d="M200.496 128.221H199.125V176.954H200.496V128.221Z" fill="#F9F8F4"/>
<path d="M220.871 147.75L178.723 148.295L178.74 149.668L220.888 149.123L220.871 147.75Z" fill="#F9F8F4"/>
<path d="M200.056 162.042L179.906 162.318L179.925 163.691L200.075 163.415L200.056 162.042Z" fill="#F9F8F4"/>
<path d="M207.016 148.389L205.645 148.402L205.913 175.941L207.284 175.927L207.016 148.389Z" fill="#F9F8F4"/>
<path d="M214.508 148.394L213.137 148.402L213.271 171.753L214.642 171.745L214.508 148.394Z" fill="#F9F8F4"/>
<path d="M200.054 168.959L183.859 169.258L183.885 170.63L200.079 170.332L200.054 168.959Z" fill="#F9F8F4"/>
<path d="M195.907 144.446C195.907 144.446 194.133 144.103 193.05 143.548C193.05 143.548 191.843 144.699 189.126 144.586C188.915 144.578 188.783 144.345 188.898 144.169C189.15 143.79 189.888 143.257 192.021 143.139C192.021 143.139 191.629 142.958 190.949 142.444C190.949 142.444 188.533 143.491 186.8 142.983C186.614 142.928 186.543 142.694 186.669 142.543C186.992 142.162 187.848 141.612 190.044 141.868C190.044 141.868 189.619 141.571 188.912 140.868C188.912 140.868 186.411 141.467 185.136 140.951C184.93 140.868 184.911 140.574 185.103 140.462C185.583 140.182 186.608 139.85 188.457 140.36C188.457 140.36 187.938 139.959 187.73 139.251C187.73 139.251 184.653 139.471 183.811 138.919C183.641 138.809 183.652 138.554 183.831 138.452C184.25 138.216 185.309 137.892 187.486 138.619C187.486 138.619 187.121 138.1 186.907 137.631C186.907 137.631 184.261 137.612 183.359 136.796C183.2 136.653 183.252 136.393 183.455 136.327C183.96 136.162 185.056 136.052 186.833 137.087C186.833 137.087 185.438 133.724 186.079 132.504C186.167 132.34 186.397 132.315 186.521 132.452C186.888 132.859 187.508 133.998 187.154 136.903C187.154 136.903 187.727 134.514 189.043 133.913C189.241 133.822 189.463 133.987 189.43 134.204C189.345 134.786 188.969 135.937 187.426 137.323C187.426 137.323 187.969 138.705 188.388 139.064C188.388 139.064 188.522 136.986 189.948 136.134C190.154 136.011 190.409 136.203 190.351 136.439C190.173 137.172 189.729 138.515 188.734 139.509C188.734 139.509 189.441 140.638 190.187 141.003C190.187 141.003 190.132 138.666 191.237 137.768C191.415 137.625 191.681 137.765 191.676 137.993C191.659 138.738 191.498 140.212 190.543 141.299C190.543 141.299 191.432 142.293 191.98 142.398C191.98 142.398 192.137 139.921 193.387 139.193C193.576 139.083 193.812 139.245 193.787 139.462C193.724 140.047 193.464 141.187 192.46 142.656C192.457 142.659 195.487 144.542 195.907 144.446Z" fill="#F9F8F4"/>
<path d="M185.648 152.809V155.547H186.887C187.118 155.542 187.31 155.462 187.46 155.311C187.611 155.16 187.685 154.968 187.685 154.737V154.652H187.778V156.824H187.685V156.75C187.685 156.519 187.611 156.327 187.466 156.176C187.318 156.025 187.131 155.948 186.906 155.94H185.648V158.301C185.648 158.463 185.708 158.603 185.826 158.718C185.944 158.834 186.087 158.891 186.248 158.891H186.361L186.369 158.985H183.512V158.891H183.635C183.797 158.891 183.937 158.834 184.052 158.718C184.167 158.603 184.23 158.463 184.236 158.301V153.065C184.236 152.845 184.131 152.683 183.926 152.576C183.838 152.527 183.742 152.502 183.635 152.502H183.512V152.409H187.109C187.304 152.409 187.515 152.389 187.748 152.351C187.979 152.312 188.143 152.277 188.236 152.238V153.828H188.143V153.735C188.143 153.46 188.064 153.238 187.905 153.07C187.746 152.906 187.526 152.818 187.252 152.812H185.648V152.809Z" fill="#F9F8F4"/>
<path d="M192.935 159.114C191.726 159.111 190.777 158.804 190.088 158.197C189.4 157.59 189.055 156.755 189.055 155.696C189.055 154.636 189.395 153.801 190.078 153.189C190.76 152.576 191.695 152.271 192.885 152.271C193.793 152.271 194.575 152.442 195.225 152.779L195.244 154.397H195.17C194.849 153.244 194.119 152.667 192.981 152.667C192.241 152.667 191.657 152.936 191.229 153.471C190.801 154.007 190.585 154.74 190.585 155.668C190.585 156.596 190.79 157.332 191.199 157.878C191.61 158.425 192.164 158.705 192.866 158.724C193.593 158.724 194.147 158.543 194.528 158.178C194.917 157.802 195.186 157.156 195.337 156.239H195.411L195.504 157.857C195.002 158.699 194.144 159.12 192.935 159.114Z" fill="#F9F8F4"/>
<path d="M207.49 134.413L209.165 134.666L207.945 135.847L208.224 137.521L206.727 136.722L205.222 137.505L205.518 135.833L204.309 134.641L205.987 134.405L206.746 132.887L207.49 134.413Z" fill="#F9F8F4"/>
<path d="M214.368 134.413L216.044 134.666L214.824 135.847L215.103 137.521L213.606 136.722L212.101 137.505L212.394 135.833L211.188 134.641L212.866 134.405L213.625 132.887L214.368 134.413Z" fill="#F9F8F4"/>
<path d="M207.49 141.003L209.165 141.256L207.945 142.437L208.224 144.112L206.727 143.313L205.222 144.095L205.518 142.423L204.309 141.231L205.987 140.995L206.746 139.477L207.49 141.003Z" fill="#F9F8F4"/>
<path d="M214.368 141.003L216.044 141.256L214.824 142.437L215.103 144.112L213.606 143.313L212.101 144.095L212.394 142.423L211.188 141.231L212.866 140.995L213.625 139.477L214.368 141.003Z" fill="#F9F8F4"/>
<path d="M63.9891 195.99V205.579H68.3327C69.1444 205.557 69.8134 205.282 70.3399 204.755C70.8664 204.228 71.1297 203.558 71.1297 202.745V202.449H71.4587V210.06H71.1297V209.797C71.1297 208.984 70.8719 208.314 70.3564 207.787C69.8409 207.259 69.1882 206.985 68.3985 206.963H63.9891V215.233C63.9891 215.805 64.1975 216.293 64.6143 216.7C65.0311 217.106 65.5247 217.309 66.0951 217.309H66.49L66.5229 217.639H56.5195V217.309H56.9473C57.5177 217.309 58.0058 217.106 58.4116 216.7C58.8174 216.293 59.0313 215.805 59.0533 215.233V196.88C59.0533 196.111 58.6913 195.54 57.9674 195.167C57.6603 194.991 57.3202 194.903 56.9473 194.903H56.5195V194.574H69.1224C69.8025 194.574 70.5483 194.508 71.36 194.376C72.1717 194.244 72.7421 194.112 73.0711 193.98V199.549H72.7421V199.22C72.7421 198.253 72.4624 197.479 71.903 196.897C71.3436 196.314 70.5812 196.012 69.616 195.99H63.9891V195.99Z" fill="#F9F8F4"/>
<path d="M86.8627 217.638H74.918V217.385H75.2223C75.6117 217.385 75.9353 217.259 76.1985 217.004C76.4618 216.751 76.5989 216.438 76.6181 216.065V203.978C76.6016 203.607 76.4618 203.291 76.1985 203.039C75.9353 202.786 75.6117 202.657 75.2223 202.657H74.918V202.404H83.8436C84.2988 202.404 84.7979 202.363 85.3408 202.278C85.881 202.193 86.2622 202.108 86.4816 202.025V206.062H86.2293V205.834C86.2293 205.09 86.0264 204.505 85.6205 204.082C85.2147 203.659 84.6471 203.439 83.9204 203.423H80.2679V209.593H83.1581C83.734 209.576 84.1974 209.381 84.5539 209.008C84.9076 208.635 85.0858 208.162 85.0858 207.586V207.407H85.3381V212.789H85.0858V212.61C85.0858 211.814 84.7897 211.24 84.1974 210.883C83.893 210.697 83.5557 210.603 83.1828 210.603H80.2679V216.622H83.3117C84.3592 216.606 85.2504 216.279 85.988 215.645C86.7256 215.01 87.2603 214.118 87.5976 212.965H87.8252L86.8627 217.638Z" fill="#F9F8F4"/>
<path d="M94.8998 203.445H94.0881V216.04C94.0881 216.447 94.228 216.773 94.5077 217.018C94.7874 217.262 95.1027 217.386 95.4592 217.386H95.7389V217.638H88.7656V217.386H89.07C89.4402 217.386 89.7583 217.259 90.0215 217.004C90.2848 216.751 90.4137 216.438 90.4137 216.065V203.978C90.4137 203.607 90.282 203.291 90.0215 203.039C89.7583 202.786 89.4512 202.657 89.0947 202.657H88.7656V202.404H96.5506C98.0724 202.404 99.3475 202.701 100.379 203.294C101.528 203.953 102.103 205.046 102.103 206.57C102.103 207.553 101.807 208.437 101.215 209.222C100.623 210.01 99.7452 210.488 98.577 210.656C99.0322 210.807 99.4846 211.095 99.9344 211.518C100.381 211.941 100.741 212.372 101.012 212.814C101.552 213.778 102.12 214.664 102.712 215.466C103.304 216.271 103.782 216.79 104.144 217.029C104.508 217.265 104.95 217.383 105.473 217.383V217.635H103.343C101.939 217.635 100.861 217.465 100.11 217.127C99.3585 216.79 98.6867 216.147 98.0944 215.197C97.1812 213.742 96.6136 212.591 96.3943 211.743C96.1913 211.235 95.95 210.853 95.6703 210.601C95.3906 210.348 95.1246 210.202 94.8724 210.17V209.966H95.5058C96.9427 209.95 97.8229 209.104 98.1437 207.426C98.2123 207.174 98.2452 206.954 98.2452 206.767C98.2452 206.581 98.237 206.323 98.2205 205.993C98.2041 205.664 98.0971 205.29 97.9024 204.876C97.7077 204.461 97.4582 204.162 97.1538 203.975C96.6301 203.654 96.0899 203.483 95.5305 203.467C95.3468 203.453 95.1356 203.445 94.8998 203.445Z" fill="#F9F8F4"/>
<path d="M115.995 202.402H123.119V202.654H122.688C122.299 202.654 121.975 202.773 121.712 203.009C121.449 203.245 121.309 203.55 121.292 203.923V215.019C121.292 216.068 121.361 216.933 121.495 217.608L121.545 217.963H121.317L109.679 207.679V216.084C109.696 216.458 109.836 216.765 110.099 217.012C110.362 217.257 110.686 217.38 111.075 217.38H111.506V217.633H104.406V217.38H104.812C105.201 217.38 105.531 217.257 105.802 217.012C106.073 216.768 106.208 216.458 106.208 216.084V204.912C106.208 203.896 106.139 203.058 106.005 202.399L105.953 202.045L106.18 202.07L117.793 212.301V203.951C117.793 203.577 117.662 203.27 117.401 203.022C117.138 202.778 116.814 202.654 116.425 202.654H115.995V202.402V202.402Z" fill="#F9F8F4"/>
<path d="M124.289 215.553C124.289 214.452 124.533 213.513 125.024 212.736H125.227C125.21 212.854 125.202 212.964 125.202 213.065C125.202 214.098 125.57 215.004 126.305 215.781C127.039 216.561 128.068 216.948 129.387 216.948C130.333 216.948 131.065 216.728 131.58 216.289C132.096 215.85 132.354 215.358 132.354 214.817C132.354 214.276 132.206 213.84 131.909 213.51C131.613 213.181 131.128 212.796 130.451 212.354L126.85 210.07C125.328 209.122 124.569 207.903 124.569 206.412C124.569 206.259 124.577 206.099 124.593 205.929C124.695 204.726 125.158 203.785 125.989 203.098C126.817 202.412 127.794 202.068 128.918 202.068C130.042 202.068 131.229 202.145 132.48 202.296H133.848L133.494 205.649H133.267C133.267 204.853 132.993 204.227 132.441 203.771C131.893 203.315 131.164 203.084 130.261 203.084C129.357 203.084 128.644 203.274 128.12 203.655C127.596 204.037 127.333 204.54 127.333 205.166C127.333 205.674 127.585 206.113 128.092 206.486C128.295 206.637 128.591 206.832 128.981 207.071L133.012 209.559C134.397 210.405 135.09 211.574 135.09 213.063C135.09 214.636 134.536 215.847 133.429 216.693C132.321 217.538 130.889 217.961 129.132 217.961C128.049 217.961 127.094 217.835 126.266 217.58C125.438 217.324 124.829 217.003 124.44 216.616C124.338 216.317 124.289 215.96 124.289 215.553Z" fill="#F9F8F4"/>
<path d="M158.265 202.656H158.087C157.698 202.656 157.327 202.758 156.971 202.961C156.617 203.164 156.354 203.461 156.184 203.851L152.43 215.353C152.158 216.166 152.024 216.935 152.024 217.665C152.024 217.75 152.024 217.835 152.024 217.918H151.797L146.852 207.915L143.43 215.353C143.041 216.251 142.846 217.105 142.846 217.918H142.619L137.217 203.952C137.03 203.53 136.764 203.208 136.419 202.989C136.073 202.769 135.695 202.659 135.289 202.659H135.086V202.407H142.21V202.659H142.007C141.686 202.659 141.45 202.758 141.297 202.95C141.143 203.145 141.069 203.326 141.069 203.497C141.069 203.667 141.102 203.851 141.171 204.054L143.809 210.96L147.815 202.047H148.018L152.455 211.009L154.508 204.051C154.678 203.376 154.541 202.934 154.103 202.731C153.985 202.678 153.85 202.654 153.697 202.654H153.494V202.401H158.26V202.656H158.265Z" fill="#F9F8F4"/>
<path d="M157.656 210.019C157.656 207.58 158.471 205.647 160.102 204.217C161.734 202.786 163.906 202.072 166.618 202.072C169.33 202.072 171.507 202.786 173.147 204.217C174.786 205.647 175.606 207.58 175.606 210.019C175.606 212.457 174.786 214.39 173.147 215.821C171.507 217.251 169.335 217.965 166.631 217.965C163.928 217.965 161.753 217.251 160.116 215.821C158.476 214.393 157.656 212.457 157.656 210.019ZM161.534 210.019C161.534 212.152 161.994 213.841 162.916 215.085C163.837 216.329 165.071 216.952 166.618 216.952C168.164 216.952 169.398 216.331 170.319 215.085C171.241 213.841 171.701 212.152 171.701 210.019C171.701 207.885 171.241 206.197 170.319 204.953C169.398 203.709 168.164 203.085 166.618 203.085C165.071 203.085 163.837 203.709 162.916 204.953C161.994 206.199 161.534 207.888 161.534 210.019Z" fill="#F9F8F4"/>
<path d="M182.837 203.445H182.026V216.04C182.026 216.447 182.165 216.773 182.445 217.018C182.725 217.262 183.04 217.386 183.397 217.386H183.676V217.638H176.703V217.386H177.008C177.378 217.386 177.696 217.259 177.959 217.004C178.222 216.751 178.351 216.438 178.351 216.065V203.978C178.351 203.607 178.22 203.291 177.959 203.039C177.696 202.786 177.389 202.657 177.032 202.657H176.703V202.404H184.488C186.01 202.404 187.285 202.701 188.316 203.294C189.465 203.953 190.041 205.046 190.041 206.57C190.041 207.553 189.745 208.437 189.152 209.222C188.56 210.01 187.683 210.488 186.514 210.656C186.97 210.807 187.422 211.095 187.872 211.518C188.319 211.941 188.678 212.372 188.949 212.814C189.49 213.778 190.057 214.665 190.65 215.466C191.242 216.271 191.719 216.79 192.081 217.029C192.446 217.265 192.887 217.383 193.411 217.383V217.636H191.28C189.876 217.636 188.799 217.465 188.047 217.128C187.296 216.79 186.624 216.147 186.032 215.197C185.119 213.742 184.551 212.591 184.332 211.743C184.129 211.235 183.887 210.853 183.608 210.601C183.328 210.348 183.062 210.203 182.81 210.17V209.966H183.443C184.88 209.95 185.76 209.104 186.081 207.426C186.15 207.174 186.183 206.954 186.183 206.767C186.183 206.581 186.174 206.323 186.158 205.993C186.141 205.664 186.035 205.29 185.84 204.876C185.645 204.461 185.396 204.162 185.091 203.975C184.568 203.654 184.027 203.483 183.468 203.467C183.284 203.453 183.073 203.445 182.837 203.445Z" fill="#F9F8F4"/>
<path d="M205.988 206.005V205.777C205.988 205.049 205.785 204.472 205.379 204.05C204.973 203.627 204.408 203.407 203.679 203.391H200.737V216.06C200.753 216.433 200.896 216.746 201.167 216.999C201.439 217.252 201.759 217.381 202.13 217.381H202.409V217.633H195.411V217.381H195.664C196.053 217.381 196.382 217.254 196.653 216.999C196.925 216.746 197.059 216.422 197.059 216.035V203.391H194.144C193.401 203.407 192.825 203.627 192.42 204.05C192.014 204.472 191.811 205.049 191.811 205.777V206.005H191.559V201.993C191.794 202.078 192.189 202.163 192.738 202.246C193.286 202.331 193.782 202.372 194.221 202.372H203.577C204.32 202.372 204.935 202.317 205.415 202.207C205.897 202.097 206.171 202.026 206.24 201.99V206.002H205.988V206.005Z" fill="#F9F8F4"/>
<path d="M224.114 217.383H224.394V217.635H217.42V217.383H217.673C218.062 217.383 218.391 217.257 218.662 217.001C218.934 216.749 219.068 216.425 219.068 216.037V210.554H212.399V216.037C212.416 216.427 212.558 216.749 212.83 217.001C213.101 217.254 213.422 217.383 213.792 217.383H214.072V217.635H207.074V217.383H207.354C207.743 217.383 208.072 217.251 208.344 216.99C208.615 216.727 208.75 216.411 208.75 216.037V204.002C208.75 203.629 208.615 203.313 208.344 203.05C208.072 202.786 207.743 202.657 207.354 202.657H207.074V202.404H214.072V202.657H213.792C213.42 202.657 213.099 202.783 212.83 203.039C212.558 203.291 212.416 203.607 212.399 203.978V209.538H219.068V204.002C219.068 203.478 218.841 203.088 218.383 202.835C218.163 202.717 217.925 202.657 217.673 202.657H217.42V202.404H224.394V202.657H224.114C223.741 202.657 223.42 202.783 223.151 203.039C222.88 203.291 222.737 203.615 222.721 204.002V216.062C222.737 216.587 222.965 216.968 223.406 217.204C223.623 217.325 223.859 217.383 224.114 217.383Z" fill="#F9F8F4"/>
<path d="M245.629 218.085C241.395 218.074 238.072 217.003 235.659 214.872C233.246 212.741 232.039 209.82 232.039 206.107C232.039 202.395 233.235 199.468 235.626 197.326C238.017 195.184 241.297 194.113 245.465 194.113C248.645 194.113 251.377 194.706 253.658 195.893L253.724 201.56H253.461C252.342 197.518 249.786 195.497 245.794 195.497C243.205 195.497 241.159 196.436 239.657 198.314C238.154 200.193 237.403 202.757 237.403 206.008C237.403 209.259 238.121 211.841 239.558 213.752C240.995 215.663 242.942 216.651 245.399 216.717C247.943 216.717 249.885 216.08 251.223 214.806C252.583 213.488 253.526 211.226 254.053 208.018H254.316L254.645 213.686C252.868 216.629 249.863 218.093 245.629 218.085Z" fill="#F9F8F4"/>
<path d="M256.453 210.019C256.453 207.58 257.268 205.647 258.899 204.217C260.531 202.786 262.702 202.072 265.414 202.072C268.126 202.072 270.304 202.786 271.943 204.217C273.583 205.647 274.403 207.58 274.403 210.019C274.403 212.457 273.583 214.39 271.943 215.821C270.304 217.251 268.132 217.965 265.428 217.965C262.724 217.965 260.55 217.251 258.913 215.821C257.273 214.393 256.453 212.457 256.453 210.019ZM260.333 210.019C260.333 212.152 260.794 213.841 261.715 215.085C262.637 216.329 263.871 216.952 265.417 216.952C266.964 216.952 268.198 216.331 269.119 215.085C270.04 213.841 270.501 212.152 270.501 210.019C270.501 207.885 270.04 206.197 269.119 204.953C268.198 203.709 266.964 203.085 265.417 203.085C263.871 203.085 262.637 203.709 261.715 204.953C260.794 206.199 260.333 207.888 260.333 210.019Z" fill="#F9F8F4"/>
<path d="M292.03 202.657H291.676C291.355 202.657 291.084 202.756 290.864 202.948C290.645 203.143 290.527 203.393 290.51 203.698V212.103C290.51 213.931 289.951 215.365 288.838 216.405C287.722 217.446 286.06 217.968 283.855 217.968C281.651 217.968 279.934 217.46 278.708 216.444C277.483 215.428 276.871 213.997 276.871 212.152V203.722C276.871 203.418 276.756 203.162 276.528 202.962C276.301 202.759 276.027 202.657 275.703 202.657H275.344V202.404H282.013V202.657H281.659C281.338 202.657 281.067 202.759 280.847 202.962C280.628 203.165 280.518 203.418 280.518 203.722V211.974C280.518 213.53 280.877 214.75 281.596 215.631C282.314 216.512 283.323 216.952 284.626 216.952C285.928 216.952 286.954 216.537 287.705 215.708C288.457 214.879 288.835 213.728 288.835 212.254V203.722C288.819 203.401 288.701 203.143 288.481 202.948C288.262 202.753 287.99 202.657 287.67 202.657H287.341V202.404H292.032V202.657H292.03Z" fill="#F9F8F4"/>
<path d="M303.971 202.402H311.095V202.654H310.665C310.275 202.654 309.952 202.773 309.688 203.009C309.425 203.245 309.285 203.55 309.269 203.923V215.019C309.269 216.068 309.337 216.933 309.472 217.608L309.521 217.963H309.294L297.656 207.679V216.084C297.672 216.458 297.812 216.765 298.075 217.012C298.339 217.257 298.662 217.38 299.052 217.38H299.482V217.633H292.383V217.38H292.789C293.178 217.38 293.507 217.257 293.779 217.012C294.05 216.768 294.184 216.458 294.184 216.084V204.912C294.184 203.896 294.116 203.058 293.981 202.399L293.929 202.045L294.157 202.07L305.77 212.301V203.951C305.77 203.577 305.638 203.27 305.378 203.022C305.115 202.778 304.791 202.654 304.402 202.654H303.971V202.402Z" fill="#F9F8F4"/>
<path d="M325.777 206.005V205.777C325.777 205.049 325.574 204.472 325.168 204.05C324.762 203.627 324.197 203.407 323.468 203.391H320.526V216.06C320.542 216.433 320.685 216.746 320.956 216.999C321.228 217.252 321.548 217.381 321.919 217.381H322.198V217.633H315.2V217.381H315.453C315.842 217.381 316.171 217.254 316.443 216.999C316.714 216.746 316.848 216.422 316.848 216.035V203.391H313.934C313.19 203.407 312.615 203.627 312.209 204.05C311.803 204.472 311.6 205.049 311.6 205.777V206.005H311.348V201.993C311.583 202.078 311.978 202.163 312.527 202.246C313.075 202.331 313.572 202.372 314.01 202.372H323.366C324.11 202.372 324.724 202.317 325.204 202.207C325.686 202.097 325.961 202.026 326.029 201.99V206.002H325.777V206.005Z" fill="#F9F8F4"/>
<path d="M343.476 202.657H343.147C342.709 202.657 342.289 202.775 341.891 203.011C341.494 203.247 341.17 203.544 340.915 203.901L336.402 210.859V216.037C336.418 216.411 336.564 216.727 336.832 216.99C337.104 217.254 337.441 217.383 337.847 217.383H338.127V217.635H331.027V217.383H331.331C331.721 217.383 332.05 217.251 332.321 216.99C332.593 216.727 332.735 216.411 332.752 216.037V210.859L328.263 203.901C328.027 203.53 327.709 203.228 327.312 203C326.914 202.772 326.489 202.657 326.031 202.657H325.727V202.404H333.435V202.657H333.155C332.834 202.657 332.601 202.764 332.459 202.975C332.316 203.187 332.242 203.365 332.242 203.508C332.242 203.651 332.275 203.783 332.343 203.901L335.716 209.741L339.138 203.901C339.188 203.783 339.215 203.651 339.215 203.508C339.215 203.365 339.144 203.187 338.999 202.975C338.856 202.764 338.623 202.657 338.302 202.657H338.05V202.404H343.476V202.657Z" fill="#F9F8F4"/>
<path d="M237.836 230.967H160.785V232.065H237.836V230.967Z" fill="#F9F8F4"/>
<path d="M124.667 242.848L127.563 250.207L129.131 244.709C129.26 244.256 129.326 243.908 129.326 243.658C129.326 243.487 129.265 243.353 129.145 243.257C129.024 243.161 128.802 243.111 128.473 243.111C128.418 243.111 128.361 243.109 128.3 243.103L128.377 242.848H131.391L131.308 243.103C130.996 243.098 130.763 243.13 130.609 243.199C130.393 243.295 130.231 243.422 130.124 243.573C129.976 243.789 129.828 244.168 129.674 244.707L127.469 252.447H127.22L124.102 244.528L122.435 250.377C122.311 250.819 122.248 251.159 122.248 251.395C122.248 251.571 122.306 251.703 122.418 251.794C122.531 251.884 122.8 251.945 123.225 251.978L123.156 252.233H120.211L120.307 251.978C120.674 251.969 120.921 251.936 121.047 251.881C121.236 251.799 121.376 251.689 121.47 251.557C121.604 251.354 121.752 250.962 121.919 250.379L123.778 243.853C123.597 243.575 123.406 243.386 123.203 243.281C122.997 243.177 122.679 243.119 122.246 243.106L122.322 242.85H124.667V242.848Z" fill="#F9F8F4"/>
<path d="M136.697 245.971L135.348 250.663L135.197 251.292C135.183 251.353 135.175 251.402 135.175 251.443C135.175 251.517 135.197 251.58 135.243 251.638C135.279 251.679 135.326 251.701 135.381 251.701C135.441 251.701 135.518 251.666 135.616 251.591C135.797 251.457 136.036 251.18 136.335 250.759L136.571 250.927C136.253 251.407 135.926 251.773 135.589 252.025C135.252 252.278 134.942 252.401 134.657 252.401C134.459 252.401 134.311 252.352 134.21 252.253C134.111 252.154 134.062 252.009 134.062 251.819C134.062 251.594 134.111 251.295 134.212 250.927L134.358 250.408C133.754 251.196 133.198 251.748 132.691 252.064C132.326 252.289 131.969 252.404 131.618 252.404C131.281 252.404 130.99 252.264 130.746 251.984C130.502 251.704 130.379 251.32 130.379 250.831C130.379 250.098 130.598 249.323 131.04 248.508C131.479 247.692 132.038 247.042 132.715 246.553C133.244 246.166 133.746 245.971 134.215 245.971C134.498 245.971 134.731 246.045 134.917 246.193C135.104 246.341 135.246 246.586 135.342 246.926L135.592 246.138L136.697 245.971ZM134.237 246.33C133.941 246.33 133.628 246.468 133.297 246.745C132.828 247.138 132.408 247.72 132.041 248.489C131.673 249.257 131.492 249.955 131.492 250.578C131.492 250.891 131.572 251.141 131.728 251.322C131.884 251.504 132.065 251.597 132.268 251.597C132.77 251.597 133.316 251.226 133.905 250.482C134.692 249.494 135.087 248.48 135.087 247.442C135.087 247.05 135.01 246.767 134.86 246.591C134.709 246.416 134.5 246.33 134.237 246.33Z" fill="#F9F8F4"/>
<path d="M140.807 244.256L140.267 246.139H141.353L141.235 246.576H140.157L138.967 250.659C138.838 251.098 138.773 251.381 138.773 251.51C138.773 251.59 138.792 251.647 138.827 251.691C138.863 251.733 138.907 251.755 138.959 251.755C139.074 251.755 139.225 251.675 139.414 251.513C139.524 251.42 139.771 251.137 140.155 250.662L140.382 250.835C139.957 251.453 139.557 251.889 139.178 252.144C138.921 252.32 138.66 252.408 138.397 252.408C138.194 252.408 138.029 252.345 137.898 252.219C137.769 252.092 137.703 251.93 137.703 251.73C137.703 251.48 137.777 251.101 137.925 250.588L139.08 246.579H138.035L138.103 246.31C138.611 246.172 139.033 245.964 139.368 245.689C139.702 245.415 140.081 244.937 140.495 244.259H140.807V244.256Z" fill="#F9F8F4"/>
<path d="M147.73 246.136L146.526 250.263C146.345 250.878 146.257 251.265 146.257 251.427C146.257 251.509 146.271 251.573 146.301 251.611C146.331 251.649 146.373 251.669 146.422 251.669C146.501 251.669 146.586 251.633 146.682 251.562C146.778 251.49 147.014 251.205 147.398 250.708L147.607 250.867C147.242 251.443 146.869 251.869 146.488 252.141C146.235 252.317 145.989 252.405 145.756 252.405C145.575 252.405 145.435 252.352 145.333 252.254C145.232 252.152 145.182 252.02 145.182 251.858C145.182 251.702 145.213 251.493 145.273 251.235C145.347 250.894 145.555 250.15 145.901 249.005C145.117 250.293 144.461 251.18 143.935 251.671C143.408 252.16 142.917 252.405 142.465 252.405C142.254 252.405 142.073 252.33 141.925 252.182C141.777 252.034 141.703 251.847 141.703 251.622C141.703 251.276 141.804 250.746 142.007 250.029L142.608 247.89C142.756 247.377 142.83 247.058 142.83 246.935C142.83 246.88 142.81 246.833 142.772 246.792C142.734 246.754 142.69 246.734 142.643 246.734C142.547 246.734 142.448 246.77 142.352 246.839C142.257 246.907 142.037 247.163 141.694 247.608L141.48 247.457C141.826 246.921 142.193 246.526 142.58 246.273C142.876 246.075 143.148 245.977 143.395 245.977C143.565 245.977 143.704 246.031 143.814 246.139C143.921 246.248 143.976 246.386 143.976 246.559C143.976 246.809 143.883 247.253 143.699 247.896L143.049 250.131C142.868 250.741 142.78 251.125 142.78 251.287C142.78 251.375 142.81 251.446 142.868 251.498C142.926 251.551 143.002 251.578 143.098 251.578C143.249 251.578 143.449 251.501 143.693 251.35C143.937 251.199 144.264 250.859 144.672 250.337C145.081 249.815 145.416 249.321 145.682 248.862C145.948 248.404 146.23 247.673 146.529 246.671L146.68 246.144H147.73V246.136Z" fill="#F9F8F4"/>
<path d="M148.889 246.358L151.274 245.971L150.279 249.334C151.085 247.953 151.817 246.989 152.478 246.44C152.851 246.127 153.156 245.971 153.391 245.971C153.542 245.971 153.663 246.015 153.751 246.105C153.838 246.196 153.882 246.325 153.882 246.495C153.882 246.8 153.803 247.091 153.646 247.368C153.537 247.577 153.378 247.679 153.169 247.679C153.062 247.679 152.972 247.643 152.895 247.574C152.818 247.506 152.772 247.399 152.752 247.256C152.744 247.168 152.722 247.11 152.689 247.083C152.654 247.047 152.61 247.028 152.558 247.028C152.478 247.028 152.407 247.047 152.336 247.083C152.215 247.149 152.034 247.327 151.79 247.624C151.406 248.077 150.992 248.662 150.545 249.381C150.35 249.686 150.186 250.029 150.046 250.414C149.851 250.941 149.742 251.257 149.714 251.361L149.492 252.234H148.434L149.711 247.934C149.859 247.437 149.934 247.08 149.934 246.869C149.934 246.786 149.898 246.718 149.829 246.66C149.736 246.586 149.615 246.55 149.462 246.55C149.366 246.55 149.188 246.572 148.93 246.613L148.889 246.358Z" fill="#F9F8F4"/>
<path d="M154.814 249.625C154.781 249.856 154.765 250.048 154.765 250.199C154.765 250.611 154.91 250.96 155.201 251.248C155.491 251.537 155.842 251.682 156.259 251.682C156.591 251.682 156.909 251.613 157.216 251.479C157.523 251.342 157.979 251.042 158.582 250.575L158.727 250.776C157.636 251.861 156.594 252.401 155.601 252.401C154.929 252.401 154.422 252.19 154.079 251.764C153.739 251.339 153.566 250.872 153.566 250.359C153.566 249.672 153.778 248.966 154.203 248.247C154.628 247.528 155.16 246.967 155.799 246.569C156.44 246.171 157.098 245.971 157.776 245.971C158.264 245.971 158.626 246.07 158.861 246.267C159.097 246.465 159.215 246.701 159.215 246.973C159.215 247.357 159.064 247.723 158.76 248.074C158.36 248.53 157.77 248.901 156.991 249.181C156.476 249.373 155.749 249.518 154.814 249.625ZM154.863 249.285C155.546 249.205 156.1 249.073 156.531 248.884C157.098 248.631 157.523 248.327 157.806 247.972C158.088 247.618 158.231 247.283 158.231 246.965C158.231 246.77 158.17 246.613 158.047 246.495C157.924 246.374 157.751 246.314 157.526 246.314C157.057 246.314 156.558 246.564 156.029 247.066C155.5 247.569 155.11 248.307 154.863 249.285Z" fill="#F9F8F4"/>
<path d="M162.184 245.439C162.529 245.288 162.812 245.088 163.028 244.843C163.193 244.659 163.278 244.484 163.278 244.316C163.278 244.228 163.264 244.149 163.237 244.08C163.217 244.044 163.154 243.97 163.042 243.857C162.929 243.745 162.869 243.671 162.855 243.63C162.822 243.555 162.806 243.465 162.806 243.36C162.806 243.163 162.875 242.993 163.009 242.847C163.146 242.704 163.305 242.633 163.489 242.633C163.678 242.633 163.845 242.71 163.991 242.861C164.136 243.012 164.207 243.204 164.207 243.435C164.207 243.846 164.045 244.261 163.725 244.681C163.404 245.101 162.935 245.425 162.321 245.656L162.184 245.439Z" fill="#F9F8F4"/>
<path d="M167.438 245.971L167.016 248.096H166.761C166.739 247.478 166.607 247.028 166.366 246.745C166.127 246.462 165.828 246.322 165.475 246.322C165.189 246.322 164.962 246.402 164.795 246.558C164.627 246.715 164.542 246.904 164.542 247.127C164.542 247.278 164.575 247.423 164.644 247.563C164.71 247.701 164.858 247.896 165.082 248.145C165.68 248.802 166.07 249.293 166.245 249.625C166.421 249.958 166.508 250.271 166.508 250.567C166.508 251.048 166.308 251.473 165.911 251.844C165.513 252.215 165.008 252.401 164.4 252.401C164.068 252.401 163.684 252.322 163.253 252.165C163.103 252.11 162.985 252.083 162.9 252.083C162.691 252.083 162.535 252.19 162.431 252.401H162.176L162.598 250.158H162.853C162.881 250.861 163.026 251.355 163.289 251.646C163.552 251.937 163.912 252.083 164.367 252.083C164.718 252.083 164.995 251.984 165.2 251.789C165.406 251.594 165.507 251.353 165.507 251.067C165.507 250.883 165.472 250.713 165.398 250.554C165.269 250.276 164.997 249.895 164.586 249.403C164.175 248.914 163.909 248.546 163.791 248.302C163.673 248.058 163.615 247.813 163.615 247.569C163.615 247.121 163.777 246.742 164.104 246.435C164.43 246.124 164.847 245.971 165.359 245.971C165.507 245.971 165.639 245.982 165.76 246.006C165.826 246.02 165.976 246.072 166.212 246.163C166.451 246.254 166.607 246.297 166.687 246.297C166.884 246.297 167.051 246.19 167.186 245.973H167.438V245.971Z" fill="#F9F8F4"/>
<path d="M178.387 242.636L177.674 250.445C177.639 250.81 177.62 251.049 177.62 251.164C177.62 251.348 177.655 251.488 177.724 251.587C177.812 251.722 177.93 251.82 178.08 251.884C178.231 251.949 178.483 251.98 178.837 251.98L178.76 252.235H175.069L175.146 251.98H175.305C175.604 251.98 175.848 251.914 176.037 251.785C176.172 251.697 176.276 251.551 176.347 251.348C176.397 251.205 176.446 250.868 176.493 250.338L176.602 249.146H173.921L172.966 250.439C172.75 250.73 172.613 250.939 172.558 251.065C172.503 251.192 172.475 251.31 172.475 251.422C172.475 251.571 172.536 251.697 172.656 251.804C172.777 251.911 172.974 251.969 173.251 251.977L173.175 252.232H170.402L170.479 251.977C170.819 251.963 171.121 251.848 171.381 251.634C171.642 251.419 172.031 250.961 172.547 250.261L178.146 242.633H178.387V242.636ZM177.019 244.939L174.302 248.643H176.66L177.019 244.939Z" fill="#F9F8F4"/>
<path d="M183.833 242.393L182.47 247.176C182.911 246.714 183.298 246.399 183.627 246.228C183.956 246.058 184.302 245.973 184.661 245.973C185.168 245.973 185.582 246.141 185.906 246.478C186.229 246.816 186.388 247.272 186.388 247.848C186.388 248.593 186.177 249.331 185.752 250.067C185.327 250.803 184.795 251.377 184.156 251.786C183.515 252.198 182.884 252.401 182.262 252.401C181.565 252.401 180.852 252.14 180.117 251.618L182.218 244.37C182.379 243.812 182.459 243.483 182.459 243.387C182.459 243.266 182.423 243.178 182.349 243.117C182.242 243.035 182.086 242.994 181.88 242.994C181.784 242.994 181.636 243.01 181.439 243.043V242.78L183.833 242.393ZM181.156 251.695C181.617 251.948 182.023 252.077 182.374 252.077C182.78 252.077 183.199 251.929 183.635 251.629C184.071 251.333 184.45 250.83 184.768 250.125C185.086 249.419 185.248 248.705 185.248 247.986C185.248 247.56 185.143 247.228 184.932 246.989C184.721 246.75 184.474 246.629 184.189 246.629C183.761 246.629 183.342 246.802 182.931 247.146C182.519 247.489 182.229 247.969 182.053 248.582L181.156 251.695Z" fill="#F9F8F4"/>
<path d="M193.367 248.136C193.367 248.828 193.183 249.514 192.819 250.193C192.451 250.871 191.941 251.409 191.288 251.804C190.633 252.203 189.997 252.4 189.38 252.4C188.749 252.4 188.234 252.197 187.836 251.793C187.438 251.39 187.238 250.868 187.238 250.226C187.238 249.547 187.433 248.866 187.822 248.183C188.212 247.499 188.733 246.961 189.385 246.563C190.038 246.165 190.669 245.967 191.275 245.967C191.883 245.967 192.385 246.167 192.777 246.568C193.17 246.972 193.367 247.493 193.367 248.136ZM192.221 247.658C192.221 247.23 192.117 246.9 191.905 246.672C191.694 246.445 191.426 246.329 191.094 246.329C190.416 246.329 189.794 246.815 189.224 247.787C188.653 248.759 188.371 249.726 188.371 250.684C188.371 251.123 188.48 251.461 188.703 251.697C188.925 251.936 189.202 252.054 189.539 252.054C190.189 252.054 190.798 251.571 191.368 250.605C191.936 249.638 192.221 248.655 192.221 247.658Z" fill="#F9F8F4"/>
<path d="M201.561 242.393L199.183 250.561C199.054 251.003 198.989 251.294 198.989 251.434C198.989 251.481 199.008 251.525 199.046 251.566C199.085 251.607 199.126 251.629 199.167 251.629C199.227 251.629 199.298 251.599 199.381 251.539C199.537 251.429 199.8 251.152 200.168 250.707L200.403 250.852C200.072 251.314 199.737 251.687 199.397 251.973C199.057 252.258 198.742 252.401 198.446 252.401C198.289 252.401 198.16 252.346 198.059 252.233C197.958 252.121 197.908 251.967 197.908 251.764C197.908 251.5 197.977 251.149 198.117 250.704L198.385 249.845C197.716 250.877 197.107 251.594 196.559 251.989C196.181 252.261 195.819 252.398 195.473 252.398C195.122 252.398 194.818 252.242 194.557 251.931C194.297 251.621 194.168 251.196 194.168 250.66C194.168 249.974 194.387 249.238 194.823 248.458C195.262 247.678 195.841 247.044 196.559 246.555C197.127 246.163 197.648 245.968 198.122 245.968C198.372 245.968 198.585 246.017 198.764 246.119C198.945 246.22 199.12 246.388 199.296 246.624L199.973 244.216C200.022 244.046 200.066 243.908 200.096 243.807C200.151 243.623 200.179 243.469 200.179 243.351C200.179 243.255 200.143 243.172 200.074 243.109C199.978 243.03 199.852 242.991 199.702 242.991C199.595 242.991 199.419 243.008 199.175 243.041V242.785L201.561 242.393ZM198.997 247.305C198.997 247.008 198.912 246.772 198.742 246.591C198.572 246.41 198.355 246.322 198.092 246.322C197.511 246.322 196.907 246.802 196.277 247.761C195.646 248.719 195.333 249.639 195.333 250.515C195.333 250.861 195.41 251.124 195.561 251.308C195.712 251.492 195.895 251.583 196.107 251.583C196.586 251.583 197.187 251.064 197.911 250.026C198.635 248.988 198.997 248.082 198.997 247.305Z" fill="#F9F8F4"/>
<path d="M202.67 249.625C202.637 249.856 202.62 250.048 202.62 250.199C202.62 250.611 202.766 250.96 203.056 251.248C203.347 251.537 203.698 251.682 204.115 251.682C204.446 251.682 204.765 251.613 205.072 251.479C205.379 251.342 205.834 251.042 206.437 250.575L206.583 250.776C205.491 251.861 204.449 252.401 203.457 252.401C202.785 252.401 202.277 252.19 201.935 251.764C201.595 251.339 201.422 250.872 201.422 250.359C201.422 249.672 201.633 248.966 202.058 248.247C202.483 247.528 203.015 246.967 203.654 246.569C204.296 246.171 204.954 245.971 205.631 245.971C206.119 245.971 206.481 246.07 206.717 246.267C206.953 246.465 207.071 246.701 207.071 246.973C207.071 247.357 206.92 247.723 206.615 248.074C206.215 248.53 205.626 248.901 204.847 249.181C204.331 249.373 203.605 249.518 202.67 249.625ZM202.716 249.285C203.399 249.205 203.953 249.073 204.383 248.884C204.951 248.631 205.376 248.327 205.658 247.972C205.941 247.618 206.084 247.283 206.084 246.965C206.084 246.77 206.023 246.613 205.9 246.495C205.776 246.374 205.604 246.314 205.379 246.314C204.91 246.314 204.411 246.564 203.882 247.066C203.355 247.569 202.966 248.307 202.716 249.285Z" fill="#F9F8F4"/>
<path d="M215.043 248.697L214.761 249.617H211.18L211.462 248.697H215.043Z" fill="#F9F8F4"/>
<path d="M221.862 251.672C222.059 251.672 222.229 251.601 222.372 251.461C222.512 251.321 222.588 251.15 222.594 250.95V244.574C222.577 244.376 222.523 244.231 222.421 244.14C222.237 243.973 222.051 243.888 221.862 243.888H221.714V243.772H226.093C226.466 243.772 226.776 243.745 227.02 243.687C227.264 243.63 227.412 243.591 227.467 243.566V245.571L227.351 245.56V245.434C227.351 244.961 227.176 244.624 226.825 244.426C226.658 244.327 226.46 244.272 226.23 244.267H224.31V247.597H225.819C226.101 247.589 226.334 247.493 226.515 247.306C226.699 247.12 226.789 246.889 226.789 246.614V246.51H226.905V249.154H226.789V249.064C226.789 248.781 226.699 248.547 226.521 248.366C226.342 248.182 226.115 248.089 225.841 248.081H224.308V251.299H225.805C226.362 251.299 226.828 251.139 227.206 250.818C227.585 250.497 227.864 250.044 228.045 249.456H228.16L227.634 251.793H221.711V251.678H221.862V251.672Z" fill="#F9F8F4"/>
<path d="M228.973 250.849C228.973 250.352 229.082 249.929 229.304 249.577H229.395C229.387 249.63 229.384 249.682 229.384 249.726C229.384 250.193 229.549 250.599 229.88 250.95C230.212 251.302 230.676 251.478 231.271 251.478C231.698 251.478 232.027 251.379 232.26 251.181C232.494 250.983 232.609 250.761 232.609 250.517C232.609 250.272 232.543 250.074 232.409 249.926C232.274 249.778 232.055 249.605 231.75 249.405L230.127 248.375C229.442 247.946 229.099 247.397 229.099 246.727C229.099 246.659 229.102 246.587 229.11 246.51C229.156 245.969 229.365 245.544 229.738 245.234C230.111 244.923 230.552 244.77 231.059 244.77C231.567 244.77 232.101 244.805 232.666 244.874H233.283L233.124 246.384H233.02C233.02 246.024 232.897 245.744 232.647 245.538C232.4 245.332 232.071 245.228 231.663 245.228C231.254 245.228 230.933 245.313 230.697 245.486C230.462 245.659 230.344 245.884 230.344 246.167C230.344 246.395 230.459 246.596 230.686 246.763C230.777 246.832 230.911 246.92 231.087 247.027L232.905 248.15C233.53 248.531 233.843 249.059 233.843 249.729C233.843 250.437 233.593 250.983 233.094 251.365C232.595 251.747 231.948 251.936 231.155 251.936C230.667 251.936 230.237 251.879 229.864 251.763C229.491 251.648 229.217 251.502 229.041 251.329C228.995 251.192 228.973 251.033 228.973 250.849Z" fill="#F9F8F4"/>
<path d="M240.81 246.542V246.438C240.81 246.108 240.72 245.85 240.536 245.66C240.352 245.471 240.097 245.369 239.771 245.364H238.444V251.075C238.452 251.243 238.515 251.385 238.638 251.498C238.759 251.613 238.904 251.671 239.072 251.671H239.198V251.786H236.042V251.671H236.157C236.332 251.671 236.48 251.613 236.604 251.498C236.727 251.383 236.788 251.237 236.788 251.064V245.364H235.474C235.139 245.372 234.879 245.471 234.698 245.66C234.514 245.85 234.424 246.111 234.424 246.438V246.542H234.309V244.732C234.416 244.771 234.594 244.809 234.841 244.848C235.087 244.886 235.312 244.905 235.51 244.905H239.727C240.062 244.905 240.339 244.881 240.555 244.831C240.772 244.782 240.895 244.749 240.928 244.735V246.545H240.81V246.542Z" fill="#F9F8F4"/>
<path d="M248.261 245.828C248.955 246.435 249.301 247.276 249.301 248.352C249.301 249.428 248.952 250.269 248.261 250.875C247.57 251.482 246.608 251.784 245.379 251.784H241.516V251.669H241.664C241.839 251.669 241.987 251.609 242.111 251.485C242.231 251.364 242.297 251.219 242.305 251.051V245.625C242.289 245.458 242.22 245.315 242.1 245.202C241.979 245.09 241.828 245.029 241.653 245.029H241.516V244.914H245.379C246.608 244.917 247.567 245.222 248.261 245.828ZM245.245 251.328C245.961 251.328 246.528 251.065 246.942 250.538C247.356 250.01 247.565 249.283 247.565 248.352C247.565 247.421 247.356 246.691 246.942 246.161C246.528 245.631 245.961 245.364 245.245 245.364H243.953V251.328H245.245V251.328Z" fill="#F9F8F4"/>
<path d="M256.318 251.67H256.559V251.786H253.104V251.67H253.345C253.521 251.67 253.672 251.61 253.798 251.486C253.924 251.366 253.987 251.22 253.987 251.053V245.157C253.987 244.69 253.762 244.46 253.313 244.46H253.027V244.344C254.209 244.246 255.059 244.001 255.578 243.611H255.693V251.064C255.693 251.231 255.753 251.374 255.876 251.492C255.994 251.613 256.142 251.67 256.318 251.67Z" fill="#F9F8F4"/>
<path d="M260.383 248.098C260.695 248.098 260.961 247.988 261.184 247.766L261.263 247.87C261.126 248.098 260.934 248.29 260.693 248.442C260.342 248.664 259.969 248.774 259.571 248.774C259.083 248.774 258.642 248.62 258.244 248.315C258.008 248.139 257.816 247.887 257.674 247.555C257.528 247.222 257.457 246.843 257.457 246.415C257.457 245.583 257.715 244.916 258.233 244.411C258.768 243.9 259.522 243.645 260.498 243.645C261.809 243.645 262.705 244.166 263.185 245.212C263.438 245.753 263.564 246.41 263.564 247.176C263.564 247.942 263.457 248.636 263.243 249.254C262.785 250.589 261.94 251.484 260.704 251.934C260.147 252.132 259.53 252.231 258.853 252.231C258.724 252.231 258.59 252.228 258.452 252.22L258.406 252.14C259.464 251.819 260.254 251.344 260.772 250.71C261.214 250.169 261.488 249.43 261.595 248.499C261.642 248.101 261.663 247.64 261.663 247.115C261.663 246.108 261.576 245.369 261.4 244.899C261.225 244.43 260.904 244.196 260.44 244.196C260.144 244.196 259.9 244.295 259.708 244.493C259.379 244.828 259.217 245.394 259.217 246.187C259.217 247.371 259.538 247.999 260.177 248.076C260.246 248.093 260.314 248.098 260.383 248.098Z" fill="#F9F8F4"/>
<path d="M267.57 248.098C267.883 248.098 268.149 247.988 268.371 247.766L268.451 247.87C268.314 248.098 268.122 248.29 267.88 248.442C267.529 248.664 267.156 248.774 266.759 248.774C266.271 248.774 265.829 248.62 265.432 248.315C265.196 248.139 265.004 247.887 264.861 247.555C264.716 247.222 264.645 246.843 264.645 246.415C264.645 245.583 264.902 244.916 265.421 244.411C265.955 243.9 266.709 243.645 267.686 243.645C268.996 243.645 269.893 244.166 270.373 245.212C270.625 245.753 270.751 246.41 270.751 247.176C270.751 247.942 270.644 248.636 270.43 249.254C269.973 250.589 269.128 251.484 267.891 251.934C267.335 252.132 266.718 252.231 266.04 252.231C265.911 252.231 265.777 252.228 265.64 252.22L265.593 252.14C266.652 251.819 267.442 251.344 267.96 250.71C268.401 250.169 268.675 249.43 268.782 248.499C268.829 248.101 268.851 247.64 268.851 247.115C268.851 246.108 268.763 245.369 268.588 244.899C268.412 244.43 268.091 244.196 267.628 244.196C267.332 244.196 267.088 244.295 266.896 244.493C266.567 244.828 266.405 245.394 266.405 246.187C266.405 247.371 266.726 247.999 267.365 248.076C267.433 248.093 267.502 248.098 267.57 248.098Z" fill="#F9F8F4"/>
<path d="M274.982 247.506C274.678 247.506 274.415 247.613 274.193 247.827L274.113 247.737C274.327 247.385 274.642 247.13 275.062 246.97C275.306 246.88 275.539 246.833 275.758 246.833C275.981 246.833 276.183 246.855 276.37 246.896C276.556 246.938 276.746 247.02 276.935 247.143C277.59 247.572 277.916 248.269 277.916 249.239C277.916 250.002 277.661 250.644 277.151 251.161C276.617 251.696 275.865 251.962 274.895 251.962C273.924 251.962 273.167 251.663 272.624 251.065C272.084 250.466 271.812 249.582 271.812 248.415C271.812 246.896 272.232 245.666 273.071 244.73C273.482 244.271 273.993 243.934 274.604 243.711C275.213 243.489 275.868 243.379 276.57 243.379C276.685 243.379 276.803 243.382 276.924 243.39L276.97 243.47C275.904 243.805 275.111 244.285 274.593 244.911C274.152 245.452 273.877 246.193 273.77 247.132C273.732 247.522 273.713 247.986 273.713 248.53C273.713 249.508 273.801 250.233 273.976 250.705C274.152 251.177 274.472 251.413 274.936 251.413C275.232 251.413 275.476 251.314 275.668 251.117C275.994 250.773 276.159 250.205 276.159 249.412C276.159 248.245 275.843 247.618 275.21 247.533C275.136 247.511 275.059 247.506 274.982 247.506Z" fill="#F9F8F4"/>
<path d="M148.08 263.892C148.08 264.243 148.009 264.57 147.866 264.872C147.603 265.438 147.142 265.833 146.481 266.055C146.251 266.135 146.051 266.176 145.883 266.176C145.39 266.176 144.965 266.086 144.606 265.902V265.781C145.187 265.907 145.724 265.844 146.215 265.589C146.651 265.366 146.95 264.998 147.109 264.49C147.156 264.331 147.18 264.18 147.18 264.037C147.18 263.894 147.18 263.807 147.18 263.774C147.164 263.216 147.019 262.771 146.739 262.442C146.459 262.112 146.07 261.945 145.571 261.945H144.2V269.079C144.208 269.284 144.285 269.463 144.433 269.611C144.581 269.76 144.756 269.831 144.965 269.831H145.121V269.952H142.508V269.831H142.664C142.87 269.831 143.048 269.757 143.196 269.611C143.344 269.463 143.421 269.287 143.429 269.079V262.401C143.404 262.203 143.322 262.035 143.18 261.904C143.037 261.772 142.864 261.706 142.667 261.706H142.524L142.513 261.588H145.628C146.393 261.588 146.991 261.794 147.43 262.203C147.86 262.612 148.08 263.175 148.08 263.892Z" fill="#F9F8F4"/>
<path d="M149.378 269.831C149.57 269.831 149.729 269.77 149.861 269.647C149.992 269.523 150.061 269.375 150.069 269.199V263.523C150.069 263.348 150.001 263.202 149.866 263.081C149.732 262.963 149.567 262.903 149.378 262.903H149.211V262.782H152.696C153.023 262.782 153.308 262.757 153.554 262.711C153.801 262.664 153.96 262.623 154.032 262.59V263.952L153.9 263.941V263.762C153.9 263.595 153.845 263.452 153.733 263.331C153.62 263.21 153.478 263.153 153.302 263.153H150.821V266.187H152.861C153.02 266.187 153.14 266.14 153.225 266.044C153.308 265.948 153.352 265.83 153.352 265.684V265.528H153.483V267.2H153.352V267.044C153.352 266.821 153.269 266.67 153.102 266.591C153.039 266.566 152.97 266.552 152.899 266.544H150.823V269.578H152.696C153.061 269.578 153.371 269.515 153.62 269.386C153.87 269.257 154.062 269.106 154.193 268.933C154.325 268.757 154.457 268.526 154.594 268.241H154.714L154.059 269.949H149.214V269.828H149.378V269.831Z" fill="#F9F8F4"/>
<path d="M163.75 262.903C163.575 262.903 163.424 262.96 163.298 263.076C163.171 263.191 163.103 263.334 163.095 263.499V268.59C163.095 269.051 163.122 269.49 163.177 269.905L163.202 270.119H163.095L156.889 264.229V269.21C156.889 269.386 156.952 269.532 157.081 269.652C157.207 269.773 157.364 269.831 157.547 269.831H157.75V269.952H155.496V269.831H155.699C155.883 269.831 156.036 269.77 156.165 269.652C156.291 269.532 156.357 269.386 156.357 269.21V264.097C156.357 263.611 156.33 263.177 156.275 262.796L156.25 262.604L156.382 262.614L162.574 268.458V263.499C162.557 263.331 162.486 263.191 162.36 263.076C162.234 262.96 162.08 262.903 161.907 262.903H161.704V262.782H163.958V262.903H163.75Z" fill="#F9F8F4"/>
<path d="M172.926 262.903C172.75 262.903 172.599 262.96 172.473 263.076C172.347 263.191 172.279 263.334 172.27 263.499V268.59C172.27 269.051 172.298 269.49 172.353 269.905L172.377 270.119H172.27L166.065 264.229V269.21C166.065 269.386 166.128 269.532 166.257 269.652C166.383 269.773 166.539 269.831 166.723 269.831H166.926V269.952H164.672V269.831H164.875C165.059 269.831 165.212 269.77 165.341 269.652C165.467 269.532 165.533 269.386 165.533 269.21V264.097C165.533 263.611 165.505 263.177 165.451 262.796L165.426 262.604L165.558 262.614L171.749 268.458V263.499C171.733 263.331 171.662 263.191 171.536 263.076C171.409 262.96 171.256 262.903 171.083 262.903H170.88V262.782H173.134V262.903H172.926Z" fill="#F9F8F4"/>
<path d="M174.235 269.557C174.21 269.461 174.199 269.266 174.199 268.973C174.199 268.679 174.251 268.38 174.356 268.077H174.498C174.49 268.149 174.487 268.22 174.487 268.292C174.487 268.723 174.627 269.074 174.909 269.349C175.192 269.623 175.584 269.761 176.086 269.761C176.61 269.761 177.021 269.64 177.314 269.395C177.608 269.154 177.756 268.838 177.756 268.451C177.756 268.064 177.613 267.745 177.325 267.49L174.94 265.65C174.558 265.323 174.366 264.884 174.366 264.335C174.366 264.025 174.451 263.736 174.624 263.475C174.794 263.212 175.033 263.003 175.34 262.847C175.647 262.69 176.006 262.613 176.42 262.613C176.834 262.613 177.199 262.649 177.517 262.72H177.912L177.937 264.022H177.805C177.805 263.687 177.69 263.429 177.46 263.245C177.229 263.061 176.9 262.97 176.47 262.97C176.039 262.97 175.685 263.08 175.409 263.3C175.129 263.519 174.992 263.802 174.992 264.148C174.992 264.494 175.148 264.796 175.458 265.052L177.868 266.916C178.233 267.218 178.417 267.641 178.417 268.182C178.417 268.723 178.211 269.181 177.802 269.555C177.394 269.928 176.895 270.115 176.305 270.115C175.916 270.115 175.526 270.068 175.137 269.972C174.739 269.879 174.441 269.739 174.235 269.557Z" fill="#F9F8F4"/>
<path d="M186.755 262.901H186.612C186.398 262.901 186.193 262.959 185.998 263.074C185.803 263.189 185.641 263.335 185.515 263.51L183.226 266.987V269.186C183.226 269.362 183.294 269.513 183.429 269.639C183.563 269.766 183.727 269.831 183.917 269.831H184.059V269.952H181.613V269.831H181.756C181.948 269.831 182.11 269.768 182.244 269.639C182.378 269.513 182.447 269.362 182.447 269.186V266.976L180.239 263.5C179.968 263.101 179.603 262.901 179.143 262.901H179V262.78H181.77V262.901H181.627C181.476 262.901 181.366 262.948 181.298 263.044C181.229 263.14 181.196 263.222 181.196 263.288C181.196 263.357 181.205 263.417 181.221 263.472L182.962 266.567L184.813 263.483C184.838 263.42 184.849 263.354 184.849 263.285C184.849 263.217 184.816 263.137 184.748 263.041C184.679 262.945 184.567 262.898 184.407 262.898H184.265V262.777H186.758V262.901H186.755Z" fill="#F9F8F4"/>
<path d="M187.511 269.832C187.703 269.832 187.862 269.771 187.994 269.648C188.125 269.524 188.194 269.376 188.202 269.2V263.549C188.194 263.374 188.12 263.223 187.983 263.096C187.843 262.97 187.678 262.904 187.486 262.904H187.344V262.783H189.814V262.904H189.672C189.48 262.904 189.315 262.967 189.175 263.096C189.036 263.225 188.967 263.376 188.967 263.549V269.582H190.829C191.194 269.582 191.504 269.519 191.759 269.39C192.014 269.263 192.206 269.11 192.337 268.937C192.469 268.764 192.598 268.53 192.724 268.245H192.844L192.189 269.953H187.344V269.832H187.511Z" fill="#F9F8F4"/>
<path d="M199.911 262.904H199.815C199.639 262.904 199.469 262.962 199.302 263.077C199.135 263.192 198.992 263.365 198.871 263.596C197.136 267.325 196.233 269.274 196.162 269.45C196.028 269.785 195.956 270.008 195.948 270.12H195.841L192.893 263.61C192.663 263.14 192.356 262.904 191.975 262.904H191.879V262.783H194.325V262.904H194.229C194.078 262.904 193.966 262.959 193.889 263.066C193.812 263.173 193.776 263.272 193.776 263.36C193.776 263.448 193.787 263.538 193.812 263.634L195.948 268.843L198.145 263.659C198.183 263.555 198.205 263.459 198.205 263.365C198.205 263.275 198.164 263.173 198.087 263.066C198.008 262.959 197.887 262.904 197.728 262.904H197.646V262.783H199.913V262.904H199.911Z" fill="#F9F8F4"/>
<path d="M206.703 269.831H206.799V269.952H204.353V269.831H204.448C204.599 269.831 204.714 269.779 204.794 269.675C204.874 269.57 204.912 269.474 204.912 269.381C204.912 269.29 204.895 269.2 204.865 269.112L204.21 267.522H201.191L200.535 269.076C200.494 269.181 200.475 269.277 200.475 269.37C200.475 269.461 200.514 269.562 200.596 269.669C200.675 269.776 200.793 269.831 200.952 269.831H201.048V269.952H198.77V269.831H198.865C199.033 269.831 199.2 269.774 199.373 269.658C199.543 269.543 199.685 269.37 199.795 269.139C201.536 265.41 202.444 263.461 202.515 263.285C202.65 262.95 202.721 262.728 202.729 262.615H202.836L205.784 269.139C206.014 269.601 206.321 269.831 206.703 269.831ZM201.347 267.165H204.067L202.732 263.892L201.347 267.165Z" fill="#F9F8F4"/>
<path d="M215.414 262.903C215.238 262.903 215.088 262.96 214.961 263.076C214.835 263.191 214.767 263.334 214.759 263.499V268.59C214.759 269.051 214.786 269.49 214.841 269.905L214.865 270.119H214.759L208.553 264.229V269.21C208.553 269.386 208.616 269.532 208.745 269.652C208.871 269.773 209.028 269.831 209.211 269.831H209.414V269.952H207.16V269.831H207.363C207.547 269.831 207.7 269.77 207.829 269.652C207.955 269.532 208.021 269.386 208.021 269.21V264.097C208.021 263.611 207.994 263.177 207.939 262.796L207.914 262.604L208.046 262.614L214.238 268.458V263.499C214.221 263.331 214.15 263.191 214.024 263.076C213.898 262.96 213.744 262.903 213.571 262.903H213.368V262.782H215.622V262.903H215.414Z" fill="#F9F8F4"/>
<path d="M216.852 269.834C217.066 269.834 217.253 269.771 217.415 269.642C217.574 269.516 217.653 269.365 217.653 269.189V263.549C217.653 263.374 217.574 263.223 217.415 263.096C217.256 262.97 217.064 262.904 216.841 262.904H216.685V262.783H219.381V262.904H219.224C219.011 262.904 218.824 262.964 218.67 263.082C218.514 263.203 218.429 263.349 218.413 263.525V269.2C218.421 269.376 218.503 269.524 218.662 269.648C218.821 269.771 219.008 269.832 219.222 269.832H219.378L219.389 269.952H216.68V269.832H216.852V269.834Z" fill="#F9F8F4"/>
<path d="M227.913 269.831H228.009V269.952H225.563V269.831H225.659C225.81 269.831 225.925 269.779 226.005 269.675C226.084 269.57 226.123 269.474 226.123 269.381C226.123 269.29 226.106 269.2 226.076 269.112L225.421 267.522H222.402L221.746 269.076C221.705 269.181 221.686 269.277 221.686 269.37C221.686 269.461 221.724 269.562 221.807 269.669C221.886 269.776 222.004 269.831 222.163 269.831H222.259V269.952H219.98V269.831H220.076C220.244 269.831 220.411 269.774 220.584 269.658C220.754 269.543 220.896 269.37 221.006 269.139C222.747 265.41 223.655 263.461 223.726 263.285C223.861 262.95 223.932 262.728 223.94 262.615H224.047L226.995 269.139C227.225 269.601 227.532 269.831 227.913 269.831ZM222.555 267.165H225.276L223.94 263.892L222.555 267.165Z" fill="#F9F8F4"/>
<path d="M228.492 270.921C228.706 270.85 228.851 270.751 228.928 270.622C229.005 270.493 229.041 270.4 229.041 270.336C229.041 270.136 228.961 269.949 228.802 269.776C228.681 269.633 228.616 269.535 228.599 269.477C228.574 269.364 228.583 269.263 228.624 269.167C228.695 269.007 228.827 268.928 229.019 268.928C229.257 268.928 229.419 269.038 229.507 269.257C229.594 269.477 229.638 269.653 229.638 269.79C229.638 270.205 229.49 270.526 229.197 270.756C228.997 270.924 228.772 271.012 228.517 271.02L228.492 270.921Z" fill="#F9F8F4"/>
<path d="M241.913 261.707H241.721C241.553 261.707 241.408 261.762 241.285 261.869C241.161 261.976 241.095 262.11 241.087 262.27V267.001C241.087 267.932 240.794 268.687 240.204 269.258C239.615 269.832 238.833 270.117 237.854 270.117C236.875 270.117 236.083 269.832 235.474 269.263C234.865 268.695 234.561 267.943 234.561 267.012V262.303C234.561 262.064 234.457 261.888 234.251 261.775C234.155 261.729 234.048 261.704 233.93 261.704H233.738V261.586H236.16V261.704H235.968C235.792 261.704 235.647 261.759 235.526 261.866C235.406 261.973 235.342 262.11 235.334 262.278V266.842C235.334 267.709 235.567 268.409 236.031 268.945C236.497 269.478 237.119 269.747 237.898 269.747C238.677 269.747 239.31 269.494 239.796 268.989C240.281 268.484 240.522 267.819 240.522 266.998V262.278C240.514 262.11 240.451 261.973 240.33 261.866C240.212 261.759 240.064 261.704 239.889 261.704H239.697V261.586H241.904V261.707H241.913Z" fill="#F9F8F4"/>
<path d="M243.239 269.46C243.214 269.348 243.203 269.134 243.203 268.815C243.203 268.497 243.263 268.159 243.381 267.799H243.488C243.48 267.887 243.477 267.975 243.477 268.063C243.477 268.549 243.625 268.953 243.919 269.277C244.212 269.601 244.602 269.76 245.087 269.76C245.589 269.76 246 269.609 246.321 269.307C246.642 269.005 246.804 268.623 246.804 268.164C246.804 267.706 246.647 267.335 246.337 267.047L244.048 264.919C243.617 264.521 243.403 264.037 243.403 263.475C243.403 262.912 243.593 262.426 243.971 262.022C244.349 261.618 244.859 261.418 245.504 261.418C245.805 261.418 246.148 261.459 246.529 261.536H246.995V263.005H246.889C246.889 262.632 246.76 262.332 246.502 262.11C246.244 261.888 245.912 261.775 245.507 261.775C245.101 261.775 244.761 261.909 244.486 262.181C244.212 262.453 244.075 262.791 244.075 263.197C244.075 263.604 244.234 263.955 244.552 264.249L246.902 266.424C247.3 266.789 247.5 267.291 247.5 267.928C247.5 268.565 247.297 269.09 246.891 269.499C246.485 269.908 245.945 270.114 245.268 270.114C244.917 270.114 244.547 270.059 244.152 269.952C243.757 269.848 243.453 269.683 243.239 269.46Z" fill="#F9F8F4"/>
<path d="M256.718 269.83H256.814V269.951H254.129V269.83H254.236C254.403 269.83 254.53 269.775 254.612 269.668C254.694 269.561 254.738 269.46 254.738 269.363C254.738 269.267 254.721 269.171 254.691 269.078L253.926 267.046H250.704L249.904 269.089C249.871 269.185 249.857 269.278 249.857 269.369C249.857 269.46 249.898 269.561 249.983 269.668C250.065 269.775 250.192 269.83 250.359 269.83H250.466V269.951H248.066V269.83H248.173C248.371 269.83 248.568 269.767 248.757 269.638C248.949 269.512 249.103 269.322 249.224 269.078L251.919 262.65C252.212 262.005 252.361 261.596 252.361 261.42H252.467L255.665 269.078C255.777 269.325 255.928 269.512 256.117 269.638C256.312 269.767 256.509 269.83 256.718 269.83ZM250.847 266.686H253.781L252.35 262.85L250.847 266.686Z" fill="#F9F8F4"/>
</svg>
