<svg width="400" height="400" viewBox="0 0 400 400" fill="none" xmlns="http://www.w3.org/2000/svg">
<g clip-path="url(#clip0)">
<path d="M118.857 177.877C118.535 160.34 130.789 143.832 148.906 139.996C169.077 135.725 187.088 147.753 193.036 165.354C194.821 170.638 195.482 176.067 194.932 181.568C193.213 198.788 181.097 211.8 166.123 215.61C164.645 215.987 163.162 216.301 161.628 216.221C160.226 216.149 159.222 215.265 158.956 213.927C158.725 212.777 159.549 211.331 160.789 210.883C161.499 210.625 162.257 210.494 163.002 210.352C175.862 207.939 186.444 197.164 188.802 184.133C191.809 167.524 182.603 152.769 168.737 147.196C164.934 145.667 160.989 145.033 156.875 145C151.142 144.953 145.841 146.35 140.927 149.24C132.434 154.233 126.991 161.608 125.079 171.412C122.001 187.201 130.058 200.907 141.774 207.142C142.446 207.501 143.113 207.869 143.754 208.279C145.298 209.259 145.382 212.218 143.313 213.177C142.667 213.476 142.043 213.636 141.368 213.347C140.747 213.082 140.111 212.842 139.518 212.517C128.334 206.387 121.542 196.999 119.263 184.275C119.113 183.432 118.916 182.589 118.873 181.738C118.809 180.452 118.857 179.163 118.857 177.877Z" fill="#572DFF"/>
<path d="M201.685 258.654C201.647 257.976 201.574 257.476 201.599 256.981C201.703 255.014 201.837 253.047 201.962 251.081C202.23 246.804 202.496 242.53 202.765 238.253C202.78 237.996 202.816 237.74 202.829 237.485C203.052 232.948 203.267 228.411 203.498 223.875C203.673 220.451 203.863 217.028 204.056 213.605C204.076 213.264 204.129 212.922 204.19 212.586C204.484 210.993 204.766 210.72 206.35 210.679C209.111 210.607 209.37 210.88 209.202 213.496C208.962 217.257 208.68 221.016 208.414 224.777C208.383 225.205 208.315 225.63 208.29 226.058C208.074 229.736 207.892 233.418 207.641 237.093C207.412 240.427 207.093 243.752 206.85 247.085C206.743 248.539 206.703 249.998 206.68 251.454C206.675 251.836 206.839 252.217 206.918 252.56C207.755 252.596 207.897 252.088 208.016 251.588C208.523 249.423 209.027 247.255 209.517 245.085C211.887 234.565 214.248 224.042 216.623 213.525C216.808 212.7 217.064 211.893 217.305 211.014C217.98 210.888 218.543 210.702 219.11 210.689C220.713 210.656 222.32 210.648 223.922 210.715C225.068 210.761 225.37 211.122 225.388 212.347C225.403 213.288 225.337 214.231 225.274 215.172C225.228 215.855 225.099 216.533 225.061 217.219C224.858 220.9 224.668 224.581 224.478 228.259C224.359 230.569 224.247 232.881 224.135 235.191C223.884 240.414 223.623 245.636 223.395 250.861C223.37 251.429 223.524 252.003 223.626 252.833C224.062 252.503 224.424 252.372 224.518 252.132C224.767 251.501 224.932 250.83 225.071 250.165C226.995 240.95 228.909 231.732 230.829 222.516C231.508 219.247 232.177 215.979 232.875 212.715C233.247 210.973 233.534 210.741 235.238 210.687C235.826 210.669 236.422 210.684 237.007 210.754C237.801 210.846 238.176 211.354 238.037 212.202C237.872 213.215 237.639 214.216 237.418 215.218C234.434 228.757 231.45 242.295 228.458 255.831C228.258 256.741 228.009 257.638 227.769 258.6C227.158 258.711 226.676 258.865 226.194 258.871C224.168 258.896 222.14 258.904 220.114 258.865C219.088 258.845 218.75 258.432 218.806 257.424C219.123 251.606 219.437 245.786 219.767 239.968C220.089 234.235 220.419 228.504 220.758 222.771C220.85 221.232 221.014 219.699 221.103 218.16C221.131 217.654 221.065 217.118 220.363 216.927C219.602 217.448 219.541 218.327 219.359 219.139C218.515 222.898 217.673 226.653 216.841 230.414C214.958 238.937 213.084 247.464 211.195 255.986C211.01 256.816 210.739 257.626 210.516 258.427C209.101 259.239 207.636 258.827 206.236 258.868C204.814 258.899 203.376 259.023 201.685 258.654Z" fill="#F9F8F4"/>
<path d="M150.398 248.797C151.435 248.864 152.175 248.944 152.918 248.951C154.774 248.972 156.633 248.923 158.488 248.982C159.231 249.006 160.012 249.124 160.699 249.4C162.976 250.315 164.01 252.382 163.622 255.032C163.305 257.195 161.589 258.75 159.259 258.953C158.587 259.013 157.91 259.013 157.236 259.013C149.724 259.015 142.214 259.015 134.702 259.013C134.028 259.013 133.351 258.956 132.679 258.974C130.415 259.036 128.217 257.102 128.024 254.138C127.867 251.705 129.958 249.318 132.458 249.008C133.29 248.905 134.144 248.962 134.988 248.959C137.521 248.951 140.052 248.977 142.584 248.939C144.047 248.915 144.41 248.593 144.613 247.209C144.988 244.67 145.322 242.125 145.67 239.581C146.296 235.003 146.93 230.427 147.546 225.849C148.127 221.524 148.679 217.196 149.262 212.87C149.823 208.715 150.408 204.565 150.976 200.409C151.417 197.187 151.856 193.967 152.287 190.742C152.832 186.672 153.362 182.599 153.915 178.531C153.983 178.026 154.125 177.521 154.295 177.039C154.876 175.394 156.678 174.665 158.222 175.459C159.028 175.874 159.525 176.572 159.558 177.5C159.591 178.439 159.606 179.395 159.485 180.323C158.947 184.393 158.357 188.459 157.791 192.526C157.355 195.661 156.927 198.798 156.503 201.935C156.103 204.902 155.72 207.872 155.317 210.841C154.696 215.42 154.069 219.995 153.438 224.573C152.842 228.896 152.229 233.214 151.64 237.54C151.212 240.677 150.804 243.817 150.411 246.959C150.345 247.454 150.398 247.967 150.398 248.797Z" fill="#572DFF"/>
<path d="M226.657 155.973C227.068 155.904 227.473 155.777 227.877 155.777C231.003 155.762 234.126 155.736 237.252 155.793C238.167 155.808 239.1 155.994 239.988 156.241C242.001 156.803 242.985 157.997 243.129 160.085C243.213 161.278 243.241 162.5 243.091 163.683C242.581 167.676 241.975 171.654 241.415 175.639C240.984 178.691 240.563 181.746 240.14 184.798C239.6 188.701 239.111 192.609 238.505 196.499C238.309 197.757 237.924 199.012 237.432 200.187C236.575 202.237 234.937 203.572 232.793 203.709C228.921 203.954 225.032 203.933 221.148 203.951C220.017 203.956 219.698 203.425 219.86 202.263C220.953 194.55 222.068 186.837 223.141 179.122C224.061 172.507 224.92 165.882 225.838 159.268C225.99 158.182 226.082 157.058 226.657 155.973ZM225.955 199.36C227.666 200.025 229.251 199.656 230.807 199.365C231.664 199.203 232.324 198.571 232.666 197.746C232.96 197.042 233.211 196.295 233.327 195.542C233.865 192.075 234.354 188.598 234.846 185.123C235.663 179.359 236.474 173.595 237.28 167.831C237.47 166.475 237.691 165.119 237.8 163.753C237.96 161.74 237.158 160.611 235.254 160.252C233.939 160.005 232.58 159.845 231.241 160.564C231.089 161.023 230.848 161.495 230.777 161.99C229.157 173.518 227.549 185.045 225.965 196.578C225.856 197.411 225.955 198.275 225.955 199.36Z" fill="#F9F8F4"/>
<path d="M183.917 259.376C182.736 259.536 181.405 259.262 180.147 258.76C178.002 257.904 176.702 256.303 176.603 253.911C176.542 252.462 176.542 250.988 176.727 249.552C177.505 243.533 178.35 237.521 179.199 231.51C179.82 227.107 180.467 222.709 181.141 218.314C181.283 217.391 181.503 216.461 181.838 215.592C182.982 212.635 185.172 210.839 188.23 210.4C190.045 210.14 191.952 210.124 193.769 210.372C197.567 210.893 198.688 213.122 199.005 215.971C199.109 216.894 199.012 217.855 198.891 218.783C198.285 223.359 197.648 227.932 197.007 232.505C196.401 236.823 195.772 241.138 195.161 245.456C194.933 247.064 194.738 248.678 194.51 250.286C194.426 250.877 194.302 251.462 194.178 252.044C193.323 256.112 190.785 259.146 185.124 259.373C184.787 259.386 184.447 259.376 183.917 259.376ZM181.853 250.923C181.853 251.33 181.838 251.591 181.856 251.846C182.008 254.047 183.529 255.228 185.664 254.834C187.008 254.584 188.004 253.854 188.557 252.599C188.863 251.903 189.107 251.15 189.213 250.4C189.781 246.425 190.283 242.442 190.833 238.465C191.242 235.503 191.698 232.549 192.114 229.587C192.623 225.947 193.136 222.31 193.592 218.662C193.673 218.005 193.567 217.293 193.404 216.644C193.1 215.442 192.251 214.795 191.054 214.628C189.239 214.373 187.712 215.18 186.924 216.886C186.645 217.494 186.47 218.175 186.369 218.843C185.981 221.377 185.644 223.916 185.281 226.455C184.33 233.136 183.369 239.815 182.424 246.5C182.206 248.021 182.028 249.549 181.853 250.923Z" fill="#F9F8F4"/>
<path d="M273.503 258.52C272.187 259.025 271.171 258.881 270.172 258.844C269.292 258.814 268.993 258.486 268.886 257.581C268.716 256.135 268.547 254.689 268.422 253.238C268.209 250.763 268.029 248.288 267.837 245.811C267.776 245.046 267.799 244.257 267.058 243.525C265.874 243.525 264.551 243.525 263.073 243.525C262.862 244.205 262.578 244.824 262.487 245.471C261.929 249.369 261.42 253.271 260.89 257.172C260.707 258.522 260.431 258.814 259.143 258.857C258.142 258.891 257.138 258.842 256.025 258.826C255.88 258.223 255.642 257.741 255.68 257.282C255.822 255.578 256.02 253.877 256.258 252.183C257.024 246.762 257.837 241.346 258.595 235.923C259.351 230.499 260.056 225.065 260.794 219.639C261.116 217.265 261.455 214.893 261.808 212.522C262.013 211.148 262.409 210.707 263.79 210.699C267.249 210.679 270.709 210.712 274.167 210.815C274.981 210.838 275.848 211.088 276.584 211.457C277.887 212.107 278.597 213.277 278.645 214.764C278.688 216.133 278.772 217.525 278.589 218.873C277.844 224.385 277.009 229.88 276.198 235.381C275.848 237.748 274.92 239.823 273.065 241.367C272.243 242.05 272.091 242.893 272.203 243.893C272.649 247.891 273.087 251.89 273.49 255.893C273.574 256.731 273.503 257.579 273.503 258.52ZM267.053 215.337C266.901 215.638 266.673 215.924 266.615 216.239C266.384 217.497 266.191 218.762 266.011 220.028C265.367 224.588 264.733 229.148 264.105 233.711C263.917 235.064 263.727 236.415 263.593 237.774C263.509 238.617 263.899 239.086 264.718 239.142C265.555 239.202 266.402 239.217 267.238 239.166C269.381 239.039 270.405 238.181 270.894 235.985C271.209 234.575 271.366 233.126 271.576 231.693C272.167 227.64 272.763 223.591 273.326 219.536C273.419 218.866 273.425 218.164 273.354 217.492C273.209 216.131 272.421 215.272 271.092 215.151C269.766 215.035 268.415 214.916 267.053 215.337Z" fill="#F9F8F4"/>
<path d="M262.754 155.8C263.01 155.803 263.225 155.999 263.256 156.257C263.347 157.017 263.441 157.576 263.428 158.131C263.357 161.299 263.228 164.467 263.152 167.635C263.056 171.664 263.005 175.693 262.916 179.722C262.749 187.092 262.569 194.459 262.391 201.829C262.384 202.172 262.391 202.523 262.323 202.853C262.209 203.391 261.887 203.778 261.329 203.884C260.999 203.946 260.66 203.984 260.325 203.995C257.113 204.072 257.158 203.703 257.272 200.855C257.336 199.228 257.526 197.607 257.534 195.98C257.541 194.508 257.143 194.111 255.754 194.065C254.068 194.011 252.377 194.011 250.691 194.055C249.157 194.096 248.84 194.359 248.401 195.918C247.986 197.401 247.646 198.904 247.278 200.399C247.197 200.731 247.146 201.071 247.058 201.401C246.398 203.889 246.16 204.08 243.554 203.99C242.986 203.969 242.423 203.812 241.868 203.721C241.472 202.636 241.924 201.742 242.137 200.868C243.419 195.635 244.766 190.415 246.087 185.192C248.285 176.485 250.452 167.769 252.689 159.069C253.584 155.586 253.13 155.744 256.859 155.759C258.743 155.767 260.627 155.785 262.754 155.8ZM250.602 189.394C251.051 189.484 251.609 189.688 252.166 189.693C253.682 189.706 255.201 189.68 256.71 189.562C257.021 189.536 257.369 189.082 257.564 188.747C257.721 188.476 257.693 188.085 257.711 187.744C257.853 184.664 258.01 181.583 258.119 178.5C258.289 173.791 258.426 169.081 258.573 164.369C258.593 163.683 258.621 162.998 258.596 162.312C258.583 161.979 258.512 161.624 258.37 161.33C258.274 161.129 258.02 160.917 257.81 160.889C257.597 160.861 257.229 160.984 257.151 161.152C256.859 161.763 256.601 162.402 256.431 163.059C255.939 164.964 255.5 166.882 255.036 168.792C253.561 174.858 252.088 180.923 250.602 186.989C250.422 187.737 250.13 188.466 250.602 189.394Z" fill="#F9F8F4"/>
<path d="M243.623 210.924C244.582 210.813 245.238 210.679 245.895 210.674C248.595 210.648 251.298 210.661 253.998 210.666C254.419 210.666 254.842 210.687 255.261 210.748C255.943 210.849 256.363 211.285 256.285 211.968C256.181 212.888 255.948 213.795 255.765 214.731C253.359 215.497 250.953 214.726 248.532 215.311C248.339 215.832 248.032 216.36 247.956 216.922C247.315 221.586 246.709 226.254 246.108 230.922C246.065 231.252 246.133 231.598 246.159 232.105C246.712 232.229 247.252 232.435 247.802 232.459C249.234 232.518 250.672 232.466 252.104 232.518C252.953 232.549 253.331 233.036 253.187 233.879C253.045 234.717 252.819 235.539 252.634 236.341C251.455 237.05 250.246 236.684 249.095 236.764C247.928 236.843 246.737 236.629 245.487 237.091C245.274 237.717 244.952 238.333 244.861 238.986C244.257 243.309 243.705 247.637 243.137 251.965C243.104 252.22 243.083 252.478 243.068 252.733C242.98 254.249 243.187 254.488 244.754 254.555C245.596 254.591 246.443 254.563 247.287 254.573C247.961 254.584 248.636 254.602 249.31 254.64C249.467 254.648 249.62 254.754 249.929 254.875C250.598 256.174 250.002 257.378 249.536 258.476C249.313 258.628 249.244 258.716 249.173 258.719C245.464 258.76 241.755 258.814 238.046 258.816C237.26 258.816 236.902 258.267 237.011 257.394C237.158 256.205 237.326 255.019 237.498 253.834C238.284 248.413 239.1 242.997 239.853 237.573C240.781 230.878 241.646 224.174 242.566 217.477C242.86 215.368 243.243 213.27 243.623 210.924Z" fill="#F9F8F4"/>
<path d="M220.22 156.095C220.298 156.5 220.42 156.83 220.42 157.16C220.417 159.807 220.171 160.049 217.522 160.085C216.424 160.101 215.326 160.062 214.231 160.119C212.796 160.194 212.477 160.498 212.254 161.926C211.921 164.04 211.607 166.153 211.305 168.272C210.978 170.559 210.654 172.845 210.37 175.137C210.289 175.794 210.357 176.47 210.357 177.127C212.555 178.354 215.009 177.075 217.134 178.163C217.2 178.535 217.306 178.867 217.306 179.197C217.294 181.734 216.913 182.1 214.35 182.131C212.844 182.149 211.338 182.185 209.797 182.213C208.988 184.103 208.869 185.966 208.648 187.82C208.415 189.774 207.933 191.704 207.819 193.661C207.713 195.512 206.889 197.324 207.383 199.157C208.205 199.775 209.067 199.711 209.898 199.75C210.74 199.788 211.587 199.752 212.428 199.791C213.095 199.822 213.876 199.783 214.155 200.567C214.477 201.477 214.409 202.438 213.952 203.297C213.815 203.557 213.443 203.748 213.141 203.841C212.745 203.962 212.309 203.99 211.891 203.993C209.105 204.006 206.321 204.006 203.535 203.993C202.863 203.99 202.173 203.998 201.658 203.449C201.227 202.619 201.395 201.742 201.506 200.915C202.069 196.762 202.695 192.617 203.281 188.467C203.857 184.399 204.417 180.331 204.975 176.263C205.543 172.108 206.095 167.953 206.663 163.8C206.952 161.681 207.251 159.562 207.568 157.446C207.761 156.159 208.111 155.796 209.381 155.783C212.588 155.747 215.795 155.762 219.003 155.788C219.401 155.791 219.796 155.984 220.22 156.095Z" fill="#F9F8F4"/>
<path d="M274.256 155.946C275.754 155.665 277.23 155.668 278.834 155.959C278.839 159.756 277.95 163.334 277.572 166.964C277.199 170.537 276.596 174.084 276.096 177.644C275.587 181.289 275.085 184.934 274.575 188.579C274.083 192.108 273.47 195.624 273.219 199.055C274.38 199.849 275.412 199.72 276.411 199.756C277.592 199.797 278.776 199.766 279.952 199.851C280.787 199.911 281.159 200.362 281.162 201.197C281.164 201.705 281.119 202.228 281.002 202.72C280.855 203.344 280.442 203.777 279.793 203.886C279.38 203.955 278.954 203.991 278.533 203.991C275.579 204.002 272.623 203.999 269.669 203.996C269.332 203.996 268.992 203.986 268.658 203.945C267.694 203.821 267.289 203.404 267.385 202.403C267.547 200.702 267.796 199.006 268.029 197.312C268.64 192.904 269.269 188.499 269.885 184.091C270.453 180.023 271.008 175.95 271.576 171.882C272.189 167.474 272.828 163.069 273.414 158.656C273.541 157.715 273.675 156.81 274.256 155.946Z" fill="#F9F8F4"/>
</g>
<defs>
<clipPath id="clip0">
<rect width="162.319" height="120.29" fill="white" transform="translate(118.84 139.131)"/>
</clipPath>
</defs>
</svg>
