<svg width="400" height="400" viewBox="0 0 400 400" fill="none" xmlns="http://www.w3.org/2000/svg">
<g clip-path="url(#clip0)">
<path d="M245.027 152.061C244.038 151.329 243.257 150.665 242.681 150.068C242.109 149.472 241.518 148.573 240.911 147.377C239.493 144.586 239.386 141.448 240.602 137.961C241.815 134.479 243.958 131.953 247.028 130.382C249.182 129.28 251.062 128.839 252.687 129.057C254.306 129.274 255.476 130.088 256.19 131.503C257.174 133.439 257.172 135.234 256.192 136.901C255.208 138.561 254.069 140.189 252.782 141.78C253.842 142.202 255.033 142.695 256.343 143.263C257.652 143.831 258.981 144.483 260.328 145.229C260.163 143.38 260.516 141.527 261.386 139.67C262.256 137.812 263.675 136.382 265.637 135.379C267.293 134.532 268.918 134.292 270.513 134.656C272.108 135.019 273.286 135.955 274.049 137.457C274.783 138.902 274.921 140.356 274.473 141.827C274.025 143.298 273.075 144.399 271.639 145.133C270.231 145.853 268.851 146.107 267.5 145.888C266.153 145.67 265.135 144.882 264.453 143.531C263.954 142.549 263.803 141.483 263.994 140.344C264.125 139.852 264.243 139.432 264.343 139.09C264.44 138.753 264.429 138.458 264.303 138.209C264.194 137.996 264.028 137.942 263.815 138.051C263.111 138.411 262.445 139.419 261.818 141.076C261.191 142.733 261.063 144.297 261.425 145.776C264.239 147.587 266.172 148.934 267.243 149.817C268.457 150.824 269.625 152.522 270.747 154.926C271.965 157.527 272.401 160.474 271.864 163.296C270.867 168.519 268.163 172.266 263.748 174.524C263.073 174.869 262.305 175.155 261.434 175.389C260.565 175.618 259.68 175.717 258.768 175.677L258.719 175.007C259.429 175.029 260.215 174.91 261.085 174.64C261.948 174.373 262.704 174.072 263.351 173.741C264.978 172.908 266.073 171.747 266.646 170.257C267.22 168.761 267.065 167.141 266.175 165.39C265.506 164.073 264.639 162.947 263.57 162.023C262.5 161.1 261.128 160.196 259.446 159.317C259.462 161.474 258.886 163.707 257.714 166.001C256.545 168.303 254.765 170.061 252.377 171.283C250.287 172.352 248.098 172.574 245.794 171.951C243.489 171.327 241.785 169.93 240.678 167.751C239.417 165.267 239.08 162.964 239.661 160.846C240.228 158.735 242.023 155.799 245.027 152.061ZM258.803 158.995C255.253 157.331 252.41 155.992 250.274 154.977C248.138 153.963 246.598 153.136 245.656 152.497C245.14 153.227 244.812 153.982 244.669 154.768C244.527 155.554 244.653 156.332 245.044 157.101C246.042 159.066 247.834 160.557 250.414 161.574C253 162.592 255.053 162.712 256.589 161.926C257.356 161.534 257.892 161.125 258.196 160.701C258.495 160.274 258.703 159.706 258.803 158.995ZM252.173 141.499C253.023 140.289 253.569 139.063 253.807 137.821C254.044 136.578 253.805 135.252 253.085 133.835C252.416 132.518 251.595 131.58 250.642 131.027C249.684 130.472 248.487 130.564 247.045 131.297C246.121 131.77 245.37 132.531 244.786 133.583C244.201 134.636 244.214 135.764 244.821 136.96C245.353 138.006 246.324 138.868 247.735 139.559C249.147 140.249 250.632 140.898 252.173 141.499Z" fill="#12B829"/>
<path d="M289.136 213.217L251.355 232.544L250.107 233.173L236.715 240.024C236.442 236.701 236.117 232.63 235.698 227.822C235.299 222.99 234.81 217.196 234.243 210.419C233.67 203.64 233.362 200.062 233.3 199.668C233.255 199.279 233.134 198.901 232.946 198.53C232.798 198.239 232.622 198.051 232.426 197.999C232.222 197.933 232.026 197.952 231.834 198.05C230.933 198.507 230.314 199.518 229.959 201.068C229.611 202.631 229.352 204.051 229.198 205.345C229.034 206.635 228.909 207.842 228.818 208.978L227.948 208.975C228.234 205.121 228.686 202.176 229.303 200.147C229.921 198.119 231.251 196.577 233.302 195.537C235.086 194.624 236.863 194.464 238.624 195.066C240.385 195.667 241.66 196.723 242.437 198.254C242.821 199.008 243.088 199.755 243.248 200.467C243.399 201.188 243.51 202.014 243.577 202.993L245.799 228.516C245.91 229.706 246.004 230.568 246.095 231.109C246.175 231.646 246.305 232.105 246.496 232.464C246.768 232.998 247.204 233.205 247.824 233.067C248.312 232.97 249.034 232.682 250.017 232.21L248.096 211L249.028 210.524L250.55 213.758C252.296 217.197 254.361 220.073 256.738 222.373C259.121 224.692 261.161 225.527 262.866 224.898C264.577 224.282 265.84 223.771 266.688 223.386C267.525 222.998 268.364 222.587 269.187 222.171L270.34 221.594L268.488 202.071L265.879 203.589C263.849 205.094 262.25 207.006 261.078 209.337C259.907 211.667 259.328 214.142 259.334 216.772L258.339 217.281L256.367 194.823L257.362 194.314C257.505 194.949 257.754 195.755 258.076 196.734C258.418 197.707 258.744 198.508 259.059 199.145C259.916 200.833 260.88 201.954 261.957 202.506C263.02 203.065 264.296 202.969 265.743 202.22L268.395 200.935L266.907 186.808C266.797 185.941 266.664 185.035 266.501 184.097C266.337 183.158 266.194 182.576 266.079 182.348C265.76 181.722 265.211 181.478 264.44 181.626C263.656 181.776 262.147 182.427 259.895 183.574L259.487 182.77L283.492 170.49L283.9 171.295L281.268 172.883C280.111 173.637 279.416 174.499 279.173 175.466C278.928 176.421 278.92 178.434 279.157 181.501C279.389 184.584 279.631 187.415 279.887 190.025C280.142 192.616 280.46 195.597 280.829 198.951C281.198 202.304 281.52 205.072 281.783 207.22C282.049 209.376 282.252 210.85 282.4 211.636C282.552 212.41 282.702 212.97 282.881 213.296C283.199 213.922 283.75 214.196 284.534 214.1C285.324 214.024 286.723 213.456 288.749 212.419L289.136 213.217Z" fill="#F9F8F4"/>
<path d="M201.726 241.973L200.721 218.712C200.719 218.461 200.668 217.945 200.559 217.167C200.452 216.383 200.361 215.914 200.273 215.748C200.139 215.485 199.977 215.307 199.782 215.214C199.592 215.123 199.38 215.137 199.146 215.257C198.684 215.494 198.208 216.154 197.715 217.236C197.221 218.318 196.817 219.709 196.488 221.397C196.159 223.086 195.993 224.875 195.988 226.751L195.195 226.785C195.244 224.59 195.419 222.572 195.715 220.73C196.011 218.888 196.655 217.141 197.642 215.488C198.636 213.832 200.154 212.482 202.208 211.431C203.864 210.583 205.333 210.406 206.62 210.896C207.909 211.38 209.016 212.536 209.941 214.358C210.257 211.78 210.783 209.757 211.519 208.296C212.254 206.834 213.551 205.633 215.401 204.682C217.385 203.667 219.34 203.47 221.259 204.093C223.179 204.717 224.659 206.053 225.704 208.111C227.689 212.019 227.881 216.849 226.289 222.61C224.697 228.37 221.716 232.366 217.353 234.593C216.33 235.117 215.277 235.346 214.2 235.269C213.122 235.193 212.315 234.628 211.777 233.567L211.322 232.302L211.504 236.962L201.726 241.973ZM212.362 233.151C212.63 233.678 212.935 234.015 213.277 234.149C213.617 234.289 214.019 234.236 214.482 234C215.107 233.68 215.577 232.816 215.881 231.405C216.186 229.993 216.354 227.724 216.38 224.575C216.405 221.433 216.303 218.023 216.06 214.354C215.819 210.679 215.47 208.396 215.018 207.506C214.866 207.207 214.681 207.01 214.47 206.912C214.253 206.812 214.011 206.828 213.746 206.968C212.722 207.492 212.005 208.495 211.589 209.977C211.179 211.461 210.9 212.684 210.769 213.652C210.633 214.618 210.596 216.158 210.653 218.281C210.711 220.404 210.845 223.093 211.071 226.359C211.293 229.635 211.721 231.896 212.362 233.151Z" fill="#F9F8F4"/>
<path d="M146.665 250.308C147.004 246.709 147.514 243.843 148.204 241.718C148.895 239.589 150.492 237.884 153.008 236.597C154.729 235.717 156.303 235.598 157.734 236.247C159.167 236.891 160.26 237.959 161.016 239.447C161.573 240.543 161.915 241.552 162.059 242.478C162.2 243.41 162.286 244.461 162.316 245.629C162.35 246.8 162.365 249.147 162.362 252.677C162.362 256.202 162.573 258.381 162.992 259.207C163.177 259.57 163.387 259.799 163.619 259.886C163.852 259.973 164.137 259.935 164.464 259.768C164.862 259.564 165.224 259.088 165.551 258.338C165.877 257.588 166.171 256.446 166.437 254.916C166.703 253.385 166.814 251.638 166.775 249.675C166.737 247.713 166.658 245.054 166.538 241.698C166.419 238.342 166.327 235.869 166.264 234.273C166.202 232.678 166.156 231.432 166.115 230.533L175.79 225.584C175.811 226.031 175.911 228.096 176.091 231.775C176.272 235.454 176.446 239.078 176.612 242.639C176.777 246.2 176.866 248.208 176.887 248.655C176.908 249.102 176.958 249.641 177.046 250.264C177.134 250.887 177.277 251.397 177.479 251.796C177.664 252.159 177.878 252.395 178.115 252.502C178.353 252.609 178.628 252.585 178.921 252.431C179.355 252.209 179.731 251.725 180.058 250.975C180.384 250.225 180.644 249.316 180.838 248.262C181.032 247.207 181.171 246.069 181.262 244.857C181.354 243.644 181.378 242.546 181.341 241.565L181.043 222.897L190.718 217.948L191.72 241.202C191.739 241.399 191.776 241.868 191.843 242.61C191.906 243.349 192.054 243.95 192.289 244.413C192.456 244.74 192.648 244.951 192.853 245.03C193.064 245.111 193.298 245.085 193.561 244.951C193.888 244.783 194.256 244.326 194.645 243.585C195.041 242.839 195.367 241.964 195.622 240.959C195.879 239.949 196.082 238.85 196.221 237.653C196.361 236.456 196.462 235.05 196.517 233.439L197.266 233.432C197.298 237.842 196.839 241.099 195.885 243.197C194.931 245.295 193.595 246.781 191.875 247.661C190.318 248.457 188.739 248.574 187.121 248.025C185.505 247.471 184.301 246.414 183.509 244.855C183.14 244.129 182.86 243.497 182.67 242.966C182.483 242.429 182.34 241.901 182.235 241.368L182.06 241.394C182.062 245.99 181.656 249.229 180.84 251.104C180.027 252.986 178.776 254.357 177.091 255.219C175.371 256.099 173.719 256.347 172.129 255.968C170.54 255.588 169.354 254.621 168.562 253.062C168.19 252.328 167.937 251.628 167.797 250.946C167.706 250.114 167.637 249.521 167.585 249.172C167.484 253.151 167.167 256.116 166.631 258.058C166.101 260.002 164.61 261.599 162.165 262.85C160.544 263.679 158.96 263.884 157.418 263.466C155.871 263.047 154.589 261.828 153.562 259.807C152.991 258.682 152.661 257.6 152.572 256.56C152.482 255.52 152.413 254.036 152.366 252.1C152.319 250.165 152.32 247.787 152.365 244.966C152.41 242.145 152.308 240.489 152.06 239.992C151.908 239.693 151.723 239.497 151.506 239.397C151.29 239.297 151.067 239.307 150.833 239.427C149.873 239.918 149.165 241.02 148.703 242.737C148.24 244.453 147.942 245.866 147.798 246.984C147.655 248.097 147.54 249.219 147.445 250.353L146.665 250.308Z" fill="#F9F8F4"/>
<path d="M137.094 259.267C136.975 258.539 136.744 257.625 136.394 256.531C136.049 255.438 135.706 254.56 135.37 253.898C134.43 252.047 133.509 250.868 132.608 250.373C131.709 249.874 130.764 249.882 129.769 250.391C129.009 250.78 128.375 251.216 127.872 251.707C127.37 252.192 126.836 252.869 126.275 253.739C125.714 254.609 125.226 255.71 124.802 257.053C124.38 258.39 124.119 259.631 124.02 260.758L123.07 260.616C123.467 257.951 124.272 255.472 125.485 253.179C126.698 250.886 128.644 249.056 131.331 247.682C133.776 246.431 136.443 245.995 139.324 246.378C142.205 246.76 144.37 248.379 145.816 251.227C147.794 255.121 147.882 259.578 146.078 264.586C144.687 268.45 142.188 271.872 138.91 274.338C135.418 276.967 132.241 278.063 129.374 277.638C127.385 277.337 126.047 276.51 125.36 275.157C124.029 272.538 124.563 269.798 126.946 266.934C129.337 264.06 132.715 261.507 137.094 259.267ZM137.25 259.936C135.072 261.387 133.628 263.753 132.923 267.038C132.218 270.322 132.319 272.858 133.221 274.643C133.471 275.134 133.732 275.48 133.999 275.68C134.268 275.874 134.629 275.855 135.091 275.619C135.817 275.248 136.344 274.48 136.67 273.313C136.994 272.152 137.215 270.649 137.315 268.809C137.42 266.97 137.465 265.315 137.45 263.847C137.44 262.381 137.37 261.081 137.25 259.936Z" fill="#F9F8F4"/>
<path d="M166.147 212.888C165.577 214.771 164.338 216.194 162.44 217.165C160.784 218.012 159.146 218.164 157.503 217.601C155.876 217.043 154.696 216.059 153.977 214.642C153.619 213.938 153.373 213.252 153.224 212.597C153.089 211.935 152.982 211.151 152.909 210.265L150.861 186.6C150.753 185.489 150.665 184.682 150.589 184.187C150.51 183.68 150.381 183.258 150.211 182.923C149.965 182.439 149.547 182.25 148.973 182.373C148.526 182.471 147.857 182.724 146.949 183.166L148.732 202.828L147.865 203.271L146.455 200.275C144.839 197.093 142.92 194.424 140.72 192.289C138.51 190.151 136.621 189.359 135.047 189.936C133.453 190.518 132.281 190.988 131.495 191.345C130.708 191.707 129.947 192.078 129.174 192.469L128.115 193.011L129.832 211.106L132.244 209.701C134.13 208.311 135.613 206.539 136.693 204.381C137.784 202.227 138.331 199.92 138.327 197.487L139.244 197.018L141.067 217.834L140.15 218.303C140.007 217.721 139.792 216.98 139.482 216.071C139.173 215.162 138.868 214.421 138.575 213.826C137.783 212.267 136.879 211.218 135.893 210.714C134.896 210.188 133.718 210.275 132.367 210.966L129.913 212.172L131.296 225.272C131.383 226.079 131.516 226.913 131.661 227.78C131.822 228.653 131.951 229.188 132.056 229.412C132.348 229.989 132.869 230.211 133.585 230.069C134.308 229.942 135.713 229.34 137.797 228.269L138.173 229.009L115.917 240.394L115.541 239.654L117.977 238.174C119.046 237.475 119.697 236.676 119.917 235.796C120.154 234.904 120.155 233.038 119.945 230.182C119.732 227.331 119.5 224.705 119.264 222.292C119.018 219.876 118.731 217.125 118.392 214.007C118.039 210.896 117.742 208.345 117.507 206.348C117.265 204.338 117.059 202.981 116.933 202.256C116.796 201.528 116.655 201.013 116.499 200.707C116.19 200.125 115.684 199.877 114.946 199.958C114.225 200.045 112.919 200.56 111.051 201.511L110.677 200.766L145.715 182.842L146.868 182.266L159.279 175.917C159.536 178.996 159.854 182.762 160.222 187.233C160.601 191.707 161.057 197.075 161.589 203.358C162.117 209.653 162.404 212.968 162.446 213.333C162.487 213.697 162.606 214.044 162.776 214.379C162.913 214.649 163.086 214.83 163.268 214.89C163.45 214.949 163.646 214.929 163.817 214.842C164.649 214.416 165.223 213.486 165.558 212.037C165.878 210.595 166.122 209.277 166.269 208.076C166.416 206.876 166.524 205.758 166.609 204.709L167.417 204.704C167.144 208.283 166.733 211.009 166.147 212.888Z" fill="#F9F8F4"/>
<path d="M165.852 196.16C166.008 192.21 166.482 189.439 167.269 187.834C168.056 186.234 169.199 185.048 170.706 184.278C172.057 183.587 173.456 183.441 174.916 183.837C176.37 184.232 177.558 185.337 178.482 187.147C178.887 187.945 179.161 188.943 179.311 190.145C179.46 191.347 179.552 192.78 179.581 194.442C179.616 196.106 179.577 198.233 179.464 200.824C179.352 203.415 179.441 205.002 179.738 205.586C179.879 205.863 180.055 206.033 180.264 206.101C180.473 206.169 180.715 206.135 180.987 205.991C181.321 205.82 181.672 205.399 182.031 204.731C182.388 204.068 182.663 203.278 182.858 202.366C183.053 201.455 183.219 200.432 183.358 199.294C183.494 198.162 183.577 197.16 183.601 196.3L184.366 196.317C184.084 199.869 183.683 202.527 183.175 204.294C182.664 206.066 181.271 207.528 179.003 208.688C177.347 209.535 175.843 209.695 174.496 209.168C173.145 208.64 172.1 207.641 171.351 206.167C170.852 205.185 170.551 204.231 170.44 203.297C170.333 202.365 170.28 200.742 170.281 198.419C170.281 196.1 170.269 194.039 170.239 192.234C170.214 190.431 170.172 189.21 170.121 188.582C170.07 187.953 169.982 187.514 169.86 187.266C169.752 187.053 169.617 186.92 169.458 186.862C169.297 186.81 169.103 186.842 168.89 186.951C168.677 187.06 168.412 187.438 168.102 188.081C167.793 188.723 167.475 189.738 167.158 191.115C166.833 192.501 166.653 194.167 166.604 196.125L165.852 196.16ZM167.635 176.396C166.995 175.136 166.901 173.893 167.35 172.654C167.806 171.416 168.628 170.489 169.823 169.878C171.045 169.252 172.293 169.116 173.558 169.474C174.823 169.831 175.775 170.64 176.415 171.9C177.11 173.267 177.128 174.652 176.483 176.053C176.019 177.062 175.208 177.898 174.224 178.411C172.982 179.06 171.724 179.192 170.444 178.806C169.191 178.429 168.255 177.626 167.635 176.396Z" fill="#F9F8F4"/>
<path d="M201.325 168.606C202.761 167.872 204.229 167.694 205.714 168.07C207.202 168.452 208.406 169.544 209.323 171.358C209.742 172.184 210.02 173.154 210.163 174.264C210.301 175.373 210.399 176.588 210.454 177.914C210.51 179.24 210.525 181.438 210.501 184.504C210.476 187.575 210.574 189.319 210.794 189.753C210.921 190.002 211.073 190.153 211.256 190.212C211.443 190.273 211.655 190.241 211.904 190.114C212.21 189.957 212.528 189.561 212.864 188.927C213.201 188.293 213.561 187.239 213.952 185.761C214.341 184.288 214.531 182.281 214.515 179.738L215.273 179.758C215.146 182.998 214.807 185.7 214.261 187.859C213.714 190.017 212.261 191.698 209.901 192.905C208.273 193.738 206.801 193.872 205.478 193.311C204.147 192.754 203.12 191.755 202.386 190.31C201.887 189.328 201.589 188.476 201.493 187.749C201.395 187.028 201.328 185.282 201.296 182.513C201.257 179.748 201.236 177.477 201.224 175.707C201.214 173.932 201.002 172.65 200.597 171.853C200.441 171.547 200.267 171.354 200.077 171.28C199.888 171.207 199.653 171.237 199.375 171.379C199.006 171.568 198.658 172.038 198.326 172.786C197.994 173.534 197.696 174.615 197.447 176.02C197.193 177.424 197.099 179.212 197.158 181.383L197.527 198.648L188.563 203.233L187.497 181.747C187.446 181.19 187.399 180.568 187.357 179.877C187.315 179.186 187.23 178.718 187.103 178.469C186.995 178.255 186.871 178.126 186.731 178.081C186.592 178.035 186.43 178.06 186.245 178.155C185.818 178.373 185.425 178.816 185.066 179.484C184.709 180.147 184.42 180.927 184.198 181.812C183.968 182.7 183.781 183.769 183.628 185.027C183.474 186.285 183.346 187.575 183.246 188.904L182.508 188.932C182.664 185.695 183.043 182.958 183.661 180.728C184.184 178.823 185.317 177.104 186.967 176.023C188.751 174.855 190.42 174.552 191.973 175.116C193.277 175.593 194.345 176.648 195.173 178.278C195.549 179.018 195.818 179.724 195.987 180.391C196.154 181.063 196.286 181.605 196.381 182.023C196.354 178.548 196.6 175.745 197.113 173.599C197.614 171.437 199.024 169.779 201.325 168.606Z" fill="#F9F8F4"/>
<path d="M229.75 154.657L229.901 156.436L224.748 159.072L226.34 179.433C226.39 180.062 226.443 180.519 226.513 180.797C226.577 181.073 226.67 181.335 226.798 181.579C226.939 181.857 227.101 182.034 227.296 182.109C227.491 182.185 227.692 182.167 227.911 182.059C228.309 181.856 228.686 181.443 229.046 180.811C229.403 180.184 229.715 179.423 229.995 178.527C230.274 177.631 230.504 176.576 230.679 175.361C230.853 174.151 230.947 173.058 230.954 172.086L231.719 172.102C231.494 175.388 231.015 178.032 230.274 180.039C229.536 182.04 228.139 183.566 226.085 184.617C224.308 185.526 222.705 185.677 221.276 185.077C219.847 184.476 218.763 183.434 218.014 181.961C217.671 181.284 217.449 180.653 217.342 180.072C217.236 179.484 217.13 178.624 217.013 177.486L215.972 163.57L212.02 165.592L211.869 163.813L215.828 161.788L214.992 151.018L223.864 146.48L224.657 157.271L229.75 154.657Z" fill="#F9F8F4"/>
</g>
<defs>
<clipPath id="clip0">
<rect width="173.581" height="179.725" fill="white" transform="translate(145.352 93.9824) rotate(17.9908)"/>
</clipPath>
</defs>
</svg>
