<svg width="400" height="400" viewBox="0 0 400 400" fill="none" xmlns="http://www.w3.org/2000/svg">
<g clip-path="url(#clip0)">
<path d="M161.137 222.333L177.437 190.129H188.333L195.247 222.333H186.418L185.104 216.261H173.72L170.609 222.333H161.137ZM176.99 209.088H183.86L182.371 201.564C182.223 200.816 182.113 200.149 182.037 199.561C181.962 198.976 181.917 198.425 181.903 197.911C181.59 198.792 181.305 199.564 181.047 200.231C180.789 200.898 180.583 201.394 180.435 201.717L176.99 209.088Z" fill="#F9F8F4"/>
<path d="M196.711 222.333L200.245 200.115H208.229L204.67 222.333H196.711ZM200.847 193.493C200.847 192.35 201.26 191.367 202.081 190.544C202.903 189.724 203.9 189.312 205.073 189.312C206.303 189.312 207.325 189.707 208.139 190.5C208.954 191.292 209.363 192.289 209.363 193.493C209.363 194.68 208.947 195.687 208.119 196.506C207.287 197.329 206.272 197.738 205.073 197.738C203.9 197.738 202.903 197.323 202.081 196.496C201.26 195.666 200.847 194.666 200.847 193.493Z" fill="#F9F8F4"/>
<path d="M208.758 222.333L212.316 200.115H219.922L219.365 203.897C220.063 202.489 220.994 201.418 222.167 200.687C223.339 199.952 224.701 199.588 226.258 199.588C226.42 199.588 226.605 199.598 226.815 199.622C227.021 199.642 227.348 199.693 227.795 199.765L226.217 206.737C225.698 206.622 225.23 206.533 224.818 206.472C224.402 206.414 224.003 206.384 223.618 206.384C222.091 206.384 220.884 206.857 220.004 207.802C219.12 208.748 218.519 210.21 218.192 212.19L216.59 222.329H208.758V222.333Z" fill="#F9F8F4"/>
<path d="M230.204 222.333L232.851 205.792H229.117L230.028 200.115H233.762L234.763 193.67H242.677L241.632 200.115H245.658L244.747 205.792H240.721L238.098 222.333H230.204Z" fill="#F9F8F4"/>
<path d="M244.574 222.333L248.133 200.115H255.738L255.181 203.897C255.879 202.489 256.811 201.418 257.983 200.687C259.156 199.952 260.517 199.588 262.075 199.588C262.236 199.588 262.422 199.598 262.631 199.622C262.838 199.642 263.164 199.693 263.611 199.765L262.033 206.737C261.514 206.622 261.046 206.533 260.634 206.472C260.218 206.414 259.819 206.384 259.434 206.384C257.907 206.384 256.701 206.857 255.82 207.802C254.937 208.748 254.335 210.21 254.009 212.19L252.406 222.329H244.574V222.333Z" fill="#F9F8F4"/>
<path d="M280.263 219.36C279.18 220.609 277.976 221.551 276.649 222.187C275.322 222.826 273.895 223.143 272.369 223.143C269.79 223.143 267.672 222.183 266.022 220.262C264.368 218.34 263.543 215.847 263.543 212.782C263.543 208.939 264.66 205.752 266.902 203.214C269.14 200.677 271.936 199.408 275.284 199.408C276.842 199.408 278.234 199.728 279.465 200.364C280.696 201.003 281.807 201.99 282.8 203.323L283.312 200.112H290.828L287.27 222.33H279.888L280.263 219.36ZM271.523 212.014C271.523 213.435 271.96 214.582 272.836 215.445C273.71 216.309 274.868 216.745 276.305 216.745C277.877 216.745 279.187 216.139 280.228 214.928C281.274 213.718 281.796 212.204 281.796 210.384C281.796 209.007 281.36 207.888 280.483 207.031C279.61 206.173 278.468 205.745 277.058 205.745C275.456 205.745 274.136 206.34 273.091 207.527C272.046 208.714 271.523 210.211 271.523 212.014Z" fill="#F9F8F4"/>
<path d="M310.243 208.232C309.428 207.368 308.599 206.722 307.764 206.297C306.925 205.872 306.048 205.657 305.13 205.657C303.573 205.657 302.269 206.256 301.217 207.45C300.165 208.644 299.639 210.123 299.639 211.882C299.639 213.348 300.048 214.511 300.863 215.368C301.678 216.225 302.782 216.654 304.178 216.654C305.068 216.654 305.924 216.501 306.746 216.191C307.568 215.882 308.386 215.423 309.204 214.807L308.004 222.11C306.952 222.477 305.931 222.749 304.948 222.923C303.961 223.099 302.995 223.188 302.046 223.188C298.873 223.188 296.304 222.171 294.341 220.14C292.378 218.11 291.395 215.46 291.395 212.188C291.395 208.361 292.608 205.256 295.042 202.872C297.473 200.487 300.66 199.297 304.604 199.297C305.862 199.297 307.066 199.477 308.207 199.834C309.349 200.195 310.394 200.725 311.343 201.43L310.243 208.232Z" fill="#F9F8F4"/>
<path d="M329.598 210.938L336.939 222.333H327.463L322.289 212.785L321.78 211.802L321.141 210.571L322.083 209.53L323.699 207.741L330.602 200.115H340.583L329.598 210.938Z" fill="#F9F8F4"/>
<path d="M324.742 188.234L321.273 209.527L320.964 211.84L319.272 222.333H311.402L316.804 188.234H324.742Z" fill="#F9F8F4"/>
<path d="M113.752 187.436L96.083 222.337H59.4219L113.752 187.436Z" fill="#572DFF"/>
<path d="M124.777 196.006L134.755 175.363L140.51 195.972L124.777 196.006Z" fill="#572DFF"/>
<path d="M143.771 208.176L147.759 222.332L111.988 222.325L118.837 208.23L143.771 208.176Z" fill="#572DFF"/>
</g>
<defs>
<clipPath id="clip0">
<rect width="281.159" height="47.8261" fill="white" transform="translate(59.4219 175.363)"/>
</clipPath>
</defs>
</svg>
