<svg width="400" height="400" viewBox="0 0 400 400" fill="none" xmlns="http://www.w3.org/2000/svg">
<g clip-path="url(#clip0)">
<path d="M241.268 240.836C240.519 240.339 241.123 239.204 241.956 239.538C256.215 245.259 271.489 243.467 281.363 234.767C288.353 228.607 296.664 215.439 291.385 202.667C286.57 191.018 273.722 187.613 271.988 187.18C273.186 186.63 274.851 186.022 276.894 185.776C279.948 185.411 281.964 186.079 282.009 185.89C282.131 185.389 274.874 180.743 267.462 182.341C265.37 182.792 264.248 183.529 260.247 184.352C257.607 184.895 255.39 185.13 253.887 185.244C264.461 179.892 266.45 177.941 266.172 177.178C265.735 175.99 259.319 176.457 253.762 178.879C249.278 180.834 248.213 182.811 243.333 184.815C239.8 186.265 236.658 186.747 234.662 186.937C236.982 183.798 237.187 179.885 235.464 177.664C233.163 174.707 227.043 174.256 223.02 178.632C224.868 175.269 228.048 170.817 233.365 168.471C238.769 166.084 244.478 166.714 244.68 165.245C244.756 164.687 244.048 163.753 239.994 162.182C243.542 160.337 248.616 158.302 254.865 157.828C265.731 157 273.946 161.373 275.555 158.796C276.103 157.919 275.947 156.143 272.809 152.184C276.072 153.482 280.355 155.725 284.124 159.764C287.669 163.563 289.312 167.404 290.749 167.021C291.769 166.752 292.005 164.133 292.176 162.424C292.29 161.293 292.263 160.322 292.202 159.6C295.431 162.899 299.744 168.008 303.354 175.087C305.765 179.813 310.443 189.245 310.143 201.38C309.85 213.211 304.799 228.485 291.392 238.479C288.452 240.669 273.874 250.986 255.348 246.868C249.506 245.57 244.794 243.175 241.268 240.836Z" fill="url(#paint0_linear)"/>
<path d="M284.516 160.908C278.267 161.378 273.197 163.424 269.648 165.265C270.379 165.356 272.189 165.687 273.539 167.178C273.889 167.565 274.148 167.964 274.338 168.328C271.942 168.476 267.655 169.053 263.019 171.559C258.835 173.821 256.165 176.683 254.713 178.497C254.389 178.619 254.074 178.748 253.758 178.884C249.27 180.835 248.205 182.817 243.329 184.813C239.796 186.267 236.654 186.745 234.654 186.943C236.981 183.796 237.183 179.883 235.46 177.662C233.151 174.713 227.036 174.257 223.012 178.634C224.856 175.267 228.036 170.818 233.357 168.469C238.761 166.081 244.47 166.711 244.676 165.25C244.752 164.685 244.037 163.751 239.986 162.179C243.535 160.338 248.608 158.304 254.853 157.829C265.716 156.998 273.939 161.371 275.544 158.79C276.091 157.921 275.931 156.144 272.801 152.174C276.065 153.48 280.347 155.715 284.109 159.758C284.462 160.126 284.786 160.505 285.101 160.877C284.907 160.877 284.713 160.889 284.516 160.908Z" fill="#F9F8F4"/>
<path d="M91.3047 225.67C93.214 225.34 93.2976 224.136 93.2976 221.4V204.607C93.2976 201.871 93.214 200.667 91.3047 200.337V199.176H110.789C114.821 199.176 116.814 200.542 116.814 203.613C116.814 206.517 114.942 208.422 111.204 210.662C113.737 213.44 115.65 217.13 117.479 221.609C118.434 223.973 118.974 225.423 120.678 225.674V226.835H107.758V225.674C108.796 225.218 109.169 224.805 109.169 223.973C109.169 222.44 107.465 217.672 103.437 213.565L101.859 214.063V221.4C101.859 224.136 101.943 225.34 103.852 225.67V226.831H91.3047V225.67ZM108.34 204.938C108.34 202.823 107.176 201.912 104.727 201.912C101.943 201.912 101.859 202.619 101.859 204.194V210.912C106.054 209.997 108.34 207.8 108.34 204.938Z" fill="#F9F8F4"/>
<path d="M136.134 223.843C139.165 223.843 141.325 222.143 142.74 218.704L143.862 218.913L141.413 227.081C140.5 227.039 139.96 227.039 139.793 227.039C138.34 227.039 136.552 227.453 134.308 227.453C125.792 227.453 120.43 222.352 120.43 216.092C120.43 210.289 125.332 205.518 132.893 205.518C138.461 205.518 141.66 207.966 143.778 213.561L129.071 217.045C129.778 221.399 132.437 223.843 136.134 223.843ZM132.311 208.668C130.482 208.668 128.778 210.327 128.778 212.98C128.778 213.268 128.82 213.807 128.862 214.472L135.677 212.813C135.221 210.08 134.015 208.668 132.311 208.668Z" fill="#F9F8F4"/>
<path d="M147.398 228.737C147.273 229.276 147.231 229.69 147.231 230.024C147.231 231.516 148.06 232.389 149.349 232.389C151.179 232.389 152.799 230.483 152.799 227.621C152.799 226.046 152.217 224.262 151.346 222.106L146.9 211.117C146.071 209.045 145.364 207.716 143.785 207.052V206.1H155.336V207.052C154.507 207.261 154.13 207.675 154.13 208.544C154.13 209.083 154.461 210.119 155.043 211.569L157.66 218.121L160.193 210.575C160.482 209.747 160.607 209.33 160.607 209.288C160.607 209.037 160.649 208.832 160.649 208.624C160.649 208.043 160.44 207.587 159.196 207.048V206.096H167.05V207.048C165.099 207.629 164.392 208.958 163.517 211.152L156.081 229.477C154.336 233.831 152.385 236.029 148.688 236.029C146.984 236.029 145.531 235.448 143.911 234.287L146.238 228.358L147.398 228.737Z" fill="#F9F8F4"/>
<path d="M166.881 225.795C168.585 225.67 168.874 224.675 168.874 222.394V211.242C168.874 208.919 168.543 207.925 166.672 207.716V206.68L175.606 206.099C176.104 207.135 176.397 208.38 176.561 209.872C178.972 207.093 181.463 205.807 184.745 205.807C189.191 205.807 190.23 208.004 190.23 212.897V221.479C190.23 224.258 190.481 225.503 192.516 225.791V226.827H180.136V225.791C182.129 225.503 182.547 224.341 182.547 221.893V213.975C182.547 211.364 182.049 210.202 180.429 210.202C178.017 210.202 176.564 212.525 176.564 217.167V220.982C176.564 223.969 176.732 225.336 178.892 225.791V226.827H166.885V225.795H166.881Z" fill="#F9F8F4"/>
<path d="M196.422 206.345C197.213 206.595 197.791 206.8 198.209 206.8C199.499 206.8 202.074 205.514 206.185 205.514C209.053 205.514 211.297 206.053 212.461 206.675C214.788 207.92 214.952 209.662 214.952 212.274V221.274C214.952 223.722 215.161 224.963 217.694 225.794V226.83H208.676C208.053 226.124 207.763 225.255 207.554 224.177C205.976 226.375 203.565 227.411 200.202 227.411C196.049 227.411 193.68 225.213 193.68 221.896C193.68 217.212 198.084 214.392 207.098 212.817V211.572C207.098 209.499 206.018 208.505 203.648 208.505C200.324 208.505 197.666 210.452 196.627 213.769H195.631L196.422 206.345ZM201.45 220.735C201.45 222.101 202.321 223.016 203.485 223.016C205.687 223.016 207.098 221.027 207.098 217.003V215.428C203.276 216.464 201.45 218.123 201.45 220.735Z" fill="#F9F8F4"/>
<path d="M218.984 207.716V206.68L227.918 206.099C228.417 207.135 228.71 208.38 228.873 209.872C230.824 207.135 232.905 205.807 235.312 205.807C235.852 205.807 236.476 205.89 237.142 205.974L235.647 211.694C234.399 211.03 233.361 210.658 232.406 210.658C229.166 210.658 228.873 213.353 228.873 217.957V220.982C228.873 223.927 228.999 225.336 231.201 225.791V226.827H219.194V225.791C221.145 225.582 221.186 224.383 221.186 222.39V211.238C221.186 208.919 220.852 207.925 218.984 207.716Z" fill="#F9F8F4"/>
<path d="M249.85 226.831C247.149 226.831 244.78 226.789 242.536 225.753C239.337 224.22 237.219 220.861 237.219 216.962C237.219 214.059 238.383 211.322 240.417 209.291C243.369 206.387 246.567 206.099 250.846 206.099H253.006V204.607C253.006 204.235 253.006 203.859 253.006 203.529C253.006 201.165 252.923 200.087 251.344 199.923V198.845L260.693 197.559V222.394C260.693 222.808 260.693 223.263 260.693 223.802C260.693 224.671 261.484 225.791 262.77 225.791C262.811 225.791 262.853 225.791 262.895 225.791V226.827H249.85V226.831ZM253.01 209.333C252.387 209.291 251.972 209.249 251.679 209.249C247.857 209.249 245.738 211.861 245.738 216.879C245.738 221.316 247.648 223.969 250.31 223.969C252.763 223.969 253.01 222.682 253.01 219.824V209.333Z" fill="#F9F8F4"/>
</g>
<defs>
<linearGradient id="paint0_linear" x1="266.588" y1="152.184" x2="266.588" y2="247.829" gradientUnits="userSpaceOnUse">
<stop stop-color="#FFBD00"/>
<stop offset="1" stop-color="#F70000"/>
</linearGradient>
<clipPath id="clip0">
<rect width="218.841" height="95.6522" fill="white" transform="translate(91.3047 152.174)"/>
</clipPath>
</defs>
</svg>
