<svg width="400" height="400" viewBox="0 0 400 400" fill="none" xmlns="http://www.w3.org/2000/svg">
<g clip-path="url(#clip0)">
<path d="M127.771 195.058C127.771 193.921 127.771 193.061 127.771 192.201C127.771 187.85 127.774 183.498 127.768 179.148C127.768 178.452 127.81 177.744 127.702 177.064C127.342 174.795 125.421 173.15 123.226 173.161C121.035 173.171 119.13 174.834 118.776 177.101C118.683 177.697 118.714 178.316 118.714 178.923C118.711 192.76 118.711 206.595 118.714 220.432C118.714 221.041 118.681 221.658 118.763 222.257C119.076 224.547 120.927 226.262 123.108 226.327C125.385 226.398 127.396 224.649 127.72 222.267C127.812 221.582 127.768 220.876 127.771 220.181C127.774 215.308 127.761 210.435 127.781 205.562C127.789 204.001 127.794 202.441 128.283 200.914C129.38 197.497 131.784 195.609 135.329 195.536C136.265 195.518 137.237 195.526 138.131 195.759C141 196.501 142.589 198.553 143.232 201.387C143.558 202.825 143.666 204.304 143.659 205.795C143.633 210.32 143.651 214.845 143.651 219.37C143.651 219.893 143.646 220.414 143.653 220.936C143.7 224.217 144.615 225.498 147.733 226.293C148.587 226.51 149.06 226.999 149.517 227.624C149.733 227.919 149.535 228.329 149.163 228.392C145.615 228.967 142.229 226.526 141.643 222.921C141.504 222.068 141.494 221.19 141.491 220.322C141.479 215.449 141.502 210.576 141.473 205.703C141.466 204.49 141.414 203.259 141.209 202.067C140.746 199.4 139.065 197.873 136.535 197.656C133.473 197.395 131.386 198.642 130.411 201.269C129.948 202.522 129.889 203.813 129.889 205.123C129.889 210.171 129.889 215.216 129.887 220.264C129.887 220.874 129.912 221.485 129.871 222.092C129.625 225.686 126.766 228.447 123.287 228.471C119.917 228.492 117.058 225.901 116.655 222.421C116.575 221.734 116.609 221.03 116.609 220.335C116.606 206.587 116.606 192.838 116.609 179.087C116.609 178.478 116.583 177.867 116.634 177.26C116.95 173.634 119.799 170.986 123.321 171.02C126.825 171.054 129.704 173.783 129.856 177.406C129.974 180.274 129.879 183.15 129.892 186.02C129.897 187.03 129.822 188.046 130.015 189.351C130.925 188.679 131.573 188.159 132.262 187.704C137.232 184.41 142.376 184.392 147.636 186.901C148.43 187.28 148.417 188.496 147.656 188.959C147.414 189.105 147.181 189.074 146.941 188.946C145.648 188.245 144.283 187.767 142.833 187.516C138.579 186.784 134.854 187.832 131.758 190.933C130.969 191.725 130.285 192.627 129.545 193.466C129.1 193.968 128.84 194.647 127.771 195.058Z" fill="#F9F8F4"/>
<path d="M280.253 228.744C274.787 228.731 269.795 227.152 265.183 224.227C263.656 223.257 262.591 221.971 262.355 220.097C262.098 218.055 262.627 216.288 264.229 214.967C265.908 213.582 267.82 213.435 269.795 214.154C270.509 214.413 271.152 214.886 271.826 215.265C274.247 216.627 276.816 217.527 279.577 217.851C280.708 217.984 281.8 217.851 282.87 217.506C283.651 217.252 284.081 216.685 284.109 216.018C284.14 215.315 283.741 214.842 283.201 214.554C282.371 214.115 281.507 213.715 280.62 213.415C278.919 212.837 277.186 212.348 275.471 211.804C273.587 211.208 271.769 210.45 270.07 209.42C266.013 206.96 264.144 203.308 264.321 198.532C264.576 191.661 268.954 187.105 275.443 185.748C281.484 184.483 287.179 185.813 292.58 188.611C294.683 189.698 295.642 191.57 295.539 193.972C295.382 197.635 291.87 200.092 288.431 198.929C287.703 198.683 287.011 198.322 286.31 198.004C284.585 197.222 282.808 196.584 280.944 196.262C279.672 196.04 278.381 195.998 277.204 196.728C276.337 197.266 276.263 198.213 277.05 198.89C277.846 199.575 278.798 199.977 279.764 200.33C281.695 201.033 283.639 201.708 285.572 202.406C287.675 203.164 289.703 204.082 291.526 205.418C293.446 206.824 294.927 208.581 295.732 210.879C295.852 211.226 295.896 211.556 295.544 211.783C294.989 212.141 294.135 212.154 293.906 211.809C293.762 211.595 293.642 211.36 293.539 211.122C292.608 208.944 290.95 207.485 288.983 206.33C287.271 205.323 285.433 204.62 283.572 203.964C281.795 203.337 280.024 202.699 278.258 202.037C277.291 201.674 276.368 201.209 275.589 200.503C273.715 198.806 274.001 196.074 276.188 194.806C277.016 194.328 277.918 194.09 278.883 194.04C280.71 193.946 282.469 194.27 284.171 194.9C285.695 195.465 287.202 196.085 288.69 196.746C289.713 197.201 290.677 197.172 291.649 196.66C293.611 195.625 294.094 192.982 292.582 191.342C292.184 190.911 291.665 190.55 291.138 190.289C286.58 188.014 281.811 186.916 276.715 187.716C275.607 187.892 274.548 188.211 273.515 188.631C268.774 190.553 265.584 194.67 266.653 201.423C266.977 203.475 268.08 205.125 269.643 206.453C271.106 207.695 272.779 208.573 274.571 209.193C276.677 209.919 278.803 210.575 280.924 211.258C282.15 211.653 283.348 212.105 284.448 212.8C285.826 213.671 286.436 214.907 286.207 216.552C285.991 218.107 285.027 219.046 283.654 219.532C282.096 220.083 280.479 220.17 278.836 219.934C276.006 219.527 273.355 218.593 270.864 217.182C270.265 216.842 269.697 216.437 269.072 216.167C267.55 215.509 265.859 216.016 264.964 217.336C264.028 218.716 264.265 220.672 265.54 221.832C265.918 222.177 266.363 222.455 266.802 222.724C271.89 225.845 277.397 227.045 283.297 226.402C284.839 226.235 286.304 225.756 287.752 225.213C288.592 224.896 288.873 225.045 289.307 225.955C289.518 226.394 289.515 226.75 288.999 227.006C287.364 227.811 285.628 228.269 283.839 228.494C282.651 228.632 281.448 228.661 280.253 228.744Z" fill="#F9F8F4"/>
<path d="M221.04 224.981C219.033 226.401 217.071 227.616 214.768 228.142C211.454 228.897 208.153 228.934 204.862 228.05C198.991 226.474 194.739 221.499 195.41 213.844C195.901 208.239 198.883 204.548 204.109 202.729C207.567 201.526 211.133 201.231 214.747 201.576C216.274 201.722 217.783 202.065 219.303 202.318C219.719 202.389 220.141 202.519 220.58 202.159C220.393 199.795 218.958 198.457 216.855 197.764C215.634 197.362 214.354 197.181 213.056 197.231C210.999 197.312 208.963 197.542 206.97 198.099C206.31 198.284 205.657 198.509 204.986 198.624C202.364 199.079 199.721 197.531 198.806 195.043C197.859 192.473 198.762 189.65 201.032 188.183C201.533 187.859 202.086 187.592 202.646 187.401C208.865 185.289 215.205 184.85 221.624 186.209C224.526 186.823 227.095 188.18 229.187 190.374C230.185 191.419 230.182 191.419 229.023 192.889C228.719 193.058 228.532 192.834 228.383 192.653C226 189.741 222.791 188.329 219.233 187.893C214.184 187.273 209.148 187.49 204.258 189.14C203.61 189.359 202.945 189.568 202.356 189.906C200.826 190.789 200.194 192.546 200.759 194.151C201.361 195.869 203.055 196.894 204.855 196.423C206.598 195.968 208.338 195.534 210.125 195.315C212.343 195.043 214.557 194.972 216.76 195.505C220.668 196.454 222.789 199.032 222.894 203.082C222.915 203.837 223.069 204.632 222.676 205.343C222.017 205.539 221.48 205.168 220.927 204.99C216.781 203.651 212.565 203.257 208.253 203.915C206.117 204.242 204.076 204.828 202.225 205.994C198.438 208.373 197.176 212.027 197.494 216.283C197.895 221.632 201.315 225.261 206.747 226.28C209.114 226.725 211.521 226.693 213.888 226.147C216.639 225.512 218.961 224.111 220.873 222.006C221.28 221.559 221.683 221.107 222.115 220.689C222.21 220.597 222.449 220.576 222.58 220.628C222.696 220.675 222.809 220.864 222.825 221C222.866 221.342 222.868 221.695 222.853 222.043C222.773 223.797 223.501 225.075 225.059 225.823C226.761 226.641 228.39 226.45 229.887 225.295C230.221 225.036 230.48 224.675 230.771 224.359C231.115 223.988 231.439 223.928 231.843 224.314C232.568 225.012 232.689 225.321 232.331 225.828C230.146 228.926 225.393 229.378 222.547 226.733C222.046 226.267 221.645 225.692 221.04 224.981Z" fill="#F9F8F4"/>
<path d="M268.327 186.877C268.034 185.944 268.196 184.987 268.183 184.046C268.152 181.871 268.239 179.691 268.142 177.521C268.034 175.077 266.167 173.241 263.866 173.137C261.65 173.035 259.756 174.535 259.28 176.867C259.108 177.709 259.095 178.593 259.09 179.458C259.072 183.722 259.085 187.986 259.077 192.252C259.074 192.916 259.18 193.606 258.9 194.223C258.169 194.223 257.984 193.677 257.655 193.329C257.36 193.016 257.097 192.668 256.812 192.346C254.815 190.103 252.457 188.49 249.529 187.711C243.847 186.198 235.68 188.354 231.598 195.792C230.5 197.789 229.783 199.92 229.415 202.165C228.713 206.434 228.785 210.677 230.222 214.787C232.284 220.685 236.184 224.75 242.279 226.141C247.984 227.44 252.979 226.041 256.74 221.2C257.36 220.402 257.971 219.6 258.568 218.826C259.216 219.166 259.038 219.642 259.074 220.034C259.141 220.813 259.095 221.608 259.236 222.371C259.702 224.92 261.619 226.413 264.193 226.277C264.694 226.251 265.165 226.034 265.697 226.266C266.409 226.58 267.106 227.105 266.949 227.362C266.653 227.843 266.134 227.955 265.643 228.112C262.887 228.982 260.586 228.182 258.671 226.099C258.154 225.537 257.771 224.849 257.344 224.245C256.773 224.143 256.555 224.583 256.262 224.847C251.971 228.69 246.932 229.505 241.588 228.19C234.258 226.386 229.785 221.398 227.811 214.147C226.415 209.017 226.451 203.784 228.122 198.707C230.479 191.552 235.228 186.916 242.639 185.471C247.192 184.582 251.498 185.33 255.36 188.095C255.64 188.297 255.899 188.524 256.185 188.715C256.617 189.005 256.971 188.788 256.997 188.211C257.023 187.601 257.02 186.992 257.02 186.383C257.023 183.86 257.01 181.335 257.028 178.812C257.033 178.033 257.046 177.239 257.193 176.478C257.874 172.969 260.743 170.784 264.262 171.038C267.525 171.273 270.113 173.965 270.245 177.411C270.337 179.845 270.286 182.284 270.265 184.721C270.255 186.232 270.227 186.229 268.327 186.877Z" fill="#F9F8F4"/>
<path d="M161.514 189.684C162.418 188.808 163.241 187.924 164.151 187.151C166.424 185.213 168.943 185.064 171.594 186.251C172.195 186.52 172.208 187.02 171.689 187.441C171.2 187.835 170.714 188.097 170.049 187.893C167.424 187.085 165.596 188.353 164.056 190.322C162.871 191.835 162.097 193.576 161.341 195.333C160.981 196.172 160.789 197.113 160.138 197.817C159.542 197.466 159.75 196.991 159.74 196.614C159.704 195.048 159.796 193.477 159.681 191.919C159.506 189.566 157.745 187.83 155.549 187.676C153.148 187.509 151.233 188.999 150.77 191.454C150.642 192.128 150.644 192.837 150.644 193.529C150.636 202.488 150.634 211.45 150.647 220.409C150.647 221.185 150.678 221.983 150.845 222.736C151.333 224.906 153.212 226.385 155.295 226.33C157.477 226.273 159.359 224.558 159.663 222.291C159.755 221.606 159.722 220.903 159.724 220.208C159.729 216.903 159.711 213.596 159.735 210.292C159.753 207.657 160.215 205.105 161.3 202.692C161.406 202.457 161.532 202.224 161.678 202.013C161.765 201.884 161.912 201.801 162.035 201.694C162.483 201.623 162.385 202.015 162.364 202.193C161.637 208.344 161.807 214.524 161.783 220.699C161.781 221.565 161.809 222.456 161.629 223.293C160.989 226.257 158.313 228.414 155.323 228.477C152.415 228.534 149.801 226.628 148.909 223.792C148.621 222.874 148.508 221.933 148.508 220.966C148.518 211.659 148.516 202.35 148.513 193.043C148.513 191.169 148.883 189.428 150.081 187.927C152.665 184.69 157.765 184.764 160.226 187.859C160.696 188.445 161.1 189.09 161.514 189.684Z" fill="#F9F8F4"/>
<path d="M185.153 185.166C188.511 185.226 192.66 186.337 196.254 189.187C197.447 190.13 197.521 190.405 197.058 191.853C196.909 192.319 196.575 192.264 196.259 192.06C196.046 191.921 195.873 191.717 195.683 191.542C188.038 184.499 172.304 185.527 166.993 199.178C165.101 204.041 164.975 209.063 166.623 214.009C168.944 220.979 173.89 225.007 180.924 226.382C185.873 227.35 190.634 226.683 195.112 224.236C196.097 223.697 196.21 223.745 196.819 224.524C197.269 225.101 197.251 225.425 196.655 225.778C195.917 226.215 195.169 226.652 194.382 226.984C187.958 229.708 181.508 229.679 175.204 226.73C169.132 223.888 165.456 218.929 163.98 212.341C162.949 207.737 163.283 203.17 164.885 198.726C167.89 190.381 175.284 185.156 185.153 185.166Z" fill="#F9F8F4"/>
<path d="M100.718 197.917C100.065 197.638 99.5889 197.447 99.1236 197.232C96.8665 196.192 95.6865 194.328 95.653 191.889C95.6196 189.437 96.8048 187.573 99.0156 186.47C99.319 186.318 99.6506 186.216 99.9771 186.122C100.458 185.983 100.674 185.633 100.689 185.17C100.72 184.127 100.671 183.082 100.736 182.041C100.921 179.108 102.203 176.886 104.959 175.749C108.975 174.094 113.42 176.75 113.957 181.116C114.063 181.973 114.016 182.852 114.037 183.722C114.057 184.653 113.975 185.502 114.857 186.276C115.6 186.927 115.009 188.015 114.019 188.054C113.592 188.07 113.163 188.062 112.739 188.017C112.255 187.968 111.962 187.667 111.955 187.168C111.937 185.602 111.937 184.036 111.931 182.472C111.929 181.686 111.867 180.922 111.53 180.185C110.736 178.454 109.026 177.315 107.253 177.39C105.348 177.469 103.648 178.807 103.121 180.734C102.941 181.393 102.882 182.101 102.856 182.789C102.815 183.918 102.856 185.05 102.841 186.179C102.818 187.811 102.81 187.813 101.219 188.111C100.63 188.221 100.044 188.302 99.5247 188.658C98.2804 189.51 97.6608 190.699 97.7868 192.2C97.9231 193.818 99.0876 195.063 100.653 195.518C101.299 195.703 102.111 195.311 102.584 195.91C103.098 196.561 102.831 197.421 102.833 198.187C102.851 203.752 102.823 209.318 102.856 214.884C102.864 216.269 102.97 217.668 103.173 219.038C103.813 223.365 106.348 225.835 110.631 226.376C112.248 226.58 113.877 226.564 115.5 226.431C116.132 226.379 116.705 226.457 117.086 227.032C117.266 227.304 117.515 227.621 117.507 227.911C117.497 228.298 117.078 228.392 116.736 228.434C114.433 228.711 112.114 228.784 109.826 228.41C104.923 227.613 101.949 224.515 101.101 219.48C100.841 217.935 100.707 216.379 100.712 214.808C100.73 210.113 100.718 205.415 100.718 200.72C100.718 199.847 100.718 198.981 100.718 197.917Z" fill="#F9F8F4"/>
<path d="M259.358 206.983C259.209 209.467 258.759 211.83 257.484 213.974C253.455 220.745 244.074 220.92 240.031 214.162C237.231 209.485 237.205 204.523 239.974 199.815C243.979 193.002 253.309 193.065 257.422 199.81C258.769 202.016 259.235 204.463 259.358 206.983Z" fill="#F9F8F4"/>
<path d="M183.807 204.925C181.079 204.925 178.352 204.941 175.624 204.92C174.308 204.91 174.226 204.755 174.475 203.357C174.83 201.37 175.496 199.517 176.701 197.89C180.488 192.78 188.095 193.051 191.489 198.429C192.52 200.06 193.095 201.861 193.242 203.799C193.304 204.627 193.088 204.897 192.247 204.91C190.288 204.938 188.327 204.925 186.365 204.928C185.511 204.931 184.661 204.928 183.807 204.928C183.807 204.928 183.807 204.928 183.807 204.925Z" fill="#F9F8F4"/>
<path d="M212.849 220.85C212.214 220.826 211.034 220.771 209.89 220.329C207.682 219.477 206.371 217.883 206.145 215.517C205.926 213.206 206.715 211.253 208.636 209.875C209.479 209.269 210.425 208.879 211.435 208.646C215.05 207.81 218.541 208.293 221.966 209.627C222.706 209.914 223.071 210.369 223.045 211.169C223.022 211.862 223.04 212.557 223.012 213.247C222.904 215.883 221.654 217.841 219.505 219.242C217.647 220.455 215.582 220.878 212.849 220.85Z" fill="#F9F8F4"/>
<path d="M184.634 209.812C187.627 209.812 190.616 209.807 193.609 209.817C194.028 209.82 194.514 209.843 194.532 210.431C194.552 211.075 194.09 211.801 193.64 211.843C193.046 211.901 192.447 211.901 191.848 211.901C187.575 211.906 183.3 211.903 179.027 211.903C178.685 211.903 178.343 211.901 178.002 211.919C177.351 211.953 177.109 212.342 177.369 212.941C178.495 215.545 180.498 217.045 183.207 217.479C186.074 217.94 188.83 217.519 191.347 215.94C191.709 215.712 192.056 215.456 192.421 215.231C192.768 215.017 193.064 214.646 193.545 214.774C193.876 214.863 194.031 215.835 193.843 216.449C193.707 216.896 193.398 217.181 193.038 217.417C189.293 219.879 185.243 220.502 181.032 219.079C177.174 217.775 175.204 214.745 174.531 210.771C174.423 210.131 174.69 209.828 175.4 209.825C178.477 209.807 181.554 209.817 184.629 209.817C184.634 209.817 184.634 209.814 184.634 209.812Z" fill="#F9F8F4"/>
<path d="M296.784 214.05L296.775 214.05C293.062 214.059 290.016 217.131 290.039 220.926L296.784 214.05ZM296.784 214.05L296.794 214.049M296.784 214.05L296.794 214.049M296.794 214.049C300.498 213.947 303.55 217.19 303.596 220.83L303.596 220.83M296.794 214.049L303.596 220.83M303.596 220.83C303.65 224.982 300.114 227.903 296.764 227.861M303.596 220.83L296.764 227.861M296.764 227.861C293.777 227.824 290.07 225.37 290.039 220.926L296.764 227.861Z" stroke="#F9F8F4" stroke-width="1.5"/>
<path d="M111.936 205.559C111.936 202.605 111.923 199.648 111.944 196.694C111.949 195.842 112.183 195.651 113.026 195.617C113.368 195.604 113.71 195.625 114.052 195.609C115.126 195.559 115.569 196.673 114.849 197.379C114.016 198.197 114.052 199.008 114.049 199.925C114.036 204.27 114.049 208.615 114.039 212.96C114.036 214.1 114.024 215.219 114.839 216.157C115.206 216.578 115.119 217.135 115.093 217.655C115.067 218.207 114.728 218.405 114.245 218.201C113.319 217.809 112.748 217.103 112.35 216.191C111.954 215.286 111.926 214.34 111.926 213.381C111.926 210.774 111.926 208.165 111.926 205.559C111.928 205.559 111.931 205.559 111.936 205.559Z" fill="#F9F8F4"/>
<path d="M240.172 206.955C240.203 204.863 240.542 202.905 241.596 201.148C243.234 198.422 245.589 196.921 248.792 196.958C252 196.997 254.383 198.521 255.844 201.357C257.707 204.976 257.759 208.74 255.926 212.377C252.969 218.243 245.427 218.578 241.851 213.082C240.622 211.198 240.205 209.101 240.172 206.955Z" fill="black"/>
<path d="M176.984 202.819C178.026 198.129 181.111 195.902 185.242 196.555C187.985 196.989 190.206 199.214 190.72 202.05C190.795 202.458 190.617 202.701 190.234 202.801C190.152 202.822 190.065 202.819 189.98 202.819C185.71 202.819 181.44 202.819 176.984 202.819Z" fill="black"/>
<path d="M213.208 218.739C212.341 218.663 211.336 218.6 210.359 218.174C207.753 217.04 207.642 213.539 209.562 211.89C210.226 211.32 211.005 210.969 211.848 210.76C214.588 210.073 217.275 210.384 219.946 211.179C220.63 211.383 220.907 211.772 220.931 212.48C221.003 214.684 220.095 216.339 218.277 217.497C216.776 218.451 215.095 218.71 213.208 218.739Z" fill="black"/>
</g>
<defs>
<clipPath id="clip0">
<rect width="208.696" height="57.971" fill="white" transform="translate(95.6523 171.014)"/>
</clipPath>
</defs>
</svg>
