<svg width="400" height="400" viewBox="0 0 400 400" fill="none" xmlns="http://www.w3.org/2000/svg">
<path d="M188.684 193.002C188.684 187.834 190.373 183.644 193.753 180.432C197.131 177.222 201.242 175.615 206.084 175.615C210.923 175.615 215.027 177.23 218.39 180.456C221.754 183.683 223.436 187.865 223.436 193.002C223.436 198.14 221.753 202.314 218.39 205.526C215.027 208.737 210.925 210.342 206.084 210.342C201.242 210.342 197.132 208.737 193.753 205.526C190.373 202.314 188.684 198.14 188.684 193.002ZM199.316 185.46C197.383 187.199 196.416 189.698 196.416 192.954C196.416 196.212 197.383 198.703 199.316 200.426C201.249 202.15 203.504 203.011 206.082 203.011C208.659 203.011 210.907 202.15 212.825 200.426C214.742 198.704 215.701 196.214 215.701 192.954C215.701 189.696 214.742 187.198 212.825 185.46C210.906 183.721 208.659 182.852 206.082 182.852C203.504 182.851 201.249 183.721 199.316 185.46Z" fill="#F9F8F4"/>
<path d="M234.515 196.245V209.637H227.348V186.282H234.279V188.96C234.876 187.926 235.795 187.12 237.038 186.54C238.28 185.961 239.544 185.67 240.834 185.67C243.631 185.67 245.753 186.54 247.199 188.277C248.644 190.017 249.368 192.248 249.368 194.974V209.635H242.2V196.197C242.2 194.975 241.878 193.997 241.233 193.26C240.588 192.525 239.637 192.155 238.381 192.155C237.218 192.155 236.283 192.539 235.575 193.307C234.869 194.075 234.515 195.054 234.515 196.245Z" fill="#F9F8F4"/>
<path d="M261.628 209.636H254.461V175.615H261.628V209.636Z" fill="#F9F8F4"/>
<path d="M276.195 218.611H268.65L273.979 206.487L264.125 186.281H272.141L277.847 198.781L283.033 186.281H290.624L276.195 218.611Z" fill="#F9F8F4"/>
<path d="M132.687 241.278H126.753V255.112H118.152V216.648H132.687C136.606 216.648 139.79 217.806 142.24 220.12C144.69 222.436 145.914 225.383 145.914 228.962C145.914 232.616 144.69 235.581 142.24 237.859C139.79 240.137 136.606 241.278 132.687 241.278ZM126.808 233.9H131.815C133.449 233.9 134.773 233.458 135.789 232.571C136.805 231.685 137.313 230.501 137.313 229.018C137.313 227.499 136.814 226.298 135.816 225.411C134.817 224.525 133.483 224.082 131.815 224.082H126.808V233.9Z" fill="#F9F8F4"/>
<path d="M147.602 247.68C147.602 245.402 148.345 243.567 149.833 242.174C151.321 240.783 153.243 239.905 155.603 239.543L161.972 238.566C163.279 238.385 163.932 237.771 163.932 236.722C163.932 235.891 163.577 235.195 162.87 234.633C162.163 234.073 161.191 233.793 159.958 233.793C158.578 233.793 157.481 234.182 156.665 234.96C155.848 235.738 155.403 236.669 155.331 237.753L148.145 236.289C148.326 234.047 149.443 231.995 151.493 230.131C153.543 228.269 156.383 227.338 160.012 227.338C164.113 227.338 167.134 228.315 169.075 230.268C171.016 232.221 171.988 234.717 171.988 237.755V250.937C171.988 252.638 172.097 254.029 172.314 255.114H164.858C164.675 254.39 164.586 253.377 164.586 252.076C163.025 254.608 160.484 255.873 156.964 255.873C154.097 255.873 151.821 255.069 150.133 253.459C148.445 251.849 147.602 249.923 147.602 247.68ZM158.979 249.904C160.393 249.904 161.572 249.488 162.517 248.656C163.46 247.825 163.932 246.451 163.932 244.534V243.34L158.815 244.154C156.782 244.479 155.767 245.475 155.767 247.137C155.767 247.897 156.029 248.547 156.555 249.09C157.082 249.633 157.89 249.904 158.979 249.904Z" fill="#F9F8F4"/>
<path d="M186.142 239.652V255.114H177.867V228.152H185.87V231.244C186.558 230.051 187.62 229.12 189.054 228.451C190.487 227.782 191.947 227.447 193.435 227.447C196.665 227.447 199.115 228.451 200.784 230.458C202.453 232.466 203.288 235.043 203.288 238.189V255.115H195.014V239.598C195.014 238.188 194.641 237.058 193.898 236.207C193.153 235.357 192.055 234.933 190.604 234.933C189.262 234.933 188.182 235.376 187.366 236.262C186.551 237.148 186.142 238.278 186.142 239.652Z" fill="#F9F8F4"/>
<path d="M235.789 215.836V250.284C235.789 251.912 235.861 253.521 236.007 255.113H228.059C227.913 254.245 227.841 253.376 227.841 252.51C227.189 253.451 226.218 254.218 224.929 254.816C223.641 255.412 222.198 255.71 220.602 255.71C216.755 255.71 213.562 254.382 211.021 251.724C208.481 249.066 207.211 245.675 207.211 241.551C207.211 237.5 208.445 234.146 210.913 231.488C213.38 228.83 216.52 227.501 220.33 227.501C224.033 227.501 226.463 228.423 227.624 230.267V215.836H235.789ZM217.308 236.668C216.127 237.826 215.539 239.471 215.539 241.604C215.539 243.739 216.127 245.393 217.308 246.568C218.487 247.745 219.929 248.331 221.635 248.331C223.34 248.331 224.783 247.745 225.962 246.568C227.141 245.393 227.731 243.739 227.731 241.604C227.731 239.471 227.141 237.826 225.962 236.668C224.781 235.51 223.34 234.931 221.635 234.931C219.929 234.931 218.487 235.51 217.308 236.668Z" fill="#F9F8F4"/>
<path d="M240.25 247.68C240.25 245.402 240.993 243.567 242.481 242.174C243.97 240.783 245.892 239.905 248.251 239.543L254.621 238.566C255.927 238.385 256.58 237.771 256.58 236.722C256.58 235.891 256.226 235.195 255.518 234.633C254.811 234.073 253.84 233.793 252.606 233.793C251.226 233.793 250.13 234.182 249.313 234.96C248.496 235.738 248.051 236.669 247.979 237.753L240.794 236.289C240.975 234.047 242.091 231.995 244.141 230.131C246.192 228.269 249.032 227.338 252.661 227.338C256.761 227.338 259.783 228.315 261.724 230.268C263.665 232.221 264.636 234.717 264.636 237.755V250.937C264.636 252.638 264.745 254.029 264.962 255.114H257.505C257.322 254.39 257.233 253.377 257.233 252.076C255.672 254.608 253.131 255.873 249.611 255.873C246.745 255.873 244.468 255.069 242.78 253.459C241.095 251.849 240.25 249.923 240.25 247.68ZM251.627 249.904C253.042 249.904 254.221 249.488 255.165 248.656C256.109 247.825 256.58 246.451 256.58 244.534V243.34L251.463 244.154C249.43 244.479 248.415 245.475 248.415 247.137C248.415 247.897 248.678 248.547 249.204 249.09C249.731 249.633 250.539 249.904 251.627 249.904Z" fill="#F9F8F4"/>
<path d="M268.285 247.462L275.307 246.214C275.379 247.227 275.769 248.086 276.478 248.791C277.186 249.496 278.211 249.849 279.554 249.849C280.569 249.849 281.35 249.623 281.895 249.17C282.44 248.719 282.712 248.167 282.712 247.516C282.712 246.431 281.822 245.691 280.045 245.292L276.942 244.587C274.183 244.01 272.151 242.988 270.846 241.522C269.539 240.057 268.886 238.313 268.886 236.287C268.886 233.791 269.874 231.676 271.853 229.939C273.83 228.203 276.308 227.336 279.284 227.336C282.804 227.336 285.444 228.176 287.204 229.858C288.964 231.541 289.933 233.377 290.116 235.364L283.256 236.612C283.147 235.636 282.776 234.841 282.14 234.225C281.505 233.61 280.588 233.302 279.39 233.302C278.591 233.302 277.902 233.519 277.321 233.953C276.741 234.387 276.45 234.949 276.45 235.635C276.45 236.72 277.158 237.39 278.574 237.642L282.167 238.347C284.888 238.89 286.957 239.921 288.372 241.44C289.787 242.958 290.496 244.748 290.496 246.81C290.496 249.306 289.551 251.449 287.665 253.238C285.777 255.028 283.127 255.924 279.717 255.924C277.721 255.924 275.952 255.635 274.409 255.056C272.867 254.478 271.688 253.727 270.871 252.804C270.054 251.881 269.438 250.969 269.021 250.065C268.602 249.162 268.357 248.294 268.285 247.462Z" fill="#F9F8F4"/>
<path d="M181.354 180.367C181.318 193.865 169.151 205.383 155.83 208.356C143.144 211.189 127.639 206.657 121.604 195.072C118.03 188.208 118.929 181.083 120.571 175.851C120.746 175.292 120.367 174.727 119.763 174.658C117.825 174.437 116.073 173.653 115.026 172.312C112.849 169.517 114.351 165.108 116.477 162.583C118.398 160.307 122.192 157.952 125.381 159.041C126.298 159.353 127.108 159.934 127.78 160.691C128.172 161.133 128.882 161.141 129.295 160.7C132.461 157.307 137.027 153.86 143.334 152.39C148.404 151.209 153.022 151.676 156.811 152.697C157.347 152.842 157.906 152.531 158.055 152.013C158.217 151.452 158.463 150.922 158.8 150.441C160.861 147.485 165.698 147.232 168.878 148.231C171.742 149.124 175.287 151.668 175.23 154.919C175.198 156.766 174.013 158.62 172.258 160.012C171.801 160.375 171.771 161.027 172.19 161.412C176.495 165.393 181.378 171.794 181.354 180.367Z" fill="white"/>
<path d="M174.056 177.272C175.914 174.881 173.179 168.77 168.894 165.651C164.853 162.699 158.095 161.459 153.813 165.01C150.044 168.146 149.016 174.312 150.864 175.856C152.388 177.126 154.882 174.407 159.56 175.406C162.199 175.963 162.245 176.997 165.287 177.85C165.82 177.997 172.172 179.701 174.056 177.272ZM158.865 173.239C157.744 173.569 156.569 172.928 156.238 171.812C155.906 170.696 156.543 169.531 157.67 169.194C158.789 168.863 159.965 169.504 160.297 170.621C160.629 171.737 159.985 172.91 158.865 173.239Z" fill="black"/>
<path d="M135.383 186.436C137.505 184.102 136.991 183.201 138.928 181.329C142.357 178.004 145.918 178.984 146.531 177.1C147.272 174.813 143.11 170.137 138.244 169.48C132.724 168.742 127.663 173.377 125.818 178.018C123.854 182.931 124.8 189.554 127.651 190.595C130.542 191.651 135.013 186.842 135.383 186.436ZM135.777 177.83C135.452 176.672 136.126 175.468 137.288 175.143C138.46 174.82 139.658 175.49 139.984 176.648C140.309 177.806 139.635 179.01 138.474 179.335C137.312 179.659 136.102 178.988 135.777 177.83Z" fill="black"/>
<path d="M150.843 185.95C148.32 186.546 146.865 185.407 146.029 186.523C145.413 187.344 145.529 188.857 146.106 189.842C147.479 192.186 151.718 191.959 154.366 190.748C155.466 190.245 157.825 189.165 157.86 186.976C157.88 185.696 157.105 184.103 155.989 183.669C154.455 183.071 153.793 185.253 150.843 185.95Z" fill="black"/>
<path d="M155.839 201.965C157.623 201.453 158.69 199.723 158.221 198.101C157.752 196.479 155.926 195.58 154.141 196.092C152.357 196.604 151.29 198.334 151.759 199.956C152.228 201.578 154.054 202.478 155.839 201.965Z" fill="black"/>
<path d="M139.663 191.952C141.619 190.827 142.744 189.119 142.175 188.138C141.607 187.157 139.56 187.274 137.604 188.4C135.648 189.525 134.523 191.233 135.092 192.214C135.66 193.195 137.706 193.078 139.663 191.952Z" fill="#EDA1C1"/>
<path d="M164.457 184.528C166.705 184.313 168.44 183.224 168.331 182.096C168.222 180.969 166.312 180.229 164.063 180.444C161.815 180.66 160.08 181.748 160.189 182.876C160.298 184.003 162.208 184.743 164.457 184.528Z" fill="#EDA1C1"/>
<path d="M143.496 132.753C143.496 132.753 152.081 131.865 155.016 120.977C155.016 120.977 156.54 132.086 166.387 133.717C166.387 133.717 156.465 133.754 154.496 144.53C154.495 144.53 154.087 132.605 143.496 132.753Z" fill="#EDA1C1"/>
<path d="M123.66 133.762C123.66 133.762 131.287 129.736 129.92 118.545C129.92 118.545 135.506 128.279 145.25 126.116C145.25 126.116 136.063 129.852 138.284 140.58C138.284 140.581 133.425 129.675 123.66 133.762Z" fill="#EDA1C1"/>
<path d="M109.371 151.075C109.371 151.075 115.823 145.362 111.834 134.812C111.834 134.812 119.576 142.951 128.528 138.549C128.528 138.549 120.491 144.348 125.2 154.245C125.199 154.245 117.887 144.798 109.371 151.075Z" fill="#EDA1C1"/>
</svg>
