<svg width="400" height="400" viewBox="0 0 400 400" fill="none" xmlns="http://www.w3.org/2000/svg">
<g clip-path="url(#clip0)">
<path d="M270.113 196.391C269.495 200.181 267.853 202.314 265.292 203.735C261.435 205.883 257.917 205.21 255.476 201.465C253.058 197.759 251.047 193.792 248.72 190.024C247.876 188.664 248.268 188.167 249.428 187.372C254.166 184.131 254.136 184.086 256.99 189.053C258.188 191.14 259.311 193.28 260.621 195.29C261.601 196.796 262.798 198.202 264.945 197.132C267.077 196.062 267.785 194.358 267.137 192.088C266.173 188.748 264.305 185.828 262.399 183.031C260.38 180.065 262.768 179.66 264.335 178.736C265.894 177.818 267.28 175.946 268.975 179.125C273.698 187.945 278.918 196.49 283.709 205.272C291.144 218.914 286.511 235.721 273.382 243.402C260.215 251.106 243.514 246.795 235.628 233.497C230.46 224.784 225.654 215.857 220.479 207.152C218.709 204.186 221.18 203.965 222.551 203.223C223.967 202.459 225.421 199.937 227.236 203.269C232.08 212.165 237.112 220.97 242.256 229.69C247.266 238.174 257.051 241.82 266.007 238.824C274.881 235.858 280.56 227.168 279.92 217.599C279.717 214.626 278.843 211.844 277.427 209.269C275.175 205.165 272.809 201.129 270.113 196.391Z" fill="#F9F8F4"/>
<path d="M120.754 219.457C118.547 215.552 116.551 212.067 114.6 208.559C107.15 195.176 110.984 179.76 123.549 172.5C136.114 165.239 151.058 169.718 158.712 183.047C163.435 191.278 167.977 199.632 172.911 207.733C174.93 211.05 172.218 211.188 170.704 212.243C169.039 213.404 167.706 214.528 166.139 211.601C161.612 203.109 156.731 194.817 151.925 186.486C146.471 177.04 135.94 173.875 127.097 178.958C118.118 184.117 115.391 195.138 120.792 204.753C125.44 213.03 130.208 221.238 134.841 229.531C135.36 230.463 137.183 231.831 135.571 232.664C133.846 233.558 132.37 236.463 129.944 234.644C128.475 233.543 128.777 234.468 128.385 235.316C125.055 242.577 117.515 243.594 112.393 237.502C111.903 236.921 111.459 236.302 111.067 235.66C108.762 231.885 107.662 227.834 109.975 223.768C112.197 219.87 115.85 218.502 120.754 219.457ZM121.267 223.592C118.645 223.523 116.355 225.686 116.31 228.262C116.257 231.204 118.992 234.514 121.508 234.216C124.046 233.918 126.035 232.58 126.306 229.706C126.57 226.856 123.85 223.661 121.267 223.592Z" fill="#F9F8F4"/>
<path d="M189.385 243.189C188.7 246.842 187.517 249.097 185.121 250.633C180.911 253.331 177.144 252.742 174.432 248.546C172.097 244.946 170.124 241.11 167.887 237.434C167.126 236.188 167.269 235.584 168.482 234.728C173.265 231.357 173.227 231.304 176.09 236.333C177.22 238.312 178.304 240.315 179.51 242.241C180.632 244.029 181.95 245.65 184.376 244.289C186.651 243.013 187.103 240.972 186.063 238.756C184.662 235.783 183.201 232.802 181.385 230.089C179.472 227.223 181.973 226.902 183.359 226.137C184.798 225.343 186.327 222.958 187.999 226.298C190.319 230.929 193.114 235.316 195.592 239.872C196.225 241.041 198.387 242.562 195.562 243.708C193.671 244.48 191.78 247.981 189.385 243.189Z" fill="#F9F8F4"/>
<path d="M185.344 214.52C184.095 215.2 182.552 214.351 182.404 212.936C182.184 210.841 181.974 208.796 181.974 206.747C181.974 203.537 180.935 201.359 178.095 199.632C174.303 197.328 170.731 194.642 166.782 191.834C166.138 191.377 166.23 190.341 166.884 189.899C169.054 188.434 170.795 186.397 173.289 187.396C175.82 188.405 177.786 190.866 180.091 192.753C180.897 191.454 180.4 190.361 180.249 189.337C179.344 183.073 179.232 182.426 184.227 179.752C185.154 179.256 186.29 179.859 186.41 180.904C187.182 187.671 187.938 194.31 188.693 200.954C188.821 202.093 188.882 203.239 189.025 204.37C189.868 211.061 189.991 211.992 185.344 214.52Z" fill="#F9F8F4"/>
<path d="M206.73 172.361C206.73 165.864 212.41 160.331 218.934 160.453C225.05 160.568 229.984 165.528 230.029 171.612C230.074 178.062 224.387 183.764 217.954 183.718C211.627 183.672 206.73 178.727 206.73 172.361ZM222.926 173.148C222.948 169.976 220.365 166.98 217.894 167.133C215.453 167.286 213.932 168.692 213.713 171.199C213.48 173.859 216.177 177.191 218.542 177.084C221.133 176.969 222.685 175.502 222.926 173.148Z" fill="#F9F8F4"/>
<path d="M248.176 148.142C248.176 141.607 253.78 136.127 260.349 136.234C266.511 136.333 271.437 141.255 271.467 147.339C271.505 153.82 265.87 159.484 259.415 159.476C253.117 159.468 248.176 154.485 248.176 148.142ZM264.401 148.745C264.386 145.719 261.697 142.593 259.309 142.86C256.763 143.135 255.129 144.618 255.144 147.362C255.159 150.022 257.742 152.888 260.025 152.796C262.654 152.681 264.138 151.183 264.401 148.745Z" fill="#F9F8F4"/>
<path d="M215.32 226.343C215.32 231.769 211.719 236.286 206.138 237.876C201.701 239.137 196.932 237.081 194.13 232.9C193.211 231.525 193.241 230.814 194.733 229.996C198.13 228.124 201.467 226.129 204.804 224.134C205.497 223.721 206.74 223.469 206.386 222.384C206.145 221.658 205.286 220.947 204.541 220.626C201.49 219.319 199.109 220.886 198.168 223.477C197.023 226.61 194.62 226.014 192.669 226.022C190.605 226.029 191.682 224.08 191.946 223.125C193.241 218.387 200.669 214.038 205.851 214.84C211.313 215.696 215.32 220.557 215.32 226.343ZM208.819 226.794C206.356 228.284 204.164 229.606 201.769 231.058C203.426 232.923 205.015 233.443 206.944 232.396C208.985 231.28 209.701 229.583 208.819 226.794Z" fill="#F9F8F4"/>
<path d="M141.108 251.939C146.336 252.015 150.795 256.012 151.752 261.5C152.739 267.11 149.477 272.483 143.775 274.661C138.893 276.526 133.575 274.569 130.653 270.022C129.726 268.577 129.892 267.904 131.353 267.094C134.766 265.214 138.05 263.105 141.462 261.232C144.023 259.826 142.841 258.779 141.259 257.824C138.991 256.455 135.752 257.648 134.577 260.797C133.417 263.907 130.864 263.067 128.95 263.189C127.353 263.288 128.182 261.408 128.415 260.46C129.56 256.005 135.798 251.862 141.108 251.939ZM138.434 268.394C141.688 270.778 145.033 270.022 145.733 266.75C145.884 266.063 145.891 265.107 145.522 264.595C144.92 263.747 144.219 264.61 143.669 264.977C141.937 266.116 139.88 266.758 138.434 268.394Z" fill="#F9F8F4"/>
<path d="M233.375 206.633C233.646 205.486 234.61 204.447 232.049 204.699C230.399 204.86 229.714 201.955 229.021 200.297C228.463 198.959 230.316 198.722 231.183 198.195C235.047 195.841 238.956 193.556 242.904 191.347C243.747 190.873 244.809 189.261 245.721 190.751C246.64 192.257 248.975 194.114 247.755 195.581C245.676 198.073 248.38 197.385 248.847 197.637C252.606 199.655 254.504 203.652 253.359 207.512C252.003 212.059 245.879 216.003 240.862 215.56C237.126 215.231 233.774 211.914 233.382 208.146C233.329 207.626 233.375 207.114 233.375 206.633ZM241.382 208.658C244.516 208.612 247.137 206.159 246.888 203.66C246.632 201.099 245.261 199.372 242.565 199.296C239.958 199.219 237.149 201.932 237.412 204.317C237.683 206.839 239.024 208.536 241.382 208.658Z" fill="#F9F8F4"/>
<path d="M151.067 213.886C151.029 214.879 149.854 216.186 152.505 215.812C153.937 215.605 154.871 218.548 155.458 220.237C155.993 221.781 153.959 221.949 153.003 222.537C149.259 224.845 145.455 227.062 141.613 229.194C140.777 229.66 139.752 231.342 138.833 229.928C137.839 228.392 135.512 226.672 136.815 224.83C137.997 223.156 137.206 223.516 136.197 223.049C129.854 220.115 128.875 213.335 134.058 208.574C139.014 204.019 145.319 203.606 148.852 207.634C150.404 209.392 151.33 211.432 151.067 213.886ZM142.939 211.769C140.122 211.807 137.312 214.367 137.523 216.744C137.764 219.442 139.233 221.253 142.065 221.261C144.671 221.269 147.413 218.464 147.097 216.133C146.765 213.641 145.342 212.021 142.939 211.769Z" fill="#F9F8F4"/>
<path d="M151.572 252.504C149.545 251.771 149.35 249.608 148.31 248.11C147.406 246.81 148.77 246.398 149.568 245.924C153.447 243.623 157.312 241.292 161.251 239.122C162.238 238.579 163.376 236.836 164.415 237.991C165.688 239.404 167.579 241.399 166.924 243.142C166.366 244.632 166.215 244.525 167.594 245.213C173.364 248.102 174.162 254.912 169.402 259.36C164.837 263.625 158.75 264.213 155.203 260.728C153.078 258.642 152.287 256.074 152.513 253.131C152.672 252.718 152.965 252.237 152.355 252.015C152.167 251.962 151.835 252.329 151.572 252.504ZM161.146 256.119C163.571 255.623 165.922 254.499 165.989 251.473C166.05 248.813 164.498 246.688 161.658 246.734C158.961 246.78 156.641 248.301 156.566 251.281C156.506 253.888 158.02 255.806 161.146 256.119Z" fill="#F9F8F4"/>
<path d="M239.539 148.332C244.119 148.423 247.629 152.107 247.78 156.976C247.81 158.008 246.943 159.108 249.256 159.276C250.755 159.383 251.734 162.081 252.141 163.847C252.457 165.215 250.484 165.475 249.482 166.086C246.062 168.188 242.605 170.236 239.079 172.154C238.1 172.689 236.985 174.44 235.908 173.186C234.688 171.772 233.174 170.106 233.513 167.989C233.641 167.194 234.454 167.018 233.159 166.269C228.692 163.701 227.095 160.193 228.21 156.364C229.43 152.168 234.981 148.24 239.539 148.332ZM243.848 160.216C243.539 157.465 242.258 155.31 239.531 155.294C236.91 155.279 234.575 156.746 234.424 159.788C234.288 162.509 235.878 164.596 238.605 164.619C241.256 164.634 243.29 163.09 243.848 160.216Z" fill="#F9F8F4"/>
<path d="M216.388 206.746C217.563 206.876 217.752 207.717 218.106 208.336C222.821 216.567 227.476 224.829 232.237 233.037C233.058 234.459 232.87 235.086 231.506 235.98C226.821 239.06 226.859 239.121 224.147 234.352C220.2 227.428 216.215 220.534 212.358 213.556C211.763 212.486 209.94 211.255 211.191 210.025C212.659 208.557 214.746 207.74 216.388 206.746Z" fill="#F9F8F4"/>
<path d="M211.447 187.838C210.25 189.795 207.899 190.253 206.144 191.484C204.803 192.424 204.472 190.895 204.035 190.131C199.387 182.014 194.853 173.829 190.107 165.773C188.924 163.771 189.678 162.861 191.327 162.479C193.007 162.097 194.416 158.199 196.42 161.585C201.323 169.839 205.986 178.247 210.747 186.585C210.935 186.914 211.116 187.242 211.447 187.838Z" fill="#F9F8F4"/>
<path d="M279.655 192.398C278.463 191.035 280.507 187.989 282.054 187.049C283.121 186.401 283.84 185.355 284.035 183.681C284.351 180.953 282.958 178.675 280.397 177.62C277.112 176.26 275.342 178.568 273.738 180.968C269.557 175.862 270.25 173.272 276.367 170.94C282.423 168.632 288.796 172.255 290.86 179.187C292.675 185.294 288.765 191.859 282.574 193.112C281.08 193.414 280.232 193.059 279.655 192.398Z" fill="#F9F8F4"/>
<path d="M153.988 197.368C155.05 197.123 155.224 198.063 155.555 198.637C158.448 203.658 161.227 208.756 164.21 213.724C165.152 215.298 164.587 215.818 163.337 216.62C158.794 219.54 158.817 219.586 156.143 214.878C154.086 211.263 152.241 207.495 149.898 204.086C148.03 201.357 148.572 199.959 151.397 198.851C152.309 198.499 153.13 197.872 153.988 197.368Z" fill="#F9F8F4"/>
<path d="M159.103 229.553C160.926 230.141 161.024 232.228 162.056 233.504C163.02 234.696 162.101 235.315 161.205 235.843C156.775 238.441 152.324 241.002 147.909 243.623C146.96 244.189 146.094 244.739 145.559 243.272C144.987 241.697 142.418 239.779 143.827 238.77C148.595 235.361 153.845 232.648 159.103 229.553Z" fill="#F9F8F4"/>
<path d="M256.75 171.452C256.856 172.752 256.02 172.966 255.417 173.325C251.101 175.878 246.717 178.316 242.483 180.998C240.638 182.168 239.884 181.182 239.523 179.783C239.169 178.423 236.171 177.215 239.063 175.518C243.493 172.912 247.914 170.291 252.366 167.746C253.73 166.966 256.735 169.763 256.75 171.452Z" fill="#F9F8F4"/>
<path d="M148.957 197.072C147.126 197.018 146.019 196.048 145.981 194.305C145.944 192.555 147.044 191.477 148.791 191.424C150.426 191.37 151.382 192.456 151.503 193.984C151.646 195.719 150.652 196.789 148.957 197.072Z" fill="#F9F8F4"/>
<path d="M121.266 223.591C123.85 223.66 126.569 226.855 126.305 229.706C126.042 232.587 124.045 233.917 121.507 234.215C118.983 234.513 116.257 231.204 116.309 228.261C116.355 225.686 118.644 223.523 121.266 223.591Z" fill="black"/>
<path d="M222.931 173.149C222.682 175.503 221.138 176.97 218.554 177.093C216.189 177.2 213.485 173.867 213.726 171.208C213.944 168.701 215.466 167.294 217.907 167.142C220.37 166.973 222.954 169.977 222.931 173.149Z" fill="black"/>
<path d="M264.403 148.745C264.139 151.183 262.655 152.681 260.034 152.788C257.751 152.887 255.168 150.014 255.152 147.354C255.137 144.61 256.772 143.127 259.318 142.852C261.698 142.6 264.388 145.718 264.403 148.745Z" fill="black"/>
<path d="M208.82 226.795C209.702 229.585 208.986 231.281 206.952 232.397C205.024 233.444 203.427 232.924 201.777 231.06C204.173 229.607 206.365 228.285 208.82 226.795Z" fill="black"/>
<path d="M138.434 268.393C139.872 266.758 141.936 266.116 143.669 264.977C144.219 264.618 144.919 263.754 145.522 264.595C145.883 265.107 145.876 266.062 145.733 266.75C145.032 270.021 141.695 270.785 138.434 268.393Z" fill="black"/>
<path d="M241.381 208.659C239.023 208.529 237.69 206.832 237.404 204.31C237.14 201.925 239.95 199.212 242.556 199.289C245.253 199.365 246.624 201.1 246.88 203.653C247.136 206.16 244.507 208.613 241.381 208.659Z" fill="black"/>
<path d="M142.939 211.768C145.342 212.02 146.766 213.64 147.097 216.132C147.406 218.455 144.671 221.268 142.065 221.26C139.233 221.252 137.764 219.441 137.523 216.743C137.312 214.366 140.122 211.806 142.939 211.768Z" fill="black"/>
<path d="M161.144 256.121C158.018 255.807 156.504 253.889 156.564 251.283C156.64 248.302 158.952 246.781 161.656 246.735C164.489 246.682 166.04 248.814 165.988 251.474C165.92 254.5 163.57 255.624 161.144 256.121Z" fill="black"/>
<path d="M151.57 252.504C151.834 252.328 152.173 251.961 152.346 252.022C152.949 252.244 152.663 252.726 152.504 253.138C152.188 252.924 151.879 252.718 151.57 252.504Z" fill="#F9F8F4"/>
<path d="M243.846 160.217C243.281 163.091 241.247 164.635 238.611 164.619C235.884 164.596 234.294 162.51 234.43 159.789C234.581 156.747 236.916 155.28 239.537 155.295C242.256 155.31 243.545 157.466 243.846 160.217Z" fill="black"/>
</g>
<defs>
<clipPath id="clip0">
<rect width="182.609" height="139.13" fill="white" transform="translate(108.695 136.232)"/>
</clipPath>
</defs>
</svg>
