<svg width="400" height="400" viewBox="0 0 400 400" fill="none" xmlns="http://www.w3.org/2000/svg">
<g clip-path="url(#clip0)">
<path d="M111.301 222.844V234.067H84.7773L90.1738 228.455L84.7773 222.844H111.301Z" fill="#F9F8F4"/>
<path d="M293.77 233.647V222.424H320.293L314.906 228.035L320.293 233.647H293.77Z" fill="#F9F8F4"/>
<path d="M87.3886 226.74L82.1021 221.233H108.733V232.524H82.1021L87.3886 227.017L87.5216 226.879L87.3886 226.74Z" fill="#F9F8F4" stroke="black" stroke-width="0.4"/>
<path d="M108.9 221.266V221.066H108.7H82.1763H81.707L82.032 221.405L87.2861 226.878L82.032 232.351L81.707 232.69H82.1763H108.7H108.9V232.49V221.266ZM87.0622 227.017L87.1954 226.878L87.0622 226.739L81.9844 221.456L81.9841 221.456L81.5489 220.999H82.1763H108.7H108.968V221.266V232.49V232.757H108.7H82.1763H81.5489L81.9838 232.301L81.9844 232.3L87.0622 227.017Z" fill="black" stroke="black" stroke-width="0.4"/>
<path d="M312.956 227.017L318.243 232.524H291.602V221.233H318.243L312.956 226.74L312.823 226.879L312.956 227.017Z" fill="#F9F8F4" stroke="black" stroke-width="0.4"/>
<path d="M318.159 221.266L312.772 226.878L318.159 232.49H291.636V221.266H318.159ZM319.254 220.799H318.159H291.636H291.168V221.266V232.49V232.957H291.636H318.159H319.254L318.496 232.162L313.418 226.878L318.496 221.594L319.254 220.799Z" fill="black"/>
<path d="M129.22 241.11L127.349 232.824H125.077V241.11H121.812V214.988H127.377C131.072 214.988 131.773 216.494 131.773 219.926V228.072C131.773 230.027 131.174 231.308 130.043 232.019L132.203 241.101H129.22V241.11ZM126.629 230.261C128.107 230.261 128.556 229.803 128.556 228.101V219.898C128.556 218.196 128.097 217.738 126.629 217.738H125.067V230.261H126.629Z" fill="#F9F8F4"/>
<path d="M146.53 219.646V236.453C146.53 240.175 144.425 241.363 141.479 241.363C138.552 241.363 136.457 240.175 136.457 236.453V219.646C136.457 215.924 138.561 214.736 141.479 214.736C144.435 214.736 146.53 215.924 146.53 219.646ZM141.479 217.514C140.516 217.514 139.721 218 139.721 219.674V236.425C139.721 238.099 140.516 238.585 141.479 238.585C142.471 238.585 143.238 238.099 143.238 236.425V219.674C143.238 218 142.471 217.514 141.479 217.514Z" fill="#F9F8F4"/>
<path d="M157.978 223.481V219.646C157.978 218 157.211 217.486 156.22 217.486C155.229 217.486 154.462 218 154.462 219.646V222.995C154.462 227.418 161.186 226.661 161.186 232.955V236.472C161.186 240.166 159.138 241.354 156.22 241.354C153.302 241.354 151.282 240.166 151.282 236.472V232.609H154.434V236.444C154.434 238.09 155.201 238.604 156.192 238.604C157.211 238.604 157.95 238.09 157.95 236.444V233.095C157.95 228.662 151.254 229.429 151.254 223.135V219.618C151.254 215.924 153.293 214.736 156.192 214.736C159.119 214.736 161.13 215.924 161.13 219.618V223.481H157.978Z" fill="#F9F8F4"/>
<path d="M172.428 223.481V219.646C172.428 218 171.661 217.486 170.669 217.486C169.678 217.486 168.911 218 168.911 219.646V222.995C168.911 227.418 175.636 226.661 175.636 232.955V236.472C175.636 240.166 173.587 241.354 170.669 241.354C167.751 241.354 165.731 240.166 165.731 236.472V232.609H168.883V236.444C168.883 238.09 169.65 238.604 170.641 238.604C171.661 238.604 172.4 238.09 172.4 236.444V233.095C172.4 228.662 165.703 229.429 165.703 223.135V219.618C165.703 215.924 167.742 214.736 170.641 214.736C173.569 214.736 175.579 215.924 175.579 219.618V223.481H172.428Z" fill="#F9F8F4"/>
<path d="M197.177 236.509C197.177 240.203 195.139 241.391 192.183 241.391C189.256 241.391 187.133 240.194 187.133 236.509V232.141C187.133 230.009 187.956 228.877 189.349 228.167V228.026C188.096 227.344 187.273 226.408 187.273 224.248V219.45C187.273 215.933 189.256 214.736 192.183 214.736C195.139 214.736 197.121 215.924 197.121 219.45V223.088H193.941V219.6C193.941 218.01 193.175 217.523 192.183 217.523C191.22 217.523 190.425 218.01 190.425 219.6V224.566C190.425 226.212 191.276 226.782 192.295 226.782H197.177V236.509ZM193.97 229.439H192.295C191.276 229.439 190.397 230.009 190.397 231.655V236.537C190.397 238.127 191.22 238.641 192.183 238.641C193.175 238.641 193.97 238.127 193.97 236.537V229.439V229.439Z" fill="#F9F8F4"/>
<path d="M218.725 236.481C218.725 240.203 216.621 241.391 213.675 241.391C210.747 241.391 208.652 240.194 208.652 236.481V219.646C208.652 215.924 210.757 214.736 213.675 214.736C216.63 214.736 218.725 215.924 218.725 219.646V223.677H215.433V219.674C215.433 218 214.666 217.514 213.675 217.514C212.711 217.514 211.916 218 211.916 219.674V236.481C211.916 238.127 212.711 238.641 213.675 238.641C214.666 238.641 215.433 238.127 215.433 236.481V232.366H218.725V236.481Z" fill="#F9F8F4"/>
<path d="M223.551 214.988H226.815V241.101H223.551V214.988Z" fill="#F9F8F4"/>
<path d="M239.048 241.11L237.177 232.824H234.905V241.11H231.641V214.988H237.205C240.9 214.988 241.601 216.494 241.601 219.926V228.072C241.601 230.027 241.003 231.308 239.871 232.019L242.031 241.101H239.048V241.11ZM236.467 230.261C237.944 230.261 238.393 229.803 238.393 228.101V219.898C238.393 218.196 237.935 217.738 236.467 217.738H234.905V230.261H236.467Z" fill="#F9F8F4"/>
<path d="M256.37 236.481C256.37 240.203 254.265 241.391 251.319 241.391C248.392 241.391 246.297 240.194 246.297 236.481V219.646C246.297 215.924 248.401 214.736 251.319 214.736C254.275 214.736 256.37 215.924 256.37 219.646V223.677H253.077V219.674C253.077 218 252.311 217.514 251.319 217.514C250.356 217.514 249.561 218 249.561 219.674V236.481C249.561 238.127 250.356 238.641 251.319 238.641C252.311 238.641 253.077 238.127 253.077 236.481V232.366H256.37V236.481Z" fill="#F9F8F4"/>
<path d="M269.029 238.351V241.101H261.191V214.988H264.455V238.351H269.029Z" fill="#F9F8F4"/>
<path d="M277.006 217.747V226.66H281.093V229.382H277.006V238.351H281.149V241.101H273.742V214.988H281.149V217.738H277.006V217.747Z" fill="#F9F8F4"/>
<path d="M127.669 240.146L125.798 231.86H123.947V240.146H120.215V213.566H126.013C129.932 213.566 130.643 215.306 130.643 218.738V226.884C130.643 228.82 130.091 230.148 128.941 230.934L131.129 240.146H127.669V240.146ZM125.275 228.839C126.547 228.839 126.967 228.559 126.967 226.912V218.71C126.967 217.064 126.547 216.784 125.275 216.784H123.947V228.839H125.275Z" fill="#F9F8F4"/>
<path d="M126.013 213.802C129.707 213.802 130.409 215.307 130.409 218.74V226.886C130.409 228.84 129.81 230.122 128.678 230.833L130.839 239.914H127.855L125.985 231.628H123.712V239.914H120.448V213.802H126.013ZM123.712 229.074H125.274C126.752 229.074 127.201 228.616 127.201 226.914V218.712C127.201 217.01 126.742 216.551 125.274 216.551H123.712V229.074ZM126.013 213.334H120.448H119.98V213.802V239.914V240.382H120.448H123.712H124.18V239.914V232.095H125.611L127.397 240.017L127.481 240.382H127.855H130.839H131.428L131.288 239.802L129.202 231.029C130.315 230.187 130.876 228.794 130.876 226.876V218.73C130.876 215.233 130.1 213.334 126.013 213.334ZM124.18 217.028H125.274C126.443 217.028 126.733 217.225 126.733 218.721V226.923C126.733 228.41 126.443 228.616 125.274 228.616H124.18V217.028Z" fill="black"/>
<path d="M140.116 240.411C136.627 240.411 134.859 238.68 134.859 235.267V218.46C134.859 215.047 136.627 213.316 140.116 213.316C143.623 213.316 145.4 215.047 145.4 218.46V235.267C145.4 238.68 143.623 240.411 140.116 240.411ZM140.116 216.562C139.461 216.562 138.591 216.758 138.591 218.488V235.239C138.591 236.96 139.461 237.165 140.116 237.165C140.826 237.165 141.64 236.95 141.64 235.239V218.488C141.64 216.786 140.826 216.562 140.116 216.562Z" fill="#F9F8F4"/>
<path d="M140.115 213.55C143.07 213.55 145.165 214.737 145.165 218.46V235.266C145.165 238.989 143.061 240.176 140.115 240.176C137.188 240.176 135.093 238.989 135.093 235.266V218.46C135.093 214.737 137.188 213.55 140.115 213.55ZM140.115 237.389C141.106 237.389 141.873 236.903 141.873 235.229V218.478C141.873 216.804 141.106 216.318 140.115 216.318C139.152 216.318 138.357 216.804 138.357 218.478V235.229C138.357 236.912 139.152 237.389 140.115 237.389ZM140.115 213.082C136.467 213.082 134.625 214.887 134.625 218.46V235.266C134.625 238.839 136.477 240.644 140.115 240.644C143.781 240.644 145.633 238.839 145.633 235.266V218.46C145.633 214.887 143.781 213.082 140.115 213.082ZM140.115 236.922C139.479 236.922 138.824 236.725 138.824 235.229V218.478C138.824 216.991 139.479 216.786 140.115 216.786C140.788 216.786 141.406 216.991 141.406 218.478V235.229C141.406 236.716 140.788 236.922 140.115 236.922Z" fill="black"/>
<path d="M154.856 240.411C151.377 240.411 149.684 238.737 149.684 235.295V231.198H153.304V235.267C153.304 236.988 154.174 237.193 154.828 237.193C155.539 237.193 156.353 236.978 156.353 235.267V231.919C156.353 230.02 155.053 229.15 153.547 228.131C151.723 226.896 149.656 225.503 149.656 221.949V218.432C149.656 215.037 151.396 213.316 154.828 213.316C158.307 213.316 160 214.991 160 218.432V222.529H156.381V218.46C156.381 216.739 155.511 216.534 154.856 216.534C154.202 216.534 153.332 216.73 153.332 218.46V221.809C153.332 223.707 154.641 224.577 156.147 225.596C157.98 226.831 160.056 228.224 160.056 231.769V235.286C160.056 238.737 158.354 240.411 154.856 240.411Z" fill="#F9F8F4"/>
<path d="M154.82 213.55C157.747 213.55 159.758 214.737 159.758 218.432V222.294H156.606V218.46C156.606 216.814 155.839 216.299 154.848 216.299C153.857 216.299 153.09 216.814 153.09 218.46V221.808C153.09 226.232 159.814 225.474 159.814 231.768V235.285C159.814 238.979 157.766 240.167 154.848 240.167C151.921 240.167 149.91 238.979 149.91 235.285V231.422H153.062V235.257C153.062 236.903 153.828 237.417 154.82 237.417C155.839 237.417 156.578 236.903 156.578 235.257V231.909C156.578 227.476 149.882 228.243 149.882 221.948V218.432C149.882 214.737 151.93 213.55 154.82 213.55ZM154.82 213.082C151.228 213.082 149.414 214.878 149.414 218.432V221.948C149.414 225.624 151.537 227.055 153.408 228.317C154.913 229.337 156.11 230.141 156.11 231.909V235.257C156.11 236.744 155.493 236.95 154.82 236.95C154.184 236.95 153.529 236.753 153.529 235.257V231.422V230.955H153.062H149.91H149.442V231.422V235.285C149.442 238.839 151.266 240.635 154.848 240.635C158.458 240.635 160.282 238.839 160.282 235.285V231.768C160.282 228.093 158.149 226.662 156.269 225.399C154.754 224.38 153.557 223.576 153.557 221.808V218.46C153.557 216.973 154.212 216.767 154.848 216.767C155.484 216.767 156.139 216.963 156.139 218.46V222.294V222.762H156.606H159.758H160.226V222.294V218.432C160.235 214.878 158.411 213.082 154.82 213.082Z" fill="black"/>
<path d="M169.305 240.411C165.826 240.411 164.134 238.737 164.134 235.295V231.198H167.753V235.267C167.753 236.988 168.623 237.193 169.277 237.193C169.988 237.193 170.802 236.978 170.802 235.267V231.919C170.802 230.02 169.502 229.15 167.996 228.131C166.172 226.896 164.105 225.503 164.105 221.949V218.432C164.105 215.037 165.845 213.316 169.277 213.316C172.757 213.316 174.449 214.991 174.449 218.432V222.529H170.83V218.46C170.83 216.739 169.96 216.534 169.305 216.534C168.651 216.534 167.781 216.73 167.781 218.46V221.809C167.781 223.707 169.09 224.577 170.596 225.596C172.429 226.831 174.505 228.224 174.505 231.769V235.286C174.505 238.737 172.803 240.411 169.305 240.411Z" fill="#F9F8F4"/>
<path d="M169.269 213.55C172.196 213.55 174.207 214.737 174.207 218.432V222.294H171.055V218.46C171.055 216.814 170.288 216.299 169.297 216.299C168.306 216.299 167.539 216.814 167.539 218.46V221.808C167.539 226.232 174.263 225.474 174.263 231.768V235.285C174.263 238.979 172.215 240.167 169.297 240.167C166.37 240.167 164.359 238.979 164.359 235.285V231.422H167.511V235.257C167.511 236.903 168.278 237.417 169.269 237.417C170.288 237.417 171.027 236.903 171.027 235.257V231.909C171.027 227.476 164.331 228.243 164.331 221.948V218.432C164.331 214.737 166.379 213.55 169.269 213.55ZM169.269 213.082C165.678 213.082 163.863 214.878 163.863 218.432V221.948C163.863 225.624 165.986 227.055 167.857 228.317C169.363 229.337 170.56 230.141 170.56 231.909V235.257C170.56 236.744 169.942 236.95 169.269 236.95C168.633 236.95 167.978 236.753 167.978 235.257V231.422V230.955H167.511H164.359H163.891V231.422V235.285C163.891 238.839 165.715 240.635 169.297 240.635C172.907 240.635 174.731 238.839 174.731 235.285V231.768C174.731 228.093 172.599 226.662 170.719 225.399C169.204 224.38 168.006 223.576 168.006 221.808V218.46C168.006 216.973 168.661 216.767 169.297 216.767C169.933 216.767 170.588 216.963 170.588 218.46V222.294V222.762H171.055H174.207H174.675V222.294V218.432C174.684 214.878 172.86 213.082 169.269 213.082Z" fill="black"/>
<path d="M190.819 240.439C187.312 240.439 185.535 238.718 185.535 235.323V230.955C185.535 229.029 186.199 227.729 187.63 226.906C186.583 226.279 185.675 225.334 185.675 223.062V218.264C185.675 214.981 187.406 213.316 190.819 213.316C194.298 213.316 195.991 214.934 195.991 218.264V222.136H192.344V218.414C192.344 216.767 191.474 216.571 190.819 216.571C189.791 216.571 189.295 217.17 189.295 218.414V223.38C189.295 224.689 189.847 225.362 190.932 225.362H196.047V235.332C196.057 238.765 194.345 240.439 190.819 240.439ZM190.941 228.486C190.183 228.486 189.276 228.832 189.276 230.469V235.351C189.276 236.586 189.8 237.222 190.829 237.222C191.876 237.222 192.381 236.614 192.381 235.351V228.486H190.941Z" fill="#F9F8F4"/>
<path d="M190.819 213.55C193.774 213.55 195.757 214.737 195.757 218.263V221.901H192.577V218.413C192.577 216.823 191.81 216.337 190.819 216.337C189.855 216.337 189.061 216.823 189.061 218.413V223.379C189.061 225.025 189.912 225.596 190.931 225.596H195.813V235.332C195.813 239.026 193.765 240.214 190.819 240.214C187.891 240.214 185.768 239.017 185.768 235.332V230.964C185.768 228.832 186.591 227.7 187.985 226.989V226.849C186.732 226.166 185.909 225.231 185.909 223.071V218.273C185.909 214.737 187.901 213.55 190.819 213.55ZM190.819 237.445C191.81 237.445 192.605 236.931 192.605 235.341V228.243H190.931C189.912 228.243 189.032 228.813 189.032 230.459V235.341C189.032 236.94 189.855 237.445 190.819 237.445ZM190.819 213.082C187.246 213.082 185.441 214.822 185.441 218.263V223.061C185.441 225.212 186.255 226.25 187.19 226.905C185.899 227.775 185.301 229.084 185.301 230.955V235.322C185.301 238.876 187.162 240.672 190.819 240.672C194.448 240.672 196.281 238.876 196.281 235.322V225.586V225.119H195.813H190.931C189.986 225.119 189.528 224.548 189.528 223.37V218.404C189.528 216.982 190.22 216.795 190.819 216.795C191.455 216.795 192.109 216.982 192.109 218.404V221.892V222.36H192.577H195.757H196.225V221.892V218.254C196.225 214.822 194.41 213.082 190.819 213.082ZM190.819 236.978C190.248 236.978 189.5 236.809 189.5 235.341V230.459C189.5 229.281 189.968 228.71 190.931 228.71H192.137V235.341C192.147 236.8 191.436 236.978 190.819 236.978Z" fill="black"/>
<path d="M212.311 240.439C208.822 240.439 207.055 238.709 207.055 235.295V218.46C207.055 215.047 208.822 213.316 212.311 213.316C215.818 213.316 217.595 215.047 217.595 218.46V222.725H213.835V218.488C213.835 216.786 213.022 216.562 212.311 216.562C211.656 216.562 210.786 216.758 210.786 218.488V235.295C210.786 236.586 211.282 237.222 212.311 237.222C212.965 237.222 213.835 237.025 213.835 235.295V230.946H217.595V235.295C217.595 238.709 215.818 240.439 212.311 240.439Z" fill="#F9F8F4"/>
<path d="M212.31 213.55C215.266 213.55 217.361 214.737 217.361 218.46V222.491H214.069V218.488C214.069 216.814 213.302 216.327 212.31 216.327C211.347 216.327 210.552 216.814 210.552 218.488V235.294C210.552 236.94 211.347 237.455 212.31 237.455C213.302 237.455 214.069 236.94 214.069 235.294V231.179H217.361V235.294C217.361 239.017 215.256 240.204 212.31 240.204C209.383 240.204 207.288 239.007 207.288 235.294V218.46C207.288 214.737 209.383 213.55 212.31 213.55ZM212.31 213.082C208.663 213.082 206.82 214.887 206.82 218.46V235.294C206.82 238.867 208.672 240.672 212.31 240.672C215.976 240.672 217.828 238.858 217.828 235.294V231.179V230.712H217.361H214.069H213.601V231.179V235.294C213.601 236.781 212.946 236.987 212.31 236.987C211.712 236.987 211.02 236.791 211.02 235.294V218.488C211.02 217.001 211.674 216.795 212.31 216.795C212.984 216.795 213.601 217.001 213.601 218.488V222.491V222.958H214.069H217.361H217.828V222.491V218.46C217.828 214.887 215.976 213.082 212.31 213.082Z" fill="black"/>
<path d="M225.685 213.566H221.953V240.146H225.685V213.566Z" fill="#F9F8F4"/>
<path d="M225.45 213.802V239.914H222.186V213.802H225.45ZM225.918 213.334H225.45H222.186H221.719V213.802V239.914V240.382H222.186H225.45H225.918V239.914V213.802V213.334Z" fill="black"/>
<path d="M237.505 240.146L235.634 231.86H233.782V240.146H230.051V213.566H235.849C239.768 213.566 240.479 215.306 240.479 218.738V226.884C240.479 228.82 239.927 230.148 238.777 230.934L240.965 240.146H237.505V240.146ZM235.101 228.839C236.373 228.839 236.794 228.559 236.794 226.912V218.71C236.794 217.064 236.373 216.784 235.101 216.784H233.773V228.839H235.101Z" fill="#F9F8F4"/>
<path d="M235.841 213.802C239.535 213.802 240.237 215.307 240.237 218.74V226.886C240.237 228.84 239.638 230.122 238.506 230.833L240.667 239.914H237.683L235.813 231.628H233.54V239.914H230.276V213.802H235.841ZM233.54 229.074H235.102C236.58 229.074 237.029 228.616 237.029 226.914V218.712C237.029 217.01 236.57 216.551 235.102 216.551H233.54V229.074ZM235.841 213.334H230.276H229.809V213.802V239.914V240.382H230.276H233.54H234.008V239.914V232.095H235.439L237.225 240.017L237.309 240.382H237.683H240.667H241.256L241.116 239.802L239.03 231.029C240.143 230.187 240.704 228.794 240.704 226.876V218.73C240.714 215.233 239.937 213.334 235.841 213.334ZM234.008 217.028H235.102C236.271 217.028 236.561 217.225 236.561 218.721V226.923C236.561 228.41 236.271 228.616 235.102 228.616H234.008V217.028Z" fill="black"/>
<path d="M249.955 240.439C246.467 240.439 244.699 238.709 244.699 235.295V218.46C244.699 215.047 246.467 213.316 249.955 213.316C253.463 213.316 255.24 215.047 255.24 218.46V222.725H251.48V218.488C251.48 216.786 250.666 216.562 249.955 216.562C249.301 216.562 248.431 216.758 248.431 218.488V235.295C248.431 236.586 248.927 237.222 249.955 237.222C250.61 237.222 251.48 237.025 251.48 235.295V230.946H255.24V235.295C255.24 238.709 253.463 240.439 249.955 240.439Z" fill="#F9F8F4"/>
<path d="M249.955 213.55C252.91 213.55 255.005 214.737 255.005 218.46V222.491H251.713V218.488C251.713 216.814 250.946 216.327 249.955 216.327C248.991 216.327 248.197 216.814 248.197 218.488V235.294C248.197 236.94 248.991 237.455 249.955 237.455C250.946 237.455 251.713 236.94 251.713 235.294V231.179H255.005V235.294C255.005 239.017 252.901 240.204 249.955 240.204C247.027 240.204 244.932 239.007 244.932 235.294V218.46C244.932 214.737 247.027 213.55 249.955 213.55ZM249.955 213.082C246.307 213.082 244.465 214.887 244.465 218.46V235.294C244.465 238.867 246.317 240.672 249.955 240.672C253.621 240.672 255.473 238.858 255.473 235.294V231.179V230.712H255.005H251.713H251.245V231.179V235.294C251.245 236.781 250.591 236.987 249.955 236.987C249.356 236.987 248.664 236.791 248.664 235.294V218.488C248.664 217.001 249.319 216.795 249.955 216.795C250.628 216.795 251.245 217.001 251.245 218.488V222.491V222.958H251.713H255.005H255.473V222.491V218.46C255.473 214.887 253.621 213.082 249.955 213.082Z" fill="black"/>
<path d="M259.594 240.146V213.566H263.325V236.929H267.899V240.146H259.594Z" fill="#F9F8F4"/>
<path d="M263.091 213.802V237.164H267.664V239.914H259.827V213.802H263.091ZM263.559 213.334H263.091H259.827H259.359V213.802V239.914V240.382H259.827H267.664H268.132V239.914V237.164V236.697H267.664H263.559V213.802V213.334Z" fill="black"/>
<path d="M272.148 240.146V213.566H280.023V216.793H275.88V225.238H279.967V228.428H275.88V236.929H280.023V240.146H272.148Z" fill="#F9F8F4"/>
<path d="M279.789 213.802V216.551H275.646V225.464H279.733V228.186H275.646V237.155H279.789V239.905H272.382V213.802H279.789ZM280.257 213.334H279.789H272.382H271.914V213.802V239.914V240.382H272.382H279.789H280.257V239.914V237.164V236.697H279.789H276.113V228.663H279.733H280.2V228.195V225.474V225.006H279.733H276.113V217.028H279.789H280.257V216.561V213.811V213.334Z" fill="black"/>
<path d="M89.7891 224.465H90.556V229.113H89.7891V224.465ZM90.107 224.465H92.838V225.194H90.107V224.465ZM90.107 226.438H92.4919V227.168H90.107V226.438ZM90.107 228.374H92.838V229.104H90.107V228.374Z" fill="black"/>
<path d="M94.9818 229.095C94.776 229.049 94.5796 228.983 94.4019 228.899C94.2242 228.815 94.0559 228.712 93.9062 228.581L94.3084 227.973C94.4861 228.123 94.6919 228.235 94.907 228.319C95.1221 228.403 95.3652 228.441 95.6178 228.441C95.9264 228.441 96.1696 228.385 96.3379 228.272C96.5063 228.16 96.5998 228.001 96.5998 227.805C96.5998 227.665 96.5624 227.552 96.4876 227.468C96.4127 227.384 96.3099 227.318 96.1883 227.281C96.0667 227.244 95.9077 227.206 95.7113 227.169C95.7019 227.169 95.7019 227.169 95.6926 227.169C95.6832 227.169 95.6832 227.169 95.6739 227.169L95.6178 227.16C95.3091 227.113 95.0473 227.047 94.8509 226.982C94.6545 226.907 94.4768 226.785 94.3365 226.608C94.1962 226.43 94.1307 226.168 94.1307 225.841C94.1307 225.551 94.1962 225.298 94.3271 225.083C94.458 224.877 94.6545 224.718 94.907 224.606C95.1595 224.494 95.4588 224.447 95.8142 224.447C95.9825 224.447 96.1509 224.466 96.3192 224.503C96.4876 224.541 96.6465 224.597 96.8149 224.662C96.9739 224.737 97.1329 224.821 97.2825 224.934L96.9084 225.56C96.7307 225.429 96.5437 225.336 96.366 225.27C96.1789 225.205 96.0012 225.167 95.8235 225.167C95.5336 225.167 95.2998 225.224 95.1408 225.326C94.9818 225.429 94.8976 225.588 94.8976 225.785C94.8976 225.934 94.935 226.047 95.0192 226.131C95.1034 226.215 95.2063 226.28 95.3278 226.318C95.4494 226.355 95.6271 226.402 95.8516 226.449C95.8609 226.449 95.8703 226.449 95.8796 226.458C95.889 226.458 95.8983 226.458 95.9077 226.458C95.917 226.458 95.9264 226.458 95.9451 226.467C95.9638 226.477 95.9732 226.467 95.9825 226.477C96.2724 226.533 96.5156 226.608 96.7027 226.683C96.8897 226.757 97.0581 226.898 97.189 227.075C97.3199 227.253 97.3854 227.496 97.3854 227.805V227.814C97.3854 228.104 97.3199 228.357 97.1796 228.562C97.0394 228.768 96.8429 228.927 96.5811 229.03C96.3192 229.142 96.0106 229.189 95.6458 229.189C95.4027 229.161 95.1875 229.133 94.9818 229.095Z" fill="black"/>
<path d="M98.0859 224.465H101.434V225.194H98.0859V224.465ZM99.3766 224.839H100.134V229.104H99.3766V224.839Z" fill="black"/>
<path d="M102.488 224.465H103.255V229.113H102.488V224.465ZM102.928 228.374H104.013C104.331 228.374 104.574 228.299 104.752 228.14C104.929 227.981 105.013 227.757 105.013 227.467V226.102C105.013 225.812 104.929 225.587 104.752 225.428C104.574 225.269 104.331 225.194 104.013 225.194H102.928V224.465H103.994C104.377 224.465 104.695 224.53 104.967 224.661C105.238 224.792 105.444 224.979 105.584 225.232C105.724 225.484 105.799 225.784 105.799 226.13V227.448C105.799 227.794 105.734 228.084 105.593 228.337C105.453 228.589 105.247 228.776 104.985 228.917C104.714 229.048 104.387 229.113 104.003 229.113H102.947V228.374H102.928Z" fill="black"/>
<path d="M297.376 229.113H296.609V225.335L295.992 225.643V224.839L296.666 224.465H297.367V229.113H297.376Z" fill="black"/>
<path d="M300.455 226.801L300.529 226.913C300.473 227.007 300.398 227.081 300.286 227.128C300.174 227.175 300.052 227.194 299.903 227.194C299.678 227.194 299.473 227.138 299.304 227.025C299.126 226.913 298.996 226.754 298.902 226.548C298.808 226.343 298.762 226.109 298.762 225.838C298.762 225.538 298.818 225.276 298.921 225.071C299.024 224.856 299.173 224.697 299.379 224.584C299.585 224.472 299.819 224.416 300.099 224.416C300.38 224.416 300.614 224.472 300.819 224.584C301.025 224.697 301.165 224.865 301.278 225.08C301.39 225.295 301.437 225.557 301.437 225.856C301.437 226.015 301.418 226.193 301.371 226.38C301.324 226.567 301.268 226.754 301.184 226.951C301.175 226.979 301.165 227.007 301.147 227.035C301.137 227.063 301.119 227.091 301.109 227.119L300.202 229.111H299.388L300.455 226.801ZM300.511 226.315C300.604 226.193 300.66 226.025 300.66 225.81C300.66 225.594 300.614 225.435 300.511 225.323C300.417 225.211 300.277 225.155 300.099 225.155C299.921 225.155 299.781 225.211 299.678 225.323C299.585 225.435 299.529 225.604 299.529 225.81C299.529 226.025 299.575 226.193 299.678 226.315C299.781 226.436 299.912 226.492 300.099 226.492C300.277 226.492 300.408 226.436 300.511 226.315Z" fill="black"/>
<path d="M303.343 228.999C303.128 228.896 302.959 228.737 302.838 228.55C302.716 228.353 302.66 228.129 302.66 227.867V227.792C302.66 227.558 302.726 227.343 302.847 227.138C302.969 226.932 303.128 226.782 303.334 226.67C303.165 226.576 303.025 226.455 302.913 226.287C302.81 226.118 302.754 225.94 302.754 225.753V225.641C302.754 225.398 302.81 225.183 302.922 224.996C303.034 224.809 303.193 224.669 303.39 224.566C303.595 224.463 303.829 224.416 304.1 224.416C304.372 224.416 304.605 224.463 304.811 224.566C305.017 224.669 305.167 224.809 305.279 224.996C305.391 225.183 305.447 225.398 305.447 225.641V225.753C305.447 225.95 305.391 226.128 305.288 226.296C305.176 226.464 305.036 226.595 304.867 226.679C305.073 226.782 305.232 226.941 305.363 227.147C305.485 227.353 305.55 227.568 305.55 227.802V227.876C305.55 228.138 305.494 228.363 305.372 228.559C305.251 228.756 305.082 228.905 304.867 229.008C304.652 229.111 304.4 229.167 304.11 229.167C303.82 229.167 303.567 229.102 303.343 228.999ZM304.456 228.344C304.559 228.288 304.643 228.213 304.699 228.12C304.755 228.017 304.783 227.914 304.783 227.783V227.736C304.783 227.615 304.755 227.502 304.699 227.409C304.643 227.315 304.559 227.24 304.465 227.194C304.372 227.147 304.241 227.119 304.11 227.119C303.979 227.119 303.857 227.147 303.754 227.194C303.652 227.24 303.577 227.315 303.521 227.418C303.464 227.521 303.436 227.624 303.436 227.746V227.792C303.436 227.914 303.464 228.026 303.521 228.129C303.577 228.232 303.661 228.297 303.764 228.353C303.867 228.41 303.988 228.428 304.119 228.428C304.25 228.428 304.353 228.391 304.456 228.344ZM304.409 226.296C304.493 226.249 304.568 226.174 304.615 226.081C304.662 225.987 304.69 225.884 304.69 225.763V225.716C304.69 225.604 304.662 225.501 304.615 225.417C304.568 225.333 304.503 225.258 304.409 225.211C304.316 225.164 304.222 225.136 304.1 225.136C303.979 225.136 303.885 225.155 303.792 225.211C303.698 225.267 303.633 225.323 303.586 225.417C303.539 225.501 303.511 225.604 303.511 225.716V225.763C303.511 225.884 303.539 225.987 303.586 226.081C303.633 226.174 303.698 226.24 303.792 226.296C303.876 226.343 303.979 226.371 304.1 226.371C304.222 226.371 304.316 226.352 304.409 226.296Z" fill="black"/>
<path d="M309.346 225.045L308.224 229.113H307.401L308.504 225.194H307.513V225.877H306.746V224.465H309.337V225.045H309.346Z" fill="black"/>
<path d="M203.849 189.568L202.577 183.938H207.973L209.311 189.568H203.849ZM190.961 189.568V183.938H196.909V189.568H190.961Z" fill="#F9F8F4"/>
<path d="M207.861 184.068L209.133 189.417H203.961L202.754 184.068H207.861ZM196.769 184.068V189.417H191.101V184.068H196.769ZM208.085 183.787H207.861H202.754H202.399L202.474 184.133L203.68 189.483L203.727 189.698H203.951H209.123H209.479L209.394 189.352L208.123 184.002L208.085 183.787ZM197.049 183.787H196.769H191.101H190.82V184.068V189.417V189.698H191.101H196.769H197.049V189.417V184.068V183.787Z" fill="black"/>
<path d="M200.837 176.222L200.603 175.184H196.909V176.222H190.961V172.172H193.533V164.391H190.961V143.965H200.753C207.365 143.965 208.534 146.771 208.534 152.672V166.813C208.534 168.553 208.254 170.03 207.711 171.209C207.216 172.275 206.486 173.126 205.542 173.734L206.14 176.231H200.837V176.222ZM199.481 170.47C202.006 170.47 202.689 169.694 202.689 166.869V152.625C202.689 149.801 201.997 149.025 199.481 149.025H196.909V170.47H199.481Z" fill="#F9F8F4"/>
<path d="M200.753 144.105C207.159 144.105 208.394 146.714 208.394 152.672V166.813C208.394 168.562 208.113 170.002 207.589 171.152C207.084 172.237 206.346 173.07 205.392 173.668L205.971 176.09H200.949L200.715 175.052H196.769V176.09H191.101V172.321H193.673V164.26H191.101V144.105H200.753ZM196.769 170.61H199.481C202.043 170.61 202.829 169.824 202.829 166.869V152.625C202.829 149.67 202.043 148.884 199.481 148.884H196.769V170.61V170.61ZM200.753 143.824H191.101H190.82V144.105V164.25V164.531H191.101H193.392V172.031H191.101H190.82V172.312V176.081V176.362H191.101H196.769H197.049V176.081V175.324H200.491L200.678 176.147L200.725 176.362H200.949H205.971H206.327L206.243 176.016L205.71 173.79C206.635 173.173 207.346 172.331 207.842 171.265C208.394 170.067 208.674 168.571 208.674 166.813V152.672C208.674 146.798 207.449 143.824 200.753 143.824ZM197.049 149.165H199.481C201.922 149.165 202.548 149.875 202.548 152.625V166.869C202.548 169.619 201.922 170.329 199.481 170.329H197.049V149.165V149.165Z" fill="black"/>
<path d="M185.504 183.061C179.678 183.061 176.844 180.162 176.844 174.204C176.844 168.209 179.678 165.291 185.504 165.291H192.64V171.286H185.551C183.091 171.286 181.95 172.212 181.95 174.204C181.95 176.168 183.129 177.122 185.551 177.122H214.722C217.116 177.122 218.322 176.14 218.322 174.204C218.322 172.24 217.144 171.286 214.722 171.286H208.708L208.801 171.09C209.325 169.949 209.596 168.518 209.596 166.815V165.291H214.722C220.548 165.291 223.382 168.209 223.382 174.204C223.382 180.162 220.548 183.061 214.722 183.061H185.504V183.061Z" fill="#F9F8F4"/>
<path d="M214.723 165.431C221.176 165.431 223.243 169.078 223.243 174.204C223.243 179.273 221.176 182.92 214.723 182.92H185.505C179.043 182.92 176.985 179.273 176.985 174.204C176.985 169.078 179.052 165.431 185.505 165.431H192.501V171.145H185.552C182.644 171.145 181.811 172.473 181.811 174.204C181.811 175.878 182.644 177.262 185.552 177.262H214.723C217.585 177.262 218.464 175.878 218.464 174.204C218.464 172.473 217.585 171.145 214.723 171.145H208.934C209.467 169.995 209.738 168.564 209.738 166.806V165.422H214.723V165.431ZM214.723 165.15H209.738H209.457V165.431V166.815C209.457 168.499 209.195 169.911 208.672 171.033L208.485 171.435H208.924H214.713C217.08 171.435 218.174 172.314 218.174 174.213C218.174 176.084 217.042 176.991 214.713 176.991H185.543C183.214 176.991 182.082 176.084 182.082 174.213C182.082 173.025 182.438 171.435 185.543 171.435H192.492H192.772V171.155V165.44V165.16H192.492H185.496C179.576 165.16 176.695 168.124 176.695 174.213C176.695 180.264 179.576 183.21 185.496 183.21H214.713C220.634 183.21 223.514 180.264 223.514 174.213C223.523 168.115 220.652 165.15 214.723 165.15Z" fill="black"/>
<path d="M182.101 135.897C182.484 136.271 182.671 136.449 183.055 136.823C183.513 137.272 183.681 137.571 183.233 138.067C183.036 138.282 182.943 138.385 182.756 138.609C180.829 136.963 179.856 136.131 177.93 134.485C178.164 134.204 178.285 134.073 178.528 133.802C179.099 133.175 179.445 133.316 179.903 133.764C180.23 134.082 180.389 134.241 180.717 134.559C181.081 134.915 181.231 135.205 181.081 135.56L181.091 135.569C181.428 135.392 181.736 135.541 182.101 135.897ZM178.192 134.428C179.043 135.167 179.473 135.541 180.324 136.28C180.474 136.112 180.548 136.018 180.698 135.85C181.044 135.467 181.081 135.195 180.586 134.728C180.24 134.4 180.071 134.232 179.725 133.905C179.276 133.475 179.033 133.493 178.631 133.933C178.463 134.129 178.369 134.232 178.192 134.428ZM181.942 136.009C181.446 135.532 181.175 135.588 180.838 135.962C180.689 136.131 180.605 136.215 180.455 136.393C181.362 137.178 181.82 137.571 182.728 138.366C182.868 138.207 182.943 138.123 183.083 137.964C183.401 137.608 183.382 137.403 182.933 136.972C182.54 136.589 182.344 136.393 181.942 136.009Z" fill="#F9F8F4" stroke="#F9F8F4" stroke-width="0.353566" stroke-miterlimit="10"/>
<path d="M186.075 133.455C185.682 133.736 185.486 133.886 185.093 134.185C185.42 134.727 185.579 134.999 185.916 135.532C185.869 135.569 185.841 135.588 185.795 135.635C184.429 133.465 183.784 132.361 182.559 130.107C182.699 129.995 182.774 129.948 182.914 129.836C184.719 131.66 185.589 132.604 187.263 134.531C187.207 134.568 187.179 134.587 187.123 134.624C186.72 134.157 186.505 133.923 186.075 133.455ZM185.963 133.324C184.756 132.006 184.139 131.36 182.877 130.088C182.849 130.107 182.83 130.117 182.802 130.145C183.653 131.725 184.092 132.501 185.009 134.035C185.383 133.745 185.579 133.605 185.963 133.324Z" fill="#F9F8F4" stroke="#F9F8F4" stroke-width="0.353566" stroke-miterlimit="10"/>
<path d="M189.507 130.668C189.451 130.706 189.385 130.743 189.31 130.781C189.104 130.883 189.002 130.93 188.796 131.033C189.198 131.828 189.404 132.23 189.806 133.025C189.75 133.053 189.722 133.072 189.656 133.1C188.487 130.846 187.907 129.714 186.738 127.46C187.038 127.301 187.197 127.227 187.505 127.077C188.216 126.731 188.478 127.002 188.74 127.582C189.086 128.377 189.263 128.77 189.619 129.555C189.815 129.995 189.862 130.294 189.638 130.547C190.189 131.304 190.461 131.688 190.984 132.464C190.928 132.492 190.9 132.501 190.835 132.529C190.32 131.781 190.058 131.407 189.507 130.668ZM189.217 130.64C189.656 130.425 189.731 130.229 189.469 129.649C189.104 128.845 188.927 128.442 188.562 127.638C188.31 127.068 188.085 126.993 187.58 127.236C187.356 127.348 187.243 127.404 187.019 127.517C187.702 128.863 188.048 129.537 188.73 130.883C188.917 130.79 189.02 130.734 189.217 130.64Z" fill="#F9F8F4" stroke="#F9F8F4" stroke-width="0.353566" stroke-miterlimit="10"/>
<path d="M194.362 128.921C194.483 129.436 194.549 129.698 194.67 130.212C194.82 130.839 194.801 131.175 194.203 131.344C193.95 131.409 193.819 131.446 193.567 131.531C192.828 129.099 192.454 127.883 191.715 125.452C192.033 125.358 192.201 125.311 192.529 125.218C193.286 125.012 193.492 125.321 193.641 125.947C193.744 126.387 193.8 126.611 193.903 127.051C194.025 127.537 193.997 127.874 193.707 128.08C193.707 128.089 193.707 128.089 193.707 128.089C194.072 128.136 194.24 128.426 194.362 128.921ZM191.958 125.554C192.276 126.639 192.435 127.182 192.762 128.257C192.968 128.201 193.062 128.173 193.267 128.117C193.726 127.995 193.885 127.78 193.726 127.126C193.613 126.658 193.557 126.434 193.436 125.966C193.286 125.367 193.08 125.246 192.557 125.386C192.313 125.452 192.192 125.489 191.958 125.554ZM194.175 128.931C194.006 128.257 193.772 128.164 193.314 128.285C193.108 128.341 193.005 128.369 192.809 128.426C193.155 129.576 193.323 130.156 193.66 131.316C193.847 131.259 193.95 131.231 194.137 131.185C194.558 131.072 194.652 130.885 194.502 130.277C194.371 129.735 194.305 129.473 194.175 128.931Z" fill="#F9F8F4" stroke="#F9F8F4" stroke-width="0.353566" stroke-miterlimit="10"/>
<path d="M197.197 124.515C197.319 125.675 197.384 126.264 197.506 127.424C197.917 127.377 198.123 127.368 198.535 127.34C198.535 127.405 198.544 127.443 198.544 127.508C198.132 127.536 197.936 127.555 197.524 127.592C197.646 128.752 197.712 129.332 197.833 130.492C198.198 130.454 198.376 130.436 198.74 130.417C198.74 130.482 198.75 130.52 198.75 130.585C198.329 130.613 198.114 130.632 197.683 130.679C197.403 128.154 197.253 126.891 196.973 124.366C197.515 124.31 197.786 124.282 198.329 124.244C198.329 124.31 198.338 124.347 198.338 124.412C197.88 124.45 197.655 124.469 197.197 124.515Z" fill="#F9F8F4" stroke="#F9F8F4" stroke-width="0.353566" stroke-miterlimit="10"/>
<path d="M202.659 128.387C202.594 128.396 202.519 128.396 202.435 128.387C202.21 128.368 202.098 128.359 201.873 128.349C201.817 129.238 201.789 129.687 201.733 130.585C201.668 130.585 201.64 130.575 201.574 130.575C201.715 128.041 201.789 126.769 201.93 124.234C202.266 124.253 202.435 124.262 202.762 124.29C203.538 124.356 203.632 124.721 203.557 125.357C203.454 126.217 203.407 126.647 203.304 127.498C203.248 127.975 203.136 128.265 202.818 128.359C202.902 129.294 202.94 129.762 202.996 130.688C202.93 130.678 202.902 130.678 202.837 130.669C202.781 129.762 202.743 129.303 202.659 128.387ZM202.416 128.228C202.893 128.265 203.052 128.134 203.127 127.498C203.22 126.619 203.267 126.189 203.37 125.31C203.435 124.693 203.286 124.515 202.743 124.468C202.5 124.449 202.379 124.44 202.126 124.421C202.032 125.927 201.986 126.685 201.883 128.191C202.098 128.2 202.201 128.209 202.416 128.228Z" fill="#F9F8F4" stroke="#F9F8F4" stroke-width="0.353566" stroke-miterlimit="10"/>
<path d="M208.064 127.172C208.176 126.798 208.233 126.62 208.335 126.246C208.504 125.675 208.27 125.404 207.896 125.301C207.531 125.208 207.185 125.32 207.045 125.9C206.961 126.236 206.923 126.405 206.839 126.741C206.512 128.098 207.896 128.397 207.456 129.847C207.353 130.174 207.307 130.342 207.204 130.67C206.989 131.38 206.615 131.493 206.25 131.399C205.876 131.296 205.623 131.016 205.791 130.295C205.885 129.921 205.922 129.734 206.016 129.351C206.081 129.37 206.109 129.37 206.175 129.388C206.081 129.762 206.035 129.949 205.941 130.324C205.801 130.903 205.988 131.137 206.287 131.221C206.586 131.306 206.867 131.193 207.035 130.623C207.129 130.295 207.185 130.127 207.279 129.8C207.671 128.462 206.287 128.172 206.643 126.704C206.727 126.367 206.764 126.199 206.839 125.862C207.007 125.142 207.456 125.021 207.924 125.152C208.401 125.282 208.719 125.61 208.504 126.311C208.392 126.685 208.335 126.863 208.223 127.237C208.176 127.2 208.139 127.19 208.064 127.172Z" fill="#F9F8F4" stroke="#F9F8F4" stroke-width="0.353566" stroke-miterlimit="10"/>
<path d="M213.813 127.481C212.644 129.734 212.055 130.866 210.886 133.12C210.83 133.092 210.802 133.073 210.746 133.045C211.307 131.942 211.587 131.399 212.149 130.296C211.69 130.062 211.466 129.95 210.998 129.744C210.493 130.866 210.241 131.437 209.736 132.559C209.679 132.531 209.642 132.522 209.586 132.493C210.615 130.165 211.129 129.005 212.149 126.686C212.223 126.723 212.261 126.732 212.336 126.77C211.831 127.901 211.578 128.463 211.064 129.594C211.531 129.809 211.765 129.912 212.223 130.146C212.785 129.042 213.065 128.491 213.626 127.387C213.71 127.424 213.748 127.443 213.813 127.481Z" fill="#F9F8F4" stroke="#F9F8F4" stroke-width="0.353566" stroke-miterlimit="10"/>
<path d="M217.938 131.221C216.815 132.643 216.245 133.363 215.123 134.784C214.664 135.374 214.253 135.327 213.944 135.093C213.626 134.859 213.477 134.485 213.907 133.877C214.945 132.381 215.459 131.633 216.488 130.145C216.909 129.528 217.395 129.594 217.797 129.893C218.19 130.192 218.396 130.641 217.938 131.221ZM217.685 130.033C217.367 129.799 216.993 129.762 216.647 130.258C215.6 131.745 215.076 132.484 214.038 133.971C213.692 134.466 213.795 134.766 214.047 134.943C214.3 135.13 214.618 135.14 214.982 134.672C216.095 133.241 216.656 132.521 217.769 131.09C218.143 130.622 218.003 130.276 217.685 130.033Z" fill="#F9F8F4" stroke="#F9F8F4" stroke-width="0.353566" stroke-miterlimit="10"/>
<path d="M221.867 135.131C221.063 135.814 220.661 136.16 219.866 136.843C219.38 137.263 219.052 137.376 218.566 136.852C218.407 136.684 218.332 136.599 218.173 136.431C217.668 136.917 217.416 137.161 216.911 137.647C216.864 137.6 216.836 137.572 216.789 137.525C218.613 135.758 219.52 134.869 221.344 133.102C221.596 133.363 221.718 133.494 221.961 133.756C222.532 134.374 222.354 134.71 221.867 135.131ZM221.746 134.944C222.214 134.533 222.223 134.289 221.821 133.85C221.643 133.653 221.55 133.56 221.362 133.363C220.137 134.542 219.52 135.131 218.285 136.309C218.444 136.478 218.519 136.553 218.678 136.721C219.024 137.095 219.249 137.114 219.716 136.702C220.53 136.001 220.932 135.655 221.746 134.944Z" fill="#F9F8F4" stroke="#F9F8F4" stroke-width="0.353566" stroke-miterlimit="10"/>
<path d="M144.378 264.624C144.126 265.344 143.649 265.409 143.181 265.241C142.713 265.072 142.386 264.717 142.638 264.006C143.265 262.267 143.574 261.397 144.2 259.657C144.453 258.947 144.92 258.872 145.369 259.031C145.818 259.19 146.136 259.536 145.884 260.256C145.753 260.621 145.687 260.808 145.566 261.182C145.491 261.154 145.454 261.144 145.369 261.116C145.5 260.752 145.566 260.565 145.687 260.2C145.893 259.62 145.659 259.339 145.304 259.218C144.949 259.096 144.593 259.162 144.387 259.741C143.761 261.481 143.452 262.351 142.826 264.09C142.62 264.661 142.854 264.96 143.228 265.091C143.592 265.222 143.967 265.147 144.172 264.567C144.303 264.184 144.369 263.997 144.5 263.623C144.574 263.651 144.621 263.66 144.696 263.688C144.574 264.053 144.509 264.249 144.378 264.624Z" fill="#F9F8F4" stroke="#F9F8F4" stroke-width="0.353566" stroke-miterlimit="10"/>
<path d="M149.11 266.972C149.091 267.037 149.082 267.075 149.054 267.14C148.474 266.962 148.184 266.869 147.613 266.682C148.408 264.222 148.801 262.997 149.596 260.537C149.671 260.565 149.708 260.575 149.792 260.603C149.026 262.997 148.642 264.194 147.866 266.588C148.361 266.738 148.614 266.813 149.11 266.972Z" fill="#F9F8F4" stroke="#F9F8F4" stroke-width="0.353566" stroke-miterlimit="10"/>
<path d="M154.562 267.103C154.01 266.953 153.739 266.869 153.196 266.719C152.934 267.308 152.794 267.598 152.532 268.188C152.458 268.169 152.42 268.15 152.336 268.131C153.421 265.756 153.945 264.559 155.001 262.174C155.16 262.221 155.245 262.239 155.413 262.286C155.058 264.867 154.889 266.167 154.562 268.758C154.478 268.739 154.44 268.721 154.356 268.702C154.44 268.057 154.478 267.739 154.562 267.103ZM154.59 266.925C154.824 265.12 154.945 264.213 155.198 262.417C155.16 262.408 155.151 262.398 155.114 262.389C154.384 264.054 154.01 264.886 153.262 266.551C153.795 266.7 154.057 266.775 154.59 266.925Z" fill="#F9F8F4" stroke="#F9F8F4" stroke-width="0.353566" stroke-miterlimit="10"/>
<path d="M160.447 265.567C160.54 265.184 160.587 264.997 160.68 264.613C160.821 264.024 160.587 263.762 160.213 263.678C159.848 263.585 159.511 263.706 159.362 264.286C159.277 264.623 159.231 264.8 159.147 265.137C158.801 266.512 160.362 266.821 159.998 268.317C159.913 268.654 159.876 268.831 159.792 269.168C159.614 269.898 159.156 270.019 158.67 269.898C158.183 269.776 157.837 269.458 158.024 268.729C158.118 268.345 158.174 268.158 158.267 267.775C158.342 267.793 158.38 267.803 158.464 267.821C158.37 268.205 158.324 268.392 158.221 268.775C158.071 269.365 158.333 269.617 158.716 269.72C159.109 269.813 159.446 269.701 159.595 269.121C159.68 268.785 159.717 268.607 159.801 268.27C160.138 266.895 158.576 266.587 158.95 265.09C159.034 264.754 159.081 264.576 159.165 264.239C159.352 263.51 159.792 263.388 160.26 263.51C160.727 263.631 161.054 263.94 160.877 264.67C160.783 265.053 160.736 265.24 160.643 265.623C160.568 265.595 160.531 265.586 160.447 265.567Z" fill="#F9F8F4" stroke="#F9F8F4" stroke-width="0.353566" stroke-miterlimit="10"/>
<path d="M165.563 266.729C165.648 266.345 165.685 266.149 165.769 265.765C165.891 265.176 165.648 264.923 165.273 264.839C164.909 264.764 164.572 264.886 164.441 265.475C164.366 265.821 164.329 265.99 164.254 266.336C163.955 267.72 165.517 267.972 165.208 269.478C165.133 269.824 165.105 269.993 165.03 270.339C164.881 271.077 164.422 271.208 163.936 271.106C163.45 271.003 163.094 270.694 163.253 269.955C163.337 269.572 163.384 269.375 163.468 268.992C163.543 269.011 163.59 269.02 163.665 269.039C163.581 269.422 163.543 269.618 163.459 270.002C163.328 270.591 163.599 270.844 163.983 270.928C164.376 271.012 164.712 270.89 164.834 270.301C164.909 269.955 164.946 269.787 165.012 269.441C165.301 268.057 163.73 267.795 164.067 266.289C164.142 265.943 164.179 265.775 164.254 265.429C164.413 264.69 164.853 264.559 165.32 264.662C165.788 264.764 166.134 265.064 165.975 265.803C165.891 266.186 165.853 266.382 165.778 266.766C165.685 266.757 165.648 266.747 165.563 266.729Z" fill="#F9F8F4" stroke="#F9F8F4" stroke-width="0.353566" stroke-miterlimit="10"/>
<path d="M169.585 265.586C169.659 265.605 169.706 265.605 169.781 265.623C169.313 268.167 169.08 269.439 168.612 271.974C168.528 271.955 168.49 271.955 168.406 271.936C168.874 269.402 169.108 268.13 169.585 265.586Z" fill="#F9F8F4" stroke="#F9F8F4" stroke-width="0.353566" stroke-miterlimit="10"/>
<path d="M174.186 271.975C174.073 272.723 173.624 272.882 173.138 272.807C172.652 272.733 172.268 272.443 172.39 271.694C172.68 269.871 172.829 268.954 173.129 267.13C173.25 266.382 173.69 266.223 174.158 266.298C174.625 266.373 174.99 266.653 174.878 267.402C174.822 267.785 174.794 267.981 174.728 268.365C174.644 268.356 174.606 268.346 174.532 268.337C174.588 267.953 174.616 267.757 174.681 267.374C174.775 266.766 174.494 266.532 174.129 266.476C173.765 266.42 173.428 266.56 173.335 267.158C173.045 268.982 172.895 269.899 172.605 271.722C172.511 272.33 172.792 272.574 173.176 272.63C173.559 272.686 173.905 272.545 173.999 271.938C174.055 271.545 174.092 271.339 174.148 270.946C174.232 270.956 174.27 270.965 174.354 270.974C174.279 271.386 174.251 271.582 174.186 271.975Z" fill="#F9F8F4" stroke="#F9F8F4" stroke-width="0.353566" stroke-miterlimit="10"/>
<path d="M183.535 269.459C183.573 269.066 183.591 268.87 183.629 268.477C183.685 267.878 183.414 267.654 183.039 267.616C182.665 267.579 182.347 267.747 182.291 268.346C182.254 268.692 182.235 268.87 182.198 269.216C182.048 270.628 183.629 270.703 183.488 272.236C183.451 272.583 183.442 272.76 183.404 273.106C183.339 273.854 182.899 274.042 182.404 273.985C181.908 273.939 181.524 273.667 181.599 272.919C181.637 272.526 181.665 272.33 181.702 271.937C181.777 271.947 181.824 271.947 181.898 271.956C181.861 272.349 181.842 272.545 181.796 272.938C181.73 273.536 182.02 273.761 182.413 273.798C182.815 273.836 183.133 273.677 183.189 273.078C183.227 272.732 183.236 272.554 183.273 272.208C183.404 270.796 181.824 270.712 181.983 269.188C182.02 268.841 182.039 268.664 182.076 268.318C182.151 267.57 182.572 267.392 183.039 267.439C183.516 267.485 183.881 267.747 183.816 268.495C183.778 268.888 183.76 269.085 183.722 269.477C183.657 269.468 183.619 269.459 183.535 269.459Z" fill="#F9F8F4" stroke="#F9F8F4" stroke-width="0.353566" stroke-miterlimit="10"/>
<path d="M189.166 267.991C189.007 270.572 188.933 271.863 188.774 274.435C188.69 274.425 188.652 274.425 188.568 274.425C188.643 273.172 188.68 272.545 188.764 271.292C188.203 271.255 187.923 271.236 187.352 271.199C187.268 272.452 187.221 273.078 187.128 274.332C187.043 274.322 187.006 274.322 186.922 274.313C187.109 271.732 187.202 270.45 187.38 267.869C187.455 267.878 187.502 267.878 187.577 267.888C187.492 269.141 187.446 269.768 187.352 271.021C187.913 271.058 188.194 271.077 188.764 271.114C188.839 269.861 188.886 269.235 188.961 267.972C189.045 267.981 189.082 267.991 189.166 267.991Z" fill="#F9F8F4" stroke="#F9F8F4" stroke-width="0.353566" stroke-miterlimit="10"/>
<path d="M194.207 273.088C193.646 273.07 193.365 273.06 192.795 273.041C192.683 273.677 192.627 273.995 192.505 274.622C192.421 274.622 192.383 274.622 192.309 274.613C192.776 272.041 193.01 270.759 193.45 268.188C193.618 268.197 193.702 268.197 193.87 268.197C194.151 270.788 194.291 272.088 194.6 274.678C194.516 274.678 194.478 274.678 194.394 274.669C194.319 274.042 194.282 273.724 194.207 273.088ZM194.188 272.911C193.983 271.096 193.889 270.198 193.693 268.384C193.655 268.384 193.637 268.384 193.609 268.384C193.3 270.18 193.141 271.077 192.823 272.864C193.365 272.882 193.646 272.892 194.188 272.911Z" fill="#F9F8F4" stroke="#F9F8F4" stroke-width="0.353566" stroke-miterlimit="10"/>
<path d="M197.751 268.279C198.078 270.795 198.247 272.048 198.602 274.564C198.64 274.564 198.658 274.564 198.696 274.564C199.051 272.058 199.229 270.795 199.565 268.289C199.65 268.289 199.687 268.289 199.762 268.289C199.425 270.879 199.238 272.17 198.873 274.751C198.696 274.751 198.612 274.751 198.434 274.751C198.069 272.17 197.891 270.87 197.555 268.289C197.639 268.279 197.676 268.279 197.751 268.279Z" fill="#F9F8F4" stroke="#F9F8F4" stroke-width="0.353566" stroke-miterlimit="10"/>
<path d="M203.372 268.401C203.41 269.589 203.419 270.188 203.456 271.376C203.915 271.366 204.148 271.357 204.607 271.338C204.607 271.404 204.607 271.441 204.616 271.507C204.158 271.525 203.924 271.525 203.466 271.544C203.503 272.732 203.512 273.321 203.55 274.509C204.018 274.499 204.261 274.49 204.728 274.471C204.728 274.537 204.728 274.574 204.738 274.649C204.186 274.668 203.905 274.677 203.353 274.696C203.279 272.114 203.251 270.824 203.176 268.242C203.709 268.224 203.971 268.224 204.504 268.205C204.504 268.28 204.504 268.308 204.513 268.383C204.055 268.383 203.83 268.383 203.372 268.401Z" fill="#F9F8F4" stroke="#F9F8F4" stroke-width="0.353566" stroke-miterlimit="10"/>
<path d="M209.631 269.825C209.603 269.432 209.594 269.235 209.566 268.843C209.528 268.244 209.22 268.066 208.846 268.085C208.471 268.104 208.191 268.319 208.219 268.927C208.238 269.273 208.247 269.45 208.266 269.806C208.35 271.218 209.921 271.05 210.024 272.584C210.052 272.93 210.061 273.107 210.08 273.463C210.127 274.211 209.734 274.463 209.238 274.491C208.743 274.52 208.322 274.323 208.275 273.575C208.256 273.182 208.238 272.986 208.219 272.593C208.294 272.593 208.341 272.584 208.415 272.584C208.434 272.976 208.453 273.173 208.471 273.566C208.509 274.164 208.827 274.342 209.22 274.314C209.622 274.286 209.912 274.08 209.865 273.481C209.846 273.135 209.828 272.958 209.809 272.602C209.715 271.19 208.144 271.358 208.051 269.825C208.032 269.479 208.023 269.301 208.004 268.945C207.957 268.197 208.341 267.945 208.818 267.917C209.295 267.889 209.697 268.085 209.753 268.833C209.781 269.226 209.79 269.422 209.818 269.815C209.753 269.815 209.715 269.825 209.631 269.825Z" fill="#F9F8F4" stroke="#F9F8F4" stroke-width="0.353566" stroke-miterlimit="10"/>
<path d="M219.107 271.908C218.546 271.974 218.265 272.011 217.704 272.077C217.685 272.722 217.676 273.04 217.657 273.685C217.573 273.695 217.536 273.695 217.461 273.704C217.545 271.095 217.573 269.795 217.629 267.185C217.798 267.167 217.882 267.157 218.05 267.139C218.714 269.664 219.051 270.917 219.743 273.442C219.659 273.452 219.621 273.461 219.537 273.47C219.359 272.844 219.275 272.535 219.107 271.908ZM219.07 271.74C218.593 269.982 218.359 269.103 217.9 267.344C217.863 267.344 217.844 267.354 217.816 267.354C217.779 269.178 217.76 270.085 217.713 271.908C218.247 271.834 218.527 271.806 219.07 271.74Z" fill="#F9F8F4" stroke="#F9F8F4" stroke-width="0.353566" stroke-miterlimit="10"/>
<path d="M222.301 266.568C222.441 266.55 222.507 266.54 222.647 266.522C223.582 268.888 224.059 270.076 225.041 272.432C225.06 272.432 225.06 272.432 225.078 272.423C225.05 272.255 225.032 272.171 225.004 271.993C224.639 269.711 224.461 268.57 224.096 266.288C224.181 266.278 224.218 266.269 224.293 266.26C224.704 268.813 224.901 270.085 225.312 272.638C225.163 272.666 225.088 272.676 224.948 272.694C223.966 270.337 223.489 269.15 222.553 266.784C222.544 266.784 222.535 266.784 222.525 266.784C222.89 269.243 223.068 270.468 223.442 272.919C223.367 272.928 223.32 272.937 223.245 272.947C222.871 270.403 222.684 269.122 222.301 266.568Z" fill="#F9F8F4" stroke="#F9F8F4" stroke-width="0.353566" stroke-miterlimit="10"/>
<path d="M229.713 266.316C230.049 268.065 230.227 268.944 230.564 270.702C230.685 271.347 230.62 271.712 229.844 271.852C229.488 271.918 229.32 271.955 228.964 272.011C228.497 269.468 228.272 268.196 227.805 265.661C228.141 265.596 228.31 265.568 228.646 265.502C229.395 265.362 229.591 265.67 229.713 266.316ZM229.507 266.325C229.385 265.708 229.198 265.577 228.656 265.68C228.403 265.727 228.272 265.755 228.02 265.801C228.459 268.205 228.684 269.402 229.123 271.806C229.385 271.759 229.516 271.731 229.778 271.684C230.33 271.581 230.47 271.385 230.349 270.768C230.021 268.991 229.853 268.102 229.507 266.325Z" fill="#F9F8F4" stroke="#F9F8F4" stroke-width="0.353566" stroke-miterlimit="10"/>
<path d="M239.718 268.729C239.905 269.468 239.55 269.786 239.063 269.907C238.586 270.029 238.119 269.907 237.941 269.168C237.511 267.373 237.286 266.475 236.856 264.679C236.678 263.94 237.024 263.632 237.483 263.51C237.941 263.398 238.399 263.51 238.586 264.249C238.68 264.623 238.727 264.819 238.829 265.193C238.755 265.212 238.708 265.221 238.633 265.24C238.54 264.866 238.493 264.67 238.399 264.296C238.25 263.706 237.904 263.594 237.539 263.688C237.174 263.781 236.922 264.034 237.062 264.632C237.501 266.428 237.716 267.326 238.156 269.121C238.296 269.711 238.661 269.832 239.035 269.739C239.409 269.645 239.681 269.374 239.522 268.785C239.428 268.392 239.372 268.205 239.278 267.812C239.363 267.793 239.4 267.784 239.475 267.765C239.568 268.139 239.615 268.336 239.718 268.729Z" fill="#F9F8F4" stroke="#F9F8F4" stroke-width="0.353566" stroke-miterlimit="10"/>
<path d="M245.038 267.281C245.253 268.01 244.898 268.347 244.421 268.478C243.944 268.609 243.476 268.506 243.271 267.776C242.681 265.644 242.382 264.578 241.793 262.436C241.868 262.417 241.905 262.408 241.989 262.38C242.588 264.512 242.878 265.578 243.476 267.72C243.645 268.309 244 268.403 244.374 268.3C244.748 268.197 245.01 267.926 244.833 267.337C244.215 265.204 243.916 264.138 243.299 262.015C243.374 261.996 243.411 261.978 243.495 261.959C244.122 264.091 244.421 265.148 245.038 267.281Z" fill="#F9F8F4" stroke="#F9F8F4" stroke-width="0.353566" stroke-miterlimit="10"/>
<path d="M248.622 260.565C248.304 260.668 248.145 260.714 247.827 260.817C248.594 263.212 248.978 264.409 249.744 266.803C249.66 266.831 249.623 266.84 249.548 266.868C248.781 264.474 248.407 263.277 247.64 260.883C247.322 260.986 247.163 261.032 246.845 261.135C246.826 261.07 246.817 261.032 246.789 260.967C247.5 260.743 247.855 260.63 248.566 260.396C248.585 260.471 248.603 260.499 248.622 260.565Z" fill="#F9F8F4" stroke="#F9F8F4" stroke-width="0.353566" stroke-miterlimit="10"/>
<path d="M253.682 260.657C253.551 260.283 253.486 260.105 253.355 259.731C253.149 259.161 252.803 259.076 252.448 259.207C252.092 259.329 251.868 259.619 252.074 260.189C252.186 260.517 252.251 260.685 252.364 261.022C252.831 262.359 254.309 261.751 254.833 263.201C254.954 263.528 255.01 263.696 255.132 264.024C255.384 264.735 255.067 265.081 254.59 265.249C254.113 265.417 253.645 265.343 253.402 264.632C253.271 264.258 253.205 264.071 253.074 263.706C253.149 263.678 253.187 263.668 253.261 263.64C253.392 264.014 253.458 264.202 253.589 264.566C253.785 265.137 254.15 265.212 254.524 265.081C254.908 264.95 255.132 264.66 254.926 264.099C254.805 263.771 254.749 263.603 254.627 263.276C254.15 261.938 252.663 262.546 252.158 261.096C252.046 260.769 251.98 260.601 251.868 260.264C251.625 259.553 251.924 259.207 252.382 259.048C252.841 258.889 253.29 258.964 253.542 259.675C253.673 260.049 253.738 260.227 253.879 260.601C253.804 260.61 253.767 260.629 253.682 260.657Z" fill="#F9F8F4" stroke="#F9F8F4" stroke-width="0.353566" stroke-miterlimit="10"/>
</g>
<defs>
<clipPath id="clip0">
<rect width="239.21" height="150.801" fill="white" transform="translate(81.082 124.082)"/>
</clipPath>
</defs>
</svg>
