<svg width="400" height="400" viewBox="0 0 400 400" fill="none" xmlns="http://www.w3.org/2000/svg">
<path d="M277.536 166.666H252.174L236.956 181.159V235.507H222.463V210.144H208.695V247.825H226.811L236.232 239.854V247.825H250.724V204.347H262.318L277.536 191.304V166.666Z" fill="#6BB0FF"/>
<path d="M214.862 192.156V204.79H172.719L192.867 179.586H174.294V166.945H214.862V173.269L198.005 192.156H214.862Z" fill="#F9F8F4"/>
<path d="M232.581 163.791H218.723V151.08H232.581V163.791ZM218.726 204.795V166.947H232.584V204.795H218.726Z" fill="#F9F8F4"/>
<path d="M263.762 179.711H250.719V192.03H263.762V179.711Z" fill="black"/>
<path d="M121.287 211.385H142.073V224.026H119.647V236.596H142.073V249.233H105.789V225.606L121.287 211.385Z" fill="#F9F8F4"/>
<path d="M159.792 249.232H145.934V198.82H159.792V249.232Z" fill="#F9F8F4"/>
<path d="M179.215 211.385H205.072V235.089L189.712 249.233H163.641V225.536L179.215 211.385ZM177.499 224.029V236.599H191.211V224.029H177.499Z" fill="#F9F8F4"/>
<path d="M295.643 235.09L280.286 249.231H254.215V225.534L269.789 211.386H281.788V198.822H295.647V235.09H295.643ZM268.073 224.027V236.597H281.785V224.027H268.073Z" fill="#F9F8F4"/>
</svg>
