<svg width="400" height="400" viewBox="0 0 400 400" fill="none" xmlns="http://www.w3.org/2000/svg">
<g clip-path="url(#clip0)">
<path d="M137.909 197.542C147.799 199.306 154.772 203.944 154.772 212.3C154.772 218.52 151.099 223.903 145.727 226.872C140.922 229.469 134.517 230.769 126.883 230.769H101.449V227.336C108.704 226.595 109.456 226.131 109.456 218.334V182.97C109.456 175.173 108.229 174.34 101.542 173.872V170.439H130.183C137.345 170.439 141.864 171.367 145.634 173.686C149.119 175.914 151.38 179.442 151.38 183.989C151.38 191.695 144.033 196.333 137.909 197.542ZM125.942 196.333C134.89 196.333 138.19 192.527 138.19 185.657C138.19 177.582 132.818 174.522 127.64 174.522C125.379 174.522 123.685 175.173 123.117 175.636C122.457 176.382 122.268 177.678 122.268 179.628V196.337H125.942V196.333ZM122.268 218.147C122.268 224.831 124.529 226.777 129.615 226.777C134.987 226.686 140.733 222.23 140.733 213.228C140.733 204.598 136.118 200.329 125.568 200.329H122.268V218.147V218.147Z" fill="#F9F8F4"/>
<path d="M237.025 231.884C234.483 231.884 232.41 231.047 231.183 229.933C229.863 228.82 229.203 227.519 228.732 226.501C225.151 228.82 220.536 231.884 218.745 231.884C210.641 231.884 205.934 225.664 205.934 219.912C205.934 214.993 208.195 212.765 213.189 210.815C218.745 208.773 226.189 206.545 228.358 204.69V200.607C228.358 195.779 226.568 193.087 222.516 193.087C220.914 193.087 219.594 193.829 218.745 194.942C217.614 196.429 217.236 198.284 216.484 201.067C215.824 203.572 214.319 204.222 212.432 204.222C209.981 204.222 206.875 201.994 206.875 199.394C206.875 197.725 208.006 196.516 210.175 195.033C214.416 192.251 219.973 189.559 225.248 188.445C229.018 188.445 232.221 189.282 234.953 191.137C239.005 193.92 240.136 197.82 240.136 202.554C240.136 207.1 240.136 214.061 240.136 218.608C240.136 223.064 241.641 224.177 243.15 224.177C244.091 224.177 245.033 223.9 246.071 223.432L247.105 226.587L237.025 231.884ZM228.358 208.496C226.664 209.423 224.966 210.351 223.083 211.374C220.162 212.861 218.468 214.529 218.468 217.685C218.468 222.881 222.142 224.741 224.214 224.741C225.534 224.741 226.849 224.65 228.358 223.254C228.358 218.89 228.358 212.856 228.358 208.496Z" fill="#F9F8F4"/>
<path d="M277.071 230.77V227.615C281.026 227.06 281.312 226.687 281.312 220.285V204.409C281.312 197.816 278.012 195.775 274.717 195.775C272.266 195.775 270.194 196.702 267.651 198.562V221.022C267.651 226.683 268.029 227.055 271.892 227.61V230.766H250.035V227.61C254.936 226.774 255.499 226.683 255.499 220.649V201.349C255.499 195.779 254.747 195.502 250.603 194.665V191.696C256.067 191.046 262.57 189.841 267.84 188.168C267.748 189.468 267.651 192.715 267.651 194.851C269.534 193.551 271.514 192.16 273.679 190.86C276.507 189.191 278.294 188.445 281.026 188.445C288.659 188.445 293.459 193.92 293.459 203.386V220.927C293.459 226.683 294.022 226.96 298.545 227.61V230.766H277.071V230.77Z" fill="#F9F8F4"/>
<path d="M201.858 211.807C198.528 223.202 184.577 233.366 172.9 230.739C171.444 230.405 166.085 229.196 162.663 224.454C155.276 214.234 161.827 199.237 171.026 192.935C176.724 189.03 184.049 187.201 190.741 189.29C193.565 190.174 196.236 191.735 198.326 193.854C198.7 194.231 198.612 194.855 198.167 195.146C194.982 197.196 193.055 202.332 188.048 208.149C181.312 215.959 177.12 216.085 177.168 216.917C177.23 217.918 184.014 215.495 191.977 209.835C194.63 207.954 198.299 203.836 201.159 200.932C201.674 200.408 202.589 200.724 202.655 201.452C202.989 205.08 202.312 210.273 201.858 211.807Z" fill="#EAB57F"/>
<path d="M167.467 179.876H164.515V179.538H165.025C165.215 179.538 165.347 179.503 165.421 179.425C165.496 179.352 165.536 179.239 165.536 179.087V171.212C165.536 170.913 165.518 170.744 165.479 170.705C165.439 170.666 165.289 170.648 165.025 170.648C164.493 170.648 164.128 170.744 163.917 170.93C163.71 171.116 163.455 171.624 163.151 172.447L162.812 172.391L163.323 170.254H168.712L169.165 172.391L168.88 172.447C168.576 171.658 168.338 171.164 168.171 170.956C168 170.752 167.652 170.648 167.12 170.648C166.741 170.648 166.535 170.666 166.495 170.705C166.455 170.744 166.438 170.93 166.438 171.268V179.087C166.438 179.239 166.486 179.352 166.579 179.425C166.671 179.499 166.794 179.538 166.948 179.538H167.458V179.876H167.467Z" fill="#F9F8F4" stroke="#F9F8F4" stroke-width="0.4" stroke-miterlimit="10"/>
<path d="M181.093 179.087C181.093 179.239 181.142 179.351 181.234 179.425C181.326 179.499 181.45 179.538 181.604 179.538H181.89V179.876H179.391V179.538H179.677C179.866 179.538 179.998 179.503 180.073 179.425C180.147 179.351 180.187 179.239 180.187 179.087V174.982H176.839V179.087C176.839 179.239 176.887 179.351 176.98 179.425C177.072 179.499 177.195 179.538 177.349 179.538H177.635V179.876H175.141V179.538H175.422C175.611 179.538 175.743 179.503 175.818 179.425C175.893 179.351 175.933 179.239 175.933 179.087V171.042C175.933 170.895 175.893 170.782 175.818 170.704C175.743 170.631 175.611 170.592 175.422 170.592H175.193V170.258H177.578V170.596H177.349C177.2 170.596 177.076 170.635 176.98 170.709C176.883 170.782 176.839 170.895 176.839 171.047V174.644H180.187V171.047C180.187 170.899 180.147 170.787 180.073 170.709C179.998 170.635 179.866 170.596 179.677 170.596H179.448V170.258H181.832V170.596H181.604C181.454 170.596 181.326 170.635 181.234 170.709C181.137 170.782 181.093 170.895 181.093 171.047V179.087V179.087Z" fill="#F9F8F4" stroke="#F9F8F4" stroke-width="0.4" stroke-miterlimit="10"/>
<path d="M187.854 170.596V170.258H193.415L194.04 172.169L193.754 172.282C193.45 171.718 193.129 171.298 192.79 171.016C192.452 170.735 192.073 170.596 191.655 170.596H190.067C189.917 170.596 189.79 170.635 189.697 170.709C189.601 170.782 189.557 170.895 189.557 171.047V174.531H191.202C191.581 174.531 191.853 174.44 192.025 174.25C192.196 174.063 192.28 173.782 192.28 173.405V173.071H192.619V176.387H192.28V176.161C192.28 175.749 192.196 175.429 192.025 175.203C191.853 174.978 191.581 174.865 191.202 174.865H189.557V179.082C189.557 179.234 189.605 179.347 189.697 179.421C189.79 179.494 189.913 179.533 190.067 179.533H191.541C192.108 179.533 192.592 179.373 192.988 179.056C193.384 178.74 193.697 178.242 193.926 177.565L194.211 177.678L193.587 179.871H187.797V179.533H188.136C188.325 179.533 188.457 179.499 188.532 179.421C188.606 179.347 188.646 179.234 188.646 179.082V171.042C188.646 170.895 188.606 170.782 188.532 170.704C188.457 170.631 188.325 170.592 188.136 170.592H187.854V170.596Z" fill="#F9F8F4" stroke="#F9F8F4" stroke-width="0.4" stroke-miterlimit="10"/>
<path d="M218.797 172.507C218.797 173.257 218.591 173.838 218.173 174.25C217.755 174.661 217.284 174.904 216.756 174.982L218.459 179.143C218.533 179.295 218.617 179.395 218.714 179.451C218.806 179.507 218.912 179.533 219.026 179.533H219.365V179.871H217.777L215.902 175.034H214.596V179.082C214.596 179.234 214.644 179.347 214.737 179.421C214.829 179.494 214.952 179.533 215.106 179.533H215.445V179.871H212.836V179.533H213.175C213.364 179.533 213.496 179.499 213.571 179.421C213.645 179.347 213.685 179.234 213.685 179.082V171.042C213.685 170.895 213.645 170.782 213.571 170.704C213.496 170.631 213.364 170.592 213.175 170.592H212.836V170.258H216.07C216.941 170.258 217.61 170.444 218.085 170.821C218.56 171.194 218.797 171.757 218.797 172.507ZM214.6 174.7H215.85C216.417 174.7 216.888 174.531 217.266 174.193C217.645 173.855 217.834 173.331 217.834 172.62C217.834 171.983 217.662 171.484 217.324 171.129C216.985 170.774 216.452 170.596 215.735 170.596H215.111C214.961 170.596 214.838 170.635 214.741 170.709C214.644 170.782 214.6 170.895 214.6 171.047V174.7Z" fill="#F9F8F4" stroke="#F9F8F4" stroke-width="0.4" stroke-miterlimit="10"/>
<path d="M231.744 175.038C231.744 176.577 231.44 177.786 230.837 178.666C230.23 179.546 229.478 179.988 228.567 179.988C227.696 179.988 226.948 179.537 226.328 178.635C225.703 177.734 225.391 176.538 225.391 175.038C225.391 173.577 225.685 172.394 226.271 171.497C226.856 170.595 227.621 170.145 228.567 170.145C229.548 170.145 230.327 170.621 230.895 171.579C231.458 172.533 231.744 173.686 231.744 175.038ZM226.464 175.038C226.464 176.65 226.662 177.821 227.058 178.553C227.454 179.286 227.956 179.65 228.563 179.65C229.205 179.65 229.715 179.303 230.094 178.609C230.472 177.916 230.661 176.724 230.661 175.038C230.661 173.69 230.499 172.602 230.177 171.774C229.856 170.951 229.315 170.535 228.558 170.535C227.916 170.535 227.406 170.912 227.027 171.662C226.653 172.411 226.464 173.538 226.464 175.038Z" fill="#F9F8F4" stroke="#F9F8F4" stroke-width="0.4" stroke-miterlimit="10"/>
<path d="M241.971 176.274H239.419L238.909 178.411C238.869 178.597 238.852 178.749 238.852 178.862C238.852 179.013 238.878 179.161 238.935 179.313C238.992 179.464 239.151 179.538 239.419 179.538H239.591V179.876H237.492V179.538H237.664C237.813 179.538 237.95 179.49 238.06 179.399C238.174 179.308 238.249 179.148 238.289 178.922L240.502 170.319L241.351 170.037L243.506 178.922C243.581 179.148 243.678 179.308 243.788 179.399C243.902 179.495 244.034 179.538 244.184 179.538H244.356V179.876H241.914V179.538H242.143C242.371 179.538 242.503 179.49 242.539 179.399C242.574 179.308 242.596 179.222 242.596 179.148C242.596 179 242.578 178.866 242.539 178.753L241.971 176.274ZM240.779 171.268H240.721L239.529 175.936H241.914L240.779 171.268Z" fill="#F9F8F4" stroke="#F9F8F4" stroke-width="0.4" stroke-miterlimit="10"/>
<path d="M253.268 175.265C252.248 174.814 251.548 174.42 251.17 174.086C250.791 173.748 250.602 173.223 250.602 172.513C250.602 171.949 250.84 171.416 251.311 170.909C251.781 170.402 252.454 170.15 253.326 170.15C253.704 170.15 254.065 170.207 254.403 170.319C254.742 170.471 254.989 170.545 255.143 170.545C255.257 170.545 255.358 170.519 255.455 170.462C255.547 170.406 255.635 170.302 255.71 170.155L255.939 172.461L255.653 172.573C255.314 171.784 254.962 171.251 254.601 170.97C254.241 170.688 253.779 170.549 253.211 170.549C252.494 170.549 252.001 170.749 251.737 171.139C251.473 171.533 251.341 171.953 251.341 172.404C251.341 172.816 251.464 173.145 251.711 173.388C251.957 173.631 252.626 173.999 253.726 174.485C254.632 174.849 255.288 175.265 255.684 175.737C256.08 176.205 256.278 176.76 256.278 177.402C256.278 178.078 256.04 178.68 255.569 179.205C255.094 179.729 254.408 179.994 253.497 179.994C253.119 179.994 252.78 179.92 252.476 179.768C252.138 179.656 251.869 179.599 251.68 179.599C251.566 179.599 251.451 179.638 251.341 179.712C251.227 179.786 251.095 179.881 250.945 179.994L250.492 177.237L250.831 177.124C251.095 178.061 251.464 178.706 251.94 179.066C252.41 179.421 252.952 179.599 253.559 179.599C254.201 179.599 254.685 179.413 255.006 179.036C255.327 178.663 255.49 178.117 255.49 177.406C255.49 177.033 255.31 176.665 254.949 176.309C254.584 175.95 254.025 175.603 253.268 175.265Z" fill="#F9F8F4" stroke="#F9F8F4" stroke-width="0.4" stroke-miterlimit="10"/>
<path d="M267.408 179.876H264.456V179.538H264.966C265.156 179.538 265.288 179.503 265.362 179.425C265.437 179.352 265.477 179.239 265.477 179.087V171.212C265.477 170.913 265.459 170.744 265.42 170.705C265.38 170.666 265.23 170.648 264.966 170.648C264.434 170.648 264.069 170.744 263.862 170.93C263.655 171.116 263.4 171.624 263.097 172.447L262.758 172.391L263.268 170.254H268.658L269.111 172.391L268.829 172.447C268.526 171.658 268.288 171.164 268.121 170.956C267.949 170.752 267.602 170.648 267.069 170.648C266.691 170.648 266.484 170.666 266.445 170.705C266.405 170.744 266.387 170.93 266.387 171.268V179.087C266.387 179.239 266.436 179.352 266.528 179.425C266.621 179.499 266.744 179.538 266.898 179.538H267.408V179.876V179.876Z" fill="#F9F8F4" stroke="#F9F8F4" stroke-width="0.4" stroke-miterlimit="10"/>
<path d="M275.307 170.596V170.258H280.868L281.493 172.169L281.211 172.282C280.907 171.718 280.586 171.298 280.247 171.016C279.909 170.735 279.53 170.596 279.112 170.596H277.524C277.375 170.596 277.251 170.635 277.155 170.709C277.058 170.782 277.014 170.895 277.014 171.047V174.531H278.659C279.038 174.531 279.31 174.44 279.482 174.25C279.653 174.063 279.737 173.782 279.737 173.405V173.071H280.076V176.387H279.737V176.161C279.737 175.749 279.653 175.429 279.482 175.203C279.31 174.978 279.038 174.865 278.659 174.865H277.014V179.082C277.014 179.234 277.062 179.347 277.155 179.421C277.247 179.494 277.37 179.533 277.524 179.533H278.998C279.565 179.533 280.049 179.373 280.445 179.056C280.841 178.74 281.154 178.242 281.383 177.565L281.669 177.678L281.044 179.871H275.254V179.533H275.593C275.782 179.533 275.914 179.499 275.989 179.421C276.063 179.347 276.103 179.234 276.103 179.082V171.042C276.103 170.895 276.063 170.782 275.989 170.704C275.914 170.631 275.782 170.592 275.593 170.592H275.307V170.596Z" fill="#F9F8F4" stroke="#F9F8F4" stroke-width="0.4" stroke-miterlimit="10"/>
<path d="M288.536 171.042C288.536 170.895 288.496 170.782 288.421 170.704C288.347 170.631 288.215 170.592 288.025 170.592H287.687V170.258H290.238C291.409 170.258 292.346 170.635 293.045 171.385C293.745 172.135 294.097 173.296 294.097 174.87C294.097 176.595 293.758 177.86 293.076 178.666C292.394 179.473 291.391 179.876 290.067 179.876H287.625V179.538H288.021C288.21 179.538 288.342 179.503 288.417 179.425C288.492 179.351 288.531 179.239 288.531 179.087V171.042H288.536ZM293.019 174.982C293.019 173.37 292.773 172.239 292.28 171.58C291.787 170.925 291.105 170.596 290.238 170.596C289.974 170.596 289.776 170.635 289.644 170.709C289.512 170.782 289.446 170.895 289.446 171.047V179.087C289.446 179.239 289.504 179.351 289.618 179.425C289.732 179.499 289.882 179.538 290.071 179.538C290.903 179.538 291.602 179.23 292.17 178.61C292.737 177.99 293.019 176.781 293.019 174.982Z" fill="#F9F8F4" stroke="#F9F8F4" stroke-width="0.4" stroke-miterlimit="10"/>
</g>
<defs>
<clipPath id="clip0">
<rect width="197.101" height="62.3188" fill="white" transform="translate(101.449 169.564)"/>
</clipPath>
</defs>
</svg>
