<svg width="400" height="400" viewBox="0 0 400 400" fill="none" xmlns="http://www.w3.org/2000/svg">
<path d="M122.789 155.441H134.104V173.492C134.567 173.075 135.194 172.568 135.983 171.965C136.772 171.363 137.759 170.784 138.94 170.229C140.122 169.674 141.525 169.186 143.151 168.77C144.772 168.354 146.651 168.144 148.788 168.144C151.896 168.144 154.596 168.655 156.891 169.67C159.187 170.689 161.09 172.041 162.596 173.729C164.103 175.418 165.217 177.353 165.934 179.525C166.652 181.702 167.013 183.946 167.013 186.261C167.013 188.759 166.596 191.181 165.76 193.516C164.923 195.855 163.682 197.925 162.037 199.728C160.392 201.532 158.362 202.979 155.948 204.069C153.537 205.156 150.774 205.699 147.67 205.699C145.862 205.699 144.249 205.524 142.833 205.179C141.418 204.831 140.153 204.414 139.039 203.931C137.925 203.443 136.962 202.936 136.153 202.404C135.341 201.873 134.659 201.397 134.1 200.981V204.454H122.789V155.441ZM144.205 176.128C142.905 176.223 141.64 176.489 140.407 176.925C139.178 177.365 138.072 178.023 137.097 178.903C136.122 179.783 135.345 180.881 134.762 182.201C134.183 183.522 133.894 185.084 133.894 186.887C133.894 187.954 133.973 188.878 134.135 189.663C134.298 190.452 134.508 191.122 134.762 191.677C135.019 192.232 135.273 192.672 135.527 192.997C135.781 193.322 135.979 193.552 136.118 193.69C136.72 194.432 137.418 195.046 138.207 195.53C138.996 196.018 139.785 196.398 140.574 196.676C141.363 196.953 142.128 197.151 142.873 197.266C143.614 197.381 144.288 197.441 144.895 197.441C146.195 197.441 147.46 197.231 148.689 196.814C149.918 196.398 151.012 195.764 151.964 194.904C152.915 194.047 153.68 192.949 154.263 191.605C154.842 190.261 155.135 188.668 155.135 186.816C155.135 185.151 154.877 183.589 154.37 182.13C153.859 180.671 152.978 179.411 151.726 178.348C150.798 177.563 149.68 176.972 148.384 176.576C147.087 176.187 145.692 176.037 144.205 176.128Z" fill="#F9F8F4"/>
<path d="M184.787 169.326V204.455H173.469V169.326H184.787Z" fill="#F9F8F4"/>
<path d="M193.742 169.324H205.061V174.375C205.521 173.907 206.135 173.324 206.9 172.622C207.666 171.921 208.645 171.259 209.85 170.628C211.051 169.998 212.534 169.451 214.294 168.983C216.05 168.515 218.136 168.281 220.542 168.281C222.671 168.281 224.511 168.491 226.061 168.908C227.611 169.324 228.919 169.812 229.981 170.367C231.044 170.922 231.892 171.477 232.515 172.032C233.137 172.587 233.565 173.003 233.799 173.28C234.537 174.161 235.119 175.084 235.536 176.06C235.952 177.031 236.265 178.014 236.471 179.009C236.681 180.004 236.808 181.011 236.852 182.03C236.895 183.049 236.919 184.044 236.919 185.015V204.524L225.466 204.453V186.518C225.466 185.872 225.442 185.19 225.395 184.476C225.347 183.758 225.232 183.045 225.046 182.331C224.859 181.614 224.582 180.924 224.213 180.254C223.841 179.584 223.333 178.973 222.687 178.418C222.084 177.911 221.264 177.451 220.221 177.035C219.178 176.619 217.688 176.412 215.741 176.412C214.12 176.412 212.708 176.587 211.507 176.932C210.302 177.281 209.331 177.661 208.589 178.073C207.8 178.537 207.166 179.08 206.678 179.703C206.195 180.325 205.834 180.971 205.604 181.641C205.37 182.311 205.223 182.993 205.152 183.687C205.081 184.381 205.049 185.003 205.049 185.554V204.461H193.73V169.324H193.742Z" fill="#F9F8F4"/>
<path d="M245.879 180.85H265.527V189.389H245.879V180.85Z" fill="#F9F8F4"/>
<path d="M118.246 230.334H137.894V238.873H118.246V230.334Z" fill="#F9F8F4"/>
<path d="M188.436 249.633C188.528 250.561 188.654 251.298 188.817 251.853C188.98 252.408 189.384 253.102 190.03 253.935H177.669C177.391 253.102 177.221 252.397 177.15 251.818C177.078 251.239 177.023 250.696 176.975 250.188C176.048 250.743 175.072 251.298 174.053 251.853C173.035 252.408 171.897 252.908 170.644 253.344C169.391 253.784 168 254.141 166.469 254.418C164.939 254.696 163.199 254.835 161.252 254.835C159.861 254.835 158.481 254.763 157.113 254.625C155.746 254.486 154.39 254.232 153.042 253.859C150.536 253.166 148.463 251.917 146.814 250.109C145.168 248.305 144.344 245.99 144.344 243.167C144.344 240.392 144.958 238.24 146.187 236.709C147.416 235.183 149.05 234.061 151.091 233.343C153.133 232.626 155.452 232.198 158.049 232.059C160.646 231.92 163.337 231.829 166.121 231.781H176.975C176.975 231.04 176.94 230.291 176.872 229.526C176.801 228.76 176.468 228.079 175.865 227.476C175.263 226.873 174.279 226.39 172.916 226.017C171.552 225.648 169.617 225.462 167.12 225.462C166.148 225.462 165.165 225.498 164.17 225.565C163.175 225.636 162.235 225.775 161.359 225.981C160.479 226.192 159.726 226.513 159.103 226.953C158.477 227.393 158.049 227.96 157.819 228.653H146.223C146.314 228.146 146.441 227.555 146.603 226.881C146.766 226.211 147.032 225.529 147.4 224.832C147.769 224.138 148.269 223.42 148.895 222.679C149.521 221.938 150.342 221.244 151.361 220.598C152.562 219.856 153.918 219.278 155.42 218.861C156.923 218.445 158.429 218.144 159.932 217.957C161.435 217.771 162.858 217.656 164.202 217.608C165.546 217.565 166.632 217.537 167.464 217.537C170.981 217.537 173.942 217.747 176.341 218.163C178.739 218.58 180.714 219.17 182.256 219.932C183.798 220.697 184.995 221.577 185.844 222.572C186.692 223.567 187.303 224.645 187.671 225.799C188.04 226.957 188.258 228.158 188.325 229.411C188.397 230.659 188.429 231.888 188.429 233.09V249.633H188.436ZM176.979 237.692C173.169 237.692 169.918 237.716 167.227 237.764C164.535 237.811 162.374 238.018 160.749 238.39C160.515 238.438 160.17 238.529 159.702 238.668C159.238 238.806 158.762 239.04 158.275 239.361C157.787 239.687 157.355 240.127 156.986 240.682C156.614 241.237 156.431 241.93 156.431 242.763C156.431 243.873 156.756 244.729 157.407 245.332C158.057 245.935 158.822 246.386 159.706 246.684C160.586 246.985 161.446 247.16 162.283 247.203C163.119 247.251 163.722 247.275 164.095 247.275C165.3 247.275 166.485 247.16 167.647 246.926C168.808 246.696 169.911 246.347 170.957 245.883C172 245.419 172.943 244.864 173.78 244.218C174.616 243.572 175.314 242.83 175.869 241.998C176.424 241.213 176.737 240.495 176.809 239.845C176.876 239.199 176.936 238.481 176.979 237.692Z" fill="#F9F8F4"/>
<path d="M208.782 224.848C209.198 224.202 209.717 223.473 210.343 222.66C210.97 221.851 211.838 221.074 212.948 220.333C214.058 219.591 215.458 218.969 217.147 218.458C218.835 217.95 220.952 217.673 223.498 217.625V227.968C222.986 227.925 222.514 227.889 222.074 227.865C221.634 227.841 221.111 227.83 220.512 227.83C220.278 227.83 219.874 227.841 219.295 227.865C218.716 227.889 218.066 227.948 217.353 228.04C216.635 228.135 215.882 228.281 215.097 228.492C214.308 228.702 213.571 228.991 212.877 229.36C211.117 230.287 209.995 231.409 209.511 232.726C209.027 234.046 208.782 235.469 208.782 236.995V253.935H197.324V218.806H208.782V224.848Z" fill="#F9F8F4"/>
<path d="M226.746 218.809H238.965L247.294 240.677C247.48 241.279 247.643 241.775 247.782 242.167C247.92 242.56 248.035 242.944 248.13 243.313C248.222 243.686 248.317 244.078 248.408 244.494C248.499 244.911 248.594 245.422 248.685 246.021C248.729 245.374 248.788 244.831 248.86 244.391C248.931 243.951 249.01 243.535 249.102 243.142C249.193 242.75 249.312 242.346 249.451 241.929C249.589 241.513 249.776 240.982 250.006 240.332L257.986 218.809H270.066L253.542 256.229C252.523 258.358 251.599 260.138 250.763 261.573C249.93 263.008 248.967 264.154 247.881 265.01C246.794 265.867 245.498 266.481 243.991 266.85C242.485 267.219 240.554 267.405 238.195 267.405C236.808 267.405 235.408 267.369 233.997 267.302C232.586 267.23 231.162 267.151 229.727 267.06V258.731C230.512 258.822 231.44 258.905 232.502 258.973C233.565 259.044 234.56 259.076 235.488 259.076C236.598 259.076 237.43 259.004 237.989 258.865C238.544 258.727 238.961 258.588 239.238 258.449C239.516 258.31 239.746 258.16 239.932 257.997C240.114 257.835 240.324 257.605 240.558 257.303C240.788 257.002 241.054 256.586 241.355 256.055C241.656 255.523 242.013 254.814 242.429 253.938L226.746 218.809Z" fill="#F9F8F4"/>
<path d="M273.742 245.068H277.342C277.489 245.068 277.635 245.072 277.774 245.084C277.917 245.096 278.052 245.12 278.186 245.16C278.321 245.199 278.448 245.255 278.567 245.33C278.69 245.405 278.805 245.504 278.912 245.627C279.047 245.786 279.134 245.956 279.181 246.135C279.229 246.317 279.253 246.484 279.253 246.634C279.253 246.837 279.217 247.043 279.142 247.257C279.067 247.471 278.936 247.645 278.749 247.788C278.607 247.895 278.456 247.974 278.293 248.018C278.131 248.062 278 248.093 277.897 248.113L279.483 250.297H277.941L276.541 248.192H275.051V250.297H273.738V245.068H273.742ZM275.054 247.269H277.144C277.211 247.269 277.294 247.265 277.386 247.253C277.477 247.245 277.564 247.217 277.643 247.173C277.727 247.13 277.794 247.07 277.845 246.987C277.901 246.904 277.929 246.789 277.929 246.642C277.929 246.587 277.925 246.523 277.909 246.444C277.897 246.369 277.869 246.297 277.826 246.23C277.802 246.202 277.77 246.17 277.738 246.139C277.707 246.107 277.663 246.079 277.608 246.056C277.552 246.032 277.485 246.016 277.401 246C277.318 245.984 277.211 245.976 277.084 245.976H275.054V247.269V247.269Z" fill="#F9F8F4"/>
<path d="M276.365 241.467C272.928 241.467 270.129 244.262 270.129 247.703C270.129 251.144 272.928 253.939 276.365 253.939C279.806 253.939 282.605 251.144 282.605 247.703C282.605 244.262 279.806 241.467 276.365 241.467ZM276.365 253.063C273.411 253.063 271.009 250.656 271.009 247.703C271.009 244.749 273.411 242.343 276.365 242.343C279.322 242.343 281.725 244.749 281.725 247.703C281.725 250.656 279.322 253.063 276.365 253.063Z" fill="#F9F8F4"/>
<path d="M192.478 147.362C192.478 147.469 192.399 147.56 192.296 147.584C185.679 148.694 180.454 153.915 179.344 160.532C179.32 160.635 179.229 160.71 179.122 160.71C179.015 160.71 178.92 160.635 178.9 160.532C177.79 153.927 172.588 148.714 165.988 147.588C165.972 147.588 165.952 147.584 165.936 147.584C165.837 147.556 165.766 147.469 165.766 147.362C165.766 147.255 165.837 147.168 165.936 147.14C165.952 147.14 165.972 147.136 165.988 147.136C172.588 146.01 177.794 140.793 178.9 134.188C178.924 134.085 179.015 134.006 179.122 134.006C179.229 134.006 179.32 134.085 179.344 134.188C180.454 140.805 185.679 146.03 192.296 147.14C192.399 147.164 192.478 147.255 192.478 147.362Z" fill="#EF0000"/>
</svg>
