<svg width="400" height="400" viewBox="0 0 400 400" fill="none" xmlns="http://www.w3.org/2000/svg">
<g clip-path="url(#clip0)">
<path d="M235.072 168.634H244.351C252.292 168.634 258.894 162.63 259.396 154.95C259.653 150.853 258.263 146.949 255.471 143.959C252.704 141.008 248.817 139.32 244.789 139.32H236.771C236.436 138.032 235.741 136.859 234.699 135.803L227.298 128.407C224.197 125.301 219.139 125.301 215.986 128.458C214.48 129.979 213.644 131.989 213.656 134.141C213.669 136.28 214.519 138.29 216.037 139.784C216.797 140.519 217.595 141.318 218.431 142.142C216.333 144.075 215.021 146.845 215.021 149.912V175.399H199.577C190.027 175.399 180.774 180.051 175.999 187.254C172.19 193.001 172.202 199.301 172.228 205.396V258.509H147.853C143.979 258.509 140.8 261.408 140.594 265.119C140.504 267.052 141.173 268.895 142.499 270.299C143.811 271.678 145.652 272.464 147.557 272.464H183.978C186.99 272.464 189.448 270.016 189.448 266.988V231.515C191.018 233.061 192.974 234.349 195.291 235.342V266.846C195.291 269.951 197.801 272.464 200.902 272.464H240.22C244.068 272.464 247.195 269.333 247.195 265.493C247.195 261.64 244.068 258.509 240.22 258.509H214.158V236.102C220.966 235.857 226.488 233.499 230.542 229.092C237.582 221.49 238.135 210.048 238.071 205.796H241.816L246.397 210.383C247.71 211.697 249.448 212.419 251.301 212.419C253.154 212.419 254.892 211.697 256.204 210.383C257.517 209.068 258.238 207.329 258.238 205.473C258.238 203.618 257.517 201.878 256.204 200.564L248.65 193.013C247.504 191.854 245.973 191.222 244.351 191.222H234.325V169.382C234.325 168.969 234.66 168.634 235.072 168.634ZM218.74 137.027C217.955 136.254 217.517 135.223 217.517 134.115C217.517 133.02 217.942 131.976 218.766 131.138C220.323 129.592 223.026 129.592 224.57 131.138L231.957 138.547C232.215 138.805 232.421 139.05 232.601 139.32H225.6C224.261 139.32 222.974 139.565 221.803 140.029C220.748 138.998 219.692 137.967 218.74 137.027ZM226.127 195.088H244.351C244.943 195.088 245.496 195.32 245.921 195.745L253.476 203.296C254.055 203.876 254.377 204.649 254.377 205.473C254.377 206.298 254.055 207.071 253.476 207.651C252.318 208.811 250.284 208.811 249.126 207.651L243.978 202.497C243.617 202.136 243.128 201.93 242.614 201.93H236.037C234.982 201.93 234.107 202.793 234.107 203.863C234.107 204.005 234.132 204.159 234.171 204.301C234.171 204.314 234.171 204.314 234.171 204.327V204.443C234.184 204.584 235.136 218.449 227.697 226.489C225.96 228.358 223.901 229.775 221.52 230.729C221.803 230.458 222.06 230.175 222.318 229.891C224.712 227.211 226.269 224.067 226.809 220.82C227.646 215.82 226.372 210.679 223.232 206.363C219.782 201.621 214.557 198.425 208.882 197.601C206.771 197.278 204.635 197.317 202.537 197.678C200.516 198.026 198.457 198.683 196.411 199.636C195.445 200.075 195.021 201.234 195.471 202.201C195.909 203.167 197.054 203.579 198.032 203.141C199.77 202.329 201.507 201.775 203.193 201.479C204.892 201.196 206.617 201.17 208.315 201.415C212.974 202.098 217.273 204.739 220.117 208.63C222.64 212.109 223.669 216.207 223 220.176C222.575 222.701 221.353 225.175 219.435 227.301C218.006 228.899 216.23 230.329 214.158 231.553C213.708 231.811 213.257 232.056 212.82 232.275C212.614 232.378 212.421 232.481 212.215 232.571C212.022 232.649 211.79 232.739 211.571 232.842C211.571 232.842 211.546 232.842 211.546 232.855C210.902 233.164 210.297 233.666 210.297 234.671V260.442C210.297 261.512 211.172 262.375 212.228 262.375H240.22C241.944 262.375 243.334 263.766 243.334 265.493C243.334 267.207 241.944 268.598 240.22 268.598H200.902C199.937 268.598 199.152 267.812 199.152 266.846V234.027C199.152 233.215 198.637 232.494 197.878 232.21C193.76 230.703 190.954 228.242 189.525 224.93C189.487 224.827 189.448 224.737 189.409 224.634C189.409 224.621 189.409 224.621 189.409 224.621C189.332 224.453 189.268 224.286 189.216 224.118C186.926 217.586 190.156 209.97 190.195 209.893C190.619 208.914 190.169 207.767 189.191 207.342C188.213 206.917 187.08 207.368 186.655 208.347C186.488 208.733 182.756 217.457 185.587 225.446V266.988C185.587 267.877 184.854 268.598 183.978 268.598H147.557C146.694 268.598 145.896 268.263 145.304 267.632C144.712 267.014 144.416 266.189 144.455 265.326C144.545 263.702 146.064 262.375 147.853 262.375H174.159C175.227 262.375 176.089 261.512 176.089 260.442V205.383C176.063 199.611 176.051 194.16 179.217 189.393C183.296 183.246 191.288 179.265 199.577 179.265H216.951C218.019 179.265 218.882 178.401 218.882 177.332V149.912C218.882 146.201 221.893 143.186 225.6 143.186H244.789C247.8 143.186 250.593 144.397 252.652 146.601C254.711 148.804 255.728 151.677 255.535 154.705C255.175 160.349 250.258 164.769 244.351 164.769H235.072C232.537 164.769 230.464 166.843 230.464 169.382V191.222H226.127C225.059 191.222 224.197 192.086 224.197 193.155C224.197 194.225 225.059 195.088 226.127 195.088Z" fill="#F9F8F4"/>
</g>
<defs>
<clipPath id="clip0">
<rect width="118.841" height="146.377" fill="white" transform="translate(140.578 126.088)"/>
</clipPath>
</defs>
</svg>
