<svg width="400" height="400" viewBox="0 0 400 400" fill="none" xmlns="http://www.w3.org/2000/svg">
<g clip-path="url(#clip0)">
<path d="M149.273 223.357C152.016 220.036 155.508 217.789 159.708 216.581C160.441 216.369 161.196 216.22 161.949 216.084C167.135 215.142 172.101 217.227 174.289 222.364C175.221 224.552 176 226.803 176.824 229.034C181.396 241.412 185.955 253.797 190.534 266.172C191.02 267.487 191.526 268.815 192.206 270.039C193.516 272.403 195.487 274.037 198.131 274.855C202.723 276.271 207.289 273.838 209.184 270.556C209.988 269.159 210.606 267.636 211.164 266.123C216.078 252.832 220.942 239.525 225.873 226.241C226.546 224.426 227.374 222.637 228.359 220.968C229.722 218.665 231.663 216.879 234.38 216.279C235.848 215.954 237.447 215.723 238.909 215.951C244.016 216.746 248.506 218.834 251.909 222.841C252.041 222.997 252.083 223.228 252.169 223.426C249.873 228.524 241.205 232.066 234.738 230.557C234.337 228.232 234.948 227.095 236.869 226.709C237.94 226.494 239.047 226.436 240.105 226.183C241.803 225.777 243.468 225.254 244.732 223.663C244.414 223.237 244.194 222.711 243.796 222.458C241.822 221.198 239.645 220.549 237.28 220.601C234.761 220.656 232.862 221.747 231.775 224.023C231.217 225.192 230.767 226.416 230.32 227.631C225.61 240.422 220.913 253.215 216.203 266.006C215.569 267.73 214.981 269.484 214.203 271.147C211.618 276.657 207.298 279.537 201.061 279.709C194.824 279.878 189.424 276.498 187.135 270.38C184.671 263.795 182.234 257.2 179.8 250.601C176.962 242.883 174.141 235.161 171.287 227.452C170.912 226.442 170.488 225.429 169.92 224.517C167.427 220.519 163.354 219.461 159.17 221.679C158.319 222.13 157.357 222.497 156.982 223.78C157.357 224.13 157.751 224.624 158.25 224.949C160.142 226.176 162.316 226.459 164.507 226.627C165.289 226.686 166.104 226.767 166.511 227.511C166.967 228.342 167.595 229.248 167.161 230.225C166.728 231.196 165.663 230.962 164.826 230.998C158.707 231.274 153.826 228.735 149.75 224.423C149.543 224.208 149.487 223.854 149.273 223.357Z" fill="#F9F8F4"/>
<path d="M214.928 222.003C212.445 221.656 209.965 221.289 207.479 220.961C203.018 220.373 198.551 220.341 194.094 220.997C192.261 221.266 190.419 221.49 188.602 221.844C186.083 222.335 183.863 221.776 181.787 220.331C175.724 216.107 171.861 210.398 170.009 203.339C169.68 202.095 169.47 200.799 169.384 199.517C169.283 197.987 170.002 197.393 171.592 197.458C173.04 197.516 173.779 198.163 173.983 199.604C174.058 200.137 173.98 200.692 174.075 201.218C174.288 202.377 174.387 203.605 174.85 204.667C176.696 208.904 179.475 212.479 183.16 215.324C185.354 217.016 187.87 217.506 190.593 216.896C194.232 216.077 197.911 215.801 201.645 215.818C205.051 215.834 208.425 216.165 211.722 216.866C214.564 217.47 216.82 216.827 218.988 215.032C223.064 211.655 225.787 207.482 227.074 202.39C227.337 201.345 227.508 200.273 227.781 199.231C228.129 197.887 228.96 197.396 230.494 197.549C231.666 197.666 232.192 198.364 232.129 199.897C232.09 200.864 232.034 201.855 231.811 202.793C229.932 210.616 225.675 216.775 218.666 220.994C217.5 221.692 216.291 222.065 214.928 222.003Z" fill="#F9F8F4"/>
<path d="M230.05 168.558C230.934 167.502 231.879 167.035 233.049 167.317C234.205 167.597 234.845 168.457 235.259 169.525C237.788 176.036 236.872 182.342 231.052 187.06C227.498 189.944 223.336 191.519 218.961 192.597C217.174 193.038 215.309 193.207 213.466 193.366C208.779 193.772 204.141 194.321 199.691 195.987C197.181 196.925 196.245 196.315 195.168 193.347C195.667 193.022 196.163 192.6 196.735 192.353C200.867 190.567 205.14 189.359 209.689 189.184C213.519 189.038 217.303 188.508 220.948 187.258C223.336 186.44 225.603 185.372 227.623 183.852C231.636 180.832 232.832 177.205 231.377 172.422C230.973 171.097 230.48 169.801 230.05 168.558Z" fill="#F9F8F4"/>
<path d="M163.758 182.761C163.853 176.01 168.547 169.876 175.296 167.85C176.541 167.476 177.849 167.295 179.13 167.038C183.199 166.23 187.206 165.21 191.121 163.83C192.14 163.473 193.21 163.158 194.278 163.06C195.523 162.947 196.636 163.388 197.349 164.531C197.737 165.151 197.681 165.863 197.066 166.226C196.416 166.609 195.726 166.95 195.023 167.233C190.465 169.058 185.784 170.49 180.923 171.298C179.74 171.496 178.542 171.669 177.399 172.01C173.657 173.13 170.872 175.442 169.128 178.894C168.061 181.004 168.034 183.268 168.524 185.537C168.727 186.486 169.056 187.408 169.276 188.353C169.506 189.34 168.964 190.009 167.916 190.106C165.978 190.288 164.605 189.33 164.198 187.265C163.909 185.794 163.896 184.264 163.758 182.761Z" fill="#F9F8F4"/>
<path d="M225.8 144.291C226.145 144.768 226.582 145.236 226.864 145.781C232.458 156.656 229.025 172.36 213.417 177.351C212.803 177.546 212.153 177.675 211.512 177.727C210.185 177.835 209.216 177.257 208.549 176.114C207.856 174.928 208.178 174.149 209.535 173.678C211.486 173.003 213.503 172.447 215.342 171.545C223.32 167.625 226.253 158.764 224.066 151.263C223.764 150.23 223.304 149.217 223.176 148.165C223.077 147.36 223.32 146.486 223.543 145.678C223.668 145.21 224.062 145.07 225.8 144.291Z" fill="#F9F8F4"/>
<path d="M198.688 142.969C199.427 146.437 199.02 147.606 196.432 149.11C193.118 151.032 189.561 152.357 185.78 153.088C184.391 153.357 183.001 153.62 181.618 153.919C178.452 154.604 176.445 156.526 175.483 159.566C175.23 160.365 174.898 161.137 174.586 161.962C173.157 161.907 172.455 161.147 171.926 160.163C171.4 159.179 171.144 158.16 171.541 157.052C172.494 154.416 174.14 152.35 176.61 150.938C178.337 149.951 180.236 149.399 182.164 149.1C187.419 148.288 192.29 146.567 196.688 143.586C197.043 143.346 197.437 143.145 197.834 142.982C198.008 142.908 198.245 142.969 198.688 142.969Z" fill="#F9F8F4"/>
<path d="M209.418 118.84C209.789 119.139 210.249 119.418 210.59 119.798C213.957 123.545 216.48 127.786 218.105 132.537C219.028 135.235 219.255 138.018 218.821 140.817C218.661 141.856 218.299 142.911 217.8 143.84C217.215 144.925 215.777 145.285 214.666 144.85C213.599 144.434 213.162 143.609 213.491 142.541C213.648 142.028 213.881 141.538 214.082 141.038C214.716 139.479 214.699 137.891 214.338 136.281C213.448 132.329 211.576 128.825 209.3 125.51C208.932 124.977 208.505 124.483 208.12 123.964C206.291 121.499 206.442 120.86 209.418 118.84Z" fill="#F9F8F4"/>
<path d="M201.953 128.737C201.592 130.185 201.391 131.695 200.83 133.065C200.009 135.062 198.422 136.351 196.251 136.848C195.827 136.945 195.397 137.027 194.967 137.085C192.287 137.452 189.951 138.364 188.345 140.715C187.728 141.618 186.739 141.547 185.747 140.836C184.673 140.066 184.322 139.076 184.844 138.059C185.931 135.949 187.682 134.523 189.859 133.643C190.855 133.24 191.948 133.062 193.003 132.805C193.528 132.679 194.083 132.653 194.602 132.503C195.84 132.146 196.639 131.386 196.967 130.091C197.319 128.694 197.25 127.33 197.069 125.928C196.931 124.853 197.45 124.369 198.573 124.294C200.531 124.161 201.503 124.905 201.69 126.743C201.756 127.382 201.7 128.032 201.7 128.678C201.782 128.701 201.868 128.717 201.953 128.737Z" fill="#F9F8F4"/>
</g>
<defs>
<clipPath id="clip0">
<rect width="102.899" height="160.87" fill="white" transform="translate(149.273 118.84)"/>
</clipPath>
</defs>
</svg>
