<svg width="400" height="400" viewBox="0 0 400 400" fill="none" xmlns="http://www.w3.org/2000/svg">
<g clip-path="url(#clip0)">
<path d="M106.589 218.957C117.432 218.957 126.221 210.172 126.221 199.334C126.221 188.497 117.432 179.711 106.589 179.711C95.7466 179.711 86.957 188.497 86.957 199.334C86.957 210.172 95.7466 218.957 106.589 218.957Z" fill="white"/>
<path opacity="0.7" d="M294.859 218.957C305.701 218.957 314.491 210.172 314.491 199.334C314.491 188.497 305.701 179.711 294.859 179.711C284.016 179.711 275.227 188.497 275.227 199.334C275.227 210.172 284.016 218.957 294.859 218.957Z" fill="white"/>
<path opacity="0.7" d="M151.028 180.872L130.126 217.061C129.834 217.571 130.2 218.204 130.785 218.204H172.593C173.182 218.204 173.548 217.567 173.251 217.061L152.35 180.872C152.057 180.366 151.324 180.366 151.028 180.872Z" fill="white"/>
<path d="M249.188 180.872L228.286 217.061C227.994 217.571 228.36 218.204 228.945 218.204H270.753C271.342 218.204 271.708 217.567 271.411 217.061L250.51 180.872C250.218 180.366 249.48 180.366 249.188 180.872Z" fill="white"/>
<path opacity="0.7" d="M217.074 218.181H181.422V182.593C181.422 181.551 182.683 181.028 183.424 181.765L217.907 216.179C218.64 216.916 218.116 218.181 217.074 218.181Z" fill="white"/>
<path d="M181.422 218.194V180.905C181.422 180.26 181.945 179.732 182.595 179.732H217.078C218.121 179.732 218.644 180.993 217.907 181.734L181.422 218.194Z" fill="white"/>
</g>
<defs>
<clipPath id="clip0">
<rect width="227.536" height="39.2465" fill="white" transform="translate(86.957 179.711)"/>
</clipPath>
</defs>
</svg>
