<svg width="400" height="400" viewBox="0 0 400 400" fill="none" xmlns="http://www.w3.org/2000/svg">
<g clip-path="url(#clip0)">
<path d="M83.1547 194.223C85.4606 195.041 87.7642 195.786 90.0701 196.463C90.2982 196.529 90.4847 196.701 90.5723 196.927C91.0422 198.122 91.5122 199.315 91.9798 200.505C93.7835 205.17 95.5872 209.792 97.3909 214.376C97.4439 214.513 97.6305 214.525 97.6996 214.395C100.139 209.778 102.579 205.087 105.018 200.331C105.131 200.111 105.366 199.994 105.603 200.034C107.93 200.427 110.254 200.76 112.581 201.035C112.855 201.068 113.092 201.245 113.207 201.5C113.691 202.575 114.175 203.649 114.659 204.72C116.686 209.068 118.715 213.375 120.743 217.643C120.832 217.832 121.093 217.832 121.185 217.646C123.152 213.643 125.119 209.603 127.087 205.53C127.573 204.507 128.059 203.48 128.543 202.452C128.639 202.247 128.844 202.12 129.065 202.122C131.427 202.162 133.788 202.153 136.149 202.106C136.497 202.098 136.725 202.476 136.561 202.789C136.08 203.72 135.601 204.649 135.119 205.575C131.924 211.817 128.729 217.98 125.534 224.052C125.49 224.147 125.446 224.241 125.403 224.335C125.294 224.568 125.059 224.715 124.806 224.705C122.293 224.601 119.78 224.444 117.266 224.222C117.054 224.203 116.866 224.073 116.769 223.878C114.302 218.853 111.837 213.768 109.37 208.618C109.298 208.47 109.093 208.465 109.017 208.611C106.711 212.939 104.405 217.21 102.1 221.417C102.023 221.568 101.95 221.719 101.874 221.87C101.823 221.969 101.715 222.023 101.607 222.002C98.9966 221.483 96.3866 220.884 93.7789 220.201C93.6246 220.161 93.4956 220.05 93.4311 219.901C90.2982 212.719 87.1676 205.42 84.0347 197.983L82.6456 194.787C82.5005 194.452 82.8161 194.103 83.1547 194.223Z" fill="#F9F8F4"/>
<path d="M172.887 212.628C172.887 215.327 172.887 218.026 172.887 220.725C172.887 221.055 172.649 221.338 172.329 221.385C170.175 221.71 168.021 222.021 165.867 222.314C165.635 222.344 165.43 222.16 165.43 221.92C165.43 219.179 165.43 216.44 165.43 213.698C165.43 206.922 162.767 204.188 156.999 204.826C151.65 205.402 148.323 207.202 145.865 209.677C145.69 209.854 145.593 210.099 145.593 210.351V223.695C145.593 224.091 145.292 224.418 144.907 224.442C142.852 224.569 140.797 224.668 138.743 224.737C138.411 224.748 138.137 224.475 138.137 224.136V191.57C138.137 191.085 138.515 190.686 138.989 190.67C140.899 190.604 142.811 190.51 144.72 190.394C145.193 190.366 145.593 190.748 145.593 191.233V204.001C145.593 204.346 145.999 204.513 146.236 204.27C148.747 201.699 152.364 199.438 158.153 198.795C170.578 197.31 172.887 203.676 172.887 212.628Z" fill="#F9F8F4"/>
<path d="M175.063 209.931C175.063 201.895 182.475 195.477 193.169 193.539C203.553 191.656 211.277 195.531 211.277 203.578C211.277 211.199 203.556 217.631 193.169 219.514C182.517 221.445 175.06 217.563 175.063 209.931ZM183.256 200.059C179.921 203.762 181.706 208.827 187.714 212.768C193.719 216.712 199.884 216.917 203.219 213.216C206.486 209.591 204.71 204.514 198.704 200.571C192.697 196.627 186.521 196.434 183.256 200.059Z" fill="#FBB040"/>
<path d="M212.164 203.422C212.164 195.403 219.577 188.747 230.273 187.16C240.657 185.623 248.381 190.248 248.379 198.283C248.379 205.915 240.657 211.601 230.273 213.138C219.621 214.714 212.164 211.07 212.164 203.422ZM220.584 193.251C217.244 196.942 218.794 202.257 224.636 206.394C230.48 210.524 236.663 210.729 240.001 207.04C243.281 203.415 241.503 198.349 235.658 194.22C229.819 190.083 223.864 189.628 220.584 193.251Z" fill="#FBB040"/>
<path d="M280.692 188.075C280.081 189.258 279.471 190.444 278.858 191.634C278.694 191.954 278.31 192.079 277.996 191.914C275.875 190.799 272.537 189.409 266.488 189.116C262.537 188.907 257.211 189.091 257.211 191.507C257.211 193.894 262.316 193.088 270.482 193.753C276.829 194.267 282.288 195.523 282.419 201.71C282.419 207.664 275.14 209.475 266.131 209.599C259.899 209.658 253.507 208.763 249.351 206.597C249.031 206.429 248.909 206.029 249.072 205.703C249.777 204.32 250.48 202.938 251.185 201.559C251.348 201.239 251.733 201.112 252.046 201.279C255.594 203.16 260.388 204.178 265.822 204.107C270.659 204.034 275.052 203.763 275.052 201.809C275.052 199.459 272.611 199.867 262.537 199.363C254.504 199.042 250.687 196.11 250.687 192.449C250.687 187.591 256.234 183.441 266.709 183.799C274.007 184.098 277.895 185.913 280.404 187.174C280.731 187.342 280.86 187.747 280.692 188.075Z" fill="#F9F8F4"/>
<path d="M318.841 208.169V215.964C318.841 216.393 318.427 216.692 318.03 216.551C315.959 215.813 313.889 215.137 311.818 214.514C311.562 214.437 311.387 214.199 311.387 213.925V205.713C311.387 198.97 308.724 194.944 302.956 193.614C297.62 192.424 294.299 193.487 291.841 195.429C291.654 195.575 291.551 195.806 291.551 196.047V209.456C291.551 209.8 291.253 210.067 290.919 210.019C288.793 209.732 286.667 209.489 284.541 209.294C284.287 209.27 284.094 209.053 284.094 208.794C284.094 197.869 284.094 186.941 284.094 176.016C284.094 175.576 284.465 175.227 284.893 175.269C286.888 175.458 288.883 175.686 290.88 175.957C291.263 176.009 291.551 176.346 291.551 176.742V189.666C291.551 190.06 291.993 190.279 292.297 190.039C294.803 188.049 298.401 186.656 304.112 187.978C316.533 191.111 318.841 199.417 318.841 208.169Z" fill="#F9F8F4"/>
</g>
<defs>
<clipPath id="clip0">
<rect width="236.232" height="49.4726" fill="white" transform="translate(82.6094 175.264)"/>
</clipPath>
</defs>
</svg>
