<svg width="400" height="400" viewBox="0 0 400 400" fill="none" xmlns="http://www.w3.org/2000/svg">
<path d="M232.962 198.328C232.844 200.246 232.755 202.166 232.696 204.09C232.686 204.459 232.223 204.611 231.996 204.317C228.654 199.972 225.714 196.157 224.304 194.283C224.11 194.029 223.722 194.075 223.594 194.368L222.365 197.155C222.224 197.478 221.777 197.491 221.616 197.182C220.742 195.489 218.623 191.529 217.354 190.428C215.712 189.022 208.253 174.658 206.856 173.957C205.453 173.252 202.194 181.488 201.49 182.423C200.79 183.369 200.202 185.955 199.279 187.487C198.523 188.732 195.924 191.746 194.975 192.846C194.794 193.054 194.465 193.021 194.314 192.794L191.488 188.472C191.475 188.445 191.462 188.419 191.449 188.393C191.314 188.037 190.266 185.319 189.832 184.667C189.359 183.955 183.652 192.431 183.652 192.431C183.652 192.431 182.14 194.784 181.207 195.373C180.27 195.956 179.689 195.956 178.874 197.136C178.187 198.114 175.473 201.893 174.599 203.112C174.451 203.313 174.165 203.339 173.978 203.177L170.81 200.269C170.63 200.101 170.337 200.134 170.189 200.328C169.72 200.951 169.279 201.543 168.865 202.123C168.642 202.436 168.155 202.268 168.159 201.886C168.178 199.435 168.195 197.534 168.201 197.05C168.254 190.31 168.267 183.566 168.254 176.826C168.234 170.079 168.182 163.336 168.1 156.596C168.093 155.891 168.08 155.182 168.073 154.477C168.06 153.921 167.912 153.156 168.093 152.629C168.267 152.112 168.675 152.194 169.141 152.241C169.841 152.32 170.531 152.389 171.224 152.461C174.004 152.735 176.791 152.942 179.577 152.883C183.671 152.791 187.742 152.145 191.837 152.267C194.938 152.366 198.011 152.909 201.113 152.962C203.189 152.995 205.249 152.814 207.313 152.639C215.59 151.947 223.943 151.414 232.19 152.385C232.377 152.409 232.525 152.56 232.542 152.748C233.14 159.745 233.153 166.792 232.584 173.795C232.331 176.862 231.97 179.933 232.249 182.993C232.43 184.983 232.883 186.933 233.09 188.916C233.422 192.036 233.156 195.192 232.962 198.328Z" fill="#F9F8F4"/>
<path d="M303.974 194.441C303.912 194.553 303.862 194.665 303.823 194.777C303.711 195.113 303.599 195.439 303.488 195.758C303.353 196.124 303.218 196.493 303.067 196.852C302.009 199.491 299.673 202.551 298.122 204.953C298.05 205.065 297.981 205.177 297.908 205.286C297.586 205.8 296.909 205.928 296.407 205.589C295.766 205.151 295.046 204.732 294.231 204.403C291.097 203.128 288.879 203.128 287.035 202.403C285.192 201.669 284.824 202.219 282.057 199.109C279.291 196.009 277.993 192.355 274.122 191.262C270.248 190.161 269.328 187.068 267.481 185.783C265.635 184.508 263.236 179.58 262.319 179.764C261.491 179.919 254.23 189.344 252.649 191.407C252.472 191.637 252.215 191.782 251.926 191.812C251.351 191.868 250.287 192.138 249.396 193.271C248.108 194.915 248.108 198.2 246.445 199.84C244.783 201.484 245.341 200.94 241.651 204.4C241.343 204.686 241.053 204.966 240.784 205.236C240.768 205.022 240.745 204.798 240.722 204.574C240.347 201.201 239.999 197.893 240.124 194.497C240.386 187.664 240.869 180.838 241.093 173.999C241.293 167.724 240.584 161.57 240.584 155.327C240.584 153.627 241.957 152.25 243.653 152.25H264.623C264.84 152.25 265.053 152.276 265.263 152.322C270.941 153.584 277.7 151.617 282.915 153.812C284.824 154.609 286.621 156.131 288.379 157.215C291.879 159.359 295.02 160.532 297.731 163.76C298.201 164.311 298.71 164.788 299.203 165.322C301.733 168.04 303.767 173.854 304.579 177.425C304.864 178.71 305.081 180.002 305.223 181.309C305.357 182.634 305.272 184.004 305.531 185.312C306.169 188.547 305.62 191.594 303.974 194.441Z" fill="#F9F8F4"/>
<path d="M159.19 187.794C159.157 189.843 159.252 191.892 159.269 193.948C159.275 196.013 159.045 198.013 158.888 200.072C158.73 202.21 158.983 204.345 159.183 206.466C159.223 206.872 159.262 207.28 159.285 207.685L155.753 203.913C155.569 203.722 155.293 203.65 155.036 203.739L152.556 204.569C152.309 204.658 152.04 204.585 151.856 204.401L148.235 200.754C148.192 200.691 148.123 200.589 148.077 200.523L139.051 180.319C138.85 179.865 138.249 179.776 137.914 180.145L134.52 183.963C134.507 183.979 134.487 184.006 134.474 184.022L130.731 189.83C130.685 189.879 130.642 189.932 130.6 189.982L123.614 195.961C123.584 195.994 123.535 196.043 123.506 196.076L119.027 201.97C118.948 202.065 118.853 202.144 118.731 202.194L113.099 204.457C113.017 204.51 112.938 204.562 112.856 204.618L108.529 208.891C108.371 209.049 108.148 209.122 107.931 209.082L105.601 208.667H105.598C103.123 206.437 99.8935 205.458 98.4445 202.233C97.6723 200.52 97.1334 198.679 96.5518 196.883C95.3196 193.081 94.3634 189.26 94.2057 185.241C93.9691 179.318 95.3163 173.052 99.4401 168.548C100.357 167.547 101.07 166.381 101.655 165.155C102.545 163.294 103.666 161.871 105.098 160.461C107.816 157.783 110.908 155.308 114.552 154.083C118.511 152.742 122.727 152.344 126.966 152.248C130.649 152.159 134.346 152.304 137.907 152.255C139.935 152.222 141.939 152.334 143.95 152.591C146.152 152.877 148.235 152.887 150.44 152.663C152.372 152.472 154.304 152.439 156.236 152.281C157.159 152.202 158.973 151.658 159.249 152.943C159.384 153.533 159.265 154.195 159.2 154.795C159.127 155.503 159.127 156.214 159.121 156.933C159.088 159.746 159.923 162.523 159.798 165.313C159.653 168.565 159.233 171.675 159.249 174.953C159.269 179.229 159.236 183.511 159.19 187.794Z" fill="#F9F8F4"/>
<path d="M134.687 248.951V244.294L132.876 247.761H132.134L130.327 244.294V248.951H128.965V241.918H130.429L132.505 245.921L134.597 241.918H136.049V248.951H134.687Z" fill="#F9F8F4"/>
<path d="M146.242 248.999C145.728 248.999 145.263 248.897 144.843 248.696C144.427 248.496 144.064 248.226 143.767 247.895C143.465 247.564 143.232 247.179 143.069 246.75C142.906 246.32 142.82 245.883 142.82 245.433C142.82 244.963 142.906 244.513 143.081 244.088C143.257 243.658 143.497 243.278 143.803 242.947C144.109 242.616 144.472 242.354 144.896 242.158C145.32 241.961 145.777 241.863 146.271 241.863C146.777 241.863 147.241 241.97 147.657 242.174C148.073 242.383 148.432 242.657 148.73 242.992C149.028 243.327 149.256 243.712 149.419 244.141C149.583 244.57 149.664 245.008 149.664 245.449C149.664 245.92 149.578 246.365 149.407 246.791C149.236 247.216 148.995 247.592 148.693 247.919C148.392 248.246 148.025 248.508 147.604 248.7C147.193 248.901 146.736 248.999 146.242 248.999ZM144.207 245.433C144.207 245.736 144.252 246.03 144.346 246.316C144.439 246.598 144.57 246.852 144.745 247.069C144.921 247.285 145.133 247.461 145.39 247.592C145.643 247.723 145.932 247.788 146.254 247.788C146.585 247.788 146.874 247.723 147.131 247.588C147.384 247.453 147.6 247.273 147.772 247.048C147.947 246.823 148.078 246.57 148.167 246.292C148.257 246.01 148.302 245.727 148.302 245.433C148.302 245.13 148.253 244.836 148.159 244.55C148.065 244.268 147.927 244.014 147.755 243.797C147.58 243.581 147.368 243.405 147.111 243.278C146.858 243.147 146.573 243.086 146.254 243.086C145.924 243.086 145.63 243.151 145.373 243.29C145.117 243.425 144.9 243.605 144.729 243.826C144.558 244.047 144.427 244.3 144.342 244.578C144.252 244.857 144.207 245.143 144.207 245.433Z" fill="#F9F8F4"/>
<path d="M159.411 247.788C159.733 247.788 160.006 247.723 160.226 247.592C160.447 247.461 160.626 247.289 160.761 247.077C160.895 246.864 160.993 246.623 161.046 246.349C161.103 246.075 161.132 245.793 161.132 245.502V241.916H162.486V245.502C162.486 245.985 162.429 246.435 162.315 246.86C162.2 247.281 162.017 247.653 161.772 247.968C161.527 248.283 161.209 248.536 160.818 248.72C160.43 248.904 159.965 248.999 159.423 248.999C158.864 248.999 158.387 248.9 157.995 248.704C157.604 248.508 157.286 248.25 157.041 247.931C156.796 247.612 156.621 247.24 156.511 246.819C156.405 246.394 156.348 245.956 156.348 245.498V241.912H157.71V245.498C157.71 245.797 157.738 246.083 157.796 246.357C157.853 246.631 157.946 246.876 158.081 247.085C158.216 247.297 158.395 247.465 158.611 247.596C158.827 247.727 159.097 247.788 159.411 247.788Z" fill="#F9F8F4"/>
<path d="M170.96 244.437V248.947H169.598V241.914H170.654L174.312 246.531V241.922H175.675V248.947H174.569L170.96 244.437Z" fill="#F9F8F4"/>
<path d="M188.114 243.112H185.871V248.947H184.517V243.112H182.273V241.914H188.114V243.112Z" fill="#F9F8F4"/>
<path d="M208.196 247.136C208.196 247.434 208.135 247.696 208.016 247.917C207.898 248.142 207.735 248.33 207.527 248.481C207.319 248.632 207.078 248.747 206.805 248.829C206.532 248.911 206.242 248.947 205.932 248.947H202.543V241.914H206.299C206.544 241.914 206.764 241.967 206.964 242.074C207.16 242.18 207.331 242.315 207.466 242.487C207.604 242.654 207.711 242.846 207.788 243.063C207.861 243.276 207.902 243.492 207.902 243.713C207.902 244.057 207.817 244.38 207.645 244.678C207.474 244.981 207.221 245.202 206.891 245.349C207.295 245.468 207.613 245.68 207.845 245.987C208.082 246.289 208.196 246.674 208.196 247.136ZM203.909 243.084V244.858H205.728C205.957 244.858 206.153 244.781 206.316 244.621C206.479 244.462 206.556 244.245 206.556 243.967C206.556 243.697 206.483 243.48 206.336 243.321C206.185 243.161 206.006 243.084 205.785 243.084H203.909ZM206.821 246.874C206.821 246.747 206.801 246.629 206.756 246.514C206.711 246.4 206.654 246.298 206.585 246.212C206.511 246.126 206.426 246.06 206.328 246.007C206.23 245.958 206.12 245.934 206.002 245.934H203.909V247.786H205.936C206.063 247.786 206.177 247.766 206.287 247.717C206.397 247.672 206.491 247.606 206.569 247.524C206.65 247.443 206.711 247.344 206.756 247.23C206.801 247.12 206.821 247.005 206.821 246.874Z" fill="#F9F8F4"/>
<path d="M214.996 248.947V241.914H216.358V247.749H219.935V248.947H214.996Z" fill="#F9F8F4"/>
<path d="M228.496 241.914H229.703L232.371 248.947H230.968L230.315 247.193H227.864L227.219 248.947H225.816L228.496 241.914ZM230.066 246.232L229.1 243.468L228.092 246.232H230.066Z" fill="#F9F8F4"/>
<path d="M240.237 244.437V248.947H238.875V241.914H239.931L243.59 246.531V241.922H244.952V248.947H243.847L240.237 244.437Z" fill="#F9F8F4"/>
<path d="M251.723 245.385C251.723 244.956 251.8 244.531 251.955 244.113C252.11 243.692 252.334 243.32 252.632 242.989C252.93 242.658 253.293 242.392 253.721 242.188C254.149 241.983 254.635 241.881 255.185 241.881C255.834 241.881 256.388 242.024 256.862 242.306C257.335 242.588 257.681 242.96 257.914 243.414L256.866 244.138C256.772 243.942 256.662 243.774 256.527 243.639C256.397 243.504 256.254 243.398 256.103 243.316C255.952 243.234 255.793 243.177 255.63 243.144C255.463 243.108 255.304 243.091 255.145 243.091C254.802 243.091 254.504 243.161 254.251 243.3C253.998 243.439 253.786 243.619 253.619 243.839C253.452 244.06 253.326 244.314 253.24 244.592C253.154 244.874 253.109 245.152 253.109 245.43C253.109 245.741 253.158 246.039 253.26 246.326C253.358 246.612 253.497 246.865 253.68 247.082C253.86 247.299 254.08 247.475 254.333 247.61C254.586 247.74 254.867 247.806 255.169 247.806C255.328 247.806 255.491 247.785 255.667 247.744C255.838 247.704 256.001 247.642 256.156 247.556C256.311 247.47 256.454 247.36 256.588 247.225C256.719 247.09 256.825 246.927 256.906 246.734L258.024 247.381C257.914 247.642 257.751 247.879 257.547 248.08C257.339 248.28 257.106 248.448 256.845 248.591C256.584 248.73 256.307 248.836 256.009 248.906C255.711 248.979 255.422 249.016 255.14 249.016C254.639 249.016 254.182 248.91 253.766 248.697C253.35 248.485 252.991 248.211 252.693 247.871C252.392 247.532 252.159 247.143 251.992 246.714C251.808 246.272 251.723 245.835 251.723 245.385Z" fill="#F9F8F4"/>
<path d="M267.586 248.999C267.072 248.999 266.607 248.897 266.187 248.696C265.771 248.496 265.408 248.226 265.11 247.895C264.808 247.564 264.576 247.179 264.413 246.75C264.25 246.32 264.164 245.883 264.164 245.433C264.164 244.963 264.25 244.513 264.425 244.088C264.6 243.658 264.841 243.278 265.147 242.947C265.453 242.616 265.816 242.354 266.24 242.158C266.664 241.961 267.121 241.863 267.615 241.863C268.12 241.863 268.585 241.97 269.001 242.174C269.417 242.383 269.776 242.657 270.074 242.992C270.372 243.327 270.6 243.712 270.763 244.141C270.926 244.57 271.008 245.008 271.008 245.449C271.008 245.92 270.922 246.365 270.751 246.791C270.58 247.216 270.339 247.592 270.037 247.919C269.735 248.246 269.368 248.508 268.948 248.7C268.54 248.901 268.079 248.999 267.586 248.999ZM265.551 245.433C265.551 245.736 265.596 246.03 265.689 246.316C265.783 246.598 265.914 246.852 266.089 247.069C266.265 247.285 266.477 247.461 266.734 247.592C266.986 247.723 267.276 247.788 267.598 247.788C267.929 247.788 268.218 247.723 268.475 247.588C268.728 247.453 268.944 247.273 269.115 247.048C269.291 246.823 269.421 246.57 269.511 246.292C269.601 246.01 269.646 245.727 269.646 245.433C269.646 245.13 269.597 244.836 269.503 244.55C269.409 244.268 269.27 244.014 269.099 243.797C268.924 243.581 268.712 243.405 268.455 243.278C268.202 243.147 267.916 243.086 267.598 243.086C267.268 243.086 266.974 243.151 266.717 243.29C266.46 243.425 266.244 243.605 266.073 243.826C265.902 244.047 265.771 244.3 265.685 244.578C265.596 244.857 265.551 245.143 265.551 245.433Z" fill="#F9F8F4"/>
<path d="M201.904 219.761L206.213 220.348L203.134 223.475L203.919 227.829L200.051 225.817L196.225 227.918L196.91 223.546L193.766 220.494L198.057 219.806L199.937 215.816L201.904 219.761Z" fill="#F9F8F4"/>
</svg>
