<svg width="400" height="400" viewBox="0 0 400 400" fill="none" xmlns="http://www.w3.org/2000/svg">
<g clip-path="url(#clip0)">
<path d="M202.169 195.846C201.484 194.247 200.576 192.841 199.402 191.632C198.24 190.439 196.889 189.491 195.328 188.791C193.77 188.104 192.084 187.746 190.3 187.746C188.535 187.746 186.88 188.104 185.319 188.791C183.742 189.494 182.391 190.442 181.214 191.632C180.036 192.841 179.113 194.247 178.428 195.846C177.743 197.446 177.395 199.161 177.395 200.993C177.395 202.805 177.743 204.521 178.428 206.139C179.113 207.739 180.036 209.161 181.214 210.354C182.391 211.563 183.742 212.511 185.319 213.214C186.876 213.901 188.532 214.243 190.3 214.243C192.081 214.243 193.767 213.901 195.328 213.214C196.886 212.511 198.24 211.563 199.402 210.354C200.579 209.161 201.487 207.739 202.169 206.139C202.838 204.521 203.186 202.808 203.186 200.993C203.186 199.161 202.834 197.446 202.169 195.846ZM195.692 203.344C195.375 204.079 194.961 204.717 194.436 205.256C193.912 205.81 193.305 206.236 192.589 206.546C191.873 206.871 191.11 207.02 190.3 207.02C189.505 207.02 188.758 206.871 188.042 206.546C187.326 206.236 186.704 205.81 186.179 205.256C185.639 204.717 185.224 204.079 184.907 203.344C184.59 202.608 184.43 201.825 184.43 200.993C184.43 200.161 184.59 199.374 184.907 198.658C185.224 197.923 185.639 197.285 186.179 196.73C186.704 196.191 187.326 195.766 188.042 195.44C188.758 195.13 189.505 194.966 190.3 194.966C191.11 194.966 191.876 195.13 192.589 195.44C193.305 195.766 193.908 196.191 194.436 196.73C194.961 197.285 195.375 197.923 195.692 198.658C195.994 199.377 196.138 200.161 196.138 200.993C196.138 201.825 195.994 202.608 195.692 203.344Z" fill="#3A95FF"/>
<path d="M196.494 244.839C196.494 245.713 196.325 246.539 196.004 247.316C195.678 248.086 195.238 248.77 194.673 249.344C194.113 249.928 193.46 250.382 192.713 250.721C191.962 251.05 191.149 251.214 190.291 251.214C189.44 251.214 188.645 251.05 187.895 250.721C187.138 250.382 186.485 249.928 185.919 249.344C185.354 248.77 184.908 248.086 184.578 247.316C184.252 246.539 184.082 245.71 184.082 244.839C184.082 243.956 184.252 243.13 184.578 242.363C184.908 241.592 185.354 240.915 185.919 240.334C186.488 239.76 187.138 239.303 187.895 238.964C188.645 238.635 189.44 238.461 190.291 238.461C191.152 238.461 191.962 238.635 192.713 238.964C193.463 239.303 194.113 239.76 194.673 240.334C195.238 240.915 195.678 241.592 196.004 242.363C196.328 243.13 196.494 243.956 196.494 244.839Z" fill="#3A95FF"/>
<path d="M219.559 205.195C217.781 204.186 216.098 203.225 214.851 201.448C214.241 200.584 214.21 200.423 214.009 197.975C213.852 196.021 213.635 193.364 212.825 189.475C212.451 187.779 208.974 172.617 198.915 163.972C196.107 161.55 193.283 160.383 190.306 160.383C190.073 160.383 189.838 160.383 189.605 160.399C185.394 160.67 182.621 163.33 181.716 164.194C171.706 173.784 167.774 187.105 166.917 191.362L166.854 191.346C166.107 194.883 165.887 197.382 165.733 199.207C165.5 201.751 165.469 201.816 164.907 202.571C163.798 204.093 162.303 204.941 160.711 205.837C158.418 207.133 154.568 209.326 154.52 214.228C154.442 219.767 159.511 223.018 167.696 226.442C177.131 230.396 182.822 232.782 190.585 232.782C190.818 232.782 191.053 232.766 191.286 232.766C199.643 232.621 205.397 229.996 213.334 226.362C219.618 223.495 226.104 220.535 226.057 213.937C226.016 208.846 221.977 206.556 219.559 205.195ZM210.937 220.79C203.111 224.359 198.337 226.536 191.195 226.665C190.991 226.665 190.79 226.681 190.585 226.681C183.99 226.681 179.219 224.679 169.938 220.79C161.019 217.043 160.441 215.201 160.456 214.289C160.488 211.551 165.946 211.264 169.64 206.253C172.306 202.619 170.965 200.697 172.649 192.629C172.649 192.629 175.642 178.347 185.761 168.664C186.666 167.799 188.07 166.613 189.973 166.503C190.083 166.487 190.193 166.487 190.3 166.487C192.062 166.487 193.635 167.416 195.102 168.664C203.912 176.219 206.999 190.788 206.999 190.788C208.824 199.336 207.325 201.161 210.023 205.005C213.968 210.658 220.08 210.88 220.111 213.986C220.136 216.53 216.035 218.452 210.937 220.79Z" fill="#3A95FF"/>
<path d="M79.7109 199.536C79.7109 197.746 80.0439 196.072 80.7128 194.508C81.3818 192.948 82.2863 191.58 83.4296 190.403C84.5728 189.23 85.9045 188.304 87.4277 187.627C88.951 186.95 90.5716 186.611 92.2958 186.611C94.0012 186.611 95.6093 186.947 97.1231 187.614C98.637 188.282 99.9592 189.191 101.093 190.336C102.227 191.484 103.128 192.832 103.797 194.386C104.466 195.94 104.818 197.591 104.852 199.345V199.4V199.536V208.529C104.852 209.016 104.761 209.484 104.576 209.925C104.391 210.367 104.143 210.751 103.825 211.077C103.508 211.402 103.141 211.66 102.717 211.847C102.296 212.037 101.837 212.131 101.344 212.131C100.694 212.131 100.123 211.979 99.6294 211.67C99.1363 211.364 98.75 210.948 98.4705 210.425C97.5534 211.057 96.5798 211.554 95.5433 211.915C94.5038 212.276 93.4234 212.457 92.299 212.457C90.5747 212.457 88.951 212.118 87.4308 211.441C85.9076 210.764 84.5759 209.838 83.4327 208.665C82.2895 207.491 81.3849 206.117 80.716 204.547C80.0439 202.976 79.7109 201.306 79.7109 199.536ZM86.5703 199.536C86.5703 200.348 86.7242 201.112 87.032 201.825C87.3398 202.538 87.7543 203.163 88.2726 203.695C88.7908 204.227 89.3969 204.65 90.0942 204.956C90.7883 205.263 91.5232 205.417 92.299 205.417C93.0904 205.417 93.8348 205.263 94.5289 204.956C95.223 204.65 95.826 204.231 96.3379 203.695C96.8467 203.163 97.2519 202.541 97.5503 201.825C97.8486 201.112 97.9994 200.348 97.9994 199.536C97.9994 198.723 97.8486 197.959 97.5503 197.246C97.2519 196.533 96.8467 195.911 96.3379 195.376C95.826 194.844 95.2261 194.425 94.5289 194.115C93.8348 193.809 93.0904 193.654 92.299 193.654C91.5264 193.654 90.7914 193.805 90.0942 194.115C89.4001 194.421 88.7939 194.841 88.2726 195.376C87.7512 195.911 87.3398 196.533 87.032 197.246C86.7242 197.962 86.5703 198.723 86.5703 199.536Z" fill="#F9F8F4"/>
<path d="M115.909 202.68C116.452 203.599 117.162 204.292 118.032 204.753C118.902 205.214 119.866 205.443 120.921 205.443C121.625 205.443 122.228 205.385 122.73 205.266C123.23 205.15 123.676 204.956 124.062 204.685C124.693 204.234 125.296 203.963 125.868 203.873C126.439 203.782 126.98 203.837 127.492 204.034C127.843 204.179 128.164 204.382 128.456 204.643C128.748 204.905 128.987 205.208 129.181 205.55C129.376 205.891 129.514 206.265 129.602 206.672C129.69 207.078 129.709 207.484 129.656 207.891C129.602 208.297 129.47 208.694 129.26 209.084C129.049 209.474 128.748 209.829 128.362 210.154C128.029 210.425 127.636 210.699 127.187 210.98C126.738 211.26 126.22 211.509 125.629 211.725C125.039 211.941 124.357 212.118 123.585 212.254C122.812 212.389 121.923 212.457 120.921 212.457C119.181 212.457 117.545 212.118 116.012 211.441C114.483 210.764 113.142 209.838 111.989 208.665C110.836 207.491 109.926 206.124 109.26 204.56C108.591 202.999 108.258 201.322 108.258 199.536C108.258 197.746 108.591 196.069 109.26 194.496C109.929 192.925 110.839 191.558 111.989 190.391C113.142 189.226 114.483 188.304 116.012 187.627C117.542 186.95 119.178 186.611 120.921 186.611C122.627 186.611 124.244 186.94 125.777 187.598C127.309 188.259 128.644 189.165 129.787 190.32C130.931 191.477 131.842 192.825 132.517 194.37C133.192 195.914 133.55 197.572 133.585 199.342C133.585 200.335 133.271 201.138 132.649 201.754C132.024 202.37 131.21 202.676 130.208 202.676H115.909V202.68ZM126.543 196.827C126.069 195.743 125.35 194.944 124.392 194.428C123.434 193.912 122.319 193.657 121.053 193.657C119.787 193.657 118.691 193.931 117.768 194.483C116.845 195.034 116.154 195.814 115.695 196.827H126.543Z" fill="#F9F8F4"/>
<path d="M143.19 210.032C143.014 210.458 142.772 210.822 142.465 211.129C142.157 211.435 141.799 211.68 141.397 211.861C140.992 212.041 140.561 212.131 140.103 212.131C139.628 212.131 139.179 212.041 138.758 211.861C138.338 211.68 137.961 211.435 137.637 211.129C137.311 210.822 137.056 210.455 136.874 210.032C136.689 209.61 136.598 209.152 136.598 208.665V200.404V200.158C136.651 198.353 137.028 196.65 137.731 195.051C138.435 193.451 139.377 192.058 140.555 190.865C141.733 189.672 143.105 188.724 144.672 188.021C146.237 187.318 147.901 186.957 149.66 186.938H149.817C150.941 186.938 151.818 187.266 152.443 187.927C153.068 188.589 153.379 189.424 153.379 190.433C153.379 190.939 153.287 191.407 153.102 191.842C152.917 192.274 152.662 192.652 152.336 192.968C152.009 193.284 151.632 193.532 151.202 193.712C150.772 193.893 150.31 193.983 149.817 193.983C148.953 193.983 148.14 194.151 147.377 194.483C146.61 194.818 145.938 195.273 145.357 195.85C144.776 196.428 144.321 197.111 143.985 197.898C143.649 198.682 143.473 199.517 143.457 200.404V208.665C143.454 209.155 143.363 209.61 143.19 210.032Z" fill="#F9F8F4"/>
<path d="M242.675 205.088C243.168 205.088 243.62 205.188 244.035 205.384C244.446 205.584 244.804 205.846 245.103 206.168C245.401 206.494 245.637 206.874 245.803 207.306C245.969 207.738 246.054 208.2 246.054 208.686C246.054 209.173 245.969 209.631 245.803 210.054C245.637 210.479 245.404 210.844 245.103 211.15C244.804 211.456 244.446 211.695 244.035 211.866C243.62 212.037 243.168 212.124 242.675 212.124H242.543C241.346 212.108 240.216 211.885 239.151 211.46C238.086 211.037 237.16 210.447 236.368 209.699C235.577 208.951 234.952 208.051 234.493 207.003C234.035 205.955 233.809 204.807 233.809 203.563V180.735C233.809 180.249 233.897 179.787 234.072 179.352C234.248 178.92 234.487 178.543 234.785 178.227C235.084 177.911 235.432 177.662 235.828 177.482C236.224 177.301 236.651 177.211 237.109 177.211C237.584 177.211 238.036 177.301 238.466 177.482C238.897 177.662 239.277 177.911 239.6 178.227C239.927 178.543 240.184 178.917 240.379 179.352C240.574 179.784 240.668 180.245 240.668 180.735V203.572C240.668 204.114 240.863 204.501 241.249 204.736C241.638 204.972 242.113 205.088 242.675 205.088Z" fill="#F9F8F4"/>
<path d="M249.535 180.736C249.535 180.21 249.633 179.72 249.824 179.259C250.019 178.798 250.283 178.401 250.616 178.069C250.948 177.737 251.338 177.469 251.778 177.269C252.217 177.069 252.692 176.973 253.204 176.973C253.697 176.973 254.168 177.073 254.614 177.269C255.063 177.469 255.459 177.734 255.801 178.069C256.143 178.404 256.41 178.801 256.605 179.259C256.797 179.72 256.894 180.213 256.894 180.736C256.894 181.258 256.797 181.748 256.605 182.197C256.41 182.648 256.143 183.045 255.801 183.39C255.459 183.731 255.063 184.006 254.614 184.202C254.165 184.402 253.694 184.499 253.204 184.499C252.692 184.499 252.217 184.402 251.778 184.202C251.338 184.006 250.952 183.731 250.616 183.39C250.28 183.048 250.019 182.648 249.824 182.197C249.633 181.748 249.535 181.258 249.535 180.736ZM256.658 208.638C256.658 209.125 256.57 209.583 256.395 210.006C256.219 210.431 255.977 210.799 255.669 211.118C255.361 211.434 255 211.682 254.589 211.863C254.174 212.044 253.731 212.134 253.257 212.134C252.783 212.134 252.337 212.044 251.925 211.863C251.511 211.682 251.146 211.434 250.829 211.118C250.512 210.802 250.261 210.431 250.079 210.006C249.893 209.583 249.802 209.125 249.802 208.638V190.435C249.802 189.949 249.893 189.491 250.079 189.068C250.264 188.646 250.512 188.275 250.829 187.959C251.146 187.643 251.52 187.395 251.95 187.214C252.381 187.033 252.836 186.943 253.31 186.943C253.785 186.943 254.224 187.033 254.629 187.214C255.035 187.395 255.389 187.643 255.697 187.959C256.005 188.275 256.241 188.646 256.41 189.068C256.577 189.494 256.661 189.949 256.661 190.435V208.638H256.658Z" fill="#F9F8F4"/>
<path d="M268.77 186.941H276.844C277.319 186.941 277.768 187.034 278.189 187.224C278.609 187.415 278.977 187.669 279.285 187.995C279.592 188.321 279.837 188.695 280.023 189.121C280.208 189.543 280.299 190.001 280.299 190.488C280.299 190.959 280.208 191.404 280.023 191.829C279.837 192.255 279.592 192.622 279.285 192.938C278.977 193.254 278.613 193.506 278.189 193.696C277.768 193.887 277.319 193.98 276.844 193.98H268.77V199.588C268.77 200.4 268.92 201.158 269.219 201.864C269.517 202.57 269.928 203.183 270.447 203.709C270.965 204.234 271.568 204.647 272.253 204.953C272.937 205.26 273.678 205.415 274.47 205.415C275.173 205.415 275.824 205.315 276.423 205.118C277.02 204.918 277.557 204.602 278.032 204.17C278.261 203.954 278.49 203.764 278.716 203.602C278.945 203.441 279.2 203.306 279.483 203.196C280.01 202.996 280.554 202.938 281.119 203.019C281.681 203.099 282.218 203.377 282.727 203.844C283.097 204.205 283.364 204.621 283.531 205.089C283.697 205.56 283.763 206.047 283.729 206.553C283.694 207.059 283.572 207.549 283.361 208.03C283.151 208.51 282.862 208.929 282.491 209.291C281.436 210.339 280.227 211.129 278.864 211.661C277.501 212.193 276.037 212.46 274.47 212.46C272.73 212.46 271.097 212.122 269.577 211.445C268.053 210.767 266.728 209.845 265.591 208.681C264.457 207.517 263.559 206.147 262.899 204.576C262.24 203.006 261.91 201.326 261.91 199.536V183.229C261.91 182.742 262.001 182.281 262.187 181.849C262.372 181.417 262.62 181.036 262.937 180.711C263.254 180.385 263.619 180.127 264.033 179.94C264.445 179.75 264.891 179.656 265.365 179.656C265.839 179.656 266.285 179.747 266.697 179.927C267.108 180.108 267.469 180.359 267.777 180.685C268.085 181.011 268.327 181.388 268.503 181.823C268.678 182.255 268.766 182.726 268.766 183.232V186.941H268.77Z" fill="#F9F8F4"/>
<path d="M292.991 202.68C293.534 203.599 294.244 204.292 295.114 204.753C295.984 205.214 296.948 205.443 298.003 205.443C298.707 205.443 299.31 205.385 299.812 205.266C300.312 205.15 300.758 204.956 301.144 204.685C301.775 204.234 302.378 203.963 302.95 203.873C303.522 203.782 304.062 203.837 304.574 204.034C304.925 204.179 305.246 204.382 305.538 204.643C305.827 204.905 306.069 205.208 306.263 205.55C306.458 205.891 306.596 206.265 306.684 206.672C306.772 207.078 306.791 207.484 306.738 207.891C306.684 208.297 306.552 208.694 306.342 209.084C306.131 209.474 305.83 209.829 305.444 210.154C305.111 210.425 304.718 210.699 304.269 210.98C303.82 211.26 303.302 211.509 302.711 211.725C302.121 211.941 301.439 212.118 300.667 212.254C299.894 212.389 299.005 212.457 298.003 212.457C296.263 212.457 294.627 212.118 293.094 211.441C291.565 210.764 290.224 209.838 289.071 208.665C287.918 207.491 287.008 206.124 286.342 204.56C285.673 202.999 285.34 201.322 285.34 199.536C285.34 197.746 285.673 196.069 286.342 194.496C287.011 192.925 287.922 191.558 289.071 190.391C290.224 189.226 291.565 188.304 293.094 187.627C294.624 186.95 296.26 186.611 298.003 186.611C299.709 186.611 301.326 186.94 302.859 187.598C304.392 188.259 305.726 189.165 306.87 190.32C308.013 191.477 308.924 192.825 309.599 194.37C310.274 195.914 310.632 197.572 310.667 199.342C310.667 200.335 310.353 201.138 309.731 201.754C309.106 202.37 308.292 202.676 307.29 202.676H292.991V202.68ZM303.625 196.827C303.151 195.743 302.432 194.944 301.474 194.428C300.516 193.912 299.401 193.657 298.135 193.657C296.869 193.657 295.773 193.931 294.85 194.483C293.927 195.034 293.236 195.814 292.777 196.827H303.625Z" fill="#F9F8F4"/>
<path d="M314.41 180.988C314.41 180.75 314.592 180.562 314.825 180.562H316.134C316.615 180.562 316.986 180.701 317.234 180.956C317.444 181.172 317.557 181.475 317.557 181.839V181.849C317.557 182.459 317.262 182.833 316.803 183.026L317.378 183.745C317.46 183.852 317.513 183.939 317.513 184.071C317.513 184.31 317.318 184.464 317.121 184.464C316.932 184.464 316.81 184.371 316.712 184.242L315.905 183.191H315.242V184.035C315.242 184.274 315.06 184.461 314.828 184.461C314.595 184.461 314.413 184.274 314.413 184.035V180.988H314.41ZM316.078 182.442C316.483 182.442 316.712 182.22 316.712 181.894V181.885C316.712 181.52 316.464 181.333 316.062 181.333H315.239V182.442H316.078Z" fill="#F9F8F4"/>
<path d="M315.98 186.941C313.603 186.941 311.668 184.954 311.668 182.513C311.668 180.072 313.603 178.086 315.98 178.086C318.358 178.086 320.292 180.072 320.292 182.513C320.292 184.954 318.358 186.941 315.98 186.941ZM315.98 178.853C314.014 178.853 312.415 180.495 312.415 182.513C312.415 184.532 314.014 186.173 315.98 186.173C317.946 186.173 319.545 184.532 319.545 182.513C319.545 180.495 317.946 178.853 315.98 178.853Z" fill="#F9F8F4"/>
</g>
<defs>
<clipPath id="clip0">
<rect width="240.58" height="90.8311" fill="white" transform="translate(79.7109 160.383)"/>
</clipPath>
</defs>
</svg>
