<svg width="157" height="64" viewBox="0 0 157 64" fill="none" xmlns="http://www.w3.org/2000/svg">
<path fill-rule="evenodd" clip-rule="evenodd" d="M22 32V48H37.066H52.132V32V16H37.066H22V32ZM50.0174 19.3483C50.2676 19.433 50.5698 19.7583 50.6581 20.0381C50.8519 20.6518 50.6096 21.276 50.0741 21.5426C49.7988 21.6798 49.3893 21.6822 49.1304 21.5482C48.9049 21.4316 48.6875 21.2007 48.5777 20.9613C48.4515 20.6863 48.4538 20.2514 48.5829 19.959C48.8438 19.3683 49.3899 19.1357 50.0174 19.3483ZM58.0422 21.2662C57.2103 21.46 56.6018 22.0321 56.3386 22.8679C56.2777 23.0611 56.2724 23.2805 56.2621 26.0376C56.2523 28.6435 56.2578 29.0359 56.3082 29.2998C56.4458 30.0212 56.8602 30.565 57.5217 30.8925C57.9061 31.0827 58.1944 31.1445 58.7056 31.1459C59.226 31.1474 59.4747 31.0879 59.8782 30.8653C60.6626 30.4325 61.1081 29.6976 61.2091 28.6698L61.2341 28.4151H60.6678H60.1015L60.0795 28.6389C59.9706 29.7456 58.9542 30.3136 57.9794 29.8125C57.7567 29.698 57.542 29.4631 57.4318 29.2134L57.3376 29V26.1887C57.3376 22.9956 57.3217 23.1748 57.636 22.818C57.8329 22.5945 58.0629 22.4655 58.3991 22.3899C58.861 22.2862 59.2804 22.402 59.6138 22.7256C59.7226 22.8312 59.8507 22.9995 59.8985 23.0997C60.0003 23.3129 60.0914 23.6618 60.0914 23.8381V23.9623H60.6609H61.2304L61.2069 23.7075C61.0918 22.4635 60.4068 21.5665 59.3532 21.2804C59.0337 21.1936 58.384 21.1866 58.0422 21.2662ZM87.9291 21.3179C87.7423 21.4317 87.6014 21.5975 87.5056 21.8162C87.4507 21.9415 85.2843 30.9388 85.2843 31.0415C85.2843 31.0846 85.3886 31.0943 85.8467 31.0943H86.4091L86.8139 29.4146L87.2187 27.7348L88.3204 27.7448L89.422 27.7547L89.8308 29.4245L90.2396 31.0943H90.8177C91.2456 31.0943 91.3959 31.0825 91.3959 31.0488C91.3959 30.9512 89.1809 21.8991 89.131 21.7925C88.8817 21.2605 88.3609 21.0549 87.9291 21.3179ZM100.955 21.2856C100.116 21.5189 99.5744 22.0534 99.3318 22.8884C99.2372 23.2141 99.238 24.6918 99.333 25.0566C99.5232 25.7871 100.006 26.2543 100.812 26.4879C100.959 26.5304 101.319 26.6156 101.614 26.6773C101.908 26.739 102.244 26.8278 102.36 26.8746C102.625 26.9814 102.909 27.2699 102.972 27.4949C103.037 27.7277 103.03 28.9157 102.962 29.1574C102.818 29.6744 102.187 30.0447 101.548 29.9878C100.885 29.9289 100.427 29.4166 100.335 28.6321L100.31 28.4151H99.7755H99.2413L99.2669 28.7264C99.3432 29.6556 99.7562 30.4246 100.393 30.8234C101.017 31.2142 101.929 31.2836 102.655 30.9955C103.344 30.7222 103.857 30.1446 104.027 29.4509C104.104 29.1375 104.105 27.4702 104.028 27.1582C103.946 26.8217 103.806 26.5671 103.569 26.3208C103.213 25.95 102.794 25.7541 101.912 25.5464C101.013 25.3348 100.606 25.113 100.423 24.737C100.341 24.5673 100.331 24.4993 100.32 24.0227C100.304 23.3445 100.359 23.101 100.588 22.8305C100.885 22.4789 101.445 22.2838 101.889 22.3766C102.287 22.4598 102.6 22.6843 102.792 23.024C102.913 23.239 103.015 23.595 103.015 23.8004V23.9245H103.548H104.081V23.6961C104.081 23.001 103.711 22.1823 103.203 21.7544C102.947 21.5386 102.57 21.3417 102.269 21.2663C101.935 21.1829 101.291 21.1923 100.955 21.2856ZM107.215 21.2455C106.217 21.3943 105.454 22.0564 105.237 22.9608C105.156 23.2956 105.157 29.0302 105.237 29.3923C105.554 30.8182 107.206 31.5532 108.71 30.9374L108.999 30.8189L109.221 31.0792L109.443 31.3396L109.853 30.9065L110.264 30.4733L110.045 30.2389L109.826 30.0044L109.917 29.7852C110.108 29.3288 110.1 29.4627 110.113 26.3161C110.123 23.7814 110.117 23.3292 110.07 23.0911C109.898 22.2143 109.281 21.5603 108.399 21.3208C108.072 21.232 107.534 21.1978 107.215 21.2455ZM119.695 21.2611C119.538 21.3339 119.335 21.5333 119.237 21.7127C119.179 21.8194 118.812 23.2894 118.064 26.4151C117.465 28.916 116.967 30.9924 116.957 31.0292C116.94 31.0917 116.977 31.0955 117.516 31.0858L118.093 31.0755L118.472 29.5094C118.681 28.6481 118.862 27.8967 118.876 27.8396L118.9 27.7358H119.999H121.099L121.134 27.8774C121.153 27.9552 121.33 28.6811 121.527 29.4906C121.724 30.3 121.894 30.992 121.904 31.0283C121.922 31.0877 121.982 31.0943 122.507 31.0943C122.829 31.0943 123.091 31.0875 123.091 31.0791C123.091 30.9977 120.846 21.8633 120.801 21.7636C120.725 21.5935 120.517 21.3716 120.348 21.2793C120.192 21.1943 119.86 21.1851 119.695 21.2611ZM68.4543 21.2809C68.2704 21.3282 68.0911 21.4685 67.9971 21.6387L67.9086 21.7991V26.4467V31.0943H68.4595H69.0105L68.989 27.7453L68.9675 24.3962L68.8088 23.5327C68.6522 22.68 68.6472 22.5636 68.7696 22.6135C68.7977 22.625 68.8675 22.8441 68.9362 23.1374C69.2226 24.3588 69.3271 24.7233 69.686 25.7547C69.8955 26.3566 70.2544 27.3925 70.4837 28.0566C71.06 29.726 71.3857 30.6022 71.48 30.7368C71.524 30.7996 71.6458 30.9008 71.7508 30.9617C72.1997 31.2223 72.6823 31.0271 72.8116 30.5328C72.8346 30.4448 72.8474 28.782 72.8475 25.8585L72.8477 21.3208H72.2963H71.7449L71.7681 24.6887L71.7912 28.0566L71.9814 28.9786C72.1536 29.8137 72.1777 29.9803 72.1174 29.9163C72.1067 29.9048 71.4774 28.0335 70.719 25.7579C69.7873 22.9619 69.3141 21.5907 69.2595 21.529C69.0919 21.3396 68.6982 21.2182 68.4543 21.2809ZM80.0524 21.3351C79.7888 21.4382 79.6154 21.621 79.5328 21.883C79.5035 21.976 79.4924 23.258 79.4924 26.5528V31.0943H80.0254H80.5584V29.2453V27.3962L81.2957 27.3971C81.7012 27.3977 82.1032 27.4152 82.1889 27.4363C82.5968 27.5361 83.0068 27.8549 83.1673 28.1969L83.2589 28.3922V29.7432V31.0943H83.8123H84.3657L84.3522 29.6887C84.3394 28.3597 84.3344 28.271 84.2617 28.0634C84.1504 27.7454 83.9617 27.4341 83.7571 27.2308C83.579 27.0539 83.1987 26.8328 83.0635 26.8275C83.0244 26.8259 83.0757 26.7932 83.1776 26.7547C83.5818 26.6021 83.8889 26.2837 84.1237 25.7739L84.2716 25.4528L84.2824 24.3341C84.2914 23.3973 84.2838 23.1769 84.2355 22.9789C84.0458 22.2013 83.4963 21.6023 82.7598 21.3701C82.4881 21.2845 80.2557 21.2556 80.0524 21.3351ZM124.461 21.3393C124.2 21.4384 124.017 21.6435 123.945 21.9201C123.922 22.008 123.909 23.6646 123.909 26.5755L123.909 31.0943H124.442H124.975V29.2453V27.3962L125.712 27.3971C126.117 27.3977 126.519 27.4152 126.605 27.4363C127.015 27.5367 127.445 27.8719 127.591 28.2068C127.674 28.3942 127.674 28.4108 127.675 29.7453L127.675 31.0943H128.226H128.777V29.7943C128.777 28.9977 128.762 28.4168 128.738 28.2943C128.614 27.6614 128.145 27.0585 127.629 26.8703L127.444 26.8026L127.579 26.7624C128.102 26.6062 128.608 25.9107 128.709 25.2075C128.768 24.7986 128.73 23.2625 128.654 22.9636C128.549 22.5564 128.39 22.2659 128.103 21.9584C127.783 21.6162 127.434 21.4184 127.007 21.3375C126.616 21.2633 124.659 21.2647 124.461 21.3393ZM62.8985 21.3808C62.7376 21.4547 62.557 21.6398 62.4601 21.8302L62.3833 21.9811V25.5472C62.3833 29.5373 62.3666 29.262 62.642 29.8302C62.8244 30.2063 63.2539 30.6534 63.6135 30.8414C64.0369 31.0626 64.2726 31.0943 65.4955 31.0943H66.5584V30.5114V29.9285L65.4302 29.9171L64.302 29.9057L64.0986 29.7996C63.8752 29.6831 63.6929 29.4818 63.5667 29.2127C63.4864 29.0411 63.4848 29.0147 63.4848 27.8491V26.6604L64.9505 26.6505L66.4162 26.6407V26.0755V25.5103L64.9505 25.5004L63.4848 25.4906L63.4755 23.9906L63.4662 22.4906H63.9938C64.284 22.4906 64.9798 22.4794 65.5399 22.4656L66.5584 22.4407V21.8807V21.3208L64.7906 21.3222C63.2928 21.3235 63.0038 21.3324 62.8985 21.3808ZM73.4518 21.8868V22.4528H74.5H75.5482V26.7736V31.0943H76.0811H76.6139L76.623 26.783L76.632 22.4717L77.7069 22.4617L78.7817 22.4517V21.8862V21.3208H76.1168H73.4518V21.8868ZM92.2132 25.7529C92.2132 28.8143 92.2252 30.2444 92.252 30.3771C92.3026 30.6274 92.4715 30.8584 92.6922 30.9791L92.8685 31.0755L94.7084 31.0862L96.5482 31.0969V30.5107V29.9245H94.9492H93.3503V25.6226V21.3208H92.7817H92.2132V25.7529ZM111.302 25.3113L111.313 29.3019L111.391 29.5472C111.637 30.3128 112.231 30.8767 113.025 31.0986C113.398 31.2028 114.044 31.2117 114.439 31.1181C115.382 30.8948 116.066 30.1948 116.216 29.3005C116.257 29.0544 116.267 28.3052 116.268 25.1604L116.269 21.3208H115.718H115.168L115.166 25.1604C115.165 28.7257 115.161 29.0137 115.103 29.1921C114.953 29.6508 114.523 29.9598 113.945 30.0226C113.34 30.0885 112.692 29.7213 112.456 29.178L112.378 29L112.369 25.1604L112.359 21.3208H111.826H111.292L111.302 25.3113ZM130.34 21.3808C130.179 21.4547 129.999 21.6398 129.902 21.8302L129.825 21.9811V25.5472C129.825 28.9024 129.829 29.1266 129.89 29.3396C130.046 29.88 130.389 30.3811 130.809 30.6841C131.311 31.0462 131.56 31.0943 132.933 31.0943H134V30.5094V29.9245H132.94C131.769 29.9245 131.649 29.907 131.378 29.6955C131.184 29.5434 131.036 29.3139 130.964 29.0521C130.917 28.8791 130.909 28.663 130.917 27.7525L130.926 26.6604L132.392 26.6505L133.858 26.6407V26.0755V25.5103L132.392 25.5004L130.926 25.4906L130.917 23.9906L130.908 22.4906H131.435C131.726 22.4906 132.421 22.4794 132.982 22.4656L134 22.4407V21.8807V21.3208L132.232 21.3222C130.734 21.3235 130.445 21.3324 130.34 21.3808ZM88.3908 22.2736C88.4009 22.341 88.4253 22.5682 88.445 22.7783C88.4648 22.9884 88.6252 23.9075 88.8014 24.8206C88.9776 25.7338 89.1218 26.5086 89.1218 26.5424C89.1218 26.5973 89.0356 26.6038 88.3046 26.6038C87.8551 26.6038 87.4873 26.5952 87.4873 26.5846C87.4873 26.5741 87.534 26.3406 87.591 26.0658C87.6481 25.7909 87.7531 25.2519 87.8243 24.8679C87.8956 24.484 88.0077 23.9066 88.0735 23.5849C88.1393 23.2632 88.2121 22.8217 88.2354 22.6038C88.2587 22.3858 88.2847 22.1948 88.2933 22.1792C88.3284 22.115 88.3736 22.1586 88.3908 22.2736ZM120.101 22.6255C120.127 22.873 120.299 23.8577 120.483 24.8136C120.667 25.7696 120.817 26.5635 120.817 26.5778C120.817 26.5921 120.448 26.6038 119.996 26.6038H119.175L119.191 26.5C119.226 26.28 119.757 23.5552 119.804 23.3585C119.83 23.2443 119.87 22.9896 119.892 22.7925C119.956 22.2115 119.969 22.1461 120.012 22.1613C120.036 22.1697 120.073 22.3607 120.101 22.6255ZM108.191 22.4692C108.556 22.5884 108.901 22.9232 108.983 23.2368C109.007 23.328 109.02 24.3843 109.02 26.2453C109.019 28.7803 109.005 29.3022 108.941 29.2065C108.935 29.1967 108.851 29.0868 108.755 28.9623C108.659 28.8377 108.575 28.7282 108.568 28.7189C108.554 28.6993 107.777 29.5155 107.777 29.5497C107.777 29.5622 107.881 29.6474 108.009 29.739L108.241 29.9057L108.124 29.9595C107.935 30.0468 107.342 30.0334 107.096 29.9362C106.681 29.7729 106.405 29.4895 106.302 29.1191C106.222 28.8357 106.223 23.541 106.302 23.2577C106.489 22.5898 107.398 22.2102 108.191 22.4692ZM82.5891 22.5528C82.8002 22.6565 83.0316 22.9022 83.1292 23.1265C83.2013 23.292 83.2056 23.3583 83.2056 24.3019C83.2056 25.2538 83.2019 25.3092 83.129 25.4538C83.0172 25.6754 82.723 25.9498 82.4496 26.0874L82.2107 26.2075L81.3845 26.2195L80.5584 26.2314V24.3398V22.4483L81.4911 22.46C82.3574 22.4709 82.4356 22.4775 82.5891 22.5528ZM126.885 22.5102C127.148 22.5933 127.398 22.8184 127.521 23.0828L127.622 23.3019L127.632 24.2568C127.643 25.1977 127.642 25.2145 127.557 25.4077C127.408 25.7502 127.118 26.0071 126.72 26.1495C126.53 26.2174 126.415 26.2264 125.74 26.2264H124.975V24.3396V22.4528H125.839C126.508 22.4528 126.744 22.4657 126.885 22.5102ZM38.147 22.7699C38.4515 22.9594 38.5669 23.4347 38.3846 23.748C38.1253 24.1936 37.5197 24.2126 37.2431 23.7838C37.1691 23.6692 37.1548 23.6029 37.1548 23.3742C37.1548 23.1268 37.1648 23.0882 37.2623 22.9603C37.4121 22.7638 37.5764 22.6792 37.8085 22.6792C37.948 22.6792 38.0417 22.7043 38.147 22.7699ZM47.1372 23.1721C47.3742 23.2663 47.608 23.4972 47.7276 23.7553C47.8008 23.9132 47.8146 23.9978 47.814 24.283C47.8134 24.5767 47.8007 24.6482 47.7194 24.8113C47.6069 25.0373 47.411 25.2428 47.1929 25.3637C47.0596 25.4375 46.9798 25.4523 46.7132 25.4522C46.435 25.4522 46.3698 25.4389 46.2119 25.3508C45.9816 25.2222 45.7236 24.9191 45.6505 24.6912C45.6194 24.5942 45.5939 24.4077 45.5939 24.2767C45.5939 23.76 45.8819 23.3183 46.3294 23.1488C46.536 23.0705 46.9086 23.0813 47.1372 23.1721ZM38.132 26.9012C38.2004 26.9385 38.304 27.0407 38.3623 27.1283C38.5757 27.4491 38.4688 27.9355 38.1401 28.1401C38.0094 28.2214 37.9547 28.2328 37.759 28.2196C37.5709 28.2069 37.5075 28.1843 37.3997 28.0917C37.1971 27.9176 37.1305 27.7589 37.1452 27.4856C37.1747 26.9369 37.6649 26.6466 38.132 26.9012ZM44.2364 27.014C44.4685 27.1412 44.6573 27.3423 44.7667 27.5788C44.8964 27.8594 44.9063 28.2993 44.789 28.5706C44.6858 28.8095 44.479 29.0427 44.2637 29.1631C44.1054 29.2517 44.0431 29.2638 43.7462 29.264C43.4388 29.2642 43.3918 29.2542 43.2196 29.153C42.9886 29.0171 42.8401 28.8429 42.7223 28.5695C42.4645 27.9716 42.7518 27.2265 43.3349 26.981C43.5806 26.8775 44.0165 26.8935 44.2364 27.014ZM32.1133 29.8458C32.39 29.9792 32.5455 30.3237 32.4764 30.6502C32.3832 31.0909 31.9297 31.325 31.5365 31.1354C31.1234 30.9362 31.0207 30.2949 31.3508 29.9763C31.5681 29.7665 31.8491 29.7184 32.1133 29.8458ZM41.2066 30.8307C41.6835 31.0759 41.9442 31.6653 41.8113 32.1981C41.6736 32.7505 41.2641 33.0932 40.7411 33.094C40.4048 33.0945 40.1948 33.012 39.9653 32.7892C39.3327 32.1751 39.539 31.0911 40.3468 30.7845C40.5962 30.6899 40.972 30.7101 41.2066 30.8307ZM38.0715 30.9566C38.2286 31.0263 38.405 31.2495 38.4532 31.4395C38.6135 32.0718 37.938 32.573 37.4167 32.2084C37.0887 31.9789 37.0451 31.3615 37.3376 31.0896C37.5316 30.9093 37.8392 30.8535 38.0715 30.9566ZM35.1616 32.5559C35.6651 32.9338 35.4587 33.7872 34.8507 33.8407C34.6061 33.8623 34.3779 33.7598 34.2387 33.566C34.0999 33.3728 34.0749 33.0276 34.1833 32.802C34.261 32.6402 34.4094 32.5057 34.5713 32.4503C34.7382 32.3932 35.0095 32.4418 35.1616 32.5559ZM38.4319 33.8889C39.0241 34.0831 39.5304 34.6671 39.6762 35.3243C39.9135 36.3931 39.3394 37.4418 38.3476 37.7511C38.233 37.7869 38.0228 37.8113 37.8299 37.8113C37.6371 37.8113 37.4269 37.7869 37.3123 37.7511C36.4872 37.4937 35.9274 36.704 35.9295 35.8C35.9317 34.8133 36.5909 33.9884 37.5195 33.8104C37.7535 33.7655 38.1634 33.8008 38.4319 33.8889ZM61.7195 34.0785C61.062 34.1721 60.5187 34.5885 60.2954 35.1698C60.2164 35.3755 60.2156 35.3972 60.2046 37.6038C60.1926 40.012 60.199 40.119 60.3779 40.4954C60.5797 40.9198 61.0537 41.2854 61.5411 41.3926C61.8089 41.4514 62.3506 41.4438 62.5892 41.3778C63.0559 41.2487 63.5001 40.9077 63.6937 40.5299C63.8815 40.1635 63.8921 40.0151 63.8928 37.7504C63.8932 36.5136 63.8789 35.5883 63.8577 35.4674C63.693 34.5305 62.7676 33.9294 61.7195 34.0785ZM80.0043 34.1369C79.855 34.2445 79.8035 34.3037 79.7226 34.4605C79.6936 34.5166 79.3093 36.0703 78.8683 37.9133C78.4274 39.7563 78.0586 41.2939 78.0487 41.3302C78.0323 41.3905 78.0679 41.3962 78.4571 41.3962C78.8325 41.3962 78.8857 41.3883 78.902 41.3302C78.9122 41.2939 79.0261 40.8226 79.1551 40.283C79.2842 39.7434 79.4134 39.2128 79.4421 39.1038L79.4944 38.9057H80.3093H81.1242L81.1587 39.0472C81.26 39.462 81.6689 41.1333 81.6988 41.2547L81.7337 41.3962H82.1587C82.5184 41.3962 82.5838 41.3872 82.5838 41.3379C82.5838 41.3059 82.2151 39.7648 81.7645 37.9134C81.2003 35.5952 80.9179 34.4975 80.8575 34.3878C80.6739 34.0546 80.2795 33.9386 80.0043 34.1369ZM89.8503 34.0762C89.1296 34.1806 88.5682 34.6478 88.3953 35.2871C88.3449 35.4733 88.3392 35.7787 88.348 37.8363L88.3579 40.1738L88.4917 40.4613C88.7802 41.0812 89.3804 41.434 90.1468 41.434C90.5575 41.434 90.7801 41.384 91.1098 41.2177C91.4454 41.0485 91.6976 40.7854 91.8602 40.4348L91.9822 40.1714V37.7555V35.3396L91.8691 35.0859C91.8068 34.9464 91.6822 34.7486 91.5922 34.6464C91.2183 34.2219 90.4902 33.9836 89.8503 34.0762ZM69.7067 34.1146C69.5618 34.1607 69.4068 34.3305 69.3654 34.4884C69.3435 34.5722 69.3303 35.8952 69.3302 38.0094L69.33 41.3962H69.7528H70.1756L70.1587 38.9151L70.1419 36.434L70.0364 35.8302C69.9784 35.4981 69.9225 35.1967 69.9123 35.1604C69.8991 35.1136 69.9135 35.0943 69.9617 35.0943C70.0189 35.0943 70.0452 35.1619 70.1272 35.5189C70.3168 36.3444 70.4038 36.6355 70.8287 37.8679C71.3466 39.3702 71.8205 40.7111 71.9164 40.9458C71.9994 41.1489 72.1587 41.3026 72.3425 41.3568C72.5211 41.4095 72.557 41.4062 72.7334 41.3212C72.8496 41.2652 72.902 41.2096 72.9547 41.0862C73.0215 40.9299 73.0239 40.8105 73.0246 37.5189L73.0254 34.1132H72.6126H72.1997L72.2248 36.6509L72.2499 39.1887L72.3707 39.7736C72.4371 40.0953 72.5008 40.4009 72.5122 40.4528C72.5262 40.5165 72.5212 40.5349 72.4969 40.5094C72.4685 40.4797 70.6438 35.0556 70.4694 34.4824C70.3786 34.1839 70.0252 34.0135 69.7067 34.1146ZM93.288 34.1021C93.1624 34.1278 92.9714 34.3443 92.9281 34.5099C92.9007 34.6147 92.8886 35.682 92.8885 38.0283L92.8883 41.3962H93.3138H93.7393L93.7196 38.8962L93.6999 36.3962L93.5939 35.8113C93.5357 35.4896 93.4799 35.1967 93.47 35.1604C93.4575 35.1142 93.4721 35.0943 93.5189 35.0943C93.5759 35.0943 93.6121 35.2034 93.7664 35.8396C93.9426 36.5665 94.5297 38.3424 95.2574 40.3498C95.5513 41.1606 95.6244 41.2753 95.8988 41.3562C96.0796 41.4095 96.1151 41.4064 96.2918 41.3212C96.408 41.2652 96.4604 41.2096 96.5131 41.0862C96.5799 40.9299 96.5822 40.8105 96.583 37.5189L96.5838 34.1132H96.1723H95.7609L95.784 36.6321L95.8072 39.1509L95.9293 39.7547C95.9964 40.0868 96.0604 40.4009 96.0713 40.4528C96.1482 40.8155 95.8959 40.0978 95.0036 37.4151C93.9004 34.0982 93.9439 34.2038 93.6453 34.1157C93.5084 34.0754 93.4328 34.0725 93.288 34.1021ZM56.6854 34.1536C56.5209 34.2235 56.3866 34.3535 56.3215 34.5057C56.2586 34.6528 56.2553 34.8254 56.2546 38.0283L56.2538 41.3962H56.6624H57.0711V39.7358V38.0755H58.1371H59.203V37.6415V37.2075H58.1365H57.07L57.0794 36.1038L57.0888 35L58.217 34.99L59.3452 34.9801V34.5466V34.1132L58.0571 34.1156C57.3389 34.1169 56.732 34.1337 56.6854 34.1536ZM64.7896 37.1604L64.7995 40.2075L64.9169 40.4625C65.3392 41.3795 66.5479 41.7416 67.5404 41.2484C67.7837 41.1275 68.0827 40.8553 68.2142 40.6351C68.2596 40.5588 68.3294 40.3938 68.3692 40.2683C68.4396 40.0464 68.4416 39.9583 68.4416 37.0767V34.1132H68.033H67.6244L67.6236 37.0094C67.6228 39.748 67.6192 39.9139 67.557 40.0566C67.4062 40.4024 67.0867 40.5842 66.6294 40.5842C66.2775 40.5842 66.0899 40.5108 65.8467 40.2778C65.5474 39.9912 65.5651 40.1986 65.5642 36.9717L65.5635 34.1132H65.1716H64.7797L64.7896 37.1604ZM74.3065 34.1978C74.1976 34.2592 74.123 34.3382 74.0666 34.4513L73.9848 34.6157L73.9856 37.7323C73.9863 40.6758 73.99 40.8574 74.0516 41C74.2055 41.3558 74.3265 41.3925 75.3551 41.3946C75.8059 41.3955 76.2697 41.3779 76.3856 41.3555C77.0296 41.2309 77.5601 40.6675 77.6774 39.9836C77.7274 39.6917 77.7297 35.8257 77.68 35.5429C77.5867 35.0118 77.2196 34.5202 76.7318 34.2728L76.4543 34.1321L75.4594 34.1204C74.4718 34.1088 74.4633 34.1094 74.3065 34.1978ZM82.0508 34.5472V34.9811H82.8325H83.6142V38.1887V41.3962H84.0228H84.4315V38.1887V34.9811H85.231H86.0305V34.5472V34.1132H84.0406H82.0508V34.5472ZM86.599 37.7547V41.3962H87.0076H87.4162V37.7547V34.1132H87.0076H86.599V37.7547ZM80.3586 34.8585C80.3691 34.9155 80.3883 35.0811 80.4012 35.2264C80.4141 35.3717 80.5347 36.0587 80.6692 36.753C80.8037 37.4474 80.9137 38.0205 80.9137 38.0266C80.9137 38.0327 80.6419 38.0377 80.3096 38.0377C79.9774 38.0377 79.7056 38.0243 79.7056 38.0078C79.7056 37.9914 79.8107 37.4437 79.9393 36.7908C80.0677 36.138 80.1981 35.4128 80.2288 35.1792C80.2846 34.7557 80.3225 34.6621 80.3586 34.8585ZM62.4857 35.0055C62.7124 35.0846 62.984 35.3608 63.0369 35.566C63.0921 35.7806 63.091 39.7311 63.0356 39.9275C62.9779 40.1318 62.8141 40.3262 62.6017 40.4422C62.4545 40.5226 62.3565 40.5452 62.099 40.5577C61.7073 40.5767 61.4519 40.4901 61.2325 40.264C60.9761 39.9997 60.9754 39.9922 60.9871 37.6549C60.9973 35.6377 60.9987 35.6013 61.074 35.4528C61.3084 34.9902 61.9021 34.802 62.4857 35.0055ZM90.7193 35.0669C90.8817 35.1531 90.9804 35.2365 91.0569 35.3523L91.165 35.5159L91.1757 37.673C91.1829 39.1137 91.174 39.8758 91.1488 39.9675C91.0959 40.1608 90.8603 40.3966 90.628 40.4889C90.3621 40.5946 89.9754 40.5931 89.7006 40.4854C89.4545 40.389 89.2144 40.145 89.1597 39.9356C89.1355 39.8432 89.1224 39.0572 89.1228 37.717C89.1235 35.3852 89.1147 35.4678 89.389 35.2119C89.7397 34.8849 90.268 34.8274 90.7193 35.0669ZM76.4267 35.0773C76.6376 35.1889 76.7809 35.3705 76.8497 35.6136C76.9241 35.8762 76.9208 39.697 76.8459 39.9223C76.7692 40.1531 76.6666 40.2882 76.4787 40.4055C76.3132 40.5088 76.3077 40.5095 75.5571 40.5215L74.802 40.5337V37.7574V34.9811H75.5235C76.2255 34.9811 76.2498 34.9837 76.4267 35.0773ZM24.3718 35.1366C24.656 35.2828 24.8061 35.679 24.703 36.0109C24.6524 36.1736 24.4609 36.3788 24.3028 36.4396C23.8232 36.6242 23.3305 36.2025 23.3997 35.6666C23.462 35.1836 23.9479 34.9187 24.3718 35.1366ZM28.8685 35.1076C29.0794 35.2012 29.2839 35.5289 29.2839 35.7736C29.2839 35.91 29.2011 36.1252 29.103 36.2438C28.797 36.614 28.2075 36.5385 28.0094 36.1038C27.8776 35.8147 27.9334 35.4317 28.1356 35.2375C28.312 35.0681 28.646 35.0089 28.8685 35.1076ZM33.4741 35.1304C33.6367 35.2185 33.7894 35.4012 33.8169 35.5406C33.8278 35.5961 33.8422 35.6708 33.8488 35.7066C33.8708 35.8249 33.7944 36.0908 33.7011 36.2207C33.422 36.6092 32.8063 36.5501 32.5815 36.1132C32.4762 35.9085 32.5044 35.528 32.6389 35.3408C32.8294 35.0755 33.2003 34.9821 33.4741 35.1304ZM42.6356 35.1146C42.8044 35.1895 42.8851 35.2689 42.9682 35.4419C43.112 35.7411 43.0097 36.1814 42.7547 36.3606C42.2991 36.6807 41.6868 36.3277 41.6855 35.7441C41.685 35.5239 41.889 35.2072 42.0939 35.1101C42.2377 35.042 42.4763 35.044 42.6356 35.1146ZM47.3275 35.1789C47.6201 35.3845 47.7074 35.858 47.51 36.168C47.4073 36.3292 47.1239 36.4909 46.9461 36.4897C46.5554 36.4872 46.2338 36.0943 46.2784 35.6741C46.3332 35.1577 46.9099 34.8854 47.3275 35.1789ZM41.1432 37.7616C41.4507 37.9166 41.5802 38.3725 41.4155 38.7208C41.3442 38.8718 41.1324 39.0501 40.9909 39.0783C40.525 39.1711 40.1575 38.8644 40.1574 38.3825C40.1573 37.8373 40.6622 37.5192 41.1432 37.7616ZM35.2765 38.5447C35.5041 38.6554 35.7098 38.87 35.823 39.1148C35.9478 39.3849 35.9484 39.8631 35.8242 40.1311C35.7127 40.3717 35.497 40.5999 35.2716 40.7157C35.0309 40.8393 34.6032 40.8456 34.3611 40.7291C33.6509 40.3872 33.4487 39.4325 33.9593 38.8323C34.3013 38.4303 34.8119 38.3188 35.2765 38.5447ZM38.0497 39.2477C38.1723 39.2969 38.3343 39.4557 38.4016 39.5925C38.4834 39.7587 38.466 40.0998 38.3664 40.2801C38.2218 40.5422 37.9042 40.6809 37.6289 40.6022C37.4191 40.5422 37.2919 40.438 37.2008 40.2515C36.9694 39.7782 37.2771 39.2075 37.7637 39.2075C37.866 39.2075 37.9947 39.2256 38.0497 39.2477ZM44.0654 40.4148C44.2933 40.5382 44.3997 40.7215 44.4136 41.0147C44.4281 41.3191 44.3596 41.4756 44.1392 41.6415C44.0103 41.7385 43.9567 41.7547 43.764 41.7547C43.5714 41.7547 43.5175 41.7385 43.3882 41.6415C42.8446 41.2337 43.0973 40.3408 43.7565 40.3398C43.8567 40.3397 43.9837 40.3705 44.0654 40.4148ZM32.322 42.4049C32.572 42.4895 32.8742 42.8149 32.9629 43.0947C33.1547 43.7006 32.9291 44.3021 32.4011 44.5925C32.2435 44.6792 32.1706 44.6948 31.9137 44.6962C31.5502 44.6983 31.3574 44.6187 31.1231 44.37C30.8842 44.1162 30.7963 43.8907 30.7953 43.5283C30.794 43.0738 30.9563 42.7533 31.3159 42.5006C31.5893 42.3085 31.939 42.2752 32.322 42.4049ZM47.0711 43.0751C47.2825 43.2066 47.3841 43.4367 47.3636 43.7374C47.3515 43.9146 47.3265 43.9898 47.2431 44.0992C47.0294 44.3796 46.6955 44.4572 46.3864 44.2983C46.1239 44.1634 45.9745 43.7926 46.0548 43.4757C46.103 43.2858 46.322 43.0382 46.4897 42.9841C46.6582 42.9297 46.8977 42.9672 47.0711 43.0751ZM38.1117 43.4115C38.331 43.548 38.4277 43.7579 38.4097 44.0584C38.3978 44.2561 38.3764 44.3239 38.2894 44.438C38.1254 44.6532 37.976 44.7239 37.7187 44.7083C37.3281 44.6846 37.0836 44.4083 37.0879 43.9954C37.0938 43.4284 37.6391 43.1174 38.1117 43.4115Z" fill="white"/>
</svg>
