<svg width="157" height="64" viewBox="0 0 157 64" fill="none" xmlns="http://www.w3.org/2000/svg">
<path d="M59.7844 28.5743C59.4267 28.5743 59.1423 28.6629 58.9313 28.8403C58.7295 29.0083 58.6286 29.2369 58.6286 29.5263C58.6286 29.8063 58.7524 30.0303 59.0001 30.1983C59.257 30.3663 59.8395 30.5669 60.7476 30.8003C61.6649 31.0243 62.3758 31.3649 62.8804 31.8223C63.3849 32.2796 63.6372 32.9469 63.6372 33.8243C63.6372 34.7016 63.3115 35.4156 62.6602 35.9663C62.0181 36.5076 61.1696 36.7783 60.1147 36.7783C58.5919 36.7783 57.2205 36.2043 56.0005 35.0563L57.2801 33.4603C58.3167 34.3843 59.2753 34.8463 60.1559 34.8463C60.5504 34.8463 60.8577 34.7623 61.0778 34.5943C61.3072 34.4169 61.4218 34.1836 61.4218 33.8943C61.4218 33.5956 61.3026 33.3623 61.0641 33.1943C60.8256 33.0169 60.3532 32.8396 59.6468 32.6623C58.5277 32.3916 57.7067 32.0416 57.1838 31.6123C56.6701 31.1736 56.4133 30.4923 56.4133 29.5683C56.4133 28.6349 56.7389 27.9163 57.3902 27.4123C58.0507 26.9083 58.8717 26.6562 59.8532 26.6562C60.4953 26.6562 61.1375 26.7683 61.7796 26.9923C62.4217 27.2163 62.9813 27.5336 63.4583 27.9443L62.3713 29.5403C61.5365 28.8963 60.6742 28.5743 59.7844 28.5743Z" fill="white"/>
<path d="M75.7508 26.8802V28.8263H70.9624V30.8423H75.2692V32.7043H70.9624V34.7343H75.9022V36.6663H68.8159V26.8802H75.7508Z" fill="white"/>
<path d="M85.2446 28.7703V36.6663H83.0981V28.7703H80.3736V26.8802H87.969V28.7703H85.2446Z" fill="white"/>
<path d="M95.4415 34.1463C95.7993 34.5943 96.2809 34.8183 96.8863 34.8183C97.4917 34.8183 97.9688 34.5943 98.3173 34.1463C98.6751 33.6889 98.854 33.0683 98.854 32.2843V26.8802H101V32.3543C101 33.7729 100.615 34.8649 99.8447 35.6303C99.0741 36.3863 98.088 36.7643 96.8863 36.7643C95.6846 36.7643 94.6939 36.3816 93.9142 35.6163C93.1437 34.8509 92.7584 33.7636 92.7584 32.3543V26.8802H94.9049V32.2843C94.9049 33.0683 95.0838 33.6889 95.4415 34.1463Z" fill="white"/>
<path d="M85.7769 17.2222H70.7939C71.5022 13.6721 74.587 11 78.2854 11C81.9838 11 85.0686 13.6721 85.7769 17.2222Z" fill="white"/>
<path d="M85.7769 46.7778H70.7939C71.5022 50.3279 74.587 53 78.2854 53C81.9838 53 85.0686 50.3279 85.7769 46.7778Z" fill="white"/>
</svg>
