<svg width="158" height="64" viewBox="0 0 158 64" fill="none" xmlns="http://www.w3.org/2000/svg">
<path d="M49.6277 29.2034C49.6434 29.1255 49.6692 29.0426 49.6796 28.9595C49.7471 28.3782 49.7833 27.7921 49.887 27.2214C49.9441 26.9102 49.8352 26.827 49.5707 26.7491C48.481 26.4432 47.3812 26.3495 46.2553 26.5156C42.6493 27.0449 40.7918 30.1163 41.2537 33.25C41.9696 38.1323 46.8675 39.2428 50.0064 37.629C50.1101 37.5772 50.2139 37.4059 50.2139 37.2866C50.2295 35.7455 50.2191 34.1995 50.2295 32.6584C50.2295 32.4095 50.1411 32.3469 49.9128 32.3521C49.3887 32.3626 48.8649 32.3521 48.3407 32.3574C47.7647 32.3626 47.7961 32.2794 47.7961 32.8864C47.7961 33.7944 47.7961 34.7024 47.7961 35.6104C47.7961 35.7559 47.8013 35.8958 47.5938 35.9115C46.691 35.9891 45.8349 35.8648 45.0981 35.2993C43.9826 34.4379 43.5831 33.2654 43.7491 31.9007C43.9203 30.4999 44.6623 29.5191 46.0165 29.0368C46.7377 28.7827 47.4901 28.798 48.2321 28.8916C48.6884 28.9542 49.1398 29.0945 49.6277 29.2034ZM36.2778 31.813C36.3607 31.2889 36.4282 30.7598 36.5375 30.2409C37.3623 26.3652 40.5427 23.3143 44.4653 22.6193C49.8199 21.6699 54.8994 25.1098 55.9888 30.4122C57.1042 35.8394 53.4725 41.204 48.0348 42.1587C47.6095 42.2314 47.1839 42.2885 46.7533 42.3508C46.4109 42.3508 46.0684 42.3508 45.7259 42.3508C45.3006 42.2885 44.8698 42.2366 44.4497 42.1587C40.5427 41.4689 37.3571 38.4023 36.5375 34.5371C36.4282 34.0181 36.3659 33.4891 36.2778 32.965C36.2778 32.5811 36.2778 32.1972 36.2778 31.813Z" fill="white"/>
<path d="M85.204 35.352C86.9164 35.352 88.1251 34.1224 88.1251 32.3686C88.1251 30.641 86.9111 29.3853 85.2301 29.3801C83.5335 29.3748 82.3091 30.6305 82.3091 32.3738C82.3091 34.1123 83.5129 35.3471 85.204 35.352ZM85.2145 27.4554C88.2859 27.4241 90.1228 29.6553 90.1486 32.2858C90.1796 35.1964 88.1561 37.2668 85.3958 37.3135C82.1894 37.3706 80.2905 35.1445 80.2696 32.3794C80.2543 29.4945 82.3143 27.4554 85.2145 27.4554Z" fill="white"/>
<path d="M73.3857 30.5214C73.3857 30.8015 73.3961 31.0869 73.3805 31.3671C73.37 31.5693 73.4323 31.6577 73.6502 31.6472C74.143 31.6316 74.6359 31.6472 75.1342 31.642C75.7621 31.6316 76.1822 31.175 76.1926 30.5214C76.1978 29.873 75.7722 29.4007 75.1551 29.3798C74.6518 29.3642 74.1486 29.385 73.6453 29.3746C73.4431 29.3694 73.3808 29.4525 73.3912 29.6443C73.3961 29.9405 73.3857 30.2308 73.3857 30.5214ZM78.569 37.3028C77.8583 37.3028 77.1991 37.3132 76.5455 37.2924C76.4418 37.2872 76.3068 37.1626 76.2549 37.0641C75.6789 36.0005 75.1133 34.9316 74.5634 33.8576C74.4336 33.6035 74.2833 33.4943 74.0031 33.5256C73.8162 33.5461 73.6244 33.5308 73.3961 33.5308C73.3961 34.8018 73.3961 36.0367 73.3961 37.308C72.7787 37.308 72.1923 37.3132 71.6114 37.3028C71.5595 37.3028 71.4868 37.22 71.4663 37.1629C71.4402 37.0902 71.4558 37.0021 71.4558 36.9241C71.4558 33.9046 71.4558 30.8899 71.4558 27.8704C71.4558 27.4656 71.4558 27.4656 71.8449 27.4656C73.054 27.4656 74.268 27.4499 75.477 27.476C76.748 27.5021 77.7131 28.2438 78.0869 29.4424C78.4865 30.7135 78.0974 32.1143 77.1166 32.8253C76.8779 33.0018 76.5925 33.1212 76.2966 33.2872C77.0439 34.5944 77.796 35.9225 78.569 37.3028Z" fill="white"/>
<path d="M109.299 31.6469C109.927 31.6469 110.503 31.6574 111.073 31.6417C111.665 31.6261 112.069 31.1903 112.096 30.552C112.121 29.9398 111.727 29.4261 111.146 29.3899C110.596 29.3589 110.036 29.3743 109.486 29.3847C109.424 29.3847 109.304 29.4937 109.304 29.5507C109.294 30.2409 109.299 30.9206 109.299 31.6469ZM112.215 33.2761C112.952 34.5889 113.699 35.9118 114.462 37.2712C114.363 37.2868 114.29 37.3025 114.218 37.3025C113.662 37.3025 113.107 37.2973 112.552 37.3077C112.355 37.3129 112.246 37.2506 112.158 37.069C111.629 36.0468 111.068 35.0455 110.565 34.0181C110.373 33.6186 110.134 33.4473 109.709 33.5201C109.584 33.5409 109.455 33.5357 109.304 33.5458C109.304 34.8015 109.304 36.0311 109.304 37.3022C108.687 37.3022 108.1 37.3074 107.509 37.2969C107.462 37.2969 107.395 37.2193 107.379 37.1671C107.358 37.0843 107.363 36.9855 107.363 36.8974C107.363 33.8932 107.363 30.8841 107.363 27.8798C107.363 27.4597 107.363 27.4597 107.773 27.4597C108.972 27.4597 110.175 27.4441 111.374 27.465C112.65 27.4858 113.61 28.2171 114 29.4105C114.41 30.6766 114.026 32.0771 113.055 32.7986C112.806 32.9806 112.516 33.1101 112.215 33.2761Z" fill="white"/>
<path d="M66.7437 32.3834C67.3817 32.3834 67.9629 32.3782 68.5493 32.3939C68.6064 32.3939 68.7101 32.5132 68.7101 32.5808C68.7206 33.9037 68.7206 35.2217 68.7101 36.5449C68.7101 36.628 68.6217 36.7471 68.5441 36.7888C65.9446 38.1326 61.9339 37.2093 61.2545 33.3332C60.9016 31.3254 61.4463 29.5664 63.1482 28.3368C64.7046 27.2109 66.4583 27.1382 68.2587 27.6675C68.3367 27.6884 68.4247 27.8596 68.4143 27.9581C68.3677 28.5185 68.2949 29.0788 68.2326 29.6235C67.7294 29.5302 67.247 29.4004 66.7538 29.3538C65.5399 29.2448 64.4606 29.5354 63.7343 30.6043C62.624 32.2386 63.3139 34.615 65.0885 35.2272C65.5141 35.3723 65.9965 35.357 66.4531 35.4036C66.671 35.4245 66.7489 35.3104 66.7489 35.0925C66.7385 34.3247 66.7437 33.557 66.7437 32.7941C66.7437 32.6688 66.7437 32.5495 66.7437 32.3834Z" fill="white"/>
<path d="M104.936 37.2926C103.229 37.2926 101.568 37.2926 99.8666 37.2926C99.8614 37.1889 99.8457 37.0852 99.8457 36.9815C99.8457 33.9462 99.8457 30.911 99.8457 27.8758C99.8457 27.4609 99.8457 27.4609 100.261 27.4609C101.63 27.4609 103.005 27.4609 104.375 27.4609C104.484 27.4609 104.593 27.4609 104.728 27.4609C104.728 28.1041 104.728 28.7219 104.728 29.3859C104.422 29.3859 104.126 29.3859 103.825 29.3859C103.229 29.3859 102.637 29.3859 102.04 29.3859C101.905 29.3859 101.776 29.3807 101.781 29.578C101.786 30.1693 101.781 30.7662 101.781 31.3993C102.647 31.3993 103.498 31.3993 104.365 31.3993C104.365 32.0633 104.365 32.6807 104.365 33.35C103.514 33.35 102.663 33.35 101.796 33.35C101.796 34.0402 101.796 34.6781 101.796 35.3477C101.931 35.3582 102.061 35.3686 102.185 35.3686C102.995 35.3686 103.799 35.379 104.608 35.3634C104.857 35.3582 104.945 35.4309 104.935 35.685C104.92 36.2134 104.936 36.7375 104.936 37.2926Z" fill="white"/>
<path d="M121.286 27.7926C121.203 28.4205 121.125 29.0118 121.042 29.6139C120.601 29.5049 120.181 29.3751 119.75 29.2972C119.486 29.2453 119.205 29.2453 118.936 29.261C118.474 29.292 118.163 29.5878 118.048 30.0392C117.945 30.4544 118.09 30.8383 118.479 31.077C118.692 31.2068 118.936 31.2845 119.159 31.3986C119.683 31.6579 120.228 31.8758 120.715 32.1925C121.758 32.8722 122.178 33.8477 121.934 35.0878C121.711 36.2137 120.819 37.0852 119.646 37.3082C118.401 37.547 117.223 37.2926 116.092 36.7636C116.02 36.7274 115.932 36.6184 115.937 36.5509C115.999 35.9387 116.082 35.3317 116.165 34.6726C116.29 34.7453 116.378 34.7972 116.471 34.8438C117.275 35.2848 118.131 35.5026 119.055 35.4041C119.553 35.3523 119.921 35.0359 120.009 34.6103C120.093 34.2003 119.87 33.7854 119.413 33.5623C119.045 33.3807 118.645 33.2616 118.271 33.0852C117.903 32.9035 117.529 32.7169 117.192 32.4782C116.222 31.7985 115.874 30.8438 116.123 29.6971C116.367 28.5555 117.052 27.7773 118.188 27.4763C119.252 27.201 120.269 27.4345 121.286 27.7926Z" fill="white"/>
<path d="M94.6834 37.2922C94.0194 37.2922 93.4072 37.2922 92.7637 37.2922C92.7637 34.0287 92.7637 30.7704 92.7637 27.4755C92.8622 27.4703 92.9711 27.4546 93.0748 27.4546C94.4757 27.4546 95.8765 27.4599 97.2826 27.4494C97.568 27.4442 97.6508 27.5375 97.6407 27.8128C97.6198 28.228 97.6198 28.6428 97.6407 29.0528C97.6563 29.3278 97.5526 29.3953 97.293 29.3901C96.5458 29.3744 95.7989 29.3848 95.0517 29.3848C94.9427 29.3848 94.8338 29.3848 94.6988 29.3848C94.6988 30.0698 94.6988 30.7182 94.6988 31.4031C95.5184 31.4031 96.3331 31.4031 97.1841 31.4031C97.1841 32.0257 97.1893 32.6174 97.1736 33.2087C97.1736 33.2606 97.0076 33.3542 96.9143 33.3542C96.2917 33.3698 95.6639 33.3594 95.036 33.3594C94.9271 33.3594 94.8181 33.3594 94.6782 33.3594C94.6834 34.6826 94.6834 35.9693 94.6834 37.2922Z" fill="white"/>
<path d="M56.1965 24.0512C55.2833 24.0512 54.583 23.3353 54.583 22.4117C54.5882 21.5245 55.3146 20.8086 56.2069 20.8086C57.1097 20.8138 57.8257 21.5402 57.8204 22.4534C57.8152 23.3458 57.0993 24.0512 56.1965 24.0512Z" fill="white"/>
</svg>
