<svg width="158" height="64" viewBox="0 0 158 64" fill="none" xmlns="http://www.w3.org/2000/svg">
<g clip-path="url(#clip0)">
<path d="M47.6729 21.9389C47.6729 21.3327 47.7889 20.7812 48.0159 20.2843C48.2429 19.7875 48.5557 19.3651 48.9492 19.0123C49.3428 18.6595 49.7968 18.3863 50.3164 18.1925C50.8361 17.9987 51.391 17.9043 51.9712 17.9043C52.5463 17.9043 53.0962 18.0037 53.6159 18.1925C54.1355 18.3863 54.5946 18.6595 54.9932 19.0123C55.3867 19.3651 55.6995 19.7924 55.9316 20.2843C56.1586 20.7812 56.2746 21.3327 56.2746 21.9389V31.4193C56.2746 32.0255 56.1586 32.577 55.9265 33.0739C55.6944 33.5707 55.3816 33.9931 54.9881 34.3409C54.5946 34.6887 54.1406 34.962 53.6209 35.1558C53.1013 35.3496 52.5463 35.444 51.9611 35.444C51.3759 35.444 50.826 35.3446 50.3114 35.1508C49.7968 34.9521 49.3377 34.6788 48.9492 34.326C48.5557 33.9732 48.248 33.5509 48.0159 33.059C47.7889 32.5671 47.6729 32.0205 47.6729 31.4193V21.9389V21.9389ZM50.039 31.3199C50.039 31.5932 50.0844 31.8516 50.1802 32.095C50.2761 32.3385 50.4073 32.5571 50.5737 32.736C50.7402 32.9149 50.942 33.059 51.1791 33.1683C51.4163 33.2776 51.6786 33.3273 51.9611 33.3273C52.2537 33.3273 52.5211 33.2776 52.7633 33.1732C53.0054 33.0689 53.2123 32.9298 53.3838 32.7559C53.5553 32.577 53.6865 32.3733 53.7824 32.1348C53.8782 31.8963 53.9236 31.6429 53.9236 31.3696V22.0482C53.9236 21.7749 53.8782 21.5166 53.7824 21.2681C53.6865 21.0197 53.5553 20.8011 53.3838 20.6172C53.2123 20.4334 53.0105 20.2843 52.7734 20.175C52.5363 20.0657 52.2739 20.0061 51.9914 20.0061C51.6988 20.0061 51.4364 20.0607 51.1993 20.175C50.9572 20.2843 50.7554 20.4284 50.5838 20.6172C50.4123 20.8011 50.2811 21.0197 50.1853 21.2681C50.0894 21.5215 50.044 21.7799 50.044 22.0482V31.3199H50.039Z" fill="white"/>
<path d="M58.6759 18.6004C58.6759 18.4712 58.7113 18.3619 58.7819 18.2824C58.8525 18.198 58.9534 18.1582 59.0745 18.1582H63.0752C63.6907 18.1582 64.2557 18.2675 64.7703 18.4861C65.2849 18.7048 65.7238 19.0029 66.0972 19.3855C66.4705 19.7681 66.7581 20.2153 66.9649 20.732C67.1718 21.2488 67.2777 21.8053 67.2777 22.3965V23.8474C67.2777 24.7666 67.0759 25.5418 66.6773 26.1728C66.2788 26.8038 65.7642 27.2908 65.1386 27.6237L67.4291 34.729C67.4644 34.8432 67.4543 34.9476 67.4089 35.042C67.3635 35.1364 67.2928 35.1811 67.1919 35.1811H65.5019C65.3959 35.1811 65.3101 35.1612 65.2597 35.1215C65.2042 35.0817 65.1588 34.9923 65.1134 34.8482L63.0248 28.1504H61.037V34.7637C61.037 35.042 60.9109 35.1811 60.6637 35.1811H59.0493C58.797 35.1811 58.6709 35.042 58.6709 34.7637V18.6004H58.6759ZM61.0421 20.2898V26.1629H62.9188C63.2417 26.1629 63.5293 26.1082 63.7815 26.0039C64.0338 25.8995 64.2406 25.7455 64.4071 25.5567C64.5736 25.3629 64.6997 25.1393 64.7905 24.8809C64.8763 24.6225 64.9217 24.3443 64.9217 24.0362V22.3965C64.9217 22.0835 64.8763 21.8003 64.7855 21.5419C64.6947 21.2835 64.5584 21.06 64.3869 20.8761C64.2103 20.6923 63.9984 20.5482 63.7512 20.4438C63.499 20.3395 63.2215 20.2898 62.9138 20.2898H61.0421V20.2898Z" fill="white"/>
<path d="M78.0033 34.7588C78.0386 34.883 78.0335 34.9824 77.9932 35.0668C77.9528 35.1463 77.8721 35.1911 77.7561 35.1911H76.1417C76.0508 35.1911 75.96 35.1662 75.8743 35.1165C75.7885 35.0668 75.728 34.9774 75.7078 34.8482L75.2436 32.3738H71.5557L71.1067 34.8482C71.0815 34.9824 71.026 35.0718 70.9453 35.1165C70.8595 35.1662 70.7737 35.1911 70.6829 35.1911H69.0685C68.9525 35.1911 68.8718 35.1513 68.8264 35.0668C68.781 34.9824 68.7759 34.878 68.8062 34.7439L72.3074 18.5259C72.3377 18.3868 72.3932 18.2924 72.4638 18.2377C72.5345 18.183 72.6202 18.1582 72.7211 18.1582H74.1085C74.2094 18.1582 74.2952 18.183 74.3658 18.2377C74.4364 18.2924 74.4818 18.3868 74.5121 18.5259L78.0033 34.7588ZM71.9038 30.4857H74.8905L73.5031 22.9729L73.4022 22.0736L73.3063 22.9729L71.9038 30.4857Z" fill="white"/>
<path d="M79.7541 18.6004C79.7541 18.4712 79.7894 18.3619 79.86 18.2824C79.9306 18.2029 80.0265 18.1582 80.1526 18.1582H81.5905C81.6258 18.1582 81.651 18.1632 81.6661 18.1731C81.6914 18.1731 81.7065 18.1781 81.7166 18.183C81.8679 18.2228 81.9789 18.3371 82.0546 18.516L86.1915 29.5366L86.469 30.7291L86.4286 29.6211L86.3277 18.6004C86.3277 18.4861 86.358 18.3818 86.4236 18.2924C86.4841 18.2029 86.585 18.1582 86.7162 18.1582H88.1692C88.2751 18.1582 88.3659 18.193 88.4365 18.2625C88.5072 18.3321 88.5425 18.4414 88.5425 18.5905V34.7588C88.5425 35.047 88.4012 35.1911 88.1187 35.1911H86.6557C86.5699 35.1911 86.4841 35.1662 86.3984 35.1165C86.3126 35.0668 86.247 34.9824 86.2016 34.8582L82.0748 23.9965L81.8377 23.112L81.8881 24.0611L81.9638 34.7488C81.9638 34.888 81.9335 34.9973 81.878 35.0768C81.8225 35.1563 81.7216 35.1911 81.5753 35.1911H80.1224C79.9912 35.1911 79.8953 35.1513 79.8348 35.0768C79.7743 34.9973 79.749 34.888 79.749 34.7488V18.6004H79.7541Z" fill="white"/>
<path d="M93.4515 32.1348C93.5575 32.3832 93.6937 32.5919 93.8703 32.7708C94.0469 32.9497 94.2487 33.0838 94.4858 33.1832C94.7179 33.2826 94.9651 33.3322 95.2224 33.3322C95.4948 33.3322 95.7571 33.2826 95.9993 33.1782C96.2414 33.0739 96.4483 32.9348 96.6249 32.7509C96.8014 32.572 96.9377 32.3633 97.0386 32.1248C97.1395 31.8863 97.1899 31.6329 97.1899 31.3597V28.3039H95.8631C95.6209 28.3039 95.4998 28.1747 95.4998 27.9213V26.7288C95.4998 26.4754 95.6209 26.3462 95.8631 26.3462H99.0011C99.1423 26.3462 99.2483 26.3859 99.3139 26.4605C99.3795 26.54 99.4148 26.6493 99.4148 26.7884V31.4193C99.4148 32.0255 99.3088 32.577 99.0868 33.0739C98.8699 33.5707 98.5723 33.9931 98.1939 34.3409C97.8155 34.6887 97.3715 34.962 96.862 35.1558C96.3524 35.3496 95.8076 35.444 95.2224 35.444C94.6573 35.444 94.1124 35.3496 93.5979 35.1657C93.0833 34.9819 92.6292 34.7136 92.2357 34.3657C91.8422 34.0179 91.5294 33.5956 91.2923 33.0987C91.0552 32.6018 90.9341 32.0404 90.9341 31.4193V21.9389C90.9341 21.3327 91.0501 20.7812 91.2771 20.2843C91.5042 19.7875 91.817 19.3651 92.2105 19.0123C92.604 18.6595 93.058 18.3863 93.5777 18.1925C94.0973 17.9987 94.6523 17.9043 95.2324 17.9043C95.7269 17.9043 96.1708 17.9639 96.5643 18.0881C96.9578 18.2124 97.311 18.3763 97.6137 18.58C97.9164 18.7838 98.1787 19.0272 98.3957 19.3005C98.6126 19.5738 98.7892 19.867 98.9254 20.17C99.0616 20.4731 99.1676 20.7812 99.2331 21.0942C99.2987 21.4073 99.334 21.7054 99.334 21.9936V22.9625C99.334 23.1414 99.3038 23.2656 99.2483 23.3401C99.1877 23.4097 99.102 23.4444 98.9859 23.4444H97.4724C97.3312 23.4444 97.2353 23.4097 97.1899 23.3451C97.1445 23.2805 97.1193 23.1662 97.1193 23.0022V22.0433C97.1193 21.7749 97.0739 21.5166 96.9831 21.2731C96.8923 21.0296 96.7611 20.816 96.5946 20.6272C96.4281 20.4384 96.2263 20.2893 95.9942 20.18C95.7622 20.0707 95.5049 20.011 95.2173 20.011C94.9348 20.011 94.6775 20.0657 94.4404 20.17C94.2083 20.2744 94.0065 20.4185 93.835 20.6023C93.6634 20.7812 93.5323 20.9949 93.4364 21.2383C93.3406 21.4818 93.2901 21.7402 93.2901 22.0184V31.3249C93.2952 31.618 93.3506 31.8863 93.4515 32.1348Z" fill="white"/>
<path d="M101.771 18.6004C101.771 18.4712 101.806 18.3619 101.877 18.2824C101.947 18.2029 102.043 18.1582 102.169 18.1582H108.945C109.036 18.1582 109.116 18.188 109.182 18.2526C109.247 18.3122 109.283 18.4166 109.283 18.5557V19.9122C109.283 20.0513 109.247 20.1507 109.182 20.2103C109.116 20.2699 109.036 20.2948 108.945 20.2948H104.132V25.4474H108.006C108.097 25.4474 108.183 25.4722 108.264 25.5269C108.344 25.5815 108.38 25.6759 108.38 25.815V27.1715C108.38 27.3106 108.339 27.41 108.264 27.4647C108.183 27.5243 108.097 27.5491 108.006 27.5491H104.132V33.0793H108.96C109.051 33.0793 109.136 33.1042 109.212 33.1588C109.288 33.2135 109.323 33.3029 109.323 33.4371V34.8035C109.323 34.9426 109.288 35.042 109.212 35.0967C109.136 35.1563 109.056 35.1811 108.96 35.1811H102.169C102.028 35.1811 101.927 35.1414 101.861 35.0668C101.801 34.9873 101.766 34.878 101.766 34.7389V18.6004H101.771Z" fill="white"/>
<path d="M110.534 17C113.43 17 115.594 17.7552 115.594 22.3265V27.8617C115.594 30.3013 115.837 31.5038 118.001 32.1944C115.837 32.9149 115.594 34.1173 115.594 36.557V42.0922C115.594 46.6634 113.43 47.4187 110.534 47.4187V47.0063C112.698 46.3901 113.082 44.9442 113.082 42.2959V37.1035C113.082 34.4204 113.743 32.9099 116.154 32.2242V32.1547C113.748 31.4988 113.082 29.9883 113.082 27.3101V22.1228C113.082 19.4744 112.698 17.9987 110.534 17.4124V17Z" fill="white"/>
<path d="M46.4671 17.4124C44.3028 17.9987 43.9194 19.4744 43.9194 22.1228V27.3101C43.9194 29.9883 43.2585 31.5038 40.847 32.1547V32.2242C43.2534 32.9099 43.9194 34.4254 43.9194 37.1035V42.2909C43.9194 44.9393 44.3028 46.3802 46.4671 47.0013V47.4137C43.5713 47.4137 41.407 46.6584 41.407 42.0872V36.552C41.407 34.1124 41.1648 32.9099 39.0005 32.1895C41.1648 31.5038 41.407 30.3013 41.407 27.8567V22.3265C41.407 17.7552 43.5713 17 46.4671 17V17.4124Z" fill="white"/>
<path d="M47.6877 43.424C47.6877 43.2799 47.7886 43.2054 47.9853 43.2054H48.7976C48.9287 43.2054 48.9994 43.2799 48.9994 43.434V43.6377C48.9994 43.7669 49.0246 43.8911 49.075 44.0054C49.1255 44.1196 49.1961 44.214 49.2869 44.2985C49.3777 44.378 49.4837 44.4426 49.5997 44.4873C49.7208 44.532 49.852 44.5569 49.9932 44.5569C50.1244 44.5569 50.2556 44.532 50.3716 44.4824C50.4927 44.4327 50.5986 44.3681 50.6844 44.2786C50.7752 44.1892 50.8458 44.0898 50.8963 43.9706C50.9467 43.8563 50.972 43.7271 50.972 43.593C50.972 43.4439 50.9266 43.2998 50.8307 43.1706C50.7349 43.0414 50.6087 42.9122 50.4473 42.7831C50.2858 42.6588 50.0992 42.5247 49.8873 42.3955C49.6754 42.2613 49.4433 42.1123 49.2012 41.9433C48.9994 41.8241 48.8127 41.6899 48.6361 41.5508C48.4596 41.4067 48.3082 41.2527 48.177 41.0837C48.0459 40.9148 47.9399 40.726 47.8642 40.5173C47.7886 40.3086 47.7482 40.0751 47.7482 39.8167C47.7482 39.5236 47.8037 39.2503 47.9147 38.9919C48.0257 38.7335 48.177 38.5099 48.3788 38.3211C48.5756 38.1323 48.8127 37.9832 49.0902 37.8739C49.3626 37.7646 49.6653 37.71 49.9831 37.71C50.3363 37.71 50.6541 37.7646 50.9316 37.869C51.2091 37.9733 51.4462 38.1224 51.648 38.3112C51.8448 38.5 51.9961 38.7286 52.097 38.9869C52.1979 39.2503 52.2534 39.5335 52.2534 39.8416V40.0403C52.2534 40.1099 52.2332 40.1596 52.1929 40.1794C52.1525 40.2043 52.0869 40.2142 52.0012 40.2142H51.2091C51.0678 40.2142 50.9922 40.1446 50.9922 40.0006V39.8217C50.9922 39.6875 50.9669 39.5583 50.9215 39.449C50.8711 39.3347 50.8055 39.2354 50.7197 39.1559C50.634 39.0714 50.5381 39.0068 50.4221 38.9571C50.306 38.9074 50.1849 38.8876 50.0487 38.8876C49.9125 38.8876 49.7864 38.9124 49.6754 38.9621C49.5644 39.0118 49.4686 39.0813 49.3828 39.1708C49.3021 39.2602 49.2365 39.3596 49.1961 39.4788C49.1507 39.5931 49.1305 39.7173 49.1305 39.8465C49.1305 39.9906 49.1507 40.1148 49.2012 40.2192C49.2466 40.3186 49.3223 40.4179 49.4282 40.5123C49.5341 40.6067 49.6704 40.7011 49.8318 40.8055C49.9983 40.9049 50.2051 41.0291 50.4473 41.1781C50.6995 41.3173 50.9367 41.4713 51.1687 41.6402C51.4008 41.8092 51.5976 41.9881 51.7741 42.1868C51.9457 42.3856 52.0869 42.5992 52.1929 42.8327C52.2988 43.0663 52.3493 43.3246 52.3493 43.6029C52.3493 43.911 52.2938 44.1942 52.1828 44.4525C52.0718 44.7109 51.9154 44.9395 51.7085 45.1283C51.5017 45.3171 51.2595 45.4711 50.977 45.5755C50.6945 45.6848 50.3817 45.7395 50.0386 45.7395C49.5997 45.7395 49.2264 45.6798 48.9287 45.5655C48.6311 45.4513 48.3889 45.2923 48.2023 45.0985C48.0206 44.8997 47.8844 44.6761 47.8037 44.4178C47.723 44.1594 47.6826 43.8911 47.6826 43.6079V43.424H47.6877Z" fill="white"/>
<path d="M54.7964 39.8464C54.7964 39.5483 54.8569 39.2701 54.9831 39.0117C55.1041 38.7533 55.2757 38.5247 55.4876 38.3359C55.6994 38.1422 55.9467 37.9931 56.2342 37.8838C56.5167 37.7745 56.8194 37.7148 57.1423 37.7148C57.4702 37.7148 57.778 37.7695 58.0656 37.8738C58.3531 37.9782 58.6054 38.1273 58.8223 38.3161C59.0393 38.5049 59.2057 38.7334 59.3268 38.9918C59.4479 39.2552 59.5135 39.5384 59.5135 39.8464V43.5978C59.5135 43.9109 59.4529 44.1991 59.3268 44.4574C59.2057 44.7158 59.0342 44.9394 58.8223 45.1332C58.6054 45.322 58.3582 45.4711 58.0706 45.5754C57.783 45.6797 57.4753 45.7344 57.1474 45.7344C56.8245 45.7344 56.5218 45.6797 56.2342 45.5754C55.9467 45.4711 55.6994 45.322 55.4876 45.1332C55.2757 44.9444 55.1092 44.7208 54.9831 44.4574C54.862 44.1991 54.7964 43.9109 54.7964 43.5978V39.8464V39.8464ZM56.1787 43.568C56.1787 43.6922 56.2039 43.8165 56.2494 43.9307C56.2998 44.045 56.3654 44.1494 56.4562 44.2388C56.547 44.3282 56.6479 44.3978 56.769 44.4475C56.8901 44.5022 57.0162 44.527 57.1575 44.527C57.2987 44.527 57.4299 44.5022 57.5459 44.4475C57.667 44.3978 57.7679 44.3282 57.8537 44.2388C57.9394 44.1494 58.0101 44.05 58.0555 43.9307C58.1059 43.8165 58.1261 43.6922 58.1261 43.568V39.8862C58.1261 39.762 58.1009 39.6377 58.0555 39.5185C58.005 39.3992 57.9394 39.2949 57.8537 39.2104C57.7679 39.121 57.662 39.0514 57.5459 38.9968C57.4299 38.9421 57.2987 38.9173 57.1575 38.9173C57.0162 38.9173 56.885 38.9421 56.7639 38.9968C56.6429 39.0514 56.542 39.121 56.4562 39.2104C56.3704 39.2999 56.2998 39.3992 56.2544 39.5185C56.209 39.6377 56.1838 39.757 56.1838 39.8812V43.568H56.1787Z" fill="white"/>
<path d="M68.413 39.9013C68.413 39.8118 68.4029 39.7075 68.3827 39.5932C68.3626 39.4789 68.3172 39.3746 68.2566 39.2752C68.1961 39.1758 68.1103 39.0963 67.9993 39.0268C67.8883 38.9572 67.742 38.9224 67.5655 38.9224C67.4393 38.9224 67.3233 38.9423 67.2073 38.987C67.0963 39.0317 66.9903 39.0914 66.8995 39.1709C66.8087 39.2504 66.733 39.3497 66.6725 39.474C66.6119 39.5932 66.5817 39.7323 66.5766 39.8814V45.352C66.5766 45.511 66.506 45.5954 66.3597 45.5954H65.3356C65.27 45.5954 65.2195 45.5756 65.1792 45.5309C65.1388 45.4861 65.1186 45.4265 65.1186 45.352V39.8466C65.1136 39.7572 65.0984 39.6578 65.0682 39.5485C65.0429 39.4392 64.9975 39.3398 64.937 39.2454C64.8765 39.151 64.7907 39.0765 64.6898 39.0119C64.5889 38.9522 64.4577 38.9224 64.3064 38.9224C64.1802 38.9224 64.0592 38.9473 63.9431 38.997C63.822 39.0466 63.7161 39.1112 63.6202 39.1957C63.5244 39.2802 63.4487 39.3845 63.3831 39.5038C63.3226 39.623 63.2873 39.7621 63.2822 39.9112V45.3122C63.2822 45.4066 63.252 45.4812 63.1914 45.5259C63.1309 45.5706 63.0703 45.5954 63.0098 45.5954H62.0462C61.9857 45.5954 61.9352 45.5756 61.8898 45.5309C61.8444 45.4861 61.8242 45.4265 61.8242 45.352V38.0827C61.8242 38.0032 61.8494 37.9436 61.8948 37.9038C61.9403 37.8641 61.9957 37.8492 62.0512 37.8492H62.6819C62.7626 37.8492 62.8282 37.8641 62.8786 37.8989C62.9291 37.9336 62.9644 37.9883 62.9795 38.0777L63.0502 38.356C63.257 38.1622 63.4891 38.0082 63.7514 37.8889C64.0138 37.7697 64.3013 37.71 64.6141 37.71C64.71 37.71 64.826 37.72 64.9622 37.7349C65.0984 37.7548 65.2347 37.7895 65.381 37.8392C65.5222 37.8939 65.6635 37.9684 65.8047 38.0678C65.941 38.1672 66.0671 38.3013 66.1831 38.4703C66.4001 38.2318 66.6523 38.0479 66.9449 37.9088C67.2375 37.7697 67.5604 37.7051 67.9186 37.7051C67.9943 37.7051 68.0952 37.71 68.2213 37.725C68.3474 37.7399 68.4786 37.7697 68.6249 37.8144C68.7712 37.8641 68.9175 37.9336 69.0689 38.028C69.2152 38.1225 69.3514 38.2516 69.4674 38.4156C69.5885 38.5796 69.6844 38.7833 69.76 39.0268C69.8357 39.2702 69.871 39.5684 69.871 39.9162V45.347C69.871 45.506 69.8004 45.5905 69.6541 45.5905H68.6249C68.4836 45.5905 68.413 45.511 68.413 45.347V39.9013V39.9013Z" fill="white"/>
<path d="M72.5747 39.8464C72.5747 39.5533 72.6352 39.28 72.7614 39.0167C72.8825 38.7583 73.054 38.5297 73.2659 38.3359C73.4778 38.1422 73.73 37.9881 74.0125 37.8788C74.3001 37.7695 74.6028 37.7148 74.9257 37.7148C75.2536 37.7148 75.5563 37.7695 75.8338 37.8788C76.1113 37.9881 76.3484 38.1422 76.5502 38.3359C76.7469 38.5297 76.9033 38.7583 77.0143 39.0167C77.1253 39.275 77.1808 39.5533 77.1808 39.8464V41.7544C77.1808 41.824 77.1606 41.8836 77.1152 41.9234C77.0698 41.9681 77.0143 41.988 76.9437 41.988H73.9621V43.5978C73.9621 43.7221 73.9873 43.8463 74.0378 43.9606C74.0882 44.0748 74.1588 44.1792 74.2497 44.2637C74.3405 44.3481 74.4464 44.4177 74.5624 44.4723C74.6835 44.527 74.8147 44.5518 74.956 44.5518C75.1023 44.5518 75.2284 44.527 75.3495 44.4723C75.4655 44.4177 75.5664 44.3481 75.6471 44.2587C75.7278 44.1692 75.7934 44.0649 75.8388 43.9457C75.8842 43.8314 75.9095 43.7072 75.9095 43.5829V43.3097C75.9095 43.25 75.9296 43.2053 75.965 43.1755C76.0053 43.1457 76.0507 43.1308 76.1062 43.1308H76.9841C77.0295 43.1308 77.0698 43.1407 77.1051 43.1656C77.1405 43.1854 77.1606 43.2401 77.1606 43.3295V43.6028C77.1606 43.9009 77.1051 44.1792 76.9941 44.4326C76.8832 44.691 76.7318 44.9146 76.5401 45.1083C76.3433 45.3021 76.1113 45.4562 75.8338 45.5655C75.5563 45.6748 75.2536 45.7344 74.9257 45.7344C74.6028 45.7344 74.3001 45.6797 74.0125 45.5655C73.725 45.4562 73.4778 45.3021 73.2659 45.1083C73.054 44.9146 72.8875 44.691 72.7614 44.4326C72.6403 44.1742 72.5747 43.896 72.5747 43.6028V39.8464ZM73.957 41.029H75.9095V39.8564C75.9095 39.7322 75.8842 39.6079 75.8388 39.4887C75.7934 39.3694 75.7278 39.2701 75.6421 39.1806C75.5563 39.0962 75.4554 39.0266 75.3394 38.9719C75.2233 38.9173 75.0922 38.8924 74.956 38.8924C74.8147 38.8924 74.6835 38.9173 74.5624 38.9719C74.4414 39.0266 74.3354 39.0962 74.2497 39.1806C74.1588 39.2651 74.0882 39.3694 74.0378 39.4887C73.9873 39.6079 73.9621 39.7322 73.9621 39.8564V41.029H73.957Z" fill="white"/>
<path d="M81.5199 37.8486H82.4735C82.5239 37.8486 82.5693 37.8684 82.6097 37.9032C82.65 37.943 82.6652 38.0026 82.6652 38.0821V38.8175C82.6652 38.887 82.645 38.9467 82.6097 38.9964C82.5693 39.046 82.5189 39.0709 82.4533 39.0709H81.525V43.662C81.525 43.8806 81.5805 44.0496 81.6864 44.1788C81.7924 44.303 81.979 44.3676 82.2414 44.3676H82.4583C82.5542 44.3676 82.6147 44.3974 82.6349 44.452C82.6551 44.5117 82.6652 44.5613 82.6652 44.6011V45.3812C82.6652 45.406 82.6601 45.4309 82.6551 45.4557C82.65 45.4806 82.6349 45.5054 82.6147 45.5253C82.5895 45.5452 82.5592 45.565 82.5088 45.5799C82.4634 45.5948 82.4028 45.6048 82.3271 45.6048H81.8983C81.641 45.6048 81.409 45.57 81.192 45.5054C80.9751 45.4408 80.7935 45.3365 80.6371 45.1874C80.4857 45.0433 80.3646 44.8495 80.2789 44.611C80.1931 44.3725 80.1477 44.0794 80.1477 43.7316V39.0709H79.5877C79.5473 39.0709 79.5019 39.051 79.4515 39.0063C79.401 38.9616 79.3809 38.9019 79.3809 38.8224V38.097C79.3809 38.0125 79.4061 37.9479 79.4515 37.9132C79.5019 37.8734 79.5423 37.8585 79.5877 37.8585H80.1477V36.6412C80.1477 36.4871 80.2133 36.3977 80.3495 36.3778L81.2778 36.1045C81.3484 36.0946 81.409 36.1095 81.4594 36.1493C81.5099 36.189 81.5351 36.2536 81.5351 36.3381V37.8486H81.5199Z" fill="white"/>
<path d="M89.8646 39.0165C89.7637 38.7482 89.6224 38.5196 89.4458 38.3258C89.2642 38.1321 89.0574 37.983 88.8102 37.8737C88.563 37.7644 88.2956 37.7097 88.003 37.7097C87.7558 37.7097 87.5237 37.7495 87.3017 37.8339C87.2916 37.8389 87.2815 37.8389 87.2714 37.8439C87.0595 37.9283 86.8628 38.0376 86.6812 38.1768V36.2936C86.6761 36.2241 86.6509 36.1694 86.6105 36.1346C86.5601 36.0949 86.4995 36.08 86.4289 36.0899L85.5006 36.3632C85.3644 36.3831 85.2988 36.4725 85.2988 36.6265V37.8439V45.3616C85.2988 45.5106 85.3745 45.5901 85.5208 45.5901H86.3986C86.4743 45.5901 86.5349 45.5752 86.5803 45.5504C86.5954 45.5405 86.6055 45.5305 86.6156 45.5206C86.661 45.4709 86.6812 45.4162 86.6812 45.3417V40.0053C86.6812 39.9904 86.6812 39.9705 86.6812 39.9556C86.6862 39.8363 86.7114 39.7221 86.7518 39.6028C86.8022 39.4736 86.8678 39.3544 86.9536 39.255C87.0192 39.1805 87.0898 39.1159 87.1705 39.0662C87.2008 39.0463 87.2311 39.0264 87.2613 39.0115C87.3824 38.9519 87.5136 38.9221 87.6649 38.9221C87.7104 38.9221 87.7558 38.9271 87.7961 38.932C87.8869 38.942 87.9676 38.9668 88.0433 38.9966C88.1594 39.0463 88.2603 39.1159 88.341 39.2053C88.4267 39.2947 88.4923 39.3941 88.5428 39.5084C88.5932 39.6227 88.6185 39.737 88.6235 39.8612V45.3616C88.6235 45.4361 88.6437 45.4957 88.6891 45.5355C88.7345 45.5752 88.7799 45.5951 88.8303 45.5951H89.804C89.8545 45.5951 89.8999 45.5752 89.9403 45.5355C89.9806 45.4957 90.0008 45.4361 90.0008 45.3616V39.891C90.0159 39.573 89.9655 39.2798 89.8646 39.0165Z" fill="white"/>
<path d="M92.8862 38.0623C92.8862 38.0076 92.9064 37.9579 92.9518 37.9132C92.9972 37.8685 93.0477 37.8486 93.1183 37.8486H94.0214C94.092 37.8486 94.1525 37.8685 94.203 37.9182C94.2484 37.9629 94.2736 38.0126 94.2736 38.0623V45.3614C94.2736 45.5204 94.1879 45.5949 94.0214 45.5949H93.1183C92.967 45.5949 92.8913 45.5154 92.8913 45.3614V38.0623H92.8862Z" fill="white"/>
<path d="M98.5518 45.3219C98.5518 45.4113 98.5215 45.4809 98.461 45.5256C98.4004 45.5703 98.3449 45.5952 98.2894 45.5952H97.3763C97.3258 45.5952 97.2754 45.5753 97.235 45.5306C97.1896 45.4859 97.1694 45.4262 97.1694 45.3517V38.0775C97.1694 38.0029 97.1947 37.9433 97.2401 37.9085C97.2855 37.8688 97.3359 37.8539 97.3914 37.8539H97.9918C98.0624 37.8539 98.1229 37.8688 98.1683 37.8986C98.2137 37.9284 98.244 37.9831 98.2592 38.0675L98.3197 38.3756C98.5165 38.1769 98.7334 38.0179 98.9806 37.8986C99.2278 37.7794 99.4952 37.7197 99.7777 37.7197C100.09 37.7197 100.373 37.7744 100.635 37.8787C100.893 37.9831 101.115 38.1321 101.306 38.3259C101.493 38.5197 101.639 38.7483 101.74 39.0166C101.841 39.2849 101.892 39.578 101.892 39.901V45.3716C101.892 45.4461 101.871 45.5057 101.831 45.5455C101.791 45.5852 101.74 45.6051 101.685 45.6051H100.716C100.661 45.6051 100.61 45.5852 100.57 45.5455C100.529 45.5057 100.509 45.4461 100.509 45.3716V39.901C100.504 39.7768 100.479 39.6526 100.434 39.5333C100.388 39.4141 100.328 39.3097 100.252 39.2203C100.171 39.1309 100.07 39.0563 99.9543 39.0066C99.8332 38.952 99.6919 38.9271 99.5355 38.9271C99.4094 38.9271 99.2833 38.952 99.1673 39.0066C99.0462 39.0613 98.9453 39.1309 98.8494 39.2203C98.7586 39.3097 98.6829 39.419 98.6325 39.5433C98.577 39.6675 98.5518 39.8016 98.5518 39.9408V45.3219V45.3219Z" fill="white"/>
<path d="M109.313 45.292C109.313 45.7839 109.248 46.2063 109.117 46.5491C108.985 46.8969 108.809 47.1752 108.582 47.3938C108.355 47.6124 108.092 47.7664 107.795 47.8609C107.497 47.9553 107.179 48.0049 106.846 48C106.68 47.995 106.503 47.9801 106.332 47.9602C106.16 47.9354 105.989 47.9006 105.822 47.8559C105.656 47.8062 105.499 47.7466 105.353 47.672C105.207 47.5975 105.07 47.513 104.954 47.4137C104.853 47.3292 104.798 47.2497 104.798 47.1851C104.793 47.1155 104.813 47.0559 104.848 47.0013L105.101 46.4497C105.141 46.3951 105.192 46.3653 105.252 46.3603C105.313 46.3553 105.368 46.3752 105.424 46.4199C105.57 46.5491 105.762 46.6634 105.994 46.7528C106.226 46.8423 106.473 46.887 106.745 46.887C107.109 46.887 107.401 46.7727 107.613 46.5441C107.83 46.3156 107.936 45.9727 107.936 45.5057V44.7405C107.764 44.8995 107.573 45.0187 107.351 45.1131C107.129 45.2026 106.887 45.2523 106.619 45.2523C106.301 45.2523 106.019 45.1926 105.767 45.0734C105.514 44.9541 105.302 44.7902 105.131 44.5864C104.959 44.3827 104.823 44.1542 104.732 43.8958C104.642 43.6374 104.596 43.3691 104.596 43.1008V40.0003C104.596 39.6823 104.642 39.3842 104.727 39.1059C104.813 38.8277 104.944 38.5892 105.121 38.3855C105.297 38.1817 105.514 38.0178 105.772 37.9035C106.034 37.7842 106.342 37.7246 106.695 37.7246C106.982 37.7246 107.255 37.7892 107.507 37.9234C107.764 38.0525 107.991 38.2265 108.188 38.4351L108.274 38.0675C108.304 37.9333 108.395 37.8637 108.541 37.8637H109.096C109.157 37.8637 109.212 37.8836 109.253 37.9184C109.298 37.9581 109.318 38.0128 109.318 38.0824V45.292H109.313ZM107.931 39.9456C107.931 39.8115 107.906 39.6823 107.855 39.5581C107.805 39.4339 107.739 39.3245 107.648 39.2351C107.558 39.1407 107.452 39.0662 107.326 39.0115C107.199 38.9569 107.058 38.927 106.907 38.927C106.776 38.927 106.65 38.9519 106.539 39.0065C106.428 39.0612 106.327 39.1308 106.241 39.2152C106.155 39.2997 106.09 39.3991 106.039 39.5134C105.989 39.6276 105.963 39.7469 105.963 39.8711V43.1008C105.963 43.22 105.989 43.3393 106.034 43.4536C106.079 43.5679 106.145 43.6722 106.231 43.7567C106.317 43.8411 106.412 43.9107 106.528 43.9654C106.639 44.02 106.766 44.0449 106.897 44.0449C107.043 44.0449 107.184 44.015 107.305 43.9604C107.431 43.9057 107.537 43.8262 107.633 43.7318C107.724 43.6374 107.8 43.5231 107.85 43.389C107.901 43.2548 107.926 43.1107 107.926 42.9617V39.9456H107.931Z" fill="white"/>
<path d="M94.2689 36.7257C94.2689 36.3481 93.9561 36.04 93.5727 36.04C93.1893 36.04 92.8765 36.3481 92.8765 36.7257C92.8765 37.1034 93.1893 37.4114 93.5727 37.4114C93.9561 37.4114 94.2689 37.1034 94.2689 36.7257Z" fill="white"/>
</g>
<defs>
<clipPath id="clip0">
<rect width="79" height="31" fill="white" transform="translate(39.0005 17)"/>
</clipPath>
</defs>
</svg>
