<svg width="157" height="64" viewBox="0 0 157 64" fill="none" xmlns="http://www.w3.org/2000/svg">
<path d="M111.868 21.0703H108.686L112.929 26.7277L109.04 32.3851H111.868L114.343 29.2028L116.819 32.3851H120.001L115.758 26.7277L120.001 21.0703H117.172L114.343 24.6062L111.868 21.0703Z" fill="white"/>
<path fill-rule="evenodd" clip-rule="evenodd" d="M37.8892 33.4463V42.0469L38.9201 41.9623L39.9511 41.878L40.0199 37.7981C40.0592 35.4827 40.2208 33.4667 40.3938 33.1362C41.0665 31.8527 43.1876 31.5723 44.4033 32.6064L45.1748 33.2624L45.268 37.6531L45.3612 42.0439L46.3677 41.9609L47.3742 41.878V37.3901C47.3742 32.2305 47.1485 31.5356 45.1627 30.5847C43.7613 29.9134 42.7513 29.9121 41.2658 30.5792L40.1062 31.0998L40.0287 28.0574L39.9511 25.0146L38.9201 24.9303L37.8892 24.8457V33.4463ZM66.2356 30.6437C64.2363 31.7034 64.0073 32.4187 64.0073 37.6064V42.0469L65.0383 41.9623L66.0693 41.878L66.2117 37.6621C66.2901 35.3434 66.4594 33.2287 66.5878 32.9627C67.1157 31.8701 69.011 31.6033 70.094 32.4696C70.7167 32.9676 70.7486 33.1697 70.8805 37.4334L71.018 41.878H72.1177H73.2174L73.3549 37.4334C73.4869 33.1697 73.5187 32.9676 74.1415 32.4696C74.4983 32.184 75.1378 31.9503 75.5623 31.9503C77.7065 31.9503 78.0287 32.7304 78.0287 37.9205V42.014H79.1284H80.2281L80.2275 37.5941C80.2273 33.9239 80.1456 33.0163 79.7464 32.2416C78.9467 30.6897 77.9885 30.1824 75.8565 30.1824C74.2767 30.1824 73.8586 30.2888 73.0552 30.8948L72.1114 31.6071L71.2052 30.916C69.8869 29.9101 67.8321 29.7975 66.2356 30.6437ZM85.5892 30.3986C84.4664 30.749 84.0892 31.4189 84.5874 32.1775C84.7754 32.4639 85.0523 32.4785 85.8949 32.2471C88.3957 31.56 89.9168 31.9857 90.2957 33.4778C90.5277 34.3931 90.3622 34.4823 89.0706 34.1382C86.1118 33.35 83.2361 35.3249 83.2583 38.1294C83.2685 39.4124 84.225 41.1186 85.2238 41.6359C86.378 42.2335 88.3525 42.2449 89.4802 41.6606C90.2533 41.2597 90.3644 41.2565 90.5093 41.6302C90.6201 41.9158 90.9558 42.0216 91.5669 41.9634L92.4624 41.878V37.3901C92.4624 32.4957 92.2466 31.5024 91.008 30.6997C90.0986 30.1101 87.0557 29.9412 85.5892 30.3986ZM99.4087 30.5534C98.5944 30.9644 98.3761 30.9902 98.2595 30.6894C98.1757 30.4729 97.7113 30.3184 97.1447 30.3184H96.1739V36.1662V42.014H97.2736H98.3733V37.7772V33.5404L99.177 32.7454C99.7587 32.1698 100.246 31.9503 100.941 31.9503C103.298 31.9503 103.597 32.6222 103.597 37.9205V42.014H104.697H105.796L105.79 37.7301C105.785 34.0765 105.706 33.2749 105.25 32.2811C104.339 30.2964 101.553 29.472 99.4087 30.5534ZM50.8614 34.9232C50.9559 39.9311 51.0549 40.2697 52.8018 41.56C53.7269 42.2435 56.2524 42.2917 57.2501 41.6449C58.0999 41.0941 58.2338 41.0889 58.2338 41.606C58.2338 41.9005 58.5393 42.014 59.3336 42.014H60.4333V36.1662V30.3184H59.3336H58.2338V34.2759C58.2338 38.8137 57.9955 39.6044 56.4792 40.0994C55.2784 40.4916 54.2463 40.2316 53.5557 39.3629C53.0655 38.7463 53.0102 38.2537 53.0102 34.4975V30.3184H51.8923H50.7745L50.8614 34.9232ZM89.5756 36.3022C90.2759 36.9949 90.3114 38.7349 89.6416 39.553C89.3425 39.9186 88.7203 40.2022 88.013 40.2961C87.0359 40.4258 86.7642 40.3453 86.1599 39.7475C85.242 38.8393 85.1911 37.2917 86.0494 36.3876C86.8412 35.5539 88.772 35.5072 89.5756 36.3022Z" fill="white"/>
</svg>
