<svg width="157" height="64" viewBox="0 0 157 64" fill="none" xmlns="http://www.w3.org/2000/svg">
<path d="M83.5288 33.0065C83.9249 32.5342 83.9249 31.9003 83.9249 31.4032V27.6373C83.9249 27.3515 83.9249 27.1402 84.0486 26.9786C84.1725 26.8047 84.4077 26.7178 84.754 26.7178C85.1004 26.7179 85.3356 26.8048 85.4595 26.9786C85.5832 27.1402 85.5832 27.3515 85.5832 27.6373V31.3161C85.5832 32.124 85.5832 33.1183 84.8655 33.951C84.321 34.5848 83.4669 35.0074 82.0562 35.0074C80.6082 35.0074 79.779 34.56 79.2593 33.951C78.5414 33.1184 78.5414 32.1861 78.5414 31.3161V27.6373C78.5414 27.3515 78.5414 27.1402 78.6651 26.9786C78.7888 26.8047 79.0117 26.7178 79.383 26.7178C79.7419 26.7178 79.9646 26.8047 80.0885 26.9786C80.2122 27.1402 80.2122 27.3515 80.2122 27.6373V31.4032C80.2122 31.9003 80.2122 32.5342 80.6082 33.0065C80.9051 33.3669 81.3879 33.5658 82.0685 33.5658C82.7617 33.5658 83.232 33.3669 83.5288 33.0065V33.0065ZM98.4145 30.4587C97.548 29.9119 96.3847 29.6012 96.3847 28.8305C96.3847 28.3831 96.756 28.0601 97.3253 28.0601C98.0059 28.0601 98.4145 28.5449 98.8229 28.5449C99.2065 28.5449 99.5161 28.1096 99.5161 27.7618C99.5161 27.128 98.4268 26.6433 97.3378 26.6433C95.8528 26.6433 94.714 27.5506 94.714 28.9176C94.714 30.4587 96.1868 31.0303 96.979 31.4528C97.4987 31.7263 97.9937 32.0495 97.9937 32.6335C97.9937 33.2051 97.5358 33.5657 96.8923 33.5657C96.0633 33.5657 95.6796 32.9567 95.2216 32.9567C94.8132 32.9567 94.5533 33.4164 94.5533 33.7646C94.5533 34.1248 94.8502 34.386 95.2091 34.5724C95.7165 34.8332 96.3478 34.9825 96.9418 34.9825C98.3773 34.9825 99.6645 34.1124 99.6645 32.5589C99.6645 31.5273 99.0952 30.8936 98.4145 30.4585L98.4145 30.4587ZM78.7963 45.2146V39.4976C78.7963 39.2117 78.7963 39.0004 78.6726 38.8388C78.5489 38.6647 78.3013 38.5779 77.9672 38.5779C77.6206 38.5779 77.3733 38.6647 77.2494 38.8388C77.1257 39.0004 77.1257 39.2117 77.1257 39.4976V45.9107C77.1257 46.4699 77.3237 46.706 77.9177 46.706H81.0735C81.3459 46.706 81.5438 46.706 81.7046 46.5818C81.8656 46.4699 81.952 46.2834 81.952 45.9604C81.952 45.6374 81.8656 45.4508 81.7046 45.3389C81.5437 45.2146 81.3458 45.2146 81.0735 45.2146L78.7963 45.2146ZM85.0709 45.2146V39.4976C85.0709 39.2117 85.0709 39.0004 84.9471 38.8388C84.8233 38.6647 84.5759 38.5779 84.2418 38.5779C83.8952 38.5779 83.6478 38.6647 83.5239 38.8388C83.4002 39.0004 83.4002 39.2117 83.4002 39.4976V45.9107C83.4002 46.4699 83.5983 46.706 84.1923 46.706H87.3481C87.6203 46.706 87.8184 46.706 87.9793 46.5818C88.1402 46.4699 88.2267 46.2834 88.2267 45.9604C88.2267 45.6374 88.1401 45.4508 87.9793 45.3389C87.8184 45.2146 87.6202 45.2146 87.3481 45.2146L85.0709 45.2146ZM91.3456 39.4976C91.3456 39.2241 91.3456 39.0004 91.2219 38.8388C91.098 38.6649 90.8753 38.5779 90.5164 38.5779C90.1451 38.5779 89.9223 38.6649 89.7986 38.8388C89.6748 39.0004 89.6748 39.2241 89.6748 39.4976V45.8485C89.6748 46.1468 89.6748 46.3581 89.7986 46.5195C89.9223 46.6936 90.1451 46.7807 90.5164 46.7807C90.8753 46.7807 91.098 46.6936 91.2219 46.5195C91.3456 46.3581 91.3456 46.1468 91.3456 45.8485V39.4976ZM103.325 41.3867L107.088 46.1094C107.446 46.5569 107.694 46.8056 108.189 46.8056C108.672 46.8056 108.944 46.5694 108.944 46.1343V39.4976C108.944 39.2117 108.944 39.0004 108.82 38.8388C108.696 38.6773 108.486 38.5779 108.139 38.5779C107.793 38.5779 107.582 38.6772 107.459 38.8388C107.335 39.0005 107.335 39.2117 107.335 39.4976V43.9096L103.721 39.2988C103.387 38.8637 103.14 38.5779 102.546 38.5779C101.989 38.5779 101.716 38.814 101.716 39.2366V45.8485C101.716 46.1468 101.716 46.3581 101.84 46.5195C101.964 46.6809 102.174 46.7807 102.521 46.7807C102.867 46.7807 103.078 46.6811 103.201 46.5195C103.325 46.3579 103.325 46.1343 103.325 45.8485L103.325 41.3867ZM114.761 45.3513C113.56 45.3513 112.372 44.4938 112.372 42.6047C112.372 40.7653 113.51 39.9947 114.699 39.9947C115.119 39.9947 115.453 40.094 115.788 40.2308C116.221 40.4047 116.481 40.5912 116.728 40.5912C117.174 40.5912 117.397 40.0569 117.397 39.7337C117.397 39.4602 117.223 39.224 116.864 39.0127C116.32 38.6897 115.54 38.5033 114.748 38.5033C112.607 38.5033 110.664 39.8579 110.664 42.6544C110.664 45.3762 112.521 46.8427 114.736 46.8427C115.466 46.8427 116.308 46.6811 116.877 46.3332C117.211 46.1343 117.397 45.8982 117.397 45.6001C117.397 45.2769 117.162 44.7797 116.741 44.7797C116.493 44.7797 116.258 44.9537 115.837 45.1278C115.491 45.2644 115.144 45.3514 114.761 45.3514L114.761 45.3513ZM77.2561 35.1059C77.2147 34.9115 77.0429 34.7577 76.6187 34.4292L75.7886 33.7964L75.104 33.2885C74.9559 33.1794 74.7789 33.117 74.5954 33.1091C74.4119 33.1012 74.2302 33.1482 74.0734 33.2441C73.6973 33.4712 73.2374 33.5906 72.7077 33.5906C71.1605 33.5906 70.1954 32.5715 70.1954 30.8066C70.1954 29.0668 71.1483 28.0475 72.6954 28.0475C74.2424 28.0475 75.2073 29.0667 75.2073 30.8314C75.2082 31.0459 75.1923 31.2601 75.1599 31.4721C75.1278 31.6773 75.1527 31.8875 75.2318 32.0794C75.311 32.2713 75.4414 32.4376 75.6087 32.5598L76.1128 32.9277C76.1399 32.9477 76.1711 32.9615 76.2041 32.9681C76.2371 32.9748 76.2712 32.9742 76.3039 32.9664C76.3367 32.9586 76.3674 32.9437 76.3938 32.9228C76.4203 32.9019 76.4419 32.8755 76.4573 32.8454C76.7545 32.2512 76.9154 31.5612 76.9154 30.8065C76.9154 28.3954 75.2942 26.6182 72.7322 26.6182C70.1581 26.6182 68.4874 28.3954 68.4874 30.8313C68.4874 33.2426 70.1087 35.0198 72.6705 35.0198C73.2272 35.0198 73.574 34.9327 73.574 34.9327C73.8699 34.8707 74.1603 34.7846 74.4424 34.6753L75.0268 35.2151C75.5943 35.7417 75.9097 35.9154 76.5149 35.7856C77.1321 35.6532 77.3104 35.361 77.2562 35.1057L77.2561 35.1059ZM92.9111 33.5158C92.7501 33.4039 92.5522 33.3916 92.2923 33.3916H89.1062V28.2589H92.0077C92.2676 28.2589 92.4656 28.2589 92.6265 28.1472C92.7874 28.0354 92.874 27.8488 92.874 27.5381C92.874 27.2149 92.7873 27.041 92.6265 26.9291C92.4656 26.8172 92.2676 26.8049 92.0077 26.8049H88.2769C87.7076 26.8049 87.485 27.0162 87.485 27.6001V34.0506C87.485 34.6223 87.6829 34.8459 88.2769 34.8459H92.2922C92.5522 34.8459 92.75 34.8459 92.911 34.7342C93.0719 34.6225 93.1708 34.4358 93.1708 34.1252C93.1708 33.802 93.0719 33.628 92.911 33.5161L92.9111 33.5158ZM91.5372 31.3163C91.8095 31.3163 92.0074 31.3038 92.1683 31.1921C92.3292 31.0804 92.4159 30.8938 92.4159 30.5831C92.4159 30.2724 92.3292 30.0983 92.1683 29.9865C92.0074 29.8748 91.8094 29.8621 91.5372 29.8621H90.6087C90.5023 29.8621 90.3969 29.8832 90.2987 29.924C90.2004 29.9649 90.1111 30.0248 90.0359 30.1004C89.9606 30.1759 89.901 30.2656 89.8602 30.3643C89.8195 30.463 89.7986 30.5688 89.7986 30.6756V31.0824C89.7986 31.1445 89.8232 31.204 89.8669 31.2479C89.9106 31.2918 89.9699 31.3164 90.0317 31.3165L91.5372 31.3163ZM104.252 29.0048C104.124 29.0048 103.997 29.0302 103.879 29.0794C103.761 29.1286 103.653 29.2007 103.563 29.2916C103.472 29.3825 103.4 29.4905 103.351 29.6093C103.302 29.7281 103.277 29.8554 103.277 29.984V33.9884C103.277 34.2868 103.277 34.4979 103.401 34.6595C103.524 34.8336 103.772 34.9205 104.118 34.9205C104.453 34.9205 104.7 34.8336 104.824 34.6595C104.948 34.4979 104.948 34.2868 104.948 33.9884V29.2389C104.948 29.1768 104.923 29.1173 104.879 29.0734C104.836 29.0295 104.776 29.0049 104.714 29.0049L104.252 29.0048ZM107.2 26.9414C107.039 26.8172 106.841 26.8047 106.581 26.8047H101.656C101.384 26.8047 101.185 26.8172 101.025 26.9414C100.864 27.0533 100.777 27.2273 100.777 27.5505C100.777 27.886 100.864 28.0724 101.025 28.1843C101.186 28.3085 101.384 28.3085 101.656 28.3085H103.277V28.3092H104.948V28.3085H106.581C106.841 28.3085 107.039 28.3085 107.2 28.1843C107.361 28.0723 107.448 27.8859 107.448 27.5505C107.448 27.2273 107.361 27.0533 107.2 26.9414V26.9414ZM75.5539 45.8235L73.0168 39.448C72.7941 38.9012 72.6085 38.5531 72.0145 38.5531C71.4205 38.5531 71.2223 38.8887 70.9995 39.4355L68.3635 45.8112C68.2892 45.9977 68.2397 46.1344 68.2397 46.2837C68.2397 46.5695 68.4376 46.7808 68.9698 46.7808C69.6009 46.7808 69.7867 46.4948 69.9846 45.9853L70.5043 44.6057H70.5059L71.0253 43.2385H71.0243L71.9523 40.8151L72.8681 43.2385H72.5584C72.3519 43.2386 72.1504 43.3026 71.9815 43.4219C71.8125 43.5413 71.6844 43.71 71.6146 43.9052L71.4761 44.2925C71.4635 44.3279 71.4595 44.3657 71.4645 44.403C71.4695 44.4402 71.4834 44.4756 71.5049 44.5063C71.5264 44.537 71.555 44.5621 71.5882 44.5794C71.6214 44.5967 71.6582 44.6057 71.6956 44.6057H73.3756L73.8829 45.9853C74.0934 46.5446 74.279 46.7808 74.8607 46.7808C75.3805 46.7808 75.6526 46.5943 75.6526 46.2711C75.6526 46.1469 75.6156 45.9853 75.5536 45.8237L75.5539 45.8235ZM100.176 45.8237L97.6387 39.448C97.4159 38.9012 97.2304 38.5531 96.6364 38.5531C96.0424 38.5531 95.8443 38.8887 95.6216 39.4355L92.9856 45.8112C92.9114 45.9977 92.8615 46.1344 92.8615 46.2837C92.8615 46.5695 93.0598 46.7808 93.5919 46.7808C94.223 46.7808 94.4088 46.4948 94.6066 45.9853L95.1264 44.6057H95.1279L95.6473 43.2385H95.6463L96.5746 40.8151L97.4902 43.2385H97.1803C96.9738 43.2386 96.7724 43.3026 96.6036 43.422C96.4347 43.5413 96.3067 43.7101 96.237 43.9052L96.0985 44.2925C96.0858 44.3279 96.0818 44.3657 96.0868 44.4029C96.0918 44.4401 96.1056 44.4756 96.1271 44.5063C96.1486 44.537 96.1772 44.5621 96.2103 44.5794C96.2435 44.5967 96.2804 44.6057 96.3178 44.6057H97.9978L98.5052 45.9853C98.7156 46.5446 98.901 46.7808 99.483 46.7808C100.003 46.7808 100.275 46.5943 100.275 46.2711C100.275 46.1469 100.238 45.9853 100.176 45.8237H100.176ZM124.493 45.3825C124.332 45.2706 124.134 45.2583 123.874 45.2583H120.688V40.1252H123.59C123.85 40.1252 124.048 40.1252 124.208 40.0135C124.369 39.9017 124.456 39.7151 124.456 39.4044C124.456 39.0812 124.369 38.9073 124.208 38.7954C124.048 38.6835 123.85 38.6712 123.59 38.6712H119.859C119.29 38.6712 119.067 38.8823 119.067 39.4664V45.9169C119.067 46.4886 119.265 46.7122 119.859 46.7122H123.874C124.134 46.7122 124.332 46.7122 124.493 46.6005C124.654 46.4888 124.753 46.3021 124.753 45.9914C124.753 45.6682 124.654 45.4943 124.493 45.3824L124.493 45.3825ZM123.119 43.1826C123.392 43.1826 123.59 43.1701 123.751 43.0584C123.911 42.9467 123.998 42.7601 123.998 42.4494C123.998 42.1387 123.911 41.9646 123.751 41.8528C123.59 41.7411 123.392 41.7284 123.119 41.7284H122.191C121.976 41.7285 121.77 41.8142 121.618 41.9668C121.466 42.1193 121.381 42.3262 121.381 42.5419V42.9486C121.381 43.0106 121.405 43.0701 121.449 43.114C121.493 43.1579 121.552 43.1826 121.614 43.1826L123.119 43.1826Z" fill="white"/>
<path d="M44.8288 20.8672C40.8968 21.7152 37.647 24.4064 36.0212 27.998C35.9686 28.1129 35.9575 28.2425 35.9899 28.3647C36.0223 28.4868 36.0961 28.5938 36.1986 28.6672L37.2956 29.4465C37.8698 27.8908 38.7893 26.4868 39.9842 25.341C41.1792 24.1953 42.6184 23.3379 44.1925 22.8339L44.8288 20.8672Z" fill="white"/>
<path d="M57.0124 45.9019L54.2442 43.8829L52.9939 42.9709C52.9123 42.9122 52.8161 42.8775 52.716 42.8705C52.6159 42.8635 52.5158 42.8845 52.4269 42.9313C50.8973 43.7188 49.2026 44.1284 47.4836 44.1262C46.3358 44.1272 45.1951 43.945 44.1043 43.5864L42.4385 44.8018C44.0286 45.5034 45.7467 45.8649 47.4836 45.8634C49.221 45.8648 50.9396 45.503 52.5302 44.8011L52.5327 44.802L54.7595 46.4231C55.0791 46.6558 55.4638 46.7811 55.8586 46.781V46.781C56.1918 46.7811 56.5189 46.6917 56.8061 46.5221L56.9875 46.4152C57.0313 46.3894 57.0679 46.353 57.0942 46.3093C57.1205 46.2657 57.1356 46.2162 57.138 46.1653C57.1405 46.1143 57.1302 46.0636 57.1083 46.0176C57.0863 45.9716 57.0533 45.9319 57.0122 45.9019L57.0124 45.9019Z" fill="white"/>
<path d="M39.0569 46.7735C38.6666 46.7593 38.2895 46.6285 37.9737 46.3978C37.6579 46.1671 37.4179 45.847 37.2843 45.4784C37.1408 45.0739 37.1364 44.6328 37.2717 44.2255L37.5851 43.2563C37.5889 43.2438 37.5967 43.233 37.6073 43.2255C37.6179 43.218 37.6307 43.2143 37.6436 43.2149C37.6538 43.2146 37.6639 43.2171 37.6727 43.2223C37.6816 43.2275 37.6887 43.235 37.6935 43.2441C38.0002 43.7769 38.3296 44.1887 38.7298 44.5399C38.8812 44.6734 39.0757 44.747 39.2771 44.747C39.4508 44.7474 39.6201 44.6922 39.7604 44.5894L51.399 36.0977L51.7717 37.1553C51.8384 37.3477 51.8419 37.5565 51.7817 37.751C51.7215 37.9456 51.6008 38.1156 51.4372 38.2362L40.2501 46.3986C39.9213 46.6417 39.5239 46.7733 39.1156 46.7746L39.0569 46.7735Z" fill="white"/>
<path d="M34.3587 29.3735C34.2095 29.2657 34.1007 29.1106 34.0498 28.9332C33.9988 28.7557 34.0087 28.5663 34.0779 28.3952C34.2886 27.8751 34.5607 27.44 34.9601 26.9848C34.968 26.9766 34.9731 26.9661 34.9747 26.9548C34.9762 26.9435 34.9743 26.9319 34.969 26.9218C34.9647 26.9108 34.9571 26.9015 34.9472 26.895C34.9374 26.8885 34.9258 26.8853 34.914 26.8858H33.9374C33.5096 26.8825 33.0931 27.0232 32.7542 27.2854C32.4463 27.5272 32.2173 27.8558 32.0966 28.2291C31.9758 28.6024 31.9687 29.0034 32.0763 29.3807C32.1971 29.7928 32.4518 30.1524 32.7997 30.4023L39.6189 35.3779C39.7404 35.4662 39.831 35.5908 39.8776 35.734C39.9242 35.8771 39.9244 36.0315 39.8782 36.1748L38.7524 39.6911C39.1532 40.2363 39.6032 40.7433 40.0966 41.2057L41.5201 36.7648L43.979 38.559C44.1397 38.6767 44.3336 38.7399 44.5325 38.7396C44.588 38.7396 44.6434 38.7349 44.6982 38.7256C44.8576 38.6955 45.007 38.6259 45.133 38.5232L45.9879 37.8586L34.3587 29.3735Z" fill="white"/>
<path d="M36.6271 33.2219C36.6271 33.2128 36.6278 33.2037 36.6278 33.1946L34.9583 31.9766C34.9184 32.3862 34.8981 32.8014 34.8975 33.2219C34.8975 36.9875 36.537 40.3681 39.1383 42.684C39.2327 42.7688 39.3538 42.8177 39.4804 42.822C39.607 42.8263 39.7311 42.7859 39.8311 42.7077L40.8851 41.8775C38.2973 39.8849 36.6271 36.7501 36.6271 33.2219Z" fill="white"/>
<path d="M49.6253 19.2611L49.3282 18.3431C49.1993 17.9335 48.9374 17.5792 48.5845 17.3367C48.2604 17.1172 47.8784 17 47.4875 17C47.0966 17 46.7146 17.1173 46.3906 17.3369C46.0377 17.5794 45.7758 17.9336 45.6468 18.3431L43.0427 26.3924C42.9965 26.5361 42.9061 26.6614 42.7844 26.7502C42.6628 26.8389 42.5162 26.8866 42.3658 26.8863H38.6528C38.2594 27.4374 37.918 28.0242 37.6333 28.6391H42.3157L41.3722 31.5549C41.3098 31.7501 41.3119 31.9602 41.3782 32.1541C41.4445 32.3479 41.5714 32.5151 41.7399 32.6306L42.6574 33.2541L47.1032 19.5132C47.157 19.3465 47.2622 19.2013 47.4035 19.0985C47.5448 18.9957 47.7149 18.9405 47.8894 18.941C47.9081 18.941 47.927 18.9415 47.9456 18.9429C48.5096 18.9812 49.0032 19.1024 49.5468 19.3357C49.5591 19.3416 49.5732 19.3426 49.5863 19.3387C49.5994 19.3347 49.6106 19.326 49.6176 19.3142C49.6233 19.3068 49.6271 19.298 49.6284 19.2887C49.6298 19.2794 49.6287 19.2699 49.6253 19.2611V19.2611Z" fill="white"/>
<path d="M60.3748 28.6392C60.56 28.6386 60.74 28.7008 60.8856 28.8159C61.0312 28.9309 61.1338 29.092 61.1767 29.273C61.3047 29.8086 61.3372 30.3363 61.2791 30.9334C61.2779 30.941 61.2784 30.9489 61.2807 30.9563C61.2829 30.9638 61.2868 30.9706 61.2921 30.9763C61.2982 30.983 61.3056 30.9885 61.3139 30.9922C61.3221 30.996 61.331 30.9981 61.3401 30.9983C61.3524 30.9983 61.3643 30.9941 61.3739 30.9864L62.1737 30.4025C62.5217 30.1528 62.7765 29.7932 62.8973 29.3812C63.0049 29.0038 62.9979 28.6027 62.877 28.2294C62.7562 27.8561 62.5271 27.5275 62.219 27.2859C61.8803 27.0236 61.4638 26.8829 61.0361 26.8862H52.6087C52.4583 26.8866 52.3117 26.8389 52.1901 26.7501C52.0684 26.6614 51.978 26.5361 51.9318 26.3923L50.8042 22.848C50.1603 22.6388 49.4982 22.4909 48.8266 22.4062L50.2568 26.8864H47.1848C46.9811 26.8872 46.7831 26.954 46.6201 27.0767C46.4572 27.1995 46.338 27.3718 46.2803 27.5679L45.9692 28.6392H60.3748Z" fill="white"/>
<path d="M58.3713 26.8867C56.4098 23.4949 52.9247 21.1038 48.8548 20.6608C48.7295 20.6463 48.6032 20.6763 48.4976 20.7456C48.392 20.8148 48.3138 20.9189 48.2765 21.0399L47.8848 22.3299C51.3616 22.4567 54.419 24.2254 56.3155 26.8867L58.3713 26.8867Z" fill="white"/>
<path d="M59.4265 30.2434C59.4259 30.2378 59.4257 30.2316 59.4249 30.2256L59.3999 30.2439L59.4265 30.2434Z" fill="white"/>
<path d="M55.0967 36.1752C55.0501 36.0319 55.05 35.8775 55.0962 35.7341C55.1424 35.5907 55.2327 35.4657 55.3541 35.377L58.3404 33.1846C58.3378 32.506 58.2718 31.8291 58.1435 31.1628L54.3701 33.9302L53.4216 30.9985C53.3608 30.8088 53.2418 30.6434 53.0815 30.526C52.9213 30.4085 52.7281 30.3451 52.5297 30.3447L51.3848 30.3743L54.5815 40.2545L55.2112 42.1639C55.2527 42.2898 55.3317 42.3998 55.4374 42.4792L57.27 43.8545C57.2977 43.8753 57.3313 43.8867 57.3659 43.887C57.4005 43.8874 57.4343 43.8766 57.4624 43.8564C57.4906 43.8361 57.5115 43.8074 57.5223 43.7744C57.5331 43.7414 57.5332 43.7058 57.5225 43.6728L55.0967 36.1752Z" fill="white"/>
<path d="M56.231 39.6778L56.8674 41.6453C58.1772 40.1756 59.1259 38.4184 59.6376 36.5142C60.1493 34.6101 60.2098 32.6121 59.8141 30.6802C59.7892 30.5562 59.7219 30.4448 59.6239 30.3654C59.5258 30.2859 59.4032 30.2434 59.2772 30.2452L57.9351 30.2672C58.3831 31.8626 58.4624 33.5396 58.1671 35.1705C57.8718 36.8013 57.2096 38.3429 56.231 39.6778V39.6778Z" fill="white"/>
</svg>
