<svg width="157" height="64" viewBox="0 0 157 64" fill="none" xmlns="http://www.w3.org/2000/svg">
<path d="M40.6875 29.3954V34.862C40.6875 37.1451 42.5444 39.0139 44.8167 39.0256V41.6143C41.0819 41.6143 38.0283 38.5482 38.0283 34.8017V29.3866C38.0283 25.6404 41.0819 22.5771 44.8167 22.5771V25.2314C42.546 25.2431 40.6875 27.1091 40.6875 29.3954Z" fill="white"/>
<path d="M115.342 29.3954V34.862C115.342 37.1451 113.484 39.0139 111.212 39.0256V41.6143C114.947 41.6143 118.001 38.5482 118.001 34.8017V29.3866C118.001 25.6404 114.947 22.5771 111.212 22.5771V25.2314C113.484 25.2431 115.342 27.1091 115.342 29.3954Z" fill="white"/>
<path d="M47.4846 28.1225V37.2114H46.2418C46.2418 37.2114 44.8924 37.1852 44.8179 35.7825V29.549C44.8179 29.549 44.8115 28.1905 46.2418 28.1201L47.4846 28.1225Z" fill="white"/>
<path d="M59.4322 30.7013V37.1653H56.7462V30.6877C56.746 30.6628 56.736 30.6389 56.7185 30.6213C56.7009 30.6037 56.6772 30.5938 56.6524 30.5935H52.7553C52.7432 30.5937 52.7312 30.5963 52.72 30.6011C52.7089 30.6059 52.6988 30.6129 52.6903 30.6216C52.6819 30.6304 52.6752 30.6407 52.6707 30.652C52.6663 30.6634 52.6641 30.6755 52.6643 30.6877V37.1661H49.9863V30.7013C49.9887 29.9639 50.2817 29.2572 50.8016 28.7358C51.3214 28.2143 52.0258 27.9203 52.7609 27.918H56.6564C57.3918 27.92 58.0964 28.2138 58.6165 28.7353C59.1366 29.2569 59.4299 29.9636 59.4322 30.7013V30.7013Z" fill="white"/>
<path d="M63.7065 36.5649C62.9258 36.1595 62.3162 35.5965 61.8776 34.8758C61.439 34.1551 61.2197 33.3374 61.2197 32.4226C61.2197 31.5081 61.439 30.6904 61.8776 29.9694C62.3162 29.2485 62.9258 28.6855 63.7065 28.2803C64.4871 27.875 65.3674 27.6721 66.3472 27.6719C67.3157 27.6719 68.1619 27.8747 68.8856 28.2803C69.5915 28.667 70.148 29.2796 70.4663 30.0205L68.3985 31.1349C67.9193 30.2895 67.2298 29.8667 66.3299 29.8665C65.635 29.8665 65.0604 30.095 64.6061 30.5522C64.1517 31.0093 63.9238 31.6322 63.9222 32.421C63.9222 33.2098 64.1501 33.8327 64.6061 34.2898C65.062 34.747 65.6366 34.9749 66.3299 34.9735C67.2416 34.9735 67.9311 34.5507 68.3985 33.7051L70.4663 34.8364C70.1357 35.5683 69.6088 36.1399 68.8856 36.5512C68.1624 36.9625 67.3163 37.1707 66.3472 37.1758C65.3674 37.1758 64.4871 36.9721 63.7065 36.5649Z" fill="white"/>
<path d="M80.9143 33.179H73.9579C74.0688 33.7287 74.3872 34.2141 74.8467 34.5335C75.3136 34.8654 75.8948 35.0311 76.5902 35.0306C77.0683 35.0306 77.4928 34.9593 77.8635 34.8166C78.2501 34.663 78.6018 34.4325 78.8974 34.139L80.3161 35.6821C79.4497 36.6768 78.1848 37.1741 76.5217 37.1741C75.4847 37.1741 74.5674 36.9711 73.7699 36.5652C72.9724 36.1593 72.3577 35.5963 71.9258 34.8761C71.4926 34.156 71.2761 33.3383 71.2764 32.423C71.2764 31.5202 71.4902 30.7059 71.9178 29.9798C72.337 29.2617 72.9463 28.6741 73.6781 28.2823C74.4246 27.8769 75.2593 27.6741 76.1821 27.6738C77.082 27.6738 77.8971 27.8681 78.6276 28.2566C79.3482 28.637 79.9445 29.2173 80.3454 29.9283C80.7613 30.6544 80.9692 31.4973 80.9692 32.4571C80.9668 32.4931 80.9485 32.7337 80.9143 33.179ZM74.1299 30.8569C74.0565 31.0094 74.0064 31.1721 73.9812 31.3395L78.367 31.2438C78.3419 31.0562 78.2841 30.8745 78.1962 30.7069C77.6911 29.7554 76.3749 29.7015 76.2948 29.6987C75.4705 29.6774 74.5076 30.0763 74.1299 30.8569Z" fill="white"/>
<path d="M92.3692 30.7013V37.1653H89.6832V30.6877C89.683 30.6627 89.673 30.6388 89.6554 30.6212C89.6377 30.6036 89.6139 30.5937 89.589 30.5935H85.6923C85.6802 30.5937 85.6681 30.5963 85.657 30.6011C85.6458 30.6059 85.6357 30.6129 85.6272 30.6216C85.6187 30.6303 85.612 30.6407 85.6075 30.652C85.603 30.6633 85.6007 30.6755 85.6009 30.6877V37.1661H82.9233V30.7013C82.9257 29.9639 83.2187 29.2572 83.7386 28.7358C84.2584 28.2143 84.9628 27.9203 85.6979 27.918H89.5946C90.3298 27.9203 91.0341 28.2143 91.554 28.7358C92.0738 29.2572 92.3669 29.9639 92.3692 30.7013V30.7013Z" fill="white"/>
<path fill-rule="evenodd" clip-rule="evenodd" d="M99.0209 37.0282C99.4022 36.9315 99.724 36.7857 99.9862 36.5911L99.1026 34.0221C98.9238 34.2613 98.6612 34.4235 98.3678 34.4761C98.0835 34.523 97.792 34.4621 97.55 34.3052C97.1154 34.0161 97.0541 33.5343 97.0465 33.4651V30.1211H99.6005V28.8836C99.5997 28.5027 99.4484 28.1376 99.1799 27.8682C98.9114 27.5988 98.5475 27.4471 98.1677 27.4463H97.0475C97.0497 26.4983 97.0533 25.5928 97.0533 25.5928L94.3945 25.6217C94.3873 26.4151 94.3825 27.2139 94.3801 28.0182C94.3785 28.7075 94.3785 29.3933 94.3801 30.0757V33.8648C94.3798 34.9509 94.6789 35.774 95.2773 36.3341C95.8757 36.8942 96.7219 37.1742 97.8158 37.1742C98.222 37.1761 98.6268 37.127 99.0209 37.0282Z" fill="white"/>
<path d="M108.484 27.5322H104.53C103.808 27.5342 103.116 27.823 102.605 28.3354C102.094 28.8478 101.806 29.5423 101.804 30.2669V34.4414C101.807 35.1659 102.095 35.86 102.605 36.3723C103.116 36.8846 103.808 37.1735 104.53 37.1761H108.484C109.207 37.1741 109.899 36.8853 110.41 36.3729C110.921 35.8604 111.208 35.166 111.21 34.4414V30.2669C111.209 29.5421 110.921 28.8474 110.41 28.3348C109.899 27.8223 109.207 27.5337 108.484 27.5322ZM108.556 34.402C108.555 34.427 108.545 34.4509 108.528 34.4685C108.51 34.4862 108.486 34.4963 108.461 34.4965H104.563C104.538 34.4963 104.514 34.4862 104.497 34.4685C104.479 34.4509 104.469 34.427 104.469 34.402V30.3043C104.469 30.2793 104.479 30.2554 104.497 30.2377C104.514 30.2201 104.538 30.21 104.563 30.2098H108.46C108.485 30.21 108.509 30.2201 108.526 30.2377C108.544 30.2554 108.554 30.2793 108.554 30.3043L108.556 34.402Z" fill="white"/>
</svg>
