<svg width="158" height="64" viewBox="0 0 158 64" fill="none" xmlns="http://www.w3.org/2000/svg">
<path d="M58.2272 30.3811C57.7906 30.0104 57.3314 29.732 56.8462 29.5458C56.3611 29.3596 55.8501 29.2674 55.3165 29.2674C54.2815 29.2674 53.439 29.6009 52.7889 30.2646C52.1389 30.9299 51.8154 31.7911 51.8154 32.8498C51.8154 33.873 52.1324 34.718 52.7631 35.3833C53.3937 36.0487 54.1926 36.3805 55.1548 36.3805C55.7159 36.3805 56.2495 36.2818 56.7573 36.0827C57.2635 35.8835 57.7502 35.5841 58.2159 35.1826V36.9261C57.802 37.2239 57.3508 37.4473 56.864 37.593C56.3757 37.7403 55.8485 37.8132 55.2793 37.8132C54.5548 37.8132 53.8837 37.695 53.2692 37.457C52.6547 37.2191 52.1146 36.8694 51.6489 36.408C51.1864 35.9548 50.8322 35.4206 50.5848 34.8038C50.3358 34.1886 50.2129 33.533 50.2129 32.8369C50.2129 32.1408 50.3374 31.4884 50.5848 30.8765C50.8322 30.2646 51.1912 29.7287 51.6618 29.2658C52.1324 28.7995 52.6709 28.4466 53.2789 28.207C53.8869 27.9675 54.5451 27.8477 55.2534 27.8477C55.8097 27.8477 56.3401 27.9286 56.8446 28.0905C57.3492 28.2524 57.8391 28.4968 58.313 28.8254L58.2272 30.3811Z" fill="white"/>
<path d="M69.0541 32.837C69.0541 33.5104 68.928 34.1482 68.6757 34.7488C68.4235 35.3494 68.0548 35.8852 67.5729 36.3547C67.0845 36.8258 66.5347 37.1868 65.9218 37.4361C65.3089 37.687 64.667 37.8117 63.9926 37.8117C63.3118 37.8117 62.6601 37.6854 62.0408 37.4328C61.4215 37.1803 60.8749 36.8209 60.4011 36.3547C59.9176 35.8836 59.5505 35.351 59.3014 34.7553C59.0508 34.1596 58.9263 33.5201 58.9263 32.837C58.9263 32.1587 59.0508 31.5192 59.3014 30.9187C59.5521 30.3181 59.9176 29.7806 60.4011 29.3063C60.8846 28.8352 61.4328 28.4775 62.044 28.2314C62.6569 27.9853 63.3054 27.8623 63.9926 27.8623C64.6734 27.8623 65.3203 27.9853 65.9315 28.2314C66.5428 28.4775 67.0894 28.8368 67.5713 29.3063C68.0548 29.7855 68.4219 30.3262 68.6741 30.93C68.928 31.5322 69.0541 32.1684 69.0541 32.837ZM67.4484 32.837C67.4484 32.3578 67.361 31.9013 67.1864 31.4707C67.0118 31.0401 66.7611 30.6548 66.4328 30.3181C66.1143 29.9862 65.7439 29.7304 65.3235 29.5507C64.9031 29.3711 64.46 29.282 63.9943 29.282C63.5285 29.282 63.0854 29.3711 62.665 29.5475C62.2446 29.724 61.8694 29.9814 61.5427 30.3181C61.2145 30.6499 60.9654 31.0336 60.7924 31.4642C60.6194 31.8964 60.5337 32.3546 60.5337 32.837C60.5337 33.3162 60.6194 33.7694 60.7924 34.1968C60.9654 34.6242 61.2161 35.0062 61.5427 35.3429C61.8694 35.6797 62.2445 35.937 62.6618 36.1135C63.079 36.29 63.5253 36.379 63.9943 36.379C64.4567 36.379 64.895 36.29 65.3106 36.1135C65.7262 35.937 66.1013 35.6797 66.4328 35.3429C66.7611 35.0062 67.0118 34.6226 67.1864 34.1936C67.361 33.7646 67.4484 33.3129 67.4484 32.837Z" fill="white"/>
<path d="M75.8035 32.7007H79.5568C79.5568 32.7654 79.5584 32.8561 79.5633 32.9726C79.5762 33.2786 79.5827 33.4874 79.5827 33.5943C79.5827 34.9282 79.2011 35.9658 78.4378 36.704C77.6745 37.4422 76.5975 37.8113 75.2085 37.8113C74.4322 37.8113 73.7385 37.6964 73.1305 37.4681C72.5225 37.2399 71.9888 36.8934 71.5328 36.4321C71.0832 35.9739 70.7404 35.4365 70.5011 34.8197C70.2618 34.2029 70.1421 33.5408 70.1421 32.8366C70.1421 32.1195 70.2634 31.459 70.5076 30.8536C70.7517 30.2481 71.1123 29.7155 71.5926 29.2525C72.0535 28.7993 72.5952 28.4528 73.2162 28.2165C73.8372 27.9785 74.5018 27.8604 75.2101 27.8604C75.9572 27.8604 76.6234 27.9963 77.212 28.2683C77.8007 28.5403 78.3262 28.9579 78.7887 29.518L77.6632 30.3663C77.3446 29.9956 76.984 29.7188 76.583 29.5375C76.1819 29.3562 75.7324 29.2655 75.2376 29.2655C74.2107 29.2655 73.373 29.5957 72.723 30.253C72.0729 30.9102 71.7495 31.7682 71.7495 32.8221C71.7495 33.8937 72.0745 34.7631 72.723 35.43C73.3714 36.097 74.2139 36.4305 75.2505 36.4305C76.1302 36.4305 76.8239 36.2249 77.3285 35.8153C77.833 35.4041 78.0853 34.8456 78.0853 34.1366V34.0006H75.8068V32.7007H75.8035Z" fill="white"/>
<path d="M80.9351 37.5611V27.6992L86.9539 33.4979C87.1172 33.6614 87.2838 33.8362 87.452 34.0224C87.6201 34.2085 87.7964 34.4174 87.9824 34.6505V28.0764H89.4054V37.9302L83.2637 32.028C83.0987 31.8677 82.9403 31.6994 82.7883 31.5229C82.6346 31.3464 82.4891 31.1603 82.3516 30.966V37.5611H80.9351Z" fill="white"/>
<path d="M91.0747 37.5609V28.0762H92.6142V37.5609H91.0747Z" fill="white"/>
<path d="M93.8599 37.5603L98.6869 29.3852H94.6684V28.0771H101.056L96.2726 36.181H101.114V37.5603H93.8599Z" fill="white"/>
<path d="M109.259 37.5615L108.185 35.1187H104.432L103.332 37.5615H101.715L106.303 27.7012L110.884 37.5615H109.259ZM104.999 33.8349H107.64L106.67 31.6706C106.613 31.533 106.555 31.3743 106.495 31.1946C106.434 31.0149 106.374 30.8158 106.314 30.5956C106.262 30.8029 106.207 30.9971 106.149 31.1752C106.091 31.3549 106.031 31.52 105.971 31.6706L104.999 33.8349Z" fill="white"/>
<path d="M111.509 37.5611V27.6992L117.528 33.4979C117.691 33.6614 117.858 33.8362 118.026 34.0224C118.194 34.2085 118.37 34.4174 118.556 34.6505V28.0764H119.979V37.9302L113.837 32.028C113.674 31.8677 113.516 31.6994 113.362 31.5229C113.208 31.3464 113.063 31.1603 112.925 30.966V37.5611H111.509Z" fill="white"/>
<path d="M129.227 30.3811C128.791 30.0104 128.331 29.732 127.846 29.5458C127.361 29.3596 126.85 29.2674 126.316 29.2674C125.282 29.2674 124.439 29.6009 123.789 30.2646C123.139 30.9299 122.815 31.7911 122.815 32.8498C122.815 33.873 123.132 34.718 123.763 35.3833C124.394 36.0487 125.193 36.3805 126.155 36.3805C126.716 36.3805 127.25 36.2818 127.757 36.0827C128.263 35.8835 128.75 35.5841 129.216 35.1826V36.9261C128.802 37.2239 128.351 37.4473 127.864 37.593C127.376 37.7403 126.848 37.8132 126.279 37.8132C125.555 37.8132 124.884 37.695 124.269 37.457C123.655 37.2191 123.115 36.8694 122.649 36.408C122.186 35.9548 121.832 35.4206 121.585 34.8038C121.336 34.1886 121.213 33.533 121.213 32.8369C121.213 32.1408 121.337 31.4884 121.585 30.8765C121.832 30.2646 122.191 29.7287 122.662 29.2658C123.132 28.7995 123.671 28.4466 124.279 28.207C124.887 27.9675 125.545 27.8477 126.253 27.8477C126.81 27.8477 127.34 27.9286 127.845 28.0905C128.349 28.2524 128.839 28.4968 129.313 28.8254L129.227 30.3811Z" fill="white"/>
<path d="M130.609 37.5609V28.0762H135.897V29.3842H132.15V31.7623H135.897V33.1156H132.15V36.18H135.897V37.5593H130.609V37.5609Z" fill="white"/>
<path fill-rule="evenodd" clip-rule="evenodd" d="M28.5136 27.1726C27.8231 25.1766 28.1206 22.7419 28.1206 22.7419L24.0552 21.96C24.0552 21.96 23.4618 26.3486 25.3667 28.7364C27.5837 31.5176 31.6605 31.9951 31.6605 31.9951C31.6605 31.9951 29.7733 30.8101 28.5136 27.1726Z" fill="white"/>
<path fill-rule="evenodd" clip-rule="evenodd" d="M39.0376 20.3203C39.0376 20.3203 34.6472 21.0617 32.9169 23.579C30.9036 26.5091 31.6572 30.5206 31.6572 30.5206C31.6572 30.5206 32.2345 28.3772 35.3538 26.1012C37.0664 24.8514 39.4936 24.4111 39.4936 24.4111L39.0376 20.3203Z" fill="white"/>
<path fill-rule="evenodd" clip-rule="evenodd" d="M40.1623 28.8958C36.7518 27.8614 33.144 29.7813 33.144 29.7813C33.144 29.7813 35.3676 29.6875 38.4869 31.9716C40.1994 33.2246 41.3524 35.4003 41.3524 35.4003L45.1267 33.7394C45.1267 33.7378 43.0924 29.7846 40.1623 28.8958Z" fill="white"/>
<path fill-rule="evenodd" clip-rule="evenodd" d="M34.1984 31.1855C34.1984 31.1855 34.9666 33.2512 33.7424 36.8855C33.0697 38.8799 31.3491 40.6314 31.3491 40.6314L34.0836 43.6797C34.0836 43.6797 37.2305 40.557 37.1836 37.5265C37.1286 33.9991 34.1984 31.1855 34.1984 31.1855Z" fill="white"/>
<path fill-rule="evenodd" clip-rule="evenodd" d="M27.5396 33.7699C25.4196 33.7407 23.2042 32.6335 23.2042 32.6335L21.1343 36.1884C21.1343 36.1884 25.1059 38.2379 27.9956 37.2601C31.3592 36.122 33.1461 32.4521 33.1461 32.4521C33.1461 32.4521 31.4045 33.8217 27.5396 33.7699Z" fill="white"/>
<path fill-rule="evenodd" clip-rule="evenodd" d="M37.4304 32.2553C36.1173 31.2063 34.9385 30.9521 34.9385 30.9521C34.9385 30.9521 35.6856 31.6693 36.5119 32.7766C37.3286 33.8709 37.9544 35.2534 37.9544 35.2534L39.5278 34.7321C39.5278 34.7321 38.5656 33.1635 37.4304 32.2553Z" fill="white"/>
<path fill-rule="evenodd" clip-rule="evenodd" d="M33.6274 33.2988C33.6274 33.2988 33.1536 34.2167 32.3272 35.324C31.5106 36.4183 30.3608 37.4139 30.3608 37.4139L31.3182 38.7592C31.3182 38.7592 32.5504 37.3896 33.0937 36.0444C33.726 34.4935 33.6274 33.2988 33.6274 33.2988Z" fill="white"/>
<path fill-rule="evenodd" clip-rule="evenodd" d="M28.8316 32.094C27.5234 31.6909 26.1974 30.9414 26.1974 30.9414L25.2368 32.2867C25.2368 32.2867 26.9461 32.9876 28.4015 33.054C30.0849 33.1301 31.1861 32.6428 31.1861 32.6428C31.1861 32.6428 30.156 32.502 28.8316 32.094Z" fill="white"/>
<path fill-rule="evenodd" clip-rule="evenodd" d="M31.0436 24.7685L29.4864 24.2764C29.4864 24.2764 29.3489 26.0911 29.7322 27.4768C30.1753 29.0778 30.9693 29.9633 30.9693 29.9633C30.9693 29.9633 30.7865 28.9548 30.7655 27.5901C30.7461 26.2384 31.0436 24.7685 31.0436 24.7685Z" fill="white"/>
<path fill-rule="evenodd" clip-rule="evenodd" d="M35.3262 27.1517C33.8886 28.0227 33.2466 29.0247 33.2466 29.0247C33.2466 29.0247 34.178 28.5682 35.5024 28.1635C36.8123 27.7637 38.3275 27.6325 38.3275 27.6325L38.376 26.0186C38.3744 26.0186 36.5697 26.399 35.3262 27.1517Z" fill="white"/>
<path d="M106.631 42.5902H106.335V40.6233L105.74 40.8419V40.5732L106.584 40.2559H106.631V42.5902Z" fill="white"/>
<path d="M107.628 41.427L107.746 40.2695H108.935V40.5431H107.997L107.927 41.1761C108.041 41.1097 108.17 41.0757 108.314 41.0757C108.526 41.0757 108.694 41.1453 108.817 41.2862C108.941 41.4254 109.003 41.6148 109.003 41.8527C109.003 42.0923 108.938 42.2801 108.809 42.4177C108.679 42.5553 108.5 42.6249 108.267 42.6249C108.062 42.6249 107.895 42.5683 107.764 42.455C107.635 42.3416 107.56 42.1846 107.542 41.9823H107.821C107.838 42.115 107.885 42.2154 107.963 42.2834C108.039 42.3513 108.141 42.3853 108.265 42.3853C108.403 42.3853 108.51 42.3384 108.587 42.2445C108.665 42.1506 108.704 42.0211 108.704 41.8576C108.704 41.7022 108.662 41.5775 108.577 41.4837C108.493 41.3898 108.38 41.3428 108.241 41.3428C108.113 41.3428 108.011 41.3703 107.939 41.427L107.861 41.4901L107.628 41.427Z" fill="white"/>
<path d="M110.779 41.7234H110.001V41.4824H110.779V41.7234Z" fill="white"/>
<path d="M112.004 42.5902H111.708V40.6233L111.113 40.8419V40.5732L111.957 40.2559H112.004V42.5902Z" fill="white"/>
<path d="M114.365 40.4343L113.404 42.5906H113.096L114.053 40.5104H112.796V40.2676H114.365V40.4343Z" fill="white"/>
<path d="M116.789 40.2676L117.547 42.1632L118.305 40.2676H118.702V42.5906H118.396V41.6857L118.425 40.7095L117.663 42.5906H117.429L116.669 40.7144L116.7 41.6857V42.5906H116.394V40.2676H116.789Z" fill="white"/>
<path d="M120.553 41.9816H119.581L119.363 42.5887H119.047L119.934 40.2656H120.202L121.09 42.5887H120.776L120.553 41.9816ZM119.673 41.7323H120.462L120.066 40.6461L119.673 41.7323Z" fill="white"/>
<path d="M122.251 41.6497H121.706V42.5887H121.399V40.2656H122.167C122.429 40.2656 122.63 40.3255 122.77 40.4437C122.911 40.5635 122.982 40.7367 122.982 40.9633C122.982 41.1074 122.943 41.2337 122.866 41.3422C122.788 41.449 122.68 41.5299 122.539 41.5834L123.084 42.5692V42.5887H122.756L122.251 41.6497ZM121.705 41.4004H122.175C122.327 41.4004 122.448 41.3616 122.537 41.2823C122.626 41.2029 122.672 41.0977 122.672 40.965C122.672 40.8209 122.63 40.7108 122.544 40.6347C122.458 40.5586 122.335 40.5198 122.174 40.5182H121.705V41.4004V41.4004Z" fill="white"/>
<path d="M125.117 41.8535C125.088 42.0996 124.997 42.289 124.845 42.4218C124.693 42.5545 124.49 42.6225 124.237 42.6225C123.962 42.6225 123.744 42.5237 123.577 42.3279C123.413 42.132 123.33 41.8681 123.33 41.5379V41.3145C123.33 41.0992 123.369 40.9081 123.445 40.7446C123.521 40.5811 123.631 40.4549 123.772 40.3675C123.914 40.28 124.077 40.2363 124.263 40.2363C124.511 40.2363 124.708 40.3059 124.857 40.4435C125.005 40.5811 125.093 40.7722 125.117 41.015H124.81C124.784 40.8288 124.726 40.6945 124.637 40.6119C124.548 40.5293 124.423 40.4872 124.265 40.4872C124.069 40.4872 123.915 40.5601 123.806 40.7042C123.694 40.8482 123.639 41.0555 123.639 41.3226V41.5476C123.639 41.8001 123.691 42.0009 123.796 42.1498C123.901 42.2987 124.048 42.3732 124.237 42.3732C124.407 42.3732 124.538 42.3343 124.629 42.2583C124.719 42.1805 124.781 42.0462 124.81 41.8552H125.117V41.8535Z" fill="white"/>
<path d="M127.317 42.5906H127.01V41.5173H125.841V42.5906H125.535V40.2676H125.841V41.2664H127.01V40.2676H127.317V42.5906Z" fill="white"/>
<path d="M130.112 42.5908H128.592V42.3787L129.396 41.4851C129.516 41.3507 129.597 41.2406 129.642 41.1548C129.687 41.0691 129.71 40.9833 129.71 40.8926C129.71 40.7712 129.673 40.6724 129.6 40.5947C129.527 40.517 129.428 40.4782 129.307 40.4782C129.16 40.4782 129.047 40.5203 128.966 40.6028C128.885 40.687 128.845 40.8019 128.845 40.9509H128.55C128.55 40.7372 128.618 40.564 128.757 40.4328C128.895 40.3001 129.079 40.2354 129.309 40.2354C129.524 40.2354 129.695 40.292 129.82 40.4053C129.946 40.5186 130.007 40.6692 130.007 40.857C130.007 41.0852 129.862 41.3572 129.571 41.6745L128.95 42.3495H130.114V42.5908H130.112Z" fill="white"/>
<path d="M131.879 41.5994C131.879 41.9458 131.82 42.2016 131.703 42.37C131.587 42.5383 131.401 42.6225 131.15 42.6225C130.903 42.6225 130.72 42.5399 130.6 42.3764C130.482 42.2129 130.419 41.9669 130.416 41.6399V41.2465C130.416 40.9049 130.476 40.6507 130.592 40.4856C130.71 40.3205 130.895 40.2363 131.147 40.2363C131.396 40.2363 131.58 40.3173 131.698 40.4759C131.816 40.6362 131.876 40.8822 131.879 41.2173V41.5994ZM131.585 41.1963C131.585 40.947 131.55 40.7641 131.48 40.6507C131.411 40.5374 131.299 40.4792 131.147 40.4792C130.997 40.4792 130.887 40.5358 130.817 40.6491C130.748 40.7624 130.712 40.9373 130.71 41.1736V41.6463C130.71 41.8973 130.748 42.0834 130.82 42.2016C130.893 42.3198 131.003 42.3813 131.15 42.3813C131.296 42.3813 131.404 42.3246 131.475 42.2129C131.546 42.1012 131.582 41.9232 131.587 41.6803V41.1963H131.585Z" fill="white"/>
<path d="M133.226 42.5902H132.93V40.6233L132.334 40.8419V40.5732L133.179 40.2559H133.226V42.5902Z" fill="white"/>
<path d="M135.218 41.5693C135.157 41.6421 135.083 41.702 134.997 41.7457C134.911 41.7911 134.817 41.8121 134.715 41.8121C134.581 41.8121 134.465 41.7797 134.366 41.7133C134.267 41.647 134.19 41.5547 134.137 41.4349C134.083 41.3151 134.056 41.1824 134.056 41.0383C134.056 40.8829 134.085 40.7437 134.145 40.619C134.204 40.4944 134.287 40.3989 134.395 40.3341C134.504 40.2677 134.63 40.2354 134.774 40.2354C135.003 40.2354 135.184 40.3212 135.317 40.4927C135.45 40.6643 135.516 40.8991 135.516 41.1953V41.2811C135.516 41.7328 135.427 42.063 135.247 42.2718C135.068 42.4807 134.8 42.5859 134.439 42.5924H134.381V42.3415H134.442C134.685 42.3366 134.872 42.2735 135.003 42.152C135.136 42.029 135.207 41.8348 135.218 41.5693ZM134.766 41.5693C134.864 41.5693 134.955 41.5385 135.039 41.4786C135.123 41.4187 135.183 41.3426 135.222 41.2536V41.1354C135.222 40.9412 135.18 40.7841 135.095 40.6627C135.011 40.5413 134.905 40.4814 134.777 40.4814C134.648 40.4814 134.542 40.5316 134.465 40.6303C134.386 40.7291 134.347 40.8602 134.347 41.0237C134.347 41.1824 134.384 41.3135 134.462 41.4155C134.536 41.5191 134.638 41.5693 134.766 41.5693Z" fill="white"/>
<path d="M52.8128 22.3052H51.6517V25.5283H51.1779V22.3052H50.02V21.915H52.8111V22.3052H52.8128Z" fill="white"/>
<path d="M56.121 25.5292H55.6423V23.8586H53.8231V25.5292H53.3477V21.916H53.8231V23.4701H55.6423V21.916H56.121V25.5292Z" fill="white"/>
<path d="M59.0074 23.8586H57.4437V25.1391H59.2613V25.5292H56.9683V21.916H59.237V22.3062H57.4453V23.4701H59.009V23.8586H59.0074Z" fill="white"/>
<path d="M63.5035 22.3062H62.3441V25.5292H61.8702V22.3062H60.7124V21.916H63.5035V22.3062Z" fill="white"/>
<path d="M66.0767 23.8586H64.513V25.1391H66.3306V25.5292H64.0376V21.916H66.3064V22.3062H64.5146V23.4701H66.0784V23.8586H66.0767Z" fill="white"/>
<path d="M69.5804 24.3822C69.5352 24.7642 69.3945 25.0589 69.1584 25.2661C68.9207 25.4733 68.6053 25.5769 68.2124 25.5769C67.7854 25.5769 67.4442 25.4231 67.1871 25.1171C66.93 24.8112 66.8022 24.4016 66.8022 23.8884V23.5404C66.8022 23.2053 66.8621 22.909 66.9817 22.6549C67.1014 22.4007 67.2712 22.2049 67.4911 22.0673C67.7111 21.9313 67.9649 21.8633 68.2544 21.8633C68.6377 21.8633 68.9449 21.9701 69.1762 22.1854C69.4074 22.3991 69.5416 22.697 69.5804 23.0758H69.1018C69.0597 22.7876 68.9708 22.5772 68.8333 22.4477C68.6959 22.3182 68.5034 22.2534 68.2544 22.2534C67.9504 22.2534 67.7111 22.3667 67.5396 22.5918C67.3666 22.8168 67.2809 23.1373 67.2809 23.5533V23.903C67.2809 24.2948 67.3634 24.6072 67.5267 24.8387C67.69 25.0702 67.9197 25.1867 68.214 25.1867C68.4776 25.1867 68.6813 25.1269 68.822 25.0071C68.9643 24.8873 69.0581 24.6784 69.1034 24.3806H69.5804V24.3822Z" fill="white"/>
<path d="M73.0014 25.5292H72.5227V23.8586H70.7035V25.5292H70.228V21.916H70.7035V23.4701H72.5227V21.916H73.0014V25.5292Z" fill="white"/>
<path d="M76.6216 25.5292H76.143L74.3253 22.7449V25.5292H73.8467V21.916H74.3253L76.1478 24.7134V21.916H76.6216V25.5292Z" fill="white"/>
<path d="M77.9784 25.5292H77.5029V21.916H77.9784V25.5292Z" fill="white"/>
<path d="M81.5038 24.3822C81.4585 24.7642 81.3178 25.0589 81.0817 25.2661C80.844 25.4733 80.5287 25.5769 80.1357 25.5769C79.7088 25.5769 79.3676 25.4231 79.1105 25.1171C78.8533 24.8112 78.7256 24.4016 78.7256 23.8884V23.5404C78.7256 23.2053 78.7854 22.909 78.9051 22.6549C79.0247 22.4007 79.1945 22.2049 79.4145 22.0673C79.6344 21.9313 79.8883 21.8633 80.1777 21.8633C80.561 21.8633 80.8683 21.9701 81.0995 22.1854C81.3307 22.4007 81.465 22.697 81.5038 23.0758H81.0251C80.9831 22.7876 80.8941 22.5772 80.7567 22.4477C80.6192 22.3182 80.4252 22.2534 80.1777 22.2534C79.8737 22.2534 79.636 22.3667 79.463 22.5918C79.29 22.8168 79.2042 23.1373 79.2042 23.5533V23.903C79.2042 24.2948 79.2867 24.6072 79.45 24.8387C79.6134 25.0702 79.843 25.1867 80.1373 25.1867C80.4009 25.1867 80.6047 25.1269 80.7454 25.0071C80.886 24.8873 80.9798 24.6784 81.0267 24.3806H81.5038V24.3822Z" fill="white"/>
<path d="M84.1474 24.5839H82.6354L82.2958 25.5292H81.8042L83.182 21.916H83.5992L84.9802 25.5292H84.4918L84.1474 24.5839ZM82.7793 24.1937H84.0067L83.3922 22.5037L82.7793 24.1937Z" fill="white"/>
<path d="M85.943 25.1391H87.6539V25.5292H85.4644V21.916H85.943V25.1391V25.1391Z" fill="white"/>
<path d="M91.4952 23.8586H89.9315V25.1391H91.7491V25.5292H89.4561V21.916H91.7249V22.3062H89.9331V23.4701H91.4969V23.8586H91.4952Z" fill="white"/>
<path d="M93.5164 23.3001L94.3816 21.916H94.9411L93.801 23.7081L94.9686 25.5292H94.4042L93.5164 24.1192L92.6238 25.5292H92.061L93.2302 23.7081L92.0869 21.916H92.6448L93.5164 23.3001Z" fill="white"/>
<path d="M98.0178 22.3062H96.8568V25.5292H96.3829V22.3062H95.2251V21.916H98.0162V22.3062H98.0178Z" fill="white"/>
<path d="M99.8763 24.0674H99.029V25.5292H98.5503V21.916H99.7453C100.151 21.916 100.465 22.0083 100.683 22.1945C100.903 22.3806 101.012 22.6493 101.012 23.0039C101.012 23.2289 100.95 23.4248 100.829 23.5915C100.707 23.7582 100.539 23.8829 100.323 23.9671L101.17 25.5001V25.5292H100.659L99.8763 24.0674ZM99.0273 23.6773H99.7583C99.9944 23.6773 100.182 23.6158 100.323 23.4928C100.463 23.3697 100.533 23.2062 100.533 23.0006C100.533 22.7772 100.467 22.6056 100.334 22.4858C100.201 22.3661 100.009 22.3062 99.7583 22.3045H99.029V23.6773H99.0273Z" fill="white"/>
<path d="M103.67 24.5839H102.158L101.819 25.5292H101.327L102.705 21.916H103.122L104.503 25.5292H104.015L103.67 24.5839ZM102.302 24.1937H103.53L102.915 22.5037L102.302 24.1937Z" fill="white"/>
<path d="M105.969 24.8963L107 21.916H107.521L106.182 25.5292H105.76L104.424 21.916H104.942L105.969 24.8963Z" fill="white"/>
<path d="M109.814 24.5839H108.302L107.963 25.5292H107.471L108.849 21.916H109.266L110.647 25.5292H110.159L109.814 24.5839ZM108.446 24.1937H109.674L109.059 22.5037L108.446 24.1937Z" fill="white"/>
<path d="M113.768 25.054C113.645 25.2288 113.476 25.36 113.256 25.4474C113.037 25.5348 112.782 25.5769 112.491 25.5769C112.197 25.5769 111.935 25.5073 111.707 25.3697C111.479 25.2321 111.302 25.0346 111.178 24.7804C111.053 24.5263 110.989 24.23 110.985 23.8949V23.5792C110.985 23.0353 111.113 22.6128 111.365 22.3133C111.619 22.0138 111.975 21.8633 112.436 21.8633C112.813 21.8633 113.117 21.9604 113.346 22.1531C113.576 22.3457 113.717 22.6193 113.768 22.9738H113.293C113.204 22.4946 112.919 22.2534 112.441 22.2534C112.122 22.2534 111.88 22.3651 111.716 22.5901C111.553 22.8152 111.469 23.1389 111.467 23.5647V23.8609C111.467 24.2672 111.559 24.5894 111.745 24.829C111.93 25.0686 112.18 25.1884 112.496 25.1884C112.675 25.1884 112.83 25.1689 112.965 25.1285C113.099 25.088 113.209 25.0216 113.296 24.9277V24.1183H112.46V23.7282H113.768V25.054Z" fill="white"/>
<path d="M116.555 24.5839H115.043L114.704 25.5292H114.212L115.59 21.916H116.007L117.388 25.5292H116.9L116.555 24.5839ZM115.187 24.1937H116.414L115.8 22.5037L115.187 24.1937Z" fill="white"/>
<path d="M120.648 25.5292H120.169L118.351 22.7449V25.5292H117.873V21.916H118.351L120.174 24.7134V21.916H120.648V25.5292V25.5292Z" fill="white"/>
<path d="M121.849 25.1391H123.914V25.5292H121.286V25.1715L123.264 22.3045H121.318V21.916H123.835V22.2641L121.849 25.1391Z" fill="white"/>
<path d="M126.557 24.5839H125.045L124.705 25.5292H124.213L125.591 21.916H126.007L127.388 25.5292H126.899L126.557 24.5839ZM125.188 24.1937H126.416L125.801 22.5037L125.188 24.1937Z" fill="white"/>
<path d="M103.223 41.4199H50.6816V41.5831H103.223V41.4199Z" fill="white"/>
<path d="M135.962 23.832H128.894V23.9952H135.962V23.832Z" fill="white"/>
<path d="M109.367 39.8903V40.0295H109.474V40.1056H109.367V40.4634C109.367 40.486 109.372 40.5038 109.382 40.5152C109.391 40.5265 109.407 40.533 109.43 40.533C109.441 40.533 109.458 40.5313 109.477 40.5265V40.6058C109.451 40.6123 109.425 40.6155 109.401 40.6155C109.357 40.6155 109.323 40.6026 109.302 40.5751C109.281 40.5475 109.269 40.5103 109.269 40.4617V40.104H109.164V40.0279H109.269V39.8887H109.367V39.8903Z" fill="white"/>
<path d="M109.689 40.1005C109.733 40.0471 109.789 40.0196 109.859 40.0196C109.98 40.0196 110.041 40.0876 110.043 40.2252V40.6056H109.944V40.2252C109.944 40.1831 109.935 40.1523 109.915 40.1329C109.897 40.1135 109.868 40.1038 109.828 40.1038C109.796 40.1038 109.768 40.1119 109.744 40.1297C109.72 40.1475 109.7 40.1685 109.687 40.196V40.6056H109.589V39.7881H109.687V40.1005H109.689Z" fill="white"/>
<path d="M114.868 39.8903V40.0295H114.975V40.1056H114.868V40.4634C114.868 40.486 114.873 40.5038 114.883 40.5152C114.892 40.5265 114.908 40.533 114.931 40.533C114.942 40.533 114.959 40.5313 114.978 40.5265V40.6058C114.952 40.6123 114.926 40.6155 114.902 40.6155C114.858 40.6155 114.824 40.6026 114.803 40.5751C114.782 40.5475 114.77 40.5103 114.77 40.4617V40.104H114.665V40.0279H114.77V39.8887H114.868V39.8903Z" fill="white"/>
<path d="M115.188 40.0986C115.231 40.0451 115.288 40.0176 115.357 40.0176C115.478 40.0176 115.54 40.0856 115.541 40.2232V40.6036H115.443V40.2232C115.443 40.1811 115.433 40.1504 115.414 40.1309C115.396 40.1115 115.367 40.1018 115.326 40.1018C115.294 40.1018 115.267 40.1099 115.242 40.1277C115.218 40.1455 115.199 40.1666 115.186 40.1941V40.6036H115.087V39.7861H115.186V40.0986H115.188Z" fill="white"/>
</svg>
