<svg width="157" height="64" viewBox="0 0 157 64" fill="none" xmlns="http://www.w3.org/2000/svg">
<path d="M57.1893 32.3477C57.1893 29.3642 55.6907 26.7321 53.4034 25.1543H42.813V39.5411H53.4034C55.6907 37.9633 57.1893 35.3312 57.1893 32.3477Z" fill="white"/>
<path d="M38.6548 19.7038C41.1142 18.0112 44.1041 17.0215 47.3164 17.0215C50.5286 17.0215 53.5115 18.0112 55.9708 19.7038H38.6548Z" fill="white"/>
<path d="M55.9712 19.7041H62.6251V32.341C62.6251 27.1055 59.9937 22.4724 55.9712 19.7041Z" fill="white"/>
<path d="M37.3566 20.708V43.9808C34.0727 41.1694 32.0005 36.9954 32.0005 32.3408C32.0005 27.6863 34.0727 23.5122 37.3566 20.708Z" fill="white"/>
<path d="M62.6251 32.3408V44.9777H55.9712C59.9937 42.2165 62.6251 37.5835 62.6251 32.3408Z" fill="white"/>
<path d="M38.6548 44.9775H55.9708C53.5115 46.6773 50.5215 47.6598 47.3164 47.6598C44.1041 47.6598 41.1142 46.6773 38.6548 44.9775Z" fill="white"/>
<path d="M55.9712 19.7041H62.6251V32.341C62.6251 27.1055 59.9937 22.4724 55.9712 19.7041Z" fill="white"/>
<path d="M55.9712 19.7041H62.6251V32.341C62.6251 27.1055 59.9937 22.4724 55.9712 19.7041Z" fill="white"/>
<path d="M55.9712 19.7041H62.6251V32.341C62.6251 27.1055 59.9937 22.4724 55.9712 19.7041Z" fill="white"/>
<path d="M55.9712 19.7041H62.6251V32.341C62.6251 27.1055 59.9937 22.4724 55.9712 19.7041Z" fill="white"/>
<path d="M81.4761 28.3242C81.4761 29.0915 81.3542 29.7801 81.1104 30.4112C80.8666 31.0351 80.5296 31.573 80.0851 32.0177C79.6405 32.4623 79.1171 32.8066 78.5005 33.0504C77.8838 33.2943 77.2027 33.4162 76.4498 33.4162H72.6353V23.2178H76.4498C77.1955 23.2178 77.8838 23.3397 78.5005 23.5835C79.1171 23.8274 79.6477 24.1716 80.0851 24.6235C80.5296 25.0753 80.8666 25.6132 81.1104 26.2371C81.3542 26.8683 81.4761 27.5639 81.4761 28.3242ZM80.0564 28.3242C80.0564 27.7002 79.9704 27.1408 79.7983 26.6459C79.6262 26.1511 79.3824 25.7351 79.0741 25.3909C78.7586 25.0466 78.3786 24.7884 77.934 24.6091C77.4895 24.4298 76.9947 24.3366 76.4498 24.3366H74.0191V32.3046H76.4426C76.9876 32.3046 77.4823 32.2113 77.9269 32.032C78.3714 31.8527 78.7514 31.5945 79.0669 31.2503C79.3824 30.9132 79.619 30.4972 79.7911 30.0024C79.9704 29.5147 80.0564 28.9481 80.0564 28.3242Z" fill="white"/>
<path d="M90.1449 23.2178V24.3438H85.2476V27.7289H89.2127V28.8118H85.2476V32.2902H90.1449V33.4162H83.8638V23.2178H90.1449Z" fill="white"/>
<path d="M97.8666 24.8166C97.8236 24.8883 97.7806 24.9385 97.7304 24.9744C97.6802 25.0103 97.6228 25.0246 97.544 25.0246C97.4651 25.0246 97.3719 24.9816 97.2643 24.9027C97.1568 24.8238 97.0205 24.7306 96.8556 24.6373C96.6907 24.5441 96.4971 24.4509 96.2677 24.372C96.0382 24.2931 95.7586 24.25 95.4287 24.25C95.1204 24.25 94.848 24.2931 94.6113 24.372C94.3747 24.458 94.174 24.5656 94.0162 24.709C93.8585 24.8525 93.7366 25.0174 93.6577 25.2111C93.5788 25.4047 93.5358 25.6127 93.5358 25.835C93.5358 26.1219 93.6075 26.3586 93.7437 26.545C93.88 26.7315 94.0664 26.8893 94.2959 27.0256C94.5253 27.1618 94.7906 27.2766 95.0774 27.3698C95.3714 27.4702 95.6654 27.5706 95.9737 27.671C96.282 27.7786 96.576 27.8934 96.87 28.0225C97.1639 28.1515 97.4221 28.3165 97.6515 28.5173C97.8809 28.7181 98.0674 28.962 98.2036 29.2488C98.3398 29.5357 98.4115 29.8943 98.4115 30.3175C98.4115 30.7621 98.3327 31.1853 98.1821 31.5725C98.0315 31.9598 97.8092 32.3041 97.5153 32.5909C97.2213 32.8778 96.8628 33.1073 96.4397 33.2723C96.0167 33.4372 95.5291 33.5233 94.9914 33.5233C94.3317 33.5233 93.7294 33.4014 93.1845 33.1647C92.6395 32.928 92.1806 32.5981 91.7935 32.1965L92.195 31.5439C92.2308 31.4936 92.281 31.4506 92.3312 31.4148C92.3886 31.3789 92.4459 31.3646 92.5105 31.3646C92.6109 31.3646 92.7256 31.4148 92.8546 31.5223C92.9837 31.6299 93.1415 31.7447 93.335 31.8738C93.5286 32.0029 93.7581 32.1176 94.0306 32.2252C94.303 32.3328 94.6329 32.383 95.0272 32.383C95.357 32.383 95.6439 32.3399 95.902 32.2467C96.1601 32.1535 96.3752 32.0315 96.5545 31.8666C96.7337 31.7016 96.87 31.508 96.9632 31.2785C97.0564 31.049 97.1066 30.798 97.1066 30.5183C97.1066 30.2099 97.0349 29.9589 96.8986 29.7581C96.7624 29.5644 96.576 29.3995 96.3465 29.2632C96.1171 29.1269 95.859 29.0193 95.565 28.9261C95.271 28.8329 94.977 28.7396 94.6687 28.6392C94.3604 28.5388 94.0664 28.4313 93.7724 28.3022C93.4785 28.1731 93.2203 28.0081 92.9909 27.8073C92.7614 27.6065 92.5822 27.3483 92.4388 27.0399C92.2954 26.7315 92.2308 26.3586 92.2308 25.9067C92.2308 25.5482 92.3025 25.1967 92.4388 24.8597C92.5822 24.5226 92.7829 24.2214 93.0482 23.9632C93.3135 23.705 93.6434 23.4898 94.0377 23.3392C94.4321 23.1886 94.8766 23.1025 95.3857 23.1025C95.9522 23.1025 96.4756 23.1958 96.9417 23.3751C97.4077 23.5544 97.8236 23.8197 98.1749 24.1568L97.8666 24.8166Z" fill="white"/>
<path d="M102.341 33.4234H100.958V23.2178H102.341V33.4234Z" fill="white"/>
<path d="M110.128 32.4192C110.4 32.4192 110.658 32.4048 110.888 32.3833C111.117 32.3546 111.332 32.3187 111.54 32.2685C111.748 32.2183 111.935 32.1538 112.114 32.0821C112.293 32.0104 112.473 31.9243 112.652 31.8311V29.5719H111.074C110.981 29.5719 110.909 29.5432 110.859 29.493C110.809 29.4428 110.78 29.3783 110.78 29.2994V28.5177H113.914V32.4335C113.656 32.62 113.39 32.7778 113.111 32.914C112.831 33.0503 112.537 33.165 112.222 33.2583C111.906 33.3515 111.569 33.416 111.203 33.4663C110.838 33.5165 110.451 33.5308 110.027 33.5308C109.289 33.5308 108.608 33.4017 107.991 33.1507C107.375 32.8997 106.844 32.5411 106.399 32.0821C105.955 31.6231 105.603 31.078 105.36 30.4325C105.116 29.7871 104.987 29.0842 104.987 28.3168C104.987 27.5423 105.109 26.8323 105.352 26.1868C105.596 25.5485 105.948 24.9963 106.399 24.5373C106.851 24.0783 107.403 23.7268 108.041 23.4758C108.687 23.2248 109.404 23.0957 110.2 23.0957C110.601 23.0957 110.974 23.1244 111.325 23.1818C111.669 23.2391 111.992 23.3252 112.286 23.44C112.58 23.5547 112.86 23.6838 113.111 23.8488C113.362 24.0137 113.598 24.1858 113.813 24.3866L113.419 25.0106C113.34 25.1397 113.233 25.2042 113.104 25.2042C113.025 25.2042 112.946 25.1756 112.853 25.1253C112.731 25.0608 112.602 24.9747 112.451 24.8815C112.3 24.7883 112.121 24.695 111.913 24.609C111.705 24.5229 111.454 24.444 111.168 24.3866C110.881 24.3293 110.537 24.2934 110.149 24.2934C109.576 24.2934 109.052 24.3866 108.593 24.5731C108.127 24.7596 107.733 25.0321 107.403 25.3764C107.073 25.7278 106.822 26.1509 106.65 26.6458C106.471 27.1406 106.385 27.7001 106.385 28.3168C106.385 28.9623 106.478 29.5361 106.657 30.0453C106.837 30.5545 107.095 30.9776 107.432 31.329C107.762 31.6805 108.156 31.9458 108.615 32.1323C109.074 32.3259 109.583 32.4192 110.128 32.4192Z" fill="white"/>
<path d="M117.528 23.268C117.585 23.2967 117.657 23.3612 117.728 23.4544L123.637 31.1427C123.622 31.0208 123.615 30.8989 123.608 30.7841C123.601 30.6694 123.601 30.5546 123.601 30.447V23.2178H124.813V33.4162H124.117C124.01 33.4162 123.916 33.3947 123.845 33.3588C123.773 33.323 123.701 33.2584 123.63 33.1652L117.728 25.4841C117.736 25.606 117.743 25.7208 117.75 25.8355C117.757 25.9503 117.757 26.0507 117.757 26.1511V33.4162H116.545V23.2178H117.255C117.377 23.2178 117.47 23.2393 117.528 23.268Z" fill="white"/>
<path d="M75.7754 38.4878C75.7539 38.5237 75.7324 38.5452 75.7108 38.5595C75.6893 38.5739 75.6607 38.581 75.6248 38.581C75.589 38.581 75.5459 38.5595 75.4957 38.5237C75.4456 38.4878 75.381 38.4448 75.3093 38.4017C75.2376 38.3587 75.1444 38.3157 75.0369 38.2798C74.9293 38.2439 74.8002 38.2224 74.6497 38.2224C74.5063 38.2224 74.3844 38.2439 74.2696 38.2798C74.1621 38.3157 74.0689 38.373 73.9972 38.4376C73.9255 38.5021 73.8681 38.581 73.8323 38.6671C73.7964 38.7532 73.7749 38.8536 73.7749 38.954C73.7749 39.0831 73.8036 39.1906 73.8681 39.2839C73.9326 39.3699 74.0187 39.4417 74.1262 39.5062C74.2338 39.5707 74.3557 39.621 74.4847 39.664C74.621 39.707 74.7572 39.7572 74.9006 39.8002C75.044 39.8505 75.1803 39.9007 75.3165 39.9652C75.4527 40.0226 75.5746 40.1015 75.675 40.1947C75.7826 40.2879 75.8686 40.4027 75.9331 40.5318C75.9977 40.668 76.0335 40.833 76.0335 41.0266C76.0335 41.2346 75.9977 41.4283 75.926 41.6076C75.8543 41.7869 75.7539 41.9446 75.6176 42.0809C75.4814 42.2172 75.3165 42.3176 75.1229 42.3965C74.9293 42.4754 74.707 42.5112 74.4561 42.5112C74.1549 42.5112 73.8753 42.4538 73.6243 42.3463C73.3734 42.2387 73.1583 42.0881 72.979 41.8944L73.1654 41.5932C73.1798 41.5717 73.2013 41.5502 73.23 41.5358C73.2586 41.5215 73.2802 41.5143 73.316 41.5143C73.359 41.5143 73.4164 41.5358 73.4737 41.586C73.5311 41.6363 73.61 41.6865 73.696 41.751C73.7821 41.8084 73.8896 41.8658 74.0187 41.916C74.1477 41.9662 74.2983 41.9877 74.4776 41.9877C74.6282 41.9877 74.7644 41.9662 74.8791 41.9231C75.001 41.8801 75.0942 41.8227 75.1803 41.751C75.2663 41.6721 75.3237 41.586 75.3667 41.4785C75.4097 41.3709 75.4312 41.2561 75.4312 41.127C75.4312 40.9836 75.4025 40.8689 75.3308 40.7756C75.2663 40.6824 75.1803 40.6107 75.0799 40.5461C74.9795 40.4816 74.8576 40.4314 74.7214 40.3883C74.5851 40.3453 74.4489 40.3023 74.3055 40.2593C74.1621 40.2162 74.0259 40.1588 73.8896 40.1015C73.7534 40.0441 73.6387 39.9652 73.5311 39.872C73.4236 39.7787 73.3375 39.6568 73.273 39.5205C73.2085 39.3771 73.1798 39.205 73.1798 38.997C73.1798 38.832 73.2085 38.6671 73.273 38.5165C73.3375 38.3659 73.4307 38.2224 73.5526 38.1005C73.6745 37.9786 73.8251 37.8854 74.0043 37.8136C74.1836 37.7419 74.3915 37.7061 74.6282 37.7061C74.8934 37.7061 75.1301 37.7491 75.3452 37.828C75.5603 37.914 75.7539 38.0288 75.9116 38.1866L75.7754 38.4878Z" fill="white"/>
<path d="M85.6352 37.748V38.2859H84.1151V42.46H83.477V38.2859H81.9497V37.748H85.6352Z" fill="white"/>
<path d="M93.7152 41.9508C93.9088 41.9508 94.0809 41.9149 94.2386 41.8504C94.3892 41.7858 94.5182 41.6926 94.6258 41.5778C94.7333 41.4559 94.8122 41.3196 94.8696 41.1547C94.9269 40.9897 94.9556 40.8104 94.9556 40.6096V37.748H95.5866V40.6096C95.5866 40.8822 95.5436 41.1332 95.4575 41.3627C95.3715 41.5922 95.2496 41.793 95.0847 41.9651C94.9198 42.1372 94.7262 42.2663 94.4967 42.3667C94.2673 42.46 94.002 42.5102 93.7152 42.5102C93.4284 42.5102 93.1631 42.46 92.9336 42.3667C92.7042 42.2735 92.5034 42.1372 92.3457 41.9651C92.1879 41.793 92.0589 41.5922 91.9728 41.3627C91.8868 41.1332 91.8438 40.8822 91.8438 40.6096V37.748H92.4747V40.6096C92.4747 40.8033 92.5034 40.9897 92.5608 41.1547C92.6181 41.3196 92.697 41.4631 92.8046 41.5778C92.9121 41.6998 93.0412 41.7858 93.1989 41.8575C93.3495 41.9149 93.5216 41.9508 93.7152 41.9508Z" fill="white"/>
<path d="M106.349 40.1004C106.349 40.4518 106.292 40.7746 106.184 41.0615C106.07 41.3483 105.912 41.5994 105.711 41.8073C105.51 42.0153 105.267 42.1731 104.98 42.2879C104.693 42.4026 104.378 42.46 104.033 42.46H102.27V37.748H104.033C104.378 37.748 104.693 37.8054 104.98 37.9202C105.267 38.0349 105.51 38.1927 105.711 38.4007C105.912 38.6087 106.07 38.8525 106.184 39.1466C106.292 39.4263 106.349 39.749 106.349 40.1004ZM105.697 40.1004C105.697 39.8136 105.661 39.5554 105.582 39.3259C105.503 39.0964 105.389 38.9027 105.245 38.7449C105.102 38.5872 104.923 38.4652 104.722 38.3863C104.514 38.3003 104.284 38.2644 104.033 38.2644H102.915V41.9436H104.033C104.284 41.9436 104.514 41.9006 104.722 41.8217C104.93 41.7356 105.102 41.6209 105.245 41.4631C105.389 41.3053 105.503 41.1117 105.582 40.8893C105.654 40.6527 105.697 40.3945 105.697 40.1004Z" fill="white"/>
<path d="M113.555 42.4528H112.917V37.748H113.555V42.4528Z" fill="white"/>
<path d="M124.769 40.1008C124.769 40.4522 124.712 40.775 124.604 41.069C124.49 41.3631 124.332 41.6141 124.131 41.8292C123.93 42.0444 123.679 42.2094 123.4 42.3241C123.113 42.4389 122.797 42.5034 122.453 42.5034C122.109 42.5034 121.794 42.446 121.507 42.3241C121.22 42.2094 120.976 42.0444 120.775 41.8292C120.575 41.6141 120.417 41.3631 120.302 41.069C120.187 40.775 120.137 40.4522 120.137 40.1008C120.137 39.7494 120.195 39.4267 120.302 39.1326C120.417 38.8386 120.575 38.5804 120.775 38.3724C120.976 38.1644 121.22 37.9923 121.507 37.8775C121.794 37.7556 122.109 37.6982 122.453 37.6982C122.797 37.6982 123.113 37.7556 123.4 37.8775C123.686 37.9923 123.93 38.1644 124.131 38.3724C124.332 38.5804 124.49 38.8386 124.604 39.1326C124.712 39.4267 124.769 39.7494 124.769 40.1008ZM124.117 40.1008C124.117 39.8139 124.081 39.5486 123.995 39.3191C123.916 39.0896 123.801 38.8959 123.658 38.7382C123.514 38.5804 123.335 38.4585 123.134 38.3724C122.934 38.2863 122.697 38.2433 122.446 38.2433C122.195 38.2433 121.966 38.2863 121.758 38.3724C121.55 38.4585 121.378 38.5804 121.227 38.7382C121.084 38.8959 120.969 39.0896 120.89 39.3191C120.811 39.5486 120.768 39.8068 120.768 40.1008C120.768 40.3877 120.804 40.6459 120.89 40.8754C120.969 41.1049 121.084 41.2985 121.227 41.4563C121.37 41.6141 121.55 41.736 121.758 41.8221C121.966 41.9081 122.195 41.9512 122.446 41.9512C122.697 41.9512 122.926 41.9081 123.134 41.8221C123.342 41.736 123.514 41.6141 123.658 41.4563C123.801 41.2985 123.916 41.1049 123.995 40.8754C124.081 40.6531 124.117 40.3949 124.117 40.1008Z" fill="white"/>
</svg>
