<svg width="158" height="64" viewBox="0 0 158 64" fill="none" xmlns="http://www.w3.org/2000/svg">
<path d="M23.1812 29.4766H20V26.5762H29.8576V29.4766H26.6765V37.8923H23.1812V29.4766Z" fill="white"/>
<path d="M30.4009 26.5752H39.9701V29.4757H33.8996V30.8857H39.9701V33.5808H33.8996V34.9908H39.9718V37.8913H30.4009V26.5752Z" fill="white"/>
<path d="M40.5579 26.5752H46.297C50.0807 26.5752 51.4181 29.3644 51.4181 32.217C51.4181 35.689 49.5743 37.8913 45.6137 37.8913H40.5562V26.5752H40.5579ZM44.0549 34.9908H45.4232C47.6017 34.9908 47.9211 33.2317 47.9211 32.1674C47.9211 31.4555 47.6979 29.4739 45.1691 29.4739H44.0566V34.9908H44.0549Z" fill="white"/>
<path d="M56.4428 33.5292L55.375 31.765L54.3346 33.5292H51.7715L54.2041 29.9631L51.8642 26.5527H54.4273L55.3767 28.2383L56.3535 26.5527H58.9166L56.575 29.9631L59.0076 33.5292H56.4428V33.5292Z" fill="white"/>
<path d="M63.2821 37.8907H61.7524V26.6123H63.2821V37.8907Z" fill="white"/>
<path d="M67.6649 37.8907H66.1353V26.6123H67.6649V37.8907Z" fill="white"/>
<path d="M69.3054 26.6123H78.4935V27.9641H74.6634V37.8924H73.1338V27.9624H69.3037V26.6123H69.3054Z" fill="white"/>
<path d="M81.6302 37.8907H80.1006V26.6123H85.3333C87.1925 26.6123 89.0535 27.2557 89.0535 29.6445C89.0535 31.3095 88.202 31.9221 87.4775 32.3465C88.123 32.6134 88.7702 32.8958 88.8337 34.4667L88.9282 36.5098C88.9436 37.1378 89.0226 37.374 89.4947 37.6409V37.8924H87.6183C87.3968 37.2011 87.3505 35.4882 87.3505 35.0639C87.3505 34.1364 87.1616 33.0532 85.3333 33.0532H81.6285V37.8907H81.6302ZM81.6302 31.7493H85.177C86.2964 31.7493 87.4775 31.4669 87.4775 29.802C87.4775 28.0583 86.2002 27.9162 85.4449 27.9162H81.6302V31.7493Z" fill="white"/>
<path d="M94.4751 29.4385C97.1069 29.4385 98.3052 31.6545 98.3052 33.7746C98.3052 35.8948 97.1069 38.1108 94.4751 38.1108C91.8433 38.1108 90.645 35.8965 90.645 33.7746C90.645 31.6528 91.8433 29.4385 94.4751 29.4385ZM94.4751 36.9164C96.4614 36.9164 96.87 34.8732 96.87 33.7746C96.87 32.676 96.4597 30.6329 94.4751 30.6329C92.4888 30.6329 92.0785 32.676 92.0785 33.7746C92.0785 34.8732 92.4888 36.9164 94.4751 36.9164Z" fill="white"/>
<path d="M103.237 29.4385C105.869 29.4385 107.067 31.6545 107.067 33.7746C107.067 35.8948 105.869 38.1108 103.237 38.1108C100.605 38.1108 99.4067 35.8965 99.4067 33.7746C99.4067 31.6528 100.605 29.4385 103.237 29.4385ZM103.237 36.9164C105.223 36.9164 105.632 34.8732 105.632 33.7746C105.632 32.676 105.221 30.6329 103.237 30.6329C101.251 30.6329 100.84 32.676 100.84 33.7746C100.84 34.8732 101.251 36.9164 103.237 36.9164Z" fill="white"/>
<path d="M110.218 37.8903H108.831V29.6749H110.139V31.0421H110.17C110.721 30.0838 111.447 29.4404 112.487 29.4404C112.661 29.4404 112.74 29.4558 112.849 29.4883V30.9172H112.329C111.037 30.9172 110.218 31.9234 110.218 33.1161V37.8903Z" fill="white"/>
<path d="M120.997 37.8907H119.217L116.647 33.7428L115.496 34.7798V37.8907H114.157V26.6123H115.496V33.1473L119.043 29.6753H120.808L117.656 32.7384L120.997 37.8907Z" fill="white"/>
<path d="M128.69 35.3147C128.642 35.7083 128.264 36.8702 127.224 37.5615C126.846 37.813 126.31 38.1262 124.985 38.1262C122.667 38.1262 121.297 36.3825 121.297 34.0108C121.297 31.4662 122.527 29.4385 125.253 29.4385C127.632 29.4385 128.8 31.3242 128.8 34.2298H122.779C122.779 35.9427 123.582 36.9318 125.174 36.9318C126.482 36.9318 127.255 35.9256 127.301 35.313H128.69V35.3147ZM127.364 33.1312C127.285 31.8581 126.75 30.6808 125.064 30.6808C123.787 30.6808 122.779 31.8598 122.779 33.1312H127.364Z" fill="white"/>
<path d="M137.453 35.3147C137.405 35.7083 137.028 36.8702 135.987 37.5615C135.61 37.813 135.074 38.1262 133.749 38.1262C131.431 38.1262 130.061 36.3825 130.061 34.0108C130.061 31.4662 131.29 29.4385 134.016 29.4385C136.396 29.4385 137.563 31.3242 137.563 34.2298H131.543C131.543 35.9427 132.346 36.9318 133.937 36.9318C135.246 36.9318 136.018 35.9256 136.065 35.313H137.453V35.3147ZM136.13 33.1312C136.051 31.8581 135.515 30.6808 133.829 30.6808C132.552 30.6808 131.544 31.8598 131.544 33.1312H136.13Z" fill="white"/>
</svg>
