<svg width="70" height="70" viewBox="0 0 70 70" fill="none" xmlns="http://www.w3.org/2000/svg">
<path d="M48.125 32.8125C48.125 36.2935 46.7422 39.6319 44.2808 42.0933C41.8194 44.5547 38.481 45.9375 35 45.9375" stroke="white" stroke-width="2" stroke-linecap="round" stroke-linejoin="round"/>
<path d="M17.4999 54.5658C22.4444 59.0006 28.8908 61.3884 35.5312 61.2447C49.6075 60.9666 61.0515 49.4515 61.2474 35.3738C61.2969 31.8955 60.6546 28.442 59.3578 25.2142C58.0609 21.9863 56.1355 19.0483 53.6933 16.5711C51.251 14.0939 48.3408 12.1267 45.1317 10.7841C41.9226 9.44143 38.4787 8.75 35 8.75H32.8125V17.5L4.375 35L8.14491 40.227C8.86383 41.2224 9.84733 41.9963 10.9838 42.4611C12.1203 42.9258 13.3643 43.0627 14.5746 42.8563C19.351 42.0477 27.7163 41.5673 35 45.9374L35 45.9375L25.3657 59.4256" stroke="white" stroke-width="2" stroke-linecap="round" stroke-linejoin="round"/>
<path d="M34 30C35.6569 30 37 28.6569 37 27C37 25.3431 35.6569 24 34 24C32.3431 24 31 25.3431 31 27C31 28.6569 32.3431 30 34 30Z" fill="white"/>
</svg>
