<svg width="70" height="70" viewBox="0 0 70 70" fill="none" xmlns="http://www.w3.org/2000/svg">
<path d="M41.5625 29.5312H50.3125" stroke="white" stroke-width="2" stroke-linecap="round" stroke-linejoin="round"/>
<path d="M19.6875 29.5312H28.4375" stroke="white" stroke-width="2" stroke-linecap="round" stroke-linejoin="round"/>
<path d="M24.0625 25.1562V33.9062" stroke="white" stroke-width="2" stroke-linecap="round" stroke-linejoin="round"/>
<path d="M47.0359 15.2412L22.9696 15.3124C19.6266 15.3126 16.3905 16.4904 13.8294 18.639C11.2684 20.7875 9.54593 23.7696 8.96452 27.0616L8.96685 27.062L4.49221 50.0753C4.20958 51.6789 4.4455 53.3308 5.1657 54.7911C5.88591 56.2514 7.05289 57.4441 8.49716 58.196C9.94143 58.9478 11.5878 59.2197 13.1971 58.9721C14.8064 58.7245 16.2949 57.9703 17.4464 56.8191L17.4459 56.8186L29.2682 43.7499L47.0359 43.6787C50.8069 43.6787 54.4235 42.1807 57.0901 39.5141C59.7566 36.8476 61.2546 33.231 61.2546 29.46C61.2546 25.6889 59.7566 22.0723 57.0901 19.4058C54.4235 16.7393 50.8069 15.2412 47.0359 15.2412V15.2412Z" stroke="white" stroke-width="2" stroke-linecap="round" stroke-linejoin="round"/>
<path d="M61.039 26.9912L65.51 50.0756C65.7926 51.6792 65.5567 53.3311 64.8365 54.7914C64.1163 56.2517 62.9493 57.4444 61.505 58.1963C60.0607 58.9482 58.4144 59.22 56.8051 58.9724C55.1957 58.7248 53.7072 57.9706 52.5558 56.8194L52.5562 56.8189L40.7422 43.7042" stroke="white" stroke-width="2" stroke-linecap="round" stroke-linejoin="round"/>
</svg>
