<svg width="45" height="45" viewBox="0 0 45 45" fill="none" xmlns="http://www.w3.org/2000/svg">
<rect width="45" height="45" rx="3" fill="#FAFAFA"/>
<path d="M18.148 16.5562C18.1477 16.9688 17.9817 17.3643 17.6864 17.6559C17.3911 17.9475 16.9906 18.1111 16.5732 18.1109C16.1557 18.1107 15.7555 17.9467 15.4605 17.6548C15.1654 17.3629 14.9998 16.9672 15 16.5547C15.0002 16.1422 15.1662 15.7466 15.4616 15.455C15.7569 15.1635 16.1573 14.9998 16.5748 15C16.9922 15.0002 17.3925 15.1643 17.6875 15.4561C17.9825 15.748 18.1482 16.1437 18.148 16.5562V16.5562ZM18.1952 19.2628H15.0472V29H18.1952V19.2628ZM23.1689 19.2628H20.0367V29H23.1375V23.8903C23.1375 21.0438 26.8914 20.7793 26.8914 23.8903V29H30V22.8326C30 18.0339 24.4439 18.2128 23.1375 20.5694L23.1689 19.2628V19.2628Z" fill="black"/>
</svg>
