<svg width="45" height="45" viewBox="0 0 45 45" fill="none" xmlns="http://www.w3.org/2000/svg">
<rect x="0.5" y="0.5" width="44" height="44" rx="2.5" fill="white" stroke="#E9E9E9"/>
<path d="M29.5 28.6659C29.5 28.8869 29.4122 29.0989 29.2559 29.2552C29.0996 29.4115 28.8877 29.4992 28.6667 29.4992H15.3333C15.1123 29.4992 14.9004 29.4115 14.7441 29.2552C14.5878 29.0989 14.5 28.8869 14.5 28.6659V19.9076C14.4999 19.7806 14.5288 19.6553 14.5846 19.5412C14.6403 19.4271 14.7214 19.3272 14.8217 19.2492L21.4883 14.0643C21.6346 13.9505 21.8147 13.8887 22 13.8887C22.1853 13.8887 22.3654 13.9505 22.5117 14.0643L29.1783 19.2492C29.2786 19.3272 29.3597 19.4271 29.4154 19.5412C29.4712 19.6553 29.5001 19.7806 29.5 19.9076V28.6659ZM27.8333 27.8326V20.3142L22 15.7776L16.1667 20.3142V27.8326H27.8333Z" fill="black"/>
</svg>
