<svg width="45" height="45" viewBox="0 0 45 45" fill="none" xmlns="http://www.w3.org/2000/svg">
<rect x="0.5" y="0.5" width="44" height="44" rx="2.5" fill="#0C0C0C" stroke="#1D1D1D"/>
<path d="M18.2358 17C18.7551 17 19.2353 17.0429 19.6742 17.1697C20.0724 17.2469 20.4525 17.4053 20.7931 17.636C21.1133 17.8477 21.3531 18.1451 21.5123 18.5266C21.6724 18.908 21.7521 19.3751 21.7521 19.8834C21.7521 20.4774 21.6326 20.9857 21.3531 21.3671C21.1133 21.7494 20.7135 22.088 20.2341 22.3426C20.9134 22.5551 21.4327 22.9366 21.7521 23.4448C22.0722 23.954 22.2721 24.59 22.2721 25.3108C22.2721 25.9048 22.1519 26.4131 21.952 26.8374C21.7521 27.2617 21.4327 27.6431 21.0727 27.8977C20.6816 28.1706 20.2494 28.3712 19.7944 28.4908C19.315 28.6185 18.8355 28.7034 18.3561 28.7034H13V17H18.2358ZM17.9156 21.7486C18.3553 21.7486 18.7152 21.6217 18.9948 21.41C19.2743 21.1983 19.3946 20.816 19.3946 20.3497C19.3946 20.0951 19.354 19.8406 19.2743 19.6717C19.1947 19.502 19.0744 19.3743 18.9152 19.2474C18.7551 19.1626 18.595 19.0777 18.3951 19.0357C18.1952 18.9929 17.9961 18.9929 17.7555 18.9929H15.4379V21.7494H17.9164L17.9156 21.7486ZM18.0359 26.7526C18.2756 26.7526 18.5153 26.7097 18.7152 26.6677C18.9171 26.6272 19.108 26.5403 19.2743 26.4131C19.4372 26.289 19.5734 26.1302 19.6742 25.9468C19.7538 25.7351 19.8342 25.4806 19.8342 25.184C19.8342 24.59 19.6742 24.1657 19.3548 23.8691C19.0346 23.6146 18.595 23.4877 18.0757 23.4877H15.4379V26.7534H18.0359V26.7526ZM25.7494 26.7097C26.0688 27.0491 26.5482 27.2188 27.1878 27.2188C27.6274 27.2188 28.0272 27.092 28.3466 26.8803C28.6668 26.6257 28.8667 26.3711 28.9463 26.1166H30.9047C30.5846 27.134 30.1051 27.8548 29.4664 28.3211C28.826 28.7454 28.067 29 27.1479 29C26.5599 29.0019 25.9768 28.8867 25.4292 28.6605C24.9365 28.4656 24.4971 28.1452 24.1501 27.728C23.779 27.3376 23.5047 26.8569 23.3513 26.3283C23.1514 25.7771 23.071 25.184 23.071 24.5051C23.071 23.8691 23.1514 23.276 23.3513 22.724C23.5435 22.1926 23.8279 21.7037 24.19 21.2823C24.55 20.9008 24.9896 20.5623 25.469 20.3497C26.0027 20.1235 26.5728 20.0082 27.1479 20.0103C27.8273 20.0103 28.427 20.138 28.9463 20.4346C29.4664 20.7311 29.8654 21.0706 30.1856 21.5797C30.5122 22.0687 30.7555 22.614 30.9047 23.1911C30.9844 23.7843 31.0242 24.3783 30.9844 25.0563H25.1895C25.1895 25.7351 25.4292 26.3711 25.7494 26.7106V26.7097ZM28.2669 22.2577C27.9874 21.9611 27.5478 21.7914 27.0277 21.7914C26.6685 21.7914 26.3881 21.8763 26.1484 22.0031C25.9087 22.1308 25.7494 22.3006 25.5893 22.4703C25.4422 22.6342 25.3449 22.8407 25.3098 23.0634C25.2691 23.276 25.2293 23.4448 25.2293 23.6146H28.826C28.7464 22.9786 28.5465 22.5551 28.2669 22.2577V22.2577ZM24.7499 17.8057H29.2258V18.9509H24.7507V17.8057H24.7499Z" fill="white"/>
</svg>
