<svg width="397" height="250" viewBox="0 0 397 250" fill="none" xmlns="http://www.w3.org/2000/svg">
<g clip-path="url(#clip0)">
<path d="M397 0H0V274H397V0Z" fill="#0076FF"/>
<path opacity="0.1" d="M29 0L211 135L82.0529 0H29Z" fill="white"/>
<path opacity="0.1" d="M138 -11L202 119L213 -11H138Z" fill="white"/>
<path opacity="0.1" d="M271.5 -3L206 126L329 -3H271.5Z" fill="white"/>
<path opacity="0.1" d="M400 22L197 126L400 86.3092V22Z" fill="white"/>
<path opacity="0.1" d="M0 52L192 126L0 123V52Z" fill="white"/>
<path d="M192 175C217.405 175 238 154.405 238 129C238 103.595 217.405 83 192 83C166.595 83 146 103.595 146 129C146 154.405 166.595 175 192 175Z" fill="white"/>
<path d="M145.683 124.8L172.362 141.3L375 180V264H0V87L9.89209 93.9L28.1775 95.1L33.8729 91.5L57.554 108.9L71.0432 98.1L73.4413 93.9L78.8369 94.5L104.317 108.9L110.312 113.4H119.604L127.398 111.6L145.683 124.8Z" fill="#0B6EE1"/>
<path d="M363.368 123.512L403 131.267V264H28V184.659H78.4404L121.375 169.447L183.524 153.638L230.962 124.705L247.776 118.441L262.488 107.107L280.202 93.983L288.608 91L309.325 93.983L338.148 112.774L363.368 123.512Z" fill="#0360CD"/>
<path d="M328.618 197.419L397 195.636V264H0V135L15.1962 146.889C20.8947 147.484 33.1783 148.911 36.7241 149.862C40.2699 150.813 56.1414 151.843 63.634 152.24L104.474 170.371H116.188L137.083 165.912H148.163L164.941 172.452H175.389L178.555 174.235C181.299 171.659 187.673 166.626 191.218 167.101C194.764 167.577 199.66 163.336 201.665 161.157L211.48 160.562L216.228 156.104L226.043 158.184L243.772 166.507L269.416 172.452L286.511 182.558L328.618 197.419Z" fill="#0453AF"/>
</g>
<defs>
<clipPath id="clip0">
<rect width="397" height="250" fill="white"/>
</clipPath>
</defs>
</svg>
