<svg width="375" height="250" viewBox="0 0 375 250" fill="none" xmlns="http://www.w3.org/2000/svg">
<g clip-path="url(#clip0)">
<path d="M375 0H0V250H375V0Z" fill="#37F057"/>
<path d="M21.3723 230.707C21.3723 230.707 18.5134 230.303 18.1781 234.582L18.1762 274H36.2189L42.2164 236.531C42.5484 232.188 39.6755 232.14 39.6755 232.14L21.3723 230.707Z" fill="#31E450"/>
<path d="M12.2209 30.529C9.857 24.5047 5.99204 6.35101 4.7115 4.03552e-08L0 0V62C1.44244e-06 62.4 1.2474 62.4871 1.48465 62.4807C4.244 61.6696 10.5688 59.7876 10.5688 59.7876C10.5688 59.7876 16.8936 57.9056 19.653 57.0945C22.4123 56.2834 21.4004 53.81 21.4004 53.81L12.2209 30.529Z" fill="#31E450"/>
<path d="M19.2472 147.116L37.5982 146.695C37.5982 146.695 40.4691 146.444 40.5717 150.804L38.7433 180.924C38.3514 187.395 38.53 193.921 39.2975 200.358L42.1982 225.274C42.1982 225.274 42.5405 227.919 39.6794 227.981C36.8182 228.043 30.2105 228.194 30.2105 228.194C30.2105 228.194 23.6222 228.35 20.7417 228.406C17.8805 228.469 18.1055 225.815 18.1055 225.815L19.9198 200.787C20.3947 194.318 20.2797 187.789 19.5953 181.354L16.4347 151.354C16.371 147.005 19.2472 147.116 19.2472 147.116Z" fill="#31E450"/>
<path d="M2.13018 64.7675L20.0529 60.8707C20.0529 60.8707 22.8203 60.0814 23.722 64.3487L27.4854 94.2855C27.7341 96.2029 28.0464 98.1169 28.3836 100.017C28.8258 99.5472 29.2983 99.0438 29.8064 98.4867C31.2562 96.858 32.9142 94.9273 34.5734 92.7634C35.4126 91.6841 36.2487 90.5403 37.0513 89.3658C37.8928 88.2022 43.3074 79.2014 44.1014 77.982C44.8814 76.7374 45.5309 75.4347 46.2473 74.1934C46.872 72.9049 47.4967 71.6165 48.0276 70.3652C48.2014 69.8835 48.3891 69.427 48.5575 68.965C42.957 69.1028 22.8543 42.7032 22.8543 42.7032C22.8543 42.7032 46.3941 59.6068 49.4445 66.4131C49.709 65.4475 49.968 64.5016 50.2055 63.6345C45.6097 61.0201 48.1293 26.4675 48.1293 26.4675C48.1293 26.4675 56.1642 62.494 51.0391 63.7214C50.8911 64.7199 50.7075 65.772 50.5218 66.9085C50.4419 67.353 50.3232 67.7865 50.2044 68.2201C56.1319 62.2301 81 52.2911 81 52.2911C81 52.2911 53.338 74.6464 49.3625 71.2943C48.9643 72.5193 48.5273 73.7334 48.0934 75.0121C47.4913 76.3706 46.9507 77.8102 46.2904 79.1523C45.6053 80.5086 40.319 89.6518 39.5724 90.9271C38.8592 92.233 38.1321 93.5138 37.3823 94.7245C35.9215 97.1568 34.4036 99.3394 33.0799 101.195C31.7228 103.019 30.5739 104.542 29.7066 105.571C29.671 105.624 29.6214 105.653 29.5804 105.726C30.1848 108.254 30.8335 110.772 31.6202 113.245L39.1024 137.162C39.1024 137.162 39.9365 139.691 37.1346 140.301C34.3326 140.91 27.8832 142.316 27.8832 142.316C27.8832 142.316 21.4337 143.721 18.6318 144.331C15.8298 144.941 15.5511 142.293 15.5511 142.293L12.714 117.373C11.9908 110.927 10.6647 104.544 8.81114 98.331L0.176027 69.4595C-0.72566 65.1922 2.13018 64.7675 2.13018 64.7675Z" fill="#31E450"/>
<path d="M73.9129 172.255C73.627 168.651 71.2069 168.993 71.2069 168.993L55.6939 170.201C55.6939 170.201 53.2451 170.24 53.531 173.843L57.5885 198.491C58.4592 203.789 58.842 209.176 58.7557 214.547L58.3693 235.301C58.3693 235.301 58.3047 237.502 60.7308 237.313C63.1568 237.124 68.7434 236.688 68.7434 236.688C68.7434 236.688 74.33 236.252 76.756 236.063C79.182 235.874 78.7682 233.71 78.7682 233.71L75.1385 213.261C74.2003 207.974 73.7498 202.597 73.7828 197.217L73.9129 172.255Z" fill="#17B432"/>
<path d="M76.2447 237.049C76.2447 237.049 78.6648 236.706 78.9508 240.31L78.8206 265.272C78.7924 270.69 79.5951 273.348 80 274H62.6264C62.8597 270 62.7236 267.365 62.6264 266.547L58.5689 241.899C58.2829 238.295 60.7317 238.257 60.7317 238.257L76.2447 237.049Z" fill="#17B432"/>
<path d="M55.4071 169.098C57.8331 168.909 63.4197 168.473 63.4197 168.473C63.4197 168.473 69.0063 168.037 71.4323 167.848C73.8583 167.659 73.4445 165.495 73.4445 165.495L69.8149 145.046C68.8767 139.759 68.4262 134.382 68.4592 129.001L68.6231 104.035C68.3372 100.431 65.917 100.773 65.917 100.773L50.4041 101.981C50.4041 101.981 47.9553 102.019 48.2412 105.623L52.2987 130.271C53.1693 135.569 53.5522 140.956 53.4659 146.327L53.0795 167.081C53.0432 167.069 52.9811 169.287 55.4071 169.098Z" fill="#17B432"/>
<path d="M50.0678 100.884C52.4938 100.695 58.0804 100.259 58.0804 100.259C58.0804 100.259 63.667 99.8233 66.093 99.6342C68.519 99.4452 68.1052 97.2812 68.1052 97.2812L64.4756 76.8322C63.5373 71.5448 63.0868 66.1678 63.1199 60.7876L63.2838 35.8208C62.9979 32.2169 60.5777 32.5591 60.5777 32.5591L45.0648 33.7671C45.0648 33.7671 42.6159 33.8054 42.9019 37.4093L46.9594 62.0574C47.83 67.3549 48.2129 72.7419 48.1266 78.1129L47.7233 98.8697C47.7233 98.8697 47.6418 101.073 50.0678 100.884Z" fill="#17B432"/>
<path d="M52.3574 32.1027C52.3574 32.1027 46.7708 32.5385 44.3448 32.7276C41.9188 32.9166 42.0003 30.7133 42.0003 30.7133L42.1475 0L57.2881 3.48692e-05L62.3822 29.1247C62.3822 29.1247 62.7961 31.2888 60.3701 31.4778C57.944 31.6669 52.3574 32.1027 52.3574 32.1027Z" fill="#17B432"/>
<path d="M149.22 53.4149C145.969 53.4678 138.483 53.5902 138.483 53.5902C138.483 53.5902 130.996 53.7126 127.745 53.7655C124.495 53.8184 124.865 56.7624 124.865 56.7624L127.99 84.5583C128.798 91.7453 128.948 99.0123 128.453 106.244L126.141 139.799C126.22 144.669 129.476 144.409 129.476 144.409L139.87 144.241L150.263 144.072C150.263 144.072 153.532 144.224 153.453 139.355L150.109 105.877C149.392 98.6823 149.333 91.4074 149.899 84.1929L152.154 56.3197C152.202 56.3385 152.471 53.362 149.22 53.4149Z" fill="#17B432"/>
<path d="M150.617 145.575C147.366 145.628 139.879 145.75 139.879 145.75C139.879 145.75 132.393 145.873 129.142 145.926C125.891 145.978 126.262 148.922 126.262 148.922L129.387 176.718C130.195 183.905 130.345 191.172 129.85 198.404L127.538 231.959C127.617 236.829 130.873 236.569 130.873 236.569L141.267 236.401L151.66 236.232C151.66 236.232 154.929 236.384 154.85 231.515L151.506 198.037C150.789 190.842 150.73 183.568 151.296 176.353L153.574 148.478C153.574 148.478 153.868 145.522 150.617 145.575Z" fill="#17B432"/>
<path d="M89.4517 42.1718C89.4517 42.1718 86.4021 42.1724 86.6848 37.3306L91.9934 0.152283L110.992 0.152285L112.14 39.0441C111.857 43.8859 108.826 43.4774 108.826 43.4774L99.1387 42.8246L89.4517 42.1718Z" fill="#31E450"/>
<path d="M108.989 44.998C105.959 44.794 98.9822 44.3249 98.9822 44.3249C98.9822 44.3249 92.005 43.8558 88.9751 43.6518C85.9453 43.4478 86.0746 46.4005 86.0746 46.4005L86.9496 74.25C87.1755 81.4509 86.7832 88.6792 85.7931 95.8213L81.1853 128.961C80.9025 133.803 83.9522 133.802 83.9522 133.802L93.6392 134.455L103.326 135.108C103.326 135.108 106.358 135.517 106.64 130.675L105.978 97.1662C105.837 89.9646 106.315 82.7356 107.369 75.6158L111.508 48.1142C111.551 48.1366 112.019 45.202 108.989 44.998Z" fill="#31E450"/>
<path d="M103.548 136.628C100.518 136.424 93.5412 135.955 93.5412 135.955C93.5412 135.955 86.564 135.486 83.5342 135.282C80.5043 135.078 80.6336 138.031 80.6336 138.031L81.5086 165.88C81.7345 173.081 81.3422 180.31 80.3521 187.452L75.7443 220.592C75.4616 225.433 78.5112 225.433 78.5112 225.433L88.1982 226.086L97.8852 226.739C97.8852 226.739 100.917 227.147 101.199 222.305L100.537 188.797C100.396 181.595 100.874 174.366 101.928 167.246L106.089 139.744C106.089 139.744 106.578 136.832 103.548 136.628Z" fill="#31E450"/>
<path d="M88.5844 227.581C88.5844 227.581 95.5616 228.05 98.5915 228.254C101.621 228.458 101.132 231.37 101.132 231.37L96.7219 273.841H76.4945L75.6768 229.657C75.6768 229.657 75.5475 226.704 78.5773 226.908C81.6072 227.112 88.5844 227.581 88.5844 227.581Z" fill="#31E450"/>
<path d="M297.191 40.907C297.191 40.907 293.852 40.9443 294.112 35.9788L299.557 1.01327e-06L320.606 0L322 37.4288C321.74 42.3944 318.417 42.0122 318.417 42.0122L297.191 40.907Z" fill="#31E450"/>
<path d="M318.61 43.5687C315.291 43.3961 307.647 42.9991 307.647 42.9991C307.647 42.9991 300.003 42.6023 296.683 42.4296C293.364 42.257 293.536 45.2816 293.536 45.2816L294.78 73.813C295.102 81.1902 294.746 88.603 293.736 95.9345L289.032 129.954C288.772 134.92 292.111 134.882 292.111 134.882L313.336 135.987C313.336 135.987 316.66 136.37 316.919 131.404L315.849 97.0702C315.621 89.6913 316.07 82.2768 317.151 74.9673L321.4 46.7321C321.447 46.7546 321.93 43.7413 318.61 43.5687Z" fill="#31E450"/>
<path d="M313.593 137.543C310.274 137.37 302.63 136.973 302.63 136.973C302.63 136.973 294.986 136.576 291.666 136.403C288.347 136.231 288.519 139.255 288.519 139.255L289.763 167.787C290.084 175.164 289.729 182.577 288.719 189.908L284.014 223.928C283.755 228.893 287.094 228.856 287.094 228.856L308.319 229.961C308.319 229.961 311.642 230.344 311.902 225.378L310.832 191.044C310.604 183.665 311.053 176.251 312.134 168.941L316.406 140.706C316.406 140.706 316.912 137.715 313.593 137.543Z" fill="#31E450"/>
<path d="M298.146 230.937C298.146 230.937 305.79 231.334 309.11 231.507C312.429 231.68 311.923 234.67 311.923 234.67L307.651 262.905C307.107 266.583 306.723 270.287 306.505 274H285.196C285.428 269.919 285.457 265.83 285.28 261.751L284.035 233.22C284.035 233.22 283.863 230.195 287.183 230.368C290.502 230.54 298.146 230.937 298.146 230.937Z" fill="#31E450"/>
<path d="M181.661 10.818C181.661 10.818 177.304 11.3035 177 4.6961L177.373 0.000243503L212.981 0L213.618 2.97324C213.922 9.58062 209.531 9.50875 209.531 9.50875L181.661 10.818Z" fill="#31E450"/>
<path d="M209.986 11.5439C205.627 11.749 195.59 12.2219 195.59 12.2219C195.59 12.2219 185.554 12.6949 181.195 12.8999C176.837 13.1049 177.453 17.0865 177.453 17.0865L182.773 54.6941C184.148 64.4181 184.644 74.2776 184.273 84.1151L182.534 129.765C182.837 136.372 187.194 135.887 187.194 135.887L215.065 134.577C215.065 134.577 219.455 134.649 219.152 128.042L213.308 82.7303C212.054 72.9918 211.68 63.1179 212.146 53.3003L214.04 15.3673C214.105 15.3908 214.344 11.3389 209.986 11.5439Z" fill="#31E450"/>
<path d="M215.601 136.603C211.242 136.808 201.205 137.281 201.205 137.281C201.205 137.281 191.168 137.754 186.81 137.959C182.451 138.164 183.067 142.146 183.067 142.146L188.388 179.753C189.763 189.477 190.259 199.337 189.888 209.174L188.148 254.824C188.452 261.431 192.809 260.946 192.809 260.946L220.679 259.637C220.679 259.637 225.07 259.708 224.766 253.101L218.922 207.789C217.669 198.051 217.295 188.177 217.761 178.359L219.685 140.423C219.685 140.423 219.959 136.398 215.601 136.603Z" fill="#31E450"/>
<path d="M324.908 206.245C324.908 206.245 329.1 206.954 327.722 213.164L314.279 255.175C311.386 264.185 310.555 264.592 309.329 274H281C284.014 265.012 285.368 258.161 286.715 248.775L292.979 205.086C294.416 198.872 298.494 200.098 298.494 200.098L324.908 206.245Z" fill="#17B432"/>
<path d="M349.844 86.8487L323.292 81.1664C323.292 81.1664 319.192 80.0154 317.856 86.2379L312.281 129.892C311.912 132.687 311.45 135.478 310.95 138.249C310.295 137.564 309.595 136.83 308.842 136.018C306.695 133.643 304.238 130.827 301.78 127.672C300.537 126.098 299.298 124.43 298.109 122.718C296.863 121.021 288.841 107.896 287.665 106.118C286.509 104.303 285.547 102.404 284.485 100.593C283.56 98.7146 282.634 96.8358 281.848 95.0112C281.591 94.3088 281.312 93.6431 281.063 92.9695C289.36 93.1703 319.142 54.6747 319.142 54.6747C319.142 54.6747 284.268 79.3235 279.749 89.2483C279.357 87.8403 278.973 86.461 278.622 85.1966C285.43 81.3842 281.697 31 281.697 31C281.697 31 269.794 83.5335 277.387 85.3233C277.606 86.7793 277.878 88.3135 278.153 89.9707C278.271 90.6188 278.447 91.251 278.623 91.8832C269.842 83.1486 233 68.6558 233 68.6558C233 68.6558 273.981 101.254 279.87 96.3659C280.46 98.1523 281.108 99.9227 281.75 101.787C282.642 103.768 283.443 105.867 284.422 107.824C285.437 109.802 293.268 123.135 294.374 124.994C295.431 126.899 296.508 128.766 297.619 130.532C299.783 134.078 302.032 137.261 303.993 139.966C306.003 142.627 307.705 144.847 308.99 146.348C309.043 146.426 309.116 146.467 309.177 146.574C308.282 150.26 307.321 153.932 306.155 157.538L295.071 192.414C295.071 192.414 293.835 196.101 297.986 196.99C302.137 197.879 311.692 199.929 311.692 199.929C311.692 199.929 321.246 201.978 325.397 202.867C329.548 203.756 329.961 199.895 329.961 199.895L334.164 163.558C335.236 154.158 337.201 144.851 339.946 135.791L352.739 93.6905C354.075 87.468 349.844 86.8487 349.844 86.8487Z" fill="#17B432"/>
<path fill-rule="evenodd" clip-rule="evenodd" d="M127.222 0.1521C127.439 4.78968 127.387 9.4431 127.069 14.0819L124.803 47.6335C124.882 52.5028 128.138 52.2435 128.138 52.2435L138.532 52.075L148.925 51.9066C148.925 51.9066 152.194 52.0582 152.115 47.1888L148.771 13.7115C148.323 9.21153 148.132 4.68029 148.19 0.1521H127.222Z" fill="#17B432"/>
<path fill-rule="evenodd" clip-rule="evenodd" d="M141.796 237.865C141.796 237.865 149.283 237.742 152.533 237.689C155.784 237.637 155.491 240.592 155.491 240.592L153.213 268.467C153.073 270.256 152.971 272.047 152.908 273.841H131.76C131.643 272.168 131.491 270.498 131.304 268.833L128.179 241.037C128.179 241.037 127.808 238.093 131.059 238.04C134.31 237.987 141.796 237.865 141.796 237.865Z" fill="#17B432"/>
<path d="M213.188 55.0107C213.188 55.0107 210.536 55.6804 209.722 51.3888L206.437 21.4377C205.734 14.9814 203.773 6.24082 202 0L220.941 0.000192873C221.583 6.45108 222.627 11.9141 224.326 18.1742L232.239 47.3006C233.054 51.5922 230.327 51.9005 230.327 51.9005L213.188 55.0107Z" fill="#17B432"/>
<path d="M230.803 53.193C228.123 53.6795 221.951 54.8005 221.951 54.8005C221.951 54.8005 215.779 55.9216 213.099 56.4082C210.419 56.8947 211.178 59.4458 211.178 59.4458L218.036 83.5819C219.81 89.8227 221.051 96.2232 221.753 102.679L225.001 132.64C225.815 136.932 228.468 136.262 228.468 136.262L245.607 133.152C245.607 133.152 248.333 132.844 247.519 128.552L239.606 99.4256C237.907 93.1655 236.74 86.7458 236.098 80.2949L233.677 55.3625C233.719 55.3726 233.484 52.7064 230.803 53.193Z" fill="#17B432"/>
<path d="M246.13 134.432C243.45 134.918 237.278 136.039 237.278 136.039C237.278 136.039 231.106 137.16 228.426 137.647C225.746 138.133 226.505 140.684 226.505 140.684L233.363 164.821C235.136 171.061 236.378 177.462 237.08 183.918L240.328 213.879C241.142 218.17 243.795 217.501 243.795 217.501L260.934 214.391C260.934 214.391 263.66 214.082 262.846 209.791L254.933 180.664C253.234 174.404 252.066 167.984 251.425 161.534L249.022 136.596C249.022 136.596 248.811 133.945 246.13 134.432Z" fill="#17B432"/>
<path d="M253.029 217.167C253.029 217.167 259.201 216.046 261.881 215.56C264.561 215.073 264.773 217.724 264.773 217.724L267.175 242.662C267.817 249.113 268.984 255.532 270.683 261.792L274 274H253.802L252.831 265.046C252.129 258.59 250.887 252.189 249.114 245.949L242.255 221.812C242.255 221.812 241.496 219.261 244.177 218.775C246.857 218.288 253.029 217.167 253.029 217.167Z" fill="#17B432"/>
<path fill-rule="evenodd" clip-rule="evenodd" d="M343.077 0.1521L341.257 11.0838C339.69 20.4276 337.288 29.6654 334.095 38.5898L321.689 73.0806C321.689 73.0806 320.316 76.7469 324.456 77.7843C328.596 78.8217 338.086 81.233 338.086 81.233C338.086 81.233 347.577 83.6443 351.716 84.6817C355.856 85.7191 356.4 81.8573 356.4 81.8573L361.978 45.6115C363.426 36.2611 365.709 26.9869 368.815 18.0277L375 0.1521H343.077Z" fill="#17B432"/>
</g>
<defs>
<clipPath id="clip0">
<rect width="375" height="250" fill="white"/>
</clipPath>
</defs>
</svg>
