<svg width="375" height="250" viewBox="0 0 375 250" fill="none" xmlns="http://www.w3.org/2000/svg">
<g clip-path="url(#clip0)">
<rect width="375" height="250" fill="white"/>
<path fill-rule="evenodd" clip-rule="evenodd" d="M-1.10133 -115.398C-1.13483 -115.12 -0.884308 -114.858 -0.543889 -114.817C-0.203469 -114.775 2.48919 -110.214 5.43958 -104.682C12.5366 -91.3749 26.4391 -68.2076 30.8533 -62.3319C31.2778 -61.7664 34.9994 -56.429 39.1222 -50.4708C49.3443 -35.699 59.8774 -22.038 69.554 -11.0027C74.0104 -5.92089 79.6819 0.665744 82.1575 3.63454C84.6332 6.60267 90.175 12.8473 94.4733 17.5111C98.7709 22.1749 102.705 26.5034 103.214 27.1299C104.174 28.3102 106.968 31.3946 113.663 38.6675C115.809 40.999 117.247 42.9784 116.86 43.0661C116.472 43.1538 115.436 42.3813 114.559 41.3486C113.68 40.3164 110.745 37.538 108.036 35.1741C105.326 32.8103 102.827 30.6001 102.481 30.2616C100.156 27.9874 95.0832 23.4294 86.4298 15.8392C80.9464 11.0298 73.3335 4.24976 69.5121 0.772447C65.6907 -2.70486 61.9593 -6.08565 61.22 -6.74045C50.0849 -16.6035 22.0463 -44.3016 11.0803 -56.2712C8.72958 -58.8364 6.01371 -61.7937 5.04506 -62.843C4.07575 -63.8925 1.44993 -66.7697 -0.790416 -69.2365C-3.03077 -71.7034 -5.18774 -73.5735 -5.58301 -73.3917C-6.01303 -73.1943 -6.86739 -68.4629 -7.70622 -61.6358C-9.08296 -50.4307 -9.08252 -50.1948 -7.6738 -49.3689C-6.88421 -48.9062 -4.55992 -47.1447 -2.50941 -45.4552C2.49008 -41.3355 17.8665 -29.1569 18.1059 -29.1275C18.2103 -29.1146 20.5554 -27.2884 23.3168 -25.0693C26.0782 -22.8501 28.4887 -21.0159 28.6734 -20.9932C28.8581 -20.9705 30.483 -19.7434 32.2852 -18.2662C34.0868 -16.7898 42.3463 -10.6604 50.6399 -4.64707C58.9334 1.3669 67.2662 7.47867 69.1573 8.93396C71.0484 10.3893 75.7186 13.7309 79.5354 16.36C90.6534 24.0185 111.304 39.3853 110.656 39.5183C110.17 39.6178 100.119 33.7941 79.5863 21.515C78.1839 20.6762 75.7456 19.2193 74.1678 18.277C72.5899 17.3352 68.4235 14.9065 64.909 12.8799C51.5685 5.18764 42.6832 0.0135491 38.8869 -2.27534C31.8088 -6.54175 16.8297 -15.5106 11.9575 -18.4C8.80036 -20.272 2.66486 -24.0732 -1.67752 -26.8469C-6.0199 -29.6205 -9.99869 -31.7835 -10.5189 -31.654C-11.2466 -31.4734 -11.6251 -29.7514 -12.1566 -24.212L-12.8476 -17.0058L-7.67727 -14.533C-4.83354 -13.1733 0.98164 -10.3793 5.24534 -8.32419C9.50904 -6.26909 14.3204 -4.07697 15.9372 -3.45177C17.554 -2.82723 19.4512 -1.97822 20.1533 -1.56589C21.9038 -0.537328 36.1557 6.20873 52.4864 13.7393C69.1695 21.4321 78.9774 26.092 96.1275 34.4725C103.406 38.0293 111.688 42.0479 114.532 43.4022C120.851 46.4119 119.37 46.8048 112.316 43.9906C103.907 40.6353 79.8185 31.4207 68.9414 27.3985C52.6559 21.3767 46.661 19.1321 29.6905 12.7035C20.88 9.36578 9.10639 4.94422 3.52676 2.8785C-2.05286 0.812787 -8.21366 -1.48497 -10.1644 -2.22641C-12.1151 -2.96852 -13.98 -3.45127 -14.3092 -3.30031C-14.6385 -3.14868 -15.2726 -0.0540606 -15.7188 3.5777L-16.5301 10.1806L-13.3848 11.0353C-11.6552 11.5048 -6.95917 12.7593 -2.94988 13.822C6.96518 16.4511 6.78851 16.4021 14.2549 18.5944C25.4092 21.8693 41.5585 26.3821 51.3023 28.9458C56.4062 30.2893 65.3403 32.7604 71.1558 34.4374C80.6637 37.1785 84.0216 38.1236 92.9824 40.5781C94.4388 40.9765 96.0315 41.4969 96.5217 41.7342C97.0119 41.9714 100.275 42.9821 103.773 43.9813C115.956 47.4613 122.092 49.6227 123.577 50.9584L125.071 52.302L123.051 52.0388C121.94 51.894 116.838 50.8133 111.713 49.6368C106.589 48.4603 95.7937 46.1003 87.7239 44.3917C79.6541 42.6831 72.4649 41.0479 71.7478 40.7574C71.0307 40.4677 65.6317 39.2991 59.7499 38.1608C53.8681 37.0232 45.7521 35.4122 41.7143 34.5818C37.6766 33.7507 27.4533 31.7474 18.9961 30.1287C10.5389 28.5105 0.925472 26.5562 -2.36696 25.7853C-5.65939 25.0144 -10.5623 24.1071 -13.2626 23.7685L-18.1719 23.153L-18.8278 30.0791L-19.4838 37.0053L42.8534 44.8033C77.1388 49.0924 110.117 53.4089 116.139 54.3955C126.267 56.0549 127.208 56.3222 128.702 57.9639C129.59 58.9391 130.147 59.8573 129.941 60.0042C129.735 60.1505 116.308 59.1631 100.103 57.8099C62.6292 54.6808 48.4299 53.6382 37.3733 53.2053C32.5042 53.0144 26.2251 52.7426 23.4198 52.6017C20.6146 52.46 15.1005 52.2276 11.1665 52.0839C7.23256 51.9396 -1.32642 51.6229 -7.85381 51.3787C-14.3811 51.1338 -20.1427 51.0391 -20.658 51.1672C-21.354 51.3407 -21.8183 53.221 -22.466 58.4925C-23.4877 66.8079 -24.5061 66.0853 -12.6351 65.4706C2.01404 64.7118 17.3245 64.307 30.5324 64.3289C33.3209 64.3331 39.8814 64.297 49.7052 64.2216C57.6303 64.1618 76.6211 64.3329 90.0326 64.5862C96.4157 64.7068 102.116 64.6744 102.7 64.5151C103.284 64.3558 104.216 64.2905 104.771 64.3696C105.661 64.4968 117.221 64.9279 126.909 65.194C128.784 65.246 130.84 65.1951 131.476 65.0805C132.732 64.8555 135.379 68.8925 134.608 69.8545C134.025 70.58 129.463 70.8056 108.386 71.1519C101.194 71.2704 94.533 71.5253 76.0726 72.3893C56.8352 73.2898 51.7407 73.5744 47.4792 73.9852C45.0035 74.2245 40.4916 74.6073 37.4526 74.8369C22.7942 75.9438 19.0383 76.2555 13.2564 76.8439C-0.865812 78.282 -7.99309 79.0885 -16.4088 80.201L-25.2773 81.3734L-26.2055 88.9278C-26.716 93.0828 -26.8882 96.6785 -26.5886 96.919C-26.289 97.1589 -19.4559 96.0509 -11.4031 94.4563C-3.35104 92.8617 6.69237 91.0045 10.9153 90.3285C15.1381 89.6531 20.008 88.8631 21.7372 88.5731C23.4663 88.2838 28.0148 87.6033 31.845 87.0608C35.6751 86.5184 40.3766 85.8464 42.2926 85.5671C48.2102 84.7042 54.4744 83.9884 62.766 83.2285C67.1433 82.8277 72.5946 82.3176 74.8801 82.0953C77.1655 81.873 81.9915 81.4399 85.6047 81.1319C89.2178 80.8246 95.9127 80.2178 100.482 79.7846C105.052 79.3507 110.814 78.8119 113.288 78.5874C115.762 78.3623 121.371 77.8237 125.752 77.39C137.24 76.253 137.488 76.293 138.73 79.5116C139.301 80.9892 139.582 82.3431 139.355 82.5209C139.127 82.698 135.548 83.1989 131.402 83.6341C125.004 84.3048 115.358 85.4855 98.1406 87.7034C96.2286 87.9497 91.683 88.6066 88.0394 89.1624C84.3957 89.7189 79.6546 90.3846 77.5031 90.6425C75.3522 90.9005 72.3662 91.3943 70.8676 91.7399C68.186 92.3579 63.4454 93.1816 53.1302 94.8228C46.1001 95.9408 18.6047 101.576 17.6817 102.088C17.2778 102.312 16.1617 102.625 15.2014 102.783C12.166 103.284 -13.1757 109.986 -18.7469 111.761C-21.6846 112.698 -25.2798 113.828 -26.736 114.274L-29.3838 115.085L-30.5342 124.303C-31.1666 129.372 -31.4731 133.682 -31.2155 133.88C-30.9572 134.078 -28.6261 133.273 -26.0346 132.091C-23.4431 130.909 -19.5741 129.264 -17.4358 128.435C-15.2983 127.607 -13.1857 126.702 -12.7411 126.425C-11.0805 125.391 11.3207 117.599 20.5625 114.841C39.1294 109.302 57.3976 104.667 70.3561 102.208C92.847 97.9404 104.077 95.9118 124.241 92.4723C126.932 92.0133 131.455 91.1992 134.293 90.6625C141.758 89.2509 141.736 89.242 141.905 93.8728C142.021 97.048 142.693 96.7498 130.639 98.8781C114.458 101.736 92.2546 106.448 89.1859 107.677C88.1963 108.073 86.4502 108.501 85.3055 108.629C84.1608 108.756 82.2629 109.165 81.0881 109.538C79.9133 109.91 75.2913 111.189 70.8169 112.38C66.3426 113.571 61.7224 114.834 60.55 115.188C59.3774 115.542 54.5847 116.957 49.8995 118.332C40.1371 121.199 23.4919 127.238 11.9322 132.108C-1.0043 137.557 -21.0098 148.044 -28.217 153.155C-29.9043 154.352 -32.0111 155.604 -32.8991 155.937C-34.5047 156.54 -34.524 156.631 -36.4654 172.515C-37.5385 181.299 -38.2184 188.904 -37.9759 189.415C-37.666 190.067 -37.0549 189.632 -35.9254 187.958C-30.5505 179.988 -20.8021 170.23 -10.5159 162.52C4.87648 150.984 18.1079 143.669 40.9629 134.06C50.6871 129.972 71.5782 122.363 72.6992 122.501C72.8374 122.518 74.8024 121.946 77.065 121.23C87.619 117.89 105.855 113.148 123.209 109.229C125.725 108.66 130.932 107.475 134.78 106.595C138.628 105.714 141.955 105.25 142.174 105.564C142.392 105.878 142.574 107.52 142.577 109.212L142.584 112.289L133.629 114.546C120.517 117.852 111.788 120.253 106.942 121.889C104.586 122.684 101.068 123.745 99.1247 124.248C96.0787 125.035 74.0037 132.579 70.9113 133.888C70.3158 134.141 65.6162 136.052 60.4677 138.134C50.7159 142.079 35.0851 149.953 26.1851 155.403C18.5244 160.095 5.28109 170.53 -0.087874 176.106C-6.80198 183.079 -12.7092 192.401 -14.9609 199.577C-20.8251 218.267 -11.6169 233.539 10.9532 242.555C16.3258 244.702 19.0007 245.314 29.6625 246.839C45.1479 249.053 52.9955 249.24 65.807 247.698C79.2659 246.079 91.1316 243.313 104.921 238.58C118.264 234.003 127.753 229.472 143.055 220.375C148.097 217.378 166.85 202.019 171.747 196.877C183.791 184.229 192.639 171.805 201.067 155.704C202.546 152.878 204.313 149.558 204.993 148.326C205.673 147.093 208.619 141.457 211.541 135.8C224.964 109.809 233.484 96.9984 246.008 83.9808C251.709 78.054 263.062 68.4882 266.892 66.383C268.189 65.6701 266.831 67.0687 263.873 69.4902C258.631 73.783 253.401 78.9611 250.5 82.7308C249.709 83.7568 247.441 86.6506 245.459 89.1606C235.849 101.332 228.745 113.664 221.435 130.863C216.428 142.643 216.521 142.416 211.692 154.552C209.21 160.79 206.122 168.101 204.83 170.798C188.053 205.843 166.309 228.175 130.955 246.675C116.927 254.015 94.979 261.442 75.9802 265.279C36.4662 273.26 -5.89651 267.379 -28.0646 250.835C-33.2037 247 -39.8201 239.672 -41.5672 235.881C-42.4553 233.953 -42.9357 233.502 -43.4435 234.121C-43.8193 234.578 -45.3097 244.548 -46.757 256.277L-49.3872 277.601L-43.4011 280.395C-28.1394 287.521 -18.433 290.067 3.83149 292.782C15.7602 294.238 23.3338 294.822 29.7459 294.78C39.2033 294.718 58.5577 293.105 65.1914 291.826C67.3116 291.418 70.7791 290.764 72.897 290.373C83.3082 288.452 94.1582 285.36 109.416 279.965C128.922 273.067 145.494 264.269 160.917 252.626C176.36 240.966 186.45 230.44 196.088 215.932C200.987 208.558 201.945 206.863 206.571 197.396C211.018 188.296 216.82 171.063 219.832 158.01C223.825 140.71 233.832 110.17 235.444 110.368C236.124 110.452 236.049 110.908 234.662 115.135C232.629 121.329 230.817 130.253 228.719 144.405C220.843 197.524 219.395 204.043 211.579 221.595C204.112 238.359 192.221 255.351 179.862 266.916C150.079 294.787 109.45 313.958 60.0029 323.473C56.4188 324.164 55.1611 324.654 55.9292 325.063C56.5408 325.387 75.08 327.87 97.127 330.578L137.213 335.504L148.096 328.809C183.74 306.882 207.718 280.462 221.354 248.089C224.59 240.406 228.57 224.716 230.012 213.948C230.534 210.058 231.261 196.195 231.223 190.855C231.218 190.102 231.235 185.035 231.261 179.595C231.287 174.154 231.196 169.46 231.059 169.162C230.707 168.398 230.825 152.266 231.201 149.837L231.512 147.824L231.836 149.915C232.015 151.065 232.549 154.975 233.022 158.605C233.496 162.235 234.621 169.602 235.522 174.977C241.033 207.837 241.382 210.643 242.51 231.206C242.922 238.71 239.634 263.447 237.147 271.562C229.628 296.094 216.265 319.084 198.764 337.597C196.851 339.62 195.249 341.578 195.204 341.947C195.15 342.381 203.545 343.654 218.912 345.542L242.702 348.465L245.244 342.796C246.642 339.678 248.331 335.502 248.997 333.516C249.663 331.53 250.537 329.33 250.94 328.628C251.343 327.925 252.905 323.041 254.411 317.775C256.659 309.917 257.476 305.542 258.963 293.383C259.959 285.234 260.674 277.478 260.55 276.147C260.427 274.816 260.296 271.503 260.259 268.786C260.051 253.166 256.168 232.071 249.44 210.014C248.219 206.012 246.984 202.169 246.693 201.473C245.339 198.225 239.185 178.954 239.438 178.756C239.834 178.447 241.881 182.139 245.714 190.074C247.501 193.773 250.931 200.819 253.339 205.732C264.431 228.372 268.707 237.969 272.903 249.637C274.388 253.768 275.792 257.478 276.022 257.882C276.253 258.286 277.127 261.008 277.964 263.931C278.802 266.854 279.693 269.885 279.945 270.668C280.883 273.587 283.887 287.77 284.851 293.83C287.756 312.092 288.182 324.056 286.726 346.525L286.254 353.816L306.749 356.334C318.021 357.719 327.257 358.749 327.272 358.623C327.324 358.2 323.485 339.609 323.049 338.171C322.812 337.39 321.598 333.088 320.352 328.611C317.655 318.928 309.309 295.904 305.179 286.757C300.233 275.803 289.884 256.347 283.977 246.896C282.831 245.064 281.399 242.735 280.794 241.72C278.004 237.045 266.123 218.923 260.323 210.494C252.161 198.634 252.002 198.375 253.372 199.102C253.995 199.434 254.468 199.326 254.528 198.838C254.592 198.32 255.174 198.225 256.099 198.583C259.666 199.962 273.676 204.725 277.282 205.783C279.461 206.424 283.315 207.643 285.845 208.493C288.375 209.343 295.202 211.414 301.017 213.094C306.833 214.775 315.744 217.434 320.819 219.005C325.895 220.577 333.648 222.872 338.047 224.108C342.446 225.343 347.646 226.88 349.602 227.521C351.559 228.164 355.544 229.329 358.458 230.112C361.373 230.896 364.352 231.713 365.078 231.93C372.905 234.263 384.274 237.48 387.065 238.152L390.555 238.992L391.382 232.255L392.21 225.519L385.695 224.24C382.112 223.537 377.68 222.644 375.846 222.257C374.012 221.869 368.455 220.732 363.498 219.729C358.54 218.727 351.032 217.183 346.812 216.298C342.593 215.412 333.736 213.57 327.129 212.204C320.523 210.838 313.618 209.393 311.786 208.992C309.953 208.591 302.597 207.06 295.439 205.588C282.467 202.921 278.887 202.122 275.126 201.057C274.035 200.747 268.499 199.437 262.824 198.145C252.836 195.871 249.828 194.574 249.377 192.348C249.292 191.929 254.092 192.592 262.119 194.107C280.532 197.583 324.924 204.029 361.956 208.605L393.805 212.54L394.618 205.918C395.066 202.275 395.305 199.133 395.149 198.934C394.993 198.735 392.633 198.526 389.903 198.471C387.173 198.415 376.386 197.816 365.931 197.138C355.476 196.462 344.933 195.809 342.502 195.689C334.436 195.291 287.959 191.591 259.574 189.087L246.12 187.9L245.054 186.139C244.467 185.17 244.015 184.152 244.049 183.877C244.083 183.601 245.707 183.541 247.658 183.742C250.72 184.058 258.589 184.378 277.446 184.955C279.883 185.03 282.654 185.037 283.603 184.971C284.552 184.905 290.237 184.995 296.237 185.171C302.237 185.347 310.689 185.473 315.02 185.451C319.351 185.429 324.875 185.471 327.296 185.543C329.717 185.615 331.887 185.588 332.118 185.481C332.348 185.375 335.752 185.348 339.682 185.421C343.611 185.494 348.835 185.493 351.291 185.418C358.373 185.203 369.549 184.972 377.359 184.88C381.317 184.833 387.425 184.618 390.932 184.402L397.31 184.009L398.205 176.725C399.23 168.381 399.52 168.739 392.536 169.738C382.876 171.12 355.434 173.558 338.255 174.561C320.864 175.576 313.345 175.994 309.318 176.166C296.409 176.72 268.978 177.464 256.453 177.601C252.119 177.649 247.326 177.816 245.801 177.973C241.564 178.409 241.098 178.218 239.777 175.504L238.549 172.981L240.448 172.826C241.492 172.742 243.443 172.521 244.783 172.337C246.123 172.153 251.407 171.746 256.527 171.431C274.911 170.304 312.659 166.849 323.656 165.286C325.763 164.987 329.358 164.548 331.645 164.311C336.396 163.819 354.237 161.444 357.384 160.884C358.539 160.679 364.981 159.618 371.702 158.525C378.422 157.433 387.791 155.734 392.523 154.75L401.125 152.96L402.14 144.702C402.941 138.182 402.961 136.419 402.236 136.33C401.731 136.268 399.225 136.872 396.664 137.672C376.238 144.06 345.374 150.995 316.98 155.578C313.524 156.136 309.28 156.846 307.548 157.157C304.706 157.666 302.02 158.064 289.428 159.837C280.315 161.119 260.895 163.558 256.763 163.939C254.289 164.168 248.839 164.71 244.652 165.145C240.466 165.579 236.854 165.912 236.625 165.884C236.397 165.856 235.878 164.547 235.473 162.974C234.754 160.189 234.775 160.105 236.284 159.701C237.804 159.294 245.966 157.915 253.536 156.787C258.235 156.086 271.398 153.874 273.798 153.381C274.764 153.183 278.383 152.548 281.841 151.97C292.496 150.189 307.327 147.266 316.553 145.128C321.396 144.005 327.259 142.648 329.583 142.11C333.597 141.182 339.203 139.687 354.898 135.356C363.718 132.923 385.264 125.423 396.689 120.809L405.505 117.249L406.766 107.02C407.459 101.394 407.804 96.6122 407.532 96.3948C407.26 96.1769 404.85 97.3238 402.175 98.9427C382.723 110.721 355.395 122.48 329.686 130.133C324.998 131.528 319.724 133.103 317.966 133.632C316.207 134.16 314.129 134.783 313.348 135.015C304.809 137.551 283.608 142.42 261.252 146.98C246.203 150.049 233.682 152.534 233.429 152.503C233.177 152.472 232.826 150.838 232.65 148.87C232.335 145.343 232.845 144.274 234.749 144.472C235.918 144.595 262.429 138.508 269.721 136.444C271.475 135.948 277.044 134.481 282.096 133.183C287.148 131.886 292.64 130.393 294.3 129.866C295.961 129.339 297.472 128.927 297.659 128.95C298.011 128.993 306.692 126.161 318.166 122.259C341.425 114.35 365.382 102.856 382.237 91.5191C389.21 86.8293 401.237 77.1563 406.021 72.3896C408.614 69.807 410.903 67.9097 411.109 68.173C411.315 68.4362 413.501 52.237 415.966 32.1752C418.431 12.1126 420.197 -4.3328 419.891 -4.3704C419.585 -4.408 417.811 -5.9529 415.948 -7.80252C412.148 -11.5773 405.511 -16.2995 400.659 -18.6797C398.885 -19.55 396.859 -20.6055 396.157 -21.0239C394.875 -21.7891 388.826 -24.1586 383.538 -25.9663C379.416 -27.3758 365.922 -30.338 360.437 -31.0373C354.985 -31.7332 338.162 -32.4255 333.167 -32.1594C317.903 -31.3477 306.777 -29.8662 292.509 -26.7453C277.963 -23.5635 256.233 -15.5284 242.33 -8.18939C216.947 5.20872 195.154 24.6192 181.623 45.8815C172.058 60.9107 167.002 71.7833 158.871 94.8076C152.245 113.57 143.929 133.183 140.476 138.193C139.825 139.138 139.264 140.122 139.23 140.379C139.094 141.412 133.134 150.619 132.843 150.246C132.671 150.026 133.36 148.294 134.375 146.399C135.391 144.503 136.86 141.339 137.64 139.367C142.099 128.092 145.127 119.634 145.962 116.122C146.483 113.93 147.303 111.251 147.785 110.169C148.268 109.088 149.982 102.377 151.594 95.2568C159.196 61.699 164.216 46.3055 172.491 31.1848C186.308 5.93675 210.077 -16.7506 238.376 -31.7025C242.199 -33.7224 245.66 -35.5735 246.066 -35.8148C247.334 -36.5689 253.84 -39.5217 259.11 -41.7336C278.507 -49.8762 303.441 -56.3549 324.806 -58.8028C359.536 -62.7817 396.211 -58.6331 420.293 -48.0022C422.605 -46.9814 424.754 -46.3857 425.113 -46.6657C425.468 -46.9433 426.11 -50.7254 426.537 -55.0691L427.313 -62.9675L351.995 -72.195L276.676 -81.4218L273.014 -79.8292C271 -78.9536 269.167 -78.26 268.942 -78.2877C268.48 -78.3445 258.195 -74.1121 254.308 -72.2655C236.896 -63.9931 222.853 -55.41 209.17 -44.6773C186.321 -26.7541 171.778 -8.63436 161.928 14.1781C157.573 24.2666 156.539 27.2752 154.491 35.8227C154.053 37.6488 153.127 41.3801 152.432 44.1146C150.684 50.9961 148.612 68.1573 147.106 88.2351C146.383 97.8663 145.418 106.591 144.867 108.468L143.899 111.767L143.807 105.261C143.669 95.4991 143.241 83.6259 142.286 63.0337C140.361 21.5605 144.928 -3.61264 159.148 -29.913C169.785 -49.5848 184.144 -66.2261 205.201 -83.2865C209.056 -86.4092 211.772 -89.0669 211.408 -89.3598C211.051 -89.6457 199.715 -91.0829 186.217 -92.5534L161.673 -95.2272L157.716 -89.2194C146.225 -71.7765 139.582 -57.8198 133.891 -39.1686C130.814 -29.081 127.439 2.17838 128.648 9.40543C128.84 10.557 129.151 14.2866 129.338 17.6933C129.525 21.1 129.836 24.8296 130.029 25.9813C130.223 27.133 130.855 30.9021 131.436 34.3572C132.926 43.2355 137.791 68.2332 138.522 70.7744C139.419 73.8903 139.702 77.22 138.992 76.3008C138.239 75.3265 121.742 29.5164 119.287 21.5853C112.64 0.103038 109.08 -20.3034 108.868 -38.1417C108.672 -54.5342 109.494 -64.0239 112.215 -76.8186C114.682 -88.4195 116.182 -94.4558 117.668 -98.7542L118.404 -100.885L98.4734 -103.334C87.5119 -104.681 78.381 -105.573 78.1824 -105.315C77.2069 -104.047 78.506 -82.6419 80.3669 -69.3287C84.979 -36.332 95.0586 -8.08705 117.106 33.6219C118.912 37.0396 121.337 41.6441 122.494 43.8541C123.65 46.064 125.4 49.2759 126.381 50.9919C130.2 57.6674 127.099 54.0524 117.819 41.0089C112.491 33.5197 107.125 25.8844 105.896 24.0415C104.666 22.1985 101.149 17.1521 98.0794 12.8273C90.0817 1.56005 78.6695 -16.6741 72.5864 -27.9023C58.0337 -54.7664 47.6883 -79.8906 41.0118 -104.584C40.2761 -107.306 39.5265 -109.765 39.3465 -110.049C38.9005 -110.752 -1.02414 -116.032 -1.10133 -115.398ZM362.422 -5.42479C363.304 -4.94119 366.387 -3.71953 369.273 -2.70996C382.806 2.02338 393.695 11.993 397.757 23.3666C400.539 31.1581 398.783 43.841 393.576 53.5773C384.427 70.6798 362.833 88.6231 333.66 103.363C322.183 109.162 297.17 119.082 285.105 122.619C282.177 123.477 278.502 124.564 276.939 125.033C262.034 129.51 237.302 136.129 234.001 136.525C232.297 136.729 232.121 136.541 231.983 134.363C231.692 129.78 232.282 129.027 237.278 127.599C239.814 126.874 247.312 124.741 253.941 122.86C275.337 116.787 301.091 107.004 316.746 99.003C343.131 85.5195 359.942 71.4619 368.964 55.3385C371.173 51.3908 371.583 49.9858 372.431 43.4599C373.364 36.2697 373.341 35.9292 371.612 31.5188C370.632 29.0223 368.661 25.665 367.232 24.0587C364.212 20.6655 357.194 15.6375 353.474 14.2015C352.056 13.654 349.755 12.7642 348.36 12.2244C340.928 9.34455 322.686 7.60153 311.758 8.72728C278.582 12.1438 251.001 22.8404 225.8 42.066C206.171 57.0405 192.048 73.7123 176.927 99.7604C173.566 105.551 169.896 111.8 168.773 113.647C167.65 115.494 166.715 117.139 166.695 117.302C166.531 118.636 151.265 141.876 146.745 147.673C128.922 170.532 103.82 188.337 86.3387 190.519C81.611 191.109 79.7308 190.2 80.0644 187.485C80.671 182.548 88.8941 176.086 104.635 168.177C113.005 163.972 125.272 158.747 125.649 159.228C125.787 159.406 124.089 161.687 121.875 164.297C118.311 168.497 117.008 169.458 110.521 172.674C95.2747 180.232 85.694 189.796 99.0919 184.083C104.488 181.781 117.299 172.233 124.163 165.396C137.184 152.426 148.949 135.302 158.363 115.621C176.201 78.3289 183.898 65.056 195.854 50.9693C209.958 34.352 229.272 19.4952 250.585 8.86802C258.6 4.87153 269.789 0.578677 278.86 -1.9798C297.805 -7.32328 313.493 -9.6278 331.82 -9.75964C337.331 -9.79898 360.407 -6.53025 362.422 -5.42479ZM335.068 26.5701C346.234 30.6915 351.413 37.6824 350.55 47.4733C349.934 54.4653 346.576 60.4894 338.545 69.0092C323.747 84.7066 297.185 99.3612 261.86 111.316C248.636 115.792 247.339 116.208 240.666 118.127L234.814 119.809L235.046 117.984C235.173 116.979 235.599 115.066 235.992 113.732C236.705 111.311 236.738 111.294 251.817 106C267.529 100.484 276.141 97.0853 280.026 94.8672C281.278 94.1523 282.524 93.5944 282.795 93.6276C283.432 93.7059 293.693 88.3298 300.773 84.2087C311.951 77.7024 323.277 67.7724 328.014 60.3251C333.829 51.1849 332.217 42.939 323.755 38.534C318.537 35.8176 307.221 34.5427 298.329 35.6683C268.782 39.4091 236.64 58.4197 212.126 86.6537C204.803 95.0877 199.524 102.306 185.518 123.033C179.655 131.711 174.53 139.234 174.132 139.749C173.733 140.264 171.869 142.803 169.989 145.392C161.826 156.631 148.101 171.002 137.696 179.206C126.188 188.28 108.038 198.048 94.9506 202.212C82.3463 206.221 73.0203 207.391 63.2107 206.192C55.1559 205.208 52.8103 204.16 50.1314 200.351C48.3349 197.797 48.1099 196.944 48.4667 194.04C50.0661 181.023 70.9225 164.623 102.926 151.218C110.269 148.142 134.477 139.662 135.541 139.792C136.038 139.853 135.603 141.389 134.29 144.208L132.277 148.53L123.568 151.758C97.7716 161.319 79.6884 171.437 69.9752 181.745C63.9761 188.112 63.2627 193.467 67.9963 196.604C70.8854 198.518 74.4768 198.911 81.1986 198.047C94.9133 196.283 112.654 187.782 128.843 175.217C145.73 162.11 156.344 149.724 174.702 121.704C180.858 112.309 186.5 103.62 187.242 102.395C190.08 97.7077 198.773 86.1793 205.545 78.1212C231.433 47.3175 270.318 26.4976 307.547 23.5059C315.14 22.8953 329.42 24.4858 335.068 26.5701ZM310.396 47.4014C313.702 49.2841 314.606 51.7284 313.61 56.0793C311.324 66.0537 293.254 80.0174 268.95 90.5888C266.62 91.6021 263.705 92.8756 262.471 93.4185C257.359 95.6683 241.001 101.546 240.749 101.224C240.599 101.031 241.611 98.9061 243 96.5003L245.523 92.1263L254.958 88.158C277.41 78.714 291.555 69.9643 296.902 62.2125C299.593 58.3103 299.756 57.1299 297.919 54.7817C296.11 52.4684 293.761 52.1285 287.974 53.3438C275.743 55.9111 265.901 60.8424 252.145 71.2962C233.394 85.5455 221.804 100.227 197.712 140.253C184.258 162.605 176.321 173.015 162.207 186.818C156.082 192.809 143.776 202.356 135.792 207.312C99.1509 230.055 49.5383 238.165 24.0165 225.582C15.944 221.601 11.6393 217.061 9.12735 209.877C7.92367 206.435 7.90643 205.612 8.91689 199.939C10.2743 192.316 12.8445 187.381 19.6545 179.322C27.4109 170.143 43.8816 158.283 60.6575 149.8C66.3142 146.939 83.7976 139.368 89.2976 137.398C90.4787 136.975 94.9879 135.361 99.3181 133.812C103.648 132.263 109.262 130.432 111.793 129.743C114.324 129.055 117.034 128.296 117.816 128.057C127.786 125.004 141.124 121.356 141.334 121.623C141.481 121.811 141.183 123.623 140.673 125.65L139.745 129.334L134.666 130.92C124.365 134.134 94.3428 145.011 88.3752 147.691C57.2988 161.642 36.8905 177.285 31.2712 191.459C27.3878 201.256 30.424 208.763 40.5048 214.287C43.3731 215.859 45.7221 216.472 53.1017 217.578C60.916 218.748 63.2284 218.83 69.7942 218.165C80.4416 217.089 88.549 215.279 99.3445 211.566C122.405 203.636 141.701 191.059 162.442 170.441C170.165 162.764 177.558 152.903 193.874 128.518C201.888 116.54 211.068 103.415 214.274 99.3514C238.729 68.3497 269.665 48.3188 297.679 45.3467C300.797 45.0162 308.349 46.236 310.396 47.4014ZM285.118 61.2506C284.818 63.6911 274.105 71.3339 264.093 76.2506C259.163 78.6718 254.999 80.485 254.838 80.2807C253.998 79.2047 266.164 68.7094 271.862 65.5958C273.659 64.6148 275.02 63.4162 274.897 62.9239C274.764 62.3908 275.912 61.6282 277.748 61.0307C283.783 59.0652 285.381 59.1132 285.118 61.2506ZM256.203 201.908C257.359 203.223 260.186 206.529 262.486 209.254C270.051 218.22 271.964 220.431 280.162 229.677C289.826 240.576 319.035 277.679 325.502 287.27C335.712 302.41 342.252 312.956 350.076 326.897C357.346 339.85 367.962 361.613 367.77 363.172C367.726 363.529 369.359 364.027 371.398 364.277L375.105 364.733L377.601 344.418C378.974 333.245 379.878 324.275 379.61 324.484C379.342 324.693 376.268 321.515 372.779 317.422C347.897 288.226 321.053 260.698 290.675 233.223C276.254 220.179 263.946 208.808 263.044 207.695C261.809 206.17 263.342 206.529 265.097 208.176C265.904 208.933 267.267 210.078 268.127 210.721C289.187 226.475 325.067 253.23 328.299 255.589C329.853 256.724 331.535 258.076 332.036 258.594C332.536 259.113 334.644 260.757 336.719 262.249C338.794 263.741 342.173 266.31 344.228 267.96C358.022 279.029 374.101 292.125 377.507 295.063C379.719 296.972 381.908 298.58 382.371 298.635C383.003 298.712 383.493 296.469 384.331 289.646C384.945 284.646 385.18 280.522 384.851 280.482C384.523 280.442 379.506 277.37 373.704 273.656C367.902 269.941 361.797 266.086 360.138 265.087C358.478 264.089 356.266 262.711 355.221 262.027C354.176 261.342 349.594 258.537 345.039 255.793C340.484 253.048 334.326 249.279 331.356 247.416C326.632 244.452 319.311 240.028 313.202 236.446C312.149 235.829 309.333 234.136 306.945 232.684C304.557 231.232 302.484 230.03 302.338 230.012C302.083 229.981 295.862 226.187 288.672 221.678C286.751 220.472 282.133 217.655 278.411 215.417C274.689 213.18 269.822 210.188 267.595 208.768C265.369 207.35 262.734 205.91 261.741 205.57C260.748 205.23 259.972 204.649 260.018 204.279C260.106 203.565 263.248 204.496 264.309 205.552C264.645 205.885 265.215 206.257 265.576 206.379C266.417 206.661 268.844 207.884 271.698 209.462C272.931 210.145 279.608 213.441 286.536 216.787C293.464 220.133 301.888 224.252 305.256 225.939C308.624 227.627 314.146 230.299 317.527 231.878C320.908 233.457 324.247 235.103 324.947 235.537C325.646 235.97 332.765 239.43 340.767 243.225C348.768 247.02 359.086 252.014 363.695 254.323C368.304 256.632 373.383 259.15 374.982 259.918C376.581 260.687 379.703 262.288 381.92 263.476C384.136 264.664 386.266 265.49 386.655 265.311C387.043 265.133 387.725 262.023 388.17 258.4L388.979 251.814L379.01 248.023C373.526 245.938 367.575 243.632 365.783 242.899C363.991 242.164 358.244 240.071 353.011 238.245C347.779 236.419 342.62 234.545 341.548 234.08C339.637 233.253 325.443 227.786 315.741 224.141C309.182 221.677 281.473 210.822 274.938 208.156C272.07 206.987 267.231 205.022 264.183 203.79C261.136 202.559 257.829 201.11 256.836 200.571C254.05 199.058 253.927 199.317 256.203 201.908Z" fill="#090909"/>
</g>
<defs>
<clipPath id="clip0">
<rect width="375" height="250" fill="white"/>
</clipPath>
</defs>
</svg>
