<svg width="1024" height="320" viewBox="0 0 1024 320" fill="none" xmlns="http://www.w3.org/2000/svg">
<g clip-path="url(#clip0)">
<rect width="1024" height="320" fill="#0076FF"/>
<path opacity="0.1" d="M786.5 -16L525.5 162.5L878.5 -16H786.5Z" fill="white"/>
<path opacity="0.1" d="M208.07 -16L497 146L107 -16H208.07Z" fill="white"/>
<path opacity="0.1" d="M305 -17L535.239 151.518L379 -17H305Z" fill="white"/>
<path opacity="0.1" d="M451 -17L535.239 151.518L550 -17H451Z" fill="white"/>
<path opacity="0.1" d="M619 -17L535.239 149.807L696 -17H619Z" fill="white"/>
<path opacity="0.1" d="M1022 -7L523 168L1022 101.213V-7Z" fill="white"/>
<path opacity="0.1" d="M0 4L535 174H0V4Z" fill="white"/>
<circle cx="524.737" cy="161.737" r="78.7372" fill="white"/>
<path d="M485.54 181.867L439.927 153.546L408.663 130.889L395.338 133.979H379.45L369.2 126.255L325.636 101.538L316.411 100.508L312.31 107.717L289.247 126.255L248.759 96.3885L239.021 102.568L207.758 100.508L190.845 88.6645L162.816 100.508L133.849 92.1419L116.868 68.5765H98.8883L87.4013 78.1029L53.4396 68.5765L42.4521 55.0389L20.4769 59.5515L0 41V331.807H190.845V332.393H832V248.293L485.54 181.867Z" fill="#0B6EE1"/>
<path d="M847.356 165.057L784.965 151.771L745.261 133.376L699.885 101.184L667.272 96.0743L654.037 101.184L626.15 123.667L602.989 143.085L576.52 153.815L501.84 203.38L403.998 230.463L336.407 256.523H257V332.393H847.356L1024 332.393V143.085L1010.2 165.057L985.371 169.757L938.005 151.771L894.778 165.057H847.356Z" fill="#0360CD"/>
<path d="M832 294.342L721.495 278.557L653.453 253.13L625.827 235.839L584.388 225.667L555.738 211.428L539.879 207.868L532.205 215.496L516.346 216.513C513.105 220.243 505.193 227.498 499.463 226.685C493.733 225.871 483.433 234.482 478.999 238.89L473.883 235.839H457.001L429.886 224.65H411.98L378.215 232.279H359.286L293.29 201.257C281.182 200.579 255.534 198.816 249.805 197.188C244.075 195.561 224.225 193.12 215.016 192.103L190.459 171.76L129.432 187.061L108.942 165.07L76.4595 171.76L64.9656 157.074L35.981 149.077L0 110.093V333H190.459L190.5 333H832H1024L1024 253.13L1007 261.798L971.5 264.301L938 287.833L881 282.326L832 294.342Z" fill="#0453AF"/>
</g>
<defs>
<clipPath id="clip0">
<rect width="1024" height="320" fill="white"/>
</clipPath>
</defs>
</svg>
