<svg width="1024" height="320" viewBox="0 0 1024 320" fill="none" xmlns="http://www.w3.org/2000/svg">
<g clip-path="url(#clip0)">
<rect width="1024" height="320" fill="url(#paint0_linear)"/>
<path fill-rule="evenodd" clip-rule="evenodd" d="M23.8288 -462.501C23.7419 -461.779 24.3922 -461.101 25.2758 -460.993C26.1595 -460.884 33.1492 -449.045 40.8079 -434.685C59.2305 -400.142 95.3189 -340.004 106.777 -324.752C107.88 -323.284 117.54 -309.429 128.242 -293.962C154.777 -255.617 182.119 -220.156 207.238 -191.51C218.806 -178.318 233.528 -161.221 239.954 -153.514C246.381 -145.809 260.766 -129.599 271.924 -117.493C283.08 -105.387 293.291 -94.1507 294.614 -92.5243C297.106 -89.4605 304.357 -81.454 321.736 -62.5747C327.307 -56.5224 331.042 -51.3843 330.035 -51.1566C329.028 -50.9289 326.34 -52.9343 324.062 -55.6151C321.782 -58.2943 314.163 -65.5067 307.13 -71.6428C300.097 -77.7789 293.608 -83.5164 292.711 -84.395C286.676 -90.2984 273.507 -102.13 251.044 -121.833C236.811 -134.317 217.049 -151.917 207.129 -160.944C197.209 -169.97 187.523 -178.746 185.604 -180.446C156.699 -206.049 83.9161 -277.948 55.4503 -309.019C49.3481 -315.678 42.2982 -323.354 39.7838 -326.078C37.2676 -328.803 30.4514 -336.271 24.6359 -342.675C18.8203 -349.078 13.2212 -353.933 12.1951 -353.461C11.0789 -352.949 8.8611 -340.667 6.68364 -322.945C3.10988 -293.858 3.11103 -293.246 6.76781 -291.102C8.81745 -289.901 14.8509 -285.328 20.1737 -280.943C33.1515 -270.249 73.0661 -238.635 73.6873 -238.559C73.9585 -238.525 80.0459 -233.785 87.2141 -228.024C94.3822 -222.264 100.639 -217.502 101.119 -217.443C101.598 -217.385 105.816 -214.199 110.494 -210.365C115.171 -206.532 136.611 -190.621 158.14 -175.012C179.668 -159.401 201.299 -143.535 206.208 -139.758C211.117 -135.98 223.24 -127.306 233.148 -120.481C262.008 -100.601 315.613 -60.7114 313.931 -60.3662C312.669 -60.1079 286.58 -75.2253 233.28 -107.099C229.64 -109.277 223.31 -113.059 219.214 -115.505C215.119 -117.95 204.303 -124.254 195.18 -129.515C160.551 -149.483 137.486 -162.914 127.631 -168.855C109.258 -179.93 70.3746 -203.212 57.7273 -210.712C49.5319 -215.571 33.6052 -225.439 22.3331 -232.639C11.061 -239.839 0.732793 -245.453 -0.617622 -245.117C-2.50655 -244.648 -3.48915 -240.178 -4.86868 -225.799L-6.66259 -207.093L6.75879 -200.674C14.1406 -197.144 29.2358 -189.892 40.3037 -184.557C51.3715 -179.222 63.861 -173.532 68.0579 -171.909C72.2549 -170.288 77.1797 -168.084 79.002 -167.014C83.5463 -164.344 120.542 -146.832 162.933 -127.284C206.24 -107.315 231.699 -95.2184 276.218 -73.4642C295.111 -64.2313 316.61 -53.7998 323.993 -50.2842C340.396 -42.4716 336.551 -41.4516 318.241 -48.7569C296.413 -57.4667 233.883 -81.3861 205.648 -91.8271C163.373 -107.459 147.812 -113.285 103.759 -129.973C80.8886 -138.637 50.3263 -150.114 35.8425 -155.477C21.3588 -160.839 5.36641 -166.804 0.30254 -168.728C-4.76112 -170.655 -9.60198 -171.908 -10.4565 -171.516C-11.3113 -171.122 -12.9573 -163.089 -14.1156 -153.662L-16.2216 -136.522L-8.05697 -134.303C-3.56714 -133.084 8.62287 -129.828 19.0303 -127.069C44.7681 -120.244 44.3094 -120.372 63.6908 -114.681C92.6455 -106.18 134.566 -94.4653 159.86 -87.8105C173.108 -84.323 196.3 -77.9086 211.396 -73.5553C236.077 -66.4398 244.793 -63.9865 268.054 -57.6151C271.834 -56.581 275.969 -55.2301 277.241 -54.6142C278.514 -53.9982 286.984 -51.3747 296.063 -48.781C327.688 -39.7476 343.617 -34.1368 347.472 -30.6696L351.351 -27.1818L346.106 -27.8652C343.222 -28.241 329.978 -31.0464 316.676 -34.1003C303.374 -37.1543 275.351 -43.2804 254.404 -47.7156C233.456 -52.1508 214.794 -56.3956 212.933 -57.1496C211.071 -57.9018 197.056 -60.9351 181.788 -63.8899C166.52 -66.843 145.452 -71.025 134.971 -73.1805C124.489 -75.3378 97.9517 -80.5379 75.9983 -84.74C54.0448 -88.9404 29.09 -94.0134 20.5434 -96.0147C11.9969 -98.0159 -0.730176 -100.371 -7.73964 -101.25L-20.4834 -102.848L-22.1862 -84.8686L-23.889 -66.8894L137.928 -46.6473C226.927 -35.5135 312.533 -24.3085 328.164 -21.7475C354.456 -17.4399 356.897 -16.7461 360.775 -12.4847C363.08 -9.95315 364.528 -7.56959 363.993 -7.1882C363.458 -6.80855 328.603 -9.37158 286.537 -12.8844C189.262 -21.007 152.403 -23.7134 123.702 -24.8372C111.063 -25.3325 94.7635 -26.038 87.4815 -26.404C80.1996 -26.7717 65.886 -27.3751 55.674 -27.7479C45.4621 -28.1225 23.2445 -28.9448 6.30052 -29.5787C-10.6432 -30.2143 -25.5993 -30.4602 -26.9368 -30.1277C-28.7436 -29.6771 -29.9489 -24.7964 -31.6303 -11.1124C-34.2824 10.473 -36.9259 8.59728 -6.11075 7.00147C31.9158 5.03182 71.6589 3.98107 105.944 4.0378C113.183 4.04883 130.213 3.95509 155.714 3.75939C176.286 3.60403 225.583 4.04834 260.397 4.70588C276.966 5.01871 291.764 4.93466 293.28 4.52118C294.796 4.1077 297.215 3.93816 298.655 4.1435C300.966 4.47361 330.972 5.59268 356.121 6.28352C360.989 6.41852 366.325 6.28628 367.978 5.98897C371.238 5.40471 378.109 15.8843 376.105 18.3815C374.593 20.2647 362.75 20.8502 308.038 21.7492C289.369 22.0568 272.079 22.7184 224.159 24.9613C174.222 27.2988 160.997 28.0375 149.935 29.1041C143.509 29.7252 131.797 30.7189 123.908 31.3148C85.8575 34.1882 76.1077 34.9972 61.0989 36.5246C24.4402 40.2576 5.93898 42.3514 -15.9067 45.2391L-38.9279 48.2823L-41.3373 67.8923C-42.6625 78.678 -43.1095 88.0118 -42.3319 88.6362C-41.554 89.2588 -23.8164 86.3827 -2.91284 82.2435C17.9889 78.1041 44.0599 73.2832 55.0219 71.5283C65.9836 69.7751 78.625 67.7244 83.1137 66.9717C87.6022 66.2207 99.4093 64.4542 109.352 63.0461C119.294 61.6379 131.498 59.8936 136.472 59.1686C151.833 56.9285 168.094 55.0705 189.617 53.0978C200.98 52.0576 215.131 50.7335 221.063 50.1564C226.996 49.5793 239.523 48.455 248.903 47.6555C258.282 46.8577 275.66 45.2826 287.522 44.1581C299.383 43.0319 314.343 41.6332 320.764 41.0506C327.186 40.4662 341.746 39.0681 353.119 37.9422C382.939 34.9908 383.582 35.0946 386.807 43.4495C388.288 47.2851 389.018 50.7995 388.428 51.2612C387.837 51.7209 378.548 53.0212 367.783 54.1509C351.176 55.8919 326.136 58.9568 281.444 64.7139C276.48 65.3533 264.681 67.0585 255.223 68.5013C245.764 69.9459 233.457 71.674 227.872 72.3435C222.289 73.0132 214.538 74.2949 210.648 75.1921C203.687 76.7962 191.381 78.9344 164.604 83.1949C146.356 86.0969 74.9823 100.726 72.5862 102.055C71.5379 102.636 68.6406 103.447 66.1478 103.858C58.2685 105.158 -7.5141 122.555 -21.9761 127.164C-29.6018 129.595 -38.9343 132.53 -42.7143 133.687L-49.5876 135.792L-52.5737 159.72C-54.2155 172.88 -55.0111 184.068 -54.3423 184.581C-53.6718 185.094 -47.6209 183.004 -40.8937 179.936C-34.1666 176.867 -24.1232 172.599 -18.5727 170.447C-13.0241 168.296 -7.54003 165.948 -6.38596 165.229C-2.07538 162.544 56.0741 142.317 80.0645 135.159C128.261 120.779 175.682 108.749 209.32 102.365C267.702 91.2875 296.853 86.0217 349.197 77.0932C356.182 75.9019 367.923 73.7885 375.288 72.3954C394.668 68.7309 394.61 68.7079 395.048 80.7287C395.35 88.971 397.093 88.1968 365.804 93.7216C323.801 101.14 266.165 113.372 258.199 116.561C255.63 117.591 251.097 118.702 248.126 119.032C245.154 119.363 240.228 120.426 237.178 121.392C234.129 122.359 222.131 125.678 210.516 128.77C198.902 131.861 186.908 135.141 183.865 136.059C180.821 136.979 168.38 140.651 156.218 144.221C130.877 151.664 87.6686 167.34 57.6617 179.98C24.0807 194.126 -27.85 221.349 -46.5588 234.616C-50.9388 237.722 -56.4076 240.972 -58.7128 241.837C-62.8805 243.403 -62.9307 243.638 -67.9701 284.87C-70.7557 307.672 -72.5206 327.414 -71.8912 328.739C-71.0867 330.431 -69.5003 329.302 -66.5684 324.957C-52.6161 304.27 -27.311 278.938 -0.609789 258.925C39.3462 228.978 73.6927 209.99 133.02 185.048C158.263 174.436 212.492 154.685 215.402 155.042C215.761 155.086 220.862 153.601 226.735 151.743C254.131 143.074 301.468 130.763 346.517 120.59C353.048 119.114 366.565 116.037 376.553 113.752C386.541 111.466 395.178 110.263 395.746 111.078C396.313 111.893 396.786 116.153 396.794 120.546L396.811 128.533L373.564 134.393C339.528 142.973 316.87 149.207 304.289 153.453C298.174 155.516 289.043 158.272 283.998 159.577C276.091 161.62 218.788 181.202 210.761 184.602C209.215 185.257 197.016 190.217 183.651 195.623C158.337 205.864 117.763 226.304 94.6596 240.45C74.7737 252.629 40.3964 279.717 26.4595 294.192C9.0309 312.292 -6.30331 336.491 -12.1483 355.12C-27.3707 403.635 -3.46777 443.277 55.1203 466.682C69.0666 472.255 76.0101 473.845 103.686 477.802C143.884 483.55 164.255 484.034 197.511 480.032C232.448 475.828 263.25 468.649 299.044 456.365C333.679 444.481 358.311 432.721 398.033 409.107C411.121 401.326 459.802 361.457 472.514 348.11C503.778 315.278 526.744 283.027 548.622 241.233C552.462 233.897 557.048 225.278 558.814 222.079C560.579 218.88 568.227 204.248 575.811 189.565C610.655 122.095 632.771 88.8421 665.281 55.0508C680.081 39.6658 709.55 14.8346 719.492 9.36992C722.86 7.51948 719.334 11.1498 711.657 17.4358C698.049 28.5791 684.472 42.0206 676.941 51.806C674.889 54.4693 669.001 61.9812 663.856 68.4966C638.911 100.091 620.47 132.104 601.493 176.75C588.496 207.328 588.739 206.739 576.202 238.241C569.76 254.434 561.744 273.412 558.391 280.414C514.84 371.383 458.398 429.355 366.624 477.377C330.21 496.43 273.237 515.71 223.919 525.671C121.348 546.386 11.3813 531.119 -46.1632 488.176C-59.5034 478.22 -76.6783 459.198 -81.2136 449.356C-83.519 444.353 -84.7661 443.183 -86.0841 444.788C-87.0596 445.976 -90.9285 471.855 -94.6853 502.302L-101.513 557.655L-85.974 564.909C-46.3572 583.406 -21.1611 590.014 36.6335 597.063C67.5984 600.841 87.2583 602.357 103.903 602.248C128.453 602.088 178.693 597.902 195.913 594.582C201.417 593.521 210.418 591.823 215.916 590.81C242.941 585.824 271.106 577.796 310.712 563.791C361.348 545.885 404.366 523.049 444.4 492.824C484.488 462.558 510.679 435.234 535.698 397.573C548.414 378.431 550.901 374.033 562.91 349.457C574.452 325.836 589.514 281.101 597.333 247.218C607.698 202.311 633.675 123.034 637.859 123.548C639.624 123.765 639.429 124.949 635.829 135.922C630.551 152.002 625.849 175.164 620.403 211.901C599.958 349.789 596.2 366.712 575.909 412.273C556.526 455.791 525.66 499.898 493.578 529.92C416.266 602.267 310.8 652.031 182.445 676.732C173.141 678.524 169.876 679.796 171.87 680.858C173.458 681.7 221.582 688.144 278.813 695.175L382.868 707.961L411.118 690.581C503.646 633.663 565.887 565.082 601.284 481.047C609.685 461.105 620.014 420.374 623.76 392.423C625.114 382.326 627.001 346.34 626.903 332.477C626.889 330.523 626.935 317.371 627.002 303.249C627.069 289.126 626.833 276.94 626.477 276.167C625.562 274.182 625.869 232.307 626.844 226.001L627.653 220.777L628.495 226.204C628.959 229.189 630.344 239.341 631.572 248.763C632.802 258.186 635.722 277.31 638.061 291.261C652.368 376.561 653.275 383.844 656.201 437.222C657.27 456.702 648.737 520.915 642.28 541.98C622.763 605.66 588.074 665.339 542.645 713.394C537.679 718.647 533.521 723.727 533.403 724.687C533.264 725.813 555.056 729.117 594.946 734.018L656.701 741.606L663.3 726.89C666.928 718.797 671.312 707.956 673.041 702.8C674.769 697.645 677.039 691.935 678.085 690.111C679.13 688.288 683.185 675.611 687.096 661.94C692.93 641.542 695.051 630.185 698.911 598.623C701.497 577.47 703.351 557.335 703.03 553.88C702.71 550.425 702.37 541.827 702.276 534.774C701.736 494.226 691.655 439.468 674.192 382.211C671.022 371.822 667.814 361.846 667.061 360.041C663.546 351.608 647.569 301.585 648.227 301.071C649.255 300.268 654.57 309.852 664.519 330.45C669.156 340.052 678.062 358.342 684.311 371.095C713.104 429.865 724.205 454.778 735.096 485.067C738.952 495.788 742.596 505.419 743.194 506.468C743.793 507.518 746.06 514.583 748.234 522.17C750.409 529.757 752.721 537.627 753.375 539.659C755.811 547.236 763.609 584.052 766.111 599.782C773.651 647.187 774.758 678.243 770.979 736.571L769.753 755.496L822.955 762.033C852.216 765.628 876.19 768.302 876.23 767.973C876.365 766.876 866.399 718.619 865.266 714.884C864.652 712.857 861.501 701.69 858.265 690.069C851.266 664.934 829.599 605.166 818.879 581.423C806.04 552.987 779.177 502.483 763.842 477.952C760.869 473.194 757.151 467.148 755.58 464.515C748.339 452.379 717.497 405.337 702.441 383.458C681.253 352.671 680.842 351.998 684.399 353.886C686.016 354.747 687.242 354.466 687.398 353.201C687.563 351.855 689.075 351.609 691.476 352.538C700.736 356.119 737.104 368.482 746.463 371.229C752.121 372.891 762.123 376.056 768.69 378.263C775.258 380.47 792.982 385.845 808.077 390.207C823.172 394.569 846.303 401.473 859.479 405.551C872.655 409.63 892.78 415.589 904.198 418.797C915.618 422.003 929.116 425.991 934.194 427.657C939.273 429.324 949.618 432.35 957.183 434.383C964.749 436.417 972.481 438.538 974.366 439.101C994.683 445.157 1024.2 453.509 1031.44 455.253L1040.5 457.432L1042.65 439.946L1044.8 422.46L1027.89 419.14C1018.58 417.314 1007.08 414.997 1002.32 413.992C997.558 412.984 983.133 410.034 970.264 407.43C957.395 404.829 937.905 400.819 926.952 398.523C916 396.224 893.008 391.442 875.859 387.896C858.709 384.349 840.786 380.598 836.029 379.558C831.272 378.517 812.177 374.542 793.596 370.722C759.924 363.799 750.631 361.726 740.866 358.959C738.034 358.157 723.664 354.755 708.934 351.402C683.006 345.497 675.198 342.132 674.027 336.352C673.807 335.266 686.265 336.986 707.102 340.92C754.9 349.942 870.133 366.676 966.263 378.553L1048.94 388.767L1051.05 371.578C1052.21 362.123 1052.83 353.965 1052.43 353.449C1052.02 352.933 1045.89 352.391 1038.81 352.248C1031.72 352.103 1003.72 350.547 976.581 348.788C949.443 347.031 922.075 345.338 915.763 345.026C894.825 343.994 774.179 334.389 700.497 327.888L665.573 324.807L662.804 320.235C661.282 317.719 660.109 315.079 660.197 314.364C660.285 313.649 664.501 313.491 669.565 314.013C677.514 314.834 697.939 315.665 746.889 317.163C753.216 317.357 760.407 317.374 762.871 317.203C765.334 317.032 780.093 317.266 795.668 317.723C811.243 318.18 833.184 318.507 844.425 318.451C855.667 318.393 870.008 318.501 876.292 318.688C882.577 318.876 888.209 318.805 888.808 318.529C889.407 318.253 898.241 318.183 908.442 318.372C918.643 318.562 932.203 318.559 938.577 318.364C956.961 317.805 985.973 317.207 1006.25 316.967C1016.52 316.845 1032.38 316.287 1041.48 315.726L1058.04 314.706L1060.36 295.799C1063.02 274.14 1063.77 275.068 1045.64 277.662C1020.57 281.249 949.334 287.578 904.739 290.182C859.595 292.817 840.077 293.901 829.624 294.348C796.114 295.785 724.908 297.717 692.395 298.073C681.145 298.197 668.702 298.631 664.744 299.037C653.747 300.17 652.536 299.674 649.107 292.628L645.92 286.081L650.849 285.679C653.56 285.458 658.623 284.886 662.101 284.408C665.579 283.931 679.297 282.873 692.586 282.057C740.31 279.132 838.296 270.161 866.843 266.106C872.312 265.328 881.644 264.189 887.581 263.575C899.914 262.298 946.225 256.132 954.395 254.679C957.392 254.147 974.116 251.391 991.561 248.556C1009.01 245.72 1033.33 241.31 1045.61 238.754L1067.94 234.109L1070.57 212.672C1072.65 195.749 1072.7 191.172 1070.82 190.941C1069.51 190.78 1063.01 192.347 1056.36 194.425C1003.34 211.007 923.218 229.008 849.512 240.905C840.542 242.353 829.525 244.196 825.029 245.003C817.652 246.326 810.679 247.357 777.992 251.959C754.337 255.289 703.925 261.621 693.2 262.61C686.777 263.203 672.63 264.611 661.763 265.738C650.895 266.866 641.519 267.73 640.926 267.657C640.333 267.584 638.986 264.186 637.934 260.105C636.069 252.875 636.124 252.657 640.04 251.608C643.987 250.551 665.173 246.972 684.823 244.043C697.021 242.224 731.191 236.481 737.421 235.201C739.927 234.687 749.321 233.04 758.298 231.539C785.955 226.917 824.456 219.327 848.405 213.777C860.975 210.864 876.195 207.34 882.228 205.945C892.647 203.536 907.201 199.654 947.942 188.413C970.838 182.096 1026.77 162.628 1056.42 150.651L1079.31 141.411L1082.58 114.857C1084.38 100.252 1085.28 87.8397 1084.57 87.2755C1083.86 86.7098 1077.61 89.6869 1070.66 93.8893C1020.17 124.465 949.232 154.988 882.496 174.853C870.327 178.476 856.636 182.562 852.071 183.936C847.507 185.307 842.112 186.925 840.085 187.527C817.92 194.109 762.886 206.749 704.852 218.585C665.787 226.552 633.286 233.003 632.63 232.923C631.976 232.842 631.064 228.599 630.607 223.493C629.789 214.336 631.112 211.562 636.056 212.077C639.089 212.394 707.908 196.595 726.836 191.237C731.391 189.949 745.847 186.139 758.961 182.771C772.075 179.403 786.331 175.53 790.64 174.161C794.95 172.793 798.872 171.723 799.359 171.782C800.272 171.895 822.807 164.544 852.59 154.415C912.967 133.884 975.155 104.048 1018.91 74.619C1037.01 62.4451 1068.23 37.3357 1080.65 24.9622C1087.38 18.2581 1093.32 13.3331 1093.86 14.0164C1094.39 14.6996 1100.06 -27.3505 1106.46 -79.4277C1112.86 -131.507 1117.45 -174.196 1116.65 -174.294C1115.86 -174.391 1111.25 -178.402 1106.42 -183.203C1096.55 -193.001 1079.32 -205.26 1066.73 -211.438C1062.12 -213.697 1056.86 -216.437 1055.04 -217.523C1051.72 -219.51 1036.01 -225.66 1022.29 -230.353C1011.59 -234.012 976.559 -241.701 962.32 -243.516C948.166 -245.323 904.498 -247.12 891.531 -246.429C851.909 -244.322 823.027 -240.476 785.989 -232.375C748.231 -224.116 691.825 -203.258 655.733 -184.207C589.844 -149.428 533.273 -99.0417 498.149 -43.8485C473.322 -4.83507 460.196 23.3883 439.089 83.1552C421.889 131.859 400.303 182.771 391.339 195.775C389.649 198.229 388.193 200.783 388.104 201.45C387.751 204.132 372.281 228.031 371.525 227.063C371.078 226.492 372.868 221.997 375.503 217.077C378.138 212.155 381.952 203.942 383.977 198.823C395.552 169.557 403.413 147.6 405.58 138.483C406.932 132.793 409.062 125.84 410.313 123.032C411.565 120.224 416.015 102.805 420.201 84.3213C439.932 -2.78895 452.965 -42.7477 474.445 -81.9985C510.31 -147.538 572.012 -206.431 645.47 -245.243C655.395 -250.486 664.378 -255.291 665.432 -255.918C668.723 -257.875 685.613 -265.54 699.293 -271.282C749.644 -292.419 814.368 -309.236 869.827 -315.591C959.98 -325.919 1055.18 -315.15 1117.7 -287.554C1123.7 -284.904 1129.28 -283.358 1130.21 -284.085C1131.13 -284.805 1132.79 -294.623 1133.9 -305.899L1135.92 -326.402L940.406 -350.354L744.892 -374.306L735.385 -370.172C730.155 -367.899 725.399 -366.098 724.813 -366.17C723.615 -366.317 696.918 -355.331 686.827 -350.537C641.628 -329.064 605.176 -306.784 569.657 -278.923C510.346 -232.398 472.592 -185.362 447.025 -126.145C435.72 -99.9569 433.035 -92.1472 427.719 -69.9593C426.583 -65.2191 424.178 -55.5332 422.375 -48.435C417.837 -30.5717 412.458 13.9756 408.548 66.0942C406.674 91.0952 404.168 113.744 402.738 118.615L400.226 127.178L399.986 110.291C399.627 84.9503 398.515 54.1295 396.036 0.675859C391.04 -106.981 402.896 -172.327 439.809 -240.598C467.42 -291.662 504.695 -334.86 559.354 -379.146C569.361 -387.252 576.411 -394.151 575.466 -394.911C574.539 -395.653 545.114 -399.384 510.074 -403.201L446.363 -410.142L436.09 -394.547C406.263 -349.268 389.017 -313.039 374.246 -264.624C366.257 -238.438 357.497 -157.294 360.634 -138.534C361.134 -135.545 361.941 -125.863 362.426 -117.02C362.912 -108.177 363.719 -98.4955 364.22 -95.506C364.723 -92.5163 366.365 -82.7324 367.872 -73.7636C371.741 -50.717 384.369 14.1727 386.267 20.7692C388.595 28.8576 389.331 37.501 387.487 35.1149C385.533 32.5857 342.708 -86.3293 336.337 -106.917C319.081 -162.681 309.84 -215.653 309.289 -261.958C308.782 -304.51 310.915 -329.144 317.978 -362.357C324.382 -392.47 328.277 -408.14 332.133 -419.298L334.043 -424.83L282.308 -431.186C253.853 -434.683 230.151 -436.997 229.636 -436.327C227.103 -433.038 230.476 -377.473 235.306 -342.914C247.278 -257.26 273.443 -183.941 330.674 -75.6723C335.364 -66.8004 341.657 -54.8479 344.66 -49.1113C347.662 -43.3746 352.204 -35.0372 354.751 -30.5827C364.663 -13.2543 356.615 -22.6382 332.526 -56.4969C318.695 -75.9374 304.766 -95.7574 301.576 -100.541C298.384 -105.325 289.252 -118.425 281.285 -129.651C260.524 -158.899 230.9 -206.232 215.109 -235.378C177.333 -305.113 150.478 -370.331 133.147 -434.43C131.237 -441.497 129.292 -447.881 128.824 -448.616C127.667 -450.442 24.0292 -464.147 23.8288 -462.501ZM967.473 -177.031C969.761 -175.775 977.764 -172.604 985.257 -169.983C1020.38 -157.696 1048.65 -131.817 1059.2 -102.293C1066.42 -82.0677 1061.86 -49.1452 1048.34 -23.8713C1024.59 20.5236 968.54 67.1014 892.81 105.363C863.018 120.416 798.089 146.166 766.771 155.348C759.17 157.576 749.632 160.397 745.574 161.616C706.882 173.237 642.682 190.419 634.113 191.446C629.689 191.976 629.234 191.487 628.875 185.835C628.12 173.937 629.652 171.982 642.621 168.275C649.203 166.393 668.667 160.858 685.875 155.974C741.414 140.209 808.268 114.814 848.906 94.0457C917.397 59.0449 961.034 22.5538 984.454 -19.2996C990.188 -29.5472 991.252 -33.1943 993.453 -50.1346C995.876 -68.7989 995.815 -69.6829 991.327 -81.1314C988.784 -87.612 983.668 -96.3269 979.958 -100.497C972.12 -109.305 953.902 -122.357 944.246 -126.084C940.564 -127.505 934.591 -129.815 930.97 -131.216C911.677 -138.692 864.324 -143.217 835.957 -140.294C749.838 -131.425 678.243 -103.659 612.826 -53.7529C561.871 -14.8816 525.212 28.3955 485.958 96.0118C477.234 111.043 467.708 127.264 464.793 132.059C461.878 136.852 459.45 141.124 459.398 141.547C458.973 145.01 419.347 205.337 407.613 220.385C361.347 279.723 296.185 325.941 250.808 331.605C238.536 333.137 233.655 330.777 234.521 323.73C236.096 310.913 257.441 294.139 298.301 273.609C320.028 262.693 351.873 249.131 352.851 250.38C353.21 250.841 348.802 256.762 343.053 263.537C333.802 274.44 330.419 276.936 313.581 285.283C274.004 304.901 249.134 329.728 283.913 314.899C297.921 308.924 331.175 284.139 348.992 266.39C382.792 232.722 413.333 188.273 437.771 137.182C484.074 40.3795 504.054 5.92526 535.091 -30.6412C571.703 -73.7768 621.837 -112.343 677.162 -139.929C697.969 -150.303 727.014 -161.447 750.559 -168.088C799.737 -181.959 840.461 -187.941 888.036 -188.283C902.34 -188.385 962.242 -179.9 967.473 -177.031ZM896.465 -93.9775C925.452 -83.2791 938.894 -65.1319 936.654 -39.7163C935.056 -21.5663 926.339 -5.92891 905.491 16.1872C867.079 56.9349 798.128 94.9756 706.431 126.009C672.104 137.627 668.738 138.707 651.415 143.687L636.224 148.055L636.826 143.316C637.157 140.709 638.263 135.744 639.282 132.279C641.132 125.994 641.217 125.951 680.362 112.209C721.145 97.8904 743.502 89.0677 753.586 83.31C756.837 81.4541 760.072 80.0061 760.774 80.0923C762.427 80.2955 789.065 66.34 807.442 55.6425C836.457 38.7532 865.858 12.9767 878.155 -6.35534C893.249 -30.0817 889.065 -51.4866 867.1 -62.9212C853.555 -69.9726 824.181 -73.2819 801.097 -70.36C724.399 -60.6495 640.965 -11.3015 577.33 61.9893C558.321 83.8824 544.617 102.621 508.261 156.423C493.04 178.951 479.738 198.478 478.704 199.814C477.669 201.151 472.831 207.743 467.95 214.463C446.76 243.639 411.133 280.944 384.123 302.239C354.25 325.793 307.137 351.15 273.163 361.957C240.444 372.365 216.236 375.401 190.772 372.29C169.863 369.735 163.774 367.016 156.82 357.128C152.157 350.498 151.573 348.283 152.499 340.745C156.651 306.955 210.79 264.385 293.866 229.588C312.927 221.602 375.767 199.588 378.528 199.928C379.82 200.086 378.691 204.073 375.282 211.389L370.056 222.609L347.448 230.988C280.486 255.806 233.545 282.072 208.331 308.829C192.758 325.356 190.907 339.257 203.194 347.4C210.694 352.371 220.017 353.39 237.465 351.146C273.066 346.568 319.118 324.502 361.143 291.885C404.976 257.861 432.53 225.709 480.183 152.973C496.163 128.585 510.81 106.03 512.735 102.851C520.102 90.6834 542.668 60.7577 560.246 39.8404C627.447 -40.1208 728.385 -94.1657 825.026 -101.932C844.737 -103.517 881.806 -99.3879 896.465 -93.9775ZM832.421 -39.903C841.002 -35.0158 843.351 -28.671 840.764 -17.3766C834.831 8.51511 787.925 44.7626 724.836 72.2041C718.788 74.8343 711.22 78.1401 708.016 79.5493C694.748 85.3896 652.284 100.648 651.63 99.8099C651.24 99.3112 653.868 93.7944 657.472 87.5492L664.022 76.1952L688.514 65.8942C746.796 41.379 783.515 18.6665 797.395 -1.456C804.38 -11.5853 804.801 -14.6495 800.033 -20.7451C795.339 -26.75 789.241 -27.6323 774.219 -24.4775C742.468 -17.8134 716.92 -5.01239 681.211 22.1238C632.539 59.1125 602.452 97.2242 539.914 201.125C504.991 259.144 484.385 286.168 447.749 321.999C431.851 337.549 399.906 362.333 379.179 375.198C284.066 434.235 155.28 455.285 89.0304 422.622C68.0754 412.289 56.9014 400.504 50.3807 381.855C47.2561 372.922 47.2114 370.785 49.8344 356.058C53.358 336.271 60.0297 323.461 77.7073 302.54C97.8415 278.712 140.597 247.928 184.144 225.905C198.828 218.478 244.212 198.827 258.489 193.714C261.555 192.614 273.26 188.426 284.5 184.403C295.741 180.383 310.313 175.629 316.882 173.842C323.452 172.057 330.488 170.086 332.519 169.464C358.399 161.541 393.022 152.069 393.565 152.764C393.948 153.251 393.174 157.954 391.851 163.216L389.441 172.781L376.257 176.896C349.518 185.241 271.585 213.476 256.094 220.431C175.425 256.647 122.449 297.252 107.862 334.045C97.7817 359.477 105.663 378.964 131.831 393.303C139.277 397.384 145.374 398.976 164.53 401.846C184.815 404.883 190.818 405.095 207.861 403.371C235.5 400.577 256.545 395.877 284.569 386.241C344.43 365.655 394.519 333.008 448.36 279.487C468.405 259.559 487.597 233.962 529.951 170.662C550.754 139.569 574.584 105.499 582.905 94.9503C646.386 14.4752 726.69 -37.5216 799.41 -45.2367C807.505 -46.0946 827.109 -42.9282 832.421 -39.903ZM766.805 -3.95278C766.027 2.38228 738.217 22.2217 712.227 34.9845C699.43 41.2694 688.62 45.9763 688.204 45.446C686.021 42.6528 717.604 15.409 732.395 7.32649C737.058 4.77988 740.591 1.66863 740.272 0.390846C739.927 -0.993055 742.908 -2.97271 747.672 -4.52379C763.339 -9.62582 767.487 -9.50121 766.805 -3.95278ZM691.747 361.168C694.747 364.584 702.086 373.165 708.055 380.239C727.693 403.512 732.658 409.251 753.941 433.253C779.025 461.545 854.848 557.859 871.635 582.753C898.138 622.055 915.114 649.43 935.425 685.62C954.296 719.243 981.852 775.736 981.355 779.782C981.241 780.711 985.478 782.001 990.772 782.652L1000.4 783.834L1006.87 731.1C1010.44 702.097 1012.78 678.812 1012.09 679.354C1011.39 679.897 1003.41 671.648 994.358 661.023C929.767 585.236 860.086 513.778 781.23 442.457C743.794 408.598 711.846 379.081 709.505 376.19C706.3 372.233 710.278 373.166 714.833 377.439C716.929 379.404 720.468 382.378 722.698 384.047C777.366 424.942 870.504 494.391 878.896 500.517C882.93 503.461 887.295 506.971 888.595 508.317C889.895 509.663 895.365 513.932 900.751 517.804C906.137 521.676 914.909 528.347 920.245 532.628C956.049 561.362 997.789 595.356 1006.63 602.985C1012.37 607.94 1018.05 612.113 1019.26 612.257C1020.9 612.457 1022.17 606.634 1024.34 588.923C1025.94 575.943 1026.55 565.238 1025.69 565.133C1024.84 565.029 1011.82 557.055 996.759 547.414C981.696 537.772 965.849 527.763 961.542 525.172C957.235 522.579 951.493 519.005 948.781 517.227C946.068 515.449 934.174 508.167 922.349 501.045C910.524 493.921 894.541 484.137 886.831 479.3C874.567 471.606 855.565 460.123 839.706 450.825C836.973 449.222 829.663 444.828 823.464 441.059C817.264 437.29 811.883 434.169 811.506 434.123C810.842 434.041 794.695 424.193 776.031 412.488C771.042 409.359 759.056 402.046 749.395 396.236C739.733 390.429 727.099 382.662 721.319 378.978C715.538 375.295 708.699 371.559 706.121 370.676C703.544 369.794 701.531 368.285 701.649 367.323C701.876 365.47 710.034 367.889 712.788 370.628C713.659 371.493 715.139 372.459 716.077 372.774C718.259 373.507 724.56 376.681 731.968 380.778C735.17 382.55 752.503 391.107 770.486 399.793C788.469 408.48 810.335 419.171 819.078 423.551C827.821 427.931 842.156 434.868 850.933 438.967C859.71 443.066 868.377 447.339 870.193 448.465C872.009 449.59 890.488 458.569 911.259 468.422C932.03 478.272 958.813 491.235 970.777 497.23C982.74 503.223 995.925 509.76 1000.08 511.754C1004.23 513.749 1012.33 517.905 1018.08 520.988C1023.84 524.073 1029.37 526.216 1030.38 525.753C1031.38 525.291 1033.15 517.218 1034.31 507.813L1036.41 490.715L1010.53 480.876C996.297 475.463 980.847 469.478 976.197 467.574C971.546 465.668 956.627 460.233 943.044 455.494C929.461 450.754 916.07 445.89 913.288 444.683C908.328 442.536 871.48 428.344 846.296 418.882C829.271 412.487 757.344 384.307 740.378 377.387C732.935 374.352 720.373 369.253 712.462 366.056C704.551 362.858 695.968 359.098 693.39 357.699C686.157 353.77 685.838 354.443 691.747 361.168Z" fill="#090909"/>
</g>
<defs>
<linearGradient id="paint0_linear" x1="0" y1="0" x2="468.166" y2="683.142" gradientUnits="userSpaceOnUse">
<stop stop-color="#3300FF"/>
<stop offset="1" stop-color="#C6B8FF"/>
</linearGradient>
<clipPath id="clip0">
<rect width="1024" height="320" fill="white"/>
</clipPath>
</defs>
</svg>
