<svg width="1440" height="360" viewBox="0 0 1440 360" fill="none" xmlns="http://www.w3.org/2000/svg">
<g clip-path="url(#clip0)">
<rect width="1440" height="360" fill="url(#paint0_linear)"/>
<path fill-rule="evenodd" clip-rule="evenodd" d="M74.5695 -642.658C74.4547 -641.704 75.3133 -640.809 76.4801 -640.666C77.6469 -640.522 86.8761 -624.89 96.9887 -605.929C121.314 -560.318 168.965 -480.912 184.095 -460.772C185.55 -458.834 198.306 -440.54 212.437 -420.118C247.474 -369.487 283.576 -322.663 316.743 -284.839C332.018 -267.421 351.457 -244.845 359.942 -234.67C368.428 -224.496 387.423 -203.093 402.155 -187.107C416.886 -171.122 430.369 -156.286 432.115 -154.138C435.405 -150.093 444.98 -139.521 467.927 -114.593C475.283 -106.602 480.214 -99.817 478.885 -99.5165C477.556 -99.2159 474.007 -101.864 470.998 -105.403C467.988 -108.941 457.928 -118.464 448.642 -126.567C439.355 -134.669 430.787 -142.244 429.602 -143.405C421.633 -151.199 404.246 -166.822 374.586 -192.838C355.791 -209.322 329.698 -232.561 316.6 -244.48C303.502 -256.398 290.712 -267.986 288.178 -270.23C250.012 -304.037 153.909 -398.973 116.323 -439.999C108.265 -448.791 98.9565 -458.927 95.6365 -462.524C92.3141 -466.121 83.314 -475.983 75.6351 -484.438C67.9562 -492.893 60.5631 -499.303 59.2083 -498.68C57.7344 -498.004 54.8061 -481.787 51.9309 -458.386C47.2121 -419.98 47.2136 -419.172 52.0421 -416.341C54.7484 -414.755 62.715 -408.718 69.7432 -402.927C86.8792 -388.806 139.583 -347.064 140.403 -346.963C140.761 -346.919 148.799 -340.659 158.264 -333.053C167.728 -325.447 175.99 -319.16 176.623 -319.082C177.257 -319.004 182.826 -314.799 189.003 -309.735C195.178 -304.675 223.488 -283.666 251.914 -263.055C280.341 -242.442 308.902 -221.494 315.384 -216.506C321.865 -211.518 337.873 -200.064 350.955 -191.053C389.062 -164.803 459.843 -112.133 457.622 -111.677C455.955 -111.336 421.508 -131.297 351.129 -173.384C346.323 -176.259 337.965 -181.252 332.557 -184.482C327.149 -187.71 312.868 -196.035 300.822 -202.981C255.097 -229.346 224.643 -247.081 211.631 -254.926C187.37 -269.549 136.029 -300.291 119.329 -310.194C108.508 -316.61 87.4782 -329.639 72.5945 -339.146C57.7109 -348.653 44.0734 -356.067 42.2903 -355.623C39.7962 -355.003 38.4987 -349.101 36.6772 -330.115L34.3085 -305.415L52.0302 -296.94C61.7772 -292.279 81.7089 -282.703 96.3229 -275.659C110.937 -268.615 127.428 -261.101 132.97 -258.958C138.511 -256.818 145.014 -253.908 147.42 -252.494C153.421 -248.969 202.269 -225.847 258.244 -200.035C315.425 -173.668 349.042 -157.696 407.825 -128.971C432.771 -116.78 461.158 -103.007 470.908 -98.3645C492.566 -88.0487 487.489 -86.7019 463.312 -96.3479C434.491 -107.848 351.925 -139.432 314.644 -153.218C258.824 -173.858 238.277 -181.551 180.11 -203.586C149.911 -215.026 109.557 -230.181 90.4324 -237.261C71.308 -244.341 50.1917 -252.217 43.5053 -254.758C36.8192 -257.302 30.4273 -258.957 29.299 -258.439C28.1703 -257.92 25.9969 -247.313 24.4675 -234.865L21.6868 -212.233L32.4674 -209.303C38.3958 -207.694 54.4915 -203.394 68.2335 -199.752C102.218 -190.74 101.612 -190.908 127.203 -183.394C165.435 -172.169 220.788 -156.701 254.185 -147.914C271.679 -143.309 302.301 -134.84 322.234 -129.092C354.822 -119.696 366.332 -116.457 397.045 -108.044C402.037 -106.679 407.496 -104.895 409.176 -104.082C410.856 -103.269 422.04 -99.8044 434.029 -96.3797C475.786 -84.452 496.819 -77.0434 501.909 -72.4654L507.031 -67.86L500.106 -68.7624C496.297 -69.2585 478.81 -72.9628 461.246 -76.9953C443.682 -81.0277 406.681 -89.1166 379.021 -94.9729C351.362 -100.829 326.72 -106.434 324.263 -107.43C321.805 -108.423 303.299 -112.428 283.14 -116.33C262.979 -120.229 235.162 -125.751 221.322 -128.597C207.482 -131.445 172.442 -138.312 143.454 -143.86C114.467 -149.406 81.5164 -156.105 70.2315 -158.747C58.9465 -161.39 42.1417 -164.499 32.8864 -165.66L16.0595 -167.77L13.8111 -144.03L11.5627 -120.29L225.226 -93.5623C342.741 -78.8612 455.776 -64.0662 476.415 -60.6845C511.131 -54.9968 514.354 -54.0807 519.474 -48.4539C522.518 -45.1112 524.43 -41.964 523.723 -41.4604C523.016 -40.9591 476.994 -44.3434 421.451 -48.9817C293.008 -59.7068 244.34 -63.2803 206.443 -64.7642C189.754 -65.4183 168.232 -66.3498 158.617 -66.833C149.002 -67.3185 130.102 -68.1153 116.618 -68.6076C103.134 -69.1021 73.7979 -70.1879 51.4251 -71.0248C29.0524 -71.8641 9.30442 -72.1888 7.53835 -71.7498C5.15272 -71.1549 3.56112 -64.7103 1.34111 -46.6419C-2.16077 -18.1405 -5.65129 -20.6172 35.0372 -22.7243C85.2475 -25.325 137.725 -26.7125 182.995 -26.6375C192.553 -26.623 215.039 -26.7468 248.711 -27.0052C275.874 -27.2103 340.966 -26.6236 386.934 -25.7554C408.813 -25.3423 428.352 -25.4533 430.354 -25.9993C432.356 -26.5453 435.55 -26.7691 437.451 -26.498C440.503 -26.0621 480.122 -24.5845 513.329 -23.6723C519.756 -23.494 526.802 -23.6686 528.985 -24.0612C533.29 -24.8327 542.362 -10.9954 539.717 -7.69809C537.72 -5.21143 522.082 -4.43835 449.84 -3.25131C425.189 -2.84518 402.36 -1.97157 339.086 0.989883C273.149 4.07631 255.687 5.05177 241.081 6.46002C232.595 7.28014 217.131 8.59232 206.714 9.37905C156.472 13.1732 143.599 14.2414 123.781 16.2582C75.3767 21.1872 50.9477 23.9518 22.1025 27.7648L-8.29474 31.7831L-11.4762 57.6762C-13.226 71.9176 -13.8161 84.2421 -12.7893 85.0665C-11.7622 85.8885 11.6586 82.0909 39.2597 76.6255C66.8585 71.1599 101.283 64.7943 115.757 62.4771C130.231 60.1622 146.923 57.4545 152.849 56.4606C158.776 55.469 174.366 53.1365 187.494 51.2772C200.622 49.4178 216.736 47.1147 223.304 46.1573C243.587 43.1995 265.057 40.7462 293.477 38.1415C308.481 36.768 327.165 35.0196 334.999 34.2576C342.832 33.4956 359.373 32.0111 371.758 30.9554C384.142 29.902 407.089 27.8222 422.751 26.3375C438.413 24.8504 458.165 23.0036 466.644 22.2343C475.124 21.4626 494.348 19.6166 509.365 18.1299C548.74 14.2329 549.588 14.37 553.848 25.4018C555.803 30.4663 556.767 35.1068 555.988 35.7164C555.208 36.3234 542.941 38.0403 528.728 39.532C506.8 41.8308 473.737 45.8777 414.725 53.4794C408.171 54.3237 392.591 56.5752 380.103 58.4803C367.614 60.3878 351.364 62.6696 343.989 63.5535C336.617 64.4378 326.382 66.1301 321.246 67.3149C312.054 69.433 295.806 72.2562 260.45 77.8817C236.354 81.7136 142.113 101.029 138.949 102.785C137.565 103.552 133.739 104.623 130.448 105.166C120.044 106.882 33.1842 129.853 14.0885 135.939C4.01945 139.149 -8.30314 143.024 -13.2942 144.552L-22.3699 147.331L-26.3127 178.925C-28.4805 196.302 -29.531 211.074 -28.648 211.752C-27.7627 212.43 -19.7729 209.67 -10.8904 205.619C-2.0079 201.567 11.2535 195.931 18.5824 193.089C25.9088 190.25 33.1499 187.15 34.6738 186.201C40.3655 182.654 117.146 155.947 148.823 146.496C212.462 127.508 275.077 111.624 319.493 103.194C396.581 88.5673 435.071 81.6143 504.186 69.8251C513.409 68.2521 528.913 65.4615 538.637 63.6221C564.227 58.7835 564.151 58.7531 564.729 74.6255C565.127 85.5085 567.429 84.4863 526.115 91.7813C470.654 101.577 394.551 117.728 384.032 121.939C380.641 123.298 374.656 124.765 370.732 125.202C366.809 125.638 360.304 127.041 356.277 128.318C352.25 129.594 336.408 133.976 321.072 138.06C305.736 142.141 289.9 146.472 285.882 147.684C281.863 148.898 265.435 153.747 249.377 158.461C215.916 168.289 158.864 188.988 119.242 205.678C74.902 224.356 6.33256 260.301 -18.3706 277.818C-24.154 281.92 -31.3749 286.211 -34.4188 287.353C-39.9218 289.421 -39.9881 289.731 -46.6421 344.174C-50.3203 374.282 -52.6507 400.35 -51.8196 402.099C-50.7573 404.334 -48.6627 402.843 -44.7914 397.105C-26.3686 369.79 7.04422 336.342 42.3007 309.917C95.0586 270.375 140.41 245.303 218.746 212.369C252.076 198.357 323.681 172.277 327.524 172.749C327.997 172.807 334.732 170.847 342.488 168.393C378.662 156.947 441.165 140.69 500.648 127.258C509.272 125.309 527.12 121.246 540.308 118.23C553.496 115.211 564.9 113.623 565.65 114.699C566.399 115.775 567.024 121.4 567.034 127.2L567.056 137.747L536.361 145.484C491.42 156.813 461.502 165.045 444.891 170.651C436.816 173.375 424.76 177.013 418.098 178.737C407.658 181.435 331.995 207.291 321.396 211.781C319.355 212.645 303.246 219.195 285.6 226.333C252.175 239.855 198.6 266.843 168.095 285.523C141.837 301.603 96.4454 337.371 78.0431 356.483C55.0303 380.382 34.7829 412.334 27.0652 436.932C6.9655 500.993 38.527 553.336 115.887 584.24C134.302 591.598 143.47 593.697 180.014 598.923C233.09 606.513 259.988 607.151 303.9 601.867C350.031 596.317 390.701 586.836 437.965 570.617C483.697 554.926 516.222 539.398 568.67 508.217C585.951 497.944 650.23 445.3 667.014 427.676C708.295 384.325 738.621 341.741 767.509 286.556C772.578 276.869 778.634 265.488 780.966 261.265C783.296 257.04 793.395 237.721 803.409 218.333C849.416 129.246 878.619 85.3384 921.545 40.7202C941.087 20.4057 979.998 -12.3814 993.125 -19.597C997.572 -22.0403 992.916 -17.2469 982.78 -8.94681C964.813 5.76689 946.885 23.5151 936.941 36.4357C934.232 39.9524 926.458 49.8712 919.664 58.4741C886.727 100.191 862.376 142.462 837.32 201.412C820.158 241.788 820.479 241.009 803.925 282.605C795.418 303.987 784.834 329.045 780.408 338.291C722.903 458.407 648.376 534.953 527.198 598.361C479.116 623.52 403.889 648.977 338.769 662.128C203.334 689.48 58.1338 669.323 -17.8482 612.621C-35.4628 599.475 -58.1405 574.357 -64.1289 561.363C-67.173 554.756 -68.8196 553.211 -70.56 555.331C-71.848 556.9 -76.9565 591.071 -81.917 631.272L-90.9324 704.361L-70.4145 713.939C-18.1044 738.363 15.1646 747.087 91.4769 756.396C132.363 761.384 158.322 763.386 180.299 763.241C212.715 763.03 279.053 757.502 301.79 753.119C309.057 751.719 320.942 749.477 328.202 748.138C363.886 741.555 401.075 730.955 453.372 712.463C520.23 688.82 577.032 658.667 629.894 618.758C682.826 578.795 717.408 542.716 750.443 492.988C767.234 467.713 770.518 461.905 786.375 429.455C801.615 398.265 821.502 339.197 831.826 294.458C845.512 235.163 879.813 130.485 885.337 131.164C887.668 131.45 887.41 133.014 882.656 147.503C875.688 168.734 869.479 199.319 862.288 247.826C835.292 429.894 830.331 452.239 803.538 512.398C777.945 569.858 737.189 628.098 694.828 667.739C592.745 763.266 453.487 828.975 284.007 861.591C271.722 863.957 267.411 865.636 270.044 867.038C272.14 868.15 335.684 876.658 411.251 885.943L548.647 902.825L585.948 879.877C708.121 804.722 790.305 714.168 837.044 603.207C848.136 576.875 861.775 523.094 866.72 486.187C868.508 472.855 871 425.34 870.871 407.035C870.852 404.455 870.913 387.089 871.001 368.442C871.09 349.793 870.778 333.703 870.308 332.682C869.101 330.062 869.505 274.77 870.793 266.444L871.861 259.546L872.972 266.712C873.586 270.653 875.415 284.057 877.036 296.499C878.659 308.94 882.515 334.192 885.604 352.612C904.495 465.243 905.692 474.861 909.557 545.34C910.967 571.062 899.701 655.849 891.175 683.663C865.404 767.746 819.601 846.547 759.616 909.999C753.06 916.935 747.568 923.643 747.413 924.91C747.23 926.397 776.004 930.759 828.674 937.231L910.216 947.25L918.929 927.819C923.72 917.133 929.508 902.818 931.792 896.011C934.073 889.204 937.07 881.664 938.452 879.257C939.831 876.849 945.186 860.11 950.349 842.059C958.054 815.126 960.853 800.13 965.95 758.455C969.365 730.524 971.813 703.939 971.389 699.376C970.967 694.814 970.518 683.461 970.394 674.148C969.68 620.609 956.369 548.306 933.311 472.703C929.126 458.986 924.89 445.813 923.896 443.43C919.255 432.295 898.159 366.245 899.028 365.567C900.385 364.506 907.402 377.16 920.539 404.358C926.662 417.036 938.422 441.187 946.672 458.026C984.69 535.626 999.348 568.521 1013.73 608.515C1018.82 622.671 1023.63 635.387 1024.42 636.773C1025.21 638.159 1028.21 647.489 1031.08 657.507C1033.95 667.524 1037 677.916 1037.87 680.599C1041.08 690.603 1051.38 739.216 1054.68 759.985C1064.64 822.579 1066.1 863.586 1061.11 940.602L1059.49 965.59L1129.74 974.222C1168.37 978.969 1200.03 982.5 1200.08 982.066C1200.26 980.616 1187.1 916.897 1185.61 911.967C1184.8 909.29 1180.64 894.545 1176.36 879.2C1167.12 846.012 1138.51 767.094 1124.36 735.744C1107.4 698.197 1071.93 631.512 1051.69 599.12C1047.76 592.839 1042.85 584.855 1040.78 581.378C1031.21 565.354 990.492 503.239 970.611 474.351C942.635 433.699 942.092 432.81 946.788 435.303C948.924 436.44 950.543 436.069 950.748 434.398C950.967 432.621 952.962 432.297 956.133 433.523C968.36 438.251 1016.38 454.576 1028.74 458.203C1036.21 460.398 1049.42 464.577 1058.09 467.491C1066.76 470.405 1090.16 477.502 1110.09 483.262C1130.02 489.022 1160.57 498.137 1177.97 503.522C1195.36 508.907 1221.94 516.776 1237.01 521.012C1252.09 525.245 1269.91 530.511 1276.62 532.71C1283.33 534.912 1296.98 538.908 1306.97 541.592C1316.96 544.277 1327.17 547.078 1329.66 547.822C1356.49 555.818 1395.46 566.846 1405.03 569.148L1416.99 572.026L1419.82 548.937L1422.66 525.848L1400.33 521.465C1388.05 519.054 1372.86 515.995 1366.57 514.667C1360.28 513.337 1341.24 509.441 1324.25 506.004C1307.25 502.568 1281.52 497.274 1267.06 494.242C1252.6 491.207 1222.24 484.892 1199.59 480.21C1176.95 475.527 1153.28 470.574 1147 469.2C1140.72 467.826 1115.51 462.578 1090.97 457.534C1046.51 448.393 1034.24 445.655 1021.35 442.002C1017.61 440.943 998.635 436.451 979.185 432.023C944.95 424.227 934.639 419.783 933.093 412.152C932.803 410.717 949.253 412.989 976.766 418.183C1039.88 430.096 1192.03 452.191 1318.96 467.873L1428.13 481.36L1430.91 458.664C1432.45 446.179 1433.27 435.408 1432.73 434.727C1432.2 434.045 1424.11 433.329 1414.75 433.14C1405.39 432.949 1368.42 430.894 1332.59 428.572C1296.75 426.252 1260.62 424.017 1252.28 423.605C1224.64 422.242 1065.33 409.559 968.045 400.975L921.931 396.907L918.275 390.87C916.265 387.549 914.716 384.062 914.832 383.118C914.948 382.174 920.516 381.965 927.202 382.655C937.698 383.739 964.667 384.836 1029.3 386.814C1037.65 387.07 1047.15 387.093 1050.4 386.867C1053.66 386.641 1073.14 386.95 1093.71 387.554C1114.27 388.157 1143.24 388.588 1158.09 388.514C1172.93 388.438 1191.87 388.581 1200.17 388.827C1208.46 389.076 1215.9 388.982 1216.69 388.618C1217.48 388.253 1229.15 388.161 1242.62 388.41C1256.09 388.662 1273.99 388.657 1282.41 388.4C1306.68 387.662 1344.99 386.872 1371.76 386.555C1385.32 386.394 1406.26 385.658 1418.28 384.916L1440.14 383.57L1443.21 358.605C1446.72 330.006 1447.72 331.232 1423.78 334.657C1390.67 339.393 1296.61 347.75 1237.73 351.188C1178.12 354.668 1152.35 356.099 1138.54 356.689C1094.3 358.587 1000.28 361.137 957.346 361.608C942.492 361.772 926.062 362.344 920.837 362.881C906.316 364.377 904.717 363.721 900.189 354.418L895.981 345.773L902.489 345.242C906.068 344.951 912.754 344.196 917.346 343.565C921.939 342.934 940.053 341.537 957.599 340.46C1020.61 336.597 1149.99 324.753 1187.69 319.398C1194.91 318.371 1207.23 316.867 1215.07 316.057C1231.36 314.37 1292.51 306.229 1303.29 304.31C1307.25 303.608 1329.33 299.969 1352.37 296.225C1375.4 292.48 1407.51 286.658 1423.73 283.283L1453.22 277.149L1456.69 248.844C1459.44 226.498 1459.51 220.455 1457.03 220.15C1455.29 219.937 1446.7 222.007 1437.93 224.75C1367.91 246.645 1262.13 270.414 1164.81 286.122C1152.96 288.034 1138.41 290.469 1132.48 291.534C1122.74 293.28 1113.53 294.642 1070.37 300.719C1039.14 305.115 972.571 313.476 958.409 314.782C949.928 315.565 931.249 317.424 916.9 318.913C902.551 320.402 890.17 321.543 889.387 321.446C888.603 321.35 886.826 316.863 885.436 311.474C882.973 301.928 883.046 301.64 888.217 300.255C893.428 298.859 921.403 294.134 947.349 290.267C963.454 287.864 1008.57 280.282 1016.8 278.591C1020.11 277.913 1032.51 275.737 1044.37 273.756C1080.88 267.653 1131.72 257.631 1163.34 250.303C1179.94 246.457 1200.04 241.803 1208 239.961C1221.76 236.78 1240.98 231.655 1294.77 216.812C1325 208.472 1398.85 182.765 1438.01 166.951L1468.23 154.75L1472.55 119.688C1474.93 100.404 1476.11 84.0148 1475.18 83.2698C1474.24 82.5228 1465.98 86.4538 1456.81 92.0027C1390.14 132.375 1296.47 172.677 1208.36 198.908C1192.29 203.691 1174.21 209.087 1168.18 210.9C1162.16 212.711 1155.03 214.847 1152.36 215.643C1123.09 224.333 1050.42 241.024 973.795 256.651C922.213 267.171 879.299 275.689 878.433 275.583C877.569 275.477 876.364 269.874 875.762 263.132C874.682 251.041 876.429 247.378 882.957 248.058C886.961 248.477 977.83 227.615 1002.82 220.541C1008.84 218.84 1027.92 213.81 1045.24 209.363C1062.56 204.916 1081.38 199.801 1087.07 197.993C1092.76 196.188 1097.94 194.774 1098.58 194.853C1099.79 195.001 1129.54 185.295 1168.87 171.921C1248.59 144.812 1330.7 105.416 1388.47 66.5581C1412.38 50.4836 1453.6 17.3291 1470 0.991029C1478.88 -7.86096 1486.73 -14.3641 1487.44 -13.4617C1488.14 -12.5597 1495.63 -68.0828 1504.08 -136.846C1512.53 -205.611 1518.59 -261.978 1517.54 -262.107C1516.49 -262.236 1510.41 -267.531 1504.02 -273.871C1491 -286.809 1468.25 -302.995 1451.62 -311.153C1445.54 -314.136 1438.59 -317.753 1436.19 -319.187C1431.79 -321.81 1411.06 -329.932 1392.94 -336.128C1378.81 -340.959 1332.56 -351.112 1313.76 -353.509C1295.07 -355.894 1237.41 -358.267 1220.29 -357.355C1167.97 -354.573 1129.83 -349.495 1080.93 -338.798C1031.07 -327.892 956.594 -300.351 908.938 -275.197C821.937 -229.274 747.241 -162.744 700.864 -89.8667C668.081 -38.3533 650.751 -1.08709 622.88 77.8294C600.17 142.139 571.667 209.363 559.831 226.533C557.599 229.774 555.677 233.146 555.559 234.026C555.094 237.568 534.668 269.124 533.668 267.846C533.078 267.091 535.442 261.156 538.921 254.66C542.401 248.162 547.436 237.316 550.11 230.557C565.394 191.915 575.774 162.923 578.634 150.884C580.421 143.372 583.233 134.191 584.884 130.483C586.538 126.776 592.413 103.774 597.94 79.3691C623.994 -35.6516 641.202 -88.4133 669.565 -140.24C716.922 -226.779 798.392 -304.541 895.387 -355.789C908.492 -362.712 920.353 -369.057 921.745 -369.884C926.09 -372.469 948.392 -382.589 966.454 -390.171C1032.94 -418.08 1118.4 -440.286 1191.63 -448.676C1310.67 -462.314 1436.37 -448.095 1518.92 -411.657C1526.84 -408.158 1534.2 -406.116 1535.43 -407.076C1536.65 -408.027 1538.85 -420.991 1540.31 -435.879L1542.98 -462.951L1284.82 -494.578L1026.66 -526.204L1014.11 -520.745C1007.21 -517.744 1000.93 -515.366 1000.15 -515.462C998.569 -515.656 963.318 -501.149 949.995 -494.82C890.314 -466.466 842.182 -437.047 795.283 -400.26C716.968 -338.828 667.118 -276.722 633.359 -198.531C618.432 -163.952 614.887 -153.641 607.868 -124.344C606.367 -118.085 603.192 -105.295 600.811 -95.9228C594.82 -72.3361 587.717 -13.5156 582.554 55.302C580.079 88.3133 576.77 118.218 574.883 124.65L571.565 135.958L571.249 113.66C570.775 80.1997 569.307 39.5037 566.034 -31.0767C559.436 -173.228 575.091 -259.51 623.832 -349.655C660.289 -417.081 709.507 -474.12 781.679 -532.595C794.892 -543.298 804.202 -552.408 802.953 -553.412C801.729 -554.391 762.876 -559.317 716.609 -564.358L632.485 -573.522L618.92 -552.93C579.537 -493.144 556.765 -445.307 537.261 -381.379C526.713 -346.804 515.146 -239.661 519.289 -214.89C519.948 -210.943 521.014 -198.16 521.655 -186.483C522.296 -174.806 523.362 -162.023 524.023 -158.076C524.688 -154.128 526.855 -141.209 528.846 -129.367C533.953 -98.9359 550.628 -13.2554 553.134 -4.5453C556.208 6.13462 557.179 17.5473 554.745 14.3968C552.165 11.0573 495.619 -145.959 487.207 -173.143C464.422 -246.774 452.219 -316.718 451.492 -377.859C450.822 -434.045 453.639 -466.572 462.965 -510.426C471.42 -550.189 476.564 -570.878 481.655 -585.611L484.178 -592.916L415.866 -601.309C378.295 -605.925 346.998 -608.981 346.317 -608.097C342.974 -603.754 347.427 -530.386 353.805 -484.754C369.613 -371.657 404.161 -274.846 479.729 -131.887C485.921 -120.173 494.232 -104.39 498.196 -96.8158C502.16 -89.2411 508.158 -78.2323 511.521 -72.3505C524.609 -49.4701 513.982 -61.8607 482.174 -106.568C463.912 -132.237 445.52 -158.408 441.307 -164.724C437.093 -171.041 425.035 -188.338 414.515 -203.161C387.103 -241.78 347.987 -304.278 327.137 -342.763C277.257 -434.841 241.798 -520.955 218.914 -605.592C216.392 -614.923 213.823 -623.353 213.206 -624.323C211.677 -626.735 74.834 -644.83 74.5695 -642.658ZM1320.56 -265.721C1323.58 -264.063 1334.15 -259.876 1344.04 -256.416C1390.43 -240.192 1427.75 -206.021 1441.67 -167.037C1451.21 -140.332 1445.19 -96.8606 1427.34 -63.4889C1395.98 -4.86965 1321.97 56.6319 1221.98 107.153C1182.64 127.029 1096.9 161.029 1055.55 173.153C1045.52 176.095 1032.92 179.82 1027.56 181.43C976.476 196.774 891.706 219.461 880.391 220.817C874.55 221.516 873.949 220.871 873.475 213.409C872.478 197.698 874.501 195.116 891.625 190.222C900.315 187.737 926.015 180.429 948.737 173.98C1022.07 153.163 1110.35 119.632 1164 92.2092C1254.44 45.994 1312.06 -2.18898 1342.98 -57.4524C1350.55 -70.9833 1351.96 -75.7989 1354.86 -98.1669C1358.06 -122.811 1357.98 -123.979 1352.06 -139.095C1348.7 -147.652 1341.94 -159.159 1337.05 -164.665C1326.7 -176.295 1302.64 -193.529 1289.89 -198.451C1285.03 -200.328 1277.14 -203.377 1272.36 -205.228C1246.89 -215.098 1184.36 -221.073 1146.91 -217.214C1033.19 -205.504 938.66 -168.841 852.284 -102.945C785.003 -51.6188 736.598 5.52439 684.767 94.8053C673.247 114.653 660.669 136.071 656.821 142.403C652.971 148.731 649.766 154.371 649.697 154.93C649.135 159.502 596.812 239.158 581.319 259.028C520.23 337.378 434.19 398.405 374.273 405.883C358.069 407.906 351.625 404.79 352.768 395.486C354.847 378.562 383.032 356.414 436.983 329.305C465.672 314.892 507.72 296.984 509.012 298.633C509.486 299.242 503.665 307.06 496.074 316.006C483.859 330.402 479.392 333.698 457.159 344.72C404.902 370.624 372.064 403.405 417.986 383.824C436.482 375.935 480.391 343.209 503.916 319.774C548.546 275.318 588.872 216.627 621.14 149.167C682.279 21.3481 708.66 -24.1453 749.642 -72.4279C797.984 -129.384 864.182 -180.307 937.234 -216.732C964.706 -230.43 1003.06 -245.144 1034.15 -253.913C1099.08 -272.228 1152.85 -280.127 1215.67 -280.579C1234.56 -280.714 1313.65 -269.51 1320.56 -265.721ZM1226.8 -156.057C1265.08 -141.931 1282.82 -117.97 1279.87 -84.4106C1277.76 -60.4453 1266.25 -39.7976 1238.72 -10.5954C1188 43.208 1096.96 93.4371 975.88 134.414C930.554 149.754 926.11 151.181 903.237 157.756L883.179 163.523L883.973 157.266C884.41 153.824 885.87 147.267 887.216 142.693C889.659 134.394 889.771 134.338 941.458 116.192C995.309 97.2858 1024.83 85.6363 1038.14 78.0338C1042.44 75.5832 1046.71 73.6713 1047.63 73.7851C1049.82 74.0534 1084.99 55.6265 1109.25 41.5014C1147.57 19.2007 1186.39 -14.8346 1202.63 -40.3607C1222.55 -71.6891 1217.03 -99.9522 1188.03 -115.05C1170.14 -124.361 1131.36 -128.731 1100.88 -124.873C999.604 -112.051 889.439 -46.8916 805.414 49.8818C780.315 78.7896 762.22 103.532 714.216 174.572C694.118 204.319 676.554 230.102 675.188 231.867C673.822 233.632 667.433 242.336 660.988 251.209C633.01 289.733 585.968 338.99 550.304 367.109C510.859 398.209 448.65 431.69 403.791 445.961C360.589 459.704 328.624 463.712 295.001 459.604C267.393 456.231 259.354 452.64 250.172 439.584C244.014 430.83 243.243 427.905 244.466 417.952C249.948 373.335 321.434 317.125 431.127 271.179C456.296 260.635 539.27 231.568 542.916 232.016C544.621 232.226 543.13 237.49 538.629 247.15L531.729 261.965L501.878 273.028C413.46 305.799 351.479 340.48 318.187 375.81C297.625 397.633 295.18 415.987 311.404 426.739C321.307 433.303 333.616 434.649 356.656 431.685C403.663 425.64 464.47 396.504 519.96 353.437C577.838 308.512 614.219 266.058 677.142 170.017C698.241 137.815 717.581 108.033 720.123 103.835C729.851 87.7697 759.647 48.2557 782.856 20.6363C871.589 -84.9447 1004.87 -156.306 1132.47 -166.56C1158.5 -168.653 1207.45 -163.201 1226.8 -156.057ZM1142.24 -84.6572C1153.57 -78.2041 1156.67 -69.8264 1153.25 -54.9133C1145.42 -20.7257 1083.49 27.1356 1000.18 63.3695C992.196 66.8424 982.203 71.2073 977.973 73.0681C960.453 80.7797 904.384 100.927 903.521 99.8202C903.006 99.1618 906.476 91.8773 911.235 83.6312L919.883 68.6393L952.222 55.0378C1029.18 22.6678 1077.66 -7.32179 1095.99 -33.8916C1105.21 -47.2663 1105.77 -51.3124 1099.47 -59.361C1093.27 -67.2898 1085.22 -68.4548 1065.39 -64.2893C1023.46 -55.49 989.729 -38.5875 942.58 -2.75675C878.313 46.0832 838.586 96.4061 756.01 233.597C709.897 310.206 682.69 345.889 634.316 393.199C613.323 413.732 571.143 446.457 543.775 463.444C418.188 541.397 248.139 569.191 160.662 526.062C132.993 512.419 118.239 496.858 109.629 472.234C105.503 460.438 105.444 457.617 108.907 438.171C113.56 412.044 122.369 395.13 145.711 367.505C172.296 336.044 228.75 295.395 286.25 266.317C305.639 256.511 365.564 230.563 384.415 223.811C388.464 222.359 403.919 216.829 418.761 211.518C433.603 206.209 452.844 199.932 461.518 197.573C470.193 195.215 479.484 192.613 482.164 191.792C516.337 181.33 562.053 168.824 562.771 169.741C563.276 170.384 562.255 176.594 560.507 183.542L557.326 196.172L539.917 201.605C504.611 212.624 401.708 249.905 381.254 259.088C274.738 306.908 204.788 360.523 185.527 409.106C172.217 442.686 182.624 468.416 217.176 487.35C227.007 492.738 235.059 494.84 260.352 498.63C287.136 502.64 295.062 502.92 317.567 500.643C354.061 496.955 381.849 490.748 418.851 478.024C497.893 450.843 564.03 407.736 635.122 337.066C661.59 310.754 686.931 276.955 742.855 193.374C770.324 152.319 801.789 107.332 812.776 93.4036C896.596 -12.856 1002.63 -81.5127 1098.65 -91.6998C1109.34 -92.8326 1135.22 -88.6516 1142.24 -84.6572ZM1055.6 -37.1884C1054.57 -28.8235 1017.85 -2.6275 983.533 14.2245C966.635 22.5232 952.362 28.7382 951.813 28.038C948.931 24.3498 990.633 -11.623 1010.16 -22.2952C1016.32 -25.6577 1020.99 -29.7658 1020.56 -31.453C1020.11 -33.2803 1024.04 -35.8943 1030.33 -37.9423C1051.02 -44.679 1056.5 -44.5145 1055.6 -37.1884ZM956.492 444.919C960.452 449.428 970.142 460.76 978.024 470.1C1003.95 500.83 1010.51 508.407 1038.61 540.1C1071.73 577.457 1171.85 704.629 1194.02 737.501C1229.01 789.394 1251.43 825.541 1278.24 873.325C1303.16 917.723 1339.55 992.315 1338.89 997.658C1338.74 998.884 1344.33 1000.59 1351.32 1001.45L1364.03 1003.01L1372.59 933.378C1377.29 895.083 1380.39 864.336 1379.47 865.053C1378.55 865.769 1368.02 854.878 1356.06 840.848C1270.77 740.779 1178.77 646.426 1074.64 552.252C1025.21 507.545 983.029 468.571 979.938 464.754C975.706 459.529 980.959 460.76 986.973 466.403C989.741 468.997 994.414 472.924 997.359 475.127C1069.54 529.125 1192.52 620.827 1203.6 628.915C1208.93 632.803 1214.69 637.438 1216.41 639.214C1218.13 640.992 1225.35 646.629 1232.46 651.741C1239.57 656.854 1251.15 665.662 1258.2 671.314C1305.48 709.255 1360.59 754.141 1372.26 764.214C1379.84 770.757 1387.35 776.267 1388.94 776.457C1391.1 776.721 1392.78 769.033 1395.65 745.647C1397.76 728.509 1398.56 714.373 1397.44 714.235C1396.31 714.097 1379.12 703.568 1359.23 690.839C1339.34 678.107 1318.42 664.892 1312.73 661.47C1307.04 658.047 1299.46 653.326 1295.88 650.979C1292.3 648.632 1276.59 639.017 1260.98 629.613C1245.36 620.206 1224.26 607.287 1214.08 600.901C1197.89 590.741 1172.8 575.58 1151.86 563.302C1148.25 561.186 1138.6 555.384 1130.41 550.407C1122.22 545.43 1115.12 541.309 1114.62 541.248C1113.74 541.14 1092.42 528.136 1067.78 512.681C1061.19 508.549 1045.37 498.894 1032.61 491.223C1019.85 483.554 1003.17 473.299 995.538 468.435C987.905 463.572 978.874 458.639 975.471 457.473C972.068 456.308 969.409 454.315 969.565 453.046C969.866 450.599 980.638 453.792 984.274 457.409C985.424 458.551 987.378 459.827 988.617 460.244C991.497 461.211 999.818 465.402 1009.6 470.811C1013.83 473.151 1036.71 484.45 1060.46 495.919C1084.2 507.389 1113.08 521.506 1124.62 527.289C1136.16 533.073 1155.09 542.233 1166.68 547.644C1178.27 553.056 1189.71 558.699 1192.11 560.186C1194.51 561.671 1218.91 573.528 1246.34 586.536C1273.76 599.543 1309.13 616.66 1324.92 624.576C1340.72 632.489 1358.13 641.121 1363.61 643.753C1369.09 646.387 1379.79 651.875 1387.39 655.946C1394.98 660.019 1402.29 662.849 1403.62 662.237C1404.95 661.627 1407.29 650.968 1408.81 638.55L1411.59 615.973L1377.42 602.982C1358.62 595.834 1338.22 587.931 1332.08 585.417C1325.94 582.901 1306.24 575.724 1288.3 569.467C1270.37 563.208 1252.69 556.785 1249.01 555.193C1242.46 552.356 1193.81 533.619 1160.56 521.124C1138.08 512.68 1043.1 475.472 1020.7 466.335C1010.88 462.327 994.289 455.594 983.843 451.372C973.397 447.151 962.065 442.185 958.661 440.338C949.11 435.151 948.689 436.038 956.492 444.919Z" fill="#090909"/>
</g>
<defs>
<linearGradient id="paint0_linear" x1="0" y1="0" x2="476.125" y2="868.444" gradientUnits="userSpaceOnUse">
<stop stop-color="#3300FF"/>
<stop offset="1" stop-color="#C6B8FF"/>
</linearGradient>
<clipPath id="clip0">
<rect width="1440" height="360" fill="white"/>
</clipPath>
</defs>
</svg>
