<svg width="375" height="250" viewBox="0 0 375 250" fill="none" xmlns="http://www.w3.org/2000/svg">
<path d="M375 0H0V250H375V0Z" fill="url(#paint0_linear)"/>
<path d="M0 179L375 165V250H0V179Z" fill="#FF8A00"/>
<path d="M187.5 148.429C202.02 148.429 213.791 130.665 213.791 108.753C213.791 86.8407 202.02 69.0772 187.5 69.0772C172.98 69.0772 161.209 86.8407 161.209 108.753C161.209 130.665 172.98 148.429 187.5 148.429Z" fill="#F2F6E5"/>
<path d="M187.501 124.528C220.501 124.528 247.254 104.196 247.254 79.1155C247.254 78.4098 247.232 77.708 247.19 77.0103C245.743 91.218 219.573 102.539 187.501 102.539C155.429 102.539 129.258 91.218 127.811 77.0103C127.769 77.708 127.748 78.4098 127.748 79.1155C127.748 104.196 154.5 124.528 187.501 124.528Z" fill="#F2F6E5"/>
<path d="M187.501 102.538C220.502 102.538 247.254 90.5534 247.254 75.7692C247.254 60.985 220.502 49 187.501 49C154.5 49 127.748 60.985 127.748 75.7692C127.748 90.5534 154.5 102.538 187.501 102.538Z" fill="#FFD28F"/>
<path d="M132.527 86.307C133.473 70.8996 157.71 58.5605 187.471 58.5605C217.233 58.5605 241.471 70.9005 242.415 86.309C233.281 95.853 212.119 102.538 187.472 102.538C162.823 102.538 141.66 95.852 132.527 86.307Z" fill="#FF8A00"/>
<path opacity="0.5" fill-rule="evenodd" clip-rule="evenodd" d="M182.242 145.561H191.802V195.778C193.742 197.04 195.332 199.045 196.343 201.499C209.217 202.884 218.572 207.064 218.572 212.006C218.572 218.078 204.446 223 187.022 223C169.598 223 155.473 218.078 155.473 212.006C155.473 207.064 164.827 202.884 177.701 201.499C178.712 199.045 180.303 197.04 182.242 195.778V145.561Z" fill="#F2F6E5"/>
<path fill-rule="evenodd" clip-rule="evenodd" d="M166.708 203.593C152.401 205.289 142 210.426 142 216.5C142 223.956 157.67 230 177 230C194.133 230 208.39 225.252 211.41 218.981C205.624 221.435 196.848 223 187.022 223C169.598 223 155.473 218.078 155.473 212.006C155.473 208.63 159.838 205.61 166.708 203.593Z" fill="#DF7A02"/>
<path d="M140.783 92.522L113 32.4658C114.451 30.1015 117.799 30.6893 118.951 33.2124L147.496 95.694C145.072 94.72 142.826 93.66 140.783 92.522Z" fill="#FF3F3F"/>
<path d="M111.513 30.1046C114.018 28.9423 116.991 30.0306 118.153 32.5355L90.6612 45.2925L88.5566 40.757L111.513 30.1046Z" fill="#FF3F3F"/>
<path d="M90.8324 45.2055C91.7083 44.8037 91.9532 43.4636 91.3793 42.2123C90.8054 40.961 89.63 40.2724 88.7541 40.6741C87.8781 41.0759 87.6332 42.416 88.2071 43.6673C88.781 44.9186 89.9564 45.6072 90.8324 45.2055Z" fill="#FFC7C7"/>
<path fill-rule="evenodd" clip-rule="evenodd" d="M220.365 75.7067C219.58 74.6845 218.143 74 216.5 74C214.015 74 212 75.567 212 77.5C212 77.8534 212.067 78.1945 212.193 78.516C214.425 78.0332 217.313 77.1574 220.365 75.7067ZM212.737 79.4196C213.541 80.3715 214.926 81 216.5 81C218.985 81 221 79.433 221 77.5C221 77.1837 220.946 76.8772 220.845 76.5858C217.851 78.014 215.005 78.9049 212.737 79.4196Z" fill="#FBB040"/>
<path fill-rule="evenodd" clip-rule="evenodd" d="M179.864 94.231C181.262 94.724 182.836 95 184.5 95C190.299 95 195 91.642 195 87.5C195 85.041 193.344 82.859 190.785 81.4912L179.864 94.231ZM188.852 80.6726C187.526 80.2406 186.052 80 184.5 80C178.701 80 174 83.3579 174 87.5C174 89.878 175.55 91.998 177.967 93.372L188.852 80.6726Z" fill="#FBB040"/>
<path fill-rule="evenodd" clip-rule="evenodd" d="M164.389 75.6052C165.358 75.1606 166 74.3839 166 73.5C166 72.1193 164.433 71 162.5 71C162.16 71 161.832 71.0346 161.521 71.0991L164.389 75.6052ZM160.544 71.4265C159.613 71.8757 159 72.6367 159 73.5C159 74.8807 160.567 76 162.5 76C162.812 76 163.114 75.9709 163.401 75.9163L160.544 71.4265Z" fill="#FBB040"/>
<defs>
<linearGradient id="paint0_linear" x1="187.5" y1="0" x2="187.5" y2="250" gradientUnits="userSpaceOnUse">
<stop stop-color="#FBB040"/>
<stop offset="1" stop-color="#FBB040"/>
</linearGradient>
</defs>
</svg>
