<svg width="397" height="250" viewBox="0 0 397 250" fill="none" xmlns="http://www.w3.org/2000/svg">
<path d="M397 0H0V249H397V0Z" fill="#EC4903"/>
<path d="M0 178L397 164V249H0V178Z" fill="#CA3D00"/>
<path d="M192.204 178.065H208.594V250H192.204V178.065Z" fill="#7A391E"/>
<path d="M204.041 178.065H188.561V250H204.041V178.065Z" fill="#672F17"/>
<path d="M222.965 40.1187C222.965 40.1187 211.728 45.0798 208.175 127.839L199.853 130.694L194.199 123.67L195.184 101.973L201.36 66.5851L209.011 37.7262L219.621 31.6926L224.186 39.9757L222.965 40.1187Z" fill="#7A391E"/>
<path d="M173.277 49.8098C173.277 49.8098 162.041 54.7709 158.487 137.531L150.166 140.385L144.512 133.362L145.496 111.664L151.678 76.276L159.329 47.4173L169.933 41.3782L174.498 49.6613L173.277 49.8098Z" fill="#7A391E"/>
<path d="M259.055 121.377C259.055 121.377 249.6 42.0822 233.309 32.6716C233.309 32.6716 226.637 27.221 220.741 26L234.574 61.745L236.257 95.587L243.842 122.411L259.055 121.377Z" fill="#9D4C29"/>
<path d="M197.372 99.927C196.673 96.748 197.993 82.481 197.19 79.323C196.415 76.265 195.584 73.2184 194.671 70.1933C193.824 67.3773 192.911 64.5832 191.888 61.8332C189.1 54.3146 185.002 46.752 178 42.3244C175.586 40.7954 172.968 39.3379 170.234 38.4799C170.047 38.4194 168.744 38.1994 168.694 38.0784L182.527 73.8179L197.372 99.927Z" fill="#9D4C29"/>
<path d="M251.416 122.499C250.08 107.236 247.88 92.051 244.838 77.035C242.721 66.5851 240.18 56.179 236.291 46.2513C234.146 40.7733 231.55 35.3942 227.782 30.8786C225.945 28.6786 223.641 26.5941 220.803 26.2036C218.124 25.8351 215.462 27.0506 213.268 28.6346C204.737 34.7727 200.738 46.0203 197.999 55.761C196.641 60.5901 195.579 65.5016 194.705 70.4407C194.182 73.3832 193.726 76.342 193.324 79.307C192.928 82.249 191.696 86.352 192.169 89.273C192.169 89.273 183.039 32.5396 164.366 38.5787C158.228 40.5643 155.181 45.9158 152.547 51.3829C145.078 66.8601 143.142 84.966 141.25 101.846C140.832 105.586 137.592 142.756 136.905 142.761C140.92 142.723 144.929 142.679 148.944 142.64C148.818 142.635 150.792 107.951 150.974 104.965C151.634 94.091 152.64 83.047 155.033 72.4262C156.182 67.3222 157.051 62.1136 158.569 57.1195C159.675 53.4675 161 48.1709 164.779 46.1523C165.092 45.9873 165.422 45.8553 165.763 45.7618C168.25 45.1073 170.048 49.0729 170.873 50.7394C172.402 53.825 173.486 57.1415 174.47 60.4361C178.463 73.8451 180.713 87.7 182.308 101.577C182.671 104.723 186.906 137.734 184.97 138.053L199.622 136.183C199.842 127.609 200.304 119.034 200.854 110.481C201.888 94.399 203.241 78.24 206.063 62.3611C206.772 58.3515 210.787 32.0611 218.938 35.5372C220.192 36.0707 221.089 37.2037 221.842 38.3422C224.79 42.7918 226.391 47.9894 227.7 53.1704C230.18 62.9551 231.77 72.9487 233.073 82.959C235.07 98.293 236.412 113.699 237.748 129.105C242.297 126.894 246.857 124.699 251.416 122.499Z" fill="#FFD600"/>
<path d="M262.566 117.4L270.151 120.161L264.931 182.186L140.244 201.678L132.099 199.434L126.006 143.459C125.949 142.939 126.304 142.462 126.819 142.368L262.566 117.4Z" fill="#AA3E0F"/>
<path d="M262.566 117.4L256.835 179.144L264.931 182.186L270.151 120.161L262.566 117.4Z" fill="#7A391E"/>
<path d="M264.932 182.186L256.836 179.144L132.099 199.434L140.245 201.678L264.932 182.186Z" fill="#672F17"/>
</svg>
