<svg width="397" height="250" viewBox="0 0 397 250" fill="none" xmlns="http://www.w3.org/2000/svg">
<rect width="397" height="250" fill="#3E25A4"/>
<path d="M0 174.824L397 160V250H0V174.824Z" fill="#21115F"/>
<path d="M273.215 60.7768L103.776 66.0001C102.556 66.0377 101.654 67.1498 101.869 68.3512L126.121 203.964C126.307 205.004 127.271 205.72 128.321 205.598L308.888 184.645C310.12 184.502 310.927 183.282 310.575 182.092L275.194 62.2097C274.937 61.3375 274.124 60.7487 273.215 60.7768Z" fill="#6949E9"/>
<path d="M85.3207 186.94L100.501 72.4515C100.652 71.3201 102.275 71.2827 102.477 72.4059L126.197 204.289C126.339 205.079 125.538 205.707 124.805 205.379L85.9039 187.984C85.4998 187.803 85.2626 187.378 85.3207 186.94Z" fill="#351C9A"/>
<path d="M123.173 186L85.2227 187.679L126.587 205.996L123.173 186Z" fill="#29137E"/>
<ellipse cx="123.097" cy="79.5028" rx="3.04942" ry="3.93944" transform="rotate(-10.5507 123.097 79.5028)" fill="#3E25A4"/>
<ellipse cx="145.685" cy="77.5324" rx="3.11255" ry="3.93944" transform="rotate(-6.96643 145.685 77.5324)" fill="#3E25A4"/>
<ellipse cx="169.28" cy="76.5472" rx="3.15389" ry="3.93944" transform="rotate(-7 169.28 76.5472)" fill="#3E25A4"/>
<ellipse cx="192.198" cy="75.5657" rx="2.8872" ry="3.93944" transform="rotate(-7 192.198 75.5657)" fill="#3E25A4"/>
<ellipse cx="214.704" cy="74.7566" rx="2.99252" ry="3.93944" transform="rotate(-7 214.704 74.7566)" fill="#3E25A4"/>
<ellipse cx="238.411" cy="73.5949" rx="2.96253" ry="3.93944" transform="rotate(-7 238.411 73.5949)" fill="#3E25A4"/>
<ellipse cx="259.969" cy="72.6087" rx="3.07142" ry="3.93944" transform="rotate(-7 259.969 72.6087)" fill="#3E25A4"/>
</svg>
