<svg width="375" height="250" viewBox="0 0 375 250" fill="none" xmlns="http://www.w3.org/2000/svg">
<g clip-path="url(#clip0)">
<path d="M375 0H0V274H375V0Z" fill="#EC4903"/>
<path d="M0 179L375 165V250H0V179Z" fill="#CA3D00"/>
<path d="M180.78 179.065H197.17V251H180.78V179.065Z" fill="#7A391E"/>
<path d="M192.617 179.065H177.137V251H192.617V179.065Z" fill="#672F17"/>
<path d="M211.541 41.1187C211.541 41.1187 200.304 46.0798 196.751 128.839L188.429 131.694L182.775 124.67L183.76 102.973L189.936 67.5851L197.587 38.7262L208.197 32.6926L212.762 40.9757L211.541 41.1187Z" fill="#7A391E"/>
<path d="M161.853 50.8098C161.853 50.8098 150.617 55.7709 147.063 138.531L138.742 141.385L133.088 134.362L134.072 112.664L140.254 77.276L147.905 48.4173L158.509 42.3782L163.074 50.6613L161.853 50.8098Z" fill="#7A391E"/>
<path d="M247.631 122.377C247.631 122.377 238.176 43.0822 221.885 33.6716C221.885 33.6716 215.213 28.221 209.317 27L223.15 62.745L224.833 96.587L232.418 123.411L247.631 122.377Z" fill="#9D4C29"/>
<path d="M185.948 100.927C185.249 97.748 186.569 83.481 185.766 80.323C184.991 77.265 184.16 74.2184 183.247 71.1933C182.4 68.3773 181.487 65.5832 180.464 62.8332C177.676 55.3146 173.578 47.752 166.576 43.3244C164.162 41.7954 161.544 40.3379 158.81 39.4799C158.623 39.4194 157.32 39.1994 157.27 39.0784L171.103 74.8179L185.948 100.927Z" fill="#9D4C29"/>
<path d="M239.992 123.499C238.656 108.236 236.456 93.051 233.414 78.035C231.297 67.5851 228.756 57.179 224.867 47.2513C222.722 41.7733 220.126 36.3942 216.358 31.8786C214.521 29.6786 212.217 27.5941 209.379 27.2036C206.7 26.8351 204.038 28.0506 201.844 29.6346C193.313 35.7727 189.314 47.0203 186.575 56.761C185.217 61.5901 184.155 66.5016 183.281 71.4407C182.758 74.3832 182.302 77.342 181.9 80.307C181.504 83.249 180.272 87.352 180.745 90.273C180.745 90.273 171.615 33.5396 152.942 39.5787C146.804 41.5643 143.757 46.9158 141.123 52.3829C133.654 67.8601 131.718 85.966 129.826 102.846C129.408 106.586 126.168 143.756 125.481 143.761C129.496 143.723 133.505 143.679 137.52 143.64C137.394 143.635 139.368 108.951 139.55 105.965C140.21 95.091 141.216 84.047 143.609 73.4262C144.758 68.3222 145.627 63.1136 147.145 58.1195C148.251 54.4675 149.576 49.1709 153.355 47.1523C153.668 46.9873 153.998 46.8553 154.339 46.7618C156.826 46.1073 158.624 50.0729 159.449 51.7394C160.978 54.825 162.062 58.1415 163.046 61.4361C167.039 74.8452 169.289 88.7 170.884 102.577C171.247 105.723 175.482 138.734 173.546 139.053L188.198 137.183C188.418 128.609 188.88 120.034 189.43 111.481C190.464 95.399 191.817 79.24 194.639 63.3611C195.348 59.3515 199.363 33.0611 207.514 36.5372C208.768 37.0707 209.665 38.2037 210.418 39.3422C213.366 43.7918 214.967 48.9894 216.276 54.1704C218.756 63.9551 220.346 73.9487 221.649 83.959C223.646 99.293 224.988 114.699 226.324 130.105C230.873 127.894 235.433 125.699 239.992 123.499Z" fill="#FFD600"/>
<path d="M251.142 118.4L258.727 121.161L253.507 183.186L128.82 202.678L120.675 200.434L114.582 144.459C114.525 143.939 114.88 143.462 115.395 143.368L251.142 118.4Z" fill="#AA3E0F"/>
<path d="M251.142 118.4L245.411 180.144L253.507 183.186L258.727 121.161L251.142 118.4Z" fill="#7A391E"/>
<path d="M253.508 183.186L245.412 180.144L120.675 200.434L128.821 202.678L253.508 183.186Z" fill="#672F17"/>
</g>
<defs>
<clipPath id="clip0">
<rect width="375" height="250" fill="white"/>
</clipPath>
</defs>
</svg>
