<svg width="1024" height="320" viewBox="0 0 1024 320" fill="none" xmlns="http://www.w3.org/2000/svg">
<g clip-path="url(#clip0)">
<rect width="1024" height="350" fill="#FBB040"/>
<path d="M0 238.664L1024 197V320H0V238.664Z" fill="#FF8A00"/>
<ellipse cx="517.02" cy="134.742" rx="32.1482" ry="48.5145" fill="#F2F6E5"/>
<path d="M517.021 154.031C557.373 154.031 590.085 129.17 590.085 98.5025C590.085 97.6397 590.059 96.7815 590.008 95.9283C588.238 113.302 556.238 127.144 517.021 127.144C477.804 127.144 445.804 113.302 444.034 95.9283C443.983 96.7815 443.957 97.6397 443.957 98.5025C443.957 129.17 476.669 154.031 517.021 154.031Z" fill="#F2F6E5"/>
<ellipse cx="517.021" cy="94.4109" rx="73.064" ry="32.7327" fill="#FFD28F"/>
<path d="M449.801 107.296C450.957 88.4564 480.594 73.3686 516.985 73.3686C553.377 73.3686 583.015 88.4575 584.169 107.299C573 118.969 547.124 127.144 516.986 127.144C486.846 127.144 460.968 118.968 449.801 107.296Z" fill="#FF8A00"/>
<path opacity="0.5" fill-rule="evenodd" clip-rule="evenodd" d="M510.59 179.75H522.281V241.154C524.652 242.697 526.598 245.149 527.833 248.149C543.575 249.843 555.014 254.955 555.014 260.997C555.014 268.422 537.742 274.441 516.436 274.441C495.13 274.441 477.858 268.422 477.858 260.997C477.858 254.954 489.297 249.843 505.039 248.149C506.274 245.149 508.22 242.698 510.59 241.155V179.75Z" fill="#F2F6E5"/>
<path fill-rule="evenodd" clip-rule="evenodd" d="M491.593 250.711C474.1 252.784 461.384 259.066 461.384 266.493C461.384 275.61 480.544 283 504.181 283C525.131 283 542.565 277.194 546.257 269.526C539.182 272.527 528.45 274.441 516.436 274.441C495.13 274.441 477.858 268.422 477.858 260.997C477.858 256.87 483.194 253.177 491.593 250.711Z" fill="#DF7A02"/>
<path d="M459.896 114.896L425.923 41.4607V41.4607C427.697 38.5696 431.791 39.2884 433.201 42.3736L468.104 118.774C465.14 117.584 462.394 116.287 459.896 114.896Z" fill="#FF3F3F"/>
<path d="M424.105 38.5734C427.168 37.1522 430.803 38.483 432.225 41.5459V41.5459L398.608 57.1448L396.035 51.5989L424.105 38.5734Z" fill="#FF3F3F"/>
<ellipse cx="397.547" cy="54.268" rx="2.13369" ry="3.0479" transform="rotate(-24.6386 397.547 54.268)" fill="#FFC7C7"/>
<path fill-rule="evenodd" clip-rule="evenodd" d="M557.275 94.4254C556.33 93.1253 554.537 92.2476 552.48 92.2476C549.441 92.2476 546.978 94.1636 546.978 96.5273C546.978 96.9979 547.075 97.4508 547.256 97.8744C549.997 97.2803 553.536 96.2047 557.275 94.4254ZM547.799 98.7782C548.77 99.9959 550.503 100.807 552.48 100.807C555.519 100.807 557.983 98.8909 557.983 96.5273C557.983 96.1023 557.903 95.6918 557.755 95.3043C554.074 97.0611 550.576 98.1521 547.799 98.7782Z" fill="#FBB040"/>
<path fill-rule="evenodd" clip-rule="evenodd" d="M507.238 116.821C509.055 117.526 511.138 117.926 513.352 117.926C520.442 117.926 526.191 113.82 526.191 108.755C526.191 105.62 523.988 102.852 520.628 101.198L507.238 116.821ZM518.673 100.407C517.052 99.8784 515.25 99.5842 513.352 99.5842C506.261 99.5842 500.512 103.69 500.512 108.755C500.512 111.663 502.407 114.255 505.363 115.935L518.673 100.407Z" fill="#FBB040"/>
<path fill-rule="evenodd" clip-rule="evenodd" d="M488.552 94.2996C489.853 93.775 490.73 92.7788 490.73 91.6362C490.73 89.9479 488.814 88.5792 486.451 88.5792C485.95 88.5792 485.47 88.6406 485.023 88.7534L488.552 94.2996ZM484.059 89.1008C482.92 89.65 482.171 90.5806 482.171 91.6362C482.171 93.3245 484.087 94.6931 486.451 94.6931C486.832 94.6931 487.201 94.6575 487.552 94.5908L484.059 89.1008Z" fill="#FBB040"/>
</g>
<defs>
<clipPath id="clip0">
<rect width="1024" height="320" fill="white"/>
</clipPath>
</defs>
</svg>
