<svg width="1024" height="320" viewBox="0 0 1024 320" fill="none" xmlns="http://www.w3.org/2000/svg">
<g clip-path="url(#clip0)">
<rect width="1024" height="320" fill="white"/>
<path fill-rule="evenodd" clip-rule="evenodd" d="M23.8287 -462.501C23.7417 -461.779 24.392 -461.101 25.2757 -460.992C26.1594 -460.884 33.149 -449.045 40.8078 -434.685C59.2304 -400.142 95.3187 -340.004 106.777 -324.751C107.879 -323.283 117.54 -309.428 128.242 -293.962C154.777 -255.617 182.119 -220.155 207.238 -191.51C218.806 -178.318 233.528 -161.22 239.954 -153.514C246.381 -145.809 260.766 -129.599 271.924 -117.493C283.08 -105.386 293.291 -94.1504 294.613 -92.524C297.106 -89.4603 304.357 -81.4537 321.736 -62.5745C327.307 -56.5222 331.041 -51.384 330.035 -51.1564C329.028 -50.9287 326.34 -52.9341 324.062 -55.6149C321.782 -58.2941 314.163 -65.5065 307.13 -71.6426C300.097 -77.7787 293.608 -83.5161 292.711 -84.3947C286.675 -90.2982 273.507 -102.13 251.044 -121.833C236.81 -134.317 217.049 -151.917 207.129 -160.943C197.209 -169.97 187.523 -178.746 185.604 -180.446C156.699 -206.048 83.916 -277.948 55.4502 -309.019C49.348 -315.678 42.2981 -323.354 39.7837 -326.078C37.2675 -328.802 30.4513 -336.271 24.6358 -342.675C18.8202 -349.078 13.2211 -353.933 12.195 -353.461C11.0788 -352.948 8.86098 -340.666 6.68352 -322.944C3.10976 -293.858 3.11091 -293.246 6.76769 -291.102C8.81733 -289.9 14.8508 -285.328 20.1735 -280.942C33.1514 -270.248 73.066 -238.635 73.6872 -238.558C73.9584 -238.525 80.0458 -233.785 87.2139 -228.024C94.3821 -222.263 100.639 -217.502 101.119 -217.443C101.598 -217.384 105.816 -214.199 110.494 -210.365C115.171 -206.532 136.611 -190.621 158.14 -175.012C179.668 -159.4 201.299 -143.535 206.208 -139.758C211.117 -135.98 223.24 -127.305 233.148 -120.481C262.008 -100.601 315.613 -60.7111 313.931 -60.3659C312.669 -60.1076 286.58 -75.2251 233.28 -107.099C229.639 -109.277 223.31 -113.058 219.214 -115.505C215.118 -117.949 204.303 -124.254 195.18 -129.515C160.55 -149.482 137.486 -162.913 127.631 -168.855C109.258 -179.93 70.3745 -203.212 57.7272 -210.712C49.5318 -215.571 33.605 -225.439 22.333 -232.638C11.0609 -239.838 0.732671 -245.453 -0.617744 -245.117C-2.50667 -244.648 -3.48927 -240.178 -4.8688 -225.799L-6.66271 -207.093L6.75867 -200.674C14.1405 -197.144 29.2357 -189.891 40.3035 -184.557C51.3714 -179.222 63.8609 -173.532 68.0577 -171.909C72.2548 -170.288 77.1795 -168.084 79.0019 -167.013C83.5461 -164.343 120.541 -146.832 162.933 -127.284C206.24 -107.314 231.699 -95.2182 276.218 -73.4639C295.111 -64.231 316.609 -53.7996 323.993 -50.2839C340.396 -42.4713 336.551 -41.4514 318.24 -48.7567C296.413 -57.4664 233.883 -81.3858 205.648 -91.8269C163.373 -107.458 147.811 -113.285 103.759 -129.973C80.8885 -138.637 50.3261 -150.114 35.8424 -155.476C21.3587 -160.839 5.36629 -166.803 0.302418 -168.728C-4.76124 -170.654 -9.6021 -171.907 -10.4567 -171.516C-11.3114 -171.122 -12.9574 -163.089 -14.1158 -153.661L-16.2217 -136.522L-8.05709 -134.303C-3.56727 -133.084 8.62275 -129.828 19.0301 -127.069C44.7679 -120.244 44.3093 -120.372 63.6907 -114.681C92.6453 -106.18 134.566 -94.4651 159.859 -87.8102C173.108 -84.3227 196.3 -77.9084 211.396 -73.5551C236.076 -66.4396 244.793 -63.9863 268.054 -57.6149C271.834 -56.5807 275.969 -55.2299 277.241 -54.6139C278.514 -53.998 286.984 -51.3745 296.063 -48.7808C327.688 -39.7474 343.617 -34.1365 347.472 -30.6694L351.351 -27.1815L346.106 -27.865C343.221 -28.2407 329.978 -31.0461 316.676 -34.1001C303.374 -37.154 275.351 -43.2801 254.403 -47.7153C233.456 -52.1505 214.794 -56.3954 212.932 -57.1493C211.071 -57.9015 197.056 -60.9348 181.788 -63.8896C166.52 -66.8427 145.452 -71.0247 134.971 -73.1803C124.489 -75.3376 97.9516 -80.5377 75.9982 -84.7398C54.0447 -88.9401 29.0899 -94.0132 20.5433 -96.0144C11.9967 -98.0156 -0.730299 -100.371 -7.73976 -101.25L-20.4835 -102.847L-22.1863 -84.8683L-23.8891 -66.8892L137.927 -46.647C226.927 -35.5132 312.533 -24.3083 328.164 -21.7472C354.456 -17.4397 356.897 -16.7458 360.775 -12.4844C363.08 -9.9529 364.528 -7.56934 363.993 -7.18795C363.457 -6.80831 328.602 -9.37134 286.537 -12.8842C189.262 -21.0068 152.403 -23.7131 123.702 -24.8369C111.063 -25.3323 94.7634 -26.0378 87.4813 -26.4037C80.1995 -26.7714 65.8859 -27.3749 55.6739 -27.7477C45.462 -28.1223 23.2444 -28.9445 6.3004 -29.5784C-10.6434 -30.2141 -25.5994 -30.4599 -26.9369 -30.1274C-28.7437 -29.6769 -29.9491 -24.7962 -31.6304 -11.1122C-34.2825 10.4732 -36.926 8.59752 -6.11087 7.00171C31.9156 5.03206 71.6588 3.98132 105.944 4.03805C113.183 4.04908 130.213 3.95533 155.714 3.75964C176.286 3.60427 225.583 4.04858 260.396 4.70612C276.966 5.01896 291.764 4.9349 293.28 4.52142C294.796 4.10794 297.215 3.9384 298.655 4.14374C300.966 4.47385 330.972 5.59292 356.12 6.28377C360.989 6.41876 366.325 6.28653 367.978 5.98922C371.238 5.40495 378.108 15.8845 376.105 18.3817C374.593 20.265 362.75 20.8505 308.038 21.7495C289.369 22.0571 272.079 22.7187 224.159 24.9615C174.222 27.299 160.997 28.0378 149.935 29.1043C143.509 29.7254 131.797 30.7192 123.908 31.315C85.8573 34.1885 76.1075 34.9975 61.0988 36.5249C24.44 40.2578 5.93886 42.3516 -15.9069 45.2393L-38.928 48.2826L-41.3375 67.8926C-42.6627 78.6782 -43.1096 88.0121 -42.332 88.6364C-41.5541 89.259 -23.8165 86.3829 -2.91297 82.2437C17.9888 78.1044 44.0598 73.2834 55.0217 71.5285C65.9835 69.7753 78.6248 67.7246 83.1136 66.9719C87.6021 66.2209 99.4092 64.4545 109.352 63.0463C119.294 61.6381 131.498 59.8939 136.472 59.1688C151.833 56.9288 168.094 55.0707 189.617 53.0981C200.98 52.0578 215.131 50.7338 221.063 50.1567C226.996 49.5796 239.523 48.4553 248.902 47.6558C258.281 46.858 275.66 45.2828 287.522 44.1584C299.383 43.0321 314.342 41.6335 320.764 41.0508C327.186 40.4664 341.746 39.0683 353.119 37.9424C382.939 34.9911 383.581 35.0949 386.807 43.4497C388.288 47.2853 389.018 50.7998 388.428 51.2614C387.837 51.7211 378.548 53.0215 367.783 54.1512C351.176 55.8921 326.136 58.957 281.443 64.7141C276.48 65.3535 264.681 67.0588 255.222 68.5016C245.764 69.9462 233.457 71.6743 227.872 72.3437C222.289 73.0134 214.538 74.2951 210.648 75.1924C203.687 76.7965 191.381 78.9347 164.604 83.1951C146.355 86.0971 74.9822 100.726 72.5861 102.055C71.5378 102.636 68.6404 103.448 66.1476 103.858C58.2683 105.158 -7.51422 122.555 -21.9762 127.165C-29.602 129.596 -38.9344 132.53 -42.7144 133.688L-49.5878 135.792L-52.5738 159.72C-54.2156 172.88 -55.0112 184.068 -54.3425 184.581C-53.672 185.095 -47.621 183.004 -40.8939 179.936C-34.1667 176.867 -24.1233 172.599 -18.5728 170.447C-13.0242 168.297 -7.54016 165.949 -6.38608 165.23C-2.07551 162.544 56.074 142.317 80.0643 135.159C128.261 120.779 175.682 108.749 209.32 102.365C267.702 91.2878 296.853 86.022 349.196 77.0934C356.181 75.9021 367.923 73.7887 375.288 72.3957C394.668 68.7312 394.61 68.7081 395.048 80.729C395.35 88.9712 397.093 88.197 365.804 93.7219C323.801 101.14 266.165 113.372 258.199 116.562C255.63 117.591 251.097 118.702 248.126 119.033C245.154 119.363 240.228 120.426 237.178 121.393C234.129 122.359 222.131 125.678 210.516 128.771C198.901 131.861 186.908 135.142 183.865 136.06C180.821 136.979 168.38 140.652 156.218 144.222C130.876 151.664 87.6684 167.34 57.6615 179.981C24.0806 194.126 -27.8501 221.349 -46.5589 234.616C-50.939 237.723 -56.4077 240.972 -58.7129 241.837C-62.8806 243.403 -62.9308 243.638 -67.9702 284.87C-70.7558 307.672 -72.5208 327.414 -71.8913 328.739C-71.0868 330.432 -69.5005 329.303 -66.5686 324.957C-52.6162 304.27 -27.3112 278.938 -0.609911 258.925C39.346 228.979 73.6925 209.99 133.02 185.048C158.262 174.437 212.492 154.685 215.402 155.042C215.761 155.086 220.862 153.601 226.735 151.743C254.131 143.075 301.468 130.763 346.517 120.59C353.048 119.114 366.565 116.037 376.553 113.753C386.541 111.466 395.178 110.263 395.745 111.078C396.313 111.893 396.786 116.153 396.794 120.546L396.81 128.533L373.564 134.393C339.528 142.974 316.87 149.207 304.289 153.454C298.174 155.517 289.043 158.272 283.998 159.577C276.091 161.621 218.788 181.202 210.761 184.603C209.215 185.257 197.016 190.218 183.651 195.624C158.337 205.865 117.762 226.304 94.6595 240.451C74.7736 252.629 40.3963 279.718 26.4594 294.192C9.03078 312.292 -6.30343 336.491 -12.1484 355.12C-27.3708 403.636 -3.46789 443.278 55.1202 466.682C69.0665 472.255 76.01 473.845 103.686 477.803C143.884 483.551 164.255 484.034 197.511 480.032C232.448 475.829 263.249 468.649 299.044 456.365C333.679 444.482 358.311 432.721 398.033 409.107C411.121 401.327 459.802 361.457 472.513 348.11C503.777 315.278 526.744 283.028 548.622 241.233C552.462 233.897 557.048 225.278 558.814 222.079C560.579 218.88 568.227 204.249 575.811 189.565C610.654 122.095 632.771 88.8424 665.281 55.0511C680.081 39.666 709.55 14.8349 719.492 9.37016C722.859 7.51972 719.333 11.15 711.657 17.436C698.049 28.5794 684.472 42.0208 676.941 51.8062C674.889 54.4696 669.001 61.9815 663.856 68.4969C638.911 100.091 620.469 132.104 601.493 176.75C588.496 207.328 588.739 206.739 576.202 238.241C569.759 254.435 561.744 273.413 558.391 280.414C514.84 371.384 458.398 429.355 366.624 477.377C330.209 496.431 273.237 515.71 223.919 525.671C121.347 546.386 11.3812 531.12 -46.1633 488.177C-59.5036 478.221 -76.6785 459.198 -81.2137 449.356C-83.5191 444.353 -84.7662 443.183 -86.0842 444.789C-87.0597 445.977 -90.9286 471.856 -94.6854 502.302L-101.513 557.655L-85.9741 564.909C-46.3574 583.406 -21.1613 590.014 36.6334 597.064C67.5983 600.842 87.2582 602.357 103.903 602.248C128.452 602.088 178.693 597.902 195.913 594.582C201.417 593.521 210.418 591.824 215.916 590.81C242.941 585.824 271.106 577.797 310.712 563.791C361.347 545.885 404.366 523.049 444.4 492.825C484.488 462.559 510.679 435.234 535.698 397.573C548.414 378.431 550.901 374.033 562.91 349.457C574.452 325.836 589.514 281.101 597.333 247.218C607.698 202.311 633.675 123.034 637.859 123.548C639.624 123.765 639.429 124.949 635.829 135.922C630.551 152.002 625.849 175.165 620.402 211.901C599.958 349.789 596.2 366.712 575.909 412.274C556.526 455.791 525.66 499.898 493.578 529.92C416.266 602.267 310.8 652.031 182.445 676.732C173.141 678.524 169.876 679.797 171.87 680.858C173.458 681.7 221.582 688.144 278.812 695.176L382.868 707.961L411.118 690.582C503.645 633.663 565.887 565.083 601.284 481.047C609.685 461.105 620.014 420.374 623.759 392.423C625.114 382.326 627 346.341 626.903 332.477C626.889 330.524 626.934 317.371 627.002 303.25C627.069 289.126 626.833 276.94 626.477 276.167C625.562 274.182 625.869 232.307 626.844 226.001L627.653 220.777L628.494 226.204C628.959 229.189 630.344 239.341 631.572 248.763C632.801 258.186 635.722 277.31 638.061 291.261C652.368 376.561 653.274 383.845 656.201 437.222C657.27 456.702 648.737 520.915 642.28 541.98C622.763 605.66 588.074 665.339 542.645 713.394C537.679 718.647 533.52 723.728 533.402 724.687C533.264 725.813 555.056 729.117 594.945 734.018L656.701 741.606L663.299 726.89C666.928 718.797 671.312 707.956 673.041 702.801C674.769 697.645 677.039 691.935 678.085 690.112C679.13 688.288 683.185 675.611 687.095 661.94C692.93 641.542 695.05 630.185 698.911 598.623C701.497 577.47 703.351 557.336 703.03 553.88C702.71 550.425 702.37 541.827 702.276 534.774C701.735 494.227 691.655 439.468 674.192 382.211C671.022 371.822 667.814 361.846 667.061 360.041C663.546 351.608 647.569 301.585 648.227 301.072C649.255 300.268 654.57 309.852 664.519 330.45C669.156 340.052 678.062 358.343 684.311 371.095C713.103 429.865 724.205 454.778 735.096 485.067C738.952 495.788 742.596 505.419 743.194 506.468C743.793 507.518 746.06 514.584 748.234 522.171C750.409 529.757 752.721 537.627 753.375 539.66C755.81 547.236 763.609 584.053 766.111 599.782C773.651 647.187 774.758 678.244 770.978 736.571L769.753 755.496L822.955 762.033C852.216 765.628 876.19 768.302 876.23 767.974C876.365 766.876 866.399 718.619 865.266 714.885C864.652 712.857 861.501 701.69 858.265 690.069C851.266 664.934 829.599 605.166 818.879 581.423C806.04 552.987 779.176 502.484 763.842 477.952C760.868 473.195 757.151 467.148 755.579 464.515C748.338 452.379 717.497 405.337 702.441 383.458C681.253 352.671 680.842 351.998 684.398 353.886C686.016 354.747 687.242 354.466 687.398 353.201C687.563 351.855 689.074 351.609 691.476 352.538C700.736 356.119 737.104 368.482 746.463 371.229C752.121 372.891 762.123 376.056 768.69 378.263C775.258 380.47 792.982 385.845 808.077 390.207C823.172 394.569 846.303 401.473 859.479 405.552C872.655 409.63 892.78 415.589 904.198 418.797C915.618 422.003 929.116 425.991 934.194 427.657C939.273 429.324 949.617 432.35 957.183 434.384C964.749 436.417 972.481 438.538 974.366 439.101C994.683 445.157 1024.2 453.509 1031.44 455.253L1040.5 457.432L1042.65 439.946L1044.8 422.46L1027.89 419.14C1018.58 417.314 1007.08 414.997 1002.32 413.992C997.558 412.984 983.133 410.034 970.264 407.431C957.395 404.829 937.905 400.82 926.952 398.523C916 396.224 893.008 391.442 875.858 387.896C858.709 384.35 840.786 380.598 836.029 379.558C831.272 378.517 812.177 374.542 793.596 370.723C759.924 363.799 750.631 361.726 740.866 358.959C738.034 358.157 723.664 354.755 708.934 351.402C683.006 345.498 675.198 342.132 674.027 336.352C673.807 335.266 686.265 336.987 707.102 340.92C754.899 349.943 870.133 366.676 966.263 378.553L1048.94 388.767L1051.05 371.578C1052.21 362.123 1052.83 353.966 1052.43 353.449C1052.02 352.933 1045.89 352.391 1038.81 352.248C1031.72 352.103 1003.72 350.547 976.581 348.789C949.443 347.032 922.074 345.339 915.763 345.026C894.825 343.994 774.179 334.389 700.497 327.888L665.573 324.807L662.804 320.235C661.282 317.72 660.109 315.079 660.197 314.364C660.285 313.649 664.501 313.491 669.565 314.014C677.514 314.834 697.939 315.665 746.889 317.164C753.216 317.357 760.407 317.375 762.871 317.204C765.334 317.032 780.093 317.266 795.668 317.723C811.242 318.18 833.183 318.507 844.425 318.451C855.667 318.393 870.008 318.501 876.292 318.688C882.577 318.876 888.209 318.805 888.808 318.529C889.406 318.253 898.241 318.184 908.442 318.372C918.643 318.563 932.203 318.559 938.577 318.364C956.961 317.805 985.973 317.207 1006.25 316.967C1016.52 316.845 1032.38 316.288 1041.48 315.726L1058.04 314.706L1060.36 295.799C1063.02 274.14 1063.77 275.068 1045.64 277.662C1020.57 281.25 949.333 287.579 904.739 290.182C859.595 292.817 840.077 293.901 829.624 294.349C796.114 295.785 724.908 297.717 692.395 298.073C681.145 298.197 668.702 298.631 664.744 299.038C653.747 300.171 652.536 299.674 649.107 292.629L645.92 286.081L650.849 285.679C653.56 285.458 658.623 284.886 662.101 284.409C665.579 283.931 679.297 282.873 692.586 282.057C740.31 279.132 838.296 270.161 866.843 266.106C872.312 265.328 881.644 264.189 887.581 263.576C899.914 262.298 946.225 256.133 954.395 254.679C957.391 254.147 974.116 251.392 991.561 248.556C1009.01 245.72 1033.33 241.311 1045.61 238.754L1067.94 234.109L1070.57 212.672C1072.65 195.749 1072.7 191.172 1070.82 190.941C1069.51 190.78 1063.01 192.348 1056.36 194.425C1003.34 211.007 923.218 229.008 849.512 240.905C840.542 242.353 829.525 244.197 825.029 245.004C817.652 246.326 810.679 247.357 777.992 251.96C754.337 255.289 703.925 261.621 693.199 262.61C686.776 263.203 672.63 264.611 661.762 265.739C650.895 266.866 641.519 267.73 640.926 267.657C640.333 267.584 638.986 264.186 637.934 260.105C636.069 252.875 636.124 252.657 640.04 251.608C643.987 250.551 665.173 246.972 684.823 244.044C697.02 242.224 731.191 236.482 737.421 235.201C739.926 234.688 749.321 233.04 758.298 231.54C785.955 226.917 824.456 219.327 848.405 213.777C860.974 210.864 876.195 207.34 882.228 205.945C892.647 203.536 907.201 199.655 947.942 188.413C970.838 182.097 1026.77 162.628 1056.42 150.651L1079.31 141.411L1082.58 114.857C1084.38 100.252 1085.28 87.8399 1084.57 87.2757C1083.86 86.71 1077.61 89.6871 1070.66 93.8895C1020.17 124.465 949.231 154.988 882.496 174.853C870.327 178.476 856.636 182.563 852.071 183.936C847.507 185.307 842.112 186.925 840.084 187.527C817.92 194.109 762.885 206.75 704.852 218.585C665.787 226.552 633.286 233.004 632.63 232.923C631.976 232.843 631.063 228.6 630.607 223.493C629.789 214.336 631.112 211.562 636.056 212.077C639.088 212.395 707.908 196.595 726.836 191.237C731.391 189.949 745.847 186.14 758.961 182.772C772.075 179.404 786.331 175.53 790.64 174.161C794.95 172.794 798.872 171.723 799.359 171.783C800.272 171.895 822.806 164.544 852.59 154.416C912.967 133.884 975.155 104.048 1018.91 74.6193C1037.01 62.4453 1068.23 37.3359 1080.65 24.9624C1087.38 18.2584 1093.32 13.3333 1093.86 14.0167C1094.39 14.6998 1100.06 -27.3503 1106.46 -79.4275C1112.86 -131.506 1117.45 -174.196 1116.65 -174.293C1115.86 -174.391 1111.25 -178.401 1106.42 -183.203C1096.55 -193.001 1079.32 -205.259 1066.73 -211.438C1062.12 -213.697 1056.86 -216.437 1055.04 -217.523C1051.72 -219.509 1036.01 -225.66 1022.29 -230.353C1011.59 -234.011 976.559 -241.701 962.319 -243.516C948.166 -245.322 904.497 -247.119 891.531 -246.429C851.909 -244.322 823.027 -240.476 785.989 -232.375C748.231 -224.115 691.825 -203.258 655.733 -184.207C589.843 -149.428 533.273 -99.0415 498.149 -43.8482C473.321 -4.83482 460.196 23.3885 439.089 83.1555C421.889 131.86 400.303 182.772 391.339 195.776C389.649 198.23 388.193 200.783 388.104 201.45C387.751 204.133 372.281 228.031 371.525 227.063C371.078 226.492 372.868 221.997 375.503 217.077C378.138 212.156 381.952 203.942 383.977 198.823C395.552 169.557 403.413 147.6 405.579 138.483C406.932 132.794 409.062 125.84 410.313 123.032C411.565 120.225 416.015 102.805 420.201 84.3216C439.932 -2.78871 452.965 -42.7474 474.445 -81.9982C510.31 -147.538 572.012 -206.43 645.47 -245.243C655.395 -250.486 664.378 -255.291 665.432 -255.918C668.723 -257.875 685.613 -265.54 699.293 -271.282C749.644 -292.419 814.368 -309.236 869.827 -315.59C959.98 -325.919 1055.18 -315.15 1117.7 -287.554C1123.7 -284.904 1129.27 -283.358 1130.21 -284.085C1131.13 -284.805 1132.79 -294.623 1133.9 -305.898L1135.92 -326.401L940.406 -350.354L744.891 -374.305L735.385 -370.171C730.155 -367.898 725.399 -366.098 724.813 -366.17C723.614 -366.317 696.917 -355.331 686.827 -350.537C641.628 -329.064 605.175 -306.783 569.657 -278.923C510.346 -232.398 472.592 -185.362 447.024 -126.145C435.719 -99.9566 433.035 -92.1469 427.719 -69.959C426.583 -65.2189 424.178 -55.533 422.375 -48.4348C417.837 -30.5715 412.458 13.9759 408.548 66.0945C406.673 91.0954 404.168 113.744 402.738 118.615L400.226 127.179L399.986 110.292C399.627 84.9506 398.515 54.1297 396.036 0.676103C391.039 -106.981 402.896 -172.326 439.809 -240.598C467.42 -291.662 504.695 -334.86 559.354 -379.146C569.361 -387.252 576.411 -394.151 575.466 -394.911C574.539 -395.653 545.114 -399.384 510.074 -403.201L446.363 -410.142L436.09 -394.547C406.263 -349.268 389.017 -313.039 374.246 -264.624C366.257 -238.438 357.497 -157.294 360.634 -138.534C361.134 -135.544 361.941 -125.863 362.426 -117.02C362.912 -108.177 363.719 -98.4952 364.22 -95.5057C364.723 -92.5161 366.365 -82.7322 367.872 -73.7633C371.74 -50.7167 384.369 14.173 386.267 20.7695C388.595 28.8579 389.33 37.5012 387.487 35.1151C385.533 32.586 342.708 -86.3291 336.337 -106.917C319.081 -162.681 309.84 -215.653 309.289 -261.958C308.782 -304.51 310.915 -329.144 317.978 -362.356C324.381 -392.47 328.277 -408.139 332.133 -419.297L334.043 -424.83L282.307 -431.186C253.853 -434.682 230.151 -436.997 229.635 -436.327C227.103 -433.038 230.475 -377.473 235.306 -342.914C247.278 -257.26 273.443 -183.941 330.674 -75.6721C335.364 -66.8002 341.657 -54.8477 344.66 -49.111C347.662 -43.3744 352.204 -35.037 354.751 -30.5824C364.663 -13.2541 356.615 -22.638 332.526 -56.4967C318.695 -75.9372 304.766 -95.7572 301.576 -100.541C298.384 -105.325 289.252 -118.425 281.285 -129.651C260.524 -158.899 230.9 -206.232 215.109 -235.378C177.333 -305.113 150.478 -370.331 133.147 -434.43C131.237 -441.496 129.292 -447.881 128.824 -448.616C127.667 -450.442 24.029 -464.146 23.8287 -462.501ZM967.472 -177.03C969.761 -175.775 977.764 -172.604 985.257 -169.983C1020.38 -157.696 1048.65 -131.817 1059.2 -102.293C1066.42 -82.0674 1061.86 -49.1449 1048.34 -23.8711C1024.59 20.5238 968.54 67.1017 892.81 105.364C863.018 120.417 798.088 146.166 766.771 155.349C759.17 157.577 749.631 160.397 745.574 161.616C706.882 173.237 642.682 190.419 634.113 191.446C629.689 191.976 629.234 191.487 628.875 185.836C628.12 173.937 629.652 171.982 642.621 168.275C649.202 166.394 668.666 160.858 685.874 155.974C741.414 140.209 808.268 114.815 848.906 94.0459C917.397 59.0451 961.034 22.554 984.454 -19.2994C990.188 -29.547 991.252 -33.194 993.453 -50.1343C995.875 -68.7987 995.815 -69.6826 991.327 -81.1312C988.783 -87.6117 983.668 -96.3266 979.958 -100.496C972.12 -109.304 953.902 -122.356 944.246 -126.084C940.564 -127.505 934.59 -129.815 930.97 -131.216C911.677 -138.692 864.324 -143.216 835.956 -140.294C749.837 -131.425 678.243 -103.659 612.826 -53.7526C561.871 -14.8813 525.212 28.3957 485.958 96.0121C477.234 111.043 467.707 127.265 464.793 132.06C461.877 136.853 459.45 141.124 459.398 141.547C458.973 145.01 419.346 205.337 407.613 220.385C361.347 279.723 296.185 325.941 250.808 331.605C238.536 333.137 233.655 330.777 234.521 323.731C236.096 310.914 257.441 294.14 298.301 273.609C320.028 262.693 351.873 249.131 352.851 250.38C353.21 250.841 348.802 256.762 343.053 263.537C333.802 274.44 330.419 276.936 313.581 285.284C274.004 304.901 249.134 329.728 283.913 314.899C297.921 308.924 331.175 284.139 348.992 266.391C382.792 232.722 413.333 188.273 437.77 137.182C484.074 40.3797 504.054 5.92551 535.091 -30.641C571.703 -73.7766 621.837 -112.342 677.162 -139.929C697.969 -150.303 727.014 -161.446 750.559 -168.088C799.737 -181.959 840.461 -187.941 888.035 -188.283C902.34 -188.385 962.242 -179.9 967.472 -177.03ZM896.465 -93.9773C925.452 -83.2788 938.894 -65.1317 936.654 -39.7161C935.056 -21.5661 926.339 -5.92867 905.491 16.1875C867.079 56.9352 798.127 94.9759 706.431 126.009C672.103 137.627 668.738 138.708 651.415 143.688L636.224 148.055L636.826 143.317C637.157 140.71 638.263 135.744 639.282 132.279C641.132 125.994 641.217 125.952 680.362 112.209C721.145 97.8907 743.502 89.068 753.586 83.3103C756.837 81.4544 760.072 80.0064 760.774 80.0926C762.427 80.2958 789.065 66.3402 807.442 55.6427C836.457 38.7534 865.858 12.9769 878.155 -6.35509C893.248 -30.0815 889.065 -51.4864 867.1 -62.9209C853.555 -69.9724 824.181 -73.2816 801.097 -70.3598C724.398 -60.6493 640.965 -11.3012 577.329 61.9895C558.321 83.8827 544.617 102.621 508.261 156.423C493.04 178.952 479.738 198.478 478.703 199.815C477.669 201.152 472.83 207.744 467.95 214.464C446.76 243.639 411.133 280.944 384.123 302.239C354.25 325.793 307.136 351.15 273.163 361.957C240.444 372.366 216.236 375.401 190.772 372.29C169.863 369.736 163.774 367.016 156.82 357.128C152.156 350.499 151.573 348.283 152.499 340.745C156.65 306.955 210.79 264.385 293.865 229.588C312.927 221.602 375.767 199.589 378.528 199.928C379.82 200.086 378.69 204.073 375.282 211.389L370.056 222.61L347.448 230.988C280.486 255.807 233.545 282.072 208.331 308.83C192.758 325.357 190.907 339.257 203.194 347.4C210.694 352.371 220.016 353.39 237.465 351.146C273.066 346.568 319.118 324.502 361.143 291.885C404.976 257.861 432.529 225.709 480.183 152.973C496.162 128.585 510.81 106.03 512.735 102.851C520.102 90.6837 542.668 60.758 560.246 39.8407C627.447 -40.1205 728.385 -94.1655 825.026 -101.931C844.737 -103.516 881.806 -99.3877 896.465 -93.9773ZM832.421 -39.9028C841.002 -35.0156 843.351 -28.6707 840.764 -17.3764C834.831 8.51535 787.925 44.7628 724.836 72.2044C718.788 74.8345 711.22 78.1403 708.016 79.5496C694.748 85.3898 652.284 100.648 651.63 99.8101C651.24 99.3115 653.868 93.7946 657.472 87.5494L664.022 76.1954L688.514 65.8944C746.796 41.3792 783.515 18.6667 797.394 -1.45575C804.38 -11.585 804.801 -14.6493 800.033 -20.7449C795.339 -26.7497 789.241 -27.632 774.219 -24.4773C742.468 -17.8132 716.919 -5.01215 681.211 22.124C632.539 59.1127 602.452 97.2245 539.914 201.125C504.99 259.145 484.385 286.169 447.749 321.999C431.851 337.549 399.906 362.333 379.179 375.198C284.066 434.235 155.28 455.285 89.0302 422.622C68.0753 412.29 56.9012 400.504 50.3806 381.855C47.256 372.922 47.2112 370.785 49.8342 356.058C53.3578 336.271 60.0296 323.461 77.7072 302.54C97.8414 278.712 140.597 247.928 184.144 225.905C198.828 218.479 244.212 198.827 258.489 193.714C261.555 192.614 273.26 188.426 284.5 184.404C295.74 180.383 310.313 175.629 316.882 173.842C323.452 172.057 330.488 170.086 332.518 169.464C358.399 161.541 393.022 152.069 393.565 152.764C393.947 153.251 393.174 157.955 391.851 163.217L389.441 172.781L376.257 176.896C349.518 185.241 271.585 213.476 256.094 220.431C175.425 256.647 122.449 297.252 107.862 334.046C97.7816 359.477 105.663 378.964 131.831 393.304C139.277 397.384 145.374 398.976 164.53 401.846C184.815 404.883 190.817 405.096 207.861 403.371C235.5 400.577 256.545 395.877 284.569 386.241C344.43 365.655 394.519 333.008 448.36 279.487C468.405 259.559 487.597 233.962 529.951 170.663C550.754 139.569 574.584 105.499 582.905 94.9505C646.386 14.4754 726.69 -37.5214 799.409 -45.2364C807.504 -46.0944 827.109 -42.9279 832.421 -39.9028ZM766.805 -3.95254C766.027 2.38252 738.217 22.2219 712.227 34.9847C699.43 41.2697 688.62 45.9765 688.204 45.4463C686.021 42.653 717.604 15.4092 732.395 7.32673C737.058 4.78013 740.591 1.66887 740.272 0.39109C739.927 -0.992811 742.908 -2.97247 747.672 -4.52354C763.339 -9.62557 767.487 -9.50096 766.805 -3.95254ZM691.747 361.168C694.747 364.584 702.085 373.165 708.055 380.239C727.693 403.513 732.658 409.251 753.941 433.254C779.025 461.546 854.848 557.859 871.635 582.754C898.138 622.055 915.114 649.431 935.425 685.62C954.296 719.244 981.852 775.736 981.355 779.783C981.241 780.711 985.478 782.002 990.771 782.652L1000.4 783.835L1006.87 731.1C1010.44 702.098 1012.78 678.812 1012.09 679.355C1011.39 679.897 1003.41 671.649 994.358 661.023C929.767 585.236 860.086 513.779 781.23 442.457C743.794 408.598 711.846 379.081 709.504 376.19C706.3 372.233 710.277 373.166 714.832 377.439C716.929 379.404 720.467 382.378 722.698 384.047C777.366 424.942 870.504 494.391 878.895 500.517C882.93 503.461 887.294 506.972 888.595 508.317C889.895 509.664 895.365 513.933 900.751 517.804C906.137 521.676 914.909 528.347 920.245 532.628C956.049 561.362 997.789 595.356 1006.63 602.985C1012.37 607.94 1018.05 612.113 1019.26 612.257C1020.9 612.457 1022.17 606.635 1024.34 588.923C1025.94 575.944 1026.55 565.238 1025.69 565.134C1024.84 565.029 1011.82 557.055 996.759 547.415C981.696 537.772 965.849 527.764 961.542 525.172C957.235 522.58 951.493 519.005 948.781 517.227C946.068 515.449 934.174 508.168 922.349 501.045C910.524 493.921 894.541 484.137 886.831 479.3C874.566 471.606 855.564 460.124 839.706 450.825C836.972 449.223 829.663 444.829 823.463 441.059C817.264 437.29 811.883 434.169 811.505 434.123C810.842 434.041 794.695 424.193 776.031 412.488C771.042 409.359 759.056 402.046 749.394 396.237C739.733 390.429 727.099 382.662 721.319 378.978C715.538 375.296 708.699 371.559 706.121 370.677C703.544 369.794 701.531 368.285 701.649 367.323C701.876 365.47 710.034 367.889 712.788 370.628C713.659 371.493 715.139 372.459 716.077 372.775C718.259 373.508 724.56 376.681 731.968 380.778C735.17 382.55 752.503 391.107 770.486 399.793C788.469 408.48 810.335 419.171 819.078 423.551C827.821 427.931 842.155 434.869 850.933 438.967C859.71 443.066 868.377 447.339 870.193 448.465C872.008 449.59 890.488 458.57 911.259 468.422C932.03 478.272 958.813 491.236 970.776 497.231C982.74 503.224 995.925 509.761 1000.08 511.754C1004.23 513.75 1012.33 517.906 1018.08 520.988C1023.84 524.073 1029.37 526.216 1030.38 525.753C1031.38 525.291 1033.15 517.218 1034.31 507.814L1036.41 490.716L1010.53 480.876C996.297 475.463 980.847 469.478 976.196 467.574C971.546 465.668 956.627 460.233 943.044 455.494C929.46 450.754 916.07 445.89 913.287 444.684C908.327 442.536 871.48 428.345 846.296 418.882C829.271 412.487 757.343 384.308 740.378 377.388C732.935 374.353 720.373 369.253 712.462 366.056C704.551 362.859 695.968 359.098 693.39 357.699C686.157 353.771 685.838 354.443 691.747 361.168Z" fill="#090909"/>
</g>
<defs>
<clipPath id="clip0">
<rect width="1024" height="320" fill="white"/>
</clipPath>
</defs>
</svg>
