<svg width="1440" height="360" viewBox="0 0 1440 360" fill="none" xmlns="http://www.w3.org/2000/svg">
<rect width="1440" height="360" fill="#008FE7"/>
<path d="M699.609 94.0303C669.187 100.648 644.041 121.651 631.462 149.679C631.055 150.576 630.97 151.588 631.219 152.541C631.47 153.494 632.042 154.329 632.834 154.901L641.322 160.983C645.765 148.843 652.88 137.886 662.126 128.943C671.373 120.003 682.507 113.311 694.687 109.378L699.609 94.0303Z" fill="#4CBCFF"/>
<path d="M793.877 289.401L772.458 273.644L762.785 266.527C762.154 266.069 761.409 265.798 760.636 265.743C759.86 265.689 759.085 265.852 758.399 266.218C746.562 272.363 733.451 275.561 720.149 275.544C711.269 275.551 702.442 274.129 694.002 271.33L681.114 280.815C693.417 286.291 706.711 289.112 720.149 289.1C733.592 289.112 746.89 286.288 759.198 280.81L759.217 280.817L776.445 293.468C778.92 295.285 781.896 296.261 784.95 296.261C787.529 296.261 790.059 295.565 792.282 294.241L793.684 293.406C794.024 293.205 794.308 292.921 794.511 292.58C794.714 292.24 794.83 291.854 794.851 291.456C794.869 291.059 794.789 290.662 794.62 290.304C794.449 289.945 794.195 289.634 793.876 289.401H793.877Z" fill="#4CBCFF"/>
<path d="M654.95 296.205C651.932 296.094 649.013 295.073 646.57 293.273C644.127 291.472 642.269 288.974 641.236 286.098C640.126 282.941 640.092 279.499 641.138 276.319L643.563 268.755C643.592 268.658 643.654 268.574 643.736 268.516C643.818 268.458 643.917 268.427 644.016 268.432C644.094 268.431 644.173 268.45 644.241 268.49C644.309 268.531 644.366 268.59 644.402 268.661C646.775 272.819 649.324 276.033 652.42 278.773C653.591 279.815 655.097 280.39 656.655 280.39C657.998 280.393 659.308 279.961 660.394 279.159L750.447 212.889L753.331 221.143C753.847 222.644 753.874 224.275 753.408 225.793C752.942 227.311 752.008 228.638 750.743 229.578L664.183 293.278C661.639 295.175 658.565 296.203 655.405 296.213L654.95 296.205Z" fill="white"/>
<path d="M618.594 160.416C617.44 159.574 616.598 158.364 616.203 156.981C615.809 155.596 615.886 154.117 616.42 152.782C618.051 148.723 620.156 145.327 623.247 141.775C623.308 141.711 623.348 141.629 623.36 141.54C623.372 141.453 623.356 141.362 623.315 141.284C623.283 141.198 623.223 141.125 623.148 141.074C623.071 141.024 622.982 140.998 622.89 141.002H615.334C612.024 140.976 608.801 142.074 606.179 144.122C603.797 146.008 602.024 148.573 601.09 151.486C600.156 154.399 600.102 157.529 600.933 160.472C601.869 163.689 603.839 166.495 606.531 168.445L659.294 207.275C660.235 207.963 660.935 208.936 661.295 210.053C661.657 211.171 661.659 212.375 661.3 213.494L652.59 240.935C655.691 245.19 659.173 249.146 662.991 252.756L674.004 218.099L693.029 232.1C694.274 233.019 695.773 233.512 697.313 233.511C697.742 233.509 698.17 233.473 698.594 233.4C699.828 233.166 700.984 232.623 701.959 231.82L708.574 226.635L618.594 160.416Z" fill="white"/>
<path d="M636.143 190.454C636.143 190.383 636.15 190.311 636.15 190.241L623.231 180.735C622.924 183.932 622.767 187.171 622.762 190.453C622.762 219.84 635.447 246.223 655.575 264.295C656.306 264.958 657.241 265.338 658.221 265.373C659.201 265.407 660.161 265.091 660.935 264.481L669.09 258.001C649.067 242.451 636.143 217.988 636.143 190.454Z" fill="#4CBCFF"/>
<path d="M736.716 81.4961L734.417 74.332C733.42 71.1361 731.394 68.371 728.663 66.478C726.155 64.7652 723.199 63.8504 720.175 63.8507C717.151 63.8509 714.196 64.7664 711.687 66.4796C708.957 68.3723 706.932 71.1369 705.933 74.332L685.785 137.15C685.426 138.27 684.728 139.248 683.785 139.942C682.844 140.633 681.71 141.005 680.546 141.004H651.817C648.773 145.305 646.133 149.884 643.929 154.682H680.158L672.859 177.438C672.376 178.961 672.393 180.6 672.905 182.113C673.417 183.626 674.399 184.931 675.704 185.832L682.803 190.697L717.201 83.4639C717.617 82.1631 718.432 81.0298 719.525 80.2273C720.618 79.4248 721.934 78.9945 723.285 78.9981C723.43 78.9981 723.575 79.0025 723.72 79.0129C728.083 79.3121 731.902 80.2579 736.108 82.0784C736.204 82.1243 736.313 82.1325 736.415 82.1016C736.516 82.0705 736.601 82.0026 736.656 81.9107C736.7 81.8527 736.729 81.784 736.74 81.7115C736.75 81.6387 736.743 81.5646 736.716 81.4961Z" fill="white"/>
<path d="M819.894 154.681C821.329 154.677 822.722 155.162 823.847 156.06C824.974 156.959 825.768 158.215 826.1 159.627C827.09 163.807 827.341 167.926 826.892 172.586C826.883 172.645 826.887 172.707 826.904 172.765C826.923 172.823 826.952 172.876 826.993 172.92C827.04 172.973 827.097 173.016 827.162 173.045C827.225 173.074 827.295 173.091 827.365 173.093C827.459 173.093 827.551 173.059 827.626 172.999L833.814 168.443C836.507 166.493 838.479 163.688 839.413 160.473C840.246 157.527 840.191 154.397 839.256 151.484C838.322 148.57 836.548 146.007 834.164 144.12C831.545 142.073 828.321 140.975 825.012 141.002H759.806C758.643 141.004 757.508 140.632 756.567 139.94C755.626 139.247 754.926 138.268 754.569 137.147L745.844 109.487C740.861 107.854 735.739 106.7 730.543 106.04L741.607 141.004H717.839C716.263 141.009 714.73 141.53 713.47 142.488C712.209 143.445 711.287 144.791 710.84 146.321L708.434 154.681H819.894Z" fill="white"/>
<path d="M804.392 141.002C789.215 114.532 762.251 95.8724 730.759 92.4147C729.789 92.302 728.813 92.5361 727.995 93.0764C727.179 93.6168 726.572 94.4292 726.284 95.3735L723.253 105.44C750.155 106.431 773.812 120.234 788.485 141.002H804.392Z" fill="#4CBCFF"/>
<path d="M779.058 213.497C778.698 212.379 778.696 211.173 779.055 210.055C779.411 208.936 780.11 207.96 781.049 207.268L804.156 190.159C804.136 184.862 803.625 179.579 802.632 174.38L773.437 195.976L766.098 173.098C765.627 171.617 764.706 170.326 763.465 169.41C762.225 168.494 760.731 167.999 759.196 167.996L750.338 168.226L775.073 245.332L779.944 260.233C780.265 261.215 780.876 262.074 781.694 262.694L795.873 273.427C796.089 273.589 796.348 273.678 796.616 273.68C796.884 273.683 797.145 273.599 797.362 273.44C797.581 273.283 797.743 273.06 797.827 272.802C797.91 272.544 797.91 272.266 797.827 272.008L779.058 213.497Z" fill="white"/>
<path d="M787.823 240.827L792.747 256.181C802.881 244.712 810.222 230.997 814.181 216.139C818.141 201.278 818.609 185.685 815.547 170.61C815.354 169.642 814.834 168.773 814.076 168.153C813.316 167.533 812.368 167.2 811.393 167.214L801.008 167.386C804.474 179.837 805.089 192.924 802.803 205.651C800.518 218.379 795.394 230.41 787.823 240.827Z" fill="#4CBCFF"/>
</svg>
