<svg width="375" height="250" viewBox="0 0 375 250" fill="none" xmlns="http://www.w3.org/2000/svg">
<path d="M375 0H0V250H375V0Z" fill="#008FE7"/>
<path d="M241.401 129.415C241.398 129.389 241.397 129.362 241.394 129.334L241.287 129.417L241.401 129.415Z" fill="white"/>
<path d="M175.133 74.6748C157.316 78.5506 142.589 90.8508 135.222 107.266C134.984 107.791 134.934 108.384 135.08 108.942C135.227 109.5 135.562 109.989 136.026 110.324L140.997 113.886C143.599 106.776 147.766 100.359 153.181 95.1218C158.596 89.8858 165.117 85.9669 172.25 83.6635L175.133 74.6748Z" fill="#4CBCFF"/>
<path d="M230.341 189.094L217.797 179.866L212.132 175.698C211.762 175.43 211.326 175.271 210.873 175.239C210.419 175.207 209.965 175.303 209.563 175.517C202.631 179.116 194.952 180.989 187.162 180.979C181.961 180.983 176.792 180.15 171.849 178.511L164.301 184.066C171.506 187.273 179.292 188.925 187.162 188.918C195.035 188.925 202.823 187.271 210.031 184.063L210.042 184.067L220.132 191.476C221.581 192.54 223.324 193.112 225.113 193.112C226.623 193.112 228.105 192.704 229.407 191.929L230.228 191.44C230.427 191.322 230.593 191.156 230.712 190.956C230.831 190.757 230.899 190.531 230.911 190.298C230.922 190.065 230.875 189.833 230.776 189.623C230.676 189.413 230.527 189.231 230.34 189.094H230.341Z" fill="#4CBCFF"/>
<path d="M148.978 193.079C147.21 193.014 145.501 192.416 144.07 191.362C142.639 190.307 141.551 188.844 140.946 187.16C140.296 185.311 140.276 183.295 140.889 181.433L142.309 177.003C142.326 176.946 142.362 176.897 142.41 176.863C142.458 176.829 142.516 176.811 142.574 176.814C142.62 176.813 142.666 176.824 142.706 176.848C142.746 176.872 142.779 176.906 142.8 176.948C144.19 179.383 145.683 181.265 147.496 182.87C148.182 183.48 149.064 183.817 149.976 183.817C150.763 183.819 151.53 183.566 152.166 183.096L204.906 144.285L206.595 149.119C206.897 149.998 206.913 150.953 206.64 151.842C206.367 152.731 205.82 153.508 205.079 154.059L154.385 191.365C152.895 192.476 151.095 193.078 149.244 193.084L148.978 193.079Z" fill="white"/>
<path d="M127.686 113.554C127.01 113.061 126.517 112.352 126.286 111.542C126.055 110.731 126.1 109.865 126.413 109.083C127.368 106.706 128.601 104.717 130.411 102.637C130.447 102.599 130.47 102.551 130.477 102.499C130.484 102.448 130.475 102.395 130.451 102.349C130.432 102.299 130.397 102.256 130.353 102.226C130.308 102.197 130.256 102.182 130.202 102.184H125.777C123.838 102.169 121.951 102.812 120.415 104.011C119.02 105.116 117.982 106.618 117.435 108.324C116.888 110.03 116.856 111.863 117.343 113.587C117.891 115.471 119.045 117.114 120.621 118.256L151.522 140.997C152.073 141.4 152.483 141.97 152.694 142.624C152.906 143.279 152.907 143.984 152.697 144.639L147.596 160.71C149.412 163.202 151.451 165.519 153.687 167.633L160.137 147.336L171.279 155.536C172.008 156.074 172.886 156.363 173.788 156.362C174.039 156.361 174.29 156.34 174.538 156.297C175.261 156.16 175.938 155.842 176.509 155.372L180.383 152.335L127.686 113.554Z" fill="white"/>
<path d="M137.964 131.146C137.964 131.104 137.968 131.062 137.968 131.021L130.402 125.454C130.222 127.326 130.13 129.223 130.127 131.145C130.127 148.356 137.556 163.807 149.344 174.391C149.772 174.779 150.32 175.002 150.894 175.022C151.468 175.042 152.03 174.857 152.483 174.5L157.259 170.705C145.533 161.598 137.964 147.271 137.964 131.146Z" fill="#4CBCFF"/>
<path d="M196.864 67.3341L195.518 63.1384C194.934 61.2667 193.747 59.6473 192.148 58.5387C190.679 57.5356 188.948 56.9998 187.177 57C185.406 57.0001 183.675 57.5363 182.206 58.5396C180.607 59.6481 179.421 61.2672 178.836 63.1384L167.036 99.9278C166.826 100.584 166.417 101.157 165.865 101.563C165.314 101.968 164.65 102.186 163.968 102.185H147.143C145.36 104.704 143.814 107.386 142.523 110.196H163.741L159.466 123.523C159.183 124.415 159.193 125.375 159.493 126.261C159.793 127.147 160.368 127.911 161.132 128.439L165.29 131.288L185.435 68.4865C185.679 67.7247 186.156 67.061 186.796 66.591C187.436 66.121 188.207 65.869 188.998 65.8711C189.083 65.8711 189.168 65.8737 189.253 65.8798C191.808 66.055 194.045 66.6089 196.508 67.6751C196.564 67.702 196.628 67.7068 196.688 67.6887C196.747 67.6705 196.797 67.6307 196.829 67.5769C196.855 67.5429 196.872 67.5027 196.878 67.4602C196.884 67.4176 196.88 67.3742 196.864 67.3341Z" fill="white"/>
<path d="M245.578 110.195C246.418 110.193 247.234 110.477 247.893 111.003C248.553 111.529 249.018 112.265 249.212 113.092C249.792 115.54 249.939 117.952 249.676 120.681C249.671 120.716 249.673 120.752 249.683 120.786C249.694 120.82 249.711 120.851 249.735 120.877C249.763 120.908 249.796 120.933 249.834 120.95C249.871 120.967 249.912 120.977 249.953 120.978C250.008 120.978 250.062 120.958 250.106 120.923L253.73 118.255C255.307 117.113 256.462 115.47 257.009 113.587C257.497 111.862 257.465 110.029 256.917 108.323C256.37 106.616 255.331 105.115 253.935 104.01C252.401 102.811 250.513 102.168 248.575 102.184H210.387C209.706 102.185 209.041 101.967 208.49 101.562C207.939 101.156 207.529 100.583 207.32 99.9258L202.21 83.727C199.292 82.7708 196.292 82.0948 193.249 81.708L199.729 102.185H185.809C184.886 102.188 183.988 102.493 183.25 103.054C182.512 103.615 181.972 104.403 181.71 105.299L180.301 110.195H245.578Z" fill="white"/>
<path d="M236.499 102.184C227.611 86.6816 211.819 75.7536 193.376 73.7286C192.808 73.6626 192.236 73.7997 191.757 74.1161C191.279 74.4326 190.924 74.9084 190.755 75.4614L188.98 81.357C204.735 81.937 218.59 90.0208 227.183 102.184H236.499Z" fill="#4CBCFF"/>
<path d="M221.662 144.641C221.451 143.986 221.45 143.28 221.66 142.625C221.869 141.97 222.278 141.398 222.828 140.993L236.361 130.973C236.349 127.871 236.05 124.777 235.468 121.732L218.37 134.38L214.072 120.981C213.796 120.114 213.257 119.358 212.53 118.821C211.804 118.285 210.929 117.995 210.03 117.993L204.842 118.128L219.328 163.285L222.181 172.012C222.369 172.587 222.727 173.09 223.206 173.453L231.51 179.739C231.636 179.834 231.788 179.886 231.945 179.887C232.102 179.889 232.255 179.84 232.382 179.747C232.51 179.655 232.605 179.524 232.654 179.373C232.703 179.222 232.703 179.059 232.654 178.908L221.662 144.641Z" fill="white"/>
<path d="M226.795 160.647L229.679 169.639C235.614 162.922 239.913 154.89 242.232 146.188C244.551 137.485 244.825 128.353 243.032 119.524C242.919 118.957 242.614 118.448 242.17 118.085C241.725 117.722 241.17 117.527 240.599 117.535L234.517 117.636C236.547 124.928 236.907 132.592 235.568 140.046C234.23 147.5 231.229 154.546 226.795 160.647Z" fill="#4CBCFF"/>
</svg>
