<svg width="1024" height="320" viewBox="0 0 1024 320" fill="none" xmlns="http://www.w3.org/2000/svg">
<g clip-path="url(#clip0)">
<rect width="1024" height="320" fill="#37F057"/>
<path d="M258.947 263.017C258.947 263.017 253.596 263.928 255.355 271.9L272.516 325.833C276.209 337.4 277.27 337.922 278.835 350H315C311.152 338.461 309.424 329.666 307.704 317.617L299.708 261.529C297.873 253.552 292.667 255.126 292.667 255.126L258.947 263.017Z" fill="#31E450"/>
<path d="M228.05 111.785L262.125 104.583C262.125 104.583 267.387 103.124 269.101 111.011L276.256 166.34C276.729 169.882 277.322 173.42 277.964 176.932C278.805 176.064 279.703 175.133 280.669 174.104C283.425 171.094 286.578 167.525 289.732 163.526C291.327 161.531 292.917 159.417 294.443 157.247C296.042 155.096 306.337 138.461 307.846 136.208C309.33 133.907 310.565 131.5 311.928 129.205C313.115 126.824 314.303 124.443 315.312 122.131C315.641 121.24 316 120.397 316.319 119.543C305.671 119.797 267.451 71.0063 267.451 71.0063C267.451 71.0063 312.206 102.247 318.005 114.826C318.508 113.042 319.001 111.294 319.452 109.691C310.715 104.859 315.505 41 315.505 41C315.505 41 330.781 107.583 321.037 109.852C320.756 111.697 320.406 113.642 320.054 115.742C319.902 116.563 319.676 117.365 319.45 118.166C330.719 107.095 378 88.7266 378 88.7266C378 88.7266 325.408 130.043 317.85 123.848C317.093 126.112 316.261 128.356 315.437 130.718C314.293 133.229 313.265 135.89 312.008 138.37C310.706 140.877 300.656 157.776 299.237 160.132C297.88 162.546 296.498 164.913 295.072 167.151C292.295 171.645 289.409 175.68 286.892 179.108C284.313 182.481 282.128 185.295 280.479 187.197C280.411 187.296 280.318 187.348 280.239 187.483C281.388 192.155 282.621 196.809 284.118 201.38L298.342 245.583C298.342 245.583 299.928 250.256 294.601 251.383C289.274 252.51 277.012 255.108 277.012 255.108C277.012 255.108 264.751 257.705 259.424 258.832C254.097 259.958 253.567 255.065 253.567 255.065L248.173 209.01C246.797 197.096 244.275 185.3 240.752 173.817L224.335 120.457C222.62 112.57 228.05 111.785 228.05 111.785Z" fill="#31E450"/>
<path fill-rule="evenodd" clip-rule="evenodd" d="M236.149 1L238.495 15.0669C240.515 27.0904 243.611 38.9776 247.727 50.4614L263.719 94.844C263.719 94.844 265.488 99.5618 260.152 100.897C254.815 102.232 242.583 105.334 242.583 105.334C242.583 105.334 230.349 108.437 225.013 109.772C219.677 111.107 218.976 106.138 218.976 106.138L211.786 59.4969C209.919 47.4649 206.976 35.5309 202.973 24.0022L195 1H236.149Z" fill="#31E450"/>
<g clip-path="url(#clip1)">
<path d="M353.478 241.157C353.078 236.111 349.69 236.59 349.69 236.59L327.971 238.281C327.971 238.281 324.543 238.336 324.943 243.38L330.624 277.887C331.843 285.305 332.379 292.846 332.258 300.366L331.717 329.421C331.717 329.421 331.627 332.503 335.023 332.238C338.42 331.974 346.241 331.363 346.241 331.363C346.241 331.363 354.062 330.753 357.458 330.488C360.855 330.224 360.275 327.194 360.275 327.194L355.194 298.565C353.88 291.164 353.25 283.636 353.296 276.104L353.478 241.157Z" fill="#17B432"/>
<path d="M327.57 236.737C330.966 236.473 338.788 235.862 338.788 235.862C338.788 235.862 346.609 235.252 350.005 234.987C353.402 234.723 352.822 231.693 352.822 231.693L347.741 203.064C346.427 195.663 345.797 188.135 345.843 180.601L346.072 145.649C345.672 140.603 342.284 141.082 342.284 141.082L320.566 142.773C320.566 142.773 317.137 142.827 317.538 147.872L323.218 182.379C324.437 189.797 324.973 197.338 324.852 204.858L324.311 233.913C324.26 233.897 324.173 237.002 327.57 236.737Z" fill="#17B432"/>
<path d="M320.095 141.238C323.491 140.973 331.312 140.363 331.312 140.363C331.312 140.363 339.134 139.753 342.53 139.488C345.926 139.223 345.347 136.194 345.347 136.194L340.266 107.565C338.952 100.163 338.321 92.6349 338.368 85.1027L338.597 50.1491C338.197 45.1037 334.809 45.5828 334.809 45.5828L313.091 47.274C313.091 47.274 309.662 47.3276 310.063 52.373L315.743 86.8804C316.962 94.2969 317.498 101.839 317.377 109.358L316.813 138.418C316.813 138.418 316.698 141.502 320.095 141.238Z" fill="#17B432"/>
<path d="M323.3 44.9438C323.3 44.9438 315.479 45.5539 312.083 45.8186C308.686 46.0832 308.801 42.9986 308.801 42.9986L309.007 0L330.203 4.88169e-05L337.335 40.7746C337.335 40.7746 337.915 43.8043 334.518 44.0689C331.122 44.3337 323.3 44.9438 323.3 44.9438Z" fill="#17B432"/>
<path d="M458.908 74.7809C454.357 74.8549 443.876 75.0263 443.876 75.0263C443.876 75.0263 433.394 75.1977 428.843 75.2717C424.293 75.3458 424.811 79.4674 424.811 79.4674L429.186 118.382C430.317 128.443 430.527 138.617 429.834 148.742L426.597 195.719C426.708 202.537 431.266 202.173 431.266 202.173L445.818 201.937L460.368 201.701C460.368 201.701 464.945 201.914 464.834 195.097L460.153 148.228C459.149 138.155 459.066 127.97 459.859 117.87L463.016 78.8476C463.083 78.8739 463.459 74.7068 458.908 74.7809Z" fill="#17B432"/>
<path d="M460.864 203.805C456.312 203.879 445.831 204.05 445.831 204.05C445.831 204.05 435.35 204.222 430.799 204.296C426.247 204.369 426.767 208.491 426.767 208.491L431.142 247.405C432.273 257.467 432.483 267.641 431.79 277.766L428.553 324.743C428.664 331.561 433.222 331.197 433.222 331.197L447.774 330.961L462.324 330.725C462.324 330.725 466.901 330.938 466.79 324.121L462.108 277.252C461.105 267.179 461.022 256.995 461.814 246.894L465.004 207.869C465.004 207.869 465.415 203.731 460.864 203.805Z" fill="#17B432"/>
<path d="M375.232 59.0405C375.232 59.0405 370.963 59.0414 371.359 52.2628L378.791 0.213196L405.389 0.213199L406.996 54.6617C406.6 61.4403 402.356 60.8684 402.356 60.8684L388.794 59.9544L375.232 59.0405Z" fill="#31E450"/>
<path d="M402.585 62.9972C398.343 62.7116 388.575 62.0549 388.575 62.0549C388.575 62.0549 378.807 61.3981 374.565 61.1125C370.323 60.8269 370.504 64.9607 370.504 64.9607L371.729 103.95C372.046 114.031 371.497 124.151 370.11 134.15L363.659 180.545C363.264 187.324 367.533 187.323 367.533 187.323L381.095 188.237L394.656 189.151C394.656 189.151 398.901 189.724 399.296 182.945L398.369 136.033C398.172 125.95 398.841 115.83 400.317 105.862L406.111 67.3599C406.171 67.3913 406.827 63.2828 402.585 62.9972Z" fill="#31E450"/>
<path d="M394.967 191.279C390.725 190.994 380.958 190.337 380.958 190.337C380.958 190.337 371.19 189.68 366.948 189.395C362.706 189.109 362.887 193.243 362.887 193.243L364.112 232.232C364.428 242.313 363.879 252.434 362.493 262.433L356.042 308.829C355.646 315.606 359.916 315.606 359.916 315.606L373.477 316.52L387.039 317.435C387.039 317.435 391.284 318.006 391.679 311.227L390.752 264.316C390.554 254.233 391.224 244.112 392.699 234.144L398.525 195.642C398.525 195.642 399.209 191.565 394.967 191.279Z" fill="#31E450"/>
<path d="M374.018 318.613C374.018 318.613 383.786 319.27 388.028 319.556C392.269 319.841 391.585 323.918 391.585 323.918L385.411 383.377H357.092L355.947 321.52C355.947 321.52 355.766 317.386 360.008 317.671C364.25 317.957 374.018 318.613 374.018 318.613Z" fill="#31E450"/>
<path d="M666.067 57.2698C666.067 57.2698 661.393 57.322 661.757 50.3703L669.38 1.41858e-06L698.848 0L700.8 52.4003C700.436 59.3522 695.784 58.8171 695.784 58.8171L666.067 57.2698Z" fill="#31E450"/>
<path d="M696.054 60.9962C691.407 60.7545 680.706 60.1987 680.706 60.1987C680.706 60.1987 670.004 59.6432 665.356 59.4014C660.71 59.1598 660.95 63.3942 660.95 63.3942L662.692 103.338C663.143 113.666 662.644 124.044 661.23 134.308L654.645 181.936C654.281 188.888 658.955 188.835 658.955 188.835L688.67 190.382C688.67 190.382 693.324 190.918 693.686 183.966L692.188 135.898C691.869 125.568 692.498 115.188 694.011 104.954L699.96 65.4249C700.026 65.4564 700.702 61.2378 696.054 60.9962Z" fill="#31E450"/>
<path d="M689.03 192.56C684.384 192.318 673.682 191.762 673.682 191.762C673.682 191.762 662.98 191.206 658.332 190.964C653.686 190.723 653.927 194.957 653.927 194.957L655.668 234.902C656.118 245.23 655.621 255.608 654.207 265.871L647.62 313.499C647.257 320.45 651.932 320.398 651.932 320.398L681.647 321.945C681.647 321.945 686.299 322.482 686.663 315.529L685.165 267.462C684.846 257.131 685.474 246.751 686.988 236.517L692.968 196.988C692.968 196.988 693.677 192.801 689.03 192.56Z" fill="#31E450"/>
<path d="M504.325 15.1452C504.325 15.1452 498.226 15.8249 497.8 6.57454L498.322 0.000340904L548.173 0L549.065 4.16254C549.491 13.4129 543.343 13.3122 543.343 13.3122L504.325 15.1452Z" fill="#31E450"/>
<path d="M543.98 16.1615C537.878 16.4486 523.826 17.1107 523.826 17.1107C523.826 17.1107 509.776 17.7729 503.673 18.0599C497.572 18.3469 498.434 23.9211 498.434 23.9211L505.882 76.5718C507.807 90.1854 508.502 103.989 507.982 117.761L505.548 181.671C505.972 190.921 512.072 190.242 512.072 190.242L551.091 188.408C551.091 188.408 557.237 188.509 556.813 179.259L548.631 115.822C546.876 102.189 546.352 88.3651 547.004 74.6204L549.656 21.5142C549.747 21.5471 550.082 15.8745 543.98 16.1615Z" fill="#31E450"/>
<path d="M551.841 191.244C545.739 191.531 531.687 192.193 531.687 192.193C531.687 192.193 517.635 192.856 511.534 193.143C505.431 193.43 506.294 199.004 506.294 199.004L513.743 251.654C515.668 265.268 516.363 279.072 515.843 292.844L513.407 356.754C513.833 366.003 519.933 365.324 519.933 365.324L558.951 363.492C558.951 363.492 565.098 363.591 564.672 354.341L556.491 290.905C554.737 277.271 554.213 263.448 554.865 249.703L557.559 196.592C557.559 196.592 557.943 190.957 551.841 191.244Z" fill="#31E450"/>
<path d="M704.871 288.743C704.871 288.743 710.74 289.736 708.811 298.43L689.99 357.245C685.94 369.859 684.777 370.429 683.061 383.6H643.4C647.62 371.017 649.515 361.425 651.401 348.285L660.171 287.12C662.182 278.421 667.891 280.137 667.891 280.137L704.871 288.743Z" fill="#17B432"/>
<path d="M739.782 121.588L702.609 113.633C702.609 113.633 696.869 112.021 694.999 120.733L687.194 181.849C686.677 185.762 686.03 189.669 685.33 193.549C684.413 192.59 683.433 191.562 682.379 190.425C679.373 187.1 675.933 183.158 672.492 178.741C670.752 176.537 669.017 174.202 667.353 171.805C665.608 169.429 654.378 151.054 652.731 148.565C651.113 146.024 649.766 143.366 648.279 140.83C646.984 138.2 645.688 135.57 644.587 133.016C644.228 132.032 643.837 131.1 643.488 130.157C655.104 130.438 696.799 76.5445 696.799 76.5445C696.799 76.5445 647.975 111.053 641.649 124.948C641.1 122.976 640.562 121.045 640.071 119.275C649.602 113.938 644.376 43.3999 644.376 43.3999C644.376 43.3999 627.712 116.947 638.342 119.453C638.649 121.491 639.029 123.639 639.414 125.959C639.58 126.866 639.826 127.751 640.072 128.636C627.779 116.408 576.2 96.118 576.2 96.118C576.2 96.118 633.574 141.756 641.818 134.912C642.644 137.413 643.551 139.892 644.45 142.502C645.699 145.275 646.82 148.214 648.191 150.954C649.612 153.723 660.575 172.389 662.124 174.992C663.604 177.659 665.111 180.272 666.667 182.745C669.696 187.709 672.845 192.165 675.59 195.952C678.404 199.678 680.787 202.786 682.586 204.887C682.66 204.996 682.763 205.054 682.848 205.204C681.595 210.364 680.25 215.505 678.617 220.553L663.1 269.38C663.1 269.38 661.369 274.541 667.181 275.786C672.992 277.031 686.369 279.901 686.369 279.901C686.369 279.901 699.745 282.769 705.556 284.014C711.367 285.258 711.946 279.853 711.946 279.853L717.83 228.981C719.331 215.821 722.082 202.791 725.925 190.107L743.835 131.167C745.705 122.455 739.782 121.588 739.782 121.588Z" fill="#17B432"/>
<path fill-rule="evenodd" clip-rule="evenodd" d="M428.111 0.212952C428.415 6.70556 428.342 13.2204 427.897 19.7147L424.724 66.6869C424.835 73.5039 429.393 73.1409 429.393 73.1409L443.945 72.905L458.495 72.6693C458.495 72.6693 463.072 72.8815 462.961 66.0643L458.279 19.1961C457.652 12.8962 457.385 6.55242 457.466 0.212952H428.111Z" fill="#17B432"/>
<path d="M548.463 77.015C548.463 77.015 544.75 77.9526 543.611 71.9443L539.012 30.0128C538.028 20.974 535.282 8.73715 532.8 0L559.317 0.000270022C560.216 9.03151 561.678 16.6797 564.056 25.4439L575.135 66.2208C576.276 72.2291 572.458 72.6607 572.458 72.6607L548.463 77.015Z" fill="#17B432"/>
<path d="M573.124 74.4702C569.372 75.1513 560.731 76.7207 560.731 76.7207C560.731 76.7207 552.091 78.2903 548.339 78.9715C544.587 79.6526 545.649 83.2241 545.649 83.2241L555.25 117.015C557.734 125.752 559.471 134.713 560.454 143.751L565.001 185.696C566.141 191.705 569.855 190.767 569.855 190.767L593.85 186.413C593.85 186.413 597.666 185.982 596.527 179.973L585.448 139.196C583.07 130.432 581.436 121.444 580.537 112.413L577.148 77.5075C577.207 77.5217 576.878 73.789 573.124 74.4702Z" fill="#17B432"/>
<path d="M594.582 188.205C590.83 188.885 582.189 190.455 582.189 190.455C582.189 190.455 573.548 192.024 569.796 192.706C566.044 193.386 567.107 196.958 567.107 196.958L576.708 230.749C579.19 239.485 580.929 248.447 581.912 257.485L586.459 299.431C587.599 305.438 591.313 304.501 591.313 304.501L615.308 300.147C615.308 300.147 619.124 299.715 617.984 293.707L606.906 252.93C604.528 244.166 602.892 235.178 601.995 226.148L598.631 191.234C598.631 191.234 598.335 187.523 594.582 188.205Z" fill="#17B432"/>
<path d="M604.241 304.034C604.241 304.034 612.881 302.464 616.633 301.784C620.385 301.102 620.682 304.814 620.682 304.814L624.045 339.727C624.944 348.758 626.578 357.745 628.956 366.509L633.6 383.6H605.323L603.963 371.064C602.981 362.026 601.242 353.065 598.76 344.329L589.157 310.537C589.157 310.537 588.094 306.965 591.848 306.285C595.6 305.603 604.241 304.034 604.241 304.034Z" fill="#17B432"/>
<path fill-rule="evenodd" clip-rule="evenodd" d="M730.308 0.212891L727.76 15.5173C725.566 28.5986 722.203 41.5315 717.733 54.0257L700.365 102.313C700.365 102.313 698.443 107.446 704.239 108.898C710.035 110.35 723.321 113.726 723.321 113.726C723.321 113.726 736.608 117.102 742.403 118.554C748.199 120.007 748.96 114.6 748.96 114.6L756.769 63.856C758.797 50.7655 761.993 37.7816 766.341 25.2387L775 0.212891H730.308Z" fill="#17B432"/>
</g>
</g>
<defs>
<clipPath id="clip0">
<rect width="1024" height="320" fill="white"/>
</clipPath>
<clipPath id="clip1">
<rect width="525" height="350" fill="white" transform="translate(250)"/>
</clipPath>
</defs>
</svg>
