<svg width="1440" height="360" viewBox="0 0 1440 360" fill="none" xmlns="http://www.w3.org/2000/svg">
<g clip-path="url(#clip0)">
<path opacity="0.1" d="M786.5 -16L525.5 162.5L878.5 -16H786.5Z" fill="white"/>
<path opacity="0.1" d="M208.07 -16L497 146L107 -16H208.07Z" fill="white"/>
<rect x="-3" y="-43.1133" width="1446" height="451.875" fill="#0076FF"/>
<path opacity="0.1" d="M313 0L753 171L454.418 0H313Z" fill="white"/>
<path opacity="0.1" d="M634.08 -86L729.924 167.785L785.595 -64.734L634.08 -86Z" fill="white"/>
<path opacity="0.1" d="M908.266 0L753 168L1051 0H908.266Z" fill="white"/>
<path opacity="0.1" d="M1440.18 -52.998L735.533 194.121L1440.18 99.8099V-52.998Z" fill="white"/>
<path opacity="0.1" d="M-3 -37.4648L752.479 202.594H-3V-37.4648Z" fill="white"/>
<ellipse cx="738" cy="202.5" rx="91" ry="91.5" fill="white"/>
<path d="M682.636 213.703L618.224 173.71L574.077 141.716L555.26 146.079H532.825L518.35 135.172L456.833 100.269L443.806 98.8149L438.017 108.995L405.449 135.172L348.275 92.9977L334.524 101.723L290.376 98.8149L266.493 82.0906L226.914 98.8149L186.009 87.0011L162.03 53.7243H136.641L120.42 67.1766L72.4626 53.7243L56.947 34.6077L25.9155 40.9799L-3 14.7832V425.434H266.493V426.263H1171.88V307.504L682.636 213.703Z" fill="#0B6EE1"/>
<path d="M1193.56 189.965L1105.46 171.205L1049.39 145.228L985.315 99.7701L939.261 92.5544L920.572 99.7701L881.192 131.519L848.487 158.938L811.11 174.091L705.652 244.082L567.49 282.325L472.044 319.125H359.912V426.263H1193.56L1443 426.263V158.938L1423.52 189.965L1388.45 196.602L1321.57 171.205L1260.52 189.965H1193.56Z" fill="#0360CD"/>
<path d="M1171.87 372.53L1015.83 350.24L919.747 314.333L880.736 289.917L822.22 275.554L781.763 255.446L759.368 250.419L748.532 261.191L726.136 262.627C721.561 267.894 710.388 278.139 702.296 276.99C694.205 275.841 679.66 288.001 673.399 294.225L666.175 289.917H642.335L604.046 274.117H578.761L531.081 284.89H504.351L411.158 241.083C394.06 240.126 357.843 237.636 349.751 235.338C341.66 233.04 313.63 229.593 300.626 228.157L265.949 199.431L179.771 221.037L150.839 189.984L104.969 199.431L88.7385 178.692L47.8091 167.4L-3 112.35V427.119H265.949L266.007 427.119H1171.87H1443L1443 314.333L1418.99 326.574L1368.86 330.109L1321.56 363.339L1241.07 355.561L1171.87 372.53Z" fill="#0453AF"/>
</g>
<defs>
<clipPath id="clip0">
<rect width="1440" height="360" fill="white"/>
</clipPath>
</defs>
</svg>
