<svg width="397" height="250" viewBox="0 0 397 250" fill="none" xmlns="http://www.w3.org/2000/svg">
<rect width="397" height="250" fill="url(#paint0_linear)"/>
<path d="M0 174.824L397 160V250H0V174.824Z" fill="#FF8A00"/>
<ellipse cx="199.563" cy="115.571" rx="23.6273" ry="35.6558" fill="#F2F6E5"/>
<path d="M199.563 129.747C229.22 129.747 253.262 111.476 253.262 88.9365C253.262 88.3024 253.243 87.6717 253.205 87.0446C251.904 99.8132 228.386 109.986 199.563 109.986C170.741 109.986 147.222 99.8132 145.921 87.0446C145.884 87.6717 145.865 88.3024 145.865 88.9365C145.865 111.476 169.906 129.747 199.563 129.747Z" fill="#F2F6E5"/>
<ellipse cx="199.563" cy="85.929" rx="53.6985" ry="24.0569" fill="#FFD28F"/>
<path d="M150.16 95.3993C151.009 81.5527 172.791 70.464 199.537 70.464C226.283 70.464 248.065 81.5536 248.914 95.4008C240.705 103.978 221.687 109.986 199.537 109.986C177.386 109.986 158.367 103.977 150.16 95.3993Z" fill="#FF8A00"/>
<path opacity="0.5" fill-rule="evenodd" clip-rule="evenodd" d="M194.837 148.649H203.429V193.779C205.172 194.912 206.601 196.715 207.509 198.92C219.079 200.165 227.486 203.921 227.486 208.362C227.486 213.819 214.792 218.242 199.133 218.242C183.474 218.242 170.78 213.819 170.78 208.362C170.78 203.921 179.187 200.165 190.757 198.92C191.665 196.715 193.094 194.912 194.837 193.779V148.649Z" fill="#F2F6E5"/>
<path fill-rule="evenodd" clip-rule="evenodd" d="M180.877 200.802C168.02 202.325 158.673 206.942 158.673 212.401C158.673 219.101 172.755 224.533 190.126 224.533C205.523 224.533 218.336 220.266 221.05 214.63C215.85 216.836 207.963 218.242 199.133 218.242C183.474 218.242 170.78 213.819 170.78 208.362C170.78 205.328 174.703 202.614 180.877 200.802Z" fill="#DF7A02"/>
<path d="M157.579 100.985L132.611 47.0133C133.914 44.8885 136.923 45.4168 137.959 47.6843L163.612 103.835C161.433 102.96 159.415 102.007 157.579 100.985Z" fill="#FF3F3F"/>
<path d="M131.275 44.8913C133.526 43.8468 136.197 44.8249 137.242 47.076L112.536 58.5404L110.644 54.4644L131.275 44.8913Z" fill="#FF3F3F"/>
<ellipse cx="111.755" cy="56.426" rx="1.56816" ry="2.24006" transform="rotate(-24.6386 111.755 56.426)" fill="#FFC7C7"/>
<path fill-rule="evenodd" clip-rule="evenodd" d="M229.066 85.832C228.353 84.9361 227.078 84.3392 225.624 84.3392C223.391 84.3392 221.58 85.7474 221.58 87.4845C221.58 87.7846 221.634 88.0749 221.735 88.3497C223.736 87.9175 226.327 87.1327 229.066 85.832ZM222.279 89.2531C223.007 90.0842 224.234 90.6299 225.624 90.6299C227.858 90.6299 229.668 89.2217 229.668 87.4845C229.668 87.2178 229.625 86.9587 229.545 86.7114C226.865 87.9895 224.316 88.7892 222.279 89.2531Z" fill="#FBB040"/>
<path fill-rule="evenodd" clip-rule="evenodd" d="M192.907 102.591C194.111 102.989 195.452 103.211 196.866 103.211C202.078 103.211 206.303 100.194 206.303 96.4712C206.303 94.3203 204.892 92.4048 202.696 91.1707L192.907 102.591ZM200.778 90.3355C199.586 89.9474 198.262 89.7311 196.866 89.7311C191.655 89.7311 187.43 92.7487 187.43 96.4712C187.43 98.6084 188.823 100.513 190.995 101.748L200.778 90.3355Z" fill="#FBB040"/>
<path fill-rule="evenodd" clip-rule="evenodd" d="M178.885 85.7379C179.704 85.3323 180.241 84.6559 180.241 83.8899C180.241 82.6491 178.833 81.6432 177.096 81.6432C176.829 81.6432 176.57 81.6669 176.323 81.7115L178.885 85.7379ZM175.338 82.0265C174.501 82.4302 173.95 83.1141 173.95 83.8899C173.95 85.1307 175.358 86.1366 177.096 86.1366C177.376 86.1366 177.647 86.1105 177.905 86.0614L175.338 82.0265Z" fill="#FBB040"/>
<defs>
<linearGradient id="paint0_linear" x1="198.5" y1="0" x2="198.5" y2="250" gradientUnits="userSpaceOnUse">
<stop stop-color="#FBB040"/>
<stop offset="1" stop-color="#FBB040"/>
</linearGradient>
</defs>
</svg>
