<svg width="397" height="250" viewBox="0 0 397 250" fill="none" xmlns="http://www.w3.org/2000/svg">
<path d="M397 0H0V250H397V0Z" fill="#008FE7"/>
<path d="M241.401 129.415C241.398 129.389 241.397 129.362 241.394 129.334L241.287 129.417L241.401 129.415Z" fill="white"/>
<path d="M186.133 74.6748C168.316 78.5506 153.589 90.8508 146.222 107.266C145.984 107.791 145.934 108.384 146.08 108.942C146.227 109.5 146.562 109.989 147.026 110.324L151.997 113.886C154.599 106.776 158.766 100.359 164.181 95.1218C169.596 89.8858 176.117 85.9669 183.25 83.6635L186.133 74.6748Z" fill="#4CBCFF"/>
<path d="M241.341 189.094L228.797 179.866L223.132 175.698C222.762 175.43 222.326 175.271 221.873 175.239C221.419 175.207 220.965 175.303 220.563 175.517C213.631 179.116 205.952 180.989 198.162 180.979C192.961 180.983 187.792 180.15 182.849 178.511L175.301 184.066C182.506 187.273 190.292 188.925 198.162 188.918C206.035 188.925 213.823 187.271 221.031 184.063L221.042 184.067L231.132 191.476C232.581 192.54 234.324 193.112 236.113 193.112C237.623 193.112 239.105 192.704 240.407 191.929L241.228 191.44C241.427 191.322 241.593 191.156 241.712 190.956C241.831 190.757 241.899 190.531 241.911 190.298C241.922 190.065 241.875 189.833 241.776 189.623C241.676 189.413 241.527 189.231 241.34 189.094H241.341Z" fill="#4CBCFF"/>
<path d="M159.978 193.079C158.21 193.014 156.501 192.416 155.07 191.362C153.639 190.307 152.551 188.844 151.946 187.16C151.296 185.311 151.276 183.295 151.889 181.433L153.309 177.003C153.326 176.946 153.362 176.897 153.41 176.863C153.458 176.829 153.516 176.811 153.574 176.814C153.62 176.813 153.666 176.824 153.706 176.848C153.746 176.872 153.779 176.906 153.8 176.948C155.19 179.383 156.683 181.265 158.496 182.87C159.182 183.48 160.064 183.817 160.976 183.817C161.763 183.819 162.53 183.566 163.166 183.096L215.906 144.285L217.595 149.119C217.897 149.998 217.913 150.953 217.64 151.842C217.367 152.731 216.82 153.508 216.079 154.059L165.385 191.365C163.895 192.476 162.095 193.078 160.244 193.084L159.978 193.079Z" fill="white"/>
<path d="M138.686 113.554C138.01 113.061 137.517 112.352 137.286 111.542C137.055 110.731 137.1 109.865 137.413 109.083C138.368 106.706 139.601 104.717 141.411 102.637C141.447 102.599 141.47 102.551 141.477 102.499C141.484 102.448 141.475 102.395 141.451 102.349C141.432 102.299 141.397 102.256 141.353 102.226C141.308 102.197 141.256 102.182 141.202 102.184H136.777C134.838 102.169 132.951 102.812 131.415 104.011C130.02 105.116 128.982 106.618 128.435 108.324C127.888 110.03 127.856 111.863 128.343 113.587C128.891 115.471 130.045 117.114 131.621 118.256L162.522 140.997C163.073 141.4 163.483 141.97 163.694 142.624C163.906 143.279 163.907 143.984 163.697 144.639L158.596 160.71C160.412 163.202 162.451 165.519 164.687 167.633L171.137 147.336L182.279 155.536C183.008 156.074 183.886 156.363 184.788 156.362C185.039 156.361 185.29 156.34 185.538 156.297C186.261 156.16 186.938 155.842 187.509 155.372L191.383 152.335L138.686 113.554Z" fill="white"/>
<path d="M148.964 131.146C148.964 131.104 148.968 131.062 148.968 131.021L141.402 125.454C141.222 127.326 141.13 129.223 141.127 131.145C141.127 148.356 148.556 163.807 160.344 174.391C160.772 174.779 161.32 175.002 161.894 175.022C162.468 175.042 163.03 174.857 163.483 174.5L168.259 170.705C156.533 161.598 148.964 147.271 148.964 131.146Z" fill="#4CBCFF"/>
<path d="M207.864 67.3341L206.518 63.1384C205.934 61.2667 204.747 59.6473 203.148 58.5387C201.679 57.5356 199.948 56.9998 198.177 57C196.406 57.0001 194.675 57.5363 193.206 58.5396C191.607 59.6481 190.421 61.2672 189.836 63.1384L178.036 99.9278C177.826 100.584 177.417 101.157 176.865 101.563C176.314 101.968 175.65 102.186 174.968 102.185H158.143C156.36 104.704 154.814 107.386 153.523 110.196H174.741L170.466 123.523C170.183 124.415 170.193 125.375 170.493 126.261C170.793 127.147 171.368 127.911 172.132 128.439L176.29 131.288L196.435 68.4865C196.679 67.7247 197.156 67.061 197.796 66.591C198.436 66.121 199.207 65.869 199.998 65.8711C200.083 65.8711 200.168 65.8737 200.253 65.8798C202.808 66.055 205.045 66.6089 207.508 67.6751C207.564 67.702 207.628 67.7068 207.688 67.6887C207.747 67.6705 207.797 67.6307 207.829 67.5769C207.855 67.5429 207.872 67.5027 207.878 67.4602C207.884 67.4176 207.88 67.3742 207.864 67.3341Z" fill="white"/>
<path d="M256.578 110.195C257.418 110.193 258.234 110.477 258.893 111.003C259.553 111.529 260.018 112.265 260.212 113.092C260.792 115.54 260.939 117.952 260.676 120.681C260.671 120.716 260.673 120.752 260.683 120.786C260.694 120.82 260.711 120.851 260.735 120.877C260.763 120.908 260.796 120.933 260.834 120.95C260.871 120.967 260.912 120.977 260.953 120.978C261.008 120.978 261.062 120.958 261.106 120.923L264.73 118.255C266.307 117.113 267.462 115.47 268.009 113.587C268.497 111.862 268.465 110.029 267.917 108.323C267.37 106.616 266.331 105.115 264.935 104.01C263.401 102.811 261.513 102.168 259.575 102.184H221.387C220.706 102.185 220.041 101.967 219.49 101.562C218.939 101.156 218.529 100.583 218.32 99.9258L213.21 83.727C210.292 82.7708 207.292 82.0948 204.249 81.708L210.729 102.185H196.809C195.886 102.188 194.988 102.493 194.25 103.054C193.512 103.615 192.972 104.403 192.71 105.299L191.301 110.195H256.578Z" fill="white"/>
<path d="M247.499 102.184C238.611 86.6816 222.819 75.7536 204.376 73.7286C203.808 73.6626 203.236 73.7997 202.757 74.1161C202.279 74.4326 201.924 74.9084 201.755 75.4614L199.98 81.357C215.735 81.937 229.59 90.0208 238.183 102.184H247.499Z" fill="#4CBCFF"/>
<path d="M232.662 144.641C232.451 143.986 232.45 143.28 232.66 142.625C232.869 141.97 233.278 141.398 233.828 140.993L247.361 130.973C247.349 127.871 247.05 124.777 246.468 121.732L229.37 134.38L225.072 120.981C224.796 120.114 224.257 119.358 223.53 118.821C222.804 118.285 221.929 117.995 221.03 117.993L215.842 118.128L230.328 163.285L233.181 172.012C233.369 172.587 233.727 173.09 234.206 173.453L242.51 179.739C242.636 179.834 242.788 179.886 242.945 179.887C243.102 179.889 243.255 179.84 243.382 179.747C243.51 179.655 243.605 179.524 243.654 179.373C243.703 179.222 243.703 179.059 243.654 178.908L232.662 144.641Z" fill="white"/>
<path d="M237.795 160.647L240.679 169.639C246.614 162.922 250.913 154.89 253.232 146.188C255.551 137.485 255.825 128.353 254.032 119.524C253.919 118.957 253.614 118.448 253.17 118.085C252.725 117.722 252.17 117.527 251.599 117.535L245.517 117.636C247.547 124.928 247.907 132.592 246.568 140.046C245.23 147.5 242.229 154.546 237.795 160.647Z" fill="#4CBCFF"/>
</svg>
