<svg width="1440" height="360" viewBox="0 0 1440 360" fill="none" xmlns="http://www.w3.org/2000/svg">
<rect width="1440" height="360" fill="#3E25A4"/>
<path d="M0 272.713L1440 228V360H0V272.713Z" fill="#21115F"/>
<path d="M848.543 74.347L558.367 83.2924C557.147 83.33 556.245 84.442 556.46 85.6435L598.124 318.617C598.31 319.658 599.274 320.374 600.323 320.252L909.64 284.357C910.872 284.214 911.679 282.995 911.327 281.805L850.523 75.7799C850.266 74.9077 849.452 74.319 848.543 74.347Z" fill="#6949E9"/>
<path d="M528.598 288.958L555.01 89.7656C555.16 88.6342 556.784 88.5968 556.986 89.7201L598.255 319.176C598.397 319.967 597.596 320.594 596.863 320.266L529.181 290.002C528.777 289.822 528.54 289.397 528.598 288.958Z" fill="#351C9A"/>
<path d="M592.892 286.848L528.5 289.698L598.683 320.776L592.892 286.848Z" fill="#29137E"/>
<ellipse cx="592.761" cy="106.153" rx="5.17399" ry="6.6841" transform="rotate(-10.5507 592.761 106.153)" fill="#3E25A4"/>
<ellipse cx="631.087" cy="102.81" rx="5.2811" ry="6.6841" transform="rotate(-6.96643 631.087 102.81)" fill="#3E25A4"/>
<ellipse cx="671.121" cy="101.138" rx="5.35124" ry="6.6841" transform="rotate(-7 671.121 101.138)" fill="#3E25A4"/>
<ellipse cx="710.007" cy="99.4729" rx="4.89875" ry="6.6841" transform="rotate(-7 710.007 99.4729)" fill="#3E25A4"/>
<ellipse cx="748.193" cy="98.0997" rx="5.07744" ry="6.6841" transform="rotate(-7 748.193 98.0997)" fill="#3E25A4"/>
<ellipse cx="788.417" cy="90.4311" rx="5.02656" ry="6.6841" transform="rotate(-7 788.417 90.4311)" fill="#3E25A4"/>
<ellipse cx="824.994" cy="88.7574" rx="5.21131" ry="6.6841" transform="rotate(-7 824.994 88.7574)" fill="#3E25A4"/>
</svg>
