<svg width="375" height="250" viewBox="0 0 375 250" fill="none" xmlns="http://www.w3.org/2000/svg">
<g clip-path="url(#clip0)">
<path d="M375 0H0V274H375V0Z" fill="#3E25A4"/>
<path d="M0 179L375 165V250H0V179Z" fill="#21115F"/>
<path d="M257.988 73.001L98.1527 77.9282C96.9328 77.9662 96.0307 79.0782 96.2456 80.2792L119.113 208.148C119.299 209.188 120.262 209.904 121.312 209.782L291.639 190.017C292.872 189.874 293.678 188.654 293.326 187.464L259.968 74.4339C259.71 73.5617 258.897 72.973 257.988 73.001Z" fill="#6949E9"/>
<path d="M80.5981 192.129L94.8855 84.3782C95.0355 83.2462 96.659 83.2092 96.861 84.3322L119.185 208.454C119.327 209.245 118.526 209.872 117.793 209.544L81.1812 193.173C80.7771 192.992 80.5399 192.567 80.5981 192.129Z" fill="#351C9A"/>
<path d="M116.348 191.282L80.5 192.868L119.572 210.17L116.348 191.282Z" fill="#29137E"/>
<path d="M116.956 94.3454C118.52 94.0541 119.483 92.1801 119.107 90.1597C118.73 88.1393 117.158 86.7376 115.594 87.0289C114.03 87.3202 113.067 89.1942 113.443 91.2146C113.82 93.2349 115.392 94.6367 116.956 94.3454Z" fill="#3E25A4"/>
<path d="M138.063 92.5188C139.675 92.3219 140.78 90.5085 140.53 88.4686C140.281 86.4286 138.772 84.9345 137.161 85.1315C135.549 85.3284 134.444 87.1418 134.694 89.1817C134.943 91.2217 136.452 92.7157 138.063 92.5188Z" fill="#3E25A4"/>
<path d="M160.352 91.5885C161.986 91.388 163.106 89.5719 162.856 87.5321C162.605 85.4923 161.079 84.0012 159.445 84.2018C157.812 84.4023 156.692 86.2184 156.942 88.2582C157.193 90.298 158.719 91.7891 160.352 91.5885Z" fill="#3E25A4"/>
<path d="M182 90.6615C183.495 90.478 184.504 88.6756 184.254 86.6358C184.003 84.596 182.588 83.0912 181.093 83.2748C179.599 83.4583 178.59 85.2607 178.84 87.3005C179.091 89.3403 180.505 90.8451 182 90.6615Z" fill="#3E25A4"/>
<path d="M203.259 89.8966C204.809 89.7063 205.862 87.8985 205.612 85.8587C205.361 83.8189 203.902 82.3195 202.352 82.5098C200.803 82.7 199.75 84.5078 200 86.5476C200.251 88.5874 201.71 90.0868 203.259 89.8966Z" fill="#3E25A4"/>
<path d="M225.653 88.7996C227.187 88.6112 228.228 86.8049 227.977 84.7651C227.727 82.7253 226.28 81.2244 224.746 81.4128C223.213 81.6011 222.172 83.4074 222.422 85.4472C222.673 87.487 224.12 88.9879 225.653 88.7996Z" fill="#3E25A4"/>
<path d="M246.015 87.8675C247.606 87.6723 248.692 85.8604 248.442 83.8206C248.191 81.7808 246.699 80.2855 245.109 80.4808C243.518 80.676 242.432 82.4879 242.682 84.5277C242.933 86.5675 244.425 88.0628 246.015 87.8675Z" fill="#3E25A4"/>
</g>
<defs>
<clipPath id="clip0">
<rect width="375" height="250" fill="white"/>
</clipPath>
</defs>
</svg>
