<svg width="1024" height="320" viewBox="0 0 1024 320" fill="none" xmlns="http://www.w3.org/2000/svg">
<rect width="1024" height="320" fill="#008FE7"/>
<path d="M494.47 85.9855C468.276 91.6837 446.624 109.768 435.793 133.901C435.443 134.673 435.37 135.545 435.584 136.365C435.8 137.185 436.293 137.904 436.975 138.397L444.283 143.634C448.109 133.18 454.235 123.746 462.196 116.047C470.157 108.349 479.745 102.587 490.232 99.2007L494.47 85.9855Z" fill="#4CBCFF"/>
<path d="M575.638 254.205L557.195 240.638L548.867 234.51C548.323 234.116 547.682 233.882 547.016 233.835C546.348 233.788 545.681 233.929 545.09 234.244C534.898 239.535 523.609 242.289 512.156 242.274C504.509 242.28 496.91 241.055 489.642 238.645L478.545 246.812C489.138 251.527 500.585 253.956 512.156 253.946C523.731 253.956 535.181 251.524 545.778 246.808L545.794 246.814L560.628 257.707C562.759 259.271 565.321 260.112 567.951 260.112C570.171 260.112 572.35 259.512 574.264 258.373L575.471 257.654C575.764 257.48 576.008 257.236 576.183 256.942C576.358 256.649 576.458 256.317 576.476 255.975C576.492 255.632 576.423 255.291 576.277 254.982C576.13 254.674 575.911 254.406 575.636 254.205H575.638Z" fill="#4CBCFF"/>
<path d="M456.018 260.063C453.418 259.968 450.906 259.089 448.802 257.539C446.698 255.988 445.099 253.837 444.209 251.361C443.253 248.643 443.224 245.679 444.125 242.941L446.213 236.428C446.238 236.344 446.291 236.272 446.361 236.222C446.432 236.172 446.517 236.146 446.603 236.15C446.67 236.149 446.738 236.165 446.797 236.2C446.855 236.236 446.904 236.286 446.935 236.347C448.978 239.927 451.173 242.694 453.839 245.054C454.847 245.951 456.144 246.446 457.485 246.446C458.642 246.449 459.77 246.077 460.705 245.386L538.243 188.326L540.726 195.433C541.17 196.725 541.194 198.13 540.793 199.437C540.391 200.744 539.587 201.886 538.498 202.696L463.967 257.543C461.777 259.177 459.13 260.062 456.409 260.071L456.018 260.063Z" fill="white"/>
<path d="M424.714 143.145C423.72 142.421 422.995 141.378 422.655 140.187C422.316 138.995 422.382 137.722 422.842 136.572C424.246 133.078 426.059 130.153 428.72 127.095C428.773 127.039 428.807 126.969 428.817 126.892C428.827 126.817 428.814 126.739 428.779 126.672C428.751 126.598 428.699 126.535 428.635 126.491C428.569 126.448 428.492 126.426 428.413 126.429H421.907C419.056 126.407 416.282 127.353 414.024 129.115C411.973 130.74 410.447 132.948 409.643 135.456C408.838 137.964 408.791 140.659 409.507 143.194C410.313 145.964 412.01 148.379 414.327 150.058L459.757 183.492C460.568 184.085 461.17 184.923 461.481 185.884C461.792 186.847 461.794 187.884 461.485 188.847L453.985 212.474C456.655 216.138 459.653 219.544 462.94 222.652L472.423 192.812L488.804 204.867C489.876 205.658 491.167 206.083 492.493 206.082C492.862 206.08 493.231 206.05 493.596 205.986C494.659 205.785 495.654 205.317 496.493 204.626L502.189 200.161L424.714 143.145Z" fill="white"/>
<path d="M439.824 169.009C439.824 168.948 439.83 168.886 439.83 168.825L428.707 160.641C428.442 163.393 428.307 166.182 428.302 169.008C428.302 194.311 439.224 217.028 456.555 232.588C457.184 233.159 457.99 233.486 458.834 233.516C459.678 233.545 460.504 233.273 461.17 232.748L468.192 227.169C450.952 213.78 439.824 192.716 439.824 169.009Z" fill="#4CBCFF"/>
<path d="M526.42 75.1932L524.441 69.0247C523.582 66.2729 521.837 63.8921 519.486 62.2622C517.327 60.7874 514.782 59.9997 512.178 60C509.574 60.0001 507.029 60.7885 504.87 62.2635C502.519 63.8932 500.775 66.2737 499.915 69.0247L482.567 123.113C482.258 124.077 481.657 124.919 480.845 125.516C480.035 126.112 479.059 126.432 478.056 126.431H453.32C450.699 130.134 448.426 134.077 446.528 138.209H477.722L471.437 157.802C471.021 159.113 471.036 160.525 471.477 161.827C471.918 163.13 472.763 164.253 473.887 165.029L480 169.218L509.617 76.8875C509.976 75.7675 510.677 74.7917 511.618 74.1007C512.559 73.4097 513.692 73.0392 514.855 73.0423C514.98 73.0423 515.105 73.0461 515.23 73.0551C518.986 73.3127 522.275 74.127 525.896 75.6946C525.979 75.7341 526.073 75.7412 526.161 75.7145C526.248 75.6878 526.321 75.6293 526.368 75.5502C526.407 75.5002 526.432 75.4411 526.44 75.3786C526.449 75.316 526.443 75.2522 526.42 75.1932Z" fill="white"/>
<path d="M598.039 138.207C599.274 138.204 600.474 138.622 601.442 139.395C602.413 140.168 603.096 141.25 603.382 142.466C604.234 146.065 604.451 149.611 604.064 153.624C604.056 153.675 604.059 153.728 604.074 153.778C604.09 153.828 604.115 153.874 604.151 153.912C604.192 153.957 604.24 153.994 604.296 154.019C604.351 154.044 604.411 154.059 604.471 154.06C604.552 154.06 604.631 154.031 604.696 153.979L610.024 150.057C612.343 148.378 614.041 145.962 614.845 143.194C615.562 140.658 615.515 137.963 614.71 135.455C613.905 132.945 612.378 130.738 610.325 129.114C608.07 127.351 605.294 126.406 602.445 126.429H546.301C545.3 126.431 544.322 126.11 543.512 125.515C542.702 124.918 542.099 124.076 541.792 123.11L534.279 99.2941C529.989 97.8883 525.579 96.8944 521.105 96.3257L530.632 126.431H510.166C508.809 126.435 507.489 126.884 506.404 127.708C505.319 128.533 504.525 129.692 504.14 131.009L502.069 138.207H598.039Z" fill="white"/>
<path d="M584.691 126.429C571.623 103.638 548.406 87.5716 521.291 84.5944C520.456 84.4974 519.615 84.699 518.911 85.1641C518.208 85.6294 517.686 86.329 517.438 87.142L514.828 95.8097C537.991 96.6624 558.361 108.547 570.994 126.429H584.691Z" fill="#4CBCFF"/>
<path d="M562.878 188.85C562.567 187.887 562.566 186.849 562.875 185.886C563.182 184.923 563.783 184.082 564.592 183.486L584.488 168.755C584.471 164.194 584.031 159.646 583.175 155.169L558.038 173.764L551.719 154.065C551.313 152.79 550.521 151.679 549.452 150.889C548.384 150.101 547.098 149.675 545.776 149.672L538.149 149.87L559.446 216.26L563.641 229.091C563.917 229.936 564.443 230.675 565.148 231.209L577.356 240.451C577.542 240.59 577.765 240.667 577.996 240.668C578.227 240.671 578.452 240.599 578.638 240.463C578.826 240.327 578.966 240.135 579.038 239.913C579.11 239.691 579.11 239.451 579.038 239.229L562.878 188.85Z" fill="white"/>
<path d="M570.424 212.382L574.664 225.602C583.39 215.726 589.71 203.918 593.12 191.124C596.529 178.329 596.932 164.903 594.296 151.923C594.13 151.089 593.681 150.341 593.029 149.807C592.374 149.273 591.558 148.987 590.719 148.998L581.777 149.147C584.762 159.868 585.291 171.135 583.322 182.094C581.355 193.053 576.943 203.412 570.424 212.382Z" fill="#4CBCFF"/>
</svg>
