<svg width="1440" height="360" viewBox="0 0 1440 360" fill="none" xmlns="http://www.w3.org/2000/svg">
<g clip-path="url(#clip0)">
<rect width="1440" height="360" fill="#37F057"/>
<path d="M376.219 95.4227L421.809 85.787C421.809 85.787 428.849 83.8352 431.143 94.387L440.715 168.413C441.348 173.153 442.142 177.886 443 182.585C444.125 181.423 445.327 180.179 446.62 178.802C450.306 174.774 454.525 169.999 458.745 164.649C460.879 161.98 463.007 159.151 465.048 156.248C467.188 153.37 480.962 131.114 482.981 128.099C484.966 125.021 486.618 121.801 488.441 118.73C490.029 115.544 491.619 112.358 492.969 109.264C493.41 108.073 493.889 106.944 494.317 105.802C480.071 106.143 428.934 40.8637 428.934 40.8637C428.934 40.8637 488.814 82.6619 496.573 99.4919C497.246 97.1042 497.905 94.7653 498.508 92.6212C486.818 86.1563 493.228 0.717285 493.228 0.717285C493.228 0.717285 513.666 89.801 500.628 92.8361C500.252 95.3051 499.785 97.9067 499.313 100.717C499.11 101.816 498.808 102.888 498.506 103.96C513.583 89.1483 576.841 64.5721 576.841 64.5721C576.841 64.5721 506.476 119.851 496.365 111.562C495.352 114.591 494.239 117.593 493.137 120.754C491.605 124.114 490.23 127.673 488.549 130.992C486.806 134.346 473.36 156.955 471.461 160.108C469.647 163.338 467.797 166.504 465.89 169.499C462.174 175.512 458.313 180.909 454.945 185.496C451.494 190.009 448.572 193.773 446.366 196.319C446.275 196.451 446.149 196.521 446.044 196.702C447.581 202.952 449.231 209.179 451.233 215.294L470.265 274.435C470.265 274.435 472.387 280.687 465.26 282.195C458.132 283.702 441.726 287.179 441.726 287.179C441.726 287.179 425.322 290.653 418.195 292.161C411.067 293.668 410.358 287.121 410.358 287.121L403.141 225.503C401.301 209.563 397.927 193.78 393.214 178.417L371.248 107.025C368.954 96.4729 376.219 95.4227 376.219 95.4227Z" fill="#31E450"/>
<path fill-rule="evenodd" clip-rule="evenodd" d="M387.055 -52.8L390.194 -33.9796C392.896 -17.8929 397.039 -1.98869 402.545 13.3759L423.941 72.7568C423.941 72.7568 426.309 79.0688 419.169 80.8549C412.029 82.6409 395.662 86.7923 395.662 86.7923C395.662 86.7923 379.294 90.9437 372.156 92.7297C365.016 94.5158 364.078 87.8671 364.078 87.8671L354.458 25.4648C351.961 9.36675 348.023 -6.60011 342.667 -22.0247L332 -52.8H387.055Z" fill="#31E450"/>
<g clip-path="url(#clip1)">
<path d="M544.033 268.514C543.497 261.763 538.964 262.404 538.964 262.404L509.907 264.666C509.907 264.666 505.32 264.739 505.855 271.488L513.455 317.656C515.086 327.58 515.803 337.67 515.642 347.731L514.918 386.605C514.918 386.605 514.797 390.728 519.341 390.374C523.885 390.02 534.35 389.203 534.35 389.203C534.35 389.203 544.814 388.387 549.358 388.033C553.902 387.679 553.127 383.625 553.127 383.625L546.328 345.322C544.571 335.419 543.727 325.347 543.789 315.27L544.033 268.514Z" fill="#17B432"/>
<path d="M509.369 262.6C513.914 262.246 524.378 261.429 524.378 261.429C524.378 261.429 534.842 260.613 539.386 260.259C543.93 259.905 543.155 255.851 543.155 255.851L536.357 217.548C534.599 207.645 533.756 197.573 533.817 187.494L534.124 140.73C533.589 133.98 529.056 134.62 529.056 134.62L499.998 136.883C499.998 136.883 495.411 136.954 495.947 143.705L503.547 189.873C505.178 199.797 505.895 209.887 505.733 219.948L505.01 258.822C504.942 258.8 504.825 262.954 509.369 262.6Z" fill="#17B432"/>
<path d="M499.368 134.828C503.912 134.474 514.377 133.658 514.377 133.658C514.377 133.658 524.841 132.841 529.385 132.487C533.929 132.133 533.154 128.08 533.154 128.08L526.356 89.7767C524.598 79.8729 523.754 69.8012 523.816 59.7235L524.123 12.9581C523.588 6.20763 519.054 6.8486 519.054 6.8486L489.997 9.11131C489.997 9.11131 485.41 9.18305 485.946 15.9335L493.546 62.102C495.177 72.0247 495.894 82.1151 495.732 92.1756L494.977 131.055C494.977 131.055 494.824 135.182 499.368 134.828Z" fill="#17B432"/>
<path d="M503.657 5.99374C503.657 5.99374 493.193 6.81004 488.649 7.16424C484.104 7.51826 484.257 3.39125 484.257 3.39125L484.533 -54.1379L512.893 -54.1379L522.434 0.415636C522.434 0.415636 523.21 4.46922 518.666 4.82323C514.121 5.17744 503.657 5.99374 503.657 5.99374Z" fill="#17B432"/>
<path d="M685.091 45.9137C679.001 46.0127 664.979 46.242 664.979 46.242C664.979 46.242 650.955 46.4713 644.866 46.5704C638.778 46.6695 639.471 52.1839 639.471 52.1839L645.325 104.248C646.838 117.71 647.119 131.322 646.192 144.868L641.861 207.72C642.009 216.842 648.108 216.355 648.108 216.355L667.577 216.04L687.044 215.724C687.044 215.724 693.167 216.008 693.02 206.888L686.756 144.181C685.413 130.704 685.302 117.078 686.363 103.564L690.586 51.3546C690.676 51.3899 691.18 45.8146 685.091 45.9137Z" fill="#17B432"/>
<path d="M687.707 218.539C681.618 218.638 667.594 218.867 667.594 218.867C667.594 218.867 653.572 219.097 647.482 219.197C641.393 219.294 642.088 224.808 642.088 224.808L647.941 276.873C649.455 290.335 649.736 303.947 648.809 317.493L644.478 380.345C644.626 389.467 650.725 388.98 650.725 388.98L670.194 388.666L689.661 388.349C689.661 388.349 695.784 388.634 695.636 379.514L689.373 316.806C688.03 303.329 687.919 289.704 688.979 276.19L693.246 223.977C693.246 223.977 693.797 218.44 687.707 218.539Z" fill="#17B432"/>
<path d="M573.138 24.8541C573.138 24.8541 567.426 24.8552 567.956 15.7861L577.899 -53.8528L613.486 -53.8528L615.636 18.9956C615.106 28.0648 609.429 27.2997 609.429 27.2997L591.283 26.0769L573.138 24.8541Z" fill="#31E450"/>
<path d="M609.734 30.1479C604.058 29.7658 590.99 28.8871 590.99 28.8871C590.99 28.8871 577.921 28.0085 572.246 27.6263C566.571 27.2442 566.813 32.775 566.813 32.775L568.452 84.9399C568.875 98.428 568.14 111.967 566.286 125.345L557.655 187.419C557.125 196.489 562.837 196.487 562.837 196.487L580.982 197.71L599.126 198.933C599.126 198.933 604.806 199.699 605.334 190.63L604.094 127.864C603.83 114.375 604.725 100.834 606.699 87.4982L614.452 35.9849C614.533 36.0268 615.409 30.53 609.734 30.1479Z" fill="#31E450"/>
<path d="M599.542 201.78C593.867 201.398 580.799 200.52 580.799 200.52C580.799 200.52 567.73 199.641 562.054 199.259C556.379 198.877 556.621 204.408 556.621 204.408L558.26 256.572C558.683 270.061 557.949 283.601 556.094 296.979L547.463 359.054C546.934 368.121 552.646 368.121 552.646 368.121L570.791 369.344L588.935 370.568C588.935 370.568 594.614 371.332 595.142 362.262L593.902 299.498C593.638 286.008 594.534 272.468 596.508 259.131L604.302 207.617C604.302 207.617 605.218 202.162 599.542 201.78Z" fill="#31E450"/>
<path d="M962.256 22.4851C962.256 22.4851 956.001 22.555 956.488 13.2541L966.688 -54.1379L1006.11 -54.1379L1008.73 15.9701C1008.24 25.2712 1002.01 24.5553 1002.01 24.5553L962.256 22.4851Z" fill="#31E450"/>
<path d="M1002.38 27.4707C996.159 27.1474 981.841 26.4038 981.841 26.4038C981.841 26.4038 967.523 25.6605 961.304 25.3371C955.087 25.0138 955.41 30.6792 955.41 30.6792L957.74 84.1214C958.343 97.9397 957.676 111.825 955.784 125.557L946.973 189.279C946.486 198.581 952.74 198.51 952.74 198.51L992.497 200.58C992.497 200.58 998.723 201.297 999.208 191.995L997.204 127.685C996.777 113.863 997.618 99.975 999.643 86.2835L1007.6 33.3961C1007.69 33.4382 1008.59 27.794 1002.38 27.4707Z" fill="#31E450"/>
<path d="M992.978 203.494C986.762 203.17 972.444 202.427 972.444 202.427C972.444 202.427 958.125 201.683 951.907 201.359C945.69 201.037 946.012 206.701 946.012 206.701L948.342 260.144C948.944 273.962 948.279 287.848 946.387 301.579L937.574 365.302C937.089 374.602 943.343 374.533 943.343 374.533L983.1 376.603C983.1 376.603 989.324 377.32 989.811 368.018L987.807 303.707C987.38 289.886 988.221 275.998 990.246 262.306L998.247 209.419C998.247 209.419 999.195 203.816 992.978 203.494Z" fill="#31E450"/>
<path d="M798.912 -32.5151C790.747 -32.1309 771.946 -31.2451 771.946 -31.2451C771.946 -31.2451 753.148 -30.3591 744.983 -29.9752C736.82 -29.5912 737.974 -22.1332 737.974 -22.1332L747.939 48.3097C750.514 66.5238 751.443 84.9916 750.749 103.418L747.491 188.925C748.059 201.301 756.22 200.392 756.22 200.392L808.425 197.939C808.425 197.939 816.648 198.074 816.081 185.698L805.134 100.824C802.785 82.5832 802.085 64.0884 802.958 45.699L806.505 -25.3535C806.627 -25.3094 807.075 -32.8991 798.912 -32.5151Z" fill="#31E450"/>
<path d="M809.429 201.734C801.264 202.118 782.464 203.004 782.464 203.004C782.464 203.004 763.664 203.89 755.501 204.274C747.336 204.658 748.49 212.116 748.49 212.116L758.456 282.558C761.032 300.772 761.961 319.241 761.266 337.667L758.007 423.174C758.576 435.549 766.737 434.641 766.737 434.641L818.941 432.189C818.941 432.189 827.166 432.322 826.596 419.947L815.65 335.072C813.303 316.832 812.602 298.337 813.475 279.947L817.079 208.889C817.079 208.889 817.592 201.35 809.429 201.734Z" fill="#31E450"/>
<path d="M1014.17 332.18C1014.17 332.18 1022.02 333.508 1019.44 345.14L994.263 423.831C988.844 440.708 987.288 441.47 984.991 459.092H931.928C937.574 442.257 940.11 429.424 942.633 411.843L954.366 330.009C957.058 318.37 964.696 320.666 964.696 320.666L1014.17 332.18Z" fill="#17B432"/>
<path d="M1060.88 108.538L1011.15 97.8949C1011.15 97.8949 1003.47 95.739 1000.96 107.394L990.521 189.163C989.83 194.398 988.965 199.626 988.028 204.817C986.801 203.533 985.49 202.159 984.079 200.638C980.058 196.189 975.456 190.914 970.852 185.005C968.523 182.056 966.203 178.932 963.975 175.725C961.642 172.547 946.616 147.962 944.413 144.632C942.247 141.232 940.445 137.675 938.456 134.283C936.724 130.765 934.989 127.245 933.517 123.828C933.035 122.512 932.513 121.265 932.046 120.003C947.588 120.379 1003.37 48.2733 1003.37 48.2733C1003.37 48.2733 938.05 94.443 929.585 113.033C928.851 110.396 928.132 107.812 927.474 105.444C940.226 98.3029 933.234 3.9281 933.234 3.9281C933.234 3.9281 910.938 102.329 925.161 105.681C925.571 108.409 926.081 111.282 926.596 114.386C926.817 115.6 927.146 116.784 927.476 117.969C911.028 101.608 842.02 74.4613 842.02 74.4613C842.02 74.4613 918.781 135.521 929.812 126.365C930.917 129.711 932.131 133.027 933.333 136.519C935.004 140.23 936.504 144.162 938.338 147.827C940.239 151.532 954.908 176.506 956.979 179.989C958.959 183.557 960.977 187.054 963.058 190.362C967.111 197.004 971.324 202.966 974.997 208.033C978.762 213.017 981.95 217.175 984.357 219.987C984.456 220.133 984.593 220.21 984.707 220.41C983.031 227.314 981.23 234.192 979.046 240.947L958.285 306.273C958.285 306.273 955.97 313.179 963.745 314.845C971.52 316.51 989.418 320.35 989.418 320.35C989.418 320.35 1007.31 324.188 1015.09 325.853C1022.86 327.518 1023.64 320.286 1023.64 320.286L1031.51 252.223C1033.52 234.616 1037.2 217.183 1042.34 200.212L1066.3 121.354C1068.81 109.698 1060.88 108.538 1060.88 108.538Z" fill="#17B432"/>
<path fill-rule="evenodd" clip-rule="evenodd" d="M643.886 -53.853C644.293 -45.1664 644.195 -36.45 643.6 -27.7611L639.355 35.0845C639.503 44.2052 645.602 43.7196 645.602 43.7196L665.071 43.4039L684.538 43.0885C684.538 43.0885 690.661 43.3725 690.513 34.2516L684.25 -28.4549C683.41 -36.8838 683.053 -45.3713 683.161 -53.853H643.886Z" fill="#17B432"/>
<path d="M804.909 48.9028C804.909 48.9028 799.942 50.1572 798.417 42.1186L792.264 -13.9829C790.947 -26.0762 787.274 -42.4482 783.953 -54.1379L819.432 -54.1376C820.634 -42.0544 822.59 -31.8216 825.772 -20.0958L840.594 34.461C842.12 42.4996 837.012 43.0771 837.012 43.0771L804.909 48.9028Z" fill="#17B432"/>
<path d="M837.904 45.4981C832.884 46.4094 821.323 48.5091 821.323 48.5091C821.323 48.5091 809.763 50.6091 804.743 51.5205C799.723 52.4318 801.144 57.2103 801.144 57.2103L813.99 102.42C817.313 114.109 819.638 126.098 820.952 138.191L827.036 194.311C828.561 202.35 833.53 201.095 833.53 201.095L865.633 195.27C865.633 195.27 870.74 194.693 869.215 186.653L854.393 132.097C851.211 120.371 849.025 108.346 847.822 96.2628L843.287 49.5618C843.366 49.5807 842.926 44.5867 837.904 45.4981Z" fill="#17B432"/>
<path d="M866.613 197.667C861.593 198.577 850.032 200.677 850.032 200.677C850.032 200.677 838.472 202.777 833.452 203.689C828.432 204.599 829.854 209.378 829.854 209.378L842.699 254.589C846.02 266.277 848.347 278.267 849.662 290.359L855.745 346.479C857.27 354.517 862.239 353.264 862.239 353.264L894.343 347.439C894.343 347.439 899.449 346.86 897.924 338.822L883.102 284.264C879.92 272.539 877.732 260.513 876.531 248.432L872.03 201.72C872.03 201.72 871.635 196.755 866.613 197.667Z" fill="#17B432"/>
<path d="M879.536 352.638C879.536 352.638 891.097 350.539 896.116 349.628C901.136 348.716 901.533 353.682 901.533 353.682L906.033 400.393C907.235 412.476 909.421 424.5 912.603 436.226L918.817 459.092H880.984L879.165 442.321C877.85 430.228 875.523 418.238 872.202 406.55L859.355 361.339C859.355 361.339 857.933 356.561 862.955 355.65C867.975 354.738 879.536 352.638 879.536 352.638Z" fill="#17B432"/>
<path fill-rule="evenodd" clip-rule="evenodd" d="M1048.21 -53.8531L1044.8 -33.3769C1041.86 -15.875 1037.36 1.42832 1031.38 18.1446L1008.14 82.7495C1008.14 82.7495 1005.57 89.6168 1013.33 91.56C1021.08 93.5031 1038.86 98.0198 1038.86 98.0198C1038.86 98.0198 1056.63 102.536 1064.39 104.48C1072.14 106.423 1073.16 99.1891 1073.16 99.1891L1083.61 31.297C1086.32 13.7827 1090.6 -3.58879 1096.41 -20.3703L1108 -53.8531H1048.21Z" fill="#17B432"/>
<path d="M418.895 297.761C418.895 297.761 411.735 298.979 414.089 309.645L437.049 381.804C441.99 397.28 443.41 397.979 445.504 414.138H493.89C488.742 398.7 486.429 386.933 484.128 370.811L473.43 295.77C470.975 285.097 464.01 287.203 464.01 287.203L418.895 297.761Z" fill="#31E450"/>
</g>
</g>
<defs>
<clipPath id="clip0">
<rect width="1440" height="360" fill="white"/>
</clipPath>
<clipPath id="clip1">
<rect width="702.414" height="468.276" fill="white" transform="translate(405.586 -54.1379)"/>
</clipPath>
</defs>
</svg>
