<svg width="1024" height="320" viewBox="0 0 1024 320" fill="none" xmlns="http://www.w3.org/2000/svg">
<rect width="1024" height="320" fill="#CB4F1B"/>
<path d="M0 257.841L1024 226V320H0V257.841Z" fill="#CA3D00"/>
<rect width="24.284" height="71.9527" transform="matrix(-1 0 0 1 529.138 248.047)" fill="#7A391E"/>
<rect x="497.658" y="248.047" width="24.284" height="71.9527" fill="#672F17"/>
<path d="M550.561 37.5569C550.561 37.5569 533.405 45.1315 527.98 171.49L515.275 175.848L506.642 165.125L508.145 131.996L517.576 77.966L529.257 33.9039L545.456 24.6918L552.426 37.3385L550.561 37.5569Z" fill="#7A391E"/>
<path d="M474.698 52.3528C474.698 52.3528 457.542 59.9274 452.117 186.286L439.411 190.644L430.779 179.92L432.282 146.792L441.721 92.762L453.402 48.6999L469.592 39.4793L476.562 52.1261L474.698 52.3528Z" fill="#7A391E"/>
<path d="M605.667 161.622C605.667 161.622 591.231 40.5545 566.358 26.1863C566.358 26.1863 556.172 17.8643 547.169 16L568.289 70.5759L570.859 122.246L582.439 163.201L605.667 161.622Z" fill="#9D4C29"/>
<path d="M511.488 128.872C510.422 124.018 512.437 102.235 511.211 97.4144C510.027 92.7453 508.759 88.0931 507.365 83.4744C506.072 79.1748 504.678 74.9089 503.116 70.7101C498.858 59.2306 492.602 47.6839 481.912 40.9238C478.225 38.5893 474.228 36.364 470.055 35.0539C469.769 34.9616 467.779 34.6257 467.703 34.4409L488.823 89.0084L511.488 128.872Z" fill="#9D4C29"/>
<path d="M594.002 163.336C591.961 140.032 588.602 116.846 583.958 93.9211C580.725 77.9657 576.846 62.0775 570.909 46.9198C567.634 38.5558 563.67 30.343 557.918 23.4486C555.113 20.0896 551.594 16.9069 547.261 16.3107C543.171 15.748 539.107 17.6039 535.756 20.0224C522.732 29.3941 516.627 46.5671 512.445 61.4393C510.37 68.8123 508.75 76.3114 507.414 83.8524C506.617 88.3451 505.92 92.863 505.307 97.3893C504.702 101.882 502.821 108.147 503.543 112.606C503.543 112.606 489.603 25.9847 461.093 35.2052C451.722 38.2367 447.069 46.4076 443.047 54.7548C431.643 78.3856 428.687 106.03 425.798 131.803C425.16 137.513 420.214 194.264 419.164 194.272C425.295 194.213 431.416 194.146 437.547 194.087C437.353 194.079 440.368 141.124 440.645 136.564C441.653 119.962 443.19 103.1 446.843 86.8839C448.598 79.091 449.925 71.1385 452.242 63.5135C453.93 57.9375 455.954 49.8506 461.723 46.7687C462.202 46.5168 462.706 46.3152 463.226 46.1725C467.022 45.1731 469.768 51.2278 471.028 53.7723C473.362 58.4833 475.017 63.547 476.52 68.5772C482.616 89.0505 486.051 110.204 488.486 131.391C489.041 136.195 495.507 186.597 492.551 187.084L514.922 184.229C515.258 171.137 515.963 158.045 516.803 144.987C518.382 120.432 520.448 95.7602 524.756 71.5164C525.839 65.3945 531.969 25.2541 544.414 30.5613C546.329 31.3759 547.698 33.1058 548.848 34.8441C553.349 41.6378 555.793 49.5735 557.792 57.484C561.579 72.4233 564.006 87.6817 565.996 102.965C569.044 126.378 571.093 149.899 573.134 173.421C580.079 170.045 587.04 166.695 594.002 163.336Z" fill="#FFD600"/>
<path d="M611.024 155.551L622.604 159.767L614.635 254.466L424.261 284.227L411.825 280.801L402.369 193.928L611.024 155.551Z" fill="#AA3E0F"/>
<path d="M611.024 155.551L602.273 249.822L614.635 254.466L622.604 159.767L611.024 155.551Z" fill="#7A391E"/>
<path d="M614.636 254.466L602.275 249.822L411.827 280.801L424.263 284.227L614.636 254.466Z" fill="#672F17"/>
</svg>
