<svg width="397" height="250" viewBox="0 0 397 250" fill="none" xmlns="http://www.w3.org/2000/svg">
<g clip-path="url(#clip0)">
<path d="M397 0H0V250H397V0Z" fill="#37F057"/>
<path d="M21.3723 230.707C21.3723 230.707 18.5134 230.303 18.1781 234.582L18.1762 274H36.2189L42.2164 236.531C42.5484 232.188 39.6755 232.14 39.6755 232.14L21.3723 230.707Z" fill="#31E450"/>
<path d="M12.2209 30.529C9.857 24.5047 5.99204 6.35101 4.7115 4.03552e-08L0 0V62C1.44244e-06 62.4 1.2474 62.4871 1.48465 62.4807C4.244 61.6696 10.5688 59.7876 10.5688 59.7876C10.5688 59.7876 16.8936 57.9056 19.653 57.0945C22.4123 56.2834 21.4004 53.81 21.4004 53.81L12.2209 30.529Z" fill="#31E450"/>
<path d="M19.2472 147.116L37.5982 146.695C37.5982 146.695 40.4691 146.444 40.5717 150.804L38.7433 180.924C38.3514 187.395 38.53 193.921 39.2975 200.358L42.1982 225.274C42.1982 225.274 42.5405 227.919 39.6794 227.981C36.8182 228.043 30.2105 228.194 30.2105 228.194C30.2105 228.194 23.6222 228.35 20.7417 228.406C17.8805 228.469 18.1055 225.815 18.1055 225.815L19.9198 200.787C20.3947 194.318 20.2797 187.789 19.5953 181.354L16.4347 151.354C16.371 147.005 19.2472 147.116 19.2472 147.116Z" fill="#31E450"/>
<path d="M2.13018 64.7675L20.0529 60.8707C20.0529 60.8707 22.8203 60.0814 23.722 64.3487L27.4854 94.2855C27.7341 96.2029 28.0464 98.1169 28.3836 100.017C28.8258 99.5472 29.2983 99.0438 29.8064 98.4867C31.2562 96.858 32.9142 94.9273 34.5734 92.7634C35.4126 91.6841 36.2487 90.5403 37.0513 89.3658C37.8928 88.2022 43.3074 79.2014 44.1014 77.982C44.8814 76.7374 45.5309 75.4347 46.2473 74.1934C46.872 72.9049 47.4967 71.6165 48.0276 70.3652C48.2014 69.8835 48.3891 69.427 48.5575 68.965C42.957 69.1028 22.8543 42.7032 22.8543 42.7032C22.8543 42.7032 46.3941 59.6068 49.4445 66.4131C49.709 65.4475 49.968 64.5016 50.2055 63.6345C45.6097 61.0201 48.1293 26.4675 48.1293 26.4675C48.1293 26.4675 56.1642 62.494 51.0391 63.7214C50.8911 64.7199 50.7075 65.772 50.5218 66.9085C50.4419 67.353 50.3232 67.7865 50.2044 68.2201C56.1319 62.2301 81 52.2911 81 52.2911C81 52.2911 53.338 74.6464 49.3625 71.2943C48.9643 72.5193 48.5273 73.7334 48.0934 75.0121C47.4913 76.3706 46.9507 77.8102 46.2904 79.1523C45.6053 80.5086 40.319 89.6518 39.5724 90.9271C38.8592 92.233 38.1321 93.5138 37.3823 94.7245C35.9215 97.1568 34.4036 99.3394 33.0799 101.195C31.7228 103.019 30.5739 104.542 29.7066 105.571C29.671 105.624 29.6214 105.653 29.5804 105.726C30.1848 108.254 30.8335 110.772 31.6202 113.245L39.1024 137.162C39.1024 137.162 39.9365 139.691 37.1346 140.301C34.3326 140.91 27.8832 142.316 27.8832 142.316C27.8832 142.316 21.4337 143.721 18.6318 144.331C15.8298 144.941 15.5511 142.293 15.5511 142.293L12.714 117.373C11.9908 110.927 10.6647 104.544 8.81114 98.331L0.176027 69.4595C-0.72566 65.1922 2.13018 64.7675 2.13018 64.7675Z" fill="#31E450"/>
<path d="M81.9129 172.255C81.627 168.651 79.2069 168.993 79.2069 168.993L63.6939 170.201C63.6939 170.201 61.2451 170.24 61.531 173.843L65.5885 198.491C66.4592 203.789 66.842 209.176 66.7557 214.547L66.3693 235.301C66.3693 235.301 66.3047 237.502 68.7308 237.313C71.1568 237.124 76.7434 236.688 76.7434 236.688C76.7434 236.688 82.33 236.252 84.756 236.063C87.182 235.874 86.7682 233.71 86.7682 233.71L83.1385 213.261C82.2003 207.974 81.7498 202.597 81.7828 197.217L81.9129 172.255Z" fill="#17B432"/>
<path d="M84.2449 237.049C84.2449 237.049 86.665 236.706 86.951 240.31L86.8208 265.272C86.7926 270.69 87.5953 273.348 88.0002 274H70.6266C70.8599 270 70.7238 267.365 70.6266 266.547L66.5691 241.899C66.2831 238.295 68.7319 238.257 68.7319 238.257L84.2449 237.049Z" fill="#17B432"/>
<path d="M63.4069 169.098C65.8329 168.909 71.4195 168.473 71.4195 168.473C71.4195 168.473 77.0061 168.037 79.4321 167.848C81.8581 167.659 81.4443 165.495 81.4443 165.495L77.8147 145.046C76.8765 139.759 76.426 134.382 76.459 129.001L76.6229 104.035C76.337 100.431 73.9168 100.773 73.9168 100.773L58.4039 101.981C58.4039 101.981 55.9551 102.019 56.241 105.623L60.2985 130.271C61.1691 135.569 61.552 140.956 61.4657 146.327L61.0793 167.081C61.043 167.069 60.9809 169.287 63.4069 169.098Z" fill="#17B432"/>
<path d="M58.068 100.884C60.494 100.695 66.0806 100.259 66.0806 100.259C66.0806 100.259 71.6672 99.8233 74.0932 99.6342C76.5192 99.4452 76.1054 97.2812 76.1054 97.2812L72.4758 76.8322C71.5375 71.5448 71.087 66.1678 71.1201 60.7876L71.284 35.8208C70.9981 32.2169 68.5779 32.5591 68.5779 32.5591L53.065 33.7671C53.065 33.7671 50.6161 33.8054 50.9021 37.4093L54.9596 62.0574C55.8302 67.3549 56.2131 72.7419 56.1268 78.1129L55.7235 98.8697C55.7235 98.8697 55.642 101.073 58.068 100.884Z" fill="#17B432"/>
<path d="M60.3574 32.1027C60.3574 32.1027 54.7708 32.5385 52.3448 32.7276C49.9188 32.9166 50.0003 30.7133 50.0003 30.7133L50.1475 0L65.2881 3.48692e-05L70.3822 29.1247C70.3822 29.1247 70.7961 31.2888 68.3701 31.4778C65.944 31.6669 60.3574 32.1027 60.3574 32.1027Z" fill="#17B432"/>
<path d="M157.22 53.4149C153.969 53.4678 146.483 53.5902 146.483 53.5902C146.483 53.5902 138.996 53.7126 135.745 53.7655C132.495 53.8184 132.865 56.7624 132.865 56.7624L135.99 84.5583C136.798 91.7453 136.948 99.0123 136.453 106.244L134.141 139.799C134.22 144.669 137.476 144.409 137.476 144.409L147.87 144.241L158.263 144.072C158.263 144.072 161.532 144.224 161.453 139.355L158.109 105.877C157.392 98.6823 157.333 91.4074 157.899 84.1929L160.154 56.3197C160.202 56.3385 160.471 53.362 157.22 53.4149Z" fill="#17B432"/>
<path d="M158.617 145.575C155.366 145.628 147.879 145.75 147.879 145.75C147.879 145.75 140.393 145.873 137.142 145.926C133.891 145.978 134.262 148.922 134.262 148.922L137.387 176.718C138.195 183.905 138.345 191.172 137.85 198.404L135.538 231.959C135.617 236.829 138.873 236.569 138.873 236.569L149.267 236.401L159.66 236.232C159.66 236.232 162.929 236.384 162.85 231.515L159.506 198.037C158.789 190.842 158.73 183.568 159.296 176.353L161.574 148.478C161.574 148.478 161.868 145.522 158.617 145.575Z" fill="#17B432"/>
<path d="M97.4519 42.1718C97.4519 42.1718 94.4023 42.1724 94.685 37.3306L99.9936 0.152283L118.992 0.152285L120.14 39.0441C119.857 43.8859 116.826 43.4774 116.826 43.4774L107.139 42.8246L97.4519 42.1718Z" fill="#31E450"/>
<path d="M116.989 44.998C113.959 44.794 106.982 44.3249 106.982 44.3249C106.982 44.3249 100.005 43.8558 96.9753 43.6518C93.9455 43.4478 94.0748 46.4005 94.0748 46.4005L94.9498 74.25C95.1757 81.4509 94.7834 88.6792 93.7933 95.8213L89.1855 128.961C88.9027 133.803 91.9524 133.802 91.9524 133.802L101.639 134.455L111.326 135.108C111.326 135.108 114.358 135.517 114.64 130.675L113.978 97.1662C113.837 89.9646 114.315 82.7356 115.369 75.6158L119.508 48.1142C119.551 48.1366 120.019 45.202 116.989 44.998Z" fill="#31E450"/>
<path d="M111.548 136.628C108.518 136.424 101.541 135.955 101.541 135.955C101.541 135.955 94.5638 135.486 91.534 135.282C88.5041 135.078 88.6334 138.031 88.6334 138.031L89.5084 165.88C89.7343 173.081 89.342 180.31 88.3519 187.452L83.7441 220.592C83.4614 225.433 86.511 225.433 86.511 225.433L96.198 226.086L105.885 226.739C105.885 226.739 108.917 227.147 109.199 222.305L108.537 188.797C108.396 181.595 108.874 174.366 109.928 167.246L114.089 139.744C114.089 139.744 114.578 136.832 111.548 136.628Z" fill="#31E450"/>
<path d="M96.5842 227.581C96.5842 227.581 103.561 228.05 106.591 228.254C109.621 228.458 109.132 231.37 109.132 231.37L104.722 273.841H84.4943L83.6766 229.657C83.6766 229.657 83.5473 226.704 86.5771 226.908C89.607 227.112 96.5842 227.581 96.5842 227.581Z" fill="#31E450"/>
<path d="M305.191 40.907C305.191 40.907 301.852 40.9443 302.112 35.9788L307.557 1.01327e-06L328.606 0L330 37.4288C329.74 42.3944 326.417 42.0122 326.417 42.0122L305.191 40.907Z" fill="#31E450"/>
<path d="M326.61 43.5687C323.291 43.3961 315.647 42.9991 315.647 42.9991C315.647 42.9991 308.003 42.6023 304.683 42.4296C301.364 42.257 301.536 45.2816 301.536 45.2816L302.78 73.813C303.102 81.1902 302.746 88.603 301.736 95.9345L297.032 129.954C296.772 134.92 300.111 134.882 300.111 134.882L321.336 135.987C321.336 135.987 324.66 136.37 324.919 131.404L323.849 97.0702C323.621 89.6913 324.07 82.2768 325.151 74.9673L329.4 46.7321C329.447 46.7546 329.93 43.7413 326.61 43.5687Z" fill="#31E450"/>
<path d="M321.593 137.543C318.274 137.37 310.63 136.973 310.63 136.973C310.63 136.973 302.986 136.576 299.666 136.403C296.347 136.231 296.519 139.255 296.519 139.255L297.763 167.787C298.084 175.164 297.729 182.577 296.719 189.908L292.014 223.928C291.755 228.893 295.094 228.856 295.094 228.856L316.319 229.961C316.319 229.961 319.642 230.344 319.902 225.378L318.832 191.044C318.604 183.665 319.053 176.251 320.134 168.941L324.406 140.706C324.406 140.706 324.912 137.715 321.593 137.543Z" fill="#31E450"/>
<path d="M306.146 230.937C306.146 230.937 313.79 231.334 317.11 231.507C320.429 231.68 319.923 234.67 319.923 234.67L315.651 262.905C315.107 266.583 314.723 270.287 314.505 274H293.196C293.428 269.919 293.457 265.83 293.28 261.751L292.035 233.22C292.035 233.22 291.863 230.195 295.183 230.368C298.502 230.54 306.146 230.937 306.146 230.937Z" fill="#31E450"/>
<path d="M189.661 10.818C189.661 10.818 185.304 11.3035 185 4.6961L185.373 0.000243503L220.981 0L221.618 2.97324C221.922 9.58062 217.531 9.50875 217.531 9.50875L189.661 10.818Z" fill="#31E450"/>
<path d="M217.986 11.5439C213.627 11.749 203.59 12.2219 203.59 12.2219C203.59 12.2219 193.554 12.6949 189.195 12.8999C184.837 13.1049 185.453 17.0865 185.453 17.0865L190.773 54.6941C192.148 64.4181 192.644 74.2776 192.273 84.1151L190.534 129.765C190.837 136.372 195.194 135.887 195.194 135.887L223.065 134.577C223.065 134.577 227.455 134.649 227.152 128.042L221.308 82.7303C220.054 72.9918 219.68 63.1179 220.146 53.3003L222.04 15.3673C222.105 15.3908 222.344 11.3389 217.986 11.5439Z" fill="#31E450"/>
<path d="M223.601 136.603C219.242 136.808 209.205 137.281 209.205 137.281C209.205 137.281 199.168 137.754 194.81 137.959C190.451 138.164 191.067 142.146 191.067 142.146L196.388 179.753C197.763 189.477 198.259 199.337 197.888 209.174L196.148 254.824C196.452 261.431 200.809 260.946 200.809 260.946L228.679 259.637C228.679 259.637 233.07 259.708 232.766 253.101L226.922 207.789C225.669 198.051 225.295 188.177 225.761 178.359L227.685 140.423C227.685 140.423 227.959 136.398 223.601 136.603Z" fill="#31E450"/>
<path d="M332.908 206.245C332.908 206.245 337.1 206.954 335.722 213.164L322.279 255.175C319.386 264.185 318.555 264.592 317.329 274H289C292.014 265.012 293.368 258.161 294.715 248.775L300.979 205.086C302.416 198.872 306.494 200.098 306.494 200.098L332.908 206.245Z" fill="#17B432"/>
<path d="M357.844 86.8487L331.292 81.1664C331.292 81.1664 327.192 80.0154 325.856 86.2379L320.281 129.892C319.912 132.687 319.45 135.478 318.95 138.249C318.295 137.564 317.595 136.83 316.842 136.018C314.695 133.643 312.238 130.827 309.78 127.672C308.537 126.098 307.298 124.43 306.109 122.718C304.863 121.021 296.841 107.896 295.665 106.118C294.509 104.303 293.547 102.404 292.485 100.593C291.56 98.7146 290.634 96.8358 289.848 95.0112C289.591 94.3088 289.312 93.6431 289.063 92.9695C297.36 93.1703 327.142 54.6747 327.142 54.6747C327.142 54.6747 292.268 79.3235 287.749 89.2483C287.357 87.8403 286.973 86.461 286.622 85.1966C293.43 81.3842 289.697 31 289.697 31C289.697 31 277.794 83.5335 285.387 85.3233C285.606 86.7793 285.878 88.3135 286.153 89.9707C286.271 90.6188 286.447 91.251 286.623 91.8832C277.842 83.1486 241 68.6558 241 68.6558C241 68.6558 281.981 101.254 287.87 96.3659C288.46 98.1523 289.108 99.9227 289.75 101.787C290.642 103.768 291.443 105.867 292.422 107.824C293.437 109.802 301.268 123.135 302.374 124.994C303.431 126.899 304.508 128.766 305.619 130.532C307.783 134.078 310.032 137.261 311.993 139.966C314.003 142.627 315.705 144.847 316.99 146.348C317.043 146.426 317.116 146.467 317.177 146.574C316.282 150.26 315.321 153.932 314.155 157.538L303.071 192.414C303.071 192.414 301.835 196.101 305.986 196.99C310.137 197.879 319.692 199.929 319.692 199.929C319.692 199.929 329.246 201.978 333.397 202.867C337.548 203.756 337.961 199.895 337.961 199.895L342.164 163.558C343.236 154.158 345.201 144.851 347.946 135.791L360.739 93.6905C362.075 87.468 357.844 86.8487 357.844 86.8487Z" fill="#17B432"/>
<path fill-rule="evenodd" clip-rule="evenodd" d="M135.222 0.1521C135.439 4.78968 135.387 9.4431 135.069 14.0819L132.803 47.6335C132.882 52.5028 136.138 52.2435 136.138 52.2435L146.532 52.075L156.925 51.9066C156.925 51.9066 160.194 52.0582 160.115 47.1888L156.771 13.7115C156.323 9.21153 156.132 4.68029 156.19 0.1521H135.222Z" fill="#17B432"/>
<path fill-rule="evenodd" clip-rule="evenodd" d="M149.796 237.865C149.796 237.865 157.283 237.742 160.533 237.689C163.784 237.637 163.491 240.592 163.491 240.592L161.213 268.467C161.073 270.256 160.971 272.047 160.908 273.841H139.76C139.643 272.168 139.491 270.498 139.304 268.833L136.179 241.037C136.179 241.037 135.808 238.093 139.059 238.04C142.31 237.987 149.796 237.865 149.796 237.865Z" fill="#17B432"/>
<path d="M221.188 55.0107C221.188 55.0107 218.536 55.6804 217.722 51.3888L214.437 21.4377C213.734 14.9814 211.773 6.24082 210 0L228.941 0.000192873C229.583 6.45108 230.627 11.9141 232.326 18.1742L240.239 47.3006C241.054 51.5922 238.327 51.9005 238.327 51.9005L221.188 55.0107Z" fill="#17B432"/>
<path d="M238.803 53.193C236.123 53.6795 229.951 54.8005 229.951 54.8005C229.951 54.8005 223.779 55.9216 221.099 56.4082C218.419 56.8947 219.178 59.4458 219.178 59.4458L226.036 83.5819C227.81 89.8227 229.051 96.2232 229.753 102.679L233.001 132.64C233.815 136.932 236.468 136.262 236.468 136.262L253.607 133.152C253.607 133.152 256.333 132.844 255.519 128.552L247.606 99.4256C245.907 93.1655 244.74 86.7458 244.098 80.2949L241.677 55.3625C241.719 55.3726 241.484 52.7064 238.803 53.193Z" fill="#17B432"/>
<path d="M254.13 134.432C251.45 134.918 245.278 136.039 245.278 136.039C245.278 136.039 239.106 137.16 236.426 137.647C233.746 138.133 234.505 140.684 234.505 140.684L241.363 164.821C243.136 171.061 244.378 177.462 245.08 183.918L248.328 213.879C249.142 218.17 251.795 217.501 251.795 217.501L268.934 214.391C268.934 214.391 271.66 214.082 270.846 209.791L262.933 180.664C261.234 174.404 260.066 167.984 259.425 161.534L257.022 136.596C257.022 136.596 256.811 133.945 254.13 134.432Z" fill="#17B432"/>
<path d="M261.029 217.167C261.029 217.167 267.201 216.046 269.881 215.56C272.561 215.073 272.773 217.724 272.773 217.724L275.175 242.662C275.817 249.113 276.984 255.532 278.683 261.792L282 274H261.802L260.831 265.046C260.129 258.59 258.887 252.189 257.114 245.949L250.255 221.812C250.255 221.812 249.496 219.261 252.177 218.775C254.857 218.288 261.029 217.167 261.029 217.167Z" fill="#17B432"/>
<path fill-rule="evenodd" clip-rule="evenodd" d="M351.077 0.1521L349.257 11.0838C347.69 20.4276 345.288 29.6654 342.095 38.5898L329.689 73.0806C329.689 73.0806 328.316 76.7469 332.456 77.7843C336.596 78.8217 346.086 81.233 346.086 81.233C346.086 81.233 355.577 83.6443 359.716 84.6817C363.856 85.7191 364.4 81.8573 364.4 81.8573L369.978 45.6115C371.426 36.2611 373.709 26.9869 376.815 18.0277L383 0.1521H351.077Z" fill="#17B432"/>
</g>
<defs>
<clipPath id="clip0">
<rect width="397" height="250" fill="white"/>
</clipPath>
</defs>
</svg>
