<svg width="1440" height="360" viewBox="0 0 1440 360" fill="none" xmlns="http://www.w3.org/2000/svg">
<g clip-path="url(#clip0)">
<rect width="1440" height="360" fill="#CB4F1B"/>
<path d="M0 272.713L1440 228V360H0V272.713Z" fill="#CA3D00"/>
<rect width="27.6391" height="81.8935" transform="matrix(-1 0 0 1 738.834 278.106)" fill="#7A391E"/>
<rect x="703.006" y="278.106" width="27.6391" height="81.8935" fill="#672F17"/>
<path d="M763.218 38.5351C763.218 38.5351 743.691 47.1562 737.517 190.972L723.056 195.932L713.231 183.727L714.941 146.022L725.675 84.5271L738.97 34.3775L757.407 23.8926L765.34 38.2866L763.218 38.5351Z" fill="#7A391E"/>
<path d="M676.873 55.3752C676.873 55.3752 657.347 63.9963 651.172 207.812L636.712 212.773L626.886 200.567L628.597 162.862L639.34 101.367L652.635 51.2176L671.062 40.7231L678.995 55.1171L676.873 55.3752Z" fill="#7A391E"/>
<path d="M825.937 179.741C825.937 179.741 809.507 41.9469 781.197 25.5936C781.197 25.5936 769.603 16.1218 759.357 14L783.395 76.116L786.32 134.925L799.5 181.538L825.937 179.741Z" fill="#9D4C29"/>
<path d="M718.747 142.466C717.533 136.941 719.827 112.149 718.431 106.662C717.083 101.348 715.64 96.0532 714.054 90.7965C712.582 85.9029 710.995 81.0475 709.217 76.2687C704.372 63.2032 697.251 50.0613 685.084 42.3672C680.888 39.7102 676.339 37.1774 671.588 35.6864C671.264 35.5812 668.998 35.1989 668.912 34.9886L692.95 97.095L718.747 142.466Z" fill="#9D4C29"/>
<path d="M812.66 181.691C810.338 155.168 806.514 128.779 801.229 102.687C797.549 84.5267 793.134 66.4434 786.376 49.1917C782.649 39.6721 778.137 30.3246 771.59 22.4777C768.398 18.6546 764.393 15.0322 759.462 14.3536C754.807 13.7132 750.181 15.8255 746.367 18.5781C731.543 29.2446 724.595 48.7902 719.835 65.7171C717.474 74.1088 715.63 82.6439 714.11 91.2267C713.202 96.3402 712.409 101.482 711.711 106.634C711.023 111.747 708.882 118.877 709.704 123.953C709.704 123.953 693.838 25.3641 661.389 35.8586C650.723 39.3089 645.428 48.6086 640.85 58.1091C627.87 85.0046 624.506 116.469 621.218 145.802C620.491 152.301 614.862 216.892 613.667 216.902C620.644 216.835 627.612 216.759 634.589 216.692C634.369 216.682 637.801 156.411 638.116 151.221C639.263 132.325 641.012 113.133 645.17 94.6771C647.167 85.8075 648.677 76.7563 651.315 68.0778C653.236 61.7315 655.54 52.5273 662.106 49.0196C662.651 48.7329 663.224 48.5035 663.817 48.341C668.137 47.2036 671.262 54.0948 672.696 56.9908C675.353 62.3527 677.236 68.1161 678.947 73.8412C685.886 97.143 689.795 121.219 692.567 145.333C693.197 150.8 700.557 208.166 697.193 208.72L722.655 205.471C723.037 190.57 723.84 175.67 724.795 160.807C726.592 132.86 728.944 104.78 733.847 77.1864C735.08 70.2188 742.057 24.5326 756.221 30.5731C758.401 31.5002 759.959 33.4691 761.268 35.4476C766.391 43.1798 769.172 52.2119 771.447 61.2153C775.758 78.2186 778.52 95.5851 780.785 112.98C784.254 139.627 786.586 166.399 788.909 193.17C796.813 189.328 804.737 185.514 812.66 181.691Z" fill="#FFD600"/>
<path d="M832.033 172.831L845.214 177.629L836.143 285.412L619.469 319.285L605.314 315.385L594.552 216.51L832.033 172.831Z" fill="#AA3E0F"/>
<path d="M832.033 172.831L822.074 280.127L836.143 285.412L845.214 177.629L832.033 172.831Z" fill="#7A391E"/>
<path d="M836.145 285.412L822.076 280.126L605.316 315.385L619.471 319.285L836.145 285.412Z" fill="#672F17"/>
</g>
<defs>
<clipPath id="clip0">
<rect width="1440" height="360" fill="white"/>
</clipPath>
</defs>
</svg>
