<svg width="1024" height="320" viewBox="0 0 1024 320" fill="none" xmlns="http://www.w3.org/2000/svg">
<rect width="1024" height="320" fill="#3E25A4"/>
<path d="M0 257.841L1024 226V320H0V257.841Z" fill="#21115F"/>
<path d="M611.943 101.048L385.404 108.031C384.184 108.069 383.282 109.181 383.497 110.382L415.984 292.04C416.17 293.081 417.133 293.797 418.183 293.675L659.64 265.655C660.873 265.512 661.679 264.292 661.327 263.102L613.923 102.48C613.666 101.608 612.852 101.02 611.943 101.048Z" fill="#6949E9"/>
<path d="M361.598 269.04L382.09 114.493C382.24 113.361 383.864 113.324 384.066 114.447L416.085 292.476C416.228 293.266 415.427 293.894 414.693 293.566L362.181 270.085C361.777 269.904 361.54 269.479 361.598 269.04Z" fill="#351C9A"/>
<path d="M411.955 267.548L361.5 269.78L416.493 294.132L411.955 267.548Z" fill="#29137E"/>
<ellipse cx="411.853" cy="125.96" rx="4.0542" ry="5.23748" transform="rotate(-10.5507 411.853 125.96)" fill="#3E25A4"/>
<ellipse cx="441.884" cy="123.34" rx="4.13813" ry="5.23748" transform="rotate(-6.96643 441.884 123.34)" fill="#3E25A4"/>
<ellipse cx="473.254" cy="122.03" rx="4.19309" ry="5.23748" transform="rotate(-7 473.254 122.03)" fill="#3E25A4"/>
<ellipse cx="503.723" cy="120.725" rx="3.83852" ry="5.23748" transform="rotate(-7 503.723 120.725)" fill="#3E25A4"/>
<ellipse cx="533.645" cy="119.649" rx="3.97854" ry="5.23748" transform="rotate(-7 533.645 119.649)" fill="#3E25A4"/>
<ellipse cx="565.164" cy="113.64" rx="3.93867" ry="5.23748" transform="rotate(-7 565.164 113.64)" fill="#3E25A4"/>
<ellipse cx="593.825" cy="112.329" rx="4.08344" ry="5.23748" transform="rotate(-7 593.825 112.329)" fill="#3E25A4"/>
</svg>
