<svg width="1440" height="360" viewBox="0 0 1440 360" fill="none" xmlns="http://www.w3.org/2000/svg">
<rect width="1440" height="360" fill="#FBB040"/>
<path d="M0 272.713L1440 228V360H0V272.713Z" fill="#FF8A00"/>
<ellipse cx="719.775" cy="153.067" rx="34.8586" ry="52.6048" fill="#F2F6E5"/>
<path d="M719.776 173.982C763.53 173.982 799 147.025 799 113.772C799 112.837 798.972 111.906 798.916 110.981C796.998 129.819 762.299 144.828 719.776 144.828C677.253 144.828 642.554 129.819 640.635 110.981C640.58 111.906 640.552 112.837 640.552 113.772C640.552 147.025 676.022 173.982 719.776 173.982Z" fill="#F2F6E5"/>
<ellipse cx="719.776" cy="109.336" rx="79.2241" ry="35.4924" fill="#FFD28F"/>
<path d="M646.889 123.308C648.142 102.879 680.278 86.5193 719.737 86.5193C759.197 86.5193 791.334 102.88 792.585 123.31C780.475 135.964 752.417 144.828 719.738 144.828C687.057 144.828 658.998 135.963 646.889 123.308Z" fill="#FF8A00"/>
<path opacity="0.5" fill-rule="evenodd" clip-rule="evenodd" d="M712.803 201.869H725.479V268.451C728.051 270.124 730.16 272.783 731.5 276.036C748.569 277.873 760.972 283.415 760.972 289.966C760.972 298.017 742.244 304.544 719.142 304.544C696.039 304.544 677.311 298.017 677.311 289.966C677.311 283.415 689.714 277.872 706.784 276.036C708.124 272.783 710.233 270.125 712.803 268.452V201.869Z" fill="#F2F6E5"/>
<path fill-rule="evenodd" clip-rule="evenodd" d="M692.204 278.813C673.236 281.062 659.448 287.873 659.448 295.926C659.448 305.811 680.224 313.825 705.853 313.825C728.57 313.825 747.474 307.529 751.477 299.214C743.805 302.468 732.169 304.543 719.141 304.543C696.039 304.543 677.311 298.017 677.311 289.966C677.311 285.491 683.097 281.487 692.204 278.813Z" fill="#DF7A02"/>
<path d="M657.835 131.548L620.998 51.9211V51.9211C622.921 48.7862 627.36 49.5657 628.889 52.911L666.735 135.753C663.521 134.462 660.543 133.056 657.835 131.548Z" fill="#FF3F3F"/>
<path d="M619.027 48.7904C622.348 47.2493 626.289 48.6923 627.83 52.0135V52.0135L591.38 68.9275L588.589 62.914L619.027 48.7904Z" fill="#FF3F3F"/>
<ellipse cx="590.229" cy="65.8083" rx="2.31358" ry="3.30487" transform="rotate(-24.6386 590.229 65.8083)" fill="#FFC7C7"/>
<path fill-rule="evenodd" clip-rule="evenodd" d="M763.448 109.386C762.432 107.957 760.473 106.99 758.225 106.99C754.93 106.99 752.259 109.067 752.259 111.63C752.259 112.155 752.371 112.66 752.577 113.131C755.553 112.485 759.393 111.317 763.448 109.386ZM753.121 114.034C754.167 115.375 756.061 116.271 758.225 116.271C761.52 116.271 764.191 114.193 764.191 111.63C764.191 111.155 764.099 110.697 763.929 110.265C759.931 112.173 756.133 113.357 753.121 114.034Z" fill="#FBB040"/>
<path fill-rule="evenodd" clip-rule="evenodd" d="M709.002 133.57C711.012 134.374 713.329 134.833 715.797 134.833C723.486 134.833 729.719 130.381 729.719 124.889C729.719 121.441 727.262 118.403 723.531 116.619L709.002 133.57ZM721.567 115.837C719.809 115.264 717.856 114.945 715.797 114.945C708.109 114.945 701.876 119.397 701.876 124.889C701.876 128.042 703.93 130.852 707.135 132.674L721.567 115.837Z" fill="#FBB040"/>
<path fill-rule="evenodd" clip-rule="evenodd" d="M688.828 109.246C690.281 108.687 691.269 107.589 691.269 106.327C691.269 104.496 689.191 103.012 686.628 103.012C686.053 103.012 685.503 103.087 684.995 103.223L688.828 109.246ZM684.035 103.578C682.8 104.173 681.988 105.182 681.988 106.327C681.988 108.158 684.065 109.642 686.628 109.642C687.041 109.642 687.442 109.603 687.823 109.531L684.035 103.578Z" fill="#FBB040"/>
</svg>
