<svg width="375" height="250" viewBox="0 0 375 250" fill="none" xmlns="http://www.w3.org/2000/svg">
<g clip-path="url(#clip0)">
<path d="M375 0H0V274H375V0Z" fill="#0076FF"/>
<path opacity="0.1" d="M0 -8L178 122L53.0529 -8H0Z" fill="white"/>
<path opacity="0.1" d="M114 -8L178 122L189 -8H114Z" fill="white"/>
<path opacity="0.1" d="M243.5 -8L178 121L301 -8H243.5Z" fill="white"/>
<path opacity="0.1" d="M375 22L172 126L375 86.3092V22Z" fill="white"/>
<path opacity="0.1" d="M0 65L178 121H0V65Z" fill="white"/>
<path d="M179 169C204.405 169 225 148.405 225 123C225 97.5949 204.405 77 179 77C153.595 77 133 97.5949 133 123C133 148.405 153.595 169 179 169Z" fill="white"/>
<path d="M145.683 126.8L172.362 143.3L375 182V250H0V89L9.89209 95.9L28.1775 97.1L33.8729 93.5L57.554 110.9L71.0432 100.1L73.4413 95.9L78.8369 96.5L104.317 110.9L110.312 115.4H119.604L127.398 113.6L145.683 126.8Z" fill="#0B6EE1"/>
<path d="M335.368 109.512L375 117.267V250H0V170.659H50.4404L93.3747 155.447L155.524 139.638L202.962 110.705L219.776 104.441L234.488 93.107L252.202 79.983L260.608 77L281.325 79.983L310.148 98.774L335.368 109.512Z" fill="#0360CD"/>
<path d="M310.407 199.419L375 197.636V250H0V137L14.3541 148.889C19.7368 149.484 31.3397 150.911 34.689 151.862C38.0383 152.813 53.0303 153.843 60.1077 154.24L98.6842 172.371H109.749L129.486 167.912H139.952L155.801 174.452H165.67L168.66 176.235C171.252 173.659 177.273 168.626 180.622 169.101C183.971 169.577 188.596 165.336 190.49 163.157L199.761 162.562L204.246 158.104L213.517 160.184L230.263 168.507L254.486 174.452L270.634 184.558L310.407 199.419Z" fill="#0453AF"/>
</g>
<defs>
<clipPath id="clip0">
<rect width="375" height="250" fill="white"/>
</clipPath>
</defs>
</svg>
