<svg width="70" height="70" viewBox="0 0 70 70" fill="none" xmlns="http://www.w3.org/2000/svg">
<path d="M16.766 23.3322C19.6442 23.3322 21.9774 20.9956 21.9774 18.1134C21.9774 15.2311 19.6442 12.8945 16.766 12.8945C13.8879 12.8945 11.5547 15.2311 11.5547 18.1134C11.5547 20.9956 13.8879 23.3322 16.766 23.3322Z" stroke="#F7941D" stroke-width="3" stroke-linecap="round" stroke-linejoin="round"/>
<path d="M49.0785 22.4377C51.9567 22.4377 54.2899 20.1011 54.2899 17.2188C54.2899 14.3366 51.9567 12 49.0785 12C46.2004 12 43.8672 14.3366 43.8672 17.2188C43.8672 20.1011 46.2004 22.4377 49.0785 22.4377Z" stroke="#F7941D" stroke-width="3" stroke-linecap="round" stroke-linejoin="round"/>
<path d="M10.2352 58.0005V44.9534L7 42.344V31.9063C7 31.2142 7.34086 30.5505 7.94758 30.0612C8.55431 29.5718 9.3772 29.2969 10.2352 29.2969H23.1762C24.0342 29.2969 24.8571 29.5718 25.4639 30.0612C26.0706 30.5505 26.4114 31.2142 26.4114 31.9063V42.344L23.1762 44.9534V58.0005" stroke="#F7941D" stroke-width="3" stroke-linecap="round" stroke-linejoin="round"/>
<path d="M42.5877 58.0005V47.5628H36.1172L42.5877 31.9063C42.5877 31.2142 42.9285 30.5505 43.5352 30.0612C44.142 29.5718 44.9649 29.2969 45.8229 29.2969H52.2934C53.1514 29.2969 53.9743 29.5718 54.581 30.0612C55.1878 30.5505 55.5286 31.2142 55.5286 31.9063L61.9991 47.5628H55.5286V58.0005" stroke="#F7941D" stroke-width="3" stroke-linecap="round" stroke-linejoin="round"/>
</svg>
