<svg width="1194" height="329" viewBox="0 0 1194 329" fill="none" xmlns="http://www.w3.org/2000/svg">
<g clip-path="url(#clip0)">
<path d="M353.138 239.02L353.369 238.824L353.138 239.02C352.579 238.36 351.947 238.123 351.352 238.148C350.746 238.174 350.142 238.473 349.666 238.952C348.71 239.913 348.344 241.502 349.437 242.792L349.206 242.988L349.437 242.792C357.672 252.517 365.967 262.191 375.179 270.987L374.97 271.206L375.179 270.987C375.803 271.583 376.494 271.784 377.14 271.729C377.794 271.673 378.422 271.354 378.899 270.878C379.376 270.401 379.686 269.784 379.727 269.15C379.768 268.525 379.55 267.859 378.924 267.262L378.924 267.262C369.687 258.44 361.372 248.743 353.138 239.02Z" fill="black" stroke="black" stroke-width="0.60586"/>
<path d="M354.678 215.205C354.52 214.512 354.339 213.823 354.136 213.14L354.678 215.205ZM354.678 215.205C355.172 215.541 355.774 215.712 356.375 215.713C357.05 215.714 357.694 215.499 358.15 215.085C358.6 214.679 358.891 214.061 358.837 213.198C358.779 212.279 358.644 211.371 358.441 210.479C358.275 210.337 358.093 210.223 357.903 210.135C357.308 209.86 356.605 209.827 355.955 210.005C355.304 210.184 354.728 210.567 354.377 211.098C354.031 211.622 353.89 212.31 354.136 213.14L354.678 215.205ZM353.796 214.163C353.725 213.898 353.651 213.634 353.573 213.371C353.611 213.662 353.688 213.926 353.796 214.163ZM358.157 209.585C358.179 209.595 358.201 209.606 358.223 209.617C356.303 202.732 350.408 196.792 344.561 193L344.724 192.75L344.561 193C336.561 187.813 326.976 188.422 318.326 191.934C311.241 194.809 305.238 200.929 301.92 208.149C298.604 215.367 297.986 223.651 301.617 230.865C305.866 239.311 311.66 246.518 320.918 249.29C328.69 251.618 336.564 251.96 344.049 248.563L344.174 248.839L344.049 248.563C358.417 242.044 363.588 226.962 359.345 212.13C359.388 212.472 359.42 212.815 359.442 213.16L359.442 213.16C359.507 214.194 359.152 214.996 358.557 215.535C357.969 216.067 357.171 216.321 356.373 216.319C355.857 216.318 355.33 216.208 354.847 215.99C356.982 226.521 353.857 237.743 343.598 242.941C337.687 245.936 331.412 246.625 324.992 244.945C317.294 242.93 312.5 238.97 308.406 232.211C304.483 225.735 303.532 219.171 306.138 211.933L306.423 212.036L306.138 211.933C308.271 206.012 312.339 200.799 318.035 197.884C324.741 194.45 334.06 192.48 340.895 196.913L340.895 196.913C343.542 198.63 346.59 200.961 349.032 203.72C351.204 206.173 352.917 208.986 353.422 212.025C353.47 211.555 353.629 211.132 353.872 210.764C354.316 210.092 355.025 209.632 355.794 209.421C356.564 209.21 357.416 209.243 358.157 209.585Z" fill="black" stroke="black" stroke-width="0.60586"/>
<path d="M319.771 209.416L319.771 209.416C320.898 208.151 320.55 206.583 319.594 205.624C319.118 205.146 318.508 204.843 317.891 204.811C317.283 204.78 316.636 205.009 316.06 205.655L316.06 205.655C308.291 214.379 309.122 226.784 315.138 236.342C316.039 237.773 317.622 237.846 318.79 237.166C319.374 236.827 319.828 236.311 320.025 235.712C320.22 235.122 320.173 234.426 319.712 233.693C315.107 226.379 313.525 216.431 319.771 209.416Z" fill="black" stroke="black" stroke-width="0.60586"/>
</g>
<path d="M624.565 223.123C623.412 216.909 620.281 211.264 615.663 207.075C611.045 202.886 605.201 200.391 599.051 199.981C592.988 199.659 586.978 201.294 581.867 204.659C576.756 208.024 572.802 212.948 570.559 218.739C565.302 231.747 569.19 246.108 579.05 255.493C580.329 262.056 580.035 268.895 580.444 275.616C580.458 275.793 580.501 275.966 580.572 276.128C580.572 276.128 580.572 276.128 580.572 276.207C580.588 276.253 580.61 276.297 580.636 276.338C580.745 276.591 580.925 276.804 581.153 276.951C581.38 277.099 581.646 277.173 581.915 277.165C585.112 277.165 588.309 277.165 591.506 277.047C591.422 277.325 591.422 277.622 591.506 277.9C591.947 279.802 593.052 281.473 594.613 282.595C596.173 283.718 598.079 284.214 599.972 283.991C601.887 283.831 603.715 283.104 605.235 281.9C606.756 280.696 607.904 279.065 608.54 277.204C608.642 276.951 608.673 276.674 608.63 276.404C610.011 276.325 611.405 276.246 612.799 276.141C612.95 276.131 613.098 276.091 613.234 276.023H613.4C613.66 275.927 613.883 275.747 614.035 275.511C614.187 275.274 614.26 274.993 614.244 274.71C614.244 268.397 613.63 262.096 613.579 255.782C620.293 246.764 626.854 234.609 624.565 223.123ZM582.963 264.222C583.112 264.243 583.262 264.243 583.411 264.222C592.286 263.347 601.174 262.691 610.075 262.253L609.934 266.441C600.982 266.966 592.03 267.622 583.078 267.753C583.117 266.624 583.066 265.417 582.963 264.222ZM590.099 227.232L590.214 227.376C590.786 228.969 591.214 230.613 591.493 232.286C590.364 232.541 589.191 232.505 588.079 232.181C582.759 229.989 588.258 224.16 590.138 227.232H590.099ZM594.831 234.504C596.946 233.606 598.968 232.494 600.867 231.183L600.944 231.117C601.057 231.091 601.165 231.047 601.264 230.986L601.52 230.842C603.169 240.201 601.52 250.348 600.88 259.786C598.391 259.952 595.897 260.136 593.399 260.337C593.399 260.337 593.399 260.258 593.399 260.219C594.115 252.33 595.752 242.971 594.87 234.504H594.831ZM602.811 224.436C602.722 223.662 603.489 219.737 605.177 221.325C606.302 222.388 604.576 224.659 603.898 225.421C603.681 225.657 603.438 225.867 603.195 226.09C603.023 225.553 602.907 224.998 602.85 224.436H602.811ZM609.819 271.875C600.995 272.269 592.171 272.575 583.347 272.794C583.347 272.164 583.347 271.481 583.283 270.917C592.235 270.759 601.034 270.103 609.896 269.604L609.819 271.875ZM572.733 221.378C574.556 215.787 578.121 210.968 582.877 207.664C587.634 204.359 593.317 202.753 599.051 203.092C605.065 203.557 610.71 206.249 614.935 210.666C614.977 210.851 615.046 211.028 615.139 211.191C617.788 215.453 619.361 220.324 619.718 225.365C620.076 230.406 619.205 235.46 617.186 240.07C614.257 247.105 608.54 250.873 609.487 259.05C609.487 259.142 609.487 259.195 609.487 259.274L604.947 259.549C604.941 259.523 604.941 259.496 604.947 259.471C607.057 248.969 608.783 238.534 605.471 228.111C606.493 227.187 607.312 226.05 607.875 224.777C608.847 222.441 608.694 219.645 606.187 218.477C605.094 218.06 603.887 218.088 602.813 218.554C601.739 219.02 600.878 219.889 600.407 220.984C599.307 223.228 599.857 225.644 600.676 227.901L599.793 228.387C599.665 228.438 599.541 228.499 599.422 228.571C597.845 229.644 596.191 230.592 594.473 231.406C594.188 229.709 593.761 228.04 593.194 226.418C593.147 226.28 593.078 226.152 592.99 226.037C592.947 225.911 592.896 225.789 592.836 225.67C589.166 219.684 581.915 225.25 583.245 231.144C583.846 234.241 586.8 235.423 589.716 235.515C590.453 235.531 591.189 235.474 591.915 235.344C592.644 243.535 591.084 252.605 590.47 260.284C590.457 260.406 590.457 260.53 590.47 260.652C588.117 260.849 585.751 261.019 583.398 261.243C583.178 261.262 582.965 261.329 582.772 261.439C582.606 259.161 582.307 256.895 581.876 254.653C581.82 254.345 581.667 254.064 581.442 253.852C581.363 253.695 581.26 253.553 581.135 253.432C572.605 245.15 568.806 232.981 572.733 221.378ZM594.473 277.126V277.034C597.517 276.955 600.56 276.85 603.604 276.692C603.059 277.413 602.437 278.069 601.75 278.648C600.761 279.573 599.587 280.263 598.31 280.67L598.118 280.748C597.229 280.582 596.409 280.149 595.76 279.505C595.111 278.86 594.663 278.032 594.473 277.126Z" fill="black" stroke="black" stroke-width="0.60586"/>
<path d="M595.293 190.129C594.496 186.36 594.043 182.535 593.941 178.696C593.908 178.37 593.746 178.068 593.486 177.848C593.226 177.627 592.887 177.505 592.535 177.505C592.183 177.505 591.844 177.627 591.583 177.848C591.323 178.068 591.161 178.37 591.129 178.696C591.24 182.771 591.724 186.83 592.577 190.829C592.924 192.473 595.64 191.773 595.293 190.129Z" fill="black" stroke="black" stroke-width="0.908791"/>
<path d="M624.531 196.233C626.865 192.936 629.086 189.566 631.194 186.123C632.059 184.717 629.908 183.42 629.086 184.816C626.977 188.266 624.756 191.636 622.422 194.925C621.431 196.266 623.593 197.585 624.531 196.233Z" fill="black" stroke="black" stroke-width="0.908791"/>
<path d="M646.218 211.217C644.407 212.336 641.911 212.785 639.918 213.466L633.161 215.775C631.532 216.334 632.227 219.105 633.879 218.534L641.592 215.897C643.648 215.384 645.649 214.647 647.563 213.697C647.851 213.496 648.056 213.186 648.136 212.828C648.216 212.471 648.165 212.095 647.993 211.777C647.82 211.459 647.54 211.224 647.21 211.12C646.88 211.016 646.525 211.051 646.218 211.217Z" fill="black" stroke="black" stroke-width="0.908791"/>
<path d="M558.996 192.145C557.747 190.917 555.89 192.968 557.161 194.183C560.06 196.979 562.823 199.942 565.44 203.062C566.546 204.425 568.425 202.374 567.286 201.024C564.671 197.897 561.904 194.933 558.996 192.145Z" fill="black" stroke="black" stroke-width="0.908791"/>
<path d="M561.54 219.136C556.954 218.434 552.347 217.98 547.718 217.773C546.318 217.701 546.318 220.522 547.718 220.582C552.341 220.789 556.948 221.247 561.54 221.957C562.967 222.148 562.958 219.327 561.54 219.136Z" fill="black" stroke="black" stroke-width="0.908791"/>
<g clip-path="url(#clip1)">
<path fill-rule="evenodd" clip-rule="evenodd" d="M825.399 229.808C826.841 223.653 833.422 221.735 834.354 221.48C834.848 221.344 838.639 220.368 842.273 221.505C844.756 219.834 846.945 217.955 848.791 215.909C849.141 215.52 849.457 215.153 849.789 214.764C850.677 213.728 851.595 212.655 853.073 211.351C854.463 210.127 855.973 209.029 857.583 208.072C857.087 206.968 856.772 205.754 856.692 204.445C856.375 199.203 859.95 194.266 864.902 192.944C871.051 191.302 875.86 196.157 876.527 196.852C877.023 197.374 882.105 202.846 879.826 208.701C877.884 213.694 871.814 215.825 866.943 215.022C864.866 214.679 862.753 213.763 860.988 212.366C859.441 213.228 858 214.245 856.692 215.398C855.5 216.449 854.779 217.292 853.942 218.269C853.602 218.666 853.249 219.078 852.852 219.519C851.123 221.434 849.148 223.216 846.952 224.839C849.17 227.944 849.089 232.114 847.646 235.548C849.5 237.871 851.555 239.847 853.76 241.422C854.127 241.686 854.474 241.921 854.842 242.168C855.84 242.843 856.873 243.543 858.167 244.712C859.086 245.542 859.947 246.439 860.745 247.396C865.927 242.667 873.176 244.902 874.197 245.234C874.966 245.486 882.899 248.215 883.775 255.189C884.522 261.136 879.671 266.43 874.435 268.2C869.221 269.96 862.146 268.728 858.68 263.152C856.643 259.874 856.323 255.847 857.521 252.36C856.61 251.057 855.563 249.869 854.401 248.82C853.397 247.911 852.607 247.377 851.692 246.758C851.31 246.5 850.917 246.234 850.491 245.929C848.269 244.34 846.183 242.423 844.28 240.219C841.061 243.011 836.218 244.465 831.741 242.42C826.935 240.225 824.237 234.768 825.399 229.808ZM868.006 210.547C870.442 210.928 873.311 209.886 874.524 207.643C876.267 204.426 873.586 200.617 871.583 198.95C870.83 198.323 868.729 196.573 866.353 197.15C863.691 197.795 862.259 200.982 862.268 203.488C862.281 206.606 864.527 210.001 868.006 210.547ZM863.671 259.276C865.345 262.347 869.373 264.516 873.095 263.224C875.703 262.32 877.977 259.784 877.978 256.933C877.981 252.844 873.305 250.494 870.44 249.902C869.363 249.68 866.356 249.058 864.319 250.876C862.036 252.912 862.324 256.81 863.671 259.276ZM833.521 237.089C836.297 238.55 840.372 238.186 842.498 235.397C843.986 233.447 844.413 230.444 842.994 228.323C840.959 225.28 836.311 225.828 833.885 226.794C832.974 227.157 830.428 228.171 829.82 230.522C829.136 233.159 831.29 235.914 833.521 237.089Z" fill="black"/>
</g>
<path d="M685.757 96.5994L653.826 98.6787L652.437 73.0338L647.578 70.9545V64.0235L651.049 58.4786L657.99 59.1717L659.379 56.3993L664.238 49.4683H670.485L676.733 53.6269L681.592 51.5476L687.145 52.9338L692.004 59.8648L689.228 66.1028L685.757 69.5683V96.5994Z" fill="#F7941D"/>
<path d="M683.756 95.0956C683.529 95.1453 683.292 95.2136 683.089 95.2729L683.039 95.2875C682.925 95.3209 682.823 95.3505 682.739 95.3728C682.69 95.3855 682.651 95.3951 682.619 95.4014C682.603 95.4045 682.591 95.4065 682.582 95.4078C682.572 95.409 682.568 95.409 682.569 95.409H682.552L682.535 95.4118C682.038 95.4947 681.54 95.5581 681.048 95.621L680.955 95.6328C680.519 95.6884 680.088 95.7444 679.669 95.8138C679.744 92.064 679.547 88.2538 679.308 84.4501C679.263 83.7295 679.216 83.0093 679.169 82.2897C678.964 79.1249 678.759 75.9732 678.687 72.8652C678.686 72.3849 678.494 72.0115 678.197 71.7613C677.905 71.5146 677.523 71.3964 677.149 71.3964C676.775 71.3964 676.392 71.5146 676.1 71.7613C675.803 72.0119 675.611 72.3861 675.611 72.8676H675.611L675.611 72.8723C675.65 74.5539 675.667 76.2544 675.685 77.965C675.747 84.0282 675.811 90.2186 676.821 96.1446C676.096 96.2216 675.371 96.2821 674.644 96.3427L674.642 96.3428C673.845 96.4093 673.045 96.476 672.244 96.5648C671.536 96.6091 670.805 96.6534 670.074 96.6977L670.073 96.6978L670.068 96.6981C669.413 96.7378 668.757 96.7775 668.118 96.8172C668.157 94.4141 667.899 91.966 667.646 89.5722C667.521 88.3948 667.398 87.2307 667.313 86.0914L667.313 86.0897C666.958 81.8306 666.781 77.5751 666.958 73.3217C666.983 72.8644 666.822 72.5035 666.551 72.2598C666.285 72.0204 665.928 71.9073 665.576 71.9073C664.873 71.9073 664.112 72.3662 664.06 73.3005L664.06 73.3038C663.882 77.8459 664.06 82.3859 664.416 86.9225L664.416 86.9226C664.515 88.1802 664.578 89.4586 664.64 90.7437C664.741 92.8064 664.843 94.8864 665.099 96.9256C661.876 97.0105 658.645 97.1011 655.412 97.4298C655.588 89.2437 655.757 80.9607 655.14 72.7634L655.14 72.7634L655.139 72.7584C655.09 72.2676 654.869 71.8152 654.51 71.5208C654.148 71.2229 653.658 71.0982 653.108 71.2472C652.268 71.4455 651.247 71.0274 650.341 70.3183C649.44 69.6124 648.716 68.6658 648.466 67.9158L648.466 67.9158L648.464 67.9106C647.779 66.0275 648.208 63.8879 649.576 62.4346L649.576 62.434C651.986 59.8525 655.439 59.7471 658.686 60.8875C659.111 61.0458 659.573 60.9619 659.946 60.7509C660.318 60.5399 660.627 60.1869 660.732 59.767L660.732 59.7671L660.733 59.7611C660.836 59.2915 660.925 58.8091 661.013 58.3297C661.059 58.0808 661.105 57.8328 661.152 57.5877C661.292 56.8655 661.448 56.1598 661.672 55.4955C662.117 54.1716 662.824 53.0223 664.187 52.2552C667.809 50.2723 672.299 51.9094 673.94 55.6241L673.94 55.6242L673.944 55.6329C674.205 56.1534 674.699 56.4077 675.201 56.4454C675.697 56.4826 676.223 56.3109 676.58 55.9553C679.209 53.5009 682.769 53.6215 685.473 55.2504C688.178 56.8799 689.985 59.9947 689.123 63.4883L683.756 95.0956ZM683.756 95.0956C683.384 92.7769 683.365 90.2986 683.43 87.8229C683.451 87.0218 683.481 86.222 683.51 85.4275C683.575 83.6898 683.638 81.9779 683.608 80.3356C683.519 76.6069 683.43 72.9668 683.341 69.3267L683.341 69.3185L683.341 69.3135H683.341C683.341 68.5039 683.942 67.8075 684.643 67.6063C686.649 66.9955 688.614 65.5237 689.123 63.4889L683.756 95.0956ZM692.544 60.5688L692.544 60.5674C691.777 56.5525 689.273 53.3449 686.095 51.6941C682.965 50.0678 679.182 49.9533 675.781 52.0658C673.394 48.8155 669.033 47.2522 665.108 48.1441L665.107 48.1443C662.57 48.7332 660.948 49.9622 659.852 51.5951C658.796 53.1679 658.236 55.1042 657.798 57.1659C655.058 56.6351 652.076 56.9414 649.625 58.1449C647.108 59.3805 645.15 61.564 644.604 64.7473H644.604L644.604 64.7482C644.237 66.9489 645.017 69.3155 646.432 71.1385C647.809 72.9118 649.809 74.1987 651.993 74.31C652.685 82.2179 652.686 90.2994 652.599 98.216C652.282 98.7042 652.215 99.3069 652.425 99.8132C652.647 100.348 653.164 100.746 653.945 100.795L653.945 100.795H653.958H653.959H653.96H653.961H653.962H653.963H653.964H653.965H653.966H653.967H653.968H653.969H653.971H653.972H653.973H653.974H653.975H653.976H653.977H653.978H653.979H653.98H653.981H653.982H653.983H653.984H653.985H653.986H653.987H653.988H653.989H653.99H653.991H653.992H653.993H653.994H653.996H653.997H653.998H653.999H654H654.001H654.002H654.003H654.004H654.005H654.006H654.007H654.008H654.009H654.01H654.011H654.012H654.013H654.014H654.015H654.016H654.017H654.019H654.02H654.021H654.022H654.023H654.024H654.025H654.026H654.027H654.028H654.029H654.03H654.031H654.032H654.033H654.034H654.035H654.036H654.037H654.038H654.04H654.041H654.042H654.043H654.044H654.045H654.046H654.047H654.048H654.049H654.05H654.051H654.052H654.053H654.054H654.055H654.056H654.058H654.059H654.06H654.061H654.062H654.063H654.064H654.065H654.066H654.067H654.068H654.069H654.07H654.071H654.072H654.073H654.074H654.076H654.077H654.078H654.079H654.08H654.081H654.082H654.083H654.084H654.085H654.086H654.087H654.088H654.089H654.091H654.092H654.093H654.094H654.095H654.096H654.097H654.098H654.099H654.1H654.101H654.102H654.103H654.105H654.106H654.107H654.108H654.109H654.11H654.111H654.112H654.113H654.114H654.115H654.116H654.118H654.119H654.12H654.121H654.122H654.123H654.124H654.125H654.126H654.127H654.128H654.13H654.131H654.132H654.133H654.134H654.135H654.136H654.137H654.138H654.139H654.14H654.142H654.143H654.144H654.145H654.146H654.147H654.148H654.149H654.15H654.152H654.153H654.154H654.155H654.156H654.157H654.158H654.159H654.16H654.162H654.163H654.164H654.165H654.166H654.167H654.168H654.169H654.17H654.172H654.173H654.174H654.175H654.176H654.177H654.178H654.179H654.181H654.182H654.183H654.184H654.185H654.186H654.187H654.188H654.19H654.191H654.192H654.193H654.194H654.195H654.196H654.198H654.199H654.2H654.201H654.202H654.203H654.204H654.206H654.207H654.208H654.209H654.21H654.211H654.212H654.214H654.215H654.216H654.217H654.218H654.219H654.221H654.222H654.223H654.224H654.225H654.226H654.228H654.229H654.23H654.231H654.232H654.233H654.235H654.236H654.237H654.238H654.239H654.24H654.242H654.243H654.244H654.245H654.246H654.247H654.249H654.25H654.251H654.252H654.253H654.255H654.256H654.257H654.258H654.259H654.261H654.262H654.263H654.264H654.265H654.266H654.268H654.269H654.27H654.271H654.273H654.274H654.275H654.276H654.277H654.279H654.28H654.281H654.282H654.283H654.285H654.286H654.287H654.288H654.289H654.291H654.292H654.293H654.294H654.296H654.297H654.298H654.299H654.301H654.302H654.303H654.304H654.305H654.307H654.308H654.309H654.31H654.312H654.313H654.314H654.315H654.317H654.318H654.319H654.32H654.322H654.323H654.324H654.325H654.327H654.328H654.329H654.33H654.332H654.333H654.334H654.336H654.337H654.338H654.339H654.341H654.342H654.343H654.344H654.346H654.347H654.348H654.35H654.351H654.352H654.353H654.355H654.356H654.357H654.359H654.36H654.361H654.362H654.364H654.365H654.366H654.368H654.369H654.37H654.372H654.373H654.374H654.375H654.377H654.378H654.379H654.381H654.382H654.383H654.385H654.386H654.387H654.389H654.39L654.908 107.795C654.913 108.518 655.527 109.236 656.357 109.236C660.452 109.236 664.462 109.065 668.548 108.891L668.804 108.88C668.804 108.88 668.804 108.88 668.805 108.88C669.985 108.837 671.286 108.852 672.649 108.869L672.692 108.869C674.069 108.886 675.506 108.903 676.933 108.858C679.78 108.769 682.612 108.436 684.873 107.353C685.148 107.24 685.377 107.002 685.525 106.73C685.674 106.457 685.755 106.126 685.705 105.808C685.635 104.83 685.593 103.842 685.55 102.851C685.488 101.399 685.425 99.9404 685.276 98.4923C686.213 98.0395 686.927 97.4038 687.206 96.5675L687.206 96.5676L687.21 96.5555C687.395 95.8584 687.416 95.011 687.394 94.1759C687.384 93.8131 687.367 93.4567 687.35 93.1121C687.327 92.6465 687.305 92.2025 687.305 91.7934C687.305 90.2814 687.283 88.7698 687.261 87.2598L687.261 87.2589C687.239 85.7481 687.217 84.2391 687.217 82.7303L687.216 82.726C687.172 80.6441 687.128 78.5729 687.083 76.5017C687.04 74.4808 686.996 72.4599 686.953 70.4292C690.867 68.8519 693.354 64.9794 692.544 60.5688ZM657.52 106.325L657.026 100.88C662.822 100.788 668.704 100.521 674.413 99.9944L674.413 99.9944L674.418 99.9938C675.03 99.9218 675.942 99.8942 677.011 99.8617C677.241 99.8548 677.479 99.8475 677.722 99.8396C679.017 99.7975 680.468 99.7353 681.834 99.5767C681.841 99.806 681.856 100.045 681.871 100.29L681.875 100.358C681.898 100.714 681.919 101.086 681.919 101.478C681.919 101.633 681.962 101.913 682.015 102.235C682.031 102.33 682.048 102.429 682.065 102.532C682.108 102.792 682.156 103.075 682.199 103.364C682.26 103.767 682.312 104.174 682.332 104.526C682.343 104.707 682.344 104.866 682.337 105C682.238 104.964 682.124 104.939 682.004 104.92C681.678 104.869 681.248 104.855 680.811 104.861C679.946 104.872 679.011 104.96 678.722 105.007C677.75 105.095 676.777 105.161 675.802 105.228L675.8 105.228C674.825 105.294 673.846 105.361 672.868 105.45C670.294 105.628 667.697 105.761 665.099 105.894L665.098 105.894C662.567 106.024 660.034 106.154 657.52 106.325Z" fill="black" stroke="black" stroke-width="0.410087"/>
<path d="M669.527 75.3555L669.527 75.3575C669.561 76.5321 669.582 77.7171 669.603 78.9079C669.692 83.9268 669.783 89.0501 670.862 93.9399C670.932 94.2914 671.121 94.5358 671.368 94.6791C671.612 94.8216 671.909 94.8618 672.195 94.8152C672.763 94.7224 673.307 94.2786 673.307 93.571C673.351 90.5468 673.151 87.501 672.918 84.4578C672.881 83.973 672.843 83.4883 672.805 83.0038C672.604 80.4456 672.404 77.8917 672.33 75.3535L672.33 75.3535L672.33 75.3519C672.283 74.4635 671.578 74.021 670.895 74.021C670.554 74.021 670.212 74.1309 669.955 74.3543C669.696 74.5788 669.527 74.9145 669.527 75.3555Z" fill="black" stroke="black" stroke-width="0.136696"/>
<path d="M367.891 56.2837L378.673 65.7177L391.476 54.936L402.931 58.3053L405.627 70.4346L394.845 88.6286L380.694 102.78L357.783 71.7823L359.131 60.3268L367.891 56.2837Z" fill="#F7941D"/>
<path d="M381.789 100.287C376.2 93.2397 370.131 86.6133 365.007 79.1962C362.901 76.1485 361.383 72.7982 360.291 69.2659C358.371 63.1983 361.163 59.8981 368.668 59.3635C372.928 60.2693 375.254 64.4975 375.937 68.349C376.444 71.2223 380.511 70.7843 381.272 68.349C385.5 54.8104 408.147 54.6452 402.492 71.6139C398.809 82.6691 387.973 93.6555 379.107 100.906C376.337 103.17 380.276 107.086 383.019 104.842C394 95.8643 414.25 76.0538 407.804 60.0465C401.498 44.3864 379.616 55.0833 375.938 66.8678C377.716 66.8678 379.494 66.8678 381.274 66.8678C379.347 55.9946 360.802 46.0903 355.518 60.1653C349.422 76.4009 369.07 93.1228 377.875 104.224C380.101 107.031 383.989 103.064 381.789 100.287Z" fill="black"/>
<path d="M946.94 53.5691L934.638 61.7708L929.17 71.3395L927.803 83.6421L936.004 100.046L946.94 106.88L962.66 105.513L974.963 100.046L982.481 87.743L984.531 78.8578L982.481 67.2387L974.963 56.303L964.711 53.5691H946.94Z" fill="#F7941D"/>
<path d="M944.207 66.897V92.5274L947.624 93.2109L971.546 78.8578L944.207 66.897Z" fill="#FEF4E8"/>
<path d="M966.244 73.9548C963.631 72.8663 961.019 71.6689 958.515 70.4716C954.161 68.5122 949.916 66.444 945.453 64.8112C945.235 64.7024 945.017 64.5935 944.8 64.5935C943.929 64.3758 943.276 64.7024 942.84 65.3555C940.99 66.6617 941.099 68.6211 941.208 71.1247C941.316 77.3293 941.316 83.5338 941.643 89.7384C942.078 100.841 953.617 93.1129 958.951 89.9561C961.345 88.5411 963.74 87.126 966.135 85.602C968.094 84.4047 970.815 83.5338 972.339 81.7922C973.972 80.0506 973.863 78.0912 972.122 76.4584C970.598 75.1522 967.985 74.7168 966.244 73.9548ZM967.223 79.8329C965.808 80.7037 964.393 81.4657 963.087 82.3365C960.474 83.9693 957.862 85.602 955.141 87.0171C953.726 87.7791 952.419 88.6499 951.004 89.303C950.46 89.6296 949.807 89.8473 949.263 90.1738C946.868 91.5889 945.779 91.4801 946.106 89.6296C945.017 87.4525 945.997 81.7922 945.888 79.2886C945.888 78.4178 945.344 71.7778 945.453 69.383C950.242 71.3424 954.923 73.6283 959.712 75.8053C961.781 76.785 964.284 78.3089 966.57 78.7443C968.747 79.1798 969.618 78.3089 967.223 79.8329Z" fill="black"/>
<path d="M985.619 74.2813C984.313 65.1377 979.088 54.7968 969.618 52.2932C969.509 52.1843 969.291 52.0755 969.074 52.0755C960.474 49.7896 952.31 49.0276 944.038 52.6197C936.309 55.9941 929.887 60.8925 926.948 68.9476C922.811 80.4859 926.621 96.9226 936.636 104.542C946.977 112.38 965.917 108.57 975.605 100.841C983.66 94.5279 986.925 84.2958 985.619 74.2813ZM977.455 92.4597C971.251 101.603 959.168 104.325 948.718 103.998C936.853 103.671 930.54 91.6977 929.669 81.0302C928.907 71.1246 933.588 62.9607 942.187 58.28C950.678 53.5994 958.624 53.5994 967.985 55.8853C968.094 55.8853 968.203 55.8853 968.203 55.8853C981.701 61.1102 984.966 81.4656 977.455 92.4597Z" fill="black"/>
<path d="M509.361 73.793H498.555L496.529 100.107L499.906 104.83L508.685 103.481L510.711 98.7575L515.439 100.107L524.218 103.481H541.777L547.855 98.7575L547.18 94.7092L551.907 89.3115L549.881 85.2632L553.258 77.8413L551.907 73.793L535.699 71.7689L531.647 53.5516L528.27 52.2021L521.517 69.07L515.439 76.4919L509.361 78.5161V73.793Z" fill="#F7941D"/>
<path d="M507.805 73.3899H496.869V104.83L507.805 102.779V73.3899Z" fill="#FEF4E8"/>
<path fill-rule="evenodd" clip-rule="evenodd" d="M555.114 76.4296C554.902 75.6519 554.826 74.7528 554.447 74.0252C554.281 73.7062 554.074 73.5635 553.908 73.3101C553.787 73.1251 553.864 73.0094 553.686 72.8273C553.563 72.702 553.2 72.5536 553.145 72.4109C552.97 71.9599 552.112 71.6005 551.736 71.5041C550.765 71.2555 549.84 70.897 548.809 70.7842C546.345 70.5153 543.807 70.9162 541.36 70.5317C539.57 70.2503 537.463 70.0672 535.893 69.2057C535.188 68.8173 534.991 68.2786 535.05 67.444C535.15 66.009 535.071 64.577 535.054 63.141C535.04 61.8892 535.325 60.7019 535.359 59.4616C535.397 58.0989 535.122 56.5859 535.373 55.2463C535.538 54.3674 535.01 53.4509 534.687 52.6212C534.545 52.2579 534.533 52.0353 534.297 51.6951C533.984 51.2431 533.491 51.0426 533.16 50.6533C531.927 49.2058 529.836 49.4911 528.181 49.4911C525.869 49.492 523.93 51.5505 523.347 53.9347C523.139 54.7741 522.35 55.627 522.301 56.4799C522.289 56.7169 522.05 56.9482 521.98 57.1371C521.912 57.3173 521.776 58.2782 521.619 58.3485C521.502 58.4005 521.182 60.115 521.096 60.3395C520.575 61.6964 520.14 63.0774 519.648 64.4449C518.448 67.843 517.389 72.0852 514.259 74.215C513.766 74.5523 513.025 74.8964 512.652 75.3647C512.509 75.5401 511.642 75.4466 511.433 75.4437C510.73 75.4331 510.828 74.6699 510.641 74.1341C510.44 73.5038 509.951 72.5468 509.336 72.2143C508.531 71.7797 507.545 71.5282 506.662 71.3856C503.916 70.9423 501.135 71.1437 498.376 71.2786C497.184 71.3364 495.478 71.5118 495.12 72.9844C495.001 73.4701 494.866 73.9269 494.819 74.4318C494.757 75.1064 494.909 75.7627 494.878 76.4325C494.817 77.7489 494.387 79.0316 494.39 80.3741C494.392 81.4052 494.348 82.5819 494.414 83.6767C494.499 85.0808 494.67 86.4503 494.435 87.8505C494.033 90.2357 494.215 92.7105 493.972 95.1217C493.868 96.1529 493.968 97.1657 493.842 98.2085C493.661 99.7051 494.053 100.998 494.193 102.469C494.364 104.272 495.208 106.273 497.132 106.482C497.794 106.565 498.578 106.748 499.247 106.745C500.508 106.74 501.866 107.038 503.113 106.765C505.015 106.349 507.271 105.935 508.919 104.82C509.428 104.476 509.713 103.847 509.841 103.255C509.903 102.971 510.006 102.326 510.241 102.13C510.212 102.153 510.362 101.604 510.319 101.732C510.499 101.205 510.845 101.485 511.24 101.633C512.703 102.178 513.853 103.103 515.236 103.535C515.969 103.763 516.731 103.991 517.451 104.18C518.013 104.327 518.596 104.445 519.133 104.676C519.387 104.786 520.039 105.12 520.291 105.09C520.597 105.054 521.247 105.282 521.582 105.332C521.995 105.393 522.409 105.499 522.845 105.52C524.015 105.578 525.203 106.04 526.407 106.152C527.048 106.212 533.67 106.393 533.646 106.031C533.637 105.908 536.215 105.692 536.476 105.688C537.508 105.673 538.49 105.349 539.513 105.303C541.256 105.226 542.816 104.142 544.492 103.82C544.864 103.749 545.36 103.349 545.709 103.196C546.006 103.067 546.272 102.808 546.513 102.621C546.797 102.4 547.118 102.247 547.406 102.031C547.637 101.857 547.763 101.679 547.88 101.554C548.465 100.933 549.029 100.05 549.265 99.1895C549.495 98.3463 549.583 97.477 549.216 96.6964C549.125 96.5046 549.095 96.3273 549.006 96.1346C548.936 95.9852 548.722 95.751 548.684 95.6421C548.428 94.9135 548.779 94.0346 549.532 93.8303C550.197 93.6501 550.549 92.7731 550.997 92.2932C551.353 91.9135 552.003 91.6967 552.142 91.1262C552.364 90.2241 552.875 89.3886 553.129 88.4731C553.388 87.5383 553.539 86.5495 553.059 85.6735C552.738 85.0885 552.226 84.4188 552.076 83.7644C552.002 83.4387 551.791 83.1736 551.723 82.872C551.631 82.4605 552.137 82.2128 552.383 82.0133C552.694 81.7618 552.977 81.5565 553.326 81.3493C553.727 81.1113 553.76 80.773 554.057 80.4907C554.378 80.1852 554.569 79.7448 554.792 79.3641C555.393 78.331 555.424 77.5687 555.114 76.4296C555.038 76.1511 555.207 76.7708 555.114 76.4296ZM507.181 94.5753C507.137 95.3732 507.121 96.2868 507.14 97.1532C507.158 97.9916 507.303 99.2753 506.94 100.076C506.823 100.33 505.577 101.136 505.574 101.104C505.6 101.307 504.154 101.744 504.044 101.883C503.641 102.386 501.799 102.144 501.256 102.135C500.67 102.124 500.084 102.16 499.499 102.15C498.681 102.137 498.192 102.064 498.08 101.156C497.83 99.1163 497.763 96.8092 498.047 94.7921C498.179 93.8525 498.237 92.8069 498.273 91.8605C498.294 91.3093 498.251 90.7628 498.286 90.2097C498.328 89.5476 498.566 88.9328 498.597 88.2755C498.714 85.7024 498.513 83.1072 498.576 80.535C498.601 79.4451 498.951 78.2761 498.895 77.2093C498.869 76.7129 499.102 75.7618 499.459 75.3618C500.031 74.7267 501.211 74.6978 501.966 74.8144C502.773 74.9388 503.493 74.9927 504.294 75.0477C504.84 75.0852 505.518 75.0245 505.929 75.4601C506.268 75.8205 506.334 76.2928 506.412 76.7525C506.49 77.2093 506.307 78.7175 506.654 78.9979C506.929 79.2205 506.912 81.0198 506.893 81.3792C506.659 85.7785 507.434 90.1702 507.181 94.5753ZM550.691 78.4823C550.104 79.234 549.23 79.5973 548.732 80.3943C548.401 80.9215 547.915 81.1489 547.554 81.6028C547.384 81.8167 547.273 82.1724 547.177 82.4065C546.925 83.0175 546.808 84.1229 546.965 84.7879C547.217 85.8595 547.881 86.431 548.519 87.2684C548.859 87.7118 549.249 88.2167 549.155 88.8075C549.055 89.4397 548.517 90.4207 548.003 90.7898C547.409 91.2158 546.443 91.5791 545.987 92.1516C545.878 92.2884 545.531 92.4551 545.358 92.5476C544.915 92.7857 544.294 93.2685 544.097 93.7542C543.761 94.5714 543.73 96.3842 544.097 97.2024C544.386 97.8586 545.132 98.3511 545.235 99.1413C545.329 99.8583 543.79 100.082 543.319 100.275C542.245 100.714 541.117 100.754 539.983 100.943C538.726 101.155 537.482 101.177 536.23 101.418C535.015 101.652 533.821 101.463 532.649 101.608C530.803 101.838 528.965 101.659 527.027 101.449C526.498 101.393 525.966 101.369 525.437 101.308C524.862 101.242 524.416 101.041 523.866 100.893C523.574 100.815 520.601 100.226 520.611 100.116C520.626 99.9624 518.779 99.4738 518.601 99.4198C517.899 99.2049 517.181 98.9852 516.512 98.7019C515.805 98.4022 515.158 98.0938 514.418 97.8606C513.808 97.6669 513.267 97.2081 512.77 97.0347C512.489 96.9364 512.358 96.7889 512.064 96.7176C511.784 96.6501 511.508 96.5403 511.263 96.3861C510.921 96.1731 511.014 95.8695 511 95.4976C510.941 93.9518 511.056 92.4069 511.052 90.8621C511.048 89.459 510.832 88.0799 510.761 86.6825C510.729 86.0436 510.679 85.4037 510.664 84.7638C510.646 84.0179 510.95 83.456 511.041 82.7535C511.135 82.0394 510.678 79.5597 511.763 79.5877C512.283 79.6012 513.032 79.235 513.534 79.0586C514.047 78.8813 514.494 78.6481 514.982 78.4014C515.214 78.2847 516.243 77.9629 516.292 77.694C516.329 77.4849 517.029 77.2584 517.154 77.1697C518.005 76.5809 518.902 75.5835 519.76 74.6892C520.014 74.4241 520.595 73.8372 520.613 73.4749C520.633 73.0807 521.085 72.915 521.257 72.6538C521.454 72.3483 521.454 71.9715 521.739 71.6689C522.263 71.1099 522.368 70.1751 522.541 69.4707C522.587 69.2818 522.64 69.0062 522.789 68.8741C522.97 68.7151 522.878 68.4328 522.946 68.2207C523.022 67.9789 523.151 67.7003 523.262 67.4411C523.614 66.6181 524.102 65.8163 524.314 64.9364C524.523 64.0826 524.642 63.2393 524.955 62.4009C525.166 61.8333 525.529 61.1876 525.681 60.6672C525.816 60.2162 525.896 59.8471 526.083 59.4356C526.177 59.2216 526.176 58.5499 526.36 58.4256C526.45 58.3649 526.666 57.6884 526.726 57.5467C526.821 57.3212 526.758 56.8731 526.923 56.6948C527.414 56.1619 527.395 55.2589 527.852 54.6855C528.151 54.3086 528.099 53.8894 528.69 53.9338C529.037 53.9598 529.271 54.0918 529.541 54.2624C530.287 54.7307 530.434 55.5297 530.545 56.3671C530.699 57.5294 530.391 58.7089 530.531 59.8731C530.697 61.2531 530.624 62.69 530.683 64.0806C530.745 65.5455 530.81 67.019 530.712 68.4838C530.661 69.2432 530.608 70.7794 531.249 71.3711C531.517 71.6188 531.607 71.8481 531.793 72.1613C532.043 72.5854 532.259 72.6422 532.597 72.9005C532.794 73.0518 533.2 73.1655 533.321 73.311C533.465 73.4932 534.177 73.7544 534.54 73.871C535.006 74.0203 535.695 74.2748 536.136 74.2969C536.414 74.3123 537.569 74.374 537.683 74.5841C537.835 74.8636 539.634 74.826 539.93 74.8462C540.88 74.9127 541.837 74.9638 542.789 74.9638C544.281 74.9638 545.824 74.8212 547.295 75.1151C548.303 75.3165 549.615 75.6577 550.291 76.5135C550.368 76.6118 550.605 77.0233 550.613 77.1707C550.622 77.3596 550.895 77.4704 550.972 77.6333C551.127 77.9687 550.88 78.2414 550.691 78.4823C550.597 78.6028 550.908 78.2067 550.691 78.4823Z" fill="black"/>
<path d="M238.208 54.936L232.364 71.3568L212.885 73.2515L225.871 85.8829L221.326 104.83L238.208 92.1986L255.739 102.935L249.246 85.2513L264.829 73.2515L244.701 71.9884L238.208 54.936Z" fill="#F7941D"/>
<path d="M240.142 52.5343L240.142 52.5343C240.78 51.3517 240.196 50.235 239.303 49.7132C238.857 49.4521 238.328 49.3361 237.829 49.4349C237.327 49.5341 236.862 49.8488 236.544 50.437C234.84 53.5894 233.677 56.9288 232.614 60.3033C232.369 61.0836 232.129 61.8656 231.888 62.6476C231.089 65.2494 230.29 67.8514 229.29 70.3897C229.045 71.0124 229.11 71.5536 229.368 71.9738C229.625 72.3919 230.068 72.6826 230.568 72.8179C231.565 73.0882 232.814 72.7435 233.3 71.5096C234.261 69.0719 235.021 66.5646 235.78 64.0626C235.999 63.3406 236.218 62.619 236.441 61.8997C237.439 58.686 238.531 55.5146 240.142 52.5343Z" fill="black" stroke="black" stroke-width="0.136696"/>
<path d="M241.52 69.5952C241.49 69.6706 241.466 69.7479 241.448 69.8265C241.34 70.3039 241.453 70.8213 241.715 71.2671C242.238 72.1575 243.373 72.7867 244.588 72.247C244.625 72.2305 244.662 72.2139 244.7 72.1973C244.714 72.1909 244.728 72.1846 244.742 72.1782C244.765 72.168 244.788 72.1579 244.811 72.1478L244.811 72.1477C245.27 71.9438 245.545 71.5636 245.688 71.1329C245.831 70.7034 245.844 70.2206 245.776 69.8004C245.254 66.5569 244.209 63.5267 243.076 60.5279C242.852 59.9346 242.625 59.3427 242.397 58.7505C241.474 56.3479 240.549 53.9425 239.846 51.435C239.665 50.7923 239.278 50.3745 238.808 50.1536C238.34 49.9334 237.793 49.9105 237.294 50.0474C236.795 50.1844 236.339 50.4826 236.052 50.9109C235.764 51.3408 235.65 51.8976 235.831 52.5424C236.537 55.0574 237.464 57.4697 238.388 59.8721C238.615 60.4635 238.842 61.0544 239.066 61.646C240.045 64.238 240.956 66.8467 241.52 69.5952Z" fill="black" stroke="black" stroke-width="0.136696"/>
<path d="M210.148 73.7024L210.148 73.7024C213.792 73.9967 217.43 73.8863 221.064 73.6947C221.979 73.6465 222.893 73.5932 223.807 73.5398C226.527 73.3812 229.245 73.2226 231.967 73.1992C232.636 73.1935 233.141 72.9293 233.479 72.5336C233.816 72.1393 233.983 71.6181 233.983 71.1008C233.983 70.5834 233.816 70.0648 233.48 69.6759C233.141 69.2855 232.635 69.0298 231.966 69.0355L231.967 69.1039L231.966 69.0355C229.24 69.0589 226.517 69.2178 223.796 69.3765C222.883 69.4298 221.97 69.4831 221.057 69.5312C217.424 69.7227 213.794 69.8327 210.159 69.5391C209.492 69.4852 208.987 69.7044 208.649 70.0727C208.313 70.4391 208.149 70.9472 208.15 71.4644C208.153 72.4976 208.819 73.5948 210.148 73.7024Z" fill="black" stroke="black" stroke-width="0.136696"/>
<path d="M244.936 68.774L244.936 68.774C248.35 69.6449 251.825 69.5101 255.315 69.3747C255.4 69.3714 255.484 69.3681 255.569 69.3648C259.141 69.2269 262.725 69.114 266.248 70.1168L266.229 70.1826L266.248 70.1168C266.89 70.2997 267.307 70.6888 267.528 71.1602C267.747 71.6299 267.77 72.1769 267.633 72.6759C267.496 73.175 267.198 73.631 266.77 73.9166C266.341 74.2033 265.784 74.3152 265.14 74.1317C261.671 73.1438 258.113 73.2563 254.535 73.3931C254.457 73.3961 254.38 73.3991 254.302 73.402C250.804 73.5363 247.286 73.6712 243.832 72.7898M244.936 68.774L243.832 72.7898M244.936 68.774C244.288 68.6086 243.729 68.7343 243.298 69.0294C242.868 69.3235 242.568 69.7834 242.431 70.2823C242.294 70.7812 242.317 71.3241 242.54 71.7855C242.763 72.2487 243.185 72.6246 243.832 72.7898M244.936 68.774L243.849 72.7236L243.832 72.7898" fill="black" stroke="black" stroke-width="0.136696"/>
<path d="M249.306 86.5458L249.281 86.4825L249.306 86.5458C253.241 84.9451 256.797 82.7257 260.369 80.4641C261.013 80.0569 261.683 79.6718 262.358 79.2842C262.436 79.239 262.515 79.1937 262.594 79.1484C263.347 78.7149 264.102 78.275 264.824 77.7963C266.268 76.8386 267.584 75.7227 268.497 74.1819C268.838 73.6053 268.872 73.0381 268.705 72.5486C268.538 72.0609 268.174 71.6554 267.727 71.3948C267.28 71.1342 266.746 71.0159 266.236 71.1083C265.725 71.201 265.242 71.5051 264.902 72.0799C264.228 73.2179 263.129 74.0834 261.915 74.8315C261.309 75.2053 260.675 75.5488 260.053 75.8823C259.996 75.9133 259.938 75.9442 259.88 75.975C259.319 76.2757 258.77 76.5697 258.265 76.871L258.3 76.9297L258.265 76.871C257.44 77.3633 256.626 77.8695 255.813 78.3748C253.346 79.9089 250.893 81.4346 248.184 82.5358L248.184 82.5358C246.959 83.0345 246.618 84.2904 246.888 85.2875C247.023 85.7868 247.313 86.2288 247.729 86.4826C248.148 86.7379 248.687 86.7977 249.306 86.5458Z" fill="black" stroke="black" stroke-width="0.136696"/>
<path d="M209.769 73.5826C213.414 76.1856 216.637 79.2727 219.865 82.3644C221.326 83.7629 222.787 85.1625 224.289 86.5185C225.283 87.4166 226.519 87.1272 227.251 86.3974C227.618 86.0323 227.863 85.5529 227.89 85.049C227.918 84.5429 227.725 84.0189 227.227 83.57C225.721 82.2099 224.25 80.8128 222.779 79.4161C219.295 76.1086 215.813 72.8031 211.88 69.9947C211.335 69.6052 210.791 69.5348 210.315 69.6797C209.842 69.824 209.445 70.179 209.186 70.6266C208.668 71.5206 208.686 72.8099 209.769 73.5826ZM209.769 73.5826L209.808 73.527L209.769 73.5826C209.769 73.5826 209.769 73.5826 209.769 73.5826Z" fill="black" stroke="black" stroke-width="0.136696"/>
<path d="M222.733 105.731C223.216 103.762 223.583 101.737 223.951 99.7074C224.177 98.4596 224.403 97.2103 224.657 95.9719C225.324 92.7153 226.183 89.5243 227.726 86.5958C228.351 85.4079 227.761 84.2881 226.869 83.7659C226.422 83.5047 225.895 83.3892 225.398 83.4896C224.9 83.5904 224.439 83.9079 224.127 84.4997C222.48 87.6271 221.541 90.9761 220.807 94.3837C220.509 95.7692 220.245 97.1624 219.981 98.5544C219.594 100.591 219.209 102.625 218.717 104.628C218.558 105.277 218.688 105.837 218.986 106.269C219.282 106.699 219.743 106.999 220.242 107.137C220.741 107.274 221.283 107.25 221.741 107.027C222.202 106.803 222.573 106.38 222.733 105.731Z" fill="black" stroke="black" stroke-width="0.136696"/>
<path d="M237.123 90.2944L237.159 90.3526L237.123 90.2944C234.663 91.8048 232.573 93.9235 230.492 96.0338C230.147 96.3837 229.802 96.7333 229.455 97.0799C227.017 99.5203 224.507 101.812 221.34 103.005L221.34 103.005C220.096 103.474 219.747 104.716 220.018 105.714C220.153 106.213 220.445 106.658 220.865 106.919C221.287 107.182 221.831 107.254 222.458 107.017C225.937 105.706 228.603 103.357 231.16 100.873C231.552 100.492 231.941 100.109 232.33 99.7254C234.484 97.6014 236.638 95.4781 239.227 93.8882C239.795 93.5391 240.095 93.0503 240.185 92.5348C240.274 92.0209 240.155 91.4847 239.894 91.0375C239.634 90.5904 239.23 90.2279 238.745 90.0657C238.258 89.9028 237.694 89.9436 237.123 90.2944Z" fill="black" stroke="black" stroke-width="0.136696"/>
<path d="M237.501 94.509L237.501 94.509C236.161 94.4582 235.492 93.3876 235.49 92.3537C235.49 91.8365 235.655 91.3222 235.992 90.9424C236.33 90.561 236.837 90.3201 237.506 90.3453L237.506 90.3453C241.311 90.4893 244.484 92.7819 247.15 95.3119L247.103 95.3615L247.15 95.3119C248.767 96.8468 250.471 98.2753 252.183 99.6973C252.322 99.8123 252.46 99.9273 252.599 100.042C254.173 101.348 255.749 102.656 257.262 104.041L237.501 94.509ZM237.501 94.509C239.083 94.5686 240.527 95.2689 241.846 96.2224M237.501 94.509L241.846 96.2224M245.476 99.3879L245.428 99.4365C245.428 99.4366 245.428 99.4366 245.428 99.4366M245.476 99.3879L257.263 104.041C257.757 104.493 257.947 105.019 257.919 105.527C257.89 106.032 257.644 106.512 257.278 106.877C256.546 107.607 255.312 107.894 254.323 106.989C253.052 105.826 251.703 104.746 250.352 103.664C250.182 103.528 250.012 103.392 249.843 103.256C248.324 102.037 246.815 100.802 245.428 99.4366M245.476 99.3879L245.428 99.4366M245.476 99.3879L245.428 99.4366M245.428 99.4366C245.345 99.3547 245.261 99.2719 245.177 99.1884M245.428 99.4366L245.177 99.1884M241.846 96.2224C243.063 97.1023 244.169 98.1938 245.177 99.1884M241.846 96.2224L245.177 99.1884" fill="black" stroke="black" stroke-width="0.136696"/>
<path d="M250.376 83.994L250.376 83.994C254.008 90.4853 256.98 97.3105 258.472 104.63C258.739 105.941 257.866 106.874 256.87 107.149C256.372 107.287 255.836 107.264 255.39 107.038C254.941 106.811 254.589 106.383 254.455 105.728M250.376 83.994L246.779 86.0937C250.248 92.2934 253.032 98.7494 254.455 105.728M250.376 83.994C250.049 83.4108 249.577 83.1 249.072 83.0032C248.569 82.9069 248.038 83.0237 247.591 83.2847C247.144 83.5456 246.777 83.9532 246.604 84.4443C246.43 84.9371 246.452 85.5097 246.779 86.0937L250.376 83.994ZM254.455 105.728L254.522 105.714L254.455 105.728C254.455 105.728 254.455 105.728 254.455 105.728Z" fill="black" stroke="black" stroke-width="0.136696"/>
<path d="M787.001 106.182C791.071 104.194 795.236 102.491 799.401 100.787C800.726 100.219 801.957 99.8402 802.998 98.9883C807.068 95.6753 810.57 91.1318 814.262 87.4402C822.497 79.0157 831.395 69.5501 839.251 61.5042C839.914 60.747 839.63 59.8951 839.062 59.4218C837.832 54.5943 834.14 51.8493 829.596 49.8615C829.123 49.6721 828.555 49.6721 828.177 50.0508C817.67 60.2737 807.636 71.0646 797.508 81.6661C795.236 84.0325 792.302 86.3043 790.503 89.0493C787.664 93.2142 786.338 99.7455 784.919 104.478C784.445 105.804 785.865 106.75 787.001 106.182ZM812.464 84.9791C808.867 88.6707 805.459 92.457 801.767 96.0539C801.01 95.0127 799.969 94.1608 799.022 93.3089C803.85 88.9547 808.109 83.7486 812.653 79.1104C817.386 74.1882 822.024 69.3607 826.662 64.5332C827.514 65.4798 828.366 66.4264 829.123 67.4676C829.218 67.5623 829.313 67.6569 829.407 67.7516C823.822 73.431 817.954 79.2997 812.464 84.9791ZM831.49 53.1744C834.329 54.4996 836.222 56.8661 837.169 59.8004C835.181 61.8829 833.004 64.06 830.922 66.2371C829.786 64.6279 828.555 63.208 827.135 61.8829C826.094 60.8416 824.769 59.6111 823.349 58.9485C824.58 57.718 825.716 56.3928 826.851 55.1622C828.555 53.2691 828.839 51.9439 831.49 53.1744ZM802.714 80.5302C808.109 74.8508 813.505 69.2661 818.9 63.5867C819.847 62.5455 820.793 61.5989 821.74 60.5577C822.781 61.5042 824.012 62.1668 825.053 63.1134C820.131 68.1302 815.209 73.0523 810.287 77.9745C805.932 82.4234 800.915 86.7776 797.224 91.889C796.088 91.0371 794.857 90.3745 793.627 89.9012C796.372 86.5883 799.685 83.5592 802.714 80.5302ZM791.45 94.3501C791.734 93.4982 792.018 92.6463 792.302 91.7944C792.396 91.7944 792.396 91.889 792.491 91.889C794.195 92.457 795.804 93.6875 797.129 94.8234C798.076 95.6753 798.833 96.6219 799.685 97.5684C798.738 97.9471 797.792 98.231 796.94 98.6097C794.195 99.7455 791.45 100.881 788.705 102.112C789.557 99.5562 790.503 96.9058 791.45 94.3501Z" fill="black" stroke="black" stroke-width="1.09356"/>
<path d="M823.633 64.8821C823.604 64.9052 819.423 68.2214 818.769 68.9825C818.136 69.7183 820.605 68.0937 821.477 67.5846C822.136 67.2001 821.495 67.7782 821.405 67.8766C820.642 68.7092 819.795 69.4846 818.959 70.2581C818.104 71.0487 816.624 72.3832 815.787 73.1719C814.89 74.0167 813.923 74.8818 813.231 75.8785C813.195 75.93 812.85 76.45 813.119 76.1146C813.631 75.4762 814.288 74.9534 814.949 74.4393C816.938 72.8922 819.011 71.4281 820.972 69.8522C821.113 69.7382 821.523 69.3822 821.395 69.5085C821.025 69.874 820.689 70.265 820.333 70.6412C818.195 72.8993 815.697 74.8099 813.315 76.856C812.654 77.4244 812.298 77.7463 811.721 78.3367C811.577 78.4844 811.44 78.6375 811.302 78.7902C811.216 78.8863 811.178 79.0452 811.045 79.0801C811.025 79.0853 811.048 79.0439 811.052 79.0263C811.099 78.8396 811.149 78.7551 811.267 78.5541C811.867 77.5324 812.625 76.5791 813.362 75.6342C814.88 73.6897 816.524 71.8009 817.842 69.7404C818.159 69.2449 817.289 70.7684 817.009 71.2812C816.052 73.0343 814.965 74.694 813.755 76.3196C813.257 76.9899 812.766 77.6593 812.3 78.3471C812.221 78.463 811.675 79.3599 812.105 78.432C812.931 76.6498 813.861 74.9071 814.664 73.116C815.115 72.1093 815.607 71.0522 815.768 69.9661C815.788 69.8367 815.877 69.4969 815.759 69.5747C815.415 69.8006 814.979 70.4785 814.788 70.722C813.659 72.158 812.548 73.6147 811.565 75.133C811.551 75.1545 811.542 75.1797 811.523 75.1972C811.48 75.2349 811.557 75.0951 811.581 75.046C811.74 74.714 811.938 74.3935 812.14 74.081C812.93 72.8599 813.828 71.6998 814.746 70.5522C814.937 70.3121 815.171 69.9516 815.417 69.728C815.53 69.6255 815.309 69.9979 815.242 70.1277C814.204 72.1155 812.971 74.0281 811.803 75.9572C811.366 76.6795 810.933 77.4035 810.495 78.1255C810.452 78.197 810.277 78.4523 810.469 78.2062C811.386 77.0323 812.421 75.9754 813.601 75.0005C814.109 74.5807 814.634 74.1655 815.181 73.7849C815.25 73.7367 815.366 73.6511 815.3 73.7952C814.815 74.8612 814.065 75.8692 813.428 76.8664C813.077 77.4148 812.715 77.9576 812.37 78.5086C812.325 78.5796 812.28 78.6505 812.241 78.724C812.193 78.8131 812.177 78.8496 812.279 78.7799C812.626 78.5413 812.942 78.2447 813.273 77.9909C814.07 77.3815 814.883 76.7875 815.712 76.214C816.216 75.8656 816.728 75.5238 817.271 75.2241C817.337 75.1879 817.52 75.0997 817.493 75.1641C817.211 75.8436 816.739 76.4947 816.316 77.1087C816.026 77.5297 815.714 77.9384 815.42 78.3574C815.357 78.4469 815.158 78.6745 815.272 78.6453C815.414 78.609 815.603 78.4489 815.717 78.3802C816.066 78.1691 816.415 77.9578 816.761 77.7423C817.493 77.2862 818.218 76.8236 818.914 76.3259" stroke="#FEF4E8" stroke-width="0.683478" stroke-linecap="round" stroke-linejoin="round"/>
<path d="M818.988 69.1009C818.716 69.4736 818.434 69.8392 818.172 70.2188C818.041 70.4086 817.88 70.5883 817.81 70.8079C817.787 70.8791 817.955 70.7607 818.014 70.7148C818.207 70.5648 818.556 70.2047 818.739 70.0073C818.783 69.9598 818.641 70.0928 818.598 70.1407C818.284 70.4879 818.009 70.8695 817.749 71.2586C817.741 71.2719 817.629 71.4359 817.606 71.4927C817.593 71.5247 817.656 71.445 817.676 71.4172C818.024 70.9401 818.374 70.4291 818.6 69.8814C818.611 69.8571 818.839 69.3027 818.736 69.4635C818.41 69.9763 818.149 70.5284 817.845 71.0547C817.402 71.8228 816.9 72.5506 816.397 73.2803C816.234 73.5173 816.064 73.7496 815.907 73.9903C815.836 74.0982 815.735 74.1981 815.713 74.3251C815.672 74.5556 816.111 74.0777 816.294 73.9324C816.596 73.693 817.001 73.3665 817.309 73.1267C817.469 73.0018 817.612 72.7819 817.815 72.7868C817.949 72.7901 817.799 73.0606 817.747 73.1846C817.558 73.6339 817.363 73.9807 817.105 74.4082C816.484 75.4369 816.642 75.1001 816.015 76.1026C815.89 76.3027 815.522 76.8319 815.745 76.7572C815.927 76.6968 816.482 76.1596 816.538 76.1052C816.938 75.7218 817.199 75.4375 817.568 75.02C817.827 74.7272 818.6 73.8711 818.271 74.0809C817.786 74.3894 817.355 74.8708 816.934 75.2517C816.278 75.8452 815.629 76.447 814.97 77.0367C814.845 77.1486 814.722 77.2629 814.59 77.3665C814.542 77.4044 814.465 77.5111 814.431 77.4597C814.393 77.4008 814.49 77.3314 814.529 77.2734C814.619 77.1412 814.717 77.0144 814.819 76.8907C815.567 75.9774 816.395 75.1282 817.18 74.2471C817.226 74.1957 817.55 73.8353 817.649 73.7033C817.674 73.67 817.585 73.757 817.558 73.7889C815.5 76.2477 813.508 78.7393 811.133 80.9139C810.017 81.9356 810.748 80.8905 811.027 80.4759C811.242 80.1577 811.567 79.8834 811.652 79.5091C811.708 79.2574 811.23 79.8103 811.047 79.9925C810.498 80.5407 809.98 81.1219 809.451 81.6894C809.347 81.8006 809.247 81.9146 809.139 82.0217C809.106 82.0542 809.063 82.1399 809.031 82.1073C808.995 82.0718 809.061 82.0114 809.084 81.9663C809.145 81.8424 809.213 81.7221 809.28 81.6013C809.78 80.6993 810.369 79.8534 810.947 79.0005C811.401 78.3303 812.023 77.6226 812.362 76.8781C812.546 76.4717 811.8 77.5728 811.543 77.938C810.612 79.2641 809.634 80.5238 808.502 81.6869C808.179 82.019 807.277 83.0273 807.452 82.5983C807.724 81.9317 808.189 81.3373 808.625 80.773C808.937 80.3699 809.297 79.9852 809.572 79.5544C809.92 79.0089 808.684 80.4965 808.248 80.9744C807.711 81.5619 807.046 82.2764 806.475 82.8274C806.25 83.0453 805.41 83.8374 805.035 84.0359C804.604 84.2637 804.927 83.6336 804.929 83.628C805.138 83.2002 805.702 82.3864 805.962 82.0368C806.863 80.824 807.894 79.7084 808.948 78.6279C809.369 78.1961 809.797 77.7504 810.262 77.364C810.335 77.3033 810.189 77.5096 810.186 77.5151C809.786 78.208 809.358 78.8806 808.902 79.5393C808.378 80.298 807.832 81.0432 807.251 81.7599C806.978 82.096 806.889 82.1573 807.205 81.7624C807.948 80.836 808.812 80.0072 809.65 79.1692C810.013 78.8057 810.498 78.3219 810.889 77.9506C810.94 77.9021 811.097 77.7401 811.201 77.6863C811.321 77.6242 811.114 77.9484 811.027 78.0513C810.487 78.6904 809.855 79.2642 809.23 79.8162C808.652 80.3257 808.052 80.8653 807.397 81.2765C807.279 81.3503 807.761 80.9013 807.764 80.8988C808.154 80.5912 808.58 80.338 809.008 80.0881C809.113 80.027 809.592 79.6526 809.758 79.6752C809.81 79.6823 809.789 79.7815 809.773 79.8313C809.724 79.9875 809.587 80.2445 809.517 80.3701C809.018 81.2573 808.435 82.1001 807.805 82.8979C807.104 83.7843 806.358 84.6651 805.554 85.4609C805.512 85.5026 805.373 85.5925 805.393 85.5364C805.433 85.4204 805.647 85.0681 805.69 85.0027C806.419 83.8748 807.411 82.9245 808.041 81.7297C808.129 81.5639 808.083 81.6059 807.983 81.7423C807.374 82.5747 806.758 83.3985 806.11 84.2021C805.728 84.6759 804.65 86.1377 804.934 85.5994C805.284 84.9366 805.782 84.308 806.208 83.696C806.832 82.8007 807.501 81.9382 808.124 81.0424C808.279 80.8203 808.742 80.1627 808.547 80.35C807.847 81.022 807.455 81.9836 806.77 82.6688C806.697 82.7413 806.704 82.6389 806.707 82.5807C806.729 82.129 806.944 81.7157 807.165 81.3319C807.46 80.8192 807.796 80.2268 808.223 79.8062C808.315 79.7151 808.233 80.0707 808.192 80.1939C807.599 82.0048 806.603 83.704 805.491 85.2419C805.329 85.4656 805.219 85.6079 805.048 85.7958C805.027 85.8183 804.975 85.8736 804.97 85.8436C804.929 85.6263 805.163 85.3003 805.267 85.1437C806.235 83.6851 807.64 82.4866 808.897 81.2916C809.058 81.1387 809.533 80.6746 809.355 80.8082C808.912 81.1421 808.6 81.7388 808.293 82.1778C807.684 83.0484 807.043 83.8891 806.41 84.7408C806.336 84.8404 806.282 84.9138 806.43 84.8164C806.521 84.7562 807.023 84.3754 807.059 84.3481C808.022 83.616 808.987 82.8856 809.929 82.1275C810.292 81.8356 811.291 80.8647 810.992 81.2211C810.215 82.1463 809.467 83.0799 808.613 83.9402C807.921 84.6373 807.197 85.3902 806.392 85.9619C806.115 86.1589 806.668 85.3372 806.85 85.0505C807.686 83.7404 808.581 82.4701 809.459 81.1884C809.652 80.9059 810.256 80.1148 809.965 80.2946C809.294 80.7083 808.702 81.321 808.112 81.8304C807.172 82.6416 806.209 83.5796 805.07 84.1139C804.717 84.2799 804.151 84.4741 804.25 83.8546C804.331 83.3387 804.693 82.8054 804.944 82.3591C805.242 81.8306 804.908 82.6636 804.899 82.6864C804.87 82.7642 804.516 83.4663 804.587 83.5575C804.619 83.5996 807.633 81.3152 807.941 81.1053C808.03 81.0443 808.209 80.8368 808.223 80.9442C808.243 81.1023 808.037 81.2042 807.935 81.3269C807.423 81.9436 806.881 82.5331 806.319 83.1043C806.258 83.1664 806.118 83.3575 806.118 83.2705C806.118 83.0711 806.177 82.8972 806.279 82.7242C806.547 82.2682 806.92 81.8713 807.273 81.4804C807.275 81.4791 807.463 81.2118 807.495 81.352C807.564 81.6558 807.263 82.232 807.17 82.48C807.042 82.825 806.941 83.0802 806.792 83.4065C806.706 83.5976 806.661 83.6366 806.77 83.4895C808.333 81.3694 810.166 79.4778 811.657 77.296C812.801 75.6214 813.962 73.9235 814.995 72.1776C815.719 70.9536 816.526 69.8708 817.528 68.8592C817.959 68.4242 818.376 67.8586 818.882 67.5148C819.02 67.4211 819.688 66.9346 819.864 67.0264C819.922 67.0566 819.918 67.1527 819.91 67.2177C819.882 67.4202 819.819 67.6167 819.759 67.8119C819.593 68.3464 819.184 69.4655 818.993 69.967C818.659 70.847 818.289 71.7125 817.956 72.593C817.939 72.6386 817.659 73.3647 817.624 73.5623C817.606 73.6614 817.797 73.4554 817.865 73.381C818.617 72.5567 819.346 71.7098 820.033 70.8306C820.187 70.6337 820.604 70.2081 820.683 69.9318C820.745 69.7129 820.408 70.2945 820.27 70.4756C819.726 71.1903 819.107 71.8353 818.467 72.4646C818.214 72.7136 817.77 73.1425 817.475 73.3961C817.396 73.4638 817.268 73.6352 817.206 73.5522C817.093 73.4024 817.821 72.4999 817.85 72.457C818.697 71.2264 819.693 70.1331 820.74 69.0707C820.78 69.0311 820.691 69.1704 820.66 69.2167C820.266 69.8119 819.84 70.3877 819.406 70.954C819.169 71.2632 818.854 71.6645 818.59 71.9661C818.503 72.0662 818.436 72.2491 818.303 72.243C818.208 72.2387 818.4 72.0769 818.459 72.0013C818.637 71.7739 818.927 71.43 819.104 71.2259C819.631 70.6186 820.227 70.062 820.71 69.4182" stroke="#F7941D" stroke-width="2.05043" stroke-linecap="round" stroke-linejoin="round"/>
<path d="M822.196 68.4365C822.17 68.4585 821.381 69.144 821.181 69.2515C821.063 69.3152 821.329 69.0233 821.43 68.9349C821.507 68.8675 821.681 68.7263 821.716 68.8226C821.76 68.945 821.644 69.1808 821.597 69.2893C821.535 69.4307 821.531 69.39 821.563 69.2965C821.603 69.1775 821.638 69.0535 821.655 68.9288C821.662 68.8767 821.707 68.6602 821.606 68.7429C821.502 68.8274 821.449 68.888 821.354 69.0044C821.088 69.3308 820.847 69.6767 820.587 70.0083C819.935 70.8418 819.57 71.2822 818.854 72.103C818.571 72.4275 818.284 72.748 817.992 73.0651C814.368 77.0115 818.781 72.2109 817.288 73.7678" stroke="#F7941D" stroke-width="0.683478" stroke-linecap="round" stroke-linejoin="round"/>
<path d="M815.504 75.2937C815.278 75.7069 815.004 76.0662 814.71 76.4345C814.511 76.6828 814.265 77.048 814.013 77.2648C813.975 77.2972 814.004 77.1648 814.012 77.1157C814.037 76.961 814.084 76.8123 814.146 76.6684C814.257 76.4112 814.418 76.1836 814.548 75.9371C814.608 75.8244 814.637 75.6893 814.677 75.5695" stroke="#F7941D" stroke-width="0.683478" stroke-linecap="round" stroke-linejoin="round"/>
<path d="M797.498 89.3245C798.497 90.2813 799.549 91.1833 800.643 92.0301C800.706 92.0787 800.89 92.2253 800.841 92.1622C800.76 92.0556 800.643 91.9813 800.54 91.8951C800.208 91.6172 799.885 91.3648 799.54 91.1052C799.255 90.8903 798.962 90.6846 798.676 90.4705C798.596 90.4107 798.59 90.4073 798.505 90.4073C798.401 90.4073 797.968 90.2645 797.963 90.4016C797.952 90.7318 798.206 90.9984 798.417 91.2288C798.822 91.6699 799.293 92.0822 799.779 92.4351C800.019 92.6096 800.259 92.7912 800.508 92.9521C800.764 93.1175 800.454 92.6095 800.428 92.5672C800.128 92.0883 799.759 91.6437 799.408 91.2029C799.037 90.7358 798.6 90.2976 798.271 89.7984C798.166 89.6401 797.964 89.3799 797.942 89.188C797.936 89.1391 797.98 89.176 798.025 89.1938C798.233 89.2759 798.524 89.418 798.703 89.5054C799.506 89.898 800.295 90.3185 801.06 90.7821C801.539 91.0731 801.995 91.4184 802.486 91.6897C802.628 91.7684 802.393 91.535 802.372 91.516C802.235 91.3921 802.083 91.2943 801.927 91.1972C801.393 90.8655 800.867 90.5215 800.337 90.1833C799.998 89.9665 799.654 89.754 799.32 89.5284C799.302 89.5157 799.204 89.4 799.221 89.4824C799.26 89.6682 799.374 89.8541 799.468 90.0138C799.754 90.4976 800.109 90.9195 800.497 91.3235C800.734 91.5704 800.973 91.829 801.253 92.0287C801.329 92.0823 801.404 92.1274 801.483 92.1752C801.533 92.2054 801.653 92.306 801.643 92.2484C801.617 92.1011 801.335 91.8906 801.249 91.8118C800.716 91.3196 800.135 90.8788 799.634 90.3527C799.592 90.3088 799.45 90.1589 799.404 90.0784C799.362 90.0056 799.473 90.0718 799.478 90.0741C800.1 90.3553 800.682 90.7458 801.278 91.0765C801.641 91.2779 802.016 91.5226 802.404 91.6768C802.501 91.7156 802.321 91.48 802.252 91.4011C801.325 90.3447 800.113 89.5587 799.039 88.6639C799.031 88.6571 798.961 88.6054 798.977 88.5806C798.987 88.566 799.011 88.5923 799.025 88.6035C799.153 88.71 799.276 88.8174 799.411 88.9166C800.517 89.729 801.688 90.4869 802.865 91.1929C802.9 91.2138 802.995 91.2721 802.98 91.2345C802.938 91.1337 802.76 90.9473 802.721 90.9071C802.069 90.2221 801.273 89.6553 800.491 89.1292C800.046 88.8298 799.576 88.5745 799.118 88.2962C799.066 88.2645 798.924 88.1518 798.963 88.1986C799.059 88.3126 799.199 88.4274 799.308 88.5246C799.722 88.8936 800.2 89.1742 800.675 89.4566C800.971 89.6326 801.29 89.8191 801.591 89.988C801.769 90.088 802.167 90.3806 802.404 90.3786C802.483 90.3779 802.022 89.8705 802.019 89.8673C801.415 89.2846 800.739 88.782 800.062 88.289C799.769 88.0762 798.913 87.4114 799.183 87.6528C799.579 88.0084 800.056 88.2879 800.505 88.5691C801.226 89.0205 801.948 89.4714 802.671 89.919C802.848 90.0283 803.361 90.365 803.221 90.212C802.165 89.0618 800.903 88.1979 799.632 87.311C799.432 87.1716 800.024 87.6005 800.227 87.7361C800.866 88.1645 801.544 88.5281 802.21 88.9123C802.442 89.0462 802.727 89.2204 802.921 89.4078C802.979 89.4636 803.098 89.5922 803.003 89.3992C802.851 89.0902 802.526 88.8449 802.276 88.6265C801.539 87.9835 800.757 87.3879 799.942 86.8457C799.818 86.7632 799.618 86.6408 799.81 86.8429C800.274 87.332 800.895 87.7004 801.466 88.0463C802.417 88.6228 803.402 89.1453 804.397 89.6404C804.68 89.7811 804.822 89.8496 805.079 89.9635C805.148 89.9939 805.183 90.0202 805.14 89.975C804.686 89.5062 804.172 89.122 803.653 88.7299C802.788 88.076 801.909 87.4252 800.981 86.8615C800.852 86.7837 800.71 86.7188 800.603 86.6117C800.563 86.5716 800.442 86.4535 800.477 86.4982C800.712 86.8005 801.097 87.0181 801.417 87.2148C802.376 87.8041 803.474 88.1471 804.495 88.6093C804.637 88.6736 804.777 88.741 804.914 88.8161C804.931 88.8255 805.052 88.9141 804.972 88.8376C803.928 87.8493 802.562 87.266 801.376 86.481C801.107 86.3034 801.936 86.798 802.223 86.9434C803.08 87.3776 803.956 87.7775 804.857 88.1124C804.862 88.1144 805.227 88.2438 805.302 88.2618C805.318 88.2657 805.301 88.2236 805.288 88.2129C804.855 87.8634 804.367 87.5723 803.91 87.2565C803.486 86.9631 803.064 86.6682 802.624 86.3991C802.434 86.2835 802.263 86.1758 802.119 86.0042C802.024 85.8895 802.388 86.1352 802.519 86.2081C803.101 86.5338 803.718 86.7964 804.31 87.1057C804.792 87.3581 805.264 87.6358 805.763 87.8568C805.92 87.9263 806.175 88.0182 805.896 87.8654C805.061 87.4076 804.237 86.9332 803.392 86.4939C802.909 86.2428 802.361 85.9787 801.947 85.6164C801.473 85.2015 803.013 86.2896 803.543 86.6303C803.988 86.9166 804.455 87.1532 804.94 87.3642C804.959 87.3726 805.237 87.4953 805.318 87.515C805.341 87.5208 805.295 87.4698 805.276 87.4547C805.065 87.2878 804.82 87.1654 804.59 87.0296C803.977 86.6684 803.403 86.2602 802.823 85.8491C802.6 85.6906 802.344 85.5526 802.137 85.3723C802.092 85.3338 802.244 85.4207 802.295 85.4498C802.719 85.6924 803.136 85.9485 803.557 86.1966C804.257 86.6089 804.98 86.9577 805.713 87.3053C805.793 87.3435 805.853 87.3589 805.759 87.2622C805.335 86.8279 804.807 86.4716 804.318 86.1176C803.795 85.739 803.274 85.3597 802.751 84.9817C802.585 84.861 802.738 84.9779 802.826 85.0362C803.619 85.5646 804.45 86.0446 805.296 86.481C805.581 86.6279 805.703 86.6823 805.973 86.8098C806.036 86.8399 806.099 86.8717 806.164 86.9003C806.184 86.9096 806.219 86.9442 806.228 86.9233C806.27 86.8284 804.99 86.1473 804.903 86.099C804.313 85.7711 803.72 85.4478 803.142 85.0994C802.792 84.8886 802.357 84.6677 802.071 84.3656C801.954 84.2426 802.373 84.5181 802.522 84.5997C803.23 84.9891 803.947 85.3646 804.641 85.7802C804.893 85.9309 805.031 86.0201 805.262 86.1765C805.338 86.2284 805.407 86.2949 805.491 86.3316C805.515 86.3416 805.493 86.2783 805.48 86.2569C805.36 86.0657 805.206 85.8905 805.058 85.7213C804.697 85.309 804.301 84.9366 803.877 84.5896C803.59 84.3541 803.359 84.1801 803.063 83.9592C802.982 83.8989 802.674 83.6155 802.53 83.5829C802.493 83.5745 802.563 83.6521 802.588 83.6806C802.668 83.7731 802.791 83.8892 802.883 83.962C803.455 84.4101 804.135 84.7518 804.776 85.0865C805.191 85.3029 805.619 85.4938 806.029 85.7198C806.209 85.8195 806.123 85.7739 806.008 85.6768C805.473 85.2228 804.865 84.9357 804.268 84.5753C804.179 84.5215 804.069 84.4388 803.961 84.4388" stroke="#F7941D" stroke-width="2.05043" stroke-linecap="round" stroke-linejoin="round"/>
<path d="M821.811 63.8252C822.621 64.8268 823.468 65.7995 824.233 66.8351C824.769 67.5597 824.879 67.768 824.043 67.9941C823.77 68.0679 821.316 68.8673 821.166 68.5419C820.961 68.0985 822.274 66.4837 822.526 66.1316C822.926 65.5743 822.667 66.3908 822.63 66.5353C822.437 67.2947 822.202 68.0437 822.002 68.8013C821.849 69.3785 821.724 69.7889 822.111 69.0608C822.396 68.5248 822.816 67.9203 822.965 67.3252C823.002 67.176 822.775 67.5678 822.688 67.6943C821.823 68.943 820.969 70.1989 820.139 71.4711C819.574 72.3376 817.916 74.9612 818.49 74.1004" stroke="#F7941D" stroke-width="0.683478" stroke-linecap="round" stroke-linejoin="round"/>
<path d="M821.852 64.5823C821.913 64.7147 822.034 64.8447 822.072 64.984C822.133 65.2098 821.712 65.1525 821.62 65.3182C821.519 65.4997 821.75 65.829 821.952 65.829C822.047 65.829 822.07 65.6736 822.07 65.6056C822.07 64.829 822.083 67.1597 822.136 67.9345C822.171 68.4436 822.22 68.9533 822.281 69.46C822.295 69.5758 822.314 69.7598 822.408 69.5604C822.515 69.3333 822.597 69.0889 822.68 68.8522C822.728 68.7135 822.796 68.5075 822.839 68.3605C822.852 68.3142 822.905 68.1898 822.867 68.2185C822.744 68.3095 822.546 68.7844 822.51 68.8539C822.084 69.6819 821.685 70.5242 821.319 71.3802C821.267 71.502 821.216 71.6245 821.166 71.7473C821.134 71.8261 821.004 72.0308 821.076 71.9862C821.189 71.9166 821.234 71.7724 821.315 71.6676C821.63 71.2628 821.816 71.0393 822.157 70.6218C822.697 69.9596 823.247 69.3035 823.751 68.6133C823.892 68.421 824.038 68.2199 824.148 68.0055C824.164 67.9732 824.201 67.9029 824.165 67.8981C824.121 67.8923 824.068 67.9441 824.03 67.9588C823.94 67.9933 823.869 67.8451 823.829 67.7925C823.524 67.3865 823.236 66.943 823.154 66.4316C823.131 66.2871 823.131 66.1411 823.13 65.9952C823.129 65.8569 823.093 65.6554 823.13 65.5208C823.158 65.4191 823.322 65.6118 823.405 65.6766C823.885 66.0511 824.35 66.4427 824.799 66.8541C825.033 67.0684 825.249 67.3104 825.488 67.519C825.644 67.6552 825.322 67.1364 825.201 66.9683C824.349 65.7836 823.352 64.6939 822.423 63.5694C822.342 63.4705 822.145 63.2854 822.112 63.1435C822.069 62.96 822.418 63.3643 822.56 63.488C823.702 64.4817 824.943 65.3653 826.056 66.39C826.096 66.427 826.134 66.4665 826.172 66.506C826.183 66.5173 826.217 66.5424 826.202 66.5424C826.184 66.5424 826.176 66.5186 826.163 66.506C825.943 66.2792 825.725 66.0498 825.509 65.8186C824.941 65.2091 824.401 64.5731 823.798 63.9971C823.606 63.8139 823.459 63.6328 823.332 63.4015C823.299 63.3396 823.261 63.283 823.216 63.2283C823.184 63.189 823.062 63.1124 823.113 63.1175C823.394 63.1456 823.732 63.3579 823.982 63.4828C824.115 63.5496 824.254 63.7745 824.34 63.8949C824.618 64.2833 824.95 64.6281 825.234 65.0221C825.647 65.5961 826.11 66.1301 826.473 66.7415C826.51 66.8035 826.611 66.9947 826.579 66.9302C826.499 66.77 826.412 66.6133 826.326 66.4558C826.199 66.2205 826.086 65.9742 825.952 65.7424C825.717 65.335 825.316 65.1522 824.906 64.9563" stroke="#F7941D" stroke-width="2.05043" stroke-linecap="round" stroke-linejoin="round"/>
<path d="M794.184 89.7935C794.867 89.7935 799.993 93.6665 801.702 95.603L829.041 67.9222C828.221 65.4617 823.915 62.3404 821.864 61.0874L794.184 89.7935Z" fill="#F7941D"/>
<defs>
<clipPath id="clip0">
<rect width="98.1494" height="98.1494" fill="white" transform="matrix(-1 0 0 1 388.584 181.281)"/>
</clipPath>
<clipPath id="clip1">
<rect width="58.7219" height="76.3384" fill="white" transform="matrix(-1 0 0 1 883.852 192.606)"/>
</clipPath>
</defs>
</svg>
