<svg width="70" height="70" viewBox="0 0 70 70" fill="none" xmlns="http://www.w3.org/2000/svg">
<path d="M18.4083 60.619V51.029H14.9083C10.8483 51.029 7.48828 47.669 7.48828 43.609V20.859C7.48828 16.799 10.8483 13.439 14.9083 13.439H37.7983C38.4983 13.439 39.0583 13.999 39.0583 14.699C39.0583 15.399 38.4983 15.959 37.7983 15.959H14.9083C12.2483 15.959 10.0783 18.129 10.0783 20.789V43.539C10.0783 46.199 12.2483 48.369 14.9083 48.369H19.7383C20.4383 48.369 20.9983 48.929 20.9983 49.629V57.469L30.1683 48.649C30.3783 48.439 30.7283 48.299 31.0783 48.299H52.2183C54.1783 48.299 55.9983 47.039 56.7683 45.219C57.0483 44.589 57.7483 44.239 58.4483 44.519C59.0783 44.799 59.4283 45.499 59.1483 46.199C58.0283 48.999 55.2283 50.889 52.2183 50.889H31.6383L20.6483 61.389C20.4383 61.599 20.0883 61.739 19.7383 61.739C19.5983 61.739 19.3883 61.739 19.2483 61.669C18.6883 61.599 18.4083 61.109 18.4083 60.619ZM62.5083 24.639C62.5083 24.779 62.5083 24.919 62.5083 24.989L60.4783 37.589C60.0583 40.809 57.7483 42.699 54.3183 42.699H53.7583H52.0083H44.5883H44.0983H39.3383C37.9383 42.699 36.6083 42.139 35.6983 41.229C35.2783 41.579 34.7183 41.789 34.0883 41.789H29.1883C27.7883 41.789 26.6683 40.669 26.6683 39.269V23.589C26.6683 22.189 27.7883 21.069 29.1883 21.069H34.0883C34.8583 21.069 35.4883 21.419 35.9783 21.909C35.9783 21.909 35.9783 21.909 36.0483 21.909C36.2583 21.839 41.5783 20.299 41.5783 15.819V9.72898C41.5783 9.16898 41.9283 8.679 42.4883 8.539C42.6283 8.469 45.7083 7.559 47.9483 9.239C49.3483 10.289 50.1183 12.039 50.1183 14.489V19.529H52.0083H56.0683H57.1883C60.1983 19.389 62.5083 21.699 62.5083 24.639ZM34.1583 23.519H29.3283V39.199H34.1583V23.519ZM59.9883 24.639C59.9883 23.099 58.7983 21.909 57.2583 21.909H56.1383H52.0783H48.9283C48.2283 21.909 47.6683 21.349 47.6683 20.649V14.349C47.6683 12.809 47.3183 11.689 46.5483 11.199C45.8483 10.709 44.9383 10.639 44.3083 10.709V15.749C44.3083 22.189 37.2383 24.219 36.9583 24.289H36.8883V37.379C36.8883 38.849 38.0783 40.109 39.6183 40.109H44.3783H44.8683H52.2883H54.0383H54.5983C57.8883 40.109 58.1683 37.939 58.2383 37.239C58.2383 37.239 58.2383 37.239 58.2383 37.169L59.9883 24.639Z" fill="#F7941D" stroke="#F7941D" stroke-width="0.5"/>
</svg>
