<svg width="70" height="70" viewBox="0 0 70 70" fill="none" xmlns="http://www.w3.org/2000/svg">
<g clip-path="url(#clip0)">
<path d="M61.5131 43.9425L57.3283 47.9896V16.1586C57.3283 14.5252 56.6544 12.9588 55.4549 11.8038C54.2554 10.6488 52.6286 10 50.9322 10H28.0213C27.0495 10 26.2617 10.7878 26.2617 11.7596C26.2617 12.7314 27.0495 13.5192 28.0213 13.5192H50.9322C51.6592 13.5192 52.3565 13.7973 52.8705 14.2922C53.3846 14.7872 53.6734 15.4586 53.6734 16.1586V47.9896L49.4886 43.9425C49.1444 43.6112 48.6777 43.425 48.1911 43.425C47.7044 43.425 47.2377 43.6112 46.8936 43.9425C46.5495 44.2739 46.3561 44.7233 46.3561 45.1918C46.3561 45.6604 46.5495 46.1098 46.8936 46.4411L54.2034 53.4795C54.3732 53.6444 54.5754 53.7753 54.7981 53.8647C55.0207 53.954 55.2596 54 55.5008 54C55.7421 54 55.9809 53.954 56.2036 53.8647C56.4263 53.7753 56.6284 53.6444 56.7983 53.4795L64.1081 46.4411C64.4522 46.1098 64.6456 45.6604 64.6456 45.1918C64.6456 44.7233 64.4522 44.2739 64.1081 43.9425C63.764 43.6112 63.2973 43.425 62.8106 43.425C62.324 43.425 61.8573 43.6112 61.5131 43.9425Z" fill="#F7941D"/>
<path d="M13.9078 16.5205L6.59798 23.5589C6.25387 23.8902 6.06055 24.3396 6.06055 24.8082C6.06055 25.2767 6.25387 25.7261 6.59798 26.0575C6.9421 26.3888 7.40882 26.575 7.89547 26.575C8.38212 26.575 8.84884 26.3888 9.19296 26.0575L13.3778 22.0104V53.8414C13.3778 55.4748 14.0517 57.0412 15.2512 58.1962C16.4507 59.3512 18.0775 60 19.7739 60H42.6848C43.6566 60 44.4444 59.2122 44.4444 58.2404C44.4444 57.2686 43.6566 56.4808 42.6848 56.4808H19.7739C19.0469 56.4808 18.3496 56.2027 17.8356 55.7078C17.3215 55.2128 17.0327 54.5414 17.0327 53.8414V22.0104L21.2176 26.0575C21.3874 26.2224 21.5896 26.3533 21.8122 26.4426C22.0349 26.532 22.2738 26.578 22.515 26.578C22.7563 26.578 22.9951 26.532 23.2178 26.4426C23.4405 26.3533 23.6426 26.2224 23.8125 26.0575C23.9838 25.8939 24.1198 25.6993 24.2125 25.4849C24.3053 25.2704 24.3531 25.0405 24.3531 24.8082C24.3531 24.5759 24.3053 24.3459 24.2125 24.1315C24.1198 23.917 23.9838 23.7224 23.8125 23.5589L16.5027 16.5205C16.3329 16.3556 16.1307 16.2247 15.908 16.1353C15.6854 16.046 15.4465 16 15.2053 16C14.964 16 14.7252 16.046 14.5025 16.1353C14.2798 16.2247 14.0777 16.3556 13.9078 16.5205Z" fill="#F7941D"/>
</g>
<defs>
<clipPath id="clip0">
<rect width="70" height="70" fill="white"/>
</clipPath>
</defs>
</svg>
