<svg width="70" height="70" viewBox="0 0 70 70" fill="none" xmlns="http://www.w3.org/2000/svg">
<path d="M35 61.25C31.5528 61.25 28.1394 60.571 24.9546 59.2518C21.7698 57.9327 18.876 55.9991 16.4384 53.5615C14.0009 51.124 12.0673 48.2302 10.7482 45.0454C9.42898 41.8606 8.75 38.4472 8.75 35C8.75 31.5528 9.42898 28.1394 10.7482 24.9546C12.0673 21.7698 14.0009 18.876 16.4384 16.4384C18.876 14.0009 21.7698 12.0673 24.9546 10.7482C28.1394 9.42898 31.5528 8.75 35 8.75C41.9619 8.75 48.6387 11.2083 53.5615 15.5842C58.4844 19.96 61.25 25.8949 61.25 32.0833C61.25 35.1775 59.8672 38.145 57.4058 40.3329C54.9444 42.5208 51.606 43.75 48.125 43.75H40.8333C39.5321 43.729 38.2612 44.1438 37.2228 44.9283C36.1845 45.7129 35.4383 46.8221 35.103 48.0795C34.7677 49.337 34.8625 50.6705 35.3723 51.8679C35.8822 53.0653 36.7778 54.0578 37.9167 54.6875C38.499 55.2249 38.8984 55.9312 39.0587 56.7072C39.2189 57.4832 39.132 58.2899 38.8102 59.014C38.4884 59.7381 37.9478 60.3432 37.2644 60.7443C36.581 61.1453 35.7891 61.3222 35 61.25" stroke="#F7941D" stroke-width="3" stroke-linecap="round" stroke-linejoin="round"/>
<path d="M21.8744 32.0827C22.6798 32.0827 23.3327 31.4298 23.3327 30.6244C23.3327 29.8189 22.6798 29.166 21.8744 29.166C21.0689 29.166 20.416 29.8189 20.416 30.6244C20.416 31.4298 21.0689 32.0827 21.8744 32.0827Z" fill="#F7941D" stroke="#F7941D" stroke-width="3" stroke-linecap="round" stroke-linejoin="round"/>
<path d="M35.0013 23.3327C35.8067 23.3327 36.4596 22.6798 36.4596 21.8743C36.4596 21.0689 35.8067 20.416 35.0013 20.416C34.1959 20.416 33.543 21.0689 33.543 21.8743C33.543 22.6798 34.1959 23.3327 35.0013 23.3327Z" fill="#F7941D" stroke="#F7941D" stroke-width="3" stroke-linecap="round" stroke-linejoin="round"/>
<path d="M48.1263 32.0827C48.9317 32.0827 49.5846 31.4298 49.5846 30.6244C49.5846 29.8189 48.9317 29.166 48.1263 29.166C47.3209 29.166 46.668 29.8189 46.668 30.6244C46.668 31.4298 47.3209 32.0827 48.1263 32.0827Z" fill="#F7941D" stroke="#F7941D" stroke-width="3" stroke-linecap="round" stroke-linejoin="round"/>
</svg>
