<svg width="1194" height="280" viewBox="0 0 1194 280" fill="none" xmlns="http://www.w3.org/2000/svg">
<path d="M1.638 31.158H0.21V29.506H4.942V31.158H3.514V41H1.638V31.158ZM13.7643 29.506V41H11.8883V35.96H10.3483V41H8.4723V29.506H10.3483V34.322H11.8883V29.506H13.7643ZM21.5784 39.348V41H17.6024V29.506H21.4944V31.158H19.4924V34.28H21.3684V35.918H19.4924V39.348H21.5784ZM32.8223 41.14C32.2437 41.14 31.7443 41.014 31.3243 40.762C30.9043 40.51 30.5823 40.1553 30.3583 39.698C30.1437 39.2407 30.0363 38.704 30.0363 38.088V32.418C30.0363 31.8113 30.1437 31.2793 30.3583 30.822C30.5823 30.3553 30.9043 29.996 31.3243 29.744C31.7443 29.492 32.2437 29.366 32.8223 29.366C33.401 29.366 33.8957 29.492 34.3063 29.744C34.7263 29.996 35.0437 30.3507 35.2583 30.808C35.4823 31.2653 35.5943 31.802 35.5943 32.418V38.088C35.5943 38.6947 35.4823 39.2313 35.2583 39.698C35.0437 40.1553 34.7263 40.51 34.3063 40.762C33.8957 41.014 33.401 41.14 32.8223 41.14ZM32.8223 39.376C33.093 39.376 33.303 39.278 33.4523 39.082C33.6017 38.886 33.6763 38.592 33.6763 38.2V32.306C33.6763 31.914 33.6017 31.62 33.4523 31.424C33.303 31.228 33.093 31.13 32.8223 31.13C32.5517 31.13 32.337 31.228 32.1783 31.424C32.029 31.62 31.9543 31.914 31.9543 32.306V38.2C31.9543 38.592 32.029 38.886 32.1783 39.082C32.337 39.278 32.5517 39.376 32.8223 39.376ZM43.0001 39.348V41H39.3461V29.506H41.2361V39.348H43.0001ZM49.0268 29.506C49.6241 29.506 50.1375 29.632 50.5668 29.884C50.9961 30.136 51.3228 30.4907 51.5468 30.948C51.7801 31.4053 51.8968 31.942 51.8968 32.558V37.948C51.8968 38.564 51.7801 39.1007 51.5468 39.558C51.3228 40.0153 50.9961 40.37 50.5668 40.622C50.1375 40.874 49.6241 41 49.0268 41H46.5348V29.506H49.0268ZM49.9788 32.404C49.9788 32.012 49.8948 31.718 49.7268 31.522C49.5681 31.326 49.3395 31.228 49.0408 31.228H48.3968V39.278H49.0408C49.3395 39.278 49.5681 39.18 49.7268 38.984C49.8948 38.788 49.9788 38.494 49.9788 38.102V32.404ZM64.2517 39.348V41H60.5977V29.506H62.4877V39.348H64.2517ZM70.2286 41.14C69.6499 41.14 69.1506 41.014 68.7306 40.762C68.3106 40.51 67.9886 40.1553 67.7646 39.698C67.5499 39.2407 67.4426 38.704 67.4426 38.088V32.418C67.4426 31.8113 67.5499 31.2793 67.7646 30.822C67.9886 30.3553 68.3106 29.996 68.7306 29.744C69.1506 29.492 69.6499 29.366 70.2286 29.366C70.8073 29.366 71.3019 29.492 71.7126 29.744C72.1326 29.996 72.4499 30.3507 72.6646 30.808C72.8886 31.2653 73.0006 31.802 73.0006 32.418V38.088C73.0006 38.6947 72.8886 39.2313 72.6646 39.698C72.4499 40.1553 72.1326 40.51 71.7126 40.762C71.3019 41.014 70.8073 41.14 70.2286 41.14ZM70.2286 39.376C70.4993 39.376 70.7093 39.278 70.8586 39.082C71.0079 38.886 71.0826 38.592 71.0826 38.2V32.306C71.0826 31.914 71.0079 31.62 70.8586 31.424C70.7093 31.228 70.4993 31.13 70.2286 31.13C69.9579 31.13 69.7433 31.228 69.5846 31.424C69.4353 31.62 69.3606 31.914 69.3606 32.306V38.2C69.3606 38.592 69.4353 38.886 69.5846 39.082C69.7433 39.278 69.9579 39.376 70.2286 39.376ZM79.3844 41.14C78.8057 41.14 78.311 41.014 77.9004 40.762C77.4897 40.51 77.1817 40.1553 76.9764 39.698C76.771 39.2313 76.6684 38.69 76.6684 38.074V32.432C76.6684 31.816 76.771 31.2793 76.9764 30.822C77.1817 30.3553 77.4897 29.996 77.9004 29.744C78.311 29.492 78.8057 29.366 79.3844 29.366C79.9537 29.366 80.4437 29.492 80.8544 29.744C81.265 29.9867 81.5777 30.3367 81.7924 30.794C82.007 31.242 82.1144 31.76 82.1144 32.348V33.468H80.1964V32.32C80.1964 31.928 80.1217 31.634 79.9724 31.438C79.8324 31.2327 79.6364 31.13 79.3844 31.13C78.8524 31.13 78.5864 31.5267 78.5864 32.32V38.172C78.5864 38.5827 78.6517 38.886 78.7824 39.082C78.913 39.278 79.1184 39.376 79.3984 39.376C79.6504 39.376 79.8464 39.278 79.9864 39.082C80.1357 38.8767 80.2104 38.5733 80.2104 38.172V36.562H79.3284V34.91H82.1144V38.186C82.1144 38.7647 82.007 39.278 81.7924 39.726C81.5777 40.174 81.265 40.524 80.8544 40.776C80.4437 41.0187 79.9537 41.14 79.3844 41.14ZM88.5298 41.14C87.9511 41.14 87.4518 41.014 87.0318 40.762C86.6118 40.51 86.2898 40.1553 86.0658 39.698C85.8511 39.2407 85.7438 38.704 85.7438 38.088V32.418C85.7438 31.8113 85.8511 31.2793 86.0658 30.822C86.2898 30.3553 86.6118 29.996 87.0318 29.744C87.4518 29.492 87.9511 29.366 88.5298 29.366C89.1084 29.366 89.6031 29.492 90.0138 29.744C90.4338 29.996 90.7511 30.3507 90.9658 30.808C91.1898 31.2653 91.3018 31.802 91.3018 32.418V38.088C91.3018 38.6947 91.1898 39.2313 90.9658 39.698C90.7511 40.1553 90.4338 40.51 90.0138 40.762C89.6031 41.014 89.1084 41.14 88.5298 41.14ZM88.5298 39.376C88.8004 39.376 89.0104 39.278 89.1598 39.082C89.3091 38.886 89.3838 38.592 89.3838 38.2V32.306C89.3838 31.914 89.3091 31.62 89.1598 31.424C89.0104 31.228 88.8004 31.13 88.5298 31.13C88.2591 31.13 88.0444 31.228 87.8858 31.424C87.7364 31.62 87.6618 31.914 87.6618 32.306V38.2C87.6618 38.592 87.7364 38.886 87.8858 39.082C88.0444 39.278 88.2591 39.376 88.5298 39.376Z" fill="black"/>
<path d="M645.638 31.158H644.21V29.506H648.942V31.158H647.514V41H645.638V31.158ZM657.764 29.506V41H655.888V35.96H654.348V41H652.472V29.506H654.348V34.322H655.888V29.506H657.764ZM665.578 39.348V41H661.602V29.506H665.494V31.158H663.492V34.28H665.368V35.918H663.492V39.348H665.578ZM674.12 29.506H675.758L677.816 36.604H677.928L677.746 29.506H679.566V41H677.872L675.856 33.972H675.758L675.94 41H674.12V29.506ZM687.377 39.348V41H683.401V29.506H687.293V31.158H685.291V34.28H687.167V35.918H685.291V39.348H687.377ZM690.567 29.506H692.415L693.227 37.598H693.325L694.305 29.506H696.097L697.077 37.598H697.175L697.987 29.506H699.821L698.197 41.042H696.111L695.243 33.636H695.159L694.277 41.042H692.177L690.567 29.506ZM711.888 39.348V41H708.234V29.506H710.124V39.348H711.888ZM717.865 41.14C717.287 41.14 716.787 41.014 716.367 40.762C715.947 40.51 715.625 40.1553 715.401 39.698C715.187 39.2407 715.079 38.704 715.079 38.088V32.418C715.079 31.8113 715.187 31.2793 715.401 30.822C715.625 30.3553 715.947 29.996 716.367 29.744C716.787 29.492 717.287 29.366 717.865 29.366C718.444 29.366 718.939 29.492 719.349 29.744C719.769 29.996 720.087 30.3507 720.301 30.808C720.525 31.2653 720.637 31.802 720.637 32.418V38.088C720.637 38.6947 720.525 39.2313 720.301 39.698C720.087 40.1553 719.769 40.51 719.349 40.762C718.939 41.014 718.444 41.14 717.865 41.14ZM717.865 39.376C718.136 39.376 718.346 39.278 718.495 39.082C718.645 38.886 718.719 38.592 718.719 38.2V32.306C718.719 31.914 718.645 31.62 718.495 31.424C718.346 31.228 718.136 31.13 717.865 31.13C717.595 31.13 717.38 31.228 717.221 31.424C717.072 31.62 716.997 31.914 716.997 32.306V38.2C716.997 38.592 717.072 38.886 717.221 39.082C717.38 39.278 717.595 39.376 717.865 39.376ZM727.021 41.14C726.442 41.14 725.948 41.014 725.537 40.762C725.126 40.51 724.818 40.1553 724.613 39.698C724.408 39.2313 724.305 38.69 724.305 38.074V32.432C724.305 31.816 724.408 31.2793 724.613 30.822C724.818 30.3553 725.126 29.996 725.537 29.744C725.948 29.492 726.442 29.366 727.021 29.366C727.59 29.366 728.08 29.492 728.491 29.744C728.902 29.9867 729.214 30.3367 729.429 30.794C729.644 31.242 729.751 31.76 729.751 32.348V33.468H727.833V32.32C727.833 31.928 727.758 31.634 727.609 31.438C727.469 31.2327 727.273 31.13 727.021 31.13C726.489 31.13 726.223 31.5267 726.223 32.32V38.172C726.223 38.5827 726.288 38.886 726.419 39.082C726.55 39.278 726.755 39.376 727.035 39.376C727.287 39.376 727.483 39.278 727.623 39.082C727.772 38.8767 727.847 38.5733 727.847 38.172V36.562H726.965V34.91H729.751V38.186C729.751 38.7647 729.644 39.278 729.429 39.726C729.214 40.174 728.902 40.524 728.491 40.776C728.08 41.0187 727.59 41.14 727.021 41.14ZM736.166 41.14C735.588 41.14 735.088 41.014 734.668 40.762C734.248 40.51 733.926 40.1553 733.702 39.698C733.488 39.2407 733.38 38.704 733.38 38.088V32.418C733.38 31.8113 733.488 31.2793 733.702 30.822C733.926 30.3553 734.248 29.996 734.668 29.744C735.088 29.492 735.588 29.366 736.166 29.366C736.745 29.366 737.24 29.492 737.65 29.744C738.07 29.996 738.388 30.3507 738.602 30.808C738.826 31.2653 738.938 31.802 738.938 32.418V38.088C738.938 38.6947 738.826 39.2313 738.602 39.698C738.388 40.1553 738.07 40.51 737.65 40.762C737.24 41.014 736.745 41.14 736.166 41.14ZM736.166 39.376C736.437 39.376 736.647 39.278 736.796 39.082C736.946 38.886 737.02 38.592 737.02 38.2V32.306C737.02 31.914 736.946 31.62 736.796 31.424C736.647 31.228 736.437 31.13 736.166 31.13C735.896 31.13 735.681 31.228 735.522 31.424C735.373 31.62 735.298 31.914 735.298 32.306V38.2C735.298 38.592 735.373 38.886 735.522 39.082C735.681 39.278 735.896 39.376 736.166 39.376Z" fill="black"/>
<line opacity="0.15" x1="0.5" y1="62.5" x2="549.5" y2="62.5" stroke="black" stroke-linecap="round"/>
<line opacity="0.15" x1="644.5" y1="62.5" x2="1193.5" y2="62.5" stroke="black" stroke-linecap="round"/>
<path d="M763.538 171.216C763.89 171.486 763.909 172.004 763.569 172.294C763.424 172.419 763.271 172.542 763.101 172.676C762.662 173.018 757.364 177.075 754.656 175.517C751.984 173.981 752.178 167.17 754.989 162.578C757.637 158.24 763.493 154.457 768.885 156.15C773.637 157.646 776.992 163.056 775.861 165.224C775.426 166.046 774.477 166.151 773.181 166.292C772.23 166.4 771.096 166.521 769.85 166.97C769.578 167.068 769.274 166.904 769.228 166.62C769.078 165.68 768.591 164.847 767.797 164.326C766.144 163.238 763.785 163.906 762.533 165.814C762.421 166.011 761.453 167.796 762.307 169.68C762.636 170.402 763.122 170.893 763.538 171.216Z" fill="#121212"/>
<path d="M795.093 179.832C796.037 177.048 794.811 174.112 792.358 173.284C791.056 172.844 789.67 173.084 788.52 173.819C787.997 174.153 787.306 174.004 786.973 173.481C786.395 172.575 785.777 171.835 785.228 171.191C784.212 169.987 783.461 169.1 783.772 168.013C784.584 165.163 792.052 163.21 797.475 165.867C803.629 168.889 805.619 177.109 804.318 183.134C802.949 189.52 797.435 195.671 793.804 194.786C790.125 193.89 788.855 185.897 788.757 185.227C788.729 185.025 788.703 184.834 788.681 184.648C788.603 183.972 789.152 183.404 789.832 183.424C790.609 183.447 791.637 183.324 792.68 182.729C794.349 181.777 794.946 180.242 795.093 179.832Z" fill="#121212"/>
<path fill-rule="evenodd" clip-rule="evenodd" d="M743.159 182.273C743.953 181.341 744.834 180.742 745.774 180.4C750.285 178.765 756.553 182.467 759.719 185.447C762.099 187.692 764.633 189.777 767.388 191.54C770.487 193.521 773.844 195.076 777.429 195.921C779.265 196.352 781.128 196.632 782.991 196.913C784.72 197.173 786.449 197.433 788.156 197.813C792.046 198.677 796.509 200.346 798.064 204.365C800.737 211.3 794.402 217.731 788.294 219.592C774.564 223.766 759.495 217.956 749.595 208.178C744.828 203.464 739.705 196.76 740.387 189.673C740.637 187.09 741.45 184.282 743.159 182.273ZM790.177 215.977C769.941 222.258 756.109 209.694 752.787 206.236C752.343 205.787 752.414 205.053 752.934 204.675C760.113 199.374 766.323 201.297 769.368 202.894C770.089 203.276 770.091 204.262 769.396 204.691C769.388 204.697 769.378 204.703 769.368 204.708C769.358 204.714 769.349 204.72 769.341 204.726C768.37 205.363 769.096 206.861 770.227 206.58C785.884 202.641 789.948 211.616 790.866 214.692C791.024 215.229 790.719 215.805 790.177 215.977Z" fill="#121212"/>
<path d="M770.312 175.602C768.997 175.485 767.736 177.272 767.228 178.659C766.418 180.877 767.248 182.992 767.752 184.269C768.333 185.746 768.994 187.445 770.692 188.464C773.395 190.087 776.589 188.69 778.083 188.036C779.362 187.473 781.427 186.573 782.127 184.507C782.48 183.452 782.527 181.892 781.764 181.162C781.244 180.666 780.415 180.839 779.769 180.767C778.053 180.601 776.525 180.081 775.079 179.112C773.756 178.216 772.593 177.102 771.367 176.082C771.004 175.775 770.651 175.635 770.312 175.602Z" fill="#121212"/>
<path d="M838.044 179.672H842.134C842.604 179.672 842.92 179.762 843.082 179.943C843.263 180.124 843.353 180.477 843.353 181.002V181.68C843.353 182.169 843.254 182.522 843.055 182.739C842.875 182.956 842.568 183.065 842.134 183.065H838.098V197.614C838.098 200.039 838.17 201.622 838.314 202.364C838.459 203.106 838.721 203.567 839.1 203.748C839.371 203.875 839.741 204.02 840.211 204.182C841.312 204.562 841.863 205.123 841.863 205.865C841.863 206.589 841.403 207.096 840.482 207.385C839.561 207.657 837.727 207.793 834.982 207.793C832.237 207.793 830.404 207.648 829.483 207.358C828.562 207.069 828.101 206.544 828.101 205.784C828.101 205.187 828.544 204.725 829.429 204.4C829.754 204.273 829.998 204.164 830.16 204.074C830.612 203.821 830.928 203.395 831.108 202.798C831.289 202.183 831.379 201.07 831.379 199.459V196.745V183.065H828.21C827.776 183.065 827.469 182.965 827.289 182.766C827.126 182.567 827.045 182.205 827.045 181.68V181.002C827.045 180.531 827.135 180.197 827.316 179.998C827.514 179.78 827.831 179.672 828.264 179.672H831.244C831.117 178.876 831.018 178.134 830.946 177.446C830.892 176.74 830.865 176.071 830.865 175.438C830.865 172.578 831.722 170.353 833.438 168.76C835.172 167.168 837.592 166.372 840.698 166.372C842.829 166.372 844.563 166.86 845.9 167.837C847.236 168.796 847.904 170.018 847.904 171.502C847.904 172.388 847.661 173.067 847.173 173.537C846.703 173.99 846.008 174.216 845.087 174.216C844.491 174.216 843.949 174.08 843.462 173.809C842.992 173.537 842.604 173.157 842.297 172.669C842.152 172.416 841.972 172.072 841.755 171.637C841.069 170.28 840.175 169.602 839.073 169.602C838.369 169.602 837.791 169.837 837.339 170.307C836.906 170.76 836.689 171.357 836.689 172.099C836.689 172.533 836.906 173.583 837.339 175.247C837.773 176.894 838.007 178.369 838.044 179.672Z" fill="#121212"/>
<path d="M851.805 191.235C851.805 194.981 852.591 198.111 854.162 200.627C855.751 203.142 857.684 204.4 859.959 204.4C861.802 204.4 863.292 203.621 864.429 202.065C865.585 200.509 866.163 198.455 866.163 195.904C866.163 192.212 865.359 189.118 863.752 186.621C862.163 184.105 860.248 182.848 858.009 182.848C856.149 182.848 854.65 183.617 853.512 185.155C852.374 186.675 851.805 188.702 851.805 191.235ZM858.74 208.363C854.677 208.363 851.309 206.978 848.636 204.21C845.963 201.441 844.626 197.948 844.626 193.732C844.626 189.48 846.026 185.942 848.825 183.119C851.643 180.296 855.165 178.885 859.391 178.885C863.454 178.885 866.777 180.206 869.36 182.848C871.96 185.49 873.261 188.874 873.261 192.999C873.261 197.378 871.87 201.034 869.089 203.965C866.308 206.897 862.858 208.363 858.74 208.363Z" fill="#121212"/>
<path d="M883.555 191.235C883.555 194.981 884.341 198.111 885.912 200.627C887.501 203.142 889.434 204.4 891.709 204.4C893.551 204.4 895.041 203.621 896.179 202.065C897.335 200.509 897.913 198.455 897.913 195.904C897.913 192.212 897.109 189.118 895.502 186.621C893.912 184.105 891.998 182.848 889.759 182.848C887.898 182.848 886.399 183.617 885.262 185.155C884.124 186.675 883.555 188.702 883.555 191.235ZM890.49 208.363C886.427 208.363 883.058 206.978 880.385 204.21C877.713 201.441 876.376 197.948 876.376 193.732C876.376 189.48 877.776 185.942 880.575 183.119C883.392 180.296 886.914 178.885 891.14 178.885C895.204 178.885 898.527 180.206 901.109 182.848C903.71 185.49 905.01 188.874 905.01 192.999C905.01 197.378 903.62 201.034 900.839 203.965C898.057 206.897 894.608 208.363 890.49 208.363Z" fill="#121212"/>
<path d="M929.5 206.3V204.915C929.5 204.698 929.473 204.526 929.419 204.4C929.383 204.255 929.337 204.182 929.283 204.182C929.211 204.182 928.922 204.381 928.416 204.78C927.929 205.16 927.513 205.476 927.17 205.73C926.05 206.58 924.949 207.204 923.865 207.603C922.782 208.001 921.662 208.2 920.506 208.2C916.984 208.2 914.113 206.933 911.891 204.4C909.688 201.848 908.586 198.537 908.586 194.465C908.586 189.869 909.851 186.123 912.379 183.228C914.925 180.332 918.212 178.885 922.24 178.885C924.172 178.885 926.168 179.355 928.227 180.296C928.624 180.477 928.859 180.568 928.931 180.568C929.076 180.568 929.175 180.468 929.229 180.269C929.301 180.07 929.337 179.699 929.337 179.156V175.845C929.337 174.524 929.211 173.61 928.958 173.103C928.723 172.578 928.254 172.189 927.549 171.936C927.369 171.882 927.116 171.809 926.791 171.719C925.635 171.393 925.057 170.895 925.057 170.226C925.057 169.719 925.283 169.285 925.734 168.923C926.186 168.561 927.125 168.118 928.552 167.593C929.653 167.195 930.692 166.896 931.667 166.697C932.66 166.48 933.545 166.372 934.322 166.372C934.954 166.372 935.406 166.553 935.677 166.914C935.965 167.276 936.11 167.874 936.11 168.706C936.11 168.851 936.092 169.33 936.056 170.145C935.857 175.736 935.758 181.563 935.758 187.625C935.758 193.687 935.821 197.632 935.947 199.459C936.074 201.269 936.291 202.291 936.598 202.527C936.887 202.726 937.528 202.943 938.521 203.178C939.532 203.395 940.038 203.839 940.038 204.508C940.038 205.377 938.674 206.254 935.947 207.141L935.649 207.25C934.873 207.503 934.033 207.711 933.13 207.874C932.245 208.037 931.532 208.118 930.99 208.118C930.466 208.118 930.087 207.973 929.852 207.684C929.617 207.394 929.5 206.933 929.5 206.3ZM929.229 196.637V188.901C929.211 187.743 929.157 186.964 929.067 186.566C928.994 186.15 928.859 185.815 928.66 185.562C928.046 184.73 927.179 184.051 926.059 183.526C924.958 183.001 923.829 182.739 922.673 182.739C920.578 182.739 918.908 183.599 917.662 185.318C916.415 187.037 915.792 189.38 915.792 192.348C915.792 195.515 916.47 198.093 917.824 200.084C919.197 202.074 920.939 203.07 923.052 203.07C925.057 203.07 926.583 202.527 927.631 201.441C928.696 200.337 929.229 198.736 929.229 196.637Z" fill="#121212"/>
<path d="M950.766 180.893V182.278C950.766 182.513 950.775 182.694 950.793 182.821C950.829 182.929 950.874 182.992 950.928 183.011C951.019 183.011 951.389 182.757 952.039 182.251C952.472 181.925 952.834 181.653 953.123 181.436C954.296 180.568 955.416 179.925 956.482 179.509C957.565 179.093 958.658 178.885 959.76 178.885C963.263 178.885 966.126 180.17 968.347 182.739C970.569 185.309 971.679 188.638 971.679 192.728C971.679 197.252 970.424 200.97 967.914 203.884C965.422 206.797 962.261 208.254 958.432 208.254C956.337 208.254 954.215 207.657 952.066 206.462C951.705 206.282 951.497 206.191 951.443 206.191C951.208 206.191 951.037 206.462 950.928 207.005C950.82 207.53 950.766 208.408 950.766 209.638C950.766 210.76 950.829 211.692 950.955 212.434C951.082 213.194 951.262 213.71 951.497 213.981C951.732 214.235 952.265 214.479 953.095 214.714C953.583 214.859 953.953 214.976 954.206 215.067C954.459 215.194 954.658 215.375 954.802 215.61C954.965 215.845 955.046 216.117 955.046 216.424C955.046 217.112 954.495 217.6 953.393 217.89C952.292 218.198 950.405 218.351 947.732 218.351C945.005 218.351 943.162 218.198 942.205 217.89C941.266 217.582 940.797 217.03 940.797 216.234C940.797 215.619 941.194 215.139 941.989 214.796C942.801 214.47 943.289 214.235 943.451 214.09C943.831 213.71 944.093 212.778 944.237 211.294C944.381 209.81 944.454 206.716 944.454 202.011V199.622V197.397C944.454 192.275 944.363 188.973 944.183 187.489C944.02 186.005 943.722 185.137 943.289 184.883C943 184.739 942.566 184.576 941.989 184.395C940.851 184.033 940.282 183.535 940.282 182.902C940.282 182.45 940.453 182.061 940.797 181.735C941.14 181.409 941.691 181.11 942.449 180.839C943.858 180.278 945.176 179.844 946.404 179.536C947.65 179.21 948.608 179.048 949.276 179.048C949.8 179.048 950.179 179.192 950.414 179.482C950.648 179.771 950.766 180.242 950.766 180.893ZM951.037 190.502V198.238C951.037 199.36 951.082 200.129 951.172 200.545C951.262 200.961 951.407 201.305 951.606 201.577C952.238 202.409 953.105 203.097 954.206 203.64C955.326 204.182 956.455 204.454 957.592 204.454C959.687 204.454 961.358 203.585 962.604 201.848C963.85 200.111 964.473 197.758 964.473 194.791C964.473 191.606 963.787 189.027 962.415 187.055C961.06 185.064 959.326 184.069 957.213 184.069C955.209 184.069 953.673 184.621 952.608 185.725C951.56 186.811 951.037 188.403 951.037 190.502Z" fill="#121212"/>
<path d="M999.176 199.839C999.176 200.907 999.266 201.703 999.447 202.228C999.627 202.753 999.907 203.07 1000.29 203.178C1000.5 203.251 1000.79 203.332 1001.15 203.422C1002.35 203.748 1002.94 204.228 1002.94 204.861C1002.94 205.766 1002.31 206.589 1001.05 207.331C999.781 208.055 998.309 208.417 996.629 208.417C995.799 208.417 994.914 207.928 993.975 206.951C993.053 205.956 992.566 205.458 992.512 205.458C992.349 205.458 991.943 205.666 991.293 206.082C988.909 207.639 986.561 208.417 984.249 208.417C981.504 208.417 979.283 207.621 977.585 206.028C975.887 204.418 975.039 202.319 975.039 199.731C975.039 196.709 976.131 194.356 978.316 192.674C980.502 190.973 983.554 190.122 987.473 190.122C988.213 190.122 989.017 190.167 989.884 190.258C990.769 190.33 991.717 190.448 992.728 190.611L992.755 187.625C992.755 185.96 992.394 184.684 991.672 183.798C990.949 182.893 989.92 182.441 988.584 182.441C987.663 182.441 986.805 182.649 986.01 183.065C985.215 183.463 984.448 184.087 983.707 184.938C983.563 185.101 983.364 185.345 983.111 185.671C981.974 187.118 980.764 187.842 979.481 187.842C978.741 187.842 978.145 187.607 977.693 187.136C977.26 186.648 977.043 185.996 977.043 185.182C977.043 183.409 978.136 181.916 980.321 180.703C982.506 179.491 985.315 178.885 988.746 178.885C990.841 178.885 992.638 179.165 994.137 179.726C995.636 180.269 996.801 181.065 997.632 182.115C998.192 182.839 998.589 183.78 998.824 184.938C999.058 186.096 999.176 188.023 999.176 190.719V199.839ZM992.728 194.221C991.988 194.058 991.275 193.94 990.588 193.868C989.902 193.777 989.252 193.732 988.638 193.732C986.615 193.732 985.035 194.185 983.897 195.089C982.759 195.994 982.19 197.243 982.19 198.835C982.19 200.337 982.678 201.54 983.653 202.445C984.647 203.35 985.974 203.802 987.635 203.802C989.478 203.802 990.787 203.395 991.564 202.581C992.358 201.767 992.755 200.373 992.755 198.401L992.728 194.221Z" fill="#121212"/>
<path d="M1016.41 182.305C1016.55 182.178 1016.75 181.997 1017 181.762C1019.04 179.844 1021.25 178.885 1023.64 178.885C1024.99 178.885 1026.29 179.183 1027.54 179.78C1028.8 180.36 1029.87 181.156 1030.74 182.169C1031.6 183.201 1032.22 184.431 1032.58 185.861C1032.94 187.29 1033.12 189.525 1033.12 192.565V196.392C1033.12 196.863 1033.11 197.478 1033.09 198.238C1033.07 198.998 1033.07 199.532 1033.07 199.839C1033.07 201.179 1033.16 202.129 1033.34 202.69C1033.54 203.232 1033.87 203.64 1034.34 203.911C1034.52 204.001 1034.76 204.101 1035.07 204.21C1035.99 204.553 1036.45 205.042 1036.45 205.675C1036.45 206.49 1036.02 207.051 1035.15 207.358C1034.28 207.648 1032.41 207.793 1029.52 207.793C1026.88 207.793 1025.11 207.657 1024.21 207.385C1023.32 207.096 1022.88 206.589 1022.88 205.865C1022.88 205.141 1023.35 204.608 1024.29 204.264C1024.78 204.083 1025.13 203.929 1025.35 203.802C1025.78 203.567 1026.09 203.042 1026.27 202.228C1026.45 201.396 1026.54 199.957 1026.54 197.912C1026.54 191.905 1026.15 188.141 1025.37 186.621C1024.61 185.101 1023.24 184.341 1021.25 184.341C1020.24 184.341 1019.28 184.648 1018.36 185.263C1017.45 185.861 1016.76 186.666 1016.27 187.679C1015.85 188.494 1015.57 189.634 1015.4 191.099C1015.24 192.565 1015.16 195.171 1015.16 198.917C1015.16 200.744 1015.23 201.966 1015.38 202.581C1015.54 203.178 1015.82 203.585 1016.22 203.802C1016.45 203.929 1016.8 204.083 1017.27 204.264C1018.23 204.608 1018.71 205.141 1018.71 205.865C1018.71 206.589 1018.25 207.105 1017.33 207.413C1016.41 207.702 1014.72 207.847 1012.26 207.847C1009.39 207.847 1007.48 207.693 1006.54 207.385C1005.62 207.078 1005.16 206.508 1005.16 205.675C1005.16 205.042 1005.62 204.553 1006.54 204.21C1006.89 204.083 1007.13 203.983 1007.28 203.911C1007.76 203.64 1008.11 203.187 1008.31 202.554C1008.5 201.92 1008.6 200.889 1008.6 199.459C1008.6 199.116 1008.59 198.482 1008.58 197.559C1008.56 196.637 1008.55 195.877 1008.55 195.279V192.348C1008.55 189.38 1008.48 187.444 1008.33 186.539C1008.19 185.634 1007.93 185.082 1007.55 184.883C1007.26 184.739 1006.82 184.576 1006.22 184.395C1005.08 184.033 1004.51 183.535 1004.51 182.902C1004.51 182.486 1004.68 182.115 1005.03 181.789C1005.39 181.445 1005.98 181.11 1006.79 180.785C1008.18 180.242 1009.53 179.808 1010.85 179.482C1012.17 179.156 1013.15 178.993 1013.78 178.993C1014.3 178.993 1014.68 179.138 1014.92 179.428C1015.15 179.699 1015.27 180.151 1015.27 180.785V182.658C1015.27 182.802 1015.28 182.893 1015.29 182.929C1015.33 182.965 1015.39 182.992 1015.48 183.011C1015.52 183.011 1015.57 183.001 1015.62 182.983C1015.69 182.947 1015.74 182.92 1015.76 182.902L1016.41 182.305Z" fill="#121212"/>
<path d="M1060.29 206.3V204.915C1060.29 204.698 1060.26 204.526 1060.21 204.4C1060.17 204.255 1060.13 204.182 1060.07 204.182C1060 204.182 1059.71 204.381 1059.21 204.78C1058.72 205.16 1058.3 205.476 1057.96 205.73C1056.84 206.58 1055.74 207.204 1054.66 207.603C1053.57 208.001 1052.45 208.2 1051.3 208.2C1047.78 208.2 1044.9 206.933 1042.68 204.4C1040.48 201.848 1039.38 198.537 1039.38 194.465C1039.38 189.869 1040.64 186.123 1043.17 183.228C1045.72 180.332 1049 178.885 1053.03 178.885C1054.96 178.885 1056.96 179.355 1059.02 180.296C1059.42 180.477 1059.65 180.568 1059.72 180.568C1059.87 180.568 1059.97 180.468 1060.02 180.269C1060.09 180.07 1060.13 179.699 1060.13 179.156V175.845C1060.13 174.524 1060 173.61 1059.75 173.103C1059.51 172.578 1059.05 172.189 1058.34 171.936C1058.16 171.882 1057.91 171.809 1057.58 171.719C1056.43 171.393 1055.85 170.895 1055.85 170.226C1055.85 169.719 1056.07 169.285 1056.53 168.923C1056.98 168.561 1057.92 168.118 1059.34 167.593C1060.44 167.195 1061.48 166.896 1062.46 166.697C1063.45 166.48 1064.34 166.372 1065.11 166.372C1065.75 166.372 1066.2 166.553 1066.47 166.914C1066.76 167.276 1066.9 167.874 1066.9 168.706C1066.9 168.851 1066.88 169.33 1066.85 170.145C1066.65 175.736 1066.55 181.563 1066.55 187.625C1066.55 193.687 1066.61 197.632 1066.74 199.459C1066.87 201.269 1067.08 202.291 1067.39 202.527C1067.68 202.726 1068.32 202.943 1069.31 203.178C1070.32 203.395 1070.83 203.839 1070.83 204.508C1070.83 205.377 1069.47 206.254 1066.74 207.141L1066.44 207.25C1065.66 207.503 1064.82 207.711 1063.92 207.874C1063.04 208.037 1062.32 208.118 1061.78 208.118C1061.26 208.118 1060.88 207.973 1060.64 207.684C1060.41 207.394 1060.29 206.933 1060.29 206.3ZM1060.02 196.637V188.901C1060 187.743 1059.95 186.964 1059.86 186.566C1059.79 186.15 1059.65 185.815 1059.45 185.562C1058.84 184.73 1057.97 184.051 1056.85 183.526C1055.75 183.001 1054.62 182.739 1053.46 182.739C1051.37 182.739 1049.7 183.599 1048.45 185.318C1047.21 187.037 1046.58 189.38 1046.58 192.348C1046.58 195.515 1047.26 198.093 1048.62 200.084C1049.99 202.074 1051.73 203.07 1053.84 203.07C1055.85 203.07 1057.37 202.527 1058.42 201.441C1059.49 200.337 1060.02 198.736 1060.02 196.637Z" fill="#121212"/>
<path d="M1096.54 199.839C1096.54 200.907 1096.63 201.703 1096.81 202.228C1096.99 202.753 1097.27 203.07 1097.65 203.178C1097.87 203.251 1098.15 203.332 1098.52 203.422C1099.71 203.748 1100.3 204.228 1100.3 204.861C1100.3 205.766 1099.67 206.589 1098.41 207.331C1097.14 208.055 1095.67 208.417 1093.99 208.417C1093.16 208.417 1092.28 207.928 1091.34 206.951C1090.42 205.956 1089.93 205.458 1089.87 205.458C1089.71 205.458 1089.3 205.666 1088.65 206.082C1086.27 207.639 1083.92 208.417 1081.61 208.417C1078.87 208.417 1076.64 207.621 1074.95 206.028C1073.25 204.418 1072.4 202.319 1072.4 199.731C1072.4 196.709 1073.49 194.356 1075.68 192.674C1077.86 190.973 1080.92 190.122 1084.83 190.122C1085.58 190.122 1086.38 190.167 1087.25 190.258C1088.13 190.33 1089.08 190.448 1090.09 190.611L1090.12 187.625C1090.12 185.96 1089.76 184.684 1089.03 183.798C1088.31 182.893 1087.28 182.441 1085.95 182.441C1085.02 182.441 1084.17 182.649 1083.37 183.065C1082.58 183.463 1081.81 184.087 1081.07 184.938C1080.93 185.101 1080.73 185.345 1080.47 185.671C1079.34 187.118 1078.13 187.842 1076.84 187.842C1076.1 187.842 1075.51 187.607 1075.06 187.136C1074.62 186.648 1074.41 185.996 1074.41 185.182C1074.41 183.409 1075.5 181.916 1077.68 180.703C1079.87 179.491 1082.68 178.885 1086.11 178.885C1088.2 178.885 1090 179.165 1091.5 179.726C1093 180.269 1094.16 181.065 1094.99 182.115C1095.55 182.839 1095.95 183.78 1096.19 184.938C1096.42 186.096 1096.54 188.023 1096.54 190.719V199.839ZM1090.09 194.221C1089.35 194.058 1088.64 193.94 1087.95 193.868C1087.26 193.777 1086.61 193.732 1086 193.732C1083.98 193.732 1082.4 194.185 1081.26 195.089C1080.12 195.994 1079.55 197.243 1079.55 198.835C1079.55 200.337 1080.04 201.54 1081.02 202.445C1082.01 203.35 1083.34 203.802 1085 203.802C1086.84 203.802 1088.15 203.395 1088.93 202.581C1089.72 201.767 1090.12 200.373 1090.12 198.401L1090.09 194.221Z" fill="#121212"/>
<path d="M171.021 179.015H176.057V174.181C176.057 168.339 179.28 164.512 185.726 164.512L188.949 165.116V170.958L185.524 170.354C183.51 170.354 182.704 171.562 182.704 173.577V179.015H189.15V184.857H182.704V209.028H176.259V184.857H171.021V179.015Z" fill="#D70F64"/>
<path d="M205.465 178.411C213.724 178.411 221.177 184.857 221.177 194.123C221.177 203.388 213.925 209.834 205.465 209.834C197.005 209.834 189.754 203.388 189.754 194.123C189.754 184.655 197.207 178.411 205.465 178.411ZM205.465 203.993C211.508 203.993 214.731 199.561 214.731 194.123C214.731 188.684 211.508 184.253 205.465 184.253C199.422 184.253 196.2 188.684 196.2 194.123C196.2 199.36 199.422 203.993 205.465 203.993Z" fill="#D70F64"/>
<path d="M239.506 178.411C247.765 178.411 255.218 184.857 255.218 194.123C255.218 203.388 247.966 209.834 239.506 209.834C231.046 209.834 223.795 203.388 223.795 194.123C223.996 184.655 231.248 178.411 239.506 178.411ZM239.506 203.993C245.549 203.993 248.772 199.561 248.772 194.123C248.772 188.684 245.549 184.253 239.506 184.253C233.464 184.253 230.241 188.684 230.241 194.123C230.241 199.36 233.464 203.993 239.506 203.993Z" fill="#D70F64"/>
<path d="M288.655 209.028H282.813L282.209 206.409L281.806 206.006L281.403 206.409C279.389 208.423 276.367 209.632 273.145 209.632C264.886 209.632 257.836 203.186 257.836 193.921C257.836 184.655 264.886 178.209 273.145 178.209C276.367 178.209 279.59 179.418 281.403 181.432L281.806 181.835L282.209 181.432V164.713H288.655V209.028ZM273.547 184.051C267.504 184.051 264.282 188.482 264.282 193.921C264.282 199.359 267.504 203.791 273.547 203.791C278.986 203.791 282.813 199.359 282.813 193.921C282.813 188.683 278.986 184.051 273.547 184.051Z" fill="#D70F64"/>
<path d="M295.102 179.015H300.943L301.547 181.634L301.95 182.037L302.353 181.634C304.367 179.62 307.389 178.411 310.612 178.411C318.87 178.411 325.92 184.857 325.92 194.123C325.92 203.388 318.87 209.834 310.612 209.834C307.389 209.834 304.166 208.625 302.353 206.611L301.95 206.208L301.547 206.611V222.725H295.303V179.015H295.102ZM310.007 203.993C316.05 203.993 319.273 199.561 319.273 194.123C319.273 188.684 316.05 184.253 310.007 184.253C304.569 184.253 300.742 188.684 300.742 194.123C300.742 199.36 304.569 203.993 310.007 203.993Z" fill="#D70F64"/>
<path d="M341.833 190.296H347.07V188.886C347.07 185.26 344.653 183.649 341.228 183.649C338.408 183.649 336.595 185.059 335.588 187.677L329.948 186.469C331.157 181.433 335.588 178.21 341.43 178.21C349.487 178.21 353.515 182.239 353.515 190.094V208.827H348.278L347.674 204.799C345.66 207.82 342.437 209.23 338.207 209.23C332.768 209.23 328.941 206.007 328.941 199.964C328.74 194.123 333.977 190.296 341.833 190.296ZM339.013 203.993C341.027 203.993 343.041 203.389 344.451 201.979C346.063 200.569 346.868 198.756 346.868 196.339V195.734H341.43C337.603 195.734 335.185 197.547 335.185 200.367C335.185 202.381 336.595 203.993 339.013 203.993Z" fill="#D70F64"/>
<path d="M359.156 179.015H364.998L365.602 181.634L366.005 182.037L366.408 181.634C367.616 179.62 370.839 178.411 373.458 178.411C381.112 178.411 385.543 183.447 385.543 190.497V209.028H379.098V190.497C378.896 186.468 376.882 184.051 372.652 184.051C368.825 184.051 365.803 187.073 365.602 190.9V209.028H359.156V179.015Z" fill="#D70F64"/>
<path d="M419.987 209.028H414.145L413.541 206.409L413.138 206.006L412.735 206.409C410.721 208.423 407.699 209.632 404.477 209.632C396.218 209.632 389.168 203.186 389.168 193.921C389.168 184.655 396.218 178.209 404.477 178.209C407.699 178.209 410.922 179.418 412.735 181.432L413.138 181.835L413.541 181.432V164.713H419.987V209.028ZM405.081 184.051C399.038 184.051 395.815 188.482 395.815 193.921C395.815 199.359 399.038 203.791 405.081 203.791C410.519 203.791 414.347 199.359 414.347 193.921C414.347 188.683 410.519 184.051 405.081 184.051Z" fill="#D70F64"/>
<path d="M438.317 190.296H443.554V188.886C443.554 185.26 441.137 183.649 437.713 183.649C434.893 183.649 433.08 185.059 432.073 187.677L426.433 186.469C427.641 181.433 432.073 178.21 437.914 178.21C445.972 178.21 450 182.239 450 190.094V208.827H444.763L444.159 204.799C442.144 207.82 438.921 209.23 434.691 209.23C429.253 209.23 425.426 206.007 425.426 199.964C425.224 194.123 430.26 190.296 438.317 190.296ZM435.497 203.993C437.511 203.993 439.526 203.389 440.936 201.979C442.547 200.569 443.353 198.756 443.353 196.339V195.734H437.914C434.087 195.734 431.67 197.547 431.67 200.367C431.67 202.381 433.08 203.993 435.497 203.993Z" fill="#D70F64"/>
<path d="M126.506 202.164C130.132 202.164 133.154 199.545 133.154 196.322H119.859C119.859 199.545 122.679 202.164 126.506 202.164Z" fill="#D70F64"/>
<path d="M148.864 171.763C150.476 170.555 151.281 168.541 151.281 166.325C151.281 162.296 148.059 159.275 144.03 159.275C141.411 159.275 139.196 160.483 137.987 162.498C134.361 160.685 130.333 159.879 126.304 159.879C122.074 159.879 118.046 160.886 114.621 162.498C113.413 160.483 111.197 159.275 108.578 159.275C104.55 159.275 101.327 162.498 101.327 166.325C101.327 168.541 102.334 170.353 103.744 171.763C100.723 176.195 99.1113 181.231 99.1113 186.871C99.1113 201.776 111.197 214.064 126.304 214.064C141.21 214.064 153.497 201.978 153.497 186.871C153.497 181.231 151.886 175.993 148.864 171.763ZM126.506 211.848C112.808 211.848 101.528 200.568 101.528 186.871C101.528 181.633 103.14 176.799 105.758 172.771C108.176 169.145 111.6 166.123 115.628 164.311C118.851 162.699 122.678 161.893 126.506 161.893C130.333 161.893 134.16 162.699 137.383 164.311C141.411 166.325 144.634 169.145 147.253 172.771C149.871 176.799 151.483 181.633 151.483 186.871C151.483 200.568 140.203 211.848 126.506 211.848Z" fill="#D70F64"/>
<path d="M126.505 192.108C126.908 192.309 131.138 190.698 131.138 188.683C131.138 187.475 127.713 187.273 126.505 187.273C125.296 187.273 121.872 187.475 121.872 188.683C121.67 190.698 126.102 192.309 126.505 192.108Z" fill="#D70F64"/>
<path d="M142.217 175.187C139.8 173.576 134.563 172.77 132.549 175.389C132.549 175.389 129.93 178.209 132.549 181.029C135.167 183.849 136.98 186.669 137.584 188.885C138.189 191.302 139.196 192.107 141.009 192.107C142.821 192.107 146.447 189.287 147.051 184.655C147.454 180.022 144.634 176.597 142.217 175.187ZM136.779 181.029C135.973 181.029 135.369 180.425 135.369 179.619C135.369 178.813 135.973 178.209 136.779 178.209C137.584 178.209 138.189 178.813 138.189 179.619C138.189 180.425 137.584 181.029 136.779 181.029Z" fill="#D70F64"/>
<path d="M120.262 175.389C118.248 172.77 113.011 173.576 110.594 175.187C108.177 176.799 105.357 180.022 105.759 184.655C106.162 189.287 109.788 192.107 111.802 192.107C113.615 192.107 114.622 191.1 115.227 188.885C115.831 186.467 117.845 183.849 120.262 181.029C122.881 178.007 120.262 175.389 120.262 175.389ZM116.435 181.029C115.629 181.029 115.025 180.425 115.025 179.619C115.025 178.813 115.629 178.209 116.435 178.209C117.241 178.209 117.845 178.813 117.845 179.619C117.845 180.425 117.241 181.029 116.435 181.029Z" fill="#D70F64"/>
</svg>
