<svg width="184" height="185" viewBox="0 0 184 185" fill="none" xmlns="http://www.w3.org/2000/svg">
<rect y="0.989258" width="184" height="184" rx="3" fill="#0C0C0C"/>
<g clip-path="url(#clip0)">
<path d="M38.2508 90.3315C39.3116 90.7077 40.3712 91.0503 41.4319 91.3615C41.5368 91.3919 41.6227 91.471 41.6629 91.5751C41.8791 92.1248 42.0953 92.6735 42.3104 93.221C43.1401 95.3667 43.9698 97.493 44.7995 99.6018C44.8239 99.6647 44.9097 99.6702 44.9415 99.6105C46.0637 97.4865 47.1859 95.3288 48.308 93.1408C48.36 93.0399 48.468 92.9857 48.5772 93.0042C49.6474 93.1852 50.7166 93.3381 51.7869 93.465C51.913 93.4801 52.0221 93.5615 52.0751 93.6786C52.2976 94.173 52.5202 94.6674 52.7427 95.1597C53.6752 97.1601 54.6088 99.141 55.5412 101.105C55.5826 101.191 55.7023 101.191 55.7447 101.106C56.6496 99.2646 57.5546 97.4062 58.4595 95.5326C58.6831 95.0621 58.9067 94.5893 59.1292 94.1166C59.1737 94.0223 59.2681 93.9637 59.3698 93.9648C60.4559 93.9832 61.5421 93.9789 62.6282 93.9572C62.7882 93.954 62.8931 94.1274 62.8179 94.2716C62.5964 94.6999 62.376 95.1271 62.1546 95.5532C60.6848 98.4243 59.2151 101.26 57.7453 104.053C57.7252 104.096 57.7051 104.139 57.6849 104.183C57.6351 104.29 57.527 104.357 57.4105 104.353C56.2544 104.305 55.0983 104.233 53.9422 104.131C53.8447 104.122 53.7578 104.062 53.7133 103.972C52.5785 101.661 51.4446 99.3221 50.3097 96.953C50.2769 96.8847 50.1826 96.8825 50.1476 96.9498C49.0869 98.9404 48.0262 100.905 46.9655 102.841C46.9305 102.91 46.8966 102.979 46.8616 103.049C46.8383 103.094 46.7885 103.119 46.7387 103.109C45.5381 102.871 44.3375 102.595 43.138 102.281C43.067 102.263 43.0076 102.212 42.978 102.143C41.5368 98.8396 40.0968 95.4817 38.6556 92.0608L38.0167 90.5906C37.9499 90.4366 38.0951 90.2762 38.2508 90.3315Z" fill="#F9F8F4"/>
<path d="M79.5279 98.7978C79.5279 100.039 79.5279 101.281 79.5279 102.522C79.5279 102.674 79.4187 102.804 79.2714 102.826C78.2807 102.975 77.2899 103.119 76.2991 103.253C76.1921 103.267 76.0978 103.183 76.0978 103.072C76.0978 101.811 76.0978 100.551 76.0978 99.29C76.0978 96.1728 74.8728 94.9151 72.2194 95.2089C69.7589 95.4735 68.2288 96.3018 67.0981 97.4403C67.0176 97.5216 66.9731 97.6344 66.9731 97.7504V103.888C66.9731 104.071 66.8343 104.221 66.6573 104.232C65.7121 104.291 64.7669 104.336 63.8217 104.368C63.6691 104.373 63.543 104.247 63.543 104.091V89.1111C63.543 88.8877 63.7168 88.7045 63.935 88.6969C64.8135 88.6665 65.693 88.6231 66.5715 88.57C66.7887 88.557 66.9731 88.7327 66.9731 88.956V94.8294C66.9731 94.9877 67.1596 95.0647 67.2687 94.953C68.4237 93.7701 70.0874 92.7303 72.7503 92.4343C78.4661 91.7512 79.5279 94.6798 79.5279 98.7978Z" fill="#F9F8F4"/>
<path d="M80.5273 97.5565C80.5273 93.8603 83.9373 90.9078 88.8562 90.0166C93.6331 89.1503 97.1862 90.9328 97.1862 94.6344C97.1862 98.1398 93.6342 101.099 88.8562 101.965C83.9564 102.853 80.5263 101.067 80.5273 97.5565ZM84.2965 93.0156C82.7622 94.719 83.5834 97.0491 86.347 98.8619C89.1095 100.676 91.9451 100.77 93.4795 99.0679C94.9821 97.4004 94.1651 95.0649 91.4026 93.2509C88.639 91.437 85.7981 91.3481 84.2965 93.0156Z" fill="#FBB040"/>
<path d="M97.5938 94.5633C97.5938 90.8747 101.004 87.8128 105.924 87.0831C110.701 86.3761 114.254 88.5034 114.253 92.1997C114.253 95.7105 110.701 98.3257 105.924 99.0326C101.024 99.758 97.5938 98.0817 97.5938 94.5633ZM101.467 89.8848C99.9303 91.5827 100.643 94.0277 103.331 95.9306C106.019 97.8302 108.863 97.9245 110.399 96.2277C111.908 94.5601 111.09 92.23 108.401 90.3304C105.715 88.4275 102.976 88.2183 101.467 89.8848Z" fill="#FBB040"/>
<path d="M129.117 87.5041C128.836 88.0484 128.556 88.5938 128.274 89.1413C128.198 89.2888 128.022 89.3463 127.877 89.2704C126.901 88.7575 125.366 88.1178 122.583 87.9834C120.766 87.8869 118.316 87.9714 118.316 89.0828C118.316 90.1811 120.664 89.8103 124.421 90.1161C127.34 90.3525 129.852 90.9304 129.912 93.7765C129.912 96.5154 126.563 97.3481 122.419 97.4055C119.553 97.4326 116.612 97.0206 114.701 96.0242C114.553 95.9472 114.497 95.7629 114.572 95.6133C114.897 94.9768 115.22 94.3414 115.544 93.7071C115.619 93.5597 115.796 93.5011 115.94 93.5781C117.572 94.4433 119.777 94.9117 122.277 94.8792C124.502 94.8456 126.523 94.7209 126.523 93.8221C126.523 92.7411 125.4 92.9286 120.766 92.6966C117.071 92.5492 115.315 91.2003 115.315 89.5165C115.315 87.2818 117.867 85.3725 122.685 85.5373C126.042 85.675 127.831 86.5099 128.985 87.0899C129.135 87.1669 129.195 87.3534 129.117 87.5041Z" fill="#F9F8F4"/>
<path d="M146.667 96.747V100.333C146.667 100.53 146.477 100.668 146.294 100.603C145.342 100.263 144.389 99.952 143.437 99.6658C143.319 99.63 143.238 99.5205 143.238 99.3947V95.6172C143.238 92.5151 142.013 90.6632 139.36 90.0517C136.906 89.5041 135.378 89.9931 134.247 90.8866C134.161 90.9538 134.114 91.06 134.114 91.1706V97.339C134.114 97.4973 133.977 97.6198 133.823 97.5981C132.845 97.4658 131.867 97.3541 130.889 97.2642C130.773 97.2533 130.684 97.1536 130.684 97.0343C130.684 92.0088 130.684 86.9822 130.684 81.9566C130.684 81.7539 130.854 81.5934 131.051 81.6129C131.969 81.6997 132.887 81.8049 133.805 81.9295C133.981 81.9534 134.114 82.1084 134.114 82.2906V88.2356C134.114 88.4166 134.317 88.5175 134.457 88.4069C135.61 87.4918 137.265 86.851 139.892 87.4592C145.606 88.9002 146.667 92.7211 146.667 96.747Z" fill="#F9F8F4"/>
</g>
<defs>
<clipPath id="clip0">
<rect width="108.667" height="22.7574" fill="white" transform="translate(38 81.6104)"/>
</clipPath>
</defs>
</svg>
