<svg width="184" height="185" viewBox="0 0 184 185" fill="none" xmlns="http://www.w3.org/2000/svg">
<rect y="0.989258" width="184" height="184" rx="3" fill="#0C0C0C"/>
<path d="M56.4844 72.4932H61.6891V80.7962C61.9024 80.6048 62.1906 80.3713 62.5535 80.0941C62.9164 79.8169 63.3705 79.5507 63.9139 79.2954C64.4574 79.0401 65.1029 78.8158 65.8506 78.6243C66.5965 78.4328 67.4609 78.3361 68.4439 78.3361C69.8736 78.3361 71.1155 78.5714 72.1714 79.0382C73.2273 79.5069 74.1027 80.1288 74.7957 80.9057C75.4886 81.6825 76.0011 82.5725 76.3312 83.5718C76.6612 84.573 76.8272 85.6052 76.8272 86.6702C76.8272 87.8191 76.6357 88.9334 76.2509 90.0075C75.8661 91.0835 75.2953 92.0354 74.5385 92.8652C73.7817 93.6949 72.848 94.3606 71.7374 94.8621C70.6286 95.3617 69.3575 95.6116 67.9296 95.6116C67.098 95.6116 66.3558 95.5313 65.7048 95.3727C65.0537 95.2122 64.472 95.0207 63.9595 94.7982C63.4471 94.5739 63.0039 94.3405 62.6319 94.0961C62.2581 93.8518 61.9444 93.6329 61.6873 93.4414V95.039H56.4844V72.4932ZM66.3357 82.009C65.7376 82.0527 65.1558 82.1749 64.5887 82.3755C64.0233 82.578 63.5146 82.8807 63.0659 83.2855C62.6173 83.6904 62.2599 84.1955 61.9918 84.8028C61.7255 85.4101 61.5924 86.1286 61.5924 86.9584C61.5924 87.4489 61.6289 87.8738 61.7037 88.2349C61.7784 88.5978 61.8751 88.906 61.9918 89.1613C62.1103 89.4166 62.2271 89.6191 62.3438 89.7686C62.4605 89.9181 62.5517 90.0239 62.6155 90.0877C62.8927 90.4288 63.2136 90.7114 63.5766 90.9339C63.9395 91.1582 64.3024 91.3333 64.6653 91.461C65.0282 91.5886 65.3801 91.6798 65.723 91.7327C66.064 91.7856 66.374 91.8129 66.6531 91.8129C67.2512 91.8129 67.833 91.7163 68.3983 91.5248C68.9636 91.3333 69.4669 91.0415 69.9046 90.6458C70.3423 90.2519 70.6943 89.7467 70.9623 89.1285C71.2286 88.5103 71.3635 87.7772 71.3635 86.9255C71.3635 86.1596 71.245 85.4411 71.0116 84.77C70.7763 84.0989 70.3715 83.519 69.7952 83.0302C69.3685 82.6691 68.8542 82.3974 68.2579 82.215C67.6615 82.0363 67.0196 81.967 66.3357 82.009Z" fill="#F9F8F4"/>
<path d="M85.0034 78.8809V95.0402H79.7969V78.8809H85.0034Z" fill="#F9F8F4"/>
<path d="M89.1227 78.88H94.3292V81.2033C94.5407 80.9882 94.8234 80.7201 95.1754 80.3973C95.5273 80.0745 95.9778 79.77 96.5321 79.48C97.0847 79.19 97.7668 78.9384 98.5765 78.7232C99.3843 78.508 100.344 78.4004 101.451 78.4004C102.43 78.4004 103.276 78.497 103.989 78.6885C104.702 78.88 105.304 79.1043 105.793 79.3596C106.281 79.6149 106.672 79.8703 106.958 80.1256C107.244 80.3809 107.441 80.5724 107.549 80.7C107.888 81.1049 108.156 81.5298 108.348 81.9784C108.539 82.4252 108.683 82.8775 108.778 83.3352C108.875 83.7929 108.933 84.2561 108.953 84.7248C108.973 85.1935 108.984 85.6512 108.984 86.098V95.0722L103.716 95.0394V86.7892C103.716 86.4919 103.705 86.1783 103.683 85.85C103.661 85.5199 103.608 85.1917 103.522 84.8634C103.436 84.5333 103.309 84.216 103.139 83.9078C102.968 83.5996 102.734 83.3188 102.437 83.0635C102.16 82.83 101.782 82.6185 101.303 82.427C100.823 82.2355 100.138 82.1407 99.2421 82.1407C98.4962 82.1407 97.847 82.2209 97.2944 82.3796C96.74 82.5401 96.2932 82.7152 95.9522 82.9048C95.5893 83.1182 95.2975 83.368 95.0732 83.6543C94.8507 83.9406 94.6848 84.2379 94.579 84.5461C94.4714 84.8543 94.404 85.168 94.3711 85.4871C94.3383 85.8062 94.3237 86.0926 94.3237 86.346V95.043H89.1172V78.88H89.1227Z" fill="#F9F8F4"/>
<path d="M113.105 84.1807H122.143V88.1088H113.105V84.1807Z" fill="#F9F8F4"/>
<path d="M54.3945 106.944H63.4325V110.872H54.3945V106.944Z" fill="#F9F8F4"/>
<path d="M86.6811 115.822C86.723 116.249 86.7814 116.588 86.8561 116.843C86.9309 117.098 87.1169 117.418 87.4142 117.801H81.728C81.6004 117.418 81.522 117.093 81.4891 116.827C81.4563 116.56 81.4308 116.311 81.4089 116.077C80.9822 116.333 80.5336 116.588 80.0649 116.843C79.5962 117.098 79.0728 117.328 78.4965 117.529C77.9203 117.731 77.2802 117.895 76.5762 118.023C75.8723 118.151 75.0717 118.215 74.1763 118.215C73.5362 118.215 72.9016 118.182 72.2724 118.118C71.6433 118.054 71.0196 117.937 70.3995 117.766C69.247 117.447 68.2932 116.872 67.5346 116.041C66.7778 115.211 66.3984 114.146 66.3984 112.848C66.3984 111.571 66.6811 110.581 67.2464 109.877C67.8118 109.175 68.5631 108.659 69.5023 108.329C70.4415 107.998 71.5083 107.801 72.7028 107.738C73.8973 107.674 75.1355 107.632 76.4157 107.61H81.4089C81.4089 107.269 81.3925 106.924 81.3615 106.572C81.3287 106.22 81.1755 105.907 80.8983 105.63C80.6211 105.352 80.1688 105.13 79.5415 104.958C78.9141 104.789 78.0242 104.703 76.8753 104.703C76.4285 104.703 75.9762 104.72 75.5185 104.751C75.0608 104.783 74.6286 104.847 74.2255 104.942C73.8207 105.039 73.4742 105.186 73.1879 105.389C72.8998 105.591 72.7028 105.852 72.597 106.171H67.2628C67.3048 105.938 67.3631 105.666 67.4379 105.356C67.5127 105.048 67.6349 104.734 67.8045 104.413C67.9741 104.094 68.2039 103.764 68.492 103.423C68.7801 103.082 69.1576 102.763 69.6263 102.465C70.1789 102.124 70.8026 101.858 71.4937 101.667C72.1849 101.475 72.8779 101.337 73.569 101.251C74.2602 101.165 74.9149 101.112 75.5331 101.09C76.1513 101.07 76.651 101.058 77.034 101.058C78.6515 101.058 80.0138 101.154 81.1171 101.346C82.2204 101.537 83.1286 101.809 83.838 102.159C84.5474 102.511 85.0981 102.916 85.4884 103.374C85.8787 103.831 86.1595 104.327 86.3291 104.858C86.4987 105.391 86.599 105.943 86.63 106.519C86.6628 107.094 86.6774 107.659 86.6774 108.212V115.822H86.6811ZM81.4107 110.329C79.6582 110.329 78.1628 110.34 76.9245 110.362C75.6863 110.384 74.6924 110.479 73.9447 110.65C73.8371 110.672 73.6785 110.714 73.4633 110.778C73.2499 110.842 73.0311 110.949 72.8067 111.097C72.5824 111.246 72.3837 111.449 72.2141 111.704C72.0426 111.959 71.9587 112.279 71.9587 112.662C71.9587 113.172 72.1083 113.566 72.4074 113.843C72.7064 114.12 73.0584 114.328 73.4651 114.465C73.8699 114.604 74.2657 114.684 74.6505 114.704C75.0352 114.726 75.3124 114.737 75.4839 114.737C76.0383 114.737 76.5835 114.684 77.1179 114.576C77.6522 114.471 78.1592 114.31 78.6406 114.097C79.1202 113.883 79.5543 113.628 79.939 113.331C80.3238 113.034 80.6448 112.693 80.9001 112.31C81.1554 111.948 81.2995 111.618 81.3323 111.319C81.3633 111.022 81.3907 110.692 81.4107 110.329Z" fill="#F9F8F4"/>
<path d="M96.0399 104.42C96.2314 104.123 96.4703 103.788 96.7584 103.414C97.0465 103.042 97.4459 102.684 97.9565 102.343C98.4672 102.002 99.1109 101.716 99.8878 101.481C100.665 101.247 101.638 101.12 102.809 101.098V105.856C102.574 105.836 102.357 105.819 102.155 105.808C101.952 105.797 101.711 105.792 101.436 105.792C101.328 105.792 101.142 105.797 100.876 105.808C100.61 105.819 100.311 105.846 99.9826 105.888C99.6525 105.932 99.306 106 98.945 106.096C98.5821 106.193 98.2429 106.326 97.9237 106.496C97.114 106.922 96.5979 107.438 96.3754 108.044C96.153 108.651 96.0399 109.306 96.0399 110.008V117.8H90.7695V101.641H96.0399V104.42Z" fill="#F9F8F4"/>
<path d="M104.301 101.643H109.921L113.753 111.702C113.838 111.979 113.913 112.207 113.977 112.388C114.041 112.568 114.094 112.745 114.138 112.915C114.179 113.086 114.223 113.267 114.265 113.458C114.307 113.649 114.351 113.885 114.393 114.16C114.413 113.863 114.44 113.613 114.473 113.411C114.506 113.208 114.542 113.017 114.584 112.836C114.626 112.656 114.681 112.47 114.745 112.278C114.809 112.087 114.894 111.842 115 111.543L118.671 101.643H124.228L116.627 118.856C116.158 119.835 115.733 120.654 115.348 121.314C114.965 121.974 114.522 122.501 114.023 122.895C113.523 123.289 112.927 123.572 112.234 123.742C111.541 123.911 110.653 123.997 109.567 123.997C108.929 123.997 108.285 123.98 107.636 123.949C106.987 123.917 106.332 123.88 105.672 123.838V120.007C106.033 120.049 106.46 120.087 106.949 120.118C107.437 120.151 107.895 120.165 108.322 120.165C108.833 120.165 109.216 120.133 109.473 120.069C109.728 120.005 109.919 119.941 110.047 119.877C110.175 119.813 110.281 119.744 110.366 119.669C110.45 119.595 110.547 119.489 110.654 119.35C110.76 119.212 110.882 119.02 111.021 118.776C111.16 118.531 111.324 118.205 111.515 117.802L104.301 101.643Z" fill="#F9F8F4"/>
<path d="M125.92 113.721H127.576C127.643 113.721 127.711 113.723 127.774 113.728C127.84 113.733 127.902 113.744 127.964 113.763C128.026 113.781 128.084 113.806 128.139 113.841C128.196 113.876 128.249 113.921 128.298 113.978C128.36 114.051 128.4 114.129 128.422 114.211C128.444 114.295 128.455 114.372 128.455 114.441C128.455 114.534 128.438 114.629 128.404 114.727C128.369 114.826 128.309 114.906 128.223 114.972C128.157 115.021 128.088 115.057 128.013 115.077C127.939 115.098 127.878 115.112 127.831 115.121L128.56 116.126H127.851L127.207 115.158H126.522V116.126H125.918V113.721H125.92ZM126.523 114.733H127.484C127.515 114.733 127.554 114.731 127.596 114.726C127.638 114.722 127.678 114.709 127.714 114.689C127.753 114.669 127.784 114.642 127.807 114.603C127.833 114.565 127.846 114.512 127.846 114.445C127.846 114.419 127.844 114.39 127.836 114.354C127.831 114.319 127.818 114.286 127.798 114.255C127.787 114.242 127.773 114.228 127.758 114.213C127.743 114.199 127.723 114.186 127.698 114.175C127.672 114.164 127.641 114.157 127.603 114.149C127.565 114.142 127.515 114.138 127.457 114.138H126.523V114.733Z" fill="#F9F8F4"/>
<path d="M127.126 112.065C125.545 112.065 124.258 113.351 124.258 114.934C124.258 116.517 125.545 117.803 127.126 117.803C128.709 117.803 129.997 116.517 129.997 114.934C129.997 113.351 128.709 112.065 127.126 112.065ZM127.126 117.4C125.768 117.4 124.663 116.293 124.663 114.934C124.663 113.575 125.768 112.468 127.126 112.468C128.487 112.468 129.592 113.575 129.592 114.934C129.592 116.293 128.487 117.4 127.126 117.4Z" fill="#F9F8F4"/>
<path d="M88.5417 68.7767C88.5417 68.8259 88.5052 68.8679 88.4578 68.8788C85.4141 69.3894 83.0105 71.7912 82.4999 74.8349C82.489 74.8823 82.447 74.9169 82.3978 74.9169C82.3485 74.9169 82.3048 74.8823 82.2957 74.8349C81.785 71.7967 79.3924 69.3986 76.356 68.8806C76.3487 68.8806 76.3396 68.8788 76.3323 68.8788C76.2867 68.866 76.2539 68.8259 76.2539 68.7767C76.2539 68.7275 76.2867 68.6873 76.3323 68.6746C76.3396 68.6746 76.3487 68.6727 76.356 68.6727C79.3924 68.1548 81.7869 65.7549 82.2957 62.7167C82.3066 62.6693 82.3485 62.6328 82.3978 62.6328C82.447 62.6328 82.489 62.6693 82.4999 62.7167C83.0105 65.7604 85.4141 68.1639 88.4578 68.6746C88.5052 68.6855 88.5417 68.7275 88.5417 68.7767Z" fill="#EF0000"/>
</svg>
