<svg width="184" height="185" viewBox="0 0 184 185" fill="none" xmlns="http://www.w3.org/2000/svg">
<rect y="0.989258" width="184" height="184" rx="3" fill="#0C0C0C"/>
<g clip-path="url(#clip0)">
<path d="M108.135 78.5595H112.404C116.057 78.5595 119.094 75.7974 119.324 72.2648C119.443 70.38 118.804 68.584 117.519 67.2089C116.246 65.8516 114.458 65.0751 112.605 65.0751H108.917C108.763 64.4824 108.443 63.943 107.964 63.457L104.56 60.0547C103.133 58.6263 100.806 58.6263 99.3558 60.0784C98.6632 60.7779 98.2784 61.7025 98.2843 62.6923C98.2902 63.6763 98.6809 64.6009 99.3795 65.2885C99.7288 65.6263 100.096 65.9938 100.481 66.3732C99.5157 67.2622 98.9118 68.5366 98.9118 69.9473V81.6713H91.8076C87.4149 81.6713 83.1583 83.8111 80.9619 87.1244C79.2095 89.7679 79.2155 92.6663 79.2273 95.4699V119.902H68.0145C66.2326 119.902 64.7703 121.236 64.6756 122.943C64.6341 123.832 64.942 124.679 65.5518 125.325C66.1556 125.96 67.0022 126.321 67.8784 126.321H84.6324C86.0177 126.321 87.1485 125.195 87.1485 123.802V107.484C87.8707 108.196 88.7706 108.788 89.8362 109.245V123.737C89.8362 125.165 90.9906 126.321 92.4174 126.321H110.503C112.274 126.321 113.712 124.881 113.712 123.115C113.712 121.342 112.274 119.902 110.503 119.902H98.5152V109.595C101.647 109.482 104.187 108.397 106.052 106.37C109.29 102.873 109.544 97.6096 109.515 95.6537H111.238L113.345 97.7638C113.949 98.3683 114.748 98.7003 115.601 98.7003C116.453 98.7003 117.252 98.3683 117.856 97.7638C118.46 97.1592 118.792 96.359 118.792 95.5055C118.792 94.652 118.46 93.8518 117.856 93.2472L114.381 89.7738C113.854 89.2404 113.15 88.95 112.404 88.95H107.792V78.9033C107.792 78.7136 107.946 78.5595 108.135 78.5595ZM100.623 64.02C100.262 63.6644 100.06 63.1902 100.06 62.6805C100.06 62.1767 100.256 61.6966 100.635 61.3113C101.351 60.6 102.594 60.6 103.305 61.3113L106.703 64.7195C106.821 64.838 106.916 64.9506 106.999 65.0751H103.778C103.162 65.0751 102.57 65.1877 102.032 65.4011C101.546 64.9269 101.061 64.4527 100.623 64.02ZM104.021 90.7281H112.404C112.676 90.7281 112.931 90.8348 113.126 91.0304L116.601 94.5038C116.868 94.7705 117.016 95.1261 117.016 95.5055C117.016 95.8848 116.868 96.2405 116.601 96.5072C116.068 97.0406 115.133 97.0406 114.6 96.5072L112.232 94.1363C112.066 93.9703 111.841 93.8755 111.605 93.8755H108.579C108.094 93.8755 107.691 94.2726 107.691 94.7646C107.691 94.8298 107.703 94.9009 107.721 94.9661C107.721 94.972 107.721 94.972 107.721 94.978V95.0313C107.727 95.0965 108.165 101.474 104.743 105.173C103.944 106.032 102.997 106.684 101.901 107.123C102.032 106.998 102.15 106.868 102.269 106.738C103.37 105.505 104.086 104.058 104.335 102.565C104.719 100.265 104.133 97.9001 102.689 95.9145C101.102 93.7332 98.6987 92.2633 96.0879 91.8839C95.117 91.7358 94.1342 91.7535 93.1693 91.9195C92.2398 92.0795 91.2926 92.3818 90.3513 92.8204C89.9073 93.022 89.7119 93.5554 89.9191 94C90.1204 94.4445 90.6473 94.6342 91.0972 94.4327C91.8964 94.0592 92.6957 93.8044 93.4712 93.668C94.2527 93.5376 95.046 93.5258 95.8274 93.6384C97.9705 93.9525 99.9478 95.1676 101.256 96.9577C102.417 98.558 102.89 100.443 102.582 102.268C102.387 103.43 101.825 104.568 100.942 105.546C100.285 106.281 99.4683 106.939 98.5152 107.502C98.308 107.621 98.1008 107.733 97.8995 107.834C97.8047 107.882 97.7159 107.929 97.6212 107.97C97.5324 108.006 97.4259 108.047 97.3252 108.095C97.3252 108.095 97.3134 108.095 97.3134 108.101C97.0174 108.243 96.7391 108.474 96.7391 108.937V120.791C96.7391 121.283 97.1417 121.68 97.6271 121.68H110.503C111.297 121.68 111.936 122.32 111.936 123.115C111.936 123.903 111.297 124.543 110.503 124.543H92.4174C91.9734 124.543 91.6123 124.181 91.6123 123.737V108.64C91.6123 108.267 91.3755 107.935 91.0262 107.804C89.1317 107.111 87.8411 105.979 87.184 104.456C87.1662 104.408 87.1485 104.367 87.1307 104.319C87.1307 104.313 87.1307 104.313 87.1307 104.313C87.0952 104.236 87.0656 104.159 87.0419 104.082C85.9881 101.077 87.4741 97.5741 87.4918 97.5385C87.6872 97.0881 87.48 96.5605 87.0301 96.3649C86.5801 96.1693 86.0592 96.3768 85.8638 96.8273C85.7868 97.0051 84.07 101.018 85.3724 104.693V123.802C85.3724 124.211 85.035 124.543 84.6324 124.543H67.8784C67.4817 124.543 67.1147 124.389 66.8423 124.098C66.57 123.814 66.4339 123.435 66.4516 123.037C66.4931 122.291 67.1916 121.68 68.0145 121.68H80.1153C80.6067 121.68 81.0034 121.283 81.0034 120.791V95.464C80.9915 92.8086 80.9856 90.3014 82.4419 88.1083C84.3186 85.281 87.9951 83.4495 91.8076 83.4495H99.7998C100.291 83.4495 100.688 83.0524 100.688 82.5604V69.9473C100.688 68.2402 102.073 66.8533 103.778 66.8533H112.605C113.99 66.8533 115.275 67.4104 116.222 68.424C117.17 69.4375 117.637 70.7593 117.548 72.1522C117.383 74.7483 115.121 76.7814 112.404 76.7814H108.135C106.969 76.7814 106.016 77.7356 106.016 78.9033V88.95H104.021C103.53 88.95 103.133 89.3471 103.133 89.8391C103.133 90.331 103.53 90.7281 104.021 90.7281Z" fill="#F9F8F4"/>
</g>
<defs>
<clipPath id="clip0">
<rect width="54.6667" height="67.3333" fill="white" transform="translate(64.668 58.9893)"/>
</clipPath>
</defs>
</svg>
