<svg width="184" height="185" viewBox="0 0 184 185" fill="none" xmlns="http://www.w3.org/2000/svg">
<rect y="0.855469" width="184" height="184" rx="3" fill="#0C0C0C"/>
<path d="M107.166 92.0864C107.112 92.9684 107.071 93.8519 107.044 94.7369C107.039 94.9066 106.826 94.9763 106.722 94.8414C105.184 92.8426 103.832 91.0878 103.183 90.2255C103.094 90.1089 102.916 90.1301 102.857 90.2649L102.291 91.547C102.226 91.6955 102.021 91.7015 101.947 91.5591C101.545 90.7802 100.57 88.9587 99.9864 88.4525C99.2307 87.8055 95.7996 81.1984 95.1572 80.8756C94.5118 80.5513 93.0124 84.3398 92.6889 84.7701C92.367 85.2051 92.0964 86.3946 91.6717 87.0993C91.3241 87.6721 90.1285 89.0587 89.6916 89.5648C89.6085 89.6603 89.4574 89.6452 89.3878 89.5406L88.088 87.5524C88.0819 87.5403 88.0759 87.5281 88.0698 87.516C88.0078 87.3524 87.5257 86.1022 87.3262 85.8021C87.1085 85.4748 84.4831 89.3739 84.4831 89.3739C84.4831 89.3739 83.7878 90.4559 83.3585 90.7271C82.9277 90.9954 82.6602 90.9954 82.2853 91.5379C81.9694 91.9879 80.721 93.7261 80.3189 94.2868C80.2509 94.3792 80.1194 94.3914 80.0332 94.3171L78.5762 92.979C78.493 92.9017 78.3585 92.9169 78.2905 93.0063C78.0743 93.2927 77.8718 93.5655 77.6814 93.8322C77.5786 93.9761 77.3549 93.8989 77.3564 93.7231C77.3655 92.5956 77.373 91.7212 77.376 91.4985C77.4002 88.398 77.4063 85.296 77.4002 82.1955C77.3911 79.092 77.367 75.99 77.3292 72.8895C77.3262 72.5652 77.3201 72.2394 77.3171 71.9151C77.311 71.659 77.243 71.3074 77.3262 71.0649C77.4063 70.827 77.5937 70.8649 77.8083 70.8861C78.1303 70.9225 78.4477 70.9543 78.7666 70.9876C80.0453 71.1134 81.3271 71.2089 82.6088 71.1816C84.4921 71.1392 86.3649 70.8422 88.2482 70.8982C89.675 70.9437 91.0883 71.1937 92.5151 71.218C93.4704 71.2331 94.4181 71.1498 95.3673 71.0695C99.1747 70.7512 103.017 70.5057 106.811 70.9528C106.897 70.9634 106.965 71.0331 106.973 71.1195C107.248 74.3382 107.254 77.5796 106.992 80.8013C106.876 82.2122 106.71 83.6245 106.838 85.0323C106.921 85.9476 107.13 86.8447 107.225 87.757C107.378 89.1921 107.255 90.6438 107.166 92.0864Z" fill="#F9F8F4"/>
<path d="M139.832 90.2984C139.804 90.3499 139.781 90.4014 139.763 90.4529C139.711 90.6075 139.66 90.7575 139.609 90.9045C139.547 91.0727 139.485 91.2425 139.415 91.4076C138.928 92.6215 137.854 94.0293 137.14 95.134C137.107 95.1855 137.075 95.2371 137.042 95.2871C136.894 95.5235 136.583 95.5826 136.351 95.4265C136.057 95.2249 135.726 95.0325 135.351 94.8809C133.909 94.2945 132.889 94.2945 132.041 93.9611C131.193 93.6232 131.023 93.8762 129.751 92.4457C128.478 91.0197 127.881 89.3391 126.1 88.836C124.318 88.3299 123.895 86.9069 123.046 86.3159C122.196 85.7294 121.093 83.4624 120.671 83.5473C120.29 83.6185 116.95 87.954 116.223 88.9027C116.141 89.0088 116.023 89.0754 115.89 89.0891C115.626 89.1148 115.136 89.2391 114.727 89.7604C114.134 90.5166 114.134 92.0274 113.369 92.7821C112.604 93.5383 112.861 93.2883 111.164 94.8794C111.022 95.0113 110.889 95.1401 110.765 95.2643C110.757 95.1658 110.747 95.0628 110.736 94.9597C110.564 93.408 110.404 91.8865 110.461 90.3241C110.582 87.1812 110.804 84.0413 110.907 80.8953C110.999 78.0085 110.673 75.1777 110.673 72.306C110.673 71.5241 111.305 70.8906 112.084 70.8906H121.731C121.831 70.8906 121.929 70.9027 122.025 70.924C124.637 71.5044 127.746 70.5997 130.145 71.6089C131.023 71.9757 131.85 72.6758 132.659 73.1743C134.269 74.1609 135.714 74.7003 136.96 76.1854C137.177 76.4385 137.411 76.6582 137.638 76.9037C138.801 78.1539 139.737 80.8286 140.11 82.4713C140.242 83.0623 140.342 83.6564 140.407 84.258C140.469 84.8672 140.429 85.4976 140.549 86.0992C140.842 87.5873 140.59 88.9891 139.832 90.2984Z" fill="#F9F8F4"/>
<path d="M73.2289 87.2388C73.2138 88.1814 73.2576 89.1239 73.2651 90.0696C73.2682 91.0197 73.1624 91.9396 73.0898 92.8867C73.0173 93.8702 73.1336 94.8522 73.2258 95.8281C73.244 96.0145 73.2621 96.2024 73.2727 96.3888L71.6479 94.6536C71.5632 94.5657 71.4362 94.5324 71.3184 94.5733L70.1772 94.9552C70.0638 94.9961 69.9399 94.9628 69.8552 94.8779L68.1896 93.2004C68.1699 93.1716 68.1382 93.1246 68.117 93.0943L63.965 83.8003C63.8728 83.5912 63.5962 83.5503 63.442 83.72L61.8806 85.4764C61.8746 85.484 61.8655 85.4961 61.8595 85.5037L60.1379 88.1753C60.1167 88.198 60.0971 88.2223 60.0774 88.245L56.864 90.9955C56.8504 91.0106 56.8277 91.0333 56.8141 91.0485L54.754 93.7596C54.7177 93.8035 54.6739 93.8399 54.6179 93.8626L52.0272 94.9037C51.9895 94.9279 51.9532 94.9522 51.9154 94.9779L49.9248 96.9434C49.8522 97.0162 49.7494 97.0495 49.6497 97.0313L48.578 96.8404H48.5765C47.4384 95.8144 45.9526 95.3644 45.286 93.8808C44.9308 93.0928 44.6829 92.2457 44.4154 91.4198C43.8486 89.671 43.4087 87.9131 43.3362 86.0643C43.2274 83.3397 43.8471 80.4574 45.744 78.3858C46.1657 77.9251 46.4937 77.3887 46.7627 76.8249C47.1723 75.9687 47.6878 75.3141 48.3468 74.6655C49.5968 73.4335 51.0191 72.2954 52.6953 71.7317C54.5167 71.1149 56.4559 70.9316 58.4057 70.8876C60.1001 70.8467 61.8005 70.9134 63.439 70.8906C64.3716 70.8755 65.2936 70.927 66.2186 71.0452C67.2313 71.177 68.1896 71.1816 69.2038 71.0785C70.0925 70.9907 70.9813 70.9755 71.87 70.9028C72.2948 70.8664 73.1291 70.6163 73.2561 71.2074C73.3181 71.4786 73.2636 71.7832 73.2334 72.059C73.2002 72.3848 73.2002 72.7121 73.1971 73.0425C73.182 74.3367 73.5659 75.6141 73.5085 76.8977C73.442 78.3934 73.2485 79.8239 73.2561 81.3318C73.2651 83.2987 73.25 85.2688 73.2289 87.2388Z" fill="#F9F8F4"/>
<path d="M61.9564 115.372V113.23L61.1234 114.825H60.782L59.9508 113.23V115.372H59.3242V112.137H59.9978L60.9527 113.978L61.9152 112.137H62.5831V115.372H61.9564Z" fill="#F9F8F4"/>
<path d="M67.2733 115.395C67.0369 115.395 66.823 115.348 66.6298 115.255C66.4384 115.163 66.2714 115.039 66.1345 114.887C65.9956 114.734 65.8887 114.558 65.8137 114.36C65.7386 114.163 65.6992 113.961 65.6992 113.754C65.6992 113.538 65.7386 113.331 65.8193 113.136C65.9 112.938 66.0107 112.763 66.1514 112.611C66.2921 112.458 66.4591 112.338 66.6542 112.248C66.8493 112.157 67.0594 112.112 67.2864 112.112C67.5191 112.112 67.7329 112.161 67.9243 112.255C68.1157 112.351 68.2808 112.477 68.4177 112.631C68.5547 112.786 68.6598 112.963 68.7348 113.16C68.8099 113.358 68.8474 113.559 68.8474 113.762C68.8474 113.978 68.808 114.183 68.7292 114.379C68.6504 114.575 68.5397 114.748 68.4009 114.898C68.262 115.049 68.0932 115.169 67.8999 115.257C67.7104 115.349 67.5003 115.395 67.2733 115.395ZM66.3371 113.754C66.3371 113.894 66.3577 114.029 66.4009 114.161C66.444 114.29 66.5041 114.407 66.5848 114.507C66.6654 114.607 66.763 114.687 66.8812 114.748C66.9975 114.808 67.1307 114.838 67.2789 114.838C67.4309 114.838 67.5641 114.808 67.6823 114.746C67.7986 114.684 67.898 114.601 67.9768 114.497C68.0575 114.394 68.1176 114.277 68.1588 114.149C68.2001 114.02 68.2207 113.89 68.2207 113.754C68.2207 113.615 68.1982 113.48 68.1551 113.348C68.1119 113.218 68.0481 113.102 67.9693 113.002C67.8887 112.902 67.7911 112.821 67.6729 112.763C67.5566 112.703 67.4253 112.675 67.2789 112.675C67.127 112.675 66.9919 112.705 66.8737 112.769C66.7555 112.831 66.656 112.914 66.5772 113.015C66.4985 113.117 66.4384 113.233 66.399 113.361C66.3577 113.489 66.3371 113.621 66.3371 113.754Z" fill="#F9F8F4"/>
<path d="M73.3309 114.838C73.4791 114.838 73.6048 114.808 73.7061 114.747C73.8074 114.687 73.8899 114.608 73.9519 114.51C74.0138 114.413 74.0588 114.302 74.0832 114.176C74.1095 114.05 74.1226 113.92 74.1226 113.786V112.137H74.7455V113.786C74.7455 114.008 74.7192 114.215 74.6667 114.411C74.6141 114.605 74.5297 114.776 74.4171 114.921C74.3046 115.065 74.1582 115.182 73.9781 115.267C73.7999 115.351 73.586 115.395 73.3365 115.395C73.0795 115.395 72.8599 115.349 72.6798 115.259C72.4997 115.169 72.3534 115.05 72.2408 114.904C72.1282 114.757 72.0476 114.586 71.9969 114.392C71.9481 114.196 71.9219 113.995 71.9219 113.784V112.135H72.5485V113.784C72.5485 113.922 72.5616 114.053 72.5879 114.179C72.6142 114.305 72.6573 114.418 72.7192 114.514C72.7811 114.612 72.8637 114.689 72.9631 114.749C73.0626 114.81 73.1864 114.838 73.3309 114.838Z" fill="#F9F8F4"/>
<path d="M78.6423 113.297V115.372H78.0156V112.137H78.5015L80.1844 114.26V112.14H80.8111V115.372H80.3026L78.6423 113.297Z" fill="#F9F8F4"/>
<path d="M86.5343 112.688H85.5024V115.372H84.8795V112.688H83.8477V112.137H86.5343V112.688Z" fill="#F9F8F4"/>
<path d="M95.7722 114.539C95.7722 114.676 95.7441 114.796 95.6897 114.898C95.6352 115.001 95.5602 115.088 95.4645 115.158C95.3688 115.227 95.2581 115.28 95.1324 115.317C95.0067 115.355 94.8735 115.372 94.7309 115.372H93.1719V112.137H94.8998C95.0124 112.137 95.1137 112.161 95.2056 112.21C95.2957 112.259 95.3745 112.321 95.4364 112.4C95.5002 112.477 95.5489 112.566 95.5846 112.665C95.6184 112.763 95.6371 112.863 95.6371 112.964C95.6371 113.122 95.5977 113.271 95.5189 113.408C95.4401 113.547 95.3238 113.649 95.1718 113.717C95.3576 113.771 95.5039 113.869 95.6109 114.01C95.7197 114.149 95.7722 114.326 95.7722 114.539ZM93.8004 112.675V113.491H94.6371C94.7422 113.491 94.8323 113.455 94.9073 113.382C94.9824 113.309 95.018 113.209 95.018 113.081C95.018 112.957 94.9842 112.857 94.9167 112.784C94.8473 112.71 94.7647 112.675 94.6634 112.675H93.8004ZM95.1399 114.418C95.1399 114.36 95.1306 114.306 95.1099 114.253C95.0893 114.2 95.063 114.153 95.0311 114.114C94.9974 114.074 94.958 114.044 94.9129 114.02C94.8679 113.997 94.8172 113.986 94.7628 113.986H93.8004V114.838H94.7328C94.791 114.838 94.8435 114.828 94.8942 114.806C94.9448 114.785 94.988 114.755 95.0236 114.717C95.0611 114.68 95.0893 114.635 95.1099 114.582C95.1306 114.531 95.1399 114.479 95.1399 114.418Z" fill="#F9F8F4"/>
<path d="M98.8984 115.372V112.137H99.5251V114.821H101.17V115.372H98.8984Z" fill="#F9F8F4"/>
<path d="M105.112 112.137H105.667L106.894 115.372H106.248L105.948 114.565H104.821L104.524 115.372H103.879L105.112 112.137ZM105.834 114.123L105.389 112.851L104.926 114.123H105.834Z" fill="#F9F8F4"/>
<path d="M110.513 113.297V115.372H109.887V112.137H110.373L112.056 114.26V112.14H112.682V115.372H112.174L110.513 113.297Z" fill="#F9F8F4"/>
<path d="M115.793 113.732C115.793 113.535 115.829 113.339 115.9 113.147C115.971 112.953 116.074 112.782 116.211 112.63C116.348 112.477 116.515 112.355 116.712 112.261C116.909 112.167 117.133 112.12 117.386 112.12C117.684 112.12 117.939 112.186 118.157 112.316C118.375 112.446 118.534 112.617 118.641 112.825L118.159 113.158C118.116 113.068 118.065 112.991 118.003 112.929C117.943 112.867 117.877 112.818 117.808 112.78C117.738 112.743 117.665 112.716 117.59 112.701C117.513 112.684 117.44 112.677 117.367 112.677C117.209 112.677 117.072 112.709 116.956 112.773C116.84 112.837 116.742 112.92 116.665 113.021C116.588 113.123 116.53 113.239 116.491 113.367C116.451 113.497 116.431 113.625 116.431 113.753C116.431 113.896 116.453 114.033 116.5 114.165C116.545 114.296 116.609 114.413 116.694 114.513C116.776 114.612 116.877 114.693 116.994 114.755C117.11 114.815 117.239 114.846 117.378 114.846C117.451 114.846 117.527 114.836 117.607 114.817C117.686 114.799 117.761 114.77 117.832 114.731C117.904 114.691 117.969 114.641 118.031 114.578C118.091 114.516 118.14 114.441 118.178 114.353L118.692 114.65C118.641 114.77 118.566 114.879 118.472 114.972C118.376 115.064 118.269 115.141 118.149 115.207C118.029 115.271 117.902 115.32 117.765 115.352C117.628 115.385 117.495 115.402 117.365 115.402C117.134 115.402 116.924 115.353 116.733 115.256C116.542 115.158 116.376 115.032 116.239 114.876C116.101 114.72 115.994 114.541 115.917 114.343C115.832 114.14 115.793 113.939 115.793 113.732Z" fill="#F9F8F4"/>
<path d="M123.09 115.395C122.853 115.395 122.639 115.348 122.446 115.255C122.255 115.163 122.088 115.039 121.951 114.887C121.812 114.734 121.705 114.558 121.63 114.36C121.555 114.163 121.516 113.961 121.516 113.754C121.516 113.538 121.555 113.331 121.636 113.136C121.716 112.938 121.827 112.763 121.968 112.611C122.108 112.458 122.275 112.338 122.471 112.248C122.666 112.157 122.876 112.112 123.103 112.112C123.335 112.112 123.549 112.161 123.741 112.255C123.932 112.351 124.097 112.477 124.234 112.631C124.371 112.786 124.476 112.963 124.551 113.16C124.626 113.358 124.664 113.559 124.664 113.762C124.664 113.978 124.624 114.183 124.546 114.379C124.467 114.575 124.356 114.748 124.217 114.898C124.078 115.049 123.91 115.169 123.716 115.257C123.529 115.349 123.317 115.395 123.09 115.395ZM122.154 113.754C122.154 113.894 122.174 114.029 122.217 114.161C122.26 114.29 122.32 114.407 122.401 114.507C122.482 114.607 122.579 114.687 122.698 114.748C122.814 114.808 122.947 114.838 123.095 114.838C123.247 114.838 123.381 114.808 123.499 114.746C123.615 114.684 123.714 114.601 123.793 114.497C123.874 114.394 123.934 114.277 123.975 114.149C124.017 114.02 124.037 113.89 124.037 113.754C124.037 113.615 124.015 113.48 123.971 113.348C123.928 113.218 123.865 113.102 123.786 113.002C123.705 112.902 123.608 112.821 123.489 112.763C123.373 112.703 123.242 112.675 123.095 112.675C122.943 112.675 122.808 112.705 122.69 112.769C122.572 112.831 122.472 112.914 122.394 113.015C122.315 113.117 122.255 113.233 122.215 113.361C122.174 113.489 122.154 113.621 122.154 113.754Z" fill="#F9F8F4"/>
<path d="M92.8765 101.945L94.8587 102.214L93.4423 103.653L93.8034 105.656L92.0239 104.73L90.2643 105.697L90.5793 103.686L89.1328 102.282L91.107 101.965L91.9717 100.13L92.8765 101.945Z" fill="#F9F8F4"/>
</svg>
