<svg width="184" height="185" viewBox="0 0 184 185" fill="none" xmlns="http://www.w3.org/2000/svg">
<rect y="0.989014" width="184" height="184" rx="3" fill="#090909"/>
<path d="M56.4832 72.4926H61.6879V80.7956C61.9013 80.6042 62.1894 80.3707 62.5523 80.0935C62.9152 79.8163 63.3693 79.5501 63.9127 79.2948C64.4562 79.0395 65.1018 78.8152 65.8495 78.6237C66.5953 78.4322 67.4597 78.3355 68.4427 78.3355C69.8724 78.3355 71.1143 78.5708 72.1702 79.0376C73.2261 79.5063 74.1015 80.1282 74.7945 80.9051C75.4875 81.6819 75.9999 82.5719 76.33 83.5712C76.6601 84.5724 76.826 85.6046 76.826 86.6696C76.826 87.8185 76.6345 88.9328 76.2497 90.0069C75.8649 91.0828 75.2941 92.0348 74.5373 92.8646C73.7805 93.6943 72.8468 94.3599 71.7362 94.8615C70.6274 95.3611 69.3563 95.611 67.9284 95.611C67.0968 95.611 66.3546 95.5307 65.7036 95.3721C65.0525 95.2116 64.4708 95.0201 63.9583 94.7976C63.4459 94.5733 63.0027 94.3399 62.6307 94.0955C62.2569 93.8512 61.9432 93.6323 61.6861 93.4408V95.0383H56.4832V72.4926ZM66.3345 82.0084C65.7364 82.0521 65.1546 82.1743 64.5875 82.3749C64.0222 82.5773 63.5134 82.8801 63.0647 83.2849C62.6161 83.6898 62.2587 84.1949 61.9906 84.8022C61.7244 85.4095 61.5912 86.128 61.5912 86.9578C61.5912 87.4483 61.6277 87.8732 61.7025 88.2343C61.7772 88.5972 61.8739 88.9054 61.9906 89.1607C62.1091 89.416 62.2259 89.6185 62.3426 89.768C62.4593 89.9175 62.5505 90.0233 62.6143 90.0871C62.8915 90.4282 63.2125 90.7108 63.5754 90.9333C63.9383 91.1576 64.3012 91.3327 64.6641 91.4603C65.027 91.588 65.379 91.6792 65.7218 91.7321C66.0628 91.785 66.3728 91.8123 66.6519 91.8123C67.25 91.8123 67.8318 91.7157 68.3971 91.5242C68.9624 91.3327 69.4658 91.0409 69.9034 90.6452C70.3411 90.2513 70.6931 89.7461 70.9611 89.1279C71.2274 88.5097 71.3624 87.7766 71.3624 86.9249C71.3624 86.159 71.2438 85.4405 71.0104 84.7694C70.7751 84.0983 70.3703 83.5183 69.794 83.0296C69.3673 82.6685 68.853 82.3968 68.2567 82.2144C67.6603 82.0357 67.0184 81.9664 66.3345 82.0084Z" fill="#F9F8F4"/>
<path d="M85.004 78.8798V95.0391H79.7975V78.8798H85.004Z" fill="#F9F8F4"/>
<path d="M89.1214 78.8792H94.3279V81.2025C94.5395 80.9873 94.8222 80.7192 95.1741 80.3964C95.5261 80.0736 95.9765 79.7691 96.5309 79.4791C97.0835 79.1892 97.7655 78.9375 98.5752 78.7223C99.3831 78.5071 100.342 78.3995 101.449 78.3995C102.429 78.3995 103.275 78.4962 103.988 78.6877C104.701 78.8792 105.303 79.1035 105.791 79.3588C106.28 79.6141 106.67 79.8694 106.957 80.1247C107.243 80.38 107.44 80.5715 107.548 80.6992C107.887 81.104 108.155 81.5289 108.346 81.9775C108.538 82.4243 108.682 82.8766 108.777 83.3343C108.873 83.7921 108.932 84.2553 108.952 84.724C108.972 85.1926 108.983 85.6504 108.983 86.0972V95.0714L103.714 95.0385V86.7883C103.714 86.4911 103.703 86.1774 103.681 85.8492C103.66 85.5191 103.607 85.1908 103.521 84.8626C103.435 84.5325 103.308 84.2152 103.138 83.907C102.967 83.5988 102.733 83.3179 102.436 83.0626C102.159 82.8292 101.781 82.6176 101.302 82.4262C100.822 82.2347 100.136 82.1398 99.2409 82.1398C98.495 82.1398 97.8458 82.2201 97.2932 82.3787C96.7388 82.5392 96.292 82.7143 95.951 82.904C95.5881 83.1173 95.2963 83.3672 95.072 83.6535C94.8495 83.9398 94.6836 84.237 94.5778 84.5452C94.4702 84.8534 94.4027 85.1671 94.3699 85.4862C94.3371 85.8054 94.3225 86.0917 94.3225 86.3452V95.0422H89.116V78.8792H89.1214Z" fill="#F9F8F4"/>
<path d="M113.104 84.1805H122.142V88.1087H113.104V84.1805Z" fill="#F9F8F4"/>
<path d="M54.3945 106.944H63.4325V110.872H54.3945V106.944Z" fill="#F9F8F4"/>
<path d="M86.6819 115.821C86.7238 116.248 86.7822 116.587 86.8569 116.842C86.9317 117.098 87.1177 117.417 87.415 117.8H81.7288C81.6012 117.417 81.5228 117.092 81.4899 116.826C81.4571 116.56 81.4316 116.31 81.4097 116.076C80.983 116.332 80.5343 116.587 80.0657 116.842C79.597 117.098 79.0736 117.327 78.4973 117.528C77.9211 117.73 77.281 117.895 76.577 118.022C75.8731 118.15 75.0725 118.214 74.1771 118.214C73.537 118.214 72.9024 118.181 72.2732 118.117C71.6441 118.053 71.0204 117.936 70.4003 117.765C69.2478 117.446 68.294 116.871 67.5354 116.04C66.7785 115.21 66.3992 114.145 66.3992 112.847C66.3992 111.57 66.6819 110.58 67.2472 109.876C67.8126 109.174 68.5639 108.658 69.5031 108.328C70.4423 107.998 71.5091 107.801 72.7036 107.737C73.8981 107.673 75.1363 107.631 76.4165 107.609H81.4097C81.4097 107.268 81.3933 106.923 81.3623 106.571C81.3295 106.22 81.1763 105.906 80.8991 105.629C80.6219 105.351 80.1696 105.129 79.5423 104.958C78.9149 104.788 78.025 104.702 76.8761 104.702C76.4293 104.702 75.977 104.719 75.5193 104.75C75.0616 104.782 74.6294 104.846 74.2263 104.941C73.8215 105.038 73.475 105.186 73.1887 105.388C72.9005 105.59 72.7036 105.851 72.5978 106.17H67.2636C67.3056 105.937 67.3639 105.665 67.4387 105.355C67.5135 105.047 67.6357 104.733 67.8053 104.412C67.9749 104.093 68.2046 103.763 68.4928 103.422C68.7809 103.081 69.1584 102.762 69.6271 102.465C70.1797 102.124 70.8033 101.857 71.4945 101.666C72.1857 101.474 72.8787 101.336 73.5698 101.25C74.261 101.164 74.9157 101.111 75.5339 101.09C76.1521 101.07 76.6518 101.057 77.0348 101.057C78.6523 101.057 80.0146 101.153 81.1179 101.345C82.2212 101.536 83.1294 101.808 83.8388 102.158C84.5482 102.51 85.0989 102.915 85.4892 103.373C85.8795 103.831 86.1603 104.327 86.3299 104.857C86.4995 105.39 86.5998 105.942 86.6308 106.519C86.6636 107.093 86.6782 107.658 86.6782 108.211V115.821H86.6819ZM81.4115 110.328C79.659 110.328 78.1636 110.339 76.9253 110.361C75.6871 110.383 74.6932 110.478 73.9455 110.649C73.8379 110.671 73.6792 110.713 73.4641 110.777C73.2507 110.841 73.0318 110.948 72.8075 111.096C72.5832 111.245 72.3845 111.448 72.2149 111.703C72.0434 111.959 71.9595 112.278 71.9595 112.661C71.9595 113.171 72.1091 113.565 72.4082 113.842C72.7072 114.12 73.0592 114.327 73.4659 114.464C73.8707 114.603 74.2665 114.683 74.6512 114.703C75.036 114.725 75.3132 114.736 75.4847 114.736C76.039 114.736 76.5843 114.683 77.1186 114.575C77.653 114.47 78.16 114.309 78.6414 114.096C79.121 113.883 79.555 113.627 79.9398 113.33C80.3246 113.033 80.6456 112.692 80.9009 112.309C81.1562 111.948 81.3003 111.618 81.3331 111.318C81.3641 111.021 81.3915 110.691 81.4115 110.328Z" fill="#F9F8F4"/>
<path d="M96.0387 104.419C96.2302 104.122 96.4691 103.786 96.7572 103.413C97.0454 103.041 97.4447 102.683 97.9554 102.342C98.466 102.001 99.1097 101.715 99.8866 101.48C100.663 101.246 101.637 101.118 102.808 101.097V105.854C102.573 105.834 102.356 105.818 102.153 105.807C101.951 105.796 101.71 105.791 101.435 105.791C101.327 105.791 101.141 105.796 100.875 105.807C100.609 105.818 100.31 105.845 99.9814 105.887C99.6514 105.931 99.3049 105.999 98.9438 106.095C98.5809 106.192 98.2417 106.325 97.9225 106.495C97.1128 106.921 96.5967 107.437 96.3743 108.043C96.1518 108.65 96.0387 109.305 96.0387 110.007V117.799H90.7684V101.64H96.0387V104.419Z" fill="#F9F8F4"/>
<path d="M104.302 101.642H109.922L113.754 111.701C113.839 111.978 113.914 112.206 113.978 112.387C114.042 112.567 114.095 112.744 114.139 112.914C114.18 113.085 114.224 113.266 114.266 113.457C114.308 113.649 114.352 113.884 114.394 114.159C114.414 113.862 114.441 113.612 114.474 113.41C114.507 113.207 114.543 113.016 114.585 112.835C114.627 112.655 114.682 112.469 114.746 112.277C114.81 112.086 114.895 111.842 115.001 111.542L118.672 101.642H124.229L116.628 118.855C116.159 119.835 115.734 120.653 115.349 121.314C114.966 121.974 114.523 122.501 114.024 122.895C113.524 123.289 112.928 123.571 112.235 123.741C111.542 123.91 110.654 123.996 109.568 123.996C108.93 123.996 108.286 123.98 107.637 123.949C106.988 123.916 106.333 123.879 105.673 123.838V120.006C106.034 120.048 106.461 120.086 106.95 120.117C107.438 120.15 107.896 120.165 108.323 120.165C108.834 120.165 109.216 120.132 109.474 120.068C109.729 120.004 109.92 119.94 110.048 119.877C110.176 119.813 110.282 119.743 110.367 119.669C110.451 119.594 110.548 119.488 110.655 119.349C110.761 119.211 110.883 119.019 111.022 118.775C111.161 118.531 111.325 118.204 111.516 117.801L104.302 101.642Z" fill="#F9F8F4"/>
<path d="M125.921 113.719H127.577C127.644 113.719 127.711 113.721 127.775 113.727C127.841 113.732 127.903 113.743 127.965 113.761C128.027 113.78 128.085 113.805 128.14 113.84C128.197 113.874 128.249 113.92 128.299 113.976C128.361 114.049 128.401 114.128 128.423 114.21C128.445 114.294 128.456 114.37 128.456 114.44C128.456 114.533 128.439 114.628 128.404 114.726C128.37 114.824 128.31 114.905 128.224 114.97C128.158 115.02 128.089 115.056 128.014 115.076C127.939 115.096 127.879 115.111 127.832 115.12L128.561 116.125H127.852L127.208 115.156H126.522V116.125H125.919V113.719H125.921ZM126.524 114.731H127.485C127.516 114.731 127.555 114.73 127.597 114.724C127.639 114.721 127.679 114.708 127.715 114.688C127.753 114.668 127.784 114.64 127.808 114.602C127.834 114.564 127.846 114.511 127.846 114.443C127.846 114.418 127.845 114.389 127.837 114.352C127.832 114.318 127.819 114.285 127.799 114.254C127.788 114.241 127.773 114.226 127.759 114.212C127.744 114.197 127.724 114.184 127.699 114.173C127.673 114.163 127.642 114.155 127.604 114.148C127.566 114.141 127.516 114.137 127.458 114.137H126.524V114.731Z" fill="#F9F8F4"/>
<path d="M127.128 112.064C125.547 112.064 124.259 113.35 124.259 114.933C124.259 116.516 125.547 117.802 127.128 117.802C128.711 117.802 129.998 116.516 129.998 114.933C129.998 113.35 128.711 112.064 127.128 112.064ZM127.128 117.399C125.769 117.399 124.664 116.292 124.664 114.933C124.664 113.574 125.769 112.467 127.128 112.467C128.488 112.467 129.594 113.574 129.594 114.933C129.594 116.292 128.488 117.399 127.128 117.399Z" fill="#F9F8F4"/>
<path d="M88.5436 68.7761C88.5436 68.8253 88.5071 68.8673 88.4597 68.8782C85.416 69.3888 83.0125 71.7906 82.5018 74.8342C82.4909 74.8817 82.4489 74.9163 82.3997 74.9163C82.3505 74.9163 82.3067 74.8817 82.2976 74.8342C81.787 71.796 79.3943 69.3979 76.358 68.88C76.3507 68.88 76.3415 68.8782 76.3342 68.8782C76.2887 68.8654 76.2558 68.8253 76.2558 68.7761C76.2558 68.7268 76.2887 68.6867 76.3342 68.674C76.3415 68.674 76.3507 68.6721 76.358 68.6721C79.3943 68.1542 81.7888 65.7543 82.2976 62.7161C82.3085 62.6687 82.3505 62.6322 82.3997 62.6322C82.4489 62.6322 82.4909 62.6687 82.5018 62.7161C83.0125 65.7598 85.416 68.1633 88.4597 68.674C88.5071 68.6849 88.5436 68.7268 88.5436 68.7761Z" fill="#EF0000"/>
</svg>
