<svg width="184" height="185" viewBox="0 0 184 185" fill="none" xmlns="http://www.w3.org/2000/svg">
<rect y="0.855469" width="184" height="184" rx="3" fill="#090909"/>
<path d="M107.165 92.0864C107.111 92.9684 107.07 93.8519 107.043 94.7369C107.038 94.9066 106.825 94.9763 106.721 94.8414C105.184 92.8426 103.831 91.0878 103.182 90.2255C103.093 90.1089 102.915 90.1301 102.856 90.2649L102.291 91.547C102.226 91.6955 102.02 91.7015 101.946 91.5591C101.544 90.7802 100.569 88.9587 99.9856 88.4525C99.2299 87.8055 95.7988 81.1984 95.1564 80.8756C94.511 80.5513 93.0116 84.3398 92.6881 84.7701C92.3662 85.2051 92.0956 86.3946 91.6709 87.0993C91.3233 87.6721 90.1277 89.0587 89.6909 89.5648C89.6077 89.6603 89.4566 89.6452 89.387 89.5406L88.0872 87.5524C88.0811 87.5403 88.0751 87.5281 88.069 87.516C88.0071 87.3524 87.5249 86.1022 87.3254 85.8021C87.1077 85.4748 84.4823 89.3739 84.4823 89.3739C84.4823 89.3739 83.787 90.4559 83.3577 90.7271C82.9269 90.9954 82.6594 90.9954 82.2846 91.5379C81.9687 91.9879 80.7202 93.7261 80.3181 94.2868C80.2501 94.3792 80.1186 94.3914 80.0324 94.3171L78.5754 92.979C78.4922 92.9017 78.3577 92.9169 78.2897 93.0063C78.0735 93.2927 77.871 93.5655 77.6806 93.8322C77.5778 93.9761 77.3541 93.8989 77.3556 93.7231C77.3647 92.5956 77.3722 91.7212 77.3752 91.4985C77.3994 88.398 77.4055 85.296 77.3994 82.1955C77.3904 79.092 77.3662 75.99 77.3284 72.8895C77.3254 72.5652 77.3193 72.2394 77.3163 71.9151C77.3102 71.659 77.2422 71.3074 77.3254 71.0649C77.4055 70.827 77.5929 70.8649 77.8075 70.8861C78.1295 70.9225 78.4469 70.9543 78.7658 70.9876C80.0445 71.1134 81.3263 71.2089 82.608 71.1816C84.4913 71.1392 86.3641 70.8422 88.2474 70.8982C89.6742 70.9437 91.0875 71.1937 92.5143 71.218C93.4696 71.2331 94.4173 71.1498 95.3665 71.0695C99.1739 70.7512 103.016 70.5057 106.81 70.9528C106.896 70.9634 106.964 71.0331 106.972 71.1195C107.247 74.3382 107.253 77.5796 106.991 80.8013C106.875 82.2122 106.709 83.6245 106.837 85.0323C106.92 85.9476 107.129 86.8447 107.224 87.757C107.377 89.1921 107.254 90.6438 107.165 92.0864Z" fill="#F9F8F4"/>
<path d="M139.832 90.2981C139.804 90.3496 139.781 90.4011 139.763 90.4526C139.711 90.6072 139.66 90.7572 139.609 90.9042C139.547 91.0724 139.485 91.2422 139.415 91.4073C138.928 92.6212 137.854 94.029 137.14 95.1337C137.107 95.1852 137.075 95.2368 137.042 95.2868C136.894 95.5232 136.583 95.5823 136.351 95.4262C136.057 95.2246 135.726 95.0322 135.351 94.8806C133.909 94.2942 132.888 94.2942 132.041 93.9608C131.193 93.6229 131.023 93.8759 129.751 92.4454C128.478 91.0194 127.881 89.3388 126.1 88.8357C124.318 88.3296 123.895 86.9066 123.046 86.3156C122.196 85.7291 121.093 83.4621 120.671 83.5469C120.29 83.6182 116.95 87.9537 116.223 88.9024C116.141 89.0085 116.023 89.0751 115.89 89.0888C115.626 89.1145 115.136 89.2388 114.726 89.7601C114.134 90.5163 114.134 92.0271 113.369 92.7818C112.604 93.538 112.861 93.2879 111.164 94.8791C111.022 95.011 110.889 95.1398 110.765 95.264C110.757 95.1655 110.747 95.0625 110.736 94.9594C110.564 93.4077 110.404 91.8862 110.461 90.3238C110.582 87.1809 110.804 84.041 110.907 80.895C110.999 78.0082 110.673 75.1774 110.673 72.3057C110.673 71.5238 111.304 70.8903 112.084 70.8903H121.731C121.83 70.8903 121.929 70.9024 122.025 70.9237C124.637 71.5041 127.746 70.5994 130.145 71.6086C131.023 71.9753 131.85 72.6755 132.659 73.174C134.268 74.1606 135.713 74.7 136.96 76.1851C137.177 76.4382 137.411 76.6579 137.638 76.9034C138.801 78.1536 139.737 80.8283 140.11 82.471C140.242 83.062 140.342 83.6561 140.407 84.2577C140.469 84.8669 140.429 85.4973 140.549 86.0989C140.842 87.587 140.59 88.9888 139.832 90.2981Z" fill="#F9F8F4"/>
<path d="M73.23 87.2392C73.2149 88.1818 73.2587 89.1244 73.2662 90.07C73.2693 91.0201 73.1635 91.94 73.0909 92.8871C73.0184 93.8706 73.1347 94.8526 73.2269 95.8285C73.2451 96.0149 73.2632 96.2028 73.2738 96.3892L71.649 94.6541C71.5643 94.5662 71.4373 94.5328 71.3195 94.5738L70.1783 94.9556C70.0649 94.9965 69.941 94.9632 69.8563 94.8783L68.1907 93.2008C68.171 93.172 68.1393 93.125 68.1181 93.0947L63.9661 83.8008C63.8739 83.5916 63.5973 83.5507 63.4431 83.7205L61.8817 85.4768C61.8757 85.4844 61.8666 85.4965 61.8606 85.5041L60.139 88.1757C60.1178 88.1985 60.0982 88.2227 60.0785 88.2454L56.8651 90.9959C56.8515 91.011 56.8288 91.0338 56.8152 91.0489L54.7551 93.76C54.7188 93.8039 54.675 93.8403 54.619 93.863L52.0283 94.9041C51.9906 94.9284 51.9543 94.9526 51.9165 94.9784L49.9259 96.9438C49.8533 97.0166 49.7505 97.0499 49.6508 97.0317L48.5791 96.8408H48.5776C47.4395 95.8149 45.9537 95.3648 45.2871 93.8812C44.9319 93.0932 44.684 92.2461 44.4165 91.4202C43.8497 89.6714 43.4098 87.9136 43.3373 86.0648C43.2285 83.3401 43.8482 80.4578 45.7451 78.3862C46.1668 77.9256 46.4948 77.3891 46.7638 76.8254C47.1734 75.9692 47.6889 75.3145 48.3479 74.6659C49.5979 73.4339 51.0202 72.2958 52.6964 71.7321C54.5178 71.1153 56.457 70.932 58.4068 70.888C60.1012 70.8471 61.8016 70.9138 63.4401 70.8911C64.3727 70.8759 65.2947 70.9274 66.2197 71.0456C67.2324 71.1775 68.1907 71.182 69.2049 71.079C70.0936 70.9911 70.9824 70.9759 71.8711 70.9032C72.2959 70.8668 73.1302 70.6168 73.2572 71.2078C73.3191 71.479 73.2647 71.7836 73.2345 72.0594C73.2013 72.3852 73.2013 72.7126 73.1982 73.0429C73.1831 74.3371 73.567 75.6146 73.5096 76.8981C73.4431 78.3938 73.2496 79.8244 73.2572 81.3322C73.2662 83.2992 73.2511 85.2692 73.23 87.2392Z" fill="#F9F8F4"/>
<path d="M61.9564 115.372V113.23L61.1234 114.825H60.782L59.9508 113.23V115.372H59.3242V112.137H59.9978L60.9527 113.978L61.9152 112.137H62.5831V115.372H61.9564Z" fill="#F9F8F4"/>
<path d="M67.2725 115.395C67.0361 115.395 66.8222 115.347 66.629 115.255C66.4376 115.163 66.2706 115.039 66.1337 114.887C65.9948 114.734 65.8879 114.557 65.8128 114.36C65.7378 114.162 65.6984 113.961 65.6984 113.754C65.6984 113.538 65.7378 113.331 65.8185 113.135C65.8991 112.938 66.0098 112.763 66.1505 112.611C66.2913 112.458 66.4582 112.338 66.6533 112.248C66.8485 112.157 67.0586 112.112 67.2856 112.112C67.5182 112.112 67.7321 112.161 67.9235 112.255C68.1149 112.351 68.28 112.477 68.4169 112.631C68.5539 112.786 68.6589 112.962 68.734 113.16C68.809 113.357 68.8466 113.559 68.8466 113.762C68.8466 113.978 68.8072 114.183 68.7284 114.379C68.6496 114.574 68.5389 114.747 68.4 114.898C68.2612 115.048 68.0923 115.169 67.8991 115.257C67.7096 115.349 67.4995 115.395 67.2725 115.395ZM66.3363 113.754C66.3363 113.893 66.3569 114.029 66.4001 114.161C66.4432 114.29 66.5033 114.407 66.5839 114.507C66.6646 114.606 66.7622 114.687 66.8804 114.747C66.9967 114.808 67.1299 114.838 67.2781 114.838C67.4301 114.838 67.5633 114.808 67.6815 114.746C67.7978 114.684 67.8972 114.601 67.976 114.497C68.0567 114.394 68.1167 114.277 68.158 114.149C68.1993 114.02 68.2199 113.89 68.2199 113.754C68.2199 113.615 68.1974 113.48 68.1543 113.348C68.1111 113.218 68.0473 113.102 67.9685 113.002C67.8878 112.902 67.7903 112.821 67.6721 112.763C67.5558 112.703 67.4244 112.675 67.2781 112.675C67.1261 112.675 66.9911 112.705 66.8729 112.769C66.7547 112.831 66.6552 112.913 66.5764 113.015C66.4976 113.117 66.4376 113.233 66.3982 113.361C66.3569 113.489 66.3363 113.621 66.3363 113.754Z" fill="#F9F8F4"/>
<path d="M73.3319 114.838C73.4801 114.838 73.6058 114.808 73.7071 114.748C73.8084 114.688 73.891 114.609 73.9529 114.511C74.0148 114.413 74.0598 114.302 74.0842 114.176C74.1105 114.05 74.1236 113.92 74.1236 113.787V112.137H74.7465V113.787C74.7465 114.008 74.7202 114.215 74.6677 114.411C74.6152 114.605 74.5307 114.776 74.4182 114.921C74.3056 115.066 74.1593 115.182 73.9792 115.267C73.8009 115.352 73.587 115.395 73.3375 115.395C73.0805 115.395 72.861 115.35 72.6809 115.259C72.5008 115.169 72.3544 115.051 72.2419 114.904C72.1293 114.757 72.0486 114.586 71.998 114.392C71.9492 114.197 71.9229 113.995 71.9229 113.785V112.135H72.5495V113.785C72.5495 113.922 72.5627 114.054 72.5889 114.18C72.6152 114.306 72.6584 114.419 72.7203 114.514C72.7822 114.612 72.8647 114.689 72.9642 114.75C73.0636 114.81 73.1874 114.838 73.3319 114.838Z" fill="#F9F8F4"/>
<path d="M78.6422 113.297V115.372H78.0156V112.137H78.5015L80.1844 114.26V112.141H80.811V115.372H80.3026L78.6422 113.297Z" fill="#F9F8F4"/>
<path d="M86.5348 112.688H85.503V115.372H84.8801V112.688H83.8482V112.137H86.5348V112.688Z" fill="#F9F8F4"/>
<path d="M95.7723 114.539C95.7723 114.676 95.7442 114.797 95.6897 114.898C95.6353 115.002 95.5603 115.088 95.4646 115.158C95.3689 115.227 95.2582 115.28 95.1325 115.318C95.0068 115.355 94.8736 115.372 94.731 115.372H93.172V112.137H94.8999C95.0125 112.137 95.1138 112.161 95.2057 112.21C95.2958 112.259 95.3746 112.321 95.4365 112.4C95.5003 112.477 95.549 112.566 95.5847 112.665C95.6185 112.763 95.6372 112.863 95.6372 112.964C95.6372 113.122 95.5978 113.271 95.519 113.408C95.4402 113.548 95.3239 113.649 95.1719 113.717C95.3577 113.771 95.504 113.869 95.6109 114.01C95.7198 114.149 95.7723 114.326 95.7723 114.539ZM93.8005 112.675V113.491H94.6372C94.7423 113.491 94.8324 113.455 94.9074 113.382C94.9824 113.309 95.0181 113.209 95.0181 113.081C95.0181 112.957 94.9843 112.857 94.9168 112.784C94.8474 112.71 94.7648 112.675 94.6635 112.675H93.8005ZM95.14 114.418C95.14 114.36 95.1307 114.306 95.11 114.253C95.0894 114.2 95.0631 114.153 95.0312 114.114C94.9975 114.074 94.9581 114.044 94.913 114.02C94.868 113.997 94.8173 113.986 94.7629 113.986H93.8005V114.838H94.7329C94.7911 114.838 94.8436 114.828 94.8943 114.806C94.9449 114.785 94.9881 114.755 95.0237 114.718C95.0612 114.68 95.0894 114.635 95.11 114.582C95.1307 114.531 95.14 114.479 95.14 114.418Z" fill="#F9F8F4"/>
<path d="M98.9014 115.372V112.137H99.528V114.821H101.173V115.372H98.9014Z" fill="#F9F8F4"/>
<path d="M105.112 112.137H105.667L106.894 115.372H106.249L105.948 114.565H104.821L104.525 115.372H103.879L105.112 112.137ZM105.834 114.123L105.389 112.852L104.926 114.123H105.834Z" fill="#F9F8F4"/>
<path d="M110.514 113.297V115.372H109.888V112.137H110.374L112.056 114.26V112.141H112.683V115.372H112.175L110.514 113.297Z" fill="#F9F8F4"/>
<path d="M115.795 113.732C115.795 113.534 115.831 113.339 115.902 113.147C115.974 112.953 116.077 112.782 116.214 112.63C116.351 112.477 116.518 112.355 116.715 112.261C116.912 112.167 117.135 112.12 117.388 112.12C117.686 112.12 117.942 112.186 118.159 112.315C118.377 112.445 118.536 112.616 118.643 112.825L118.161 113.158C118.118 113.068 118.067 112.991 118.005 112.929C117.945 112.867 117.88 112.818 117.81 112.78C117.741 112.742 117.668 112.716 117.593 112.701C117.516 112.684 117.443 112.677 117.369 112.677C117.212 112.677 117.075 112.709 116.958 112.772C116.842 112.836 116.745 112.919 116.668 113.021C116.591 113.122 116.533 113.239 116.493 113.367C116.454 113.497 116.433 113.625 116.433 113.752C116.433 113.895 116.456 114.033 116.503 114.164C116.548 114.296 116.611 114.413 116.696 114.512C116.778 114.612 116.88 114.693 116.996 114.755C117.112 114.815 117.242 114.845 117.381 114.845C117.454 114.845 117.529 114.836 117.609 114.817C117.688 114.798 117.763 114.77 117.835 114.731C117.906 114.691 117.972 114.64 118.033 114.578C118.094 114.516 118.142 114.441 118.18 114.352L118.694 114.65C118.643 114.77 118.568 114.879 118.474 114.971C118.379 115.063 118.272 115.141 118.152 115.206C118.032 115.27 117.904 115.319 117.767 115.351C117.63 115.385 117.497 115.402 117.367 115.402C117.137 115.402 116.927 115.353 116.735 115.255C116.544 115.158 116.379 115.031 116.242 114.875C116.103 114.719 115.996 114.541 115.919 114.343C115.835 114.14 115.795 113.939 115.795 113.732Z" fill="#F9F8F4"/>
<path d="M123.093 115.395C122.856 115.395 122.642 115.347 122.449 115.255C122.258 115.163 122.091 115.039 121.954 114.887C121.815 114.734 121.708 114.557 121.633 114.36C121.558 114.162 121.519 113.961 121.519 113.754C121.519 113.538 121.558 113.331 121.639 113.135C121.719 112.938 121.83 112.763 121.971 112.611C122.111 112.458 122.278 112.338 122.474 112.248C122.669 112.157 122.879 112.112 123.106 112.112C123.338 112.112 123.552 112.161 123.744 112.255C123.935 112.351 124.1 112.477 124.237 112.631C124.374 112.786 124.479 112.962 124.554 113.16C124.629 113.357 124.667 113.559 124.667 113.762C124.667 113.978 124.627 114.183 124.549 114.379C124.47 114.574 124.359 114.747 124.22 114.898C124.081 115.048 123.912 115.169 123.719 115.257C123.532 115.349 123.32 115.395 123.093 115.395ZM122.156 113.754C122.156 113.893 122.177 114.029 122.22 114.161C122.263 114.29 122.323 114.407 122.404 114.507C122.485 114.606 122.582 114.687 122.701 114.747C122.817 114.808 122.95 114.838 123.098 114.838C123.25 114.838 123.383 114.808 123.502 114.746C123.618 114.684 123.717 114.601 123.796 114.497C123.877 114.394 123.937 114.277 123.978 114.149C124.019 114.02 124.04 113.89 124.04 113.754C124.04 113.615 124.018 113.48 123.974 113.348C123.931 113.218 123.867 113.102 123.789 113.002C123.708 112.902 123.61 112.821 123.492 112.763C123.376 112.703 123.245 112.675 123.098 112.675C122.946 112.675 122.811 112.705 122.693 112.769C122.575 112.831 122.475 112.913 122.397 113.015C122.318 113.117 122.258 113.233 122.218 113.361C122.177 113.489 122.156 113.621 122.156 113.754Z" fill="#F9F8F4"/>
<path d="M92.8774 101.945L94.8596 102.215L93.4432 103.653L93.8043 105.656L92.0248 104.73L90.2653 105.697L90.5803 103.686L89.1337 102.282L91.1079 101.965L91.9726 100.13L92.8774 101.945Z" fill="#F9F8F4"/>
</svg>
