<svg width="183" height="184" viewBox="0 0 183 184" fill="none" xmlns="http://www.w3.org/2000/svg">
<rect width="183" height="183.979" rx="3" fill="#0C0C0C"/>
<g clip-path="url(#clip0)">
<path d="M92.4943 90.0792C92.1811 89.3436 91.7658 88.6969 91.2284 88.1407C90.6968 87.5919 90.0789 87.1559 89.3648 86.8341C88.6521 86.5181 87.8805 86.3535 87.0643 86.3535C86.2568 86.3535 85.4995 86.5181 84.7854 86.8341C84.0641 87.1574 83.4462 87.5934 82.9074 88.1407C82.3686 88.6969 81.9461 89.3436 81.6329 90.0792C81.3197 90.8148 81.1602 91.6039 81.1602 92.4463C81.1602 93.2798 81.3197 94.0689 81.6329 94.8134C81.9461 95.5491 82.3686 96.2031 82.9074 96.7519C83.4462 97.3081 84.0641 97.7441 84.7854 98.0675C85.4981 98.3834 86.2553 98.5406 87.0643 98.5406C87.879 98.5406 88.6506 98.3834 89.3648 98.0675C90.0775 97.7441 90.6968 97.3081 91.2284 96.7519C91.7672 96.2031 92.1825 95.5491 92.4943 94.8134C92.8004 94.0689 92.9598 93.2813 92.9598 92.4463C92.9598 91.6039 92.7989 90.8148 92.4943 90.0792ZM89.5314 93.5275C89.3863 93.8657 89.1966 94.1594 88.9567 94.407C88.7167 94.6621 88.4394 94.8579 88.1118 95.0003C87.7842 95.1501 87.435 95.2183 87.0643 95.2183C86.7008 95.2183 86.3588 95.1501 86.0312 95.0003C85.7036 94.8579 85.4191 94.6621 85.1791 94.407C84.932 94.1594 84.7423 93.8657 84.5972 93.5275C84.4521 93.1894 84.3788 92.829 84.3788 92.4463C84.3788 92.0637 84.4521 91.7018 84.5972 91.3725C84.7423 91.0343 84.932 90.7407 85.1791 90.4856C85.4191 90.2379 85.7036 90.0421 86.0312 89.8923C86.3588 89.7499 86.7008 89.6743 87.0643 89.6743C87.435 89.6743 87.7856 89.7499 88.1118 89.8923C88.4394 90.0421 88.7153 90.2379 88.9567 90.4856C89.1966 90.7407 89.3863 91.0343 89.5314 91.3725C89.6694 91.7032 89.7355 92.0637 89.7355 92.4463C89.7355 92.829 89.6694 93.1894 89.5314 93.5275Z" fill="#3A95FF"/>
<path d="M89.9012 112.612C89.9012 113.014 89.8236 113.394 89.6771 113.751C89.5276 114.106 89.3265 114.42 89.0678 114.684C88.8121 114.953 88.5132 115.162 88.1712 115.318C87.8278 115.469 87.4556 115.545 87.0634 115.545C86.674 115.545 86.3104 115.469 85.967 115.318C85.6207 115.162 85.3219 114.953 85.0632 114.684C84.8046 114.42 84.6006 114.106 84.4497 113.751C84.3002 113.394 84.2227 113.013 84.2227 112.612C84.2227 112.206 84.3002 111.826 84.4497 111.473C84.6006 111.119 84.8046 110.807 85.0632 110.54C85.3233 110.276 85.6207 110.066 85.967 109.91C86.3104 109.759 86.674 109.679 87.0634 109.679C87.4571 109.679 87.8278 109.759 88.1712 109.91C88.5146 110.066 88.8121 110.276 89.0678 110.54C89.3265 110.807 89.5276 111.119 89.6771 111.473C89.8251 111.826 89.9012 112.206 89.9012 112.612Z" fill="#3A95FF"/>
<path d="M100.451 94.379C99.6374 93.9147 98.8673 93.4728 98.2968 92.6555C98.0181 92.258 98.0037 92.1839 97.9117 91.0582C97.8399 90.1594 97.7407 88.9373 97.37 87.1486C97.199 86.3684 95.6084 79.3947 91.0061 75.4183C89.7215 74.3045 88.4297 73.7676 87.0676 73.7676C86.9612 73.7676 86.8535 73.7676 86.7471 73.775C84.8203 73.8996 83.5515 75.1232 83.1377 75.5207C78.5583 79.9316 76.7594 86.0585 76.3671 88.0162L76.3384 88.0088C75.9964 89.6358 75.8958 90.7853 75.8254 91.6247C75.7191 92.795 75.7047 92.8246 75.4475 93.1717C74.9403 93.8717 74.2563 94.2618 73.5278 94.6741C72.4789 95.2703 70.7173 96.2789 70.6957 98.5333C70.6598 101.081 72.9789 102.576 76.7234 104.151C81.0398 105.97 83.6435 107.067 87.1954 107.067C87.3018 107.067 87.4095 107.06 87.5159 107.06C91.3394 106.993 93.9718 105.786 97.6028 104.114C100.478 102.796 103.445 101.434 103.424 98.3998C103.405 96.0579 101.557 95.0049 100.451 94.379ZM96.5065 101.551C92.9257 103.193 90.7417 104.194 87.4742 104.254C87.3808 104.254 87.2888 104.261 87.1954 104.261C84.178 104.261 81.9954 103.34 77.7494 101.551C73.6686 99.8281 73.4042 98.9812 73.4114 98.5615C73.4258 97.3023 75.9231 97.1703 77.6129 94.8654C78.8328 93.1939 78.2192 92.31 78.9894 88.5991C78.9894 88.5991 80.3588 82.0302 84.9884 77.5763C85.4022 77.1788 86.0445 76.633 86.9153 76.5826C86.9655 76.5752 87.0158 76.5752 87.0647 76.5752C87.8708 76.5752 88.5907 77.0023 89.2617 77.5763C93.2921 81.0513 94.7046 87.7522 94.7046 87.7522C95.5394 91.6841 94.854 92.5235 96.0883 94.2915C97.893 96.8914 100.689 96.9938 100.704 98.422C100.715 99.5922 98.8385 100.476 96.5065 101.551Z" fill="#3A95FF"/>
<path d="M36.4688 91.7765C36.4688 90.9534 36.6211 90.1836 36.9271 89.4643C37.2332 88.7464 37.647 88.1176 38.17 87.5762C38.693 87.0364 39.3023 86.6107 39.9992 86.2992C40.6961 85.9878 41.4375 85.832 42.2263 85.832C43.0066 85.832 43.7423 85.9863 44.4348 86.2933C45.1274 86.6003 45.7323 87.0186 46.251 87.5451C46.7698 88.0731 47.1821 88.693 47.4882 89.4079C47.7943 90.1228 47.9552 90.8822 47.971 91.689V91.7142V91.7765V95.913C47.971 96.137 47.9293 96.352 47.8446 96.5552C47.7598 96.7584 47.6463 96.9349 47.5011 97.0847C47.356 97.2345 47.1879 97.3532 46.9939 97.4392C46.8014 97.5267 46.5916 97.5697 46.366 97.5697C46.0686 97.5697 45.8071 97.5 45.5815 97.3576C45.3559 97.2167 45.1791 97.0254 45.0513 96.7851C44.6317 97.0758 44.1862 97.3042 43.7121 97.4703C43.2365 97.6365 42.7422 97.7195 42.2278 97.7195C41.4389 97.7195 40.6961 97.5638 40.0006 97.2523C39.3037 96.9409 38.6945 96.5152 38.1715 95.9753C37.6484 95.4355 37.2346 94.8036 36.9286 94.0813C36.6211 93.359 36.4688 92.5908 36.4688 91.7765ZM39.6069 91.7765C39.6069 92.1503 39.6773 92.5018 39.8181 92.8296C39.9589 93.1573 40.1486 93.4451 40.3857 93.6898C40.6228 93.9345 40.9001 94.1288 41.2191 94.2697C41.5366 94.4106 41.8729 94.4818 42.2278 94.4818C42.5899 94.4818 42.9304 94.4106 43.248 94.2697C43.5655 94.1288 43.8414 93.936 44.0756 93.6898C44.3084 93.4451 44.4937 93.1588 44.6302 92.8296C44.7667 92.5018 44.8357 92.1503 44.8357 91.7765C44.8357 91.4028 44.7667 91.0512 44.6302 90.7235C44.4937 90.3957 44.3084 90.1094 44.0756 89.8632C43.8414 89.6185 43.567 89.4257 43.248 89.2833C42.9304 89.1424 42.5899 89.0712 42.2278 89.0712C41.8743 89.0712 41.5381 89.1409 41.2191 89.2833C40.9015 89.4242 40.6242 89.617 40.3857 89.8632C40.1472 90.1094 39.9589 90.3957 39.8181 90.7235C39.6773 91.0527 39.6069 91.4028 39.6069 91.7765Z" fill="#F9F8F4"/>
<path d="M53.0276 93.2226C53.2762 93.6453 53.6009 93.9642 53.9989 94.1763C54.3969 94.3883 54.8381 94.4936 55.3209 94.4936C55.6427 94.4936 55.9186 94.467 56.1485 94.4121C56.377 94.3587 56.581 94.2697 56.7577 94.1451C57.0465 93.9375 57.3224 93.8129 57.5839 93.7714C57.8455 93.7298 58.0926 93.755 58.3268 93.8455C58.4877 93.9122 58.6343 94.0057 58.7679 94.1258C58.9016 94.246 59.0108 94.3854 59.0999 94.5426C59.1889 94.6998 59.2522 94.8719 59.2924 95.0587C59.3326 95.2456 59.3413 95.4325 59.3168 95.6194C59.2924 95.8062 59.232 95.9887 59.1358 96.1681C59.0395 96.3476 58.9016 96.5107 58.7248 96.6605C58.5725 96.7851 58.3929 96.9112 58.1874 97.0402C57.982 97.1693 57.7449 97.2835 57.4747 97.3828C57.2046 97.4822 56.8928 97.5638 56.5393 97.6261C56.1859 97.6884 55.7792 97.7195 55.3209 97.7195C54.5248 97.7195 53.7762 97.5638 53.075 97.2523C52.3752 96.9408 51.7617 96.5152 51.2344 95.9753C50.707 95.4354 50.2903 94.8066 49.9857 94.0873C49.6797 93.3694 49.5273 92.5982 49.5273 91.7765C49.5273 90.9534 49.6797 90.1821 49.9857 89.4583C50.2918 88.736 50.7085 88.1072 51.2344 87.5703C51.7617 87.0349 52.3752 86.6107 53.075 86.2992C53.7748 85.9878 54.5234 85.832 55.3209 85.832C56.1011 85.832 56.8411 85.9833 57.5423 86.2859C58.2435 86.5899 58.8541 87.0067 59.3772 87.5377C59.9002 88.0701 60.3169 88.6901 60.6258 89.4005C60.9348 90.1109 61.0986 90.8733 61.1144 91.6875C61.1144 92.1443 60.9707 92.5136 60.6862 92.7969C60.4002 93.0802 60.0281 93.2211 59.5697 93.2211H53.0276V93.2226ZM57.8929 90.5307C57.6759 90.0323 57.3469 89.6645 56.9086 89.4272C56.4704 89.1899 55.9603 89.0727 55.3812 89.0727C54.8021 89.0727 54.3007 89.1988 53.8782 89.4524C53.4558 89.706 53.1397 90.065 52.9299 90.5307H57.8929Z" fill="#F9F8F4"/>
<path d="M65.5121 96.6038C65.4316 96.7996 65.321 96.9672 65.1802 97.1081C65.0394 97.249 64.8756 97.3617 64.6917 97.4447C64.5063 97.5278 64.3094 97.5693 64.0997 97.5693C63.8827 97.5693 63.6772 97.5278 63.4847 97.4447C63.2921 97.3617 63.1197 97.249 62.9717 97.1081C62.8223 96.9672 62.7059 96.7981 62.6225 96.6038C62.5378 96.4095 62.4961 96.1989 62.4961 95.9749V92.1751V92.0624C62.5205 91.2318 62.6929 90.4487 63.0148 89.7131C63.3367 88.9774 63.7677 88.3367 64.3066 87.7879C64.8454 87.2392 65.4733 86.8031 66.1903 86.4798C66.9059 86.1565 67.6674 85.9903 68.4721 85.9814H68.5439C69.0583 85.9814 69.4592 86.1327 69.7452 86.4368C70.0311 86.7408 70.1734 87.125 70.1734 87.5892C70.1734 87.822 70.1317 88.0371 70.0469 88.2373C69.9621 88.4361 69.8458 88.6096 69.6963 88.7549C69.5469 88.9003 69.3745 89.0145 69.1776 89.0976C68.9808 89.1806 68.7695 89.2221 68.5439 89.2221C68.1488 89.2221 67.7766 89.2993 67.4275 89.452C67.0769 89.6063 66.7694 89.8154 66.5036 90.0809C66.2377 90.3464 66.0294 90.6608 65.8756 91.0227C65.7219 91.3831 65.6414 91.7672 65.6342 92.1751V95.9749C65.6328 96.2004 65.5911 96.4095 65.5121 96.6038Z" fill="#F9F8F4"/>
<path d="M111.025 94.3306C111.251 94.3306 111.458 94.3766 111.647 94.4671C111.835 94.5591 111.999 94.6792 112.136 94.8275C112.272 94.9773 112.38 95.1523 112.456 95.3511C112.532 95.5498 112.571 95.7619 112.571 95.9858C112.571 96.2098 112.532 96.4204 112.456 96.6147C112.38 96.8105 112.274 96.9781 112.136 97.119C111.999 97.2599 111.835 97.3696 111.647 97.4482C111.458 97.5268 111.251 97.5669 111.025 97.5669H110.965C110.417 97.5595 109.9 97.4571 109.413 97.2614C108.926 97.0671 108.502 96.7956 108.14 96.4516C107.778 96.1075 107.492 95.6937 107.282 95.2116C107.072 94.7296 106.969 94.2016 106.969 93.6291V83.1299C106.969 82.9059 107.009 82.6938 107.089 82.4936C107.17 82.2949 107.279 82.1213 107.416 81.976C107.552 81.8306 107.712 81.7164 107.893 81.6334C108.074 81.5503 108.269 81.5088 108.479 81.5088C108.696 81.5088 108.903 81.5503 109.1 81.6334C109.296 81.7164 109.47 81.8306 109.618 81.976C109.768 82.1213 109.886 82.2934 109.975 82.4936C110.064 82.6923 110.107 82.9044 110.107 83.1299V93.6336C110.107 93.8827 110.196 94.0607 110.373 94.169C110.551 94.2773 110.768 94.3306 111.025 94.3306Z" fill="#F9F8F4"/>
<path d="M114.164 83.1293C114.164 82.8875 114.209 82.6621 114.296 82.45C114.385 82.2379 114.506 82.0555 114.658 81.9027C114.811 81.7499 114.989 81.6268 115.19 81.5349C115.391 81.4429 115.608 81.3984 115.842 81.3984C116.068 81.3984 116.283 81.4444 116.487 81.5349C116.693 81.6268 116.874 81.7485 117.031 81.9027C117.187 82.057 117.309 82.2394 117.398 82.45C117.486 82.6621 117.531 82.889 117.531 83.1293C117.531 83.3695 117.486 83.595 117.398 83.8011C117.309 84.0088 117.187 84.1912 117.031 84.3499C116.874 84.5071 116.693 84.6332 116.487 84.7237C116.282 84.8156 116.066 84.8601 115.842 84.8601C115.608 84.8601 115.391 84.8156 115.19 84.7237C114.989 84.6332 114.812 84.5071 114.658 84.3499C114.505 84.1927 114.385 84.0088 114.296 83.8011C114.209 83.595 114.164 83.3695 114.164 83.1293ZM117.423 95.963C117.423 96.1869 117.383 96.3976 117.302 96.5919C117.222 96.7876 117.111 96.9567 116.97 97.1035C116.829 97.2489 116.664 97.3631 116.476 97.4461C116.286 97.5292 116.084 97.5707 115.867 97.5707C115.65 97.5707 115.446 97.5292 115.258 97.4461C115.068 97.3631 114.901 97.2489 114.756 97.1035C114.611 96.9582 114.496 96.7876 114.413 96.5919C114.328 96.3976 114.286 96.1869 114.286 95.963V87.5906C114.286 87.3666 114.328 87.156 114.413 86.9617C114.497 86.7674 114.611 86.5969 114.756 86.4515C114.901 86.3062 115.072 86.192 115.269 86.1089C115.466 86.0259 115.674 85.9843 115.891 85.9843C116.108 85.9843 116.309 86.0259 116.495 86.1089C116.68 86.192 116.842 86.3062 116.983 86.4515C117.124 86.5969 117.232 86.7674 117.309 86.9617C117.386 87.1575 117.424 87.3666 117.424 87.5906V95.963H117.423Z" fill="#F9F8F4"/>
<path d="M122.962 85.9833H126.657C126.874 85.9833 127.079 86.0263 127.272 86.1138C127.464 86.2013 127.632 86.3184 127.773 86.4682C127.914 86.618 128.026 86.7901 128.111 86.9859C128.196 87.1802 128.237 87.3908 128.237 87.6147C128.237 87.8313 128.196 88.0359 128.111 88.2317C128.026 88.4275 127.914 88.5966 127.773 88.7419C127.632 88.8873 127.466 89.003 127.272 89.0905C127.079 89.178 126.874 89.221 126.657 89.221H122.962V91.8002C122.962 92.1739 123.031 92.5225 123.168 92.8473C123.304 93.1721 123.493 93.4539 123.73 93.6956C123.967 93.9374 124.243 94.1272 124.556 94.2681C124.869 94.409 125.208 94.4802 125.57 94.4802C125.892 94.4802 126.19 94.4343 126.464 94.3438C126.737 94.2518 126.983 94.1065 127.2 93.9077C127.305 93.8084 127.41 93.7209 127.513 93.6467C127.618 93.5725 127.734 93.5103 127.864 93.4598C128.105 93.3679 128.354 93.3412 128.612 93.3783C128.869 93.4153 129.115 93.5429 129.348 93.7579C129.517 93.9241 129.64 94.1154 129.716 94.3304C129.792 94.547 129.822 94.7709 129.806 95.0038C129.79 95.2366 129.734 95.4621 129.638 95.6831C129.542 95.9041 129.41 96.0969 129.24 96.263C128.757 96.745 128.204 97.1084 127.581 97.3531C126.957 97.5978 126.287 97.7209 125.57 97.7209C124.774 97.7209 124.027 97.5652 123.332 97.2537C122.635 96.9423 122.028 96.5181 121.508 95.9827C120.99 95.4472 120.579 94.8169 120.277 94.0946C119.975 93.3723 119.824 92.5996 119.824 91.7764V84.2761C119.824 84.0522 119.866 83.8401 119.951 83.6414C120.035 83.4426 120.149 83.2676 120.294 83.1178C120.439 82.968 120.606 82.8494 120.796 82.7633C120.984 82.6758 121.188 82.6328 121.405 82.6328C121.622 82.6328 121.826 82.6743 122.014 82.7574C122.202 82.8405 122.368 82.9561 122.508 83.1059C122.649 83.2557 122.76 83.4293 122.84 83.6295C122.921 83.8282 122.961 84.0448 122.961 84.2776V85.9833H122.962Z" fill="#F9F8F4"/>
<path d="M134.043 93.2226C134.292 93.6453 134.617 93.9642 135.015 94.1763C135.413 94.3883 135.854 94.4936 136.336 94.4936C136.658 94.4936 136.934 94.4669 137.164 94.4121C137.393 94.3587 137.597 94.2697 137.773 94.1451C138.062 93.9375 138.338 93.8129 138.6 93.7713C138.861 93.7298 139.108 93.755 139.342 93.8455C139.503 93.9122 139.65 94.0057 139.784 94.1258C139.916 94.246 140.026 94.3854 140.115 94.5426C140.205 94.6998 140.268 94.8719 140.308 95.0587C140.348 95.2456 140.357 95.4325 140.332 95.6194C140.308 95.8062 140.248 95.9887 140.151 96.1681C140.055 96.3476 139.917 96.5107 139.74 96.6605C139.588 96.7851 139.409 96.9112 139.203 97.0402C138.998 97.1693 138.761 97.2835 138.49 97.3828C138.22 97.4822 137.908 97.5638 137.555 97.6261C137.201 97.6884 136.795 97.7195 136.336 97.7195C135.54 97.7195 134.792 97.5638 134.091 97.2523C133.391 96.9408 132.777 96.5152 132.25 95.9753C131.723 95.4354 131.306 94.8066 131.001 94.0873C130.695 93.3694 130.543 92.5982 130.543 91.7765C130.543 90.9534 130.695 90.1821 131.001 89.4583C131.307 88.736 131.724 88.1072 132.25 87.5703C132.777 87.0349 133.391 86.6107 134.091 86.2992C134.79 85.9878 135.539 85.832 136.336 85.832C137.117 85.832 137.857 85.9833 138.558 86.2859C139.259 86.5899 139.87 87.0067 140.393 87.5377C140.916 88.0701 141.333 88.6901 141.641 89.4005C141.95 90.1109 142.114 90.8733 142.13 91.6875C142.13 92.1443 141.986 92.5136 141.702 92.7969C141.416 93.0802 141.044 93.2211 140.585 93.2211H134.043V93.2226ZM138.909 90.5307C138.692 90.0323 138.362 89.6645 137.924 89.4272C137.486 89.1899 136.976 89.0727 136.397 89.0727C135.818 89.0727 135.316 89.1988 134.894 89.4524C134.471 89.706 134.155 90.065 133.946 90.5307H138.909Z" fill="#F9F8F4"/>
<path d="M143.844 83.2446C143.844 83.1349 143.927 83.0488 144.033 83.0488H144.633C144.852 83.0488 145.022 83.1126 145.136 83.2298C145.232 83.3291 145.284 83.4686 145.284 83.6362V83.6406C145.284 83.9209 145.148 84.093 144.939 84.182L145.202 84.5127C145.239 84.5616 145.263 84.6017 145.263 84.6625C145.263 84.7723 145.174 84.8434 145.084 84.8434C144.998 84.8434 144.942 84.8004 144.897 84.7411L144.528 84.2576H144.225V84.6462C144.225 84.7559 144.141 84.842 144.035 84.842C143.929 84.842 143.845 84.7559 143.845 84.6462V83.2446H143.844ZM144.607 83.9135C144.792 83.9135 144.897 83.8112 144.897 83.6614V83.6569C144.897 83.4893 144.783 83.4033 144.6 83.4033H144.223V83.9135H144.607Z" fill="#F9F8F4"/>
<path d="M144.563 85.9829C143.475 85.9829 142.59 85.0693 142.59 83.9465C142.59 82.8238 143.475 81.9102 144.563 81.9102C145.65 81.9102 146.536 82.8238 146.536 83.9465C146.536 85.0693 145.65 85.9829 144.563 85.9829ZM144.563 82.2631C143.663 82.2631 142.932 83.0181 142.932 83.9465C142.932 84.875 143.663 85.6299 144.563 85.6299C145.462 85.6299 146.194 84.875 146.194 83.9465C146.194 83.0181 145.462 82.2631 144.563 82.2631Z" fill="#F9F8F4"/>
</g>
<defs>
<clipPath id="clip0">
<rect width="110.065" height="41.7775" fill="white" transform="translate(36.4688 73.7676)"/>
</clipPath>
</defs>
</svg>
