<svg width="184" height="185" viewBox="0 0 184 185" fill="none" xmlns="http://www.w3.org/2000/svg">
<rect y="0.989258" width="184" height="184" rx="3" fill="#090909"/>
<g clip-path="url(#clip0)">
<path d="M108.135 78.5594H112.403C116.056 78.5594 119.093 75.7973 119.324 72.2647C119.442 70.3798 118.803 68.5838 117.518 67.2087C116.246 65.8514 114.458 65.0749 112.605 65.0749H108.916C108.763 64.4822 108.443 63.9428 107.963 63.4568L104.559 60.0546C103.132 58.6261 100.806 58.6261 99.3554 60.0783C98.6628 60.7777 98.2779 61.7023 98.2839 62.6922C98.2898 63.6761 98.6805 64.6007 99.3791 65.2883C99.7284 65.6262 100.095 65.9936 100.48 66.373C99.5153 67.2621 98.9114 68.5364 98.9114 69.9471V81.6712H91.8072C87.4145 81.6712 83.1579 83.8109 80.9615 87.1242C79.2091 89.7678 79.2151 92.6662 79.2269 95.4697V119.902H68.0141C66.2322 119.902 64.7699 121.235 64.6752 122.942C64.6337 123.832 64.9416 124.679 65.5513 125.325C66.1552 125.959 67.0018 126.321 67.878 126.321H84.632C86.0173 126.321 87.1481 125.195 87.1481 123.802V107.484C87.8703 108.196 88.7702 108.788 89.8358 109.245V123.737C89.8358 125.165 90.9902 126.321 92.417 126.321H110.503C112.273 126.321 113.712 124.881 113.712 123.114C113.712 121.342 112.273 119.902 110.503 119.902H98.5147V109.594C101.647 109.482 104.186 108.397 106.051 106.37C109.289 102.873 109.544 97.6095 109.514 95.6535H111.237L113.345 97.7636C113.949 98.3682 114.748 98.7001 115.6 98.7001C116.453 98.7001 117.252 98.3682 117.856 97.7636C118.46 97.159 118.791 96.3588 118.791 95.5053C118.791 94.6518 118.46 93.8516 117.856 93.247L114.381 89.7737C113.854 89.2402 113.149 88.9498 112.403 88.9498H107.792V78.9031C107.792 78.7135 107.946 78.5594 108.135 78.5594ZM100.622 64.0199C100.261 63.6642 100.06 63.1901 100.06 62.6803C100.06 62.1765 100.255 61.6964 100.634 61.3111C101.351 60.5999 102.594 60.5999 103.304 61.3111L106.702 64.7193C106.821 64.8378 106.915 64.9505 106.998 65.0749H103.778C103.162 65.0749 102.57 65.1875 102.031 65.4009C101.546 64.9267 101.06 64.4526 100.622 64.0199ZM104.02 90.728H112.403C112.676 90.728 112.93 90.8347 113.126 91.0303L116.601 94.5036C116.867 94.7703 117.015 95.126 117.015 95.5053C117.015 95.8847 116.867 96.2403 116.601 96.507C116.068 97.0405 115.133 97.0405 114.6 96.507L112.232 94.1361C112.066 93.9702 111.841 93.8753 111.604 93.8753H108.579C108.094 93.8753 107.691 94.2724 107.691 94.7644C107.691 94.8296 107.703 94.9007 107.721 94.9659C107.721 94.9719 107.721 94.9719 107.721 94.9778V95.0311C107.727 95.0963 108.165 101.474 104.743 105.173C103.944 106.032 102.996 106.684 101.901 107.123C102.031 106.998 102.15 106.868 102.268 106.737C103.369 105.505 104.086 104.058 104.334 102.565C104.719 100.265 104.133 97.8999 102.688 95.9143C101.102 93.7331 98.6983 92.2631 96.0875 91.8838C95.1166 91.7356 94.1338 91.7534 93.1689 91.9193C92.2394 92.0794 91.2922 92.3817 90.3509 92.8203C89.9068 93.0218 89.7115 93.5553 89.9187 93.9998C90.12 94.4443 90.6469 94.634 91.0968 94.4325C91.896 94.0591 92.6952 93.8042 93.4708 93.6679C94.2522 93.5375 95.0455 93.5256 95.827 93.6382C97.9701 93.9524 99.9474 95.1675 101.256 96.9575C102.416 98.5578 102.89 100.443 102.582 102.268C102.387 103.43 101.824 104.568 100.942 105.546C100.285 106.281 99.4679 106.939 98.5147 107.502C98.3075 107.621 98.1003 107.733 97.8991 107.834C97.8043 107.881 97.7155 107.929 97.6208 107.97C97.532 108.006 97.4254 108.047 97.3248 108.095C97.3248 108.095 97.313 108.095 97.313 108.101C97.017 108.243 96.7387 108.474 96.7387 108.936V120.791C96.7387 121.283 97.1413 121.68 97.6267 121.68H110.503C111.296 121.68 111.936 122.32 111.936 123.114C111.936 123.903 111.296 124.543 110.503 124.543H92.417C91.973 124.543 91.6119 124.181 91.6119 123.737V108.64C91.6119 108.267 91.375 107.935 91.0258 107.804C89.1313 107.111 87.8407 105.979 87.1836 104.455C87.1658 104.408 87.1481 104.367 87.1303 104.319C87.1303 104.313 87.1303 104.313 87.1303 104.313C87.0948 104.236 87.0652 104.159 87.0415 104.082C85.9877 101.077 87.4737 97.5739 87.4914 97.5384C87.6868 97.0879 87.4796 96.5604 87.0297 96.3648C86.5797 96.1692 86.0588 96.3766 85.8634 96.8271C85.7864 97.0049 84.0696 101.018 85.372 104.693V123.802C85.372 124.211 85.0346 124.543 84.632 124.543H67.878C67.4813 124.543 67.1143 124.389 66.8419 124.098C66.5696 123.814 66.4334 123.434 66.4512 123.037C66.4926 122.29 67.1912 121.68 68.0141 121.68H80.1149C80.6063 121.68 81.0029 121.283 81.0029 120.791V95.4638C80.9911 92.8084 80.9852 90.3012 82.4415 88.1081C84.3182 85.2808 87.9946 83.4493 91.8072 83.4493H99.7994C100.291 83.4493 100.687 83.0522 100.687 82.5602V69.9471C100.687 68.2401 102.073 66.8531 103.778 66.8531H112.605C113.99 66.8531 115.275 67.4103 116.222 68.4238C117.169 69.4374 117.637 70.7591 117.548 72.152C117.382 74.7482 115.121 76.7812 112.403 76.7812H108.135C106.969 76.7812 106.016 77.7355 106.016 78.9031V88.9498H104.02C103.529 88.9498 103.132 89.3469 103.132 89.8389C103.132 90.3308 103.529 90.728 104.02 90.728Z" fill="#F9F8F4"/>
</g>
<defs>
<clipPath id="clip0">
<rect width="54.6667" height="67.3333" fill="white" transform="translate(64.6673 58.9891)"/>
</clipPath>
</defs>
</svg>
