<svg width="183" height="184" viewBox="0 0 183 184" fill="none" xmlns="http://www.w3.org/2000/svg">
<rect width="183" height="183.979" rx="3" fill="#0C0C0C"/>
<g clip-path="url(#clip0)">
<path d="M110.384 110.773C110.041 110.544 110.318 110.022 110.699 110.176C117.222 112.807 124.21 111.983 128.727 107.981C131.925 105.148 135.727 99.0913 133.312 93.2166C131.109 87.8586 125.231 86.2926 124.438 86.0936C124.986 85.8405 125.748 85.5611 126.683 85.4477C128.08 85.2801 129.002 85.5873 129.023 85.5C129.079 85.2696 125.759 83.1327 122.367 83.8677C121.41 84.0754 120.897 84.4141 119.067 84.793C117.859 85.0426 116.845 85.1509 116.157 85.2032C120.995 82.7416 121.905 81.8443 121.778 81.4934C121.577 80.9469 118.642 81.1616 116.1 82.2755C114.048 83.1746 113.561 84.0842 111.329 85.006C109.712 85.6729 108.275 85.8946 107.361 85.9819C108.423 84.5381 108.517 82.7381 107.729 81.7168C106.676 80.3568 103.876 80.1491 102.035 82.162C102.881 80.6152 104.335 78.5673 106.768 77.4884C109.241 76.3903 111.852 76.6801 111.945 76.0045C111.979 75.7478 111.656 75.3184 109.801 74.5956C111.424 73.7471 113.746 72.8113 116.604 72.5931C121.576 72.2125 125.334 74.2237 126.07 73.0383C126.321 72.635 126.249 71.818 124.814 69.9971C126.307 70.5941 128.266 71.6259 129.99 73.4835C131.612 75.2311 132.364 76.9978 133.022 76.8215C133.488 76.6976 133.596 75.4929 133.674 74.7073C133.726 74.1871 133.714 73.7401 133.686 73.4084C135.164 74.9255 137.137 77.2754 138.788 80.5314C139.891 82.705 142.031 87.0433 141.894 92.6248C141.76 98.0665 139.449 105.092 133.316 109.688C131.971 110.696 125.301 115.441 116.825 113.547C114.153 112.95 111.997 111.848 110.384 110.773Z" fill="url(#paint0_linear)"/>
<path d="M130.169 74.0093C127.31 74.2258 124.991 75.1668 123.368 76.0136C123.702 76.0555 124.53 76.2073 125.148 76.8935C125.308 77.0715 125.426 77.2548 125.513 77.4224C124.417 77.4905 122.456 77.7559 120.335 78.9081C118.421 79.9487 117.199 81.265 116.534 82.0995C116.387 82.1554 116.242 82.2147 116.098 82.2776C114.044 83.1749 113.557 84.0863 111.326 85.0046C109.71 85.6732 108.273 85.8932 107.357 85.984C108.422 84.5367 108.515 82.7367 107.726 81.7154C106.67 80.3589 103.872 80.1494 102.031 82.1624C102.875 80.6138 104.33 78.5677 106.764 77.487C109.237 76.3889 111.849 76.6787 111.942 76.0066C111.977 75.7464 111.65 75.317 109.797 74.5942C111.42 73.7475 113.742 72.8117 116.599 72.5935C121.568 72.2111 125.33 74.2223 126.065 73.0352C126.315 72.6354 126.242 71.8183 124.81 69.9922C126.303 70.5928 128.262 71.621 129.983 73.4804C130.145 73.6497 130.293 73.8243 130.437 73.9954C130.349 73.9954 130.26 74.0006 130.169 74.0093Z" fill="#F9F8F4"/>
<path d="M41.7734 103.797C42.6469 103.645 42.6852 103.092 42.6852 101.833V94.1096C42.6852 92.8509 42.6469 92.2974 41.7734 92.1456V91.6113H50.6876C52.532 91.6113 53.4438 92.2398 53.4438 93.6522C53.4438 94.9878 52.5877 95.8642 50.8773 96.8942C52.0361 98.1722 52.9114 99.8691 53.7483 101.929C54.1851 103.017 54.4322 103.684 55.2117 103.799V104.333H49.3008V103.799C49.7758 103.589 49.9464 103.399 49.9464 103.017C49.9464 102.312 49.1668 100.119 47.3241 98.2298L46.602 98.4585V101.833C46.602 103.092 46.6403 103.645 47.5138 103.797V104.331H41.7734V103.797ZM49.567 94.2615C49.567 93.2891 49.0346 92.8701 47.914 92.8701C46.6403 92.8701 46.602 93.1948 46.602 93.9193V97.0094C48.5213 96.5887 49.567 95.5779 49.567 94.2615Z" fill="#F9F8F4"/>
<path d="M62.2822 102.957C63.669 102.957 64.6574 102.175 65.3047 100.593L65.818 100.689L64.6974 104.446C64.2798 104.427 64.0327 104.427 63.9562 104.427C63.2915 104.427 62.4736 104.617 61.447 104.617C57.5511 104.617 55.0977 102.271 55.0977 99.3922C55.0977 96.7228 57.3406 94.5283 60.7997 94.5283C63.3471 94.5283 64.8105 95.6544 65.7797 98.2277L59.051 99.8304C59.3747 101.833 60.5909 102.957 62.2822 102.957ZM60.5335 95.9774C59.6966 95.9774 58.917 96.7403 58.917 97.9606C58.917 98.0933 58.9362 98.3412 58.9553 98.6467L62.0734 97.8838C61.8646 96.6268 61.313 95.9774 60.5335 95.9774Z" fill="#F9F8F4"/>
<path d="M67.4343 105.207C67.3769 105.455 67.3577 105.645 67.3577 105.799C67.3577 106.485 67.737 106.886 68.3269 106.886C69.1639 106.886 69.9051 106.01 69.9051 104.694C69.9051 103.969 69.6389 103.149 69.2404 102.157L67.2063 97.1027C66.827 96.1495 66.5034 95.5384 65.7812 95.2329V94.7947H71.0657V95.2329C70.6864 95.3289 70.5141 95.5192 70.5141 95.919C70.5141 96.1669 70.6655 96.6435 70.9317 97.3105L72.1289 100.324L73.2877 96.853C73.42 96.4725 73.4774 96.2804 73.4774 96.2612C73.4774 96.146 73.4965 96.0517 73.4965 95.9557C73.4965 95.6886 73.4008 95.4791 72.8318 95.2312V94.793H76.425V95.2312C75.5324 95.4983 75.2087 96.1093 74.8085 97.1184L71.4068 105.547C70.6081 107.55 69.7155 108.561 68.0241 108.561C67.2446 108.561 66.5799 108.293 65.8387 107.759L66.9036 105.032L67.4343 105.207Z" fill="#F9F8F4"/>
<path d="M76.3496 103.855C77.1291 103.797 77.2614 103.34 77.2614 102.29V97.1612C77.2614 96.0927 77.11 95.6353 76.2539 95.5393V95.0627L80.3412 94.7956C80.5692 95.2722 80.7032 95.8448 80.778 96.5309C81.8812 95.253 83.0209 94.6611 84.5225 94.6611C86.5566 94.6611 87.0317 95.672 87.0317 97.9223V101.87C87.0317 103.148 87.1465 103.72 88.0774 103.853V104.33H82.4136V103.853C83.3254 103.72 83.5168 103.186 83.5168 102.06V98.4182C83.5168 97.217 83.2888 96.6828 82.5476 96.6828C81.4444 96.6828 80.7797 97.7513 80.7797 99.8864V101.641C80.7797 103.015 80.8563 103.643 81.8446 103.853V104.33H76.3513V103.855H76.3496Z" fill="#F9F8F4"/>
<path d="M89.8639 94.9087C90.2259 95.0239 90.4903 95.1182 90.6817 95.1182C91.2716 95.1182 92.4496 94.5264 94.3306 94.5264C95.6426 94.5264 96.6692 94.7743 97.2016 95.0606C98.2665 95.6332 98.3414 96.4346 98.3414 97.6357V101.775C98.3414 102.901 98.437 103.472 99.5959 103.854V104.331H95.4703C95.1849 104.006 95.0527 103.606 94.957 103.111C94.2349 104.121 93.1317 104.598 91.5935 104.598C89.6934 104.598 88.6094 103.587 88.6094 102.061C88.6094 99.907 90.6243 98.6099 94.7482 97.8853V97.3127C94.7482 96.3595 94.254 95.9021 93.17 95.9021C91.6492 95.9021 90.4329 96.7977 89.9579 98.3235H89.502L89.8639 94.9087ZM92.1643 101.527C92.1643 102.156 92.5627 102.576 93.0952 102.576C94.1026 102.576 94.7482 101.662 94.7482 99.811V99.0865C92.9995 99.5631 92.1643 100.326 92.1643 101.527Z" fill="#F9F8F4"/>
<path d="M100.188 95.5393V95.0627L104.275 94.7956C104.503 95.2722 104.637 95.8448 104.712 96.5309C105.604 95.2722 106.556 94.6611 107.657 94.6611C107.905 94.6611 108.19 94.6995 108.494 94.7379L107.811 97.3689C107.24 97.0634 106.765 96.8923 106.328 96.8923C104.846 96.8923 104.712 98.1318 104.712 100.25V101.641C104.712 102.996 104.769 103.643 105.776 103.853V104.33H100.283V103.853C101.176 103.757 101.195 103.205 101.195 102.289V97.1594C101.195 96.0927 101.042 95.6353 100.188 95.5393Z" fill="#F9F8F4"/>
<path d="M114.31 104.331C113.074 104.331 111.99 104.312 110.964 103.835C109.5 103.13 108.531 101.585 108.531 99.7919C108.531 98.4563 109.064 97.1976 109.995 96.2635C111.345 94.928 112.808 94.7953 114.766 94.7953H115.754V94.1092C115.754 93.9381 115.754 93.7653 115.754 93.6134C115.754 92.5257 115.716 92.0299 114.994 91.9548V91.459L119.271 90.8672V102.29C119.271 102.48 119.271 102.69 119.271 102.938C119.271 103.338 119.633 103.853 120.221 103.853C120.24 103.853 120.259 103.853 120.278 103.853V104.329H114.31V104.331ZM115.756 96.2827C115.47 96.2635 115.281 96.2443 115.147 96.2443C113.398 96.2443 112.429 97.4455 112.429 99.7535C112.429 101.794 113.302 103.015 114.52 103.015C115.643 103.015 115.756 102.423 115.756 101.108V96.2827Z" fill="#F9F8F4"/>
</g>
<defs>
<linearGradient id="paint0_linear" x1="121.968" y1="69.9971" x2="121.968" y2="113.989" gradientUnits="userSpaceOnUse">
<stop stop-color="#FFBD00"/>
<stop offset="1" stop-color="#F70000"/>
</linearGradient>
<clipPath id="clip0">
<rect width="100.12" height="43.9949" fill="white" transform="translate(41.7734 69.9922)"/>
</clipPath>
</defs>
</svg>
