<svg width="183" height="184" viewBox="0 0 183 184" fill="none" xmlns="http://www.w3.org/2000/svg">
<rect y="0.989258" width="183" height="183" rx="3" fill="#0C0C0C"/>
<path d="M126.975 77.2393H115.372L108.41 83.8697V108.734H101.779V97.1306H95.4805V114.37H103.769L108.078 110.723V114.37H114.709V94.4784H120.013L126.975 88.511V77.2393Z" fill="#6BB0FF"/>
<path d="M98.3039 88.9001V94.6803H79.0234L88.2412 83.1493H79.7443V77.3662H98.3039V80.2592L90.592 88.9001H98.3039Z" fill="#F9F8F4"/>
<path d="M106.411 75.9228H100.07V70.1074H106.411V75.9228ZM100.072 94.682V77.3664H106.412V94.682H100.072Z" fill="#F9F8F4"/>
<path d="M120.678 83.2061H114.711V88.8419H120.678V83.2061Z" fill="black"/>
<path d="M55.4926 97.6973H65.0022V103.48H54.7426V109.231H65.0022V115.013H48.4023V104.204L55.4926 97.6973Z" fill="#F9F8F4"/>
<path d="M73.1059 115.013H66.7656V91.9492H73.1059V115.013Z" fill="#F9F8F4"/>
<path d="M81.9964 97.6973H93.8261V108.542L86.7986 115.013H74.8711V104.171L81.9964 97.6973ZM81.2113 103.482V109.233H87.4844V103.482H81.2113Z" fill="#F9F8F4"/>
<path d="M135.262 108.543L128.236 115.013H116.309V104.172L123.434 97.6991H128.923V91.9512H135.264V108.543H135.262ZM122.649 103.482V109.233H128.922V103.482H122.649Z" fill="#F9F8F4"/>
</svg>
