<svg width="183" height="185" viewBox="0 0 183 185" fill="none" xmlns="http://www.w3.org/2000/svg">
<rect y="0.501953" width="183" height="183.979" rx="3" fill="#0C0C0C"/>
<path d="M82.9507 59.4238C86.2822 57.9562 89.6151 56.4925 92.9441 55.0196C96.3134 53.5297 99.6775 52.028 103.047 50.5408C103.439 50.368 103.809 50.1218 104.258 50.1074C104.651 50.4452 104.754 50.9322 104.943 51.3603C108.725 59.9619 112.495 68.5674 116.269 77.1715C121.127 88.2449 125.985 99.3182 130.846 110.392C131.507 111.897 131.545 111.663 130.073 112.316C113.238 119.786 96.4006 127.252 79.5619 134.714C79.174 134.886 78.8162 135.162 78.3646 135.137C77.7815 134.15 51.686 74.6853 51.3594 73.6C51.6769 73.2124 52.1649 73.1169 52.5905 72.927C59.4397 69.8779 66.2929 66.8392 73.1447 63.7953C73.539 63.6198 73.9229 63.4195 74.312 63.231C74.4344 63.1537 74.5606 63.1446 74.692 63.2022C75.754 64.2221 76.1939 65.5313 76.4216 66.9426C76.4034 67.0788 76.3552 67.2045 76.2836 67.321C75.6967 68.0018 74.8925 68.3435 74.0986 68.6878C69.0089 70.8899 63.9412 73.1431 58.8892 75.4342C57.6022 76.0181 57.5878 76.0626 58.1644 77.3823C62.4173 87.1032 66.6794 96.8202 70.9518 106.532C72.7556 110.631 74.5671 114.728 76.3318 118.844C77.1087 120.654 77.1699 120.634 79.0088 119.83C85.8775 116.829 92.7137 113.755 99.5708 110.728C105.833 107.964 112.085 105.173 118.341 102.394C118.618 102.27 118.885 102.123 119.165 102.005C121.547 101.002 121.514 101.019 120.453 98.6178C116.938 90.663 113.468 82.6872 109.966 74.7272C107.498 69.1146 105.072 63.4824 102.547 57.8946C101.883 56.4257 101.857 56.3877 100.333 57.0384C96.3082 58.7561 92.3441 60.6152 88.3189 62.3289C87.1438 62.8291 86.0701 63.6722 84.6932 63.6107C84.5605 63.5963 84.4356 63.5583 84.3171 63.4981C83.2942 62.5031 82.8583 61.2292 82.6136 59.8637C82.6527 59.6608 82.7464 59.4997 82.9507 59.4238Z" fill="white"/>
<path d="M74.5228 63.3056C74.4486 63.2899 74.377 63.2651 74.3094 63.231C74.1961 62.5803 73.8474 62.0226 73.5975 61.4256C73.3463 60.8272 73.0965 60.2263 72.8076 59.6463C72.5564 59.1422 72.667 58.756 73.0314 58.3567C73.8474 57.4625 74.6503 56.5565 75.4273 55.6295C75.7682 55.2224 76.1521 55.0757 76.6688 55.1111C77.3559 55.1569 78.047 55.1438 78.7367 55.1582C79.0698 55.1648 79.3015 55.0338 79.4498 54.7157C79.6451 54.2941 79.7518 53.8189 80.0823 53.4902C80.4988 53.5976 80.53 53.9419 80.6445 54.2064C81.2106 55.5169 81.7533 56.838 82.3194 58.1498C82.5068 58.5845 82.7398 58.9995 82.9506 59.4237C82.961 59.5036 82.9324 59.5704 82.8647 59.624C82.6409 60.0561 82.3402 60.4109 81.8822 60.6021C79.8247 61.4609 77.8322 62.4703 75.7604 63.2952C75.3336 63.4628 74.9366 63.5177 74.5228 63.3056Z" fill="#808080"/>
<path d="M84.5869 63.3556C89.6167 61.1195 94.6466 58.882 99.6752 56.6459C100.388 56.3291 101.098 56.0044 101.815 55.698C102.039 55.6024 102.24 55.6705 102.351 55.9062C102.48 56.1824 102.602 56.4613 102.724 56.7401C109.073 71.2004 115.422 85.6594 121.764 100.121C122.304 101.353 122.438 101.24 121.16 101.807C106.738 108.204 92.3184 114.605 77.8977 121.002C76.7863 121.494 76.8657 121.559 76.3308 120.342C69.9514 105.8 63.5694 91.2615 57.1912 76.7201C57.0546 76.4085 56.9479 76.0825 56.8438 75.8062C57.0312 75.5012 57.2979 75.4357 57.5283 75.3336C63.5498 72.6602 69.574 69.9933 75.5981 67.3291C75.7543 67.2597 75.9248 67.223 76.0887 67.1707C76.9138 67.1955 77.0869 67.8999 77.3875 68.4537C77.6751 68.9826 77.9497 69.2589 78.3714 68.5768C78.8451 67.8122 79.5153 67.4168 80.4302 67.4927C80.6033 67.5071 80.8271 67.5372 80.926 67.4063C81.6991 66.3917 82.7961 66.3105 83.9375 66.2621C84.7274 66.228 84.7964 65.7043 84.592 65.0537C84.4164 64.4933 84.0377 63.9212 84.5869 63.3556Z" fill="black"/>
<path d="M74.5234 63.3066C74.703 63.1914 74.8709 63.05 75.0635 62.9649C77.4555 61.8965 79.8488 60.8334 82.2459 59.7769C82.4372 59.6931 82.6559 59.6734 82.8628 59.625C83.4666 60.8033 84.0106 62.0078 84.3932 63.2804C84.4583 64.0502 83.8922 64.3356 83.3443 64.5674C81.413 65.3843 79.5156 66.2811 77.5778 67.0837C77.0768 67.2906 76.5914 67.3888 76.1437 66.9672C75.4982 65.7941 74.9607 64.5726 74.5234 63.3066Z" fill="#C2C2C2"/>
<path d="M76.1471 66.9647C76.3944 66.8914 76.652 66.8443 76.8863 66.7422C79.1403 65.7524 81.3904 64.7548 83.6392 63.7532C83.9112 63.6315 84.2105 63.5438 84.3966 63.2793C84.4669 63.2885 84.5307 63.3133 84.5892 63.3552C84.8547 64.0426 85.1306 64.726 85.3805 65.4186C85.5093 65.776 85.7774 66.1046 85.6564 66.5667C85.0603 66.7906 84.4122 66.8129 83.7706 66.8705C83.3399 66.9084 82.9078 66.9359 82.4771 66.9582C82.0307 66.9818 81.7938 67.169 81.6949 67.6468C81.5726 68.2386 81.4568 68.2726 80.9037 68.2019C80.8178 68.1915 80.7306 68.1849 80.6473 68.1614C79.4774 67.821 79.5073 67.9466 78.8878 68.8932C78.6041 69.3279 78.31 69.7586 78.0055 70.1802C77.8688 70.3687 77.5851 70.332 77.4784 70.1095C77.2351 69.6015 77.0164 69.0804 76.7757 68.5698C76.5544 68.0998 76.3189 67.6364 76.0898 67.1703C76.1016 67.0983 76.1198 67.0302 76.1471 66.9647Z" fill="#808080"/>
<path d="M104.254 116.583C104.098 117.985 104.098 117.985 102.922 117.751C102.908 118.009 102.906 118.262 102.873 118.51C102.865 118.568 102.766 118.641 102.697 118.657C102.624 118.674 102.513 118.657 102.464 118.608C102.379 118.521 102.303 118.407 102.264 118.29C102.155 117.963 102.035 117.633 101.979 117.295C101.915 116.909 101.386 116.451 101.883 116.158C102.228 115.955 102.468 116.543 102.782 116.74C102.891 116.808 102.994 116.887 103.105 116.954C103.288 117.065 103.563 116.931 103.581 116.701C103.614 116.27 103.615 115.838 103.638 115.406C103.645 115.286 103.659 115.152 103.818 115.112C103.965 115.075 104.078 115.141 104.15 115.247C104.59 115.887 105.022 116.532 105.451 117.18C105.497 117.25 105.521 117.34 105.533 117.424C105.557 117.607 105.497 117.781 105.32 117.836C105.222 117.866 105.037 117.826 104.983 117.75C104.761 117.441 104.575 117.107 104.254 116.583Z" fill="black"/>
<path d="M122.422 108.945C122.417 109.675 121.813 110.482 121.119 110.717C120.712 110.856 120.351 110.741 120.009 110.544C119.405 110.198 119.119 109.471 119.278 108.751C119.425 108.086 120.035 107.522 120.712 107.427C121.333 107.341 121.88 107.626 122.223 108.204C122.359 108.435 122.424 108.679 122.422 108.945Z" fill="black"/>
<path d="M98.2291 120.264C98.0456 120.501 97.8843 120.759 97.6734 120.97C97.1789 121.463 96.4787 121.547 95.9113 121.215C95.3686 120.897 95.0342 120.179 95.1409 119.563C95.3231 118.507 96.3043 117.879 97.3338 118.175C97.5342 118.232 97.7125 118.366 97.9012 118.465C98.8044 118.918 98.2109 119.648 98.2291 120.264Z" fill="black"/>
<path d="M94.1936 121.385C94.692 121.575 95.0941 121.72 95.4885 121.888C95.5405 121.91 95.5613 122.034 95.5731 122.115C95.5978 122.293 95.4403 122.359 95.3336 122.342C94.9523 122.282 94.5788 122.174 94.2001 122.102C93.8136 122.029 93.5143 122.093 93.4961 122.589C93.4922 122.71 93.3737 122.841 93.2306 122.804C93.1213 122.775 92.9898 122.687 92.943 122.589C92.7204 122.119 92.5409 121.628 92.3157 121.161C91.9136 120.331 91.9344 120.221 92.7295 119.79C93.0718 119.604 93.4219 119.436 93.8292 119.436C94.2678 119.436 94.584 119.742 94.5307 120.173C94.5046 120.385 94.4252 120.59 94.3667 120.798C94.3198 120.963 94.2704 121.127 94.1936 121.385Z" fill="black"/>
<path d="M88.4564 125.459C88.1207 125.385 87.7862 125.301 87.4479 125.243C87.0705 125.176 86.8167 125.265 86.6657 125.696C86.5577 126.003 86.1829 125.976 86.0749 125.68C85.7938 124.914 85.5036 124.159 84.9023 123.542C85.6806 122.813 86.4744 122.375 87.5129 122.68C87.7368 122.728 87.9684 122.866 87.958 123.071C87.9242 123.733 88.0296 124.287 88.5996 124.732C88.7623 124.859 88.8677 125.286 88.4564 125.459Z" fill="black"/>
<path d="M98.6782 117.566C98.7888 117.095 99.1584 116.866 99.5488 116.689C100.163 116.41 100.841 116.599 101.278 117.129C101.782 117.738 101.746 118.54 101.185 119.251C100.645 119.934 99.9874 120.107 99.2716 119.72C99.0517 119.601 98.8747 119.4 98.6769 119.237C98.6066 119.162 98.5494 119.078 98.5025 118.987C98.4544 118.788 98.3529 118.606 98.3281 118.4C98.332 118.297 98.3607 118.2 98.4114 118.109C98.5559 117.956 98.6378 117.772 98.6782 117.566Z" fill="black"/>
<path d="M81.8547 125.965C81.7323 126.795 81.295 127.667 80.6443 128.437C80.5038 128.603 80.2149 128.545 80.1147 128.323C79.8128 127.66 79.5954 126.957 79.2063 126.331C79.1113 126.179 79.1881 125.984 79.3221 125.862C79.7724 125.455 80.2734 125.12 80.8682 124.972C81.4968 124.816 81.8742 125.135 81.8547 125.965Z" fill="black"/>
<path d="M114.82 110.443C115.375 109.777 115.949 109.342 116.642 109.084C117.146 108.897 117.599 109.206 117.656 109.745C117.669 109.872 117.674 110.007 117.65 110.132C117.483 110.986 117.186 111.79 116.697 112.514C116.53 112.76 116.2 112.75 116.07 112.492C115.954 112.263 115.872 112.017 115.77 111.78C115.556 111.28 115.422 110.729 114.82 110.443Z" fill="black"/>
<path d="M124.309 107.74C123.832 107.685 123.405 107.959 122.935 108.019C122.584 108.063 122.375 107.855 122.387 107.489C122.399 107.126 122.524 106.809 122.724 106.521C122.965 106.176 123.312 106.076 123.752 106.237C123.906 106.293 124.095 106.4 124.045 106.602C124.026 106.682 123.85 106.765 123.741 106.773C123.527 106.787 123.311 106.748 123.142 106.93C123.047 107.032 122.981 107.144 123.053 107.273C123.085 107.326 123.195 107.38 123.251 107.364C123.75 107.22 124.244 107.068 124.773 107.121C125.376 107.181 125.699 107.679 125.495 108.23C125.207 109.001 124.365 109.494 123.525 109.372C123.4 109.354 123.258 109.259 123.283 109.119C123.302 109.012 123.406 108.875 123.505 108.838C123.864 108.704 124.279 108.74 124.603 108.486C124.771 108.355 124.969 108.232 124.878 107.969C124.809 107.769 124.616 107.774 124.451 107.741C124.411 107.733 124.367 107.74 124.309 107.74Z" fill="black"/>
<path d="M87.7643 122.041C87.8319 121.897 87.9803 121.85 88.0675 121.945C88.2965 122.191 88.4905 122.471 88.7026 122.745C89.1503 122.373 89.2374 121.828 89.5198 121.403C89.5745 121.32 89.7255 121.3 89.8322 121.252C89.8621 121.371 89.9428 121.506 89.9129 121.607C89.7515 122.14 89.5615 122.663 89.3507 123.28C89.8829 123.331 90.3371 123.373 90.79 123.421C90.9722 123.441 91.1271 123.526 91.131 123.73C91.1349 123.952 90.9527 124.021 90.7809 124.017C90.4373 124.009 90.0951 123.96 89.7515 123.94C89.4027 123.92 89.3168 124.128 89.3481 124.433C89.3572 124.519 89.3455 124.606 89.3429 124.693C88.0441 125.055 87.9946 124.132 87.8892 123.267C87.8437 123.086 87.7916 122.908 87.733 122.733C87.6914 122.62 87.6693 122.504 87.668 122.382C87.6771 122.261 87.7096 122.147 87.7643 122.041Z" fill="black"/>
<path d="M112.488 111.215C112.563 111.237 112.682 111.236 112.708 111.285C112.928 111.704 113.124 112.136 113.34 112.556C113.456 112.781 113.578 113.06 113.908 112.942C114.319 112.795 114.522 112.397 114.389 112.035C114.227 111.59 114.039 111.155 113.878 110.71C113.857 110.651 113.906 110.532 113.961 110.486C114.065 110.398 114.202 110.385 114.281 110.525C114.707 111.275 115.128 112.028 115.39 112.856C115.442 113.022 115.374 113.271 115.177 113.226C114.649 113.107 114.418 113.569 114.04 113.733C113.732 113.866 113.417 113.817 113.241 113.538C112.828 112.879 112.518 112.171 112.353 111.405C112.341 111.353 112.44 111.279 112.488 111.215Z" fill="black"/>
<path d="M82.9936 125.366C82.9702 125.142 82.922 124.753 82.8908 124.363C82.8778 124.2 82.8348 124.008 83.0625 123.935C83.2499 123.874 83.4035 123.954 83.5349 124.07C84.2169 124.673 84.8975 125.281 85.569 125.896C85.6562 125.976 85.7096 126.111 85.7395 126.231C85.7564 126.298 85.7122 126.404 85.6601 126.459C85.6094 126.513 85.4948 126.569 85.4415 126.547C85.2476 126.463 85.0602 126.355 84.8832 126.238C84.714 126.124 84.5617 126.147 84.4056 126.247C84.3327 126.293 84.2715 126.358 84.1986 126.403C83.8317 126.624 83.6872 127.096 83.2526 127.24C82.7645 126.873 83.1471 126.355 83.0339 125.922C83.0014 125.799 83.0131 125.663 82.9936 125.366Z" fill="black"/>
<path d="M111.756 114.763C111.548 114.827 111.413 114.695 111.342 114.543C111.141 114.111 110.977 113.663 110.783 113.228C110.58 112.773 110.571 112.775 110.032 113.08C109.956 113.122 109.891 113.203 109.815 113.215C109.744 113.226 109.64 113.184 109.597 113.127C109.56 113.079 109.556 112.958 109.59 112.906C109.975 112.317 110.474 111.842 111.078 111.487C111.218 111.404 111.405 111.37 111.568 111.376C111.672 111.379 111.799 111.475 111.869 111.567C111.966 111.692 111.876 111.806 111.767 111.89C111.733 111.916 111.69 111.931 111.655 111.956C111.033 112.384 111.03 112.385 111.345 113.05C111.53 113.442 111.732 113.827 111.906 114.223C111.955 114.335 111.959 114.48 111.94 114.602C111.928 114.661 111.82 114.708 111.756 114.763Z" fill="black"/>
<path d="M109.584 114.232C109.916 114.583 109.788 114.937 109.591 115.292C109.479 115.313 109.382 115.284 109.306 115.196C109.313 115.087 109.33 114.98 109.352 114.874L109.388 114.921C108.915 114.411 108.365 114.637 107.826 114.755L107.737 114.805L107.636 114.799C107.431 114.916 107.228 114.939 107.028 114.79H107.029C106.871 114.558 106.953 114.323 107.016 114.087C106.975 113.66 107.186 113.357 107.508 113.124C107.757 112.943 108.048 112.89 108.35 112.948C108.469 112.97 108.594 113.014 108.595 113.181C108.596 113.325 108.529 113.406 108.396 113.451C108.119 113.544 107.843 113.643 107.566 113.74C107.437 113.844 107.35 113.975 107.313 114.137C107.549 114.164 107.783 114.191 108.018 114.218C108.11 114.181 108.199 114.143 108.289 114.105C108.669 113.943 109.049 113.91 109.429 114.104C109.518 114.103 109.57 114.146 109.584 114.232Z" fill="black"/>
<path d="M87.7836 122.385C87.7745 122.474 87.798 122.553 87.8526 122.623C87.9151 122.727 87.9749 122.833 88.0296 122.941C88.2222 123.423 88.4226 123.904 88.6061 124.389C88.7493 124.765 89.0278 124.766 89.3453 124.692C89.1045 125.013 88.83 125.291 88.4578 125.458C88.558 125.2 88.6048 124.935 88.2873 124.811C88.014 124.704 87.7199 124.652 87.3828 124.563C87.539 123.93 87.7967 123.316 87.513 122.68C87.5351 122.55 87.5572 122.42 87.578 122.291C87.6769 122.259 87.7433 122.293 87.7836 122.385Z" fill="white"/>
<path d="M119.342 111.285C119.289 111.347 119.246 111.433 119.179 111.462C119.112 111.491 119.018 111.47 118.939 111.456C118.902 111.449 118.857 111.415 118.842 111.381C118.501 110.599 118.161 109.818 117.833 109.031C117.812 108.98 117.868 108.862 117.922 108.822C117.977 108.78 118.121 108.756 118.147 108.789C118.704 109.501 119.11 110.293 119.368 111.162C119.376 111.196 119.351 111.244 119.342 111.285Z" fill="black"/>
<path d="M109.389 115.558C108.973 116.188 108.386 116.452 107.645 116.379C107.523 116.367 107.407 116.312 107.389 116.156C107.371 116.002 107.466 115.889 107.583 115.868C108.133 115.768 108.658 115.608 109.124 115.287L109.229 115.302C109.296 115.334 109.345 115.384 109.376 115.451L109.389 115.558Z" fill="black"/>
<path d="M98.5088 118.173C98.5088 118.26 98.5088 118.348 98.5088 118.436C98.609 118.616 98.5895 118.834 98.6897 119.014C98.6949 119.089 98.691 119.164 98.6767 119.238C98.4515 119.546 98.54 119.995 98.2264 120.263C98.3591 119.619 98.2459 119.02 97.8984 118.463C98.0741 118.277 98.2498 118.09 98.4255 117.904C98.527 117.938 98.5726 117.989 98.5635 118.057C98.5543 118.133 98.5361 118.173 98.5088 118.173Z" fill="white"/>
<path d="M107.824 114.755C108.385 114.431 108.919 114.362 109.386 114.921C108.899 114.541 108.354 114.731 107.824 114.755Z" fill="black"/>
<path d="M107.017 114.086C107.021 114.32 107.026 114.555 107.03 114.789C106.771 114.56 106.829 114.324 107.017 114.086Z" fill="black"/>
<path d="M98.5091 118.172C98.4817 118.083 98.4544 117.993 98.4258 117.904C98.5091 117.792 98.5937 117.679 98.677 117.566C98.7004 117.79 98.634 117.989 98.5091 118.172Z" fill="#3B2B0D"/>
<path d="M107.027 114.789C107.23 114.792 107.432 114.794 107.635 114.798C107.431 114.912 107.225 115.12 107.027 114.789Z" fill="black"/>
<path d="M108.288 114.105C108.197 114.143 108.107 114.18 108.016 114.218C108.107 114.18 108.198 114.142 108.288 114.105Z" fill="black"/>
<path d="M109.395 115.287C109.46 115.288 109.523 115.29 109.588 115.29C109.581 115.423 109.506 115.507 109.388 115.557C109.353 115.53 109.32 115.5 109.292 115.468L109.277 115.339L109.395 115.287Z" fill="black"/>
<path d="M109.354 114.875C109.368 115.014 109.383 115.151 109.397 115.29L109.32 115.366L109.215 115.387C109.182 115.357 109.152 115.324 109.125 115.289C109.202 115.15 109.277 115.012 109.354 114.875Z" fill="black"/>
<path d="M109.581 114.228C109.522 114.196 109.471 114.154 109.43 114.1C109.518 114.097 109.568 114.141 109.581 114.228Z" fill="#3C2D0D"/>
<path d="M87.7824 122.387C87.7174 122.349 87.6497 122.316 87.5781 122.291C87.6406 122.207 87.7044 122.125 87.7668 122.041C87.772 122.156 87.7772 122.271 87.7824 122.387Z" fill="#34270D"/>
<path d="M107.312 114.135C107.397 114.003 107.482 113.871 107.566 113.738C107.482 113.871 107.397 114.003 107.312 114.135Z" fill="#3C2D0D"/>
<path d="M104.055 89.5781C103.918 97.7371 97.1613 103.589 89.6913 103.279C82.5766 102.983 76.3664 97.0903 76.4861 89.2089C76.6058 81.334 83.0906 75.2868 90.774 75.5722C98.162 75.8484 104.096 81.8996 104.055 89.5781Z" fill="white"/>
<path d="M98.0807 64.2258C99.8714 64.1787 101.477 65.5507 101.486 67.5865C101.496 69.553 99.9911 70.9722 98.0989 70.9735C96.2561 70.9748 94.8025 69.5189 94.7739 67.6703C94.7452 65.7419 96.1819 64.2441 98.0807 64.2258Z" fill="white"/>
<path d="M120.644 110.012C120.022 109.992 119.657 109.481 119.827 109.012C120.02 108.481 120.418 108.172 120.957 108.068C121.277 108.007 121.541 108.157 121.73 108.423C121.901 108.665 121.845 108.909 121.715 109.15C121.458 109.629 121.098 109.967 120.644 110.012Z" fill="white"/>
<path d="M97.7133 119.352C97.7381 119.988 97.0105 120.695 96.3859 120.643C95.8015 120.593 95.5113 120.042 95.7911 119.523C96.0293 119.081 96.3833 118.801 96.8843 118.731C97.2865 118.675 97.699 118.99 97.7133 119.352Z" fill="white"/>
<path d="M93.231 121.423C93.136 121.457 93.0722 121.423 93.0241 121.328C92.9863 121.252 92.9291 121.185 92.89 121.11C92.5439 120.446 92.7326 120.081 93.4757 119.974C93.7633 119.932 93.991 120.16 93.9312 120.423C93.8531 120.765 93.6995 121.066 93.4549 121.314C93.3989 121.369 93.3065 121.388 93.231 121.423Z" fill="white"/>
<path d="M86.4744 124.558C86.4366 124.558 86.3937 124.57 86.3612 124.555C86.1581 124.466 85.7716 123.813 85.8302 123.57C85.9122 123.237 86.2193 123.15 86.516 123.089C86.6904 123.052 86.8622 123.068 86.9715 123.233C87.0158 123.299 87.0444 123.391 87.0457 123.471C87.0522 123.883 86.883 124.221 86.5876 124.498C86.5577 124.528 86.5121 124.539 86.4744 124.558Z" fill="white"/>
<path d="M101.051 117.834C101.094 118.445 100.33 119.208 99.7209 119.163C99.212 119.125 98.8554 118.598 99.0428 118.143C99.2563 117.624 99.6545 117.314 100.197 117.212C100.567 117.143 101.027 117.492 101.051 117.834Z" fill="white"/>
<path d="M98.6893 119.014C98.5058 118.86 98.4642 118.662 98.5084 118.436C98.6359 118.607 98.7023 118.798 98.6893 119.014Z" fill="#3B2B0D"/>
<path d="M79.8828 126.203C80.1457 125.833 80.5361 125.756 80.9031 125.641C81.0215 125.603 81.1738 125.564 81.2467 125.706C81.3 125.812 81.3143 125.945 81.3156 126.066C81.3169 126.148 81.2831 126.243 81.2323 126.31C80.9838 126.637 80.8914 127.255 80.4034 127.167C80.0572 127.107 79.9726 126.57 79.8828 126.203Z" fill="white"/>
<path d="M116.436 111.317C116.396 111.32 116.342 111.339 116.316 111.32C116.023 111.105 115.882 110.778 115.816 110.449C115.758 110.158 116.038 110.01 116.256 109.88C116.401 109.792 116.565 109.733 116.725 109.675C116.925 109.602 117.192 109.809 117.152 110.005C117.054 110.475 116.848 110.895 116.549 111.269C116.526 111.297 116.474 111.301 116.436 111.317Z" fill="white"/>
<path d="M88.0274 122.941C87.9083 122.869 87.8351 122.771 87.8495 122.623C87.9096 122.73 87.9685 122.836 88.0274 122.941Z" fill="#34270D"/>
<path d="M83.4727 125.422C83.4974 125.265 83.5416 125.13 83.703 125.175C83.9555 125.244 84.1324 125.415 84.1884 125.681C84.2144 125.808 83.9203 126.139 83.7941 126.124C83.5976 126.1 83.5299 125.946 83.5026 125.773C83.4831 125.65 83.4805 125.524 83.4727 125.422Z" fill="white"/>
<path d="M109.215 115.387L109.32 115.365L109.295 115.468L109.215 115.387Z" fill="black"/>
<path d="M90.2156 80.9357C94.8629 80.9095 98.6708 84.6918 98.7267 89.3447C98.7762 93.4883 95.5865 97.9277 90.2508 97.9199C84.971 97.9107 81.7969 93.5341 81.8086 89.4441C81.8203 84.7729 85.567 80.9632 90.2156 80.9357Z" fill="black"/>
</svg>
