<svg width="184" height="185" viewBox="0 0 184 185" fill="none" xmlns="http://www.w3.org/2000/svg">
<rect y="0.355469" width="184" height="184" rx="3" fill="#090909"/>
<g clip-path="url(#clip0)">
<path d="M63.438 91.2254C67.9875 92.0369 71.1952 94.1702 71.1952 98.0142C71.1952 100.875 69.5054 103.352 67.0343 104.717C64.8243 105.912 61.8776 106.51 58.3663 106.51H46.6667V104.931C50.0039 104.59 50.35 104.376 50.35 100.79V84.5223C50.35 80.9355 49.7854 80.5526 46.7092 80.3373V78.7582H59.8842C63.1789 78.7582 65.2574 79.1849 66.9918 80.2516C68.5947 81.2764 69.6349 82.8993 69.6349 84.9908C69.6349 88.5358 66.2551 90.6691 63.438 91.2254ZM57.9332 90.6691C62.0496 90.6691 63.5675 88.9186 63.5675 85.7584C63.5675 82.044 61.0964 80.6364 58.7144 80.6364C57.6742 80.6364 56.895 80.9355 56.6339 81.1488C56.3304 81.4917 56.2433 82.0879 56.2433 82.9851V90.6711H57.9332V90.6691ZM56.2433 100.704C56.2433 103.778 57.2836 104.673 59.6231 104.673C62.0942 104.632 64.7373 102.582 64.7373 98.4409C64.7373 94.4713 62.6143 92.5074 57.7612 92.5074H56.2433V100.704Z" fill="#F9F8F4"/>
<path d="M109.032 107.022C107.863 107.022 106.909 106.638 106.345 106.125C105.738 105.613 105.434 105.015 105.218 104.546C103.57 105.613 101.447 107.022 100.623 107.022C96.8956 107.022 94.7302 104.161 94.7302 101.516C94.7302 99.2526 95.7704 98.2278 98.0674 97.3306C100.623 96.3915 104.048 95.3667 105.046 94.5134V92.6352C105.046 90.4141 104.222 89.176 102.358 89.176C101.621 89.176 101.014 89.5169 100.623 90.0293C100.103 90.7132 99.9293 91.5665 99.5833 92.8466C99.2797 93.999 98.5875 94.298 97.7193 94.298C96.5921 94.298 95.1633 93.2732 95.1633 92.077C95.1633 91.3093 95.6834 90.7531 96.6811 90.0712C98.6321 88.7912 101.188 87.5531 103.615 87.0406C105.349 87.0406 106.822 87.4255 108.079 88.2788C109.943 89.5588 110.463 91.3532 110.463 93.5304C110.463 95.6219 110.463 98.8239 110.463 100.915C110.463 102.965 111.155 103.477 111.85 103.477C112.283 103.477 112.716 103.35 113.193 103.134L113.669 104.586L109.032 107.022ZM105.046 96.2639C104.266 96.6906 103.485 97.1172 102.619 97.5878C101.275 98.2717 100.496 99.0393 100.496 100.491C100.496 102.881 102.186 103.737 103.139 103.737C103.746 103.737 104.351 103.695 105.046 103.053C105.046 101.045 105.046 98.2697 105.046 96.2639Z" fill="#F9F8F4"/>
<path d="M127.453 106.51V105.058C129.272 104.803 129.404 104.632 129.404 101.687V94.3837C129.404 91.3511 127.886 90.4121 126.37 90.4121C125.243 90.4121 124.29 90.8387 123.12 91.6941V102.026C123.12 104.63 123.294 104.801 125.071 105.056V106.508H115.017V105.056C117.271 104.672 117.53 104.63 117.53 101.854V92.9761C117.53 90.4141 117.184 90.2865 115.278 89.9017V88.5359C117.791 88.2368 120.783 87.6826 123.207 86.913C123.165 87.5111 123.12 89.0044 123.12 89.9874C123.986 89.3892 124.897 88.7492 125.893 88.1511C127.194 87.3835 128.016 87.0406 129.272 87.0406C132.784 87.0406 134.992 89.5587 134.992 93.9131V101.982C134.992 104.63 135.251 104.757 137.331 105.056V106.508H127.453V106.51Z" fill="#F9F8F4"/>
<path d="M92.8539 97.7871C91.3219 103.029 84.9044 107.704 79.5332 106.496C78.8634 106.342 76.3984 105.786 74.8238 103.605C71.4259 98.9037 74.4393 92.0052 78.6711 89.1062C81.2919 87.3098 84.6616 86.4684 87.7398 87.4294C89.0391 87.8362 90.2675 88.5539 91.2288 89.5289C91.4009 89.7023 91.3604 89.9894 91.156 90.123C89.6907 91.0661 88.8043 93.4287 86.5012 96.1044C83.4028 99.6972 81.4741 99.755 81.4963 100.138C81.5247 100.598 84.6454 99.4839 88.3085 96.88C89.5288 96.0147 91.2167 94.1206 92.5322 92.7847C92.7689 92.5435 93.1899 92.689 93.2203 93.024C93.3741 94.6928 93.0624 97.0813 92.8539 97.7871Z" fill="#EAB57F"/>
<path d="M77.0338 83.0991H75.6758V82.9435H75.9106C75.9976 82.9435 76.0583 82.9276 76.0927 82.8917C76.1271 82.8578 76.1454 82.806 76.1454 82.7362V79.1135C76.1454 78.9759 76.1373 78.8981 76.1191 78.8802C76.1008 78.8623 76.032 78.8543 75.9106 78.8543C75.6657 78.8543 75.4977 78.8981 75.4006 78.9839C75.3055 79.0696 75.1881 79.3029 75.0485 79.6817L74.8926 79.6558L75.1274 78.6729H77.6066L77.815 79.6558L77.6835 79.6817C77.5438 79.3188 77.4345 79.0915 77.3576 78.9958C77.2787 78.9021 77.1188 78.8543 76.8739 78.8543C76.6999 78.8543 76.6048 78.8623 76.5866 78.8802C76.5683 78.8981 76.5602 78.9839 76.5602 79.1394V82.7362C76.5602 82.806 76.5825 82.8578 76.625 82.8917C76.6675 82.9256 76.7242 82.9435 76.795 82.9435H77.0298V83.0991H77.0338Z" fill="#F9F8F4" stroke="#F9F8F4" stroke-width="0.4" stroke-miterlimit="10"/>
<path d="M83.3017 82.7359C83.3017 82.8057 83.3239 82.8575 83.3664 82.8914C83.4089 82.9253 83.4656 82.9433 83.5364 82.9433H83.668V83.0988H82.5185V82.9433H82.65C82.737 82.9433 82.7978 82.9273 82.8322 82.8914C82.8666 82.8575 82.8848 82.8057 82.8848 82.7359V80.8478H81.3447V82.7359C81.3447 82.8057 81.3669 82.8575 81.4094 82.8914C81.4519 82.9253 81.5086 82.9433 81.5794 82.9433H81.711V83.0988H80.5635V82.9433H80.693C80.78 82.9433 80.8407 82.9273 80.8751 82.8914C80.9095 82.8575 80.9277 82.8057 80.9277 82.7359V79.0354C80.9277 78.9676 80.9095 78.9158 80.8751 78.8799C80.8407 78.846 80.78 78.8281 80.693 78.8281H80.5877V78.6746H81.6847V78.8301H81.5794C81.5106 78.8301 81.4539 78.848 81.4094 78.8819C81.3649 78.9158 81.3447 78.9676 81.3447 79.0374V80.6923H82.8848V79.0374C82.8848 78.9696 82.8666 78.9178 82.8322 78.8819C82.7978 78.848 82.737 78.8301 82.65 78.8301H82.5448V78.6746H83.6417V78.8301H83.5364C83.4676 78.8301 83.4089 78.848 83.3664 78.8819C83.3219 78.9158 83.3017 78.9676 83.3017 79.0374V82.7359Z" fill="#F9F8F4" stroke="#F9F8F4" stroke-width="0.4" stroke-miterlimit="10"/>
<path d="M86.4121 78.8301V78.6746H88.9702L89.2576 79.5538L89.126 79.6057C88.9864 79.3465 88.8386 79.1531 88.6828 79.0235C88.527 78.8939 88.3529 78.8301 88.1607 78.8301H87.4301C87.3613 78.8301 87.3026 78.848 87.2601 78.8819C87.2155 78.9158 87.1953 78.9676 87.1953 79.0374V80.6404H87.9522C88.1263 80.6404 88.2517 80.5986 88.3307 80.5108C88.4096 80.4251 88.448 80.2955 88.448 80.122V79.9685H88.6039V81.4938H88.448V81.3901C88.448 81.2007 88.4096 81.0531 88.3307 80.9495C88.2517 80.8458 88.1263 80.794 87.9522 80.794H87.1953V82.7339C87.1953 82.8037 87.2176 82.8555 87.2601 82.8894C87.3026 82.9233 87.3592 82.9413 87.4301 82.9413H88.108C88.3691 82.9413 88.5917 82.8675 88.7739 82.7219C88.956 82.5764 89.0997 82.3471 89.2049 82.0361L89.3365 82.0879L89.0491 83.0968H86.3858V82.9413H86.5416C86.6286 82.9413 86.6894 82.9253 86.7238 82.8894C86.7582 82.8555 86.7764 82.8037 86.7764 82.7339V79.0354C86.7764 78.9676 86.7582 78.9158 86.7238 78.8799C86.6894 78.846 86.6286 78.8281 86.5416 78.8281H86.4121V78.8301Z" fill="#F9F8F4" stroke="#F9F8F4" stroke-width="0.4" stroke-miterlimit="10"/>
<path d="M100.646 79.7093C100.646 80.0543 100.55 80.3214 100.358 80.5108C100.166 80.7002 99.9494 80.8119 99.7066 80.8478L100.49 82.7618C100.524 82.8316 100.563 82.8775 100.607 82.9034C100.65 82.9293 100.698 82.9413 100.751 82.9413H100.907V83.0968H100.176L99.3139 80.8717H98.7129V82.7339C98.7129 82.8037 98.7351 82.8555 98.7776 82.8894C98.8201 82.9233 98.8768 82.9413 98.9476 82.9413H99.1035V83.0968H97.9034V82.9413H98.0592C98.1462 82.9413 98.2069 82.9253 98.2413 82.8894C98.2757 82.8555 98.2939 82.8037 98.2939 82.7339V79.0354C98.2939 78.9676 98.2757 78.9158 98.2413 78.8799C98.2069 78.846 98.1462 78.8281 98.0592 78.8281H97.9034V78.6746H99.3908C99.7916 78.6746 100.099 78.7603 100.318 78.9338C100.536 79.1052 100.646 79.3644 100.646 79.7093ZM98.7149 80.7182H99.2897C99.5507 80.7182 99.7673 80.6404 99.9413 80.4849C100.115 80.3294 100.202 80.0882 100.202 79.7612C100.202 79.4681 100.123 79.2388 99.9676 79.0753C99.8118 78.9118 99.5669 78.8301 99.237 78.8301H98.9497C98.8808 78.8301 98.8242 78.848 98.7797 78.8819C98.7351 78.9158 98.7149 78.9676 98.7149 79.0374V80.7182Z" fill="#F9F8F4" stroke="#F9F8F4" stroke-width="0.4" stroke-miterlimit="10"/>
<path d="M106.602 80.8737C106.602 81.5815 106.462 82.1378 106.185 82.5425C105.906 82.9473 105.56 83.1506 105.141 83.1506C104.74 83.1506 104.396 82.9433 104.111 82.5286C103.823 82.1139 103.679 81.5636 103.679 80.8737C103.679 80.2018 103.815 79.6575 104.084 79.2448C104.353 78.8301 104.706 78.6227 105.141 78.6227C105.592 78.6227 105.95 78.8421 106.211 79.2827C106.47 79.7213 106.602 80.2517 106.602 80.8737ZM104.173 80.8737C104.173 81.6154 104.264 82.1537 104.446 82.4907C104.629 82.8276 104.859 82.9951 105.139 82.9951C105.434 82.9951 105.669 82.8356 105.843 82.5166C106.017 82.1976 106.104 81.6493 106.104 80.8737C106.104 80.2537 106.029 79.7532 105.881 79.3724C105.734 78.9936 105.485 78.8022 105.137 78.8022C104.841 78.8022 104.606 78.9756 104.432 79.3206C104.26 79.6655 104.173 80.1839 104.173 80.8737Z" fill="#F9F8F4" stroke="#F9F8F4" stroke-width="0.4" stroke-miterlimit="10"/>
<path d="M111.305 81.442H110.131L109.897 82.4249C109.878 82.5107 109.87 82.5804 109.87 82.6323C109.87 82.7021 109.882 82.7699 109.909 82.8396C109.935 82.9094 110.008 82.9433 110.131 82.9433H110.21V83.0988H109.245V82.9433H109.324C109.393 82.9433 109.455 82.9214 109.506 82.8795C109.559 82.8376 109.593 82.7639 109.611 82.6602L110.629 78.7025L111.02 78.5729L112.011 82.6602C112.046 82.7639 112.09 82.8376 112.141 82.8795C112.194 82.9234 112.254 82.9433 112.323 82.9433H112.402V83.0988H111.279V82.9433H111.384C111.489 82.9433 111.55 82.9214 111.566 82.8795C111.582 82.8376 111.593 82.7978 111.593 82.7639C111.593 82.6961 111.584 82.6343 111.566 82.5824L111.305 81.442ZM110.757 79.1392H110.73L110.182 81.2865H111.279L110.757 79.1392Z" fill="#F9F8F4" stroke="#F9F8F4" stroke-width="0.4" stroke-miterlimit="10"/>
<path d="M116.502 80.9775C116.033 80.7702 115.711 80.5888 115.537 80.4352C115.363 80.2797 115.276 80.0385 115.276 79.7115C115.276 79.4523 115.385 79.2071 115.602 78.9738C115.818 78.7405 116.128 78.6249 116.529 78.6249C116.703 78.6249 116.869 78.6508 117.024 78.7026C117.18 78.7724 117.294 78.8063 117.364 78.8063C117.417 78.8063 117.464 78.7943 117.508 78.7684C117.551 78.7425 117.591 78.6947 117.626 78.6269L117.731 79.6876L117.599 79.7394C117.443 79.3765 117.281 79.1313 117.116 79.0017C116.95 78.8721 116.737 78.8083 116.476 78.8083C116.146 78.8083 115.919 78.9 115.798 79.0795C115.677 79.2609 115.616 79.4543 115.616 79.6616C115.616 79.8511 115.673 80.0026 115.786 80.1142C115.899 80.2259 116.207 80.3954 116.713 80.6187C117.13 80.7861 117.431 80.9775 117.613 81.1949C117.796 81.4102 117.887 81.6654 117.887 81.9605C117.887 82.2715 117.777 82.5487 117.561 82.7899C117.342 83.0311 117.026 83.1528 116.608 83.1528C116.433 83.1528 116.278 83.1189 116.138 83.0491C115.982 82.9973 115.859 82.9713 115.772 82.9713C115.719 82.9713 115.666 82.9893 115.616 83.0232C115.563 83.0571 115.503 83.1009 115.434 83.1528L115.225 81.8847L115.381 81.8329C115.503 82.2635 115.673 82.5606 115.891 82.7261C116.108 82.8896 116.357 82.9713 116.636 82.9713C116.931 82.9713 117.154 82.8856 117.302 82.7121C117.449 82.5407 117.524 82.2895 117.524 81.9625C117.524 81.791 117.441 81.6215 117.275 81.458C117.107 81.2926 116.85 81.1331 116.502 80.9775Z" fill="#F9F8F4" stroke="#F9F8F4" stroke-width="0.4" stroke-miterlimit="10"/>
<path d="M123.007 83.0989H121.649V82.9434H121.883C121.97 82.9434 122.031 82.9274 122.065 82.8915C122.1 82.8576 122.118 82.8058 122.118 82.736V79.1133C122.118 78.9757 122.11 78.898 122.092 78.88C122.074 78.8621 122.005 78.8541 121.883 78.8541C121.638 78.8541 121.47 78.898 121.375 78.9837C121.28 79.0694 121.163 79.3027 121.023 79.6815L120.867 79.6556L121.102 78.6727H123.581L123.79 79.6556L123.66 79.6815C123.521 79.3187 123.411 79.0914 123.334 78.9957C123.255 78.902 123.096 78.8541 122.851 78.8541C122.677 78.8541 122.582 78.8621 122.563 78.88C122.545 78.898 122.537 78.9837 122.537 79.1392V82.736C122.537 82.8058 122.559 82.8576 122.602 82.8915C122.644 82.9254 122.701 82.9434 122.772 82.9434H123.007V83.0989Z" fill="#F9F8F4" stroke="#F9F8F4" stroke-width="0.4" stroke-miterlimit="10"/>
<path d="M126.64 78.8301V78.6746H129.198L129.485 79.5538L129.355 79.6057C129.216 79.3465 129.068 79.1531 128.912 79.0235C128.756 78.8939 128.582 78.8301 128.39 78.8301H127.66C127.591 78.8301 127.534 78.848 127.49 78.8819C127.445 78.9158 127.425 78.9676 127.425 79.0374V80.6404H128.182C128.356 80.6404 128.481 80.5986 128.56 80.5108C128.639 80.4251 128.677 80.2955 128.677 80.122V79.9685H128.833V81.4938H128.677V81.3901C128.677 81.2007 128.639 81.0531 128.56 80.9495C128.481 80.8458 128.356 80.794 128.182 80.794H127.425V82.7339C127.425 82.8037 127.447 82.8555 127.49 82.8894C127.532 82.9233 127.589 82.9413 127.66 82.9413H128.337C128.599 82.9413 128.821 82.8675 129.003 82.7219C129.185 82.5764 129.329 82.3471 129.434 82.0361L129.566 82.0879L129.279 83.0968H126.615V82.9413H126.771C126.858 82.9413 126.919 82.9253 126.953 82.8894C126.988 82.8555 127.006 82.8037 127.006 82.7339V79.0354C127.006 78.9676 126.988 78.9158 126.953 78.8799C126.919 78.846 126.858 78.8281 126.771 78.8281H126.64V78.8301Z" fill="#F9F8F4" stroke="#F9F8F4" stroke-width="0.4" stroke-miterlimit="10"/>
<path d="M132.725 79.0354C132.725 78.9676 132.707 78.9158 132.672 78.8799C132.638 78.846 132.577 78.8281 132.49 78.8281H132.334V78.6746H133.508C134.046 78.6746 134.477 78.848 134.799 79.1929C135.121 79.5379 135.283 80.0722 135.283 80.7959C135.283 81.5895 135.127 82.1717 134.813 82.5425C134.5 82.9134 134.038 83.0988 133.429 83.0988H132.306V82.9433H132.488C132.575 82.9433 132.636 82.9273 132.67 82.8914C132.705 82.8575 132.723 82.8057 132.723 82.7359V79.0354H132.725ZM134.787 80.8478C134.787 80.1061 134.674 79.5857 134.447 79.2827C134.22 78.9816 133.907 78.8301 133.508 78.8301C133.387 78.8301 133.295 78.848 133.235 78.8819C133.174 78.9158 133.144 78.9676 133.144 79.0374V82.7359C133.144 82.8057 133.17 82.8575 133.223 82.8914C133.275 82.9253 133.344 82.9433 133.431 82.9433C133.814 82.9433 134.135 82.8017 134.396 82.5166C134.658 82.2315 134.787 81.6752 134.787 80.8478Z" fill="#F9F8F4" stroke="#F9F8F4" stroke-width="0.4" stroke-miterlimit="10"/>
</g>
<defs>
<clipPath id="clip0">
<rect width="90.6667" height="28.6667" fill="white" transform="translate(46.6667 78.3552)"/>
</clipPath>
</defs>
</svg>
