<svg width="184" height="185" viewBox="0 0 184 185" fill="none" xmlns="http://www.w3.org/2000/svg">
<rect y="0.491943" width="184" height="184" rx="3" fill="#090909"/>
<g clip-path="url(#clip0)">
<path d="M76.9386 85.0782V88.0258C76.9386 91.631 76.2273 92.9508 72.8355 92.9508H66.7114V71.269H72.7931C76.0577 71.269 76.769 72.5888 76.769 76.194V78.8105C76.769 80.1073 76.4675 81.027 75.3511 81.6386V81.9191C76.4911 82.6042 76.9386 83.6205 76.9386 85.0782ZM71.2479 75.4169V80.3188H71.6766C72.2372 80.3188 72.3644 80.1073 72.3644 79.5417V76.2676C72.3644 75.656 72.2137 75.4169 71.6578 75.4169H71.2479ZM72.4068 84.3746C72.4068 83.809 72.2985 83.5745 71.7426 83.5745H71.2479V88.7616H71.719C72.2561 88.7616 72.4068 88.55 72.4068 87.9385V84.3746Z" fill="#3A95FF"/>
<path d="M76.9386 107.771V110.719C76.9386 114.324 76.2273 115.644 72.8355 115.644H66.7114V93.9623H72.7931C76.0577 93.9623 76.769 95.2821 76.769 98.8873V101.504C76.769 102.801 76.4675 103.72 75.3511 104.332V104.612C76.4911 105.298 76.9386 106.314 76.9386 107.771ZM71.2479 98.1101V103.012H71.6766C72.2372 103.012 72.3644 102.801 72.3644 102.235V98.9608C72.3644 98.3492 72.2137 98.1101 71.6578 98.1101H71.2479ZM72.4068 107.068C72.4068 106.502 72.2985 106.268 71.7426 106.268H71.2479V111.455H71.719C72.2561 111.455 72.4068 111.243 72.4068 110.632V107.068Z" fill="#F9F8F4"/>
<path d="M82.417 65.4889V70.0597H85.1681V74.1616H82.417V78.875H85.2341V83.0228H77.8852V61.3411H85.2341V65.4889H82.417Z" fill="#F9F8F4"/>
<path d="M82.417 88.3432V92.9141H85.1681V97.0159H82.417V101.729H85.2341V105.877H77.8852V84.1954H85.2341V88.3432H82.417Z" fill="#3A95FF"/>
<path d="M82.417 110.807V115.377H85.1681V119.479H82.417V124.193H85.2341V128.34H77.8852V106.659H85.2341V110.807H82.417Z" fill="#F9F8F4"/>
<path d="M92.7294 89.5801H90.5153L90.2986 92.9508H85.9176L87.7218 71.269H95.5229L97.3083 92.9508H92.9461L92.7294 89.5801ZM92.4515 85.4093L91.8061 75.7709H91.4433L90.798 85.4093H92.4515Z" fill="#3A95FF"/>
<path d="M92.7294 112.471H90.5153L90.2986 115.842H85.9176L87.7218 94.1601H95.5229L97.3083 115.842H92.9461L92.7294 112.471ZM92.4515 108.3L91.8061 98.662H91.4433L90.798 108.3H92.4515Z" fill="#F9F8F4"/>
<path d="M106.862 60.1269H104.304V77.6609H99.7909V60.1269H97.2329V55.9791H106.857V60.1269H106.862Z" fill="#F9F8F4"/>
<path d="M106.862 82.9261H104.304V100.46H99.7909V82.9261H97.2329V78.7783H106.857V82.9261H106.862Z" fill="#3A95FF"/>
<path d="M106.862 105.652H104.304V123.186H99.7909V105.652H97.2329V101.504H106.857V105.652H106.862Z" fill="#F9F8F4"/>
<path d="M113.381 73.3797V70.2941C113.381 69.6825 113.165 69.494 112.821 69.494C112.477 69.494 112.26 69.6825 112.26 70.2941V72.9106C112.26 75.4076 117.805 74.35 117.805 79.652V82.5766C117.805 86.2048 115.869 87.4786 112.821 87.4786C109.768 87.4786 107.856 86.2048 107.856 82.5766V79.4634H112.218V82.549C112.218 83.1606 112.434 83.3491 112.797 83.3491C113.118 83.3491 113.358 83.1606 113.358 82.549V79.9325C113.358 77.4355 107.837 78.4932 107.837 73.1911V70.2665C107.837 66.6383 109.773 65.3646 112.802 65.3646C115.854 65.3646 117.744 66.6383 117.744 70.2665V73.3797H113.381Z" fill="#F9F8F4"/>
<path d="M113.381 96.4961V93.4105C113.381 92.7989 113.165 92.6104 112.821 92.6104C112.477 92.6104 112.26 92.7989 112.26 93.4105V96.0271C112.26 98.524 117.805 97.4664 117.805 102.768V105.693C117.805 109.321 115.869 110.595 112.821 110.595C109.768 110.595 107.856 109.321 107.856 105.693V102.58H112.218V105.665C112.218 106.277 112.434 106.466 112.797 106.466C113.118 106.466 113.358 106.277 113.358 105.665V103.049C113.358 100.552 107.837 101.61 107.837 96.3076V93.3829C107.837 89.7548 109.773 88.481 112.802 88.481C115.854 88.481 117.744 89.7548 117.744 93.3829V96.4961H113.381Z" fill="#3A95FF"/>
</g>
<defs>
<clipPath id="clip0">
<rect width="52.6667" height="72.6667" fill="white" transform="translate(65.9995 55.8251)"/>
</clipPath>
</defs>
</svg>
