<svg width="184" height="185" viewBox="0 0 184 185" fill="none" xmlns="http://www.w3.org/2000/svg">
<rect y="0.355469" width="184" height="184" rx="3" fill="#0C0C0C"/>
<g clip-path="url(#clip0)">
<path d="M80.4654 76.0186H84.3448L82.4411 83.3589C82.2922 83.9174 82.1851 84.3557 82.1199 84.6722C82.0546 84.9887 82.0095 85.2663 81.9861 85.5066C81.9225 86.1328 82.0463 86.6203 82.3591 86.9706C82.6719 87.321 83.142 87.4953 83.766 87.4953C85.2531 87.4953 86.5144 85.4914 87.5482 81.4819L87.5817 81.3414L88.9551 76.0186H92.8344L90.6948 84.3185V84.3287C90.2281 86.1261 89.743 87.3988 89.2395 88.1435C88.6021 89.0964 87.7674 89.8208 86.7319 90.3201C85.6964 90.8193 84.512 91.0698 83.1754 91.0698C81.4507 91.0698 80.1125 90.6518 79.1573 89.8157C78.2021 88.9796 77.7956 87.8693 77.9378 86.4849C77.9796 86.0719 78.0766 85.5202 78.2255 84.8262C78.3744 84.134 78.5818 83.2742 78.8445 82.2486L80.4654 76.0186Z" fill="#F9F8F4"/>
<path d="M93.5745 90.6399L96.4769 79.4137H93.2383L94.1383 76.0186H104.346L103.446 79.4137H100.356L97.4538 90.6399H93.5745Z" fill="#F9F8F4"/>
<path d="M109.905 91.0292C108.871 91.0292 107.946 90.8853 107.13 90.5993C106.314 90.3132 105.606 89.8834 105.005 89.3113C104.376 88.6986 103.915 87.9438 103.619 87.0434C103.323 86.1447 103.226 85.1884 103.329 84.1763C103.441 83.0846 103.711 82.0641 104.141 81.1146C104.571 80.1651 105.153 79.3053 105.89 78.5319C106.754 77.6128 107.766 76.9088 108.925 76.4196C110.084 75.9305 111.31 75.6885 112.607 75.6885C114.778 75.6885 116.469 76.3215 117.681 77.5858C118.89 78.8517 119.392 80.4951 119.186 82.5194C119.076 83.6042 118.801 84.6248 118.365 85.5811C117.928 86.5373 117.346 87.3971 116.615 88.1638C115.723 89.1031 114.71 89.8157 113.574 90.3014C112.438 90.7871 111.215 91.0292 109.905 91.0292ZM111.995 79.2647C110.817 79.2647 109.785 79.6946 108.901 80.5527C108.018 81.4108 107.511 82.477 107.381 83.7481C107.265 84.8736 107.491 85.7723 108.058 86.4442C108.625 87.1161 109.438 87.4529 110.497 87.4529C111.655 87.4529 112.685 87.0078 113.585 86.1193C114.485 85.2307 115.001 84.1458 115.131 82.868C115.238 81.8153 114.997 80.9521 114.408 80.2768C113.82 79.6015 113.015 79.2647 111.995 79.2647Z" fill="#F9F8F4"/>
<path d="M83.0273 107.966L86.7996 93.3428H91.2125L93.5261 100.565C93.5462 100.624 93.5779 100.727 93.6231 100.874C93.8774 101.666 94.0413 102.359 94.1116 102.951L94.15 102.582C94.1768 102.316 94.222 102.022 94.2839 101.699C94.3458 101.375 94.4311 100.984 94.5365 100.526L96.385 93.3445H100.244L96.4719 107.968H92.2263L89.7471 100.526C89.5648 99.9858 89.431 99.5407 89.3457 99.1869C89.2603 98.8332 89.1918 98.4812 89.1432 98.1274L89.1014 98.537C89.0747 98.8027 89.0345 99.0854 88.981 99.3816C88.9274 99.6777 88.8455 100.072 88.7367 100.565L86.8849 107.966H83.0273Z" fill="#F9F8F4"/>
<path d="M106.839 108.355C105.805 108.355 104.88 108.211 104.064 107.925C103.247 107.639 102.54 107.209 101.939 106.637C101.31 106.024 100.848 105.269 100.552 104.369C100.256 103.47 100.159 102.514 100.263 101.502C100.375 100.41 100.644 99.3897 101.074 98.4402C101.504 97.4908 102.086 96.631 102.824 95.8575C103.687 94.9385 104.699 94.2344 105.859 93.7453C107.018 93.2562 108.246 93.0107 109.542 93.0107C111.713 93.0107 113.405 93.6437 114.616 94.908C115.825 96.174 116.327 97.8174 116.121 99.8416C116.011 100.927 115.737 101.947 115.3 102.903C114.863 103.86 114.281 104.719 113.55 105.486C112.659 106.425 111.645 107.138 110.509 107.624C109.371 108.113 108.149 108.355 106.839 108.355ZM108.928 96.5904C107.75 96.5904 106.718 97.0202 105.835 97.8783C104.952 98.7381 104.445 99.8027 104.314 101.074C104.199 102.199 104.425 103.098 104.992 103.77C105.559 104.442 106.372 104.779 107.431 104.779C108.589 104.779 109.619 104.333 110.519 103.445C111.419 102.556 111.934 101.471 112.065 100.194C112.172 99.1409 111.931 98.2778 111.342 97.6025C110.753 96.9272 109.949 96.5904 108.928 96.5904Z" fill="#F9F8F4"/>
<path d="M115.289 107.966L121.204 93.3425H125.498L125.888 99.0056C125.912 99.3525 125.928 99.7164 125.94 100.099C125.952 100.481 125.957 100.879 125.962 101.292C126.064 100.999 126.193 100.685 126.35 100.348C126.505 100.011 126.721 99.5895 126.997 99.0834L130.171 93.3408H134.435L133.287 107.964H129.724L130.396 100.993C130.437 100.6 130.483 100.212 130.535 99.8281C130.587 99.4439 130.646 99.0614 130.713 98.6738C130.517 99.1664 130.207 99.7824 129.784 100.522C129.704 100.669 129.644 100.778 129.602 100.852L125.579 107.964H123.238L122.611 100.862C122.576 100.503 122.547 100.141 122.529 99.779C122.511 99.4168 122.496 99.0513 122.487 98.6857C122.37 99.119 122.251 99.5285 122.129 99.9144C122.007 100.3 121.887 100.661 121.768 100.993L119.053 107.964H115.289V107.966Z" fill="#F9F8F4"/>
<path d="M139.256 104.71H143.727L142.891 107.966H134.559L138.331 93.3428H146.663L145.795 96.7193H141.324L140.715 99.1057H144.862L144.054 102.282H139.888L139.256 104.71Z" fill="#F9F8F4"/>
<path d="M81.0676 107.964H65.8063L63.4961 78.8242C63.4961 78.8174 63.4693 78.4535 63.466 78.4468C63.3087 76.7323 59.8008 76.0146 59.8008 76.0146H72.8439C73.3022 76.0146 73.687 76.3633 73.7372 76.8253L76.6161 103.885C76.6161 103.887 76.6161 103.892 76.6178 103.895C76.9942 107.37 81.0676 107.964 81.0676 107.964Z" fill="#FBB040"/>
<path d="M64.4119 90.626C64.4119 90.626 61.5965 91.2268 59.2027 95.4496L52.5047 107.265C52.2588 107.698 51.8038 107.965 51.3103 107.965H37.332C37.332 107.965 40.6158 106.882 41.7634 104.997L49.9084 91.3774C50.1878 90.9103 50.6863 90.626 51.225 90.626H64.4119Z" fill="#FBB040"/>
</g>
<defs>
<clipPath id="clip0">
<rect width="109.333" height="32.6667" fill="white" transform="translate(37.332 75.6885)"/>
</clipPath>
</defs>
</svg>
