<svg width="184" height="185" viewBox="0 0 184 185" fill="none" xmlns="http://www.w3.org/2000/svg">
<rect y="0.491943" width="184" height="184" rx="3" fill="#090909"/>
<g clip-path="url(#clip0)">
<path d="M124.253 90.8309C123.969 92.5747 123.213 93.5556 122.035 94.2095C120.261 95.1974 118.643 94.888 117.52 93.1653C116.408 91.4602 115.483 89.6355 114.412 87.9023C114.024 87.2765 114.204 87.048 114.738 86.6823C116.917 85.1917 116.903 85.1706 118.217 87.4558C118.768 88.4156 119.284 89.4 119.887 90.3246C120.337 91.0172 120.888 91.6641 121.876 91.1719C122.856 90.6797 123.182 89.8957 122.884 88.8515C122.441 87.3152 121.581 85.9722 120.705 84.6854C119.776 83.3213 120.874 83.135 121.595 82.7096C122.312 82.2877 122.95 81.4264 123.73 82.8889C125.902 86.946 128.304 90.8766 130.507 94.9161C133.927 101.192 131.796 108.923 125.757 112.456C119.7 116 112.018 114.017 108.39 107.9C106.013 103.892 103.802 99.7854 101.422 95.781C100.607 94.4169 101.744 94.315 102.374 93.9739C103.026 93.6224 103.695 92.4622 104.53 93.995C106.758 98.0873 109.072 102.137 111.439 106.149C113.743 110.051 118.244 111.728 122.364 110.35C126.446 108.986 129.059 104.989 128.764 100.587C128.671 99.2194 128.269 97.9396 127.617 96.7549C126.581 94.8669 125.493 93.0106 124.253 90.8309Z" fill="#F9F8F4"/>
<path d="M55.5478 101.441C54.5325 99.6448 53.6143 98.0416 52.7168 96.4279C49.2899 90.2719 51.0536 83.1807 56.8333 79.8408C62.613 76.5008 69.4877 78.5611 73.0082 84.6925C75.1808 88.4789 77.2702 92.3216 79.5398 96.0482C80.4685 97.574 79.2211 97.6373 78.5246 98.1225C77.7588 98.6569 77.1455 99.1737 76.4248 97.8272C74.3423 93.9212 72.0969 90.1067 69.8862 86.2745C67.3775 81.9291 62.5333 80.4736 58.4653 82.8116C54.335 85.1847 53.0806 90.2543 55.5651 94.6771C57.703 98.4846 59.8964 102.26 62.0274 106.075C62.2665 106.504 63.1051 107.133 62.3635 107.516C61.57 107.928 60.8909 109.264 59.7751 108.427C59.0995 107.921 59.2381 108.346 59.0579 108.736C57.5263 112.076 54.0578 112.544 51.7015 109.742C51.4763 109.475 51.2719 109.19 51.0917 108.895C50.0314 107.158 49.5255 105.295 50.5893 103.424C51.6115 101.631 53.292 101.002 55.5478 101.441ZM55.7834 103.343C54.5775 103.312 53.5242 104.307 53.5034 105.491C53.4791 106.845 54.7369 108.367 55.8943 108.23C57.062 108.093 57.9768 107.478 58.1015 106.156C58.2228 104.845 56.9719 103.375 55.7834 103.343Z" fill="#F9F8F4"/>
<path d="M87.1177 112.358C86.8024 114.038 86.2584 115.075 85.1565 115.782C83.2195 117.023 81.487 116.752 80.2396 114.822C79.1654 113.166 78.2575 111.401 77.2284 109.71C76.8785 109.137 76.9443 108.859 77.5022 108.466C79.7025 106.915 79.6852 106.891 81.0019 109.204C81.5216 110.115 82.0206 111.036 82.575 111.922C83.0913 112.744 83.6977 113.49 84.8134 112.864C85.8599 112.277 86.0678 111.338 85.5896 110.318C84.9451 108.951 84.2729 107.58 83.4378 106.332C82.5577 105.013 83.7081 104.866 84.3457 104.514C85.0075 104.148 85.7109 103.051 86.4801 104.588C87.5474 106.718 88.8329 108.736 89.9729 110.832C90.264 111.37 91.2585 112.069 89.9591 112.597C89.0893 112.952 88.2196 114.562 87.1177 112.358Z" fill="#F9F8F4"/>
<path d="M86.5921 98.279C85.5757 99.2739 83.8573 98.2572 83.7565 96.8385C83.727 96.4228 83.7083 96.0089 83.7083 95.5947C83.7083 94.1181 83.2301 93.1162 81.9238 92.3216C80.4396 91.4197 79.0289 90.3909 77.5219 89.3085C76.8802 88.8476 76.9276 87.7317 77.5614 87.26C78.2345 86.7591 78.883 86.3606 79.7131 86.693C80.8773 87.157 81.7817 88.2891 82.842 89.1575C83.2128 88.5598 82.9841 88.0571 82.9148 87.5859C82.5729 85.2199 82.4771 84.596 83.7258 83.7676C84.6025 83.186 85.763 83.8322 85.8822 84.8775C86.1913 87.5871 86.4952 90.2574 86.7991 92.9298C86.858 93.4537 86.8857 93.981 86.9516 94.5014C87.2291 96.7041 87.3369 97.5498 86.5921 98.279Z" fill="#F9F8F4"/>
<path d="M95.0979 79.7775C95.0979 76.7892 97.7105 74.2438 100.711 74.3C103.525 74.3528 105.795 76.6345 105.815 79.433C105.836 82.4002 103.22 85.023 100.261 85.0019C97.3502 84.9808 95.0979 82.7061 95.0979 79.7775ZM102.548 80.1396C102.558 78.6806 101.37 77.3025 100.233 77.3728C99.1104 77.4431 98.4105 78.09 98.31 79.2431C98.2026 80.4666 99.4431 81.9995 100.531 81.9502C101.723 81.8975 102.437 81.2225 102.548 80.1396Z" fill="#F9F8F4"/>
<path d="M114.163 68.6361C114.163 65.6302 116.741 63.1094 119.763 63.1587C122.597 63.2044 124.863 65.4685 124.877 68.267C124.894 71.2483 122.302 73.8535 119.333 73.8499C116.436 73.8464 114.163 71.5542 114.163 68.6361ZM121.627 68.9139C121.62 67.5217 120.383 66.0837 119.284 66.2068C118.113 66.3334 117.361 67.0154 117.368 68.2775C117.375 69.501 118.564 70.8194 119.614 70.7772C120.823 70.7245 121.505 70.0354 121.627 68.9139Z" fill="#F9F8F4"/>
<path d="M99.048 104.609C99.048 107.105 97.3917 109.183 94.8241 109.914C92.7832 110.494 90.5898 109.549 89.3008 107.625C88.8781 106.993 88.8919 106.666 89.578 106.289C91.1408 105.428 92.6758 104.511 94.2108 103.593C94.5296 103.403 95.1013 103.287 94.9385 102.788C94.8276 102.454 94.4326 102.127 94.0895 101.979C92.6862 101.378 91.5912 102.099 91.1581 103.291C90.6314 104.732 89.526 104.458 88.6286 104.461C87.6792 104.465 88.1747 103.568 88.2959 103.129C88.8919 100.949 92.3085 98.9487 94.6925 99.3178C97.2046 99.7116 99.048 101.948 99.048 104.609ZM96.0577 104.816C94.9246 105.502 93.9163 106.11 92.8144 106.778C93.5767 107.636 94.3078 107.875 95.1949 107.393C96.1339 106.88 96.4631 106.1 96.0577 104.816Z" fill="#F9F8F4"/>
<path d="M64.9104 116.383C67.3151 116.418 69.3664 118.257 69.8065 120.781C70.2604 123.362 68.7601 125.833 66.137 126.835C63.8916 127.693 61.4453 126.793 60.1009 124.701C59.6747 124.037 59.7509 123.727 60.4231 123.355C61.9928 122.49 63.5036 121.519 65.0732 120.658C66.2513 120.011 65.7073 119.53 64.9797 119.09C63.9367 118.461 62.4467 119.009 61.9062 120.458C61.3725 121.889 60.1979 121.502 59.3178 121.558C58.5832 121.604 58.9643 120.739 59.0717 120.303C59.5984 118.253 62.4675 116.348 64.9104 116.383ZM63.6803 123.952C65.1772 125.049 66.7157 124.701 67.0379 123.196C67.1072 122.88 67.1107 122.441 66.9409 122.205C66.6637 121.815 66.3414 122.212 66.0885 122.381C65.2915 122.905 64.3456 123.2 63.6803 123.952Z" fill="#F9F8F4"/>
<path d="M107.354 95.542C107.479 95.0146 107.922 94.5365 106.744 94.6525C105.985 94.7263 105.67 93.3903 105.351 92.6274C105.095 92.0122 105.947 91.9032 106.345 91.6606C108.123 90.5778 109.921 89.5266 111.737 88.5105C112.125 88.2926 112.614 87.5508 113.033 88.2363C113.456 88.9289 114.53 89.7832 113.969 90.4582C113.012 91.6044 114.256 91.2879 114.471 91.404C116.2 92.3321 117.073 94.1708 116.547 95.9463C115.923 98.0381 113.106 99.8522 110.798 99.6483C109.079 99.4971 107.537 97.9713 107.357 96.2381C107.333 95.999 107.354 95.7634 107.354 95.542ZM111.037 96.4736C112.479 96.4525 113.685 95.324 113.57 94.1743C113.452 92.9966 112.822 92.202 111.581 92.1669C110.382 92.1317 109.09 93.3798 109.211 94.4767C109.336 95.6369 109.953 96.4174 111.037 96.4736Z" fill="#F9F8F4"/>
<path d="M69.491 98.8784C69.4737 99.3354 68.9332 99.9366 70.1529 99.7643C70.8112 99.6694 71.2409 101.023 71.5112 101.8C71.7572 102.51 70.8216 102.587 70.3816 102.858C68.6594 103.92 66.9096 104.939 65.1424 105.92C64.7578 106.135 64.2865 106.908 63.8638 106.258C63.4064 105.551 62.3357 104.76 62.9351 103.913C63.4792 103.143 63.1153 103.308 62.651 103.094C59.7334 101.744 59.283 98.6252 61.6669 96.435C63.9469 94.3396 66.8472 94.1497 68.4723 96.0025C69.1861 96.8111 69.6123 97.7498 69.491 98.8784ZM65.7522 97.9045C64.4563 97.9221 63.1638 99.0999 63.2609 100.193C63.3717 101.434 64.0474 102.268 65.3503 102.271C66.5492 102.275 67.8105 100.984 67.665 99.912C67.5125 98.7659 66.8576 98.0205 65.7522 97.9045Z" fill="#F9F8F4"/>
<path d="M69.7235 116.643C68.7914 116.306 68.7013 115.311 68.2231 114.622C67.8073 114.024 68.4345 113.834 68.8018 113.616C70.5863 112.558 72.3639 111.486 74.1761 110.487C74.63 110.238 75.1532 109.436 75.6314 109.967C76.217 110.617 77.0867 111.535 76.7853 112.337C76.5289 113.022 76.4596 112.973 77.0937 113.289C79.7479 114.618 80.1152 117.751 77.9253 119.797C75.8255 121.759 73.0257 122.029 71.3936 120.426C70.4165 119.466 70.0527 118.285 70.1566 116.932C70.2294 116.742 70.3645 116.52 70.0838 116.418C69.9972 116.394 69.8448 116.562 69.7235 116.643ZM74.1276 118.306C75.2433 118.078 76.3244 117.561 76.3556 116.169C76.3833 114.945 75.6695 113.968 74.3632 113.989C73.1227 114.01 72.0555 114.71 72.0208 116.081C71.9931 117.28 72.6896 118.162 74.1276 118.306Z" fill="#F9F8F4"/>
<path d="M110.188 68.7242C112.295 68.7664 113.91 70.4609 113.979 72.7004C113.993 73.1751 113.594 73.6813 114.658 73.7587C115.348 73.8079 115.798 75.0489 115.985 75.8611C116.131 76.4904 115.223 76.6099 114.762 76.8912C113.189 77.858 111.599 78.8002 109.977 79.6826C109.526 79.9287 109.014 80.7338 108.518 80.1573C107.957 79.5069 107.26 78.7404 107.416 77.7666C107.475 77.401 107.849 77.3201 107.253 76.9756C105.199 75.7943 104.464 74.1806 104.977 72.4192C105.538 70.4891 108.092 68.682 110.188 68.7242ZM112.17 74.1911C112.028 72.9255 111.439 71.934 110.185 71.927C108.979 71.92 107.905 72.595 107.836 73.9942C107.773 75.2458 108.504 76.2056 109.759 76.2162C110.978 76.2232 111.914 75.513 112.17 74.1911Z" fill="#F9F8F4"/>
<path d="M99.5401 95.5946C100.081 95.6544 100.167 96.0411 100.33 96.3259C102.499 100.112 104.641 103.913 106.831 107.689C107.208 108.343 107.122 108.631 106.494 109.042C104.339 110.459 104.356 110.487 103.109 108.293C101.293 105.108 99.4604 101.937 97.6863 98.7271C97.4125 98.2349 96.574 97.6689 97.1492 97.1029C97.8249 96.4279 98.7847 96.0517 99.5401 95.5946Z" fill="#F9F8F4"/>
<path d="M97.267 86.8968C96.716 87.7968 95.6349 88.0077 94.8276 88.5738C94.2108 89.0062 94.0583 88.3031 93.8574 87.9515C91.7194 84.2178 89.6335 80.4525 87.4505 76.7469C86.9065 75.8258 87.253 75.4074 88.0118 75.2317C88.7845 75.0559 89.4325 73.2629 90.3542 74.8203C92.6099 78.6173 94.7548 82.4846 96.9447 86.3202C97.0314 86.4714 97.1145 86.6226 97.267 86.8968Z" fill="#F9F8F4"/>
<path d="M129.984 89.3226C128.655 89.5908 130.232 86.6983 130.581 85.3879C130.614 85.263 130.64 85.1287 130.657 84.9842C130.802 83.7291 130.161 82.6814 128.983 82.1962C127.472 81.5704 126.658 82.6322 125.92 83.7361C123.997 81.3876 124.315 80.1958 127.129 79.1235C129.915 78.0617 132.846 79.7282 133.796 82.9169C134.631 85.726 132.833 88.746 129.984 89.3226Z" fill="#F9F8F4"/>
<path d="M70.8357 91.2809C71.3243 91.1684 71.404 91.6008 71.5564 91.8645C72.887 94.1743 74.1656 96.5193 75.5378 98.8045C75.9709 99.5288 75.711 99.7678 75.1358 100.137C73.0464 101.48 73.0568 101.501 71.8267 99.3354C70.8807 97.6725 70.0318 95.9392 68.9542 94.3712C68.0948 93.1161 68.3443 92.4727 69.6437 91.9629C70.063 91.8012 70.4407 91.5129 70.8357 91.2809Z" fill="#F9F8F4"/>
<path d="M73.1884 106.086C74.027 106.356 74.072 107.316 74.5468 107.903C74.9903 108.452 74.5675 108.736 74.1552 108.979C72.1177 110.174 70.0699 111.352 68.0394 112.558C67.6028 112.818 67.2043 113.071 66.9583 112.396C66.6949 111.672 65.5133 110.79 66.1613 110.325C68.3547 108.757 70.7698 107.509 73.1884 106.086Z" fill="#F9F8F4"/>
<path d="M118.106 79.3592C118.155 79.9569 117.77 80.0553 117.493 80.2206C115.507 81.3948 113.491 82.5163 111.543 83.7503C110.694 84.2883 110.348 83.8347 110.181 83.1914C110.019 82.5656 108.639 82.0101 109.97 81.2296C112.008 80.0307 114.042 78.8248 116.089 77.6541C116.717 77.2955 118.099 78.5823 118.106 79.3592Z" fill="#F9F8F4"/>
<path d="M68.5209 91.1439C67.6789 91.1193 67.1695 90.6728 67.1522 89.8712C67.1349 89.0661 67.6408 88.5704 68.4447 88.5458C69.1966 88.5212 69.6366 89.0204 69.6921 89.7235C69.7579 90.5216 69.3005 91.0138 68.5209 91.1439Z" fill="#F9F8F4"/>
<path d="M55.7834 103.343C56.9719 103.375 58.2228 104.844 58.1015 106.156C57.9803 107.481 57.062 108.093 55.8943 108.23C54.7335 108.367 53.4792 106.845 53.5034 105.491C53.5242 104.307 54.5776 103.312 55.7834 103.343Z" fill="black"/>
<path d="M102.548 80.1396C102.434 81.2224 101.723 81.8974 100.535 81.9537C99.4467 82.0029 98.2027 80.47 98.3136 79.2466C98.4141 78.0934 99.114 77.4465 100.237 77.3762C101.37 77.2989 102.558 78.6805 102.548 80.1396Z" fill="black"/>
<path d="M121.626 68.9139C121.505 70.0354 120.822 70.7245 119.616 70.7737C118.567 70.8194 117.378 69.4975 117.371 68.2741C117.364 67.0119 118.116 66.3299 119.287 66.2033C120.382 66.0873 121.619 67.5217 121.626 68.9139Z" fill="black"/>
<path d="M96.0578 104.816C96.4632 106.1 96.134 106.88 95.1984 107.393C94.3114 107.875 93.5768 107.636 92.8179 106.778C93.9198 106.11 94.9282 105.502 96.0578 104.816Z" fill="black"/>
<path d="M63.6803 123.952C64.3422 123.2 65.2916 122.905 66.0885 122.381C66.3415 122.216 66.6638 121.818 66.941 122.205C67.1073 122.441 67.1038 122.88 67.038 123.196C66.7157 124.701 65.1807 125.053 63.6803 123.952Z" fill="black"/>
<path d="M111.037 96.4736C109.953 96.4139 109.339 95.6334 109.208 94.4732C109.086 93.3763 110.379 92.1282 111.578 92.1634C112.818 92.1985 113.449 92.9966 113.567 94.1709C113.685 95.324 112.475 96.4526 111.037 96.4736Z" fill="black"/>
<path d="M65.7522 97.9047C66.8576 98.0207 67.5125 98.766 67.665 99.9121C67.807 100.981 66.5492 102.275 65.3503 102.271C64.0474 102.268 63.3717 101.434 63.2609 100.193C63.1638 99.1 64.4563 97.9222 65.7522 97.9047Z" fill="black"/>
<path d="M74.1274 118.306C72.6894 118.162 71.9929 117.28 72.0206 116.081C72.0553 114.71 73.1191 114.01 74.363 113.989C75.6659 113.964 76.3797 114.945 76.3554 116.169C76.3242 117.561 75.2431 118.078 74.1274 118.306Z" fill="black"/>
<path d="M69.7235 116.643C69.8448 116.562 70.0007 116.394 70.0804 116.422C70.3576 116.524 70.2259 116.745 70.1532 116.935C70.0076 116.837 69.8655 116.742 69.7235 116.643Z" fill="#F9F8F4"/>
<path d="M112.17 74.191C111.91 75.5129 110.975 76.2231 109.762 76.216C108.508 76.2055 107.777 75.2457 107.839 73.9941C107.908 72.5949 108.982 71.9198 110.188 71.9269C111.439 71.9339 112.032 72.9253 112.17 74.191Z" fill="black"/>
</g>
<defs>
<clipPath id="clip0">
<rect width="84" height="64" fill="white" transform="translate(50.0001 63.1586)"/>
</clipPath>
</defs>
</svg>
