<svg width="184" height="185" viewBox="0 0 184 185" fill="none" xmlns="http://www.w3.org/2000/svg">
<rect y="0.492188" width="184" height="184" rx="3" fill="#0C0C0C"/>
<g clip-path="url(#clip0)">
<path d="M76.9381 85.0787V88.0263C76.9381 91.6315 76.2268 92.9513 72.835 92.9513H66.7109V71.2695H72.7926C76.0572 71.2695 76.7685 72.5893 76.7685 76.1945V78.811C76.7685 80.1078 76.467 81.0275 75.3506 81.6391V81.9196C76.4906 82.6047 76.9381 83.621 76.9381 85.0787ZM71.2474 75.4173V80.3193H71.6761C72.2367 80.3193 72.3639 80.1078 72.3639 79.5422V76.2681C72.3639 75.6565 72.2132 75.4173 71.6573 75.4173H71.2474ZM72.4063 84.3751C72.4063 83.8095 72.298 83.575 71.7421 83.575H71.2474V88.7621H71.7185C72.2556 88.7621 72.4063 88.5505 72.4063 87.9389V84.3751Z" fill="#3A95FF"/>
<path d="M76.9381 107.772V110.72C76.9381 114.325 76.2268 115.645 72.835 115.645H66.7109V93.9629H72.7926C76.0572 93.9629 76.7685 95.2826 76.7685 98.8878V101.504C76.7685 102.801 76.467 103.721 75.3506 104.332V104.613C76.4906 105.298 76.9381 106.314 76.9381 107.772ZM71.2474 98.1107V103.013H71.6761C72.2367 103.013 72.3639 102.801 72.3639 102.236V98.9614C72.3639 98.3498 72.2132 98.1107 71.6573 98.1107H71.2474ZM72.4063 107.068C72.4063 106.503 72.298 106.268 71.7421 106.268H71.2474V111.455H71.7185C72.2556 111.455 72.4063 111.244 72.4063 110.632V107.068Z" fill="#F9F8F4"/>
<path d="M82.4146 65.4896V70.0605H85.1657V74.1623H82.4146V78.8757H85.2317V83.0235H77.8828V61.3418H85.2317V65.4896H82.4146Z" fill="#F9F8F4"/>
<path d="M82.4146 88.3431V92.914H85.1657V97.0158H82.4146V101.729H85.2317V105.877H77.8828V84.1953H85.2317V88.3431H82.4146Z" fill="#3A95FF"/>
<path d="M82.4146 110.807V115.378H85.1657V119.48H82.4146V124.193H85.2317V128.341H77.8828V106.659H85.2317V110.807H82.4146Z" fill="#F9F8F4"/>
<path d="M92.7298 89.5806H90.5157L90.299 92.9513H85.918L87.7222 71.2695H95.5233L97.3087 92.9513H92.9465L92.7298 89.5806ZM92.4519 85.4098L91.8065 75.7714H91.4437L90.7984 85.4098H92.4519Z" fill="#3A95FF"/>
<path d="M92.7298 112.471H90.5157L90.299 115.842H85.918L87.7222 94.1602H95.5233L97.3087 115.842H92.9465L92.7298 112.471ZM92.4519 108.3L91.8065 98.662H91.4437L90.7984 108.3H92.4519Z" fill="#F9F8F4"/>
<path d="M106.859 60.1273H104.301V77.6612H99.7884V60.1273H97.2305V55.9795H106.855V60.1273H106.859Z" fill="#F9F8F4"/>
<path d="M106.859 82.9261H104.301V100.46H99.7884V82.9261H97.2305V78.7783H106.855V82.9261H106.859Z" fill="#3A95FF"/>
<path d="M106.859 105.652H104.301V123.186H99.7884V105.652H97.2305V101.504H106.855V105.652H106.859Z" fill="#F9F8F4"/>
<path d="M113.381 73.3803V70.2948C113.381 69.6832 113.164 69.4947 112.82 69.4947C112.476 69.4947 112.259 69.6832 112.259 70.2948V72.9113C112.259 75.4083 117.804 74.3506 117.804 79.6526V82.5773C117.804 86.2055 115.868 87.4792 112.82 87.4792C109.767 87.4792 107.855 86.2055 107.855 82.5773V79.4641H112.217V82.5497C112.217 83.1613 112.434 83.3498 112.796 83.3498C113.117 83.3498 113.357 83.1613 113.357 82.5497V79.9332C113.357 77.4362 107.836 78.4938 107.836 73.1918V70.2672C107.836 66.639 109.772 65.3652 112.801 65.3652C115.854 65.3652 117.743 66.639 117.743 70.2672V73.3803H113.381Z" fill="#F9F8F4"/>
<path d="M113.381 96.4966V93.411C113.381 92.7994 113.164 92.6109 112.82 92.6109C112.476 92.6109 112.259 92.7994 112.259 93.411V96.0275C112.259 98.5245 117.804 97.4668 117.804 102.769V105.693C117.804 109.322 115.868 110.595 112.82 110.595C109.767 110.595 107.855 109.322 107.855 105.693V102.58H112.217V105.666C112.217 106.277 112.434 106.466 112.796 106.466C113.117 106.466 113.357 106.277 113.357 105.666V103.049C113.357 100.552 107.836 101.61 107.836 96.308V93.3834C107.836 89.7552 109.772 88.4814 112.801 88.4814C115.854 88.4814 117.743 89.7552 117.743 93.3834V96.4966H113.381Z" fill="#3A95FF"/>
</g>
<defs>
<clipPath id="clip0">
<rect width="52.6667" height="72.6667" fill="white" transform="translate(66 55.8252)"/>
</clipPath>
</defs>
</svg>
