<svg width="183" height="184" viewBox="0 0 183 184" fill="none" xmlns="http://www.w3.org/2000/svg">
<rect y="0.355469" width="183" height="183" rx="3" fill="#090909"/>
<path d="M75.1923 108.812C75.5543 108.812 75.8603 108.858 76.1478 108.804C78.5833 108.354 81.0081 107.847 83.4502 107.437C85.1058 107.16 86.7827 107 88.4529 106.813C89.9488 106.645 91.4474 106.513 92.9459 106.366C93.1668 106.345 93.3878 106.326 93.6087 106.317C98.4397 106.123 103.271 106.104 108.1 106.329C109.558 106.397 111.011 106.582 112.462 106.743C114 106.912 115.536 107.117 117.073 107.303C119.667 107.619 122.226 108.124 124.78 108.659C127.986 109.33 131.146 110.18 134.28 111.125C134.534 111.201 134.789 111.275 135.038 111.364C136.008 111.715 136.191 112.337 135.548 113.169C135.452 113.294 135.266 113.399 135.109 113.42C134.804 113.463 134.49 113.458 134.18 113.442C132.635 113.363 131.189 113.691 129.843 114.444C129.652 114.55 129.443 114.624 129.281 114.695C128.859 114.619 128.694 114.36 128.71 114.03C128.73 113.6 128.797 113.169 128.88 112.745C129.039 111.941 128.875 111.598 128.067 111.381C126.959 111.083 125.839 110.817 124.715 110.576C121.558 109.902 118.383 109.339 115.175 108.944C112.186 108.576 109.197 108.298 106.185 108.149C103.971 108.04 101.759 107.936 99.543 107.978C96.8413 108.03 94.1424 108.143 91.4527 108.426C89.5176 108.63 87.5719 108.756 85.6448 109.022C82.3163 109.483 79.0092 110.084 75.7313 110.828C75.0352 110.986 74.7038 111.379 74.5002 112.025C73.6232 114.8 71.8039 116.819 69.2114 118.14C66.1957 119.676 63.1573 119.605 60.1722 118.04C58.3449 117.081 56.8743 115.688 55.5794 114.113C55.1322 113.571 54.7343 112.99 54.3124 112.428C54.1288 112.182 53.9637 111.92 53.7561 111.695C53.3981 111.306 53.0228 111.279 52.5796 111.594C52.3281 111.773 52.1098 111.995 51.8583 112.172C51.644 112.324 51.4125 112.46 51.1716 112.569C50.9227 112.681 50.6206 112.731 50.441 112.494C50.3292 112.347 50.2879 112.083 50.3305 111.897C50.6898 110.352 50.7683 108.789 50.7484 107.209C50.7324 105.977 50.5967 104.77 50.2373 103.589C50.1482 103.296 50.0816 102.997 50.0044 102.701C49.9059 102.326 50.0177 102.001 50.2879 101.743C50.8282 101.225 51.4138 100.769 52.2003 100.515C52.392 100.71 52.6089 100.867 52.7407 101.075C53.1146 101.669 53.442 102.29 53.8094 102.888C54.1767 103.485 54.5466 104.084 54.9566 104.654C55.8842 105.943 56.865 107.175 58.3529 107.909C58.8733 108.165 58.8613 108.618 58.3516 108.913C57.935 109.155 57.4719 109.317 57.03 109.516C56.4125 109.795 56.2595 110.191 56.5509 110.775C56.6095 110.891 56.676 111.007 56.7519 111.113C58.4541 113.515 60.5209 115.51 63.2292 116.808C64.3644 117.35 65.5608 117.641 66.7959 117.779C67.8712 117.899 68.9066 117.631 69.9274 117.325C70.477 117.16 70.8044 116.754 71.0879 116.301C72.0621 114.75 72.6184 113.054 72.7914 111.246C73.0828 108.199 72.259 105.448 70.4331 102.984C69.0091 101.061 67.2776 99.4377 65.3705 97.993C62.9018 96.1228 60.26 94.5323 57.4186 93.2649C56.1676 92.7068 54.9339 92.1118 53.7149 91.4893C52.0886 90.6592 50.6299 89.5981 49.4042 88.244C48.1492 86.8571 47.179 85.3113 46.644 83.5133C46.3752 82.611 46.3659 81.6983 46.4856 80.7842C46.5908 79.9857 46.9714 79.2883 47.5277 78.6999C48.257 77.9276 49.0782 77.2578 50.0137 76.7443C50.9733 76.2177 51.9808 75.9576 53.0734 76.3503C53.5299 76.5145 54.0063 76.6248 54.4628 76.789C54.918 76.9531 55.3199 76.8967 55.7205 76.6314C56.0878 76.3884 56.4684 76.1599 56.8637 75.9668C57.3162 75.7462 57.6276 75.8591 57.7966 76.3529C58.4248 78.1864 59.4429 79.8346 60.3039 81.5564C60.5981 82.1435 60.9574 82.6977 61.2635 83.2795C61.543 83.8101 61.5057 84.0544 61.0372 84.4169C60.5901 84.7636 60.0977 85.0552 59.6917 85.3257C59.0596 85.2115 58.9292 84.7465 58.7029 84.3893C57.6156 82.6767 56.3327 81.1243 54.7356 79.8399C53.7694 79.0624 52.738 78.3807 51.5362 78.0091C51.0332 77.8541 50.5062 77.7477 49.9831 77.6939C49.2738 77.6216 48.8825 77.9053 48.7308 78.5856C48.5072 79.5825 48.5644 80.5832 48.808 81.5735C49.3816 83.9047 50.6526 85.8117 52.4758 87.3732C54.0609 88.7312 55.8735 89.7425 57.7274 90.6855C58.9877 91.3264 60.2653 91.9319 61.5337 92.557C64.6053 94.0713 67.4294 95.9402 69.9407 98.2583C71.6069 99.7962 73.0057 101.538 73.9466 103.602C74.5694 104.967 74.9407 106.401 75.0286 107.902C75.0432 108.196 75.131 108.485 75.1923 108.812Z" fill="#F9F8F4"/>
<path d="M72.4977 90.3147C72.5296 91.5112 73.1232 92.3872 73.545 93.3315C73.9749 94.2902 74.45 95.228 74.9078 96.1736C75.367 97.1192 75.8355 98.0596 76.2879 99.0078C76.7404 99.9534 77.1796 100.904 77.6295 101.864C77.3154 102.474 76.7564 102.761 76.236 103.07C75.6864 103.396 75.3404 103.292 75.0582 102.721C74.4394 101.464 73.8445 100.195 73.2429 98.9303C70.6478 93.4747 68.0526 88.0203 65.4601 82.5634C65.2378 82.0958 65.0289 81.6204 64.8173 81.1581C65.2671 80.4751 65.874 80.1232 66.5115 79.8224C66.8149 79.6792 67.1223 79.7423 67.3419 80.0273C67.475 80.2006 67.6001 80.3819 67.7212 80.5644C68.9855 82.4754 70.4734 84.2077 72.0904 85.831C73.6116 87.3584 75.1647 88.8543 76.7112 90.3568C76.9467 90.5866 77.1477 90.911 77.5855 90.8466C77.7532 90.3922 77.4777 90.0652 77.318 89.725C76.2001 87.3492 75.0702 84.9773 73.9443 82.6054C73.8698 82.4478 73.7952 82.2889 73.7194 82.1313C73.2017 81.0622 73.0819 80.9046 74.2557 80.0982C74.5405 79.9025 74.8679 79.7659 75.1181 79.632C75.6065 79.7265 75.7476 80.0522 75.8993 80.3701C76.4796 81.5967 77.0638 82.8221 77.6454 84.0474C80.2539 89.5451 82.8624 95.0428 85.4709 100.539C85.5268 100.657 85.5933 100.772 85.6479 100.891C86.1177 101.921 86.0684 102.113 85.1714 102.744C85.0277 102.845 84.88 102.944 84.7269 103.031C84.1094 103.381 83.7793 103.327 83.4107 102.704C81.1788 98.929 78.1525 95.798 75.0928 92.6945C74.4141 92.005 73.7194 91.33 73.0207 90.6601C72.869 90.5196 72.672 90.429 72.4977 90.3147Z" fill="#F9F8F4"/>
<path d="M97.9008 87.0027C98.2229 86.438 98.6581 86.2055 99.0706 85.9599C99.5591 85.6697 99.9051 85.7485 100.182 86.237C100.551 86.8845 100.874 87.5556 101.221 88.2149C101.364 88.4855 101.497 88.7665 101.675 89.0135C101.762 89.1343 101.944 89.1868 102.065 89.2591C102.153 89.1802 102.205 89.1579 102.214 89.1238C102.671 87.3508 103.156 85.5843 103.558 83.7981C103.699 83.1691 103.707 82.4887 103.643 81.8439C103.568 81.0926 103.815 80.5739 104.443 80.1904C104.777 79.9868 105.105 79.7727 105.383 79.5967C105.942 79.6926 106.067 80.0866 106.236 80.436C106.923 81.8557 107.612 83.2741 108.292 84.6965C109.085 86.3565 109.91 88.0022 110.64 89.6898C111.035 90.6026 111.577 91.1463 112.625 91.0675C112.756 91.0583 112.892 91.0754 113.022 91.0964C113.429 91.1634 113.67 91.4576 113.565 91.8411C113.427 92.3454 113.236 92.8366 113.059 93.3304C112.971 93.5734 112.864 93.8098 112.748 94.0922C113.411 95.5132 114.071 96.9421 114.74 98.3658C115.169 99.2773 115.627 100.176 116.046 101.091C116.414 101.896 116.351 102.092 115.6 102.615C115.312 102.814 115.005 102.997 114.687 103.145C114.422 103.27 114.147 103.199 113.986 102.951C113.795 102.658 113.636 102.345 113.486 102.03C112.358 99.6568 111.233 97.2823 110.11 94.9065C109.473 93.5576 109.555 93.4985 107.837 93.3265C107.266 93.2687 106.684 93.2529 106.111 93.2779C105.338 93.312 105.012 93.7271 105.106 94.4967C105.133 94.7121 105.206 94.9209 105.256 95.1337C105.73 97.0971 106.476 98.9647 107.318 100.797C107.463 101.112 107.593 101.432 107.728 101.744C107.39 102.462 106.764 102.801 106.147 103.132C105.877 103.278 105.62 103.16 105.461 102.913C105.296 102.655 105.157 102.381 105.025 102.105C102.781 97.4005 100.539 92.6961 98.3001 87.9904C98.1524 87.6778 98.0392 87.3481 97.9008 87.0027ZM104.421 89.3063C104.434 89.3825 104.45 89.6925 104.547 89.9748C104.612 90.1653 104.752 90.3964 104.922 90.4739C105.618 90.7944 106.36 90.885 107.098 90.6262C107.506 90.4831 107.744 90.051 107.58 89.678C107.126 88.6431 106.625 87.6305 106.135 86.6113C106.099 86.5365 106.022 86.48 105.958 86.4209C105.608 86.0952 105.071 86.1346 104.819 86.5404C104.686 86.7532 104.595 87.0145 104.566 87.2628C104.498 87.8643 104.477 88.4737 104.421 89.3063Z" fill="#F9F8F4"/>
<path d="M121.846 79.5518C122.618 80.4291 122.702 81.3734 122.851 82.2521C123.012 83.1924 122.992 84.1669 122.994 85.1257C122.997 86.0424 122.883 86.9499 122.652 87.8469C122.43 88.7151 122.038 89.5398 121.774 90.6076C122.482 90.3082 122.687 89.8629 122.891 89.4597C123.33 88.5955 124.076 88.061 124.863 87.5659C125.398 87.2283 125.724 87.3308 126.049 87.8995C126.2 88.1648 126.324 88.4471 126.456 88.7243C128.407 92.8377 130.358 96.9511 132.302 101.066C132.43 101.335 132.509 101.628 132.61 101.906C132.187 102.508 131.589 102.805 131.018 103.123C130.667 103.317 130.347 103.201 130.136 102.81C129.864 102.31 129.629 101.792 129.387 101.277C127.993 98.3051 126.602 95.3317 125.209 92.3596C125.079 92.0825 124.953 91.8014 124.807 91.5335C124.303 90.6089 123.784 90.5249 123.07 91.2603C122.703 91.6386 122.365 92.0457 122.004 92.4292C121.703 92.7497 121.388 93.0557 121.081 93.3696C120.771 93.6848 120.708 94.0578 120.854 94.4583C120.96 94.7446 121.098 95.0204 121.228 95.2976C122.124 97.198 123.026 99.0958 123.917 100.999C124.379 101.988 124.343 102.089 123.443 102.709C122.298 103.498 122.05 103.443 121.465 102.216C118.251 95.4565 115.041 88.6954 111.834 81.9329C111.705 81.6611 111.61 81.3734 111.497 81.0845C111.867 80.4633 112.427 80.1231 113.024 79.8355C113.396 79.6556 113.736 79.7501 113.938 80.1008C114.2 80.5552 114.429 81.0293 114.654 81.5035C115.912 84.1525 117.161 86.8068 118.42 89.4545C118.588 89.8078 118.764 90.1689 118.998 90.4802C119.359 90.9583 120.044 90.8939 120.31 90.3554C120.482 90.0074 120.588 89.62 120.672 89.2391C121.16 87.0116 120.964 84.8118 120.361 82.6329C120.302 82.4228 120.234 82.214 120.156 82.0104C119.803 81.0976 119.689 80.8836 120.756 80.1717C121.079 79.9524 121.432 79.783 121.846 79.5518Z" fill="#F9F8F4"/>
<path d="M93.284 85.9102C92.5561 86.4447 91.9811 86.9819 91.1201 87.2498C90.8832 86.9293 90.637 86.6325 90.4307 86.312C89.523 84.9055 88.5023 83.5895 87.2526 82.4613C86.8626 82.1093 86.4354 81.7915 85.9989 81.4973C85.6303 81.2504 85.2217 81.0429 84.7679 81.3279C84.326 81.605 84.326 82.0502 84.334 82.4941C84.3367 82.6688 84.334 82.8461 84.362 83.0169C84.9183 86.291 86.5872 88.7772 89.6867 90.2088C90.3202 90.5016 91.0256 90.6474 91.6963 90.8602C91.8307 91.2056 91.5326 91.3264 91.3463 91.4656C90.959 91.7533 90.5505 92.0172 90.1352 92.2628C89.6162 92.5688 89.4019 93.0088 89.4991 93.5854C89.5789 94.0582 89.6588 94.5362 89.8012 94.992C90.3681 96.8123 91.2718 98.4592 92.5986 99.8461C93.1097 100.381 93.7325 100.815 94.3208 101.275C94.5257 101.435 94.7733 101.552 95.0142 101.66C96.1174 102.155 96.7922 101.72 96.6764 100.555C96.6125 99.9065 96.5047 99.2499 96.3078 98.6313C95.991 97.6344 95.6037 96.6586 95.2111 95.6867C94.9822 95.1207 94.6788 94.5835 94.4166 94.0293C93.9628 93.0679 93.9934 92.9655 94.8984 92.3167C96.0496 91.4906 96.2572 91.5169 96.864 92.7488C97.3857 93.8073 97.8822 94.8817 98.308 95.9809C98.7885 97.2207 98.9322 98.5183 98.7499 99.8461C98.6514 100.562 98.3852 101.196 97.8848 101.72C97.242 102.395 96.506 102.96 95.6224 103.288C94.3993 103.743 93.1975 103.719 92.0557 103.02C91.868 102.905 91.675 102.793 91.5047 102.657C89.366 100.953 87.946 98.8112 87.3458 96.1412C87.1514 95.2796 87.2526 94.4995 87.6372 93.7312C87.7157 93.5749 87.8249 93.433 87.8941 93.2728C88.1323 92.7264 88.0152 92.3574 87.5081 92.0474C87.3577 91.9555 87.1887 91.8964 87.0343 91.811C83.7152 89.9684 82.1873 87.1027 82.1128 83.4109C82.0942 82.4836 82.4282 81.693 83.1296 81.0823C83.6579 80.6226 84.1916 80.1498 84.7905 79.7939C85.5677 79.3329 86.4328 79.1254 87.3311 79.5023C87.9074 79.744 88.4397 79.7282 88.9388 79.3198C89.0399 79.237 89.1637 79.1792 89.2835 79.1241C89.6641 78.9481 89.9649 79.0584 90.1472 79.4472C90.6875 80.5937 91.2092 81.7495 91.7655 82.8881C92.1302 83.6341 92.5481 84.3565 92.9314 85.0946C93.0485 85.3231 93.1363 85.5674 93.284 85.9102Z" fill="#F9F8F4"/>
<path d="M90.1736 68.7481C89.6466 70.3502 87.076 74.5288 85.6517 76.1611C85.6099 76.1158 85.5283 76.0662 85.5325 76.0252C85.6831 73.7548 85.7772 71.4757 86.0198 69.2139C86.2018 67.5256 86.6724 67.2798 88.2452 67.7563C88.7075 67.8964 89.1634 68.0711 89.6068 68.2673C89.7846 68.3471 89.9227 68.5282 90.1736 68.7481Z" fill="#FFBD00"/>
</svg>
