<svg width="183" height="184" viewBox="0 0 183 184" fill="none" xmlns="http://www.w3.org/2000/svg">
<rect y="-0.000244141" width="183" height="183.979" rx="3" fill="#090909"/>
<g clip-path="url(#clip0)">
<path d="M92.4914 90.0781C92.1781 89.3425 91.7629 88.6958 91.2255 88.1396C90.6938 87.5909 90.076 87.1548 89.3619 86.833C88.6492 86.517 87.8776 86.3524 87.0614 86.3524C86.2539 86.3524 85.4966 86.517 84.7825 86.833C84.0612 87.1563 83.4433 87.5923 82.9045 88.1396C82.3657 88.6958 81.9432 89.3425 81.63 90.0781C81.3167 90.8137 81.1572 91.6028 81.1572 92.4452C81.1572 93.2787 81.3167 94.0678 81.63 94.8123C81.9432 95.548 82.3657 96.202 82.9045 96.7508C83.4433 97.307 84.0612 97.743 84.7825 98.0664C85.4952 98.3823 86.2524 98.5395 87.0614 98.5395C87.8761 98.5395 88.6477 98.3823 89.3619 98.0664C90.0746 97.743 90.6938 97.307 91.2255 96.7508C91.7643 96.202 92.1796 95.548 92.4914 94.8123C92.7974 94.0678 92.9569 93.2802 92.9569 92.4452C92.9569 91.6028 92.796 90.8137 92.4914 90.0781ZM89.5285 93.5264C89.3834 93.8646 89.1937 94.1583 88.9538 94.4059C88.7138 94.661 88.4365 94.8568 88.1089 94.9992C87.7813 95.149 87.4321 95.2172 87.0614 95.2172C86.6979 95.2172 86.3559 95.149 86.0283 94.9992C85.7007 94.8568 85.4162 94.661 85.1762 94.4059C84.9291 94.1583 84.7394 93.8646 84.5943 93.5264C84.4492 93.1883 84.3759 92.8279 84.3759 92.4452C84.3759 92.0626 84.4492 91.7007 84.5943 91.3714C84.7394 91.0332 84.9291 90.7396 85.1762 90.4845C85.4162 90.2368 85.7007 90.041 86.0283 89.8912C86.3559 89.7488 86.6979 89.6732 87.0614 89.6732C87.4321 89.6732 87.7827 89.7488 88.1089 89.8912C88.4365 90.041 88.7124 90.2368 88.9538 90.4845C89.1937 90.7396 89.3834 91.0332 89.5285 91.3714C89.6665 91.7021 89.7326 92.0626 89.7326 92.4452C89.7326 92.8279 89.6665 93.1883 89.5285 93.5264Z" fill="#3A95FF"/>
<path d="M89.8959 112.612C89.8959 113.014 89.8183 113.393 89.6718 113.751C89.5223 114.105 89.3212 114.42 89.0625 114.684C88.8068 114.952 88.5079 115.161 88.1659 115.317C87.8225 115.468 87.4503 115.544 87.0581 115.544C86.6687 115.544 86.3051 115.468 85.9617 115.317C85.6154 115.161 85.3166 114.952 85.0579 114.684C84.7993 114.42 84.5953 114.105 84.4444 113.751C84.295 113.393 84.2174 113.012 84.2174 112.612C84.2174 112.205 84.295 111.826 84.4444 111.473C84.5953 111.118 84.7993 110.807 85.0579 110.54C85.318 110.276 85.6154 110.065 85.9617 109.909C86.3051 109.758 86.6687 109.678 87.0581 109.678C87.4518 109.678 87.8225 109.758 88.1659 109.909C88.5093 110.065 88.8068 110.276 89.0625 110.54C89.3212 110.807 89.5223 111.118 89.6718 111.473C89.8198 111.826 89.8959 112.205 89.8959 112.612Z" fill="#3A95FF"/>
<path d="M100.447 94.378C99.634 93.9138 98.8638 93.4718 98.2934 92.6546C98.0146 92.2571 98.0002 92.1829 97.9083 91.0572C97.8364 90.1584 97.7373 88.9363 97.3666 87.1476C97.1956 86.3675 95.605 79.3937 91.0026 75.4174C89.7181 74.3035 88.4263 73.7666 87.0641 73.7666C86.9578 73.7666 86.85 73.7666 86.7437 73.774C84.8168 73.8986 83.5481 75.1222 83.1343 75.5197C78.5549 79.9306 76.7559 86.0575 76.3637 88.0153L76.3349 88.0078C75.9929 89.6349 75.8924 90.7843 75.822 91.6238C75.7156 92.794 75.7013 92.8236 75.4441 93.1707C74.9368 93.8707 74.2529 94.2608 73.5244 94.6731C72.4755 95.2694 70.7138 96.2779 70.6923 98.5323C70.6564 101.08 72.9755 102.575 76.72 104.15C81.0364 105.969 83.64 107.066 87.192 107.066C87.2983 107.066 87.4061 107.059 87.5124 107.059C91.336 106.992 93.9684 105.785 97.5994 104.113C100.475 102.795 103.442 101.433 103.42 98.3988C103.401 96.0569 101.554 95.0039 100.447 94.378ZM96.503 101.551C92.9223 103.192 90.7382 104.193 87.4708 104.253C87.3774 104.253 87.2854 104.26 87.192 104.26C84.1746 104.26 81.9919 103.339 77.7459 101.551C73.6652 99.8271 73.4008 98.9802 73.408 98.5605C73.4224 97.3013 75.9197 97.1693 77.6094 94.8645C78.8293 93.1929 78.2158 92.309 78.986 88.5981C78.986 88.5981 80.3553 82.0292 84.985 77.5753C85.3988 77.1779 86.0411 76.6321 86.9118 76.5816C86.9621 76.5742 87.0124 76.5742 87.0613 76.5742C87.8673 76.5742 88.5872 77.0014 89.2582 77.5753C93.2887 81.0504 94.7012 87.7513 94.7012 87.7513C95.536 91.6831 94.8506 92.5226 96.0849 94.2905C97.8896 96.8904 100.686 96.9928 100.7 98.4211C100.712 99.5913 98.8351 100.475 96.503 101.551Z" fill="#3A95FF"/>
<path d="M36.467 91.7754C36.467 90.9523 36.6193 90.1825 36.9254 89.4632C37.2314 88.7453 37.6452 88.1165 38.1683 87.5751C38.6913 87.0353 39.3005 86.6096 39.9974 86.2981C40.6943 85.9867 41.4357 85.8309 42.2246 85.8309C43.0048 85.8309 43.7405 85.9852 44.4331 86.2922C45.1257 86.5992 45.7306 87.0175 46.2493 87.544C46.768 88.072 47.1804 88.6919 47.4865 89.4068C47.7925 90.1217 47.9534 90.8811 47.9692 91.6879V91.7131V91.7754V95.9119C47.9692 96.1359 47.9276 96.3509 47.8428 96.5541C47.758 96.7573 47.6445 96.9338 47.4994 97.0836C47.3543 97.2334 47.1861 97.3521 46.9922 97.4381C46.7996 97.5256 46.5898 97.5686 46.3642 97.5686C46.0668 97.5686 45.8053 97.4989 45.5797 97.3565C45.3541 97.2156 45.1774 97.0243 45.0495 96.784C44.6299 97.0747 44.1845 97.3031 43.7103 97.4692C43.2347 97.6354 42.7404 97.7184 42.226 97.7184C41.4372 97.7184 40.6943 97.5627 39.9989 97.2512C39.302 96.9398 38.6927 96.5141 38.1697 95.9742C37.6467 95.4344 37.2329 94.8025 36.9268 94.0802C36.6193 93.3579 36.467 92.5897 36.467 91.7754ZM39.6051 91.7754C39.6051 92.1492 39.6756 92.5007 39.8164 92.8285C39.9572 93.1562 40.1469 93.444 40.3839 93.6887C40.621 93.9334 40.8983 94.1277 41.2173 94.2686C41.5349 94.4095 41.8711 94.4807 42.226 94.4807C42.5881 94.4807 42.9287 94.4095 43.2462 94.2686C43.5638 94.1277 43.8396 93.9349 44.0739 93.6887C44.3066 93.444 44.492 93.1577 44.6285 92.8285C44.765 92.5007 44.834 92.1492 44.834 91.7754C44.834 91.4017 44.765 91.0502 44.6285 90.7224C44.492 90.3946 44.3066 90.1083 44.0739 89.8621C43.8396 89.6174 43.5652 89.4246 43.2462 89.2822C42.9287 89.1413 42.5881 89.0701 42.226 89.0701C41.8725 89.0701 41.5363 89.1398 41.2173 89.2822C40.8998 89.4231 40.6225 89.6159 40.3839 89.8621C40.1454 90.1083 39.9572 90.3946 39.8164 90.7224C39.6756 91.0516 39.6051 91.4017 39.6051 91.7754Z" fill="#F9F8F4"/>
<path d="M53.0271 93.2211C53.2757 93.6438 53.6004 93.9627 53.9984 94.1748C54.3964 94.3869 54.8375 94.4922 55.3203 94.4922C55.6422 94.4922 55.9181 94.4655 56.148 94.4106C56.3764 94.3572 56.5805 94.2682 56.7572 94.1436C57.046 93.936 57.3219 93.8114 57.5834 93.7699C57.8449 93.7284 58.0921 93.7536 58.3263 93.844C58.4872 93.9108 58.6338 94.0042 58.7674 94.1244C58.901 94.2445 59.0102 94.3839 59.0993 94.5411C59.1884 94.6983 59.2516 94.8704 59.2919 95.0573C59.3321 95.2441 59.3407 95.431 59.3163 95.6179C59.2919 95.8048 59.2315 95.9872 59.1353 96.1667C59.039 96.3461 58.901 96.5093 58.7243 96.6591C58.572 96.7837 58.3924 96.9097 58.1869 97.0388C57.9814 97.1678 57.7444 97.282 57.4742 97.3814C57.2041 97.4807 56.8923 97.5623 56.5388 97.6246C56.1853 97.6869 55.7787 97.718 55.3203 97.718C54.5243 97.718 53.7757 97.5623 53.0745 97.2508C52.3747 96.9394 51.7612 96.5137 51.2338 95.9739C50.7065 95.434 50.2898 94.8051 49.9852 94.0858C49.6791 93.368 49.5268 92.5967 49.5268 91.775C49.5268 90.9519 49.6791 90.1807 49.9852 89.4569C50.2912 88.7346 50.7079 88.1057 51.2338 87.5688C51.7612 87.0334 52.3747 86.6092 53.0745 86.2978C53.7742 85.9863 54.5229 85.8306 55.3203 85.8306C56.1006 85.8306 56.8406 85.9818 57.5418 86.2844C58.243 86.5885 58.8536 87.0052 59.3767 87.5362C59.8997 88.0686 60.3164 88.6886 60.6253 89.399C60.9342 90.1095 61.098 90.8718 61.1138 91.6861C61.1138 92.1429 60.9702 92.5122 60.6857 92.7955C60.3997 93.0787 60.0276 93.2196 59.5692 93.2196H53.0271V93.2211ZM57.8924 90.5292C57.6754 90.0309 57.3463 89.663 56.9081 89.4257C56.4698 89.1884 55.9597 89.0713 55.3807 89.0713C54.8016 89.0713 54.3001 89.1973 53.8777 89.4509C53.4553 89.7046 53.1391 90.0635 52.9294 90.5292H57.8924Z" fill="#F9F8F4"/>
<path d="M65.5094 96.6027C65.4289 96.7985 65.3183 96.9661 65.1775 97.107C65.0367 97.2479 64.8729 97.3606 64.6889 97.4436C64.5036 97.5267 64.3067 97.5682 64.0969 97.5682C63.88 97.5682 63.6745 97.5267 63.482 97.4436C63.2894 97.3606 63.117 97.2479 62.969 97.107C62.8196 96.9661 62.7032 96.797 62.6198 96.6027C62.5351 96.4084 62.4934 96.1978 62.4934 95.9738V92.174V92.0613C62.5178 91.2307 62.6902 90.4476 63.0121 89.712C63.334 88.9763 63.765 88.3356 64.3039 87.7868C64.8427 87.2381 65.4706 86.802 66.1876 86.4787C66.9032 86.1554 67.6647 85.9892 68.4694 85.9803H68.5412C69.0556 85.9803 69.4565 86.1316 69.7425 86.4357C70.0284 86.7397 70.1707 87.1239 70.1707 87.5881C70.1707 87.8209 70.129 88.036 70.0442 88.2362C69.9594 88.435 69.8431 88.6085 69.6936 88.7538C69.5442 88.8992 69.3718 89.0134 69.1749 89.0965C68.978 89.1795 68.7668 89.221 68.5412 89.221C68.1461 89.221 67.7739 89.2982 67.4248 89.4509C67.0742 89.6052 66.7667 89.8143 66.5009 90.0798C66.235 90.3453 66.0267 90.6597 65.8729 91.0216C65.7192 91.382 65.6387 91.7661 65.6315 92.174V95.9738C65.6301 96.1993 65.5884 96.4084 65.5094 96.6027Z" fill="#F9F8F4"/>
<path d="M111.024 94.3298C111.25 94.3298 111.457 94.3758 111.646 94.4662C111.835 94.5582 111.998 94.6783 112.135 94.8267C112.271 94.9764 112.379 95.1515 112.455 95.3502C112.531 95.5489 112.57 95.761 112.57 95.985C112.57 96.209 112.531 96.4196 112.455 96.6138C112.379 96.8096 112.273 96.9772 112.135 97.1181C111.998 97.259 111.835 97.3688 111.646 97.4474C111.457 97.526 111.25 97.566 111.024 97.566H110.964C110.416 97.5586 109.899 97.4563 109.412 97.2605C108.925 97.0662 108.501 96.7948 108.139 96.4507C107.777 96.1066 107.491 95.6928 107.281 95.2108C107.071 94.7288 106.968 94.2008 106.968 93.6283V83.129C106.968 82.9051 107.008 82.693 107.088 82.4927C107.169 82.294 107.278 82.1205 107.415 81.9751C107.551 81.8298 107.711 81.7156 107.892 81.6325C108.073 81.5495 108.268 81.5079 108.478 81.5079C108.695 81.5079 108.902 81.5495 109.099 81.6325C109.296 81.7156 109.469 81.8298 109.617 81.9751C109.767 82.1205 109.885 82.2925 109.974 82.4927C110.063 82.6915 110.106 82.9036 110.106 83.129V93.6327C110.106 93.8819 110.195 94.0599 110.372 94.1681C110.55 94.2764 110.767 94.3298 111.024 94.3298Z" fill="#F9F8F4"/>
<path d="M114.162 83.1282C114.162 82.8864 114.207 82.661 114.294 82.4489C114.383 82.2368 114.504 82.0544 114.656 81.9016C114.809 81.7488 114.987 81.6257 115.188 81.5338C115.389 81.4418 115.606 81.3973 115.84 81.3973C116.066 81.3973 116.281 81.4433 116.486 81.5338C116.691 81.6257 116.872 81.7474 117.029 81.9016C117.185 82.0559 117.307 82.2383 117.397 82.4489C117.484 82.661 117.529 82.8879 117.529 83.1282C117.529 83.3684 117.484 83.5939 117.397 83.8C117.307 84.0077 117.185 84.1901 117.029 84.3488C116.872 84.506 116.691 84.6321 116.486 84.7226C116.28 84.8145 116.065 84.859 115.84 84.859C115.606 84.859 115.389 84.8145 115.188 84.7226C114.987 84.6321 114.81 84.506 114.656 84.3488C114.503 84.1916 114.383 84.0077 114.294 83.8C114.207 83.5939 114.162 83.3684 114.162 83.1282ZM117.421 95.9619C117.421 96.1859 117.381 96.3965 117.3 96.5908C117.22 96.7865 117.109 96.9556 116.968 97.1024C116.828 97.2478 116.662 97.362 116.474 97.445C116.284 97.5281 116.082 97.5696 115.865 97.5696C115.648 97.5696 115.444 97.5281 115.256 97.445C115.066 97.362 114.899 97.2478 114.754 97.1024C114.609 96.9571 114.494 96.7865 114.411 96.5908C114.326 96.3965 114.284 96.1859 114.284 95.9619V87.5895C114.284 87.3655 114.326 87.1549 114.411 86.9606C114.495 86.7664 114.609 86.5958 114.754 86.4504C114.899 86.3051 115.07 86.1909 115.267 86.1078C115.464 86.0248 115.672 85.9832 115.889 85.9832C116.106 85.9832 116.307 86.0248 116.493 86.1078C116.678 86.1909 116.84 86.3051 116.981 86.4504C117.122 86.5958 117.23 86.7664 117.307 86.9606C117.384 87.1564 117.422 87.3655 117.422 87.5895V95.9619H117.421Z" fill="#F9F8F4"/>
<path d="M122.962 85.9817H126.656C126.873 85.9817 127.078 86.0247 127.271 86.1122C127.463 86.1997 127.632 86.3169 127.772 86.4667C127.913 86.6165 128.025 86.7885 128.11 86.9843C128.195 87.1786 128.236 87.3892 128.236 87.6131C128.236 87.8297 128.195 88.0343 128.11 88.2301C128.025 88.4259 127.913 88.595 127.772 88.7403C127.632 88.8857 127.465 89.0014 127.271 89.0889C127.078 89.1764 126.873 89.2194 126.656 89.2194H122.962V91.7986C122.962 92.1723 123.031 92.5209 123.167 92.8457C123.304 93.1705 123.492 93.4523 123.729 93.6941C123.966 93.9358 124.242 94.1257 124.555 94.2666C124.868 94.4075 125.208 94.4786 125.57 94.4786C125.892 94.4786 126.189 94.4327 126.463 94.3422C126.736 94.2502 126.982 94.1049 127.199 93.9061C127.304 93.8068 127.409 93.7193 127.512 93.6451C127.617 93.571 127.734 93.5087 127.863 93.4582C128.104 93.3663 128.353 93.3396 128.612 93.3767C128.869 93.4137 129.114 93.5413 129.347 93.7564C129.517 93.9225 129.639 94.1138 129.715 94.3288C129.791 94.5454 129.821 94.7693 129.806 95.0022C129.79 95.2351 129.734 95.4605 129.637 95.6815C129.541 95.9025 129.409 96.0953 129.239 96.2614C128.757 96.7434 128.203 97.1068 127.58 97.3515C126.956 97.5962 126.287 97.7193 125.57 97.7193C124.774 97.7193 124.026 97.5636 123.331 97.2521C122.634 96.9407 122.028 96.5165 121.508 95.9811C120.989 95.4457 120.578 94.8153 120.276 94.093C119.974 93.3707 119.824 92.598 119.824 91.7749V84.2746C119.824 84.0506 119.865 83.8385 119.95 83.6398C120.035 83.441 120.148 83.266 120.293 83.1162C120.439 82.9664 120.605 82.8478 120.795 82.7617C120.983 82.6742 121.187 82.6312 121.404 82.6312C121.621 82.6312 121.825 82.6728 122.013 82.7558C122.202 82.8389 122.367 82.9546 122.508 83.1044C122.648 83.2541 122.759 83.4277 122.84 83.6279C122.92 83.8266 122.96 84.0432 122.96 84.276V85.9817H122.962Z" fill="#F9F8F4"/>
<path d="M134.043 93.2214C134.292 93.6441 134.616 93.9629 135.014 94.175C135.412 94.3871 135.854 94.4924 136.336 94.4924C136.658 94.4924 136.934 94.4657 137.164 94.4109C137.392 94.3575 137.596 94.2685 137.773 94.1439C138.062 93.9362 138.338 93.8117 138.599 93.7701C138.861 93.7286 139.108 93.7538 139.342 93.8443C139.503 93.911 139.65 94.0045 139.783 94.1246C139.916 94.2447 140.026 94.3842 140.115 94.5414C140.204 94.6986 140.268 94.8706 140.308 95.0575C140.348 95.2444 140.357 95.4313 140.332 95.6181C140.308 95.805 140.248 95.9874 140.151 96.1669C140.055 96.3464 139.917 96.5095 139.74 96.6593C139.588 96.7839 139.408 96.91 139.203 97.039C138.997 97.168 138.76 97.2822 138.49 97.3816C138.22 97.481 137.908 97.5626 137.555 97.6248C137.201 97.6871 136.795 97.7183 136.336 97.7183C135.54 97.7183 134.792 97.5626 134.09 97.2511C133.391 96.9396 132.777 96.514 132.25 95.9741C131.722 95.4342 131.306 94.8054 131.001 94.086C130.695 93.3682 130.543 92.597 130.543 91.7753C130.543 90.9521 130.695 90.1809 131.001 89.4571C131.307 88.7348 131.724 88.106 132.25 87.5691C132.777 87.0336 133.391 86.6095 134.09 86.298C134.79 85.9865 135.539 85.8308 136.336 85.8308C137.117 85.8308 137.857 85.9821 138.558 86.2847C139.259 86.5887 139.87 87.0055 140.393 87.5364C140.916 88.0689 141.332 88.6888 141.641 89.3993C141.95 90.1097 142.114 90.872 142.13 91.6863C142.13 92.1431 141.986 92.5124 141.702 92.7957C141.416 93.079 141.044 93.2199 140.585 93.2199H134.043V93.2214ZM138.908 90.5294C138.691 90.0311 138.362 89.6633 137.924 89.426C137.486 89.1887 136.976 89.0715 136.397 89.0715C135.818 89.0715 135.316 89.1976 134.894 89.4512C134.471 89.7048 134.155 90.0637 133.945 90.5294H138.908Z" fill="#F9F8F4"/>
<path d="M143.841 83.2439C143.841 83.1341 143.924 83.0481 144.03 83.0481H144.629C144.849 83.0481 145.019 83.1119 145.132 83.229C145.229 83.3284 145.28 83.4678 145.28 83.6354V83.6399C145.28 83.9202 145.145 84.0922 144.936 84.1812L145.198 84.512C145.236 84.5609 145.26 84.601 145.26 84.6618C145.26 84.7715 145.171 84.8427 145.081 84.8427C144.994 84.8427 144.938 84.7997 144.894 84.7404L144.525 84.2569H144.221V84.6455C144.221 84.7552 144.138 84.8412 144.032 84.8412C143.925 84.8412 143.842 84.7552 143.842 84.6455V83.2439H143.841ZM144.604 83.9128C144.789 83.9128 144.894 83.8104 144.894 83.6606V83.6562C144.894 83.4886 144.78 83.4026 144.596 83.4026H144.22V83.9128H144.604Z" fill="#F9F8F4"/>
<path d="M144.559 85.982C143.472 85.982 142.586 85.0684 142.586 83.9457C142.586 82.8229 143.472 81.9093 144.559 81.9093C145.647 81.9093 146.532 82.8229 146.532 83.9457C146.532 85.0684 145.647 85.982 144.559 85.982ZM144.559 82.2623C143.66 82.2623 142.928 83.0172 142.928 83.9457C142.928 84.8741 143.66 85.6291 144.559 85.6291C145.459 85.6291 146.19 84.8741 146.19 83.9457C146.19 83.0172 145.459 82.2623 144.559 82.2623Z" fill="#F9F8F4"/>
</g>
<defs>
<clipPath id="clip0">
<rect width="110.065" height="41.7775" fill="white" transform="translate(36.467 73.7667)"/>
</clipPath>
</defs>
</svg>
