<svg width="184" height="185" viewBox="0 0 184 185" fill="none" xmlns="http://www.w3.org/2000/svg">
<rect y="0.489258" width="184" height="184" rx="3" fill="#0C0C0C"/>
<g clip-path="url(#clip0)">
<path d="M51.1971 102.998V108.161H38.9961L41.4784 105.579L38.9961 102.998H51.1971Z" fill="#F9F8F4"/>
<path d="M135.133 107.967V102.805H147.334L144.856 105.386L147.334 107.967H135.133Z" fill="#F9F8F4"/>
<path d="M40.2429 104.748L37.9112 102.32H49.9552V107.39H37.9112L40.2429 104.961L40.345 104.855L40.2429 104.748Z" fill="#F9F8F4" stroke="black" stroke-width="0.307246"/>
<mask id="path-5-inside-1" fill="white">
<path d="M50.0012 102.273V107.435H37.8002L40.2783 104.854L37.8002 102.273H50.0012ZM50.2163 102.058H50.0012H37.8002H37.2969L37.6454 102.423L39.9814 104.854L37.6454 107.285L37.2969 107.65H37.8002H50.0012H50.2163V107.435V102.273V102.058Z"/>
</mask>
<path d="M50.0012 102.273V107.435H37.8002L40.2783 104.854L37.8002 102.273H50.0012ZM50.2163 102.058H50.0012H37.8002H37.2969L37.6454 102.423L39.9814 104.854L37.6454 107.285L37.2969 107.65H37.8002H50.0012H50.2163V107.435V102.273V102.058Z" fill="black"/>
<path d="M50.0012 102.273H50.3084V101.965H50.0012V102.273ZM50.0012 107.435V107.743H50.3084V107.435H50.0012ZM37.8002 107.435L37.5786 107.223L37.0794 107.743H37.8002V107.435ZM40.2783 104.854L40.4999 105.067L40.7042 104.854L40.4999 104.641L40.2783 104.854ZM37.8002 102.273V101.965H37.0794L37.5786 102.486L37.8002 102.273ZM50.2163 102.058H50.5235V101.75H50.2163V102.058ZM37.2969 102.058V101.75H36.5797L37.0744 102.27L37.2969 102.058ZM37.6454 102.423L37.4229 102.635L37.4238 102.636L37.6454 102.423ZM39.9814 104.854L40.203 105.067L40.4076 104.854L40.203 104.641L39.9814 104.854ZM37.6454 107.285L37.4238 107.072L37.4229 107.073L37.6454 107.285ZM37.2969 107.65L37.0744 107.438L36.5797 107.958H37.2969V107.65ZM50.2163 107.65V107.958H50.5235V107.65H50.2163ZM49.6939 102.273V107.435H50.3084V102.273H49.6939ZM50.0012 107.128H37.8002V107.743H50.0012V107.128ZM38.0219 107.648L40.4999 105.067L40.0566 104.641L37.5786 107.223L38.0219 107.648ZM40.4999 104.641L38.0219 102.06L37.5786 102.486L40.0566 105.067L40.4999 104.641ZM37.8002 102.58H50.0012V101.965H37.8002V102.58ZM50.2163 101.75H50.0012V102.365H50.2163V101.75ZM50.0012 101.75H37.8002V102.365H50.0012V101.75ZM37.8002 101.75H37.2969V102.365H37.8002V101.75ZM37.0744 102.27L37.4229 102.635L37.8678 102.211L37.5193 101.846L37.0744 102.27ZM37.4238 102.636L39.7599 105.067L40.203 104.641L37.8669 102.21L37.4238 102.636ZM39.7599 104.641L37.4238 107.072L37.8669 107.498L40.203 105.067L39.7599 104.641ZM37.4229 107.073L37.0744 107.438L37.5193 107.862L37.8678 107.497L37.4229 107.073ZM37.2969 107.958H37.8002V107.343H37.2969V107.958ZM37.8002 107.958H50.0012V107.343H37.8002V107.958ZM50.0012 107.958H50.2163V107.343H50.0012V107.958ZM50.5235 107.65V107.435H49.909V107.65H50.5235ZM50.5235 107.435V102.273H49.909V107.435H50.5235ZM50.5235 102.273V102.058H49.909V102.273H50.5235Z" fill="black" mask="url(#path-5-inside-1)"/>
<path d="M143.913 104.96L146.245 107.389H134.197V102.319H146.245L143.913 104.748L143.811 104.854L143.913 104.96Z" fill="#F9F8F4" stroke="black" stroke-width="0.307246"/>
<path d="M146.354 102.273L143.876 104.854L146.354 107.435H134.153V102.273H146.354ZM146.857 102.058H146.354H134.153H133.938V102.273V107.435V107.65H134.153H146.354H146.857L146.508 107.285L144.172 104.854L146.508 102.423L146.857 102.058Z" fill="black"/>
<path d="M59.4386 111.4L58.5781 107.588H57.5327V111.4H56.0312V99.3838H58.591C60.2904 99.3838 60.6131 100.076 60.6131 101.655V105.403C60.6131 106.302 60.3377 106.891 59.8172 107.218L60.811 111.395H59.4386V111.4ZM58.2469 106.409C58.9266 106.409 59.1331 106.198 59.1331 105.415V101.642C59.1331 100.859 58.9223 100.649 58.2469 100.649H57.5284V106.409H58.2469Z" fill="#F9F8F4"/>
<path d="M67.403 101.527V109.258C67.403 110.97 66.435 111.517 65.0798 111.517C63.7332 111.517 62.7695 110.97 62.7695 109.258V101.527C62.7695 99.8149 63.7375 99.2686 65.0798 99.2686C66.4393 99.2686 67.403 99.8149 67.403 101.527ZM65.0798 100.546C64.6367 100.546 64.271 100.77 64.271 101.54V109.245C64.271 110.015 64.6367 110.239 65.0798 110.239C65.5358 110.239 65.8886 110.015 65.8886 109.245V101.54C65.8886 100.77 65.5358 100.546 65.0798 100.546Z" fill="#F9F8F4"/>
<path d="M72.6675 103.291V101.527C72.6675 100.77 72.3147 100.533 71.8587 100.533C71.4026 100.533 71.0499 100.77 71.0499 101.527V103.067C71.0499 105.102 74.1431 104.754 74.1431 107.649V109.267C74.1431 110.966 73.2009 111.513 71.8587 111.513C70.5164 111.513 69.5871 110.966 69.5871 109.267V107.49H71.037V109.254C71.037 110.011 71.3897 110.248 71.8458 110.248C72.3147 110.248 72.6546 110.011 72.6546 109.254V107.714C72.6546 105.674 69.5742 106.027 69.5742 103.132V101.514C69.5742 99.8149 70.5121 99.2686 71.8458 99.2686C73.1923 99.2686 74.1173 99.8149 74.1173 101.514V103.291H72.6675Z" fill="#F9F8F4"/>
<path d="M79.3159 103.291V101.527C79.3159 100.77 78.9631 100.533 78.5071 100.533C78.0511 100.533 77.6983 100.77 77.6983 101.527V103.067C77.6983 105.102 80.7916 104.754 80.7916 107.649V109.267C80.7916 110.966 79.8494 111.513 78.5071 111.513C77.1648 111.513 76.2356 110.966 76.2356 109.267V107.49H77.6854V109.254C77.6854 110.011 78.0382 110.248 78.4942 110.248C78.9631 110.248 79.303 110.011 79.303 109.254V107.714C79.303 105.674 76.2227 106.027 76.2227 103.132V101.514C76.2227 99.8149 77.1605 99.2686 78.4942 99.2686C79.8408 99.2686 80.7657 99.8149 80.7657 101.514V103.291H79.3159Z" fill="#F9F8F4"/>
<path d="M90.6987 109.284C90.6987 110.983 89.7608 111.53 88.4013 111.53C87.0547 111.53 86.0781 110.979 86.0781 109.284V107.275C86.0781 106.294 86.4567 105.773 87.0977 105.446V105.382C86.5212 105.068 86.1427 104.638 86.1427 103.644V101.437C86.1427 99.8192 87.0547 99.2686 88.4013 99.2686C89.7608 99.2686 90.6728 99.8149 90.6728 101.437V103.11H89.2101V101.506C89.2101 100.774 88.8573 100.551 88.4013 100.551C87.9582 100.551 87.5925 100.774 87.5925 101.506V103.79C87.5925 104.547 87.984 104.81 88.4529 104.81H90.6987V109.284ZM89.223 106.032H88.4529C87.984 106.032 87.5796 106.294 87.5796 107.051V109.297C87.5796 110.028 87.9582 110.265 88.4013 110.265C88.8573 110.265 89.223 110.028 89.223 109.297V106.032Z" fill="#F9F8F4"/>
<path d="M100.61 109.271C100.61 110.983 99.642 111.53 98.2868 111.53C96.9403 111.53 95.9766 110.979 95.9766 109.271V101.527C95.9766 99.8149 96.9446 99.2686 98.2868 99.2686C99.6463 99.2686 100.61 99.8149 100.61 101.527V103.381H99.0956V101.54C99.0956 100.77 98.7429 100.546 98.2868 100.546C97.8437 100.546 97.478 100.77 97.478 101.54V109.271C97.478 110.028 97.8437 110.265 98.2868 110.265C98.7429 110.265 99.0956 110.028 99.0956 109.271V107.378H100.61V109.271Z" fill="#F9F8F4"/>
<path d="M102.832 99.3848H104.333V111.396H102.832V99.3848Z" fill="#F9F8F4"/>
<path d="M109.958 111.401L109.098 107.589H108.052V111.401H106.551V99.3848H109.111C110.81 99.3848 111.133 100.077 111.133 101.656V105.403C111.133 106.303 110.857 106.892 110.337 107.219L111.33 111.396H109.958V111.401ZM108.771 106.41C109.45 106.41 109.657 106.199 109.657 105.416V101.643C109.657 100.86 109.446 100.65 108.771 100.65H108.052V106.41H108.771Z" fill="#F9F8F4"/>
<path d="M117.926 109.271C117.926 110.983 116.958 111.53 115.603 111.53C114.257 111.53 113.293 110.979 113.293 109.271V101.527C113.293 99.8149 114.261 99.2686 115.603 99.2686C116.963 99.2686 117.926 99.8149 117.926 101.527V103.381H116.412V101.54C116.412 100.77 116.059 100.546 115.603 100.546C115.16 100.546 114.794 100.77 114.794 101.54V109.271C114.794 110.028 115.16 110.265 115.603 110.265C116.059 110.265 116.412 110.028 116.412 109.271V107.378H117.926V109.271Z" fill="#F9F8F4"/>
<path d="M123.75 110.132V111.396H120.145V99.3848H121.646V110.132H123.75Z" fill="#F9F8F4"/>
<path d="M127.423 100.654V104.754H129.303V106.006H127.423V110.132H129.329V111.396H125.922V99.3848H129.329V100.65H127.423V100.654Z" fill="#F9F8F4"/>
<path d="M58.7296 110.957L57.8692 107.146H57.0173V110.957H55.3008V98.7305H57.9681C59.7707 98.7305 60.0977 99.5307 60.0977 101.11V104.857C60.0977 105.747 59.8439 106.358 59.3147 106.72L60.3214 110.957H58.7296ZM57.6283 105.756C58.2134 105.756 58.4069 105.627 58.4069 104.87V101.097C58.4069 100.339 58.2134 100.21 57.6283 100.21H57.0173V105.756H57.6283Z" fill="#F9F8F4"/>
<path d="M57.9663 98.8382C59.6657 98.8382 59.9883 99.5308 59.9883 101.11V104.857C59.9883 105.756 59.713 106.345 59.1924 106.672L60.1862 110.85H58.8138L57.9534 107.038H56.908V110.85H55.4065V98.8382H57.9663ZM56.908 105.864H57.6264C58.3062 105.864 58.5127 105.653 58.5127 104.87V101.097C58.5127 100.314 58.3019 100.103 57.6264 100.103H56.908V105.864ZM57.9663 98.623H55.4065H55.1914V98.8382V110.85V111.065H55.4065H56.908H57.1231V110.85V107.253H57.7813L58.603 110.897L58.6417 111.065H58.8138H60.1862H60.4573L60.3927 110.798L59.4333 106.763C59.9453 106.376 60.2034 105.735 60.2034 104.853V101.105C60.2034 99.4964 59.8464 98.623 57.9663 98.623ZM57.1231 100.322H57.6264C58.1642 100.322 58.2976 100.413 58.2976 101.101V104.874C58.2976 105.558 58.1642 105.653 57.6264 105.653H57.1231V100.322Z" fill="black"/>
<path d="M64.453 111.079C62.8483 111.079 62.0352 110.283 62.0352 108.712V100.981C62.0352 99.4111 62.8483 98.6152 64.453 98.6152C66.0663 98.6152 66.8837 99.4111 66.8837 100.981V108.712C66.8837 110.283 66.0663 111.079 64.453 111.079ZM64.453 100.108C64.1518 100.108 63.7517 100.198 63.7517 100.994V108.7C63.7517 109.491 64.1518 109.586 64.453 109.586C64.7799 109.586 65.1542 109.487 65.1542 108.7V100.994C65.1542 100.211 64.7799 100.108 64.453 100.108Z" fill="#F9F8F4"/>
<path d="M64.4551 98.7229C65.8145 98.7229 66.7782 99.2693 66.7782 100.982V108.713C66.7782 110.425 65.8102 110.971 64.4551 110.971C63.1085 110.971 62.1448 110.425 62.1448 108.713V100.982C62.1448 99.2693 63.1085 98.7229 64.4551 98.7229ZM64.4551 109.689C64.9111 109.689 65.2639 109.465 65.2639 108.695V100.99C65.2639 100.22 64.9111 99.9964 64.4551 99.9964C64.0119 99.9964 63.6463 100.22 63.6463 100.99V108.695C63.6463 109.47 64.0119 109.689 64.4551 109.689ZM64.4551 98.5078C62.7772 98.5078 61.9297 99.3381 61.9297 100.982V108.713C61.9297 110.356 62.7815 111.186 64.4551 111.186C66.1415 111.186 66.9933 110.356 66.9933 108.713V100.982C66.9933 99.3381 66.1415 98.5078 64.4551 98.5078ZM64.4551 109.474C64.1625 109.474 63.8614 109.384 63.8614 108.695V100.99C63.8614 100.306 64.1625 100.211 64.4551 100.211C64.7648 100.211 65.0488 100.306 65.0488 100.99V108.695C65.0488 109.379 64.7648 109.474 64.4551 109.474Z" fill="black"/>
<path d="M71.2319 111.078C69.6314 111.078 68.8527 110.308 68.8527 108.724V106.84H70.5177V108.711C70.5177 109.503 70.9178 109.598 71.2189 109.598C71.5459 109.598 71.9202 109.499 71.9202 108.711V107.171C71.9202 106.298 71.3222 105.898 70.6295 105.429C69.7906 104.861 68.8398 104.22 68.8398 102.585V100.968C68.8398 99.4059 69.64 98.6143 71.2189 98.6143C72.8194 98.6143 73.598 99.3843 73.598 100.968V102.852H71.9331V100.98C71.9331 100.189 71.533 100.094 71.2319 100.094C70.9307 100.094 70.5306 100.185 70.5306 100.98V102.521C70.5306 103.394 71.1329 103.794 71.8256 104.263C72.6688 104.831 73.6239 105.472 73.6239 107.102V108.72C73.6239 110.308 72.8409 111.078 71.2319 111.078Z" fill="#F9F8F4"/>
<path d="M71.2171 98.7229C72.5637 98.7229 73.4887 99.2693 73.4887 100.969V102.745H72.0388V100.982C72.0388 100.224 71.6861 99.9878 71.23 99.9878C70.774 99.9878 70.4212 100.224 70.4212 100.982V102.522C70.4212 104.557 73.5145 104.208 73.5145 107.104V108.721C73.5145 110.421 72.5723 110.967 71.23 110.967C69.8835 110.967 68.9585 110.421 68.9585 108.721V106.944H70.4083V108.708C70.4083 109.465 70.7611 109.702 71.2171 109.702C71.6861 109.702 72.0259 109.465 72.0259 108.708V107.168C72.0259 105.129 68.9456 105.482 68.9456 102.586V100.969C68.9456 99.2693 69.8878 98.7229 71.2171 98.7229ZM71.2171 98.5078C69.5651 98.5078 68.7305 99.3338 68.7305 100.969V102.586C68.7305 104.277 69.7071 104.935 70.5675 105.516C71.2601 105.985 71.8108 106.355 71.8108 107.168V108.708C71.8108 109.392 71.5269 109.487 71.2171 109.487C70.9246 109.487 70.6234 109.397 70.6234 108.708V106.944V106.729H70.4083H68.9585H68.7434V106.944V108.721C68.7434 110.356 69.5823 111.182 71.23 111.182C72.8907 111.182 73.7296 110.356 73.7296 108.721V107.104C73.7296 105.413 72.7487 104.755 71.884 104.174C71.187 103.705 70.6363 103.335 70.6363 102.522V100.982C70.6363 100.298 70.9375 100.203 71.23 100.203C71.5226 100.203 71.8237 100.293 71.8237 100.982V102.745V102.961H72.0388H73.4887H73.7038V102.745V100.969C73.7081 99.3338 72.8692 98.5078 71.2171 98.5078Z" fill="black"/>
<path d="M77.8803 111.078C76.2799 111.078 75.5012 110.308 75.5012 108.724V106.84H77.1661V108.711C77.1661 109.503 77.5662 109.598 77.8674 109.598C78.1943 109.598 78.5686 109.499 78.5686 108.711V107.171C78.5686 106.298 77.9706 105.898 77.278 105.429C76.4391 104.861 75.4883 104.22 75.4883 102.585V100.968C75.4883 99.4059 76.2885 98.6143 77.8674 98.6143C79.4678 98.6143 80.2465 99.3843 80.2465 100.968V102.852H78.5815V100.98C78.5815 100.189 78.1814 100.094 77.8803 100.094C77.5791 100.094 77.179 100.185 77.179 100.98V102.521C77.179 103.394 77.7813 103.794 78.474 104.263C79.3172 104.831 80.2723 105.472 80.2723 107.102V108.72C80.2723 110.308 79.4893 111.078 77.8803 111.078Z" fill="#F9F8F4"/>
<path d="M77.8656 98.7229C79.2121 98.7229 80.1371 99.2693 80.1371 100.969V102.745H78.6873V100.982C78.6873 100.224 78.3345 99.9878 77.8785 99.9878C77.4224 99.9878 77.0697 100.224 77.0697 100.982V102.522C77.0697 104.557 80.1629 104.208 80.1629 107.104V108.721C80.1629 110.421 79.2207 110.967 77.8785 110.967C76.5319 110.967 75.6069 110.421 75.6069 108.721V106.944H77.0568V108.708C77.0568 109.465 77.4095 109.702 77.8656 109.702C78.3345 109.702 78.6744 109.465 78.6744 108.708V107.168C78.6744 105.129 75.594 105.482 75.594 102.586V100.969C75.594 99.2693 76.5362 98.7229 77.8656 98.7229ZM77.8656 98.5078C76.2135 98.5078 75.3789 99.3338 75.3789 100.969V102.586C75.3789 104.277 76.3555 104.935 77.2159 105.516C77.9086 105.985 78.4593 106.355 78.4593 107.168V108.708C78.4593 109.392 78.1753 109.487 77.8656 109.487C77.573 109.487 77.2719 109.397 77.2719 108.708V106.944V106.729H77.0568H75.6069H75.3918V106.944V108.721C75.3918 110.356 76.2307 111.182 77.8785 111.182C79.5391 111.182 80.378 110.356 80.378 108.721V107.104C80.378 105.413 79.3971 104.755 78.5324 104.174C77.8354 103.705 77.2848 103.335 77.2848 102.522V100.982C77.2848 100.298 77.5859 100.203 77.8785 100.203C78.171 100.203 78.4722 100.293 78.4722 100.982V102.745V102.961H78.6873H80.1371H80.3522V102.745V100.969C80.3565 99.3338 79.5176 98.5078 77.8656 98.5078Z" fill="black"/>
<path d="M87.7745 111.091C86.1612 111.091 85.3438 110.299 85.3438 108.737V106.728C85.3438 105.842 85.6492 105.244 86.3074 104.865C85.8256 104.577 85.4083 104.143 85.4083 103.097V100.89C85.4083 99.38 86.2042 98.6143 87.7745 98.6143C89.3749 98.6143 90.1536 99.3585 90.1536 100.89V102.671H88.4757V100.959C88.4757 100.202 88.0756 100.111 87.7745 100.111C87.3012 100.111 87.0732 100.387 87.0732 100.959V103.243C87.0732 103.846 87.327 104.155 87.8261 104.155H90.1794V108.742C90.1837 110.32 89.3964 111.091 87.7745 111.091ZM87.8304 105.592C87.4819 105.592 87.0646 105.752 87.0646 106.504V108.75C87.0646 109.318 87.3055 109.611 87.7788 109.611C88.2606 109.611 88.4929 109.331 88.4929 108.75V105.592H87.8304Z" fill="#F9F8F4"/>
<path d="M87.7766 98.7229C89.1361 98.7229 90.0481 99.2693 90.0481 100.891V102.565H88.5854V100.96C88.5854 100.229 88.2326 100.005 87.7766 100.005C87.3334 100.005 86.9678 100.229 86.9678 100.96V103.244C86.9678 104.002 87.3593 104.264 87.8282 104.264H90.0739V108.743C90.0739 110.442 89.1317 110.988 87.7766 110.988C86.43 110.988 85.4534 110.438 85.4534 108.743V106.734C85.4534 105.753 85.832 105.232 86.473 104.905V104.841C85.8965 104.527 85.5179 104.096 85.5179 103.103V100.896C85.5179 99.2693 86.4343 98.7229 87.7766 98.7229ZM87.7766 109.715C88.2326 109.715 88.5983 109.478 88.5983 108.747V105.482H87.8282C87.3593 105.482 86.9548 105.744 86.9548 106.501V108.747C86.9548 109.483 87.3334 109.715 87.7766 109.715ZM87.7766 98.5078C86.1331 98.5078 85.3028 99.308 85.3028 100.891V103.098C85.3028 104.088 85.6771 104.565 86.1073 104.866C85.5136 105.267 85.2383 105.869 85.2383 106.729V108.738C85.2383 110.373 86.0944 111.199 87.7766 111.199C89.4458 111.199 90.289 110.373 90.289 108.738V104.26V104.045H90.0739H87.8282C87.3937 104.045 87.1829 103.782 87.1829 103.24V100.956C87.1829 100.302 87.5012 100.216 87.7766 100.216C88.0691 100.216 88.3703 100.302 88.3703 100.956V102.56V102.776H88.5854H90.0481H90.2632V102.56V100.887C90.2632 99.308 89.4286 98.5078 87.7766 98.5078ZM87.7766 109.5C87.5141 109.5 87.17 109.422 87.17 108.747V106.501C87.17 105.959 87.3851 105.697 87.8282 105.697H88.3832V108.747C88.3875 109.418 88.0605 109.5 87.7766 109.5Z" fill="black"/>
<path d="M97.66 111.091C96.0553 111.091 95.2422 110.295 95.2422 108.724V100.98C95.2422 99.4102 96.0553 98.6143 97.66 98.6143C99.2733 98.6143 100.091 99.4102 100.091 100.98V102.942H98.3613V100.993C98.3613 100.21 97.987 100.107 97.66 100.107C97.3589 100.107 96.9588 100.197 96.9588 100.993V108.724C96.9588 109.318 97.1868 109.611 97.66 109.611C97.9612 109.611 98.3613 109.52 98.3613 108.724V106.724H100.091V108.724C100.091 110.295 99.2733 111.091 97.66 111.091Z" fill="#F9F8F4"/>
<path d="M97.6621 98.7229C99.0216 98.7229 99.9853 99.2693 99.9853 100.982V102.836H98.4709V100.994C98.4709 100.224 98.1181 100.001 97.6621 100.001C97.219 100.001 96.8533 100.224 96.8533 100.994V108.725C96.8533 109.483 97.219 109.719 97.6621 109.719C98.1181 109.719 98.4709 109.483 98.4709 108.725V106.833H99.9853V108.725C99.9853 110.438 99.0173 110.984 97.6621 110.984C96.3155 110.984 95.3518 110.433 95.3518 108.725V100.982C95.3518 99.2693 96.3155 98.7229 97.6621 98.7229ZM97.6621 98.5078C95.9842 98.5078 95.1367 99.3381 95.1367 100.982V108.725C95.1367 110.369 95.9885 111.199 97.6621 111.199C99.3485 111.199 100.2 110.365 100.2 108.725V106.833V106.617H99.9853H98.4709H98.2558V106.833V108.725C98.2558 109.41 97.9546 109.504 97.6621 109.504C97.3867 109.504 97.0684 109.414 97.0684 108.725V100.994C97.0684 100.31 97.3695 100.216 97.6621 100.216C97.9718 100.216 98.2558 100.31 98.2558 100.994V102.836V103.051H98.4709H99.9853H100.2V102.836V100.982C100.2 99.3381 99.3485 98.5078 97.6621 98.5078Z" fill="black"/>
<path d="M103.814 98.7305H102.098V110.957H103.814V98.7305Z" fill="#F9F8F4"/>
<path d="M103.709 98.8391V110.851H102.207V98.8391H103.709ZM103.924 98.624H103.709H102.207H101.992V98.8391V110.851V111.066H102.207H103.709H103.924V110.851V98.8391V98.624Z" fill="black"/>
<path d="M109.249 110.957L108.389 107.146H107.537V110.957H105.82V98.7305H108.488C110.29 98.7305 110.617 99.5307 110.617 101.11V104.857C110.617 105.747 110.363 106.358 109.834 106.72L110.841 110.957H109.249ZM108.143 105.756C108.729 105.756 108.922 105.627 108.922 104.87V101.097C108.922 100.339 108.729 100.21 108.143 100.21H107.533V105.756H108.143Z" fill="#F9F8F4"/>
<path d="M108.486 98.8391C110.185 98.8391 110.508 99.5318 110.508 101.111V104.858C110.508 105.757 110.233 106.346 109.712 106.673L110.706 110.851H109.333L108.473 107.039H107.427V110.851H105.926V98.8391H108.486ZM107.427 105.865H108.146C108.826 105.865 109.032 105.654 109.032 104.871V101.098C109.032 100.315 108.821 100.104 108.146 100.104H107.427V105.865ZM108.486 98.624H105.926H105.711V98.8391V110.851V111.066H105.926H107.427H107.643V110.851V107.254H108.301L109.123 110.898L109.161 111.066H109.333H110.706H110.977L110.912 110.799L109.953 106.764C110.465 106.377 110.723 105.736 110.723 104.854V101.106C110.727 99.4974 110.37 98.624 108.486 98.624ZM107.643 100.323H108.146C108.684 100.323 108.817 100.414 108.817 101.102V104.875C108.817 105.559 108.684 105.654 108.146 105.654H107.643V100.323Z" fill="black"/>
<path d="M114.976 111.091C113.372 111.091 112.559 110.295 112.559 108.724V100.98C112.559 99.4102 113.372 98.6143 114.976 98.6143C116.59 98.6143 117.407 99.4102 117.407 100.98V102.942H115.678V100.993C115.678 100.21 115.303 100.107 114.976 100.107C114.675 100.107 114.275 100.197 114.275 100.993V108.724C114.275 109.318 114.503 109.611 114.976 109.611C115.278 109.611 115.678 109.52 115.678 108.724V106.724H117.407V108.724C117.407 110.295 116.59 111.091 114.976 111.091Z" fill="#F9F8F4"/>
<path d="M114.978 98.7229C116.338 98.7229 117.302 99.2693 117.302 100.982V102.836H115.787V100.994C115.787 100.224 115.435 100.001 114.978 100.001C114.535 100.001 114.17 100.224 114.17 100.994V108.725C114.17 109.483 114.535 109.719 114.978 109.719C115.435 109.719 115.787 109.483 115.787 108.725V106.833H117.302V108.725C117.302 110.438 116.334 110.984 114.978 110.984C113.632 110.984 112.668 110.433 112.668 108.725V100.982C112.668 99.2693 113.632 98.7229 114.978 98.7229ZM114.978 98.5078C113.301 98.5078 112.453 99.3381 112.453 100.982V108.725C112.453 110.369 113.305 111.199 114.978 111.199C116.665 111.199 117.517 110.365 117.517 108.725V106.833V106.617H117.302H115.787H115.572V106.833V108.725C115.572 109.41 115.271 109.504 114.978 109.504C114.703 109.504 114.385 109.414 114.385 108.725V100.994C114.385 100.31 114.686 100.216 114.978 100.216C115.288 100.216 115.572 100.31 115.572 100.994V102.836V103.051H115.787H117.302H117.517V102.836V100.982C117.517 99.3381 116.665 98.5078 114.978 98.5078Z" fill="black"/>
<path d="M119.418 110.957V98.7305H121.135V109.477H123.238V110.957H119.418Z" fill="#F9F8F4"/>
<path d="M121.025 98.8391V109.586H123.129V110.851H119.524V98.8391H121.025ZM121.24 98.624H121.025H119.524H119.309V98.8391V110.851V111.066H119.524H123.129H123.344V110.851V109.586V109.371H123.129H121.24V98.8391V98.624Z" fill="black"/>
<path d="M125.188 110.957V98.7305H128.81V100.215H126.904V104.1H128.784V105.567H126.904V109.477H128.81V110.957H125.188Z" fill="#F9F8F4"/>
<path d="M128.704 98.8391V100.104H126.799V104.204H128.679V105.456H126.799V109.582H128.704V110.846H125.297V98.8391H128.704ZM128.92 98.624H128.704H125.297H125.082V98.8391V110.851V111.066H125.297H128.704H128.92V110.851V109.586V109.371H128.704H127.014V105.675H128.679H128.894V105.46V104.208V103.993H128.679H127.014V100.323H128.704H128.92V100.108V98.8434V98.624Z" fill="black"/>
<path d="M41.3008 103.744H41.6536V105.882H41.3008V103.744ZM41.4471 103.744H42.7033V104.08H41.4471V103.744ZM41.4471 104.652H42.5441V104.987H41.4471V104.652ZM41.4471 105.542H42.7033V105.878H41.4471V105.542Z" fill="black"/>
<path d="M43.6901 105.873C43.5954 105.851 43.5051 105.821 43.4233 105.782C43.3416 105.743 43.2641 105.696 43.1953 105.636L43.3803 105.356C43.462 105.425 43.5567 105.477 43.6556 105.515C43.7546 105.554 43.8665 105.571 43.9826 105.571C44.1246 105.571 44.2364 105.546 44.3139 105.494C44.3913 105.442 44.4343 105.369 44.4343 105.279C44.4343 105.214 44.4171 105.163 44.3827 105.124C44.3483 105.085 44.301 105.055 44.245 105.038C44.1891 105.021 44.116 105.004 44.0256 104.986C44.0213 104.986 44.0213 104.986 44.017 104.986C44.0127 104.986 44.0127 104.986 44.0084 104.986L43.9826 104.982C43.8406 104.96 43.7202 104.93 43.6298 104.9C43.5395 104.866 43.4577 104.81 43.3932 104.728C43.3287 104.646 43.2986 104.526 43.2986 104.375C43.2986 104.242 43.3287 104.126 43.3889 104.027C43.4491 103.932 43.5395 103.859 43.6556 103.808C43.7718 103.756 43.9095 103.734 44.073 103.734C44.1504 103.734 44.2278 103.743 44.3053 103.76C44.3827 103.777 44.4558 103.803 44.5333 103.833C44.6064 103.868 44.6796 103.906 44.7484 103.958L44.5763 104.246C44.4946 104.186 44.4085 104.143 44.3268 104.113C44.2407 104.083 44.159 104.066 44.0773 104.066C43.9439 104.066 43.8363 104.091 43.7632 104.139C43.6901 104.186 43.6513 104.259 43.6513 104.35C43.6513 104.418 43.6686 104.47 43.7073 104.509C43.746 104.547 43.7933 104.578 43.8492 104.595C43.9052 104.612 43.9869 104.634 44.0902 104.655C44.0945 104.655 44.0988 104.655 44.1031 104.659C44.1074 104.659 44.1117 104.659 44.116 104.659C44.1203 104.659 44.1246 104.659 44.1332 104.664C44.1418 104.668 44.1461 104.664 44.1504 104.668C44.2838 104.694 44.3956 104.728 44.4817 104.763C44.5677 104.797 44.6451 104.862 44.7054 104.943C44.7656 105.025 44.7957 105.137 44.7957 105.279V105.283C44.7957 105.417 44.7656 105.533 44.7011 105.627C44.6365 105.722 44.5462 105.795 44.4257 105.842C44.3053 105.894 44.1633 105.916 43.9955 105.916C43.8837 105.903 43.7847 105.89 43.6901 105.873Z" fill="black"/>
<path d="M45.1172 103.742H46.6574V104.078H45.1172V103.742ZM45.7109 103.914H46.0594V105.876H45.7109V103.914Z" fill="black"/>
<path d="M47.1406 103.742H47.4934V105.88H47.1406V103.742ZM47.3428 105.541H47.8419C47.9882 105.541 48.1 105.506 48.1818 105.433C48.2635 105.36 48.3022 105.257 48.3022 105.123V104.495C48.3022 104.362 48.2635 104.258 48.1818 104.185C48.1 104.112 47.9882 104.078 47.8419 104.078H47.3428V103.742H47.8333C48.0097 103.742 48.1559 103.772 48.2807 103.833C48.4055 103.893 48.5001 103.979 48.5646 104.095C48.6292 104.211 48.6636 104.349 48.6636 104.508V105.115C48.6636 105.274 48.6335 105.407 48.5689 105.523C48.5044 105.639 48.4098 105.725 48.2893 105.79C48.1645 105.85 48.014 105.88 47.8376 105.88H47.3514V105.541H47.3428Z" fill="black"/>
<path d="M136.793 105.881H136.44V104.143L136.156 104.285V103.915L136.466 103.743H136.789V105.881H136.793Z" fill="black"/>
<path d="M138.208 104.818L138.243 104.869C138.217 104.912 138.183 104.947 138.131 104.968C138.079 104.99 138.023 104.998 137.955 104.998C137.851 104.998 137.757 104.973 137.679 104.921C137.597 104.869 137.537 104.796 137.494 104.702C137.451 104.607 137.43 104.499 137.43 104.375C137.43 104.237 137.455 104.117 137.503 104.022C137.55 103.923 137.619 103.85 137.714 103.798C137.808 103.747 137.916 103.721 138.045 103.721C138.174 103.721 138.282 103.747 138.376 103.798C138.471 103.85 138.535 103.927 138.587 104.026C138.639 104.125 138.66 104.246 138.66 104.383C138.66 104.456 138.651 104.538 138.63 104.624C138.608 104.71 138.583 104.796 138.544 104.887C138.54 104.899 138.535 104.912 138.527 104.925C138.522 104.938 138.514 104.951 138.51 104.964L138.092 105.88H137.718L138.208 104.818ZM138.234 104.594C138.277 104.538 138.303 104.461 138.303 104.362C138.303 104.263 138.282 104.19 138.234 104.138C138.191 104.086 138.127 104.061 138.045 104.061C137.963 104.061 137.899 104.086 137.851 104.138C137.808 104.19 137.782 104.267 137.782 104.362C137.782 104.461 137.804 104.538 137.851 104.594C137.899 104.65 137.959 104.676 138.045 104.676C138.127 104.676 138.187 104.65 138.234 104.594Z" fill="black"/>
<path d="M139.537 105.829C139.438 105.781 139.36 105.708 139.304 105.622C139.248 105.532 139.223 105.429 139.223 105.308V105.274C139.223 105.166 139.253 105.067 139.309 104.973C139.365 104.878 139.438 104.809 139.532 104.758C139.455 104.715 139.39 104.659 139.339 104.581C139.291 104.504 139.266 104.422 139.266 104.336V104.284C139.266 104.172 139.291 104.073 139.343 103.987C139.395 103.901 139.468 103.837 139.558 103.79C139.653 103.742 139.76 103.721 139.885 103.721C140.01 103.721 140.118 103.742 140.212 103.79C140.307 103.837 140.376 103.901 140.427 103.987C140.479 104.073 140.505 104.172 140.505 104.284V104.336C140.505 104.426 140.479 104.508 140.432 104.585C140.38 104.663 140.315 104.723 140.238 104.762C140.333 104.809 140.406 104.882 140.466 104.977C140.522 105.072 140.552 105.171 140.552 105.278V105.313C140.552 105.433 140.526 105.536 140.47 105.627C140.414 105.717 140.337 105.786 140.238 105.833C140.139 105.88 140.023 105.906 139.889 105.906C139.756 105.906 139.64 105.876 139.537 105.829ZM140.049 105.528C140.096 105.502 140.135 105.467 140.161 105.424C140.186 105.377 140.199 105.33 140.199 105.269V105.248C140.199 105.192 140.186 105.14 140.161 105.097C140.135 105.054 140.096 105.02 140.053 104.998C140.01 104.977 139.95 104.964 139.889 104.964C139.829 104.964 139.773 104.977 139.726 104.998C139.679 105.02 139.644 105.054 139.618 105.102C139.593 105.149 139.58 105.196 139.58 105.252V105.274C139.58 105.33 139.593 105.381 139.618 105.429C139.644 105.476 139.683 105.506 139.73 105.532C139.778 105.558 139.834 105.566 139.894 105.566C139.954 105.566 140.001 105.549 140.049 105.528ZM140.027 104.585C140.066 104.564 140.1 104.53 140.122 104.486C140.143 104.443 140.156 104.396 140.156 104.34V104.319C140.156 104.267 140.143 104.22 140.122 104.181C140.1 104.142 140.07 104.108 140.027 104.086C139.984 104.065 139.941 104.052 139.885 104.052C139.829 104.052 139.786 104.061 139.743 104.086C139.7 104.112 139.67 104.138 139.649 104.181C139.627 104.22 139.614 104.267 139.614 104.319V104.34C139.614 104.396 139.627 104.443 139.649 104.486C139.67 104.53 139.7 104.56 139.743 104.585C139.782 104.607 139.829 104.62 139.885 104.62C139.941 104.62 139.984 104.611 140.027 104.585Z" fill="black"/>
<path d="M142.301 104.01L141.785 105.881H141.407L141.914 104.079H141.458V104.393H141.105V103.743H142.297V104.01H142.301Z" fill="black"/>
<path d="M93.7682 87.6915L93.1831 85.1016H95.6655L96.2807 87.6915H93.7682ZM87.8398 87.6915V85.1016H90.576V87.6915H87.8398Z" fill="#F9F8F4"/>
<path d="M95.612 85.1603L96.1971 87.6212H93.818L93.263 85.1603H95.612ZM90.5096 85.1603V87.6212H87.9025V85.1603H90.5096ZM95.7152 85.0312H95.612H93.263H93.0995L93.1339 85.1904L93.6889 87.6513L93.7104 87.7502H93.8137H96.1928H96.3563L96.3176 87.591L95.7325 85.1302L95.7152 85.0312ZM90.6387 85.0312H90.5096H87.9025H87.7734V85.1603V87.6212V87.7502H87.9025H90.5096H90.6387V87.6212V85.1603V85.0312Z" fill="black"/>
<path d="M92.3829 81.5511L92.2754 81.0735H90.576V81.5511H87.8398V79.6882H89.0229V76.1088H87.8398V66.7129H92.3442C95.3859 66.7129 95.9236 68.0035 95.9236 70.7182V77.2231C95.9236 78.0233 95.7946 78.703 95.545 79.2451C95.317 79.7356 94.9815 80.1271 94.5469 80.4067L94.8223 81.5554H92.3829V81.5511ZM91.7591 78.9052C92.9207 78.9052 93.2348 78.5482 93.2348 77.2489V70.6967C93.2348 69.3974 92.9164 69.0404 91.7591 69.0404H90.576V78.9052H91.7591Z" fill="#F9F8F4"/>
<path d="M92.3423 66.7775C95.2893 66.7775 95.8572 67.9778 95.8572 70.7183V77.2232C95.8572 78.0277 95.7281 78.6902 95.4872 79.2194C95.2549 79.7184 94.915 80.1013 94.4762 80.3767L94.7429 81.4909H92.4327L92.3251 81.0134H90.5096V81.4909H87.9025V79.7571H89.0856V76.0487H87.9025V66.7775H92.3423ZM90.5096 78.9699H91.7572C92.936 78.9699 93.2974 78.6085 93.2974 77.249V70.6968C93.2974 69.3373 92.936 68.9759 91.7572 68.9759H90.5096V78.9699ZM92.3423 66.6484H87.9025H87.7734V66.7775V76.0444V76.1734H87.9025H88.9565V79.6238H87.9025H87.7734V79.7528V81.4866V81.6157H87.9025H90.5096H90.6387V81.4866V81.1381H92.2219L92.3079 81.5167L92.3294 81.6157H92.4327H94.7429H94.9064L94.8677 81.4565L94.6225 80.4326C95.0484 80.1486 95.3754 79.7614 95.6034 79.271C95.8572 78.7203 95.9863 78.032 95.9863 77.2232V70.7183C95.9863 68.0165 95.4227 66.6484 92.3423 66.6484ZM90.6387 69.105H91.7572C92.8801 69.105 93.1684 69.4319 93.1684 70.6968V77.249C93.1684 78.5138 92.8801 78.8408 91.7572 78.8408H90.6387V69.105Z" fill="black"/>
<path d="M85.3315 84.6976C82.6512 84.6976 81.3477 83.3639 81.3477 80.6234C81.3477 77.8657 82.6512 76.5234 85.3315 76.5234H88.614V79.2811H85.353C84.2215 79.2811 83.6966 79.707 83.6966 80.6234C83.6966 81.5269 84.2387 81.9657 85.353 81.9657H98.7714C99.8728 81.9657 100.428 81.514 100.428 80.6234C100.428 79.7199 99.8857 79.2811 98.7714 79.2811H96.0051L96.0482 79.1908C96.2891 78.6659 96.4139 78.0077 96.4139 77.2247V76.5234H98.7714C101.452 76.5234 102.755 77.8657 102.755 80.6234C102.755 83.3639 101.452 84.6976 98.7714 84.6976H85.3315Z" fill="#F9F8F4"/>
<path d="M98.77 76.5871C101.738 76.5871 102.689 78.2649 102.689 80.6225C102.689 82.9543 101.738 84.6321 98.77 84.6321H85.33C82.3572 84.6321 81.4107 82.9543 81.4107 80.6225C81.4107 78.2649 82.3615 76.5871 85.33 76.5871H88.548V79.2157H85.3515C84.0135 79.2157 83.6306 79.8266 83.6306 80.6225C83.6306 81.3926 84.0135 82.0293 85.3515 82.0293H98.77C100.086 82.0293 100.491 81.3926 100.491 80.6225C100.491 79.8266 100.086 79.2157 98.77 79.2157H96.1069C96.3521 78.6865 96.4769 78.0283 96.4769 77.2195V76.5828H98.77V76.5871ZM98.77 76.458H96.4769H96.3478V76.5871V77.2238C96.3478 77.9982 96.2274 78.6478 95.9865 79.1641L95.9004 79.3491H96.1026H98.7657C99.8541 79.3491 100.357 79.7535 100.357 80.6268C100.357 81.4872 99.8369 81.9046 98.7657 81.9046H85.3472C84.276 81.9046 83.7554 81.4872 83.7554 80.6268C83.7554 80.0804 83.9189 79.3491 85.3472 79.3491H88.5437H88.6728V79.22V76.5914V76.4623H88.5437H85.3257C82.6024 76.4623 81.2773 77.8261 81.2773 80.6268C81.2773 83.4103 82.6024 84.7655 85.3257 84.7655H98.7657C101.489 84.7655 102.814 83.4103 102.814 80.6268C102.818 77.8218 101.498 76.458 98.77 76.458Z" fill="black"/>
<path d="M83.7664 63.003C83.9428 63.1751 84.0289 63.2568 84.2052 63.4289C84.416 63.6354 84.4935 63.7731 84.287 64.0011C84.1966 64.1 84.1536 64.1473 84.0676 64.2506C83.1813 63.4934 82.7339 63.1105 81.8477 62.3533C81.9552 62.2243 82.0111 62.164 82.123 62.0393C82.3854 61.751 82.5446 61.8156 82.7554 62.0221C82.906 62.1683 82.9791 62.2415 83.1297 62.3878C83.2975 62.5512 83.3663 62.6846 83.2975 62.8481L83.3018 62.8524C83.4567 62.7707 83.5986 62.8395 83.7664 63.003ZM81.9681 62.3275C82.3596 62.6674 82.5575 62.8395 82.949 63.1794C83.0178 63.1019 83.0523 63.0589 83.1211 62.9815C83.2803 62.8051 83.2975 62.6803 83.0695 62.4652C82.9103 62.3146 82.8329 62.2372 82.6737 62.0866C82.4672 61.8887 82.3553 61.8973 82.1703 62.0995C82.0929 62.1899 82.0499 62.2372 81.9681 62.3275ZM83.6933 63.0546C83.4653 62.8352 83.3405 62.861 83.1856 63.0331C83.1168 63.1105 83.0781 63.1492 83.0092 63.231C83.4266 63.5924 83.6374 63.7731 84.0547 64.1387C84.1192 64.0656 84.1536 64.0269 84.2181 63.9538C84.3644 63.7903 84.3558 63.6956 84.1493 63.4977C83.9686 63.3213 83.8783 63.231 83.6933 63.0546Z" fill="#F9F8F4" stroke="#F9F8F4" stroke-width="0.27158" stroke-miterlimit="10"/>
<path d="M85.5942 61.8798C85.4135 62.0088 85.3231 62.0777 85.1425 62.2154C85.293 62.4649 85.3662 62.5896 85.521 62.8349C85.4995 62.8521 85.4866 62.8607 85.4651 62.8822C84.837 61.8841 84.5401 61.3764 83.9766 60.3396C84.0411 60.288 84.0755 60.2665 84.14 60.2148C84.9704 61.0538 85.3705 61.4883 86.1406 62.3745C86.1147 62.3917 86.1018 62.4003 86.076 62.4176C85.891 62.2024 85.7921 62.0949 85.5942 61.8798ZM85.5426 61.8196C84.9876 61.2129 84.7036 60.9161 84.1228 60.331C84.1099 60.3396 84.1013 60.3439 84.0884 60.3568C84.4799 61.0839 84.6821 61.441 85.1037 62.1465C85.2758 62.0132 85.3662 61.9486 85.5426 61.8196Z" fill="#F9F8F4" stroke="#F9F8F4" stroke-width="0.27158" stroke-miterlimit="10"/>
<path d="M87.1719 60.5975C87.1461 60.6147 87.1159 60.6319 87.0815 60.6491C86.9869 60.6964 86.9396 60.7179 86.8449 60.7653C87.0299 61.1309 87.1246 61.3159 87.3095 61.6816C87.2837 61.6945 87.2708 61.7031 87.2407 61.716C86.7029 60.6792 86.4362 60.1587 85.8984 59.1218C86.0361 59.0487 86.1092 59.0143 86.2512 58.9454C86.5782 58.7863 86.6986 58.911 86.8191 59.1778C86.9783 59.5434 87.06 59.7241 87.2235 60.0855C87.3138 60.2877 87.3354 60.4254 87.2321 60.5415C87.4859 60.89 87.6107 61.0664 87.8516 61.4235C87.8258 61.4364 87.8129 61.4407 87.7828 61.4536C87.5462 61.1094 87.4257 60.9373 87.1719 60.5975ZM87.0385 60.5846C87.2407 60.4856 87.2751 60.3953 87.1547 60.1285C86.9869 59.7585 86.9051 59.5736 86.7374 59.2036C86.6212 58.9411 86.5179 58.9067 86.2856 59.0186C86.1824 59.0702 86.1308 59.096 86.0275 59.1476C86.3416 59.7672 86.5007 60.0769 86.8148 60.6964C86.9008 60.6534 86.9482 60.6276 87.0385 60.5846Z" fill="#F9F8F4" stroke="#F9F8F4" stroke-width="0.27158" stroke-miterlimit="10"/>
<path d="M89.405 59.7934C89.4609 60.03 89.491 60.1504 89.547 60.3871C89.6158 60.6753 89.6072 60.8302 89.3319 60.9076C89.2157 60.9377 89.1555 60.955 89.0393 60.9937C88.6995 59.8751 88.5274 59.3158 88.1875 58.1973C88.3338 58.1542 88.4112 58.1327 88.5618 58.0897C88.9103 57.9951 89.0049 58.137 89.0737 58.4253C89.1211 58.6275 89.1469 58.7307 89.1942 58.9329C89.2501 59.1566 89.2372 59.3115 89.1039 59.4062C89.1039 59.4105 89.1039 59.4105 89.1039 59.4105C89.2716 59.432 89.3491 59.5654 89.405 59.7934ZM88.2994 58.2446C88.4456 58.7436 88.5188 58.9932 88.6693 59.4879C88.764 59.4621 88.807 59.4492 88.9017 59.4234C89.1125 59.3675 89.1856 59.2685 89.1125 58.9674C89.0608 58.7522 89.035 58.649 88.9791 58.4339C88.9103 58.1585 88.8156 58.1026 88.5747 58.1671C88.4628 58.1973 88.4069 58.2145 88.2994 58.2446ZM89.319 59.7977C89.2415 59.4879 89.134 59.4449 88.9232 59.5008C88.8285 59.5266 88.7812 59.5395 88.6908 59.5654C88.85 60.0945 88.9275 60.3613 89.0823 60.8947C89.1684 60.8689 89.2157 60.856 89.3018 60.8345C89.4953 60.7829 89.5384 60.6968 89.4695 60.4172C89.4093 60.1677 89.3792 60.0472 89.319 59.7977Z" fill="#F9F8F4" stroke="#F9F8F4" stroke-width="0.27158" stroke-miterlimit="10"/>
<path d="M90.7126 57.7673C90.7686 58.3008 90.7987 58.5718 90.8546 59.1053C91.0439 59.0838 91.1385 59.0795 91.3278 59.0666C91.3278 59.0967 91.3321 59.1139 91.3321 59.144C91.1428 59.1569 91.0525 59.1655 90.8632 59.1828C90.9191 59.7162 90.9492 59.983 91.0052 60.5164C91.173 60.4992 91.2547 60.4906 91.4225 60.482C91.4225 60.5121 91.4268 60.5293 91.4268 60.5594C91.2332 60.5724 91.1342 60.581 90.9363 60.6025C90.8073 59.4409 90.7384 58.8601 90.6094 57.6985C90.8589 57.6727 90.9837 57.6598 91.2332 57.6426C91.2332 57.6727 91.2375 57.6899 91.2375 57.72C91.0267 57.7372 90.9234 57.7458 90.7126 57.7673Z" fill="#F9F8F4" stroke="#F9F8F4" stroke-width="0.27158" stroke-miterlimit="10"/>
<path d="M93.2217 59.5479C93.1916 59.5522 93.1572 59.5522 93.1185 59.5479C93.0152 59.5393 92.9636 59.535 92.8603 59.5307C92.8345 59.9394 92.8216 60.1459 92.7958 60.5589C92.7657 60.5589 92.7528 60.5546 92.7227 60.5546C92.7872 59.3887 92.8216 58.8036 92.8861 57.6377C93.041 57.6463 93.1185 57.6506 93.269 57.6635C93.6261 57.6936 93.6691 57.8614 93.6347 58.154C93.5874 58.5498 93.5659 58.7477 93.5185 59.1392C93.4927 59.3586 93.4411 59.4919 93.2948 59.535C93.3336 59.9652 93.3508 60.1803 93.3766 60.6062C93.3465 60.6019 93.3336 60.6019 93.3034 60.5976C93.2776 60.1803 93.2604 59.9695 93.2217 59.5479ZM93.1098 59.4747C93.3293 59.4919 93.4024 59.4317 93.4368 59.1392C93.4798 58.7347 93.5013 58.5368 93.5487 58.1324C93.5788 57.8485 93.5099 57.7668 93.2604 57.7452C93.1486 57.7366 93.0926 57.7323 92.9765 57.7237C92.9335 58.4164 92.912 58.7649 92.8646 59.4575C92.9636 59.4618 93.0109 59.4661 93.1098 59.4747Z" fill="#F9F8F4" stroke="#F9F8F4" stroke-width="0.27158" stroke-miterlimit="10"/>
<path d="M95.7105 58.9895C95.7621 58.8174 95.7879 58.7357 95.8353 58.5636C95.9127 58.3012 95.8052 58.1764 95.6331 58.1291C95.4653 58.0861 95.3061 58.1377 95.2416 58.4044C95.2029 58.5593 95.1857 58.6368 95.1469 58.7916C94.9964 59.4154 95.6331 59.5531 95.4309 60.22C95.3835 60.3705 95.362 60.448 95.3147 60.5985C95.2158 60.9255 95.0437 60.9771 94.8759 60.9341C94.7038 60.8868 94.5877 60.7577 94.6651 60.4265C94.7081 60.2544 94.7253 60.1683 94.7683 59.9919C94.7985 60.0005 94.8114 60.0005 94.8415 60.0091C94.7985 60.1812 94.777 60.2673 94.7339 60.4394C94.6694 60.7061 94.7554 60.8137 94.8931 60.8524C95.0308 60.8911 95.1598 60.8395 95.2373 60.577C95.2803 60.4265 95.3061 60.349 95.3491 60.1984C95.5298 59.5832 94.8931 59.4499 95.0566 58.7744C95.0953 58.6195 95.1125 58.5421 95.1469 58.3872C95.2244 58.056 95.4309 58 95.646 58.0603C95.8654 58.1205 96.0117 58.2711 95.9127 58.5937C95.8611 58.7658 95.8353 58.8476 95.7836 59.0196C95.7621 59.0024 95.7449 58.9981 95.7105 58.9895Z" fill="#F9F8F4" stroke="#F9F8F4" stroke-width="0.27158" stroke-miterlimit="10"/>
<path d="M98.3548 59.1303C97.817 60.1672 97.5459 60.6877 97.0082 61.7245C96.9823 61.7116 96.9694 61.703 96.9436 61.6901C97.2018 61.1825 97.3308 60.9329 97.589 60.4253C97.3782 60.3177 97.2749 60.2661 97.0598 60.1715C96.8275 60.6877 96.7113 60.9502 96.479 61.4664C96.4532 61.4535 96.436 61.4492 96.4102 61.4363C96.8834 60.3651 97.12 59.8316 97.589 58.7646C97.6234 58.7819 97.6406 58.7862 97.675 58.8034C97.4427 59.3239 97.3265 59.5821 97.0899 60.1026C97.305 60.2016 97.4126 60.2489 97.6234 60.3565C97.8815 59.8488 98.0106 59.595 98.2687 59.0873C98.3074 59.1045 98.3246 59.1131 98.3548 59.1303Z" fill="#F9F8F4" stroke="#F9F8F4" stroke-width="0.27158" stroke-miterlimit="10"/>
<path d="M100.25 60.8523C99.7338 61.5062 99.4714 61.8375 98.9552 62.4914C98.7443 62.7624 98.555 62.7409 98.4131 62.6334C98.2668 62.5258 98.198 62.3537 98.3959 62.0741C98.8734 61.3857 99.11 61.0416 99.5833 60.3575C99.7769 60.0736 100.001 60.1037 100.186 60.2413C100.366 60.379 100.461 60.5855 100.25 60.8523ZM100.134 60.3059C99.9877 60.1983 99.8156 60.1811 99.6564 60.4091C99.1746 61.0932 98.9336 61.4331 98.4561 62.1171C98.2969 62.3451 98.3442 62.4828 98.4604 62.5645C98.5766 62.6506 98.7228 62.6549 98.8906 62.4398C99.4026 61.7815 99.6607 61.4503 100.173 60.792C100.345 60.5769 100.28 60.4177 100.134 60.3059Z" fill="#F9F8F4" stroke="#F9F8F4" stroke-width="0.27158" stroke-miterlimit="10"/>
<path d="M102.059 62.6504C101.689 62.9644 101.504 63.1236 101.138 63.4377C100.914 63.6313 100.764 63.6829 100.54 63.442C100.467 63.3645 100.433 63.3258 100.359 63.2484C100.127 63.4721 100.011 63.5839 99.7786 63.8077C99.7571 63.7861 99.7442 63.7732 99.7227 63.7517C100.562 62.9386 100.979 62.5299 101.818 61.7168C101.934 61.8373 101.99 61.8975 102.102 62.0179C102.364 62.3019 102.282 62.4568 102.059 62.6504ZM102.003 62.5643C102.218 62.375 102.222 62.2632 102.037 62.061C101.955 61.9706 101.912 61.9276 101.826 61.8373C101.263 62.3793 100.979 62.6504 100.411 63.1924C100.484 63.2699 100.519 63.3043 100.592 63.3817C100.751 63.5538 100.854 63.5624 101.069 63.3731C101.444 63.0505 101.629 62.8913 102.003 62.5643Z" fill="#F9F8F4" stroke="#F9F8F4" stroke-width="0.27158" stroke-miterlimit="10"/>
<path d="M66.4148 122.217C66.2986 122.548 66.0792 122.578 65.8641 122.501C65.649 122.424 65.4984 122.26 65.6146 121.933C65.9028 121.133 66.0448 120.733 66.333 119.933C66.4492 119.606 66.6643 119.571 66.8708 119.644C67.0773 119.718 67.2236 119.877 67.1074 120.208C67.0472 120.376 67.0171 120.462 66.9611 120.634C66.9267 120.621 66.9095 120.617 66.8708 120.604C66.931 120.436 66.9611 120.35 67.0171 120.182C67.1117 119.915 67.0042 119.786 66.8407 119.73C66.6772 119.675 66.5137 119.705 66.4191 119.971C66.1308 120.772 65.9888 121.172 65.7006 121.972C65.606 122.234 65.7135 122.372 65.8856 122.432C66.0534 122.492 66.2255 122.458 66.3201 122.191C66.3803 122.015 66.4105 121.929 66.4707 121.757C66.5051 121.77 66.5266 121.774 66.561 121.787C66.5051 121.955 66.475 122.045 66.4148 122.217Z" fill="#F9F8F4" stroke="#F9F8F4" stroke-width="0.27158" stroke-miterlimit="10"/>
<path d="M68.5946 123.297C68.586 123.327 68.5817 123.344 68.5688 123.374C68.302 123.293 68.1687 123.249 67.9062 123.163C68.2719 122.032 68.4526 121.468 68.8183 120.337C68.8527 120.35 68.8699 120.354 68.9086 120.367C68.5559 121.468 68.3795 122.019 68.0224 123.12C68.2504 123.189 68.3666 123.224 68.5946 123.297Z" fill="#F9F8F4" stroke="#F9F8F4" stroke-width="0.27158" stroke-miterlimit="10"/>
<path d="M71.102 123.357C70.8482 123.288 70.7235 123.25 70.4739 123.181C70.3535 123.452 70.2889 123.585 70.1685 123.856C70.1341 123.848 70.1168 123.839 70.0781 123.83C70.5772 122.738 70.8181 122.187 71.3042 121.09C71.3774 121.111 71.4161 121.12 71.4935 121.141C71.3301 122.329 71.2526 122.927 71.102 124.119C71.0633 124.11 71.0461 124.101 71.0074 124.093C71.0461 123.796 71.0633 123.65 71.102 123.357ZM71.1149 123.275C71.2225 122.445 71.2784 122.028 71.3946 121.202C71.3774 121.197 71.3731 121.193 71.3559 121.189C71.0203 121.955 70.8482 122.337 70.504 123.103C70.7493 123.172 70.8697 123.207 71.1149 123.275Z" fill="#F9F8F4" stroke="#F9F8F4" stroke-width="0.27158" stroke-miterlimit="10"/>
<path d="M73.806 122.651C73.849 122.475 73.8705 122.388 73.9135 122.212C73.978 121.941 73.8705 121.821 73.6984 121.782C73.5306 121.739 73.3757 121.795 73.3069 122.062C73.2682 122.216 73.2467 122.298 73.208 122.453C73.0488 123.085 73.7672 123.227 73.5995 123.916C73.5607 124.071 73.5435 124.152 73.5048 124.307C73.4231 124.643 73.2123 124.699 72.9885 124.643C72.7648 124.587 72.6057 124.441 72.6917 124.105C72.7347 123.929 72.7605 123.843 72.8036 123.666C72.838 123.675 72.8552 123.679 72.8939 123.688C72.8509 123.864 72.8294 123.95 72.782 124.127C72.7132 124.398 72.8337 124.514 73.0101 124.561C73.1908 124.604 73.3456 124.552 73.4145 124.286C73.4532 124.131 73.4704 124.049 73.5091 123.894C73.664 123.262 72.9455 123.12 73.1176 122.432C73.1563 122.277 73.1778 122.195 73.2166 122.04C73.3026 121.704 73.5048 121.649 73.7199 121.704C73.935 121.76 74.0856 121.902 74.0039 122.238C73.9608 122.414 73.9393 122.5 73.8963 122.677C73.8619 122.664 73.8447 122.66 73.806 122.651Z" fill="#F9F8F4" stroke="#F9F8F4" stroke-width="0.27158" stroke-miterlimit="10"/>
<path d="M76.1623 123.186C76.2011 123.009 76.2183 122.919 76.257 122.743C76.3129 122.471 76.2011 122.355 76.029 122.317C75.8612 122.282 75.7063 122.338 75.6461 122.609C75.6117 122.768 75.5944 122.846 75.56 123.005C75.4224 123.642 76.1408 123.758 75.9989 124.45C75.9644 124.61 75.9515 124.687 75.9171 124.846C75.8483 125.186 75.6375 125.246 75.4138 125.199C75.19 125.152 75.0266 125.01 75.0997 124.67C75.1384 124.493 75.1599 124.403 75.1986 124.227C75.2331 124.235 75.2546 124.24 75.289 124.248C75.2503 124.425 75.2331 124.515 75.1943 124.691C75.1341 124.962 75.2589 125.079 75.4353 125.117C75.616 125.156 75.7708 125.1 75.8268 124.829C75.8612 124.67 75.8784 124.592 75.9085 124.433C76.0419 123.797 75.3191 123.676 75.474 122.983C75.5084 122.824 75.5256 122.747 75.56 122.588C75.6332 122.248 75.8354 122.188 76.0505 122.235C76.2656 122.282 76.4248 122.42 76.3516 122.76C76.3129 122.936 76.2957 123.026 76.2613 123.203C76.2183 123.199 76.2011 123.194 76.1623 123.186Z" fill="#F9F8F4" stroke="#F9F8F4" stroke-width="0.27158" stroke-miterlimit="10"/>
<path d="M78.0108 122.659C78.0452 122.668 78.0668 122.668 78.1012 122.676C77.8861 123.847 77.7785 124.432 77.5634 125.598C77.5247 125.589 77.5075 125.589 77.4688 125.58C77.6839 124.414 77.7914 123.829 78.0108 122.659Z" fill="#F9F8F4" stroke="#F9F8F4" stroke-width="0.27158" stroke-miterlimit="10"/>
<path d="M80.1255 125.599C80.0739 125.943 79.8674 126.016 79.6437 125.981C79.42 125.947 79.2436 125.814 79.2995 125.47C79.4329 124.631 79.5017 124.209 79.6394 123.37C79.6953 123.026 79.8975 122.953 80.1126 122.987C80.3277 123.022 80.4955 123.151 80.4439 123.495C80.4181 123.671 80.4052 123.762 80.375 123.938C80.3363 123.934 80.3191 123.929 80.2847 123.925C80.3105 123.749 80.3234 123.658 80.3535 123.482C80.3966 123.202 80.2675 123.095 80.0997 123.069C79.9319 123.043 79.777 123.108 79.734 123.383C79.6007 124.222 79.5318 124.644 79.3985 125.482C79.3554 125.762 79.4845 125.874 79.6609 125.9C79.8373 125.926 79.9965 125.861 80.0395 125.581C80.0653 125.401 80.0825 125.306 80.1083 125.125C80.147 125.13 80.1642 125.134 80.203 125.138C80.1685 125.328 80.1556 125.418 80.1255 125.599Z" fill="#F9F8F4" stroke="#F9F8F4" stroke-width="0.27158" stroke-miterlimit="10"/>
<path d="M84.4261 124.441C84.4433 124.261 84.4519 124.17 84.4691 123.99C84.4949 123.714 84.3702 123.611 84.1981 123.594C84.026 123.577 83.8797 123.654 83.8539 123.929C83.8367 124.088 83.8281 124.17 83.8109 124.329C83.7421 124.979 84.4691 125.013 84.4046 125.719C84.3874 125.878 84.3831 125.96 84.3659 126.119C84.3358 126.463 84.1335 126.549 83.9055 126.524C83.6775 126.502 83.5011 126.377 83.5356 126.033C83.5528 125.852 83.5657 125.762 83.5829 125.581C83.6173 125.586 83.6388 125.586 83.6732 125.59C83.656 125.771 83.6474 125.861 83.6259 126.042C83.5958 126.317 83.7291 126.42 83.9098 126.437C84.0948 126.455 84.2411 126.382 84.2669 126.106C84.2841 125.947 84.2884 125.865 84.3056 125.706C84.3659 125.056 83.6388 125.018 83.7119 124.316C83.7291 124.157 83.7378 124.076 83.755 123.916C83.7894 123.572 83.983 123.49 84.1981 123.512C84.4175 123.533 84.5853 123.654 84.5552 123.998C84.5379 124.179 84.5293 124.269 84.5121 124.45C84.482 124.446 84.4648 124.441 84.4261 124.441Z" fill="#F9F8F4" stroke="#F9F8F4" stroke-width="0.27158" stroke-miterlimit="10"/>
<path d="M87.0169 123.765C86.9438 124.952 86.9093 125.546 86.8362 126.729C86.7975 126.725 86.7803 126.725 86.7416 126.725C86.776 126.148 86.7932 125.86 86.8319 125.284C86.5738 125.266 86.4447 125.258 86.1823 125.241C86.1436 125.817 86.122 126.105 86.079 126.682C86.0403 126.677 86.0231 126.677 85.9844 126.673C86.0704 125.486 86.1134 124.896 86.1952 123.709C86.2296 123.713 86.2511 123.713 86.2855 123.718C86.2468 124.294 86.2253 124.582 86.1823 125.159C86.4404 125.176 86.5695 125.185 86.8319 125.202C86.8663 124.625 86.8878 124.337 86.9223 123.756C86.961 123.761 86.9782 123.765 87.0169 123.765Z" fill="#F9F8F4" stroke="#F9F8F4" stroke-width="0.27158" stroke-miterlimit="10"/>
<path d="M89.3382 126.11C89.0801 126.101 88.951 126.097 88.6886 126.088C88.6369 126.381 88.6111 126.527 88.5552 126.815C88.5165 126.815 88.4993 126.815 88.4648 126.811C88.68 125.628 88.7875 125.039 88.9897 123.855C89.0671 123.86 89.1059 123.86 89.1833 123.86C89.3124 125.051 89.3769 125.649 89.5189 126.841C89.4802 126.841 89.4629 126.841 89.4242 126.837C89.3898 126.549 89.3726 126.402 89.3382 126.11ZM89.3296 126.028C89.2349 125.193 89.1919 124.78 89.1016 123.946C89.0844 123.946 89.0757 123.946 89.0628 123.946C88.9209 124.772 88.8477 125.185 88.7015 126.007C88.951 126.015 89.0801 126.019 89.3296 126.028Z" fill="#F9F8F4" stroke="#F9F8F4" stroke-width="0.27158" stroke-miterlimit="10"/>
<path d="M90.9693 123.898C91.1198 125.056 91.1973 125.632 91.3608 126.79C91.378 126.79 91.3866 126.79 91.4038 126.79C91.5673 125.637 91.649 125.056 91.8039 123.903C91.8426 123.903 91.8598 123.903 91.8942 123.903C91.7393 125.094 91.6533 125.688 91.4855 126.876C91.4038 126.876 91.3651 126.876 91.2833 126.876C91.1155 125.688 91.0338 125.09 90.8789 123.903C90.9176 123.898 90.9348 123.898 90.9693 123.898Z" fill="#F9F8F4" stroke="#F9F8F4" stroke-width="0.27158" stroke-miterlimit="10"/>
<path d="M93.5552 123.955C93.5724 124.501 93.5767 124.776 93.5939 125.323C93.8047 125.318 93.9123 125.314 94.1231 125.305C94.1231 125.336 94.1231 125.353 94.1274 125.383C93.9166 125.392 93.809 125.392 93.5982 125.4C93.6154 125.947 93.6197 126.218 93.6369 126.764C93.852 126.76 93.9639 126.755 94.179 126.747C94.179 126.777 94.179 126.794 94.1833 126.828C93.9295 126.837 93.8004 126.841 93.5466 126.85C93.5122 125.663 93.4993 125.069 93.4648 123.881C93.7101 123.873 93.8305 123.873 94.0758 123.864C94.0758 123.899 94.0758 123.912 94.0801 123.946C93.8692 123.946 93.766 123.946 93.5552 123.955Z" fill="#F9F8F4" stroke="#F9F8F4" stroke-width="0.27158" stroke-miterlimit="10"/>
<path d="M96.434 124.608C96.421 124.428 96.4167 124.337 96.4038 124.157C96.3866 123.881 96.2447 123.8 96.0726 123.808C95.9005 123.817 95.7714 123.916 95.7843 124.195C95.7929 124.354 95.7972 124.436 95.8058 124.6C95.8446 125.249 96.5673 125.172 96.6146 125.877C96.6276 126.037 96.6319 126.118 96.6405 126.282C96.662 126.626 96.4813 126.742 96.2533 126.755C96.0252 126.768 95.8316 126.678 95.8101 126.333C95.8015 126.153 95.7929 126.062 95.7843 125.882C95.8187 125.882 95.8402 125.877 95.8747 125.877C95.8833 126.058 95.8919 126.148 95.9005 126.329C95.9177 126.605 96.064 126.686 96.2447 126.673C96.4297 126.66 96.563 126.566 96.5415 126.29C96.5329 126.131 96.5243 126.05 96.5157 125.886C96.4727 125.236 95.7499 125.314 95.7069 124.608C95.6983 124.449 95.694 124.367 95.6854 124.204C95.6639 123.86 95.8403 123.744 96.0597 123.731C96.2791 123.718 96.4641 123.808 96.4899 124.152C96.5028 124.333 96.5071 124.423 96.52 124.604C96.4899 124.604 96.4727 124.608 96.434 124.608Z" fill="#F9F8F4" stroke="#F9F8F4" stroke-width="0.27158" stroke-miterlimit="10"/>
<path d="M100.788 125.568C100.53 125.598 100.401 125.615 100.143 125.646C100.134 125.942 100.13 126.089 100.122 126.386C100.083 126.39 100.066 126.39 100.031 126.394C100.07 125.194 100.083 124.596 100.109 123.396C100.186 123.387 100.225 123.383 100.302 123.374C100.608 124.536 100.763 125.112 101.081 126.274C101.042 126.278 101.025 126.282 100.986 126.287C100.905 125.998 100.866 125.856 100.788 125.568ZM100.771 125.491C100.552 124.682 100.444 124.277 100.233 123.469C100.216 123.469 100.208 123.473 100.195 123.473C100.178 124.312 100.169 124.729 100.147 125.568C100.393 125.534 100.522 125.521 100.771 125.491Z" fill="#F9F8F4" stroke="#F9F8F4" stroke-width="0.27158" stroke-miterlimit="10"/>
<path d="M102.262 123.112C102.326 123.103 102.356 123.099 102.421 123.09C102.851 124.179 103.071 124.725 103.522 125.809C103.531 125.809 103.531 125.809 103.539 125.805C103.527 125.727 103.518 125.689 103.505 125.607C103.337 124.557 103.256 124.032 103.088 122.983C103.126 122.978 103.144 122.974 103.178 122.97C103.367 124.144 103.458 124.729 103.647 125.904C103.578 125.917 103.544 125.921 103.479 125.93C103.028 124.845 102.808 124.299 102.378 123.211C102.374 123.211 102.369 123.211 102.365 123.211C102.533 124.342 102.614 124.906 102.787 126.033C102.752 126.037 102.731 126.041 102.696 126.046C102.524 124.876 102.438 124.286 102.262 123.112Z" fill="#F9F8F4" stroke="#F9F8F4" stroke-width="0.27158" stroke-miterlimit="10"/>
<path d="M105.667 122.995C105.822 123.8 105.903 124.204 106.058 125.013C106.114 125.31 106.084 125.477 105.727 125.542C105.563 125.572 105.486 125.589 105.323 125.615C105.107 124.445 105.004 123.86 104.789 122.694C104.944 122.664 105.021 122.651 105.176 122.621C105.52 122.556 105.611 122.698 105.667 122.995ZM105.572 122.999C105.516 122.715 105.43 122.655 105.181 122.703C105.064 122.724 105.004 122.737 104.888 122.758C105.09 123.864 105.193 124.415 105.396 125.52C105.516 125.499 105.576 125.486 105.697 125.465C105.951 125.417 106.015 125.327 105.959 125.043C105.809 124.226 105.731 123.817 105.572 122.999Z" fill="#F9F8F4" stroke="#F9F8F4" stroke-width="0.27158" stroke-miterlimit="10"/>
<path d="M110.272 124.105C110.358 124.445 110.194 124.591 109.971 124.647C109.751 124.703 109.536 124.647 109.454 124.307C109.257 123.481 109.153 123.068 108.955 122.242C108.874 121.903 109.033 121.761 109.244 121.705C109.454 121.653 109.665 121.705 109.751 122.045C109.794 122.217 109.816 122.307 109.863 122.479C109.829 122.488 109.807 122.492 109.773 122.501C109.73 122.328 109.708 122.238 109.665 122.066C109.596 121.795 109.437 121.743 109.269 121.786C109.102 121.829 108.986 121.946 109.05 122.221C109.252 123.047 109.351 123.46 109.553 124.286C109.618 124.557 109.786 124.613 109.958 124.57C110.13 124.527 110.255 124.402 110.182 124.131C110.139 123.95 110.113 123.864 110.07 123.684C110.108 123.675 110.126 123.671 110.16 123.662C110.203 123.834 110.225 123.925 110.272 124.105Z" fill="#F9F8F4" stroke="#F9F8F4" stroke-width="0.27158" stroke-miterlimit="10"/>
<path d="M112.719 123.439C112.818 123.775 112.655 123.93 112.435 123.99C112.216 124.05 112.001 124.003 111.906 123.667C111.635 122.686 111.498 122.196 111.227 121.211C111.261 121.202 111.278 121.198 111.317 121.185C111.592 122.166 111.726 122.656 112.001 123.641C112.078 123.912 112.242 123.955 112.414 123.908C112.586 123.861 112.707 123.736 112.625 123.465C112.341 122.484 112.203 121.994 111.919 121.017C111.954 121.008 111.971 121 112.01 120.991C112.298 121.972 112.435 122.458 112.719 123.439Z" fill="#F9F8F4" stroke="#F9F8F4" stroke-width="0.27158" stroke-miterlimit="10"/>
<path d="M114.367 120.35C114.22 120.397 114.147 120.419 114.001 120.466C114.354 121.567 114.53 122.118 114.883 123.219C114.844 123.232 114.827 123.237 114.793 123.25C114.44 122.148 114.268 121.598 113.915 120.496C113.769 120.543 113.696 120.565 113.549 120.612C113.541 120.582 113.536 120.565 113.523 120.535C113.85 120.432 114.014 120.38 114.341 120.272C114.349 120.307 114.358 120.32 114.367 120.35Z" fill="#F9F8F4" stroke="#F9F8F4" stroke-width="0.27158" stroke-miterlimit="10"/>
<path d="M116.695 120.392C116.635 120.22 116.604 120.138 116.544 119.966C116.45 119.704 116.29 119.665 116.127 119.725C115.963 119.781 115.86 119.915 115.955 120.177C116.006 120.328 116.037 120.405 116.088 120.56C116.303 121.175 116.983 120.896 117.224 121.562C117.28 121.713 117.306 121.79 117.362 121.941C117.478 122.268 117.332 122.427 117.112 122.505C116.893 122.582 116.678 122.548 116.566 122.221C116.506 122.049 116.475 121.962 116.415 121.795C116.45 121.782 116.467 121.777 116.501 121.765C116.561 121.937 116.592 122.023 116.652 122.19C116.742 122.453 116.91 122.487 117.082 122.427C117.258 122.367 117.362 122.233 117.267 121.975C117.211 121.825 117.185 121.747 117.129 121.597C116.91 120.982 116.226 121.261 115.994 120.594C115.942 120.444 115.912 120.366 115.86 120.211C115.748 119.885 115.886 119.725 116.097 119.652C116.308 119.579 116.514 119.613 116.63 119.94C116.69 120.113 116.721 120.194 116.785 120.366C116.751 120.371 116.734 120.379 116.695 120.392Z" fill="#F9F8F4" stroke="#F9F8F4" stroke-width="0.27158" stroke-miterlimit="10"/>
</g>
<defs>
<clipPath id="clip0">
<rect width="110.037" height="69.3683" fill="white" transform="translate(37.2969 57.5674)"/>
</clipPath>
</defs>
</svg>
