<svg width="183" height="184" viewBox="0 0 183 184" fill="none" xmlns="http://www.w3.org/2000/svg">
<rect y="0.355469" width="183" height="183" rx="3" fill="#0C0C0C"/>
<path d="M75.1942 108.813C75.5562 108.813 75.8623 108.859 76.1497 108.805C78.5852 108.354 81.01 107.847 83.4522 107.438C85.1077 107.161 86.7846 107 88.4549 106.814C89.9507 106.646 91.4493 106.513 92.9478 106.366C93.1688 106.345 93.3897 106.327 93.6106 106.317C98.4416 106.123 103.273 106.105 108.102 106.329C109.56 106.397 111.013 106.583 112.464 106.743C114.002 106.912 115.538 107.117 117.075 107.304C119.669 107.619 122.228 108.125 124.782 108.659C127.988 109.33 131.147 110.18 134.282 111.126C134.536 111.202 134.791 111.275 135.04 111.365C136.01 111.715 136.193 112.338 135.55 113.169C135.454 113.294 135.268 113.399 135.111 113.42C134.806 113.463 134.492 113.458 134.182 113.442C132.637 113.363 131.191 113.692 129.845 114.444C129.654 114.551 129.445 114.624 129.283 114.695C128.861 114.619 128.696 114.36 128.712 114.031C128.732 113.6 128.799 113.169 128.882 112.745C129.041 111.941 128.877 111.598 128.069 111.382C126.961 111.084 125.841 110.817 124.717 110.577C121.56 109.903 118.385 109.339 115.177 108.944C112.188 108.576 109.199 108.298 106.187 108.149C103.973 108.04 101.761 107.937 99.5449 107.979C96.8433 108.03 94.1443 108.143 91.4546 108.427C89.5195 108.63 87.5738 108.756 85.6467 109.023C82.3183 109.484 79.0111 110.084 75.7332 110.829C75.0371 110.986 74.7058 111.379 74.5021 112.025C73.6251 114.8 71.8058 116.819 69.2133 118.14C66.1976 119.677 63.1592 119.606 60.1741 118.04C58.3468 117.082 56.8762 115.688 55.5813 114.113C55.1342 113.571 54.7362 112.99 54.3143 112.428C54.1307 112.183 53.9657 111.92 53.758 111.696C53.4 111.307 53.0247 111.279 52.5816 111.594C52.33 111.773 52.1118 111.995 51.8602 112.172C51.646 112.325 51.4144 112.46 51.1735 112.569C50.9246 112.682 50.6225 112.732 50.4429 112.494C50.3311 112.347 50.2898 112.083 50.3324 111.898C50.6917 110.352 50.7703 108.789 50.7503 107.209C50.7343 105.977 50.5986 104.77 50.2393 103.59C50.1501 103.297 50.0835 102.997 50.0064 102.702C49.9079 102.326 50.0197 102.002 50.2898 101.743C50.8302 101.226 51.4157 100.77 52.2023 100.515C52.3939 100.711 52.6108 100.867 52.7426 101.076C53.1166 101.669 53.444 102.291 53.8113 102.888C54.1786 103.486 54.5486 104.085 54.9585 104.655C55.8861 105.943 56.8669 107.175 58.3548 107.909C58.8752 108.165 58.8632 108.618 58.3535 108.914C57.9369 109.156 57.4738 109.317 57.032 109.517C56.4144 109.795 56.2614 110.192 56.5528 110.775C56.6114 110.892 56.6779 111.007 56.7538 111.114C58.456 113.516 60.5228 115.511 63.2311 116.808C64.3663 117.351 65.5628 117.641 66.7978 117.779C67.8731 117.9 68.9085 117.632 69.9293 117.326C70.4789 117.16 70.8063 116.755 71.0898 116.301C72.064 114.75 72.6203 113.055 72.7933 111.246C73.0848 108.199 72.261 105.448 70.435 102.984C69.011 101.061 67.2796 99.438 65.3724 97.9934C62.9037 96.1231 60.2619 94.5327 57.4206 93.2653C56.1696 92.7071 54.9359 92.1122 53.7168 91.4896C52.0905 90.6596 50.6319 89.5984 49.4061 88.2444C48.1511 86.8575 47.1809 85.3117 46.6459 83.5137C46.3771 82.6114 46.3678 81.6986 46.4876 80.7845C46.5927 79.986 46.9733 79.2886 47.5296 78.7003C48.2589 77.928 49.0801 77.2582 50.0157 76.7447C50.9752 76.218 51.9827 75.958 53.0753 76.3507C53.5318 76.5148 54.0082 76.6252 54.4647 76.7893C54.9199 76.9535 55.3218 76.897 55.7224 76.6317C56.0897 76.3888 56.4703 76.1602 56.8656 75.9672C57.3181 75.7465 57.6295 75.8595 57.7985 76.3533C58.4267 78.1867 59.4448 79.835 60.3059 81.5568C60.6 82.1439 60.9593 82.6981 61.2654 83.2799C61.5449 83.8105 61.5076 84.0548 61.0392 84.4173C60.592 84.764 60.0996 85.0556 59.6937 85.3261C59.0615 85.2118 58.9311 84.7469 58.7048 84.3897C57.6175 82.6771 56.3346 81.1247 54.7376 79.8402C53.7714 79.0627 52.7399 78.3811 51.5382 78.0094C51.0351 77.8545 50.5081 77.7481 49.9851 77.6942C49.2757 77.622 48.8844 77.9057 48.7327 78.586C48.5091 79.5828 48.5664 80.5836 48.8099 81.5739C49.3835 83.9051 50.6545 85.812 52.4778 87.3736C54.0628 88.7316 55.8754 89.7429 57.7293 90.6859C58.9896 91.3268 60.2673 91.9322 61.5356 92.5574C64.6072 94.0717 67.4313 95.9406 69.9426 98.2586C71.6088 99.7966 73.0076 101.538 73.9485 103.603C74.5713 104.967 74.9426 106.401 75.0305 107.903C75.0451 108.197 75.133 108.486 75.1942 108.813Z" fill="#F9F8F4"/>
<path d="M72.5007 90.3136C72.5326 91.5101 73.1262 92.3861 73.5481 93.3304C73.978 94.2891 74.4531 95.2269 74.9109 96.1725C75.37 97.1181 75.8385 98.0585 76.291 99.0067C76.7435 99.9523 77.1827 100.903 77.6325 101.863C77.3184 102.473 76.7594 102.76 76.2391 103.069C75.6894 103.395 75.3434 103.291 75.0613 102.72C74.4424 101.463 73.8475 100.194 73.246 98.9292C70.6508 93.4736 68.0556 88.0192 65.4631 82.5623C65.2409 82.0947 65.0319 81.6193 64.8203 81.157C65.2701 80.474 65.877 80.1221 66.5145 79.8213C66.8179 79.6781 67.1254 79.7412 67.345 80.0262C67.478 80.1995 67.6031 80.3808 67.7242 80.5633C68.9886 82.4743 70.4765 84.2066 72.0935 85.8299C73.6146 87.3573 75.1677 88.8532 76.7142 90.3557C76.9498 90.5855 77.1507 90.9099 77.5886 90.8455C77.7563 90.3911 77.4808 90.0641 77.3211 89.7239C76.2031 87.3481 75.0732 84.9762 73.9473 82.6043C73.8728 82.4467 73.7983 82.2878 73.7224 82.1302C73.2047 81.0611 73.0849 80.9035 74.2588 80.0971C74.5436 79.9014 74.871 79.7648 75.1212 79.6309C75.6096 79.7254 75.7507 80.0511 75.9024 80.369C76.4826 81.5956 77.0669 82.821 77.6485 84.0463C80.2569 89.544 82.8654 95.0417 85.4739 100.538C85.5298 100.656 85.5963 100.771 85.6509 100.89C86.1207 101.92 86.0715 102.111 85.1745 102.743C85.0307 102.844 84.883 102.943 84.73 103.029C84.1124 103.38 83.7824 103.326 83.4137 102.702C81.1819 98.9279 78.1555 95.7969 75.0959 92.6934C74.4171 92.0039 73.7224 91.3289 73.0237 90.659C72.872 90.5185 72.675 90.4279 72.5007 90.3136Z" fill="#F9F8F4"/>
<path d="M97.9023 87.0017C98.2244 86.4369 98.6596 86.2045 99.0722 85.9589C99.5606 85.6686 99.9066 85.7474 100.183 86.236C100.552 86.8835 100.875 87.5546 101.223 88.2139C101.365 88.4845 101.498 88.7655 101.677 89.0124C101.763 89.1332 101.945 89.1858 102.067 89.258C102.154 89.1792 102.206 89.1569 102.216 89.1227C102.672 87.3497 103.158 85.5833 103.56 83.7971C103.701 83.168 103.709 82.4877 103.645 81.8428C103.569 81.0916 103.817 80.5728 104.445 80.1893C104.779 79.9858 105.106 79.7717 105.384 79.5957C105.943 79.6916 106.068 80.0856 106.238 80.4349C106.924 81.8547 107.614 83.2731 108.294 84.6954C109.087 86.3555 109.912 88.0011 110.641 89.6888C111.037 90.6016 111.578 91.1453 112.627 91.0665C112.757 91.0573 112.893 91.0744 113.024 91.0954C113.431 91.1624 113.672 91.4566 113.567 91.8401C113.428 92.3444 113.238 92.8356 113.061 93.3294C112.973 93.5724 112.865 93.8088 112.749 94.0911C113.412 95.5122 114.072 96.9411 114.742 98.3648C115.17 99.2762 115.628 100.175 116.047 101.09C116.416 101.895 116.352 102.091 115.601 102.613C115.314 102.813 115.007 102.996 114.688 103.144C114.424 103.269 114.148 103.198 113.987 102.95C113.797 102.657 113.637 102.344 113.488 102.029C112.359 99.6558 111.235 97.2813 110.112 94.9054C109.474 93.5566 109.557 93.4975 107.839 93.3255C107.268 93.2677 106.686 93.2519 106.112 93.2769C105.339 93.311 105.013 93.726 105.108 94.4957C105.134 94.711 105.207 94.9199 105.258 95.1326C105.732 97.0961 106.477 98.9637 107.319 100.796C107.465 101.111 107.595 101.431 107.729 101.743C107.391 102.461 106.766 102.8 106.148 103.131C105.878 103.277 105.621 103.159 105.463 102.912C105.298 102.654 105.158 102.38 105.026 102.104C102.783 97.3995 100.54 92.6951 98.3016 87.9893C98.1539 87.6767 98.0408 87.3471 97.9023 87.0017ZM104.422 89.3053C104.436 89.3815 104.451 89.6914 104.549 89.9738C104.614 90.1642 104.754 90.3954 104.924 90.4729C105.62 90.7933 106.361 90.8839 107.1 90.6252C107.507 90.4821 107.745 90.05 107.582 89.677C107.128 88.6421 106.626 87.6295 106.136 86.6103C106.1 86.5354 106.023 86.479 105.959 86.4199C105.609 86.0942 105.073 86.1336 104.82 86.5394C104.687 86.7521 104.597 87.0135 104.567 87.2617C104.499 87.8632 104.478 88.4726 104.422 89.3053Z" fill="#F9F8F4"/>
<path d="M121.849 79.5508C122.621 80.4281 122.704 81.3724 122.854 82.251C123.015 83.1914 122.995 84.1659 122.997 85.1246C123 86.0414 122.885 86.9489 122.655 87.8459C122.433 88.714 122.04 89.5388 121.777 90.6066C122.485 90.3071 122.69 89.8619 122.893 89.4587C123.333 88.5945 124.079 88.06 124.866 87.5648C125.401 87.2273 125.727 87.3298 126.052 87.8984C126.203 88.1637 126.327 88.4461 126.459 88.7232C128.41 92.8366 130.361 96.95 132.305 101.065C132.433 101.334 132.512 101.627 132.613 101.905C132.19 102.507 131.592 102.804 131.021 103.121C130.67 103.316 130.35 103.2 130.139 102.809C129.867 102.309 129.632 101.791 129.389 101.276C127.996 98.3041 126.605 95.3307 125.212 92.3586C125.081 92.0814 124.956 91.8004 124.81 91.5325C124.306 90.6079 123.786 90.5238 123.073 91.2593C122.706 91.6375 122.368 92.0447 122.007 92.4282C121.706 92.7486 121.391 93.0546 121.084 93.3685C120.773 93.6837 120.711 94.0567 120.857 94.4573C120.962 94.7436 121.101 95.0194 121.231 95.2965C122.127 97.1969 123.029 99.0947 123.92 100.998C124.381 101.987 124.345 102.088 123.446 102.708C122.301 103.497 122.052 103.442 121.468 102.215C118.254 95.4554 115.044 88.6943 111.837 81.9319C111.708 81.66 111.613 81.3724 111.5 81.0835C111.87 80.4622 112.43 80.1221 113.026 79.8345C113.399 79.6545 113.739 79.7491 113.941 80.0998C114.203 80.5542 114.432 81.0283 114.657 81.5024C115.914 84.1514 117.164 86.8057 118.423 89.4534C118.591 89.8067 118.766 90.1679 119.001 90.4792C119.361 90.9572 120.047 90.8929 120.313 90.3544C120.485 90.0064 120.591 89.6189 120.675 89.238C121.163 87.0106 120.966 84.8107 120.364 82.6319C120.305 82.4218 120.237 82.2129 120.159 82.0094C119.806 81.0966 119.691 80.8825 120.759 80.1707C121.082 79.9514 121.435 79.7819 121.849 79.5508Z" fill="#F9F8F4"/>
<path d="M93.2852 85.9104C92.5573 86.4449 91.9823 86.9821 91.1213 87.25C90.8844 86.9296 90.6382 86.6327 90.4319 86.3123C89.5242 84.9057 88.5035 83.5897 87.2538 82.4616C86.8639 82.1096 86.4366 81.7917 86.0001 81.4976C85.6315 81.2506 85.2229 81.0431 84.7691 81.3281C84.3272 81.6052 84.3272 82.0505 84.3352 82.4944C84.3379 82.6691 84.3352 82.8464 84.3632 83.0171C84.9195 86.2913 86.5884 88.7774 89.6879 90.209C90.3214 90.5019 91.0268 90.6477 91.6975 90.8604C91.8319 91.2058 91.5338 91.3267 91.3475 91.4659C90.9602 91.7535 90.5517 92.0175 90.1364 92.2631C89.6174 92.5691 89.4031 93.0091 89.5003 93.5856C89.5801 94.0584 89.66 94.5365 89.8024 94.9922C90.3693 96.8125 91.273 98.4595 92.5999 99.8464C93.1109 100.381 93.7337 100.816 94.322 101.275C94.5269 101.436 94.7745 101.552 95.0154 101.66C96.1186 102.155 96.7934 101.721 96.6776 100.556C96.6137 99.9068 96.5059 99.2501 96.309 98.6315C95.9922 97.6347 95.6049 96.6589 95.2123 95.687C94.9834 95.1209 94.68 94.5838 94.4178 94.0295C93.964 93.0682 93.9946 92.9657 94.8996 92.3169C96.0508 91.4908 96.2584 91.5171 96.8653 92.749C97.387 93.8076 97.8834 94.8819 98.3092 95.9812C98.7897 97.221 98.9334 98.5186 98.7511 99.8464C98.6526 100.562 98.3864 101.196 97.886 101.721C97.2432 102.396 96.5073 102.96 95.6236 103.289C94.4005 103.743 93.1987 103.719 92.0569 103.021C91.8692 102.905 91.6762 102.794 91.5059 102.657C89.3672 100.954 87.9472 98.8114 87.347 96.1414C87.1527 95.2798 87.2538 94.4997 87.6384 93.7314C87.7169 93.5751 87.8261 93.4333 87.8953 93.273C88.1335 92.7267 88.0164 92.3576 87.5093 92.0477C87.3589 91.9558 87.1899 91.8967 87.0355 91.8113C83.7164 89.9687 82.1885 87.1029 82.114 83.4111C82.0954 82.4839 82.4294 81.6932 83.1308 81.0825C83.6591 80.6229 84.1928 80.1501 84.7917 79.7941C85.5689 79.3332 86.434 79.1256 87.3323 79.5026C87.9086 79.7442 88.4409 79.7285 88.94 79.32C89.0411 79.2373 89.1649 79.1795 89.2847 79.1243C89.6653 78.9483 89.9661 79.0587 90.1484 79.4474C90.6887 80.594 91.2104 81.7497 91.7667 82.8884C92.1314 83.6344 92.5493 84.3567 92.9326 85.0948C93.0497 85.3233 93.1375 85.5676 93.2852 85.9104Z" fill="#F9F8F4"/>
<path d="M90.1765 68.7476C89.6494 70.3497 87.0789 74.5284 85.6545 76.1606C85.6127 76.1153 85.5311 76.0657 85.5353 76.0247C85.6859 73.7543 85.78 71.4752 86.0226 69.2134C86.2046 67.5251 86.6752 67.2793 88.2481 67.7558C88.7103 67.8959 89.1662 68.0706 89.6096 68.2668C89.7874 68.3466 89.9255 68.5277 90.1765 68.7476Z" fill="#FFBD00"/>
</svg>
