<svg width="183" height="184" viewBox="0 0 183 184" fill="none" xmlns="http://www.w3.org/2000/svg">
<rect width="183" height="183.979" rx="3" fill="#0C0C0C"/>
<path d="M86.3203 88.7724C86.3203 86.3952 87.0931 84.468 88.6394 82.9908C90.1851 81.5143 92.0659 80.7754 94.2808 80.7754C96.495 80.7754 98.3723 81.5179 99.9112 83.0018C101.45 84.4863 102.219 86.4098 102.219 88.7724C102.219 91.1356 101.45 93.0555 99.9112 94.5327C98.3723 96.0098 96.4957 96.7481 94.2808 96.7481C92.0659 96.7481 90.1857 96.0098 88.6394 94.5327C87.0931 93.0555 86.3203 91.1356 86.3203 88.7724ZM91.1846 85.3033C90.3002 86.1033 89.8578 87.2525 89.8578 88.7504C89.8578 90.249 90.3002 91.3945 91.1846 92.1872C92.069 92.9798 93.1008 93.3761 94.2802 93.3761C95.4589 93.3761 96.4877 92.9798 97.3648 92.1872C98.2418 91.3951 98.6807 90.2496 98.6807 88.7504C98.6807 87.2519 98.2418 86.1027 97.3648 85.3033C96.4871 84.5034 95.4589 84.104 94.2802 84.104C93.1008 84.1034 92.069 84.5034 91.1846 85.3033Z" fill="#F9F8F4"/>
<path d="M107.287 90.2622V96.4218H104.008V85.6799H107.179V86.9116C107.452 86.4359 107.873 86.0653 108.441 85.7984C109.009 85.5322 109.588 85.3984 110.178 85.3984C111.458 85.3984 112.428 85.7984 113.09 86.5977C113.751 87.3977 114.082 88.4242 114.082 89.6778V96.4212H110.803V90.2403C110.803 89.6785 110.655 89.2284 110.36 88.8895C110.065 88.5512 109.63 88.3814 109.056 88.3814C108.523 88.3814 108.096 88.5579 107.772 88.9109C107.449 89.2644 107.287 89.7145 107.287 90.2622Z" fill="#F9F8F4"/>
<path d="M119.693 96.4222H116.414V80.7744H119.693V96.4222Z" fill="#F9F8F4"/>
<path d="M126.358 100.551H122.906L125.344 94.9741L120.836 85.6807H124.503L127.114 91.4299L129.486 85.6807H132.959L126.358 100.551Z" fill="#F9F8F4"/>
<path d="M60.7003 110.976H57.9856V117.339H54.0508V99.6475H60.7003C62.4934 99.6475 63.95 100.18 65.0709 101.244C66.1917 102.309 66.7518 103.665 66.7518 105.311C66.7518 106.992 66.1917 108.355 65.0709 109.403C63.95 110.451 62.4934 110.976 60.7003 110.976ZM58.0106 107.582H60.3017C61.0489 107.582 61.6547 107.379 62.1197 106.971C62.5842 106.564 62.817 106.019 62.817 105.337C62.817 104.638 62.5884 104.086 62.1319 103.678C61.6748 103.27 61.0647 103.066 60.3017 103.066H58.0106V107.582Z" fill="#F9F8F4"/>
<path d="M67.5234 113.921C67.5234 112.873 67.8635 112.029 68.5443 111.388C69.2251 110.748 70.1046 110.345 71.184 110.178L74.098 109.729C74.6959 109.646 74.9945 109.363 74.9945 108.881C74.9945 108.498 74.8324 108.178 74.5087 107.92C74.1851 107.662 73.7408 107.533 73.1764 107.533C72.545 107.533 72.0434 107.712 71.6698 108.07C71.2961 108.428 71.0926 108.856 71.0597 109.355L67.7721 108.681C67.855 107.65 68.3657 106.707 69.3037 105.849C70.2417 104.993 71.5412 104.564 73.2014 104.564C75.0774 104.564 76.4597 105.014 77.3477 105.912C78.2357 106.81 78.6801 107.958 78.6801 109.356V115.419C78.6801 116.201 78.73 116.841 78.8294 117.34H75.4181C75.3346 117.007 75.2938 116.541 75.2938 115.943C74.5794 117.107 73.4172 117.689 71.8069 117.689C70.4953 117.689 69.4537 117.319 68.6815 116.579C67.9092 115.838 67.5234 114.952 67.5234 113.921ZM72.7284 114.944C73.3757 114.944 73.9151 114.753 74.3472 114.37C74.7787 113.987 74.9945 113.355 74.9945 112.474V111.925L72.6535 112.299C71.7234 112.449 71.259 112.907 71.259 113.671C71.259 114.02 71.379 114.32 71.6198 114.569C71.8605 114.819 72.2305 114.944 72.7284 114.944Z" fill="#F9F8F4"/>
<path d="M85.1566 110.227V117.339H81.3711V104.938H85.0323V106.36C85.3474 105.811 85.8331 105.383 86.4889 105.075C87.1447 104.767 87.8127 104.613 88.4935 104.613C89.9709 104.613 91.0917 105.075 91.8554 105.998C92.6191 106.922 93.0013 108.107 93.0013 109.554V117.339H89.2158V110.202C89.2158 109.553 89.0451 109.034 88.705 108.642C88.3643 108.252 87.8621 108.056 87.1984 108.056C86.584 108.056 86.0903 108.26 85.7167 108.667C85.3437 109.075 85.1566 109.595 85.1566 110.227Z" fill="#F9F8F4"/>
<path d="M107.868 99.2734V115.118C107.868 115.867 107.901 116.607 107.967 117.339H104.331C104.264 116.939 104.231 116.54 104.231 116.141C103.933 116.574 103.488 116.927 102.899 117.202C102.31 117.476 101.65 117.614 100.919 117.614C99.1593 117.614 97.6984 117.002 96.5361 115.78C95.3738 114.557 94.793 112.998 94.793 111.101C94.793 109.238 95.3573 107.695 96.4867 106.472C97.6155 105.25 99.052 104.639 100.795 104.639C102.489 104.639 103.601 105.063 104.132 105.911V99.2734H107.868ZM99.4122 108.855C98.8722 109.388 98.6028 110.144 98.6028 111.125C98.6028 112.107 98.8722 112.868 99.4122 113.409C99.9516 113.95 100.612 114.22 101.392 114.22C102.172 114.22 102.832 113.95 103.371 113.409C103.911 112.868 104.181 112.107 104.181 111.125C104.181 110.144 103.911 109.388 103.371 108.855C102.831 108.323 102.172 108.056 101.392 108.056C100.612 108.056 99.9516 108.323 99.4122 108.855Z" fill="#F9F8F4"/>
<path d="M109.91 113.921C109.91 112.873 110.25 112.029 110.931 111.388C111.612 110.748 112.491 110.345 113.571 110.178L116.485 109.729C117.083 109.646 117.381 109.363 117.381 108.881C117.381 108.498 117.219 108.178 116.895 107.92C116.572 107.662 116.128 107.533 115.563 107.533C114.932 107.533 114.43 107.712 114.056 108.07C113.683 108.428 113.479 108.856 113.446 109.355L110.159 108.681C110.242 107.65 110.752 106.707 111.69 105.849C112.628 104.993 113.928 104.564 115.588 104.564C117.464 104.564 118.846 105.014 119.734 105.912C120.622 106.81 121.067 107.958 121.067 109.356V115.419C121.067 116.201 121.117 116.841 121.216 117.34H117.804C117.721 117.007 117.68 116.541 117.68 115.943C116.966 117.107 115.803 117.689 114.193 117.689C112.881 117.689 111.84 117.319 111.068 116.579C110.297 115.838 109.91 114.952 109.91 113.921ZM115.115 114.944C115.762 114.944 116.302 114.753 116.734 114.37C117.165 113.987 117.381 113.355 117.381 112.474V111.925L115.04 112.299C114.11 112.449 113.646 112.907 113.646 113.671C113.646 114.02 113.766 114.32 114.007 114.569C114.248 114.819 114.617 114.944 115.115 114.944Z" fill="#F9F8F4"/>
<path d="M122.738 113.82L125.951 113.246C125.984 113.712 126.162 114.107 126.487 114.432C126.81 114.756 127.28 114.918 127.894 114.918C128.358 114.918 128.715 114.814 128.965 114.606C129.214 114.399 129.338 114.145 129.338 113.845C129.338 113.346 128.931 113.006 128.118 112.822L126.699 112.498C125.436 112.233 124.507 111.762 123.91 111.088C123.312 110.415 123.013 109.612 123.013 108.68C123.013 107.532 123.465 106.56 124.37 105.761C125.275 104.962 126.409 104.563 127.77 104.563C129.38 104.563 130.588 104.95 131.394 105.724C132.199 106.497 132.642 107.342 132.726 108.256L129.588 108.83C129.538 108.381 129.368 108.015 129.077 107.732C128.786 107.449 128.367 107.308 127.819 107.308C127.453 107.308 127.138 107.407 126.872 107.607C126.607 107.807 126.474 108.065 126.474 108.381C126.474 108.88 126.797 109.188 127.445 109.304L129.089 109.628C130.334 109.878 131.281 110.352 131.928 111.05C132.575 111.749 132.9 112.572 132.9 113.52C132.9 114.668 132.467 115.654 131.604 116.477C130.741 117.3 129.529 117.713 127.968 117.713C127.055 117.713 126.246 117.579 125.54 117.313C124.834 117.048 124.295 116.702 123.921 116.278C123.548 115.853 123.265 115.434 123.075 115.018C122.883 114.603 122.771 114.203 122.738 113.82Z" fill="#F9F8F4"/>
<path d="M82.9651 82.959C82.9486 89.1674 77.3822 94.4654 71.288 95.8326C65.4838 97.1357 58.3907 95.051 55.6297 89.7225C53.9944 86.5654 54.4058 83.2887 55.1567 80.8821C55.2372 80.6251 55.0635 80.3649 54.7874 80.3332C53.9006 80.2318 53.0991 79.8709 52.62 79.2542C51.6242 77.9688 52.311 75.9408 53.2838 74.7793C54.1627 73.7327 55.8985 72.6494 57.3576 73.1501C57.7769 73.2936 58.1475 73.5611 58.4553 73.9092C58.6344 74.1125 58.9593 74.1162 59.1482 73.9134C60.5964 72.3526 62.6857 70.7674 65.571 70.0914C67.8907 69.5479 70.0032 69.7629 71.7365 70.2325C71.9822 70.299 72.2375 70.1561 72.3058 69.918C72.3802 69.6597 72.4923 69.416 72.6465 69.195C73.5894 67.8351 75.8024 67.719 77.2572 68.1782C78.5676 68.5892 80.1895 69.7592 80.1633 71.2547C80.1486 72.1041 79.6068 72.9566 78.8035 73.5971C78.5945 73.7638 78.5811 74.0637 78.7724 74.2407C80.7423 76.0721 82.976 79.016 82.9651 82.959Z" fill="white"/>
<path d="M79.6254 81.5357C80.4756 80.4359 79.2243 77.6251 77.2636 76.1907C75.4151 74.8326 72.3231 74.2623 70.3643 75.8958C68.64 77.3381 68.1695 80.1739 69.0149 80.8841C69.7121 81.4685 70.8531 80.2179 72.9936 80.6771C74.201 80.9336 74.2217 81.4093 75.6137 81.8013C75.8575 81.8691 78.7636 82.6526 79.6254 81.5357ZM72.6754 79.6805C72.1628 79.8326 71.6253 79.5377 71.4735 79.0241C71.3218 78.5112 71.6131 77.975 72.1287 77.8199C72.6407 77.6679 73.1789 77.9628 73.3306 78.4764C73.4824 78.9899 73.188 79.5291 72.6754 79.6805Z" fill="black"/>
<path d="M61.9323 85.7504C62.9032 84.6769 62.6679 84.2629 63.5541 83.4019C65.1229 81.8722 66.7521 82.3229 67.0325 81.4563C67.3713 80.4048 65.4673 78.2541 63.2415 77.9518C60.7158 77.6123 58.4003 79.7441 57.5562 81.8789C56.6578 84.1383 57.0905 87.1848 58.3948 87.6636C59.7174 88.149 61.7628 85.9373 61.9323 85.7504ZM62.1127 81.7922C61.964 81.2597 62.2724 80.7059 62.8038 80.5563C63.3402 80.4079 63.8881 80.7162 64.0374 81.2487C64.1862 81.7812 63.8778 82.3351 63.3463 82.4847C62.8148 82.6337 62.2614 82.3247 62.1127 81.7922Z" fill="black"/>
<path d="M69.0042 85.5269C67.8498 85.8011 67.1843 85.2771 66.8015 85.7907C66.5199 86.1681 66.5729 86.8642 66.8368 87.3173C67.4652 88.3951 69.4046 88.2907 70.6157 87.7338C71.1191 87.5023 72.1985 87.0059 72.2143 85.9989C72.2235 85.4102 71.8688 84.6775 71.3586 84.4778C70.6565 84.203 70.3536 85.2063 69.0042 85.5269Z" fill="black"/>
<path d="M71.2901 92.894C72.1064 92.6584 72.5944 91.8626 72.3799 91.1166C72.1654 90.3706 71.3297 89.9569 70.5133 90.1925C69.697 90.4281 69.209 91.2239 69.4235 91.9699C69.638 92.7159 70.4737 93.1296 71.2901 92.894Z" fill="black"/>
<path d="M63.8902 88.2885C64.7851 87.7708 65.2998 86.9854 65.0397 86.5341C64.7797 86.0829 63.8434 86.1368 62.9485 86.6545C62.0536 87.1721 61.5389 87.9576 61.799 88.4088C62.059 88.8601 62.9953 88.8062 63.8902 88.2885Z" fill="#EDA1C1"/>
<path d="M75.234 84.8728C76.2626 84.7738 77.0562 84.2732 77.0065 83.7545C76.9567 83.2358 76.0826 82.8956 75.0539 82.9946C74.0253 83.0936 73.2317 83.5943 73.2814 84.1129C73.3311 84.6316 74.2053 84.9718 75.234 84.8728Z" fill="#EDA1C1"/>
<path d="M65.6484 61.06C65.6484 61.06 69.576 60.6515 70.9186 55.6436C70.9186 55.6436 71.6159 60.7534 76.1212 61.5033C76.1212 61.5033 71.5818 61.5204 70.6809 66.477C70.6803 66.477 70.4938 60.9922 65.6484 61.06Z" fill="#EDA1C1"/>
<path d="M56.5742 61.5246C56.5742 61.5246 60.0635 59.6725 59.4382 54.5254C59.4382 54.5254 61.9938 59.0027 66.4515 58.0079C66.4515 58.0079 62.2485 59.7263 63.2645 64.6603C63.2645 64.6609 61.0417 59.6444 56.5742 61.5246Z" fill="#EDA1C1"/>
<path d="M50.0352 69.4876C50.0352 69.4876 52.9869 66.86 51.1621 62.0078C51.1621 62.0078 54.7038 65.7511 58.7995 63.7262C58.7995 63.7262 55.1225 66.3935 57.2771 70.9458C57.2764 70.9458 53.931 66.6005 50.0352 69.4876Z" fill="#EDA1C1"/>
</svg>
