<svg width="183" height="184" viewBox="0 0 183 184" fill="none" xmlns="http://www.w3.org/2000/svg">
<rect width="183" height="183.979" rx="3" fill="#090909"/>
<path d="M86.3239 88.7717C86.3239 86.3944 87.0967 84.4672 88.643 82.9901C90.1887 81.5135 92.0695 80.7747 94.2844 80.7747C96.4986 80.7747 98.3759 81.5172 99.9148 83.0011C101.454 84.4856 102.223 86.4091 102.223 88.7717C102.223 91.1349 101.453 93.0548 99.9148 94.5319C98.3759 96.0091 96.4993 96.7473 94.2844 96.7473C92.0695 96.7473 90.1893 96.0091 88.643 94.5319C87.0967 93.0548 86.3239 91.1349 86.3239 88.7717ZM91.1882 85.3026C90.3038 86.1026 89.8614 87.2518 89.8614 88.7497C89.8614 90.2482 90.3038 91.3938 91.1882 92.1864C92.0726 92.979 93.1044 93.3754 94.2838 93.3754C95.4625 93.3754 96.4913 92.979 97.3684 92.1864C98.2454 91.3944 98.6843 90.2488 98.6843 88.7497C98.6843 87.2512 98.2454 86.1019 97.3684 85.3026C96.4907 84.5027 95.4625 84.1033 94.2838 84.1033C93.1044 84.1027 92.0726 84.5027 91.1882 85.3026Z" fill="#F9F8F4"/>
<path d="M107.291 90.262V96.4216H104.012V85.6797H107.184V86.9114C107.457 86.4357 107.877 86.065 108.446 85.7982C109.014 85.5319 109.592 85.3982 110.182 85.3982C111.462 85.3982 112.433 85.7982 113.094 86.5975C113.756 87.3974 114.087 88.4239 114.087 89.6776V96.421H110.808V90.24C110.808 89.6782 110.66 89.2282 110.365 88.8893C110.07 88.551 109.635 88.3812 109.06 88.3812C108.528 88.3812 108.1 88.5577 107.777 88.9106C107.454 89.2642 107.291 89.7142 107.291 90.262Z" fill="#F9F8F4"/>
<path d="M119.695 96.4218H116.416V80.7739H119.695V96.4218Z" fill="#F9F8F4"/>
<path d="M126.361 100.55H122.909L125.347 94.9735L120.839 85.6801H124.506L127.117 91.4293L129.489 85.6801H132.962L126.361 100.55Z" fill="#F9F8F4"/>
<path d="M60.7042 110.976H57.9895V117.339H54.0547V99.6477H60.7042C62.4973 99.6477 63.9539 100.18 65.0748 101.245C66.1956 102.31 66.7557 103.665 66.7557 105.311C66.7557 106.992 66.1956 108.356 65.0748 109.403C63.9539 110.451 62.4973 110.976 60.7042 110.976ZM58.0145 107.582H60.3056C61.0528 107.582 61.6586 107.379 62.1237 106.971C62.5881 106.564 62.8209 106.019 62.8209 105.337C62.8209 104.639 62.5923 104.086 62.1358 103.678C61.6787 103.271 61.0686 103.067 60.3056 103.067H58.0145V107.582Z" fill="#F9F8F4"/>
<path d="M67.5278 113.92C67.5278 112.872 67.8679 112.029 68.5487 111.388C69.2295 110.748 70.109 110.344 71.1884 110.178L74.1023 109.728C74.7003 109.645 74.9989 109.362 74.9989 108.88C74.9989 108.498 74.8368 108.178 74.5131 107.919C74.1895 107.662 73.7452 107.533 73.1808 107.533C72.5494 107.533 72.0478 107.712 71.6742 108.07C71.3005 108.428 71.097 108.856 71.0641 109.354L67.7765 108.681C67.8594 107.65 68.3701 106.706 69.3081 105.849C70.2461 104.992 71.5456 104.564 73.2058 104.564C75.0818 104.564 76.4641 105.013 77.3521 105.912C78.2401 106.81 78.6845 107.958 78.6845 109.355V115.418C78.6845 116.2 78.7344 116.84 78.8338 117.339H75.4225C75.339 117.007 75.2982 116.541 75.2982 115.942C74.5838 117.107 73.4216 117.689 71.8113 117.689C70.4997 117.689 69.4581 117.319 68.6859 116.578C67.9136 115.838 67.5278 114.952 67.5278 113.92ZM72.7328 114.943C73.3801 114.943 73.9195 114.752 74.3516 114.369C74.7831 113.987 74.9989 113.355 74.9989 112.473V111.924L72.6579 112.298C71.7278 112.448 71.2634 112.906 71.2634 113.671C71.2634 114.02 71.3834 114.319 71.6242 114.569C71.8649 114.819 72.2349 114.943 72.7328 114.943Z" fill="#F9F8F4"/>
<path d="M85.1597 110.227V117.339H81.3742V104.938H85.0354V106.36C85.3505 105.811 85.8362 105.383 86.492 105.075C87.1478 104.767 87.8158 104.614 88.4966 104.614C89.974 104.614 91.0949 105.075 91.8585 105.998C92.6222 106.922 93.0044 108.107 93.0044 109.554V117.339H89.2189V110.202C89.2189 109.554 89.0482 109.034 88.7081 108.643C88.3674 108.252 87.8652 108.056 87.2015 108.056C86.5871 108.056 86.0934 108.26 85.7198 108.668C85.3468 109.076 85.1597 109.595 85.1597 110.227Z" fill="#F9F8F4"/>
<path d="M107.873 99.2736V115.118C107.873 115.867 107.906 116.607 107.972 117.339H104.336C104.27 116.94 104.237 116.54 104.237 116.141C103.938 116.574 103.494 116.927 102.905 117.202C102.315 117.476 101.655 117.614 100.925 117.614C99.1647 117.614 97.7038 117.002 96.5415 115.78C95.3792 114.557 94.7984 112.998 94.7984 111.101C94.7984 109.238 95.3628 107.695 96.4922 106.472C97.6209 105.25 99.0575 104.639 100.801 104.639C102.494 104.639 103.606 105.063 104.138 105.911V99.2736H107.873ZM99.4177 108.855C98.8777 109.388 98.6083 110.144 98.6083 111.126C98.6083 112.108 98.8777 112.868 99.4177 113.409C99.9571 113.95 100.617 114.22 101.397 114.22C102.177 114.22 102.837 113.95 103.377 113.409C103.916 112.868 104.186 112.108 104.186 111.126C104.186 110.144 103.916 109.388 103.377 108.855C102.837 108.323 102.177 108.056 101.397 108.056C100.617 108.056 99.9571 108.323 99.4177 108.855Z" fill="#F9F8F4"/>
<path d="M109.915 113.92C109.915 112.872 110.255 112.029 110.936 111.388C111.616 110.748 112.496 110.344 113.575 110.178L116.489 109.728C117.087 109.645 117.386 109.362 117.386 108.88C117.386 108.498 117.224 108.178 116.9 107.919C116.576 107.662 116.132 107.533 115.568 107.533C114.936 107.533 114.435 107.712 114.061 108.07C113.687 108.428 113.484 108.856 113.451 109.354L110.163 108.681C110.246 107.65 110.757 106.706 111.695 105.849C112.633 104.992 113.932 104.564 115.593 104.564C117.469 104.564 118.851 105.013 119.739 105.912C120.627 106.81 121.071 107.958 121.071 109.355V115.418C121.071 116.2 121.121 116.84 121.221 117.339H117.809C117.725 117.007 117.684 116.541 117.684 115.942C116.97 117.107 115.808 117.689 114.198 117.689C112.886 117.689 111.844 117.319 111.072 116.578C110.301 115.838 109.915 114.952 109.915 113.92ZM115.12 114.943C115.767 114.943 116.306 114.752 116.738 114.369C117.17 113.987 117.386 113.355 117.386 112.473V111.924L115.045 112.298C114.115 112.448 113.65 112.906 113.65 113.671C113.65 114.02 113.77 114.319 114.011 114.569C114.252 114.819 114.622 114.943 115.12 114.943Z" fill="#F9F8F4"/>
<path d="M122.741 113.82L125.953 113.246C125.986 113.712 126.165 114.107 126.489 114.431C126.813 114.756 127.282 114.918 127.896 114.918C128.361 114.918 128.718 114.814 128.967 114.606C129.216 114.398 129.341 114.144 129.341 113.845C129.341 113.346 128.934 113.006 128.121 112.822L126.701 112.498C125.439 112.232 124.509 111.762 123.912 111.088C123.314 110.415 123.016 109.612 123.016 108.68C123.016 107.532 123.468 106.56 124.373 105.761C125.277 104.962 126.411 104.563 127.773 104.563C129.383 104.563 130.591 104.95 131.396 105.724C132.201 106.497 132.645 107.342 132.728 108.256L129.59 108.83C129.54 108.381 129.37 108.015 129.079 107.732C128.789 107.449 128.369 107.308 127.821 107.308C127.456 107.308 127.14 107.407 126.875 107.607C126.609 107.807 126.476 108.065 126.476 108.381C126.476 108.879 126.8 109.188 127.448 109.304L129.091 109.628C130.337 109.878 131.283 110.352 131.93 111.05C132.578 111.749 132.902 112.572 132.902 113.52C132.902 114.668 132.47 115.654 131.607 116.477C130.743 117.3 129.531 117.712 127.971 117.712C127.058 117.712 126.248 117.579 125.542 117.313C124.837 117.047 124.297 116.702 123.924 116.277C123.55 115.853 123.268 115.433 123.077 115.018C122.886 114.602 122.774 114.203 122.741 113.82Z" fill="#F9F8F4"/>
<path d="M82.9695 82.959C82.9531 89.1674 77.3867 94.4654 71.2924 95.8326C65.4883 97.1357 58.3951 95.051 55.6341 89.7225C53.9989 86.5654 54.4103 83.2887 55.1612 80.8821C55.2416 80.6251 55.0679 80.3649 54.7918 80.3332C53.905 80.2318 53.1036 79.8709 52.6245 79.2542C51.6286 77.9688 52.3155 75.9408 53.2882 74.7793C54.1671 73.7327 55.9029 72.6494 57.362 73.1501C57.7814 73.2936 58.1519 73.5611 58.4597 73.9092C58.6389 74.1125 58.9638 74.1162 59.1527 73.9134C60.6008 72.3526 62.6901 70.7674 65.5754 70.0914C67.8951 69.5479 70.0076 69.7629 71.741 70.2325C71.9866 70.299 72.242 70.1561 72.3103 69.918C72.3846 69.6597 72.4968 69.416 72.651 69.195C73.5938 67.8351 75.8069 67.719 77.2617 68.1782C78.5721 68.5892 80.1939 69.7592 80.1677 71.2547C80.1531 72.1041 79.6113 72.9566 78.808 73.5971C78.5989 73.7638 78.5855 74.0637 78.7769 74.2407C80.7467 76.0721 82.9805 79.016 82.9695 82.959Z" fill="white"/>
<path d="M79.6304 81.5354C80.4806 80.4357 79.2293 77.6249 77.2686 76.1905C75.42 74.8324 72.3281 74.262 70.3692 75.8955C68.645 77.3379 68.1745 80.1737 69.0198 80.8839C69.7171 81.4683 70.858 80.2177 72.9986 80.6769C74.2059 80.9333 74.2267 81.409 75.6187 81.8011C75.8625 81.8689 78.7685 82.6523 79.6304 81.5354ZM72.6804 79.6803C72.1678 79.8324 71.6303 79.5374 71.4785 79.0239C71.3267 78.5109 71.6181 77.9748 72.1337 77.8197C72.6457 77.6676 73.1838 77.9626 73.3356 78.4761C73.4874 78.9897 73.193 79.5289 72.6804 79.6803Z" fill="black"/>
<path d="M61.9376 85.7502C62.9085 84.6767 62.6732 84.2626 63.5594 83.4016C65.1282 81.872 66.7574 82.3226 67.0378 81.4561C67.3766 80.4046 65.4726 78.2539 63.2468 77.9516C60.7211 77.6121 58.4056 79.7438 57.5615 81.8787C56.6631 84.1381 57.0958 87.1846 58.4001 87.6633C59.7227 88.1488 61.7682 85.937 61.9376 85.7502ZM62.118 81.792C61.9693 81.2595 62.2777 80.7056 62.8092 80.556C63.3455 80.4076 63.8934 80.716 64.0428 81.2485C64.1915 81.781 63.8831 82.3348 63.3516 82.4844C62.8201 82.6334 62.2667 82.3244 62.118 81.792Z" fill="black"/>
<path d="M69.0106 85.5267C67.8562 85.8009 67.1906 85.277 66.8079 85.7905C66.5263 86.1679 66.5793 86.8641 66.8432 87.3172C67.4716 88.395 69.411 88.2905 70.622 87.7336C71.1255 87.5022 72.2049 87.0057 72.2207 85.9988C72.2299 85.4101 71.8751 84.6773 71.365 84.4777C70.6629 84.2029 70.36 85.2062 69.0106 85.5267Z" fill="black"/>
<path d="M71.2958 92.8933C72.1122 92.6577 72.6001 91.8619 72.3856 91.1159C72.1711 90.3699 71.3355 89.9562 70.5191 90.1918C69.7027 90.4274 69.2148 91.2232 69.4293 91.9692C69.6437 92.7152 70.4794 93.1289 71.2958 92.8933Z" fill="black"/>
<path d="M63.8962 88.288C64.7912 87.7703 65.3058 86.9849 65.0458 86.5336C64.7858 86.0824 63.8495 86.1363 62.9546 86.654C62.0597 87.1716 61.545 87.9571 61.805 88.4083C62.0651 88.8596 63.0013 88.8057 63.8962 88.288Z" fill="#EDA1C1"/>
<path d="M75.2393 84.8728C76.2679 84.7738 77.0615 84.2732 77.0118 83.7545C76.9621 83.2358 76.0879 82.8956 75.0593 82.9946C74.0306 83.0936 73.2371 83.5943 73.2868 84.1129C73.3365 84.6316 74.2107 84.9718 75.2393 84.8728Z" fill="#EDA1C1"/>
<path d="M65.6497 61.0594C65.6497 61.0594 69.5772 60.6509 70.9199 55.6429C70.9199 55.6429 71.6172 60.7528 76.1225 61.5027C76.1225 61.5027 71.583 61.5198 70.6822 66.4764C70.6816 66.4764 70.4951 60.9916 65.6497 61.0594Z" fill="#EDA1C1"/>
<path d="M56.5759 61.5241C56.5759 61.5241 60.0652 59.672 59.4398 54.5249C59.4398 54.5249 61.9954 59.0022 66.4532 58.0074C66.4532 58.0074 62.2502 59.7258 63.2662 64.6598C63.2662 64.6604 61.0434 59.644 56.5759 61.5241Z" fill="#EDA1C1"/>
<path d="M50.0379 69.487C50.0379 69.487 52.9896 66.8594 51.1648 62.0072C51.1648 62.0072 54.7066 65.7505 58.8023 63.7256C58.8023 63.7256 55.1253 66.3929 57.2798 70.9452C57.2792 70.9452 53.9337 66.5999 50.0379 69.487Z" fill="#EDA1C1"/>
</svg>
