<svg width="183" height="184" viewBox="0 0 183 184" fill="none" xmlns="http://www.w3.org/2000/svg">
<rect y="-0.00012207" width="183" height="183.979" rx="3" fill="#090909"/>
<g clip-path="url(#clip0)">
<path d="M110.382 110.772C110.039 110.544 110.316 110.022 110.697 110.175C117.22 112.806 124.208 111.982 128.725 107.981C131.924 105.147 135.726 99.0909 133.31 93.2162C131.107 87.8582 125.23 86.2922 124.436 86.0932C124.984 85.84 125.746 85.5607 126.681 85.4472C128.078 85.2796 129 85.5869 129.021 85.4996C129.077 85.2692 125.757 83.1323 122.366 83.8673C121.409 84.075 120.895 84.4137 119.065 84.7925C117.857 85.0422 116.843 85.1504 116.155 85.2028C120.993 82.7412 121.903 81.8438 121.776 81.4929C121.576 80.9465 118.64 81.1612 116.098 82.2751C114.047 83.1742 113.559 84.0837 111.327 85.0055C109.71 85.6724 108.273 85.8942 107.36 85.9815C108.421 84.5377 108.515 82.7377 107.727 81.7164C106.674 80.3564 103.874 80.1486 102.033 82.1616C102.879 80.6148 104.334 78.5669 106.766 77.488C109.239 76.3899 111.851 76.6797 111.943 76.004C111.978 75.7474 111.654 75.3179 109.799 74.5952C111.423 73.7467 113.744 72.8109 116.603 72.5927C121.574 72.2121 125.332 74.2233 126.068 73.0379C126.319 72.6346 126.248 71.8175 124.812 69.9966C126.305 70.5937 128.264 71.6255 129.989 73.4831C131.61 75.2306 132.362 76.9974 133.02 76.8211C133.486 76.6971 133.594 75.4925 133.672 74.7069C133.724 74.1866 133.712 73.7397 133.684 73.408C135.162 74.9251 137.135 77.275 138.786 80.531C139.889 82.7045 142.03 87.0429 141.892 92.6243C141.758 98.0661 139.447 105.091 133.314 109.688C131.969 110.695 125.299 115.441 116.824 113.546C114.151 112.949 111.995 111.848 110.382 110.772Z" fill="url(#paint0_linear)"/>
<path d="M130.166 74.0086C127.307 74.2251 124.988 75.1661 123.364 76.0128C123.698 76.0547 124.527 76.2066 125.144 76.8927C125.304 77.0708 125.423 77.2541 125.51 77.4217C124.414 77.4898 122.453 77.7551 120.331 78.9074C118.417 79.9479 117.196 81.2642 116.531 82.0988C116.383 82.1546 116.239 82.214 116.094 82.2768C114.041 83.1742 113.554 84.0855 111.323 85.0038C109.707 85.6725 108.27 85.8924 107.354 85.9832C108.419 84.5359 108.511 82.736 107.723 81.7147C106.667 80.3582 103.869 80.1487 102.028 82.1616C102.872 80.613 104.327 78.5669 106.761 77.4863C109.234 76.3881 111.845 76.678 111.939 76.0058C111.974 75.7457 111.647 75.3162 109.794 74.5934C111.417 73.7467 113.738 72.8109 116.596 72.5927C121.565 72.2104 125.327 74.2216 126.061 73.0344C126.312 72.6346 126.239 71.8176 124.807 69.9914C126.3 70.592 128.259 71.6203 129.98 73.4796C130.142 73.6489 130.29 73.8235 130.434 73.9946C130.345 73.9946 130.257 73.9998 130.166 74.0086Z" fill="#F9F8F4"/>
<path d="M41.7721 103.796C42.6456 103.644 42.6838 103.091 42.6838 101.832V94.1082C42.6838 92.8495 42.6456 92.2961 41.7721 92.1442V91.61H50.6862C52.5307 91.61 53.4424 92.2385 53.4424 93.6508C53.4424 94.9864 52.5863 95.8628 50.8759 96.8928C52.0348 98.1708 52.91 99.8677 53.7469 101.928C54.1837 103.015 54.4308 103.682 55.2103 103.798V104.332H49.2994V103.798C49.7745 103.588 49.945 103.398 49.945 103.015C49.945 102.31 49.1654 100.117 47.3228 98.2284L46.6006 98.4571V101.832C46.6006 103.091 46.6389 103.644 47.5124 103.796V104.33H41.7721V103.796ZM49.5657 94.2601C49.5657 93.2877 49.0332 92.8687 47.9126 92.8687C46.6389 92.8687 46.6006 93.1934 46.6006 93.9179V97.0081C48.5199 96.5873 49.5657 95.5765 49.5657 94.2601Z" fill="#F9F8F4"/>
<path d="M62.2821 102.956C63.6689 102.956 64.6572 102.174 65.3045 100.592L65.8178 100.688L64.6973 104.445C64.2796 104.426 64.0326 104.426 63.956 104.426C63.2913 104.426 62.4735 104.616 61.4469 104.616C57.5509 104.616 55.0975 102.27 55.0975 99.391C55.0975 96.7217 57.3404 94.5271 60.7996 94.5271C63.347 94.5271 64.8104 95.6532 65.7796 98.2266L59.0509 99.8292C59.3745 101.832 60.5908 102.956 62.2821 102.956ZM60.5334 95.9762C59.6964 95.9762 58.9169 96.7391 58.9169 97.9594C58.9169 98.0921 58.936 98.34 58.9552 98.6456L62.0733 97.8826C61.8645 96.6256 61.3129 95.9762 60.5334 95.9762Z" fill="#F9F8F4"/>
<path d="M67.4345 105.206C67.377 105.454 67.3579 105.645 67.3579 105.798C67.3579 106.484 67.7372 106.886 68.3271 106.886C69.1641 106.886 69.9053 106.01 69.9053 104.693C69.9053 103.969 69.6391 103.148 69.2406 102.156L67.2065 97.1023C66.8272 96.1491 66.5035 95.5381 65.7814 95.2325V94.7943H71.0659V95.2325C70.6866 95.3286 70.5143 95.5189 70.5143 95.9186C70.5143 96.1666 70.6657 96.6432 70.9319 97.3101L72.1291 100.323L73.2879 96.8527C73.4202 96.4721 73.4776 96.28 73.4776 96.2608C73.4776 96.1456 73.4967 96.0513 73.4967 95.9553C73.4967 95.6882 73.401 95.4787 72.832 95.2308V94.7926H76.4252V95.2308C75.5326 95.4979 75.2089 96.1089 74.8087 97.118L71.4069 105.547C70.6083 107.549 69.7156 108.56 68.0243 108.56C67.2448 108.56 66.5801 108.293 65.8389 107.759L66.9038 105.032L67.4345 105.206Z" fill="#F9F8F4"/>
<path d="M76.3485 103.854C77.128 103.796 77.2603 103.338 77.2603 102.289V97.16C77.2603 96.0916 77.1089 95.6341 76.2528 95.5381V95.0615L80.3401 94.7944C80.5681 95.271 80.702 95.8436 80.7769 96.5298C81.88 95.2518 83.0198 94.66 84.5214 94.66C86.5555 94.66 87.0305 95.6708 87.0305 97.9212V101.869C87.0305 103.146 87.1454 103.719 88.0763 103.852V104.328H82.4125V103.852C83.3243 103.719 83.5157 103.185 83.5157 102.059V98.417C83.5157 97.2159 83.2877 96.6816 82.5465 96.6816C81.4433 96.6816 80.7786 97.7501 80.7786 99.8852V101.64C80.7786 103.014 80.8552 103.642 81.8435 103.852V104.328H76.3502V103.854H76.3485Z" fill="#F9F8F4"/>
<path d="M89.8632 94.9076C90.2252 95.0228 90.4896 95.1171 90.681 95.1171C91.2709 95.1171 92.4489 94.5252 94.3299 94.5252C95.6419 94.5252 96.6685 94.7731 97.2009 95.0595C98.2658 95.6321 98.3406 96.4334 98.3406 97.6346V101.774C98.3406 102.9 98.4363 103.471 99.5952 103.853V104.33H95.4696C95.1842 104.005 95.052 103.605 94.9563 103.109C94.2342 104.12 93.131 104.597 91.5928 104.597C89.6927 104.597 88.6087 103.586 88.6087 102.06C88.6087 99.9059 90.6236 98.6087 94.7475 97.8842V97.3116C94.7475 96.3584 94.2533 95.901 93.1693 95.901C91.6485 95.901 90.4322 96.7966 89.9572 98.3224H89.5013L89.8632 94.9076ZM92.1635 101.526C92.1635 102.155 92.562 102.575 93.0945 102.575C94.1019 102.575 94.7475 101.66 94.7475 99.8099V99.0853C92.9988 99.5619 92.1635 100.325 92.1635 101.526Z" fill="#F9F8F4"/>
<path d="M100.185 95.5381V95.0615L104.272 94.7944C104.5 95.271 104.634 95.8436 104.709 96.5298C105.601 95.271 106.553 94.66 107.655 94.66C107.902 94.66 108.187 94.6984 108.492 94.7368L107.808 97.3678C107.237 97.0622 106.762 96.8911 106.325 96.8911C104.843 96.8911 104.709 98.1307 104.709 100.248V101.64C104.709 102.995 104.766 103.642 105.774 103.852V104.328H100.28V103.852C101.173 103.756 101.192 103.204 101.192 102.288V97.1583C101.192 96.0916 101.039 95.6341 100.185 95.5381Z" fill="#F9F8F4"/>
<path d="M114.307 104.33C113.072 104.33 111.988 104.311 110.961 103.834C109.498 103.129 108.528 101.584 108.528 99.7909C108.528 98.4553 109.061 97.1966 109.992 96.2625C111.342 94.927 112.805 94.7943 114.763 94.7943H115.751V94.1082C115.751 93.9371 115.751 93.7643 115.751 93.6124C115.751 92.5247 115.713 92.0289 114.991 91.9538V91.458L119.268 90.8662V102.289C119.268 102.479 119.268 102.689 119.268 102.937C119.268 103.337 119.63 103.852 120.218 103.852C120.237 103.852 120.256 103.852 120.275 103.852V104.328H114.307V104.33ZM115.753 96.2818C115.468 96.2625 115.278 96.2433 115.144 96.2433C113.395 96.2433 112.426 97.4445 112.426 99.7525C112.426 101.793 113.3 103.014 114.518 103.014C115.64 103.014 115.753 102.422 115.753 101.107V96.2818Z" fill="#F9F8F4"/>
</g>
<defs>
<linearGradient id="paint0_linear" x1="121.966" y1="69.9966" x2="121.966" y2="113.988" gradientUnits="userSpaceOnUse">
<stop stop-color="#FFBD00"/>
<stop offset="1" stop-color="#F70000"/>
</linearGradient>
<clipPath id="clip0">
<rect width="100.12" height="43.9949" fill="white" transform="translate(41.7715 69.9917)"/>
</clipPath>
</defs>
</svg>
