<svg width="183" height="185" viewBox="0 0 183 185" fill="none" xmlns="http://www.w3.org/2000/svg">
<rect y="0.502686" width="183" height="183.979" rx="3" fill="#090909"/>
<g clip-path="url(#clip0)">
<path d="M58.4536 90.2191C58.4536 89.6961 58.4536 89.3005 58.4536 88.9049C58.4536 86.9041 58.4547 84.9021 58.4524 82.9012C58.4524 82.5814 58.4712 82.2555 58.4218 81.9429C58.2572 80.8992 57.3786 80.1429 56.3741 80.1477C55.3721 80.1525 54.5005 80.9173 54.3382 81.9597C54.2959 82.2339 54.31 82.5189 54.31 82.7978C54.3088 89.1622 54.3088 95.5254 54.31 101.89C54.31 102.17 54.2947 102.454 54.3324 102.729C54.4758 103.782 55.3227 104.571 56.32 104.601C57.3621 104.634 58.2818 103.829 58.43 102.734C58.4724 102.419 58.4524 102.094 58.4536 101.774C58.4547 99.5331 58.4489 97.2917 58.4583 95.0504C58.4618 94.3326 58.4642 93.6148 58.6876 92.9126C59.1898 91.341 60.2895 90.4729 61.9114 90.4392C62.3395 90.4308 62.7841 90.4344 63.1934 90.5414C64.506 90.8829 65.2329 91.8268 65.5269 93.1302C65.6763 93.7915 65.7257 94.4721 65.7221 95.1575C65.7104 97.2388 65.7186 99.3202 65.7186 101.402C65.7186 101.642 65.7163 101.881 65.7198 102.122C65.741 103.631 66.1597 104.22 67.5863 104.586C67.9768 104.685 68.1932 104.91 68.4026 105.198C68.5014 105.334 68.4108 105.522 68.2403 105.551C66.6172 105.816 65.0682 104.693 64.8 103.034C64.7365 102.642 64.7318 102.238 64.7306 101.839C64.7248 99.598 64.7354 97.3567 64.7224 95.1154C64.7189 94.5575 64.6954 93.9911 64.6013 93.4428C64.3896 92.2164 63.6204 91.5141 62.463 91.4143C61.0623 91.2941 60.1072 91.8677 59.6615 93.0761C59.4498 93.652 59.4227 94.246 59.4227 94.8484C59.4227 97.1703 59.4227 99.491 59.4215 101.813C59.4215 102.093 59.4333 102.374 59.4145 102.653C59.3016 104.307 57.9937 105.576 56.4024 105.587C54.8604 105.597 53.5526 104.405 53.3679 102.805C53.3315 102.489 53.3467 102.165 53.3467 101.845C53.3456 95.5218 53.3456 89.1983 53.3467 82.8736C53.3467 82.5934 53.335 82.3121 53.3585 82.0331C53.5032 80.3653 54.8063 79.1473 56.4177 79.1629C58.0207 79.1786 59.338 80.4339 59.4074 82.1004C59.4615 83.4195 59.418 84.7421 59.4239 86.0624C59.4262 86.5265 59.3921 86.9943 59.4803 87.5943C59.8967 87.2852 60.1931 87.046 60.5083 86.8367C62.7818 85.3217 65.1352 85.3133 67.5416 86.4676C67.9051 86.642 67.8992 87.2011 67.551 87.4139C67.4405 87.4812 67.3335 87.4668 67.2241 87.4079C66.6325 87.0856 66.0079 86.8656 65.3446 86.7502C63.3981 86.4135 61.6938 86.8957 60.2778 88.3217C59.9167 88.6861 59.6038 89.1009 59.2651 89.4869C59.0616 89.7177 58.9428 90.0304 58.4536 90.2191Z" fill="#F9F8F4"/>
<path d="M128.214 105.713C125.714 105.707 123.43 104.981 121.32 103.636C120.621 103.189 120.134 102.598 120.026 101.736C119.909 100.797 120.151 99.9838 120.884 99.3766C121.652 98.7393 122.527 98.6719 123.43 99.0026C123.757 99.1216 124.051 99.3393 124.359 99.5136C125.467 100.14 126.642 100.554 127.905 100.703C128.423 100.764 128.923 100.703 129.412 100.544C129.769 100.427 129.966 100.167 129.979 99.8599C129.993 99.5365 129.811 99.3188 129.564 99.1866C129.184 98.9846 128.788 98.8006 128.383 98.6623C127.604 98.3966 126.811 98.1717 126.027 97.9216C125.165 97.6475 124.333 97.2988 123.556 96.825C121.7 95.6936 120.845 94.0138 120.926 91.817C121.042 88.657 123.045 86.5612 126.014 85.9372C128.778 85.3552 131.383 85.9672 133.854 87.2538C134.816 87.754 135.255 88.6149 135.208 89.7199C135.136 91.4045 133.529 92.5348 131.956 91.9997C131.623 91.8867 131.307 91.7208 130.985 91.5741C130.196 91.2146 129.384 90.9212 128.531 90.7733C127.949 90.6711 127.358 90.6518 126.82 90.9873C126.423 91.235 126.389 91.6703 126.749 91.9817C127.114 92.2967 127.549 92.4819 127.991 92.6442C128.874 92.9677 129.763 93.2779 130.648 93.5989C131.61 93.9476 132.538 94.3697 133.372 94.9841C134.25 95.631 134.928 96.439 135.296 97.496C135.351 97.6559 135.371 97.8074 135.21 97.912C134.956 98.0767 134.566 98.0828 134.461 97.924C134.395 97.8254 134.34 97.7172 134.293 97.6078C133.867 96.6062 133.108 95.9352 132.209 95.4038C131.425 94.9408 130.584 94.6174 129.733 94.3156C128.92 94.027 128.11 93.7336 127.302 93.4294C126.86 93.2623 126.437 93.0482 126.081 92.7236C125.224 91.9432 125.354 90.6867 126.355 90.1035C126.734 89.8835 127.147 89.7741 127.588 89.7512C128.424 89.7079 129.228 89.857 130.007 90.1468C130.704 90.4065 131.394 90.6915 132.075 90.9957C132.543 91.2049 132.984 91.1917 133.428 90.956C134.326 90.4799 134.547 89.2642 133.855 88.5103C133.673 88.3119 133.435 88.146 133.194 88.0257C131.109 86.9796 128.927 86.4746 126.596 86.8426C126.089 86.9231 125.605 87.0698 125.132 87.2634C122.963 88.1472 121.503 90.041 121.993 93.1468C122.141 94.0907 122.645 94.8495 123.361 95.4603C124.03 96.0314 124.795 96.4354 125.615 96.7204C126.578 97.0547 127.551 97.3565 128.521 97.6703C129.082 97.8519 129.631 98.0599 130.134 98.3797C130.764 98.7802 131.043 99.3489 130.938 100.105C130.84 100.821 130.399 101.252 129.771 101.476C129.058 101.73 128.318 101.769 127.566 101.661C126.271 101.474 125.059 101.044 123.919 100.395C123.645 100.239 123.385 100.052 123.099 99.9285C122.403 99.6255 121.629 99.8587 121.22 100.466C120.792 101.101 120.9 102 121.483 102.534C121.656 102.693 121.86 102.82 122.061 102.944C124.388 104.38 126.908 104.932 129.607 104.636C130.313 104.559 130.983 104.339 131.645 104.089C132.03 103.943 132.158 104.012 132.357 104.43C132.453 104.632 132.452 104.796 132.216 104.914C131.468 105.284 130.674 105.494 129.855 105.598C129.312 105.662 128.761 105.675 128.214 105.713Z" fill="#F9F8F4"/>
<path d="M101.126 103.982C100.207 104.635 99.3097 105.194 98.2559 105.436C96.7398 105.783 95.2296 105.8 93.7242 105.394C91.0379 104.669 89.0925 102.38 89.3995 98.8598C89.6241 96.2818 90.9885 94.584 93.3796 93.7471C94.9615 93.194 96.5928 93.0582 98.2464 93.2169C98.9451 93.2842 99.6355 93.4417 100.331 93.5584C100.521 93.5908 100.714 93.651 100.915 93.485C100.829 92.398 100.173 91.7824 99.2109 91.4638C98.6522 91.2786 98.0665 91.1956 97.4725 91.2185C96.5316 91.2557 95.6001 91.3616 94.6886 91.6177C94.3863 91.703 94.0876 91.8064 93.7806 91.8594C92.581 92.0686 91.3719 91.3567 90.9532 90.212C90.5204 89.0301 90.9332 87.7315 91.9717 87.0569C92.2011 86.9078 92.4539 86.7852 92.7103 86.6974C95.5554 85.7258 98.4558 85.5238 101.393 86.1491C102.72 86.4317 103.895 87.0557 104.853 88.0645C105.309 88.5455 105.308 88.5455 104.778 89.2213C104.639 89.2994 104.553 89.196 104.485 89.113C103.394 87.7735 101.927 87.1242 100.299 86.9234C97.9889 86.6385 95.6848 86.7383 93.4478 87.497C93.1514 87.598 92.8468 87.6942 92.5774 87.8493C91.8776 88.2557 91.5883 89.0637 91.847 89.802C92.1223 90.592 92.8973 91.0634 93.7206 90.8469C94.5181 90.6377 95.3143 90.4381 96.1317 90.3371C97.1467 90.212 98.1594 90.1796 99.1674 90.4249C100.955 90.8614 101.925 92.0469 101.974 93.9095C101.983 94.257 102.054 94.6225 101.874 94.9496C101.573 95.0397 101.327 94.869 101.074 94.7872C99.1768 94.1716 97.2479 93.99 95.2755 94.293C94.2981 94.4433 93.3643 94.7127 92.5174 95.249C90.785 96.3432 90.2075 98.0241 90.3533 99.9817C90.5368 102.442 92.1011 104.111 94.5863 104.58C95.6695 104.784 96.7704 104.77 97.8536 104.518C99.1121 104.226 100.174 103.582 101.049 102.614C101.235 102.408 101.42 102.2 101.617 102.008C101.661 101.966 101.77 101.956 101.83 101.98C101.883 102.002 101.935 102.088 101.942 102.151C101.961 102.308 101.962 102.471 101.955 102.631C101.918 103.437 102.251 104.025 102.964 104.369C103.743 104.746 104.488 104.658 105.173 104.126C105.326 104.007 105.444 103.841 105.577 103.696C105.735 103.525 105.883 103.498 106.068 103.675C106.399 103.997 106.455 104.138 106.291 104.372C105.292 105.797 103.117 106.005 101.815 104.788C101.586 104.574 101.402 104.309 101.126 103.982Z" fill="#F9F8F4"/>
<path d="M122.759 86.4566C122.624 86.0273 122.699 85.5872 122.693 85.1544C122.679 84.154 122.719 83.1512 122.674 82.1531C122.624 81.0289 121.771 80.1848 120.718 80.1367C119.704 80.0898 118.837 80.78 118.62 81.8525C118.541 82.2397 118.535 82.6461 118.533 83.0441C118.524 85.0053 118.53 86.9664 118.527 88.9288C118.526 89.2342 118.574 89.5516 118.446 89.8354C118.112 89.8354 118.027 89.5841 117.876 89.4242C117.741 89.2799 117.621 89.1199 117.491 88.972C116.577 87.9404 115.498 87.1985 114.159 86.8402C111.559 86.144 107.823 87.136 105.955 90.5568C105.453 91.4755 105.125 92.4554 104.956 93.4883C104.635 95.4519 104.668 97.4034 105.326 99.2936C106.269 102.006 108.053 103.876 110.842 104.516C113.452 105.113 115.737 104.47 117.458 102.243C117.741 101.876 118.021 101.507 118.294 101.151C118.59 101.308 118.509 101.526 118.526 101.707C118.556 102.065 118.535 102.431 118.6 102.782C118.813 103.954 119.69 104.641 120.867 104.578C121.097 104.566 121.312 104.466 121.555 104.573C121.881 104.718 122.2 104.959 122.128 105.077C121.993 105.298 121.755 105.35 121.531 105.422C120.27 105.823 119.217 105.455 118.341 104.496C118.105 104.238 117.929 103.922 117.734 103.644C117.473 103.597 117.373 103.799 117.239 103.92C115.276 105.688 112.971 106.063 110.525 105.458C107.172 104.629 105.126 102.334 104.223 98.999C103.584 96.6399 103.6 94.2326 104.365 91.8975C105.443 88.6065 107.616 86.4746 111.007 85.8097C113.089 85.4009 115.06 85.7448 116.826 87.0169C116.954 87.1095 117.073 87.2141 117.204 87.3019C117.401 87.4354 117.564 87.3356 117.575 87.0698C117.587 86.7897 117.586 86.5095 117.586 86.2293C117.587 85.069 117.581 83.9075 117.589 82.7471C117.592 82.3888 117.598 82.0233 117.665 81.6734C117.976 80.0597 119.289 79.0545 120.899 79.1712C122.392 79.2794 123.576 80.5179 123.636 82.1026C123.678 83.2221 123.655 84.3439 123.645 85.4646C123.641 86.1596 123.628 86.1584 122.759 86.4566Z" fill="#F9F8F4"/>
<path d="M73.892 87.7469C74.306 87.3441 74.6824 86.9377 75.0987 86.5818C76.1384 85.6908 77.2911 85.6223 78.5037 86.1682C78.7789 86.292 78.7848 86.5217 78.5472 86.7153C78.3237 86.8968 78.1014 87.0171 77.7968 86.9233C76.596 86.5517 75.7597 87.1349 75.0552 88.0403C74.513 88.7365 74.159 89.5373 73.8132 90.3454C73.6485 90.7313 73.5603 91.1642 73.2628 91.4877C72.9899 91.3265 73.0852 91.1077 73.0805 90.9345C73.064 90.2143 73.1063 89.4916 73.0534 88.775C72.9734 87.6928 72.1678 86.8944 71.1633 86.8235C70.0648 86.7465 69.1886 87.4319 68.9769 88.561C68.9181 88.8712 68.9193 89.1971 68.9193 89.5157C68.9157 93.6364 68.9146 97.7583 68.9204 101.879C68.9204 102.236 68.9346 102.603 69.011 102.949C69.2345 103.947 70.0942 104.628 71.0469 104.602C72.0455 104.576 72.9064 103.787 73.0452 102.745C73.0875 102.43 73.0722 102.106 73.0734 101.786C73.0758 100.266 73.0675 98.7454 73.0781 97.2256C73.0863 96.0136 73.298 94.84 73.7944 93.7302C73.8426 93.6219 73.9002 93.5149 73.9673 93.4175C74.0073 93.3586 74.0743 93.3201 74.1308 93.2708C74.3354 93.2384 74.2907 93.4187 74.2813 93.5005C73.9485 96.3298 74.0261 99.1723 74.0155 102.012C74.0143 102.41 74.0273 102.82 73.9449 103.205C73.6521 104.569 72.4277 105.561 71.0598 105.59C69.7296 105.616 68.5335 104.739 68.1254 103.435C67.9936 103.013 67.9419 102.58 67.9419 102.135C67.9466 97.8544 67.9454 93.5726 67.9442 89.292C67.9442 88.4299 68.1136 87.6291 68.6617 86.9389C69.8437 85.4503 72.1772 85.484 73.3028 86.9077C73.518 87.177 73.7026 87.474 73.892 87.7469Z" fill="#F9F8F4"/>
<path d="M84.7064 85.6692C86.2425 85.6968 88.1407 86.2078 89.785 87.5185C90.3307 87.9526 90.3648 88.0788 90.1531 88.7449C90.0849 88.959 89.932 88.9337 89.7874 88.8399C89.6897 88.7762 89.6109 88.6824 89.5239 88.6019C86.026 85.3625 78.828 85.8351 76.3981 92.1141C75.5325 94.3506 75.4748 96.6604 76.2288 98.9354C77.2908 102.141 79.5537 103.994 82.7716 104.626C85.0357 105.071 87.2139 104.765 89.2628 103.639C89.7133 103.392 89.765 103.413 90.0438 103.772C90.2496 104.037 90.2413 104.186 89.9685 104.349C89.6309 104.549 89.2887 104.75 88.9288 104.903C85.9896 106.156 83.0386 106.143 80.1547 104.786C77.3767 103.479 75.6948 101.198 75.0197 98.1683C74.548 96.0508 74.7009 93.9502 75.4337 91.9061C76.8086 88.068 80.1912 85.6644 84.7064 85.6692Z" fill="#F9F8F4"/>
<path d="M46.0773 91.5341C45.7786 91.4054 45.561 91.3176 45.3481 91.219C44.3154 90.7405 43.7756 89.8832 43.7603 88.7613C43.745 87.6334 44.2872 86.7761 45.2987 86.2687C45.4375 86.199 45.5892 86.1521 45.7386 86.1088C45.9585 86.045 46.0573 85.8839 46.0644 85.6711C46.0785 85.1913 46.0561 84.7104 46.0855 84.2318C46.1702 82.8827 46.7571 81.8606 48.0179 81.3376C49.8551 80.5765 51.8886 81.7981 52.1344 83.8061C52.1827 84.2005 52.1615 84.6045 52.1709 85.005C52.1803 85.433 52.1427 85.8238 52.5461 86.1797C52.886 86.4791 52.6155 86.9793 52.1627 86.9974C51.9674 87.0046 51.771 87.001 51.577 86.9805C51.3558 86.9577 51.2218 86.8194 51.2182 86.5897C51.21 85.8695 51.21 85.1492 51.2076 84.4302C51.2065 84.0683 51.1782 83.7172 51.0242 83.3781C50.6607 82.5821 49.8786 82.0578 49.0671 82.0927C48.1955 82.1288 47.4181 82.7444 47.177 83.6306C47.0947 83.9336 47.0676 84.2595 47.0559 84.5757C47.037 85.0951 47.0559 85.6158 47.0488 86.1352C47.0382 86.8855 47.0347 86.8867 46.3066 87.0238C46.0373 87.0743 45.7691 87.1116 45.5316 87.2751C44.9623 87.6671 44.6789 88.2142 44.7365 88.9044C44.7988 89.6487 45.3316 90.221 46.0479 90.4303C46.3431 90.5156 46.7148 90.3353 46.9312 90.6106C47.1664 90.91 47.0441 91.3056 47.0453 91.6579C47.0535 94.2179 47.0406 96.7778 47.0559 99.3377C47.0594 99.975 47.1076 100.618 47.2005 101.248C47.4934 103.238 48.6531 104.375 50.6125 104.624C51.3523 104.717 52.098 104.71 52.8401 104.649C53.1295 104.625 53.3917 104.661 53.5658 104.925C53.6481 105.05 53.7622 105.196 53.7587 105.329C53.754 105.507 53.5623 105.551 53.4059 105.57C52.352 105.697 51.2911 105.731 50.2444 105.559C48.0015 105.192 46.6407 103.767 46.2525 101.452C46.1338 100.741 46.0726 100.026 46.0749 99.3029C46.0832 97.1433 46.0773 94.9826 46.0773 92.8231C46.0773 92.4214 46.0773 92.0235 46.0773 91.5341Z" fill="#F9F8F4"/>
<path d="M118.655 95.7043C118.587 96.8466 118.381 97.9336 117.797 98.9195C115.954 102.034 111.663 102.114 109.813 99.0061C108.532 96.855 108.52 94.5728 109.787 92.4073C111.619 89.2738 115.887 89.3026 117.769 92.4049C118.385 93.4197 118.598 94.5452 118.655 95.7043Z" fill="#F9F8F4"/>
<path d="M84.0912 94.7581C82.8434 94.7581 81.5955 94.7653 80.3476 94.7557C79.7454 94.7508 79.7077 94.6799 79.8218 94.0366C79.9841 93.1228 80.2888 92.2703 80.8404 91.5224C82.5728 89.1716 86.053 89.2967 87.6056 91.7701C88.0772 92.5204 88.3406 93.3488 88.4077 94.2398C88.4359 94.621 88.3371 94.7448 87.9525 94.7508C87.0563 94.7641 86.1589 94.7581 85.2615 94.7593C84.871 94.7605 84.4817 94.7593 84.0912 94.7593C84.0912 94.7593 84.0912 94.7593 84.0912 94.7581Z" fill="#F9F8F4"/>
<path d="M97.3772 102.082C97.0867 102.071 96.5468 102.046 96.0234 101.843C95.0131 101.451 94.4133 100.717 94.3098 99.6289C94.2098 98.566 94.5709 97.6678 95.4495 97.0341C95.8353 96.7551 96.2681 96.576 96.7303 96.469C98.384 96.0842 99.9812 96.3066 101.548 96.9199C101.887 97.0521 102.054 97.2614 102.042 97.6293C102.031 97.9479 102.039 98.2678 102.026 98.5852C101.977 99.7973 101.405 100.698 100.422 101.342C99.5719 101.9 98.6274 102.095 97.3772 102.082Z" fill="#F9F8F4"/>
<path d="M84.4704 97.0057C85.8395 97.0057 87.2073 97.0033 88.5764 97.0081C88.7681 97.0093 88.9904 97.0202 88.9986 97.2907C89.008 97.5865 88.7963 97.9208 88.5905 97.94C88.3188 97.9665 88.0447 97.9665 87.7707 97.9665C85.8159 97.9689 83.86 97.9677 81.9053 97.9677C81.7488 97.9677 81.5924 97.9665 81.436 97.9749C81.1384 97.9905 81.0279 98.1697 81.1467 98.445C81.6618 99.6426 82.578 100.333 83.8177 100.532C85.1291 100.744 86.3899 100.55 87.5414 99.8242C87.7072 99.7196 87.866 99.6017 88.033 99.4983C88.1918 99.3997 88.327 99.229 88.547 99.2879C88.6987 99.3288 88.7693 99.7761 88.6834 100.059C88.6211 100.264 88.4799 100.395 88.3153 100.504C86.6016 101.636 84.7492 101.922 82.8227 101.268C81.0573 100.668 80.1563 99.2747 79.8482 97.447C79.7988 97.1524 79.9211 97.0129 80.2457 97.0117C81.6536 97.0033 83.0614 97.0081 84.4681 97.0081C84.4704 97.0081 84.4704 97.0069 84.4704 97.0057Z" fill="#F9F8F4"/>
<path d="M135.785 99.3592L135.776 99.3593C134.31 99.363 133.091 100.586 133.1 102.114C133.112 103.899 134.589 104.887 135.775 104.902L135.785 99.3592ZM135.785 99.3592L135.795 99.359M135.785 99.3592L135.795 99.359M135.795 99.359C137.236 99.3189 138.47 100.603 138.489 102.078V102.078M135.795 99.359L138.489 102.078M138.489 102.078C138.51 103.748 137.092 104.918 135.775 104.902L138.489 102.078Z" stroke="#F9F8F4" stroke-width="1.5"/>
<path d="M51.2099 95.0493C51.2099 93.6905 51.204 92.3306 51.2134 90.9719C51.2158 90.5799 51.3228 90.4921 51.7086 90.4765C51.865 90.4705 52.0214 90.4801 52.1778 90.4729C52.6695 90.45 52.8718 90.9623 52.5424 91.2869C52.1614 91.6633 52.1778 92.036 52.1767 92.4581C52.1708 94.4565 52.1767 96.4549 52.172 98.4533C52.1708 98.9776 52.1649 99.4922 52.5377 99.9239C52.7059 100.117 52.6659 100.374 52.6542 100.613C52.6424 100.867 52.4872 100.958 52.2661 100.864C51.8426 100.684 51.5815 100.359 51.3992 99.9395C51.2181 99.5235 51.2052 99.0882 51.2052 98.6469C51.2052 97.4481 51.2052 96.2481 51.2052 95.0493C51.2063 95.0493 51.2075 95.0493 51.2099 95.0493Z" fill="#F9F8F4"/>
<path d="M109.879 95.6912C109.893 94.7292 110.048 93.8286 110.53 93.0206C111.28 91.7665 112.357 91.0763 113.822 91.0931C115.29 91.1112 116.38 91.8122 117.049 93.1168C117.901 94.7809 117.925 96.5124 117.086 98.185C115.734 100.883 112.283 101.037 110.647 98.5096C110.085 97.6427 109.894 96.6784 109.879 95.6912Z" fill="#101010"/>
<path d="M80.9687 93.7892C81.445 91.6321 82.8564 90.6076 84.7464 90.9082C86.0014 91.1078 87.0176 92.1311 87.2528 93.4357C87.2869 93.6233 87.2058 93.7351 87.0305 93.7808C86.9929 93.7904 86.9529 93.7892 86.9141 93.7892C84.9605 93.7892 83.0069 93.7892 80.9687 93.7892Z" fill="black"/>
<path d="M97.5422 101.112C97.1459 101.077 96.686 101.048 96.239 100.852C95.0464 100.33 94.9959 98.7199 95.8744 97.9612C96.1779 97.6991 96.5343 97.5379 96.92 97.4417C98.1738 97.1255 99.4029 97.2686 100.625 97.6341C100.938 97.7279 101.065 97.9071 101.075 98.2329C101.108 99.2466 100.693 100.008 99.8616 100.54C99.1747 100.979 98.4055 101.098 97.5422 101.112Z" fill="black"/>
</g>
<defs>
<clipPath id="clip0">
<rect width="95.4782" height="26.6636" fill="white" transform="translate(43.7603 79.1603)"/>
</clipPath>
</defs>
</svg>
