<svg width="183" height="185" viewBox="0 0 183 185" fill="none" xmlns="http://www.w3.org/2000/svg">
<rect y="0.502441" width="183" height="183.979" rx="3" fill="#090909"/>
<path d="M82.9501 59.4243C86.2817 57.9567 89.6145 56.493 92.9435 55.0201C96.3128 53.5302 99.6769 52.0285 103.046 50.5413C103.438 50.3684 103.809 50.1223 104.258 50.1079C104.651 50.4457 104.754 50.9327 104.942 51.3608C108.724 59.9624 112.494 68.5678 116.268 77.172C121.126 88.2453 125.985 99.3187 130.845 110.392C131.506 111.898 131.544 111.663 130.072 112.317C113.237 119.787 96.4 127.252 79.5613 134.715C79.1735 134.886 78.8156 135.162 78.364 135.137C77.781 134.15 51.6855 74.6858 51.3588 73.6005C51.6763 73.2129 52.1644 73.1174 52.5899 72.9275C59.4392 69.8784 66.2923 66.8397 73.1441 63.7958C73.5384 63.6203 73.9223 63.42 74.3115 63.2315C74.4338 63.1542 74.56 63.1451 74.6915 63.2027C75.7534 64.2226 76.1933 65.5318 76.421 66.9431C76.4028 67.0793 76.3547 67.2049 76.2831 67.3215C75.6961 68.0023 74.8919 68.344 74.0981 68.6883C69.0083 70.8904 63.9407 73.1435 58.8887 75.4347C57.6016 76.0186 57.5873 76.0631 58.1638 77.3828C62.4167 87.1037 66.6788 96.8207 70.9513 106.532C72.755 110.632 74.5665 114.728 76.3312 118.844C77.1082 120.655 77.1693 120.634 79.0082 119.83C85.8769 116.829 92.7132 113.755 99.5702 110.728C105.833 107.965 112.084 105.173 118.34 102.394C118.617 102.271 118.884 102.123 119.164 102.005C121.547 101.002 121.513 101.019 120.452 98.6182C116.937 90.6635 113.468 82.6877 109.966 74.7277C107.497 69.1151 105.071 63.4828 102.546 57.8951C101.883 56.4262 101.857 56.3882 100.333 57.0389C96.3076 58.7566 92.3436 60.6157 88.3184 62.3294C87.1432 62.8296 86.0695 63.6727 84.6927 63.6112C84.5599 63.5968 84.435 63.5588 84.3166 63.4986C83.2937 62.5036 82.8577 61.2297 82.6131 59.8642C82.6521 59.6613 82.7458 59.5002 82.9501 59.4243Z" fill="white"/>
<path d="M74.5215 63.3066C74.4473 63.2909 74.3757 63.266 74.3081 63.232C74.1948 62.5813 73.8461 62.0235 73.5962 61.4265C73.345 60.8282 73.0952 60.2272 72.8063 59.6472C72.5551 59.1432 72.6657 58.757 73.0301 58.3576C73.8461 57.4634 74.649 56.5574 75.426 55.6305C75.7669 55.2233 76.1508 55.0767 76.6675 55.112C77.3546 55.1578 78.0456 55.1448 78.7354 55.1592C79.0685 55.1657 79.3002 55.0348 79.4485 54.7166C79.6437 54.2951 79.7505 53.8198 80.081 53.4912C80.4975 53.5985 80.5287 53.9429 80.6432 54.2073C81.2093 55.5179 81.752 56.8389 82.3181 58.1508C82.5055 58.5855 82.7385 59.0005 82.9493 59.4247C82.9597 59.5045 82.9311 59.5713 82.8634 59.625C82.6396 60.057 82.3389 60.4118 81.8808 60.603C79.8233 61.4619 77.8309 62.4713 75.7591 63.2961C75.3322 63.4637 74.9353 63.5187 74.5215 63.3066Z" fill="#808080"/>
<path d="M84.5863 63.3563C89.6161 61.1202 94.646 58.8828 99.6746 56.6466C100.388 56.3298 101.097 56.0051 101.814 55.6987C102.038 55.6032 102.24 55.6713 102.35 55.9069C102.479 56.1832 102.601 56.462 102.724 56.7409C109.072 71.2012 115.421 85.6601 121.763 100.122C122.303 101.354 122.437 101.241 121.159 101.808C106.737 108.205 92.3178 114.606 77.8971 121.002C76.7857 121.495 76.8651 121.56 76.3302 120.343C69.9508 105.801 63.5688 91.2622 57.1906 76.7208C57.054 76.4092 56.9473 76.0832 56.8432 75.807C57.0306 75.5019 57.2973 75.4365 57.5277 75.3343C63.5492 72.6609 69.5734 69.9941 75.5975 67.3298C75.7537 67.2604 75.9242 67.2238 76.0882 67.1714C76.9132 67.1963 77.0863 67.9006 77.3869 68.4544C77.6745 68.9833 77.9491 69.2596 78.3708 68.5775C78.8445 67.8129 79.5147 67.4175 80.4296 67.4935C80.6027 67.5079 80.8265 67.538 80.9254 67.4071C81.6985 66.3924 82.7955 66.3112 83.9369 66.2628C84.7268 66.2288 84.7958 65.7051 84.5914 65.0544C84.4158 64.494 84.0371 63.9219 84.5863 63.3563Z" fill="black"/>
<path d="M74.5238 63.3063C74.7034 63.1911 74.8713 63.0497 75.0639 62.9646C77.4559 61.8963 79.8491 60.8332 82.2463 59.7766C82.4376 59.6928 82.6562 59.6732 82.8632 59.6248C83.467 60.8031 84.011 62.0076 84.3936 63.2801C84.4587 64.05 83.8926 64.3354 83.3447 64.5671C81.4134 65.3841 79.516 66.2809 77.5782 67.0835C77.0772 67.2903 76.5917 67.3885 76.1441 66.9669C75.4986 65.7939 74.9611 64.5723 74.5238 63.3063Z" fill="#C2C2C2"/>
<path d="M76.1455 66.9657C76.3927 66.8923 76.6504 66.8452 76.8846 66.7431C79.1387 65.7533 81.3888 64.7557 83.6376 63.7541C83.9095 63.6324 84.2089 63.5447 84.395 63.2802C84.4652 63.2894 84.529 63.3143 84.5876 63.3561C84.8531 64.0435 85.1289 64.7269 85.3788 65.4195C85.5077 65.7769 85.7757 66.1055 85.6547 66.5677C85.0587 66.7915 84.4106 66.8138 83.769 66.8714C83.3382 66.9094 82.9062 66.9368 82.4754 66.9591C82.029 66.9827 81.7922 67.1699 81.6933 67.6478C81.571 68.2395 81.4551 68.2736 80.902 68.2029C80.8161 68.1924 80.729 68.1858 80.6457 68.1623C79.4757 67.8219 79.5056 67.9476 78.8862 68.8941C78.6025 69.3288 78.3084 69.7595 78.0038 70.1811C77.8672 70.3696 77.5835 70.333 77.4768 70.1104C77.2334 69.6024 77.0148 69.0813 76.774 68.5707C76.5528 68.1007 76.3172 67.6373 76.0882 67.1712C76.0999 67.0992 76.1181 67.0311 76.1455 66.9657Z" fill="#808080"/>
<path d="M104.254 116.583C104.098 117.985 104.098 117.985 102.923 117.751C102.909 118.009 102.906 118.262 102.874 118.51C102.866 118.568 102.767 118.641 102.698 118.657C102.625 118.674 102.513 118.657 102.465 118.608C102.379 118.521 102.304 118.407 102.265 118.29C102.155 117.963 102.036 117.633 101.98 117.295C101.916 116.909 101.386 116.451 101.883 116.158C102.228 115.955 102.469 116.543 102.783 116.74C102.892 116.808 102.995 116.887 103.105 116.954C103.289 117.065 103.563 116.931 103.582 116.701C103.614 116.27 103.616 115.838 103.639 115.406C103.645 115.286 103.66 115.152 103.819 115.112C103.966 115.075 104.079 115.141 104.15 115.247C104.59 115.887 105.022 116.532 105.452 117.18C105.497 117.25 105.522 117.34 105.534 117.424C105.557 117.607 105.497 117.781 105.32 117.836C105.223 117.866 105.038 117.826 104.983 117.75C104.762 117.441 104.576 117.107 104.254 116.583Z" fill="black"/>
<path d="M122.421 108.946C122.415 109.676 121.812 110.483 121.118 110.718C120.711 110.857 120.35 110.742 120.008 110.546C119.404 110.199 119.118 109.472 119.277 108.752C119.424 108.087 120.034 107.523 120.711 107.428C121.331 107.342 121.879 107.627 122.222 108.205C122.358 108.436 122.423 108.68 122.421 108.946Z" fill="black"/>
<path d="M98.2275 120.264C98.044 120.501 97.8827 120.759 97.6718 120.97C97.1773 121.464 96.4771 121.547 95.9097 121.215C95.367 120.897 95.0326 120.179 95.1393 119.563C95.3215 118.507 96.3027 117.879 97.3322 118.175C97.5326 118.233 97.7109 118.366 97.8996 118.466C98.8028 118.919 98.2093 119.648 98.2275 120.264Z" fill="black"/>
<path d="M94.1911 121.386C94.6895 121.576 95.0917 121.721 95.486 121.889C95.538 121.911 95.5589 122.035 95.5706 122.117C95.5953 122.295 95.4378 122.36 95.3311 122.343C94.9498 122.283 94.5763 122.175 94.1976 122.103C93.8111 122.03 93.5118 122.094 93.4936 122.59C93.4897 122.711 93.3712 122.842 93.2281 122.805C93.1188 122.776 92.9873 122.689 92.9405 122.59C92.7179 122.12 92.5384 121.63 92.3132 121.162C91.9111 120.332 91.9319 120.222 92.7271 119.792C93.0693 119.606 93.4194 119.437 93.8267 119.437C94.2653 119.437 94.5815 119.743 94.5282 120.174C94.5021 120.386 94.4228 120.591 94.3642 120.8C94.3173 120.965 94.2679 121.128 94.1911 121.386Z" fill="black"/>
<path d="M88.4549 125.459C88.1191 125.386 87.7846 125.302 87.4463 125.243C87.0689 125.176 86.8151 125.265 86.6641 125.696C86.5561 126.004 86.1813 125.976 86.0733 125.68C85.7922 124.914 85.502 124.159 84.9008 123.542C85.679 122.813 86.4728 122.376 87.5114 122.681C87.7352 122.728 87.9668 122.867 87.9564 123.071C87.9226 123.734 88.028 124.287 88.598 124.733C88.7607 124.86 88.8661 125.286 88.4549 125.459Z" fill="black"/>
<path d="M98.6778 117.566C98.7884 117.095 99.158 116.866 99.5484 116.689C100.163 116.41 100.841 116.599 101.278 117.129C101.782 117.738 101.745 118.54 101.184 119.251C100.644 119.935 99.987 120.108 99.2712 119.72C99.0513 119.601 98.8743 119.401 98.6765 119.237C98.6062 119.162 98.549 119.079 98.5021 118.987C98.454 118.788 98.3525 118.606 98.3277 118.4C98.3316 118.297 98.3603 118.2 98.411 118.11C98.5555 117.957 98.6375 117.772 98.6778 117.566Z" fill="black"/>
<path d="M81.8526 125.966C81.7302 126.796 81.293 127.668 80.6423 128.438C80.5017 128.604 80.2128 128.546 80.1126 128.324C79.8107 127.661 79.5933 126.957 79.2042 126.332C79.1092 126.18 79.186 125.985 79.32 125.863C79.7703 125.456 80.2714 125.121 80.8661 124.973C81.4947 124.817 81.8721 125.136 81.8526 125.966Z" fill="black"/>
<path d="M114.818 110.443C115.372 109.777 115.946 109.342 116.64 109.084C117.143 108.897 117.596 109.206 117.654 109.745C117.667 109.872 117.672 110.007 117.647 110.132C117.481 110.986 117.184 111.79 116.694 112.514C116.528 112.76 116.197 112.75 116.067 112.492C115.951 112.263 115.869 112.017 115.768 111.78C115.553 111.28 115.419 110.729 114.818 110.443Z" fill="black"/>
<path d="M124.307 107.741C123.83 107.686 123.403 107.96 122.933 108.02C122.582 108.064 122.373 107.856 122.385 107.49C122.397 107.127 122.522 106.81 122.722 106.522C122.963 106.177 123.31 106.077 123.75 106.238C123.904 106.295 124.093 106.401 124.043 106.603C124.024 106.683 123.848 106.766 123.739 106.774C123.525 106.788 123.309 106.749 123.14 106.931C123.045 107.033 122.979 107.145 123.051 107.274C123.083 107.327 123.193 107.381 123.249 107.365C123.748 107.221 124.242 107.07 124.771 107.122C125.374 107.182 125.697 107.68 125.493 108.231C125.205 109.002 124.363 109.495 123.523 109.374C123.398 109.355 123.256 109.26 123.28 109.12C123.3 109.014 123.404 108.876 123.503 108.839C123.862 108.705 124.277 108.741 124.601 108.487C124.769 108.356 124.967 108.233 124.876 107.97C124.807 107.77 124.614 107.775 124.449 107.742C124.409 107.735 124.365 107.741 124.307 107.741Z" fill="black"/>
<path d="M87.7654 122.042C87.8331 121.898 87.9815 121.851 88.0687 121.945C88.2977 122.191 88.4916 122.471 88.7038 122.745C89.1514 122.373 89.2386 121.828 89.521 121.403C89.5757 121.32 89.7266 121.301 89.8334 121.252C89.8633 121.371 89.944 121.506 89.914 121.607C89.7527 122.14 89.5627 122.664 89.3518 123.28C89.8841 123.331 90.3383 123.373 90.7912 123.422C90.9734 123.441 91.1282 123.527 91.1321 123.731C91.136 123.952 90.9539 124.021 90.7821 124.017C90.4385 124.01 90.0962 123.96 89.7527 123.94C89.4039 123.921 89.318 124.129 89.3492 124.434C89.3583 124.519 89.3466 124.607 89.344 124.693C88.0452 125.056 87.9958 124.133 87.8904 123.267C87.8448 123.087 87.7928 122.909 87.7342 122.733C87.6926 122.62 87.6704 122.504 87.6691 122.382C87.6783 122.262 87.7108 122.148 87.7654 122.042Z" fill="black"/>
<path d="M112.486 111.215C112.561 111.238 112.68 111.236 112.706 111.285C112.926 111.704 113.122 112.136 113.338 112.556C113.454 112.781 113.577 113.06 113.906 112.942C114.317 112.796 114.52 112.398 114.387 112.035C114.225 111.59 114.037 111.155 113.876 110.71C113.855 110.651 113.904 110.532 113.959 110.486C114.063 110.399 114.2 110.385 114.279 110.526C114.705 111.276 115.126 112.028 115.388 112.856C115.44 113.022 115.372 113.271 115.175 113.226C114.648 113.107 114.416 113.569 114.039 113.733C113.73 113.867 113.415 113.817 113.239 113.538C112.826 112.879 112.516 112.171 112.351 111.405C112.339 111.353 112.438 111.28 112.486 111.215Z" fill="black"/>
<path d="M82.9939 125.366C82.9705 125.142 82.9223 124.754 82.8911 124.363C82.8781 124.201 82.8351 124.009 83.0628 123.935C83.2502 123.875 83.4038 123.955 83.5352 124.07C84.2172 124.674 84.8978 125.281 85.5693 125.897C85.6565 125.976 85.7099 126.111 85.7398 126.232C85.7567 126.298 85.7125 126.405 85.6604 126.46C85.6097 126.513 85.4951 126.569 85.4418 126.547C85.2479 126.463 85.0605 126.356 84.8835 126.238C84.7143 126.124 84.562 126.148 84.4059 126.247C84.333 126.293 84.2718 126.359 84.199 126.403C83.832 126.624 83.6875 127.097 83.2529 127.241C82.7648 126.873 83.1474 126.356 83.0342 125.923C83.0017 125.8 83.0134 125.664 82.9939 125.366Z" fill="black"/>
<path d="M111.756 114.762C111.548 114.826 111.413 114.694 111.343 114.542C111.141 114.11 110.977 113.662 110.783 113.228C110.58 112.772 110.571 112.775 110.032 113.08C109.957 113.122 109.892 113.203 109.815 113.215C109.744 113.225 109.64 113.183 109.597 113.127C109.56 113.079 109.556 112.958 109.59 112.906C109.975 112.317 110.475 111.841 111.078 111.486C111.218 111.404 111.405 111.37 111.568 111.375C111.672 111.379 111.799 111.475 111.87 111.566C111.966 111.692 111.876 111.806 111.767 111.89C111.733 111.916 111.69 111.93 111.655 111.955C111.033 112.383 111.03 112.385 111.345 113.05C111.53 113.441 111.732 113.826 111.906 114.223C111.955 114.334 111.959 114.479 111.94 114.601C111.928 114.66 111.82 114.707 111.756 114.762Z" fill="black"/>
<path d="M109.583 114.232C109.915 114.583 109.787 114.937 109.589 115.291C109.477 115.312 109.381 115.284 109.304 115.196C109.312 115.087 109.329 114.98 109.351 114.874L109.386 114.921C108.914 114.41 108.363 114.637 107.825 114.755L107.736 114.804L107.635 114.799C107.43 114.916 107.227 114.939 107.027 114.79H107.028C106.869 114.558 106.951 114.323 107.015 114.087C106.973 113.66 107.184 113.356 107.507 113.123C107.756 112.943 108.047 112.89 108.349 112.948C108.467 112.97 108.592 113.013 108.594 113.181C108.595 113.325 108.527 113.406 108.395 113.451C108.117 113.544 107.841 113.643 107.564 113.74C107.435 113.843 107.348 113.974 107.312 114.137C107.547 114.164 107.782 114.19 108.017 114.218C108.108 114.181 108.198 114.143 108.288 114.105C108.668 113.943 109.048 113.91 109.428 114.104C109.516 114.103 109.568 114.146 109.583 114.232Z" fill="black"/>
<path d="M87.7818 122.385C87.7726 122.474 87.7961 122.553 87.8507 122.624C87.9132 122.727 87.9731 122.833 88.0277 122.942C88.2203 123.423 88.4207 123.904 88.6042 124.39C88.7474 124.765 89.0259 124.767 89.3434 124.692C89.1027 125.013 88.8281 125.292 88.4559 125.458C88.5561 125.2 88.6029 124.936 88.2854 124.811C88.0121 124.704 87.718 124.653 87.3809 124.564C87.5371 123.93 87.7948 123.316 87.5111 122.68C87.5332 122.55 87.5553 122.421 87.5761 122.291C87.675 122.26 87.7414 122.294 87.7818 122.385Z" fill="white"/>
<path d="M119.341 111.285C119.288 111.347 119.245 111.433 119.179 111.462C119.111 111.491 119.017 111.47 118.938 111.456C118.902 111.449 118.856 111.415 118.842 111.381C118.501 110.599 118.16 109.818 117.832 109.031C117.811 108.98 117.867 108.862 117.922 108.821C117.976 108.78 118.121 108.756 118.147 108.789C118.704 109.501 119.11 110.293 119.368 111.162C119.375 111.196 119.351 111.243 119.341 111.285Z" fill="black"/>
<path d="M109.389 115.559C108.972 116.189 108.385 116.454 107.645 116.38C107.523 116.368 107.407 116.313 107.389 116.158C107.37 116.003 107.465 115.891 107.583 115.87C108.133 115.769 108.657 115.609 109.123 115.288L109.229 115.303C109.295 115.336 109.345 115.385 109.376 115.452L109.389 115.559Z" fill="black"/>
<path d="M98.5082 118.172C98.5082 118.26 98.5082 118.348 98.5082 118.436C98.6084 118.616 98.5889 118.834 98.6891 119.014C98.6943 119.089 98.6904 119.164 98.6761 119.238C98.4509 119.546 98.5394 119.995 98.2258 120.263C98.3585 119.619 98.2453 119.02 97.8978 118.463C98.0735 118.277 98.2492 118.09 98.4249 117.904C98.5264 117.938 98.572 117.989 98.5628 118.057C98.5537 118.133 98.5355 118.172 98.5082 118.172Z" fill="white"/>
<path d="M107.825 114.756C108.386 114.432 108.919 114.363 109.386 114.922C108.9 114.542 108.354 114.732 107.825 114.756Z" fill="black"/>
<path d="M107.017 114.086C107.021 114.321 107.026 114.555 107.03 114.789C106.771 114.56 106.828 114.324 107.017 114.086Z" fill="black"/>
<path d="M98.5089 118.173C98.4816 118.084 98.4543 117.993 98.4256 117.904C98.5089 117.792 98.5935 117.679 98.6768 117.567C98.7002 117.791 98.6339 117.99 98.5089 118.173Z" fill="#3B2B0D"/>
<path d="M107.027 114.79C107.23 114.792 107.432 114.795 107.635 114.799C107.431 114.913 107.225 115.121 107.027 114.79Z" fill="black"/>
<path d="M108.289 114.106C108.198 114.144 108.108 114.18 108.017 114.218C108.108 114.18 108.199 114.142 108.289 114.106Z" fill="black"/>
<path d="M109.393 115.288C109.458 115.29 109.522 115.291 109.587 115.291C109.579 115.424 109.505 115.508 109.387 115.558C109.352 115.532 109.319 115.502 109.291 115.469L109.276 115.341L109.393 115.288Z" fill="black"/>
<path d="M109.352 114.875C109.366 115.014 109.381 115.151 109.395 115.29L109.318 115.366L109.213 115.387C109.18 115.357 109.15 115.324 109.123 115.289C109.2 115.15 109.275 115.013 109.352 114.875Z" fill="black"/>
<path d="M109.581 114.229C109.522 114.197 109.471 114.155 109.43 114.101C109.518 114.098 109.569 114.142 109.581 114.229Z" fill="#3C2D0D"/>
<path d="M87.7807 122.386C87.7156 122.348 87.648 122.316 87.5764 122.291C87.6389 122.207 87.7026 122.125 87.7651 122.041C87.7703 122.156 87.7755 122.271 87.7807 122.386Z" fill="#34270D"/>
<path d="M107.312 114.135C107.397 114.003 107.481 113.871 107.566 113.738C107.481 113.871 107.397 114.003 107.312 114.135Z" fill="#3C2D0D"/>
<path d="M104.053 89.5786C103.916 97.7376 97.1596 103.59 89.6897 103.279C82.5749 102.984 76.3647 97.0908 76.4844 89.2094C76.6042 81.3345 83.089 75.2873 90.7724 75.5727C98.1604 75.849 104.095 81.9001 104.053 89.5786Z" fill="white"/>
<path d="M98.0794 64.2253C99.8701 64.1782 101.476 65.5503 101.485 67.5861C101.494 69.5525 99.9898 70.9717 98.0976 70.973C96.2548 70.9743 94.8012 69.5185 94.7726 67.6699C94.7439 65.7414 96.1806 64.2437 98.0794 64.2253Z" fill="white"/>
<path d="M120.642 110.012C120.02 109.991 119.655 109.481 119.825 109.012C120.018 108.481 120.416 108.172 120.955 108.068C121.275 108.007 121.539 108.157 121.728 108.423C121.899 108.665 121.843 108.909 121.713 109.15C121.456 109.629 121.096 109.966 120.642 110.012Z" fill="white"/>
<path d="M97.7138 119.353C97.7386 119.989 97.011 120.696 96.3863 120.644C95.802 120.594 95.5118 120.043 95.7916 119.525C96.0298 119.082 96.3838 118.802 96.8848 118.732C97.287 118.676 97.6995 118.992 97.7138 119.353Z" fill="white"/>
<path d="M93.2287 121.425C93.1337 121.459 93.0699 121.425 93.0218 121.329C92.984 121.253 92.9268 121.186 92.8877 121.112C92.5416 120.448 92.7303 120.083 93.4734 119.975C93.761 119.933 93.9887 120.161 93.9289 120.424C93.8508 120.766 93.6972 121.067 93.4526 121.316C93.3966 121.371 93.3042 121.389 93.2287 121.425Z" fill="white"/>
<path d="M86.4734 124.559C86.4357 124.559 86.3927 124.571 86.3602 124.556C86.1572 124.467 85.7706 123.814 85.8292 123.572C85.9112 123.238 86.2183 123.151 86.515 123.09C86.6894 123.053 86.8612 123.069 86.9705 123.234C87.0148 123.301 87.0434 123.392 87.0447 123.472C87.0512 123.885 86.882 124.222 86.5866 124.499C86.5567 124.529 86.5111 124.541 86.4734 124.559Z" fill="white"/>
<path d="M101.051 117.834C101.094 118.446 100.33 119.209 99.7206 119.163C99.2117 119.125 98.8551 118.599 99.0425 118.143C99.256 117.625 99.6542 117.315 100.197 117.212C100.566 117.143 101.027 117.493 101.051 117.834Z" fill="white"/>
<path d="M98.6898 119.015C98.5064 118.86 98.4648 118.662 98.509 118.436C98.6365 118.607 98.7029 118.799 98.6898 119.015Z" fill="#3B2B0D"/>
<path d="M79.8833 126.202C80.1462 125.833 80.5366 125.756 80.9036 125.64C81.022 125.602 81.1743 125.563 81.2471 125.706C81.3005 125.812 81.3148 125.944 81.3161 126.066C81.3174 126.147 81.2836 126.243 81.2328 126.309C80.9843 126.637 80.8919 127.255 80.4038 127.167C80.0577 127.107 79.9731 126.57 79.8833 126.202Z" fill="white"/>
<path d="M116.435 111.318C116.395 111.321 116.341 111.34 116.315 111.321C116.022 111.106 115.881 110.779 115.816 110.45C115.757 110.159 116.037 110.011 116.255 109.881C116.4 109.793 116.564 109.734 116.724 109.676C116.924 109.603 117.191 109.81 117.151 110.006C117.053 110.476 116.848 110.897 116.548 111.27C116.525 111.298 116.473 111.302 116.435 111.318Z" fill="white"/>
<path d="M88.0276 122.941C87.9085 122.869 87.8353 122.771 87.8497 122.623C87.9098 122.731 87.9687 122.837 88.0276 122.941Z" fill="#34270D"/>
<path d="M83.4711 125.423C83.4958 125.266 83.5401 125.131 83.7014 125.176C83.9539 125.245 84.1309 125.417 84.1868 125.682C84.2129 125.809 83.9188 126.141 83.7925 126.125C83.596 126.101 83.5283 125.947 83.501 125.774C83.4815 125.651 83.4789 125.525 83.4711 125.423Z" fill="white"/>
<path d="M109.212 115.387L109.318 115.365L109.292 115.468L109.212 115.387Z" fill="black"/>
<path d="M90.214 80.9359C94.8612 80.9097 98.6691 84.692 98.7251 89.3448C98.7745 93.4884 95.5848 97.9279 90.2491 97.9201C84.9694 97.9109 81.7953 93.5343 81.807 89.4443C81.8187 84.7731 85.5654 80.9634 90.214 80.9359Z" fill="black"/>
</svg>
