<svg width="183" height="185" viewBox="0 0 183 185" fill="none" xmlns="http://www.w3.org/2000/svg">
<rect y="0.501953" width="183" height="183.979" rx="3" fill="#0C0C0C"/>
<g clip-path="url(#clip0)">
<path d="M73.7188 102.762L81.1762 87.9502H86.1609L89.3241 102.762H85.2847L84.6839 99.9697H79.4758L78.0523 102.762H73.7188ZM80.9717 96.6703H84.1145L83.4334 93.2098C83.3657 92.8656 83.3154 92.559 83.2808 92.2884C83.2462 92.0193 83.2257 91.7658 83.2194 91.5296C83.0763 91.9348 82.9457 92.2899 82.8278 92.5966C82.7098 92.9032 82.6154 93.1316 82.5478 93.2802L80.9717 96.6703Z" fill="#F9F8F4"/>
<path d="M89.9922 102.763L91.6092 92.5438H95.2616L93.6336 102.763H89.9922ZM91.8845 89.4979C91.8845 88.9722 92.0732 88.5201 92.4491 88.1415C92.8251 87.7645 93.2812 87.5752 93.8176 87.5752C94.3807 87.5752 94.8479 87.7567 95.2207 88.1212C95.5935 88.4857 95.7807 88.9441 95.7807 89.4979C95.7807 90.0439 95.5903 90.5069 95.2113 90.884C94.8306 91.2626 94.3666 91.4503 93.8176 91.4503C93.2812 91.4503 92.8251 91.2594 92.4491 90.8793C92.0732 90.4976 91.8845 90.0376 91.8845 89.4979Z" fill="#F9F8F4"/>
<path d="M95.5039 102.762L97.1319 92.5433H100.611L100.357 94.2829C100.676 93.6352 101.102 93.1424 101.638 92.8061C102.175 92.4682 102.798 92.3008 103.51 92.3008C103.584 92.3008 103.669 92.3055 103.765 92.3164C103.859 92.3258 104.009 92.3493 104.213 92.3821L103.491 95.5892C103.254 95.536 103.04 95.4953 102.851 95.4672C102.661 95.4406 102.478 95.4265 102.302 95.4265C101.604 95.4265 101.052 95.644 100.649 96.0789C100.245 96.5138 99.9696 97.1865 99.8201 98.097L99.0871 102.761H95.5039V102.762Z" fill="#F9F8F4"/>
<path d="M105.317 102.763L106.529 95.1547H104.82L105.237 92.5437H106.945L107.403 89.5791H111.024L110.546 92.5437H112.388L111.971 95.1547H110.129L108.929 102.763H105.317Z" fill="#F9F8F4"/>
<path d="M111.891 102.762L113.519 92.5433H116.998L116.743 94.2829C117.063 93.6352 117.489 93.1424 118.025 92.8061C118.562 92.4682 119.184 92.3008 119.897 92.3008C119.971 92.3008 120.056 92.3055 120.152 92.3164C120.246 92.3258 120.396 92.3493 120.6 92.3821L119.878 95.5892C119.641 95.536 119.427 95.4953 119.238 95.4672C119.048 95.4406 118.865 95.4265 118.689 95.4265C117.991 95.4265 117.438 95.644 117.036 96.0789C116.632 96.5138 116.356 97.1865 116.207 98.097L115.474 102.761H111.891V102.762Z" fill="#F9F8F4"/>
<path d="M128.22 101.396C127.724 101.97 127.174 102.403 126.566 102.696C125.959 102.99 125.306 103.135 124.608 103.135C123.428 103.135 122.459 102.694 121.704 101.81C120.948 100.926 120.57 99.7796 120.57 98.3701C120.57 96.6023 121.082 95.1364 122.107 93.9693C123.131 92.8023 124.41 92.2188 125.942 92.2188C126.655 92.2188 127.292 92.3658 127.855 92.6584C128.418 92.9525 128.926 93.4062 129.38 94.0194L129.615 92.5426H133.053L131.425 102.761H128.048L128.22 101.396ZM124.221 98.0165C124.221 98.6705 124.421 99.1977 124.822 99.595C125.222 99.9924 125.752 100.193 126.409 100.193C127.128 100.193 127.727 99.9142 128.204 99.3572C128.682 98.8003 128.921 98.1041 128.921 97.2672C128.921 96.6336 128.721 96.1189 128.32 95.7246C127.921 95.3304 127.399 95.1333 126.754 95.1333C126.021 95.1333 125.417 95.4071 124.938 95.953C124.46 96.499 124.221 97.1874 124.221 98.0165Z" fill="#F9F8F4"/>
<path d="M141.935 96.2767C141.563 95.8794 141.184 95.5821 140.801 95.3866C140.418 95.191 140.016 95.0925 139.596 95.0925C138.884 95.0925 138.288 95.3678 137.806 95.9169C137.325 96.466 137.084 97.1466 137.084 97.9554C137.084 98.6297 137.272 99.1647 137.644 99.5589C138.017 99.9532 138.522 100.15 139.161 100.15C139.568 100.15 139.96 100.08 140.336 99.9375C140.712 99.7952 141.086 99.584 141.46 99.3008L140.911 102.66C140.43 102.829 139.963 102.954 139.513 103.034C139.062 103.115 138.62 103.156 138.186 103.156C136.734 103.156 135.559 102.688 134.661 101.754C133.762 100.82 133.312 99.6012 133.312 98.0962C133.312 96.3362 133.868 94.9079 134.981 93.8112C136.093 92.7145 137.552 92.167 139.356 92.167C139.932 92.167 140.482 92.2499 141.004 92.4142C141.526 92.58 142.005 92.8241 142.439 93.1479L141.935 96.2767Z" fill="#F9F8F4"/>
<path d="M150.787 97.522L154.146 102.763H149.811L147.443 98.3714L147.211 97.9193L146.918 97.353L147.349 96.8743L148.088 96.0514L151.247 92.5439H155.813L150.787 97.522Z" fill="#F9F8F4"/>
<path d="M148.568 87.0791L146.981 96.8724L146.839 97.9362L146.065 102.763H142.465L144.936 87.0791H148.568Z" fill="#F9F8F4"/>
<path d="M52.0395 86.7119L43.9561 102.765H27.1836L52.0395 86.7119Z" fill="#572DFF"/>
<path d="M57.0859 90.6537L61.6507 81.1592L64.2838 90.6381L57.0859 90.6537Z" fill="#572DFF"/>
<path d="M65.7709 96.251L67.5956 102.762L51.2305 102.759L54.3638 96.276L65.7709 96.251Z" fill="#572DFF"/>
</g>
<defs>
<clipPath id="clip0">
<rect width="128.63" height="21.9974" fill="white" transform="translate(27.1836 81.1592)"/>
</clipPath>
</defs>
</svg>
