<svg width="184" height="185" viewBox="0 0 184 185" fill="none" xmlns="http://www.w3.org/2000/svg">
<rect y="0.489258" width="184" height="184" rx="3" fill="#090909"/>
<g clip-path="url(#clip0)">
<path d="M51.1966 102.997V108.16H38.9956L41.478 105.579L38.9956 102.997H51.1966Z" fill="#F9F8F4"/>
<path d="M135.132 107.967V102.804H147.333L144.855 105.386L147.333 107.967H135.132Z" fill="#F9F8F4"/>
<path d="M40.2409 104.748L37.9092 102.319H49.9532V107.39H37.9092L40.2409 104.961L40.343 104.854L40.2409 104.748Z" fill="#F9F8F4" stroke="black" stroke-width="0.307246"/>
<mask id="path-5-inside-1" fill="white">
<path d="M49.9998 102.273V107.435H37.7989L40.2769 104.854L37.7989 102.273H49.9998ZM50.2149 102.058H49.9998H37.7989H37.2955L37.644 102.423L39.9801 104.854L37.644 107.285L37.2955 107.65H37.7989H49.9998H50.2149V107.435V102.273V102.058Z"/>
</mask>
<path d="M49.9998 102.273V107.435H37.7989L40.2769 104.854L37.7989 102.273H49.9998ZM50.2149 102.058H49.9998H37.7989H37.2955L37.644 102.423L39.9801 104.854L37.644 107.285L37.2955 107.65H37.7989H49.9998H50.2149V107.435V102.273V102.058Z" fill="black"/>
<path d="M49.9998 102.273H50.3071V101.965H49.9998V102.273ZM49.9998 107.435V107.742H50.3071V107.435H49.9998ZM37.7989 107.435L37.5772 107.222L37.078 107.742H37.7989V107.435ZM40.2769 104.854L40.4985 105.067L40.7028 104.854L40.4985 104.641L40.2769 104.854ZM37.7989 102.273V101.965H37.078L37.5772 102.485L37.7989 102.273ZM50.2149 102.058H50.5222V101.75H50.2149V102.058ZM37.2955 102.058V101.75H36.5783L37.0731 102.27L37.2955 102.058ZM37.644 102.423L37.4215 102.635L37.4225 102.636L37.644 102.423ZM39.9801 104.854L40.2016 105.067L40.4062 104.854L40.2016 104.641L39.9801 104.854ZM37.644 107.285L37.4224 107.072L37.4216 107.073L37.644 107.285ZM37.2955 107.65L37.0731 107.438L36.5783 107.958H37.2955V107.65ZM50.2149 107.65V107.958H50.5222V107.65H50.2149ZM49.6926 102.273V107.435H50.3071V102.273H49.6926ZM49.9998 107.128H37.7989V107.742H49.9998V107.128ZM38.0205 107.648L40.4985 105.067L40.0553 104.641L37.5772 107.222L38.0205 107.648ZM40.4985 104.641L38.0205 102.06L37.5772 102.485L40.0553 105.067L40.4985 104.641ZM37.7989 102.58H49.9998V101.965H37.7989V102.58ZM50.2149 101.75H49.9998V102.365H50.2149V101.75ZM49.9998 101.75H37.7989V102.365H49.9998V101.75ZM37.7989 101.75H37.2955V102.365H37.7989V101.75ZM37.0731 102.27L37.4216 102.635L37.8664 102.211L37.5179 101.846L37.0731 102.27ZM37.4225 102.636L39.7585 105.067L40.2016 104.641L37.8655 102.21L37.4225 102.636ZM39.7585 104.641L37.4225 107.072L37.8655 107.498L40.2016 105.067L39.7585 104.641ZM37.4216 107.073L37.0731 107.438L37.5179 107.862L37.8664 107.497L37.4216 107.073ZM37.2955 107.958H37.7989V107.343H37.2955V107.958ZM37.7989 107.958H49.9998V107.343H37.7989V107.958ZM49.9998 107.958H50.2149V107.343H49.9998V107.958ZM50.5222 107.65V107.435H49.9077V107.65H50.5222ZM50.5222 107.435V102.273H49.9077V107.435H50.5222ZM50.5222 102.273V102.058H49.9077V102.273H50.5222Z" fill="black" mask="url(#path-5-inside-1)"/>
<path d="M143.911 104.96L146.242 107.389H134.194V102.319H146.242L143.911 104.748L143.809 104.854L143.911 104.96Z" fill="#F9F8F4" stroke="black" stroke-width="0.307246"/>
<path d="M146.351 102.272L143.873 104.854L146.351 107.435H134.15V102.272H146.351ZM146.854 102.057H146.351H134.15H133.935V102.272V107.435V107.65H134.15H146.351H146.854L146.506 107.284L144.17 104.854L146.506 102.423L146.854 102.057Z" fill="black"/>
<path d="M59.4381 111.399L58.5777 107.587H57.5322V111.399H56.0308V99.3831H58.5906C60.2899 99.3831 60.6126 100.076 60.6126 101.655V105.402C60.6126 106.301 60.3373 106.89 59.8167 107.217L60.8105 111.395H59.4381V111.399ZM58.2464 106.408C58.9262 106.408 59.1327 106.198 59.1327 105.415V101.642C59.1327 100.859 58.9218 100.648 58.2464 100.648H57.5279V106.408H58.2464Z" fill="#F9F8F4"/>
<path d="M67.4008 101.527V109.258C67.4008 110.97 66.4328 111.516 65.0776 111.516C63.731 111.516 62.7673 110.97 62.7673 109.258V101.527C62.7673 99.8145 63.7353 99.2681 65.0776 99.2681C66.4371 99.2681 67.4008 99.8145 67.4008 101.527ZM65.0776 100.546C64.6345 100.546 64.2688 100.77 64.2688 101.54V109.245C64.2688 110.015 64.6345 110.239 65.0776 110.239C65.5336 110.239 65.8864 110.015 65.8864 109.245V101.54C65.8864 100.77 65.5336 100.546 65.0776 100.546Z" fill="#F9F8F4"/>
<path d="M72.6664 103.291V101.527C72.6664 100.77 72.3136 100.533 71.8576 100.533C71.4015 100.533 71.0488 100.77 71.0488 101.527V103.067C71.0488 105.102 74.142 104.753 74.142 107.649V109.266C74.142 110.966 73.1998 111.512 71.8576 111.512C70.5153 111.512 69.586 110.966 69.586 109.266V107.49H71.0358V109.253C71.0358 110.011 71.3886 110.247 71.8447 110.247C72.3136 110.247 72.6535 110.011 72.6535 109.253V107.713C72.6535 105.674 69.5731 106.027 69.5731 103.131V101.514C69.5731 99.8145 70.511 99.2681 71.8447 99.2681C73.1912 99.2681 74.1162 99.8145 74.1162 101.514V103.291H72.6664Z" fill="#F9F8F4"/>
<path d="M79.3148 103.291V101.527C79.3148 100.77 78.962 100.533 78.506 100.533C78.05 100.533 77.6972 100.77 77.6972 101.527V103.067C77.6972 105.102 80.7904 104.753 80.7904 107.649V109.266C80.7904 110.966 79.8483 111.512 78.506 111.512C77.1637 111.512 76.2344 110.966 76.2344 109.266V107.49H77.6843V109.253C77.6843 110.011 78.0371 110.247 78.4931 110.247C78.962 110.247 79.3019 110.011 79.3019 109.253V107.713C79.3019 105.674 76.2215 106.027 76.2215 103.131V101.514C76.2215 99.8145 77.1594 99.2681 78.4931 99.2681C79.8397 99.2681 80.7646 99.8145 80.7646 101.514V103.291H79.3148Z" fill="#F9F8F4"/>
<path d="M90.6987 109.284C90.6987 110.983 89.7608 111.529 88.4013 111.529C87.0548 111.529 86.0782 110.979 86.0782 109.284V107.274C86.0782 106.294 86.4568 105.773 87.0978 105.446V105.381C86.5213 105.067 86.1427 104.637 86.1427 103.643V101.436C86.1427 99.8188 87.0548 99.2681 88.4013 99.2681C89.7608 99.2681 90.6729 99.8145 90.6729 101.436V103.11H89.2102V101.505C89.2102 100.774 88.8574 100.55 88.4013 100.55C87.9582 100.55 87.5925 100.774 87.5925 101.505V103.79C87.5925 104.547 87.984 104.809 88.453 104.809H90.6987V109.284ZM89.2231 106.031H88.453C87.984 106.031 87.5796 106.294 87.5796 107.051V109.296C87.5796 110.028 87.9582 110.264 88.4013 110.264C88.8574 110.264 89.2231 110.028 89.2231 109.296V106.031Z" fill="#F9F8F4"/>
<path d="M100.61 109.271C100.61 110.983 99.6423 111.529 98.2871 111.529C96.9405 111.529 95.9768 110.979 95.9768 109.271V101.527C95.9768 99.8145 96.9448 99.2681 98.2871 99.2681C99.6466 99.2681 100.61 99.8145 100.61 101.527V103.381H99.0959V101.54C99.0959 100.77 98.7431 100.546 98.2871 100.546C97.844 100.546 97.4783 100.77 97.4783 101.54V109.271C97.4783 110.028 97.844 110.264 98.2871 110.264C98.7431 110.264 99.0959 110.028 99.0959 109.271V107.378H100.61V109.271Z" fill="#F9F8F4"/>
<path d="M102.831 99.3842H104.332V111.396H102.831V99.3842Z" fill="#F9F8F4"/>
<path d="M109.959 111.4L109.099 107.588H108.054V111.4H106.552V99.3842H109.112C110.811 99.3842 111.134 100.077 111.134 101.656V105.403C111.134 106.302 110.859 106.892 110.338 107.218L111.332 111.396H109.959V111.4ZM108.772 106.41C109.452 106.41 109.658 106.199 109.658 105.416V101.643C109.658 100.86 109.447 100.649 108.772 100.649H108.054V106.41H108.772Z" fill="#F9F8F4"/>
<path d="M117.926 109.271C117.926 110.983 116.958 111.529 115.603 111.529C114.256 111.529 113.292 110.979 113.292 109.271V101.527C113.292 99.8145 114.26 99.2681 115.603 99.2681C116.962 99.2681 117.926 99.8145 117.926 101.527V103.381H116.411V101.54C116.411 100.77 116.059 100.546 115.603 100.546C115.159 100.546 114.794 100.77 114.794 101.54V109.271C114.794 110.028 115.159 110.264 115.603 110.264C116.059 110.264 116.411 110.028 116.411 109.271V107.378H117.926V109.271Z" fill="#F9F8F4"/>
<path d="M123.75 110.131V111.396H120.145V99.3842H121.646V110.131H123.75Z" fill="#F9F8F4"/>
<path d="M127.422 100.653V104.753H129.302V106.005H127.422V110.131H129.328V111.396H125.921V99.3842H129.328V100.649H127.422V100.653Z" fill="#F9F8F4"/>
<path d="M58.726 110.956L57.8656 107.145H57.0137V110.956H55.2972V98.7297H57.9645C59.7671 98.7297 60.0941 99.5299 60.0941 101.109V104.856C60.0941 105.747 59.8403 106.357 59.3111 106.719L60.3178 110.956H58.726ZM57.6246 105.755C58.2097 105.755 58.4033 105.626 58.4033 104.869V101.096C58.4033 100.339 58.2097 100.21 57.6246 100.21H57.0137V105.755H57.6246Z" fill="#F9F8F4"/>
<path d="M57.9634 98.8371C59.6628 98.8371 59.9854 99.5298 59.9854 101.109V104.856C59.9854 105.755 59.7101 106.344 59.1895 106.671L60.1833 110.849H58.811L57.9505 107.037H56.9051V110.849H55.4036V98.8371H57.9634ZM56.9051 105.863H57.6236C58.3033 105.863 58.5098 105.652 58.5098 104.869V101.096C58.5098 100.313 58.299 100.102 57.6236 100.102H56.9051V105.863ZM57.9634 98.622H55.4036H55.1885V98.8371V110.849V111.064H55.4036H56.9051H57.1202V110.849V107.252H57.7784L58.6001 110.896L58.6389 111.064H58.811H60.1833H60.4544L60.3898 110.797L59.4305 106.762C59.9424 106.375 60.2006 105.733 60.2006 104.852V101.104C60.2006 99.4953 59.8435 98.622 57.9634 98.622ZM57.1202 100.321H57.6236C58.1613 100.321 58.2947 100.412 58.2947 101.1V104.873C58.2947 105.557 58.1613 105.652 57.6236 105.652H57.1202V100.321Z" fill="black"/>
<path d="M64.4494 111.077C62.8447 111.077 62.0316 110.281 62.0316 108.711V100.98C62.0316 99.4099 62.8447 98.614 64.4494 98.614C66.0627 98.614 66.8801 99.4099 66.8801 100.98V108.711C66.8801 110.281 66.0627 111.077 64.4494 111.077ZM64.4494 100.107C64.1482 100.107 63.7481 100.197 63.7481 100.993V108.698C63.7481 109.49 64.1482 109.585 64.4494 109.585C64.7763 109.585 65.1506 109.486 65.1506 108.698V100.993C65.1506 100.21 64.7763 100.107 64.4494 100.107Z" fill="#F9F8F4"/>
<path d="M64.4505 98.7222C65.81 98.7222 66.7736 99.2685 66.7736 100.981V108.712C66.7736 110.424 65.8057 110.97 64.4505 110.97C63.1039 110.97 62.1402 110.424 62.1402 108.712V100.981C62.1402 99.2685 63.1039 98.7222 64.4505 98.7222ZM64.4505 109.688C64.9065 109.688 65.2593 109.465 65.2593 108.695V100.989C65.2593 100.219 64.9065 99.9956 64.4505 99.9956C64.0073 99.9956 63.6417 100.219 63.6417 100.989V108.695C63.6417 109.469 64.0073 109.688 64.4505 109.688ZM64.4505 98.5071C62.7726 98.5071 61.9251 99.3374 61.9251 100.981V108.712C61.9251 110.355 62.7769 111.186 64.4505 111.186C66.1369 111.186 66.9887 110.355 66.9887 108.712V100.981C66.9887 99.3374 66.1369 98.5071 64.4505 98.5071ZM64.4505 109.473C64.1579 109.473 63.8568 109.383 63.8568 108.695V100.989C63.8568 100.305 64.1579 100.211 64.4505 100.211C64.7602 100.211 65.0442 100.305 65.0442 100.989V108.695C65.0442 109.379 64.7602 109.473 64.4505 109.473Z" fill="black"/>
<path d="M71.2306 111.077C69.6302 111.077 68.8515 110.307 68.8515 108.724V106.839H70.5165V108.711C70.5165 109.502 70.9166 109.597 71.2177 109.597C71.5447 109.597 71.919 109.498 71.919 108.711V107.171C71.919 106.297 71.321 105.897 70.6283 105.428C69.7894 104.86 68.8386 104.219 68.8386 102.584V100.967C68.8386 99.4051 69.6388 98.6135 71.2177 98.6135C72.8181 98.6135 73.5968 99.3836 73.5968 100.967V102.851H71.9319V100.98C71.9319 100.188 71.5318 100.093 71.2306 100.093C70.9295 100.093 70.5294 100.184 70.5294 100.98V102.52C70.5294 103.393 71.1317 103.793 71.8243 104.262C72.6675 104.83 73.6226 105.471 73.6226 107.102V108.719C73.6226 110.307 72.8396 111.077 71.2306 111.077Z" fill="#F9F8F4"/>
<path d="M71.2141 98.7222C72.5607 98.7222 73.4856 99.2685 73.4856 100.968V102.745H72.0358V100.981C72.0358 100.224 71.683 99.987 71.227 99.987C70.771 99.987 70.4182 100.224 70.4182 100.981V102.521C70.4182 104.556 73.5114 104.207 73.5114 107.103V108.72C73.5114 110.42 72.5693 110.966 71.227 110.966C69.8804 110.966 68.9554 110.42 68.9554 108.72V106.944H70.4053V108.708C70.4053 109.465 70.758 109.701 71.2141 109.701C71.683 109.701 72.0229 109.465 72.0229 108.708V107.167C72.0229 105.128 68.9425 105.481 68.9425 102.586V100.968C68.9425 99.2685 69.8847 98.7222 71.2141 98.7222ZM71.2141 98.5071C69.562 98.5071 68.7274 99.3331 68.7274 100.968V102.586C68.7274 104.276 69.704 104.935 70.5644 105.515C71.2571 105.984 71.8078 106.354 71.8078 107.167V108.708C71.8078 109.392 71.5238 109.486 71.2141 109.486C70.9215 109.486 70.6204 109.396 70.6204 108.708V106.944V106.729H70.4053H68.9554H68.7403V106.944V108.72C68.7403 110.355 69.5792 111.181 71.227 111.181C72.8876 111.181 73.7265 110.355 73.7265 108.72V107.103C73.7265 105.412 72.7456 104.754 71.8809 104.173C71.184 103.704 70.6333 103.334 70.6333 102.521V100.981C70.6333 100.297 70.9344 100.202 71.227 100.202C71.5195 100.202 71.8207 100.292 71.8207 100.981V102.745V102.96H72.0358H73.4856H73.7007V102.745V100.968C73.705 99.3331 72.8661 98.5071 71.2141 98.5071Z" fill="black"/>
<path d="M77.877 111.077C76.2766 111.077 75.4979 110.307 75.4979 108.724V106.839H77.1629V108.711C77.1629 109.502 77.563 109.597 77.8641 109.597C78.1911 109.597 78.5654 109.498 78.5654 108.711V107.171C78.5654 106.297 77.9674 105.897 77.2747 105.428C76.4358 104.86 75.485 104.219 75.485 102.584V100.967C75.485 99.4051 76.2852 98.6135 77.8641 98.6135C79.4645 98.6135 80.2432 99.3836 80.2432 100.967V102.851H78.5783V100.98C78.5783 100.188 78.1782 100.093 77.877 100.093C77.5759 100.093 77.1758 100.184 77.1758 100.98V102.52C77.1758 103.393 77.7781 103.793 78.4707 104.262C79.314 104.83 80.269 105.471 80.269 107.102V108.719C80.269 110.307 79.4861 111.077 77.877 111.077Z" fill="#F9F8F4"/>
<path d="M77.8608 98.7222C79.2073 98.7222 80.1323 99.2685 80.1323 100.968V102.745H78.6825V100.981C78.6825 100.224 78.3297 99.987 77.8737 99.987C77.4176 99.987 77.0649 100.224 77.0649 100.981V102.521C77.0649 104.556 80.1581 104.207 80.1581 107.103V108.72C80.1581 110.42 79.2159 110.966 77.8737 110.966C76.5271 110.966 75.6021 110.42 75.6021 108.72V106.944H77.0519V108.708C77.0519 109.465 77.4047 109.701 77.8608 109.701C78.3297 109.701 78.6696 109.465 78.6696 108.708V107.167C78.6696 105.128 75.5892 105.481 75.5892 102.586V100.968C75.5892 99.2685 76.5314 98.7222 77.8608 98.7222ZM77.8608 98.5071C76.2087 98.5071 75.3741 99.3331 75.3741 100.968V102.586C75.3741 104.276 76.3507 104.935 77.2111 105.515C77.9038 105.984 78.4545 106.354 78.4545 107.167V108.708C78.4545 109.392 78.1705 109.486 77.8608 109.486C77.5682 109.486 77.2671 109.396 77.2671 108.708V106.944V106.729H77.0519H75.6021H75.387V106.944V108.72C75.387 110.355 76.2259 111.181 77.8737 111.181C79.5343 111.181 80.3732 110.355 80.3732 108.72V107.103C80.3732 105.412 79.3923 104.754 78.5276 104.173C77.8306 103.704 77.28 103.334 77.28 102.521V100.981C77.28 100.297 77.5811 100.202 77.8737 100.202C78.1662 100.202 78.4674 100.292 78.4674 100.981V102.745V102.96H78.6825H80.1323H80.3474V102.745V100.968C80.3517 99.3331 79.5128 98.5071 77.8608 98.5071Z" fill="black"/>
<path d="M87.7712 111.089C86.1579 111.089 85.3405 110.298 85.3405 108.736V106.727C85.3405 105.841 85.646 105.243 86.3042 104.864C85.8223 104.576 85.405 104.141 85.405 103.096V100.889C85.405 99.3789 86.2009 98.6131 87.7712 98.6131C89.3716 98.6131 90.1503 99.3573 90.1503 100.889V102.67H88.4725V100.958C88.4725 100.201 88.0724 100.11 87.7712 100.11C87.298 100.11 87.07 100.386 87.07 100.958V103.242C87.07 103.845 87.3238 104.154 87.8228 104.154H90.1761V108.74C90.1804 110.319 89.3931 111.089 87.7712 111.089ZM87.8271 105.591C87.4787 105.591 87.0614 105.75 87.0614 106.503V108.749C87.0614 109.317 87.3023 109.609 87.7755 109.609C88.2574 109.609 88.4897 109.33 88.4897 108.749V105.591H87.8271Z" fill="#F9F8F4"/>
<path d="M87.7742 98.7222C89.1337 98.7222 90.0457 99.2685 90.0457 100.89V102.564H88.583V100.959C88.583 100.228 88.2302 100.004 87.7742 100.004C87.3311 100.004 86.9654 100.228 86.9654 100.959V103.244C86.9654 104.001 87.3569 104.263 87.8258 104.263H90.0716V108.742C90.0716 110.441 89.1294 110.988 87.7742 110.988C86.4276 110.988 85.451 110.437 85.451 108.742V106.733C85.451 105.752 85.8296 105.231 86.4706 104.904V104.84C85.8941 104.526 85.5156 104.096 85.5156 103.102V100.895C85.5156 99.2685 86.4319 98.7222 87.7742 98.7222ZM87.7742 109.714C88.2302 109.714 88.5959 109.478 88.5959 108.746V105.481H87.8258C87.3569 105.481 86.9525 105.743 86.9525 106.5V108.746C86.9525 109.482 87.3311 109.714 87.7742 109.714ZM87.7742 98.5071C86.1308 98.5071 85.3004 99.3073 85.3004 100.89V103.097C85.3004 104.087 85.6747 104.565 86.105 104.866C85.5113 105.266 85.2359 105.868 85.2359 106.729V108.738C85.2359 110.372 86.092 111.198 87.7742 111.198C89.4434 111.198 90.2867 110.372 90.2867 108.738V104.259V104.044H90.0716H87.8258C87.3913 104.044 87.1805 103.782 87.1805 103.239V100.955C87.1805 100.301 87.4989 100.215 87.7742 100.215C88.0667 100.215 88.3679 100.301 88.3679 100.955V102.56V102.775H88.583H90.0457H90.2609V102.56V100.886C90.2609 99.3073 89.4262 98.5071 87.7742 98.5071ZM87.7742 109.499C87.5118 109.499 87.1676 109.422 87.1676 108.746V106.5C87.1676 105.958 87.3827 105.696 87.8258 105.696H88.3808V108.746C88.3851 109.417 88.0581 109.499 87.7742 109.499Z" fill="black"/>
<path d="M97.6584 111.09C96.0537 111.09 95.2406 110.294 95.2406 108.724V100.98C95.2406 99.4094 96.0537 98.6135 97.6584 98.6135C99.2717 98.6135 100.089 99.4094 100.089 100.98V102.942H98.3596V100.993C98.3596 100.21 97.9853 100.106 97.6584 100.106C97.3572 100.106 96.9571 100.197 96.9571 100.993V108.724C96.9571 109.317 97.1851 109.61 97.6584 109.61C97.9595 109.61 98.3596 109.52 98.3596 108.724V106.723H100.089V108.724C100.089 110.294 99.2717 111.09 97.6584 111.09Z" fill="#F9F8F4"/>
<path d="M97.6599 98.7222C99.0194 98.7222 99.9831 99.2685 99.9831 100.981V102.835H98.4687V100.994C98.4687 100.224 98.116 99.9999 97.6599 99.9999C97.2168 99.9999 96.8511 100.224 96.8511 100.994V108.725C96.8511 109.482 97.2168 109.719 97.6599 109.719C98.116 109.719 98.4687 109.482 98.4687 108.725V106.832H99.9831V108.725C99.9831 110.437 99.0151 110.983 97.6599 110.983C96.3134 110.983 95.3497 110.433 95.3497 108.725V100.981C95.3497 99.2685 96.3134 98.7222 97.6599 98.7222ZM97.6599 98.5071C95.9821 98.5071 95.1346 99.3374 95.1346 100.981V108.725C95.1346 110.368 95.9864 111.198 97.6599 111.198C99.3464 111.198 100.198 110.364 100.198 108.725V106.832V106.617H99.9831H98.4687H98.2536V106.832V108.725C98.2536 109.409 97.9525 109.503 97.6599 109.503C97.3846 109.503 97.0662 109.413 97.0662 108.725V100.994C97.0662 100.31 97.3674 100.215 97.6599 100.215C97.9697 100.215 98.2536 100.31 98.2536 100.994V102.835V103.05H98.4687H99.9831H100.198V102.835V100.981C100.198 99.3374 99.3464 98.5071 97.6599 98.5071Z" fill="black"/>
<path d="M103.811 98.7292H102.095V110.956H103.811V98.7292Z" fill="#F9F8F4"/>
<path d="M103.705 98.8383V110.85H102.204V98.8383H103.705ZM103.92 98.6232H103.705H102.204H101.988V98.8383V110.85V111.065H102.204H103.705H103.92V110.85V98.8383V98.6232Z" fill="black"/>
<path d="M109.248 110.956L108.387 107.144H107.535V110.956H105.819V98.7294H108.486C110.289 98.7294 110.616 99.5296 110.616 101.108V104.856C110.616 105.746 110.362 106.357 109.833 106.719L110.839 110.956H109.248ZM108.142 105.755C108.727 105.755 108.921 105.626 108.921 104.869V101.096C108.921 100.338 108.727 100.209 108.142 100.209H107.531V105.755H108.142Z" fill="#F9F8F4"/>
<path d="M108.485 98.8383C110.184 98.8383 110.507 99.5309 110.507 101.11V104.857C110.507 105.756 110.231 106.346 109.711 106.673L110.705 110.85H109.332L108.472 107.038H107.426V110.85H105.925V98.8383H108.485ZM107.426 105.864H108.145C108.825 105.864 109.031 105.653 109.031 104.87V101.097C109.031 100.314 108.82 100.103 108.145 100.103H107.426V105.864ZM108.485 98.6232H105.925H105.71V98.8383V110.85V111.065H105.925H107.426H107.642V110.85V107.253H108.3L109.121 110.897L109.16 111.065H109.332H110.705H110.976L110.911 110.798L109.952 106.763C110.464 106.376 110.722 105.735 110.722 104.853V101.106C110.726 99.4965 110.369 98.6232 108.485 98.6232ZM107.642 100.323H108.145C108.683 100.323 108.816 100.413 108.816 101.101V104.874C108.816 105.558 108.683 105.653 108.145 105.653H107.642V100.323Z" fill="black"/>
<path d="M114.975 111.09C113.37 111.09 112.557 110.294 112.557 108.724V100.98C112.557 99.4094 113.37 98.6135 114.975 98.6135C116.588 98.6135 117.406 99.4094 117.406 100.98V102.942H115.676V100.993C115.676 100.21 115.302 100.106 114.975 100.106C114.674 100.106 114.274 100.197 114.274 100.993V108.724C114.274 109.317 114.502 109.61 114.975 109.61C115.276 109.61 115.676 109.52 115.676 108.724V106.723H117.406V108.724C117.406 110.294 116.588 111.09 114.975 111.09Z" fill="#F9F8F4"/>
<path d="M114.975 98.7222C116.335 98.7222 117.299 99.2685 117.299 100.981V102.835H115.784V100.994C115.784 100.224 115.431 99.9999 114.975 99.9999C114.532 99.9999 114.167 100.224 114.167 100.994V108.725C114.167 109.482 114.532 109.719 114.975 109.719C115.431 109.719 115.784 109.482 115.784 108.725V106.832H117.299V108.725C117.299 110.437 116.331 110.983 114.975 110.983C113.629 110.983 112.665 110.433 112.665 108.725V100.981C112.665 99.2685 113.629 98.7222 114.975 98.7222ZM114.975 98.5071C113.298 98.5071 112.45 99.3374 112.45 100.981V108.725C112.45 110.368 113.302 111.198 114.975 111.198C116.662 111.198 117.514 110.364 117.514 108.725V106.832V106.617H117.299H115.784H115.569V106.832V108.725C115.569 109.409 115.268 109.503 114.975 109.503C114.7 109.503 114.382 109.413 114.382 108.725V100.994C114.382 100.31 114.683 100.215 114.975 100.215C115.285 100.215 115.569 100.31 115.569 100.994V102.835V103.05H115.784H117.299H117.514V102.835V100.981C117.514 99.3374 116.662 98.5071 114.975 98.5071Z" fill="black"/>
<path d="M119.412 110.956V98.7294H121.128V109.476H123.232V110.956H119.412Z" fill="#F9F8F4"/>
<path d="M121.021 98.8383V109.585H123.125V110.85H119.519V98.8383H121.021ZM121.236 98.6232H121.021H119.519H119.304V98.8383V110.85V111.065H119.519H123.125H123.34V110.85V109.585V109.37H123.125H121.236V98.8383V98.6232Z" fill="black"/>
<path d="M125.185 110.956V98.7294H128.807V100.214H126.901V104.099H128.781V105.566H126.901V109.476H128.807V110.956H125.185Z" fill="#F9F8F4"/>
<path d="M128.701 98.8383V100.103H126.795V104.203H128.675V105.455H126.795V109.581H128.701V110.846H125.293V98.8383H128.701ZM128.916 98.6232H128.701H125.293H125.078V98.8383V110.85V111.065H125.293H128.701H128.916V110.85V109.585V109.37H128.701H127.01V105.674H128.675H128.89V105.459V104.207V103.992H128.675H127.01V100.323H128.701H128.916V100.107V98.8426V98.6232Z" fill="black"/>
<path d="M41.3007 103.744H41.6535V105.882H41.3007V103.744ZM41.447 103.744H42.7032V104.08H41.447V103.744ZM41.447 104.652H42.544V104.988H41.447V104.652ZM41.447 105.543H42.7032V105.878H41.447V105.543Z" fill="black"/>
<path d="M43.6886 105.873C43.594 105.851 43.5036 105.821 43.4219 105.783C43.3402 105.744 43.2627 105.697 43.1939 105.636L43.3789 105.357C43.4606 105.425 43.5553 105.477 43.6542 105.516C43.7532 105.555 43.865 105.572 43.9812 105.572C44.1232 105.572 44.235 105.546 44.3125 105.494C44.3899 105.443 44.4329 105.37 44.4329 105.279C44.4329 105.215 44.4157 105.163 44.3813 105.124C44.3469 105.086 44.2996 105.055 44.2436 105.038C44.1877 105.021 44.1146 105.004 44.0242 104.987C44.0199 104.987 44.0199 104.987 44.0156 104.987C44.0113 104.987 44.0113 104.987 44.007 104.987L43.9812 104.982C43.8392 104.961 43.7188 104.931 43.6284 104.901C43.5381 104.866 43.4563 104.81 43.3918 104.729C43.3273 104.647 43.2971 104.526 43.2971 104.376C43.2971 104.242 43.3273 104.126 43.3875 104.027C43.4477 103.933 43.5381 103.859 43.6542 103.808C43.7704 103.756 43.9081 103.735 44.0715 103.735C44.149 103.735 44.2264 103.743 44.3039 103.761C44.3813 103.778 44.4544 103.804 44.5319 103.834C44.605 103.868 44.6781 103.907 44.747 103.958L44.5749 104.247C44.4932 104.186 44.4071 104.143 44.3254 104.113C44.2393 104.083 44.1576 104.066 44.0758 104.066C43.9425 104.066 43.8349 104.092 43.7618 104.139C43.6886 104.186 43.6499 104.26 43.6499 104.35C43.6499 104.419 43.6671 104.47 43.7059 104.509C43.7446 104.548 43.7919 104.578 43.8478 104.595C43.9038 104.612 43.9855 104.634 44.0887 104.655C44.093 104.655 44.0973 104.655 44.1017 104.66C44.106 104.66 44.1103 104.66 44.1146 104.66C44.1189 104.66 44.1232 104.66 44.1318 104.664C44.1404 104.668 44.1447 104.664 44.149 104.668C44.2823 104.694 44.3942 104.729 44.4802 104.763C44.5663 104.797 44.6437 104.862 44.704 104.944C44.7642 105.025 44.7943 105.137 44.7943 105.279V105.283C44.7943 105.417 44.7642 105.533 44.6997 105.628C44.6351 105.722 44.5448 105.795 44.4243 105.843C44.3039 105.894 44.1619 105.916 43.9941 105.916C43.8822 105.903 43.7833 105.89 43.6886 105.873Z" fill="black"/>
<path d="M45.1168 103.742H46.657V104.078H45.1168V103.742ZM45.7105 103.915H46.059V105.876H45.7105V103.915Z" fill="black"/>
<path d="M47.1418 103.742H47.4946V105.881H47.1418V103.742ZM47.344 105.541H47.8431C47.9894 105.541 48.1012 105.506 48.183 105.433C48.2647 105.36 48.3034 105.257 48.3034 105.123V104.495C48.3034 104.362 48.2647 104.259 48.183 104.186C48.1012 104.112 47.9894 104.078 47.8431 104.078H47.344V103.742H47.8345C48.0109 103.742 48.1571 103.773 48.2819 103.833C48.4067 103.893 48.5013 103.979 48.5659 104.095C48.6304 104.211 48.6648 104.349 48.6648 104.508V105.115C48.6648 105.274 48.6347 105.407 48.5702 105.524C48.5056 105.64 48.411 105.726 48.2905 105.79C48.1657 105.851 48.0152 105.881 47.8388 105.881H47.3526V105.541H47.344Z" fill="black"/>
<path d="M136.791 105.881H136.439V104.143L136.155 104.285V103.915L136.464 103.743H136.787V105.881H136.791Z" fill="black"/>
<path d="M138.208 104.818L138.242 104.869C138.216 104.912 138.182 104.947 138.13 104.968C138.079 104.99 138.023 104.998 137.954 104.998C137.851 104.998 137.756 104.973 137.678 104.921C137.597 104.869 137.536 104.796 137.493 104.702C137.45 104.607 137.429 104.499 137.429 104.375C137.429 104.237 137.455 104.116 137.502 104.022C137.549 103.923 137.618 103.85 137.713 103.798C137.808 103.746 137.915 103.721 138.044 103.721C138.173 103.721 138.281 103.746 138.375 103.798C138.47 103.85 138.535 103.927 138.586 104.026C138.638 104.125 138.659 104.246 138.659 104.383C138.659 104.456 138.651 104.538 138.629 104.624C138.608 104.71 138.582 104.796 138.543 104.887C138.539 104.899 138.535 104.912 138.526 104.925C138.522 104.938 138.513 104.951 138.509 104.964L138.091 105.88H137.717L138.208 104.818ZM138.233 104.594C138.276 104.538 138.302 104.461 138.302 104.362C138.302 104.263 138.281 104.19 138.233 104.138C138.19 104.086 138.126 104.061 138.044 104.061C137.962 104.061 137.898 104.086 137.851 104.138C137.808 104.19 137.782 104.267 137.782 104.362C137.782 104.461 137.803 104.538 137.851 104.594C137.898 104.65 137.958 104.676 138.044 104.676C138.126 104.676 138.186 104.65 138.233 104.594Z" fill="black"/>
<path d="M139.536 105.829C139.437 105.781 139.36 105.708 139.304 105.622C139.248 105.532 139.222 105.429 139.222 105.308V105.274C139.222 105.166 139.252 105.067 139.308 104.973C139.364 104.878 139.437 104.809 139.532 104.757C139.455 104.714 139.39 104.659 139.338 104.581C139.291 104.504 139.265 104.422 139.265 104.336V104.284C139.265 104.172 139.291 104.073 139.343 103.987C139.394 103.901 139.468 103.837 139.558 103.789C139.653 103.742 139.76 103.721 139.885 103.721C140.01 103.721 140.117 103.742 140.212 103.789C140.306 103.837 140.375 103.901 140.427 103.987C140.479 104.073 140.504 104.172 140.504 104.284V104.336C140.504 104.426 140.479 104.508 140.431 104.585C140.38 104.663 140.315 104.723 140.238 104.762C140.332 104.809 140.405 104.882 140.466 104.977C140.522 105.072 140.552 105.17 140.552 105.278V105.312C140.552 105.433 140.526 105.536 140.47 105.627C140.414 105.717 140.337 105.786 140.238 105.833C140.139 105.88 140.023 105.906 139.889 105.906C139.756 105.906 139.64 105.876 139.536 105.829ZM140.048 105.528C140.096 105.502 140.134 105.467 140.16 105.424C140.186 105.377 140.199 105.33 140.199 105.269V105.248C140.199 105.192 140.186 105.14 140.16 105.097C140.134 105.054 140.096 105.02 140.053 104.998C140.01 104.977 139.949 104.964 139.889 104.964C139.829 104.964 139.773 104.977 139.726 104.998C139.678 105.02 139.644 105.054 139.618 105.102C139.592 105.149 139.579 105.196 139.579 105.252V105.274C139.579 105.33 139.592 105.381 139.618 105.429C139.644 105.476 139.683 105.506 139.73 105.532C139.777 105.558 139.833 105.566 139.893 105.566C139.954 105.566 140.001 105.549 140.048 105.528ZM140.027 104.585C140.066 104.564 140.1 104.529 140.121 104.486C140.143 104.443 140.156 104.396 140.156 104.34V104.319C140.156 104.267 140.143 104.22 140.121 104.181C140.1 104.142 140.07 104.108 140.027 104.086C139.984 104.065 139.941 104.052 139.885 104.052C139.829 104.052 139.786 104.061 139.743 104.086C139.7 104.112 139.67 104.138 139.648 104.181C139.627 104.22 139.614 104.267 139.614 104.319V104.34C139.614 104.396 139.627 104.443 139.648 104.486C139.67 104.529 139.7 104.56 139.743 104.585C139.782 104.607 139.829 104.62 139.885 104.62C139.941 104.62 139.984 104.611 140.027 104.585Z" fill="black"/>
<path d="M142.3 104.009L141.784 105.881H141.405L141.913 104.078H141.457V104.392H141.104V103.743H142.296V104.009H142.3Z" fill="black"/>
<path d="M93.7667 87.6914L93.1816 85.1015H95.664L96.2792 87.6914H93.7667ZM87.8383 87.6914V85.1015H90.5745V87.6914H87.8383Z" fill="#F9F8F4"/>
<path d="M95.6117 85.1605L96.1968 87.6214H93.8177L93.2627 85.1605H95.6117ZM90.5093 85.1605V87.6214H87.9022V85.1605H90.5093ZM95.7149 85.0315H95.6117H93.2627H93.0992L93.1336 85.1906L93.6886 87.6515L93.7101 87.7504H93.8134H96.1925H96.3559L96.3172 87.5913L95.7321 85.1304L95.7149 85.0315ZM90.6384 85.0315H90.5093H87.9022H87.7731V85.1605V87.6214V87.7504H87.9022H90.5093H90.6384V87.6214V85.1605V85.0315Z" fill="black"/>
<path d="M92.3815 81.5516L92.274 81.074H90.5746V81.5516H87.8384V79.6887H89.0215V76.1093H87.8384V66.7134H92.3428C95.3844 66.7134 95.9222 68.004 95.9222 70.7187V77.2236C95.9222 78.0238 95.7931 78.7035 95.5436 79.2456C95.3156 79.7361 94.98 80.1276 94.5455 80.4072L94.8208 81.5559H92.3815V81.5516ZM91.7577 78.9057C92.9193 78.9057 93.2333 78.5487 93.2333 77.2494V70.6972C93.2333 69.3979 92.915 69.0409 91.7577 69.0409H90.5746V78.9057H91.7577Z" fill="#F9F8F4"/>
<path d="M92.3421 66.7777C95.289 66.7777 95.8569 67.978 95.8569 70.7185V77.2234C95.8569 78.0279 95.7279 78.6904 95.4869 79.2196C95.2546 79.7186 94.9148 80.1015 94.4759 80.3768L94.7427 81.4911H92.4324L92.3249 81.0136H90.5093V81.4911H87.9022V79.7573H89.0853V76.0489H87.9022V66.7777H92.3421ZM90.5093 78.97H91.757C92.9358 78.97 93.2971 78.6087 93.2971 77.2492V70.697C93.2971 69.3375 92.9358 68.9761 91.757 68.9761H90.5093V78.97ZM92.3421 66.6486H87.9022H87.7732V66.7777V76.0446V76.1736H87.9022H88.9563V79.624H87.9022H87.7732V79.753V81.4868V81.6159H87.9022H90.5093H90.6384V81.4868V81.1383H92.2216L92.3076 81.5169L92.3292 81.6159H92.4324H94.7427H94.9062L94.8674 81.4567L94.6222 80.4328C95.0481 80.1488 95.3751 79.7616 95.6031 79.2712C95.8569 78.7205 95.986 78.0322 95.986 77.2234V70.7185C95.986 68.0167 95.4224 66.6486 92.3421 66.6486ZM90.6384 69.1052H91.757C92.8798 69.1052 93.1681 69.4321 93.1681 70.697V77.2492C93.1681 78.514 92.8798 78.841 91.757 78.841H90.6384V69.1052Z" fill="black"/>
<path d="M85.3302 84.6972C82.65 84.6972 81.3464 83.3635 81.3464 80.6231C81.3464 77.8654 82.65 76.5231 85.3302 76.5231H88.6128V79.2808H85.3517C84.2203 79.2808 83.6954 79.7067 83.6954 80.6231C83.6954 81.5265 84.2375 81.9653 85.3517 81.9653H98.7702C99.8716 81.9653 100.427 81.5136 100.427 80.6231C100.427 79.7196 99.8845 79.2808 98.7702 79.2808H96.0039L96.0469 79.1904C96.2879 78.6656 96.4126 78.0073 96.4126 77.2243V76.5231H98.7702C101.45 76.5231 102.754 77.8654 102.754 80.6231C102.754 83.3635 101.45 84.6972 98.7702 84.6972H85.3302Z" fill="#F9F8F4"/>
<path d="M98.7695 76.5871C101.738 76.5871 102.689 78.265 102.689 80.6226C102.689 82.9543 101.738 84.6322 98.7695 84.6322H85.3295C82.3567 84.6322 81.4103 82.9543 81.4103 80.6226C81.4103 78.265 82.361 76.5871 85.3295 76.5871H88.5476V79.2158H85.351C84.0131 79.2158 83.6302 79.8267 83.6302 80.6226C83.6302 81.3927 84.0131 82.0294 85.351 82.0294H98.7695C100.086 82.0294 100.49 81.3927 100.49 80.6226C100.49 79.8267 100.086 79.2158 98.7695 79.2158H96.1065C96.3517 78.6866 96.4765 78.0284 96.4765 77.2196V76.5828H98.7695V76.5871ZM98.7695 76.4581H96.4765H96.3474V76.5871V77.2239C96.3474 77.9982 96.2269 78.6479 95.986 79.1641L95.9 79.3491H96.1022H98.7652C99.8537 79.3491 100.357 79.7535 100.357 80.6269C100.357 81.4873 99.8365 81.9046 98.7652 81.9046H85.3467C84.2755 81.9046 83.7549 81.4873 83.7549 80.6269C83.7549 80.0805 83.9184 79.3491 85.3467 79.3491H88.5433H88.6723V79.2201V76.5914V76.4624H88.5433H85.3252C82.602 76.4624 81.2769 77.8262 81.2769 80.6269C81.2769 83.4104 82.602 84.7656 85.3252 84.7656H98.7652C101.488 84.7656 102.814 83.4104 102.814 80.6269C102.818 77.8219 101.497 76.4581 98.7695 76.4581Z" fill="black"/>
<path d="M83.7647 63.0024C83.9411 63.1744 84.0271 63.2562 84.2035 63.4283C84.4143 63.6348 84.4917 63.7724 84.2852 64.0005C84.1949 64.0994 84.1519 64.1467 84.0658 64.25C83.1796 63.4928 82.7322 63.1099 81.8459 62.3527C81.9535 62.2237 82.0094 62.1634 82.1213 62.0387C82.3837 61.7504 82.5429 61.815 82.7537 62.0215C82.9043 62.1677 82.9774 62.2409 83.128 62.3871C83.2957 62.5506 83.3646 62.684 83.2957 62.8475L83.3 62.8518C83.4549 62.77 83.5969 62.8389 83.7647 63.0024ZM81.9664 62.3269C82.3579 62.6668 82.5558 62.8389 82.9473 63.1787C83.0161 63.1013 83.0505 63.0583 83.1194 62.9808C83.2785 62.8045 83.2957 62.6797 83.0677 62.4646C82.9086 62.314 82.8311 62.2366 82.6719 62.086C82.4654 61.8881 82.3536 61.8967 82.1686 62.0989C82.0911 62.1892 82.0481 62.2366 81.9664 62.3269ZM83.6915 63.054C83.4635 62.8346 83.3388 62.8604 83.1839 63.0325C83.1151 63.1099 83.0763 63.1486 83.0075 63.2304C83.4248 63.5918 83.6356 63.7724 84.0529 64.1381C84.1175 64.065 84.1519 64.0263 84.2164 63.9531C84.3627 63.7897 84.3541 63.695 84.1476 63.4971C83.9669 63.3207 83.8765 63.2304 83.6915 63.054Z" fill="#F9F8F4" stroke="#F9F8F4" stroke-width="0.27158" stroke-miterlimit="10"/>
<path d="M85.5923 61.8794C85.4116 62.0085 85.3213 62.0773 85.1406 62.215C85.2912 62.4645 85.3643 62.5893 85.5192 62.8345C85.4977 62.8517 85.4847 62.8603 85.4632 62.8819C84.8351 61.8838 84.5383 61.3761 83.9747 60.3393C84.0392 60.2876 84.0736 60.2661 84.1382 60.2145C84.9685 61.0534 85.3686 61.488 86.1387 62.3742C86.1129 62.3914 86.1 62.4 86.0741 62.4172C85.8892 62.2021 85.7902 62.0946 85.5923 61.8794ZM85.5407 61.8192C84.9857 61.2126 84.7018 60.9158 84.121 60.3307C84.1081 60.3393 84.0994 60.3436 84.0865 60.3565C84.478 61.0835 84.6802 61.4406 85.1019 62.1462C85.2739 62.0128 85.3643 61.9483 85.5407 61.8192Z" fill="#F9F8F4" stroke="#F9F8F4" stroke-width="0.27158" stroke-miterlimit="10"/>
<path d="M87.1709 60.5975C87.1451 60.6147 87.115 60.6319 87.0806 60.6491C86.9859 60.6964 86.9386 60.7179 86.844 60.7652C87.029 61.1309 87.1236 61.3159 87.3086 61.6816C87.2828 61.6945 87.2699 61.7031 87.2398 61.716C86.702 60.6792 86.4353 60.1586 85.8975 59.1218C86.0352 59.0487 86.1083 59.0143 86.2503 58.9454C86.5772 58.7862 86.6977 58.911 86.8182 59.1777C86.9773 59.5434 87.0591 59.7241 87.2226 60.0855C87.3129 60.2877 87.3344 60.4254 87.2312 60.5415C87.485 60.89 87.6098 61.0664 87.8507 61.4235C87.8249 61.4364 87.812 61.4407 87.7818 61.4536C87.5452 61.1094 87.4248 60.9373 87.1709 60.5975ZM87.0376 60.5846C87.2398 60.4856 87.2742 60.3953 87.1537 60.1285C86.9859 59.7585 86.9042 59.5735 86.7364 59.2036C86.6203 58.9411 86.517 58.9067 86.2847 59.0186C86.1814 59.0702 86.1298 59.096 86.0266 59.1476C86.3406 59.7671 86.4998 60.0769 86.8139 60.6964C86.8999 60.6534 86.9472 60.6276 87.0376 60.5846Z" fill="#F9F8F4" stroke="#F9F8F4" stroke-width="0.27158" stroke-miterlimit="10"/>
<path d="M89.4046 59.7928C89.4605 60.0294 89.4906 60.1498 89.5465 60.3865C89.6154 60.6747 89.6068 60.8296 89.3314 60.907C89.2153 60.9371 89.1551 60.9543 89.0389 60.9931C88.699 59.8745 88.5269 59.3152 88.1871 58.1967C88.3333 58.1536 88.4108 58.1321 88.5614 58.0891C88.9098 57.9945 89.0045 58.1364 89.0733 58.4247C89.1206 58.6269 89.1464 58.7301 89.1938 58.9323C89.2497 59.156 89.2368 59.3109 89.1034 59.4056C89.1034 59.4099 89.1034 59.4099 89.1034 59.4099C89.2712 59.4314 89.3486 59.5647 89.4046 59.7928ZM88.2989 58.244C88.4452 58.743 88.5183 58.9926 88.6689 59.4873C88.7636 59.4615 88.8066 59.4486 88.9012 59.4228C89.112 59.3668 89.1852 59.2679 89.112 58.9667C89.0604 58.7516 89.0346 58.6484 88.9787 58.4333C88.9098 58.1579 88.8152 58.102 88.5743 58.1665C88.4624 58.1967 88.4065 58.2139 88.2989 58.244ZM89.3185 59.7971C89.2411 59.4873 89.1335 59.4443 88.9227 59.5002C88.8281 59.526 88.7808 59.5389 88.6904 59.5647C88.8496 60.0939 88.927 60.3606 89.0819 60.8941C89.168 60.8683 89.2153 60.8554 89.3013 60.8339C89.4949 60.7823 89.5379 60.6962 89.4691 60.4166C89.4089 60.167 89.3788 60.0466 89.3185 59.7971Z" fill="#F9F8F4" stroke="#F9F8F4" stroke-width="0.27158" stroke-miterlimit="10"/>
<path d="M90.7092 57.767C90.7651 58.3005 90.7952 58.5715 90.8511 59.105C91.0404 59.0835 91.1351 59.0792 91.3244 59.0663C91.3244 59.0964 91.3287 59.1136 91.3287 59.1437C91.1394 59.1566 91.049 59.1652 90.8597 59.1824C90.9157 59.7159 90.9458 59.9826 91.0017 60.5161C91.1695 60.4989 91.2512 60.4903 91.419 60.4817C91.419 60.5118 91.4233 60.529 91.4233 60.5591C91.2297 60.572 91.1308 60.5806 90.9329 60.6022C90.8038 59.4406 90.735 58.8598 90.6059 57.6982C90.8554 57.6724 90.9802 57.6595 91.2297 57.6423C91.2297 57.6724 91.234 57.6896 91.234 57.7197C91.0232 57.7369 90.92 57.7455 90.7092 57.767Z" fill="#F9F8F4" stroke="#F9F8F4" stroke-width="0.27158" stroke-miterlimit="10"/>
<path d="M93.2212 59.5476C93.1911 59.5519 93.1567 59.5519 93.118 59.5476C93.0147 59.539 92.9631 59.5347 92.8598 59.5304C92.834 59.9391 92.8211 60.1456 92.7953 60.5587C92.7652 60.5587 92.7523 60.5544 92.7222 60.5544C92.7867 59.3885 92.8211 58.8034 92.8857 57.6375C93.0405 57.6461 93.118 57.6504 93.2685 57.6633C93.6256 57.6934 93.6686 57.8612 93.6342 58.1537C93.5869 58.5495 93.5654 58.7474 93.5181 59.1389C93.4922 59.3583 93.4406 59.4917 93.2944 59.5347C93.3331 59.965 93.3503 60.1801 93.3761 60.606C93.346 60.6017 93.3331 60.6017 93.303 60.5974C93.2771 60.1801 93.2599 59.9693 93.2212 59.5476ZM93.1094 59.4745C93.3288 59.4917 93.4019 59.4315 93.4363 59.1389C93.4793 58.7345 93.5009 58.5366 93.5482 58.1322C93.5783 57.8483 93.5095 57.7665 93.2599 57.745C93.1481 57.7364 93.0922 57.7321 92.976 57.7235C92.933 58.4162 92.9115 58.7647 92.8641 59.4573C92.9631 59.4616 93.0104 59.4659 93.1094 59.4745Z" fill="#F9F8F4" stroke="#F9F8F4" stroke-width="0.27158" stroke-miterlimit="10"/>
<path d="M95.708 58.9889C95.7597 58.8168 95.7855 58.7351 95.8328 58.563C95.9102 58.3006 95.8027 58.1758 95.6306 58.1285C95.4628 58.0855 95.3036 58.1371 95.2391 58.4038C95.2004 58.5587 95.1832 58.6361 95.1445 58.791C94.9939 59.4148 95.6306 59.5525 95.4284 60.2193C95.3811 60.3699 95.3596 60.4473 95.3122 60.5979C95.2133 60.9249 95.0412 60.9765 94.8734 60.9335C94.7013 60.8862 94.5852 60.7571 94.6626 60.4258C94.7056 60.2537 94.7228 60.1677 94.7659 59.9913C94.796 59.9999 94.8089 59.9999 94.839 60.0085C94.796 60.1806 94.7745 60.2667 94.7314 60.4387C94.6669 60.7055 94.753 60.813 94.8906 60.8517C95.0283 60.8905 95.1574 60.8388 95.2348 60.5764C95.2778 60.4258 95.3036 60.3484 95.3466 60.1978C95.5273 59.5826 94.8906 59.4492 95.0541 58.7738C95.0928 58.6189 95.11 58.5415 95.1445 58.3866C95.2219 58.0553 95.4284 57.9994 95.6435 58.0596C95.8629 58.1199 96.0092 58.2704 95.9102 58.5931C95.8586 58.7652 95.8328 58.8469 95.7812 59.019C95.7597 59.0018 95.7424 58.9975 95.708 58.9889Z" fill="#F9F8F4" stroke="#F9F8F4" stroke-width="0.27158" stroke-miterlimit="10"/>
<path d="M98.3538 59.13C97.816 60.1669 97.545 60.6874 97.0072 61.7242C96.9814 61.7113 96.9685 61.7027 96.9427 61.6898C97.2008 61.1822 97.3299 60.9326 97.588 60.425C97.3772 60.3174 97.2739 60.2658 97.0588 60.1712C96.8265 60.6874 96.7104 60.9498 96.478 61.4661C96.4522 61.4532 96.435 61.4489 96.4092 61.436C96.8824 60.3648 97.1191 59.8313 97.588 58.7643C97.6224 58.7816 97.6396 58.7859 97.674 58.8031C97.4417 59.3236 97.3256 59.5818 97.0889 60.1023C97.3041 60.2013 97.4116 60.2486 97.6224 60.3561C97.8805 59.8485 98.0096 59.5947 98.2677 59.087C98.3065 59.1042 98.3237 59.1128 98.3538 59.13Z" fill="#F9F8F4" stroke="#F9F8F4" stroke-width="0.27158" stroke-miterlimit="10"/>
<path d="M100.25 60.8519C99.7339 61.5058 99.4714 61.8371 98.9552 62.491C98.7444 62.762 98.5551 62.7405 98.4131 62.633C98.2668 62.5254 98.198 62.3533 98.3959 62.0737C98.8734 61.3853 99.1101 61.0412 99.5833 60.3571C99.7769 60.0732 100.001 60.1033 100.186 60.241C100.366 60.3786 100.461 60.5851 100.25 60.8519ZM100.134 60.3055C99.9877 60.1979 99.8156 60.1807 99.6564 60.4087C99.1746 61.0928 98.9337 61.4327 98.4561 62.1167C98.297 62.3447 98.3443 62.4824 98.4604 62.5641C98.5766 62.6502 98.7229 62.6545 98.8906 62.4394C99.4026 61.7811 99.6607 61.4499 100.173 60.7916C100.345 60.5765 100.28 60.4173 100.134 60.3055Z" fill="#F9F8F4" stroke="#F9F8F4" stroke-width="0.27158" stroke-miterlimit="10"/>
<path d="M102.058 62.6499C101.688 62.9639 101.503 63.1231 101.137 63.4372C100.913 63.6308 100.763 63.6824 100.539 63.4415C100.466 63.364 100.431 63.3253 100.358 63.2479C100.126 63.4716 100.01 63.5834 99.7774 63.8071C99.7559 63.7856 99.743 63.7727 99.7215 63.7512C100.56 62.9381 100.978 62.5294 101.817 61.7163C101.933 61.8368 101.989 61.897 102.101 62.0174C102.363 62.3014 102.281 62.4563 102.058 62.6499ZM102.002 62.5638C102.217 62.3745 102.221 62.2627 102.036 62.0605C101.954 61.9701 101.911 61.9271 101.825 61.8368C101.262 62.3788 100.978 62.6499 100.41 63.1919C100.483 63.2694 100.517 63.3038 100.59 63.3812C100.75 63.5533 100.853 63.5619 101.068 63.3726C101.442 63.05 101.627 62.8908 102.002 62.5638Z" fill="#F9F8F4" stroke="#F9F8F4" stroke-width="0.27158" stroke-miterlimit="10"/>
<path d="M66.4127 122.217C66.2965 122.548 66.0771 122.578 65.862 122.5C65.6469 122.423 65.4963 122.26 65.6125 121.933C65.9007 121.132 66.0427 120.732 66.3309 119.932C66.4471 119.605 66.6622 119.571 66.8687 119.644C67.0752 119.717 67.2215 119.876 67.1053 120.207C67.0451 120.375 67.015 120.461 66.9591 120.633C66.9246 120.62 66.9074 120.616 66.8687 120.603C66.9289 120.435 66.9591 120.349 67.015 120.182C67.1096 119.915 67.0021 119.786 66.8386 119.73C66.6751 119.674 66.5116 119.704 66.417 119.971C66.1287 120.771 65.9868 121.171 65.6985 121.971C65.6039 122.234 65.7114 122.371 65.8835 122.432C66.0513 122.492 66.2234 122.457 66.318 122.191C66.3783 122.014 66.4084 121.928 66.4686 121.756C66.503 121.769 66.5245 121.773 66.559 121.786C66.503 121.954 66.4729 122.044 66.4127 122.217Z" fill="#F9F8F4" stroke="#F9F8F4" stroke-width="0.27158" stroke-miterlimit="10"/>
<path d="M68.5912 123.296C68.5826 123.326 68.5783 123.343 68.5654 123.373C68.2986 123.292 68.1653 123.249 67.9028 123.163C68.2685 122.031 68.4492 121.467 68.8149 120.336C68.8493 120.349 68.8665 120.353 68.9052 120.366C68.5525 121.467 68.3761 122.018 68.019 123.12C68.247 123.188 68.3632 123.223 68.5912 123.296Z" fill="#F9F8F4" stroke="#F9F8F4" stroke-width="0.27158" stroke-miterlimit="10"/>
<path d="M71.0983 123.357C70.8445 123.288 70.7197 123.249 70.4702 123.18C70.3497 123.452 70.2852 123.585 70.1647 123.856C70.1303 123.847 70.1131 123.839 70.0744 123.83C70.5734 122.737 70.8143 122.187 71.3005 121.09C71.3736 121.111 71.4123 121.12 71.4898 121.141C71.3263 122.329 71.2489 122.927 71.0983 124.118C71.0596 124.11 71.0424 124.101 71.0036 124.093C71.0424 123.796 71.0596 123.649 71.0983 123.357ZM71.1112 123.275C71.2187 122.445 71.2747 122.028 71.3908 121.201C71.3736 121.197 71.3693 121.193 71.3521 121.189C71.0165 121.954 70.8445 122.337 70.5003 123.103C70.7455 123.172 70.866 123.206 71.1112 123.275Z" fill="#F9F8F4" stroke="#F9F8F4" stroke-width="0.27158" stroke-miterlimit="10"/>
<path d="M73.8042 122.651C73.8472 122.474 73.8687 122.388 73.9118 122.212C73.9763 121.941 73.8687 121.82 73.6967 121.782C73.5289 121.739 73.374 121.795 73.3052 122.061C73.2664 122.216 73.2449 122.298 73.2062 122.453C73.047 123.085 73.7655 123.227 73.5977 123.916C73.559 124.07 73.5418 124.152 73.5031 124.307C73.4213 124.643 73.2105 124.699 72.9868 124.643C72.7631 124.587 72.6039 124.44 72.6899 124.105C72.733 123.928 72.7588 123.842 72.8018 123.666C72.8362 123.675 72.8534 123.679 72.8921 123.688C72.8491 123.864 72.8276 123.95 72.7803 124.126C72.7115 124.397 72.8319 124.514 73.0083 124.561C73.189 124.604 73.3439 124.552 73.4127 124.286C73.4514 124.131 73.4686 124.049 73.5074 123.894C73.6622 123.262 72.9438 123.12 73.1159 122.431C73.1546 122.276 73.1761 122.195 73.2148 122.04C73.3009 121.704 73.5031 121.648 73.7182 121.704C73.9333 121.76 74.0838 121.902 74.0021 122.238C73.9591 122.414 73.9376 122.5 73.8946 122.676C73.8601 122.664 73.8429 122.659 73.8042 122.651Z" fill="#F9F8F4" stroke="#F9F8F4" stroke-width="0.27158" stroke-miterlimit="10"/>
<path d="M76.1584 123.185C76.1972 123.008 76.2144 122.918 76.2531 122.741C76.309 122.47 76.1972 122.354 76.0251 122.315C75.8573 122.281 75.7024 122.337 75.6422 122.608C75.6078 122.767 75.5906 122.845 75.5561 123.004C75.4185 123.641 76.1369 123.757 75.995 124.449C75.9605 124.609 75.9476 124.686 75.9132 124.845C75.8444 125.185 75.6336 125.245 75.4099 125.198C75.1862 125.151 75.0227 125.009 75.0958 124.669C75.1345 124.492 75.156 124.402 75.1948 124.226C75.2292 124.234 75.2507 124.239 75.2851 124.247C75.2464 124.424 75.2292 124.514 75.1905 124.69C75.1302 124.961 75.255 125.077 75.4314 125.116C75.6121 125.155 75.7669 125.099 75.8229 124.828C75.8573 124.669 75.8745 124.591 75.9046 124.432C76.038 123.795 75.3152 123.675 75.4701 122.982C75.5045 122.823 75.5217 122.746 75.5561 122.587C75.6293 122.247 75.8315 122.186 76.0466 122.234C76.2617 122.281 76.4209 122.419 76.3477 122.759C76.309 122.935 76.2918 123.025 76.2574 123.202C76.2144 123.197 76.1972 123.193 76.1584 123.185Z" fill="#F9F8F4" stroke="#F9F8F4" stroke-width="0.27158" stroke-miterlimit="10"/>
<path d="M78.0078 122.659C78.0422 122.667 78.0637 122.667 78.0981 122.676C77.883 123.846 77.7754 124.431 77.5603 125.597C77.5216 125.589 77.5044 125.589 77.4657 125.58C77.6808 124.414 77.7883 123.829 78.0078 122.659Z" fill="#F9F8F4" stroke="#F9F8F4" stroke-width="0.27158" stroke-miterlimit="10"/>
<path d="M80.1232 125.598C80.0715 125.942 79.865 126.015 79.6413 125.981C79.4176 125.946 79.2412 125.813 79.2971 125.469C79.4305 124.63 79.4993 124.208 79.637 123.369C79.6929 123.025 79.8951 122.952 80.1103 122.986C80.3254 123.021 80.4931 123.15 80.4415 123.494C80.4157 123.67 80.4028 123.761 80.3727 123.937C80.334 123.933 80.3168 123.928 80.2823 123.924C80.3082 123.748 80.3211 123.657 80.3512 123.481C80.3942 123.201 80.2651 123.094 80.0973 123.068C79.9296 123.042 79.7747 123.107 79.7317 123.382C79.5983 124.221 79.5295 124.643 79.3961 125.481C79.3531 125.761 79.4821 125.873 79.6585 125.899C79.8349 125.925 79.9941 125.86 80.0371 125.58C80.0629 125.4 80.0801 125.305 80.106 125.124C80.1447 125.129 80.1619 125.133 80.2006 125.137C80.1662 125.327 80.1533 125.417 80.1232 125.598Z" fill="#F9F8F4" stroke="#F9F8F4" stroke-width="0.27158" stroke-miterlimit="10"/>
<path d="M84.4252 124.44C84.4424 124.26 84.451 124.169 84.4682 123.989C84.494 123.713 84.3693 123.61 84.1972 123.593C84.0251 123.576 83.8788 123.653 83.853 123.929C83.8358 124.088 83.8272 124.169 83.81 124.329C83.7412 124.978 84.4682 125.013 84.4037 125.718C84.3865 125.877 84.3822 125.959 84.365 126.118C84.3349 126.462 84.1327 126.549 83.9047 126.523C83.6766 126.501 83.5003 126.376 83.5347 126.032C83.5519 125.852 83.5648 125.761 83.582 125.581C83.6164 125.585 83.6379 125.585 83.6723 125.589C83.6551 125.77 83.6465 125.86 83.625 126.041C83.5949 126.316 83.7283 126.419 83.909 126.437C84.0939 126.454 84.2402 126.381 84.266 126.105C84.2832 125.946 84.2875 125.864 84.3047 125.705C84.365 125.056 83.6379 125.017 83.7111 124.316C83.7283 124.157 83.7369 124.075 83.7541 123.916C83.7885 123.571 83.9821 123.49 84.1972 123.511C84.4166 123.533 84.5844 123.653 84.5543 123.997C84.5371 124.178 84.5285 124.268 84.5113 124.449C84.4811 124.445 84.4639 124.44 84.4252 124.44Z" fill="#F9F8F4" stroke="#F9F8F4" stroke-width="0.27158" stroke-miterlimit="10"/>
<path d="M87.0162 123.765C86.943 124.952 86.9086 125.546 86.8355 126.729C86.7968 126.725 86.7795 126.725 86.7408 126.725C86.7752 126.148 86.7925 125.86 86.8312 125.284C86.573 125.266 86.444 125.258 86.1815 125.241C86.1428 125.817 86.1213 126.105 86.0783 126.682C86.0396 126.677 86.0224 126.677 85.9836 126.673C86.0697 125.486 86.1127 124.896 86.1945 123.709C86.2289 123.713 86.2504 123.713 86.2848 123.718C86.2461 124.294 86.2246 124.582 86.1815 125.159C86.4397 125.176 86.5687 125.185 86.8312 125.202C86.8656 124.625 86.8871 124.337 86.9215 123.756C86.9602 123.761 86.9774 123.765 87.0162 123.765Z" fill="#F9F8F4" stroke="#F9F8F4" stroke-width="0.27158" stroke-miterlimit="10"/>
<path d="M89.3346 126.11C89.0765 126.101 88.9474 126.097 88.685 126.088C88.6334 126.381 88.6075 126.527 88.5516 126.815C88.5129 126.815 88.4957 126.815 88.4613 126.811C88.6764 125.628 88.7839 125.038 88.9861 123.855C89.0636 123.86 89.1023 123.86 89.1797 123.86C89.3088 125.051 89.3733 125.649 89.5153 126.841C89.4766 126.841 89.4594 126.841 89.4207 126.837C89.3862 126.549 89.369 126.402 89.3346 126.11ZM89.326 126.028C89.2314 125.193 89.1883 124.78 89.098 123.946C89.0808 123.946 89.0722 123.946 89.0593 123.946C88.9173 124.772 88.8442 125.185 88.6979 126.006C88.9474 126.015 89.0765 126.019 89.326 126.028Z" fill="#F9F8F4" stroke="#F9F8F4" stroke-width="0.27158" stroke-miterlimit="10"/>
<path d="M90.9671 123.898C91.1177 125.055 91.1951 125.632 91.3586 126.789C91.3758 126.789 91.3844 126.789 91.4017 126.789C91.5651 125.636 91.6469 125.055 91.8018 123.903C91.8405 123.903 91.8577 123.903 91.8921 123.903C91.7372 125.094 91.6512 125.688 91.4834 126.875C91.4017 126.875 91.3629 126.875 91.2812 126.875C91.1134 125.688 91.0317 125.09 90.8768 123.903C90.9155 123.898 90.9327 123.898 90.9671 123.898Z" fill="#F9F8F4" stroke="#F9F8F4" stroke-width="0.27158" stroke-miterlimit="10"/>
<path d="M93.5518 123.954C93.569 124.501 93.5733 124.776 93.5905 125.322C93.8013 125.318 93.9089 125.314 94.1197 125.305C94.1197 125.335 94.1197 125.353 94.124 125.383C93.9132 125.391 93.8056 125.391 93.5948 125.4C93.612 125.946 93.6163 126.217 93.6336 126.764C93.8487 126.759 93.9605 126.755 94.1756 126.746C94.1756 126.777 94.1756 126.794 94.1799 126.828C93.9261 126.837 93.797 126.841 93.5432 126.85C93.5088 125.662 93.4959 125.069 93.4615 123.881C93.7067 123.873 93.8272 123.873 94.0724 123.864C94.0724 123.898 94.0724 123.911 94.0767 123.946C93.8659 123.946 93.7626 123.946 93.5518 123.954Z" fill="#F9F8F4" stroke="#F9F8F4" stroke-width="0.27158" stroke-miterlimit="10"/>
<path d="M96.4302 124.608C96.4173 124.427 96.413 124.337 96.4001 124.156C96.3829 123.881 96.2409 123.799 96.0688 123.808C95.8967 123.816 95.7677 123.915 95.7806 124.195C95.7892 124.354 95.7935 124.436 95.8021 124.599C95.8408 125.249 96.5636 125.172 96.6109 125.877C96.6238 126.036 96.6281 126.118 96.6367 126.282C96.6582 126.626 96.4775 126.742 96.2495 126.755C96.0215 126.768 95.8279 126.677 95.8064 126.333C95.7978 126.153 95.7892 126.062 95.7806 125.882C95.815 125.882 95.8365 125.877 95.8709 125.877C95.8795 126.058 95.8881 126.148 95.8967 126.329C95.9139 126.604 96.0602 126.686 96.2409 126.673C96.4259 126.66 96.5593 126.566 96.5378 126.29C96.5292 126.131 96.5205 126.049 96.5119 125.886C96.4689 125.236 95.7461 125.314 95.7031 124.608C95.6945 124.449 95.6902 124.367 95.6816 124.204C95.6601 123.86 95.8365 123.743 96.0559 123.73C96.2753 123.718 96.4603 123.808 96.4861 124.152C96.499 124.333 96.5033 124.423 96.5162 124.604C96.4861 124.604 96.4689 124.608 96.4302 124.608Z" fill="#F9F8F4" stroke="#F9F8F4" stroke-width="0.27158" stroke-miterlimit="10"/>
<path d="M100.788 125.567C100.529 125.597 100.4 125.615 100.142 125.645C100.134 125.942 100.129 126.088 100.121 126.385C100.082 126.389 100.065 126.389 100.03 126.393C100.069 125.193 100.082 124.595 100.108 123.395C100.185 123.386 100.224 123.382 100.301 123.373C100.607 124.535 100.762 125.111 101.08 126.273C101.041 126.277 101.024 126.282 100.985 126.286C100.904 125.998 100.865 125.856 100.788 125.567ZM100.77 125.49C100.551 124.681 100.443 124.277 100.233 123.468C100.215 123.468 100.207 123.472 100.194 123.472C100.177 124.311 100.168 124.728 100.146 125.567C100.392 125.533 100.521 125.52 100.77 125.49Z" fill="#F9F8F4" stroke="#F9F8F4" stroke-width="0.27158" stroke-miterlimit="10"/>
<path d="M102.259 123.111C102.324 123.102 102.354 123.098 102.418 123.089C102.849 124.178 103.068 124.724 103.52 125.808C103.528 125.808 103.528 125.808 103.537 125.804C103.524 125.727 103.515 125.688 103.503 125.606C103.335 124.556 103.253 124.032 103.085 122.982C103.124 122.978 103.141 122.973 103.176 122.969C103.365 124.143 103.455 124.729 103.645 125.903C103.576 125.916 103.541 125.92 103.477 125.929C103.025 124.845 102.806 124.298 102.375 123.21C102.371 123.21 102.367 123.21 102.362 123.21C102.53 124.341 102.612 124.905 102.784 126.032C102.75 126.036 102.728 126.041 102.694 126.045C102.522 124.875 102.436 124.285 102.259 123.111Z" fill="#F9F8F4" stroke="#F9F8F4" stroke-width="0.27158" stroke-miterlimit="10"/>
<path d="M105.666 122.995C105.821 123.799 105.903 124.204 106.058 125.013C106.114 125.309 106.084 125.477 105.727 125.542C105.563 125.572 105.486 125.589 105.322 125.615C105.107 124.445 105.004 123.86 104.789 122.694C104.944 122.664 105.021 122.651 105.176 122.621C105.52 122.556 105.61 122.698 105.666 122.995ZM105.572 122.999C105.516 122.715 105.43 122.655 105.18 122.702C105.064 122.724 105.004 122.737 104.888 122.758C105.09 123.864 105.193 124.415 105.395 125.52C105.516 125.499 105.576 125.486 105.696 125.464C105.95 125.417 106.015 125.327 105.959 125.043C105.808 124.225 105.731 123.817 105.572 122.999Z" fill="#F9F8F4" stroke="#F9F8F4" stroke-width="0.27158" stroke-miterlimit="10"/>
<path d="M110.268 124.105C110.354 124.445 110.191 124.591 109.967 124.647C109.748 124.703 109.533 124.647 109.451 124.307C109.253 123.481 109.15 123.068 108.952 122.242C108.87 121.902 109.029 121.76 109.24 121.704C109.451 121.653 109.662 121.704 109.748 122.044C109.791 122.216 109.812 122.306 109.86 122.479C109.825 122.487 109.804 122.491 109.769 122.5C109.726 122.328 109.705 122.238 109.662 122.066C109.593 121.794 109.434 121.743 109.266 121.786C109.098 121.829 108.982 121.945 109.047 122.22C109.249 123.046 109.348 123.459 109.55 124.285C109.614 124.556 109.782 124.612 109.954 124.569C110.126 124.526 110.251 124.402 110.178 124.131C110.135 123.95 110.109 123.864 110.066 123.683C110.105 123.675 110.122 123.67 110.157 123.662C110.2 123.834 110.221 123.924 110.268 124.105Z" fill="#F9F8F4" stroke="#F9F8F4" stroke-width="0.27158" stroke-miterlimit="10"/>
<path d="M112.718 123.439C112.817 123.774 112.653 123.929 112.434 123.989C112.214 124.05 111.999 124.002 111.904 123.667C111.633 122.686 111.496 122.195 111.225 121.21C111.259 121.202 111.276 121.197 111.315 121.184C111.59 122.165 111.724 122.656 111.999 123.641C112.077 123.912 112.24 123.955 112.412 123.908C112.584 123.86 112.705 123.736 112.623 123.464C112.339 122.484 112.201 121.993 111.917 121.017C111.952 121.008 111.969 120.999 112.008 120.991C112.296 121.972 112.434 122.458 112.718 123.439Z" fill="#F9F8F4" stroke="#F9F8F4" stroke-width="0.27158" stroke-miterlimit="10"/>
<path d="M114.366 120.349C114.22 120.397 114.146 120.418 114 120.466C114.353 121.567 114.529 122.118 114.882 123.219C114.843 123.232 114.826 123.236 114.792 123.249C114.439 122.148 114.267 121.597 113.914 120.496C113.768 120.543 113.695 120.564 113.548 120.612C113.54 120.582 113.536 120.564 113.523 120.534C113.85 120.431 114.013 120.379 114.34 120.272C114.349 120.306 114.357 120.319 114.366 120.349Z" fill="#F9F8F4" stroke="#F9F8F4" stroke-width="0.27158" stroke-miterlimit="10"/>
<path d="M116.693 120.391C116.633 120.219 116.603 120.138 116.543 119.965C116.448 119.703 116.289 119.664 116.125 119.725C115.962 119.78 115.859 119.914 115.953 120.176C116.005 120.327 116.035 120.404 116.087 120.559C116.302 121.174 116.981 120.895 117.222 121.562C117.278 121.712 117.304 121.79 117.36 121.94C117.476 122.267 117.33 122.426 117.111 122.504C116.891 122.581 116.676 122.547 116.564 122.22C116.504 122.048 116.474 121.962 116.414 121.794C116.448 121.781 116.465 121.777 116.5 121.764C116.56 121.936 116.59 122.022 116.65 122.19C116.741 122.452 116.908 122.487 117.08 122.426C117.257 122.366 117.36 122.233 117.265 121.975C117.209 121.824 117.184 121.747 117.128 121.596C116.908 120.981 116.224 121.26 115.992 120.594C115.94 120.443 115.91 120.366 115.859 120.211C115.747 119.884 115.884 119.725 116.095 119.651C116.306 119.578 116.513 119.613 116.629 119.94C116.689 120.112 116.719 120.194 116.784 120.366C116.749 120.37 116.732 120.378 116.693 120.391Z" fill="#F9F8F4" stroke="#F9F8F4" stroke-width="0.27158" stroke-miterlimit="10"/>
</g>
<defs>
<clipPath id="clip0">
<rect width="110.037" height="69.3683" fill="white" transform="translate(37.2969 57.5672)"/>
</clipPath>
</defs>
</svg>
