<svg width="183" height="185" viewBox="0 0 183 185" fill="none" xmlns="http://www.w3.org/2000/svg">
<rect y="0.502563" width="183" height="183.979" rx="3" fill="#090909"/>
<g clip-path="url(#clip0)">
<path d="M73.7184 102.763L81.1759 87.951H86.1606L89.3238 102.763H85.2844L84.6836 99.9706H79.4755L78.052 102.763H73.7184ZM80.9714 96.6712H84.1142L83.4331 93.2107C83.3654 92.8665 83.3151 92.5599 83.2805 92.2892C83.2459 92.0201 83.2254 91.7667 83.2191 91.5305C83.076 91.9357 82.9454 92.2908 82.8275 92.5974C82.7095 92.904 82.6151 93.1324 82.5475 93.2811L80.9714 96.6712Z" fill="#F9F8F4"/>
<path d="M89.9937 102.763L91.6107 92.5441H95.2631L93.6351 102.763H89.9937ZM91.8859 89.4982C91.8859 88.9725 92.0747 88.5204 92.4506 88.1418C92.8266 87.7648 93.2827 87.5755 93.8191 87.5755C94.3822 87.5755 94.8494 87.7569 95.2222 88.1215C95.595 88.486 95.7821 88.9443 95.7821 89.4982C95.7821 90.0441 95.5918 90.5072 95.2127 90.8842C94.8321 91.2628 94.3681 91.4506 93.8191 91.4506C93.2827 91.4506 92.8266 91.2597 92.4506 90.8795C92.0747 90.4978 91.8859 90.0379 91.8859 89.4982Z" fill="#F9F8F4"/>
<path d="M95.5055 102.763L97.1335 92.5439H100.613L100.358 94.2836C100.677 93.6359 101.104 93.1431 101.64 92.8067C102.176 92.4688 102.799 92.3014 103.512 92.3014C103.586 92.3014 103.671 92.3061 103.767 92.3171C103.861 92.3265 104.011 92.3499 104.215 92.3828L103.493 95.5899C103.255 95.5367 103.042 95.496 102.853 95.4678C102.662 95.4412 102.48 95.4272 102.304 95.4272C101.605 95.4272 101.053 95.6446 100.651 96.0795C100.246 96.5144 99.9711 97.1871 99.8217 98.0976L99.0887 102.761H95.5055V102.763Z" fill="#F9F8F4"/>
<path d="M105.316 102.763L106.527 95.1551H104.819L105.236 92.5441H106.944L107.402 89.5795H111.023L110.545 92.5441H112.387L111.97 95.1551H110.128L108.928 102.763H105.316Z" fill="#F9F8F4"/>
<path d="M111.891 102.763L113.519 92.5439H116.998L116.744 94.2836C117.063 93.6359 117.489 93.1431 118.026 92.8067C118.562 92.4688 119.185 92.3014 119.897 92.3014C119.971 92.3014 120.056 92.3061 120.152 92.3171C120.247 92.3265 120.396 92.3499 120.601 92.3828L119.879 95.5899C119.641 95.5367 119.427 95.496 119.238 95.4678C119.048 95.4412 118.866 95.4272 118.689 95.4272C117.991 95.4272 117.439 95.6446 117.036 96.0795C116.632 96.5144 116.357 97.1871 116.207 98.0976L115.474 102.761H111.891V102.763Z" fill="#F9F8F4"/>
<path d="M128.218 101.396C127.723 101.97 127.172 102.403 126.565 102.696C125.958 102.99 125.305 103.135 124.607 103.135C123.427 103.135 122.458 102.694 121.703 101.81C120.947 100.926 120.569 99.7796 120.569 98.37C120.569 96.6022 121.08 95.1363 122.106 93.9693C123.13 92.8022 124.409 92.2187 125.941 92.2187C126.653 92.2187 127.29 92.3657 127.853 92.6583C128.417 92.9524 128.925 93.4061 129.379 94.0193L129.614 92.5425H133.052L131.424 102.761H128.047L128.218 101.396ZM124.22 98.0165C124.22 98.6704 124.42 99.1976 124.821 99.595C125.22 99.9923 125.75 100.193 126.408 100.193C127.127 100.193 127.726 99.9141 128.203 99.3572C128.681 98.8002 128.92 98.1041 128.92 97.2671C128.92 96.6335 128.72 96.1188 128.319 95.7246C127.92 95.3303 127.397 95.1332 126.752 95.1332C126.019 95.1332 125.415 95.407 124.937 95.953C124.459 96.499 124.22 97.1873 124.22 98.0165Z" fill="#F9F8F4"/>
<path d="M141.935 96.2769C141.562 95.8795 141.183 95.5823 140.8 95.3867C140.417 95.1912 140.016 95.0926 139.596 95.0926C138.883 95.0926 138.287 95.368 137.806 95.9171C137.324 96.4662 137.084 97.1467 137.084 97.9555C137.084 98.6298 137.271 99.1648 137.644 99.5591C138.016 99.9533 138.521 100.15 139.16 100.15C139.567 100.15 139.959 100.08 140.335 99.9377C140.711 99.7953 141.085 99.5841 141.46 99.3009L140.911 102.66C140.429 102.829 139.962 102.954 139.512 103.034C139.061 103.115 138.619 103.156 138.185 103.156C136.733 103.156 135.558 102.688 134.66 101.754C133.761 100.82 133.312 99.6013 133.312 98.0963C133.312 96.3363 133.867 94.908 134.98 93.8114C136.093 92.7147 137.551 92.1671 139.355 92.1671C139.931 92.1671 140.481 92.2501 141.003 92.4143C141.526 92.5802 142.004 92.8242 142.438 93.148L141.935 96.2769Z" fill="#F9F8F4"/>
<path d="M150.789 97.5222L154.147 102.763H149.812L147.444 98.3717L147.212 97.9196L146.919 97.3533L147.35 96.8746L148.089 96.0517L151.248 92.5442H155.814L150.789 97.5222Z" fill="#F9F8F4"/>
<path d="M148.568 87.0795L146.981 96.8729L146.839 97.9367L146.065 102.763H142.465L144.936 87.0795H148.568Z" fill="#F9F8F4"/>
<path d="M52.0401 86.712L43.9566 102.765H27.1841L52.0401 86.712Z" fill="#572DFF"/>
<path d="M57.0845 90.6543L61.6493 81.1597L64.2824 90.6386L57.0845 90.6543Z" fill="#572DFF"/>
<path d="M65.7734 96.2519L67.598 102.763L51.2329 102.76L54.3663 96.2769L65.7734 96.2519Z" fill="#572DFF"/>
</g>
<defs>
<clipPath id="clip0">
<rect width="128.63" height="21.9974" fill="white" transform="translate(27.1841 81.1597)"/>
</clipPath>
</defs>
</svg>
