<svg width="183" height="184" viewBox="0 0 183 184" fill="none" xmlns="http://www.w3.org/2000/svg">
<rect y="0.989258" width="183" height="183" rx="3" fill="#090909"/>
<path d="M126.973 77.2395H115.37L108.408 83.8699V108.734H101.778V97.1308H95.4787V114.37H103.767L108.077 110.723V114.37H114.707V94.4786H120.011L126.973 88.5112V77.2395Z" fill="#6BB0FF"/>
<path d="M98.3009 88.901V94.6811H79.0204L88.2382 83.1501H79.7413V77.3671H98.3009V80.2601L90.589 88.901H98.3009Z" fill="#F9F8F4"/>
<path d="M106.407 75.9233H100.066V70.1079H106.407V75.9233ZM100.068 94.6825V77.3669H106.408V94.6825H100.068Z" fill="#F9F8F4"/>
<path d="M120.674 83.2067H114.707V88.8426H120.674V83.2067Z" fill="black"/>
<path d="M55.4909 97.6975H65.0005V103.481H54.7409V109.232H65.0005V115.013H48.4006V104.204L55.4909 97.6975Z" fill="#F9F8F4"/>
<path d="M73.1057 115.013H66.7655V91.9496H73.1057V115.013Z" fill="#F9F8F4"/>
<path d="M81.9951 97.6975H93.8248V108.542L86.7973 115.013H74.8698V104.172L81.9951 97.6975ZM81.21 103.482V109.233H87.4831V103.482H81.21Z" fill="#F9F8F4"/>
<path d="M135.259 108.544L128.233 115.013H116.306V104.172L123.431 97.6991H128.92V91.9512H135.261V108.544H135.259ZM122.646 103.482V109.233H128.919V103.482H122.646Z" fill="#F9F8F4"/>
</svg>
