<svg width="184" height="185" viewBox="0 0 184 185" fill="none" xmlns="http://www.w3.org/2000/svg">
<rect y="0.492188" width="184" height="184" rx="3" fill="#0C0C0C"/>
<g clip-path="url(#clip0)">
<path d="M124.251 90.831C123.967 92.5748 123.212 93.5557 122.034 94.2096C120.26 95.1975 118.641 94.8881 117.519 93.1654C116.406 91.4603 115.481 89.6357 114.411 87.9024C114.023 87.2766 114.203 87.0481 114.736 86.6825C116.916 85.1918 116.902 85.1707 118.215 87.4559C118.766 88.4157 119.282 89.4001 119.885 90.3247C120.336 91.0173 120.887 91.6642 121.874 91.172C122.855 90.6798 123.181 89.8958 122.883 88.8517C122.439 87.3153 121.58 85.9723 120.703 84.6855C119.775 83.3214 120.873 83.1351 121.594 82.7097C122.311 82.2878 122.949 81.4265 123.728 82.889C125.901 86.9461 128.302 90.8767 130.506 94.9163C133.926 101.192 131.795 108.923 125.755 112.456C119.698 116 112.016 114.017 108.388 107.9C106.011 103.892 103.801 99.7855 101.42 95.7811C100.606 94.417 101.742 94.3151 102.373 93.9741C103.024 93.6225 103.693 92.4623 104.528 93.9951C106.756 98.0874 109.071 102.138 111.438 106.149C113.742 110.051 118.243 111.728 122.363 110.35C126.445 108.986 129.057 104.989 128.763 100.587C128.669 99.2195 128.267 97.9398 127.616 96.755C126.58 94.867 125.492 93.0107 124.251 90.831Z" fill="#F9F8F4"/>
<path d="M55.5471 101.442C54.5319 99.645 53.6136 98.0419 52.7162 96.4282C49.2892 90.2721 51.0529 83.1809 56.8327 79.841C62.6124 76.5011 69.4871 78.5613 73.0076 84.6927C75.1802 88.4791 77.2696 92.3218 79.5392 96.0485C80.4678 97.5743 79.2204 97.6376 78.5239 98.1227C77.7582 98.6571 77.1448 99.1739 76.4241 97.8274C74.3416 93.9215 72.0963 90.1069 69.8855 86.2748C67.3768 81.9294 62.5327 80.4738 58.4647 82.8118C54.3344 85.1849 53.08 90.2546 55.5644 94.6773C57.7024 98.4848 59.8958 102.261 62.0268 106.075C62.2659 106.504 63.1044 107.134 62.3629 107.517C61.5694 107.928 60.8902 109.264 59.7745 108.427C59.0988 107.921 59.2374 108.346 59.0572 108.737C57.5257 112.077 54.0571 112.544 51.7009 109.742C51.4757 109.475 51.2712 109.19 51.0911 108.895C50.0307 107.158 49.5248 105.295 50.5886 103.424C51.6108 101.631 53.2914 101.002 55.5471 101.442ZM55.7827 103.344C54.5769 103.312 53.5235 104.307 53.5027 105.492C53.4785 106.845 54.7363 108.368 55.8936 108.23C57.0614 108.093 57.9761 107.478 58.1009 106.156C58.2221 104.845 56.9713 103.375 55.7827 103.344Z" fill="#F9F8F4"/>
<path d="M87.1166 112.358C86.8012 114.039 86.2572 115.076 85.1553 115.783C83.2184 117.024 81.4858 116.753 80.2384 114.823C79.1642 113.167 78.2564 111.402 77.2273 109.711C76.8773 109.138 76.9431 108.86 77.501 108.466C79.7013 106.916 79.684 106.891 81.0007 109.205C81.5205 110.115 82.0194 111.036 82.5739 111.922C83.0902 112.745 83.6965 113.49 84.8123 112.865C85.8587 112.277 86.0666 111.339 85.5885 110.319C84.944 108.952 84.2717 107.58 83.4367 106.332C82.5565 105.014 83.7069 104.866 84.3445 104.515C85.0063 104.149 85.7097 103.052 86.479 104.589C87.5462 106.719 88.8318 108.737 89.9718 110.832C90.2628 111.37 91.2573 112.07 89.9579 112.597C89.0882 112.952 88.2184 114.563 87.1166 112.358Z" fill="#F9F8F4"/>
<path d="M86.5902 98.2793C85.5738 99.2743 83.8554 98.2575 83.7546 96.8388C83.725 96.4231 83.7064 96.0092 83.7064 95.595C83.7064 94.1184 83.2282 93.1165 81.9219 92.3219C80.4377 91.42 79.027 90.3912 77.5199 89.3088C76.8783 88.8479 76.9257 87.732 77.5595 87.2603C78.2326 86.7594 78.8811 86.3609 79.7111 86.6933C80.8754 87.1573 81.7798 88.2894 82.8401 89.1578C83.2109 88.5601 82.9822 88.0574 82.9129 87.5863C82.571 85.2202 82.4752 84.5963 83.7239 83.7679C84.6006 83.1863 85.7611 83.8325 85.8803 84.8778C86.1894 87.5874 86.4933 90.2577 86.7972 92.9301C86.8561 93.454 86.8838 93.9813 86.9497 94.5017C87.2272 96.7044 87.335 97.5501 86.5902 98.2793Z" fill="#F9F8F4"/>
<path d="M95.0977 79.7782C95.0977 76.7898 97.7103 74.2445 100.711 74.3007C103.525 74.3535 105.794 76.6352 105.815 79.4337C105.836 82.4009 103.22 85.0236 100.261 85.0025C97.35 84.9814 95.0977 82.7068 95.0977 79.7782ZM102.548 80.1403C102.558 78.6813 101.369 77.3031 100.233 77.3735C99.1102 77.4438 98.4103 78.0907 98.3098 79.2438C98.2024 80.4673 99.4428 82.0001 100.531 81.9509C101.723 81.8982 102.437 81.2232 102.548 80.1403Z" fill="#F9F8F4"/>
<path d="M114.164 68.6364C114.164 65.6305 116.742 63.1097 119.764 63.1589C122.598 63.2046 124.864 65.4687 124.878 68.2672C124.895 71.2486 122.304 73.8537 119.334 73.8502C116.437 73.8467 114.164 71.5544 114.164 68.6364ZM121.628 68.9141C121.621 67.5219 120.384 66.084 119.285 66.207C118.114 66.3336 117.362 67.0156 117.369 68.2778C117.376 69.5013 118.565 70.8196 119.615 70.7775C120.824 70.7247 121.507 70.0356 121.628 68.9141Z" fill="#F9F8F4"/>
<path d="M99.0481 104.609C99.0481 107.105 97.3918 109.183 94.8242 109.914C92.7833 110.494 90.5899 109.548 89.3009 107.625C88.8781 106.992 88.892 106.666 89.5781 106.289C91.1408 105.428 92.6759 104.51 94.2109 103.593C94.5297 103.403 95.1014 103.287 94.9385 102.788C94.8277 102.454 94.4326 102.127 94.0896 101.979C92.6863 101.378 91.5913 102.099 91.1582 103.29C90.6315 104.732 89.5261 104.458 88.6287 104.461C87.6792 104.465 88.1747 103.568 88.296 103.129C88.892 100.949 92.3086 98.9485 94.6925 99.3177C97.2047 99.7114 99.0481 101.947 99.0481 104.609ZM96.0578 104.816C94.9247 105.502 93.9164 106.11 92.8145 106.778C93.5768 107.636 94.3079 107.875 95.195 107.393C96.134 106.88 96.4632 106.099 96.0578 104.816Z" fill="#F9F8F4"/>
<path d="M64.9083 116.383C67.3131 116.418 69.3644 118.257 69.8045 120.781C70.2584 123.362 68.758 125.834 66.135 126.835C63.8896 127.693 61.4433 126.793 60.0988 124.701C59.6726 124.037 59.7488 123.728 60.4211 123.355C61.9907 122.49 63.5015 121.52 65.0712 120.658C66.2493 120.012 65.7053 119.53 64.9776 119.09C63.9346 118.461 62.4447 119.01 61.9041 120.458C61.3705 121.889 60.1958 121.502 59.3157 121.558C58.5811 121.604 58.9623 120.739 59.0697 120.303C59.5964 118.254 62.4655 116.348 64.9083 116.383ZM63.6782 123.953C65.1751 125.05 66.7136 124.701 67.0359 123.197C67.1052 122.88 67.1086 122.441 66.9388 122.205C66.6616 121.815 66.3394 122.212 66.0864 122.381C65.2895 122.905 64.3435 123.2 63.6782 123.953Z" fill="#F9F8F4"/>
<path d="M107.355 95.5421C107.479 95.0148 107.923 94.5366 106.745 94.6526C105.986 94.7265 105.671 93.3905 105.352 92.6276C105.096 92.0123 105.948 91.9034 106.346 91.6608C108.124 90.5779 109.922 89.5267 111.738 88.5107C112.126 88.2927 112.615 87.5509 113.034 88.2365C113.457 88.9291 114.531 89.7834 113.97 90.4584C113.013 91.6045 114.257 91.2881 114.472 91.4041C116.201 92.3323 117.074 94.171 116.548 95.9464C115.924 98.0383 113.107 99.8524 110.799 99.6485C109.08 99.4973 107.538 97.9715 107.358 96.2382C107.334 95.9992 107.355 95.7636 107.355 95.5421ZM111.038 96.4738C112.48 96.4527 113.685 95.3241 113.571 94.1745C113.453 92.9967 112.823 92.2022 111.582 92.167C110.383 92.1319 109.091 93.38 109.212 94.4769C109.337 95.637 109.954 96.4175 111.038 96.4738Z" fill="#F9F8F4"/>
<path d="M69.4892 98.8789C69.4719 99.3359 68.9314 99.9371 70.1511 99.7648C70.8094 99.6699 71.2391 101.023 71.5094 101.8C71.7554 102.511 70.8198 102.588 70.3798 102.859C68.6576 103.92 66.9078 104.94 65.1406 105.921C64.756 106.135 64.2847 106.909 63.862 106.258C63.4046 105.552 62.3339 104.761 62.9333 103.913C63.4774 103.143 63.1135 103.309 62.6492 103.094C59.7316 101.744 59.2812 98.6257 61.6651 96.4354C63.9451 94.3401 66.8454 94.1502 68.4705 96.003C69.1843 96.8116 69.6105 97.7503 69.4892 98.8789ZM65.7504 97.905C64.4545 97.9226 63.162 99.1004 63.2591 100.194C63.3699 101.435 64.0456 102.268 65.3485 102.272C66.5474 102.275 67.8087 100.985 67.6632 99.9125C67.5107 98.7664 66.8558 98.021 65.7504 97.905Z" fill="#F9F8F4"/>
<path d="M69.7236 116.643C68.7915 116.306 68.7014 115.311 68.2232 114.622C67.8074 114.024 68.4346 113.834 68.8019 113.616C70.5864 112.558 72.3639 111.486 74.1762 110.487C74.6301 110.238 75.1533 109.436 75.6315 109.967C76.2171 110.618 77.0868 111.535 76.7854 112.337C76.529 113.022 76.4597 112.973 77.0938 113.289C79.748 114.618 80.1153 117.751 77.9254 119.797C75.8255 121.759 73.0258 122.03 71.3937 120.426C70.4166 119.467 70.0528 118.285 70.1567 116.932C70.2295 116.742 70.3646 116.52 70.0839 116.418C69.9973 116.394 69.8448 116.563 69.7236 116.643ZM74.1277 118.306C75.2434 118.078 76.3245 117.561 76.3557 116.169C76.3834 114.945 75.6696 113.968 74.3633 113.989C73.1228 114.01 72.0556 114.71 72.0209 116.081C71.9932 117.28 72.6897 118.162 74.1277 118.306Z" fill="#F9F8F4"/>
<path d="M110.189 68.7244C112.296 68.7665 113.911 70.4611 113.98 72.7006C113.994 73.1752 113.595 73.6815 114.659 73.7589C115.349 73.8081 115.799 75.0491 115.986 75.8613C116.132 76.4906 115.224 76.6101 114.763 76.8914C113.19 77.8582 111.6 78.8004 109.978 79.6828C109.527 79.9289 109.015 80.734 108.519 80.1575C107.958 79.507 107.261 78.7406 107.417 77.7668C107.476 77.4011 107.85 77.3203 107.254 76.9757C105.2 75.7945 104.465 74.1807 104.978 72.4194C105.539 70.4892 108.093 68.6822 110.189 68.7244ZM112.171 74.1913C112.029 72.9256 111.44 71.9342 110.186 71.9272C108.98 71.9201 107.906 72.5952 107.836 73.9944C107.774 75.246 108.505 76.2058 109.76 76.2163C110.979 76.2234 111.915 75.5132 112.171 74.1913Z" fill="#F9F8F4"/>
<path d="M99.5413 95.5947C100.082 95.6545 100.168 96.0412 100.331 96.326C102.5 100.112 104.642 103.913 106.832 107.689C107.209 108.343 107.123 108.631 106.496 109.042C104.34 110.459 104.358 110.487 103.11 108.293C101.295 105.108 99.4616 101.937 97.6875 98.7272C97.4138 98.235 96.5752 97.669 97.1504 97.103C97.8261 96.428 98.7859 96.0518 99.5413 95.5947Z" fill="#F9F8F4"/>
<path d="M97.265 86.8971C96.7141 87.7972 95.633 88.0081 94.8256 88.5741C94.2088 89.0066 94.0564 88.3034 93.8554 87.9519C91.7174 84.2182 89.6315 80.4529 87.4485 76.7473C86.9045 75.8262 87.251 75.4078 88.0098 75.232C88.7825 75.0562 89.4305 73.2632 90.3522 74.8207C92.608 78.6176 94.7528 82.4849 96.9427 86.3206C97.0294 86.4717 97.1125 86.6229 97.265 86.8971Z" fill="#F9F8F4"/>
<path d="M129.986 89.3232C128.656 89.5914 130.233 86.6989 130.582 85.3885C130.616 85.2636 130.641 85.1293 130.658 84.9848C130.803 83.7297 130.162 82.682 128.984 82.1968C127.473 81.571 126.659 82.6328 125.921 83.7367C123.998 81.3882 124.317 80.1964 127.13 79.1241C129.916 78.0624 132.848 79.7288 133.797 82.9176C134.632 85.7266 132.834 88.7466 129.986 89.3232Z" fill="#F9F8F4"/>
<path d="M70.8337 91.281C71.3223 91.1685 71.402 91.6009 71.5545 91.8646C72.885 94.1744 74.1636 96.5194 75.5358 98.8046C75.9689 99.5288 75.7091 99.7679 75.1339 100.137C73.0444 101.48 73.0548 101.501 71.8247 99.3355C70.8788 97.6726 70.0298 95.9393 68.9522 94.3713C68.0929 93.1162 68.3423 92.4728 69.6417 91.963C70.061 91.8013 70.4387 91.513 70.8337 91.281Z" fill="#F9F8F4"/>
<path d="M73.1875 106.086C74.026 106.357 74.0711 107.316 74.5458 107.904C74.9893 108.452 74.5666 108.737 74.1543 108.979C72.1168 110.175 70.069 111.352 68.0384 112.558C67.6018 112.819 67.2033 113.072 66.9573 112.397C66.694 111.672 65.5124 110.79 66.1604 110.326C68.3537 108.758 70.7689 107.51 73.1875 106.086Z" fill="#F9F8F4"/>
<path d="M118.104 79.3597C118.153 79.9573 117.768 80.0558 117.491 80.221C115.505 81.3952 113.489 82.5168 111.541 83.7508C110.692 84.2887 110.346 83.8352 110.179 83.1918C110.017 82.566 108.638 82.0105 109.968 81.23C112.006 80.0312 114.04 78.8253 116.087 77.6545C116.715 77.2959 118.097 78.5827 118.104 79.3597Z" fill="#F9F8F4"/>
<path d="M68.5215 91.1439C67.6795 91.1193 67.1701 90.6728 67.1528 89.8712C67.1354 89.0661 67.6413 88.5704 68.4452 88.5458C69.1972 88.5212 69.6372 89.0204 69.6927 89.7236C69.7585 90.5216 69.3011 91.0138 68.5215 91.1439Z" fill="#F9F8F4"/>
<path d="M55.7843 103.344C56.9728 103.375 58.2237 104.845 58.1024 106.156C57.9811 107.482 57.0629 108.093 55.8951 108.23C54.7343 108.367 53.48 106.845 53.5043 105.492C53.525 104.307 54.5784 103.312 55.7843 103.344Z" fill="black"/>
<path d="M102.546 80.1395C102.432 81.2223 101.721 81.8974 100.533 81.9536C99.4447 82.0028 98.2007 80.47 98.3116 79.2465C98.4121 78.0934 99.112 77.4465 100.235 77.3761C101.368 77.2988 102.556 78.6805 102.546 80.1395Z" fill="black"/>
<path d="M121.626 68.9145C121.505 70.036 120.822 70.7251 119.616 70.7743C118.567 70.82 117.378 69.4981 117.371 68.2746C117.364 67.0125 118.116 66.3304 119.287 66.2039C120.382 66.0878 121.619 67.5223 121.626 68.9145Z" fill="black"/>
<path d="M96.0562 104.816C96.4616 106.1 96.1325 106.88 95.1969 107.393C94.3098 107.875 93.5753 107.636 92.8164 106.778C93.9183 106.11 94.9266 105.502 96.0562 104.816Z" fill="black"/>
<path d="M63.6797 123.952C64.3415 123.2 65.2909 122.905 66.0879 122.381C66.3409 122.215 66.6631 121.818 66.9403 122.205C67.1066 122.44 67.1032 122.88 67.0373 123.196C66.7151 124.701 65.1801 125.053 63.6797 123.952Z" fill="black"/>
<path d="M111.037 96.4741C109.952 96.4143 109.339 95.6338 109.207 94.4736C109.086 93.3767 110.378 92.1287 111.577 92.1638C112.818 92.199 113.448 92.997 113.566 94.1713C113.684 95.3244 112.475 96.453 111.037 96.4741Z" fill="black"/>
<path d="M65.7504 97.9043C66.8558 98.0203 67.5107 98.7656 67.6631 99.9118C67.8052 100.981 66.5474 102.274 65.3485 102.271C64.0456 102.267 63.3699 101.434 63.259 100.193C63.162 99.0996 64.4545 97.9219 65.7504 97.9043Z" fill="black"/>
<path d="M74.1271 118.306C72.6891 118.162 71.9926 117.279 72.0203 116.081C72.055 114.709 73.1188 114.01 74.3627 113.989C75.6656 113.964 76.3794 114.945 76.3551 116.168C76.3239 117.561 75.2428 118.077 74.1271 118.306Z" fill="black"/>
<path d="M69.7227 116.644C69.8439 116.563 69.9999 116.394 70.0796 116.422C70.3568 116.524 70.2251 116.746 70.1523 116.935C70.0068 116.837 69.8647 116.742 69.7227 116.644Z" fill="#F9F8F4"/>
<path d="M112.171 74.1909C111.911 75.5128 110.976 76.223 109.763 76.216C108.508 76.2054 107.777 75.2456 107.84 73.994C107.909 72.5948 108.983 71.9198 110.189 71.9268C111.44 71.9338 112.032 72.9253 112.171 74.1909Z" fill="black"/>
</g>
<defs>
<clipPath id="clip0">
<rect width="84" height="64" fill="white" transform="translate(50 63.1592)"/>
</clipPath>
</defs>
</svg>
