<svg width="183" height="184" viewBox="0 0 183 184" fill="none" xmlns="http://www.w3.org/2000/svg">
<rect width="183" height="183.979" rx="3" fill="#0C0C0C"/>
<path d="M91.4117 81.7063C86.7587 81.7063 84.2973 79.2852 83.0515 77.2531C81.7104 75.0657 81.4683 72.9086 81.4583 72.8177L81.457 72.7836V58.6602H101.368L101.366 72.5095C101.356 72.603 101.115 74.8333 99.7757 77.0965C98.5287 79.1993 96.0673 81.7063 91.4117 81.7063ZM82.083 72.7672C82.1069 72.9617 82.3791 74.9685 83.596 76.9425C85.2871 79.6856 87.9166 81.076 91.4105 81.076C94.9043 81.076 97.5326 79.635 99.2237 76.7922C100.444 74.7412 100.715 72.6548 100.738 72.4603V59.2916H82.083V72.7672Z" fill="#F9F8F4"/>
<path d="M91.7249 58.9766H91.0977V81.3911H91.7249V58.9766Z" fill="#F9F8F4"/>
<path d="M101.048 67.9576L81.7656 68.208L81.7737 68.8394L101.056 68.589L101.048 67.9576Z" fill="#F9F8F4"/>
<path d="M91.5272 74.5317L82.3086 74.6582L82.3172 75.2896L91.5358 75.1631L91.5272 74.5317Z" fill="#F9F8F4"/>
<path d="M94.7054 68.2517L94.0781 68.2578L94.2016 80.9239L94.8289 80.9178L94.7054 68.2517Z" fill="#F9F8F4"/>
<path d="M98.1351 68.2542L97.5078 68.2578L97.5694 78.9977L98.1967 78.9942L98.1351 68.2542Z" fill="#F9F8F4"/>
<path d="M91.5223 77.715L84.1133 77.8516L84.1249 78.4829L91.5339 78.3464L91.5223 77.715Z" fill="#F9F8F4"/>
<path d="M89.6272 66.4393C89.6272 66.4393 88.8155 66.2814 88.32 66.0263C88.32 66.0263 87.768 66.5555 86.5247 66.5037C86.4281 66.4999 86.3679 66.3926 86.4206 66.3117C86.536 66.1374 86.8735 65.8924 87.8495 65.8381C87.8495 65.8381 87.6701 65.7548 87.359 65.5186C87.359 65.5186 86.2538 65.9998 85.4609 65.7661C85.3756 65.7409 85.343 65.6335 85.4007 65.5641C85.5487 65.3885 85.9401 65.1359 86.945 65.2534C86.945 65.2534 86.7506 65.117 86.4269 64.7937C86.4269 64.7937 85.2828 65.069 84.6994 64.8316C84.6053 64.7937 84.5965 64.6585 84.6843 64.6068C84.9039 64.4779 85.3731 64.3251 86.2186 64.56C86.2186 64.56 85.9815 64.3756 85.8862 64.0498C85.8862 64.0498 84.4786 64.1508 84.0935 63.897C84.0157 63.8465 84.0207 63.729 84.1022 63.6823C84.2942 63.5737 84.7784 63.4247 85.7745 63.7593C85.7745 63.7593 85.6077 63.5206 85.5098 63.3047C85.5098 63.3047 84.2992 63.2958 83.8865 62.9207C83.8137 62.8551 83.8375 62.7351 83.9304 62.7048C84.1612 62.629 84.663 62.5785 85.476 63.0546C85.476 63.0546 84.8374 61.5075 85.131 60.9468C85.1711 60.871 85.2765 60.8596 85.3329 60.9228C85.501 61.1097 85.7846 61.6338 85.6227 62.97C85.6227 62.97 85.8849 61.8712 86.4871 61.5947C86.5774 61.553 86.679 61.6288 86.664 61.7285C86.6251 61.9963 86.4532 62.5254 85.7469 63.1632C85.7469 63.1632 85.9953 63.7985 86.1873 63.9639C86.1873 63.9639 86.2487 63.0079 86.9011 62.6164C86.9952 62.5595 87.1119 62.6479 87.0855 62.7566C87.004 63.0938 86.8007 63.7113 86.3453 64.1685C86.3453 64.1685 86.669 64.6876 87.0102 64.8556C87.0102 64.8556 86.9851 63.7808 87.4907 63.3678C87.5723 63.3022 87.694 63.3666 87.6914 63.4714C87.6839 63.8136 87.6099 64.4918 87.1733 64.992C87.1733 64.992 87.5798 65.4491 87.8307 65.4971C87.8307 65.4971 87.9022 64.358 88.4743 64.0233C88.5608 63.9728 88.6687 64.0473 88.6574 64.1471C88.6286 64.4161 88.5094 64.9402 88.0502 65.6159C88.049 65.6171 89.4352 66.4835 89.6272 66.4393Z" fill="#F9F8F4"/>
<path d="M84.9343 70.2852V71.5443H85.5014C85.6067 71.5418 85.6945 71.5052 85.7635 71.4357C85.8325 71.3662 85.8664 71.2778 85.8664 71.1717V71.1326H85.9091V72.1316H85.8664V72.0975C85.8664 71.9914 85.8325 71.903 85.7661 71.8335C85.6983 71.7641 85.613 71.7287 85.5101 71.7249H84.9343V72.811C84.9343 72.8855 84.9619 72.95 85.0158 73.003C85.0698 73.056 85.135 73.0826 85.209 73.0826H85.2605L85.2642 73.1255H83.957V73.0826H84.0135C84.0875 73.0826 84.1515 73.056 84.2042 73.003C84.2569 72.95 84.2857 72.8855 84.2882 72.811V70.4026C84.2882 70.3016 84.2406 70.2271 84.1465 70.1778C84.1063 70.1551 84.0624 70.1437 84.0135 70.1437H83.957V70.1008H85.603C85.692 70.1008 85.7886 70.0919 85.8953 70.0742C86.0007 70.0566 86.0759 70.0401 86.1186 70.0225V70.7537H86.0759V70.7108C86.0759 70.5845 86.0395 70.4822 85.9668 70.4051C85.894 70.3294 85.7937 70.2889 85.6682 70.2864H84.9343V70.2852Z" fill="#F9F8F4"/>
<path d="M88.2673 73.1853C87.7141 73.1841 87.28 73.0426 86.9651 72.7635C86.6503 72.4844 86.4922 72.1005 86.4922 71.613C86.4922 71.1255 86.6478 70.7415 86.9601 70.4599C87.2725 70.1783 87.7003 70.0381 88.2448 70.0381C88.66 70.0381 89.0176 70.1164 89.3149 70.2717L89.3237 71.0156H89.2898C89.143 70.4852 88.8093 70.2199 88.2887 70.2199C87.95 70.2199 87.6827 70.3437 87.487 70.59C87.2913 70.8363 87.1922 71.1735 87.1922 71.6003C87.1922 72.0272 87.2863 72.3657 87.4732 72.617C87.6614 72.8683 87.9148 72.9971 88.236 73.006C88.5684 73.006 88.8219 72.9226 88.9962 72.7547C89.1744 72.5816 89.2973 72.2849 89.3663 71.863H89.4002L89.4428 72.6069C89.2133 72.9946 88.8206 73.1879 88.2673 73.1853Z" fill="#F9F8F4"/>
<path d="M94.924 61.8242L95.6906 61.9404L95.1323 62.4835L95.2603 63.2538L94.5753 62.8863L93.8865 63.2462L94.022 62.4771L93.4688 61.9291L94.2365 61.8204L94.5841 61.1221L94.924 61.8242Z" fill="#F9F8F4"/>
<path d="M98.0724 61.8242L98.8389 61.9404L98.2807 62.4835L98.4086 63.2538L97.7237 62.8863L97.0349 63.2462L97.1692 62.4771L96.6172 61.9291L97.385 61.8204L97.7324 61.1221L98.0724 61.8242Z" fill="#F9F8F4"/>
<path d="M94.924 64.8555L95.6906 64.9717L95.1323 65.5148L95.2603 66.2852L94.5753 65.9177L93.8865 66.2777L94.022 65.5085L93.4688 64.9604L94.2365 64.8517L94.5841 64.1533L94.924 64.8555Z" fill="#F9F8F4"/>
<path d="M98.0724 64.8555L98.8389 64.9717L98.2807 65.5148L98.4086 66.2852L97.7237 65.9177L97.0349 66.2777L97.1692 65.5085L96.6172 64.9604L97.385 64.8517L97.7324 64.1533L98.0724 64.8555Z" fill="#F9F8F4"/>
<path d="M29.2767 90.1462V94.5564H31.2639C31.6352 94.5463 31.9413 94.42 32.1822 94.1775C32.4231 93.935 32.5435 93.6268 32.5435 93.253V93.1166H32.6941V96.6175H32.5435V96.4963C32.5435 96.1224 32.4256 95.8143 32.1897 95.5718C31.9539 95.3293 31.6553 95.203 31.294 95.1929H29.2767V98.9969C29.2767 99.2596 29.3721 99.4844 29.5628 99.6713C29.7534 99.8582 29.9793 99.9517 30.2402 99.9517H30.4209L30.4359 100.103H25.8594V99.9517H26.0551C26.316 99.9517 26.5393 99.8582 26.725 99.6713C26.9107 99.4844 27.0085 99.2596 27.0186 98.9969V90.5554C27.0186 90.2017 26.853 89.939 26.5218 89.7673C26.3813 89.6864 26.2257 89.646 26.0551 89.646H25.8594V89.4945H31.6252C31.9363 89.4945 32.2776 89.4642 32.6489 89.4035C33.0202 89.3429 33.2812 89.2823 33.4317 89.2217V91.7829H33.2812V91.6314C33.2812 91.1868 33.1532 90.8307 32.8973 90.5629C32.6414 90.2952 32.2926 90.1563 31.851 90.1462H29.2767Z" fill="#F9F8F4"/>
<path d="M39.7421 100.103H34.2773V99.9867H34.4166C34.5947 99.9867 34.7428 99.9286 34.8632 99.8111C34.9836 99.6949 35.0464 99.551 35.0552 99.3792V93.8198C35.0476 93.6493 34.9836 93.5041 34.8632 93.3879C34.7428 93.2717 34.5947 93.2123 34.4166 93.2123H34.2773V93.0962H38.3608C38.5691 93.0962 38.7974 93.0772 39.0458 93.0381C39.293 92.9989 39.4673 92.9598 39.5677 92.9219V94.7784H39.4523V94.6735C39.4523 94.3313 39.3594 94.0623 39.1738 93.8678C38.9881 93.6733 38.7284 93.5723 38.396 93.5647H36.7249V96.4025H38.0472C38.3107 96.3949 38.5227 96.3052 38.6858 96.1335C38.8476 95.9617 38.9291 95.7445 38.9291 95.4793V95.3972H39.0446V97.8725H38.9291V97.7904C38.9291 97.4242 38.7937 97.1602 38.5227 96.9961C38.3834 96.9102 38.2291 96.8672 38.0585 96.8672H36.7249V99.6356H38.1175C38.5967 99.628 39.0044 99.4777 39.3419 99.186C39.6793 98.8942 39.924 98.4838 40.0783 97.9534H40.1824L39.7421 100.103Z" fill="#F9F8F4"/>
<path d="M43.4197 93.5744H43.0483V99.3675C43.0483 99.5544 43.1123 99.7047 43.2403 99.8171C43.3682 99.9295 43.5125 99.9863 43.6756 99.9863H43.8035V100.102H40.6133V99.9863H40.7525C40.9219 99.9863 41.0674 99.9282 41.1879 99.8108C41.3083 99.6946 41.3673 99.5506 41.3673 99.3788V93.8194C41.3673 93.6489 41.307 93.5036 41.1879 93.3874C41.0674 93.2713 40.9269 93.2119 40.7638 93.2119H40.6133V93.0957H44.1749C44.8712 93.0957 45.4545 93.2321 45.9262 93.5049C46.4519 93.808 46.7153 94.3106 46.7153 95.0116C46.7153 95.4637 46.5798 95.8704 46.3088 96.2316C46.0379 96.594 45.6364 96.8138 45.102 96.8908C45.3102 96.9603 45.5172 97.0929 45.723 97.2874C45.9275 97.4819 46.0918 97.6802 46.216 97.8835C46.4631 98.3268 46.7228 98.7347 46.9938 99.1035C47.2648 99.4735 47.4831 99.7122 47.6487 99.8221C47.8155 99.9307 48.0175 99.985 48.2571 99.985V100.101H47.2824C46.64 100.101 46.147 100.023 45.8033 99.8676C45.4595 99.7122 45.1522 99.4167 44.8812 98.9797C44.4634 98.3104 44.2037 97.7812 44.1034 97.391C44.0105 97.1573 43.9001 96.9818 43.7722 96.8656C43.6442 96.7494 43.5225 96.6825 43.4071 96.6673V96.5738H43.6969C44.3543 96.5663 44.757 96.1773 44.9038 95.4056C44.9351 95.2894 44.9502 95.1884 44.9502 95.1025C44.9502 95.0166 44.9464 94.8979 44.9389 94.7464C44.9314 94.5948 44.8824 94.4231 44.7934 94.2323C44.7043 94.0416 44.5901 93.904 44.4509 93.8181C44.2113 93.6703 43.9641 93.592 43.7082 93.5845C43.6242 93.5781 43.5276 93.5744 43.4197 93.5744Z" fill="#F9F8F4"/>
<path d="M53.0712 93.0948H56.3304V93.211H56.1335C55.9553 93.211 55.8073 93.2653 55.6869 93.374C55.5664 93.4826 55.5024 93.6228 55.4949 93.7945V98.898C55.4949 99.3805 55.5263 99.7783 55.5877 100.089L55.6103 100.252H55.5062L50.182 95.5222V99.3881C50.1895 99.5598 50.2535 99.7013 50.3739 99.8149C50.4944 99.9273 50.6424 99.9842 50.8205 99.9842H51.0175V100.1H47.7695V99.9842H47.9552C48.1333 99.9842 48.2839 99.9273 48.4081 99.8149C48.5323 99.7025 48.5938 99.5598 48.5938 99.3881V94.2492C48.5938 93.7819 48.5624 93.3967 48.5009 93.0936L48.4771 92.9307L48.5812 92.942L53.8941 97.6477V93.8071C53.8941 93.6354 53.8339 93.4939 53.7147 93.3803C53.5943 93.2679 53.4463 93.211 53.2681 93.211H53.0712V93.0948Z" fill="#F9F8F4"/>
<path d="M56.8633 99.1437C56.8633 98.6373 56.9749 98.2053 57.1995 97.8479H57.2923C57.2848 97.9022 57.281 97.9527 57.281 97.9995C57.281 98.4743 57.4491 98.8911 57.7854 99.2485C58.1216 99.6072 58.592 99.7853 59.1954 99.7853C59.6283 99.7853 59.9632 99.6842 60.1991 99.4822C60.4349 99.2801 60.5528 99.054 60.5528 98.8052C60.5528 98.5564 60.4851 98.3556 60.3496 98.2041C60.2141 98.0525 59.9921 97.8757 59.6822 97.6724L58.035 96.6216C57.3387 96.1859 56.9912 95.6251 56.9912 94.9394C56.9912 94.8686 56.995 94.7954 57.0025 94.7171C57.049 94.1639 57.261 93.7307 57.6411 93.415C58.02 93.0993 58.4666 92.9414 58.9809 92.9414C59.4953 92.9414 60.0385 92.9768 60.6106 93.0462H61.2366L61.0747 94.5883H60.9706C60.9706 94.222 60.8451 93.9341 60.593 93.7244C60.3421 93.5148 60.0084 93.4087 59.5956 93.4087C59.1816 93.4087 58.8555 93.4958 58.6159 93.6714C58.3762 93.8469 58.2558 94.0781 58.2558 94.366C58.2558 94.5996 58.3712 94.8017 58.6033 94.9735C58.6961 95.0429 58.8316 95.1326 59.0098 95.2425L60.8539 96.3867C61.4875 96.7757 61.8049 97.3137 61.8049 97.9982C61.8049 98.7219 61.5514 99.2788 61.0446 99.6678C60.5378 100.057 59.8829 100.251 59.0788 100.251C58.5832 100.251 58.1467 100.193 57.7678 100.076C57.3889 99.9583 57.1104 99.8105 56.9323 99.6325C56.8859 99.4948 56.8633 99.3306 56.8633 99.1437Z" fill="#F9F8F4"/>
<path d="M72.4092 93.212H72.3277C72.1495 93.212 71.9802 93.2587 71.8171 93.3522C71.6552 93.4457 71.5348 93.5821 71.457 93.7614L69.7396 99.0518C69.6154 99.4257 69.5539 99.7793 69.5539 100.115C69.5539 100.154 69.5539 100.194 69.5539 100.231H69.4498L67.1879 95.6305L65.6222 99.0518C65.4441 99.4648 65.355 99.8576 65.355 100.231H65.2509L62.7795 93.8081C62.6941 93.6136 62.5725 93.4659 62.4144 93.3648C62.2563 93.2638 62.0832 93.2133 61.8975 93.2133H61.8047V93.0971H65.064V93.2133H64.9711C64.8243 93.2133 64.7164 93.2587 64.6462 93.3471C64.5759 93.4368 64.5421 93.5202 64.5421 93.5985C64.5421 93.6768 64.5571 93.7614 64.5885 93.8548L65.7953 97.0311L67.6282 92.9316H67.721L69.7509 97.0539L70.6905 93.8536C70.7683 93.5429 70.7056 93.3396 70.5048 93.2461C70.4509 93.2221 70.3894 93.2107 70.3192 93.2107H70.2263V93.0946H72.4067V93.212H72.4092Z" fill="#F9F8F4"/>
<path d="M72.1289 96.5983C72.1289 95.4768 72.5015 94.5877 73.2479 93.9297C73.9944 93.2717 74.988 92.9434 76.2287 92.9434C77.4694 92.9434 78.4655 93.2717 79.2157 93.9297C79.9659 94.5877 80.341 95.4768 80.341 96.5983C80.341 97.7198 79.9659 98.6089 79.2157 99.2669C78.4655 99.9249 77.4719 100.253 76.235 100.253C74.998 100.253 74.0032 99.9249 73.2542 99.2669C72.504 98.6102 72.1289 97.7198 72.1289 96.5983ZM73.9028 96.5983C73.9028 97.5796 74.1136 98.3563 74.5351 98.9284C74.9566 99.5005 75.5212 99.7872 76.2287 99.7872C76.9363 99.7872 77.5008 99.5018 77.9223 98.9284C78.3438 98.3563 78.5546 97.5796 78.5546 96.5983C78.5546 95.617 78.3438 94.8403 77.9223 94.2682C77.5008 93.6961 76.9363 93.4094 76.2287 93.4094C75.5212 93.4094 74.9566 93.6961 74.5351 94.2682C74.1136 94.8416 73.9028 95.6183 73.9028 96.5983Z" fill="#F9F8F4"/>
<path d="M83.6462 93.5744H83.2749V99.3675C83.2749 99.5544 83.3388 99.7047 83.4668 99.8171C83.5948 99.9295 83.739 99.9863 83.9021 99.9863H84.0301V100.103H80.8398V99.9863H80.9791C81.1485 99.9863 81.294 99.9283 81.4144 99.8108C81.5348 99.6946 81.5938 99.5506 81.5938 99.3789V93.8194C81.5938 93.6489 81.5336 93.5036 81.4144 93.3874C81.294 93.2713 81.1535 93.2119 80.9904 93.2119H80.8398V93.0957H84.4014C85.0977 93.0957 85.681 93.2321 86.1527 93.5049C86.6784 93.808 86.9418 94.3107 86.9418 95.0116C86.9418 95.4637 86.8063 95.8704 86.5354 96.2316C86.2644 96.5941 85.8629 96.8138 85.3285 96.8909C85.5368 96.9603 85.7438 97.0929 85.9495 97.2874C86.154 97.4819 86.3183 97.6802 86.4425 97.8835C86.6897 98.3268 86.9493 98.7348 87.2203 99.1035C87.4913 99.4736 87.7096 99.7123 87.8752 99.8222C88.042 99.9308 88.244 99.9851 88.4836 99.9851V100.101H87.5089C86.8665 100.101 86.3735 100.023 86.0298 99.8676C85.686 99.7123 85.3787 99.4168 85.1077 98.9798C84.69 98.3104 84.4303 97.7812 84.3299 97.391C84.2371 97.1573 84.1267 96.9818 83.9987 96.8656C83.8708 96.7494 83.7491 96.6825 83.6337 96.6673V96.5739H83.9234C84.5808 96.5663 84.9835 96.1773 85.1303 95.4056C85.1617 95.2894 85.1767 95.1884 85.1767 95.1025C85.1767 95.0166 85.1729 94.8979 85.1654 94.7464C85.1579 94.5948 85.109 94.4231 85.0199 94.2324C84.9308 94.0417 84.8167 93.904 84.6774 93.8181C84.4378 93.6703 84.1907 93.592 83.9347 93.5845C83.8507 93.5781 83.7541 93.5744 83.6462 93.5744Z" fill="#F9F8F4"/>
<path d="M94.242 94.7527V94.6478C94.242 94.3132 94.1491 94.0479 93.9634 93.8535C93.7778 93.659 93.5193 93.5579 93.1856 93.5503H91.8395V99.3775C91.8471 99.5493 91.9123 99.6933 92.0365 99.8095C92.1607 99.9257 92.3075 99.985 92.4768 99.985H92.6048V100.101H89.4032V99.985H89.5187C89.6968 99.985 89.8473 99.9269 89.9715 99.8095C90.0957 99.6933 90.1572 99.5443 90.1572 99.3662V93.5503H88.8236C88.4837 93.5579 88.2202 93.659 88.0345 93.8535C87.8489 94.0479 87.756 94.3132 87.756 94.6478V94.7527H87.6406V92.9075C87.7485 92.9467 87.9292 92.9858 88.1801 93.0237C88.431 93.0629 88.658 93.0818 88.8588 93.0818H93.1392C93.4792 93.0818 93.7602 93.0565 93.9798 93.006C94.2006 92.9555 94.326 92.9227 94.3574 92.9062V94.7514H94.242V94.7527Z" fill="#F9F8F4"/>
<path d="M102.534 99.986H102.662V100.102H99.4716V99.986H99.587C99.7652 99.986 99.9157 99.9279 100.04 99.8105C100.164 99.6943 100.226 99.5453 100.226 99.3672V96.8451H97.1746V99.3672C97.1821 99.5465 97.2473 99.6943 97.3715 99.8105C97.4957 99.9267 97.6425 99.986 97.8119 99.986H97.9398V100.102H94.7383V99.986H94.8662C95.0444 99.986 95.1949 99.9254 95.3191 99.8054C95.4433 99.6842 95.5048 99.5389 95.5048 99.3672V93.8317C95.5048 93.6599 95.4433 93.5147 95.3191 93.3935C95.1949 93.2722 95.0444 93.2129 94.8662 93.2129H94.7383V93.0967H97.9398V93.2129H97.8119C97.6413 93.2129 97.4945 93.271 97.3715 93.3884C97.2473 93.5046 97.1821 93.6498 97.1746 93.8203V96.3778H100.226V93.8317C100.226 93.5905 100.121 93.4111 99.912 93.295C99.8116 93.2407 99.7025 93.2129 99.587 93.2129H99.4716V93.0967H102.662V93.2129H102.534C102.363 93.2129 102.217 93.271 102.094 93.3884C101.969 93.5046 101.904 93.6536 101.897 93.8317V99.3785C101.904 99.6198 102.008 99.7953 102.21 99.9039C102.309 99.9595 102.417 99.986 102.534 99.986Z" fill="#F9F8F4"/>
<path d="M112.374 100.308C110.437 100.303 108.916 99.8102 107.812 98.8301C106.708 97.8501 106.156 96.5063 106.156 94.7988C106.156 93.0913 106.703 91.745 107.797 90.7599C108.891 89.7748 110.392 89.2822 112.298 89.2822C113.754 89.2822 115.003 89.555 116.047 90.1006L116.077 92.7073H115.957C115.445 90.8483 114.276 89.9188 112.449 89.9188C111.265 89.9188 110.329 90.3507 109.641 91.2145C108.954 92.0784 108.61 93.258 108.61 94.7533C108.61 96.2487 108.939 97.4358 109.596 98.3148C110.254 99.1939 111.144 99.6485 112.268 99.6788C113.433 99.6788 114.321 99.3858 114.933 98.7998C115.555 98.1936 115.987 97.1529 116.228 95.6778H116.348L116.499 98.2845C115.686 99.6384 114.311 100.312 112.374 100.308Z" fill="#F9F8F4"/>
<path d="M117.328 96.5983C117.328 95.4768 117.701 94.5877 118.447 93.9297C119.194 93.2717 120.187 92.9434 121.428 92.9434C122.669 92.9434 123.665 93.2717 124.415 93.9297C125.165 94.5877 125.54 95.4768 125.54 96.5983C125.54 97.7198 125.165 98.6089 124.415 99.2669C123.665 99.9249 122.671 100.253 121.434 100.253C120.197 100.253 119.202 99.9249 118.453 99.2669C117.703 98.6102 117.328 97.7198 117.328 96.5983ZM119.103 96.5983C119.103 97.5796 119.314 98.3563 119.736 98.9284C120.157 99.5005 120.722 99.7872 121.429 99.7872C122.137 99.7872 122.701 99.5018 123.123 98.9284C123.544 98.3563 123.755 97.5796 123.755 96.5983C123.755 95.617 123.544 94.8403 123.123 94.2682C122.701 93.6961 122.137 93.4094 121.429 93.4094C120.722 93.4094 120.157 93.6961 119.736 94.2682C119.314 94.8416 119.103 95.6183 119.103 96.5983Z" fill="#F9F8F4"/>
<path d="M133.606 93.2119H133.445C133.298 93.2119 133.174 93.2574 133.073 93.3458C132.973 93.4354 132.919 93.5504 132.911 93.6905V97.5564C132.911 98.3975 132.656 99.0568 132.146 99.5354C131.636 100.014 130.875 100.254 129.867 100.254C128.858 100.254 128.073 100.02 127.512 99.5531C126.951 99.0858 126.671 98.4278 126.671 97.5791V93.7019C126.671 93.5617 126.619 93.4443 126.515 93.3521C126.41 93.2586 126.285 93.2119 126.137 93.2119H125.973V93.0957H129.024V93.2119H128.862C128.715 93.2119 128.591 93.2586 128.49 93.3521C128.39 93.4455 128.34 93.5617 128.34 93.7019V97.497C128.34 98.2131 128.504 98.7739 128.833 99.1793C129.162 99.5847 129.623 99.7867 130.219 99.7867C130.815 99.7867 131.284 99.596 131.628 99.2146C131.972 98.8332 132.145 98.3041 132.145 97.6259V93.7019C132.137 93.5541 132.083 93.4354 131.983 93.3458C131.883 93.2561 131.759 93.2119 131.612 93.2119H131.461V93.0957H133.608V93.2119H133.606Z" fill="#F9F8F4"/>
<path d="M139.067 93.0948H142.327V93.211H142.13C141.951 93.211 141.803 93.2653 141.683 93.374C141.563 93.4826 141.499 93.6228 141.491 93.7945V98.898C141.491 99.3805 141.522 99.7783 141.584 100.089L141.606 100.252H141.502L136.178 95.5222V99.3881C136.186 99.5598 136.25 99.7013 136.37 99.8149C136.49 99.9273 136.638 99.9842 136.817 99.9842H137.014V100.1H133.766V99.9842H133.951C134.129 99.9842 134.28 99.9273 134.404 99.8149C134.528 99.7025 134.59 99.5598 134.59 99.3881V94.2492C134.59 93.7819 134.558 93.3967 134.497 93.0936L134.473 92.9307L134.577 92.942L139.89 97.6477V93.8071C139.89 93.6354 139.83 93.4939 139.711 93.3803C139.59 93.2679 139.442 93.211 139.264 93.211H139.067V93.0948Z" fill="#F9F8F4"/>
<path d="M149.043 94.7536V94.6488C149.043 94.3141 148.95 94.0489 148.764 93.8544C148.579 93.6599 148.32 93.5589 147.986 93.5513H146.64V99.3785C146.648 99.5503 146.713 99.6943 146.837 99.8104C146.961 99.9266 147.108 99.986 147.278 99.986H147.406V100.102H144.204V99.986H144.319C144.498 99.986 144.648 99.9279 144.772 99.8104C144.897 99.6943 144.958 99.5452 144.958 99.3672V93.5513H143.624C143.284 93.5589 143.021 93.6599 142.835 93.8544C142.65 94.0489 142.557 94.3141 142.557 94.6488V94.7536H142.441V92.9085C142.549 92.9476 142.73 92.9868 142.981 93.0247C143.232 93.0638 143.459 93.0828 143.66 93.0828H147.94C148.28 93.0828 148.561 93.0575 148.781 93.007C149.001 92.9565 149.127 92.9236 149.158 92.9072V94.7524H149.043V94.7536Z" fill="#F9F8F4"/>
<path d="M157.14 93.2129H156.99C156.789 93.2129 156.597 93.2672 156.415 93.3758C156.233 93.4844 156.085 93.6208 155.968 93.785L153.903 96.9853V99.3672C153.911 99.5389 153.977 99.6842 154.1 99.8054C154.225 99.9267 154.379 99.986 154.565 99.986H154.693V100.102H151.445V99.986H151.584C151.762 99.986 151.912 99.9254 152.037 99.8054C152.161 99.6842 152.226 99.5389 152.234 99.3672V96.9853L150.18 93.785C150.072 93.6145 149.927 93.4756 149.745 93.3707C149.563 93.2659 149.368 93.2129 149.159 93.2129H149.02V93.0967H152.546V93.2129H152.418C152.271 93.2129 152.165 93.2621 152.099 93.3594C152.034 93.4566 152 93.5387 152 93.6044C152 93.6701 152.015 93.7307 152.047 93.785L153.59 96.4713L155.155 93.785C155.178 93.7307 155.191 93.6701 155.191 93.6044C155.191 93.5387 155.158 93.4566 155.091 93.3594C155.026 93.2621 154.92 93.2129 154.773 93.2129H154.657V93.0967H157.14V93.2129Z" fill="#F9F8F4"/>
<path d="M108.81 106.232H73.5586V106.738H108.81V106.232Z" fill="#F9F8F4"/>
<path d="M57.0347 111.697L58.3595 115.082L59.0771 112.554C59.136 112.345 59.1661 112.185 59.1661 112.07C59.1661 111.992 59.1385 111.93 59.0833 111.885C59.0281 111.841 58.9265 111.819 58.776 111.819C58.7509 111.819 58.7246 111.817 58.697 111.815L58.7321 111.697H60.1108L60.0732 111.815C59.9302 111.812 59.8235 111.827 59.7533 111.859C59.6542 111.903 59.5801 111.961 59.5312 112.031C59.4635 112.13 59.3957 112.305 59.3255 112.552L58.3168 116.113H58.2027L56.7763 112.47L56.0135 115.16C55.9571 115.364 55.9282 115.52 55.9282 115.629C55.9282 115.71 55.9546 115.77 56.006 115.812C56.0574 115.854 56.1804 115.881 56.3748 115.897L56.3435 116.014H54.9961L55.04 115.897C55.2081 115.893 55.321 115.878 55.3787 115.852C55.4653 115.814 55.5293 115.764 55.5719 115.703C55.6334 115.61 55.7011 115.429 55.7777 115.162L56.6282 112.159C56.5454 112.032 56.4576 111.945 56.3648 111.897C56.2707 111.849 56.1252 111.822 55.927 111.816L55.9621 111.699H57.0347V111.697Z" fill="#F9F8F4"/>
<path d="M62.5389 113.134L61.9216 115.292L61.8526 115.581C61.8464 115.609 61.8426 115.632 61.8426 115.651C61.8426 115.685 61.8526 115.714 61.874 115.74C61.8903 115.759 61.9116 115.77 61.9367 115.77C61.9643 115.77 61.9994 115.753 62.0446 115.719C62.1274 115.657 62.2365 115.53 62.3733 115.336L62.4812 115.413C62.3356 115.634 62.1863 115.802 62.032 115.919C61.8777 116.035 61.736 116.092 61.6055 116.092C61.5152 116.092 61.4474 116.069 61.401 116.023C61.3559 115.978 61.3333 115.911 61.3333 115.824C61.3333 115.72 61.3559 115.583 61.4023 115.413L61.4688 115.175C61.1928 115.537 60.9381 115.791 60.706 115.936C60.5392 116.04 60.3761 116.093 60.2155 116.093C60.0612 116.093 59.9282 116.028 59.8165 115.9C59.7049 115.771 59.6484 115.594 59.6484 115.369C59.6484 115.032 59.7488 114.676 59.9508 114.301C60.1515 113.926 60.4074 113.626 60.7173 113.402C60.9594 113.223 61.189 113.134 61.4035 113.134C61.5327 113.134 61.6394 113.168 61.7247 113.236C61.81 113.304 61.8752 113.417 61.9191 113.573L62.0333 113.211L62.5389 113.134ZM61.4136 113.299C61.2781 113.299 61.1351 113.362 60.9833 113.49C60.7687 113.671 60.5768 113.938 60.4087 114.292C60.2406 114.646 60.1578 114.966 60.1578 115.253C60.1578 115.397 60.1942 115.512 60.2657 115.595C60.3372 115.679 60.42 115.722 60.5128 115.722C60.7424 115.722 60.992 115.551 61.2618 115.209C61.6218 114.754 61.8025 114.288 61.8025 113.811C61.8025 113.63 61.7673 113.5 61.6983 113.419C61.6293 113.338 61.534 113.299 61.4136 113.299Z" fill="#F9F8F4"/>
<path d="M64.4201 112.345L64.173 113.211H64.6697L64.6158 113.412H64.1228L63.5783 115.29C63.5194 115.492 63.4893 115.622 63.4893 115.681C63.4893 115.718 63.498 115.744 63.5143 115.765C63.5307 115.784 63.5507 115.794 63.5746 115.794C63.6273 115.794 63.6963 115.757 63.7828 115.683C63.833 115.64 63.9459 115.51 64.1215 115.291L64.2257 115.371C64.0312 115.655 63.848 115.856 63.6749 115.973C63.557 116.054 63.4378 116.094 63.3174 116.094C63.2246 116.094 63.1493 116.065 63.0891 116.007C63.0301 115.949 63 115.875 63 115.782C63 115.667 63.0339 115.493 63.1016 115.257L63.6298 113.413H63.1518L63.1832 113.289C63.4152 113.226 63.6084 113.13 63.7615 113.004C63.9145 112.878 64.0877 112.658 64.2771 112.346H64.4201V112.345Z" fill="#F9F8F4"/>
<path d="M67.5857 113.21L67.0349 115.108C66.9521 115.391 66.912 115.569 66.912 115.644C66.912 115.682 66.9183 115.711 66.9321 115.728C66.9459 115.746 66.9647 115.755 66.9873 115.755C67.0237 115.755 67.0625 115.738 67.1065 115.706C67.1504 115.673 67.2583 115.541 67.4339 115.313L67.5292 115.386C67.3624 115.651 67.1918 115.847 67.0174 115.972C66.902 116.053 66.7891 116.093 66.6824 116.093C66.5996 116.093 66.5356 116.069 66.4892 116.024C66.4428 115.977 66.4202 115.916 66.4202 115.842C66.4202 115.77 66.434 115.674 66.4616 115.555C66.4955 115.399 66.5908 115.056 66.7489 114.53C66.3901 115.122 66.0903 115.53 65.8494 115.756C65.6085 115.981 65.3839 116.093 65.1769 116.093C65.0803 116.093 64.9975 116.059 64.9298 115.991C64.8621 115.923 64.8282 115.837 64.8282 115.733C64.8282 115.574 64.8746 115.33 64.9674 115.001L65.2422 114.017C65.3099 113.781 65.3438 113.634 65.3438 113.577C65.3438 113.552 65.335 113.531 65.3175 113.512C65.2999 113.494 65.2798 113.485 65.2585 113.485C65.2146 113.485 65.1694 113.502 65.1255 113.533C65.0816 113.565 64.9812 113.682 64.8244 113.887L64.7266 113.817C64.8846 113.571 65.0527 113.389 65.2296 113.273C65.3651 113.182 65.4893 113.137 65.6022 113.137C65.68 113.137 65.744 113.162 65.7942 113.211C65.8431 113.262 65.8682 113.325 65.8682 113.404C65.8682 113.519 65.8256 113.724 65.7415 114.02L65.4442 115.048C65.3614 115.328 65.3212 115.505 65.3212 115.579C65.3212 115.62 65.335 115.652 65.3614 115.676C65.3877 115.7 65.4228 115.713 65.4668 115.713C65.5358 115.713 65.6273 115.678 65.739 115.608C65.8506 115.539 65.9999 115.382 66.1869 115.142C66.3738 114.902 66.5269 114.675 66.6485 114.464C66.7702 114.253 66.8995 113.917 67.0362 113.456L67.1052 113.214H67.5857V113.21Z" fill="#F9F8F4"/>
<path d="M68.1145 113.312L69.2059 113.134L68.7505 114.681C69.1194 114.046 69.4543 113.602 69.7567 113.35C69.9273 113.206 70.0665 113.134 70.1744 113.134C70.2434 113.134 70.2986 113.154 70.3388 113.196C70.3789 113.237 70.399 113.297 70.399 113.375C70.399 113.515 70.3626 113.649 70.2911 113.777C70.2409 113.873 70.1681 113.919 70.0728 113.919C70.0239 113.919 69.9825 113.903 69.9473 113.871C69.9122 113.84 69.8909 113.791 69.8821 113.725C69.8784 113.684 69.8683 113.658 69.8533 113.645C69.837 113.629 69.8169 113.62 69.793 113.62C69.7567 113.62 69.724 113.629 69.6914 113.645C69.6362 113.676 69.5534 113.758 69.4418 113.894C69.2661 114.102 69.0767 114.372 68.8722 114.702C68.7832 114.843 68.7079 115 68.6439 115.177C68.5548 115.42 68.5047 115.565 68.4921 115.613L68.3905 116.015H67.9062L68.4909 114.037C68.5586 113.808 68.5925 113.644 68.5925 113.547C68.5925 113.509 68.5762 113.477 68.5448 113.451C68.5021 113.417 68.4469 113.4 68.3767 113.4C68.3328 113.4 68.2512 113.41 68.1333 113.429L68.1145 113.312Z" fill="#F9F8F4"/>
<path d="M70.8286 114.815C70.8136 114.921 70.806 115.009 70.806 115.079C70.806 115.268 70.8725 115.429 71.0055 115.561C71.1385 115.694 71.2991 115.761 71.4898 115.761C71.6416 115.761 71.7871 115.729 71.9276 115.667C72.0681 115.604 72.2763 115.466 72.5523 115.252L72.6188 115.344C72.1195 115.843 71.6428 116.092 71.1887 116.092C70.8813 116.092 70.6492 115.994 70.4924 115.799C70.3368 115.603 70.2578 115.388 70.2578 115.152C70.2578 114.836 70.3544 114.512 70.5489 114.181C70.7433 113.85 70.9867 113.592 71.279 113.409C71.5726 113.226 71.8736 113.134 72.1835 113.134C72.4068 113.134 72.5724 113.179 72.6803 113.27C72.7882 113.361 72.8421 113.47 72.8421 113.595C72.8421 113.772 72.7731 113.94 72.6339 114.101C72.4507 114.311 72.181 114.481 71.8247 114.61C71.5889 114.699 71.2564 114.766 70.8286 114.815ZM70.8512 114.658C71.1636 114.622 71.417 114.561 71.614 114.474C71.8736 114.358 72.0681 114.217 72.1973 114.054C72.3265 113.892 72.3918 113.737 72.3918 113.591C72.3918 113.501 72.3642 113.429 72.3077 113.375C72.2513 113.319 72.1722 113.292 72.0694 113.292C71.8548 113.292 71.6265 113.407 71.3844 113.638C71.1423 113.869 70.9641 114.209 70.8512 114.658Z" fill="#F9F8F4"/>
<path d="M74.1992 112.889C74.3573 112.82 74.4865 112.728 74.5856 112.615C74.6609 112.531 74.6998 112.45 74.6998 112.373C74.6998 112.332 74.6935 112.296 74.681 112.264C74.6722 112.248 74.6433 112.214 74.5919 112.162C74.5404 112.11 74.5128 112.076 74.5066 112.057C74.4915 112.023 74.484 111.981 74.484 111.933C74.484 111.842 74.5154 111.764 74.5768 111.697C74.6396 111.631 74.7123 111.599 74.7964 111.599C74.8829 111.599 74.9595 111.634 75.0259 111.703C75.0924 111.773 75.125 111.861 75.125 111.967C75.125 112.157 75.051 112.348 74.9043 112.541C74.7575 112.734 74.543 112.883 74.2619 112.989L74.1992 112.889Z" fill="#F9F8F4"/>
<path d="M76.6028 113.134L76.4096 114.111H76.2929C76.2829 113.827 76.2226 113.62 76.1122 113.49C76.0031 113.36 75.8663 113.295 75.7045 113.295C75.574 113.295 75.4699 113.332 75.3934 113.404C75.3169 113.476 75.278 113.563 75.278 113.665C75.278 113.735 75.293 113.802 75.3244 113.866C75.3545 113.929 75.4222 114.019 75.5251 114.134C75.7986 114.436 75.9767 114.662 76.057 114.815C76.1373 114.968 76.1775 115.112 76.1775 115.248C76.1775 115.469 76.0859 115.665 75.904 115.835C75.7221 116.006 75.4912 116.092 75.2127 116.092C75.0609 116.092 74.8853 116.055 74.6883 115.983C74.6193 115.958 74.5654 115.945 74.5265 115.945C74.4312 115.945 74.3597 115.994 74.312 116.092H74.1953L74.3885 115.06H74.5052C74.5177 115.383 74.5842 115.61 74.7047 115.744C74.8251 115.878 74.9894 115.945 75.1977 115.945C75.3583 115.945 75.485 115.9 75.5791 115.81C75.6731 115.72 75.7196 115.609 75.7196 115.478C75.7196 115.393 75.7033 115.315 75.6694 115.242C75.6104 115.114 75.4862 114.939 75.298 114.712C75.1099 114.488 74.9882 114.318 74.9342 114.206C74.8803 114.094 74.8539 113.981 74.8539 113.869C74.8539 113.663 74.928 113.489 75.0772 113.347C75.2265 113.205 75.4172 113.134 75.6518 113.134C75.7196 113.134 75.7798 113.139 75.835 113.15C75.8651 113.157 75.9341 113.181 76.042 113.222C76.1511 113.264 76.2226 113.284 76.259 113.284C76.3493 113.284 76.4259 113.235 76.4873 113.135H76.6028V113.134Z" fill="#F9F8F4"/>
<path d="M81.6141 111.6L81.2879 115.192C81.2716 115.36 81.2629 115.47 81.2629 115.523C81.2629 115.607 81.2792 115.672 81.3105 115.717C81.3507 115.779 81.4046 115.824 81.4736 115.853C81.5426 115.884 81.658 115.898 81.8199 115.898L81.7847 116.015H80.0961L80.1313 115.898H80.204C80.3408 115.898 80.4524 115.867 80.539 115.808C80.6005 115.768 80.6481 115.701 80.6808 115.607C80.7033 115.542 80.7259 115.386 80.7472 115.142L80.7974 114.594H79.5705L79.1339 115.189C79.0348 115.323 78.9721 115.419 78.947 115.477C78.9219 115.535 78.9094 115.59 78.9094 115.641C78.9094 115.709 78.937 115.768 78.9922 115.817C79.0474 115.866 79.1377 115.893 79.2644 115.896L79.2293 116.014H77.9609L77.9961 115.896C78.1516 115.89 78.2896 115.837 78.4088 115.739C78.528 115.64 78.7061 115.429 78.942 115.107L81.5037 111.599H81.6141V111.6ZM80.9881 112.66L79.7449 114.363H80.8238L80.9881 112.66Z" fill="#F9F8F4"/>
<path d="M84.1022 111.488L83.4787 113.688C83.6807 113.476 83.8576 113.331 84.0081 113.253C84.1587 113.174 84.3167 113.135 84.4811 113.135C84.7132 113.135 84.9026 113.212 85.0506 113.367C85.1987 113.523 85.2714 113.732 85.2714 113.998C85.2714 114.34 85.1748 114.68 84.9804 115.018C84.7859 115.357 84.5426 115.621 84.2503 115.809C83.9567 115.998 83.6682 116.092 83.3834 116.092C83.0647 116.092 82.7386 115.972 82.4023 115.732L83.3633 112.398C83.4373 112.141 83.4737 111.99 83.4737 111.945C83.4737 111.89 83.4574 111.849 83.4235 111.822C83.3746 111.784 83.3031 111.765 83.209 111.765C83.1651 111.765 83.0973 111.772 83.007 111.788V111.666L84.1022 111.488ZM82.8778 115.767C83.0886 115.883 83.2742 115.943 83.4348 115.943C83.6205 115.943 83.8124 115.874 84.0119 115.737C84.2114 115.6 84.3845 115.369 84.53 115.045C84.6755 114.72 84.7496 114.392 84.7496 114.061C84.7496 113.865 84.7019 113.712 84.6053 113.602C84.5087 113.493 84.3958 113.437 84.2653 113.437C84.0696 113.437 83.8777 113.517 83.6895 113.674C83.5013 113.832 83.3683 114.053 83.288 114.335L82.8778 115.767Z" fill="#F9F8F4"/>
<path d="M88.4679 114.131C88.4679 114.449 88.3839 114.765 88.217 115.076C88.0489 115.388 87.8156 115.636 87.517 115.818C87.2172 116.001 86.9261 116.092 86.6438 116.092C86.3553 116.092 86.1195 115.998 85.9375 115.813C85.7556 115.627 85.6641 115.387 85.6641 115.092C85.6641 114.78 85.7531 114.466 85.9313 114.152C86.1094 113.838 86.3478 113.59 86.6464 113.407C86.9449 113.224 87.2335 113.133 87.5107 113.133C87.7892 113.133 88.0188 113.225 88.1982 113.409C88.3776 113.595 88.4679 113.835 88.4679 114.131ZM87.9435 113.911C87.9435 113.714 87.8959 113.562 87.7993 113.457C87.7027 113.353 87.5797 113.3 87.4279 113.3C87.1181 113.3 86.8333 113.523 86.5723 113.97C86.3114 114.417 86.1822 114.862 86.1822 115.303C86.1822 115.505 86.2324 115.66 86.334 115.769C86.4356 115.878 86.5623 115.933 86.7166 115.933C87.0139 115.933 87.2924 115.71 87.5534 115.266C87.8131 114.821 87.9435 114.369 87.9435 113.911Z" fill="#F9F8F4"/>
<path d="M92.2142 111.488L91.1265 115.245C91.0676 115.449 91.0375 115.583 91.0375 115.647C91.0375 115.669 91.0462 115.689 91.0638 115.708C91.0814 115.727 91.1002 115.737 91.119 115.737C91.1466 115.737 91.1792 115.723 91.2168 115.695C91.2884 115.645 91.4088 115.517 91.5769 115.312L91.6848 115.379C91.533 115.591 91.3799 115.763 91.2244 115.895C91.0688 116.026 90.9246 116.092 90.7891 116.092C90.7176 116.092 90.6586 116.066 90.6122 116.015C90.5658 115.963 90.5432 115.892 90.5432 115.799C90.5432 115.677 90.5745 115.516 90.6385 115.311L90.7615 114.916C90.4554 115.391 90.1769 115.72 89.926 115.902C89.7528 116.027 89.5872 116.09 89.4292 116.09C89.2686 116.09 89.1294 116.018 89.0102 115.876C88.891 115.733 88.832 115.537 88.832 115.291C88.832 114.975 88.9324 114.637 89.1319 114.278C89.3326 113.919 89.5973 113.628 89.926 113.403C90.1856 113.222 90.424 113.133 90.641 113.133C90.7552 113.133 90.853 113.155 90.9346 113.202C91.0174 113.249 91.0977 113.326 91.178 113.434L91.4878 112.327C91.5104 112.249 91.5305 112.185 91.5443 112.139C91.5694 112.054 91.5819 111.983 91.5819 111.929C91.5819 111.885 91.5656 111.847 91.5342 111.818C91.4903 111.781 91.4326 111.764 91.3636 111.764C91.3147 111.764 91.2344 111.771 91.1228 111.786V111.669L92.2142 111.488ZM91.0412 113.748C91.0412 113.611 91.0023 113.503 90.9246 113.419C90.8468 113.336 90.7477 113.296 90.6272 113.296C90.3613 113.296 90.0853 113.517 89.7967 113.957C89.5082 114.398 89.3652 114.821 89.3652 115.224C89.3652 115.383 89.4003 115.504 89.4693 115.589C89.5383 115.674 89.6224 115.715 89.719 115.715C89.9385 115.715 90.2132 115.477 90.5444 114.999C90.8756 114.522 91.0412 114.105 91.0412 113.748Z" fill="#F9F8F4"/>
<path d="M92.7193 114.815C92.7042 114.921 92.6967 115.009 92.6967 115.079C92.6967 115.268 92.7632 115.429 92.8961 115.561C93.0291 115.694 93.1897 115.761 93.3804 115.761C93.5322 115.761 93.6777 115.729 93.8182 115.667C93.9587 115.604 94.167 115.466 94.443 115.252L94.5095 115.344C94.0102 115.843 93.5334 116.092 93.0793 116.092C92.7719 116.092 92.5399 115.994 92.383 115.799C92.2275 115.603 92.1484 115.388 92.1484 115.152C92.1484 114.836 92.245 114.512 92.4395 114.181C92.6339 113.85 92.8773 113.592 93.1696 113.409C93.4632 113.226 93.7643 113.134 94.0741 113.134C94.2975 113.134 94.463 113.179 94.5709 113.27C94.6788 113.361 94.7328 113.47 94.7328 113.595C94.7328 113.772 94.6638 113.94 94.5245 114.101C94.3414 114.311 94.0716 114.481 93.7154 114.61C93.4795 114.699 93.147 114.766 92.7193 114.815ZM92.7406 114.658C93.053 114.622 93.3064 114.561 93.5033 114.474C93.763 114.358 93.9575 114.217 94.0867 114.054C94.2159 113.892 94.2811 113.737 94.2811 113.591C94.2811 113.501 94.2535 113.429 94.1971 113.375C94.1406 113.319 94.0616 113.292 93.9587 113.292C93.7442 113.292 93.5159 113.407 93.2738 113.638C93.0329 113.869 92.8547 114.209 92.7406 114.658Z" fill="#F9F8F4"/>
<path d="M98.3848 114.387L98.2556 114.81H96.6172L96.7464 114.387H98.3848Z" fill="#F9F8F4"/>
<path d="M101.503 115.755C101.593 115.755 101.671 115.722 101.736 115.657C101.8 115.593 101.835 115.515 101.838 115.422V112.49C101.83 112.399 101.805 112.332 101.759 112.29C101.674 112.213 101.589 112.174 101.503 112.174H101.435V112.121H103.438C103.609 112.121 103.751 112.108 103.862 112.082C103.974 112.055 104.042 112.038 104.067 112.026V112.948L104.014 112.943V112.885C104.014 112.668 103.934 112.513 103.773 112.422C103.697 112.376 103.606 112.351 103.501 112.348H102.623V113.88H103.313C103.442 113.877 103.549 113.832 103.632 113.746C103.716 113.661 103.757 113.555 103.757 113.428V113.38H103.81V114.596H103.757V114.555C103.757 114.425 103.716 114.317 103.634 114.234C103.552 114.149 103.448 114.106 103.323 114.103H102.622V115.583H103.307C103.561 115.583 103.775 115.51 103.948 115.362C104.121 115.214 104.249 115.006 104.332 114.735H104.384L104.143 115.81H101.434V115.757H101.503V115.755Z" fill="#F9F8F4"/>
<path d="M104.758 115.377C104.758 115.149 104.808 114.954 104.91 114.792H104.951C104.947 114.816 104.946 114.84 104.946 114.861C104.946 115.075 105.021 115.262 105.173 115.424C105.325 115.586 105.537 115.666 105.809 115.666C106.005 115.666 106.155 115.621 106.262 115.53C106.369 115.439 106.421 115.337 106.421 115.224C106.421 115.112 106.391 115.021 106.33 114.953C106.268 114.885 106.168 114.805 106.029 114.713L105.286 114.239C104.972 114.042 104.816 113.79 104.816 113.482C104.816 113.45 104.817 113.417 104.821 113.382C104.842 113.133 104.937 112.937 105.108 112.794C105.278 112.652 105.48 112.581 105.713 112.581C105.945 112.581 106.189 112.597 106.448 112.629H106.73L106.657 113.324H106.609C106.609 113.158 106.553 113.029 106.439 112.935C106.326 112.84 106.175 112.792 105.989 112.792C105.802 112.792 105.655 112.831 105.547 112.911C105.439 112.99 105.385 113.094 105.385 113.224C105.385 113.329 105.438 113.421 105.542 113.498C105.583 113.53 105.645 113.57 105.725 113.619L106.557 114.136C106.843 114.311 106.986 114.554 106.986 114.862C106.986 115.188 106.872 115.439 106.643 115.615C106.415 115.79 106.119 115.877 105.756 115.877C105.533 115.877 105.336 115.851 105.166 115.798C104.995 115.745 104.869 115.678 104.789 115.598C104.768 115.535 104.758 115.462 104.758 115.377Z" fill="#F9F8F4"/>
<path d="M110.17 113.397V113.349C110.17 113.197 110.128 113.078 110.044 112.991C109.96 112.904 109.844 112.857 109.694 112.855H109.087V115.482C109.091 115.559 109.12 115.624 109.176 115.676C109.231 115.729 109.298 115.756 109.374 115.756H109.432V115.809H107.988V115.756H108.041C108.121 115.756 108.189 115.729 108.245 115.676C108.302 115.623 108.329 115.556 108.329 115.477V112.855H107.728C107.575 112.859 107.456 112.904 107.373 112.991C107.289 113.078 107.248 113.198 107.248 113.349V113.397H107.195V112.564C107.244 112.582 107.326 112.6 107.439 112.617C107.552 112.635 107.654 112.644 107.745 112.644H109.674C109.827 112.644 109.954 112.633 110.053 112.61C110.152 112.587 110.209 112.572 110.224 112.566V113.398H110.17V113.397Z" fill="#F9F8F4"/>
<path d="M113.578 113.069C113.896 113.348 114.054 113.735 114.054 114.23C114.054 114.725 113.894 115.111 113.578 115.39C113.262 115.669 112.822 115.808 112.26 115.808H110.492V115.755H110.56C110.64 115.755 110.708 115.728 110.764 115.671C110.82 115.615 110.85 115.548 110.853 115.471V112.976C110.846 112.899 110.815 112.833 110.759 112.781C110.704 112.729 110.635 112.701 110.555 112.701H110.492V112.648H112.26C112.822 112.65 113.261 112.79 113.578 113.069ZM112.198 115.599C112.526 115.599 112.785 115.477 112.975 115.235C113.164 114.993 113.26 114.658 113.26 114.23C113.26 113.802 113.164 113.466 112.975 113.222C112.785 112.978 112.526 112.856 112.198 112.856H111.607V115.599H112.198Z" fill="#F9F8F4"/>
<path d="M117.267 115.757H117.378V115.81H115.797V115.757H115.907C115.988 115.757 116.057 115.729 116.114 115.672C116.172 115.616 116.201 115.549 116.201 115.472V112.761C116.201 112.546 116.098 112.44 115.892 112.44H115.762V112.387C116.302 112.342 116.691 112.229 116.928 112.05H116.981V115.477C116.981 115.554 117.009 115.62 117.065 115.674C117.119 115.73 117.187 115.757 117.267 115.757Z" fill="#F9F8F4"/>
<path d="M119.128 114.113C119.271 114.113 119.392 114.062 119.494 113.96L119.53 114.008C119.468 114.113 119.38 114.201 119.269 114.271C119.109 114.373 118.938 114.424 118.756 114.424C118.533 114.424 118.331 114.353 118.149 114.213C118.041 114.132 117.953 114.016 117.888 113.863C117.822 113.71 117.789 113.536 117.789 113.339C117.789 112.956 117.907 112.649 118.144 112.417C118.389 112.182 118.734 112.064 119.18 112.064C119.78 112.064 120.19 112.304 120.41 112.786C120.525 113.034 120.583 113.336 120.583 113.689C120.583 114.041 120.534 114.36 120.436 114.645C120.227 115.258 119.84 115.67 119.274 115.877C119.02 115.968 118.737 116.014 118.428 116.014C118.369 116.014 118.307 116.012 118.244 116.009L118.223 115.972C118.707 115.824 119.069 115.606 119.306 115.314C119.508 115.065 119.633 114.725 119.682 114.297C119.703 114.114 119.714 113.902 119.714 113.661C119.714 113.197 119.673 112.858 119.593 112.642C119.513 112.426 119.366 112.318 119.154 112.318C119.018 112.318 118.907 112.364 118.819 112.455C118.668 112.609 118.594 112.869 118.594 113.234C118.594 113.778 118.741 114.067 119.034 114.103C119.065 114.11 119.096 114.113 119.128 114.113Z" fill="#F9F8F4"/>
<path d="M122.417 114.113C122.56 114.113 122.681 114.062 122.783 113.96L122.819 114.008C122.757 114.113 122.669 114.201 122.558 114.271C122.398 114.373 122.227 114.424 122.045 114.424C121.822 114.424 121.62 114.353 121.438 114.213C121.33 114.132 121.242 114.016 121.177 113.863C121.111 113.71 121.078 113.536 121.078 113.339C121.078 112.956 121.196 112.649 121.433 112.417C121.678 112.182 122.023 112.064 122.469 112.064C123.069 112.064 123.479 112.304 123.699 112.786C123.814 113.034 123.872 113.336 123.872 113.689C123.872 114.041 123.823 114.36 123.725 114.645C123.516 115.258 123.129 115.67 122.563 115.877C122.309 115.968 122.027 116.014 121.717 116.014C121.658 116.014 121.596 116.012 121.534 116.009L121.512 115.972C121.996 115.824 122.358 115.606 122.595 115.314C122.797 115.065 122.922 114.725 122.971 114.297C122.993 114.114 123.003 113.902 123.003 113.661C123.003 113.197 122.962 112.858 122.882 112.642C122.802 112.426 122.655 112.318 122.443 112.318C122.308 112.318 122.196 112.364 122.108 112.455C121.958 112.609 121.884 112.869 121.884 113.234C121.884 113.778 122.03 114.067 122.323 114.103C122.354 114.11 122.385 114.113 122.417 114.113Z" fill="#F9F8F4"/>
<path d="M125.806 113.841C125.666 113.841 125.546 113.89 125.444 113.988L125.408 113.947C125.506 113.785 125.65 113.668 125.842 113.594C125.954 113.553 126.06 113.531 126.161 113.531C126.262 113.531 126.355 113.541 126.44 113.56C126.526 113.579 126.612 113.617 126.699 113.674C126.999 113.871 127.148 114.192 127.148 114.637C127.148 114.989 127.031 115.284 126.798 115.522C126.553 115.768 126.21 115.89 125.766 115.89C125.321 115.89 124.975 115.753 124.727 115.477C124.48 115.202 124.355 114.795 124.355 114.259C124.355 113.56 124.547 112.994 124.931 112.564C125.119 112.353 125.353 112.197 125.633 112.095C125.911 111.993 126.211 111.942 126.532 111.942C126.585 111.942 126.639 111.944 126.694 111.947L126.715 111.984C126.227 112.138 125.865 112.359 125.628 112.647C125.426 112.896 125.3 113.237 125.251 113.669C125.234 113.848 125.225 114.062 125.225 114.312C125.225 114.761 125.265 115.095 125.345 115.312C125.426 115.529 125.572 115.638 125.784 115.638C125.92 115.638 126.032 115.592 126.119 115.501C126.269 115.343 126.344 115.082 126.344 114.717C126.344 114.18 126.2 113.892 125.91 113.853C125.876 113.843 125.841 113.841 125.806 113.841Z" fill="#F9F8F4"/>
<path d="M67.7484 121.375C67.7484 121.537 67.7158 121.687 67.6506 121.826C67.5301 122.086 67.3194 122.268 67.017 122.37C66.9117 122.407 66.8201 122.426 66.7435 122.426C66.5177 122.426 66.3233 122.384 66.1589 122.3V122.244C66.4249 122.302 66.6708 122.273 66.8953 122.156C67.0948 122.053 67.2316 121.884 67.3043 121.65C67.3256 121.577 67.3369 121.508 67.3369 121.442C67.3369 121.376 67.3369 121.336 67.3369 121.321C67.3294 121.064 67.2629 120.86 67.135 120.708C67.007 120.557 66.8289 120.48 66.6005 120.48H65.9733V123.761C65.977 123.855 66.0122 123.938 66.0799 124.006C66.1476 124.074 66.2279 124.107 66.3233 124.107H66.3948V124.162H65.1992V124.107H65.2707C65.3648 124.107 65.4464 124.073 65.5141 124.006C65.5819 123.938 65.617 123.857 65.6207 123.761V120.689C65.6095 120.598 65.5718 120.521 65.5066 120.461C65.4413 120.4 65.3623 120.37 65.272 120.37H65.2067L65.2017 120.315H66.6269C66.9769 120.315 67.2504 120.41 67.4511 120.598C67.6481 120.787 67.7484 121.045 67.7484 121.375Z" fill="#F9F8F4"/>
<path d="M68.3421 124.11C68.43 124.11 68.5027 124.082 68.5629 124.025C68.6232 123.968 68.6545 123.9 68.6583 123.819V121.209C68.6583 121.128 68.6269 121.061 68.5655 121.005C68.504 120.951 68.4287 120.923 68.3421 120.923H68.2656V120.868H69.8601C70.0094 120.868 70.1399 120.856 70.2528 120.835C70.3657 120.813 70.4385 120.794 70.4711 120.779V121.406L70.4109 121.401V121.319C70.4109 121.242 70.3858 121.176 70.3343 121.12C70.2829 121.065 70.2177 121.038 70.1374 121.038H69.002V122.434H69.9354C70.0082 122.434 70.0634 122.412 70.1023 122.368C70.1399 122.324 70.16 122.27 70.16 122.203V122.131H70.2202V122.9H70.16V122.828C70.16 122.725 70.1223 122.656 70.0458 122.619C70.017 122.608 69.9856 122.602 69.953 122.598H69.0033V123.993H69.8601C70.027 123.993 70.1687 123.964 70.2829 123.905C70.3971 123.846 70.4849 123.776 70.5451 123.697C70.6053 123.616 70.6655 123.51 70.7283 123.378H70.7835L70.4836 124.164H68.2669V124.108H68.3421V124.11Z" fill="#F9F8F4"/>
<path d="M74.9168 120.922C74.8365 120.922 74.7675 120.948 74.7098 121.001C74.6521 121.054 74.6207 121.12 74.617 121.196V123.537C74.617 123.75 74.6295 123.952 74.6546 124.142L74.6659 124.241H74.617L71.7779 121.532V123.823C71.7779 123.904 71.8068 123.971 71.8657 124.026C71.9235 124.082 71.995 124.108 72.079 124.108H72.1719V124.164H71.1406V124.108H71.2335C71.3175 124.108 71.3878 124.081 71.4467 124.026C71.5044 123.971 71.5345 123.904 71.5345 123.823V121.471C71.5345 121.248 71.522 121.048 71.4969 120.873L71.4856 120.784L71.5458 120.789L74.3786 123.477V121.196C74.3711 121.119 74.3384 121.054 74.2807 121.001C74.223 120.948 74.1528 120.922 74.0737 120.922H73.9809V120.866H75.0121V120.922H74.9168Z" fill="#F9F8F4"/>
<path d="M79.116 120.922C79.0357 120.922 78.9667 120.948 78.909 121.001C78.8513 121.054 78.8199 121.12 78.8162 121.196V123.537C78.8162 123.75 78.8287 123.952 78.8538 124.142L78.8651 124.241H78.8162L75.9771 121.532V123.823C75.9771 123.904 76.006 123.971 76.065 124.026C76.1227 124.082 76.1942 124.108 76.2782 124.108H76.3711V124.164H75.3398V124.108H75.4327C75.5167 124.108 75.587 124.081 75.646 124.026C75.7037 123.971 75.7338 123.904 75.7338 123.823V121.471C75.7338 121.248 75.7212 121.048 75.6961 120.873L75.6848 120.784L75.7451 120.789L78.5778 123.477V121.196C78.5703 121.119 78.5377 121.054 78.48 121.001C78.4222 120.948 78.352 120.922 78.273 120.922H78.1801V120.866H79.2113V120.922H79.116Z" fill="#F9F8F4"/>
<path d="M79.7155 123.983C79.7042 123.939 79.6992 123.849 79.6992 123.714C79.6992 123.579 79.7231 123.441 79.7707 123.302H79.836C79.8322 123.335 79.8309 123.368 79.8309 123.401C79.8309 123.599 79.8949 123.761 80.0241 123.887C80.1534 124.013 80.3328 124.076 80.5623 124.076C80.802 124.076 80.9901 124.021 81.1244 123.909C81.2586 123.797 81.3263 123.652 81.3263 123.474C81.3263 123.296 81.2611 123.149 81.1294 123.032L80.0379 122.186C79.8636 122.036 79.7757 121.834 79.7757 121.581C79.7757 121.438 79.8146 121.306 79.8937 121.186C79.9715 121.064 80.0806 120.968 80.2211 120.896C80.3616 120.824 80.526 120.789 80.7154 120.789C80.9048 120.789 81.0717 120.805 81.2172 120.838H81.3979L81.4091 121.437H81.3489C81.3489 121.283 81.2962 121.164 81.1909 121.08C81.0855 120.995 80.9349 120.953 80.738 120.953C80.541 120.953 80.3792 121.004 80.2525 121.105C80.1245 121.206 80.0618 121.336 80.0618 121.495C80.0618 121.654 80.1333 121.793 80.275 121.911L81.3778 122.768C81.5446 122.907 81.6287 123.102 81.6287 123.35C81.6287 123.599 81.5346 123.81 81.3477 123.982C81.1607 124.154 80.9324 124.239 80.6627 124.239C80.4846 124.239 80.3064 124.218 80.1283 124.174C79.9464 124.131 79.8096 124.066 79.7155 123.983Z" fill="#F9F8F4"/>
<path d="M85.4423 120.921H85.3771C85.2792 120.921 85.1852 120.948 85.0961 121.001C85.007 121.054 84.933 121.121 84.8753 121.201L83.8278 122.8V123.812C83.8278 123.893 83.8591 123.962 83.9206 124.02C83.9821 124.078 84.0573 124.109 84.1439 124.109H84.2091V124.164H83.0901V124.109H83.1553C83.2431 124.109 83.3172 124.08 83.3786 124.02C83.4401 123.962 83.4715 123.893 83.4715 123.812V122.795L82.4616 121.196C82.3374 121.013 82.1705 120.921 81.9598 120.921H81.8945V120.866H83.1616V120.921H83.0964C83.0274 120.921 82.9772 120.943 82.9458 120.987C82.9145 121.031 82.8994 121.069 82.8994 121.099C82.8994 121.131 82.9032 121.159 82.9107 121.184L83.7073 122.607L84.5541 121.189C84.5654 121.16 84.5704 121.129 84.5704 121.098C84.5704 121.066 84.5554 121.03 84.524 120.985C84.4927 120.941 84.4412 120.92 84.3685 120.92H84.3032V120.864H85.4436V120.921H85.4423Z" fill="#F9F8F4"/>
<path d="M85.7914 124.109C85.8792 124.109 85.952 124.081 86.0122 124.025C86.0724 123.968 86.1037 123.9 86.1075 123.819V121.22C86.1037 121.139 86.0699 121.069 86.0071 121.011C85.9432 120.953 85.8679 120.923 85.7801 120.923H85.7148V120.867H86.8452V120.923H86.7799C86.6921 120.923 86.6168 120.952 86.5529 121.011C86.4889 121.071 86.4575 121.14 86.4575 121.22V123.994H87.3093C87.4762 123.994 87.618 123.965 87.7346 123.906C87.8513 123.848 87.9391 123.777 87.9993 123.697C88.0595 123.618 88.1185 123.511 88.1762 123.379H88.2314L87.9316 124.165H85.7148V124.109H85.7914Z" fill="#F9F8F4"/>
<path d="M91.4597 120.922H91.4158C91.3355 120.922 91.2577 120.948 91.1812 121.001C91.1046 121.054 91.0394 121.134 90.9842 121.24C90.1901 122.955 89.7773 123.852 89.7447 123.933C89.6833 124.087 89.6506 124.189 89.6469 124.241H89.5979L88.2493 121.246C88.1439 121.03 88.0034 120.922 87.8291 120.922H87.7852V120.866H88.9042V120.922H88.8603C88.7913 120.922 88.7399 120.947 88.7047 120.996C88.6696 121.046 88.6533 121.091 88.6533 121.131C88.6533 121.172 88.6583 121.214 88.6696 121.258L89.6469 123.654L90.6518 121.269C90.6693 121.221 90.6794 121.177 90.6794 121.134C90.6794 121.092 90.6605 121.046 90.6254 120.996C90.589 120.947 90.5338 120.922 90.4611 120.922H90.4234V120.866H91.4609V120.922H91.4597Z" fill="#F9F8F4"/>
<path d="M94.5668 124.109H94.6108V124.165H93.4917V124.109H93.5356C93.6046 124.109 93.6573 124.085 93.6937 124.037C93.7301 123.989 93.7476 123.945 93.7476 123.902C93.7476 123.86 93.7401 123.819 93.7263 123.778L93.4265 123.047H92.0453L91.7454 123.762C91.7266 123.81 91.7178 123.854 91.7178 123.897C91.7178 123.939 91.7354 123.985 91.773 124.035C91.8094 124.084 91.8633 124.109 91.9361 124.109H91.98V124.165H90.9375V124.109H90.9814C91.0579 124.109 91.1345 124.083 91.2135 124.029C91.2913 123.976 91.3565 123.897 91.4067 123.791C92.2033 122.076 92.6186 121.179 92.6512 121.098C92.7127 120.944 92.7453 120.842 92.749 120.79H92.798L94.1466 123.791C94.252 124.003 94.3925 124.109 94.5668 124.109ZM92.1168 122.883H93.3612L92.7503 121.377L92.1168 122.883Z" fill="#F9F8F4"/>
<path d="M98.5534 120.922C98.4731 120.922 98.4041 120.948 98.3464 121.001C98.2887 121.054 98.2574 121.12 98.2536 121.196V123.537C98.2536 123.75 98.2661 123.952 98.2912 124.142L98.3025 124.241H98.2536L95.4146 121.532V123.823C95.4146 123.904 95.4435 123.971 95.5025 124.026C95.5602 124.082 95.6317 124.108 95.7157 124.108H95.8086V124.164H94.7773V124.108H94.8702C94.9542 124.108 95.0245 124.081 95.0834 124.026C95.1412 123.971 95.1713 123.904 95.1713 123.823V121.471C95.1713 121.248 95.1587 121.048 95.1336 120.873L95.1223 120.784L95.1826 120.789L98.0152 123.477V121.196C98.0077 121.119 97.9751 121.054 97.9174 121.001C97.8597 120.948 97.7894 120.922 97.7104 120.922H97.6176V120.866H98.6488V120.922H98.5534Z" fill="#F9F8F4"/>
<path d="M99.2118 124.109C99.3097 124.109 99.395 124.08 99.469 124.021C99.5418 123.963 99.5782 123.893 99.5782 123.813V121.219C99.5782 121.138 99.5418 121.068 99.469 121.01C99.3963 120.952 99.3084 120.922 99.2068 120.922H99.1353V120.866H100.369V120.922H100.297C100.199 120.922 100.114 120.95 100.044 121.004C99.9721 121.059 99.9332 121.126 99.9257 121.207V123.818C99.9294 123.898 99.9671 123.967 100.04 124.023C100.113 124.08 100.198 124.108 100.296 124.108H100.367L100.372 124.164H99.1328V124.108H99.2118V124.109Z" fill="#F9F8F4"/>
<path d="M104.274 124.109H104.318V124.165H103.199V124.109H103.243C103.312 124.109 103.364 124.085 103.401 124.037C103.437 123.989 103.455 123.945 103.455 123.902C103.455 123.86 103.447 123.819 103.433 123.778L103.134 123.047H101.752L101.452 123.762C101.434 123.81 101.425 123.854 101.425 123.897C101.425 123.939 101.442 123.985 101.48 124.035C101.516 124.084 101.57 124.109 101.643 124.109H101.687V124.165H100.645V124.109H100.688C100.765 124.109 100.841 124.083 100.921 124.029C100.998 123.976 101.064 123.897 101.114 123.791C101.91 122.076 102.326 121.179 102.358 121.098C102.42 120.944 102.452 120.842 102.456 120.79H102.505L103.854 123.791C103.959 124.003 104.099 124.109 104.274 124.109ZM101.823 122.883H103.067L102.456 121.377L101.823 122.883Z" fill="#F9F8F4"/>
<path d="M104.535 124.609C104.633 124.576 104.699 124.531 104.735 124.472C104.77 124.412 104.786 124.369 104.786 124.34C104.786 124.248 104.75 124.162 104.677 124.083C104.622 124.017 104.592 123.971 104.584 123.945C104.573 123.893 104.577 123.846 104.595 123.802C104.628 123.729 104.688 123.692 104.776 123.692C104.885 123.692 104.959 123.743 104.999 123.844C105.039 123.945 105.06 124.026 105.06 124.089C105.06 124.28 104.992 124.427 104.858 124.534C104.766 124.611 104.663 124.651 104.546 124.655L104.535 124.609Z" fill="#F9F8F4"/>
<path d="M110.677 120.372H110.589C110.513 120.372 110.446 120.397 110.39 120.446C110.333 120.496 110.303 120.558 110.3 120.631V122.807C110.3 123.235 110.165 123.582 109.896 123.845C109.626 124.109 109.268 124.24 108.821 124.24C108.373 124.24 108.01 124.109 107.732 123.848C107.453 123.586 107.314 123.24 107.314 122.812V120.646C107.314 120.536 107.266 120.455 107.172 120.404C107.128 120.382 107.079 120.371 107.025 120.371H106.938V120.316H108.045V120.371H107.957C107.877 120.371 107.811 120.396 107.755 120.445C107.7 120.494 107.671 120.558 107.668 120.635V122.734C107.668 123.133 107.774 123.455 107.986 123.701C108.2 123.946 108.484 124.07 108.841 124.07C109.197 124.07 109.487 123.954 109.709 123.721C109.931 123.489 110.041 123.183 110.041 122.806V120.635C110.037 120.558 110.009 120.494 109.953 120.445C109.899 120.396 109.832 120.371 109.751 120.371H109.664V120.316H110.673V120.372H110.677Z" fill="#F9F8F4"/>
<path d="M111.282 123.938C111.271 123.887 111.266 123.788 111.266 123.642C111.266 123.495 111.293 123.34 111.347 123.174H111.396C111.392 123.215 111.391 123.255 111.391 123.296C111.391 123.519 111.459 123.705 111.593 123.854C111.727 124.003 111.905 124.076 112.127 124.076C112.357 124.076 112.545 124.007 112.692 123.868C112.839 123.729 112.913 123.553 112.913 123.342C112.913 123.131 112.841 122.961 112.7 122.828L111.652 121.849C111.455 121.666 111.357 121.444 111.357 121.185C111.357 120.926 111.444 120.703 111.617 120.517C111.79 120.331 112.023 120.239 112.318 120.239C112.456 120.239 112.613 120.258 112.787 120.294H113.001V120.969H112.952C112.952 120.797 112.893 120.66 112.775 120.558C112.657 120.455 112.505 120.403 112.319 120.403C112.134 120.403 111.978 120.465 111.853 120.59C111.727 120.715 111.665 120.871 111.665 121.058C111.665 121.245 111.737 121.406 111.883 121.541L112.958 122.542C113.14 122.71 113.231 122.941 113.231 123.234C113.231 123.527 113.139 123.768 112.953 123.956C112.767 124.144 112.52 124.239 112.21 124.239C112.05 124.239 111.88 124.214 111.7 124.164C111.519 124.116 111.38 124.041 111.282 123.938Z" fill="#F9F8F4"/>
<path d="M117.45 124.109H117.494V124.164H116.266V124.109H116.315C116.391 124.109 116.449 124.083 116.487 124.034C116.524 123.985 116.544 123.938 116.544 123.894C116.544 123.85 116.537 123.805 116.523 123.762L116.173 122.828H114.699L114.333 123.768C114.318 123.812 114.311 123.855 114.311 123.896C114.311 123.938 114.33 123.985 114.369 124.034C114.407 124.083 114.464 124.109 114.541 124.109H114.59V124.164H113.492V124.109H113.541C113.631 124.109 113.722 124.079 113.808 124.02C113.896 123.962 113.966 123.875 114.022 123.762L115.255 120.806C115.389 120.509 115.457 120.321 115.457 120.24H115.506L116.968 123.762C117.02 123.876 117.089 123.962 117.175 124.02C117.265 124.079 117.355 124.109 117.45 124.109ZM114.764 122.662H116.107L115.452 120.898L114.764 122.662Z" fill="#F9F8F4"/>
</svg>
