<svg width="158" height="159" viewBox="0 0 158 159" fill="none" xmlns="http://www.w3.org/2000/svg">
<rect y="0.5" width="158" height="158" rx="5" fill="#0F0F0F"/>
<g clip-path="url(#clip0)">
<path d="M42.1023 86.9879C46.3851 86.9879 49.857 83.5176 49.857 79.2367C49.857 74.9559 46.3851 71.4856 42.1023 71.4856C37.8195 71.4856 34.3477 74.9559 34.3477 79.2367C34.3477 83.5176 37.8195 86.9879 42.1023 86.9879Z" fill="white"/>
<path opacity="0.7" d="M116.47 86.9877C120.752 86.9877 124.224 83.5174 124.224 79.2365C124.224 74.9556 120.752 71.4853 116.47 71.4853C112.187 71.4853 108.715 74.9556 108.715 79.2365C108.715 83.5174 112.187 86.9877 116.47 86.9877Z" fill="white"/>
<path opacity="0.7" d="M59.6561 71.9434L51.3999 86.2383C51.2845 86.4398 51.4292 86.6896 51.6602 86.6896H68.1742C68.4068 86.6896 68.5516 86.4381 68.4344 86.2383L60.1783 71.9434C60.0628 71.7436 59.7733 71.7436 59.6561 71.9434Z" fill="white"/>
<path d="M98.4295 71.9434L90.1734 86.2383C90.0579 86.4398 90.2027 86.6896 90.4336 86.6896H106.948C107.18 86.6896 107.325 86.4381 107.208 86.2383L98.9517 71.9434C98.8362 71.7436 98.545 71.7436 98.4295 71.9434Z" fill="white"/>
<path opacity="0.7" d="M85.7446 86.6813H71.6621V72.6241C71.6621 72.2125 72.1601 72.0058 72.4531 72.2969L86.0738 85.8907C86.3633 86.1818 86.1565 86.6813 85.7446 86.6813Z" fill="white"/>
<path d="M71.6621 86.6858V71.9568C71.6621 71.7019 71.8689 71.4934 72.1257 71.4934H85.7463C86.1582 71.4934 86.365 71.9912 86.0738 72.2841L71.6621 86.6858Z" fill="white"/>
</g>
<defs>
<clipPath id="clip0">
<rect width="89.8768" height="15.5024" fill="white" transform="translate(34.3477 71.4856)"/>
</clipPath>
</defs>
</svg>
