<svg width="184" height="185" viewBox="0 0 184 185" fill="none" xmlns="http://www.w3.org/2000/svg">
<rect y="-0.00012207" width="184" height="184.984" rx="3" fill="#090909"/>
<g clip-path="url(#clip0)">
<path d="M112.714 70.3228C112.258 69.9845 111.899 69.6776 111.634 69.4014C111.371 69.1259 111.1 68.71 110.82 68.1569C110.168 66.8663 110.119 65.4151 110.678 63.8025C111.236 62.1923 112.222 61.0239 113.634 60.2974C114.625 59.7879 115.49 59.5837 116.237 59.6847C116.982 59.7848 117.52 60.1613 117.849 60.8156C118.301 61.7111 118.3 62.5411 117.849 63.3121C117.397 64.0798 116.873 64.8325 116.281 65.5684C116.768 65.7634 117.316 65.9918 117.919 66.2544C118.521 66.517 119.133 66.8184 119.752 67.1635C119.676 66.3086 119.839 65.4516 120.239 64.5925C120.639 63.7335 121.292 63.0723 122.194 62.6082C122.956 62.2163 123.703 62.1057 124.437 62.2738C125.171 62.4418 125.713 62.8744 126.064 63.5691C126.401 64.2374 126.465 64.9098 126.259 65.5902C126.053 66.2707 125.616 66.7796 124.955 67.1193C124.308 67.4522 123.673 67.5693 123.051 67.4681C122.432 67.3676 121.963 67.003 121.65 66.3783C121.42 65.924 121.35 65.4311 121.439 64.9045C121.499 64.6767 121.553 64.4828 121.599 64.3245C121.644 64.1687 121.639 64.0323 121.58 63.9171C121.53 63.8184 121.454 63.7934 121.356 63.8438C121.032 64.0103 120.726 64.4767 120.438 65.2431C120.149 66.0094 120.09 66.7324 120.256 67.4162C121.551 68.254 122.44 68.877 122.933 69.2853C123.491 69.7508 124.028 70.5364 124.545 71.6479C125.105 72.8508 125.306 74.2139 125.059 75.5188C124.6 77.9342 123.356 79.6669 121.325 80.7112C121.015 80.8709 120.661 81.0029 120.261 81.1114C119.861 81.2174 119.454 81.263 119.035 81.2444L119.012 80.9346C119.338 80.945 119.7 80.8897 120.1 80.7648C120.497 80.6415 120.845 80.502 121.142 80.349C121.891 79.9639 122.395 79.4272 122.658 78.738C122.922 78.0462 122.851 77.2971 122.442 76.4872C122.134 75.8781 121.735 75.3575 121.243 74.9302C120.751 74.503 120.12 74.0852 119.346 73.6786C119.354 74.6763 119.088 75.7086 118.549 76.7698C118.012 77.8342 117.193 78.6473 116.094 79.2123C115.133 79.7067 114.126 79.8097 113.066 79.5213C112.006 79.2328 111.222 78.5866 110.713 77.5792C110.133 76.4302 109.978 75.3651 110.245 74.3857C110.506 73.4097 111.332 72.0518 112.714 70.3228ZM119.051 73.5299C117.418 72.7604 116.11 72.141 115.127 71.6717C114.145 71.2024 113.436 70.82 113.003 70.5245C112.766 70.8622 112.615 71.2115 112.549 71.575C112.483 71.9384 112.542 72.2984 112.721 72.6539C113.18 73.5626 114.005 74.2523 115.192 74.7223C116.381 75.1931 117.326 75.2486 118.032 74.8853C118.385 74.7037 118.632 74.5148 118.771 74.3185C118.909 74.1213 119.004 73.8585 119.051 73.5299ZM116.001 65.4386C116.392 64.8788 116.643 64.3121 116.752 63.7374C116.861 63.1628 116.751 62.5495 116.42 61.8944C116.113 61.2853 115.735 60.8513 115.297 60.5955C114.856 60.3389 114.305 60.3817 113.642 60.7206C113.217 60.9392 112.872 61.2911 112.603 61.7778C112.333 62.2646 112.34 62.7861 112.619 63.3392C112.863 63.8232 113.31 64.2219 113.959 64.5412C114.609 64.8604 115.292 65.1603 116.001 65.4386Z" fill="#12B829"/>
<path d="M133.004 98.6054L115.625 107.543L115.051 107.834L108.89 111.003C108.765 109.466 108.615 107.583 108.423 105.36C108.239 103.125 108.014 100.445 107.753 97.3114C107.49 94.1765 107.348 92.522 107.32 92.3395C107.299 92.1595 107.243 91.9847 107.157 91.8135C107.089 91.6786 107.008 91.5916 106.917 91.5676C106.823 91.537 106.733 91.5461 106.645 91.5915C106.231 91.8026 105.946 92.2704 105.783 92.9869C105.623 93.7099 105.503 94.3665 105.433 94.9648C105.357 95.5615 105.299 96.12 105.258 96.6453L104.858 96.6438C104.989 94.8612 105.197 93.4995 105.481 92.5613C105.765 91.6231 106.377 90.9101 107.32 90.4291C108.141 90.007 108.959 89.933 109.768 90.2112C110.578 90.4893 111.165 90.9778 111.523 91.6856C111.699 92.0346 111.822 92.3799 111.896 92.7091C111.965 93.0424 112.016 93.4247 112.047 93.8775L113.069 105.681C113.12 106.231 113.163 106.63 113.205 106.88C113.242 107.128 113.302 107.34 113.39 107.506C113.515 107.753 113.715 107.849 114 107.786C114.225 107.741 114.557 107.607 115.009 107.389L114.126 97.5802L114.554 97.3599L115.254 98.8559C116.058 100.446 117.008 101.776 118.101 102.84C119.197 103.912 120.136 104.298 120.92 104.007C121.707 103.723 122.288 103.486 122.678 103.308C123.063 103.129 123.449 102.939 123.827 102.746L124.358 102.48L123.506 93.4508L122.306 94.1531C121.372 94.849 120.637 95.7333 120.098 96.8109C119.559 97.8886 119.292 99.0333 119.295 100.249L118.837 100.485L117.93 90.0991L118.388 89.8637C118.454 90.1574 118.568 90.53 118.716 90.9826C118.874 91.4326 119.024 91.8033 119.169 92.098C119.563 92.8782 120.006 93.3968 120.502 93.6521C120.991 93.9107 121.578 93.866 122.243 93.5196L123.463 92.9254L122.778 86.3925C122.728 85.9912 122.667 85.5726 122.592 85.1385C122.517 84.7043 122.451 84.4354 122.398 84.33C122.251 84.0403 121.999 83.9276 121.644 83.996C121.283 84.0652 120.589 84.3664 119.553 84.897L119.365 84.5249L130.408 78.846L130.596 79.218L129.385 79.9527C128.852 80.3012 128.533 80.6999 128.421 81.1473C128.308 81.5889 128.305 82.5197 128.414 83.9381C128.52 85.364 128.632 86.6733 128.749 87.88C128.867 89.0785 129.013 90.4569 129.183 92.0079C129.353 93.5589 129.501 94.8389 129.622 95.8323C129.744 96.829 129.837 97.511 129.906 97.8742C129.975 98.2323 130.044 98.4913 130.127 98.6419C130.273 98.9316 130.526 99.0583 130.887 99.0139C131.25 98.9785 131.894 98.7158 132.826 98.2366L133.004 98.6054Z" fill="#F9F8F4"/>
<path d="M92.7957 111.904L92.3332 101.146C92.3324 101.03 92.3086 100.792 92.2585 100.432C92.2093 100.069 92.1676 99.8522 92.1269 99.7757C92.0653 99.6538 91.991 99.5718 91.9012 99.5288C91.814 99.4866 91.7164 99.4932 91.6085 99.5487C91.396 99.658 91.1774 99.9633 90.9503 100.464C90.7232 100.964 90.5373 101.607 90.386 102.388C90.2346 103.169 90.1583 103.996 90.156 104.864L89.791 104.88C89.8136 103.864 89.8942 102.931 90.0303 102.08C90.1664 101.228 90.4627 100.42 90.9169 99.6555C91.3743 98.8894 92.0722 98.265 93.0172 97.779C93.7791 97.3872 94.4545 97.3053 95.0467 97.5316C95.6397 97.7555 96.1487 98.29 96.5745 99.1328C96.7198 97.9404 96.9619 97.005 97.3002 96.3291C97.6385 95.6533 98.2352 95.0976 99.0861 94.6579C99.9984 94.1887 100.898 94.0974 101.781 94.3857C102.664 94.674 103.345 95.2922 103.825 96.2437C104.739 98.0511 104.827 100.285 104.095 102.949C103.362 105.613 101.991 107.461 99.984 108.491C99.5132 108.733 99.0291 108.839 98.5333 108.803C98.0376 108.768 97.6666 108.507 97.4188 108.016L97.2097 107.431L97.2934 109.586L92.7957 111.904ZM97.6882 107.824C97.8113 108.067 97.9518 108.223 98.1089 108.285C98.2652 108.35 98.4505 108.326 98.663 108.216C98.9508 108.068 99.1671 107.669 99.307 107.016C99.4469 106.363 99.5242 105.314 99.5364 103.858C99.5477 102.405 99.5008 100.828 99.3891 99.1308C99.2782 97.4313 99.1176 96.3754 98.9097 95.9639C98.8398 95.8256 98.7547 95.7346 98.6576 95.6891C98.558 95.6429 98.4465 95.6504 98.3247 95.7151C97.8538 95.9573 97.524 96.4214 97.3326 97.1067C97.1437 97.7928 97.0155 98.3586 96.9554 98.8063C96.8928 99.2532 96.8755 99.9651 96.902 100.947C96.9284 101.929 96.9902 103.172 97.0941 104.683C97.1963 106.198 97.393 107.243 97.6882 107.824Z" fill="#F9F8F4"/>
<path d="M67.4683 115.759C67.6243 114.094 67.8589 112.769 68.1762 111.786C68.4943 110.801 69.2288 110.013 70.3864 109.418C71.1777 109.011 71.9017 108.956 72.56 109.256C73.2191 109.554 73.7221 110.048 74.0697 110.736C74.3259 111.243 74.4833 111.709 74.5494 112.138C74.6147 112.569 74.6541 113.054 74.6677 113.595C74.6837 114.136 74.6903 115.222 74.6892 116.854C74.6889 118.484 74.786 119.492 74.9789 119.874C75.0638 120.042 75.1605 120.148 75.2674 120.188C75.3743 120.228 75.5055 120.211 75.6559 120.133C75.839 120.039 76.0056 119.819 76.1558 119.472C76.3061 119.125 76.4411 118.597 76.5634 117.889C76.6857 117.182 76.7368 116.374 76.7191 115.466C76.7014 114.559 76.665 113.329 76.6101 111.777C76.5552 110.225 76.5129 109.081 76.484 108.343C76.4552 107.605 76.434 107.029 76.4156 106.614L80.8659 104.325C80.8755 104.531 80.9214 105.487 81.0045 107.188C81.0875 108.889 81.1679 110.565 81.244 112.212C81.32 113.859 81.3609 114.788 81.3705 114.994C81.3801 115.201 81.4031 115.45 81.4437 115.738C81.4842 116.027 81.5498 116.262 81.643 116.447C81.7278 116.615 81.8261 116.724 81.9356 116.773C82.045 116.823 82.1713 116.812 82.3062 116.74C82.5056 116.638 82.6788 116.414 82.829 116.067C82.9792 115.72 83.0986 115.3 83.188 114.812C83.2773 114.325 83.341 113.798 83.3831 113.237C83.4252 112.677 83.4365 112.169 83.4194 111.715L83.2823 103.082L87.7326 100.793L88.1935 111.547C88.2023 111.638 88.2194 111.856 88.2505 112.198C88.2791 112.54 88.3474 112.818 88.4555 113.032C88.532 113.184 88.6205 113.281 88.7151 113.318C88.8121 113.355 88.9195 113.343 89.0405 113.281C89.1909 113.204 89.3601 112.992 89.539 112.649C89.7213 112.305 89.8711 111.9 89.9885 111.435C90.1067 110.968 90.2 110.46 90.2643 109.906C90.3286 109.352 90.375 108.702 90.4003 107.957L90.7448 107.954C90.7596 109.993 90.5484 111.5 90.1096 112.47C89.6708 113.44 89.0561 114.127 88.2648 114.534C87.5487 114.903 86.8223 114.957 86.0781 114.703C85.3348 114.446 84.781 113.958 84.4167 113.237C84.2471 112.901 84.1179 112.609 84.0309 112.363C83.9447 112.115 83.879 111.871 83.8306 111.624L83.7503 111.636C83.7509 113.762 83.5643 115.26 83.1888 116.127C82.8149 116.997 82.2393 117.631 81.4643 118.03C80.673 118.437 79.9133 118.552 79.182 118.376C78.4507 118.2 77.9054 117.753 77.5411 117.032C77.3698 116.693 77.2535 116.369 77.189 116.054C77.147 115.669 77.1156 115.395 77.0915 115.233C77.0451 117.074 76.8994 118.445 76.6529 119.343C76.4089 120.242 75.7232 120.98 74.5984 121.559C73.8528 121.942 73.1242 122.037 72.4149 121.844C71.7031 121.65 71.1136 121.086 70.6412 120.151C70.3784 119.631 70.2265 119.131 70.1855 118.65C70.1444 118.169 70.1127 117.482 70.0909 116.587C70.0692 115.692 70.0699 114.593 70.0905 113.288C70.1111 111.984 70.064 111.218 69.95 110.988C69.8802 110.85 69.7951 110.759 69.6955 110.712C69.5959 110.666 69.4934 110.671 69.3855 110.727C68.944 110.954 68.6186 111.463 68.4058 112.257C68.193 113.051 68.0556 113.704 67.9894 114.222C67.924 114.736 67.871 115.255 67.827 115.779L67.4683 115.759Z" fill="#F9F8F4"/>
<path d="M63.0652 119.902C63.0104 119.565 62.9042 119.143 62.7432 118.637C62.5847 118.131 62.4269 117.725 62.2722 117.419C61.8397 116.563 61.416 116.018 61.0018 115.789C60.5884 115.558 60.1536 115.562 59.6958 115.797C59.346 115.977 59.0545 116.179 58.8231 116.406C58.5924 116.63 58.3468 116.943 58.0887 117.345C57.8306 117.748 57.606 118.257 57.4109 118.878C57.2167 119.496 57.0967 120.07 57.0511 120.591L56.6142 120.526C56.7969 119.293 57.1672 118.147 57.7252 117.086C58.2831 116.026 59.1781 115.18 60.4141 114.544C61.5389 113.966 62.7656 113.764 64.0909 113.941C65.4161 114.118 66.4122 114.867 67.0775 116.184C67.9873 117.984 68.0277 120.046 67.1978 122.362C66.5579 124.149 65.4087 125.731 63.9005 126.872C62.2944 128.087 60.8327 128.594 59.5139 128.398C58.5991 128.258 57.9837 127.876 57.6677 127.25C57.0556 126.039 57.3012 124.772 58.3971 123.447C59.4971 122.118 61.051 120.938 63.0652 119.902ZM63.1371 120.211C62.1351 120.882 61.4708 121.977 61.1465 123.495C60.8222 125.014 60.8688 126.187 61.2838 127.012C61.3985 127.24 61.5186 127.4 61.6414 127.492C61.7651 127.582 61.9316 127.573 62.1441 127.464C62.4776 127.292 62.7205 126.937 62.8702 126.398C63.0191 125.861 63.121 125.166 63.1668 124.314C63.2152 123.464 63.2362 122.699 63.2291 122.02C63.2244 121.342 63.1924 120.741 63.1371 120.211Z" fill="#F9F8F4"/>
<path d="M76.4291 98.4526C76.1668 99.3237 75.5971 99.9817 74.724 100.431C73.9621 100.823 73.2087 100.893 72.453 100.632C71.7047 100.374 71.1618 99.9193 70.8308 99.2641C70.6662 98.9382 70.5532 98.6209 70.4847 98.3181C70.4227 98.012 70.3735 97.6495 70.3395 97.2398L69.3974 86.2956C69.348 85.7818 69.3077 85.4085 69.2725 85.1799C69.2364 84.9454 69.1768 84.75 69.0987 84.5953C68.9856 84.3714 68.793 84.2838 68.5292 84.3406C68.3236 84.3862 68.016 84.503 67.5982 84.7075L68.4185 93.8002L68.0196 94.0053L67.371 92.6197C66.6275 91.1481 65.7446 89.9141 64.7329 88.9267C63.7163 87.9378 62.8475 87.5717 62.1233 87.8383C61.3901 88.1076 60.851 88.3247 60.4895 88.4898C60.1272 88.6575 59.7773 88.8292 59.4217 89.01L58.9345 89.2605L59.7244 97.6285L60.834 96.9791C61.7016 96.3359 62.3834 95.5165 62.8803 94.5186C63.3821 93.5223 63.634 92.4553 63.632 91.3303L64.0539 91.1133L64.8926 100.74L64.4708 100.957C64.4049 100.688 64.3058 100.345 64.1634 99.9245C64.0211 99.5042 63.8809 99.1615 63.7462 98.8866C63.3819 98.1656 62.966 97.6806 62.5123 97.4473C62.0537 97.2041 61.5118 97.2443 60.8905 97.5639L59.7614 98.1217L60.3977 104.18C60.438 104.553 60.4988 104.939 60.5656 105.34C60.6397 105.743 60.6988 105.991 60.7471 106.095C60.8818 106.361 61.1213 106.464 61.4506 106.398C61.7833 106.339 62.4294 106.061 63.3883 105.566L63.5613 105.908L53.3233 111.173L53.1503 110.831L54.2712 110.147C54.7628 109.823 55.0621 109.454 55.1635 109.047C55.2723 108.634 55.2729 107.771 55.1761 106.45C55.0785 105.132 54.9717 103.918 54.8632 102.802C54.7497 101.684 54.6179 100.412 54.462 98.9703C54.2996 97.5317 54.1627 96.3516 54.0546 95.4283C53.9433 94.4985 53.8487 93.871 53.7907 93.5359C53.7276 93.1992 53.6628 92.9609 53.5913 92.8193C53.4492 92.5502 53.2163 92.4357 52.8769 92.4733C52.5449 92.5134 51.9444 92.7517 51.0852 93.1915L50.9131 92.8466L67.0303 84.5578L67.5609 84.2912L73.2701 81.355C73.3881 82.7791 73.5346 84.5205 73.7038 86.5881C73.878 88.6574 74.0877 91.1396 74.3324 94.0457C74.5755 96.9567 74.7074 98.4898 74.7266 98.6583C74.7458 98.8268 74.8002 98.9875 74.8784 99.1422C74.9416 99.2674 75.0209 99.351 75.1048 99.3784C75.1887 99.4057 75.2789 99.3967 75.3573 99.3563C75.7399 99.1596 76.0044 98.7291 76.1581 98.059C76.3053 97.3923 76.4176 96.7829 76.4852 96.2276C76.5528 95.6723 76.6025 95.1552 76.6419 94.6705L77.0135 94.6681C76.8878 96.3233 76.6988 97.5839 76.4291 98.4526Z" fill="#F9F8F4"/>
<path d="M76.2939 90.7164C76.3659 88.8897 76.5835 87.6081 76.946 86.866C77.3076 86.1263 77.8338 85.5778 78.527 85.2213C79.1483 84.9018 79.7918 84.8342 80.4633 85.0177C81.1323 85.2004 81.6789 85.7115 82.1038 86.5485C82.2901 86.9172 82.4163 87.3791 82.4849 87.9348C82.5535 88.4905 82.5958 89.1531 82.6093 89.9218C82.6252 90.6913 82.6073 91.6752 82.5557 92.8734C82.504 94.0717 82.5451 94.8054 82.6815 95.0754C82.7464 95.2038 82.8273 95.2824 82.9235 95.3138C83.0197 95.3452 83.1311 95.3294 83.2562 95.263C83.4099 95.184 83.571 94.9891 83.7362 94.6802C83.9006 94.3737 84.0269 94.0081 84.1167 93.5865C84.2066 93.165 84.2829 92.6923 84.3466 92.166C84.4094 91.6422 84.4473 91.1789 84.4585 90.7812L84.8105 90.7889C84.6806 92.4318 84.4963 93.661 84.2623 94.4781C84.0276 95.2977 83.3866 95.9736 82.3435 96.5101C81.5816 96.9019 80.8897 96.9757 80.2703 96.7322C79.6485 96.488 79.1679 96.0259 78.8236 95.3444C78.5941 94.8901 78.4557 94.449 78.4043 94.0171C78.3554 93.586 78.3306 92.8356 78.3314 91.761C78.3315 90.6888 78.3258 89.7357 78.3118 88.9009C78.3004 88.0669 78.2809 87.5025 78.2576 87.2117C78.2343 86.921 78.1935 86.7179 78.1378 86.6035C78.0879 86.5048 78.0259 86.4433 77.9527 86.4167C77.8787 86.3925 77.7894 86.4073 77.6913 86.4578C77.5932 86.5082 77.4714 86.6829 77.329 86.98C77.1867 87.2772 77.0406 87.7464 76.8948 88.3833C76.745 89.0245 76.6625 89.7948 76.64 90.7002L76.2939 90.7164ZM77.114 81.5764C76.8196 80.9937 76.7763 80.4187 76.9832 79.8457C77.1926 79.2735 77.5711 78.8445 78.1204 78.562C78.6828 78.2727 79.2566 78.2099 79.8386 78.3752C80.4205 78.5404 80.8587 78.9144 81.1531 79.4971C81.4724 80.1292 81.4809 80.7698 81.1843 81.418C80.9709 81.8844 80.5979 82.2712 80.145 82.5083C79.5736 82.8083 78.9949 82.8695 78.4063 82.6911C77.83 82.5167 77.3993 82.1452 77.114 81.5764Z" fill="#F9F8F4"/>
<path d="M92.6121 77.9733C93.2726 77.6336 93.948 77.5517 94.6309 77.7252C95.3155 77.9019 95.8694 78.4072 96.291 79.2459C96.484 79.6278 96.6117 80.0764 96.6776 80.59C96.741 81.1028 96.7859 81.6645 96.8114 82.2777C96.8369 82.8908 96.8439 83.9075 96.8331 85.3254C96.8215 86.7456 96.8664 87.5521 96.9679 87.7529C97.0261 87.8681 97.0963 87.9378 97.1801 87.9652C97.2665 87.9933 97.364 87.9784 97.4784 87.9196C97.619 87.8473 97.7655 87.6641 97.9201 87.371C98.0748 87.0778 98.2405 86.5903 98.4204 85.9068C98.5995 85.2257 98.6866 84.2975 98.6794 83.1212L99.0281 83.1306C98.9694 84.629 98.8139 85.8786 98.5624 86.8769C98.3108 87.8752 97.6426 88.6522 96.557 89.2105C95.8082 89.5956 95.131 89.6577 94.5222 89.3985C93.9101 89.1409 93.4377 88.6788 93.1 88.0104C92.8705 87.5561 92.7333 87.1622 92.6891 86.8261C92.6442 86.4925 92.6132 85.6851 92.5987 84.4048C92.5809 83.1261 92.5713 82.0755 92.5657 81.2572C92.5609 80.4363 92.4633 79.8436 92.277 79.4749C92.2055 79.3334 92.1253 79.2439 92.0381 79.21C91.9509 79.176 91.8427 79.1902 91.7152 79.2558C91.5452 79.3432 91.385 79.5604 91.2324 79.9064C91.0797 80.2524 90.9428 80.7521 90.8283 81.402C90.7114 82.0511 90.6678 82.8782 90.6952 83.8823L90.8648 91.8663L86.7414 93.9869L86.2509 84.0506C86.2278 83.7929 86.2061 83.5054 86.1867 83.1856C86.1673 82.8659 86.1281 82.6497 86.0699 82.5344C86.02 82.4357 85.963 82.3758 85.8988 82.3549C85.8347 82.3339 85.7601 82.3453 85.6751 82.3891C85.4789 82.49 85.2982 82.6949 85.133 83.0038C84.9685 83.3103 84.8357 83.671 84.7335 84.0803C84.628 84.4912 84.5419 84.9855 84.4713 85.5672C84.4006 86.149 84.3415 86.7455 84.2957 87.3601L83.9562 87.373C84.0279 85.8761 84.2022 84.6106 84.4864 83.579C84.7273 82.6982 85.2485 81.9034 86.0072 81.4033C86.8279 80.863 87.5956 80.7232 88.3103 80.984C88.9098 81.2045 89.4013 81.6921 89.7822 82.446C89.9551 82.7884 90.0788 83.1147 90.1564 83.4232C90.2332 83.7342 90.2939 83.985 90.3379 84.178C90.3253 82.5711 90.4386 81.2748 90.6747 80.2824C90.9049 79.2826 91.5534 78.5157 92.6121 77.9733Z" fill="#F9F8F4"/>
<path d="M105.687 71.523L105.756 72.3458L103.386 73.5649L104.118 82.9808C104.141 83.2716 104.166 83.483 104.198 83.6117C104.227 83.7396 104.27 83.8607 104.329 83.9734C104.394 84.1018 104.468 84.1839 104.558 84.2186C104.648 84.2534 104.74 84.2452 104.841 84.1955C105.024 84.1013 105.197 83.9105 105.363 83.6181C105.527 83.3282 105.671 82.9764 105.799 82.562C105.928 82.1476 106.033 81.6597 106.114 81.0977C106.194 80.5382 106.237 80.0328 106.241 79.583L106.593 79.5907C106.489 81.1102 106.269 82.3331 105.928 83.2611C105.588 84.1866 104.946 84.8923 104.001 85.3783C103.183 85.7987 102.446 85.8687 101.789 85.5909C101.131 85.3131 100.633 84.8313 100.288 84.1498C100.13 83.8371 100.028 83.5453 99.9789 83.2762C99.9302 83.0047 99.8816 82.6067 99.8279 82.0806L99.349 75.6451L97.531 76.5801L97.4614 75.7573L99.2827 74.8206L98.8983 69.8401L102.979 67.7414L103.344 72.732L105.687 71.523Z" fill="#F9F8F4"/>
</g>
<defs>
<clipPath id="clip0">
<rect width="79.888" height="83.0736" fill="white" transform="matrix(0.95062 0.310357 -0.307376 0.951588 66.8641 43.4636)"/>
</clipPath>
</defs>
</svg>
