<svg width="184" height="185" viewBox="0 0 184 185" fill="none" xmlns="http://www.w3.org/2000/svg">
<rect y="0.989258" width="184" height="184" rx="3" fill="#0C0C0C"/>
<path d="M60.0608 86.0026C59.9113 85.9255 59.7474 85.9496 59.5739 86.0653C59.4004 86.181 59.2991 86.3545 59.2702 86.5858C58.5423 95.3486 57.3951 104.135 55.8333 112.951C55.7803 113.173 55.8285 113.318 55.9779 113.39C56.1274 113.467 56.2913 113.443 56.4744 113.322C56.6576 113.207 56.7685 113.038 56.807 112.821C58.3833 104 59.5402 95.2088 60.268 86.4461C60.2777 86.2243 60.2102 86.0749 60.0608 86.0026Z" fill="#F9F8F4" stroke="#F9F8F4" stroke-width="0.38587"/>
<path d="M88.876 87.5163C88.7892 87.4151 88.6783 87.3765 88.5337 87.4006C87.6757 87.4922 86.8611 88.0176 86.1043 88.9719C85.3668 89.8925 84.7064 91.0879 84.1183 92.558C84.1135 92.5339 84.1087 92.5146 84.099 92.4953C84.4172 90.5336 84.798 88.408 85.2511 86.1185C85.2752 85.9546 85.2511 85.8148 85.1788 85.7088C85.1065 85.5979 85.0101 85.5401 84.8799 85.5353C84.7546 85.5256 84.6293 85.5786 84.5087 85.6895C84.3931 85.8004 84.3208 85.9305 84.2918 86.0799C83.7423 88.8562 83.3278 91.1457 83.0482 92.9388C82.9614 93.0834 82.8602 93.2376 82.759 93.3967C82.5662 93.6907 82.3251 94.0233 82.0407 94.3944C81.7563 94.7607 81.4816 95.074 81.2116 95.3247C80.9465 95.5753 80.6766 95.7826 80.397 95.9513C80.1126 96.12 79.8716 96.1489 79.674 96.0428C79.486 95.8982 79.4378 95.4934 79.5197 94.8186C79.6017 94.1438 79.7945 93.3099 80.0885 92.3266C80.3199 91.6952 80.532 91.0734 80.7248 90.4661C80.7778 90.3263 80.7778 90.1914 80.72 90.0612C80.6573 89.9359 80.5705 89.854 80.45 89.8202C80.3295 89.7865 80.209 89.8154 80.0885 89.9022C79.968 89.9889 79.8764 90.1046 79.8089 90.2492V90.2974C79.6643 90.0805 79.5004 89.9311 79.3124 89.8491C78.9847 89.7142 78.628 89.7672 78.2327 90.0082C77.7844 90.2685 77.2831 90.8035 76.7288 91.6181C76.1696 92.4278 75.6972 93.3147 75.3068 94.2787C75.2441 94.433 75.1863 94.5824 75.1332 94.727C75.1043 94.7366 75.0802 94.7414 75.0513 94.7511C74.0342 95.1078 73.0026 95.5801 71.947 96.173C71.5855 94.4667 70.8962 93.2954 69.8839 92.6688C68.5294 91.8543 66.6254 91.9314 64.1766 92.8954C65.4492 91.753 66.5579 90.6782 67.5075 89.6708C68.4571 88.6634 69.3055 87.5886 70.0526 86.4559C70.5973 85.6317 71.0215 84.7737 71.3348 83.8772C71.6481 82.9855 71.8217 82.1372 71.8506 81.3322C71.8843 80.5273 71.6867 79.8332 71.2625 79.25C70.8335 78.6668 70.1924 78.3053 69.3247 78.1607C68.3462 77.9968 67.3002 78.0402 66.1867 78.2908C65.0684 78.5366 63.9742 78.956 62.8896 79.544C61.8099 80.1369 60.7446 80.8502 59.7034 81.6841C58.6622 82.5179 57.6981 83.4723 56.8112 84.5423C55.9291 85.6172 55.1578 86.7258 54.4926 87.8778C53.8274 89.0298 53.3165 90.2444 52.9598 91.5265C52.6031 92.8038 52.4392 94.0474 52.4681 95.2475C52.4729 95.3295 52.4874 95.3873 52.5163 95.4259C52.6031 95.691 52.7862 95.7777 53.0706 95.691C53.3358 95.6042 53.4611 95.4162 53.4466 95.1174C53.4322 94.1775 53.5382 93.2183 53.7648 92.2399C53.9913 91.2566 54.3239 90.3119 54.7577 89.4105C55.1916 88.5092 55.7074 87.6223 56.3147 86.7403C56.9173 85.8582 57.5728 85.0629 58.2862 84.3447C58.9996 83.6265 59.7564 82.9421 60.5614 82.2962C61.3664 81.6503 62.1859 81.1153 63.0246 80.696C63.8585 80.2718 64.6924 79.92 65.5263 79.6452C66.3554 79.3657 67.1604 79.2307 67.9413 79.2355C68.8716 79.2018 69.5802 79.3753 70.0574 79.7609C70.5395 80.1513 70.7853 80.6574 70.7998 81.2792C70.8142 81.9058 70.6985 82.5999 70.4479 83.3663C70.1972 84.1326 69.8502 84.8942 69.4067 85.6413C68.9632 86.3932 68.4764 87.0873 67.951 87.7187C67.4496 88.326 66.8664 88.9623 66.2012 89.6371C65.5408 90.3119 65.0202 90.8228 64.6394 91.1746C64.2634 91.5265 63.6079 92.1145 62.6679 92.9388C61.7327 93.763 61.1591 94.2739 60.9519 94.4715C60.7253 94.6691 60.6482 94.9246 60.7157 95.2234C60.7831 95.5271 60.9567 95.5994 61.2411 95.4452C61.94 95.0596 62.5618 94.7366 63.1065 94.4763C63.6464 94.2161 64.2682 93.9606 64.9624 93.71C65.6613 93.4593 66.3265 93.3099 66.9628 93.2665C67.5991 93.2183 68.1872 93.2858 68.727 93.469C69.3103 93.6666 69.7971 94.0618 70.1876 94.645C70.578 95.2283 70.8576 95.9223 71.0215 96.7225C69.7297 97.5178 68.4571 98.4673 67.199 99.5759C65.9409 100.68 64.7744 101.851 63.6994 103.094C62.6293 104.333 61.6171 105.644 60.6771 107.018C60.5084 107.269 60.3059 107.582 60.0746 107.963C59.8384 108.339 59.5491 108.835 59.2021 109.442C58.855 110.045 58.5658 110.633 58.3344 111.192C58.103 111.756 57.9151 112.291 57.7849 112.807C57.6499 113.318 57.6548 113.727 57.7994 114.031C57.944 114.34 58.2525 114.484 58.72 114.475C58.8598 114.47 59.0141 114.446 59.1828 114.402C59.3515 114.359 59.5299 114.301 59.713 114.219C59.8962 114.142 60.0601 114.065 60.2095 113.997C60.3541 113.925 60.5325 113.829 60.7349 113.703C60.9374 113.583 61.1013 113.482 61.217 113.414C61.3375 113.342 61.4966 113.241 61.6942 113.11C61.7617 113.062 61.8195 113.024 61.8629 112.995C63.3909 111.983 64.9142 110.7 66.4374 109.163C67.1893 108.411 67.8835 107.63 68.5149 106.82C69.1512 106.011 69.7441 105.143 70.2985 104.213C70.848 103.278 71.2914 102.304 71.624 101.287C71.9566 100.27 72.1302 99.2722 72.1495 98.2938C72.1591 97.9901 72.1446 97.6334 72.1109 97.2286C73.0364 96.7176 73.933 96.2935 74.8054 95.9609C74.7669 96.2115 74.7476 96.4381 74.7572 96.6453C74.7813 97.5129 75.1429 97.9708 75.837 98.0142C76.6854 98.048 77.5771 97.2912 78.5026 95.7488C78.5267 96.4911 78.7533 96.949 79.1775 97.1273C79.4619 97.243 79.7752 97.2575 80.1126 97.1707C80.45 97.084 80.8116 96.896 81.1875 96.6068C81.5684 96.3176 81.901 96.0091 82.195 95.6813C82.383 95.4644 82.571 95.2379 82.7638 94.9873C82.5758 96.5248 82.5565 97.4406 82.7108 97.7443C82.7975 97.9275 82.947 97.9949 83.1591 97.9419C83.1735 97.9371 83.188 97.9226 83.2024 97.9034C83.429 97.8311 83.5688 97.6575 83.6218 97.3924C83.9544 95.9175 84.3545 94.5438 84.8269 93.2665C85.2993 91.9892 85.8536 90.8999 86.4995 89.9937C87.1455 89.0828 87.7962 88.596 88.4469 88.5237C88.5723 88.5044 88.6928 88.4321 88.8036 88.3116C88.9145 88.1863 88.9772 88.0465 88.9868 87.8922C89.0013 87.738 88.9627 87.6127 88.876 87.5163ZM66.6495 107.577C64.2345 110.243 61.9497 112.06 59.7805 113.033C59.7661 113.033 59.6986 113.062 59.5829 113.12C59.4624 113.173 59.366 113.216 59.2985 113.25C59.2262 113.284 59.1394 113.313 59.043 113.327C58.9418 113.347 58.8647 113.347 58.8068 113.332C58.7538 113.327 58.7152 113.327 58.7008 113.332C58.7008 113.221 58.7586 112.922 58.8791 112.426C59.096 111.592 59.4479 110.744 59.9396 109.896C60.4313 109.042 61.0242 108.122 61.7183 107.129C63.0632 105.235 64.543 103.485 66.1482 101.875C67.7533 100.265 69.426 98.9107 71.1661 97.8118C71.1661 98.0817 71.1709 98.2841 71.1709 98.4287C71.1275 101.258 69.6188 104.309 66.6495 107.577ZM79.1727 92.1097C78.6569 93.44 78.117 94.5679 77.553 95.503C76.9939 96.4381 76.507 96.8912 76.0973 96.8719C75.8707 96.8478 75.7551 96.6887 75.7502 96.3851C75.7261 95.6765 76.0587 94.674 76.7384 93.3822C77.4229 92.0904 78.0254 91.2903 78.5412 90.9818C78.599 90.9529 78.6472 90.9288 78.6906 90.9192C78.734 90.9095 78.7677 90.9144 78.7967 90.9385C78.9702 91.0059 79.0859 91.218 79.1437 91.5651C79.1775 91.6566 79.2209 91.7338 79.2787 91.7964C79.2353 91.9169 79.2016 92.023 79.1727 92.1097Z" fill="#F9F8F4" stroke="#F9F8F4" stroke-width="0.38587"/>
<path d="M131.506 79.9439C131.463 79.8089 131.376 79.727 131.246 79.698C131.121 79.6691 130.99 79.6932 130.865 79.7703C130.306 80.1415 129.723 80.5753 129.12 81.0814C129.077 78.9606 128.773 77.6929 128.199 77.2832C128.084 77.2013 127.944 77.1868 127.775 77.2495C127.563 77.317 127.327 77.5435 127.062 77.9195C126.797 78.3002 126.32 79.0714 125.63 80.2379C123.871 83.2263 122.825 84.7639 122.487 84.8506C122.256 84.7205 122.295 83.9541 122.593 82.5659C122.892 81.173 123.341 79.6498 123.943 77.9966C124.011 77.852 124.02 77.7122 123.967 77.5724C123.919 77.4326 123.832 77.3507 123.712 77.317C123.591 77.2832 123.461 77.3121 123.331 77.4037C123.196 77.4953 123.104 77.611 123.047 77.7508C122.637 78.8594 122.266 80.0403 121.928 81.2886C121.316 83.5974 121.22 85.0579 121.653 85.6797C121.586 85.7471 121.514 85.8098 121.441 85.8725C121.258 86.0219 121.123 86.0797 121.037 86.0363C120.882 85.9496 120.738 85.2314 120.607 83.877C120.554 83.395 120.511 83.0431 120.473 82.8118C120.434 82.5852 120.381 82.3201 120.304 82.0213C120.227 81.7224 120.125 81.5152 119.986 81.4091C119.851 81.3031 119.687 81.2549 119.489 81.2742C119.089 81.3127 118.646 81.6598 118.144 82.3153C117.643 82.9708 116.934 84.0505 116.023 85.564C115.869 85.8243 115.744 86.0412 115.647 86.2099C115.975 84.2144 116.351 82.19 116.775 80.1367C116.804 79.9824 116.78 79.8523 116.708 79.7366C116.636 79.6161 116.53 79.5583 116.395 79.5631C116.26 79.5679 116.139 79.6209 116.028 79.7318C115.917 79.8378 115.84 79.968 115.797 80.1222C115.763 80.2861 115.734 80.45 115.705 80.609L115.7 80.6138C114.977 81.4332 113.98 81.7369 112.697 81.52C112.466 81.3272 112.186 81.2694 111.844 81.3609C111.352 81.4863 110.885 81.8381 110.437 82.4165C109.993 82.9901 109.646 83.6022 109.4 84.2481C109.154 84.894 109.015 85.4531 108.981 85.9207C108.981 85.9544 108.971 86.0267 108.962 86.1424C108.865 87.2317 108.933 88.0511 109.169 88.6006C109.097 88.6632 109.039 88.7404 108.995 88.8319C108.971 88.9187 108.913 89.044 108.831 89.1983C108.75 89.3573 108.586 89.6128 108.345 89.9695C108.104 90.3261 107.848 90.6539 107.583 90.9431C107.318 91.2323 106.99 91.4974 106.595 91.7336C106.204 91.9746 105.809 92.0999 105.414 92.124C103.968 92.177 103.143 90.9335 102.941 88.3885C102.984 88.3451 103.018 88.2969 103.047 88.2439C103.389 87.5305 103.78 86.716 104.214 85.7905C104.643 84.8651 105.279 83.4432 106.118 81.5248C106.952 79.6016 107.67 77.8472 108.263 76.2614C108.856 74.6756 109.338 73.1139 109.709 71.586C110.075 70.0581 110.157 68.9784 109.95 68.347C109.786 67.8794 109.492 67.6191 109.068 67.5661C109.039 67.5613 109.01 67.5613 108.986 67.5661C108.431 67.6143 107.863 68.0047 107.27 68.7374C106.677 69.47 106.122 70.4147 105.597 71.5715C105.076 72.7235 104.585 74.0056 104.122 75.4179C103.659 76.8253 103.264 78.2569 102.931 79.7029C102.594 81.1537 102.343 82.5129 102.179 83.7806C102.001 85.0868 101.914 86.2677 101.909 87.3185C101.9 87.3281 101.89 87.3377 101.885 87.3474C101.611 87.7523 101.288 88.1812 100.926 88.6343C100.565 89.0874 100.165 89.5549 99.7163 90.0466C99.268 90.5382 98.8438 90.9479 98.4389 91.2853C98.034 91.6179 97.6435 91.8782 97.2724 92.0517C96.8964 92.2252 96.6023 92.2252 96.3902 92.0421C96.0335 91.7673 95.8841 91.213 95.9419 90.3888C96.3613 89.9743 96.7662 89.5646 97.1567 89.1549C97.5471 88.7404 97.9761 88.2584 98.4437 87.6992C98.9064 87.1401 99.2728 86.6051 99.5331 86.0894C99.7982 85.5784 99.9042 85.1495 99.856 84.8121C99.7789 84.3397 99.456 84.0842 98.892 84.0553C98.3087 84.0312 97.7351 84.3686 97.1663 85.0627C96.5927 85.7616 96.1155 86.5714 95.7347 87.5016C95.6045 87.8246 95.4888 88.1427 95.3924 88.456C95.1659 88.7886 94.8911 89.1597 94.5826 89.5646C94.1874 90.0851 93.7391 90.625 93.2474 91.1889C92.7509 91.7577 92.2737 92.2493 91.8109 92.6735C91.353 93.0928 90.9192 93.4206 90.5095 93.6519C90.0997 93.8833 89.7864 93.9267 89.555 93.7773C89.3719 93.6857 89.261 93.4977 89.2321 93.2181C89.1646 92.6783 89.3237 91.9216 89.7093 90.9576C90.0901 89.9887 90.4757 89.1597 90.8613 88.4704C91.0011 88.2439 91.1457 88.0463 91.3 87.8824C91.3144 87.9692 91.3241 88.08 91.3289 88.2102C91.3289 88.321 91.353 88.4078 91.406 88.4753C91.4542 88.5427 91.5169 88.5909 91.5892 88.6199C91.6567 88.6488 91.7435 88.6488 91.8447 88.6247C91.9845 88.5861 92.1002 88.5042 92.1869 88.3692C92.2785 88.2343 92.3219 88.0848 92.3219 87.9258C92.2978 87.1208 92.0712 86.6919 91.647 86.6437C91.165 86.5762 90.6444 87.0196 90.0949 87.9788C89.9551 88.2053 89.8057 88.4753 89.6466 88.7982C89.4875 89.1163 89.2755 89.579 89.0103 90.1815C88.7404 90.784 88.5331 91.3962 88.3837 92.0131C88.2391 92.6349 88.1957 93.1651 88.2584 93.6134C88.3355 94.1821 88.5717 94.5822 88.9525 94.8184C89.2706 95.0064 89.6466 95.0449 90.0804 94.934C90.548 94.8136 91.0831 94.5099 91.6952 94.0279C92.3026 93.5459 92.8521 93.035 93.339 92.5048C93.8258 91.9698 94.3223 91.3865 94.8333 90.7455C94.8767 90.6876 94.92 90.6346 94.9634 90.5816C94.9393 90.9576 94.9586 91.3191 95.0164 91.6661C95.1177 92.2831 95.3587 92.7458 95.7443 93.0446C96.1155 93.2953 96.5589 93.3579 97.0747 93.2278C97.5905 93.0928 98.1593 92.7795 98.7811 92.2831C99.4029 91.7866 99.9958 91.2082 100.56 90.543C101.124 89.8827 101.558 89.3573 101.856 88.9669C101.895 88.9139 101.934 88.8657 101.967 88.8175C102.04 89.5935 102.17 90.2779 102.358 90.8708C102.893 92.5241 103.852 93.3242 105.236 93.2712C105.462 93.2567 105.689 93.223 105.915 93.1651C106.368 93.0494 106.807 92.8325 107.246 92.5144C107.679 92.1915 108.036 91.8685 108.325 91.5408C108.61 91.213 108.88 90.8515 109.135 90.4611C109.391 90.0659 109.564 89.7815 109.656 89.608C109.718 89.4923 109.767 89.3911 109.8 89.3091C109.911 89.3621 110.037 89.3959 110.172 89.4152C110.331 89.4393 110.49 89.4296 110.663 89.3862C110.957 89.3091 111.237 89.1404 111.502 88.8801C111.965 88.4415 112.35 87.8197 112.654 87.0052C112.962 86.1954 113.141 85.5495 113.194 85.0723C113.29 84.0457 113.3 83.26 113.223 82.725C114.042 82.725 114.765 82.5322 115.402 82.1418C114.794 85.3133 114.462 87.3185 114.404 88.1571C114.389 88.3644 114.462 88.5138 114.621 88.6006C114.775 88.6873 114.939 88.6681 115.108 88.5331C115.276 88.403 115.479 88.1668 115.715 87.8197C115.951 87.4679 116.308 86.8895 116.795 86.0797C118.135 83.8529 118.973 82.6431 119.311 82.4454C119.412 82.6093 119.513 83.2022 119.615 84.2288C119.677 84.8024 119.73 85.2362 119.769 85.5302C119.807 85.8194 119.889 86.1279 120.015 86.4557C120.14 86.7834 120.299 86.9907 120.501 87.0823C120.699 87.1931 120.921 87.2124 121.162 87.1546C121.654 87.0244 122.136 86.6437 122.608 86.0122C122.642 85.964 122.671 85.9158 122.69 85.8676C122.96 85.7182 123.278 85.4242 123.644 84.9808C124.068 84.4747 124.478 83.9155 124.864 83.3034C125.254 82.6961 125.77 81.8381 126.421 80.7295C127.086 79.6016 127.529 78.8738 127.751 78.5461C128.012 79.1919 128.142 80.3391 128.137 81.9827C126.474 83.5444 124.878 85.4435 123.355 87.6848C121.827 89.9261 120.593 92.0806 119.653 94.1388C118.713 96.1969 118.135 97.9224 117.927 99.3154C117.696 100.795 117.898 101.759 118.54 102.217C118.829 102.429 119.166 102.487 119.561 102.381C119.716 102.342 119.889 102.275 120.068 102.179C120.873 101.75 121.793 100.829 122.844 99.4215C123.895 98.0092 124.893 96.3559 125.842 94.4521C126.797 92.5482 127.539 90.7021 128.084 88.9042C128.706 86.8316 129.053 84.6482 129.12 82.349C129.819 81.7417 130.518 81.2019 131.217 80.7343C131.304 80.6813 131.371 80.6042 131.429 80.5126C131.482 80.4162 131.516 80.3246 131.53 80.2331C131.545 80.1415 131.535 80.0451 131.506 79.9439ZM96.4288 88.2728C96.4866 88.1234 96.5445 87.974 96.6072 87.8246C96.8964 87.1305 97.2145 86.5424 97.5712 86.0604C97.9231 85.5784 98.2412 85.2989 98.5256 85.2266C98.569 85.2169 98.6076 85.2121 98.651 85.2169C98.81 85.2121 98.8872 85.2121 98.8872 85.2314C98.8872 85.4531 98.6413 85.8917 98.14 86.5473C97.6676 87.169 97.0892 87.839 96.3951 88.5717C96.4288 88.4849 96.4384 88.403 96.4336 88.3114C96.4336 88.2969 96.4336 88.2825 96.4288 88.2728ZM103.153 83.6986C103.37 82.0309 103.717 80.3005 104.199 78.5075C104.676 76.7096 105.182 75.119 105.713 73.7405C106.248 72.362 106.788 71.2004 107.342 70.2605C107.896 69.3206 108.369 68.8 108.764 68.6988L108.807 68.6892C108.909 68.7277 108.981 68.8097 109.024 68.9446C109.232 69.5761 109.019 70.9112 108.388 72.9549C107.757 74.9985 106.971 77.1531 106.026 79.4185C105.081 81.6887 104.04 84.0023 102.912 86.3641C102.946 85.5302 103.023 84.6385 103.153 83.6986ZM112.196 85.2121C112.186 85.3905 112.129 85.6507 112.027 85.9978C111.926 86.34 111.777 86.7256 111.574 87.1401C111.377 87.5595 111.179 87.8728 110.981 88.0848C110.803 88.2391 110.629 88.3066 110.475 88.2873C110.191 88.2487 110.017 87.9836 109.945 87.5016C109.873 87.0196 109.877 86.5183 109.955 86.0026C109.955 85.8917 109.959 85.8146 109.974 85.7616C109.998 85.2459 110.2 84.6193 110.586 83.8818C110.972 83.1443 111.362 82.6864 111.757 82.5033C111.868 82.5563 111.989 82.59 112.119 82.6045C112.307 82.9515 112.331 83.824 112.196 85.2121ZM127.149 88.7404C126.633 90.4804 125.91 92.2686 124.98 94.1002C124.049 95.9366 123.119 97.4838 122.189 98.7418C121.258 99.9999 120.468 100.805 119.822 101.142C119.542 101.296 119.33 101.321 119.186 101.215C118.829 100.969 118.737 100.328 118.906 99.2769C119.099 97.9996 119.615 96.4282 120.453 94.5629C121.292 92.6976 122.396 90.7358 123.77 88.6777C125.143 86.6196 126.585 84.8362 128.093 83.3323C127.978 85.2603 127.66 87.0582 127.149 88.7404Z" fill="#F9F8F4" stroke="#F9F8F4" stroke-width="0.38587"/>
<path d="M92.0471 123.425C83.0524 123.425 74.5975 119.921 68.2395 113.563C68.066 113.39 68.066 113.11 68.2395 112.942C68.4131 112.768 68.6926 112.768 68.8613 112.942C75.0555 119.135 83.2886 122.543 92.0471 122.543C99.9476 122.543 107.578 119.694 113.531 114.523C113.714 114.364 113.994 114.383 114.153 114.566C114.312 114.749 114.293 115.029 114.11 115.188C107.993 120.499 100.16 123.425 92.0471 123.425Z" fill="#F9F8F4" stroke="#F9F8F4" stroke-width="0.38587"/>
<path d="M118.114 110.802C118.018 110.802 117.921 110.773 117.839 110.706C117.646 110.557 117.617 110.277 117.767 110.084C118.606 109.029 119.382 107.906 120.081 106.758C120.206 106.551 120.476 106.484 120.688 106.609C120.895 106.734 120.963 107.009 120.837 107.216C120.119 108.397 119.319 109.549 118.461 110.634C118.374 110.744 118.244 110.802 118.114 110.802Z" fill="#F9F8F4" stroke="#F9F8F4" stroke-width="0.38587"/>
<path d="M120.542 73.1044C120.393 73.1044 120.248 73.0273 120.161 72.8923C114.17 62.9246 103.657 56.9719 92.0444 56.9719C85.3201 56.9719 78.856 58.9915 73.356 62.8137C73.1536 62.9535 72.8788 62.9053 72.7438 62.7029C72.6041 62.5053 72.6523 62.2257 72.8547 62.0907C78.5041 58.1673 85.1369 56.0898 92.0444 56.0898C103.97 56.0898 114.767 62.2016 120.918 72.4344C121.043 72.6417 120.976 72.9164 120.769 73.0418C120.696 73.0803 120.619 73.1044 120.542 73.1044Z" fill="#F9F8F4" stroke="#F9F8F4" stroke-width="0.38587"/>
<path d="M63.466 73.2346C63.3889 73.2346 63.3118 73.2153 63.2395 73.1719C63.0322 73.0466 62.9599 72.7767 63.0852 72.5646C63.8275 71.3162 64.6615 70.1016 65.5629 68.9544C65.7123 68.7616 65.9919 68.7327 66.1847 68.8821C66.3775 69.0315 66.4112 69.3111 66.257 69.5039C65.3797 70.6173 64.5699 71.803 63.842 73.0177C63.7649 73.1574 63.6203 73.2346 63.466 73.2346Z" fill="#F9F8F4" stroke="#F9F8F4" stroke-width="0.38587"/>
<path d="M73.208 107.432C73.1116 107.432 73.02 107.394 72.9526 107.317C72.8369 107.177 72.8513 106.97 72.9911 106.849C77.4354 103.104 82.4052 100.164 87.7606 98.1106C98.5484 93.9751 108.531 94.3558 115.01 95.4066C115.188 95.4355 115.313 95.6042 115.285 95.7874C115.256 95.9657 115.087 96.091 114.904 96.0621C108.507 95.0258 98.6497 94.6499 87.9968 98.7324C82.7089 100.762 77.8066 103.663 73.4153 107.355C73.3575 107.408 73.2803 107.432 73.208 107.432Z" fill="#F9F8F4" stroke="#F9F8F4" stroke-width="0.38587"/>
<path d="M114.475 99.8455C114.451 99.8455 114.432 99.8455 114.408 99.8407C112.398 99.4262 110.335 99.19 108.281 99.137C106.261 99.084 104.227 99.2093 102.232 99.5081C102.049 99.5322 101.885 99.4117 101.856 99.2286C101.827 99.0502 101.952 98.8815 102.135 98.8526C104.169 98.549 106.242 98.4236 108.3 98.4767C110.393 98.5297 112.494 98.7707 114.543 99.1948C114.721 99.2334 114.837 99.4069 114.798 99.5853C114.769 99.7395 114.63 99.8455 114.475 99.8455Z" fill="#F9F8F4" stroke="#F9F8F4" stroke-width="0.38587"/>
<path d="M115.724 60.7893C115.531 60.7893 115.334 60.7652 115.141 60.717C113.835 60.394 113.03 59.0734 113.353 57.7671C113.676 56.4609 114.996 55.6608 116.303 55.9789C117.609 56.3019 118.414 57.6225 118.091 58.9288C117.937 59.5602 117.541 60.0952 116.987 60.4326C116.601 60.6688 116.168 60.7893 115.724 60.7893ZM114.288 57.9937C114.095 58.7842 114.582 59.5843 115.372 59.7771C115.753 59.8735 116.153 59.8108 116.491 59.6036C116.828 59.4011 117.064 59.0734 117.161 58.6926C117.353 57.9021 116.867 57.102 116.076 56.9092C115.281 56.7164 114.481 57.2032 114.288 57.9937Z" fill="#F9F8F4" stroke="#F9F8F4" stroke-width="0.38587"/>
<path d="M80.3794 130.516C79.7769 130.516 79.1695 130.294 78.6971 129.846C77.7234 128.92 77.6848 127.368 78.6152 126.395C79.0634 125.922 79.6708 125.652 80.3216 125.638C80.9771 125.619 81.5941 125.86 82.0617 126.313C82.5341 126.761 82.804 127.368 82.8185 128.019C82.8329 128.67 82.5967 129.287 82.1436 129.759C81.6664 130.265 81.0205 130.516 80.3794 130.516ZM79.3623 129.147C79.9504 129.706 80.8855 129.687 81.4495 129.094C81.7194 128.809 81.8641 128.433 81.8544 128.038C81.8448 127.643 81.6809 127.277 81.3965 127.007C81.1121 126.732 80.7313 126.583 80.3408 126.602C79.9456 126.611 79.5792 126.775 79.3093 127.06C78.7453 127.648 78.7694 128.588 79.3623 129.147Z" fill="#F9F8F4" stroke="#F9F8F4" stroke-width="0.38587"/>
<path d="M121.706 63.1947C121.595 63.1947 121.48 63.1803 121.364 63.1562C120.998 63.0646 120.684 62.838 120.491 62.5151C120.294 62.1922 120.236 61.8114 120.328 61.4451C120.516 60.6883 121.282 60.2208 122.039 60.4088C122.796 60.5967 123.263 61.3631 123.075 62.1199C122.984 62.4862 122.757 62.7995 122.434 62.9923C122.217 63.1224 121.962 63.1947 121.706 63.1947ZM121.268 61.6716C121.239 61.7873 121.258 61.9126 121.321 62.0138C121.383 62.115 121.48 62.1922 121.6 62.2163C121.716 62.2452 121.841 62.2259 121.942 62.1632C122.044 62.1006 122.116 62.0042 122.145 61.8837C122.203 61.6427 122.053 61.3969 121.812 61.339C121.571 61.2764 121.325 61.4258 121.268 61.6716Z" fill="#F9F8F4" stroke="#F9F8F4" stroke-width="0.38587"/>
<path d="M73.92 127.349C73.5537 127.349 73.2114 127.209 72.9463 126.958C72.3823 126.418 72.3582 125.522 72.8981 124.958C73.438 124.394 74.3346 124.37 74.8985 124.91C75.1733 125.17 75.3275 125.522 75.3372 125.903C75.3468 126.279 75.207 126.64 74.9467 126.915C74.6864 127.19 74.3346 127.344 73.9537 127.354C73.9441 127.349 73.9296 127.349 73.92 127.349ZM73.6067 126.259C73.6935 126.341 73.8043 126.38 73.9296 126.385C74.0502 126.38 74.161 126.332 74.2478 126.245C74.3297 126.158 74.3779 126.042 74.3731 125.922C74.3683 125.801 74.3201 125.691 74.2333 125.604C74.1466 125.522 74.0261 125.483 73.9104 125.479C73.7899 125.483 73.679 125.532 73.5922 125.618C73.4235 125.801 73.4283 126.086 73.6067 126.259Z" fill="#F9F8F4" stroke="#F9F8F4" stroke-width="0.38587"/>
</svg>
