<svg width="184" height="185" viewBox="0 0 184 185" fill="none" xmlns="http://www.w3.org/2000/svg">
<rect y="0.989014" width="184" height="184" rx="3" fill="#090909"/>
<g clip-path="url(#clip0)">
<path d="M38.2509 90.331C39.3116 90.7072 40.3713 91.0498 41.432 91.361C41.5369 91.3914 41.6227 91.4705 41.663 91.5746C41.8792 92.1243 42.0953 92.673 42.3104 93.2205C43.1401 95.3663 43.9699 97.4925 44.7996 99.6014C44.8239 99.6642 44.9098 99.6697 44.9416 99.61C46.0637 97.486 47.1859 95.3283 48.3081 93.1403C48.36 93.0394 48.4681 92.9852 48.5772 93.0037C49.6475 93.1847 50.7167 93.3376 51.7869 93.4645C51.913 93.4797 52.0222 93.561 52.0752 93.6781C52.2977 94.1725 52.5202 94.6669 52.7427 95.1592C53.6752 97.1596 54.6088 99.1405 55.5413 101.104C55.5826 101.191 55.7024 101.191 55.7447 101.105C56.6497 99.2642 57.5546 97.4057 58.4596 95.5321C58.6832 95.0616 58.9068 94.5888 59.1293 94.1161C59.1738 94.0218 59.2681 93.9632 59.3698 93.9643C60.456 93.9827 61.5421 93.9784 62.6283 93.9567C62.7883 93.9535 62.8932 94.127 62.818 94.2712C62.5965 94.6994 62.3761 95.1266 62.1546 95.5527C60.6849 98.4239 59.2151 101.259 57.7454 104.052C57.7252 104.096 57.7051 104.139 57.685 104.182C57.6352 104.29 57.5271 104.357 57.4105 104.353C56.2544 104.305 55.0984 104.232 53.9423 104.13C53.8448 104.122 53.7579 104.062 53.7134 103.972C52.5785 101.66 51.4447 99.3216 50.3098 96.9525C50.2769 96.8842 50.1826 96.882 50.1476 96.9493C49.0869 98.94 48.0262 100.905 46.9655 102.84C46.9305 102.909 46.8966 102.979 46.8617 103.048C46.8383 103.094 46.7885 103.119 46.7387 103.109C45.5381 102.87 44.3376 102.595 43.138 102.281C43.067 102.262 43.0077 102.211 42.978 102.143C41.5369 98.8391 40.0968 95.4812 38.6557 92.0604L38.0167 90.5901C37.95 90.4361 38.0951 90.2757 38.2509 90.331Z" fill="#F9F8F4"/>
<path d="M79.5276 98.7977C79.5276 100.039 79.5276 101.281 79.5276 102.522C79.5276 102.674 79.4185 102.804 79.2712 102.826C78.2804 102.975 77.2896 103.118 76.2989 103.253C76.1918 103.267 76.0975 103.182 76.0975 103.072C76.0975 101.811 76.0975 100.551 76.0975 99.2899C76.0975 96.1727 74.8726 94.915 72.2192 95.2088C69.7587 95.4733 68.2285 96.3017 67.0979 97.4402C67.0173 97.5215 66.9728 97.6343 66.9728 97.7503V103.888C66.9728 104.07 66.834 104.221 66.6571 104.232C65.7118 104.291 64.7666 104.336 63.8214 104.367C63.6688 104.373 63.5427 104.247 63.5427 104.091V89.1109C63.5427 88.8876 63.7165 88.7043 63.9348 88.6968C64.8133 88.6664 65.6928 88.623 66.5712 88.5699C66.7885 88.5569 66.9728 88.7325 66.9728 88.9559V94.8293C66.9728 94.9876 67.1593 95.0646 67.2685 94.9529C68.4235 93.77 70.0872 92.7302 72.7501 92.4342C78.4659 91.7511 79.5276 94.6797 79.5276 98.7977Z" fill="#F9F8F4"/>
<path d="M80.5292 97.5564C80.5292 93.8601 83.9392 90.9077 88.8581 90.0165C93.635 89.1501 97.188 90.9327 97.188 94.6343C97.188 98.1397 93.6361 101.099 88.8581 101.965C83.9582 102.853 80.5281 101.067 80.5292 97.5564ZM84.2984 93.0155C82.764 94.7189 83.5852 97.0489 86.3488 98.8618C89.1113 100.676 91.947 100.77 93.4814 99.0678C94.9839 97.4002 94.167 95.0648 91.4044 93.2508C88.6409 91.4368 85.7999 91.3479 84.2984 93.0155Z" fill="#FBB040"/>
<path d="M97.5957 94.5625C97.5957 90.8738 101.006 87.8119 105.926 87.0822C110.703 86.3753 114.256 88.5026 114.254 92.1988C114.254 95.7096 110.703 98.3248 105.926 99.0318C101.026 99.7571 97.5957 98.0809 97.5957 94.5625ZM101.469 89.8839C99.9322 91.5819 100.645 94.0269 103.333 95.9297C106.021 97.8293 108.865 97.9237 110.401 96.2268C111.909 94.5592 111.091 92.2292 108.403 90.3295C105.717 88.4267 102.978 88.2174 101.469 89.8839Z" fill="#FBB040"/>
<path d="M129.118 87.5033C128.838 88.0476 128.557 88.5929 128.275 89.1405C128.2 89.2879 128.023 89.3454 127.879 89.2695C126.903 88.7567 125.367 88.1169 122.585 87.9825C120.767 87.886 118.317 87.9706 118.317 89.0819C118.317 90.1803 120.666 89.8095 124.422 90.1152C127.341 90.3516 129.853 90.9295 129.913 93.7757C129.913 96.5145 126.565 97.3472 122.42 97.4047C119.554 97.4318 116.613 97.0198 114.702 96.0233C114.555 95.9464 114.498 95.762 114.574 95.6124C114.898 94.9759 115.221 94.3406 115.545 93.7063C115.621 93.5588 115.797 93.5003 115.942 93.5773C117.573 94.4425 119.779 94.9109 122.278 94.8784C124.504 94.8448 126.524 94.7201 126.524 93.8212C126.524 92.7402 125.401 92.9278 120.767 92.6958C117.072 92.5483 115.316 91.1995 115.316 89.5156C115.316 87.281 117.868 85.3716 122.686 85.5364C126.043 85.6741 127.832 86.509 128.986 87.0891C129.136 87.1661 129.196 87.3525 129.118 87.5033Z" fill="#F9F8F4"/>
<path d="M146.667 96.7465V100.332C146.667 100.529 146.476 100.667 146.294 100.602C145.341 100.263 144.388 99.9515 143.436 99.6653C143.318 99.6295 143.237 99.52 143.237 99.3942V95.6167C143.237 92.5146 142.013 90.6627 139.359 90.0512C136.905 89.5037 135.377 89.9927 134.246 90.8861C134.16 90.9533 134.113 91.0596 134.113 91.1702V97.3385C134.113 97.4968 133.976 97.6193 133.822 97.5976C132.844 97.4653 131.866 97.3537 130.888 97.2637C130.772 97.2528 130.683 97.1531 130.683 97.0338C130.683 92.0083 130.683 86.9817 130.683 81.9562C130.683 81.7534 130.853 81.5929 131.05 81.6124C131.968 81.6992 132.886 81.8044 133.804 81.9291C133.98 81.9529 134.113 82.108 134.113 82.2901V88.2351C134.113 88.4161 134.316 88.517 134.456 88.4064C135.609 87.4913 137.264 86.8505 139.891 87.4588C145.605 88.8997 146.667 92.7206 146.667 96.7465Z" fill="#F9F8F4"/>
</g>
<defs>
<clipPath id="clip0">
<rect width="108.667" height="22.7574" fill="white" transform="translate(37.9997 81.61)"/>
</clipPath>
</defs>
</svg>
