<svg width="183" height="184" viewBox="0 0 183 184" fill="none" xmlns="http://www.w3.org/2000/svg">
<rect y="0.489258" width="183" height="183" rx="3" fill="#0C0C0C"/>
<path d="M95.2932 118.955V115.748H97.1201V124.956H95.5066L95.4399 124.129C94.9799 124.829 94.3332 125.176 93.4997 125.176C92.653 125.176 91.9663 124.842 91.4329 124.182C90.8995 123.522 90.6328 122.655 90.6328 121.595C90.6328 120.542 90.8928 119.702 91.4062 119.062C91.9263 118.435 92.573 118.115 93.3597 118.115C94.1865 118.115 94.8332 118.395 95.2932 118.955ZM93.8864 123.575C94.3265 123.575 94.6865 123.395 94.9665 123.035C95.2466 122.675 95.3866 122.195 95.3866 121.602C95.3866 121.009 95.2466 120.528 94.9732 120.175C94.6999 119.815 94.3332 119.642 93.8864 119.642C93.4397 119.642 93.073 119.822 92.7997 120.175C92.5263 120.535 92.3863 121.009 92.3863 121.602C92.3863 122.195 92.5263 122.675 92.7997 123.035C93.073 123.395 93.4331 123.575 93.8864 123.575Z" fill="#F9F8F4"/>
<path d="M104.774 121.854V122.167H99.9399C99.9733 122.668 100.127 123.061 100.407 123.348C100.687 123.634 101.047 123.774 101.507 123.774C102.153 123.774 102.587 123.488 102.8 122.908L104.614 123.034C104.387 123.741 104.014 124.281 103.487 124.648C102.96 125.014 102.313 125.201 101.547 125.201C100.467 125.201 99.6199 124.868 98.9998 124.194C98.3798 123.521 98.0664 122.661 98.0664 121.607C98.0664 120.601 98.3664 119.767 98.9598 119.114C99.5532 118.46 100.353 118.134 101.353 118.134C102.36 118.134 103.187 118.467 103.827 119.141C104.454 119.807 104.774 120.714 104.774 121.854ZM102.42 119.834C102.16 119.574 101.827 119.447 101.413 119.447C101 119.447 100.66 119.574 100.393 119.834C100.127 120.107 99.9732 120.474 99.9266 120.921H102.887C102.834 120.454 102.68 120.094 102.42 119.834Z" fill="#F9F8F4"/>
<path d="M107.514 124.961H105.688V115.747H107.514V124.961Z" fill="#F9F8F4"/>
<path d="M112.196 119.627L110.956 119.587V122.861C110.956 123.087 111.01 123.247 111.103 123.347C111.196 123.447 111.363 123.494 111.59 123.494H112.196V124.954H111.003C110.33 124.954 109.849 124.807 109.563 124.521C109.276 124.234 109.129 123.754 109.129 123.081V119.587L108.223 119.627V118.28L109.129 118.307V116.227H110.95V118.32L112.19 118.28V119.627H112.196Z" fill="#F9F8F4"/>
<path d="M118.885 124.961H117.038C116.945 124.528 116.898 124.308 116.898 124.288C116.425 124.868 115.738 125.154 114.845 125.154C114.145 125.154 113.585 124.968 113.165 124.601C112.745 124.234 112.531 123.741 112.531 123.127C112.531 122.047 113.205 121.374 114.558 121.107L116.885 120.641V120.147C116.885 119.667 116.512 119.42 115.758 119.42C115.385 119.42 115.105 119.487 114.918 119.627C114.725 119.767 114.611 119.987 114.571 120.3L112.905 120.274C113.018 118.84 113.965 118.127 115.752 118.127C117.672 118.127 118.638 118.954 118.638 120.607V123.554C118.625 124.188 118.712 124.654 118.885 124.961ZM115.358 123.807C115.818 123.807 116.185 123.674 116.465 123.401C116.745 123.127 116.885 122.761 116.885 122.294V121.801L115.178 122.161C114.598 122.274 114.311 122.554 114.311 123.001C114.311 123.241 114.405 123.434 114.591 123.581C114.771 123.734 115.031 123.807 115.358 123.807Z" fill="#F9F8F4"/>
<path d="M121.142 125.328C121.785 125.328 122.307 124.807 122.307 124.163C122.307 123.52 121.785 122.998 121.142 122.998C120.498 122.998 119.977 123.52 119.977 124.163C119.977 124.807 120.498 125.328 121.142 125.328Z" fill="#F9F8F4"/>
<path d="M118.672 89.6111L68.2476 60.1278L66.4816 59.0952C65.2612 58.3852 63.7181 59.2184 63.6476 60.6265L63.542 62.6684L60.6025 119.64L60.491 121.799C60.4147 123.254 61.9461 124.24 63.2369 123.571L65.1556 122.58L118.531 95.0971L120.543 94.0586C121.863 93.378 121.916 91.5063 120.631 90.7553L118.672 89.6111ZM115.192 91.2012L79.7183 100.648C79.0494 100.824 78.3629 100.43 78.181 99.7557L68.5879 63.9533L115.192 91.2012ZM63.8647 117.141L66.4053 67.8962L75.5231 101.897C75.6287 102.285 75.5407 102.701 75.2884 103.012L63.8647 117.141ZM67.1739 118.027L78.0402 104.585C78.2104 104.379 78.4392 104.227 78.6915 104.162L110.604 95.6603L67.1739 118.027Z" fill="#F9F8F4"/>
</svg>
