<svg width="184" height="185" viewBox="0 0 184 185" fill="none" xmlns="http://www.w3.org/2000/svg">
<rect y="0.355469" width="184" height="184" rx="3" fill="#0C0C0C"/>
<g clip-path="url(#clip0)">
<path d="M63.4393 91.2259C67.9888 92.0374 71.1965 94.1708 71.1965 98.0148C71.1965 100.876 69.5067 103.352 67.0356 104.718C64.8256 105.912 61.8789 106.51 58.3676 106.51H46.668V104.931C50.0052 104.59 50.3513 104.377 50.3513 100.79V84.5228C50.3513 80.936 49.7867 80.5532 46.7105 80.3379V78.7588H59.8855C63.1802 78.7588 65.2587 79.1855 66.9931 80.2521C68.5959 81.2769 69.6362 82.8999 69.6362 84.9914C69.6362 88.5363 66.2564 90.6697 63.4393 91.2259ZM57.9345 90.6697C62.0509 90.6697 63.5688 88.9191 63.5688 85.759C63.5688 82.0446 61.0977 80.6369 58.7157 80.6369C57.6755 80.6369 56.8963 80.936 56.6352 81.1493C56.3317 81.4923 56.2446 82.0884 56.2446 82.9856V90.6717H57.9345V90.6697ZM56.2446 100.704C56.2446 103.779 57.2849 104.674 59.6244 104.674C62.0955 104.632 64.7386 102.583 64.7386 98.4415C64.7386 94.4718 62.6156 92.5079 57.7625 92.5079H56.2446V100.704Z" fill="#F9F8F4"/>
<path d="M109.033 107.023C107.863 107.023 106.91 106.638 106.345 106.126C105.738 105.613 105.434 105.015 105.218 104.546C103.57 105.613 101.447 107.023 100.624 107.023C96.8959 107.023 94.7305 104.162 94.7305 101.516C94.7305 99.253 95.7707 98.2282 98.0677 97.331C100.624 96.3919 104.048 95.3671 105.046 94.5137V92.6356C105.046 90.4145 104.222 89.1764 102.358 89.1764C101.622 89.1764 101.014 89.5173 100.624 90.0297C100.104 90.7136 99.9296 91.5669 99.5836 92.8469C99.28 93.9993 98.5878 94.2984 97.7196 94.2984C96.5924 94.2984 95.1636 93.2736 95.1636 92.0773C95.1636 91.3097 95.6837 90.7534 96.6814 90.0716C98.6324 88.7916 101.188 87.5534 103.615 87.041C105.349 87.041 106.823 87.4258 108.08 88.2792C109.943 89.5592 110.464 91.3536 110.464 93.5308C110.464 95.6223 110.464 98.8243 110.464 100.916C110.464 102.965 111.156 103.478 111.85 103.478C112.283 103.478 112.716 103.35 113.194 103.135L113.669 104.586L109.033 107.023ZM105.046 96.2643C104.267 96.6909 103.485 97.1176 102.619 97.5881C101.275 98.272 100.496 99.0396 100.496 100.491C100.496 102.882 102.186 103.737 103.139 103.737C103.747 103.737 104.352 103.695 105.046 103.053C105.046 101.045 105.046 98.27 105.046 96.2643Z" fill="#F9F8F4"/>
<path d="M127.456 106.511V105.06C129.275 104.804 129.407 104.633 129.407 101.688V94.3848C129.407 91.3522 127.889 90.4132 126.373 90.4132C125.246 90.4132 124.293 90.8398 123.123 91.6952V102.027C123.123 104.631 123.297 104.802 125.074 105.058V106.509H115.02V105.058C117.274 104.673 117.533 104.631 117.533 101.856V92.9772C117.533 90.4152 117.187 90.2875 115.281 89.9027V88.537C117.794 88.2379 120.785 87.6837 123.21 86.9141C123.167 87.5122 123.123 89.0055 123.123 89.9885C123.989 89.3903 124.9 88.7503 125.895 88.1522C127.197 87.3846 128.018 87.0417 129.275 87.0417C132.787 87.0417 134.995 89.5598 134.995 93.9142V101.983C134.995 104.631 135.254 104.758 137.334 105.058V106.509H127.456V106.511Z" fill="#F9F8F4"/>
<path d="M92.8568 97.7871C91.3248 103.029 84.9073 107.704 79.5361 106.496C78.8663 106.342 76.4013 105.786 74.8267 103.605C71.4288 98.9037 74.4422 92.0052 78.674 89.1062C81.2948 87.3098 84.6645 86.4684 87.7427 87.4294C89.042 87.8362 90.2704 88.5539 91.2317 89.5289C91.4038 89.7023 91.3633 89.9894 91.1589 90.123C89.6936 91.0661 88.8072 93.4287 86.5041 96.1044C83.4057 99.6972 81.477 99.755 81.4992 100.138C81.5276 100.598 84.6483 99.4839 88.3114 96.88C89.5317 96.0147 91.2196 94.1206 92.5351 92.7847C92.7718 92.5435 93.1928 92.689 93.2232 93.024C93.377 94.6928 93.0653 97.0813 92.8568 97.7871Z" fill="#EAB57F"/>
<path d="M77.0357 83.0991H75.6777V82.9435H75.9125C75.9995 82.9435 76.0602 82.9276 76.0946 82.8917C76.1291 82.8578 76.1473 82.806 76.1473 82.7362V79.1135C76.1473 78.9759 76.1392 78.8981 76.121 78.8802C76.1027 78.8623 76.0339 78.8543 75.9125 78.8543C75.6676 78.8543 75.4996 78.8981 75.4025 78.9839C75.3074 79.0696 75.19 79.3029 75.0504 79.6817L74.8945 79.6558L75.1293 78.6729H77.6085L77.8169 79.6558L77.6854 79.6817C77.5457 79.3188 77.4364 79.0915 77.3595 78.9958C77.2806 78.9021 77.1207 78.8543 76.8758 78.8543C76.7018 78.8543 76.6067 78.8623 76.5885 78.8802C76.5702 78.8981 76.5621 78.9839 76.5621 79.1394V82.7362C76.5621 82.806 76.5844 82.8578 76.6269 82.8917C76.6694 82.9256 76.7261 82.9435 76.7969 82.9435H77.0317V83.0991H77.0357Z" fill="#F9F8F4" stroke="#F9F8F4" stroke-width="0.4" stroke-miterlimit="10"/>
<path d="M83.3046 82.7361C83.3046 82.8059 83.3269 82.8578 83.3694 82.8917C83.4119 82.9256 83.4686 82.9435 83.5394 82.9435H83.6709V83.099H82.5214V82.9435H82.653C82.74 82.9435 82.8007 82.9276 82.8351 82.8917C82.8695 82.8578 82.8877 82.8059 82.8877 82.7361V80.848H81.3476V82.7361C81.3476 82.8059 81.3699 82.8578 81.4124 82.8917C81.4549 82.9256 81.5115 82.9435 81.5824 82.9435H81.7139V83.099H80.5664V82.9435H80.6959C80.783 82.9435 80.8437 82.9276 80.8781 82.8917C80.9125 82.8578 80.9307 82.8059 80.9307 82.7361V79.0357C80.9307 78.9679 80.9125 78.9161 80.8781 78.8802C80.8437 78.8463 80.783 78.8283 80.6959 78.8283H80.5907V78.6748H81.6876V78.8303H81.5824C81.5136 78.8303 81.4569 78.8483 81.4124 78.8822C81.3678 78.9161 81.3476 78.9679 81.3476 79.0377V80.6925H82.8877V79.0377C82.8877 78.9699 82.8695 78.918 82.8351 78.8822C82.8007 78.8483 82.74 78.8303 82.653 78.8303H82.5477V78.6748H83.6446V78.8303H83.5394C83.4706 78.8303 83.4119 78.8483 83.3694 78.8822C83.3249 78.9161 83.3046 78.9679 83.3046 79.0377V82.7361Z" fill="#F9F8F4" stroke="#F9F8F4" stroke-width="0.4" stroke-miterlimit="10"/>
<path d="M86.413 78.8303V78.6748H88.9711L89.2585 79.5541L89.127 79.6059C88.9873 79.3467 88.8396 79.1533 88.6837 79.0237C88.5279 78.8941 88.3539 78.8303 88.1616 78.8303H87.431C87.3622 78.8303 87.3035 78.8483 87.261 78.8822C87.2165 78.9161 87.1962 78.9679 87.1962 79.0377V80.6407H87.9531C88.1272 80.6407 88.2527 80.5988 88.3316 80.5111C88.4105 80.4253 88.449 80.2958 88.449 80.1223V79.9688H88.6048V81.494H88.449V81.3903C88.449 81.2009 88.4105 81.0534 88.3316 80.9497C88.2527 80.846 88.1272 80.7942 87.9531 80.7942H87.1962V82.7342C87.1962 82.8039 87.2185 82.8558 87.261 82.8897C87.3035 82.9236 87.3602 82.9415 87.431 82.9415H88.109C88.3701 82.9415 88.5927 82.8677 88.7748 82.7222C88.957 82.5766 89.1006 82.3474 89.2059 82.0363L89.3374 82.0882L89.0501 83.097H86.3867V82.9415H86.5426C86.6296 82.9415 86.6903 82.9256 86.7247 82.8897C86.7591 82.8558 86.7773 82.8039 86.7773 82.7342V79.0357C86.7773 78.9679 86.7591 78.9161 86.7247 78.8802C86.6903 78.8463 86.6296 78.8283 86.5426 78.8283H86.413V78.8303Z" fill="#F9F8F4" stroke="#F9F8F4" stroke-width="0.4" stroke-miterlimit="10"/>
<path d="M100.649 79.7096C100.649 80.0545 100.553 80.3217 100.361 80.5111C100.169 80.7005 99.9523 80.8121 99.7095 80.848L100.493 82.7621C100.527 82.8319 100.566 82.8777 100.61 82.9036C100.653 82.9295 100.701 82.9415 100.754 82.9415H100.91V83.097H100.179L99.3168 80.872H98.7158V82.7342C98.7158 82.8039 98.738 82.8558 98.7805 82.8897C98.823 82.9236 98.8797 82.9415 98.9505 82.9415H99.1064V83.097H97.9062V82.9415H98.0621C98.1491 82.9415 98.2098 82.9256 98.2442 82.8897C98.2786 82.8558 98.2968 82.8039 98.2968 82.7342V79.0357C98.2968 78.9679 98.2786 78.9161 98.2442 78.8802C98.2098 78.8463 98.1491 78.8283 98.0621 78.8283H97.9062V78.6748H99.3937C99.7945 78.6748 100.102 78.7605 100.321 78.934C100.539 79.1055 100.649 79.3647 100.649 79.7096ZM98.7178 80.7184H99.2926C99.5536 80.7184 99.7702 80.6407 99.9442 80.4852C100.118 80.3296 100.205 80.0884 100.205 79.7614C100.205 79.4683 100.126 79.239 99.9705 79.0756C99.8147 78.9121 99.5698 78.8303 99.2399 78.8303H98.9526C98.8837 78.8303 98.8271 78.8483 98.7826 78.8822C98.738 78.9161 98.7178 78.9679 98.7178 79.0377V80.7184Z" fill="#F9F8F4" stroke="#F9F8F4" stroke-width="0.4" stroke-miterlimit="10"/>
<path d="M106.602 80.874C106.602 81.5818 106.462 82.1381 106.185 82.5428C105.906 82.9476 105.56 83.1509 105.141 83.1509C104.74 83.1509 104.396 82.9436 104.111 82.5289C103.823 82.1142 103.68 81.5639 103.68 80.874C103.68 80.2021 103.815 79.6578 104.084 79.2451C104.354 78.8304 104.706 78.623 105.141 78.623C105.592 78.623 105.95 78.8424 106.211 79.283C106.471 79.7216 106.602 80.252 106.602 80.874ZM104.173 80.874C104.173 81.6157 104.265 82.154 104.447 82.491C104.629 82.8279 104.86 82.9954 105.139 82.9954C105.434 82.9954 105.669 82.8359 105.843 82.5169C106.017 82.1979 106.104 81.6496 106.104 80.874C106.104 80.254 106.029 79.7535 105.882 79.3727C105.734 78.9939 105.485 78.8025 105.137 78.8025C104.841 78.8025 104.607 78.9759 104.433 79.3209C104.261 79.6658 104.173 80.1842 104.173 80.874Z" fill="#F9F8F4" stroke="#F9F8F4" stroke-width="0.4" stroke-miterlimit="10"/>
<path d="M111.306 81.4423H110.133L109.898 82.4252C109.88 82.511 109.871 82.5808 109.871 82.6326C109.871 82.7024 109.884 82.7702 109.91 82.8399C109.936 82.9097 110.009 82.9436 110.133 82.9436H110.211V83.0991H109.246V82.9436H109.325C109.394 82.9436 109.457 82.9217 109.507 82.8798C109.56 82.838 109.594 82.7642 109.612 82.6605L110.63 78.7028L111.021 78.5732L112.013 82.6605C112.047 82.7642 112.092 82.838 112.142 82.8798C112.195 82.9237 112.256 82.9436 112.324 82.9436H112.403V83.0991H111.28V82.9436H111.385C111.491 82.9436 111.551 82.9217 111.567 82.8798C111.584 82.838 111.594 82.7981 111.594 82.7642C111.594 82.6964 111.586 82.6346 111.567 82.5827L111.306 81.4423ZM110.758 79.1395H110.732L110.183 81.2868H111.28L110.758 79.1395Z" fill="#F9F8F4" stroke="#F9F8F4" stroke-width="0.4" stroke-miterlimit="10"/>
<path d="M116.504 80.9777C116.034 80.7703 115.712 80.5889 115.538 80.4354C115.364 80.2798 115.277 80.0386 115.277 79.7116C115.277 79.4524 115.386 79.2072 115.603 78.9739C115.82 78.7406 116.129 78.625 116.53 78.625C116.704 78.625 116.87 78.6509 117.026 78.7028C117.182 78.7725 117.295 78.8064 117.366 78.8064C117.418 78.8064 117.465 78.7945 117.509 78.7686C117.552 78.7426 117.592 78.6948 117.627 78.627L117.732 79.6877L117.601 79.7395C117.445 79.3767 117.283 79.1314 117.117 79.0018C116.951 78.8722 116.738 78.8084 116.477 78.8084C116.147 78.8084 115.921 78.9001 115.799 79.0796C115.678 79.261 115.617 79.4544 115.617 79.6618C115.617 79.8512 115.674 80.0027 115.787 80.1144C115.9 80.226 116.208 80.3955 116.714 80.6188C117.131 80.7863 117.433 80.9777 117.615 81.195C117.797 81.4103 117.888 81.6655 117.888 81.9606C117.888 82.2716 117.779 82.5488 117.562 82.79C117.343 83.0313 117.028 83.1529 116.609 83.1529C116.435 83.1529 116.279 83.119 116.139 83.0492C115.983 82.9974 115.86 82.9715 115.773 82.9715C115.72 82.9715 115.668 82.9894 115.617 83.0233C115.565 83.0572 115.504 83.1011 115.435 83.1529L115.227 81.8848L115.382 81.833C115.504 82.2637 115.674 82.5607 115.892 82.7262C116.109 82.8897 116.358 82.9715 116.637 82.9715C116.933 82.9715 117.155 82.8857 117.303 82.7123C117.451 82.5408 117.526 82.2896 117.526 81.9626C117.526 81.7911 117.443 81.6217 117.277 81.4582C117.109 81.2927 116.852 81.1332 116.504 80.9777Z" fill="#F9F8F4" stroke="#F9F8F4" stroke-width="0.4" stroke-miterlimit="10"/>
<path d="M123.01 83.0991H121.652V82.9435H121.887C121.974 82.9435 122.035 82.9276 122.069 82.8917C122.104 82.8578 122.122 82.806 122.122 82.7362V79.1135C122.122 78.9759 122.114 78.8981 122.095 78.8802C122.077 78.8623 122.008 78.8543 121.887 78.8543C121.642 78.8543 121.474 78.8981 121.379 78.9839C121.284 79.0696 121.167 79.3029 121.027 79.6817L120.871 79.6558L121.106 78.6729H123.585L123.793 79.6558L123.664 79.6817C123.524 79.3188 123.415 79.0915 123.338 78.9958C123.259 78.9021 123.099 78.8543 122.854 78.8543C122.68 78.8543 122.585 78.8623 122.567 78.8802C122.549 78.8981 122.541 78.9839 122.541 79.1394V82.7362C122.541 82.806 122.563 82.8578 122.605 82.8917C122.648 82.9256 122.705 82.9435 122.775 82.9435H123.01V83.0991Z" fill="#F9F8F4" stroke="#F9F8F4" stroke-width="0.4" stroke-miterlimit="10"/>
<path d="M126.641 78.8303V78.6748H129.2L129.487 79.5541L129.357 79.6059C129.218 79.3467 129.07 79.1533 128.914 79.0237C128.758 78.8941 128.584 78.8303 128.392 78.8303H127.661C127.593 78.8303 127.536 78.8483 127.491 78.8822C127.447 78.9161 127.427 78.9679 127.427 79.0377V80.6407H128.184C128.358 80.6407 128.483 80.5988 128.562 80.5111C128.641 80.4253 128.679 80.2958 128.679 80.1223V79.9688H128.835V81.494H128.679V81.3903C128.679 81.2009 128.641 81.0534 128.562 80.9497C128.483 80.846 128.358 80.7942 128.184 80.7942H127.427V82.7342C127.427 82.8039 127.449 82.8558 127.491 82.8897C127.534 82.9236 127.591 82.9415 127.661 82.9415H128.339C128.601 82.9415 128.823 82.8677 129.005 82.7222C129.187 82.5766 129.331 82.3474 129.436 82.0363L129.568 82.0882L129.281 83.097H126.617V82.9415H126.773C126.86 82.9415 126.921 82.9256 126.955 82.8897C126.99 82.8558 127.008 82.8039 127.008 82.7342V79.0357C127.008 78.9679 126.99 78.9161 126.955 78.8802C126.921 78.8463 126.86 78.8283 126.773 78.8283H126.641V78.8303Z" fill="#F9F8F4" stroke="#F9F8F4" stroke-width="0.4" stroke-miterlimit="10"/>
<path d="M132.728 79.0357C132.728 78.9679 132.709 78.9161 132.675 78.8802C132.64 78.8463 132.58 78.8283 132.493 78.8283H132.337V78.6748H133.511C134.049 78.6748 134.48 78.8483 134.802 79.1932C135.124 79.5381 135.286 80.0724 135.286 80.7962C135.286 81.5897 135.13 82.1719 134.816 82.5428C134.502 82.9136 134.041 83.099 133.432 83.099H132.309V82.9435H132.491C132.578 82.9435 132.638 82.9276 132.673 82.8917C132.707 82.8578 132.725 82.8059 132.725 82.7361V79.0357H132.728ZM134.79 80.848C134.79 80.1063 134.676 79.586 134.45 79.2829C134.223 78.9818 133.909 78.8303 133.511 78.8303C133.389 78.8303 133.298 78.8483 133.238 78.8822C133.177 78.9161 133.146 78.9679 133.146 79.0377V82.7361C133.146 82.8059 133.173 82.8578 133.225 82.8917C133.278 82.9256 133.347 82.9435 133.434 82.9435C133.816 82.9435 134.138 82.8019 134.399 82.5168C134.66 82.2317 134.79 81.6755 134.79 80.848Z" fill="#F9F8F4" stroke="#F9F8F4" stroke-width="0.4" stroke-miterlimit="10"/>
</g>
<defs>
<clipPath id="clip0">
<rect width="90.6667" height="28.6667" fill="white" transform="translate(46.668 78.3555)"/>
</clipPath>
</defs>
</svg>
