<svg width="184" height="185" viewBox="0 0 184 185" fill="none" xmlns="http://www.w3.org/2000/svg">
<rect width="184" height="184.984" rx="3" fill="#0C0C0C"/>
<g clip-path="url(#clip0)">
<path d="M112.712 70.3226C112.257 69.9843 111.898 69.6775 111.633 69.4012C111.37 69.1257 111.098 68.7098 110.819 68.1567C110.167 66.8661 110.118 65.415 110.677 63.8023C111.235 62.1921 112.22 61.0237 113.633 60.2973C114.624 59.7877 115.489 59.5835 116.236 59.6845C116.981 59.7847 117.519 60.1611 117.847 60.8154C118.3 61.7109 118.299 62.5409 117.848 63.3119C117.396 64.0797 116.872 64.8323 116.279 65.5682C116.767 65.7632 117.315 65.9916 117.917 66.2542C118.52 66.5168 119.131 66.8182 119.751 67.1633C119.675 66.3084 119.837 65.4514 120.237 64.5924C120.638 63.7333 121.29 63.0721 122.193 62.608C122.955 62.2162 123.702 62.1055 124.436 62.2736C125.169 62.4417 125.711 62.8743 126.062 63.5689C126.4 64.2372 126.464 64.9096 126.257 65.59C126.051 66.2705 125.614 66.7794 124.954 67.1191C124.306 67.452 123.671 67.5691 123.05 67.4679C122.43 67.3675 121.962 67.0028 121.648 66.3781C121.419 65.9238 121.349 65.4309 121.437 64.9044C121.497 64.6765 121.552 64.4826 121.597 64.3243C121.642 64.1685 121.637 64.0322 121.579 63.9169C121.529 63.8182 121.453 63.7932 121.355 63.8437C121.031 64.0101 120.725 64.4765 120.436 65.2429C120.148 66.0092 120.089 66.7322 120.255 67.4161C121.55 68.2538 122.439 68.8768 122.932 69.2851C123.49 69.7506 124.027 70.5362 124.543 71.6477C125.104 72.8506 125.304 74.2137 125.057 75.5186C124.599 77.934 123.355 79.6667 121.324 80.711C121.013 80.8707 120.66 81.0027 120.26 81.1112C119.86 81.2172 119.453 81.2629 119.033 81.2442L119.011 80.9344C119.337 80.9448 119.699 80.8896 120.099 80.7646C120.496 80.6413 120.844 80.5019 121.141 80.3488C121.89 79.9637 122.393 79.427 122.657 78.7378C122.921 78.0461 122.85 77.2969 122.44 76.487C122.133 75.878 121.734 75.3573 121.242 74.9301C120.75 74.5028 120.119 74.085 119.345 73.6784C119.352 74.6761 119.087 75.7084 118.548 76.7696C118.011 77.834 117.192 78.6471 116.093 79.2121C115.132 79.7065 114.125 79.8095 113.065 79.5211C112.005 79.2327 111.221 78.5864 110.712 77.579C110.131 76.43 109.976 75.365 110.244 74.3855C110.505 73.4095 111.33 72.0516 112.712 70.3226ZM119.049 73.5297C117.416 72.7602 116.109 72.1408 115.126 71.6715C114.143 71.2022 113.435 70.8198 113.002 70.5243C112.764 70.862 112.613 71.2113 112.548 71.5748C112.482 71.9383 112.54 72.2982 112.72 72.6537C113.179 73.5624 114.003 74.2521 115.19 74.7221C116.38 75.1929 117.324 75.2484 118.031 74.8851C118.384 74.7035 118.63 74.5146 118.77 74.3183C118.907 74.1212 119.003 73.8583 119.049 73.5297ZM116 65.4384C116.39 64.8787 116.642 64.3119 116.751 63.7372C116.86 63.1626 116.75 62.5493 116.419 61.8942C116.111 61.2851 115.734 60.8511 115.295 60.5953C114.855 60.3388 114.304 60.3816 113.641 60.7204C113.216 60.9391 112.87 61.2909 112.601 61.7776C112.332 62.2644 112.338 62.786 112.618 63.3391C112.862 63.823 113.309 64.2217 113.958 64.541C114.608 64.8602 115.291 65.1602 116 65.4384Z" fill="#12B829"/>
<path d="M133.005 98.6058L115.626 107.544L115.052 107.835L108.892 111.003C108.766 109.466 108.616 107.584 108.424 105.36C108.24 103.126 108.015 100.446 107.754 97.3118C107.491 94.177 107.349 92.5224 107.321 92.34C107.3 92.1599 107.245 91.9852 107.158 91.814C107.09 91.679 107.009 91.5921 106.918 91.568C106.825 91.5374 106.735 91.5465 106.646 91.5919C106.232 91.803 105.947 92.2708 105.784 92.9873C105.624 93.7104 105.504 94.3669 105.434 94.9652C105.358 95.5619 105.301 96.1204 105.259 96.6457L104.859 96.6442C104.99 94.8616 105.198 93.5 105.482 92.5617C105.766 91.6235 106.378 90.9106 107.322 90.4296C108.142 90.0075 108.96 89.9334 109.77 90.2116C110.58 90.4898 111.166 90.9782 111.524 91.686C111.7 92.035 111.823 92.3803 111.897 92.7095C111.966 93.0429 112.017 93.4252 112.048 93.8779L113.07 105.681C113.121 106.231 113.164 106.63 113.206 106.88C113.243 107.129 113.303 107.341 113.391 107.507C113.516 107.754 113.717 107.85 114.002 107.786C114.226 107.741 114.558 107.608 115.01 107.39L114.127 97.5807L114.555 97.3604L115.256 98.8563C116.059 100.446 117.009 101.777 118.102 102.84C119.198 103.913 120.137 104.299 120.921 104.008C121.708 103.723 122.289 103.487 122.679 103.309C123.064 103.129 123.45 102.939 123.829 102.747L124.359 102.48L123.507 93.4512L122.307 94.1536C121.373 94.8494 120.638 95.7337 120.099 96.8114C119.56 97.889 119.294 99.0338 119.296 100.25L118.839 100.485L117.931 90.0995L118.389 89.8641C118.455 90.1578 118.569 90.5305 118.718 90.983C118.875 91.433 119.025 91.8037 119.17 92.0984C119.564 92.8786 120.007 93.3973 120.503 93.6525C120.992 93.9112 121.579 93.8664 122.244 93.52L123.464 92.9259L122.78 86.393C122.729 85.9916 122.668 85.5731 122.593 85.1389C122.518 84.7047 122.452 84.4358 122.399 84.3304C122.253 84.0407 122 83.928 121.645 83.9964C121.285 84.0657 120.59 84.3668 119.555 84.8974L119.367 84.5254L130.409 78.8465L130.597 79.2185L129.386 79.9531C128.854 80.3016 128.534 80.7004 128.422 81.1477C128.31 81.5893 128.306 82.5201 128.415 83.9386C128.522 85.3644 128.633 86.6737 128.751 87.8804C128.868 89.0789 129.014 90.4573 129.184 92.0083C129.354 93.5593 129.502 94.8393 129.623 95.8327C129.745 96.8294 129.839 97.5115 129.907 97.8746C129.977 98.2328 130.046 98.4917 130.128 98.6423C130.274 98.932 130.528 99.0588 130.888 99.0143C131.252 98.9789 131.895 98.7163 132.827 98.237L133.005 98.6058Z" fill="#F9F8F4"/>
<path d="M92.7959 111.904L92.3334 101.146C92.3326 101.031 92.3088 100.792 92.2587 100.432C92.2095 100.069 92.1678 99.8524 92.1271 99.7759C92.0655 99.6541 91.9912 99.5721 91.9014 99.529C91.8142 99.4868 91.7166 99.4934 91.6087 99.5489C91.3962 99.6582 91.1776 99.9635 90.9505 100.464C90.7234 100.964 90.5375 101.607 90.3862 102.388C90.2348 103.169 90.1584 103.996 90.1562 104.865L89.7912 104.88C89.8138 103.865 89.8944 102.932 90.0305 102.08C90.1665 101.228 90.4629 100.42 90.9171 99.6558C91.3745 98.8896 92.0724 98.2652 93.0174 97.7792C93.7793 97.3874 94.4547 97.3055 95.0469 97.5319C95.6399 97.7557 96.1489 98.2903 96.5747 99.1331C96.72 97.9406 96.9621 97.0052 97.3004 96.3294C97.6387 95.6536 98.2354 95.0978 99.0863 94.6581C99.9986 94.1889 100.898 94.0976 101.781 94.3859C102.664 94.6742 103.345 95.2925 103.826 96.2439C104.739 98.0513 104.827 100.285 104.095 102.949C103.362 105.613 101.991 107.461 99.9842 108.491C99.5133 108.733 99.0292 108.839 98.5335 108.804C98.0378 108.768 97.6668 108.507 97.419 108.016L97.2099 107.431L97.2936 109.587L92.7959 111.904ZM97.6884 107.824C97.8115 108.068 97.952 108.223 98.1091 108.286C98.2654 108.351 98.4507 108.326 98.6632 108.216C98.951 108.068 99.1673 107.669 99.3072 107.016C99.4471 106.364 99.5244 105.314 99.5366 103.858C99.5479 102.405 99.501 100.828 99.3893 99.131C99.2784 97.4315 99.1178 96.3756 98.9099 95.9641C98.84 95.8258 98.7549 95.7348 98.6578 95.6894C98.5582 95.6431 98.4467 95.6507 98.3249 95.7154C97.854 95.9575 97.5242 96.4217 97.3328 97.107C97.1439 97.7931 97.0157 98.3588 96.9556 98.8065C96.893 99.2535 96.8757 99.9654 96.9022 100.947C96.9286 101.929 96.9904 103.173 97.0943 104.683C97.1965 106.198 97.3932 107.244 97.6884 107.824Z" fill="#F9F8F4"/>
<path d="M67.4683 115.759C67.6243 114.094 67.8589 112.769 68.1762 111.786C68.4943 110.801 69.2288 110.013 70.3864 109.418C71.1777 109.011 71.9017 108.956 72.56 109.256C73.2191 109.554 73.7221 110.048 74.0697 110.736C74.3259 111.243 74.4833 111.709 74.5494 112.138C74.6147 112.569 74.6541 113.054 74.6677 113.595C74.6837 114.136 74.6903 115.222 74.6892 116.854C74.6889 118.484 74.786 119.492 74.9789 119.874C75.0638 120.042 75.1605 120.148 75.2674 120.188C75.3743 120.229 75.5055 120.211 75.6559 120.133C75.839 120.039 76.0056 119.819 76.1559 119.472C76.3061 119.125 76.4411 118.597 76.5634 117.89C76.6857 117.182 76.7368 116.374 76.7191 115.466C76.7014 114.559 76.665 113.329 76.6101 111.777C76.5552 110.225 76.5129 109.081 76.484 108.343C76.4552 107.605 76.434 107.029 76.4156 106.614L80.8659 104.325C80.8755 104.531 80.9214 105.487 81.0045 107.188C81.0875 108.889 81.1679 110.565 81.244 112.212C81.3201 113.859 81.3609 114.788 81.3705 114.994C81.3801 115.201 81.4032 115.45 81.4437 115.738C81.4842 116.027 81.5498 116.262 81.643 116.447C81.7278 116.615 81.8262 116.724 81.9356 116.773C82.045 116.823 82.1713 116.812 82.3062 116.74C82.5056 116.638 82.6788 116.414 82.829 116.067C82.9793 115.72 83.0986 115.3 83.188 114.812C83.2773 114.325 83.341 113.798 83.3831 113.238C83.4252 112.677 83.4365 112.169 83.4194 111.715L83.2823 103.082L87.7326 100.793L88.1935 111.547C88.2023 111.638 88.2194 111.856 88.2505 112.198C88.2791 112.54 88.3474 112.818 88.4555 113.032C88.5321 113.184 88.6205 113.281 88.7151 113.318C88.8121 113.355 88.9195 113.343 89.0405 113.281C89.1909 113.204 89.3601 112.992 89.5391 112.649C89.7213 112.305 89.8711 111.9 89.9885 111.435C90.1067 110.968 90.2 110.46 90.2643 109.906C90.3286 109.352 90.375 108.702 90.4003 107.957L90.7448 107.954C90.7596 109.993 90.5484 111.5 90.1096 112.47C89.6708 113.44 89.0562 114.127 88.2648 114.534C87.5487 114.903 86.8223 114.957 86.0781 114.703C85.3348 114.447 84.781 113.958 84.4167 113.237C84.2471 112.901 84.1179 112.609 84.0309 112.363C83.9447 112.115 83.8791 111.871 83.8306 111.624L83.7503 111.636C83.7509 113.762 83.5643 115.26 83.1888 116.127C82.8149 116.997 82.2393 117.631 81.4643 118.03C80.673 118.437 79.9133 118.552 79.182 118.376C78.4507 118.201 77.9054 117.753 77.5411 117.032C77.3698 116.693 77.2536 116.369 77.1891 116.054C77.147 115.669 77.1156 115.395 77.0915 115.233C77.0451 117.074 76.8994 118.445 76.6529 119.343C76.4089 120.242 75.7232 120.98 74.5984 121.559C73.8528 121.942 73.1242 122.037 72.4149 121.844C71.7032 121.65 71.1136 121.086 70.6412 120.151C70.3784 119.631 70.2265 119.131 70.1855 118.65C70.1444 118.169 70.1127 117.482 70.0909 116.587C70.0692 115.692 70.0699 114.593 70.0905 113.288C70.1111 111.984 70.064 111.218 69.95 110.988C69.8802 110.85 69.7951 110.759 69.6955 110.713C69.5959 110.666 69.4934 110.671 69.3855 110.727C68.9441 110.954 68.6186 111.463 68.4058 112.257C68.193 113.051 68.0556 113.704 67.9894 114.222C67.924 114.736 67.871 115.255 67.827 115.78L67.4683 115.759Z" fill="#F9F8F4"/>
<path d="M63.0677 119.902C63.0129 119.565 62.9067 119.143 62.7457 118.637C62.5872 118.131 62.4293 117.725 62.2747 117.419C61.8422 116.563 61.4185 116.018 61.0043 115.789C60.5909 115.558 60.1561 115.562 59.6983 115.797C59.3484 115.977 59.057 116.179 58.8255 116.405C58.5949 116.63 58.3493 116.943 58.0912 117.345C57.8331 117.747 57.6085 118.257 57.4134 118.878C57.2191 119.496 57.0992 120.07 57.0536 120.591L56.6167 120.526C56.7994 119.293 57.1697 118.147 57.7277 117.086C58.2856 116.026 59.1806 115.18 60.4166 114.544C61.5414 113.966 62.7681 113.764 64.0933 113.941C65.4186 114.118 66.4147 114.867 67.08 116.184C67.9898 117.984 68.0302 120.046 67.2003 122.362C66.5603 124.149 65.4112 125.731 63.903 126.872C62.2969 128.087 60.8352 128.594 59.5164 128.398C58.6016 128.258 57.9862 127.876 57.6701 127.25C57.0581 126.039 57.3037 124.772 58.3996 123.447C59.4996 122.118 61.0535 120.938 63.0677 119.902ZM63.1396 120.211C62.1376 120.882 61.4732 121.977 61.1489 123.495C60.8246 125.014 60.8712 126.187 61.2862 127.012C61.401 127.24 61.5211 127.4 61.6439 127.492C61.7676 127.582 61.9341 127.573 62.1466 127.464C62.4801 127.292 62.723 126.937 62.8727 126.398C63.0216 125.861 63.1235 125.165 63.1693 124.314C63.2176 123.464 63.2387 122.699 63.2315 122.02C63.2269 121.342 63.1949 120.741 63.1396 120.211Z" fill="#F9F8F4"/>
<path d="M76.4277 98.4527C76.1654 99.3238 75.5957 99.9818 74.7226 100.431C73.9608 100.823 73.2073 100.893 72.4516 100.632C71.7034 100.374 71.1605 99.9194 70.8295 99.2642C70.6648 98.9383 70.5519 98.621 70.4834 98.3182C70.4214 98.0121 70.3721 97.6496 70.3382 97.2399L69.3961 86.2957C69.3466 85.782 69.3063 85.4087 69.2711 85.18C69.2351 84.9455 69.1755 84.7501 69.0973 84.5954C68.9842 84.3715 68.7916 84.2839 68.5279 84.3408C68.3223 84.3864 68.0146 84.5031 67.5968 84.7076L68.4171 93.8003L68.0182 94.0055L67.3697 92.6198C66.6262 91.1482 65.7432 89.9142 64.7315 88.9269C63.7149 87.9379 62.8461 87.5718 62.1219 87.8385C61.3887 88.1077 60.8496 88.3248 60.4882 88.49C60.1259 88.6576 59.776 88.8293 59.4203 89.0101L58.9331 89.2607L59.723 97.6286L60.8326 96.9792C61.7002 96.336 62.3821 95.5167 62.8789 94.5187C63.3807 93.5224 63.6327 92.4555 63.6307 91.3304L64.0525 91.1135L64.8912 100.74L64.4694 100.957C64.4036 100.688 64.3044 100.345 64.1621 99.9247C64.0197 99.5043 63.8796 99.1616 63.7448 98.8867C63.3805 98.1657 62.9646 97.6807 62.511 97.4474C62.0524 97.2042 61.5104 97.2445 60.8891 97.564L59.76 98.1218L60.3963 104.18C60.4366 104.553 60.4975 104.939 60.5642 105.34C60.6384 105.743 60.6975 105.991 60.7458 106.095C60.8805 106.361 61.1199 106.464 61.4492 106.399C61.7819 106.339 62.4281 106.061 63.3869 105.566L63.5599 105.908L53.3219 111.173L53.149 110.831L54.2698 110.147C54.7614 109.823 55.0608 109.454 55.1622 109.047C55.2709 108.634 55.2716 107.771 55.1747 106.45C55.0771 105.132 54.9704 103.918 54.8618 102.802C54.7483 101.684 54.6166 100.412 54.4607 98.9704C54.2982 97.5318 54.1613 96.3517 54.0533 95.4285C53.9419 94.4986 53.8474 93.8712 53.7893 93.5361C53.7263 93.1993 53.6615 92.961 53.59 92.8194C53.4478 92.5503 53.2149 92.4358 52.8755 92.4735C52.5436 92.5135 51.9431 92.7518 51.0839 93.1916L50.9117 92.8468L67.0289 84.5579L67.5595 84.2913L73.2687 81.3551C73.3868 82.7793 73.5332 84.5206 73.7024 86.5882C73.8766 88.6575 74.0864 91.1398 74.3311 94.0458C74.5741 96.9568 74.7061 98.49 74.7253 98.6584C74.7445 98.8269 74.7989 98.9876 74.8771 99.1424C74.9403 99.2675 75.0196 99.3511 75.1035 99.3785C75.1873 99.4059 75.2775 99.3968 75.356 99.3565C75.7385 99.1597 76.003 98.7292 76.1568 98.0591C76.304 97.3924 76.4163 96.783 76.4838 96.2277C76.5514 95.6724 76.6012 95.1554 76.6405 94.6706L77.0121 94.6682C76.8865 96.3234 76.6974 97.5841 76.4277 98.4527Z" fill="#F9F8F4"/>
<path d="M76.293 90.7162C76.365 88.8895 76.5826 87.608 76.945 86.8658C77.3067 86.1261 77.8329 85.5776 78.5261 85.2211C79.1474 84.9016 79.7909 84.834 80.4623 85.0175C81.1314 85.2002 81.6779 85.7113 82.1029 86.5483C82.2892 86.917 82.4154 87.3789 82.484 87.9346C82.5526 88.4904 82.5949 89.153 82.6083 89.9216C82.6243 90.6911 82.6064 91.675 82.5547 92.8733C82.5031 94.0715 82.5442 94.8052 82.6806 95.0752C82.7454 95.2036 82.8264 95.2822 82.9226 95.3137C83.0188 95.3451 83.1302 95.3292 83.2553 95.2628C83.409 95.1838 83.5701 94.989 83.7353 94.68C83.8997 94.3735 84.026 94.0079 84.1158 93.5864C84.2056 93.1648 84.282 92.6921 84.3456 92.1658C84.4085 91.642 84.4463 91.1788 84.4576 90.781L84.8095 90.7887C84.6797 92.4316 84.4953 93.6608 84.2614 94.4779C84.0266 95.2975 83.3857 95.9734 82.3426 96.5099C81.5807 96.9017 80.8888 96.9755 80.2694 96.732C79.6476 96.4878 79.167 96.0257 78.8227 95.3442C78.5931 94.8899 78.4548 94.4488 78.4034 94.0169C78.3545 93.5859 78.3297 92.8355 78.3305 91.7608C78.3306 90.6886 78.3248 89.7356 78.3109 88.9008C78.2995 88.0668 78.28 87.5023 78.2567 87.2115C78.2334 86.9208 78.1926 86.7178 78.1369 86.6033C78.087 86.5046 78.025 86.4431 77.9518 86.4165C77.8778 86.3923 77.7885 86.4071 77.6904 86.4576C77.5923 86.508 77.4705 86.6827 77.3281 86.9799C77.1858 87.277 77.0397 87.7462 76.8939 88.3832C76.7441 89.0243 76.6616 89.7946 76.6391 90.7L76.293 90.7162ZM77.1131 81.5762C76.8187 80.9935 76.7754 80.4185 76.9823 79.8455C77.1916 79.2733 77.5702 78.8443 78.1195 78.5618C78.6819 78.2726 79.2557 78.2097 79.8377 78.375C80.4196 78.5402 80.8578 78.9142 81.1522 79.4969C81.4715 80.129 81.48 80.7696 81.1834 81.4178C80.97 81.8842 80.5969 82.271 80.1441 82.5081C79.5727 82.8081 78.994 82.8694 78.4054 82.6909C77.8291 82.5166 77.3983 82.145 77.1131 81.5762Z" fill="#F9F8F4"/>
<path d="M92.6105 77.9733C93.271 77.6336 93.9464 77.5517 94.6293 77.7252C95.3139 77.9019 95.8678 78.4072 96.2895 79.2459C96.4824 79.6278 96.6102 80.0764 96.676 80.59C96.7394 81.1028 96.7843 81.6645 96.8098 82.2777C96.8354 82.8908 96.8423 83.9075 96.8315 85.3254C96.8199 86.7456 96.8648 87.5521 96.9663 87.7529C97.0245 87.8681 97.0947 87.9378 97.1786 87.9652C97.2649 87.9933 97.3624 87.9784 97.4769 87.9196C97.6175 87.8473 97.7639 87.6641 97.9186 87.371C98.0732 87.0778 98.2389 86.5903 98.4188 85.9068C98.5979 85.2257 98.685 84.2975 98.6778 83.1212L99.0265 83.1306C98.9679 84.629 98.8124 85.8786 98.5608 86.8769C98.3092 87.8752 97.641 88.6522 96.5554 89.2105C95.8066 89.5956 95.1295 89.6577 94.5206 89.3985C93.9085 89.1409 93.4361 88.6788 93.0985 88.0104C92.869 87.5561 92.7317 87.1622 92.6876 86.8261C92.6426 86.4925 92.6117 85.6851 92.5972 84.4048C92.5794 83.1261 92.5697 82.0755 92.5641 81.2572C92.5593 80.4363 92.4617 79.8436 92.2754 79.4749C92.2039 79.3334 92.1237 79.2439 92.0365 79.21C91.9494 79.176 91.8412 79.1902 91.7136 79.2558C91.5436 79.3432 91.3835 79.5604 91.2308 79.9064C91.0781 80.2524 90.9413 80.7521 90.8268 81.402C90.7098 82.0511 90.6663 82.8782 90.6936 83.8823L90.8632 91.8663L86.7399 93.9869L86.2493 84.0506C86.2262 83.7929 86.2046 83.5054 86.1852 83.1856C86.1657 82.8659 86.1265 82.6497 86.0683 82.5344C86.0184 82.4357 85.9614 82.3758 85.8973 82.3549C85.8331 82.3339 85.7586 82.3453 85.6735 82.3891C85.4774 82.49 85.2966 82.6949 85.1314 83.0038C84.967 83.3103 84.8341 83.671 84.7319 84.0803C84.6264 84.4912 84.5404 84.9855 84.4697 85.5672C84.399 86.149 84.34 86.7455 84.2941 87.3601L83.9546 87.373C84.0264 85.8761 84.2007 84.6106 84.4848 83.579C84.7257 82.6982 85.2469 81.9034 86.0056 81.4033C86.8263 80.863 87.5941 80.7232 88.3087 80.984C88.9083 81.2045 89.3997 81.6921 89.7806 82.446C89.9536 82.7884 90.0772 83.1147 90.1548 83.4232C90.2316 83.7342 90.2924 83.985 90.3364 84.178C90.3237 82.5711 90.4371 81.2748 90.6731 80.2824C90.9033 79.2826 91.5519 78.5157 92.6105 77.9733Z" fill="#F9F8F4"/>
<path d="M105.684 71.5229L105.754 72.3457L103.383 73.5649L104.116 82.9807C104.139 83.2715 104.163 83.4829 104.195 83.6116C104.225 83.7395 104.268 83.8606 104.327 83.9734C104.392 84.1018 104.466 84.1838 104.556 84.2186C104.645 84.2533 104.738 84.2451 104.838 84.1954C105.022 84.1013 105.195 83.9105 105.36 83.6181C105.525 83.3281 105.668 82.9764 105.797 82.5619C105.925 82.1475 106.031 81.6597 106.112 81.0977C106.192 80.5382 106.235 80.0327 106.238 79.583L106.59 79.5907C106.487 81.1101 106.266 82.333 105.926 83.261C105.586 84.1865 104.943 84.8922 103.998 85.3782C103.181 85.7986 102.444 85.8687 101.786 85.5908C101.129 85.313 100.63 84.8312 100.286 84.1498C100.128 83.837 100.026 83.5452 99.9765 83.2762C99.9279 83.0046 99.8792 82.6066 99.8255 82.0805L99.3467 75.645L97.5286 76.58L97.459 75.7573L99.2803 74.8206L98.8959 69.84L102.977 67.7413L103.342 72.732L105.684 71.5229Z" fill="#F9F8F4"/>
</g>
<defs>
<clipPath id="clip0">
<rect width="79.888" height="83.0736" fill="white" transform="matrix(0.95062 0.310357 -0.307376 0.951588 66.8633 43.4639)"/>
</clipPath>
</defs>
</svg>
