<svg width="184" height="185" viewBox="0 0 184 185" fill="none" xmlns="http://www.w3.org/2000/svg">
<rect y="0.491699" width="184" height="184" rx="3" fill="#090909"/>
<g clip-path="url(#clip0)">
<path d="M54.6754 82.3158C54.5272 74.249 60.1637 66.6552 68.4977 64.8908C77.7764 62.9259 86.0614 68.4588 88.7974 76.5553C89.6185 78.9862 89.9229 81.4834 89.6698 84.0139C88.8791 91.9349 83.3056 97.9207 76.4177 99.6733C75.7378 99.8465 75.0555 99.9911 74.35 99.9544C73.705 99.9212 73.2432 99.5144 73.1207 98.899C73.0146 98.3702 73.3936 97.7049 73.9639 97.4986C74.2905 97.38 74.6392 97.3196 74.9821 97.2543C80.8973 96.1444 85.7652 91.1879 86.8498 85.1937C88.233 77.5537 83.9983 70.7663 77.6201 68.2027C75.8707 67.4995 74.0561 67.2078 72.1632 67.1924C69.5264 67.171 67.0877 67.8137 64.8275 69.143C60.9206 71.4398 58.4167 74.8324 57.5373 79.3419C56.1215 86.6048 59.8278 92.9096 65.2171 95.778C65.5261 95.9429 65.8329 96.1124 66.1279 96.301C66.8382 96.7516 66.8766 98.1128 65.925 98.554C65.6276 98.6915 65.3407 98.765 65.0305 98.6322C64.7447 98.5101 64.452 98.3998 64.1791 98.2504C59.0348 95.4306 55.9104 91.112 54.862 85.259C54.7932 84.8712 54.7022 84.4835 54.6824 84.0921C54.6532 83.5004 54.6754 82.9076 54.6754 82.3158Z" fill="#572DFF"/>
<path d="M92.7763 119.473C92.7588 119.161 92.725 118.931 92.7367 118.703C92.7845 117.798 92.8463 116.894 92.9034 115.989C93.0271 114.022 93.1495 112.056 93.2732 110.088C93.2801 109.97 93.2965 109.852 93.3023 109.735C93.4049 107.648 93.5041 105.561 93.6102 103.474C93.6907 101.899 93.7781 100.325 93.8668 98.7499C93.8761 98.5934 93.9006 98.4357 93.9286 98.2815C94.0639 97.5487 94.1933 97.423 94.9222 97.404C96.1923 97.3708 96.3112 97.4965 96.2343 98.7001C96.1235 100.43 95.994 102.159 95.8716 103.889C95.8576 104.086 95.8261 104.282 95.8144 104.478C95.7153 106.171 95.6313 107.864 95.5158 109.555C95.4109 111.088 95.2639 112.618 95.152 114.151C95.103 114.82 95.0843 115.491 95.0738 116.161C95.0715 116.336 95.1473 116.512 95.1835 116.669C95.5683 116.686 95.6336 116.452 95.6884 116.222C95.9217 115.226 96.1538 114.229 96.3789 113.231C97.4693 108.391 98.5551 103.551 99.6479 98.7131C99.733 98.3337 99.8508 97.9625 99.9616 97.5582C100.272 97.5001 100.531 97.4147 100.792 97.4088C101.529 97.3934 102.268 97.3898 103.005 97.4206C103.533 97.442 103.671 97.608 103.68 98.1712C103.687 98.604 103.656 99.038 103.627 99.4708C103.606 99.7851 103.547 100.097 103.529 100.412C103.436 102.106 103.348 103.799 103.261 105.491C103.206 106.554 103.155 107.617 103.103 108.68C102.988 111.082 102.868 113.484 102.763 115.888C102.751 116.149 102.822 116.413 102.869 116.795C103.07 116.643 103.236 116.583 103.28 116.473C103.394 116.182 103.47 115.874 103.534 115.568C104.419 111.329 105.299 107.088 106.182 102.849C106.495 101.346 106.803 99.842 107.124 98.3408C107.295 97.5392 107.427 97.4325 108.21 97.4076C108.481 97.3993 108.755 97.4064 109.024 97.4384C109.39 97.4811 109.562 97.7147 109.498 98.1048C109.422 98.5708 109.315 99.0309 109.213 99.4922C107.841 105.72 106.468 111.948 105.092 118.174C105 118.593 104.885 119.005 104.775 119.448C104.494 119.499 104.272 119.57 104.05 119.572C103.119 119.584 102.186 119.588 101.254 119.57C100.781 119.56 100.626 119.371 100.652 118.907C100.798 116.231 100.942 113.553 101.094 110.877C101.242 108.24 101.394 105.604 101.55 102.967C101.592 102.259 101.668 101.553 101.709 100.845C101.721 100.613 101.691 100.366 101.368 100.278C101.018 100.518 100.99 100.922 100.906 101.296C100.518 103.025 100.131 104.752 99.7482 106.482C98.8816 110.403 98.0198 114.325 97.1509 118.245C97.0658 118.627 96.941 118.999 96.8384 119.368C96.1876 119.742 95.5135 119.552 94.8697 119.571C94.2155 119.585 93.5542 119.642 92.7763 119.473Z" fill="#F9F8F4"/>
<path d="M69.1833 114.938C69.6603 114.969 70.0008 115.006 70.3425 115.01C71.1962 115.019 72.0511 114.996 72.9048 115.024C73.2465 115.034 73.6057 115.089 73.9217 115.216C74.969 115.637 75.4449 116.588 75.2664 117.807C75.1206 118.802 74.3311 119.517 73.2593 119.61C72.9503 119.638 72.6389 119.638 72.3286 119.638C68.8731 119.639 65.4186 119.639 61.963 119.638C61.6528 119.638 61.3414 119.612 61.0324 119.62C59.9909 119.648 58.9798 118.759 58.8911 117.395C58.8188 116.276 59.781 115.178 60.9309 115.036C61.3134 114.988 61.7065 115.014 62.0948 115.013C63.2599 115.01 64.4238 115.021 65.5889 115.004C66.2618 114.993 66.4286 114.845 66.5219 114.208C66.6945 113.04 66.8484 111.87 67.0082 110.699C67.2963 108.593 67.5878 106.489 67.8712 104.383C68.1383 102.393 68.3926 100.402 68.6608 98.4121C68.9185 96.5007 69.1879 94.5916 69.4492 92.6801C69.6521 91.1978 69.8539 89.7168 70.0521 88.2334C70.3029 86.361 70.5466 84.4875 70.8009 82.6163C70.8323 82.3839 70.8977 82.1515 70.9758 81.9298C71.2429 81.1732 72.0721 80.8377 72.7823 81.2029C73.1532 81.3938 73.3818 81.7151 73.3969 82.142C73.4121 82.5736 73.4191 83.0136 73.3631 83.4405C73.1159 85.3128 72.8441 87.1828 72.5841 89.054C72.3835 90.4959 72.1864 91.939 71.9916 93.3821C71.8073 94.7469 71.6312 96.1129 71.4458 97.4789C71.1601 99.5849 70.872 101.69 70.5816 103.796C70.3075 105.784 70.0253 107.77 69.7547 109.76C69.5576 111.203 69.3699 112.647 69.1891 114.093C69.1588 114.321 69.1833 114.557 69.1833 114.938Z" fill="#572DFF"/>
<path d="M104.263 72.2397C104.452 72.2077 104.638 72.1496 104.824 72.1496C106.262 72.1425 107.699 72.1306 109.137 72.1567C109.558 72.1638 109.987 72.2492 110.395 72.3631C111.321 72.6216 111.773 73.1706 111.84 74.1311C111.878 74.6801 111.891 75.2421 111.822 75.7864C111.588 77.6232 111.309 79.4528 111.052 81.2861C110.853 82.69 110.66 84.0952 110.465 85.4991C110.217 87.2944 109.991 89.0921 109.713 90.8814C109.623 91.4601 109.446 92.0375 109.219 92.5783C108.825 93.521 108.072 94.1352 107.085 94.198C105.304 94.3107 103.515 94.3012 101.729 94.3095C101.208 94.3119 101.061 94.0676 101.136 93.5328C101.639 89.985 102.152 86.4371 102.645 82.8881C103.069 79.8453 103.464 76.7979 103.886 73.7552C103.956 73.2559 103.998 72.7389 104.263 72.2397ZM103.94 92.1976C104.727 92.5036 105.456 92.334 106.172 92.2C106.566 92.1253 106.869 91.8348 107.027 91.4553C107.162 91.1316 107.278 90.7877 107.331 90.4415C107.578 88.8466 107.804 87.247 108.03 85.6486C108.405 82.9971 108.779 80.3457 109.149 77.6943C109.237 77.0706 109.338 76.4469 109.388 75.8184C109.462 74.8923 109.093 74.373 108.218 74.2081C107.612 74.0943 106.987 74.0208 106.371 74.3516C106.301 74.5627 106.191 74.7797 106.158 75.0073C105.413 80.3102 104.673 85.613 103.944 90.9182C103.894 91.3012 103.94 91.6984 103.94 92.1976Z" fill="#F9F8F4"/>
<path d="M84.6034 119.805C84.0599 119.879 83.4476 119.753 82.8692 119.522C81.8825 119.128 81.2842 118.392 81.2388 117.291C81.2108 116.625 81.2108 115.947 81.2959 115.286C81.6539 112.517 82.0423 109.752 82.433 106.987C82.7187 104.962 83.0161 102.939 83.3263 100.917C83.3917 100.492 83.4931 100.064 83.6471 99.6646C84.173 98.3045 85.1807 97.4781 86.5872 97.2765C87.4222 97.1567 88.2992 97.1496 89.1354 97.2634C90.8825 97.503 91.398 98.5287 91.5437 99.839C91.5916 100.263 91.5472 100.706 91.4913 101.133C91.2125 103.237 90.9198 105.341 90.6247 107.445C90.346 109.431 90.0568 111.416 89.7757 113.402C89.6707 114.142 89.5809 114.884 89.476 115.624C89.4375 115.896 89.3803 116.165 89.3232 116.433C88.9302 118.304 87.7628 119.7 85.1585 119.804C85.0034 119.81 84.8471 119.805 84.6034 119.805ZM83.6541 115.917C83.6541 116.104 83.6471 116.224 83.6552 116.341C83.7252 117.354 84.425 117.897 85.4069 117.716C86.025 117.601 86.4834 117.265 86.7376 116.688C86.8787 116.368 86.9907 116.021 87.0397 115.676C87.3009 113.848 87.5318 112.016 87.7849 110.186C87.9727 108.824 88.1826 107.465 88.3739 106.102C88.6083 104.428 88.8439 102.755 89.0538 101.077C89.0911 100.775 89.0421 100.447 88.9675 100.148C88.8275 99.5959 88.4369 99.2982 87.8864 99.2212C87.0513 99.1038 86.3493 99.4749 85.9866 100.26C85.8583 100.54 85.7778 100.853 85.7312 101.16C85.5527 102.326 85.3976 103.494 85.2308 104.662C84.7935 107.735 84.3515 110.807 83.9165 113.882C83.8162 114.582 83.7345 115.285 83.6541 115.917Z" fill="#F9F8F4"/>
<path d="M125.813 119.411C125.207 119.644 124.74 119.578 124.28 119.561C123.876 119.547 123.738 119.396 123.689 118.98C123.611 118.315 123.533 117.649 123.476 116.982C123.378 115.843 123.295 114.705 123.206 113.566C123.178 113.213 123.189 112.851 122.848 112.514C122.303 112.514 121.695 112.514 121.015 112.514C120.918 112.827 120.787 113.111 120.745 113.409C120.489 115.202 120.254 116.997 120.011 118.791C119.927 119.413 119.8 119.547 119.207 119.567C118.746 119.582 118.285 119.56 117.773 119.553C117.706 119.275 117.597 119.053 117.614 118.842C117.679 118.059 117.77 117.276 117.88 116.497C118.232 114.003 118.606 111.512 118.955 109.017C119.303 106.522 119.627 104.022 119.966 101.526C120.114 100.434 120.271 99.3433 120.433 98.2524C120.527 97.6204 120.709 97.4176 121.345 97.414C122.936 97.4046 124.528 97.42 126.118 97.4674C126.493 97.4781 126.892 97.5931 127.23 97.7627C127.829 98.0615 128.156 98.5998 128.178 99.284C128.198 99.9137 128.236 100.554 128.152 101.174C127.809 103.709 127.426 106.237 127.052 108.768C126.892 109.856 126.465 110.811 125.611 111.521C125.233 111.836 125.163 112.223 125.214 112.683C125.42 114.523 125.621 116.362 125.807 118.203C125.845 118.589 125.813 118.979 125.813 119.411ZM122.846 99.5473C122.776 99.686 122.671 99.8176 122.644 99.9623C122.538 100.541 122.449 101.123 122.366 101.705C122.07 103.803 121.779 105.901 121.489 108C121.403 108.622 121.316 109.243 121.254 109.868C121.215 110.256 121.395 110.472 121.772 110.498C122.157 110.525 122.546 110.532 122.931 110.509C123.916 110.451 124.388 110.056 124.613 109.045C124.757 108.397 124.83 107.73 124.926 107.071C125.198 105.207 125.472 103.344 125.731 101.479C125.774 101.171 125.777 100.848 125.744 100.539C125.677 99.9125 125.315 99.5176 124.704 99.4619C124.094 99.4085 123.472 99.354 122.846 99.5473Z" fill="#F9F8F4"/>
<path d="M120.868 72.1601C120.986 72.1613 121.085 72.2514 121.099 72.37C121.141 72.7198 121.184 72.9771 121.178 73.2321C121.146 74.6894 121.086 76.1467 121.051 77.604C121.007 79.4574 120.984 81.3108 120.943 83.1642C120.866 86.5543 120.783 89.9433 120.701 93.3334C120.698 93.4911 120.701 93.6524 120.67 93.8042C120.617 94.052 120.469 94.2299 120.213 94.2785C120.061 94.3069 119.905 94.3247 119.751 94.3295C118.273 94.3651 118.294 94.1955 118.347 92.8852C118.376 92.137 118.463 91.3911 118.467 90.6429C118.47 89.9658 118.287 89.7832 117.648 89.7618C116.873 89.7369 116.095 89.7369 115.319 89.7571C114.613 89.7761 114.468 89.897 114.266 90.6144C114.075 91.2962 113.918 91.9876 113.749 92.6753C113.712 92.8283 113.689 92.9848 113.648 93.1366C113.345 94.2809 113.235 94.3686 112.036 94.3271C111.775 94.3176 111.516 94.2453 111.261 94.2038C111.079 93.7046 111.286 93.2931 111.384 92.8911C111.974 90.484 112.594 88.0828 113.201 85.6804C114.212 81.6748 115.209 77.6657 116.238 73.6637C116.65 72.0617 116.441 72.134 118.157 72.1411C119.023 72.1447 119.89 72.153 120.868 72.1601ZM115.278 87.6132C115.485 87.6547 115.741 87.7484 115.998 87.7508C116.695 87.7567 117.394 87.7448 118.088 87.6903C118.231 87.6784 118.391 87.4697 118.481 87.3156C118.553 87.1911 118.54 87.0108 118.548 86.8543C118.614 85.4373 118.686 84.0203 118.736 82.6021C118.814 80.4357 118.877 78.2693 118.945 76.1016C118.954 75.7862 118.967 75.4708 118.955 75.1554C118.95 75.0024 118.917 74.8388 118.852 74.7036C118.807 74.6111 118.691 74.5139 118.594 74.5008C118.496 74.4878 118.327 74.5447 118.291 74.6218C118.157 74.9028 118.038 75.1969 117.959 75.4993C117.733 76.3756 117.531 77.2578 117.318 78.1364C116.639 80.9266 115.962 83.7167 115.278 86.5069C115.195 86.8508 115.061 87.1863 115.278 87.6132Z" fill="#F9F8F4"/>
<path d="M112.067 97.517C112.508 97.466 112.81 97.4044 113.112 97.402C114.354 97.3901 115.598 97.3961 116.84 97.3984C117.033 97.3984 117.228 97.4079 117.421 97.4364C117.734 97.4826 117.928 97.683 117.892 97.9972C117.844 98.4206 117.737 98.838 117.653 99.2684C116.546 99.6206 115.439 99.266 114.325 99.5352C114.237 99.7747 114.096 100.018 114.061 100.276C113.765 102.421 113.487 104.569 113.21 106.716C113.191 106.868 113.222 107.027 113.234 107.261C113.488 107.317 113.736 107.412 113.989 107.423C114.648 107.45 115.31 107.427 115.969 107.45C116.359 107.465 116.533 107.689 116.467 108.076C116.401 108.462 116.297 108.84 116.212 109.209C115.67 109.535 115.114 109.367 114.584 109.403C114.048 109.44 113.5 109.342 112.925 109.554C112.827 109.842 112.679 110.125 112.637 110.425C112.359 112.414 112.105 114.405 111.844 116.396C111.828 116.513 111.819 116.632 111.812 116.749C111.771 117.446 111.867 117.557 112.588 117.588C112.975 117.604 113.364 117.591 113.753 117.596C114.063 117.601 114.373 117.609 114.683 117.627C114.756 117.63 114.826 117.679 114.968 117.735C115.276 118.332 115.002 118.886 114.787 119.391C114.684 119.461 114.653 119.501 114.62 119.503C112.914 119.522 111.208 119.546 109.502 119.548C109.14 119.548 108.976 119.295 109.026 118.893C109.093 118.346 109.17 117.801 109.25 117.256C109.611 114.762 109.987 112.27 110.333 109.776C110.76 106.696 111.158 103.612 111.581 100.531C111.716 99.5613 111.892 98.5961 112.067 97.517Z" fill="#F9F8F4"/>
<path d="M101.302 72.2956C101.338 72.4817 101.394 72.6335 101.394 72.7853C101.393 74.0031 101.28 74.1145 100.061 74.1311C99.5559 74.1383 99.0509 74.1205 98.5471 74.1466C97.887 74.1809 97.7401 74.3209 97.6375 74.9778C97.4847 75.9501 97.3401 76.9225 97.2013 77.8972C97.0508 78.949 96.9016 80.0008 96.7709 81.0549C96.7336 81.3573 96.7651 81.668 96.7651 81.9703C97.7762 82.5348 98.9052 81.9466 99.8825 82.447C99.9128 82.6178 99.9618 82.7708 99.9618 82.9225C99.956 84.0893 99.781 84.2577 98.6019 84.272C97.9092 84.2803 97.2164 84.2969 96.5074 84.3099C96.1353 85.1791 96.0805 86.0364 95.9791 86.889C95.8718 87.7878 95.6502 88.6759 95.5977 89.576C95.5487 90.4273 95.1697 91.261 95.3971 92.104C95.775 92.3886 96.1715 92.359 96.554 92.3768C96.9412 92.3946 97.3307 92.378 97.7179 92.3957C98.0246 92.41 98.3839 92.3922 98.5121 92.7527C98.6603 93.1712 98.6288 93.6135 98.4188 94.0084C98.3559 94.1282 98.1844 94.2159 98.0456 94.2586C97.8637 94.3143 97.6631 94.3274 97.4707 94.3286C96.189 94.3345 94.9084 94.3345 93.6267 94.3286C93.3177 94.3274 93.0005 94.3309 92.7637 94.0784C92.5655 93.6965 92.6424 93.2934 92.6937 92.9127C92.9526 91.0024 93.2407 89.0957 93.5101 87.1866C93.7748 85.3154 94.0326 83.4443 94.2892 81.5731C94.5504 79.6616 94.8046 77.7502 95.0659 75.8399C95.1988 74.8651 95.3365 73.8904 95.4822 72.9169C95.5709 72.3252 95.7318 72.158 96.3161 72.1521C97.7914 72.1355 99.2667 72.1426 100.742 72.1544C100.925 72.1556 101.107 72.2446 101.302 72.2956Z" fill="#F9F8F4"/>
<path d="M126.158 72.2276C126.847 72.0983 127.526 72.0995 128.264 72.2335C128.266 73.9802 127.857 75.626 127.683 77.2956C127.512 78.9391 127.234 80.5707 127.004 82.2083C126.77 83.885 126.539 85.5617 126.305 87.2384C126.078 88.8617 125.796 90.4791 125.681 92.0574C126.215 92.4226 126.69 92.3633 127.149 92.3799C127.693 92.3989 128.237 92.3847 128.778 92.4238C129.162 92.4511 129.333 92.6586 129.335 93.0428C129.336 93.2764 129.315 93.5171 129.261 93.7436C129.193 94.0305 129.003 94.2298 128.705 94.2796C128.515 94.3116 128.319 94.3282 128.125 94.3282C126.766 94.3329 125.407 94.3317 124.048 94.3305C123.893 94.3305 123.737 94.3258 123.583 94.3068C123.139 94.2499 122.953 94.0578 122.997 93.5977C123.072 92.8151 123.186 92.0349 123.293 91.2558C123.574 89.2281 123.864 87.2016 124.147 85.1739C124.408 83.3028 124.664 81.4292 124.925 79.5581C125.207 77.5304 125.501 75.5039 125.771 73.4738C125.829 73.041 125.891 72.6248 126.158 72.2276Z" fill="#F9F8F4"/>
</g>
<defs>
<clipPath id="clip0">
<rect width="74.6667" height="55.3333" fill="white" transform="translate(54.6671 64.4918)"/>
</clipPath>
</defs>
</svg>
