<svg width="184" height="185" viewBox="0 0 184 185" fill="none" xmlns="http://www.w3.org/2000/svg">
<rect y="0.355469" width="184" height="184" rx="3" fill="#090909"/>
<g clip-path="url(#clip0)">
<path d="M80.4669 76.0187H84.3462L82.4425 83.359C82.2937 83.9176 82.1866 84.3559 82.1213 84.6724C82.0561 84.9889 82.0109 85.2665 81.9875 85.5068C81.924 86.133 82.0477 86.6205 82.3606 86.9708C82.6734 87.3212 83.1435 87.4955 83.7674 87.4955C85.2546 87.4955 86.5159 85.4916 87.5497 81.4821L87.5832 81.3416L88.9566 76.0187H92.8359L90.6963 84.3187V84.3288C90.2296 86.1263 89.7445 87.399 89.2409 88.1437C88.6036 89.0966 87.7688 89.821 86.7334 90.3202C85.6979 90.8195 84.5135 91.07 83.1769 91.07C81.4522 91.07 80.1139 90.652 79.1588 89.8159C78.2036 88.9798 77.7971 87.8695 77.9393 86.4851C77.9811 86.0721 78.0781 85.5204 78.227 84.8264C78.3759 84.1342 78.5833 83.2744 78.8459 82.2488L80.4669 76.0187Z" fill="#F9F8F4"/>
<path d="M93.5755 90.6401L96.4779 79.4139H93.2393L94.1393 76.0187H104.347L103.447 79.4139H100.357L97.4549 90.6401H93.5755Z" fill="#F9F8F4"/>
<path d="M109.905 91.0293C108.872 91.0293 107.947 90.8854 107.13 90.5994C106.314 90.3134 105.606 89.8835 105.006 89.3114C104.377 88.6987 103.915 87.9439 103.619 87.0435C103.323 86.1448 103.226 85.1885 103.33 84.1764C103.442 83.0848 103.711 82.0642 104.141 81.1147C104.571 80.1652 105.153 79.3054 105.891 78.532C106.754 77.613 107.766 76.9089 108.925 76.4198C110.084 75.9306 111.311 75.6886 112.607 75.6886C114.778 75.6886 116.47 76.3216 117.681 77.5859C118.89 78.8519 119.392 80.4953 119.186 82.5195C119.076 83.6044 118.802 84.6249 118.365 85.5812C117.928 86.5374 117.346 87.3972 116.615 88.1639C115.724 89.1032 114.71 89.8158 113.574 90.3015C112.438 90.7873 111.215 91.0293 109.905 91.0293ZM111.995 79.2648C110.817 79.2648 109.785 79.6947 108.902 80.5528C108.019 81.4109 107.512 82.4772 107.381 83.7482C107.266 84.8737 107.492 85.7724 108.059 86.4443C108.626 87.1163 109.439 87.4531 110.498 87.4531C111.655 87.4531 112.686 87.0079 113.586 86.1194C114.486 85.2308 115.001 84.146 115.131 82.8681C115.238 81.8154 114.998 80.9522 114.409 80.2769C113.82 79.6016 113.015 79.2648 111.995 79.2648Z" fill="#F9F8F4"/>
<path d="M83.028 107.966L86.8002 93.3431H91.2132L93.5267 100.565C93.5468 100.624 93.5786 100.727 93.6237 100.875C93.878 101.667 94.042 102.359 94.1122 102.951L94.1507 102.582C94.1775 102.317 94.2226 102.022 94.2845 101.699C94.3464 101.376 94.4317 100.985 94.5371 100.526L96.3856 93.3448H100.245L96.4726 107.968H92.2269L89.7478 100.526C89.5654 99.9861 89.4316 99.541 89.3463 99.1872C89.261 98.8335 89.1924 98.4815 89.1439 98.1277L89.1021 98.5373C89.0753 98.803 89.0351 99.0857 88.9816 99.3819C88.9281 99.6781 88.8461 100.072 88.7374 100.565L86.8856 107.966H83.028Z" fill="#F9F8F4"/>
<path d="M106.838 108.355C105.804 108.355 104.879 108.211 104.063 107.925C103.246 107.639 102.539 107.21 101.938 106.637C101.309 106.025 100.847 105.27 100.551 104.37C100.255 103.471 100.158 102.515 100.262 101.502C100.374 100.411 100.643 99.3902 101.073 98.4407C101.503 97.4912 102.085 96.6315 102.823 95.858C103.686 94.939 104.698 94.2349 105.858 93.7458C107.017 93.2566 108.245 93.0112 109.541 93.0112C111.712 93.0112 113.404 93.6442 114.615 94.9085C115.824 96.1745 116.326 97.8179 116.12 99.8421C116.01 100.927 115.736 101.948 115.299 102.904C114.862 103.86 114.28 104.72 113.549 105.487C112.658 106.426 111.644 107.138 110.508 107.624C109.37 108.113 108.148 108.355 106.838 108.355ZM108.927 96.5908C107.749 96.5908 106.717 97.0207 105.834 97.8788C104.951 98.7386 104.444 99.8032 104.313 101.074C104.198 102.2 104.424 103.098 104.991 103.77C105.558 104.442 106.371 104.779 107.43 104.779C108.588 104.779 109.618 104.334 110.518 103.445C111.418 102.557 111.933 101.472 112.064 100.194C112.171 99.1414 111.93 98.2782 111.341 97.6029C110.752 96.9276 109.948 96.5908 108.927 96.5908Z" fill="#F9F8F4"/>
<path d="M115.289 107.966L121.204 93.3431H125.498L125.888 99.0061C125.911 99.3531 125.928 99.717 125.94 100.099C125.951 100.482 125.956 100.88 125.962 101.293C126.064 101 126.192 100.685 126.35 100.348C126.505 100.011 126.721 99.59 126.997 99.084L130.17 93.3414H134.434L133.287 107.964H129.724L130.396 100.993C130.436 100.6 130.483 100.213 130.535 99.8287C130.587 99.4445 130.645 99.062 130.712 98.6744C130.517 99.1669 130.207 99.783 129.784 100.523C129.704 100.67 129.643 100.778 129.602 100.853L125.578 107.964H123.238L122.611 100.863C122.576 100.504 122.547 100.142 122.529 99.7796C122.51 99.4174 122.495 99.0518 122.487 98.6862C122.37 99.1195 122.251 99.5291 122.129 99.915C122.007 100.301 121.886 100.661 121.768 100.993L119.053 107.964H115.289V107.966Z" fill="#F9F8F4"/>
<path d="M139.257 104.71H143.729L142.892 107.966H134.56L138.332 93.3431H146.665L145.796 96.7196H141.325L140.716 99.106H144.863L144.055 102.283H139.89L139.257 104.71Z" fill="#F9F8F4"/>
<path d="M81.0678 107.964H65.8065L63.4963 78.8247C63.4963 78.818 63.4695 78.4541 63.4662 78.4473C63.3089 76.7328 59.801 76.0152 59.801 76.0152H72.8441C73.3025 76.0152 73.6872 76.3638 73.7374 76.8259L76.6164 103.885C76.6164 103.887 76.6164 103.892 76.618 103.896C76.9944 107.37 81.0678 107.964 81.0678 107.964Z" fill="#FBB040"/>
<path d="M64.4128 90.6265C64.4128 90.6265 61.5974 91.2274 59.2036 95.4501L52.5055 107.265C52.2596 107.699 51.8046 107.966 51.3111 107.966H37.3329C37.3329 107.966 40.6167 106.883 41.7642 104.997L49.9093 91.378C50.1887 90.9109 50.6872 90.6265 51.2258 90.6265H64.4128Z" fill="#FBB040"/>
</g>
<defs>
<clipPath id="clip0">
<rect width="109.333" height="32.6667" fill="white" transform="translate(37.3329 75.6886)"/>
</clipPath>
</defs>
</svg>
