<svg width="184" height="185" viewBox="0 0 184 185" fill="none" xmlns="http://www.w3.org/2000/svg">
<rect y="0.989258" width="184" height="184" rx="3" fill="#090909"/>
<path d="M60.0594 86.0027C59.91 85.9256 59.7461 85.9497 59.5725 86.0653C59.399 86.181 59.2978 86.3545 59.2689 86.5859C58.541 95.3487 57.3938 104.136 55.832 112.951C55.7789 113.173 55.8272 113.318 55.9766 113.39C56.126 113.467 56.2899 113.443 56.4731 113.322C56.6562 113.207 56.7671 113.038 56.8057 112.821C58.3819 104.001 59.5388 95.2089 60.2667 86.4461C60.2763 86.2244 60.2088 86.075 60.0594 86.0027Z" fill="#F9F8F4" stroke="#F9F8F4" stroke-width="0.38587"/>
<path d="M88.8751 87.5158C88.7883 87.4146 88.6775 87.3761 88.5328 87.4002C87.6748 87.4917 86.8602 88.0171 86.1034 88.9715C85.3659 89.8921 84.7055 91.0875 84.1174 92.5576C84.1126 92.5335 84.1078 92.5142 84.0981 92.4949C84.4163 90.5332 84.7971 88.4075 85.2502 86.118C85.2743 85.9542 85.2502 85.8144 85.1779 85.7083C85.1056 85.5975 85.0092 85.5396 84.879 85.5348C84.7537 85.5252 84.6284 85.5782 84.5079 85.6891C84.3922 85.7999 84.3199 85.9301 84.291 86.0795C83.7414 88.8558 83.3269 91.1453 83.0473 92.9383C82.9606 93.0829 82.8593 93.2372 82.7581 93.3962C82.5653 93.6903 82.3243 94.0228 82.0399 94.394C81.7555 94.7603 81.4807 95.0736 81.2108 95.3242C80.9457 95.5749 80.6757 95.7821 80.3961 95.9508C80.1117 96.1195 79.8707 96.1485 79.6731 96.0424C79.4851 95.8978 79.4369 95.4929 79.5188 94.8181C79.6008 94.1433 79.7936 93.3095 80.0876 92.3262C80.319 91.6948 80.5311 91.073 80.7239 90.4657C80.777 90.3259 80.777 90.1909 80.7191 90.0608C80.6564 89.9355 80.5697 89.8535 80.4492 89.8198C80.3287 89.7861 80.2082 89.815 80.0876 89.9017C79.9671 89.9885 79.8756 90.1042 79.8081 90.2488V90.297C79.6635 90.0801 79.4996 89.9307 79.3116 89.8487C78.9838 89.7138 78.6271 89.7668 78.2318 90.0078C77.7835 90.2681 77.2822 90.8031 76.7279 91.6177C76.1687 92.4274 75.6963 93.3143 75.3059 94.2783C75.2432 94.4325 75.1854 94.582 75.1324 94.7266C75.1034 94.7362 75.0793 94.741 75.0504 94.7507C74.0333 95.1073 73.0018 95.5797 71.9461 96.1726C71.5846 94.4663 70.8953 93.295 69.883 92.6684C68.5285 91.8538 66.6245 91.931 64.1758 92.895C65.4483 91.7526 66.557 90.6778 67.5066 89.6704C68.4562 88.663 69.3046 87.5881 70.0517 86.4554C70.5964 85.6312 71.0206 84.7733 71.334 83.8767C71.6473 82.985 71.8208 82.1367 71.8497 81.3318C71.8835 80.5269 71.6858 79.8328 71.2616 79.2496C70.8326 78.6663 70.1915 78.3048 69.3239 78.1602C68.3454 77.9964 67.2993 78.0397 66.1859 78.2904C65.0675 78.5362 63.9733 78.9555 62.8888 79.5436C61.809 80.1364 60.7437 80.8498 59.7025 81.6837C58.6613 82.5175 57.6973 83.4719 56.8103 84.5419C55.9282 85.6168 55.157 86.7254 54.4918 87.8773C53.8266 89.0293 53.3156 90.244 52.9589 91.5261C52.6022 92.8034 52.4383 94.0469 52.4672 95.2471C52.472 95.3291 52.4865 95.3869 52.5154 95.4255C52.6022 95.6906 52.7854 95.7773 53.0698 95.6906C53.3349 95.6038 53.4602 95.4158 53.4458 95.117C53.4313 94.1771 53.5373 93.2179 53.7639 92.2394C53.9904 91.2562 54.323 90.3114 54.7569 89.4101C55.1907 88.5088 55.7065 87.6219 56.3138 86.7398C56.9164 85.8578 57.5719 85.0625 58.2854 84.3443C58.9988 83.6261 59.7555 82.9417 60.5605 82.2958C61.3655 81.6499 62.185 81.1149 63.0237 80.6956C63.8576 80.2714 64.6916 79.9195 65.5255 79.6448C66.3546 79.3652 67.1596 79.2303 67.9404 79.2351C68.8708 79.2014 69.5794 79.3749 70.0566 79.7605C70.5386 80.1509 70.7844 80.657 70.7989 81.2788C70.8134 81.9054 70.6977 82.5995 70.447 83.3658C70.1964 84.1322 69.8493 84.8938 69.4058 85.6409C68.9624 86.3928 68.4755 87.0869 67.9501 87.7183C67.4488 88.3256 66.8655 88.9618 66.2003 89.6366C65.5399 90.3114 65.0193 90.8224 64.6385 91.1742C64.2625 91.5261 63.607 92.1141 62.667 92.9383C61.7319 93.7626 61.1583 94.2735 60.951 94.4711C60.7244 94.6687 60.6473 94.9242 60.7148 95.223C60.7823 95.5267 60.9558 95.599 61.2402 95.4447C61.9392 95.0591 62.561 94.7362 63.1057 94.4759C63.6455 94.2156 64.2674 93.9602 64.9615 93.7095C65.6604 93.4589 66.3256 93.3095 66.9619 93.2661C67.5982 93.2179 68.1863 93.2854 68.7262 93.4685C69.3094 93.6662 69.7963 94.0614 70.1867 94.6446C70.5772 95.2278 70.8567 95.9219 71.0206 96.722C69.7288 97.5173 68.4562 98.4669 67.1981 99.5755C65.94 100.679 64.7735 101.851 63.6986 103.094C62.6285 104.333 61.6162 105.644 60.6762 107.018C60.5075 107.268 60.3051 107.581 60.0737 107.962C59.8375 108.338 59.5483 108.835 59.2012 109.442C58.8541 110.045 58.5649 110.633 58.3336 111.192C58.1022 111.756 57.9142 112.291 57.784 112.806C57.6491 113.317 57.6539 113.727 57.7985 114.031C57.9431 114.339 58.2516 114.484 58.7192 114.474C58.859 114.469 59.0132 114.445 59.1819 114.402C59.3506 114.358 59.529 114.301 59.7122 114.219C59.8953 114.141 60.0592 114.064 60.2087 113.997C60.3533 113.925 60.5316 113.828 60.7341 113.703C60.9365 113.582 61.1004 113.481 61.2161 113.414C61.3366 113.341 61.4957 113.24 61.6933 113.11C61.7608 113.062 61.8186 113.023 61.862 112.994C63.3901 111.982 64.9133 110.7 66.4365 109.162C67.1885 108.411 67.8826 107.63 68.5141 106.82C69.1503 106.01 69.7432 105.143 70.2976 104.212C70.8471 103.277 71.2906 102.304 71.6232 101.287C71.9558 100.27 72.1293 99.2718 72.1486 98.2934C72.1582 97.9897 72.1438 97.633 72.11 97.2281C73.0355 96.7172 73.9321 96.2931 74.8046 95.9605C74.766 96.2111 74.7467 96.4377 74.7564 96.6449C74.7805 97.5125 75.142 97.9704 75.8361 98.0138C76.6845 98.0475 77.5763 97.2908 78.5018 95.7484C78.5259 96.4907 78.7524 96.9486 79.1766 97.1269C79.461 97.2426 79.7743 97.2571 80.1117 97.1703C80.4492 97.0835 80.8107 96.8956 81.1867 96.6064C81.5675 96.3172 81.9001 96.0087 82.1941 95.6809C82.3821 95.464 82.5701 95.2375 82.7629 94.9868C82.5749 96.5244 82.5556 97.4402 82.7099 97.7439C82.7967 97.927 82.9461 97.9945 83.1582 97.9415C83.1726 97.9367 83.1871 97.9222 83.2016 97.9029C83.4281 97.8306 83.5679 97.6571 83.6209 97.392C83.9535 95.9171 84.3536 94.5434 84.826 93.2661C85.2984 91.9888 85.8527 90.8995 86.4987 89.9933C87.1446 89.0823 87.7953 88.5955 88.4461 88.5232C88.5714 88.5039 88.6919 88.4316 88.8028 88.3111C88.9136 88.1858 88.9763 88.046 88.986 87.8918C89.0004 87.7376 88.9618 87.6122 88.8751 87.5158ZM66.6486 107.577C64.2336 110.242 61.9488 112.059 59.7796 113.033C59.7652 113.033 59.6977 113.062 59.582 113.12C59.4615 113.173 59.3651 113.216 59.2976 113.25C59.2253 113.284 59.1385 113.312 59.0421 113.327C58.9409 113.346 58.8638 113.346 58.8059 113.332C58.7529 113.327 58.7144 113.327 58.6999 113.332C58.6999 113.221 58.7577 112.922 58.8783 112.426C59.0952 111.592 59.447 110.743 59.9387 109.895C60.4304 109.042 61.0233 108.121 61.7174 107.128C63.0623 105.234 64.5421 103.484 66.1473 101.875C67.7525 100.265 69.4251 98.9103 71.1652 97.8114C71.1652 98.0813 71.1701 98.2837 71.1701 98.4283C71.1267 101.258 69.6179 104.309 66.6486 107.577ZM79.1718 92.1093C78.656 93.4396 78.1161 94.5675 77.5522 95.5026C76.993 96.4377 76.5061 96.8907 76.0964 96.8715C75.8699 96.8474 75.7542 96.6883 75.7494 96.3846C75.7253 95.6761 76.0579 94.6735 76.7375 93.3818C77.422 92.09 78.0245 91.2899 78.5403 90.9814C78.5982 90.9525 78.6464 90.9284 78.6898 90.9188C78.7331 90.9091 78.7669 90.9139 78.7958 90.938C78.9693 91.0055 79.085 91.2176 79.1429 91.5646C79.1766 91.6562 79.22 91.7333 79.2778 91.796C79.2344 91.9165 79.2007 92.0225 79.1718 92.1093Z" fill="#F9F8F4" stroke="#F9F8F4" stroke-width="0.38587"/>
<path d="M131.505 79.9437C131.462 79.8087 131.375 79.7268 131.245 79.6979C131.12 79.6689 130.99 79.693 130.864 79.7702C130.305 80.1413 129.722 80.5751 129.119 81.0812C129.076 78.9604 128.772 77.6927 128.199 77.283C128.083 77.2011 127.943 77.1866 127.774 77.2493C127.562 77.3168 127.326 77.5433 127.061 77.9193C126.796 78.3001 126.319 79.0713 125.629 80.2377C123.87 83.2261 122.824 84.7637 122.487 84.8504C122.255 84.7203 122.294 83.9539 122.593 82.5658C122.891 81.1728 123.34 79.6497 123.942 77.9964C124.01 77.8518 124.019 77.712 123.966 77.5722C123.918 77.4325 123.831 77.3505 123.711 77.3168C123.59 77.283 123.46 77.312 123.33 77.4035C123.195 77.4951 123.104 77.6108 123.046 77.7506C122.636 78.8592 122.265 80.0401 121.927 81.2885C121.315 83.5972 121.219 85.0577 121.653 85.6795C121.585 85.747 121.513 85.8096 121.441 85.8723C121.257 86.0217 121.122 86.0795 121.036 86.0362C120.881 85.9494 120.737 85.2312 120.607 83.8768C120.554 83.3948 120.51 83.0429 120.472 82.8116C120.433 82.585 120.38 82.3199 120.303 82.0211C120.226 81.7223 120.125 81.515 119.985 81.409C119.85 81.3029 119.686 81.2547 119.488 81.274C119.088 81.3126 118.645 81.6596 118.143 82.3151C117.642 82.9706 116.934 84.0503 116.023 85.5638C115.868 85.8241 115.743 86.041 115.647 86.2097C115.974 84.2142 116.35 82.1898 116.774 80.1365C116.803 79.9822 116.779 79.8521 116.707 79.7364C116.635 79.6159 116.529 79.5581 116.394 79.5629C116.259 79.5677 116.138 79.6207 116.027 79.7316C115.916 79.8376 115.839 79.9678 115.796 80.122C115.762 80.2859 115.733 80.4498 115.704 80.6088L115.7 80.6137C114.976 81.4331 113.979 81.7367 112.696 81.5198C112.465 81.327 112.186 81.2692 111.843 81.3608C111.352 81.4861 110.884 81.8379 110.436 82.4163C109.992 82.9899 109.645 83.6021 109.399 84.2479C109.154 84.8938 109.014 85.4529 108.98 85.9205C108.98 85.9542 108.97 86.0265 108.961 86.1422C108.864 87.2315 108.932 88.0509 109.168 88.6004C109.096 88.6631 109.038 88.7402 108.994 88.8318C108.97 88.9185 108.913 89.0438 108.831 89.1981C108.749 89.3571 108.585 89.6126 108.344 89.9693C108.103 90.326 107.847 90.6537 107.582 90.9429C107.317 91.2321 106.989 91.4972 106.594 91.7334C106.204 91.9744 105.808 92.0997 105.413 92.1238C103.967 92.1768 103.143 90.9333 102.94 88.3883C102.984 88.3449 103.017 88.2967 103.046 88.2437C103.388 87.5304 103.779 86.7158 104.213 85.7903C104.642 84.8649 105.278 83.443 106.117 81.5246C106.951 79.6015 107.669 77.847 108.262 76.2612C108.855 74.6754 109.337 73.1137 109.708 71.5858C110.074 70.0579 110.156 68.9782 109.949 68.3468C109.785 67.8792 109.491 67.619 109.067 67.5659C109.038 67.5611 109.009 67.5611 108.985 67.5659C108.431 67.6141 107.862 68.0046 107.269 68.7372C106.676 69.4698 106.122 70.4145 105.596 71.5713C105.076 72.7233 104.584 74.0054 104.121 75.4177C103.658 76.8251 103.263 78.2567 102.931 79.7027C102.593 81.1535 102.342 82.5127 102.179 83.7804C102 85.0866 101.913 86.2675 101.909 87.3183C101.899 87.3279 101.889 87.3376 101.885 87.3472C101.61 87.7521 101.287 88.1811 100.925 88.6341C100.564 89.0872 100.164 89.5548 99.7154 90.0464C99.2671 90.538 98.8429 90.9477 98.438 91.2851C98.0331 91.6177 97.6426 91.878 97.2715 92.0515C96.8955 92.225 96.6015 92.225 96.3894 92.0419C96.0327 91.7671 95.8832 91.2128 95.9411 90.3886C96.3604 89.9741 96.7654 89.5644 97.1558 89.1547C97.5462 88.7402 97.9752 88.2582 98.4428 87.6991C98.9056 87.1399 99.2719 86.6049 99.5322 86.0892C99.7973 85.5783 99.9034 85.1493 99.8552 84.8119C99.778 84.3395 99.4551 84.0841 98.8911 84.0551C98.3079 84.031 97.7342 84.3684 97.1654 85.0625C96.5918 85.7614 96.1146 86.5712 95.7338 87.5014C95.6037 87.8244 95.488 88.1425 95.3916 88.4558C95.165 88.7884 94.8902 89.1595 94.5817 89.5644C94.1865 90.085 93.7382 90.6248 93.2465 91.1887C92.75 91.7575 92.2728 92.2491 91.8101 92.6733C91.3521 93.0926 90.9183 93.4204 90.5086 93.6517C90.0989 93.8831 89.7855 93.9265 89.5542 93.7771C89.371 93.6855 89.2601 93.4975 89.2312 93.218C89.1637 92.6781 89.3228 91.9214 89.7084 90.9574C90.0892 89.9886 90.4748 89.1595 90.8605 88.4703C91.0003 88.2437 91.1449 88.0461 91.2991 87.8822C91.3136 87.969 91.3232 88.0798 91.328 88.21C91.328 88.3208 91.3521 88.4076 91.4052 88.4751C91.4534 88.5426 91.516 88.5908 91.5883 88.6197C91.6558 88.6486 91.7426 88.6486 91.8438 88.6245C91.9836 88.5859 92.0993 88.504 92.1861 88.369C92.2776 88.2341 92.321 88.0847 92.321 87.9256C92.2969 87.1207 92.0704 86.6917 91.6462 86.6435C91.1641 86.576 90.6436 87.0194 90.094 87.9786C89.9542 88.2052 89.8048 88.4751 89.6457 88.798C89.4867 89.1161 89.2746 89.5789 89.0095 90.1814C88.7395 90.7839 88.5323 91.396 88.3828 92.013C88.2382 92.6347 88.1948 93.1649 88.2575 93.6132C88.3346 94.1819 88.5708 94.582 88.9516 94.8182C89.2698 95.0062 89.6457 95.0447 90.0796 94.9339C90.5471 94.8134 91.0822 94.5097 91.6944 94.0277C92.3017 93.5457 92.8513 93.0348 93.3381 92.5046C93.825 91.9696 94.3215 91.3863 94.8324 90.7453C94.8758 90.6875 94.9192 90.6344 94.9626 90.5814C94.9385 90.9574 94.9577 91.3189 95.0156 91.6659C95.1168 92.2829 95.3578 92.7456 95.7434 93.0444C96.1146 93.2951 96.5581 93.3577 97.0739 93.2276C97.5896 93.0926 98.1584 92.7793 98.7802 92.2829C99.4021 91.7864 99.995 91.208 100.559 90.5429C101.123 89.8825 101.557 89.3571 101.856 88.9667C101.894 88.9137 101.933 88.8655 101.966 88.8173C102.039 89.5933 102.169 90.2778 102.357 90.8706C102.892 92.5239 103.851 93.324 105.235 93.271C105.461 93.2565 105.688 93.2228 105.914 93.1649C106.367 93.0492 106.806 92.8323 107.245 92.5142C107.679 92.1913 108.035 91.8683 108.324 91.5406C108.609 91.2128 108.879 90.8513 109.134 90.4609C109.39 90.0657 109.563 89.7813 109.655 89.6078C109.718 89.4921 109.766 89.3909 109.799 89.3089C109.91 89.362 110.036 89.3957 110.171 89.415C110.33 89.4391 110.489 89.4294 110.662 89.3861C110.956 89.3089 111.236 89.1402 111.501 88.88C111.964 88.4413 112.349 87.8196 112.653 87.005C112.962 86.1952 113.14 85.5493 113.193 85.0722C113.289 84.0455 113.299 83.2598 113.222 82.7248C114.041 82.7248 114.764 82.532 115.401 82.1416C114.793 85.3132 114.461 87.3183 114.403 88.157C114.388 88.3642 114.461 88.5136 114.62 88.6004C114.774 88.6872 114.938 88.6679 115.107 88.5329C115.275 88.4028 115.478 88.1666 115.714 87.8196C115.95 87.4677 116.307 86.8893 116.794 86.0795C118.134 83.8527 118.973 82.6429 119.31 82.4453C119.411 82.6091 119.512 83.202 119.614 84.2287C119.676 84.8022 119.729 85.236 119.768 85.5301C119.806 85.8193 119.888 86.1277 120.014 86.4555C120.139 86.7833 120.298 86.9905 120.501 87.0821C120.698 87.193 120.92 87.2122 121.161 87.1544C121.653 87.0243 122.135 86.6435 122.607 86.0121C122.641 85.9639 122.67 85.9157 122.689 85.8675C122.959 85.718 123.277 85.424 123.643 84.9806C124.068 84.4745 124.477 83.9154 124.863 83.3032C125.253 82.6959 125.769 81.8379 126.42 80.7293C127.085 79.6015 127.529 78.8736 127.75 78.5459C128.011 79.1918 128.141 80.3389 128.136 81.9825C126.473 83.5442 124.877 85.4433 123.354 87.6846C121.826 89.9259 120.592 92.0804 119.652 94.1386C118.712 96.1967 118.134 97.9223 117.927 99.3152C117.695 100.795 117.898 101.759 118.539 102.217C118.828 102.429 119.165 102.487 119.561 102.381C119.715 102.342 119.888 102.275 120.067 102.178C120.872 101.749 121.792 100.829 122.843 99.4213C123.894 98.009 124.892 96.3558 125.841 94.4519C126.796 92.548 127.538 90.7019 128.083 88.9041C128.705 86.8315 129.052 84.648 129.119 82.3489C129.818 81.7415 130.517 81.2017 131.216 80.7342C131.303 80.6811 131.37 80.604 131.428 80.5124C131.481 80.416 131.515 80.3245 131.529 80.2329C131.544 80.1413 131.534 80.0449 131.505 79.9437ZM96.4279 88.2726C96.4858 88.1232 96.5436 87.9738 96.6063 87.8244C96.8955 87.1303 97.2136 86.5423 97.5703 86.0603C97.9222 85.5783 98.2404 85.2987 98.5248 85.2264C98.5681 85.2168 98.6067 85.2119 98.6501 85.2168C98.8092 85.2119 98.8863 85.2119 98.8863 85.2312C98.8863 85.4529 98.6405 85.8916 98.1391 86.5471C97.6667 87.1689 97.0883 87.8388 96.3942 88.5715C96.4279 88.4847 96.4376 88.4028 96.4327 88.3112C96.4327 88.2967 96.4327 88.2823 96.4279 88.2726ZM103.152 83.6985C103.369 82.0307 103.716 80.3004 104.198 78.5073C104.675 76.7095 105.182 75.1189 105.712 73.7403C106.247 72.3618 106.787 71.2002 107.341 70.2603C107.895 69.3204 108.368 68.7999 108.763 68.6986L108.806 68.689C108.908 68.7276 108.98 68.8095 109.023 68.9444C109.231 69.5759 109.019 70.911 108.387 72.9547C107.756 74.9984 106.97 77.1529 106.025 79.4183C105.08 81.6885 104.039 84.0021 102.911 86.3639C102.945 85.5301 103.022 84.6384 103.152 83.6985ZM112.195 85.2119C112.186 85.3903 112.128 85.6506 112.026 85.9976C111.925 86.3398 111.776 86.7254 111.573 87.1399C111.376 87.5593 111.178 87.8726 110.98 88.0847C110.802 88.2389 110.629 88.3064 110.474 88.2871C110.19 88.2485 110.016 87.9834 109.944 87.5014C109.872 87.0194 109.877 86.5182 109.954 86.0024C109.954 85.8916 109.959 85.8144 109.973 85.7614C109.997 85.2457 110.2 84.6191 110.585 83.8816C110.971 83.1442 111.361 82.6863 111.757 82.5031C111.867 82.5561 111.988 82.5899 112.118 82.6043C112.306 82.9514 112.33 83.8238 112.195 85.2119ZM127.148 88.7402C126.632 90.4802 125.909 92.2684 124.979 94.1C124.048 95.9364 123.118 97.4836 122.188 98.7417C121.257 99.9997 120.467 100.805 119.821 101.142C119.541 101.296 119.329 101.32 119.185 101.214C118.828 100.968 118.736 100.327 118.905 99.2767C119.098 97.9994 119.614 96.4281 120.452 94.5627C121.291 92.6974 122.395 90.7356 123.769 88.6775C125.143 86.6194 126.584 84.836 128.093 83.3321C127.977 85.2601 127.659 87.058 127.148 88.7402Z" fill="#F9F8F4" stroke="#F9F8F4" stroke-width="0.38587"/>
<path d="M92.0432 123.425C83.0485 123.425 74.5937 119.921 68.2357 113.563C68.0621 113.39 68.0621 113.11 68.2357 112.942C68.4092 112.768 68.6888 112.768 68.8575 112.942C75.0516 119.135 83.2847 122.543 92.0432 122.543C99.9437 122.543 107.574 119.694 113.527 114.523C113.711 114.364 113.99 114.383 114.149 114.566C114.308 114.749 114.289 115.029 114.106 115.188C107.989 120.499 100.156 123.425 92.0432 123.425Z" fill="#F9F8F4" stroke="#F9F8F4" stroke-width="0.38587"/>
<path d="M118.111 110.802C118.015 110.802 117.918 110.773 117.836 110.705C117.644 110.556 117.615 110.276 117.764 110.084C118.603 109.028 119.379 107.905 120.078 106.758C120.203 106.551 120.473 106.483 120.685 106.608C120.893 106.734 120.96 107.009 120.835 107.216C120.116 108.397 119.316 109.549 118.458 110.633C118.372 110.744 118.241 110.802 118.111 110.802Z" fill="#F9F8F4" stroke="#F9F8F4" stroke-width="0.38587"/>
<path d="M120.541 73.1041C120.391 73.1041 120.247 73.027 120.16 72.8921C114.168 62.9243 103.655 56.9716 92.0431 56.9716C85.3187 56.9716 78.8547 58.9912 73.3547 62.8134C73.1523 62.9532 72.8775 62.905 72.7425 62.7026C72.6027 62.505 72.651 62.2254 72.8534 62.0904C78.5028 58.167 85.1356 56.0896 92.0431 56.0896C103.969 56.0896 114.766 62.2013 120.917 72.4342C121.042 72.6414 120.975 72.9162 120.767 73.0415C120.695 73.08 120.618 73.1041 120.541 73.1041Z" fill="#F9F8F4" stroke="#F9F8F4" stroke-width="0.38587"/>
<path d="M63.4633 73.2341C63.3862 73.2341 63.3091 73.2148 63.2368 73.1715C63.0295 73.0461 62.9572 72.7762 63.0825 72.5641C63.8249 71.3158 64.6588 70.1011 65.5602 68.954C65.7096 68.7612 65.9892 68.7322 66.182 68.8817C66.3748 69.0311 66.4085 69.3106 66.2543 69.5034C65.377 70.6169 64.5672 71.8026 63.8393 73.0172C63.7622 73.157 63.6176 73.2341 63.4633 73.2341Z" fill="#F9F8F4" stroke="#F9F8F4" stroke-width="0.38587"/>
<path d="M73.209 107.432C73.1126 107.432 73.021 107.394 72.9535 107.317C72.8378 107.177 72.8523 106.97 72.9921 106.849C77.4364 103.104 82.4061 100.164 87.7615 98.1106C98.5494 93.975 108.532 94.3558 115.011 95.4066C115.189 95.4355 115.314 95.6042 115.286 95.7873C115.257 95.9657 115.088 96.091 114.905 96.0621C108.508 95.0258 98.6506 94.6498 87.9977 98.7324C82.7098 100.762 77.8076 103.663 73.4163 107.355C73.3584 107.408 73.2813 107.432 73.209 107.432Z" fill="#F9F8F4" stroke="#F9F8F4" stroke-width="0.38587"/>
<path d="M114.476 99.8457C114.452 99.8457 114.433 99.8457 114.409 99.8409C112.399 99.4263 110.336 99.1902 108.282 99.1371C106.262 99.0841 104.228 99.2094 102.233 99.5083C102.049 99.5324 101.886 99.4119 101.857 99.2287C101.828 99.0504 101.953 98.8817 102.136 98.8528C104.17 98.5491 106.243 98.4238 108.301 98.4768C110.393 98.5298 112.495 98.7708 114.544 99.195C114.722 99.2335 114.838 99.4071 114.799 99.5854C114.77 99.7396 114.63 99.8457 114.476 99.8457Z" fill="#F9F8F4" stroke="#F9F8F4" stroke-width="0.38587"/>
<path d="M115.725 60.7893C115.532 60.7893 115.335 60.7652 115.142 60.717C113.836 60.394 113.031 59.0733 113.354 57.7671C113.677 56.4609 114.997 55.6608 116.304 55.9789C117.61 56.3018 118.415 57.6225 118.092 58.9287C117.938 59.5602 117.542 60.0952 116.988 60.4326C116.603 60.6688 116.169 60.7893 115.725 60.7893ZM114.289 57.9937C114.096 58.7841 114.583 59.5843 115.373 59.7771C115.754 59.8735 116.154 59.8108 116.492 59.6035C116.829 59.4011 117.065 59.0733 117.162 58.6926C117.354 57.9021 116.868 57.102 116.077 56.9092C115.282 56.7164 114.482 57.2032 114.289 57.9937Z" fill="#F9F8F4" stroke="#F9F8F4" stroke-width="0.38587"/>
<path d="M80.3777 130.515C79.7751 130.515 79.1678 130.293 78.6954 129.845C77.7217 128.92 77.6831 127.368 78.6134 126.394C79.0617 125.922 79.6691 125.652 80.3198 125.637C80.9754 125.618 81.5924 125.859 82.06 126.312C82.5324 126.76 82.8023 127.368 82.8168 128.018C82.8312 128.669 82.595 129.286 82.1419 129.758C81.6647 130.265 81.0188 130.515 80.3777 130.515ZM79.3606 129.146C79.9487 129.705 80.8838 129.686 81.4478 129.093C81.7177 128.809 81.8623 128.433 81.8527 128.038C81.8431 127.642 81.6792 127.276 81.3948 127.006C81.1104 126.731 80.7296 126.582 80.3391 126.601C79.9439 126.611 79.5775 126.775 79.3076 127.059C78.7436 127.647 78.7677 128.587 79.3606 129.146Z" fill="#F9F8F4" stroke="#F9F8F4" stroke-width="0.38587"/>
<path d="M121.707 63.1947C121.596 63.1947 121.481 63.1802 121.365 63.1561C120.999 63.0646 120.685 62.838 120.493 62.5151C120.295 62.1921 120.237 61.8114 120.329 61.4451C120.517 60.6883 121.283 60.2208 122.04 60.4088C122.797 60.5967 123.264 61.3631 123.076 62.1199C122.985 62.4862 122.758 62.7995 122.435 62.9923C122.218 63.1224 121.963 63.1947 121.707 63.1947ZM121.269 61.6716C121.24 61.7873 121.259 61.9126 121.322 62.0138C121.384 62.115 121.481 62.1922 121.601 62.2163C121.717 62.2452 121.842 62.2259 121.943 62.1632C122.045 62.1006 122.117 62.0042 122.146 61.8837C122.204 61.6427 122.054 61.3969 121.813 61.339C121.572 61.2764 121.326 61.4258 121.269 61.6716Z" fill="#F9F8F4" stroke="#F9F8F4" stroke-width="0.38587"/>
<path d="M73.9185 127.349C73.5522 127.349 73.2099 127.209 72.9448 126.958C72.3808 126.418 72.3567 125.522 72.8966 124.958C73.4365 124.394 74.333 124.37 74.897 124.91C75.1718 125.17 75.326 125.522 75.3357 125.903C75.3453 126.279 75.2055 126.64 74.9452 126.915C74.6849 127.19 74.333 127.344 73.9522 127.353C73.9426 127.349 73.9281 127.349 73.9185 127.349ZM73.6052 126.259C73.6919 126.341 73.8028 126.38 73.9281 126.385C74.0486 126.38 74.1595 126.332 74.2463 126.245C74.3282 126.158 74.3764 126.042 74.3716 125.922C74.3668 125.801 74.3186 125.691 74.2318 125.604C74.1451 125.522 74.0245 125.483 73.9089 125.478C73.7883 125.483 73.6775 125.531 73.5907 125.618C73.422 125.801 73.4268 126.086 73.6052 126.259Z" fill="#F9F8F4" stroke="#F9F8F4" stroke-width="0.38587"/>
</svg>
