<svg width="184" height="185" viewBox="0 0 184 185" fill="none" xmlns="http://www.w3.org/2000/svg">
<rect y="0.491699" width="184" height="184" rx="3" fill="#090909"/>
<g clip-path="url(#clip0)">
<path d="M68.666 103.237C69.9276 101.709 71.5336 100.675 73.4661 100.119C73.803 100.022 74.1505 99.9534 74.4965 99.8907C76.8822 99.4575 79.1667 100.416 80.1729 102.78C80.602 103.786 80.9601 104.821 81.3393 105.848C83.4425 111.542 85.5396 117.239 87.6458 122.931C87.8694 123.536 88.1021 124.147 88.4149 124.71C89.0177 125.798 89.9243 126.549 91.1405 126.925C93.2528 127.577 95.3529 126.458 96.2247 124.948C96.5949 124.305 96.8789 123.605 97.1358 122.909C99.3961 116.795 101.634 110.674 103.902 104.563C104.211 103.728 104.592 102.905 105.045 102.137C105.672 101.078 106.565 100.257 107.815 99.9803C108.49 99.8309 109.226 99.7249 109.898 99.8294C112.248 100.195 114.313 101.156 115.878 102.999C115.939 103.071 115.959 103.177 115.998 103.268C114.942 105.613 110.954 107.243 107.979 106.548C107.795 105.479 108.076 104.956 108.96 104.778C109.453 104.68 109.962 104.653 110.448 104.536C111.229 104.349 111.995 104.109 112.577 103.377C112.431 103.181 112.329 102.939 112.147 102.823C111.238 102.243 110.237 101.945 109.149 101.968C107.99 101.994 107.117 102.496 106.617 103.543C106.36 104.081 106.153 104.644 105.947 105.202C103.781 111.086 101.62 116.971 99.4535 122.855C99.1619 123.648 98.8914 124.455 98.5333 125.22C97.3443 127.754 95.3574 129.079 92.4882 129.158C89.6191 129.236 87.1351 127.681 86.0821 124.867C84.9489 121.838 83.8278 118.804 82.7082 115.769C81.4028 112.218 80.1049 108.666 78.792 105.12C78.6197 104.656 78.4248 104.19 78.1634 103.77C77.0167 101.931 75.1432 101.444 73.2183 102.464C72.827 102.672 72.3843 102.841 72.212 103.431C72.3843 103.592 72.5656 103.819 72.7952 103.969C73.6655 104.533 74.6657 104.663 75.6735 104.741C76.0331 104.768 76.4078 104.805 76.5951 105.147C76.8052 105.529 77.0937 105.946 76.8943 106.396C76.6949 106.842 76.2053 106.735 75.82 106.751C73.0052 106.878 70.7601 105.71 68.885 103.727C68.7898 103.628 68.7642 103.465 68.666 103.237Z" fill="#F9F8F4"/>
<path d="M98.8669 102.614C97.7247 102.454 96.5839 102.285 95.4402 102.134C93.3884 101.864 91.3336 101.849 89.2833 102.151C88.4402 102.275 87.5926 102.378 86.7571 102.54C85.5982 102.766 84.5768 102.509 83.622 101.844C80.8328 99.901 79.056 97.275 78.2039 94.0277C78.0528 93.4556 77.9561 92.8596 77.9168 92.2696C77.87 91.5661 78.2009 91.2927 78.9321 91.3226C79.5984 91.3495 79.9384 91.6467 80.0321 92.3099C80.0668 92.5549 80.0306 92.8103 80.0744 93.0523C80.1726 93.5856 80.2179 94.1502 80.4309 94.6386C81.2801 96.5879 82.5583 98.2325 84.2535 99.541C85.2628 100.319 86.4201 100.545 87.6727 100.264C89.3467 99.8875 91.0389 99.7606 92.7568 99.7681C94.3236 99.7755 95.8753 99.9279 97.3923 100.251C98.6992 100.528 99.7372 100.233 100.734 99.4066C102.609 97.8531 103.862 95.9337 104.454 93.5915C104.575 93.1106 104.654 92.6176 104.779 92.1382C104.939 91.5198 105.321 91.2942 106.027 91.3644C106.566 91.4182 106.808 91.7393 106.779 92.4444C106.761 92.8895 106.736 93.3451 106.633 93.7768C105.769 97.3751 103.811 100.209 100.586 102.149C100.05 102.47 99.4939 102.642 98.8669 102.614Z" fill="#F9F8F4"/>
<path d="M105.824 78.0287C106.23 77.5433 106.665 77.3282 107.203 77.4581C107.735 77.5866 108.029 77.9824 108.22 78.4738C109.383 81.4687 108.962 84.3695 106.284 86.5399C104.65 87.8663 102.735 88.5908 100.723 89.0867C99.9008 89.2898 99.0426 89.3675 98.195 89.4407C96.039 89.6274 93.9056 89.8798 91.8583 90.6461C90.704 91.0778 90.2734 90.797 89.7778 89.4317C90.0075 89.2824 90.2356 89.0882 90.4985 88.9746C92.3992 88.1531 94.3649 87.5974 96.4575 87.5168C98.2192 87.4496 99.9597 87.2061 101.637 86.631C102.735 86.2546 103.778 85.7632 104.707 85.0641C106.553 83.675 107.103 82.0065 106.434 79.8062C106.248 79.1968 106.021 78.6008 105.824 78.0287Z" fill="#F9F8F4"/>
<path d="M75.329 84.5622C75.3728 81.4568 77.5319 78.6352 80.6367 77.7031C81.2094 77.5313 81.8107 77.4477 82.4 77.3297C84.272 76.9577 86.1152 76.4887 87.9162 75.8539C88.3846 75.6896 88.8772 75.5447 89.3682 75.4999C89.9408 75.4476 90.453 75.6507 90.7809 76.1765C90.9592 76.4618 90.9335 76.7889 90.651 76.9562C90.3518 77.1325 90.0345 77.2893 89.7112 77.4193C87.6141 78.2588 85.461 78.9175 83.2249 79.2894C82.681 79.3805 82.1295 79.4597 81.6037 79.6165C79.8828 80.1319 78.6016 81.1954 77.7993 82.7832C77.3082 83.7541 77.2962 84.7952 77.5213 85.8393C77.6149 86.2755 77.766 86.6997 77.8673 87.1344C77.973 87.5885 77.7237 87.8962 77.2418 87.941C76.3503 88.0246 75.7188 87.584 75.5314 86.634C75.3985 85.9573 75.3924 85.2538 75.329 84.5622Z" fill="#F9F8F4"/>
<path d="M103.868 66.8662C104.027 67.0858 104.228 67.3009 104.358 67.5518C106.931 72.5542 105.352 79.7778 98.1724 82.0737C97.8898 82.1633 97.5907 82.223 97.2961 82.2469C96.6857 82.2962 96.2399 82.0303 95.9332 81.5046C95.6144 80.9594 95.7625 80.6009 96.3865 80.3843C97.284 80.0736 98.2117 79.8182 99.0578 79.4029C102.728 77.6 104.077 73.5237 103.071 70.0732C102.932 69.5982 102.72 69.1321 102.661 68.6482C102.616 68.2777 102.728 67.8759 102.83 67.504C102.888 67.2889 103.069 67.2247 103.868 66.8662Z" fill="#F9F8F4"/>
<path d="M91.3974 66.2583C91.7373 67.8536 91.55 68.3914 90.3594 69.0829C88.8349 69.9672 87.1986 70.5767 85.4596 70.9127C84.8205 71.0367 84.1814 71.1577 83.5453 71.2951C82.0888 71.6103 81.1656 72.4946 80.7229 73.8927C80.6066 74.2601 80.454 74.6157 80.3104 74.9951C79.6532 74.9697 79.3299 74.6201 79.0866 74.1675C78.8449 73.7149 78.727 73.2459 78.9098 72.7366C79.348 71.5237 80.105 70.5737 81.2412 69.9239C82.0359 69.4698 82.9092 69.2159 83.7961 69.0785C86.2135 68.705 88.4542 67.9134 90.4773 66.5421C90.6404 66.4316 90.8217 66.339 91.0046 66.2643C91.0846 66.2299 91.1934 66.2583 91.3974 66.2583Z" fill="#F9F8F4"/>
<path d="M96.3319 55.1585C96.5027 55.296 96.7142 55.4244 96.8713 55.5992C98.42 57.3229 99.5804 59.2737 100.328 61.459C100.753 62.7003 100.857 63.9804 100.658 65.268C100.584 65.746 100.417 66.2314 100.188 66.6586C99.9188 67.1575 99.257 67.3233 98.7463 67.1232C98.2553 66.932 98.0544 66.5526 98.2054 66.0611C98.278 65.8251 98.3852 65.5996 98.4774 65.3696C98.769 64.6526 98.7615 63.9221 98.5953 63.1813C98.1858 61.3634 97.3246 59.7517 96.2775 58.2266C96.1083 57.9817 95.9119 57.7546 95.7351 57.5156C94.8936 56.3819 94.9631 56.0876 96.3319 55.1585Z" fill="#F9F8F4"/>
<path d="M92.898 59.7113C92.7318 60.3775 92.6396 61.0721 92.3813 61.7025C92.0035 62.6211 91.2738 63.2141 90.2751 63.4426C90.0802 63.4874 89.8822 63.5248 89.6843 63.5517C88.4514 63.7205 87.3772 64.1402 86.6383 65.2216C86.3543 65.6369 85.8995 65.604 85.4432 65.2769C84.9492 64.9229 84.7875 64.4673 85.0277 63.9998C85.5278 63.0289 86.3331 62.3731 87.3349 61.9683C87.7927 61.7831 88.2958 61.701 88.7808 61.583C89.0225 61.5247 89.2779 61.5128 89.5166 61.444C90.0862 61.2797 90.4534 60.9302 90.6044 60.3342C90.7661 59.6919 90.7344 59.0646 90.6513 58.4193C90.5878 57.9249 90.8265 57.7023 91.3433 57.6679C92.2438 57.6067 92.691 57.9488 92.7771 58.7942C92.8073 59.0885 92.7816 59.3872 92.7816 59.6845C92.8194 59.6949 92.8587 59.7024 92.898 59.7113Z" fill="#F9F8F4"/>
</g>
<defs>
<clipPath id="clip0">
<rect width="47.3333" height="74" fill="white" transform="translate(68.666 55.1585)"/>
</clipPath>
</defs>
</svg>
