<svg width="183" height="185" viewBox="0 0 183 185" fill="none" xmlns="http://www.w3.org/2000/svg">
<rect y="0.50293" width="183" height="183.979" rx="3" fill="#0C0C0C"/>
<g clip-path="url(#clip0)">
<path d="M58.4537 90.2185C58.4537 89.6954 58.4537 89.2998 58.4537 88.9042C58.4537 86.9034 58.4549 84.9014 58.4526 82.9006C58.4526 82.5807 58.4714 82.2549 58.422 81.9422C58.2573 80.8985 57.3788 80.1422 56.3743 80.147C55.3723 80.1518 54.5007 80.9166 54.3384 81.9591C54.2961 82.2332 54.3102 82.5182 54.3102 82.7972C54.309 89.1615 54.309 95.5247 54.3102 101.889C54.3102 102.169 54.2949 102.453 54.3325 102.728C54.476 103.782 55.3229 104.571 56.3202 104.601C57.3623 104.633 58.282 103.829 58.4302 102.733C58.4726 102.418 58.4526 102.094 58.4537 101.774C58.4549 99.5324 58.449 97.2911 58.4585 95.0498C58.462 94.3319 58.4643 93.6141 58.6878 92.9119C59.19 91.3403 60.2897 90.4722 61.9116 90.4385C62.3397 90.4301 62.7843 90.4337 63.1936 90.5407C64.5062 90.8822 65.233 91.8261 65.5271 93.1295C65.6765 93.7908 65.7258 94.4714 65.7223 95.1568C65.7106 97.2382 65.7188 99.3196 65.7188 101.401C65.7188 101.641 65.7164 101.881 65.72 102.121C65.7411 103.63 66.1598 104.219 67.5865 104.585C67.977 104.685 68.1934 104.91 68.4028 105.197C68.5015 105.333 68.411 105.522 68.2404 105.55C66.6174 105.815 65.0684 104.692 64.8002 103.034C64.7367 102.642 64.732 102.238 64.7308 101.839C64.7249 99.5973 64.7355 97.356 64.7226 95.1147C64.7191 94.5568 64.6955 93.9904 64.6015 93.4421C64.3897 92.2157 63.6206 91.5135 62.4632 91.4137C61.0624 91.2934 60.1074 91.867 59.6616 93.0754C59.4499 93.6514 59.4229 94.2454 59.4229 94.8478C59.4229 97.1696 59.4229 99.4903 59.4217 101.812C59.4217 102.092 59.4335 102.374 59.4147 102.653C59.3017 104.306 57.9939 105.576 56.4026 105.587C54.8606 105.596 53.5528 104.405 53.3681 102.804C53.3316 102.488 53.3469 102.164 53.3469 101.845C53.3458 95.5211 53.3458 89.1976 53.3469 82.8729C53.3469 82.5928 53.3352 82.3114 53.3587 82.0324C53.5034 80.3647 54.8065 79.1466 56.4178 79.1623C58.0209 79.1779 59.3382 80.4332 59.4076 82.0998C59.4617 83.4188 59.4182 84.7415 59.4241 86.0617C59.4264 86.5259 59.3923 86.9936 59.4805 87.5936C59.8969 87.2846 60.1933 87.0453 60.5085 86.8361C62.782 85.321 65.1354 85.3126 67.5418 86.4669C67.9052 86.6413 67.8994 87.2004 67.5512 87.4132C67.4407 87.4806 67.3336 87.4661 67.2243 87.4072C66.6327 87.085 66.0081 86.8649 65.3448 86.7495C63.3983 86.4128 61.694 86.895 60.2779 88.3211C59.9169 88.6854 59.604 89.1002 59.2653 89.4862C59.0618 89.7171 58.943 90.0297 58.4537 90.2185Z" fill="#F9F8F4"/>
<path d="M128.217 105.714C125.716 105.708 123.432 104.982 121.322 103.636C120.623 103.19 120.136 102.598 120.028 101.736C119.911 100.797 120.153 99.9844 120.886 99.3771C121.654 98.7399 122.529 98.6725 123.432 99.0032C123.759 99.1222 124.053 99.3399 124.361 99.5142C125.469 100.141 126.644 100.554 127.907 100.703C128.425 100.765 128.925 100.703 129.414 100.545C129.771 100.428 129.968 100.167 129.981 99.8605C129.995 99.5371 129.813 99.3194 129.566 99.1871C129.186 98.9851 128.791 98.8012 128.385 98.6629C127.606 98.3972 126.813 98.1723 126.029 97.9222C125.167 97.6481 124.335 97.2994 123.558 96.8256C121.702 95.6941 120.847 94.0144 120.928 91.8175C121.044 88.6576 123.047 86.5618 126.016 85.9377C128.78 85.3558 131.385 85.9678 133.856 87.2544C134.818 87.7546 135.257 88.6155 135.21 89.7205C135.138 91.4051 133.532 92.5354 131.958 92.0003C131.625 91.8873 131.309 91.7213 130.988 91.5747C130.198 91.2151 129.386 90.9217 128.533 90.7738C127.951 90.6716 127.36 90.6524 126.822 90.9879C126.425 91.2356 126.391 91.6708 126.751 91.9823C127.116 92.2973 127.551 92.4825 127.993 92.6448C128.876 92.9683 129.766 93.2785 130.65 93.5995C131.612 93.9482 132.54 94.3703 133.374 94.9847C134.253 95.6316 134.93 96.4396 135.298 97.4966C135.353 97.6565 135.373 97.808 135.212 97.9126C134.958 98.0773 134.568 98.0833 134.463 97.9246C134.397 97.826 134.342 97.7178 134.295 97.6084C133.869 96.6068 133.111 95.9358 132.211 95.4043C131.427 94.9414 130.587 94.618 129.735 94.3162C128.922 94.0276 128.112 93.7342 127.304 93.43C126.862 93.2628 126.439 93.0488 126.083 92.7242C125.226 91.9438 125.356 90.6873 126.357 90.1041C126.736 89.8841 127.149 89.7746 127.59 89.7518C128.426 89.7085 129.23 89.8576 130.009 90.1474C130.706 90.4071 131.396 90.6921 132.077 90.9963C132.545 91.2055 132.986 91.1923 133.43 90.9566C134.328 90.4805 134.549 89.2648 133.857 88.5109C133.675 88.3125 133.437 88.1466 133.196 88.0263C131.111 86.9802 128.929 86.4752 126.598 86.8431C126.091 86.9237 125.607 87.0704 125.134 87.264C122.965 88.1478 121.506 90.0416 121.995 93.1474C122.143 94.0913 122.648 94.85 123.363 95.4609C124.032 96.032 124.798 96.436 125.617 96.721C126.581 97.0553 127.553 97.3571 128.524 97.6709C129.085 97.8525 129.633 98.0605 130.136 98.3803C130.766 98.7807 131.045 99.3495 130.941 100.106C130.842 100.821 130.401 101.253 129.773 101.477C129.06 101.73 128.32 101.77 127.569 101.662C126.274 101.474 125.061 101.045 123.921 100.396C123.647 100.239 123.387 100.053 123.102 99.929C122.405 99.626 121.631 99.8593 121.222 100.467C120.794 101.101 120.902 102.001 121.486 102.535C121.658 102.693 121.862 102.821 122.063 102.945C124.391 104.38 126.91 104.932 129.609 104.636C130.315 104.56 130.985 104.339 131.647 104.089C132.032 103.944 132.16 104.012 132.359 104.431C132.455 104.633 132.454 104.796 132.218 104.914C131.47 105.285 130.676 105.495 129.857 105.598C129.314 105.662 128.763 105.675 128.217 105.714Z" fill="#F9F8F4"/>
<path d="M101.129 103.982C100.211 104.635 99.3132 105.194 98.2593 105.435C96.7433 105.783 95.2331 105.8 93.7276 105.393C91.0413 104.668 89.096 102.38 89.403 98.8594C89.6276 96.2814 90.9919 94.5836 93.383 93.7467C94.965 93.1936 96.5963 93.0577 98.2499 93.2164C98.9486 93.2838 99.6389 93.4413 100.334 93.5579C100.525 93.5904 100.717 93.6505 100.919 93.4846C100.833 92.3976 100.176 91.7819 99.2144 91.4633C98.6557 91.2781 98.07 91.1952 97.476 91.218C96.5351 91.2553 95.6036 91.3611 94.6921 91.6172C94.3898 91.7026 94.0911 91.806 93.7841 91.8589C92.5844 92.0681 91.3754 91.3563 90.9567 90.2116C90.5238 89.0296 90.9367 87.731 91.9752 87.0565C92.2045 86.9074 92.4574 86.7847 92.7138 86.6969C95.5589 85.7254 98.4593 85.5234 101.396 86.1486C102.724 86.4312 103.899 87.0552 104.856 88.0641C105.313 88.545 105.311 88.545 104.781 89.2208C104.642 89.299 104.556 89.1955 104.488 89.1126C103.398 87.7731 101.93 87.1238 100.302 86.923C97.9923 86.638 95.6883 86.7378 93.4513 87.4965C93.1549 87.5975 92.8502 87.6937 92.5809 87.8488C91.8811 88.2553 91.5918 89.0633 91.8505 89.8016C92.1257 90.5916 92.9008 91.0629 93.7241 90.8465C94.5215 90.6372 95.3178 90.4376 96.1352 90.3366C97.1502 90.2116 98.1629 90.1791 99.1708 90.4244C100.959 90.8609 101.929 92.0465 101.977 93.909C101.987 94.2565 102.057 94.622 101.877 94.9491C101.576 95.0393 101.33 94.8685 101.077 94.7868C99.1803 94.1711 97.2514 93.9896 95.279 94.2926C94.3016 94.4429 93.3677 94.7122 92.5209 95.2485C90.7885 96.3427 90.211 98.0237 90.3568 99.9812C90.5403 102.441 92.1046 104.11 94.5898 104.579C95.673 104.784 96.7739 104.769 97.8571 104.518C99.1156 104.226 100.178 103.581 101.053 102.613C101.239 102.408 101.423 102.2 101.621 102.007C101.664 101.965 101.774 101.956 101.834 101.98C101.887 102.001 101.938 102.088 101.945 102.15C101.964 102.308 101.965 102.47 101.958 102.63C101.922 103.437 102.255 104.025 102.967 104.369C103.746 104.745 104.492 104.657 105.176 104.126C105.329 104.007 105.448 103.841 105.581 103.695C105.738 103.525 105.887 103.497 106.071 103.675C106.403 103.996 106.458 104.138 106.295 104.371C105.295 105.796 103.12 106.004 101.818 104.787C101.589 104.573 101.406 104.309 101.129 103.982Z" fill="#F9F8F4"/>
<path d="M122.758 86.4567C122.624 86.0275 122.698 85.5874 122.692 85.1545C122.678 84.1541 122.718 83.1513 122.674 82.1533C122.624 81.029 121.77 80.1849 120.718 80.1368C119.704 80.0899 118.837 80.7801 118.62 81.8527C118.541 82.2398 118.535 82.6463 118.532 83.0443C118.524 85.0054 118.53 86.9665 118.527 88.9289C118.525 89.2343 118.574 89.5517 118.445 89.8355C118.111 89.8355 118.027 89.5842 117.876 89.4243C117.741 89.28 117.621 89.1201 117.49 88.9722C116.577 87.9405 115.498 87.1986 114.158 86.8403C111.559 86.1441 107.823 87.1361 105.955 90.557C105.453 91.4756 105.124 92.4556 104.956 93.4884C104.635 95.452 104.668 97.4035 105.326 99.2937C106.269 102.006 108.053 103.876 110.842 104.516C113.452 105.113 115.737 104.47 117.457 102.243C117.741 101.876 118.021 101.507 118.294 101.151C118.59 101.308 118.509 101.527 118.525 101.707C118.556 102.065 118.535 102.431 118.6 102.782C118.812 103.954 119.69 104.641 120.867 104.578C121.096 104.566 121.312 104.467 121.555 104.574C121.881 104.718 122.2 104.959 122.128 105.077C121.993 105.299 121.755 105.35 121.53 105.422C120.27 105.823 119.217 105.455 118.341 104.497C118.104 104.238 117.929 103.922 117.734 103.644C117.473 103.597 117.373 103.799 117.239 103.921C115.276 105.688 112.97 106.063 110.525 105.458C107.172 104.629 105.126 102.335 104.222 98.9991C103.584 96.64 103.6 94.2327 104.365 91.8976C105.443 88.6066 107.616 86.4748 111.006 85.8098C113.089 85.401 115.059 85.7449 116.826 87.017C116.954 87.1096 117.073 87.2142 117.203 87.302C117.401 87.4355 117.563 87.3357 117.575 87.0699C117.587 86.7898 117.586 86.5096 117.586 86.2295C117.587 85.0691 117.581 83.9076 117.589 82.7473C117.592 82.3889 117.597 82.0234 117.664 81.6735C117.976 80.0599 119.289 79.0546 120.899 79.1713C122.391 79.2795 123.576 80.518 123.636 82.1028C123.678 83.2222 123.655 84.3441 123.645 85.4647C123.64 86.1597 123.628 86.1585 122.758 86.4567Z" fill="#F9F8F4"/>
<path d="M73.8954 87.7464C74.3094 87.3436 74.6858 86.9372 75.1021 86.5813C76.1419 85.6903 77.2945 85.6217 78.5071 86.1676C78.7823 86.2915 78.7882 86.5211 78.5506 86.7147C78.3271 86.8963 78.1048 87.0165 77.8002 86.9227C76.5994 86.5512 75.7631 87.1344 75.0586 88.0398C74.5164 88.736 74.1624 89.5368 73.8166 90.3448C73.652 90.7308 73.5637 91.1637 73.2662 91.4871C72.9933 91.326 73.0886 91.1071 73.0839 90.934C73.0674 90.2138 73.1098 89.4911 73.0568 88.7745C72.9769 87.6923 72.1712 86.8939 71.1668 86.8229C70.0683 86.746 69.192 87.4314 68.9803 88.5604C68.9215 88.8707 68.9227 89.1965 68.9227 89.5151C68.9192 93.6358 68.918 97.7577 68.9239 101.878C68.9239 102.236 68.938 102.602 69.0144 102.949C69.2379 103.947 70.0977 104.627 71.0503 104.602C72.0489 104.575 72.9098 103.787 73.0486 102.744C73.0909 102.429 73.0756 102.106 73.0768 101.786C73.0792 100.266 73.0709 98.7449 73.0815 97.225C73.0898 96.013 73.3015 94.8394 73.7978 93.7296C73.846 93.6214 73.9036 93.5144 73.9707 93.417C74.0107 93.3581 74.0777 93.3196 74.1342 93.2703C74.3388 93.2378 74.2941 93.4182 74.2847 93.5C73.9519 96.3292 74.0295 99.1717 74.0189 102.012C74.0177 102.41 74.0307 102.82 73.9483 103.205C73.6555 104.568 72.4311 105.56 71.0633 105.589C69.733 105.615 68.5369 104.739 68.1288 103.434C67.9971 103.012 67.9453 102.579 67.9453 102.134C67.95 97.8539 67.9488 93.5721 67.9477 89.2915C67.9477 88.4294 68.117 87.6286 68.6651 86.9384C69.8471 85.4498 72.1806 85.4834 73.3062 86.9071C73.5214 87.1764 73.7061 87.4734 73.8954 87.7464Z" fill="#F9F8F4"/>
<path d="M84.7063 85.6699C86.2424 85.6976 88.1407 86.2086 89.7849 87.5192C90.3306 87.9533 90.3647 88.0796 90.153 88.7457C90.0848 88.9597 89.9319 88.9345 89.7873 88.8407C89.6896 88.777 89.6108 88.6832 89.5238 88.6026C86.0259 85.3633 78.8279 85.8359 76.398 92.1149C75.5324 94.3514 75.4748 96.6612 76.2287 98.9362C77.2907 102.142 79.5536 103.995 82.7716 104.627C85.0356 105.072 87.2139 104.765 89.2627 103.64C89.7132 103.392 89.7649 103.414 90.0437 103.772C90.2495 104.038 90.2413 104.187 89.9684 104.349C89.6308 104.55 89.2886 104.751 88.9287 104.904C85.9895 106.157 83.0385 106.143 80.1546 104.787C77.3766 103.48 75.6947 101.199 75.0196 98.169C74.5479 96.0516 74.7008 93.951 75.4336 91.9069C76.8085 88.0687 80.1911 85.6651 84.7063 85.6699Z" fill="#F9F8F4"/>
<path d="M46.079 91.5343C45.7803 91.4056 45.5627 91.3178 45.3498 91.2192C44.3172 90.7407 43.7773 89.8834 43.762 88.7615C43.7467 87.6336 44.2889 86.7763 45.3004 86.2689C45.4392 86.1992 45.5909 86.1523 45.7403 86.109C45.9602 86.0453 46.059 85.8841 46.0661 85.6713C46.0802 85.1915 46.0579 84.7106 46.0873 84.232C46.172 82.8829 46.7588 81.8608 48.0197 81.3378C49.8568 80.5767 51.8904 81.7983 52.1362 83.8064C52.1844 84.2007 52.1632 84.6048 52.1726 85.0052C52.1821 85.4332 52.1444 85.824 52.5478 86.1799C52.8877 86.4793 52.6172 86.9795 52.1644 86.9976C51.9692 87.0048 51.7728 87.0012 51.5787 86.9807C51.3576 86.9579 51.2235 86.8196 51.22 86.5899C51.2117 85.8697 51.2117 85.1495 51.2094 84.4304C51.2082 84.0685 51.18 83.7174 51.0259 83.3783C50.6625 82.5823 49.8803 82.058 49.0688 82.0929C48.1973 82.129 47.4198 82.7446 47.1787 83.6308C47.0964 83.9338 47.0694 84.2597 47.0576 84.5759C47.0388 85.0953 47.0576 85.616 47.0505 86.1354C47.0399 86.8857 47.0364 86.8869 46.3084 87.024C46.039 87.0745 45.7709 87.1118 45.5333 87.2753C44.9641 87.6673 44.6806 88.2144 44.7382 88.9046C44.8006 89.6489 45.3334 90.2212 46.0496 90.4305C46.3448 90.5158 46.7165 90.3355 46.9329 90.6108C47.1681 90.9102 47.0458 91.3058 47.047 91.6581C47.0552 94.2181 47.0423 96.778 47.0576 99.338C47.0611 99.9752 47.1093 100.619 47.2023 101.249C47.4951 103.239 48.6548 104.375 50.6143 104.624C51.354 104.718 52.0997 104.71 52.8419 104.649C53.1312 104.625 53.3935 104.661 53.5676 104.926C53.6499 105.051 53.764 105.196 53.7604 105.33C53.7557 105.508 53.564 105.551 53.4076 105.57C52.3538 105.698 51.2929 105.731 50.2461 105.559C48.0032 105.193 46.6424 103.768 46.2543 101.452C46.1355 100.741 46.0743 100.026 46.0767 99.3031C46.0849 97.1436 46.079 94.9828 46.079 92.8233C46.079 92.4217 46.079 92.0237 46.079 91.5343Z" fill="#F9F8F4"/>
<path d="M118.658 95.705C118.59 96.8473 118.384 97.9343 117.801 98.9202C115.958 102.035 111.666 102.115 109.816 99.0068C108.535 96.8557 108.523 94.5735 109.79 92.408C111.623 89.2745 115.891 89.3033 117.773 92.4056C118.389 93.4204 118.602 94.5459 118.658 95.705Z" fill="#F9F8F4"/>
<path d="M84.094 94.7576C82.8461 94.7576 81.5982 94.7648 80.3503 94.7552C79.7481 94.7504 79.7105 94.6794 79.8246 94.0361C79.9869 93.1223 80.2915 92.2698 80.8431 91.5219C82.5756 89.1711 86.0558 89.2962 87.6083 91.7696C88.0799 92.5199 88.3434 93.3483 88.4104 94.2393C88.4386 94.6205 88.3398 94.7443 87.9552 94.7504C87.059 94.7636 86.1616 94.7576 85.2642 94.7588C84.8737 94.76 84.4844 94.7588 84.094 94.7588C84.094 94.7588 84.094 94.7588 84.094 94.7576Z" fill="#F9F8F4"/>
<path d="M97.3805 102.083C97.0899 102.072 96.5501 102.046 96.0267 101.843C95.0164 101.451 94.4166 100.718 94.3131 99.6296C94.2131 98.5667 94.5742 97.6685 95.4527 97.0348C95.8385 96.7559 96.2713 96.5767 96.7336 96.4697C98.3872 96.0849 99.9844 96.3074 101.551 96.9206C101.89 97.0529 102.057 97.2621 102.045 97.63C102.034 97.9487 102.043 98.2685 102.03 98.586C101.98 99.798 101.409 100.699 100.425 101.343C99.5751 101.901 98.6307 102.096 97.3805 102.083Z" fill="#F9F8F4"/>
<path d="M84.4727 97.0065C85.8417 97.0065 87.2096 97.0041 88.5786 97.0089C88.7703 97.0101 88.9926 97.0209 89.0008 97.2914C89.0102 97.5872 88.7985 97.9215 88.5927 97.9407C88.321 97.9672 88.047 97.9672 87.7729 97.9672C85.8182 97.9696 83.8622 97.9684 81.9075 97.9684C81.7511 97.9684 81.5946 97.9672 81.4382 97.9756C81.1406 97.9912 81.0301 98.1704 81.1489 98.4458C81.664 99.6434 82.5802 100.334 83.8199 100.533C85.1313 100.745 86.3921 100.551 87.5436 99.8249C87.7094 99.7203 87.8682 99.6025 88.0352 99.4991C88.194 99.4005 88.3292 99.2297 88.5492 99.2886C88.7009 99.3295 88.7715 99.7768 88.6856 100.059C88.6233 100.265 88.4821 100.396 88.3175 100.504C86.6038 101.637 84.7514 101.923 82.8249 101.269C81.0595 100.669 80.1586 99.2754 79.8504 97.4477C79.801 97.1532 79.9233 97.0137 80.2479 97.0125C81.6558 97.0041 83.0636 97.0089 84.4703 97.0089C84.4727 97.0089 84.4727 97.0077 84.4727 97.0065Z" fill="#F9F8F4"/>
<path d="M135.787 99.3586L135.777 99.3586C134.311 99.3624 133.092 100.586 133.102 102.114C133.114 103.898 134.591 104.886 135.777 104.901L135.787 99.3586ZM135.787 99.3586L135.796 99.3584M135.787 99.3586L135.796 99.3584M135.796 99.3584C137.238 99.3183 138.472 100.602 138.49 102.078V102.078M135.796 99.3584L138.49 102.078M138.49 102.078C138.512 103.747 137.093 104.918 135.777 104.901L138.49 102.078Z" stroke="#F9F8F4" stroke-width="1.5"/>
<path d="M51.2117 95.0498C51.2117 93.6911 51.2059 92.3311 51.2153 90.9724C51.2176 90.5804 51.3246 90.4926 51.7104 90.477C51.8668 90.471 52.0233 90.4806 52.1797 90.4734C52.6713 90.4505 52.8736 90.9628 52.5443 91.2874C52.1632 91.6638 52.1797 92.0365 52.1785 92.4586C52.1726 94.457 52.1785 96.4554 52.1738 98.4538C52.1726 98.9781 52.1668 99.4927 52.5396 99.9244C52.7078 100.118 52.6678 100.374 52.656 100.613C52.6443 100.867 52.489 100.958 52.2679 100.865C51.8445 100.684 51.5834 100.36 51.4011 99.94C51.22 99.524 51.207 99.0887 51.207 98.6474C51.207 97.4486 51.207 96.2486 51.207 95.0498C51.2082 95.0498 51.2094 95.0498 51.2117 95.0498Z" fill="#F9F8F4"/>
<path d="M109.879 95.6921C109.893 94.7302 110.048 93.8295 110.53 93.0215C111.28 91.7674 112.357 91.0772 113.823 91.0941C115.29 91.1121 116.381 91.8131 117.049 93.1177C117.901 94.7819 117.925 96.5133 117.086 98.1859C115.734 100.884 112.283 101.038 110.647 98.5106C110.085 97.6436 109.894 96.6793 109.879 95.6921Z" fill="#101010"/>
<path d="M80.9688 93.7898C81.4451 91.6327 82.8565 90.6082 84.7465 90.9089C86.0015 91.1085 87.0177 92.1317 87.2529 93.4363C87.287 93.6239 87.2058 93.7357 87.0306 93.7814C86.993 93.791 86.953 93.7898 86.9142 93.7898C84.9606 93.7898 83.007 93.7898 80.9688 93.7898Z" fill="black"/>
<path d="M97.5434 101.112C97.1471 101.077 96.6872 101.048 96.2403 100.852C95.0477 100.33 94.9971 98.7203 95.8757 97.9616C96.1791 97.6994 96.5355 97.5383 96.9213 97.4421C98.175 97.1259 99.4041 97.269 100.626 97.6345C100.939 97.7283 101.066 97.9074 101.077 98.2333C101.11 99.2469 100.694 100.008 99.8628 100.541C99.1759 100.98 98.4067 101.099 97.5434 101.112Z" fill="black"/>
</g>
<defs>
<clipPath id="clip0">
<rect width="95.4782" height="26.6636" fill="white" transform="translate(43.7617 79.1602)"/>
</clipPath>
</defs>
</svg>
