<svg width="183" height="184" viewBox="0 0 183 184" fill="none" xmlns="http://www.w3.org/2000/svg">
<rect y="-0.000244141" width="183" height="183.979" rx="3" fill="#090909"/>
<path d="M91.4132 81.7059C86.7602 81.7059 84.2988 79.2848 83.053 77.2527C81.7119 75.0653 81.4698 72.9082 81.4598 72.8173L81.4585 72.7832V58.6598H101.369L101.368 72.5091C101.358 72.6026 101.117 74.8329 99.7772 77.0961C98.5302 79.1989 96.0688 81.7059 91.4132 81.7059ZM82.0845 72.7668C82.1084 72.9613 82.3806 74.9681 83.5975 76.9421C85.2886 79.6852 87.9181 81.0757 91.412 81.0757C94.9058 81.0757 97.5341 79.6346 99.2252 76.7918C100.446 74.7408 100.717 72.6544 100.739 72.4599V59.2912H82.0845V72.7668Z" fill="#F9F8F4"/>
<path d="M91.7276 58.9761H91.1003V81.3907H91.7276V58.9761Z" fill="#F9F8F4"/>
<path d="M101.05 67.9574L81.7677 68.2078L81.7758 68.8392L101.058 68.5888L101.05 67.9574Z" fill="#F9F8F4"/>
<path d="M91.5268 74.5313L82.3082 74.6578L82.3168 75.2892L91.5355 75.1627L91.5268 74.5313Z" fill="#F9F8F4"/>
<path d="M94.7084 68.2521L94.0811 68.2581L94.2046 80.9242L94.8319 80.9181L94.7084 68.2521Z" fill="#F9F8F4"/>
<path d="M98.1382 68.2536L97.511 68.2572L97.5726 78.9972L98.1999 78.9936L98.1382 68.2536Z" fill="#F9F8F4"/>
<path d="M91.5253 77.7148L84.1163 77.8514L84.1279 78.4827L91.5369 78.3462L91.5253 77.7148Z" fill="#F9F8F4"/>
<path d="M89.6283 66.4385C89.6283 66.4385 88.8166 66.2806 88.3211 66.0255C88.3211 66.0255 87.7691 66.5547 86.5258 66.5029C86.4292 66.4991 86.369 66.3917 86.4217 66.3109C86.5371 66.1366 86.8746 65.8916 87.8506 65.8373C87.8506 65.8373 87.6712 65.754 87.3601 65.5178C87.3601 65.5178 86.2549 65.999 85.462 65.7653C85.3767 65.7401 85.3441 65.6327 85.4018 65.5633C85.5498 65.3877 85.9412 65.1351 86.9461 65.2526C86.9461 65.2526 86.7516 65.1162 86.428 64.7929C86.428 64.7929 85.2839 65.0682 84.7005 64.8307C84.6064 64.7929 84.5976 64.6577 84.6854 64.6059C84.905 64.4771 85.3742 64.3243 86.2197 64.5592C86.2197 64.5592 85.9826 64.3748 85.8873 64.049C85.8873 64.049 84.4797 64.15 84.0946 63.8962C84.0168 63.8457 84.0218 63.7282 84.1033 63.6815C84.2953 63.5729 84.7795 63.4238 85.7756 63.7585C85.7756 63.7585 85.6088 63.5198 85.5109 63.3039C85.5109 63.3039 84.3003 63.295 83.8876 62.9199C83.8148 62.8542 83.8386 62.7343 83.9315 62.704C84.1623 62.6282 84.6641 62.5777 85.4771 63.0538C85.4771 63.0538 84.8385 61.5067 85.1321 60.9459C85.1722 60.8702 85.2776 60.8588 85.334 60.922C85.5021 61.1089 85.7857 61.633 85.6238 62.9692C85.6238 62.9692 85.886 61.8704 86.4882 61.5938C86.5785 61.5522 86.6801 61.6279 86.6651 61.7277C86.6262 61.9954 86.4543 62.5246 85.748 63.1624C85.748 63.1624 85.9964 63.7977 86.1884 63.9631C86.1884 63.9631 86.2498 63.0071 86.9022 62.6156C86.9963 62.5587 87.113 62.6471 87.0866 62.7557C87.0051 63.0929 86.8018 63.7105 86.3464 64.1677C86.3464 64.1677 86.6701 64.6868 87.0113 64.8547C87.0113 64.8547 86.9862 63.78 87.4918 63.367C87.5734 63.3013 87.6951 63.3657 87.6925 63.4706C87.685 63.8128 87.611 64.491 87.1744 64.9911C87.1744 64.9911 87.5809 65.4483 87.8318 65.4963C87.8318 65.4963 87.9033 64.3571 88.4754 64.0225C88.5619 63.9719 88.6698 64.0465 88.6585 64.1462C88.6297 64.4152 88.5105 64.9394 88.0513 65.615C88.0501 65.6163 89.4363 66.4827 89.6283 66.4385Z" fill="#F9F8F4"/>
<path d="M84.9345 70.285V71.5441H85.5015C85.6069 71.5416 85.6947 71.505 85.7637 71.4355C85.8327 71.366 85.8666 71.2776 85.8666 71.1715V71.1324H85.9092V72.1314H85.8666V72.0973C85.8666 71.9912 85.8327 71.9028 85.7662 71.8333C85.6985 71.7639 85.6132 71.7285 85.5103 71.7247H84.9345V72.8108C84.9345 72.8853 84.9621 72.9498 85.016 73.0028C85.0699 73.0558 85.1352 73.0824 85.2092 73.0824H85.2606L85.2644 73.1253H83.9572V73.0824H84.0136C84.0877 73.0824 84.1516 73.0558 84.2043 73.0028C84.257 72.9498 84.2859 72.8853 84.2884 72.8108V70.4024C84.2884 70.3014 84.2407 70.2269 84.1466 70.1776C84.1065 70.1549 84.0626 70.1435 84.0136 70.1435H83.9572V70.1006H85.6031C85.6922 70.1006 85.7888 70.0917 85.8954 70.074C86.0008 70.0564 86.0761 70.0399 86.1187 70.0223V70.7535H86.0761V70.7106C86.0761 70.5843 86.0397 70.482 85.9669 70.4049C85.8942 70.3292 85.7938 70.2887 85.6684 70.2862H84.9345V70.285Z" fill="#F9F8F4"/>
<path d="M88.2692 73.1855C87.7159 73.1843 87.2819 73.0428 86.967 72.7637C86.6521 72.4846 86.494 72.1007 86.494 71.6132C86.494 71.1257 86.6496 70.7418 86.962 70.4601C87.2743 70.1785 87.7021 70.0383 88.2466 70.0383C88.6618 70.0383 89.0194 70.1166 89.3167 70.2719L89.3255 71.0158H89.2916C89.1448 70.4854 88.8111 70.2202 88.2905 70.2202C87.9518 70.2202 87.6846 70.3439 87.4889 70.5902C87.2932 70.8365 87.194 71.1737 87.194 71.6006C87.194 72.0274 87.2881 72.3659 87.4751 72.6172C87.6632 72.8685 87.9167 72.9974 88.2378 73.0062C88.5703 73.0062 88.8237 72.9228 88.9981 72.7549C89.1762 72.5819 89.2991 72.2851 89.3681 71.8632H89.402L89.4447 72.6071C89.2151 72.9948 88.8224 73.1881 88.2692 73.1855Z" fill="#F9F8F4"/>
<path d="M94.9266 61.8237L95.6932 61.9399L95.1349 62.483L95.2629 63.2533L94.5779 62.8858L93.8891 63.2458L94.0246 62.4767L93.4713 61.9286L94.2391 61.82L94.5866 61.1216L94.9266 61.8237Z" fill="#F9F8F4"/>
<path d="M98.0727 61.8237L98.8392 61.9399L98.2809 62.483L98.4089 63.2533L97.7239 62.8858L97.0352 63.2458L97.1694 62.4767L96.6174 61.9286L97.3852 61.82L97.7327 61.1216L98.0727 61.8237Z" fill="#F9F8F4"/>
<path d="M94.9266 64.8547L95.6932 64.9709L95.1349 65.514L95.2629 66.2844L94.5779 65.9169L93.8891 66.2768L94.0246 65.5077L93.4713 64.9596L94.2391 64.8509L94.5866 64.1525L94.9266 64.8547Z" fill="#F9F8F4"/>
<path d="M98.0727 64.8547L98.8392 64.9709L98.2809 65.514L98.4089 66.2844L97.7239 65.9169L97.0352 66.2768L97.1694 65.5077L96.6174 64.9596L97.3852 64.8509L97.7327 64.1525L98.0727 64.8547Z" fill="#F9F8F4"/>
<path d="M29.2769 90.1457V94.5559H31.2641C31.6354 94.5458 31.9415 94.4195 32.1824 94.177C32.4233 93.9345 32.5437 93.6264 32.5437 93.2525V93.1161H32.6942V96.617H32.5437V96.4958C32.5437 96.122 32.4258 95.8138 32.1899 95.5713C31.9541 95.3288 31.6555 95.2025 31.2942 95.1924H29.2769V98.9964C29.2769 99.2591 29.3722 99.4839 29.5629 99.6708C29.7536 99.8578 29.9794 99.9512 30.2404 99.9512H30.421L30.4361 100.103H25.8596V99.9512H26.0553C26.3162 99.9512 26.5395 99.8578 26.7252 99.6708C26.9109 99.4839 27.0087 99.2591 27.0187 98.9964V90.5549C27.0187 90.2013 26.8531 89.9386 26.522 89.7668C26.3814 89.686 26.2259 89.6456 26.0553 89.6456H25.8596V89.494H31.6254C31.9365 89.494 32.2777 89.4637 32.6491 89.4031C33.0204 89.3425 33.2814 89.2818 33.4319 89.2212V91.7825H33.2814V91.6309C33.2814 91.1864 33.1534 90.8302 32.8975 90.5625C32.6416 90.2947 32.2928 90.1558 31.8512 90.1457H29.2769Z" fill="#F9F8F4"/>
<path d="M39.7404 100.102H34.2757V99.986H34.4149C34.5931 99.986 34.7411 99.9279 34.8616 99.8104C34.982 99.6942 35.0447 99.5503 35.0535 99.3785V93.8191C35.046 93.6486 34.982 93.5034 34.8616 93.3872C34.7411 93.271 34.5931 93.2117 34.4149 93.2117H34.2757V93.0955H38.3592C38.5674 93.0955 38.7958 93.0765 39.0442 93.0374C39.2913 92.9982 39.4657 92.9591 39.566 92.9212V94.7777H39.4506V94.6729C39.4506 94.3306 39.3578 94.0616 39.1721 93.8671C38.9865 93.6726 38.7268 93.5716 38.3943 93.564H36.7233V96.4018H38.0456C38.309 96.3942 38.521 96.3046 38.6841 96.1328C38.8459 95.961 38.9275 95.7438 38.9275 95.4786V95.3965H39.0429V97.8718H38.9275V97.7897C38.9275 97.4235 38.792 97.1595 38.521 96.9954C38.3818 96.9095 38.2275 96.8666 38.0568 96.8666H36.7233V99.6349H38.1158C38.595 99.6273 39.0028 99.477 39.3402 99.1853C39.6777 98.8935 39.9223 98.4831 40.0766 97.9527H40.1808L39.7404 100.102Z" fill="#F9F8F4"/>
<path d="M43.4182 93.5744H43.0469V99.3675C43.0469 99.5545 43.1109 99.7047 43.2388 99.8171C43.3668 99.9295 43.5111 99.9864 43.6742 99.9864H43.8021V100.103H40.6118V99.9864H40.7511C40.9205 99.9864 41.066 99.9283 41.1864 99.8108C41.3069 99.6946 41.3658 99.5507 41.3658 99.3789V93.8194C41.3658 93.6489 41.3056 93.5037 41.1864 93.3875C41.066 93.2713 40.9255 93.212 40.7624 93.212H40.6118V93.0958H44.1735C44.8697 93.0958 45.4531 93.2322 45.9248 93.505C46.4504 93.8081 46.7139 94.3107 46.7139 95.0117C46.7139 95.4638 46.5784 95.8705 46.3074 96.2317C46.0364 96.5941 45.635 96.8139 45.1006 96.8909C45.3088 96.9604 45.5158 97.093 45.7215 97.2875C45.926 97.482 46.0904 97.6802 46.2146 97.8836C46.4617 98.3269 46.7214 98.7348 46.9924 99.1036C47.2634 99.4736 47.4816 99.7123 47.6472 99.8222C47.8141 99.9308 48.0161 99.9851 48.2557 99.9851V100.101H47.2809C46.6386 100.101 46.1456 100.023 45.8018 99.8677C45.4581 99.7123 45.1507 99.4168 44.8798 98.9798C44.462 98.3105 44.2023 97.7813 44.1019 97.391C44.0091 97.1574 43.8987 96.9818 43.7707 96.8657C43.6428 96.7495 43.5211 96.6825 43.4057 96.6674V96.5739H43.6955C44.3528 96.5663 44.7556 96.1774 44.9023 95.4057C44.9337 95.2895 44.9488 95.1885 44.9488 95.1026C44.9488 95.0167 44.945 94.898 44.9375 94.7464C44.9299 94.5949 44.881 94.4231 44.7919 94.2324C44.7029 94.0417 44.5887 93.9041 44.4495 93.8182C44.2098 93.6704 43.9627 93.5921 43.7068 93.5845C43.6227 93.5782 43.5261 93.5744 43.4182 93.5744Z" fill="#F9F8F4"/>
<path d="M53.07 93.0944H56.3293V93.2106H56.1323C55.9542 93.2106 55.8061 93.2649 55.6857 93.3735C55.5653 93.4822 55.5013 93.6223 55.4938 93.7941V98.8976C55.4938 99.3801 55.5251 99.7779 55.5866 100.089L55.6092 100.252H55.505L50.1808 95.5218V99.3877C50.1884 99.5594 50.2523 99.7009 50.3728 99.8145C50.4932 99.9269 50.6412 99.9838 50.8194 99.9838H51.0163V100.1H47.7684V99.9838H47.954C48.1322 99.9838 48.2827 99.9269 48.4069 99.8145C48.5311 99.7021 48.5926 99.5594 48.5926 99.3877V94.2488C48.5926 93.7815 48.5612 93.3963 48.4998 93.0932L48.4759 92.9303L48.5801 92.9416L53.893 97.6473V93.8067C53.893 93.635 53.8328 93.4935 53.7136 93.3799C53.5931 93.2675 53.4451 93.2106 53.267 93.2106H53.07V93.0944Z" fill="#F9F8F4"/>
<path d="M56.8626 99.1435C56.8626 98.6371 56.9743 98.2051 57.1988 97.8477H57.2917C57.2841 97.902 57.2804 97.9525 57.2804 97.9993C57.2804 98.4741 57.4485 98.8909 57.7847 99.2483C58.1209 99.607 58.5913 99.7851 59.1948 99.7851C59.6276 99.7851 59.9625 99.684 60.1984 99.482C60.4342 99.2799 60.5522 99.0538 60.5522 98.805C60.5522 98.5562 60.4844 98.3554 60.3489 98.2039C60.2135 98.0523 59.9914 97.8755 59.6815 97.6722L58.0343 96.6214C57.3381 96.1857 56.9906 95.625 56.9906 94.9392C56.9906 94.8685 56.9943 94.7952 57.0019 94.7169C57.0483 94.1637 57.2603 93.7305 57.6404 93.4148C58.0193 93.0991 58.4659 92.9412 58.9803 92.9412C59.4946 92.9412 60.0378 92.9766 60.6099 93.046H61.2359L61.0741 94.5881H60.9699C60.9699 94.2218 60.8445 93.9339 60.5923 93.7242C60.3414 93.5146 60.0077 93.4085 59.595 93.4085C59.181 93.4085 58.8548 93.4956 58.6152 93.6712C58.3756 93.8467 58.2551 94.0779 58.2551 94.3658C58.2551 94.5994 58.3706 94.8015 58.6026 94.9733C58.6955 95.0427 58.831 95.1324 59.0091 95.2423L60.8533 96.3865C61.4868 96.7755 61.8042 97.3135 61.8042 97.998C61.8042 98.7217 61.5508 99.2786 61.0439 99.6676C60.5371 100.057 59.8823 100.251 59.0781 100.251C58.5826 100.251 58.146 100.193 57.7671 100.076C57.3883 99.9581 57.1098 99.8103 56.9316 99.6323C56.8852 99.4946 56.8626 99.3304 56.8626 99.1435Z" fill="#F9F8F4"/>
<path d="M72.4084 93.2118H72.3269C72.1487 93.2118 71.9794 93.2585 71.8163 93.352C71.6544 93.4454 71.534 93.5818 71.4562 93.7612L69.7388 99.0516C69.6146 99.4254 69.5531 99.7791 69.5531 100.115C69.5531 100.154 69.5531 100.193 69.5531 100.231H69.449L67.1871 95.6303L65.6214 99.0516C65.4433 99.4646 65.3542 99.8574 65.3542 100.231H65.2501L62.7787 93.8079C62.6934 93.6134 62.5717 93.4656 62.4136 93.3646C62.2555 93.2636 62.0824 93.213 61.8967 93.213H61.8039V93.0969H65.0632V93.213H64.9703C64.8235 93.213 64.7157 93.2585 64.6454 93.3469C64.5751 93.4366 64.5413 93.5199 64.5413 93.5982C64.5413 93.6765 64.5563 93.7612 64.5877 93.8546L65.7945 97.0309L67.6274 92.9314H67.7202L69.7501 97.0536L70.6897 93.8534C70.7675 93.5427 70.7048 93.3393 70.504 93.2459C70.4501 93.2219 70.3886 93.2105 70.3184 93.2105H70.2255V93.0943H72.4059V93.2118H72.4084Z" fill="#F9F8F4"/>
<path d="M72.1304 96.5978C72.1304 95.4763 72.503 94.5872 73.2494 93.9292C73.9959 93.2713 74.9894 92.9429 76.2302 92.9429C77.4709 92.9429 78.467 93.2713 79.2172 93.9292C79.9674 94.5872 80.3425 95.4763 80.3425 96.5978C80.3425 97.7193 79.9674 98.6084 79.2172 99.2664C78.467 99.9244 77.4734 100.253 76.2364 100.253C74.9995 100.253 74.0046 99.9244 73.2557 99.2664C72.5055 98.6097 72.1304 97.7193 72.1304 96.5978ZM73.9043 96.5978C73.9043 97.5791 74.115 98.3558 74.5366 98.928C74.9581 99.5001 75.5226 99.7868 76.2302 99.7868C76.9377 99.7868 77.5023 99.5013 77.9238 98.928C78.3453 98.3558 78.5561 97.5791 78.5561 96.5978C78.5561 95.6165 78.3453 94.8398 77.9238 94.2677C77.5023 93.6956 76.9377 93.4089 76.2302 93.4089C75.5226 93.4089 74.9581 93.6956 74.5366 94.2677C74.115 94.8411 73.9043 95.6178 73.9043 96.5978Z" fill="#F9F8F4"/>
<path d="M83.6482 93.5744H83.2769V99.3676C83.2769 99.5545 83.3409 99.7048 83.4688 99.8172C83.5968 99.9296 83.7411 99.9864 83.9042 99.9864H84.0321V100.103H80.8419V99.9864H80.9811C81.1505 99.9864 81.296 99.9283 81.4165 99.8109C81.5369 99.6947 81.5959 99.5507 81.5959 99.3789V93.8194C81.5959 93.6489 81.5356 93.5037 81.4165 93.3875C81.296 93.2713 81.1555 93.212 80.9924 93.212H80.8419V93.0958H84.4035C85.0997 93.0958 85.6831 93.2322 86.1548 93.505C86.6804 93.8081 86.9439 94.3107 86.9439 95.0117C86.9439 95.4638 86.8084 95.8705 86.5374 96.2317C86.2664 96.5941 85.865 96.8139 85.3306 96.8909C85.5388 96.9604 85.7458 97.093 85.9515 97.2875C86.156 97.482 86.3204 97.6803 86.4446 97.8836C86.6917 98.3269 86.9514 98.7348 87.2224 99.1036C87.4933 99.4737 87.7116 99.7124 87.8772 99.8222C88.0441 99.9309 88.2461 99.9852 88.4857 99.9852V100.101H87.5109C86.8686 100.101 86.3756 100.023 86.0318 99.8677C85.6881 99.7124 85.3807 99.4168 85.1098 98.9799C84.692 98.3105 84.4323 97.7813 84.332 97.3911C84.2391 97.1574 84.1287 96.9819 84.0008 96.8657C83.8728 96.7495 83.7511 96.6826 83.6357 96.6674V96.5739H83.9255C84.5829 96.5664 84.9856 96.1774 85.1323 95.4057C85.1637 95.2895 85.1788 95.1885 85.1788 95.1026C85.1788 95.0167 85.175 94.898 85.1675 94.7464C85.1599 94.5949 85.111 94.4231 85.0219 94.2324C84.9329 94.0417 84.8187 93.9041 84.6795 93.8182C84.4398 93.6704 84.1927 93.5921 83.9368 93.5845C83.8527 93.5782 83.7561 93.5744 83.6482 93.5744Z" fill="#F9F8F4"/>
<path d="M94.2409 94.7527V94.6479C94.2409 94.3132 94.148 94.048 93.9624 93.8535C93.7767 93.659 93.5183 93.558 93.1846 93.5504H91.8385V99.3776C91.846 99.5494 91.9112 99.6934 92.0354 99.8095C92.1596 99.9257 92.3064 99.9851 92.4758 99.9851H92.6037V100.101H89.4022V99.9851H89.5176C89.6957 99.9851 89.8463 99.927 89.9705 99.8095C90.0947 99.6934 90.1561 99.5443 90.1561 99.3663V93.5504H88.8226C88.4826 93.558 88.2192 93.659 88.0335 93.8535C87.8478 94.048 87.755 94.3132 87.755 94.6479V94.7527H87.6396V92.9076C87.7474 92.9467 87.9281 92.9859 88.179 93.0238C88.4299 93.0629 88.657 93.0819 88.8577 93.0819H93.1382C93.4781 93.0819 93.7591 93.0566 93.9787 93.0061C94.1995 92.9556 94.3249 92.9227 94.3563 92.9063V94.7515H94.2409V94.7527Z" fill="#F9F8F4"/>
<path d="M102.535 99.9851H102.663V100.101H99.4726V99.9851H99.588C99.7662 99.9851 99.9167 99.927 100.041 99.8096C100.165 99.6934 100.227 99.5444 100.227 99.3663V96.8442H97.1755V99.3663C97.1831 99.5456 97.2483 99.6934 97.3725 99.8096C97.4967 99.9258 97.6435 99.9851 97.8129 99.9851H97.9408V100.101H94.7393V99.9851H94.8672C95.0454 99.9851 95.1959 99.9245 95.3201 99.8045C95.4443 99.6833 95.5058 99.538 95.5058 99.3663V93.8308C95.5058 93.659 95.4443 93.5138 95.3201 93.3926C95.1959 93.2713 95.0454 93.212 94.8672 93.212H94.7393V93.0958H97.9408V93.212H97.8129C97.6422 93.212 97.4955 93.2701 97.3725 93.3875C97.2483 93.5037 97.1831 93.6489 97.1755 93.8194V96.3769H100.227V93.8308C100.227 93.5896 100.122 93.4102 99.9129 93.2941C99.8126 93.2398 99.7034 93.212 99.588 93.212H99.4726V93.0958H102.663V93.212H102.535C102.364 93.212 102.218 93.2701 102.095 93.3875C101.97 93.5037 101.905 93.6527 101.898 93.8308V99.3776C101.905 99.6189 102.009 99.7944 102.211 99.903C102.31 99.9586 102.418 99.9851 102.535 99.9851Z" fill="#F9F8F4"/>
<path d="M112.376 100.307C110.439 100.302 108.918 99.8097 107.814 98.8297C106.71 97.8496 106.158 96.5058 106.158 94.7983C106.158 93.0908 106.705 91.7445 107.799 90.7594C108.893 89.7743 110.393 89.2818 112.3 89.2818C113.755 89.2818 115.005 89.5546 116.049 90.1001L116.079 92.7069H115.958C115.447 90.8478 114.277 89.9183 112.451 89.9183C111.267 89.9183 110.331 90.3502 109.643 91.2141C108.956 92.0779 108.612 93.2575 108.612 94.7529C108.612 96.2482 108.941 97.4354 109.598 98.3144C110.255 99.1934 111.146 99.6481 112.27 99.6784C113.434 99.6784 114.323 99.3854 114.935 98.7993C115.557 98.1931 115.989 97.1525 116.229 95.6773H116.35L116.5 98.2841C115.687 99.6379 114.313 100.311 112.376 100.307Z" fill="#F9F8F4"/>
<path d="M117.328 96.5978C117.328 95.4763 117.7 94.5872 118.447 93.9292C119.193 93.2713 120.187 92.9429 121.427 92.9429C122.668 92.9429 123.664 93.2713 124.414 93.9292C125.165 94.5872 125.54 95.4763 125.54 96.5978C125.54 97.7193 125.165 98.6084 124.414 99.2664C123.664 99.9244 122.671 100.253 121.434 100.253C120.197 100.253 119.202 99.9244 118.453 99.2664C117.703 98.6097 117.328 97.7193 117.328 96.5978ZM119.103 96.5978C119.103 97.5791 119.313 98.3558 119.735 98.928C120.156 99.5001 120.721 99.7868 121.429 99.7868C122.136 99.7868 122.701 99.5013 123.122 98.928C123.544 98.3558 123.754 97.5791 123.754 96.5978C123.754 95.6165 123.544 94.8398 123.122 94.2677C122.701 93.6956 122.136 93.4089 121.429 93.4089C120.721 93.4089 120.156 93.6956 119.735 94.2677C119.313 94.8411 119.103 95.6178 119.103 96.5978Z" fill="#F9F8F4"/>
<path d="M133.605 93.212H133.444C133.297 93.212 133.173 93.2574 133.072 93.3458C132.972 93.4355 132.918 93.5504 132.91 93.6906V97.5565C132.91 98.3976 132.654 99.0568 132.145 99.5355C131.635 100.014 130.874 100.254 129.866 100.254C128.857 100.254 128.072 100.02 127.511 99.5532C126.95 99.0859 126.67 98.4279 126.67 97.5792V93.702C126.67 93.5618 126.618 93.4444 126.514 93.3522C126.409 93.2587 126.284 93.212 126.136 93.212H125.972V93.0958H129.023V93.212H128.861C128.714 93.212 128.59 93.2587 128.489 93.3522C128.389 93.4456 128.339 93.5618 128.339 93.702V97.4971C128.339 98.2132 128.503 98.7739 128.832 99.1794C129.161 99.5848 129.622 99.7868 130.218 99.7868C130.814 99.7868 131.283 99.5961 131.627 99.2147C131.971 98.8333 132.144 98.3041 132.144 97.6259V93.702C132.136 93.5542 132.082 93.4355 131.982 93.3458C131.882 93.2562 131.757 93.212 131.611 93.212H131.46V93.0958H133.607V93.212H133.605Z" fill="#F9F8F4"/>
<path d="M139.067 93.0944H142.327V93.2106H142.13C141.951 93.2106 141.803 93.2649 141.683 93.3735C141.563 93.4822 141.499 93.6223 141.491 93.7941V98.8976C141.491 99.3801 141.522 99.7779 141.584 100.089L141.606 100.252H141.502L136.178 95.5218V99.3877C136.186 99.5594 136.25 99.7009 136.37 99.8145C136.49 99.9269 136.638 99.9838 136.817 99.9838H137.014V100.1H133.766V99.9838H133.951C134.129 99.9838 134.28 99.9269 134.404 99.8145C134.528 99.7021 134.59 99.5594 134.59 99.3877V94.2488C134.59 93.7815 134.558 93.3963 134.497 93.0932L134.473 92.9303L134.577 92.9416L139.89 97.6473V93.8067C139.89 93.635 139.83 93.4935 139.711 93.3799C139.59 93.2675 139.442 93.2106 139.264 93.2106H139.067V93.0944Z" fill="#F9F8F4"/>
<path d="M149.043 94.7527V94.6479C149.043 94.3132 148.95 94.048 148.764 93.8535C148.579 93.659 148.32 93.558 147.987 93.5504H146.641V99.3776C146.648 99.5494 146.713 99.6934 146.838 99.8095C146.962 99.9257 147.109 99.9851 147.278 99.9851H147.406V100.101H144.204V99.9851H144.32C144.498 99.9851 144.648 99.927 144.773 99.8095C144.897 99.6934 144.958 99.5443 144.958 99.3663V93.5504H143.625C143.285 93.558 143.021 93.659 142.836 93.8535C142.65 94.048 142.557 94.3132 142.557 94.6479V94.7527H142.442V92.9076C142.55 92.9467 142.73 92.9859 142.981 93.0238C143.232 93.0629 143.459 93.0819 143.66 93.0819H147.94C148.28 93.0819 148.561 93.0566 148.781 93.0061C149.002 92.9556 149.127 92.9227 149.158 92.9063V94.7515H149.043V94.7527Z" fill="#F9F8F4"/>
<path d="M157.141 93.212H156.99C156.789 93.212 156.597 93.2663 156.415 93.3749C156.234 93.4835 156.086 93.6199 155.969 93.7841L153.904 96.9844V99.3663C153.911 99.538 153.978 99.6833 154.101 99.8045C154.225 99.9258 154.379 99.9851 154.565 99.9851H154.693V100.101H151.445V99.9851H151.584C151.762 99.9851 151.913 99.9245 152.037 99.8045C152.161 99.6833 152.227 99.538 152.234 99.3663V96.9844L150.18 93.7841C150.073 93.6136 149.927 93.4747 149.745 93.3698C149.563 93.265 149.369 93.212 149.159 93.212H149.02V93.0958H152.547V93.212H152.419C152.272 93.212 152.165 93.2612 152.1 93.3585C152.035 93.4557 152.001 93.5378 152.001 93.6035C152.001 93.6692 152.016 93.7298 152.047 93.7841L153.59 96.4704L155.156 93.7841C155.179 93.7298 155.191 93.6692 155.191 93.6035C155.191 93.5378 155.158 93.4557 155.092 93.3585C155.027 93.2612 154.92 93.212 154.773 93.212H154.658V93.0958H157.141V93.212Z" fill="#F9F8F4"/>
<path d="M108.81 106.232H73.5587V106.737H108.81V106.232Z" fill="#F9F8F4"/>
<path d="M57.0347 111.697L58.3595 115.082L59.0771 112.553C59.136 112.345 59.1661 112.185 59.1661 112.07C59.1661 111.991 59.1385 111.93 59.0833 111.885C59.0281 111.841 58.9265 111.818 58.776 111.818C58.7509 111.818 58.7246 111.817 58.697 111.815L58.7321 111.697H60.1108L60.0732 111.815C59.9302 111.812 59.8235 111.827 59.7533 111.859C59.6542 111.903 59.5801 111.961 59.5312 112.031C59.4635 112.13 59.3957 112.305 59.3255 112.552L58.3168 116.112H58.2027L56.7763 112.47L56.0135 115.16C55.9571 115.363 55.9282 115.52 55.9282 115.629C55.9282 115.71 55.9546 115.77 56.006 115.812C56.0574 115.853 56.1804 115.881 56.3748 115.896L56.3435 116.014H54.9961L55.04 115.896C55.2081 115.893 55.321 115.877 55.3787 115.852C55.4653 115.814 55.5293 115.764 55.5719 115.703C55.6334 115.61 55.7011 115.429 55.7777 115.161L56.6282 112.159C56.5454 112.032 56.4576 111.945 56.3648 111.897C56.2707 111.849 56.1252 111.822 55.927 111.816L55.9621 111.698H57.0347V111.697Z" fill="#F9F8F4"/>
<path d="M62.5378 113.134L61.9206 115.292L61.8516 115.581C61.8453 115.609 61.8415 115.632 61.8415 115.651C61.8415 115.685 61.8516 115.714 61.8729 115.74C61.8892 115.759 61.9105 115.77 61.9356 115.77C61.9632 115.77 61.9984 115.753 62.0435 115.719C62.1263 115.657 62.2355 115.53 62.3722 115.336L62.4801 115.413C62.3346 115.634 62.1853 115.802 62.031 115.919C61.8767 116.035 61.7349 116.092 61.6044 116.092C61.5141 116.092 61.4464 116.069 61.3999 116.023C61.3548 115.978 61.3322 115.911 61.3322 115.824C61.3322 115.72 61.3548 115.583 61.4012 115.413L61.4677 115.175C61.1917 115.537 60.937 115.791 60.7049 115.936C60.5381 116.04 60.375 116.093 60.2144 116.093C60.0601 116.093 59.9271 116.028 59.8155 115.9C59.7038 115.771 59.6474 115.594 59.6474 115.369C59.6474 115.032 59.7477 114.676 59.9497 114.301C60.1504 113.926 60.4064 113.626 60.7162 113.402C60.9584 113.223 61.1879 113.134 61.4025 113.134C61.5317 113.134 61.6383 113.168 61.7236 113.236C61.8089 113.304 61.8742 113.417 61.9181 113.573L62.0322 113.211L62.5378 113.134ZM61.4125 113.299C61.277 113.299 61.134 113.362 60.9822 113.49C60.7677 113.671 60.5757 113.938 60.4076 114.292C60.2395 114.646 60.1567 114.966 60.1567 115.253C60.1567 115.397 60.1931 115.512 60.2646 115.595C60.3361 115.679 60.4189 115.722 60.5117 115.722C60.7413 115.722 60.991 115.551 61.2607 115.209C61.6207 114.754 61.8014 114.288 61.8014 113.811C61.8014 113.63 61.7663 113.5 61.6973 113.419C61.6283 113.338 61.5329 113.299 61.4125 113.299Z" fill="#F9F8F4"/>
<path d="M64.4209 112.345L64.1738 113.211H64.6706L64.6166 113.412H64.1236L63.5792 115.29C63.5202 115.492 63.4901 115.622 63.4901 115.681C63.4901 115.718 63.4989 115.744 63.5152 115.765C63.5315 115.784 63.5516 115.794 63.5754 115.794C63.6281 115.794 63.6971 115.757 63.7836 115.683C63.8338 115.64 63.9467 115.509 64.1224 115.291L64.2265 115.371C64.032 115.655 63.8489 115.856 63.6757 115.973C63.5578 116.054 63.4386 116.094 63.3182 116.094C63.2254 116.094 63.1501 116.065 63.0899 116.007C63.0309 115.949 63.0008 115.874 63.0008 115.782C63.0008 115.667 63.0347 115.493 63.1024 115.257L63.6306 113.413H63.1526L63.184 113.289C63.4161 113.226 63.6093 113.13 63.7623 113.004C63.9154 112.878 64.0885 112.658 64.2779 112.346H64.4209V112.345Z" fill="#F9F8F4"/>
<path d="M67.5864 113.21L67.0356 115.108C66.9528 115.391 66.9127 115.569 66.9127 115.643C66.9127 115.681 66.919 115.71 66.9328 115.728C66.9466 115.746 66.9654 115.754 66.988 115.754C67.0244 115.754 67.0632 115.738 67.1072 115.705C67.1511 115.672 67.259 115.541 67.4346 115.312L67.5299 115.386C67.3631 115.651 67.1925 115.847 67.0181 115.972C66.9027 116.053 66.7898 116.093 66.6831 116.093C66.6003 116.093 66.5363 116.069 66.4899 116.023C66.4435 115.977 66.4209 115.916 66.4209 115.842C66.4209 115.77 66.4347 115.674 66.4623 115.555C66.4962 115.398 66.5915 115.056 66.7496 114.529C66.3908 115.122 66.091 115.53 65.8501 115.756C65.6092 115.981 65.3847 116.093 65.1776 116.093C65.081 116.093 64.9982 116.059 64.9305 115.991C64.8628 115.922 64.8289 115.837 64.8289 115.733C64.8289 115.574 64.8753 115.33 64.9681 115.001L65.2429 114.017C65.3106 113.781 65.3445 113.634 65.3445 113.577C65.3445 113.552 65.3357 113.53 65.3182 113.512C65.3006 113.494 65.2805 113.485 65.2592 113.485C65.2153 113.485 65.1701 113.501 65.1262 113.533C65.0823 113.565 64.9819 113.682 64.8251 113.887L64.7273 113.817C64.8853 113.571 65.0534 113.389 65.2303 113.273C65.3658 113.182 65.49 113.136 65.6029 113.136C65.6807 113.136 65.7447 113.162 65.7949 113.211C65.8438 113.261 65.8689 113.325 65.8689 113.404C65.8689 113.519 65.8263 113.724 65.7422 114.019L65.4449 115.047C65.3621 115.328 65.3219 115.504 65.3219 115.579C65.3219 115.619 65.3357 115.652 65.3621 115.676C65.3884 115.7 65.4235 115.713 65.4675 115.713C65.5365 115.713 65.628 115.677 65.7397 115.608C65.8513 115.539 66.0006 115.382 66.1876 115.142C66.3745 114.902 66.5276 114.675 66.6492 114.464C66.7709 114.253 66.9002 113.917 67.0369 113.456L67.1059 113.213H67.5864V113.21Z" fill="#F9F8F4"/>
<path d="M68.1136 113.312L69.205 113.134L68.7497 114.681C69.1185 114.046 69.4534 113.602 69.7558 113.35C69.9264 113.206 70.0656 113.134 70.1735 113.134C70.2425 113.134 70.2977 113.154 70.3379 113.196C70.378 113.237 70.3981 113.297 70.3981 113.375C70.3981 113.515 70.3617 113.649 70.2902 113.777C70.24 113.873 70.1673 113.919 70.0719 113.919C70.023 113.919 69.9816 113.903 69.9465 113.871C69.9113 113.84 69.89 113.791 69.8812 113.725C69.8775 113.684 69.8674 113.658 69.8524 113.645C69.8361 113.629 69.816 113.62 69.7922 113.62C69.7558 113.62 69.7232 113.629 69.6905 113.645C69.6353 113.676 69.5525 113.758 69.4409 113.894C69.2653 114.102 69.0758 114.372 68.8713 114.702C68.7823 114.843 68.707 115 68.643 115.177C68.554 115.42 68.5038 115.565 68.4912 115.613L68.3896 116.015H67.9054L68.49 114.037C68.5577 113.808 68.5916 113.644 68.5916 113.547C68.5916 113.509 68.5753 113.477 68.5439 113.451C68.5013 113.417 68.4461 113.4 68.3758 113.4C68.3319 113.4 68.2504 113.41 68.1324 113.429L68.1136 113.312Z" fill="#F9F8F4"/>
<path d="M70.828 114.815C70.813 114.921 70.8055 115.009 70.8055 115.079C70.8055 115.268 70.872 115.429 71.0049 115.561C71.1379 115.694 71.2985 115.761 71.4892 115.761C71.641 115.761 71.7865 115.729 71.927 115.667C72.0675 115.604 72.2758 115.466 72.5518 115.252L72.6183 115.344C72.119 115.843 71.6422 116.092 71.1881 116.092C70.8807 116.092 70.6486 115.994 70.4918 115.799C70.3363 115.603 70.2572 115.388 70.2572 115.152C70.2572 114.836 70.3538 114.512 70.5483 114.181C70.7427 113.85 70.9861 113.592 71.2784 113.409C71.572 113.226 71.8731 113.134 72.1829 113.134C72.4062 113.134 72.5718 113.179 72.6797 113.27C72.7876 113.361 72.8416 113.47 72.8416 113.595C72.8416 113.772 72.7726 113.94 72.6333 114.101C72.4501 114.311 72.1804 114.481 71.8241 114.61C71.5883 114.699 71.2558 114.766 70.828 114.815ZM70.8506 114.658C71.163 114.622 71.4164 114.561 71.6134 114.474C71.8731 114.358 72.0675 114.217 72.1967 114.054C72.3259 113.892 72.3912 113.737 72.3912 113.591C72.3912 113.501 72.3636 113.429 72.3071 113.375C72.2507 113.319 72.1716 113.292 72.0688 113.292C71.8542 113.292 71.6259 113.407 71.3838 113.638C71.1417 113.869 70.9635 114.209 70.8506 114.658Z" fill="#F9F8F4"/>
<path d="M74.1989 112.889C74.357 112.819 74.4862 112.727 74.5853 112.615C74.6606 112.53 74.6995 112.449 74.6995 112.372C74.6995 112.332 74.6932 112.295 74.6807 112.264C74.6719 112.247 74.643 112.213 74.5916 112.161C74.5402 112.109 74.5126 112.075 74.5063 112.056C74.4912 112.022 74.4837 111.981 74.4837 111.933C74.4837 111.842 74.5151 111.763 74.5765 111.697C74.6393 111.631 74.712 111.598 74.7961 111.598C74.8827 111.598 74.9592 111.633 75.0257 111.703C75.0922 111.772 75.1248 111.861 75.1248 111.967C75.1248 112.156 75.0508 112.347 74.904 112.54C74.7572 112.733 74.5427 112.882 74.2617 112.988L74.1989 112.889Z" fill="#F9F8F4"/>
<path d="M76.603 113.134L76.4098 114.111H76.2932C76.2831 113.827 76.2229 113.62 76.1125 113.49C76.0034 113.36 75.8666 113.295 75.7048 113.295C75.5743 113.295 75.4702 113.332 75.3937 113.404C75.3171 113.476 75.2782 113.563 75.2782 113.665C75.2782 113.735 75.2933 113.802 75.3247 113.866C75.3548 113.929 75.4225 114.019 75.5254 114.134C75.7989 114.436 75.977 114.662 76.0573 114.815C76.1376 114.968 76.1777 115.112 76.1777 115.248C76.1777 115.469 76.0862 115.665 75.9043 115.835C75.7223 116.006 75.4915 116.092 75.213 116.092C75.0612 116.092 74.8856 116.055 74.6886 115.983C74.6196 115.958 74.5657 115.945 74.5268 115.945C74.4314 115.945 74.3599 115.994 74.3123 116.092H74.1956L74.3888 115.06H74.5055C74.518 115.383 74.5845 115.61 74.7049 115.744C74.8254 115.878 74.9897 115.945 75.198 115.945C75.3585 115.945 75.4852 115.9 75.5793 115.81C75.6734 115.72 75.7198 115.609 75.7198 115.478C75.7198 115.393 75.7035 115.315 75.6697 115.242C75.6107 115.114 75.4865 114.939 75.2983 114.712C75.1101 114.488 74.9884 114.318 74.9345 114.206C74.8806 114.094 74.8542 113.981 74.8542 113.869C74.8542 113.663 74.9282 113.489 75.0775 113.347C75.2268 113.205 75.4175 113.134 75.6521 113.134C75.7198 113.134 75.7801 113.139 75.8353 113.15C75.8654 113.157 75.9344 113.181 76.0423 113.222C76.1514 113.264 76.2229 113.284 76.2593 113.284C76.3496 113.284 76.4261 113.235 76.4876 113.135H76.603V113.134Z" fill="#F9F8F4"/>
<path d="M81.6136 111.599L81.2875 115.191C81.2712 115.359 81.2624 115.469 81.2624 115.522C81.2624 115.607 81.2787 115.671 81.31 115.716C81.3502 115.778 81.4041 115.824 81.4731 115.853C81.5421 115.883 81.6575 115.897 81.8194 115.897L81.7843 116.014H80.0957L80.1308 115.897H80.2035C80.3403 115.897 80.4519 115.867 80.5385 115.807C80.6 115.767 80.6477 115.7 80.6803 115.607C80.7028 115.541 80.7254 115.386 80.7468 115.142L80.7969 114.594H79.57L79.1334 115.189C79.0343 115.322 78.9716 115.418 78.9465 115.476C78.9214 115.535 78.9089 115.589 78.9089 115.641C78.9089 115.709 78.9365 115.767 78.9917 115.816C79.0469 115.865 79.1372 115.892 79.2639 115.896L79.2288 116.013H77.9604L77.9956 115.896C78.1511 115.889 78.2891 115.836 78.4083 115.738C78.5275 115.639 78.7056 115.428 78.9415 115.106L81.5032 111.598H81.6136V111.599ZM80.9876 112.659L79.7444 114.363H80.8233L80.9876 112.659Z" fill="#F9F8F4"/>
<path d="M84.1028 111.488L83.4793 113.688C83.6813 113.476 83.8581 113.33 84.0087 113.252C84.1592 113.174 84.3173 113.135 84.4816 113.135C84.7137 113.135 84.9032 113.212 85.0512 113.367C85.1992 113.522 85.272 113.732 85.272 113.997C85.272 114.34 85.1754 114.679 84.9809 115.018C84.7865 115.356 84.5431 115.62 84.2508 115.808C83.9572 115.998 83.6687 116.091 83.3839 116.091C83.0653 116.091 82.7391 115.971 82.4029 115.731L83.3639 112.397C83.4379 112.141 83.4743 111.989 83.4743 111.945C83.4743 111.889 83.4579 111.849 83.4241 111.821C83.3751 111.783 83.3036 111.764 83.2096 111.764C83.1656 111.764 83.0979 111.772 83.0076 111.787V111.666L84.1028 111.488ZM82.8784 115.767C83.0891 115.883 83.2748 115.942 83.4354 115.942C83.621 115.942 83.813 115.874 84.0124 115.736C84.2119 115.6 84.385 115.369 84.5306 115.044C84.6761 114.72 84.7501 114.391 84.7501 114.06C84.7501 113.865 84.7024 113.712 84.6058 113.602C84.5092 113.492 84.3963 113.437 84.2659 113.437C84.0702 113.437 83.8782 113.516 83.69 113.674C83.5019 113.832 83.3689 114.053 83.2886 114.334L82.8784 115.767Z" fill="#F9F8F4"/>
<path d="M88.467 114.13C88.467 114.449 88.383 114.764 88.2161 115.076C88.048 115.388 87.8147 115.636 87.5161 115.818C87.2163 116.001 86.9252 116.092 86.643 116.092C86.3544 116.092 86.1186 115.998 85.9367 115.813C85.7548 115.627 85.6632 115.387 85.6632 115.091C85.6632 114.78 85.7522 114.466 85.9304 114.152C86.1085 113.837 86.3469 113.59 86.6455 113.407C86.9441 113.224 87.2326 113.133 87.5098 113.133C87.7884 113.133 88.0179 113.225 88.1973 113.409C88.3767 113.595 88.467 113.835 88.467 114.13ZM87.9427 113.911C87.9427 113.714 87.895 113.562 87.7984 113.457C87.7018 113.352 87.5788 113.299 87.427 113.299C87.1172 113.299 86.8324 113.523 86.5715 113.97C86.3105 114.417 86.1813 114.862 86.1813 115.302C86.1813 115.504 86.2315 115.66 86.3331 115.768C86.4347 115.878 86.5614 115.933 86.7157 115.933C87.013 115.933 87.2916 115.71 87.5525 115.266C87.8122 114.821 87.9427 114.369 87.9427 113.911Z" fill="#F9F8F4"/>
<path d="M92.2134 111.488L91.1258 115.245C91.0668 115.448 91.0367 115.582 91.0367 115.647C91.0367 115.668 91.0455 115.688 91.063 115.707C91.0806 115.726 91.0994 115.736 91.1182 115.736C91.1458 115.736 91.1785 115.722 91.2161 115.695C91.2876 115.644 91.408 115.517 91.5761 115.312L91.684 115.379C91.5322 115.591 91.3792 115.763 91.2236 115.894C91.0681 116.026 90.9238 116.091 90.7883 116.091C90.7168 116.091 90.6578 116.066 90.6114 116.014C90.565 115.962 90.5424 115.892 90.5424 115.798C90.5424 115.677 90.5738 115.515 90.6378 115.311L90.7607 114.915C90.4546 115.39 90.1761 115.72 89.9252 115.902C89.7521 116.027 89.5865 116.09 89.4284 116.09C89.2678 116.09 89.1286 116.018 89.0094 115.875C88.8902 115.733 88.8313 115.537 88.8313 115.291C88.8313 114.975 88.9316 114.636 89.1311 114.278C89.3318 113.919 89.5965 113.627 89.9252 113.402C90.1849 113.222 90.4232 113.132 90.6403 113.132C90.7544 113.132 90.8523 113.155 90.9338 113.202C91.0166 113.248 91.0969 113.325 91.1772 113.434L91.4871 112.326C91.5096 112.248 91.5297 112.185 91.5435 112.138C91.5686 112.054 91.5812 111.983 91.5812 111.929C91.5812 111.884 91.5648 111.847 91.5335 111.818C91.4896 111.781 91.4319 111.763 91.3629 111.763C91.3139 111.763 91.2336 111.771 91.122 111.786V111.668L92.2134 111.488ZM91.0405 113.747C91.0405 113.611 91.0016 113.502 90.9238 113.419C90.846 113.336 90.7469 113.295 90.6265 113.295C90.3605 113.295 90.0845 113.516 89.796 113.957C89.5074 114.398 89.3644 114.821 89.3644 115.224C89.3644 115.383 89.3996 115.504 89.4686 115.589C89.5376 115.673 89.6216 115.715 89.7182 115.715C89.9377 115.715 90.2125 115.476 90.5437 114.999C90.8749 114.521 91.0405 114.105 91.0405 113.747Z" fill="#F9F8F4"/>
<path d="M92.7201 114.815C92.7051 114.921 92.6976 115.009 92.6976 115.079C92.6976 115.268 92.764 115.429 92.897 115.561C93.03 115.694 93.1906 115.761 93.3813 115.761C93.5331 115.761 93.6786 115.729 93.8191 115.667C93.9596 115.604 94.1679 115.466 94.4439 115.252L94.5103 115.344C94.011 115.843 93.5343 116.092 93.0802 116.092C92.7728 116.092 92.5407 115.994 92.3839 115.799C92.2284 115.603 92.1493 115.388 92.1493 115.152C92.1493 114.836 92.2459 114.512 92.4404 114.181C92.6348 113.85 92.8782 113.592 93.1705 113.409C93.4641 113.226 93.7652 113.134 94.075 113.134C94.2983 113.134 94.4639 113.179 94.5718 113.27C94.6797 113.361 94.7337 113.47 94.7337 113.595C94.7337 113.772 94.6647 113.94 94.5254 114.101C94.3422 114.311 94.0725 114.481 93.7162 114.61C93.4804 114.699 93.1479 114.766 92.7201 114.815ZM92.7415 114.658C93.0538 114.622 93.3073 114.561 93.5042 114.474C93.7639 114.358 93.9584 114.217 94.0876 114.054C94.2168 113.892 94.282 113.737 94.282 113.591C94.282 113.501 94.2544 113.429 94.198 113.375C94.1415 113.319 94.0625 113.292 93.9596 113.292C93.7451 113.292 93.5168 113.407 93.2746 113.638C93.0338 113.869 92.8556 114.209 92.7415 114.658Z" fill="#F9F8F4"/>
<path d="M98.3833 114.387L98.2541 114.81H96.6157L96.7449 114.387H98.3833Z" fill="#F9F8F4"/>
<path d="M101.501 115.754C101.591 115.754 101.669 115.722 101.734 115.657C101.798 115.593 101.833 115.514 101.836 115.422V112.49C101.828 112.399 101.803 112.332 101.757 112.29C101.673 112.213 101.587 112.174 101.501 112.174H101.433V112.121H103.436C103.607 112.121 103.749 112.108 103.861 112.082C103.972 112.055 104.04 112.038 104.065 112.026V112.948L104.012 112.943V112.885C104.012 112.668 103.932 112.512 103.771 112.421C103.695 112.376 103.605 112.351 103.499 112.348H102.621V113.88H103.311C103.44 113.876 103.547 113.832 103.63 113.746C103.714 113.66 103.755 113.554 103.755 113.428V113.38H103.808V114.596H103.755V114.555C103.755 114.424 103.714 114.317 103.632 114.234C103.551 114.149 103.447 114.106 103.321 114.102H102.62V115.583H103.305C103.559 115.583 103.773 115.509 103.946 115.362C104.119 115.214 104.247 115.005 104.33 114.735H104.382L104.142 115.81H101.432V115.757H101.501V115.754Z" fill="#F9F8F4"/>
<path d="M104.755 115.377C104.755 115.149 104.805 114.954 104.907 114.793H104.948C104.944 114.817 104.943 114.841 104.943 114.861C104.943 115.075 105.018 115.262 105.17 115.424C105.322 115.586 105.534 115.666 105.806 115.666C106.002 115.666 106.152 115.621 106.259 115.53C106.366 115.439 106.418 115.337 106.418 115.224C106.418 115.112 106.388 115.021 106.327 114.953C106.265 114.885 106.165 114.805 106.026 114.713L105.283 114.239C104.969 114.042 104.812 113.79 104.812 113.482C104.812 113.45 104.814 113.417 104.817 113.382C104.839 113.133 104.934 112.937 105.105 112.795C105.275 112.652 105.477 112.581 105.709 112.581C105.942 112.581 106.186 112.598 106.445 112.629H106.727L106.654 113.324H106.606C106.606 113.158 106.55 113.029 106.436 112.935C106.323 112.84 106.172 112.792 105.985 112.792C105.799 112.792 105.652 112.831 105.544 112.911C105.436 112.99 105.382 113.094 105.382 113.224C105.382 113.329 105.435 113.421 105.539 113.498C105.58 113.53 105.642 113.57 105.722 113.619L106.554 114.136C106.84 114.311 106.983 114.554 106.983 114.862C106.983 115.188 106.869 115.439 106.64 115.615C106.412 115.79 106.116 115.877 105.753 115.877C105.53 115.877 105.333 115.851 105.162 115.798C104.992 115.745 104.866 115.678 104.786 115.598C104.765 115.535 104.755 115.462 104.755 115.377Z" fill="#F9F8F4"/>
<path d="M110.167 113.397V113.349C110.167 113.197 110.126 113.078 110.042 112.991C109.958 112.904 109.841 112.857 109.692 112.855H109.084V115.482C109.088 115.559 109.117 115.624 109.174 115.676C109.229 115.729 109.295 115.756 109.372 115.756H109.429V115.809H107.986V115.756H108.038C108.119 115.756 108.186 115.729 108.243 115.676C108.299 115.623 108.327 115.556 108.327 115.477V112.855H107.726C107.573 112.859 107.454 112.904 107.371 112.991C107.287 113.078 107.245 113.198 107.245 113.349V113.397H107.193V112.564C107.242 112.582 107.323 112.6 107.436 112.617C107.549 112.635 107.652 112.644 107.742 112.644H109.672C109.825 112.644 109.951 112.633 110.05 112.61C110.15 112.587 110.206 112.572 110.221 112.566V113.398H110.167V113.397Z" fill="#F9F8F4"/>
<path d="M113.578 113.069C113.896 113.348 114.054 113.734 114.054 114.229C114.054 114.725 113.894 115.111 113.578 115.39C113.262 115.669 112.822 115.808 112.26 115.808H110.492V115.755H110.56C110.64 115.755 110.708 115.727 110.764 115.671C110.82 115.615 110.85 115.548 110.853 115.471V112.975C110.846 112.898 110.815 112.833 110.759 112.781C110.704 112.729 110.635 112.701 110.555 112.701H110.492V112.648H112.26C112.822 112.65 113.261 112.79 113.578 113.069ZM112.198 115.599C112.526 115.599 112.785 115.477 112.975 115.235C113.164 114.992 113.26 114.658 113.26 114.229C113.26 113.801 113.164 113.465 112.975 113.222C112.785 112.978 112.526 112.855 112.198 112.855H111.607V115.599H112.198Z" fill="#F9F8F4"/>
<path d="M117.266 115.756H117.377V115.809H115.796V115.756H115.906C115.987 115.756 116.056 115.728 116.113 115.671C116.171 115.616 116.2 115.549 116.2 115.472V112.76C116.2 112.546 116.097 112.44 115.891 112.44H115.761V112.387C116.301 112.341 116.69 112.229 116.927 112.049H116.98V115.477C116.98 115.554 117.008 115.62 117.064 115.674C117.118 115.73 117.186 115.756 117.266 115.756Z" fill="#F9F8F4"/>
<path d="M119.124 114.113C119.267 114.113 119.389 114.063 119.491 113.96L119.527 114.008C119.464 114.113 119.377 114.202 119.266 114.271C119.106 114.373 118.935 114.424 118.753 114.424C118.53 114.424 118.328 114.353 118.146 114.213C118.038 114.132 117.95 114.016 117.885 113.863C117.818 113.71 117.786 113.536 117.786 113.339C117.786 112.956 117.904 112.65 118.141 112.417C118.385 112.182 118.73 112.065 119.177 112.065C119.777 112.065 120.187 112.305 120.407 112.786C120.522 113.035 120.58 113.337 120.58 113.689C120.58 114.041 120.531 114.361 120.433 114.645C120.223 115.259 119.837 115.67 119.271 115.878C119.016 115.969 118.734 116.014 118.424 116.014C118.365 116.014 118.304 116.013 118.241 116.009L118.22 115.972C118.704 115.825 119.065 115.606 119.303 115.314C119.505 115.066 119.63 114.726 119.679 114.298C119.7 114.115 119.71 113.902 119.71 113.661C119.71 113.198 119.67 112.858 119.59 112.642C119.51 112.426 119.363 112.319 119.151 112.319C119.015 112.319 118.904 112.364 118.816 112.455C118.665 112.609 118.591 112.869 118.591 113.234C118.591 113.779 118.738 114.068 119.03 114.103C119.062 114.111 119.093 114.113 119.124 114.113Z" fill="#F9F8F4"/>
<path d="M122.413 114.113C122.556 114.113 122.678 114.063 122.78 113.96L122.816 114.008C122.753 114.113 122.666 114.202 122.555 114.271C122.395 114.373 122.224 114.424 122.042 114.424C121.819 114.424 121.617 114.353 121.435 114.213C121.327 114.132 121.239 114.016 121.174 113.863C121.107 113.71 121.075 113.536 121.075 113.339C121.075 112.956 121.193 112.65 121.43 112.417C121.674 112.182 122.019 112.065 122.466 112.065C123.066 112.065 123.476 112.305 123.696 112.786C123.811 113.035 123.869 113.337 123.869 113.689C123.869 114.041 123.82 114.361 123.722 114.645C123.512 115.259 123.126 115.67 122.56 115.878C122.305 115.969 122.023 116.014 121.713 116.014C121.654 116.014 121.593 116.013 121.53 116.009L121.509 115.972C121.993 115.825 122.354 115.606 122.592 115.314C122.794 115.066 122.919 114.726 122.968 114.298C122.989 114.115 122.999 113.902 122.999 113.661C122.999 113.198 122.959 112.858 122.879 112.642C122.799 112.426 122.652 112.319 122.44 112.319C122.304 112.319 122.193 112.364 122.105 112.455C121.954 112.609 121.88 112.869 121.88 113.234C121.88 113.779 122.027 114.068 122.319 114.103C122.351 114.111 122.382 114.113 122.413 114.113Z" fill="#F9F8F4"/>
<path d="M125.803 113.84C125.663 113.84 125.543 113.89 125.441 113.988L125.405 113.947C125.503 113.785 125.647 113.667 125.839 113.594C125.951 113.552 126.057 113.531 126.158 113.531C126.259 113.531 126.352 113.541 126.438 113.56C126.523 113.579 126.609 113.617 126.696 113.674C126.996 113.871 127.145 114.192 127.145 114.637C127.145 114.988 127.028 115.284 126.795 115.521C126.55 115.768 126.207 115.89 125.763 115.89C125.318 115.89 124.972 115.753 124.724 115.477C124.477 115.202 124.353 114.795 124.353 114.258C124.353 113.56 124.544 112.994 124.928 112.564C125.117 112.353 125.35 112.197 125.63 112.095C125.908 111.993 126.208 111.942 126.529 111.942C126.582 111.942 126.636 111.944 126.691 111.947L126.712 111.984C126.224 112.138 125.862 112.359 125.625 112.647C125.423 112.896 125.297 113.237 125.248 113.669C125.231 113.848 125.222 114.061 125.222 114.312C125.222 114.761 125.262 115.095 125.342 115.312C125.423 115.529 125.569 115.638 125.781 115.638C125.917 115.638 126.029 115.592 126.116 115.501C126.266 115.343 126.341 115.082 126.341 114.717C126.341 114.18 126.197 113.892 125.907 113.853C125.873 113.843 125.838 113.84 125.803 113.84Z" fill="#F9F8F4"/>
<path d="M67.7486 121.374C67.7486 121.536 67.716 121.686 67.6508 121.825C67.5303 122.085 67.3196 122.267 67.0172 122.369C66.9118 122.406 66.8203 122.425 66.7437 122.425C66.5179 122.425 66.3235 122.383 66.1591 122.298V122.243C66.4251 122.301 66.671 122.272 66.8955 122.154C67.095 122.052 67.2317 121.883 67.3045 121.649C67.3258 121.576 67.3371 121.507 67.3371 121.441C67.3371 121.375 67.3371 121.335 67.3371 121.32C67.3296 121.063 67.2631 120.859 67.1351 120.707C67.0072 120.556 66.829 120.479 66.6007 120.479H65.9734V123.76C65.9772 123.854 66.0123 123.937 66.0801 124.005C66.1478 124.073 66.2281 124.106 66.3235 124.106H66.395V124.161H65.1994V124.106H65.2709C65.365 124.106 65.4465 124.072 65.5143 124.005C65.582 123.937 65.6172 123.856 65.6209 123.76V120.688C65.6096 120.597 65.572 120.52 65.5068 120.46C65.4415 120.399 65.3625 120.369 65.2722 120.369H65.2069L65.2019 120.314H66.6271C66.9771 120.314 67.2506 120.409 67.4513 120.597C67.6482 120.785 67.7486 121.044 67.7486 121.374Z" fill="#F9F8F4"/>
<path d="M68.3427 124.109C68.4305 124.109 68.5032 124.081 68.5635 124.024C68.6237 123.967 68.655 123.899 68.6588 123.818V121.208C68.6588 121.127 68.6274 121.06 68.566 121.004C68.5045 120.95 68.4292 120.922 68.3427 120.922H68.2661V120.867H69.8607C70.0099 120.867 70.1404 120.855 70.2533 120.834C70.3662 120.813 70.439 120.794 70.4716 120.778V121.405L70.4114 121.4V121.318C70.4114 121.241 70.3863 121.175 70.3349 121.119C70.2834 121.064 70.2182 121.037 70.1379 121.037H69.0026V122.433H69.9359C70.0087 122.433 70.0639 122.411 70.1028 122.367C70.1404 122.323 70.1605 122.269 70.1605 122.202V122.13H70.2207V122.899H70.1605V122.827C70.1605 122.725 70.1228 122.655 70.0463 122.619C70.0175 122.607 69.9861 122.601 69.9535 122.597H69.0038V123.993H69.8607C70.0275 123.993 70.1693 123.964 70.2834 123.904C70.3976 123.845 70.4854 123.775 70.5456 123.696C70.6058 123.615 70.6661 123.509 70.7288 123.378H70.784L70.4842 124.163H68.2674V124.108H68.3427V124.109Z" fill="#F9F8F4"/>
<path d="M74.9155 120.921C74.8352 120.921 74.7662 120.948 74.7085 121.001C74.6508 121.054 74.6195 121.119 74.6157 121.195V123.537C74.6157 123.749 74.6282 123.951 74.6533 124.142L74.6646 124.24H74.6157L71.7767 121.531V123.822C71.7767 123.903 71.8055 123.97 71.8645 124.026C71.9222 124.081 71.9937 124.108 72.0778 124.108H72.1706V124.163H71.1394V124.108H71.2322C71.3163 124.108 71.3865 124.08 71.4455 124.026C71.5032 123.97 71.5333 123.903 71.5333 123.822V121.471C71.5333 121.247 71.5208 121.047 71.4957 120.872L71.4844 120.783L71.5446 120.789L74.3773 123.476V121.195C74.3698 121.118 74.3372 121.054 74.2795 121.001C74.2218 120.948 74.1515 120.921 74.0725 120.921H73.9796V120.866H75.0109V120.921H74.9155Z" fill="#F9F8F4"/>
<path d="M79.1152 120.921C79.035 120.921 78.9659 120.948 78.9082 121.001C78.8505 121.054 78.8192 121.119 78.8154 121.195V123.537C78.8154 123.749 78.828 123.951 78.853 124.142L78.8643 124.24H78.8154L75.9764 121.531V123.822C75.9764 123.903 76.0052 123.97 76.0642 124.026C76.1219 124.081 76.1934 124.108 76.2775 124.108H76.3703V124.163H75.3391V124.108H75.4319C75.516 124.108 75.5862 124.08 75.6452 124.026C75.7029 123.97 75.733 123.903 75.733 123.822V121.471C75.733 121.247 75.7205 121.047 75.6954 120.872L75.6841 120.783L75.7443 120.789L78.577 123.476V121.195C78.5695 121.118 78.5369 121.054 78.4792 121.001C78.4215 120.948 78.3512 120.921 78.2722 120.921H78.1794V120.866H79.2106V120.921H79.1152Z" fill="#F9F8F4"/>
<path d="M79.7152 123.982C79.7039 123.938 79.6989 123.848 79.6989 123.713C79.6989 123.578 79.7228 123.44 79.7704 123.301H79.8357C79.8319 123.334 79.8306 123.367 79.8306 123.4C79.8306 123.598 79.8946 123.76 80.0238 123.886C80.1531 124.012 80.3325 124.075 80.562 124.075C80.8016 124.075 80.9898 124.02 81.1241 123.907C81.2583 123.796 81.326 123.651 81.326 123.473C81.326 123.295 81.2608 123.148 81.1291 123.031L80.0376 122.185C79.8633 122.035 79.7754 121.832 79.7754 121.58C79.7754 121.437 79.8143 121.305 79.8934 121.185C79.9711 121.063 80.0803 120.967 80.2208 120.895C80.3613 120.823 80.5256 120.788 80.7151 120.788C80.9045 120.788 81.0714 120.804 81.2169 120.837H81.3975L81.4088 121.436H81.3486C81.3486 121.282 81.2959 121.163 81.1905 121.078C81.0852 120.994 80.9346 120.952 80.7377 120.952C80.5407 120.952 80.3789 121.003 80.2522 121.104C80.1242 121.205 80.0615 121.335 80.0615 121.494C80.0615 121.653 80.133 121.792 80.2747 121.909L81.3775 122.767C81.5443 122.906 81.6284 123.1 81.6284 123.349C81.6284 123.598 81.5343 123.809 81.3474 123.981C81.1604 124.152 80.9321 124.238 80.6624 124.238C80.4842 124.238 80.3061 124.217 80.128 124.173C79.9461 124.13 79.8093 124.065 79.7152 123.982Z" fill="#F9F8F4"/>
<path d="M85.4414 120.92H85.3762C85.2783 120.92 85.1842 120.947 85.0951 121C85.0061 121.053 84.9321 121.12 84.8743 121.201L83.8268 122.8V123.811C83.8268 123.892 83.8582 123.961 83.9196 124.02C83.9811 124.078 84.0564 124.108 84.143 124.108H84.2082V124.164H83.0891V124.108H83.1544C83.2422 124.108 83.3162 124.079 83.3777 124.02C83.4392 123.961 83.4705 123.892 83.4705 123.811V122.795L82.4606 121.196C82.3364 121.012 82.1696 120.92 81.9588 120.92H81.8936V120.865H83.1607V120.92H83.0954C83.0264 120.92 82.9762 120.942 82.9449 120.986C82.9135 121.03 82.8985 121.068 82.8985 121.098C82.8985 121.13 82.9022 121.158 82.9098 121.183L83.7064 122.606L84.5532 121.188C84.5645 121.159 84.5695 121.129 84.5695 121.097C84.5695 121.066 84.5544 121.029 84.5231 120.985C84.4917 120.941 84.4403 120.919 84.3675 120.919H84.3023V120.863H85.4426V120.92H85.4414Z" fill="#F9F8F4"/>
<path d="M85.7909 124.108C85.8787 124.108 85.9515 124.08 86.0117 124.023C86.0719 123.967 86.1033 123.898 86.1071 123.818V121.218C86.1033 121.138 86.0694 121.068 86.0067 121.01C85.9427 120.952 85.8674 120.922 85.7796 120.922H85.7144V120.866H86.8447V120.922H86.7795C86.6917 120.922 86.6164 120.951 86.5524 121.01C86.4884 121.069 86.4571 121.139 86.4571 121.218V123.993H87.3089C87.4757 123.993 87.6175 123.964 87.7342 123.905C87.8508 123.847 87.9387 123.776 87.9989 123.696C88.0591 123.617 88.1181 123.509 88.1758 123.378H88.231L87.9311 124.164H85.7144V124.108H85.7909Z" fill="#F9F8F4"/>
<path d="M91.4613 120.921H91.4174C91.3371 120.921 91.2593 120.947 91.1828 121C91.1062 121.053 91.041 121.133 90.9858 121.239C90.1917 122.954 89.7789 123.851 89.7463 123.932C89.6848 124.086 89.6522 124.188 89.6485 124.24H89.5995L88.2509 121.245C88.1455 121.029 88.005 120.921 87.8306 120.921H87.7867V120.865H88.9058V120.921H88.8619C88.7929 120.921 88.7414 120.946 88.7063 120.995C88.6712 121.044 88.6549 121.09 88.6549 121.13C88.6549 121.171 88.6599 121.212 88.6712 121.257L89.6485 123.652L90.6533 121.268C90.6709 121.22 90.6809 121.176 90.6809 121.133C90.6809 121.091 90.6621 121.044 90.627 120.995C90.5906 120.946 90.5354 120.921 90.4626 120.921H90.425V120.865H91.4625V120.921H91.4613Z" fill="#F9F8F4"/>
<path d="M94.5684 124.108H94.6123V124.164H93.4933V124.108H93.5372C93.6062 124.108 93.6589 124.084 93.6953 124.037C93.7316 123.989 93.7492 123.944 93.7492 123.901C93.7492 123.86 93.7417 123.818 93.7279 123.778L93.428 123.046H92.0468L91.747 123.761C91.7282 123.809 91.7194 123.853 91.7194 123.896C91.7194 123.938 91.7369 123.985 91.7746 124.034C91.8109 124.083 91.8649 124.108 91.9377 124.108H91.9816V124.164H90.9391V124.108H90.983C91.0595 124.108 91.136 124.082 91.2151 124.029C91.2928 123.976 91.3581 123.896 91.4082 123.79C92.2049 122.075 92.6201 121.178 92.6527 121.098C92.7142 120.944 92.7468 120.841 92.7506 120.789H92.7995L94.1481 123.79C94.2535 124.002 94.394 124.108 94.5684 124.108ZM92.1183 122.882H93.3628L92.7519 121.377L92.1183 122.882Z" fill="#F9F8F4"/>
<path d="M98.5541 120.921C98.4738 120.921 98.4048 120.948 98.3471 121.001C98.2894 121.054 98.258 121.119 98.2542 121.195V123.537C98.2542 123.749 98.2668 123.951 98.2919 124.142L98.3032 124.24H98.2542L95.4153 121.531V123.822C95.4153 123.903 95.4441 123.97 95.5031 124.026C95.5608 124.081 95.6323 124.108 95.7164 124.108H95.8092V124.163H94.778V124.108H94.8708C94.9549 124.108 95.0251 124.08 95.0841 124.026C95.1418 123.97 95.1719 123.903 95.1719 123.822V121.471C95.1719 121.247 95.1594 121.047 95.1343 120.872L95.123 120.783L95.1832 120.789L98.0159 123.476V121.195C98.0084 121.118 97.9757 121.054 97.918 121.001C97.8603 120.948 97.7901 120.921 97.711 120.921H97.6182V120.866H98.6494V120.921H98.5541Z" fill="#F9F8F4"/>
<path d="M99.2139 124.108C99.3118 124.108 99.3971 124.079 99.4711 124.02C99.5439 123.962 99.5802 123.892 99.5802 123.812V121.217C99.5802 121.137 99.5439 121.067 99.4711 121.009C99.3983 120.951 99.3105 120.921 99.2089 120.921H99.1374V120.865H100.371V120.921H100.299C100.201 120.921 100.116 120.948 100.046 121.003C99.9742 121.058 99.9353 121.125 99.9278 121.206V123.817C99.9315 123.897 99.9692 123.966 100.042 124.022C100.115 124.079 100.2 124.107 100.298 124.107H100.369L100.374 124.163H99.1349V124.107H99.2139V124.108Z" fill="#F9F8F4"/>
<path d="M104.274 124.108H104.318V124.164H103.199V124.108H103.243C103.312 124.108 103.365 124.084 103.401 124.037C103.437 123.989 103.455 123.944 103.455 123.901C103.455 123.86 103.448 123.818 103.434 123.778L103.134 123.046H101.753L101.453 123.761C101.434 123.809 101.425 123.853 101.425 123.896C101.425 123.938 101.443 123.985 101.48 124.034C101.517 124.083 101.571 124.108 101.644 124.108H101.687V124.164H100.645V124.108H100.689C100.765 124.108 100.842 124.082 100.921 124.029C100.999 123.976 101.064 123.896 101.114 123.79C101.911 122.075 102.326 121.178 102.359 121.098C102.42 120.944 102.453 120.841 102.456 120.789H102.505L103.854 123.79C103.959 124.002 104.1 124.108 104.274 124.108ZM101.823 122.882H103.067L102.456 121.377L101.823 122.882Z" fill="#F9F8F4"/>
<path d="M104.536 124.609C104.634 124.576 104.7 124.531 104.735 124.471C104.77 124.412 104.787 124.369 104.787 124.34C104.787 124.248 104.75 124.162 104.678 124.082C104.622 124.017 104.592 123.971 104.585 123.945C104.574 123.893 104.577 123.846 104.596 123.802C104.629 123.729 104.689 123.692 104.777 123.692C104.886 123.692 104.96 123.743 105 123.844C105.04 123.945 105.06 124.025 105.06 124.089C105.06 124.279 104.993 124.427 104.858 124.533C104.767 124.61 104.664 124.651 104.547 124.654L104.536 124.609Z" fill="#F9F8F4"/>
<path d="M110.677 120.371H110.589C110.512 120.371 110.446 120.396 110.389 120.446C110.333 120.495 110.303 120.557 110.299 120.63V122.806C110.299 123.234 110.165 123.582 109.895 123.844C109.625 124.108 109.268 124.24 108.82 124.24C108.372 124.24 108.01 124.108 107.731 123.847C107.453 123.585 107.313 123.239 107.313 122.811V120.645C107.313 120.535 107.266 120.455 107.172 120.403C107.128 120.381 107.079 120.37 107.025 120.37H106.937V120.316H108.045V120.37H107.957C107.877 120.37 107.81 120.395 107.755 120.444C107.7 120.494 107.671 120.557 107.667 120.634V122.733C107.667 123.132 107.774 123.454 107.986 123.7C108.199 123.945 108.484 124.069 108.84 124.069C109.196 124.069 109.486 123.953 109.708 123.721C109.93 123.488 110.041 123.183 110.041 122.805V120.634C110.037 120.557 110.008 120.494 109.953 120.444C109.899 120.395 109.831 120.37 109.751 120.37H109.663V120.316H110.673V120.371H110.677Z" fill="#F9F8F4"/>
<path d="M111.283 123.938C111.271 123.886 111.266 123.787 111.266 123.641C111.266 123.494 111.294 123.339 111.348 123.174H111.397C111.393 123.214 111.392 123.254 111.392 123.295C111.392 123.518 111.459 123.704 111.594 123.853C111.728 124.002 111.906 124.075 112.128 124.075C112.358 124.075 112.546 124.006 112.693 123.867C112.839 123.728 112.913 123.552 112.913 123.342C112.913 123.131 112.842 122.96 112.7 122.827L111.653 121.849C111.456 121.666 111.358 121.443 111.358 121.184C111.358 120.926 111.444 120.702 111.617 120.516C111.791 120.331 112.024 120.238 112.319 120.238C112.457 120.238 112.614 120.257 112.788 120.293H113.001V120.968H112.952C112.952 120.797 112.893 120.659 112.775 120.557C112.657 120.454 112.506 120.403 112.32 120.403C112.134 120.403 111.979 120.465 111.853 120.59C111.728 120.715 111.665 120.87 111.665 121.057C111.665 121.244 111.738 121.405 111.883 121.541L112.959 122.541C113.14 122.709 113.232 122.94 113.232 123.233C113.232 123.526 113.139 123.767 112.954 123.955C112.768 124.143 112.521 124.238 112.211 124.238C112.05 124.238 111.881 124.213 111.7 124.164C111.52 124.116 111.38 124.04 111.283 123.938Z" fill="#F9F8F4"/>
<path d="M117.452 124.108H117.496V124.163H116.268V124.108H116.317C116.393 124.108 116.451 124.082 116.488 124.033C116.526 123.984 116.546 123.937 116.546 123.893C116.546 123.849 116.539 123.805 116.525 123.762L116.175 122.827H114.701L114.334 123.767C114.319 123.811 114.313 123.854 114.313 123.896C114.313 123.937 114.332 123.984 114.371 124.033C114.408 124.082 114.466 124.108 114.543 124.108H114.592V124.163H113.494V124.108H113.543C113.633 124.108 113.723 124.079 113.81 124.019C113.898 123.961 113.968 123.874 114.023 123.762L115.256 120.805C115.391 120.508 115.458 120.32 115.458 120.239H115.507L116.97 123.762C117.022 123.875 117.091 123.961 117.177 124.019C117.266 124.079 117.357 124.108 117.452 124.108ZM114.766 122.662H116.108L115.453 120.897L114.766 122.662Z" fill="#F9F8F4"/>
</svg>
