<svg width="184" height="185" viewBox="0 0 184 185" fill="none" xmlns="http://www.w3.org/2000/svg">
<rect y="0.492188" width="184" height="184" rx="3" fill="#0C0C0C"/>
<g clip-path="url(#clip0)">
<path d="M54.676 82.3153C54.5279 74.2484 60.1644 66.6547 68.4984 64.8903C77.7771 62.9254 86.0621 68.4583 88.7981 76.5548C89.6191 78.9857 89.9235 81.4829 89.6705 84.0134C88.8797 91.9344 83.3062 97.9202 76.4184 99.6728C75.7385 99.8459 75.0562 99.9906 74.3506 99.9538C73.7057 99.9206 73.2439 99.5139 73.1214 98.8985C73.0153 98.3696 73.3943 97.7044 73.9646 97.4981C74.2912 97.3795 74.6399 97.319 74.9827 97.2538C80.8979 96.1439 85.7659 91.1874 86.8505 85.1932C88.2336 77.5532 83.999 70.7658 77.6208 68.2021C75.8714 67.499 74.0567 67.2073 72.1639 67.1919C69.527 67.1705 67.0884 67.8132 64.8282 69.1425C60.9213 71.4393 58.4174 74.8319 57.538 79.3414C56.1222 86.6043 59.8285 92.9091 65.2177 95.7775C65.5268 95.9423 65.8335 96.1119 66.1286 96.3004C66.8388 96.751 66.8773 98.1123 65.9257 98.5534C65.6283 98.691 65.3414 98.7645 65.0311 98.6317C64.7454 98.5096 64.4527 98.3993 64.1798 98.2499C59.0355 95.4301 55.9111 91.1115 54.8626 85.2584C54.7938 84.8707 54.7029 84.4829 54.683 84.0916C54.6539 83.4999 54.676 82.907 54.676 82.3153Z" fill="#572DFF"/>
<path d="M92.7764 119.472C92.7589 119.16 92.7251 118.93 92.7368 118.702C92.7846 117.798 92.8464 116.893 92.9035 115.988C93.0272 114.021 93.1496 112.055 93.2732 110.088C93.2802 109.969 93.2966 109.852 93.3024 109.734C93.405 107.647 93.5042 105.56 93.6103 103.473C93.6908 101.899 93.7782 100.324 93.8669 98.7492C93.8762 98.5926 93.9007 98.4349 93.9287 98.2808C94.064 97.548 94.1934 97.4223 94.9223 97.4033C96.1924 97.3701 96.3113 97.4958 96.2343 98.6994C96.1236 100.429 95.9941 102.158 95.8716 103.888C95.8576 104.085 95.8262 104.281 95.8145 104.478C95.7154 106.17 95.6314 107.863 95.5159 109.554C95.411 111.087 95.264 112.617 95.1521 114.15C95.1031 114.819 95.0844 115.49 95.0739 116.16C95.0716 116.335 95.1474 116.511 95.1836 116.669C95.5684 116.685 95.6337 116.452 95.6885 116.222C95.9218 115.226 96.1539 114.228 96.379 113.23C97.4694 108.391 98.5552 103.55 99.648 98.7124C99.7331 98.3329 99.8509 97.9618 99.9617 97.5574C100.272 97.4993 100.531 97.414 100.792 97.408C101.529 97.3926 102.269 97.3891 103.006 97.4199C103.533 97.4412 103.672 97.6072 103.68 98.1705C103.687 98.6033 103.656 99.0373 103.627 99.4701C103.606 99.7843 103.547 100.096 103.529 100.412C103.436 102.105 103.348 103.798 103.261 105.49C103.206 106.553 103.155 107.616 103.104 108.679C102.988 111.081 102.868 113.484 102.763 115.887C102.751 116.148 102.822 116.413 102.869 116.794C103.07 116.643 103.236 116.582 103.28 116.472C103.394 116.181 103.47 115.873 103.534 115.567C104.419 111.328 105.3 107.088 106.182 102.848C106.495 101.345 106.803 99.8413 107.124 98.3401C107.295 97.5385 107.427 97.4318 108.211 97.4069C108.481 97.3986 108.755 97.4057 109.025 97.4377C109.39 97.4804 109.562 97.714 109.498 98.1041C109.422 98.5701 109.315 99.0302 109.214 99.4915C107.841 105.719 106.468 111.947 105.092 118.173C105 118.592 104.886 119.005 104.775 119.447C104.494 119.498 104.272 119.569 104.051 119.571C103.119 119.583 102.186 119.587 101.254 119.569C100.782 119.56 100.626 119.37 100.652 118.906C100.798 116.23 100.942 113.552 101.094 110.876C101.242 108.239 101.394 105.603 101.55 102.966C101.592 102.258 101.668 101.552 101.709 100.844C101.722 100.612 101.691 100.365 101.368 100.278C101.018 100.517 100.99 100.922 100.906 101.295C100.518 103.024 100.131 104.752 99.7482 106.482C98.8817 110.402 98.0199 114.324 97.151 118.245C97.0659 118.626 96.9411 118.999 96.8385 119.368C96.1877 119.741 95.5136 119.551 94.8698 119.57C94.2156 119.585 93.5543 119.641 92.7764 119.472Z" fill="#F9F8F4"/>
<path d="M69.1827 114.938C69.6597 114.969 70.0002 115.006 70.3419 115.009C71.1956 115.019 72.0505 114.996 72.9042 115.024C73.2459 115.034 73.6051 115.089 73.9211 115.216C74.9684 115.637 75.4443 116.588 75.2658 117.807C75.12 118.802 74.3305 119.517 73.2587 119.61C72.9497 119.638 72.6383 119.638 72.3281 119.638C68.8725 119.639 65.418 119.639 61.9624 119.638C61.6522 119.638 61.3408 119.612 61.0318 119.62C59.9903 119.648 58.9792 118.759 58.8905 117.395C58.8182 116.276 59.7804 115.178 60.9303 115.036C61.3128 114.988 61.7059 115.014 62.0942 115.013C63.2593 115.009 64.4232 115.021 65.5883 115.004C66.2612 114.993 66.428 114.845 66.5213 114.208C66.6939 113.04 66.8479 111.87 67.0076 110.699C67.2957 108.593 67.5873 106.488 67.8707 104.382C68.1377 102.393 68.392 100.402 68.6602 98.4121C68.9179 96.5006 69.1873 94.5915 69.4486 92.68C69.6515 91.1978 69.8533 89.7167 70.0515 88.2333C70.3023 86.361 70.546 84.4874 70.8003 82.6163C70.8318 82.3839 70.8971 82.1514 70.9752 81.9297C71.2423 81.1732 72.0715 80.8376 72.7817 81.2028C73.1526 81.3937 73.3812 81.7151 73.3963 82.142C73.4115 82.5736 73.4185 83.0135 73.3625 83.4404C73.1153 85.3127 72.8435 87.1827 72.5835 89.0539C72.3829 90.4958 72.1858 91.9389 71.991 93.382C71.8067 94.7468 71.6306 96.1129 71.4452 97.4789C71.1595 99.5848 70.8714 101.69 70.581 103.796C70.3069 105.784 70.0247 107.77 69.7541 109.76C69.557 111.203 69.3693 112.647 69.1885 114.093C69.1582 114.321 69.1827 114.557 69.1827 114.938Z" fill="#572DFF"/>
<path d="M104.262 72.2397C104.451 72.2077 104.638 72.1496 104.823 72.1496C106.261 72.1425 107.698 72.1306 109.136 72.1567C109.557 72.1638 109.986 72.2492 110.394 72.363C111.32 72.6215 111.773 73.1705 111.839 74.131C111.878 74.68 111.891 75.2421 111.822 75.7864C111.587 77.6232 111.309 79.4528 111.051 81.286C110.853 82.69 110.659 84.0951 110.464 85.4991C110.216 87.2944 109.991 89.092 109.712 90.8814C109.622 91.46 109.445 92.0375 109.219 92.5782C108.824 93.5209 108.071 94.1352 107.084 94.198C105.304 94.3107 103.515 94.3012 101.728 94.3095C101.208 94.3118 101.061 94.0676 101.135 93.5328C101.638 89.9849 102.151 86.4371 102.645 82.888C103.068 79.8453 103.463 76.7978 103.885 73.7551C103.955 73.2559 103.997 72.7389 104.262 72.2397ZM103.939 92.1976C104.726 92.5035 105.455 92.334 106.171 92.2C106.565 92.1253 106.869 91.8347 107.026 91.4553C107.161 91.1316 107.277 90.7877 107.33 90.4415C107.578 88.8466 107.803 87.247 108.029 85.6485C108.405 82.9971 108.778 80.3457 109.149 77.6943C109.236 77.0706 109.338 76.4469 109.388 75.8184C109.461 74.8923 109.093 74.3729 108.217 74.2081C107.612 74.0943 106.986 74.0207 106.371 74.3516C106.301 74.5626 106.19 74.7796 106.157 75.0073C105.412 80.3101 104.673 85.6129 103.944 90.9181C103.894 91.3011 103.939 91.6984 103.939 92.1976Z" fill="#F9F8F4"/>
<path d="M84.604 119.805C84.0605 119.878 83.4482 119.752 82.8698 119.521C81.8831 119.128 81.2848 118.391 81.2393 117.291C81.2113 116.624 81.2114 115.946 81.2965 115.286C81.6545 112.517 82.0429 109.752 82.4336 106.986C82.7193 104.961 83.0167 102.938 83.3269 100.916C83.3922 100.492 83.4937 100.064 83.6476 99.6641C84.1736 98.304 85.1813 97.4775 86.5878 97.2759C87.4228 97.1562 88.2998 97.149 89.136 97.2629C90.8831 97.5024 91.3985 98.5281 91.5443 99.8384C91.5921 100.263 91.5478 100.705 91.4918 101.132C91.2131 103.237 90.9204 105.34 90.6253 107.444C90.3466 109.43 90.0574 111.415 89.7763 113.401C89.6713 114.141 89.5815 114.884 89.4766 115.624C89.4381 115.895 89.3809 116.164 89.3238 116.432C88.9308 118.303 87.7633 119.699 85.1591 119.803C85.004 119.809 84.8477 119.805 84.604 119.805ZM83.6546 115.916C83.6546 116.104 83.6476 116.224 83.6558 116.341C83.7258 117.354 84.4255 117.897 85.4075 117.715C86.0256 117.6 86.484 117.265 86.7382 116.687C86.8793 116.367 86.9913 116.021 87.0403 115.676C87.3015 113.847 87.5324 112.015 87.7855 110.186C87.9733 108.823 88.1832 107.464 88.3745 106.102C88.6089 104.427 88.8445 102.754 89.0544 101.076C89.0917 100.774 89.0427 100.447 88.9681 100.148C88.8281 99.5953 88.4374 99.2977 87.887 99.2206C87.0519 99.1032 86.3498 99.4744 85.9871 100.259C85.8589 100.539 85.7784 100.852 85.7317 101.159C85.5533 102.325 85.3982 103.493 85.2314 104.661C84.7941 107.735 84.3521 110.807 83.917 113.882C83.8168 114.581 83.7351 115.284 83.6546 115.916Z" fill="#F9F8F4"/>
<path d="M125.814 119.41C125.209 119.643 124.741 119.576 124.281 119.56C123.877 119.545 123.739 119.395 123.69 118.979C123.612 118.313 123.534 117.648 123.477 116.981C123.379 115.842 123.296 114.704 123.207 113.564C123.179 113.212 123.19 112.849 122.849 112.513C122.305 112.513 121.696 112.513 121.016 112.513C120.919 112.826 120.789 113.11 120.747 113.408C120.49 115.201 120.256 116.996 120.012 118.79C119.928 119.411 119.801 119.545 119.208 119.566C118.748 119.581 118.286 119.558 117.774 119.551C117.707 119.274 117.598 119.052 117.615 118.841C117.68 118.057 117.771 117.275 117.881 116.496C118.233 114.002 118.608 111.511 118.956 109.016C119.304 106.521 119.628 104.021 119.967 101.525C120.116 100.433 120.272 99.3421 120.434 98.2512C120.528 97.6191 120.71 97.4164 121.346 97.4128C122.937 97.4033 124.529 97.4187 126.119 97.4662C126.494 97.4768 126.893 97.5919 127.231 97.7614C127.83 98.0603 128.157 98.5986 128.179 99.2828C128.199 99.9124 128.237 100.553 128.153 101.173C127.81 103.708 127.427 106.236 127.054 108.767C126.893 109.855 126.466 110.81 125.612 111.52C125.234 111.834 125.164 112.222 125.216 112.682C125.421 114.521 125.623 116.36 125.808 118.202C125.847 118.587 125.814 118.977 125.814 119.41ZM122.847 99.546C122.777 99.6848 122.672 99.8164 122.645 99.9611C122.539 100.54 122.45 101.122 122.368 101.704C122.071 103.802 121.78 105.899 121.491 107.998C121.404 108.621 121.317 109.242 121.255 109.867C121.217 110.255 121.396 110.471 121.773 110.497C122.158 110.524 122.547 110.531 122.932 110.507C123.918 110.449 124.389 110.054 124.614 109.044C124.758 108.396 124.831 107.729 124.928 107.07C125.199 105.206 125.473 103.343 125.732 101.478C125.775 101.169 125.778 100.847 125.745 100.537C125.679 99.9113 125.316 99.5164 124.705 99.4607C124.095 99.4073 123.473 99.3528 122.847 99.546Z" fill="#F9F8F4"/>
<path d="M120.867 72.16C120.985 72.1612 121.084 72.2514 121.098 72.3699C121.14 72.7197 121.183 72.977 121.177 73.232C121.145 74.6893 121.085 76.1466 121.05 77.604C121.006 79.4573 120.983 81.3107 120.942 83.1641C120.865 86.5542 120.782 89.9432 120.7 93.3334C120.697 93.4911 120.7 93.6523 120.669 93.8041C120.617 94.0519 120.468 94.2298 120.212 94.2784C120.06 94.3069 119.904 94.3247 119.75 94.3294C118.272 94.365 118.293 94.1954 118.346 92.8851C118.375 92.1369 118.462 91.391 118.466 90.6428C118.469 89.9657 118.286 89.7831 117.647 89.7618C116.872 89.7369 116.094 89.7369 115.318 89.757C114.613 89.776 114.467 89.897 114.265 90.6144C114.074 91.2962 113.918 91.9875 113.748 92.6753C113.711 92.8282 113.688 92.9847 113.647 93.1365C113.344 94.2808 113.234 94.3685 112.035 94.327C111.774 94.3176 111.515 94.2452 111.26 94.2037C111.078 93.7045 111.285 93.293 111.383 92.8911C111.973 90.4839 112.593 88.0827 113.2 85.6803C114.211 81.6748 115.209 77.6656 116.237 73.6636C116.649 72.0616 116.44 72.134 118.156 72.1411C119.022 72.1446 119.889 72.1529 120.867 72.16ZM115.277 87.6132C115.484 87.6547 115.74 87.7483 115.997 87.7507C116.694 87.7566 117.393 87.7448 118.087 87.6902C118.23 87.6784 118.39 87.4697 118.48 87.3155C118.552 87.191 118.539 87.0108 118.548 86.8542C118.613 85.4372 118.685 84.0202 118.735 82.602C118.813 80.4356 118.876 78.2692 118.944 76.1016C118.953 75.7862 118.966 75.4707 118.955 75.1553C118.949 75.0024 118.916 74.8387 118.851 74.7035C118.806 74.6111 118.69 74.5138 118.593 74.5008C118.495 74.4877 118.326 74.5447 118.29 74.6217C118.156 74.9028 118.037 75.1968 117.959 75.4992C117.732 76.3755 117.531 77.2577 117.317 78.1364C116.638 80.9265 115.961 83.7167 115.277 86.5068C115.195 86.8507 115.06 87.1863 115.277 87.6132Z" fill="#F9F8F4"/>
<path d="M112.07 97.5167C112.511 97.4657 112.813 97.4041 113.115 97.4017C114.357 97.3898 115.6 97.3958 116.842 97.3981C117.036 97.3981 117.231 97.4076 117.423 97.4361C117.737 97.4823 117.93 97.6827 117.894 97.9969C117.846 98.4203 117.739 98.8377 117.655 99.2681C116.548 99.6203 115.442 99.2657 114.328 99.5349C114.239 99.7744 114.098 100.018 114.063 100.276C113.768 102.421 113.489 104.569 113.213 106.716C113.193 106.868 113.225 107.027 113.236 107.26C113.49 107.317 113.739 107.412 113.992 107.423C114.651 107.45 115.312 107.426 115.971 107.45C116.362 107.464 116.535 107.688 116.469 108.076C116.404 108.461 116.3 108.84 116.215 109.208C115.672 109.535 115.116 109.366 114.587 109.403C114.05 109.44 113.502 109.341 112.927 109.554C112.829 109.842 112.681 110.125 112.639 110.425C112.361 112.414 112.107 114.405 111.846 116.396C111.831 116.513 111.822 116.631 111.815 116.749C111.774 117.446 111.869 117.556 112.59 117.587C112.977 117.604 113.367 117.591 113.755 117.596C114.065 117.6 114.376 117.609 114.686 117.626C114.758 117.63 114.828 117.679 114.97 117.734C115.278 118.332 115.004 118.886 114.79 119.391C114.687 119.461 114.655 119.501 114.623 119.502C112.917 119.521 111.21 119.546 109.504 119.547C109.143 119.547 108.978 119.295 109.028 118.893C109.096 118.346 109.173 117.801 109.252 117.255C109.614 114.762 109.989 112.27 110.336 109.775C110.763 106.696 111.16 103.612 111.584 100.531C111.719 99.561 111.895 98.5958 112.07 97.5167Z" fill="#F9F8F4"/>
<path d="M101.303 72.2958C101.34 72.482 101.396 72.6338 101.396 72.7856C101.394 74.0034 101.281 74.1148 100.063 74.1314C99.5575 74.1385 99.0525 74.1207 98.5487 74.1468C97.8886 74.1812 97.7417 74.3211 97.6391 74.9781C97.4863 75.9504 97.3417 76.9228 97.2029 77.8975C97.0524 78.9493 96.9032 80.001 96.7725 81.0552C96.7352 81.3576 96.7667 81.6682 96.7667 81.9706C97.7778 82.5351 98.9068 81.9469 99.8841 82.4473C99.9144 82.6181 99.9634 82.771 99.9634 82.9228C99.9576 84.0896 99.7826 84.258 98.6035 84.2722C97.9108 84.2805 97.218 84.2971 96.509 84.3102C96.1369 85.1793 96.0821 86.0367 95.9807 86.8892C95.8734 87.7881 95.6518 88.6762 95.5993 89.5762C95.5503 90.4276 95.1713 91.2612 95.3987 92.1043C95.7766 92.3889 96.1731 92.3593 96.5556 92.377C96.9428 92.3948 97.3323 92.3782 97.7195 92.396C98.0263 92.4102 98.3855 92.3925 98.5137 92.7529C98.6619 93.1715 98.6304 93.6138 98.4204 94.0087C98.3575 94.1284 98.186 94.2162 98.0472 94.2589C97.8653 94.3146 97.6647 94.3277 97.4723 94.3288C96.1906 94.3348 94.91 94.3348 93.6283 94.3288C93.3193 94.3277 93.0021 94.3312 92.7653 94.0786C92.5671 93.6968 92.644 93.2937 92.6953 92.913C92.9542 91.0027 93.2423 89.096 93.5117 87.1869C93.7765 85.3157 94.0342 83.4446 94.2908 81.5734C94.552 79.6619 94.8062 77.7504 95.0675 75.8401C95.2004 74.8654 95.3381 73.8907 95.4838 72.9172C95.5725 72.3255 95.7334 72.1583 96.3177 72.1524C97.793 72.1357 99.2683 72.1429 100.744 72.1547C100.927 72.1559 101.109 72.2448 101.303 72.2958Z" fill="#F9F8F4"/>
<path d="M126.159 72.2266C126.848 72.0974 127.527 72.0986 128.265 72.2326C128.268 73.9792 127.858 75.6251 127.685 77.2947C127.513 78.9382 127.236 80.5698 127.006 82.2074C126.771 83.884 126.54 85.5607 126.306 87.2374C126.08 88.8608 125.798 90.4782 125.682 92.0565C126.216 92.4217 126.691 92.3624 127.15 92.379C127.694 92.398 128.238 92.3837 128.78 92.4229C129.163 92.4501 129.335 92.6576 129.336 93.0418C129.337 93.2754 129.316 93.5162 129.262 93.7426C129.195 94.0296 129.005 94.2288 128.706 94.2786C128.516 94.3106 128.32 94.3272 128.127 94.3272C126.768 94.332 125.408 94.3308 124.049 94.3296C123.894 94.3296 123.738 94.3249 123.584 94.3059C123.141 94.249 122.954 94.0569 122.999 93.5968C123.073 92.8142 123.187 92.0339 123.295 91.2549C123.576 89.2272 123.865 87.2007 124.148 85.173C124.41 83.3018 124.665 81.4283 124.926 79.5571C125.209 77.5294 125.502 75.5029 125.772 73.4729C125.83 73.0401 125.892 72.6239 126.159 72.2266Z" fill="#F9F8F4"/>
</g>
<defs>
<clipPath id="clip0">
<rect width="74.6667" height="55.3333" fill="white" transform="translate(54.668 64.4922)"/>
</clipPath>
</defs>
</svg>
