<svg width="183" height="184" viewBox="0 0 183 184" fill="none" xmlns="http://www.w3.org/2000/svg">
<rect y="0.489258" width="183" height="183" rx="3" fill="#090909"/>
<path d="M95.2903 118.955V115.748H97.1171V124.956H95.5036L95.4369 124.129C94.9769 124.829 94.3302 125.176 93.4968 125.176C92.65 125.176 91.9633 124.843 91.4299 124.182C90.8965 123.522 90.6298 122.656 90.6298 121.596C90.6298 120.542 90.8898 119.702 91.4032 119.062C91.9233 118.435 92.57 118.115 93.3567 118.115C94.1835 118.115 94.8302 118.395 95.2903 118.955ZM93.8835 123.576C94.3235 123.576 94.6835 123.396 94.9636 123.036C95.2436 122.676 95.3836 122.196 95.3836 121.602C95.3836 121.009 95.2436 120.529 94.9702 120.175C94.6969 119.815 94.3302 119.642 93.8835 119.642C93.4368 119.642 93.07 119.822 92.7967 120.175C92.5233 120.535 92.3833 121.009 92.3833 121.602C92.3833 122.196 92.5233 122.676 92.7967 123.036C93.07 123.396 93.4301 123.576 93.8835 123.576Z" fill="#F9F8F4"/>
<path d="M104.771 121.854V122.168H99.9376C99.9709 122.668 100.124 123.061 100.404 123.348C100.684 123.635 101.044 123.775 101.504 123.775C102.151 123.775 102.584 123.488 102.798 122.908L104.611 123.034C104.385 123.741 104.011 124.281 103.485 124.648C102.958 125.015 102.311 125.201 101.544 125.201C100.464 125.201 99.6175 124.868 98.9975 124.195C98.3774 123.521 98.0641 122.661 98.0641 121.608C98.0641 120.601 98.3641 119.768 98.9575 119.114C99.5509 118.461 100.351 118.134 101.351 118.134C102.358 118.134 103.185 118.467 103.825 119.141C104.451 119.808 104.771 120.714 104.771 121.854ZM102.418 119.834C102.158 119.574 101.824 119.447 101.411 119.447C100.998 119.447 100.658 119.574 100.391 119.834C100.124 120.108 99.9709 120.474 99.9242 120.921H102.885C102.831 120.454 102.678 120.094 102.418 119.834Z" fill="#F9F8F4"/>
<path d="M107.513 124.961H105.686V115.747H107.513V124.961Z" fill="#F9F8F4"/>
<path d="M112.193 119.627L110.953 119.587V122.861C110.953 123.088 111.006 123.248 111.1 123.348C111.193 123.448 111.36 123.494 111.587 123.494H112.193V124.954H111C110.326 124.954 109.846 124.808 109.56 124.521C109.273 124.234 109.126 123.754 109.126 123.081V119.587L108.22 119.627V118.28L109.126 118.307V116.227H110.946V118.32L112.187 118.28V119.627H112.193Z" fill="#F9F8F4"/>
<path d="M118.881 124.961H117.034C116.941 124.527 116.894 124.307 116.894 124.287C116.421 124.867 115.734 125.154 114.841 125.154C114.141 125.154 113.581 124.967 113.161 124.601C112.741 124.234 112.527 123.741 112.527 123.127C112.527 122.047 113.201 121.374 114.554 121.107L116.881 120.64V120.147C116.881 119.667 116.508 119.42 115.754 119.42C115.381 119.42 115.101 119.487 114.914 119.627C114.721 119.767 114.607 119.987 114.567 120.3L112.901 120.274C113.014 118.84 113.961 118.127 115.748 118.127C117.668 118.127 118.634 118.953 118.634 120.607V123.554C118.621 124.187 118.708 124.654 118.881 124.961ZM115.354 123.807C115.814 123.807 116.181 123.674 116.461 123.401C116.741 123.127 116.881 122.76 116.881 122.294V121.8L115.174 122.16C114.594 122.274 114.307 122.554 114.307 123C114.307 123.241 114.401 123.434 114.587 123.581C114.767 123.734 115.027 123.807 115.354 123.807Z" fill="#F9F8F4"/>
<path d="M121.14 125.328C121.784 125.328 122.306 124.807 122.306 124.163C122.306 123.52 121.784 122.998 121.14 122.998C120.497 122.998 119.975 123.52 119.975 124.163C119.975 124.807 120.497 125.328 121.14 125.328Z" fill="#F9F8F4"/>
<path d="M118.67 89.6114L68.2459 60.1281L66.4798 59.0955C65.2594 58.3855 63.7163 59.2187 63.6459 60.6268L63.5402 62.6687L60.6007 119.64L60.4892 121.8C60.413 123.255 61.9443 124.24 63.2351 123.572L65.1538 122.58L118.529 95.0974L120.541 94.0589C121.862 93.3783 121.914 91.5066 120.629 90.7556L118.67 89.6114ZM115.19 91.2015L79.7165 100.648C79.0476 100.824 78.3611 100.431 78.1792 99.7561L68.5862 63.9536L115.19 91.2015ZM63.863 117.141L66.4035 67.8965L75.5213 101.898C75.627 102.285 75.5389 102.701 75.2867 103.012L63.863 117.141ZM67.1721 118.027L78.0384 104.585C78.2086 104.38 78.4374 104.227 78.6897 104.162L110.602 95.6607L67.1721 118.027Z" fill="#F9F8F4"/>
</svg>
