<svg width="184" height="185" viewBox="0 0 184 185" fill="none" xmlns="http://www.w3.org/2000/svg">
<rect y="0.492188" width="184" height="184" rx="3" fill="#0C0C0C"/>
<g clip-path="url(#clip0)">
<path d="M68.6641 103.236C69.9257 101.708 71.5317 100.675 73.4642 100.119C73.8011 100.022 74.1486 99.9531 74.4946 99.8903C76.8803 99.4571 79.1648 100.416 80.171 102.779C80.6001 103.786 80.9582 104.821 81.3375 105.847C83.4406 111.541 85.5377 117.238 87.6439 122.931C87.8675 123.536 88.1002 124.147 88.413 124.71C89.0158 125.797 89.9224 126.549 91.1386 126.925C93.2509 127.576 95.351 126.457 96.2228 124.947C96.593 124.305 96.877 123.604 97.1339 122.908C99.3942 116.795 101.632 110.673 103.9 104.563C104.209 103.728 104.59 102.905 105.043 102.137C105.67 101.078 106.563 100.256 107.813 99.9799C108.488 99.8306 109.224 99.7245 109.896 99.8291C112.246 100.195 114.311 101.155 115.877 102.999C115.937 103.07 115.957 103.176 115.996 103.268C114.94 105.613 110.953 107.242 107.978 106.548C107.793 105.478 108.074 104.955 108.958 104.778C109.451 104.679 109.96 104.652 110.446 104.536C111.228 104.349 111.994 104.109 112.575 103.377C112.429 103.181 112.327 102.939 112.145 102.822C111.237 102.243 110.235 101.944 109.147 101.968C107.988 101.993 107.115 102.495 106.615 103.542C106.358 104.08 106.151 104.643 105.945 105.202C103.779 111.086 101.618 116.971 99.4516 122.855C99.16 123.648 98.8895 124.454 98.5315 125.219C97.3424 127.754 95.3555 129.079 92.4864 129.158C89.6172 129.236 87.1333 127.681 86.0802 124.867C84.947 121.837 83.8259 118.804 82.7063 115.768C81.4009 112.218 80.1031 108.666 78.7901 105.12C78.6178 104.655 78.4229 104.189 78.1616 103.769C77.0148 101.931 75.1413 101.444 73.2164 102.464C72.8251 102.672 72.3824 102.84 72.2101 103.43C72.3824 103.592 72.5637 103.819 72.7933 103.968C73.6636 104.533 74.6638 104.663 75.6716 104.74C76.0312 104.767 76.4059 104.805 76.5932 105.147C76.8033 105.529 77.0918 105.946 76.8924 106.395C76.693 106.842 76.2034 106.735 75.8182 106.751C73.0034 106.878 70.7582 105.71 68.8831 103.726C68.788 103.628 68.7623 103.465 68.6641 103.236Z" fill="#F9F8F4"/>
<path d="M98.8646 102.613C97.7224 102.454 96.5816 102.285 95.4379 102.134C93.3861 101.864 91.3313 101.849 89.281 102.15C88.4379 102.274 87.5903 102.377 86.7548 102.54C85.5959 102.766 84.5745 102.509 83.6197 101.844C80.8305 99.9009 79.0537 97.275 78.2016 94.0276C78.0505 93.4555 77.9538 92.8595 77.9145 92.2695C77.8677 91.566 78.1986 91.2926 78.9298 91.3225C79.5961 91.3494 79.9361 91.6466 80.0298 92.3098C80.0645 92.5548 80.0283 92.8102 80.0721 93.0522C80.1703 93.5855 80.2156 94.1501 80.4286 94.6385C81.2778 96.5878 82.556 98.2324 84.2512 99.5409C85.2605 100.319 86.4178 100.545 87.6704 100.264C89.3444 99.8875 91.0366 99.7605 92.7545 99.768C94.3213 99.7754 95.873 99.9278 97.39 100.25C98.6969 100.528 99.7349 100.233 100.732 99.4065C102.607 97.853 103.86 95.9336 104.452 93.5915C104.573 93.1105 104.651 92.6176 104.777 92.1381C104.937 91.5197 105.319 91.2941 106.025 91.3643C106.564 91.4181 106.806 91.7393 106.777 92.4443C106.759 92.8894 106.733 93.345 106.631 93.7767C105.766 97.375 103.808 100.209 100.584 102.149C100.048 102.47 99.4916 102.642 98.8646 102.613Z" fill="#F9F8F4"/>
<path d="M105.823 78.0277C106.229 77.5423 106.665 77.3272 107.203 77.4571C107.734 77.5856 108.029 77.9814 108.219 78.4729C109.383 81.4678 108.961 84.3686 106.284 86.5389C104.649 87.8653 102.735 88.5898 100.722 89.0857C99.9004 89.2888 99.0422 89.3665 98.1945 89.4397C96.0385 89.6264 93.9051 89.8789 91.8578 90.6451C90.7035 91.0768 90.2729 90.796 89.7773 89.4307C90.007 89.2814 90.2351 89.0872 90.498 88.9737C92.3987 88.1521 94.3644 87.5965 96.457 87.5158C98.2187 87.4486 99.9593 87.2051 101.636 86.63C102.735 86.2536 103.777 85.7622 104.707 85.0631C106.553 83.674 107.103 82.0055 106.433 79.8053C106.248 79.1958 106.021 78.5998 105.823 78.0277Z" fill="#F9F8F4"/>
<path d="M75.3281 84.5625C75.3719 81.4571 77.531 78.6354 80.6359 77.7034C81.2085 77.5316 81.8099 77.4479 82.3991 77.3299C84.2711 76.958 86.1144 76.489 87.9154 75.8542C88.3838 75.6898 88.8763 75.545 89.3674 75.5001C89.94 75.4479 90.4522 75.651 90.7801 76.1768C90.9583 76.4621 90.9327 76.7892 90.6501 76.9565C90.351 77.1328 90.0337 77.2896 89.7103 77.4196C87.6132 78.259 85.4602 78.9178 83.2241 79.2897C82.6801 79.3808 82.1287 79.46 81.6029 79.6168C79.882 80.1321 78.6007 81.1957 77.7984 82.7835C77.3074 83.7544 77.2953 84.7955 77.5204 85.8396C77.6141 86.2758 77.7652 86.7 77.8664 87.1347C77.9722 87.5888 77.7229 87.8965 77.2409 87.9413C76.3495 88.0249 75.7179 87.5843 75.5306 86.6343C75.3976 85.9576 75.3916 85.2541 75.3281 84.5625Z" fill="#F9F8F4"/>
<path d="M103.868 66.8652C104.026 67.0848 104.227 67.2999 104.357 67.5508C106.93 72.5533 105.351 79.7769 98.1716 82.0727C97.889 82.1623 97.5899 82.2221 97.2953 82.246C96.6849 82.2953 96.2392 82.0294 95.9324 81.5036C95.6136 80.9584 95.7617 80.5999 96.3857 80.3833C97.2832 80.0726 98.2109 79.8172 99.057 79.402C102.727 77.599 104.076 73.5227 103.07 70.0722C102.931 69.5972 102.719 69.1312 102.66 68.6472C102.615 68.2768 102.727 67.875 102.83 67.5031C102.887 67.288 103.068 67.2237 103.868 66.8652Z" fill="#F9F8F4"/>
<path d="M91.397 66.2571C91.737 67.8524 91.5496 68.3901 90.359 69.0817C88.8345 69.966 87.1982 70.5754 85.4592 70.9115C84.8201 71.0355 84.181 71.1565 83.5449 71.2939C82.0884 71.6091 81.1652 72.4934 80.7225 73.8915C80.6062 74.2589 80.4536 74.6144 80.3101 74.9938C79.6528 74.9684 79.3295 74.6189 79.0862 74.1663C78.8445 73.7137 78.7266 73.2447 78.9095 72.7353C79.3476 71.5224 80.1046 70.5724 81.2408 69.9227C82.0355 69.4686 82.9088 69.2147 83.7957 69.0772C86.2131 68.7038 88.4538 67.9121 90.4769 66.5409C90.6401 66.4304 90.8214 66.3378 91.0042 66.2631C91.0843 66.2287 91.193 66.2571 91.397 66.2571Z" fill="#F9F8F4"/>
<path d="M96.3299 55.1582C96.5006 55.2956 96.7122 55.4241 96.8693 55.5988C98.418 57.3226 99.5783 59.2734 100.326 61.4587C100.751 62.7 100.855 63.9801 100.656 65.2676C100.582 65.7456 100.415 66.2311 100.186 66.6583C99.9168 67.1572 99.255 67.323 98.7443 67.1228C98.2533 66.9316 98.0523 66.5522 98.2034 66.0608C98.2759 65.8248 98.3832 65.5993 98.4754 65.3692C98.767 64.6522 98.7594 63.9218 98.5932 63.1809C98.1838 61.3631 97.3226 59.7514 96.2755 58.2263C96.1063 57.9813 95.9099 57.7543 95.7331 57.5153C94.8915 56.3816 94.961 56.0873 96.3299 55.1582Z" fill="#F9F8F4"/>
<path d="M92.8978 59.7105C92.7316 60.3767 92.6395 61.0713 92.3811 61.7016C92.0034 62.6202 91.2736 63.2132 90.2749 63.4418C90.08 63.4866 89.8821 63.5239 89.6842 63.5508C88.4513 63.7196 87.377 64.1393 86.6382 65.2208C86.3542 65.636 85.8994 65.6032 85.4431 65.2761C84.949 64.922 84.7874 64.4665 85.0276 63.9989C85.5277 63.028 86.333 62.3723 87.3347 61.9675C87.7925 61.7823 88.2957 61.7001 88.7807 61.5821C89.0224 61.5239 89.2777 61.5119 89.5165 61.4432C90.0861 61.2789 90.4532 60.9294 90.6043 60.3334C90.766 59.6911 90.7342 59.0637 90.6511 58.4184C90.5877 57.924 90.8264 57.7014 91.3431 57.6671C92.2436 57.6058 92.6908 57.9479 92.777 58.7933C92.8072 59.0876 92.7815 59.3864 92.7815 59.6836C92.8193 59.6941 92.8586 59.7015 92.8978 59.7105Z" fill="#F9F8F4"/>
</g>
<defs>
<clipPath id="clip0">
<rect width="47.3333" height="74" fill="white" transform="translate(68.6641 55.1582)"/>
</clipPath>
</defs>
</svg>
