<svg width="184" height="185" viewBox="0 0 184 185" fill="none" xmlns="http://www.w3.org/2000/svg">
<rect y="0.786133" width="184" height="184" rx="3" fill="#090909"/>
<path d="M53.1077 100.784C57.5691 100.784 61.1859 97.1686 61.1859 92.7092C61.1859 88.2498 57.5691 84.6347 53.1077 84.6347C48.6463 84.6347 45.0295 88.2498 45.0295 92.7092C45.0295 97.1686 48.6463 100.784 53.1077 100.784Z" fill="white"/>
<path opacity="0.7" d="M130.577 100.783C135.039 100.783 138.655 97.1682 138.655 92.7088C138.655 88.2494 135.039 84.6343 130.577 84.6343C126.116 84.6343 122.499 88.2494 122.499 92.7088C122.499 97.1682 126.116 100.783 130.577 100.783Z" fill="white"/>
<path opacity="0.7" d="M71.3933 85.1114L62.7927 100.003C62.6724 100.213 62.8232 100.473 63.0638 100.473H80.2667C80.509 100.473 80.6598 100.211 80.5377 100.003L71.9372 85.1114C71.8169 84.9033 71.5153 84.9033 71.3933 85.1114Z" fill="white"/>
<path d="M111.784 85.1114L103.183 100.003C103.063 100.213 103.214 100.473 103.454 100.473H120.657C120.9 100.473 121.05 100.211 120.928 100.003L112.328 85.1114C112.207 84.9033 111.904 84.9033 111.784 85.1114Z" fill="white"/>
<path opacity="0.7" d="M98.5697 100.464H83.8998V85.8206C83.8998 85.3917 84.4186 85.1764 84.7238 85.4796L98.9126 99.6405C99.2142 99.9438 98.9988 100.464 98.5697 100.464Z" fill="white"/>
<path d="M83.8998 100.469V85.1259C83.8998 84.8603 84.1152 84.6432 84.3827 84.6432H98.5715C99.0006 84.6432 99.216 85.1618 98.9126 85.4668L83.8998 100.469Z" fill="white"/>
</svg>
