<svg width="184" height="185" viewBox="0 0 184 185" fill="none" xmlns="http://www.w3.org/2000/svg">
<rect y="0.786133" width="184" height="184" rx="3" fill="#0C0C0C"/>
<path d="M53.1094 100.784C57.5709 100.784 61.1876 97.1687 61.1876 92.7093C61.1876 88.2498 57.5709 84.6348 53.1094 84.6348C48.648 84.6348 45.0312 88.2498 45.0312 92.7093C45.0312 97.1687 48.648 100.784 53.1094 100.784Z" fill="white"/>
<path opacity="0.7" d="M130.578 100.784C135.04 100.784 138.656 97.1687 138.656 92.7093C138.656 88.2498 135.04 84.6348 130.578 84.6348C126.117 84.6348 122.5 88.2498 122.5 92.7093C122.5 97.1687 126.117 100.784 130.578 100.784Z" fill="white"/>
<path opacity="0.7" d="M71.3967 85.1122L62.7962 100.003C62.6759 100.213 62.8267 100.473 63.0672 100.473H80.2701C80.5125 100.473 80.6633 100.211 80.5412 100.003L71.9407 85.1122C71.8204 84.904 71.5188 84.904 71.3967 85.1122Z" fill="white"/>
<path d="M111.787 85.1122L103.187 100.003C103.067 100.213 103.217 100.473 103.458 100.473H120.661C120.903 100.473 121.054 100.211 120.932 100.003L112.331 85.1122C112.211 84.904 111.908 84.904 111.787 85.1122Z" fill="white"/>
<path opacity="0.7" d="M98.5723 100.464H83.9023V85.8206C83.9023 85.3918 84.4211 85.1765 84.7263 85.4797L98.9152 99.6406C99.2167 99.9438 99.0013 100.464 98.5723 100.464Z" fill="white"/>
<path d="M83.9023 100.47V85.1262C83.9023 84.8607 84.1178 84.6436 84.3852 84.6436H98.5741C99.0031 84.6436 99.2185 85.1621 98.9152 85.4672L83.9023 100.47Z" fill="white"/>
</svg>
