<svg width="157" height="157" viewBox="0 0 157 157" fill="none" xmlns="http://www.w3.org/2000/svg">
<rect width="157" height="157" rx="4.81595" fill="#FAFAFA"/>
<path d="M27.1439 92.3655H25.9436L29.4152 101.82H30.597L34.0686 92.3655H32.8683L30.0615 100.324H29.9507L27.1439 92.3655ZM37.874 101.968C39.7945 101.968 41.0871 100.509 41.0871 98.3115C41.0871 96.0956 39.7945 94.6368 37.874 94.6368C35.9536 94.6368 34.661 96.0956 34.661 98.3115C34.661 100.509 35.9536 101.968 37.874 101.968ZM37.874 100.989C36.4152 100.989 35.7505 99.7334 35.7505 98.3115C35.7505 96.8897 36.4152 95.6155 37.874 95.6155C39.3329 95.6155 39.9976 96.8897 39.9976 98.3115C39.9976 99.7334 39.3329 100.989 37.874 100.989ZM43.0102 101.82H44.0997V94.7292H43.0102V101.82ZM43.5642 93.5473C43.9889 93.5473 44.3397 93.215 44.3397 92.8087C44.3397 92.4025 43.9889 92.0701 43.5642 92.0701C43.1395 92.0701 42.7886 92.4025 42.7886 92.8087C42.7886 93.215 43.1395 93.5473 43.5642 93.5473ZM49.2358 101.968C50.8054 101.968 51.8395 101.008 52.0242 99.7519H50.9347C50.7316 100.527 50.0853 100.989 49.2358 100.989C47.9432 100.989 47.1123 99.9181 47.1123 98.2746C47.1123 96.6681 47.9617 95.6155 49.2358 95.6155C50.1961 95.6155 50.7685 96.2064 50.9347 96.8527H52.0242C51.8395 95.5232 50.7131 94.6368 49.2174 94.6368C47.2969 94.6368 46.0228 96.151 46.0228 98.3115C46.0228 100.435 47.2415 101.968 49.2358 101.968ZM56.8499 101.968C58.2902 101.968 59.3428 101.248 59.6752 100.177L58.6226 99.8811C58.3456 100.62 57.7039 100.989 56.8499 100.989C55.5711 100.989 54.6894 100.163 54.6386 98.6439H59.786V98.1823C59.786 95.5417 58.2164 94.6368 56.7391 94.6368C54.8186 94.6368 53.5445 96.151 53.5445 98.33C53.5445 100.509 54.8002 101.968 56.8499 101.968ZM54.6386 97.7022C54.7125 96.5988 55.4926 95.6155 56.7391 95.6155C57.9209 95.6155 58.678 96.5019 58.678 97.7022H54.6386ZM73.3752 95.3201C73.0244 93.3811 71.4732 92.2363 69.5712 92.2363C67.1522 92.2363 65.3979 94.1013 65.3979 97.0928C65.3979 100.084 67.1522 101.949 69.5712 101.949C71.4732 101.949 73.0244 100.804 73.3752 98.8655H72.2303C71.9533 100.177 70.8269 100.878 69.5712 100.878C67.8539 100.878 66.5059 99.5488 66.5059 97.0928C66.5059 94.6368 67.8539 93.3073 69.5712 93.3073C70.8269 93.3073 71.9533 94.009 72.2303 95.3201H73.3752ZM78.2182 101.968C80.1387 101.968 81.4313 100.509 81.4313 98.3115C81.4313 96.0956 80.1387 94.6368 78.2182 94.6368C76.2978 94.6368 75.0052 96.0956 75.0052 98.3115C75.0052 100.509 76.2978 101.968 78.2182 101.968ZM78.2182 100.989C76.7594 100.989 76.0946 99.7334 76.0946 98.3115C76.0946 96.8897 76.7594 95.6155 78.2182 95.6155C79.677 95.6155 80.3418 96.8897 80.3418 98.3115C80.3418 99.7334 79.677 100.989 78.2182 100.989ZM84.4439 97.5544C84.4439 96.3172 85.2102 95.6155 86.2535 95.6155C87.2645 95.6155 87.8785 96.2757 87.8785 97.3883V101.82H88.968V97.3144C88.968 95.5047 88.0032 94.6368 86.5675 94.6368C85.4964 94.6368 84.8317 95.1169 84.4993 95.8371H84.4069V94.7292H83.3544V101.82H84.4439V97.5544ZM94.3027 94.7292H92.7885V93.0303H91.699V94.7292H90.628V95.6525H91.699V100.084C91.699 101.321 92.6961 101.912 93.6194 101.912C94.0257 101.912 94.2842 101.839 94.4319 101.783L94.2103 100.804C94.118 100.823 93.9703 100.86 93.7302 100.86C93.2501 100.86 92.7885 100.712 92.7885 99.7888V95.6525H94.3027V94.7292ZM96.2015 101.82H97.291V97.3329C97.291 96.3726 98.0481 95.6709 99.0822 95.6709C99.373 95.6709 99.6731 95.7263 99.747 95.7448V94.6368C99.6223 94.6276 99.3361 94.6184 99.1745 94.6184C98.3251 94.6184 97.5865 95.0985 97.3279 95.8002H97.2541V94.7292H96.2015V101.82ZM103.963 101.968C105.884 101.968 107.176 100.509 107.176 98.3115C107.176 96.0956 105.884 94.6368 103.963 94.6368C102.043 94.6368 100.75 96.0956 100.75 98.3115C100.75 100.509 102.043 101.968 103.963 101.968ZM103.963 100.989C102.504 100.989 101.84 99.7334 101.84 98.3115C101.84 96.8897 102.504 95.6155 103.963 95.6155C105.422 95.6155 106.087 96.8897 106.087 98.3115C106.087 99.7334 105.422 100.989 103.963 100.989ZM110.189 92.3655H109.099V101.82H110.189V92.3655ZM113.534 92.3655H112.444V101.82H113.534V92.3655ZM118.762 101.968C120.203 101.968 121.255 101.248 121.588 100.177L120.535 99.8811C120.258 100.62 119.616 100.989 118.762 100.989C117.484 100.989 116.602 100.163 116.551 98.6439H121.698V98.1823C121.698 95.5417 120.129 94.6368 118.652 94.6368C116.731 94.6368 115.457 96.151 115.457 98.33C115.457 100.509 116.713 101.968 118.762 101.968ZM116.551 97.7022C116.625 96.5988 117.405 95.6155 118.652 95.6155C119.833 95.6155 120.591 96.5019 120.591 97.7022H116.551ZM126.293 101.968C127.66 101.968 128.121 101.118 128.362 100.731H128.491V101.82H129.543V92.3655H128.454V95.8556H128.362C128.121 95.4863 127.697 94.6368 126.312 94.6368C124.521 94.6368 123.283 96.0587 123.283 98.2931C123.283 100.546 124.521 101.968 126.293 101.968ZM126.441 100.989C125.075 100.989 124.373 99.7888 124.373 98.2746C124.373 96.7789 125.056 95.6155 126.441 95.6155C127.771 95.6155 128.472 96.6865 128.472 98.2746C128.472 99.8811 127.752 100.989 126.441 100.989Z" fill="black"/>
<path d="M62.709 59.3637L64.9398 52.6712C63.0118 49.8196 62.3143 46.4427 62.9771 43.1684C63.6398 39.894 65.6178 36.945 68.5431 34.8696C71.4684 32.7942 75.1421 31.7338 78.881 31.8854C82.6199 32.037 86.1697 33.3903 88.8703 35.6938C91.5709 37.9972 93.2386 41.0941 93.5633 44.4085C93.888 47.7229 92.8475 51.0294 90.6354 53.7131C88.4233 56.3967 85.1901 58.2751 81.5369 58.9988C77.8837 59.7225 74.0591 59.2424 70.7743 57.6477L62.709 59.3637" stroke="#FF8A00" stroke-width="2.05923" stroke-linecap="round" stroke-linejoin="round"/>
<path d="M78.1523 45.6353V45.653" stroke="#FF8A00" stroke-width="4.11847" stroke-linecap="round" stroke-linejoin="round"/>
<path d="M71.2891 45.6353V45.6619" stroke="#FF8A00" stroke-width="4.11847" stroke-linecap="round" stroke-linejoin="round"/>
<path d="M85.0156 45.6353V45.653" stroke="#FF8A00" stroke-width="4.11847" stroke-linecap="round" stroke-linejoin="round"/>
</svg>
