<svg width="158" height="159" viewBox="0 0 158 159" fill="none" xmlns="http://www.w3.org/2000/svg">
<rect y="0.5" width="158" height="158" rx="4.84663" fill="#FAFAFA"/>
<path d="M28.6325 104.973H29.7774V101.52H31.8456C34.0476 101.52 35.0402 100.181 35.0402 98.5101C35.0402 96.8389 34.0476 95.5186 31.8271 95.5186H28.6325V104.973ZM29.7774 100.504V96.5342H31.7902C33.3274 96.5342 33.9137 97.3744 33.9137 98.5101C33.9137 99.6457 33.3274 100.504 31.8086 100.504H29.7774ZM38.0862 100.708C38.0862 99.4703 38.8756 98.7686 39.9513 98.7686C40.9761 98.7686 41.5947 99.4149 41.5947 100.541V104.973H42.6842V100.467C42.6842 98.644 41.7148 97.7899 40.2652 97.7899C39.148 97.7899 38.5109 98.2562 38.1785 98.9902H38.0862V95.5186H36.9967V104.973H38.0862V100.708ZM47.8181 105.121C49.7385 105.121 51.0311 103.662 51.0311 101.465C51.0311 99.2487 49.7385 97.7899 47.8181 97.7899C45.8976 97.7899 44.605 99.2487 44.605 101.465C44.605 103.662 45.8976 105.121 47.8181 105.121ZM47.8181 104.142C46.3593 104.142 45.6945 102.886 45.6945 101.465C45.6945 100.043 46.3593 98.7686 47.8181 98.7686C49.2769 98.7686 49.9416 100.043 49.9416 101.465C49.9416 102.886 49.2769 104.142 47.8181 104.142ZM54.0437 100.708C54.0437 99.4703 54.81 98.7686 55.8534 98.7686C56.8644 98.7686 57.4784 99.4288 57.4784 100.541V104.973H58.5679V100.467C58.5679 98.6578 57.603 97.7899 56.1673 97.7899C55.0963 97.7899 54.4315 98.27 54.0991 98.9902H54.0068V97.8822H52.9542V104.973H54.0437V100.708ZM63.7917 105.121C65.2321 105.121 66.2846 104.401 66.617 103.33L65.5645 103.034C65.2875 103.773 64.6458 104.142 63.7917 104.142C62.513 104.142 61.6312 103.316 61.5804 101.797H66.7278V101.335C66.7278 98.6947 65.1582 97.7899 63.6809 97.7899C61.7605 97.7899 60.4863 99.3041 60.4863 101.483C60.4863 103.662 61.742 105.121 63.7917 105.121ZM61.5804 100.855C61.6543 99.7519 62.4345 98.7686 63.6809 98.7686C64.8627 98.7686 65.6198 99.655 65.6198 100.855H61.5804ZM72.7091 104.973H76.1253C78.3597 104.973 79.283 103.884 79.283 102.462C79.283 100.966 78.2489 100.154 77.381 100.098V100.006C78.1935 99.7842 78.9136 99.2487 78.9136 98.03C78.9136 96.645 77.9903 95.5186 76.0145 95.5186H72.7091V104.973ZM73.854 103.958V100.671H76.1807C77.4179 100.671 78.1935 101.502 78.1935 102.462C78.1935 103.293 77.621 103.958 76.1253 103.958H73.854ZM73.854 99.6734V96.5342H76.0145C77.2702 96.5342 77.8242 97.199 77.8242 98.03C77.8242 99.0271 77.0117 99.6734 75.9776 99.6734H73.854ZM83.3631 105.139C84.6003 105.139 85.2466 104.475 85.4682 104.013H85.5236V104.973H86.6131V100.301C86.6131 98.0484 84.8958 97.7899 83.9909 97.7899C82.9199 97.7899 81.7012 98.1592 81.1472 99.4518L82.1813 99.8212C82.4213 99.3041 82.9892 98.7501 84.0279 98.7501C85.0296 98.7501 85.5236 99.281 85.5236 100.19V100.227C85.5236 100.754 84.9881 100.708 83.6955 100.874C82.3798 101.045 80.9441 101.335 80.9441 102.96C80.9441 104.345 82.0151 105.139 83.3631 105.139ZM83.5293 104.161C82.6614 104.161 82.0335 103.773 82.0335 103.016C82.0335 102.185 82.7906 101.926 83.6401 101.815C84.1017 101.76 85.3389 101.631 85.5236 101.409V102.406C85.5236 103.293 84.8219 104.161 83.5293 104.161ZM91.7423 105.121C93.3119 105.121 94.346 104.161 94.5307 102.905H93.4412C93.2381 103.681 92.5918 104.142 91.7423 104.142C90.4497 104.142 89.6187 103.071 89.6187 101.428C89.6187 99.8212 90.4682 98.7686 91.7423 98.7686C92.7026 98.7686 93.275 99.3595 93.4412 100.006H94.5307C94.346 98.6763 93.2196 97.7899 91.7239 97.7899C89.8034 97.7899 88.5293 99.3041 88.5293 101.465C88.5293 103.588 89.748 105.121 91.7423 105.121ZM96.3834 104.973H97.4728V102.319L98.2346 101.612L100.889 104.973H102.274L99.0563 100.911L102.052 97.8822H100.704L97.6021 101.04H97.4728V95.5186H96.3834V104.973ZM104.804 95.5186H103.715V104.973H104.804V95.5186ZM107.06 104.973H108.149V97.8822H107.06V104.973ZM107.614 96.7004C108.038 96.7004 108.389 96.368 108.389 95.9618C108.389 95.5555 108.038 95.2231 107.614 95.2231C107.189 95.2231 106.838 95.5555 106.838 95.9618C106.838 96.368 107.189 96.7004 107.614 96.7004ZM113.267 107.78C114.966 107.78 116.332 107.004 116.332 105.176V97.8822H115.28V99.0087H115.169C114.929 98.6393 114.486 97.7899 113.101 97.7899C111.309 97.7899 110.072 99.2118 110.072 101.391C110.072 103.607 111.365 104.862 113.082 104.862C114.467 104.862 114.91 104.05 115.15 103.662H115.243V105.102C115.243 106.284 114.412 106.82 113.267 106.82C111.979 106.82 111.526 106.141 111.236 105.749L110.368 106.358C110.811 107.101 111.683 107.78 113.267 107.78ZM113.23 103.884C111.863 103.884 111.162 102.85 111.162 101.372C111.162 99.932 111.845 98.7686 113.23 98.7686C114.559 98.7686 115.261 99.8396 115.261 101.372C115.261 102.942 114.541 103.884 113.23 103.884ZM119.676 100.708C119.676 99.4703 120.465 98.7686 121.541 98.7686C122.566 98.7686 123.184 99.4149 123.184 100.541V104.973H124.274V100.467C124.274 98.644 123.304 97.7899 121.855 97.7899C120.738 97.7899 120.101 98.2562 119.768 98.9902H119.676V95.5186H118.586V104.973H119.676V100.708ZM129.611 97.8822H128.097V96.1834H127.007V97.8822H125.936V98.8055H127.007V103.237C127.007 104.475 128.004 105.065 128.928 105.065C129.334 105.065 129.592 104.992 129.74 104.936L129.519 103.958C129.426 103.976 129.279 104.013 129.038 104.013C128.558 104.013 128.097 103.865 128.097 102.942V98.8055H129.611V97.8822ZM60.787 121.246C60.787 118.254 59.0327 116.389 56.6137 116.389C54.1946 116.389 52.4404 118.254 52.4404 121.246C52.4404 124.237 54.1946 126.102 56.6137 126.102C59.0327 126.102 60.787 124.237 60.787 121.246ZM59.679 121.246C59.679 123.702 58.331 125.031 56.6137 125.031C54.8963 125.031 53.5483 123.702 53.5483 121.246C53.5483 118.79 54.8963 117.46 56.6137 117.46C58.331 117.46 59.679 118.79 59.679 121.246ZM68.6226 118.882H67.4408L65.4834 124.533H65.4095L63.4522 118.882H62.2703L64.8925 125.973H66.0005L68.6226 118.882ZM73.0398 126.121C74.4801 126.121 75.5326 125.401 75.865 124.33L74.8125 124.034C74.5355 124.773 73.8938 125.142 73.0398 125.142C71.761 125.142 70.8792 124.316 70.8285 122.797H75.9758V122.335C75.9758 119.695 74.4062 118.79 72.929 118.79C71.0085 118.79 69.7344 120.304 69.7344 122.483C69.7344 124.662 70.99 126.121 73.0398 126.121ZM70.8285 121.855C70.9023 120.752 71.6825 119.769 72.929 119.769C74.1108 119.769 74.8679 120.655 74.8679 121.855H70.8285ZM77.8931 125.973H78.9826V121.486C78.9826 120.526 79.7397 119.824 80.7738 119.824C81.0647 119.824 81.3647 119.879 81.4386 119.898V118.79C81.314 118.781 81.0277 118.771 80.8662 118.771C80.0167 118.771 79.2781 119.252 79.0196 119.953H78.9457V118.882H77.8931V125.973ZM82.9901 125.973H84.0796V121.486C84.0796 120.526 84.8367 119.824 85.8707 119.824C86.1616 119.824 86.4617 119.879 86.5355 119.898V118.79C86.4109 118.781 86.1247 118.771 85.9631 118.771C85.1136 118.771 84.375 119.252 84.1165 119.953H84.0426V118.882H82.9901V125.973ZM88.087 125.973H89.1765V118.882H88.087V125.973ZM88.6409 117.7C89.0657 117.7 89.4165 117.368 89.4165 116.962C89.4165 116.556 89.0657 116.223 88.6409 116.223C88.2162 116.223 87.8654 116.556 87.8654 116.962C87.8654 117.368 88.2162 117.7 88.6409 117.7ZM94.1095 126.121C95.476 126.121 95.9376 125.271 96.1777 124.884H96.3069V125.973H97.3595V116.519H96.27V120.009H96.1777C95.9376 119.639 95.5129 118.79 94.128 118.79C92.3368 118.79 91.0995 120.212 91.0995 122.446C91.0995 124.699 92.3368 126.121 94.1095 126.121ZM94.2572 125.142C92.8907 125.142 92.189 123.942 92.189 122.428C92.189 120.932 92.8723 119.769 94.2572 119.769C95.5868 119.769 96.2885 120.84 96.2885 122.428C96.2885 124.034 95.5683 125.142 94.2572 125.142ZM102.739 126.121C104.18 126.121 105.232 125.401 105.564 124.33L104.512 124.034C104.235 124.773 103.593 125.142 102.739 125.142C101.46 125.142 100.579 124.316 100.528 122.797H105.675V122.335C105.675 119.695 104.106 118.79 102.628 118.79C100.708 118.79 99.4338 120.304 99.4338 122.483C99.4338 124.662 100.689 126.121 102.739 126.121ZM100.528 121.855C100.602 120.752 101.382 119.769 102.628 119.769C103.81 119.769 104.567 120.655 104.567 121.855H100.528Z" fill="black"/>
<path d="M85.8571 32.6104H72.0414C71.0876 32.6104 70.3145 33.3835 70.3145 34.3373V58.5147C70.3145 59.4685 71.0876 60.2417 72.0414 60.2417H85.8571C86.8109 60.2417 87.584 59.4685 87.584 58.5147V34.3373C87.584 33.3835 86.8109 32.6104 85.8571 32.6104Z" stroke="#FF8A00" stroke-width="2.07235" stroke-linecap="round" stroke-linejoin="round"/>
<path d="M77.2246 33.3008H80.6785" stroke="#FF8A00" stroke-width="2.07235" stroke-linecap="round" stroke-linejoin="round"/>
<path d="M78.9492 55.0608V55.0785" stroke="#FF8A00" stroke-width="2.07235" stroke-linecap="round" stroke-linejoin="round"/>
</svg>
