<svg width="157" height="157" viewBox="0 0 157 157" fill="none" xmlns="http://www.w3.org/2000/svg">
<rect width="157" height="157" rx="4.81595" fill="#FAFAFA"/>
<path d="M25.4332 95.3809H28.4062V103.82H29.551V95.3809H32.5241V94.3653H25.4332V95.3809ZM34.4033 103.82H35.4928V96.7289H34.4033V103.82ZM34.9573 95.5471C35.382 95.5471 35.7328 95.2147 35.7328 94.8085C35.7328 94.4022 35.382 94.0698 34.9573 94.0698C34.5326 94.0698 34.1817 94.4022 34.1817 94.8085C34.1817 95.2147 34.5326 95.5471 34.9573 95.5471ZM37.7483 103.82H38.8377V99.388C38.8377 98.3493 39.5948 97.6153 40.4443 97.6153C41.2706 97.6153 41.8477 98.1554 41.8477 98.9633V103.82H42.9556V99.2033C42.9556 98.2893 43.5281 97.6153 44.5252 97.6153C45.3008 97.6153 45.9656 98.0261 45.9656 99.0741V103.82H47.0551V99.0741C47.0551 97.4075 46.1595 96.6366 44.8946 96.6366C43.8789 96.6366 43.1357 97.1028 42.771 97.8369H42.6971C42.3463 97.0798 41.7277 96.6366 40.7951 96.6366C39.8718 96.6366 39.1886 97.0798 38.8931 97.8369H38.8008V96.7289H37.7483V103.82ZM52.2801 103.968C53.7204 103.968 54.773 103.247 55.1054 102.176L54.0528 101.881C53.7758 102.62 53.1341 102.989 52.2801 102.989C51.0013 102.989 50.1196 102.163 50.0688 100.644H55.2162V100.182C55.2162 97.5414 53.6466 96.6366 52.1693 96.6366C50.2488 96.6366 48.9747 98.1508 48.9747 100.33C48.9747 102.509 50.2304 103.968 52.2801 103.968ZM50.0688 99.7019C50.1427 98.5986 50.9228 97.6153 52.1693 97.6153C53.3511 97.6153 54.1082 98.5016 54.1082 99.7019H50.0688ZM57.1335 103.82H58.223V99.3326C58.223 98.3724 58.9801 97.6707 60.0142 97.6707C60.305 97.6707 60.6051 97.7261 60.6789 97.7445V96.6366C60.5543 96.6274 60.2681 96.6181 60.1065 96.6181C59.2571 96.6181 58.5184 97.0982 58.2599 97.7999H58.186V96.7289H57.1335V103.82ZM69.3043 96.7289H67.7163V96.0087C67.7163 95.307 68.0117 94.9377 68.7319 94.9377C69.0458 94.9377 69.2305 95.0116 69.3413 95.0485L69.6552 94.1068C69.489 94.0329 69.1566 93.9221 68.6211 93.9221C67.6055 93.9221 66.6268 94.5315 66.6268 95.7502V96.7289H65.4819V97.6522H66.6268V103.82H67.7163V97.6522H69.3043V96.7289ZM73.6799 103.968C75.6004 103.968 76.893 102.509 76.893 100.311C76.893 98.0954 75.6004 96.6366 73.6799 96.6366C71.7595 96.6366 70.4668 98.0954 70.4668 100.311C70.4668 102.509 71.7595 103.968 73.6799 103.968ZM73.6799 102.989C72.2211 102.989 71.5563 101.733 71.5563 100.311C71.5563 98.8894 72.2211 97.6153 73.6799 97.6153C75.1387 97.6153 75.8035 98.8894 75.8035 100.311C75.8035 101.733 75.1387 102.989 73.6799 102.989ZM78.8161 103.82H79.9056V99.3326C79.9056 98.3724 80.6627 97.6707 81.6967 97.6707C81.9876 97.6707 82.2877 97.7261 82.3615 97.7445V96.6366C82.2369 96.6274 81.9507 96.6181 81.7891 96.6181C80.9396 96.6181 80.201 97.0982 79.9425 97.7999H79.8686V96.7289H78.8161V103.82ZM90.7099 103.968C92.2795 103.968 93.3136 103.007 93.4983 101.752H92.4088C92.2056 102.527 91.5593 102.989 90.7099 102.989C89.4173 102.989 88.5863 101.918 88.5863 100.274C88.5863 98.6678 89.4358 97.6153 90.7099 97.6153C91.6701 97.6153 92.2426 98.2062 92.4088 98.8525H93.4983C93.3136 97.5229 92.1872 96.6366 90.6914 96.6366C88.771 96.6366 87.4968 98.1508 87.4968 100.311C87.4968 102.435 88.7156 103.968 90.7099 103.968ZM98.324 103.968C99.7643 103.968 100.817 103.247 101.149 102.176L100.097 101.881C99.8197 102.62 99.178 102.989 98.324 102.989C97.0452 102.989 96.1634 102.163 96.1127 100.644H101.26V100.182C101.26 97.5414 99.6904 96.6366 98.2132 96.6366C96.2927 96.6366 95.0186 98.1508 95.0186 100.33C95.0186 102.509 96.2742 103.968 98.324 103.968ZM96.1127 99.7019C96.1865 98.5986 96.9667 97.6153 98.2132 97.6153C99.395 97.6153 100.152 98.5016 100.152 99.7019H96.1127ZM103.177 103.82H104.267V99.3326C104.267 98.3724 105.024 97.6707 106.058 97.6707C106.349 97.6707 106.649 97.7261 106.723 97.7445V96.6366C106.598 96.6274 106.312 96.6181 106.15 96.6181C105.301 96.6181 104.562 97.0982 104.304 97.7999H104.23V96.7289H103.177V103.82ZM111.802 96.7289H110.288V95.0301H109.199V96.7289H108.128V97.6522H109.199V102.084C109.199 103.321 110.196 103.912 111.119 103.912C111.525 103.912 111.784 103.838 111.932 103.783L111.71 102.804C111.618 102.823 111.47 102.86 111.23 102.86C110.75 102.86 110.288 102.712 110.288 101.789V97.6522H111.802V96.7289ZM115.788 103.986C117.025 103.986 117.671 103.321 117.893 102.86H117.948V103.82H119.038V99.1479C119.038 96.8951 117.321 96.6366 116.416 96.6366C115.345 96.6366 114.126 97.0059 113.572 98.2985L114.606 98.6678C114.846 98.1508 115.414 97.5968 116.453 97.5968C117.454 97.5968 117.948 98.1277 117.948 99.0372V99.0741C117.948 99.6004 117.413 99.5542 116.12 99.7204C114.805 99.8912 113.369 100.182 113.369 101.807C113.369 103.192 114.44 103.986 115.788 103.986ZM115.954 103.007C115.086 103.007 114.458 102.62 114.458 101.862C114.458 101.031 115.215 100.773 116.065 100.662C116.527 100.607 117.764 100.477 117.948 100.256V101.253C117.948 102.139 117.247 103.007 115.954 103.007ZM121.286 103.82H122.376V96.7289H121.286V103.82ZM121.84 95.5471C122.265 95.5471 122.616 95.2147 122.616 94.8085C122.616 94.4022 122.265 94.0698 121.84 94.0698C121.416 94.0698 121.065 94.4022 121.065 94.8085C121.065 95.2147 121.416 95.5471 121.84 95.5471ZM125.721 99.5542C125.721 98.317 126.487 97.6153 127.531 97.6153C128.542 97.6153 129.156 98.2754 129.156 99.388V103.82H130.245V99.3141C130.245 97.5045 129.28 96.6366 127.844 96.6366C126.773 96.6366 126.109 97.1167 125.776 97.8369H125.684V96.7289H124.631V103.82H125.721V99.5542ZM66.7925 119.317C66.4509 118.311 65.6846 117.637 64.2812 117.637C62.7854 117.637 61.6775 118.486 61.6775 119.686C61.6775 120.665 62.2592 121.321 63.561 121.625L64.7428 121.902C65.4584 122.068 65.7954 122.41 65.7954 122.899C65.7954 123.509 65.1491 124.007 64.1334 124.007C63.2425 124.007 62.6839 123.624 62.49 122.862L61.4559 123.121C61.7098 124.326 62.7023 124.968 64.1519 124.968C65.8 124.968 66.9218 124.067 66.9218 122.844C66.9218 121.856 66.3032 121.233 65.0383 120.924L63.9857 120.665C63.1455 120.457 62.767 120.176 62.767 119.631C62.767 119.022 63.4133 118.578 64.2812 118.578C65.2322 118.578 65.6246 119.105 65.8138 119.594L66.7925 119.317ZM71.9056 117.729H70.3914V116.03H69.3019V117.729H68.2309V118.652H69.3019V123.084C69.3019 124.321 70.2991 124.912 71.2224 124.912C71.6286 124.912 71.8871 124.838 72.0349 124.783L71.8133 123.804C71.721 123.823 71.5732 123.86 71.3332 123.86C70.8531 123.86 70.3914 123.712 70.3914 122.789V118.652H71.9056V117.729ZM76.7013 124.968C78.1416 124.968 79.1942 124.247 79.5266 123.176L78.474 122.881C78.197 123.62 77.5553 123.989 76.7013 123.989C75.4225 123.989 74.5408 123.163 74.49 121.644H79.6374V121.182C79.6374 118.541 78.0678 117.637 76.5905 117.637C74.67 117.637 73.3959 119.151 73.3959 121.33C73.3959 123.509 74.6516 124.968 76.7013 124.968ZM74.49 120.702C74.5639 119.599 75.3441 118.615 76.5905 118.615C77.7723 118.615 78.5294 119.502 78.5294 120.702H74.49ZM81.5547 127.479H82.6442V123.73H82.7365C82.9766 124.118 83.4382 124.968 84.8047 124.968C86.5774 124.968 87.8146 123.546 87.8146 121.293C87.8146 119.058 86.5774 117.637 84.7862 117.637C83.4013 117.637 82.9766 118.486 82.7365 118.855H82.6072V117.729H81.5547V127.479ZM82.6257 121.274C82.6257 119.686 83.3274 118.615 84.657 118.615C86.0419 118.615 86.7251 119.779 86.7251 121.274C86.7251 122.789 86.0234 123.989 84.657 123.989C83.3459 123.989 82.6257 122.881 82.6257 121.274ZM94.7593 119.317C94.4177 118.311 93.6513 117.637 92.2479 117.637C90.7522 117.637 89.6442 118.486 89.6442 119.686C89.6442 120.665 90.2259 121.321 91.5278 121.625L92.7096 121.902C93.4251 122.068 93.7621 122.41 93.7621 122.899C93.7621 123.509 93.1158 124.007 92.1002 124.007C91.2092 124.007 90.6506 123.624 90.4567 122.862L89.4226 123.121C89.6766 124.326 90.6691 124.968 92.1187 124.968C93.7668 124.968 94.8886 124.067 94.8886 122.844C94.8886 121.856 94.27 121.233 93.005 120.924L91.9525 120.665C91.1123 120.457 90.7337 120.176 90.7337 119.631C90.7337 119.022 91.38 118.578 92.2479 118.578C93.1989 118.578 93.5913 119.105 93.7806 119.594L94.7593 119.317Z" fill="black"/>
<path d="M78.1532 61.0794C86.6829 61.0794 93.5975 54.1648 93.5975 45.6352C93.5975 37.1055 86.6829 30.1909 78.1532 30.1909C69.6236 30.1909 62.709 37.1055 62.709 45.6352C62.709 54.1648 69.6236 61.0794 78.1532 61.0794Z" stroke="#FF8A00" stroke-width="2.05923" stroke-linecap="round" stroke-linejoin="round"/>
<path d="M78.1523 37.0552V45.6353L83.3004 50.7834" stroke="#FF8A00" stroke-width="2.05923" stroke-linecap="round" stroke-linejoin="round"/>
</svg>
