<svg width="158" height="159" viewBox="0 0 158 159" fill="none" xmlns="http://www.w3.org/2000/svg">
<rect y="0.5" width="158" height="158" rx="4.84663" fill="#FAFAFA"/>
<path d="M38.0664 101.079H39.1743C39.1235 99.6528 37.8078 98.5864 35.9797 98.5864C34.1701 98.5864 32.7482 99.6389 32.7482 101.227C32.7482 102.501 33.6715 103.258 35.1487 103.683L36.3121 104.015C37.3093 104.292 38.1956 104.643 38.1956 105.585C38.1956 106.619 37.1985 107.302 35.8874 107.302C34.761 107.302 33.7638 106.804 33.6715 105.733H32.4897C32.6005 107.284 33.8561 108.336 35.8874 108.336C38.0664 108.336 39.3036 107.136 39.3036 105.603C39.3036 103.831 37.6232 103.258 36.6445 103L35.6843 102.741C34.9826 102.557 33.8561 102.187 33.8561 101.172C33.8561 100.267 34.6871 99.602 35.9428 99.602C37.0877 99.602 37.9556 100.147 38.0664 101.079ZM42.3877 103.905C42.3877 102.667 43.1771 101.966 44.2528 101.966C45.2776 101.966 45.8962 102.612 45.8962 103.738V108.17H46.9857V103.664C46.9857 101.841 46.0163 100.987 44.5667 100.987C43.4495 100.987 42.8124 101.453 42.48 102.187H42.3877V98.7156H41.2982V108.17H42.3877V103.905ZM52.1196 108.318C54.04 108.318 55.3326 106.859 55.3326 104.662C55.3326 102.446 54.04 100.987 52.1196 100.987C50.1991 100.987 48.9065 102.446 48.9065 104.662C48.9065 106.859 50.1991 108.318 52.1196 108.318ZM52.1196 107.339C50.6608 107.339 49.996 106.084 49.996 104.662C49.996 103.24 50.6608 101.966 52.1196 101.966C53.5784 101.966 54.2431 103.24 54.2431 104.662C54.2431 106.084 53.5784 107.339 52.1196 107.339ZM57.2557 110.829H58.3452V107.081H58.4375C58.6776 107.468 59.1392 108.318 60.5057 108.318C62.2784 108.318 63.5157 106.896 63.5157 104.643C63.5157 102.409 62.2784 100.987 60.4873 100.987C59.1023 100.987 58.6776 101.836 58.4375 102.206H58.3083V101.079H57.2557V110.829ZM58.3267 104.625C58.3267 103.037 59.0284 101.966 60.358 101.966C61.7429 101.966 62.4262 103.129 62.4262 104.625C62.4262 106.139 61.7245 107.339 60.358 107.339C59.0469 107.339 58.3267 106.231 58.3267 104.625ZM65.4376 110.829H66.5271V107.081H66.6194C66.8595 107.468 67.3211 108.318 68.6876 108.318C70.4603 108.318 71.6975 106.896 71.6975 104.643C71.6975 102.409 70.4603 100.987 68.6691 100.987C67.2842 100.987 66.8595 101.836 66.6194 102.206H66.4901V101.079H65.4376V110.829ZM66.5086 104.625C66.5086 103.037 67.2103 101.966 68.5399 101.966C69.9248 101.966 70.608 103.129 70.608 104.625C70.608 106.139 69.9063 107.339 68.5399 107.339C67.2288 107.339 66.5086 106.231 66.5086 104.625ZM73.6195 108.17H74.709V101.079H73.6195V108.17ZM74.1734 99.8974C74.5982 99.8974 74.949 99.5651 74.949 99.1588C74.949 98.7526 74.5982 98.4202 74.1734 98.4202C73.7487 98.4202 73.3979 98.7526 73.3979 99.1588C73.3979 99.5651 73.7487 99.8974 74.1734 99.8974ZM78.0539 103.905C78.0539 102.667 78.8203 101.966 79.8636 101.966C80.8746 101.966 81.4886 102.626 81.4886 103.738V108.17H82.5781V103.664C82.5781 101.855 81.6132 100.987 80.1775 100.987C79.1065 100.987 78.4417 101.467 78.1093 102.187H78.017V101.079H76.9644V108.17H78.0539V103.905ZM87.6911 110.977C89.39 110.977 90.7565 110.201 90.7565 108.373V101.079H89.7039V102.206H89.5931C89.3531 101.836 88.9099 100.987 87.5249 100.987C85.7337 100.987 84.4965 102.409 84.4965 104.588C84.4965 106.804 85.7891 108.059 87.5065 108.059C88.8914 108.059 89.3346 107.247 89.5747 106.859H89.667V108.299C89.667 109.481 88.836 110.017 87.6911 110.017C86.4031 110.017 85.9507 109.338 85.6599 108.946L84.792 109.555C85.2352 110.298 86.1077 110.977 87.6911 110.977ZM87.6542 107.081C86.2877 107.081 85.586 106.047 85.586 104.569C85.586 103.129 86.2693 101.966 87.6542 101.966C88.9837 101.966 89.6854 103.037 89.6854 104.569C89.6854 106.139 88.9653 107.081 87.6542 107.081ZM97.0748 108.17H102.615V107.155H98.2197V98.7156H97.0748V108.17ZM104.5 108.17H105.589V101.079H104.5V108.17ZM105.054 99.8974C105.478 99.8974 105.829 99.5651 105.829 99.1588C105.829 98.7526 105.478 98.4202 105.054 98.4202C104.629 98.4202 104.278 98.7526 104.278 99.1588C104.278 99.5651 104.629 99.8974 105.054 99.8974ZM112.867 102.667C112.526 101.661 111.759 100.987 110.356 100.987C108.86 100.987 107.752 101.836 107.752 103.037C107.752 104.015 108.334 104.671 109.636 104.976L110.818 105.253C111.533 105.419 111.87 105.76 111.87 106.25C111.87 106.859 111.224 107.358 110.208 107.358C109.317 107.358 108.759 106.974 108.565 106.213L107.531 106.471C107.784 107.676 108.777 108.318 110.227 108.318C111.875 108.318 112.996 107.418 112.996 106.194C112.996 105.206 112.378 104.583 111.113 104.274L110.06 104.015C109.22 103.808 108.842 103.526 108.842 102.981C108.842 102.372 109.488 101.929 110.356 101.929C111.307 101.929 111.699 102.455 111.889 102.944L112.867 102.667ZM117.98 101.079H116.466V99.3804H115.377V101.079H114.306V102.003H115.377V106.434C115.377 107.672 116.374 108.262 117.297 108.262C117.703 108.262 117.962 108.189 118.11 108.133L117.888 107.155C117.796 107.173 117.648 107.21 117.408 107.21C116.928 107.21 116.466 107.062 116.466 106.139V102.003H117.98V101.079ZM124.775 102.667C124.433 101.661 123.667 100.987 122.264 100.987C120.768 100.987 119.66 101.836 119.66 103.037C119.66 104.015 120.242 104.671 121.543 104.976L122.725 105.253C123.441 105.419 123.778 105.76 123.778 106.25C123.778 106.859 123.131 107.358 122.116 107.358C121.225 107.358 120.666 106.974 120.472 106.213L119.438 106.471C119.692 107.676 120.685 108.318 122.134 108.318C123.782 108.318 124.904 107.418 124.904 106.194C124.904 105.206 124.286 104.583 123.021 104.274L121.968 104.015C121.128 103.808 120.749 103.526 120.749 102.981C120.749 102.372 121.396 101.929 122.264 101.929C123.215 101.929 123.607 102.455 123.796 102.944L124.775 102.667Z" fill="black"/>
<path d="M73.4676 67.9567C75.3751 67.9567 76.9215 66.4103 76.9215 64.5027C76.9215 62.5952 75.3751 61.0488 73.4676 61.0488C71.56 61.0488 70.0137 62.5952 70.0137 64.5027C70.0137 66.4103 71.56 67.9567 73.4676 67.9567Z" stroke="#FF8A00" stroke-width="2.07235" stroke-linecap="round" stroke-linejoin="round"/>
<path d="M87.284 67.9567C89.1915 67.9567 90.7379 66.4103 90.7379 64.5027C90.7379 62.5952 89.1915 61.0488 87.284 61.0488C85.3765 61.0488 83.8301 62.5952 83.8301 64.5027C83.8301 66.4103 85.3765 67.9567 87.284 67.9567Z" stroke="#FF8A00" stroke-width="2.07235" stroke-linecap="round" stroke-linejoin="round"/>
<path d="M63.1074 36.1807H66.5613L70.0153 56.9042C70.3878 57.9636 71.0945 58.8733 72.0289 59.4963C72.9634 60.1192 74.0749 60.4217 75.1961 60.3581H87.2848C88.4061 60.4217 89.5176 60.1192 90.452 59.4963C91.3865 58.8733 92.0932 57.9636 92.4657 56.9042L94.1927 44.8155H67.9429" stroke="#FF8A00" stroke-width="2.07235" stroke-linecap="round" stroke-linejoin="round"/>
</svg>
