<svg width="157" height="157" viewBox="0 0 157 157" fill="none" xmlns="http://www.w3.org/2000/svg">
<rect width="157" height="157" rx="4.81595" fill="#FAFAFA"/>
<path d="M34.7926 94.3655H33.5923L37.0639 103.82H38.2457L41.7173 94.3655H40.517L37.7102 102.324H37.5994L34.7926 94.3655ZM43.3022 103.82H44.3917V96.7292H43.3022V103.82ZM43.8562 95.5473C44.2809 95.5473 44.6317 95.215 44.6317 94.8087C44.6317 94.4025 44.2809 94.0701 43.8562 94.0701C43.4315 94.0701 43.0806 94.4025 43.0806 94.8087C43.0806 95.215 43.4315 95.5473 43.8562 95.5473ZM49.3247 103.968C50.6912 103.968 51.1528 103.118 51.3929 102.731H51.5222V103.82H52.5747V94.3655H51.4852V97.8556H51.3929C51.1528 97.4863 50.7281 96.6368 49.3432 96.6368C47.552 96.6368 46.3148 98.0587 46.3148 100.293C46.3148 102.546 47.552 103.968 49.3247 103.968ZM49.4724 102.989C48.106 102.989 47.4043 101.789 47.4043 100.275C47.4043 98.7789 48.0875 97.6155 49.4724 97.6155C50.802 97.6155 51.5037 98.6865 51.5037 100.275C51.5037 101.881 50.7835 102.989 49.4724 102.989ZM57.9544 103.968C59.3947 103.968 60.4473 103.248 60.7797 102.177L59.7271 101.881C59.4501 102.62 58.8084 102.989 57.9544 102.989C56.6756 102.989 55.7939 102.163 55.7431 100.644H60.8905V100.182C60.8905 97.5417 59.3209 96.6368 57.8436 96.6368C55.9231 96.6368 54.649 98.151 54.649 100.33C54.649 102.509 55.9047 103.968 57.9544 103.968ZM55.7431 99.7022C55.817 98.5988 56.5971 97.6155 57.8436 97.6155C59.0254 97.6155 59.7825 98.5019 59.7825 99.7022H55.7431ZM65.6885 103.968C67.6089 103.968 68.9015 102.509 68.9015 100.312C68.9015 98.0956 67.6089 96.6368 65.6885 96.6368C63.768 96.6368 62.4754 98.0956 62.4754 100.312C62.4754 102.509 63.768 103.968 65.6885 103.968ZM65.6885 102.989C64.2297 102.989 63.5649 101.733 63.5649 100.312C63.5649 98.8897 64.2297 97.6155 65.6885 97.6155C67.1473 97.6155 67.812 98.8897 67.812 100.312C67.812 101.733 67.1473 102.989 65.6885 102.989ZM77.5108 103.174H78.5448V100.644H81.0747V99.6098H78.5448V97.08H77.5108V99.6098H74.9809V100.644H77.5108V103.174ZM88.022 103.82L88.973 101.143H92.7954L93.7464 103.82H94.9467L91.4751 94.3655H90.2933L86.8217 103.82H88.022ZM89.333 100.127L90.8473 95.8613H90.9211L92.4353 100.127H89.333ZM101 100.921C101 102.25 99.9847 102.86 99.1722 102.86C98.2674 102.86 97.6211 102.195 97.6211 101.161V96.7292H96.5316V101.235C96.5316 103.045 97.4918 103.912 98.8214 103.912C99.8924 103.912 100.594 103.34 100.927 102.62H101V103.82H102.09V96.7292H101V100.921ZM107.023 103.968C108.389 103.968 108.851 103.118 109.091 102.731H109.22V103.82H110.273V94.3655H109.183V97.8556H109.091C108.851 97.4863 108.426 96.6368 107.041 96.6368C105.25 96.6368 104.013 98.0587 104.013 100.293C104.013 102.546 105.25 103.968 107.023 103.968ZM107.171 102.989C105.804 102.989 105.102 101.789 105.102 100.275C105.102 98.7789 105.786 97.6155 107.171 97.6155C108.5 97.6155 109.202 98.6865 109.202 100.275C109.202 101.881 108.482 102.989 107.171 102.989ZM112.68 103.82H113.769V96.7292H112.68V103.82ZM113.234 95.5473C113.658 95.5473 114.009 95.215 114.009 94.8087C114.009 94.4025 113.658 94.0701 113.234 94.0701C112.809 94.0701 112.458 94.4025 112.458 94.8087C112.458 95.215 112.809 95.5473 113.234 95.5473ZM118.905 103.968C120.826 103.968 122.118 102.509 122.118 100.312C122.118 98.0956 120.826 96.6368 118.905 96.6368C116.985 96.6368 115.692 98.0956 115.692 100.312C115.692 102.509 116.985 103.968 118.905 103.968ZM118.905 102.989C117.446 102.989 116.782 101.733 116.782 100.312C116.782 98.8897 117.446 97.6155 118.905 97.6155C120.364 97.6155 121.029 98.8897 121.029 100.312C121.029 101.733 120.364 102.989 118.905 102.989ZM39.4539 124.82H42.8701C45.1045 124.82 46.0278 123.731 46.0278 122.309C46.0278 120.813 44.9937 120 44.1258 119.945V119.853C44.9383 119.631 45.6585 119.096 45.6585 117.877C45.6585 116.492 44.7352 115.366 42.7593 115.366H39.4539V124.82ZM40.5988 123.804V120.518H42.9255C44.1628 120.518 44.9383 121.348 44.9383 122.309C44.9383 123.14 44.3659 123.804 42.8701 123.804H40.5988ZM40.5988 119.52V116.381H42.7593C44.015 116.381 44.569 117.046 44.569 117.877C44.569 118.874 43.7565 119.52 42.7224 119.52H40.5988ZM50.1079 124.986C51.3452 124.986 51.9915 124.321 52.2131 123.86H52.2685V124.82H53.3579V120.148C53.3579 117.895 51.6406 117.637 50.7358 117.637C49.6648 117.637 48.446 118.006 47.892 119.299L48.9261 119.668C49.1662 119.151 49.734 118.597 50.7727 118.597C51.7745 118.597 52.2685 119.128 52.2685 120.037V120.074C52.2685 120.601 51.7329 120.554 50.4403 120.721C49.1246 120.891 47.6889 121.182 47.6889 122.807C47.6889 124.192 48.7599 124.986 50.1079 124.986ZM50.2741 124.008C49.4062 124.008 48.7784 123.62 48.7784 122.863C48.7784 122.032 49.5355 121.773 50.3849 121.662C50.8466 121.607 52.0838 121.478 52.2685 121.256V122.253C52.2685 123.14 51.5668 124.008 50.2741 124.008ZM60.6292 119.317C60.2876 118.311 59.5213 117.637 58.1179 117.637C56.6221 117.637 55.5142 118.486 55.5142 119.687C55.5142 120.665 56.0958 121.321 57.3977 121.625L58.5795 121.902C59.2951 122.069 59.6321 122.41 59.6321 122.9C59.6321 123.509 58.9858 124.008 57.9701 124.008C57.0791 124.008 56.5206 123.624 56.3267 122.863L55.2926 123.121C55.5465 124.326 56.539 124.968 57.9886 124.968C59.6367 124.968 60.7585 124.068 60.7585 122.844C60.7585 121.856 60.1399 121.233 58.875 120.924L57.8224 120.665C56.9822 120.457 56.6037 120.176 56.6037 119.631C56.6037 119.022 57.25 118.579 58.1179 118.579C59.0689 118.579 59.4613 119.105 59.6505 119.594L60.6292 119.317ZM65.6315 124.968C67.0718 124.968 68.1244 124.248 68.4568 123.177L67.4042 122.881C67.1272 123.62 66.4855 123.989 65.6315 123.989C64.3527 123.989 63.471 123.163 63.4202 121.644H68.5676V121.182C68.5676 118.542 66.998 117.637 65.5207 117.637C63.6002 117.637 62.3261 119.151 62.3261 121.33C62.3261 123.509 63.5818 124.968 65.6315 124.968ZM63.4202 120.702C63.4941 119.599 64.2742 118.616 65.5207 118.616C66.7025 118.616 67.4596 119.502 67.4596 120.702H63.4202ZM73.1624 124.968C74.5289 124.968 74.9906 124.118 75.2306 123.731H75.3599V124.82H76.4124V115.366H75.323V118.856H75.2306C74.9906 118.486 74.5659 117.637 73.1809 117.637C71.3897 117.637 70.1525 119.059 70.1525 121.293C70.1525 123.546 71.3897 124.968 73.1624 124.968ZM73.3102 123.989C71.9437 123.989 71.242 122.789 71.242 121.275C71.242 119.779 71.9252 118.616 73.3102 118.616C74.6397 118.616 75.3414 119.687 75.3414 121.275C75.3414 122.881 74.6213 123.989 73.3102 123.989ZM88.0535 117.729H89.1615C89.1107 116.303 87.795 115.236 85.9669 115.236C84.1572 115.236 82.7354 116.289 82.7354 117.877C82.7354 119.151 83.6587 119.908 85.1359 120.333L86.2993 120.665C87.2964 120.942 88.1828 121.293 88.1828 122.235C88.1828 123.269 87.1856 123.952 85.8746 123.952C84.7481 123.952 83.751 123.454 83.6587 122.383H82.4768C82.5876 123.934 83.8433 124.986 85.8746 124.986C88.0535 124.986 89.2908 123.786 89.2908 122.253C89.2908 120.481 87.6104 119.908 86.6317 119.65L85.6714 119.391C84.9697 119.206 83.8433 118.837 83.8433 117.821C83.8433 116.917 84.6743 116.252 85.93 116.252C87.0749 116.252 87.9428 116.797 88.0535 117.729ZM94.3692 117.729H92.855V116.03H91.7655V117.729H90.6945V118.652H91.7655V123.084C91.7655 124.321 92.7627 124.912 93.686 124.912C94.0922 124.912 94.3507 124.839 94.4985 124.783L94.2769 123.804C94.1845 123.823 94.0368 123.86 93.7968 123.86C93.3166 123.86 92.855 123.712 92.855 122.789V118.652H94.3692V117.729ZM99.1649 124.968C100.605 124.968 101.658 124.248 101.99 123.177L100.938 122.881C100.661 123.62 100.019 123.989 99.1649 123.989C97.8861 123.989 97.0044 123.163 96.9536 121.644H102.101V121.182C102.101 118.542 100.531 117.637 99.0541 117.637C97.1336 117.637 95.8595 119.151 95.8595 121.33C95.8595 123.509 97.1152 124.968 99.1649 124.968ZM96.9536 120.702C97.0275 119.599 97.8077 118.616 99.0541 118.616C100.236 118.616 100.993 119.502 100.993 120.702H96.9536ZM104.018 127.479H105.108V123.731H105.2C105.44 124.118 105.902 124.968 107.268 124.968C109.041 124.968 110.278 123.546 110.278 121.293C110.278 119.059 109.041 117.637 107.25 117.637C105.865 117.637 105.44 118.486 105.2 118.856H105.071V117.729H104.018V127.479ZM105.089 121.275C105.089 119.687 105.791 118.616 107.121 118.616C108.506 118.616 109.189 119.779 109.189 121.275C109.189 122.789 108.487 123.989 107.121 123.989C105.809 123.989 105.089 122.881 105.089 121.275ZM117.223 119.317C116.881 118.311 116.115 117.637 114.712 117.637C113.216 117.637 112.108 118.486 112.108 119.687C112.108 120.665 112.69 121.321 113.991 121.625L115.173 121.902C115.889 122.069 116.226 122.41 116.226 122.9C116.226 123.509 115.579 124.008 114.564 124.008C113.673 124.008 113.114 123.624 112.92 122.863L111.886 123.121C112.14 124.326 113.133 124.968 114.582 124.968C116.23 124.968 117.352 124.068 117.352 122.844C117.352 121.856 116.734 121.233 115.469 120.924L114.416 120.665C113.576 120.457 113.197 120.176 113.197 119.631C113.197 119.022 113.844 118.579 114.712 118.579C115.663 118.579 116.055 119.105 116.244 119.594L117.223 119.317Z" fill="black"/>
<path d="M74.7212 54.2156C81.3553 54.2156 86.7334 48.8375 86.7334 42.2034C86.7334 35.5692 81.3553 30.1912 74.7212 30.1912C68.087 30.1912 62.709 35.5692 62.709 42.2034C62.709 48.8375 68.087 54.2156 74.7212 54.2156Z" stroke="#FF8A00" stroke-width="2.05923" stroke-linecap="round" stroke-linejoin="round"/>
<path d="M93.597 61.0796L83.3008 50.7834" stroke="#FF8A00" stroke-width="2.05923" stroke-linecap="round" stroke-linejoin="round"/>
</svg>
