<svg width="158" height="159" viewBox="0 0 158 159" fill="none" xmlns="http://www.w3.org/2000/svg">
<rect y="0.5" width="158" height="158" rx="4.84663" fill="#FAFAFA"/>
<path d="M28.5189 98.1161H29.6268C29.5761 96.6896 28.2604 95.6232 26.4322 95.6232C24.6226 95.6232 23.2007 96.6758 23.2007 98.2638C23.2007 99.538 24.124 100.295 25.6013 100.72L26.7646 101.052C27.7618 101.329 28.6481 101.68 28.6481 102.622C28.6481 103.656 27.651 104.339 26.3399 104.339C25.2135 104.339 24.2163 103.841 24.124 102.77H22.9422C23.053 104.321 24.3087 105.373 26.3399 105.373C28.5189 105.373 29.7561 104.173 29.7561 102.64C29.7561 100.868 28.0757 100.295 27.097 100.037L26.1368 99.7781C25.4351 99.5934 24.3087 99.2241 24.3087 98.2085C24.3087 97.3036 25.1396 96.6388 26.3953 96.6388C27.5402 96.6388 28.4081 97.1836 28.5189 98.1161ZM33.3573 105.207H34.4283L35.9794 99.7596H36.0902L37.6414 105.207H38.7124L40.8729 98.1161H39.728L38.1953 103.527H38.1215L36.6257 98.1161H35.4624L33.9482 103.545H33.8743L32.3416 98.1161H31.1968L33.3573 105.207ZM42.5732 105.207H43.6627V98.1161H42.5732V105.207ZM43.1272 96.9343C43.5519 96.9343 43.9028 96.6019 43.9028 96.1957C43.9028 95.7894 43.5519 95.457 43.1272 95.457C42.7025 95.457 42.3516 95.7894 42.3516 96.1957C42.3516 96.6019 42.7025 96.9343 43.1272 96.9343ZM49.002 98.1161H47.4878V96.4173H46.3983V98.1161H45.3273V99.0394H46.3983V103.471C46.3983 104.708 47.3955 105.299 48.3188 105.299C48.725 105.299 48.9835 105.225 49.1313 105.17L48.9097 104.191C48.8173 104.21 48.6696 104.247 48.4296 104.247C47.9494 104.247 47.4878 104.099 47.4878 103.176V99.0394H49.002V98.1161ZM53.7054 105.355C55.275 105.355 56.3091 104.395 56.4937 103.139H55.4042C55.2011 103.914 54.5548 104.376 53.7054 104.376C52.4127 104.376 51.5818 103.305 51.5818 101.662C51.5818 100.055 52.4312 99.0025 53.7054 99.0025C54.6656 99.0025 55.238 99.5934 55.4042 100.24H56.4937C56.3091 98.9102 55.1826 98.0238 53.6869 98.0238C51.7664 98.0238 50.4923 99.538 50.4923 101.699C50.4923 103.822 51.711 105.355 53.7054 105.355ZM59.4359 100.941C59.4359 99.7042 60.2253 99.0025 61.3009 99.0025C62.3258 99.0025 62.9444 99.6488 62.9444 100.775V105.207H64.0339V100.701C64.0339 98.8778 63.0644 98.0238 61.6149 98.0238C60.4977 98.0238 59.8606 98.4901 59.5282 99.2241H59.4359V95.7525H58.3464V105.207H59.4359V100.941ZM70.351 95.7525V105.207H71.4221V98.0238H71.5144L74.4689 105.207H75.503L78.4576 98.0238H78.5499V105.207H79.6209V95.7525H78.2544L75.0414 103.6H74.9306L71.7175 95.7525H70.351ZM85.0018 105.355C86.4421 105.355 87.4947 104.635 87.827 103.564L86.7745 103.268C86.4975 104.007 85.8558 104.376 85.0018 104.376C83.723 104.376 82.8412 103.55 82.7905 102.031H87.9378V101.569C87.9378 98.9286 86.3682 98.0238 84.891 98.0238C82.9705 98.0238 81.6964 99.538 81.6964 101.717C81.6964 103.896 82.952 105.355 85.0018 105.355ZM82.7905 101.089C82.8643 99.9858 83.6445 99.0025 84.891 99.0025C86.0728 99.0025 86.8299 99.8888 86.8299 101.089H82.7905ZM91.9418 105.373C93.179 105.373 93.8253 104.708 94.0469 104.247H94.1023V105.207H95.1918V100.535C95.1918 98.2823 93.4745 98.0238 92.5696 98.0238C91.4986 98.0238 90.2799 98.3931 89.7259 99.6857L90.76 100.055C91 99.538 91.5679 98.984 92.6066 98.984C93.6083 98.984 94.1023 99.5149 94.1023 100.424V100.461C94.1023 100.988 93.5668 100.941 92.2742 101.108C90.9585 101.278 89.5228 101.569 89.5228 103.194C89.5228 104.579 90.5938 105.373 91.9418 105.373ZM92.108 104.395C91.2401 104.395 90.6122 104.007 90.6122 103.25C90.6122 102.419 91.3694 102.16 92.2188 102.049C92.6804 101.994 93.9176 101.865 94.1023 101.643V102.64C94.1023 103.527 93.4006 104.395 92.108 104.395ZM102.463 99.7042C102.121 98.6978 101.355 98.0238 99.9517 98.0238C98.456 98.0238 97.348 98.8732 97.348 100.074C97.348 101.052 97.9297 101.708 99.2315 102.012L100.413 102.289C101.129 102.456 101.466 102.797 101.466 103.287C101.466 103.896 100.82 104.395 99.804 104.395C98.913 104.395 98.3544 104.011 98.1605 103.25L97.1264 103.508C97.3803 104.713 98.3729 105.355 99.8224 105.355C101.471 105.355 102.592 104.455 102.592 103.231C102.592 102.243 101.974 101.62 100.709 101.311L99.6563 101.052C98.8161 100.844 98.4375 100.563 98.4375 100.018C98.4375 99.4087 99.0838 98.9656 99.9517 98.9656C100.903 98.9656 101.295 99.4918 101.484 99.9812L102.463 99.7042ZM108.961 102.308C108.961 103.637 107.945 104.247 107.133 104.247C106.228 104.247 105.582 103.582 105.582 102.548V98.1161H104.492V102.622C104.492 104.431 105.453 105.299 106.782 105.299C107.853 105.299 108.555 104.727 108.887 104.007H108.961V105.207H110.051V98.1161H108.961V102.308ZM112.306 105.207H113.396V100.72C113.396 99.7596 114.153 99.0579 115.187 99.0579C115.478 99.0579 115.778 99.1133 115.852 99.1317V98.0238C115.727 98.0146 115.441 98.0053 115.279 98.0053C114.43 98.0053 113.691 98.4854 113.432 99.1871H113.359V98.1161H112.306V105.207ZM117.403 105.207H118.492V98.1161H117.403V105.207ZM117.957 96.9343C118.382 96.9343 118.733 96.6019 118.733 96.1957C118.733 95.7894 118.382 95.457 117.957 95.457C117.532 95.457 117.181 95.7894 117.181 96.1957C117.181 96.6019 117.532 96.9343 117.957 96.9343ZM121.837 100.941C121.837 99.7042 122.604 99.0025 123.647 99.0025C124.658 99.0025 125.272 99.6626 125.272 100.775V105.207H126.362V100.701C126.362 98.8917 125.397 98.0238 123.961 98.0238C122.89 98.0238 122.225 98.5039 121.893 99.2241H121.8V98.1161H120.748V105.207H121.837V100.941ZM131.475 108.014C133.173 108.014 134.54 107.238 134.54 105.41V98.1161H133.487V99.2425H133.377C133.137 98.8732 132.693 98.0238 131.308 98.0238C129.517 98.0238 128.28 99.4457 128.28 101.625C128.28 103.841 129.573 105.096 131.29 105.096C132.675 105.096 133.118 104.284 133.358 103.896H133.45V105.336C133.45 106.518 132.62 107.054 131.475 107.054C130.187 107.054 129.734 106.375 129.443 105.983L128.575 106.592C129.019 107.335 129.891 108.014 131.475 108.014ZM131.438 104.118C130.071 104.118 129.37 103.083 129.37 101.606C129.37 100.166 130.053 99.0025 131.438 99.0025C132.767 99.0025 133.469 100.074 133.469 101.606C133.469 103.176 132.749 104.118 131.438 104.118ZM69.9733 116.752V122.92C69.9733 124.305 69.0223 125.302 67.4435 125.302C65.8647 125.302 64.9137 124.305 64.9137 122.92V116.752H63.7688V123.012C63.7688 124.951 65.2184 126.373 67.4435 126.373C69.6686 126.373 71.1182 124.951 71.1182 123.012V116.752H69.9733ZM74.6063 121.941C74.6063 120.704 75.3726 120.002 76.4159 120.002C77.4269 120.002 78.0409 120.663 78.0409 121.775V126.207H79.1304V121.701C79.1304 119.892 78.1656 119.024 76.7299 119.024C75.6588 119.024 74.9941 119.504 74.6617 120.224H74.5693V119.116H73.5168V126.207H74.6063V121.941ZM81.3813 126.207H82.4708V119.116H81.3813V126.207ZM81.9353 117.934C82.36 117.934 82.7108 117.602 82.7108 117.196C82.7108 116.789 82.36 116.457 81.9353 116.457C81.5105 116.457 81.1597 116.789 81.1597 117.196C81.1597 117.602 81.5105 117.934 81.9353 117.934ZM87.8101 119.116H86.2958V117.417H85.2064V119.116H84.1353V120.039H85.2064V124.471C85.2064 125.708 86.2035 126.299 87.1268 126.299C87.5331 126.299 87.7916 126.225 87.9393 126.17L87.7177 125.191C87.6254 125.21 87.4777 125.247 87.2376 125.247C86.7575 125.247 86.2958 125.099 86.2958 124.176V120.039H87.8101V119.116ZM94.6047 120.704C94.2631 119.698 93.4967 119.024 92.0933 119.024C90.5976 119.024 89.4896 119.873 89.4896 121.074C89.4896 122.052 90.0713 122.708 91.3731 123.012L92.555 123.289C93.2705 123.456 93.6075 123.797 93.6075 124.287C93.6075 124.896 92.9612 125.395 91.9456 125.395C91.0546 125.395 90.496 125.011 90.3021 124.25L89.268 124.508C89.5219 125.713 90.5145 126.355 91.9641 126.355C93.6121 126.355 94.7339 125.455 94.7339 124.231C94.7339 123.243 94.1153 122.62 92.8504 122.311L91.7979 122.052C90.9577 121.844 90.5791 121.563 90.5791 121.018C90.5791 120.409 91.2254 119.966 92.0933 119.966C93.0443 119.966 93.4367 120.492 93.626 120.981L94.6047 120.704Z" fill="black"/>
<path d="M78.9492 30.8833V61.9686" stroke="#FF8A00" stroke-width="2.07235" stroke-linecap="round" stroke-linejoin="round"/>
<path d="M73.7695 61.9685H84.1313" stroke="#FF8A00" stroke-width="2.07235" stroke-linecap="round" stroke-linejoin="round"/>
<path d="M63.4082 36.0641L68.5891 37.7911L78.9508 34.3372L89.3126 37.7911L94.4935 36.0641" stroke="#FF8A00" stroke-width="2.07235" stroke-linecap="round" stroke-linejoin="round"/>
<path d="M68.5891 37.791L63.4082 53.3336C64.9029 54.4546 66.7208 55.0606 68.5891 55.0606C70.4574 55.0606 72.2753 54.4546 73.77 53.3336L68.5891 37.791Z" stroke="#FF8A00" stroke-width="2.07235" stroke-linecap="round" stroke-linejoin="round"/>
<path d="M89.3117 37.791L84.1309 53.3336C85.6255 54.4546 87.4434 55.0606 89.3117 55.0606C91.18 55.0606 92.998 54.4546 94.4926 53.3336L89.3117 37.791Z" stroke="#FF8A00" stroke-width="2.07235" stroke-linecap="round" stroke-linejoin="round"/>
</svg>
