<svg width="157" height="157" viewBox="0 0 157 157" fill="none" xmlns="http://www.w3.org/2000/svg">
<rect width="157" height="157" rx="4.81595" fill="#FAFAFA"/>
<path d="M31.7046 97.3201C31.3538 95.3811 29.8026 94.2363 27.9007 94.2363C25.4816 94.2363 23.7274 96.1013 23.7274 99.0928C23.7274 102.084 25.4816 103.949 27.9007 103.949C29.8026 103.949 31.3538 102.804 31.7046 100.866H30.5597C30.2828 102.177 29.1563 102.878 27.9007 102.878C26.1833 102.878 24.8353 101.549 24.8353 99.0928C24.8353 96.6368 26.1833 95.3073 27.9007 95.3073C29.1563 95.3073 30.2828 96.009 30.5597 97.3201H31.7046ZM35.7536 103.986C36.9908 103.986 37.6371 103.321 37.8587 102.86H37.9141V103.82H39.0036V99.1482C39.0036 96.8954 37.2863 96.6368 36.3814 96.6368C35.3104 96.6368 34.0917 97.0061 33.5377 98.2988L34.5718 98.6681C34.8118 98.151 35.3797 97.5971 36.4184 97.5971C37.4202 97.5971 37.9141 98.128 37.9141 99.0374V99.0743C37.9141 99.6006 37.3786 99.5544 36.086 99.7206C34.7703 99.8914 33.3346 100.182 33.3346 101.807C33.3346 103.192 34.4056 103.986 35.7536 103.986ZM35.9198 103.008C35.0519 103.008 34.4241 102.62 34.4241 101.863C34.4241 101.032 35.1812 100.773 36.0306 100.662C36.4922 100.607 37.7295 100.478 37.9141 100.256V101.253C37.9141 102.14 37.2124 103.008 35.9198 103.008ZM44.336 96.7292H42.8218V95.0303H41.7323V96.7292H40.6612V97.6525H41.7323V102.084C41.7323 103.321 42.7294 103.912 43.6527 103.912C44.059 103.912 44.3175 103.839 44.4652 103.783L44.2436 102.804C44.1513 102.823 44.0036 102.86 43.7635 102.86C43.2834 102.86 42.8218 102.712 42.8218 101.789V97.6525H44.336V96.7292ZM49.1317 103.968C50.572 103.968 51.6246 103.248 51.9569 102.177L50.9044 101.881C50.6274 102.62 49.9857 102.989 49.1317 102.989C47.8529 102.989 46.9711 102.163 46.9204 100.644H52.0677V100.182C52.0677 97.5417 50.4981 96.6368 49.0209 96.6368C47.1004 96.6368 45.8263 98.151 45.8263 100.33C45.8263 102.509 47.0819 103.968 49.1317 103.968ZM46.9204 99.7022C46.9942 98.5988 47.7744 97.6155 49.0209 97.6155C50.2027 97.6155 50.9598 98.5019 50.9598 99.7022H46.9204ZM56.8473 106.627C58.5461 106.627 59.9126 105.851 59.9126 104.023V96.7292H58.86V97.8556H58.7493C58.5092 97.4863 58.066 96.6368 56.6811 96.6368C54.8899 96.6368 53.6527 98.0587 53.6527 100.238C53.6527 102.454 54.9453 103.709 56.6626 103.709C58.0475 103.709 58.4907 102.897 58.7308 102.509H58.8231V103.949C58.8231 105.131 57.9921 105.667 56.8473 105.667C55.5593 105.667 55.1069 104.988 54.816 104.596L53.9481 105.205C54.3913 105.948 55.2638 106.627 56.8473 106.627ZM56.8103 102.731C55.4439 102.731 54.7421 101.696 54.7421 100.219C54.7421 98.7789 55.4254 97.6155 56.8103 97.6155C58.1399 97.6155 58.8416 98.6865 58.8416 100.219C58.8416 101.789 58.1214 102.731 56.8103 102.731ZM65.0476 103.968C66.9681 103.968 68.2607 102.509 68.2607 100.312C68.2607 98.0956 66.9681 96.6368 65.0476 96.6368C63.1271 96.6368 61.8345 98.0956 61.8345 100.312C61.8345 102.509 63.1271 103.968 65.0476 103.968ZM65.0476 102.989C63.5888 102.989 62.924 101.733 62.924 100.312C62.924 98.8897 63.5888 97.6155 65.0476 97.6155C66.5064 97.6155 67.1712 98.8897 67.1712 100.312C67.1712 101.733 66.5064 102.989 65.0476 102.989ZM70.1838 103.82H71.2732V99.3329C71.2732 98.3726 72.0303 97.6709 73.0644 97.6709C73.3553 97.6709 73.6553 97.7263 73.7292 97.7448V96.6368C73.6046 96.6276 73.3183 96.6184 73.1568 96.6184C72.3073 96.6184 71.5687 97.0985 71.3102 97.8002H71.2363V96.7292H70.1838V103.82ZM75.2807 103.82H76.3702V96.7292H75.2807V103.82ZM75.8346 95.5473C76.2594 95.5473 76.6102 95.215 76.6102 94.8087C76.6102 94.4025 76.2594 94.0701 75.8346 94.0701C75.4099 94.0701 75.0591 94.4025 75.0591 94.8087C75.0591 95.215 75.4099 95.5473 75.8346 95.5473ZM83.6484 98.3172C83.3067 97.3108 82.5404 96.6368 81.137 96.6368C79.6413 96.6368 78.5333 97.4863 78.5333 98.6865C78.5333 99.6652 79.115 100.321 80.4168 100.625L81.5986 100.902C82.3142 101.069 82.6512 101.41 82.6512 101.9C82.6512 102.509 82.0049 103.008 80.9893 103.008C80.0983 103.008 79.5397 102.624 79.3458 101.863L78.3117 102.121C78.5656 103.326 79.5582 103.968 81.0077 103.968C82.6558 103.968 83.7776 103.068 83.7776 101.844C83.7776 100.856 83.159 100.233 81.8941 99.9238L80.8415 99.6652C80.0013 99.4575 79.6228 99.1759 79.6228 98.6311C79.6228 98.0218 80.2691 97.5786 81.137 97.5786C82.088 97.5786 82.4804 98.1049 82.6697 98.5942L83.6484 98.3172ZM87.7643 103.986C89.0015 103.986 89.6478 103.321 89.8694 102.86H89.9248V103.82H91.0143V99.1482C91.0143 96.8954 89.2969 96.6368 88.3921 96.6368C87.3211 96.6368 86.1023 97.0061 85.5484 98.2988L86.5825 98.6681C86.8225 98.151 87.3903 97.5971 88.429 97.5971C89.4308 97.5971 89.9248 98.128 89.9248 99.0374V99.0743C89.9248 99.6006 89.3893 99.5544 88.0967 99.7206C86.781 99.8914 85.3452 100.182 85.3452 101.807C85.3452 103.192 86.4163 103.986 87.7643 103.986ZM87.9305 103.008C87.0626 103.008 86.4347 102.62 86.4347 101.863C86.4347 101.032 87.1918 100.773 88.0413 100.662C88.5029 100.607 89.7401 100.478 89.9248 100.256V101.253C89.9248 102.14 89.2231 103.008 87.9305 103.008ZM96.3466 96.7292H94.8324V95.0303H93.7429V96.7292H92.6719V97.6525H93.7429V102.084C93.7429 103.321 94.7401 103.912 95.6634 103.912C96.0696 103.912 96.3282 103.839 96.4759 103.783L96.2543 102.804C96.162 102.823 96.0142 102.86 95.7742 102.86C95.2941 102.86 94.8324 102.712 94.8324 101.789V97.6525H96.3466V96.7292ZM98.2455 103.82H99.335V96.7292H98.2455V103.82ZM98.7995 95.5473C99.2242 95.5473 99.575 95.215 99.575 94.8087C99.575 94.4025 99.2242 94.0701 98.7995 94.0701C98.3747 94.0701 98.0239 94.4025 98.0239 94.8087C98.0239 95.215 98.3747 95.5473 98.7995 95.5473ZM104.471 103.968C106.392 103.968 107.684 102.509 107.684 100.312C107.684 98.0956 106.392 96.6368 104.471 96.6368C102.551 96.6368 101.258 98.0956 101.258 100.312C101.258 102.509 102.551 103.968 104.471 103.968ZM104.471 102.989C103.012 102.989 102.348 101.733 102.348 100.312C102.348 98.8897 103.012 97.6155 104.471 97.6155C105.93 97.6155 106.595 98.8897 106.595 100.312C106.595 101.733 105.93 102.989 104.471 102.989ZM110.697 99.5544C110.697 98.3172 111.463 97.6155 112.506 97.6155C113.517 97.6155 114.131 98.2757 114.131 99.3883V103.82H115.221V99.3144C115.221 97.5047 114.256 96.6368 112.82 96.6368C111.749 96.6368 111.085 97.1169 110.752 97.8371H110.66V96.7292H109.607V103.82H110.697V99.5544ZM124.269 103.968C126.189 103.968 127.482 102.509 127.482 100.312C127.482 98.0956 126.189 96.6368 124.269 96.6368C122.348 96.6368 121.056 98.0956 121.056 100.312C121.056 102.509 122.348 103.968 124.269 103.968ZM124.269 102.989C122.81 102.989 122.145 101.733 122.145 100.312C122.145 98.8897 122.81 97.6155 124.269 97.6155C125.728 97.6155 126.392 98.8897 126.392 100.312C126.392 101.733 125.728 102.989 124.269 102.989ZM132.563 96.7292H130.974V96.009C130.974 95.3073 131.27 94.938 131.99 94.938C132.304 94.938 132.489 95.0118 132.599 95.0488L132.913 94.107C132.747 94.0331 132.415 93.9223 131.879 93.9223C130.864 93.9223 129.885 94.5317 129.885 95.7505V96.7292H128.74V97.6525H129.885V103.82H130.974V97.6525H132.563V96.7292ZM54.3006 124.82H55.4455V121.127H57.5137C57.5968 121.127 57.6752 121.127 57.7537 121.122L59.748 124.82H61.0776L58.9402 120.915C60.1451 120.504 60.7083 119.52 60.7083 118.265C60.7083 116.594 59.7111 115.366 57.4952 115.366H54.3006V124.82ZM55.4455 120.093V116.381H57.4583C58.9909 116.381 59.5819 117.129 59.5819 118.265C59.5819 119.4 58.9909 120.093 57.4767 120.093H55.4455ZM65.6251 124.968C67.0655 124.968 68.118 124.248 68.4504 123.177L67.3979 122.881C67.1209 123.62 66.4792 123.989 65.6251 123.989C64.3464 123.989 63.4646 123.163 63.4139 121.644H68.5612V121.182C68.5612 118.542 66.9916 117.637 65.5144 117.637C63.5939 117.637 62.3197 119.151 62.3197 121.33C62.3197 123.509 63.5754 124.968 65.6251 124.968ZM63.4139 120.702C63.4877 119.599 64.2679 118.616 65.5144 118.616C66.6962 118.616 67.4533 119.502 67.4533 120.702H63.4139ZM73.3592 124.968C74.9288 124.968 75.9629 124.008 76.1476 122.752H75.0581C74.855 123.527 74.2087 123.989 73.3592 123.989C72.0666 123.989 71.2356 122.918 71.2356 121.275C71.2356 119.668 72.0851 118.616 73.3592 118.616C74.3194 118.616 74.8919 119.206 75.0581 119.853H76.1476C75.9629 118.523 74.8365 117.637 73.3408 117.637C71.4203 117.637 70.1462 119.151 70.1462 121.312C70.1462 123.435 71.3649 124.968 73.3592 124.968ZM78.0003 124.82H79.0897V117.729H78.0003V124.82ZM78.5542 116.547C78.9789 116.547 79.3298 116.215 79.3298 115.809C79.3298 115.402 78.9789 115.07 78.5542 115.07C78.1295 115.07 77.7787 115.402 77.7787 115.809C77.7787 116.215 78.1295 116.547 78.5542 116.547ZM81.3452 127.479H82.4347V123.731H82.527C82.7671 124.118 83.2287 124.968 84.5952 124.968C86.3679 124.968 87.6052 123.546 87.6052 121.293C87.6052 119.059 86.3679 117.637 84.5768 117.637C83.1918 117.637 82.7671 118.486 82.527 118.856H82.3978V117.729H81.3452V127.479ZM82.4162 121.275C82.4162 119.687 83.1179 118.616 84.4475 118.616C85.8324 118.616 86.5157 119.779 86.5157 121.275C86.5157 122.789 85.814 123.989 84.4475 123.989C83.1364 123.989 82.4162 122.881 82.4162 121.275ZM92.5001 124.968C93.9404 124.968 94.993 124.248 95.3254 123.177L94.2728 122.881C93.9958 123.62 93.3542 123.989 92.5001 123.989C91.2213 123.989 90.3396 123.163 90.2888 121.644H95.4362V121.182C95.4362 118.542 93.8666 117.637 92.3893 117.637C90.4689 117.637 89.1947 119.151 89.1947 121.33C89.1947 123.509 90.4504 124.968 92.5001 124.968ZM90.2888 120.702C90.3627 119.599 91.1429 118.616 92.3893 118.616C93.5711 118.616 94.3282 119.502 94.3282 120.702H90.2888ZM102.376 119.317C102.035 118.311 101.268 117.637 99.8649 117.637C98.3691 117.637 97.2612 118.486 97.2612 119.687C97.2612 120.665 97.8428 121.321 99.1447 121.625L100.327 121.902C101.042 122.069 101.379 122.41 101.379 122.9C101.379 123.509 100.733 124.008 99.7171 124.008C98.8262 124.008 98.2676 123.624 98.0737 122.863L97.0396 123.121C97.2935 124.326 98.286 124.968 99.7356 124.968C101.384 124.968 102.505 124.068 102.505 122.844C102.505 121.856 101.887 121.233 100.622 120.924L99.5694 120.665C98.7292 120.457 98.3507 120.176 98.3507 119.631C98.3507 119.022 98.997 118.579 99.8649 118.579C100.816 118.579 101.208 119.105 101.398 119.594L102.376 119.317Z" fill="black"/>
<g clip-path="url(#clip0)">
<path d="M58.5957 39.0412V30.4587C58.5957 29.9497 59.008 29.5374 59.5171 29.5374H68.0996C68.6086 29.5374 69.0209 29.9497 69.0209 30.4587V39.0412C69.0209 39.5503 68.6086 39.9626 68.0996 39.9626H64.7246V44.9716C68.2625 44.9462 72.8082 44.9309 77.4049 44.9258V39.9626H74.035C73.526 39.9626 73.1137 39.5503 73.1137 39.0412V30.4587C73.1137 29.9497 73.526 29.5374 74.035 29.5374H82.6175C83.1266 29.5374 83.5389 29.9497 83.5389 30.4587V39.0412C83.5389 39.5503 83.1266 39.9626 82.6175 39.9626H79.2477V44.9258C83.8851 44.9309 88.441 44.9462 91.928 44.9716V39.9626H88.5581C88.0491 39.9626 87.6316 39.5503 87.6316 39.0412V30.4587C87.6316 29.9497 88.0491 29.5374 88.5581 29.5374H97.1355C97.6446 29.5374 98.0569 29.9497 98.0569 30.4587V39.0412C98.0569 39.5503 97.6446 39.9626 97.1355 39.9626H93.7656V45.9032C93.7605 46.4122 93.3431 46.8194 92.8392 46.8144H79.2477V51.1209H82.6175C83.1266 51.1209 83.5389 51.5332 83.5389 52.0422V60.6247C83.5389 61.1338 83.1266 61.5461 82.6175 61.5461H74.035C73.526 61.5461 73.1137 61.1338 73.1137 60.6247V52.0422C73.1137 51.5332 73.526 51.1209 74.035 51.1209H77.4049V46.8144H63.8134C63.3095 46.8194 62.892 46.4122 62.892 45.9032V39.9626H59.5171C59.008 39.9626 58.5957 39.5503 58.5957 39.0412ZM74.9564 52.9636V59.7034H81.6962V52.9636H74.9564ZM89.4795 31.3801V38.1199H96.2141V31.3801H89.4795ZM74.9564 31.3801V38.1199H81.6962V31.3801H74.9564ZM60.4384 31.3801V38.1199H67.1782V31.3801H60.4384Z" fill="#FF8A00" stroke="white" stroke-width="0.514809"/>
</g>
<defs>
<clipPath id="clip0">
<rect width="41.1847" height="41.1847" fill="white" transform="translate(57.5605 25.043)"/>
</clipPath>
</defs>
</svg>
