<svg width="157" height="157" viewBox="0 0 157 157" fill="none" xmlns="http://www.w3.org/2000/svg">
<rect width="157" height="157" rx="4.81595" fill="#FAFAFA"/>
<path d="M21.3124 94.4651H20.1675V103.92H21.3124V94.4651ZM24.8097 99.6541C24.8097 98.4168 25.576 97.7151 26.6193 97.7151C27.6304 97.7151 28.2443 98.3753 28.2443 99.4879V103.92H29.3338V99.414C29.3338 97.6043 28.369 96.7364 26.9333 96.7364C25.8622 96.7364 25.1975 97.2166 24.8651 97.9367H24.7728V96.8288H23.7202V103.92H24.8097V99.6541ZM34.4469 106.726C36.1458 106.726 37.5122 105.951 37.5122 104.123V96.8288H36.4597V97.9552H36.3489C36.1088 97.5859 35.6657 96.7364 34.2807 96.7364C32.4895 96.7364 31.2523 98.1583 31.2523 100.337C31.2523 102.553 32.5449 103.809 34.2622 103.809C35.6472 103.809 36.0904 102.996 36.3304 102.609H36.4228V104.049C36.4228 105.231 35.5918 105.766 34.4469 105.766C33.1589 105.766 32.7065 105.088 32.4157 104.695L31.5478 105.305C31.9909 106.048 32.8635 106.726 34.4469 106.726ZM34.41 102.83C33.0435 102.83 32.3418 101.796 32.3418 100.319C32.3418 98.8785 33.025 97.7151 34.41 97.7151C35.7395 97.7151 36.4412 98.7862 36.4412 100.319C36.4412 101.888 35.7211 102.83 34.41 102.83ZM39.7666 103.92H40.8561V99.4325C40.8561 98.4722 41.6132 97.7705 42.6472 97.7705C42.9381 97.7705 43.2382 97.8259 43.312 97.8444V96.7364C43.1874 96.7272 42.9012 96.718 42.7396 96.718C41.8901 96.718 41.1515 97.1981 40.893 97.8998H40.8191V96.8288H39.7666V103.92ZM47.6207 104.067C49.061 104.067 50.1136 103.347 50.446 102.276L49.3934 101.981C49.1164 102.719 48.4747 103.089 47.6207 103.089C46.3419 103.089 45.4602 102.262 45.4094 100.744H50.5567V100.282C50.5567 97.6413 48.9871 96.7364 47.5099 96.7364C45.5894 96.7364 44.3153 98.2506 44.3153 100.43C44.3153 102.609 45.571 104.067 47.6207 104.067ZM45.4094 99.8018C45.4832 98.6984 46.2634 97.7151 47.5099 97.7151C48.6917 97.7151 49.4488 98.6015 49.4488 99.8018H45.4094ZM55.1516 104.067C56.5181 104.067 56.9797 103.218 57.2198 102.83H57.3491V103.92H58.4016V94.4651H57.3121V97.9552H57.2198C56.9797 97.5859 56.555 96.7364 55.1701 96.7364C53.3789 96.7364 52.1417 98.1583 52.1417 100.393C52.1417 102.646 53.3789 104.067 55.1516 104.067ZM55.2993 103.089C53.9329 103.089 53.2312 101.888 53.2312 100.374C53.2312 98.8785 53.9144 97.7151 55.2993 97.7151C56.6289 97.7151 57.3306 98.7862 57.3306 100.374C57.3306 101.981 56.6104 103.089 55.2993 103.089ZM60.8083 103.92H61.8978V96.8288H60.8083V103.92ZM61.3623 95.647C61.787 95.647 62.1378 95.3146 62.1378 94.9083C62.1378 94.5021 61.787 94.1697 61.3623 94.1697C60.9375 94.1697 60.5867 94.5021 60.5867 94.9083C60.5867 95.3146 60.9375 95.647 61.3623 95.647ZM67.1263 104.067C68.5666 104.067 69.6192 103.347 69.9515 102.276L68.899 101.981C68.622 102.719 67.9803 103.089 67.1263 103.089C65.8475 103.089 64.9657 102.262 64.915 100.744H70.0623V100.282C70.0623 97.6413 68.4927 96.7364 67.0155 96.7364C65.095 96.7364 63.8209 98.2506 63.8209 100.43C63.8209 102.609 65.0765 104.067 67.1263 104.067ZM64.915 99.8018C64.9888 98.6984 65.769 97.7151 67.0155 97.7151C68.1973 97.7151 68.9544 98.6015 68.9544 99.8018H64.915ZM73.0691 99.6541C73.0691 98.4168 73.8355 97.7151 74.8788 97.7151C75.8898 97.7151 76.5038 98.3753 76.5038 99.4879V103.92H77.5933V99.414C77.5933 97.6043 76.6284 96.7364 75.1927 96.7364C74.1217 96.7364 73.4569 97.2166 73.1245 97.9367H73.0322V96.8288H71.9796V103.92H73.0691V99.6541ZM82.928 96.8288H81.4137V95.1299H80.3243V96.8288H79.2532V97.7521H80.3243V102.184C80.3243 103.421 81.3214 104.012 82.2447 104.012C82.651 104.012 82.9095 103.938 83.0572 103.883L82.8356 102.904C82.7433 102.923 82.5956 102.959 82.3555 102.959C81.8754 102.959 81.4137 102.812 81.4137 101.888V97.7521H82.928V96.8288ZM89.7226 98.4168C89.3809 97.4104 88.6146 96.7364 87.2112 96.7364C85.7155 96.7364 84.6075 97.5859 84.6075 98.7862C84.6075 99.7648 85.1892 100.42 86.491 100.725L87.6729 101.002C88.3884 101.168 88.7254 101.51 88.7254 101.999C88.7254 102.609 88.0791 103.107 87.0635 103.107C86.1725 103.107 85.6139 102.724 85.42 101.962L84.3859 102.221C84.6398 103.426 85.6324 104.067 87.0819 104.067C88.73 104.067 89.8518 103.167 89.8518 101.944C89.8518 100.956 89.2332 100.333 87.9683 100.023L86.9158 99.7648C86.0756 99.5571 85.697 99.2755 85.697 98.7308C85.697 98.1214 86.3433 97.6782 87.2112 97.6782C88.1622 97.6782 88.5546 98.2045 88.7439 98.6938L89.7226 98.4168ZM97.7547 104.086C98.992 104.086 99.6383 103.421 99.8598 102.959H99.9152V103.92H101.005V99.2478C101.005 96.995 99.2874 96.7364 98.3826 96.7364C97.3116 96.7364 96.0928 97.1058 95.5388 98.3984L96.5729 98.7677C96.813 98.2506 97.3808 97.6967 98.4195 97.6967C99.4213 97.6967 99.9152 98.2276 99.9152 99.137V99.1739C99.9152 99.7002 99.3797 99.6541 98.0871 99.8202C96.7714 99.9911 95.3357 100.282 95.3357 101.907C95.3357 103.292 96.4067 104.086 97.7547 104.086ZM97.9209 103.107C97.053 103.107 96.4252 102.719 96.4252 101.962C96.4252 101.131 97.1823 100.873 98.0317 100.762C98.4934 100.707 99.7306 100.577 99.9152 100.356V101.353C99.9152 102.239 99.2135 103.107 97.9209 103.107ZM106.134 104.067C107.704 104.067 108.738 103.107 108.922 101.851H107.833C107.63 102.627 106.983 103.089 106.134 103.089C104.841 103.089 104.01 102.018 104.01 100.374C104.01 98.7677 104.86 97.7151 106.134 97.7151C107.094 97.7151 107.667 98.306 107.833 98.9523H108.922C108.738 97.6228 107.611 96.7364 106.115 96.7364C104.195 96.7364 102.921 98.2506 102.921 100.411C102.921 102.535 104.14 104.067 106.134 104.067ZM113.656 104.067C115.225 104.067 116.259 103.107 116.444 101.851H115.355C115.151 102.627 114.505 103.089 113.656 103.089C112.363 103.089 111.532 102.018 111.532 100.374C111.532 98.7677 112.382 97.7151 113.656 97.7151C114.616 97.7151 115.188 98.306 115.355 98.9523H116.444C116.259 97.6228 115.133 96.7364 113.637 96.7364C111.717 96.7364 110.443 98.2506 110.443 100.411C110.443 102.535 111.661 104.067 113.656 104.067ZM119.091 103.994C119.548 103.994 119.922 103.62 119.922 103.163C119.922 102.706 119.548 102.332 119.091 102.332C118.634 102.332 118.26 102.706 118.26 103.163C118.26 103.62 118.634 103.994 119.091 103.994ZM129.137 96.8288H127.623V95.1299H126.533V96.8288H125.462V97.7521H126.533V102.184C126.533 103.421 127.53 104.012 128.454 104.012C128.86 104.012 129.118 103.938 129.266 103.883L129.045 102.904C128.952 102.923 128.804 102.959 128.564 102.959C128.084 102.959 127.623 102.812 127.623 101.888V97.7521H129.137V96.8288ZM133.84 104.067C135.761 104.067 137.053 102.609 137.053 100.411C137.053 98.1952 135.761 96.7364 133.84 96.7364C131.92 96.7364 130.627 98.1952 130.627 100.411C130.627 102.609 131.92 104.067 133.84 104.067ZM133.84 103.089C132.381 103.089 131.717 101.833 131.717 100.411C131.717 98.9893 132.381 97.7151 133.84 97.7151C135.299 97.7151 135.964 98.9893 135.964 100.411C135.964 101.833 135.299 103.089 133.84 103.089ZM57.5854 119.417C57.2438 118.41 56.4774 117.736 55.074 117.736C53.5783 117.736 52.4703 118.586 52.4703 119.786C52.4703 120.765 53.052 121.42 54.3539 121.725L55.5357 122.002C56.2512 122.168 56.5882 122.51 56.5882 122.999C56.5882 123.609 55.9419 124.107 54.9263 124.107C54.0353 124.107 53.4767 123.724 53.2828 122.962L52.2488 123.221C52.5027 124.426 53.4952 125.067 54.9448 125.067C56.5929 125.067 57.7147 124.167 57.7147 122.944C57.7147 121.956 57.0961 121.333 55.8311 121.023L54.7786 120.765C53.9384 120.557 53.5598 120.276 53.5598 119.731C53.5598 119.121 54.2061 118.678 55.074 118.678C56.025 118.678 56.4174 119.204 56.6067 119.694L57.5854 119.417ZM62.5877 125.067C64.028 125.067 65.0806 124.347 65.413 123.276L64.3604 122.981C64.0834 123.719 63.4417 124.089 62.5877 124.089C61.3089 124.089 60.4272 123.262 60.3764 121.744H65.5238V121.282C65.5238 118.641 63.9542 117.736 62.4769 117.736C60.5564 117.736 59.2823 119.251 59.2823 121.43C59.2823 123.609 60.538 125.067 62.5877 125.067ZM60.3764 120.802C60.4502 119.698 61.2304 118.715 62.4769 118.715C63.6587 118.715 64.4158 119.601 64.4158 120.802H60.3764ZM67.4411 124.92H68.5306V120.432C68.5306 119.472 69.2877 118.771 70.3218 118.771C70.6126 118.771 70.9127 118.826 70.9865 118.844V117.736C70.8619 117.727 70.5757 117.718 70.4141 117.718C69.5647 117.718 68.826 118.198 68.5675 118.9H68.4936V117.829H67.4411V124.92ZM78.5521 117.829H77.3703L75.4129 123.479H75.339L73.3817 117.829H72.1998L74.822 124.92H75.9299L78.5521 117.829ZM80.2501 124.92H81.3396V117.829H80.2501V124.92ZM80.8041 116.647C81.2288 116.647 81.5797 116.315 81.5797 115.908C81.5797 115.502 81.2288 115.17 80.8041 115.17C80.3794 115.17 80.0285 115.502 80.0285 115.908C80.0285 116.315 80.3794 116.647 80.8041 116.647ZM84.6846 120.654C84.6846 119.417 85.4509 118.715 86.4942 118.715C87.5053 118.715 88.1192 119.375 88.1192 120.488V124.92H89.2087V120.414C89.2087 118.604 88.2439 117.736 86.8082 117.736C85.7371 117.736 85.0724 118.217 84.74 118.937H84.6477V117.829H83.5951V124.92H84.6846V120.654ZM94.3218 127.726C96.0207 127.726 97.3871 126.951 97.3871 125.123V117.829H96.3346V118.955H96.2238C95.9837 118.586 95.5406 117.736 94.1556 117.736C92.3644 117.736 91.1272 119.158 91.1272 121.337C91.1272 123.553 92.4198 124.809 94.1371 124.809C95.5221 124.809 95.9653 123.996 96.2053 123.609H96.2977V125.049C96.2977 126.231 95.4667 126.766 94.3218 126.766C93.0338 126.766 92.5814 126.088 92.2906 125.695L91.4227 126.305C91.8658 127.048 92.7384 127.726 94.3218 127.726ZM94.2849 123.83C92.9184 123.83 92.2167 122.796 92.2167 121.319C92.2167 119.878 92.8999 118.715 94.2849 118.715C95.6144 118.715 96.3161 119.786 96.3161 121.319C96.3161 122.888 95.596 123.83 94.2849 123.83ZM104.664 119.417C104.323 118.41 103.556 117.736 102.153 117.736C100.657 117.736 99.5491 118.586 99.5491 119.786C99.5491 120.765 100.131 121.42 101.433 121.725L102.614 122.002C103.33 122.168 103.667 122.51 103.667 122.999C103.667 123.609 103.021 124.107 102.005 124.107C101.114 124.107 100.556 123.724 100.362 122.962L99.3275 123.221C99.5814 124.426 100.574 125.067 102.024 125.067C103.672 125.067 104.793 124.167 104.793 122.944C104.793 121.956 104.175 121.333 102.91 121.023L101.857 120.765C101.017 120.557 100.639 120.276 100.639 119.731C100.639 119.121 101.285 118.678 102.153 118.678C103.104 118.678 103.496 119.204 103.685 119.694L104.664 119.417Z" fill="black"/>
<g clip-path="url(#clip0)">
<path d="M89.2587 50.7149V50.6119H89.1557H67.8146H67.7116V50.7149V54.9227C67.7116 56.5235 69.0306 57.8193 70.653 57.8193H86.3174C87.9397 57.8193 89.2587 56.5235 89.2587 54.9227V50.7149ZM91.424 54.9227C91.424 57.6956 89.1387 59.9471 86.3174 59.9471H70.653C67.8316 59.9471 65.5463 57.6956 65.5463 54.9227V49.548C65.5463 48.9619 66.0295 48.4841 66.629 48.4841H90.3414C90.9409 48.4841 91.424 48.9619 91.424 49.548V54.9227Z" fill="#FF8A00" stroke="white" stroke-width="0.205923"/>
<path d="M72.3864 34.0267L72.3211 33.9461L72.241 34.012L67.211 38.1492L67.1031 38.2379L67.2198 38.3147L72.2692 41.6373L72.3388 41.6831L72.3981 41.6245L75.7464 38.3197L75.8129 38.2541L75.7541 38.1816L72.3864 34.0267ZM64.6618 39.2349C64.0515 38.8333 64.0048 37.9663 64.568 37.5031L71.7753 31.5751C72.2482 31.1861 72.9527 31.2566 73.3369 31.7305L78.1417 37.6586C78.4907 38.0891 78.456 38.7094 78.0608 39.0995L73.2559 43.842C72.8857 44.2073 72.3051 44.2642 71.8691 43.9774L64.6618 39.2349Z" fill="#FF8A00" stroke="white" stroke-width="0.205923"/>
<path d="M81.1271 42.2031C81.1271 42.9041 80.5581 43.473 79.8572 43.473C79.1563 43.473 78.5873 42.9041 78.5873 42.2031C78.5873 41.5022 79.1563 40.9333 79.8572 40.9333C80.5581 40.9333 81.1271 41.5022 81.1271 42.2031Z" fill="#FF8A00" stroke="white" stroke-width="0.205923"/>
<path d="M78.3821 45.635C78.3821 45.9938 78.2727 46.3148 78.101 46.5438C77.9292 46.7728 77.6999 46.9049 77.4554 46.9049C77.2109 46.9049 76.9816 46.7728 76.8098 46.5438C76.6381 46.3148 76.5287 45.9938 76.5287 45.635C76.5287 45.2763 76.6381 44.9552 76.8098 44.7262C76.9816 44.4972 77.2109 44.3652 77.4554 44.3652C77.6999 44.3652 77.9292 44.4972 78.101 44.7262C78.2727 44.9552 78.3821 45.2763 78.3821 45.635Z" fill="#FF8A00" stroke="white" stroke-width="0.205923"/>
</g>
<defs>
<clipPath id="clip0">
<rect width="41.1847" height="41.1847" fill="white" transform="translate(57.8926 25.043)"/>
</clipPath>
</defs>
</svg>
