<svg width="158" height="159" viewBox="0 0 158 159" fill="none" xmlns="http://www.w3.org/2000/svg">
<rect y="0.5" width="158" height="158" rx="4.84663" fill="#FAFAFA"/>
<path d="M39.9958 100.213C39.9958 97.2212 38.2415 95.3561 35.8225 95.3561C33.4034 95.3561 31.6492 97.2212 31.6492 100.213C31.6492 103.204 33.4034 105.069 35.8225 105.069C38.2415 105.069 39.9958 103.204 39.9958 100.213ZM38.8878 100.213C38.8878 102.669 37.5398 103.998 35.8225 103.998C34.1051 103.998 32.7571 102.669 32.7571 100.213C32.7571 97.7567 34.1051 96.4272 35.8225 96.4272C37.5398 96.4272 38.8878 97.7567 38.8878 100.213ZM43.1226 100.674C43.1226 99.4371 43.8889 98.7354 44.9323 98.7354C45.9433 98.7354 46.5573 99.3956 46.5573 100.508V104.94H47.6468V100.434C47.6468 98.6246 46.6819 97.7567 45.2462 97.7567C44.1752 97.7567 43.5104 98.2368 43.178 98.957H43.0857V97.849H42.0331V104.94H43.1226V100.674ZM50.0453 104.94H51.0979V103.85H51.2272C51.4672 104.238 51.9289 105.088 53.2953 105.088C55.0681 105.088 56.3053 103.666 56.3053 101.413C56.3053 99.1786 55.0681 97.7567 53.2769 97.7567C51.8919 97.7567 51.4672 98.6061 51.2272 98.9755H51.1348V95.4854H50.0453V104.94ZM51.1164 101.394C51.1164 99.8064 51.8181 98.7354 53.1476 98.7354C54.5326 98.7354 55.2158 99.8987 55.2158 101.394C55.2158 102.909 54.5141 104.109 53.1476 104.109C51.8365 104.109 51.1164 103.001 51.1164 101.394ZM61.1125 105.088C63.033 105.088 64.3256 103.629 64.3256 101.431C64.3256 99.2155 63.033 97.7567 61.1125 97.7567C59.1921 97.7567 57.8994 99.2155 57.8994 101.431C57.8994 103.629 59.1921 105.088 61.1125 105.088ZM61.1125 104.109C59.6537 104.109 58.9889 102.853 58.9889 101.431C58.9889 100.01 59.6537 98.7354 61.1125 98.7354C62.5713 98.7354 63.2361 100.01 63.2361 101.431C63.2361 102.853 62.5713 104.109 61.1125 104.109ZM68.3353 105.106C69.5725 105.106 70.2188 104.441 70.4404 103.98H70.4958V104.94H71.5853V100.268C71.5853 98.0152 69.868 97.7567 68.9632 97.7567C67.8921 97.7567 66.6734 98.126 66.1194 99.4186L67.1535 99.788C67.3935 99.2709 67.9614 98.7169 69.0001 98.7169C70.0019 98.7169 70.4958 99.2478 70.4958 100.157V100.194C70.4958 100.72 69.9603 100.674 68.6677 100.841C67.352 101.011 65.9163 101.302 65.9163 102.927C65.9163 104.312 66.9873 105.106 68.3353 105.106ZM68.5015 104.127C67.6336 104.127 67.0058 103.74 67.0058 102.983C67.0058 102.152 67.7629 101.893 68.6123 101.782C69.0739 101.727 70.3112 101.598 70.4958 101.376V102.373C70.4958 103.26 69.7941 104.127 68.5015 104.127ZM73.8339 104.94H74.9233V100.453C74.9233 99.4925 75.6804 98.7908 76.7145 98.7908C77.0054 98.7908 77.3054 98.8462 77.3793 98.8647V97.7567C77.2547 97.7475 76.9684 97.7382 76.8069 97.7382C75.9574 97.7382 75.2188 98.2183 74.9603 98.9201H74.8864V97.849H73.8339V104.94ZM81.3925 105.088C82.759 105.088 83.2206 104.238 83.4607 103.85H83.5899V104.94H84.6425V95.4854H83.553V98.9755H83.4607C83.2206 98.6061 82.7959 97.7567 81.411 97.7567C79.6198 97.7567 78.3826 99.1786 78.3826 101.413C78.3826 103.666 79.6198 105.088 81.3925 105.088ZM81.5402 104.109C80.1738 104.109 79.4721 102.909 79.4721 101.394C79.4721 99.8987 80.1553 98.7354 81.5402 98.7354C82.8698 98.7354 83.5715 99.8064 83.5715 101.394C83.5715 103.001 82.8513 104.109 81.5402 104.109ZM87.0492 104.94H88.1387V97.849H87.0492V104.94ZM87.6031 96.6672C88.0279 96.6672 88.3787 96.3348 88.3787 95.9286C88.3787 95.5223 88.0279 95.1899 87.6031 95.1899C87.1784 95.1899 86.8276 95.5223 86.8276 95.9286C86.8276 96.3348 87.1784 96.6672 87.6031 96.6672ZM91.4836 100.674C91.4836 99.4371 92.25 98.7354 93.2933 98.7354C94.3043 98.7354 94.9183 99.3956 94.9183 100.508V104.94H96.0078V100.434C96.0078 98.6246 95.0429 97.7567 93.6072 97.7567C92.5362 97.7567 91.8714 98.2368 91.539 98.957H91.4467V97.849H90.3941V104.94H91.4836V100.674ZM101.121 107.747C102.82 107.747 104.186 106.971 104.186 105.143V97.849H103.134V98.9755H103.023C102.783 98.6061 102.34 97.7567 100.955 97.7567C99.1634 97.7567 97.9262 99.1786 97.9262 101.358C97.9262 103.573 99.2188 104.829 100.936 104.829C102.321 104.829 102.764 104.017 103.004 103.629H103.097V105.069C103.097 106.251 102.266 106.787 101.121 106.787C99.8328 106.787 99.3804 106.108 99.0896 105.716L98.2217 106.325C98.6649 107.068 99.5374 107.747 101.121 107.747ZM101.084 103.85C99.7174 103.85 99.0157 102.816 99.0157 101.339C99.0157 99.8987 99.699 98.7354 101.084 98.7354C102.413 98.7354 103.115 99.8064 103.115 101.339C103.115 102.909 102.395 103.85 101.084 103.85ZM113.514 97.849H111.926V97.1289C111.926 96.4272 112.222 96.0578 112.942 96.0578C113.256 96.0578 113.441 96.1317 113.551 96.1686L113.865 95.2269C113.699 95.153 113.367 95.0422 112.831 95.0422C111.816 95.0422 110.837 95.6516 110.837 96.8703V97.849H109.692V98.7723H110.837V104.94H111.926V98.7723H113.514V97.849ZM117.89 105.088C119.81 105.088 121.103 103.629 121.103 101.431C121.103 99.2155 119.81 97.7567 117.89 97.7567C115.97 97.7567 114.677 99.2155 114.677 101.431C114.677 103.629 115.97 105.088 117.89 105.088ZM117.89 104.109C116.431 104.109 115.766 102.853 115.766 101.431C115.766 100.01 116.431 98.7354 117.89 98.7354C119.349 98.7354 120.014 100.01 120.014 101.431C120.014 102.853 119.349 104.109 117.89 104.109ZM123.026 104.94H124.116V100.453C124.116 99.4925 124.873 98.7908 125.907 98.7908C126.198 98.7908 126.498 98.8462 126.572 98.8647V97.7567C126.447 97.7475 126.161 97.7382 125.999 97.7382C125.15 97.7382 124.411 98.2183 124.153 98.9201H124.079V97.849H123.026V104.94ZM31.5678 125.94H32.7127V122.487H34.7809C36.9829 122.487 37.9755 121.148 37.9755 119.477C37.9755 117.806 36.9829 116.485 34.7624 116.485H31.5678V125.94ZM32.7127 121.471V117.501H34.7255C36.2628 117.501 36.8491 118.341 36.8491 119.477C36.8491 120.613 36.2628 121.471 34.744 121.471H32.7127ZM42.8289 126.088C44.2692 126.088 45.3218 125.367 45.6542 124.296L44.6016 124.001C44.3246 124.74 43.6829 125.109 42.8289 125.109C41.5501 125.109 40.6684 124.283 40.6176 122.764H45.765V122.302C45.765 119.662 44.1954 118.757 42.7181 118.757C40.7976 118.757 39.5235 120.271 39.5235 122.45C39.5235 124.629 40.7792 126.088 42.8289 126.088ZM40.6176 121.822C40.6915 120.719 41.4716 119.735 42.7181 119.735C43.8999 119.735 44.657 120.622 44.657 121.822H40.6176ZM47.6823 125.94H48.7718V121.453C48.7718 120.492 49.5289 119.791 50.563 119.791C50.8538 119.791 51.1539 119.846 51.2277 119.865V118.757C51.1031 118.747 50.8169 118.738 50.6553 118.738C49.8059 118.738 49.0672 119.218 48.8087 119.92H48.7348V118.849H47.6823V125.94ZM57.8019 120.437C57.4603 119.431 56.694 118.757 55.2906 118.757C53.7948 118.757 52.6869 119.606 52.6869 120.806C52.6869 121.785 53.2685 122.441 54.5704 122.745L55.7522 123.022C56.4678 123.189 56.8048 123.53 56.8048 124.019C56.8048 124.629 56.1584 125.127 55.1428 125.127C54.2518 125.127 53.6932 124.744 53.4994 123.983L52.4653 124.241C52.7192 125.446 53.7117 126.088 55.1613 126.088C56.8094 126.088 57.9312 125.187 57.9312 123.964C57.9312 122.976 57.3126 122.353 56.0477 122.044L54.9951 121.785C54.1549 121.577 53.7763 121.296 53.7763 120.751C53.7763 120.142 54.4227 119.698 55.2906 119.698C56.2415 119.698 56.6339 120.225 56.8232 120.714L57.8019 120.437ZM62.7119 126.088C64.6323 126.088 65.9249 124.629 65.9249 122.431C65.9249 120.216 64.6323 118.757 62.7119 118.757C60.7914 118.757 59.4988 120.216 59.4988 122.431C59.4988 124.629 60.7914 126.088 62.7119 126.088ZM62.7119 125.109C61.2531 125.109 60.5883 123.853 60.5883 122.431C60.5883 121.01 61.2531 119.735 62.7119 119.735C64.1707 119.735 64.8354 121.01 64.8354 122.431C64.8354 123.853 64.1707 125.109 62.7119 125.109ZM68.9375 121.674C68.9375 120.437 69.7038 119.735 70.7472 119.735C71.7582 119.735 72.3722 120.396 72.3722 121.508V125.94H73.4617V121.434C73.4617 119.625 72.4968 118.757 71.0611 118.757C69.9901 118.757 69.3253 119.237 68.9929 119.957H68.9006V118.849H67.848V125.94H68.9375V121.674ZM77.7992 126.106C79.0364 126.106 79.6827 125.441 79.9043 124.98H79.9597V125.94H81.0492V121.268C81.0492 119.015 79.3318 118.757 78.427 118.757C77.356 118.757 76.1372 119.126 75.5832 120.419L76.6173 120.788C76.8574 120.271 77.4252 119.717 78.4639 119.717C79.4657 119.717 79.9597 120.248 79.9597 121.157V121.194C79.9597 121.72 79.4242 121.674 78.1315 121.841C76.8158 122.011 75.3801 122.302 75.3801 123.927C75.3801 125.312 76.4511 126.106 77.7992 126.106ZM77.9654 125.127C77.0975 125.127 76.4696 124.74 76.4696 123.983C76.4696 123.152 77.2267 122.893 78.0761 122.782C78.5378 122.727 79.775 122.598 79.9597 122.376V123.373C79.9597 124.26 79.258 125.127 77.9654 125.127ZM84.3872 116.485H83.2977V125.94H84.3872V116.485ZM86.6427 125.94H87.7322V118.849H86.6427V125.94ZM87.1966 117.667C87.6214 117.667 87.9722 117.335 87.9722 116.929C87.9722 116.522 87.6214 116.19 87.1966 116.19C86.7719 116.19 86.4211 116.522 86.4211 116.929C86.4211 117.335 86.7719 117.667 87.1966 117.667ZM95.0103 120.437C94.6687 119.431 93.9024 118.757 92.499 118.757C91.0032 118.757 89.8953 119.606 89.8953 120.806C89.8953 121.785 90.477 122.441 91.7788 122.745L92.9606 123.022C93.6762 123.189 94.0132 123.53 94.0132 124.019C94.0132 124.629 93.3669 125.127 92.3513 125.127C91.4603 125.127 90.9017 124.744 90.7078 123.983L89.6737 124.241C89.9276 125.446 90.9202 126.088 92.3697 126.088C94.0178 126.088 95.1396 125.187 95.1396 123.964C95.1396 122.976 94.521 122.353 93.2561 122.044L92.2035 121.785C91.3633 121.577 90.9848 121.296 90.9848 120.751C90.9848 120.142 91.6311 119.698 92.499 119.698C93.45 119.698 93.8424 120.225 94.0317 120.714L95.0103 120.437ZM99.1263 126.106C100.363 126.106 101.01 125.441 101.231 124.98H101.287V125.94H102.376V121.268C102.376 119.015 100.659 118.757 99.7541 118.757C98.6831 118.757 97.4643 119.126 96.9104 120.419L97.9444 120.788C98.1845 120.271 98.7523 119.717 99.791 119.717C100.793 119.717 101.287 120.248 101.287 121.157V121.194C101.287 121.72 100.751 121.674 99.4587 121.841C98.143 122.011 96.7072 122.302 96.7072 123.927C96.7072 125.312 97.7783 126.106 99.1263 126.106ZM99.2925 125.127C98.4246 125.127 97.7967 124.74 97.7967 123.983C97.7967 123.152 98.5538 122.893 99.4033 122.782C99.8649 122.727 101.102 122.598 101.287 122.376V123.373C101.287 124.26 100.585 125.127 99.2925 125.127ZM107.709 118.849H106.194V117.15H105.105V118.849H104.034V119.772H105.105V124.204C105.105 125.441 106.102 126.032 107.025 126.032C107.432 126.032 107.69 125.958 107.838 125.903L107.616 124.924C107.524 124.943 107.376 124.98 107.136 124.98C106.656 124.98 106.194 124.832 106.194 123.909V119.772H107.709V118.849ZM109.607 125.94H110.697V118.849H109.607V125.94ZM110.161 117.667C110.586 117.667 110.937 117.335 110.937 116.929C110.937 116.522 110.586 116.19 110.161 116.19C109.737 116.19 109.386 116.522 109.386 116.929C109.386 117.335 109.737 117.667 110.161 117.667ZM115.833 126.088C117.754 126.088 119.046 124.629 119.046 122.431C119.046 120.216 117.754 118.757 115.833 118.757C113.913 118.757 112.62 120.216 112.62 122.431C112.62 124.629 113.913 126.088 115.833 126.088ZM115.833 125.109C114.374 125.109 113.71 123.853 113.71 122.431C113.71 121.01 114.374 119.735 115.833 119.735C117.292 119.735 117.957 121.01 117.957 122.431C117.957 123.853 117.292 125.109 115.833 125.109ZM122.059 121.674C122.059 120.437 122.825 119.735 123.868 119.735C124.879 119.735 125.493 120.396 125.493 121.508V125.94H126.583V121.434C126.583 119.625 125.618 118.757 124.182 118.757C123.111 118.757 122.447 119.237 122.114 119.957H122.022V118.849H120.969V125.94H122.059V121.674Z" fill="black"/>
<g clip-path="url(#clip0)">
<path d="M83.7835 29.5017C83.7835 27.4034 81.9279 25.7024 79.6393 25.7024C77.3498 25.7024 75.4941 27.4038 75.4941 29.5017C75.4941 31.6 77.3502 33.301 79.6393 33.301C81.9279 33.3006 83.7835 31.6 83.7835 29.5017Z" fill="#FF8A00"/>
<path d="M75.3328 37.8526C71.5247 35.8614 68.3087 32.7407 66.0531 28.8485C65.6202 28.1012 65.825 27.1125 66.5106 26.641C67.1962 26.1687 68.1031 26.3919 68.5364 27.1397C70.628 30.7495 73.6674 33.5904 77.2593 35.2936H82.025C85.6169 33.5908 88.6559 30.7495 90.7482 27.1397C91.1811 26.3923 92.0881 26.1687 92.7733 26.641C93.4585 27.1129 93.6636 28.1012 93.2304 28.8485C90.9435 32.7964 87.6685 35.9486 83.7927 37.9346V51.1564V65.2723C83.7927 66.3081 83.0219 67.1495 82.071 67.1495C81.12 67.1495 80.3497 66.3085 80.3497 65.2723V51.156C80.3497 50.6819 79.9968 50.2976 79.5623 50.2976C79.1275 50.2976 78.775 50.6823 78.775 51.156V65.2719C78.775 66.3076 78.0042 67.1491 77.0533 67.1491C76.1024 67.1491 75.332 66.3081 75.332 65.2719V51.156V37.8526H75.3328Z" fill="#FF8A00"/>
</g>
<defs>
<clipPath id="clip0">
<rect width="42.2929" height="41.447" fill="white" transform="translate(58.2266 25.7024)"/>
</clipPath>
</defs>
</svg>
