<svg width="157" height="157" viewBox="0 0 157 157" fill="none" xmlns="http://www.w3.org/2000/svg">
<rect width="157" height="157" rx="4.81595" fill="#FAFAFA"/>
<path d="M33.4881 96.7292H34.596C34.5452 95.3027 33.2295 94.2363 31.4014 94.2363C29.5918 94.2363 28.1699 95.2888 28.1699 96.8769C28.1699 98.151 29.0932 98.9081 30.5705 99.3329L31.7338 99.6652C32.731 99.9422 33.6173 100.293 33.6173 101.235C33.6173 102.269 32.6202 102.952 31.3091 102.952C30.1827 102.952 29.1855 102.454 29.0932 101.383H27.9114C28.0222 102.934 29.2778 103.986 31.3091 103.986C33.4881 103.986 34.7253 102.786 34.7253 101.253C34.7253 99.4806 33.0449 98.9081 32.0662 98.6496L31.106 98.3911C30.4043 98.2064 29.2778 97.8371 29.2778 96.8215C29.2778 95.9167 30.1088 95.2519 31.3645 95.2519C32.5094 95.2519 33.3773 95.7966 33.4881 96.7292ZM38.8066 103.986C40.0438 103.986 40.6901 103.321 40.9117 102.86H40.9671V103.82H42.0566V99.1482C42.0566 96.8954 40.3392 96.6368 39.4344 96.6368C38.3634 96.6368 37.1446 97.0061 36.5907 98.2988L37.6248 98.6681C37.8648 98.151 38.4326 97.5971 39.4713 97.5971C40.4731 97.5971 40.9671 98.128 40.9671 99.0374V99.0743C40.9671 99.6006 40.4316 99.5544 39.139 99.7206C37.8233 99.8914 36.3875 100.182 36.3875 101.807C36.3875 103.192 37.4586 103.986 38.8066 103.986ZM38.9728 103.008C38.1049 103.008 37.477 102.62 37.477 101.863C37.477 101.032 38.2341 100.773 39.0836 100.662C39.5452 100.607 40.7824 100.478 40.9671 100.256V101.253C40.9671 102.14 40.2654 103.008 38.9728 103.008ZM49.8495 96.7292H48.6677L46.7103 102.38H46.6364L44.6791 96.7292H43.4972L46.1194 103.82H47.2274L49.8495 96.7292ZM54.2666 103.968C55.707 103.968 56.7595 103.248 57.0919 102.177L56.0394 101.881C55.7624 102.62 55.1207 102.989 54.2666 102.989C52.9879 102.989 52.1061 102.163 52.0554 100.644H57.2027V100.182C57.2027 97.5417 55.6331 96.6368 54.1559 96.6368C52.2354 96.6368 50.9613 98.151 50.9613 100.33C50.9613 102.509 52.2169 103.968 54.2666 103.968ZM52.0554 99.7022C52.1292 98.5988 52.9094 97.6155 54.1559 97.6155C55.3377 97.6155 56.0948 98.5019 56.0948 99.7022H52.0554ZM63.184 103.82H64.3289V100.127H66.3971C66.4802 100.127 66.5587 100.127 66.6371 100.122L68.6315 103.82H69.961L67.8236 99.9145C69.0285 99.5037 69.5917 98.5204 69.5917 97.2647C69.5917 95.5935 68.5945 94.3655 66.3786 94.3655H63.184V103.82ZM64.3289 99.0928V95.3811H66.3417C67.8744 95.3811 68.4653 96.129 68.4653 97.2647C68.4653 98.4003 67.8744 99.0928 66.3602 99.0928H64.3289ZM74.5086 103.968C75.9489 103.968 77.0015 103.248 77.3338 102.177L76.2813 101.881C76.0043 102.62 75.3626 102.989 74.5086 102.989C73.2298 102.989 72.3481 102.163 72.2973 100.644H77.4446V100.182C77.4446 97.5417 75.875 96.6368 74.3978 96.6368C72.4773 96.6368 71.2032 98.151 71.2032 100.33C71.2032 102.509 72.4588 103.968 74.5086 103.968ZM72.2973 99.7022C72.3711 98.5988 73.1513 97.6155 74.3978 97.6155C75.5796 97.6155 76.3367 98.5019 76.3367 99.7022H72.2973ZM82.2426 103.968C83.8122 103.968 84.8463 103.008 85.031 101.752H83.9415C83.7384 102.527 83.0921 102.989 82.2426 102.989C80.95 102.989 80.1191 101.918 80.1191 100.275C80.1191 98.6681 80.9685 97.6155 82.2426 97.6155C83.2029 97.6155 83.7753 98.2064 83.9415 98.8527H85.031C84.8463 97.5232 83.7199 96.6368 82.2242 96.6368C80.3037 96.6368 79.0296 98.151 79.0296 100.312C79.0296 102.435 80.2483 103.968 82.2426 103.968ZM86.8837 103.82H87.9732V96.7292H86.8837V103.82ZM87.4377 95.5473C87.8624 95.5473 88.2132 95.215 88.2132 94.8087C88.2132 94.4025 87.8624 94.0701 87.4377 94.0701C87.0129 94.0701 86.6621 94.4025 86.6621 94.8087C86.6621 95.215 87.0129 95.5473 87.4377 95.5473ZM90.2286 106.479H91.3181V102.731H91.4105C91.6505 103.118 92.1122 103.968 93.4786 103.968C95.2514 103.968 96.4886 102.546 96.4886 100.293C96.4886 98.0587 95.2514 96.6368 93.4602 96.6368C92.0752 96.6368 91.6505 97.4863 91.4105 97.8556H91.2812V96.7292H90.2286V106.479ZM91.2997 100.275C91.2997 98.6865 92.0014 97.6155 93.3309 97.6155C94.7159 97.6155 95.3991 98.7789 95.3991 100.275C95.3991 101.789 94.6974 102.989 93.3309 102.989C92.0198 102.989 91.2997 101.881 91.2997 100.275ZM101.384 103.968C102.824 103.968 103.876 103.248 104.209 102.177L103.156 101.881C102.879 102.62 102.238 102.989 101.384 102.989C100.105 102.989 99.223 102.163 99.1722 100.644H104.32V100.182C104.32 97.5417 102.75 96.6368 101.273 96.6368C99.3523 96.6368 98.0781 98.151 98.0781 100.33C98.0781 102.509 99.3338 103.968 101.384 103.968ZM99.1722 99.7022C99.2461 98.5988 100.026 97.6155 101.273 97.6155C102.455 97.6155 103.212 98.5019 103.212 99.7022H99.1722ZM111.26 98.3172C110.918 97.3108 110.152 96.6368 108.748 96.6368C107.253 96.6368 106.145 97.4863 106.145 98.6865C106.145 99.6652 106.726 100.321 108.028 100.625L109.21 100.902C109.925 101.069 110.262 101.41 110.262 101.9C110.262 102.509 109.616 103.008 108.601 103.008C107.71 103.008 107.151 102.624 106.957 101.863L105.923 102.121C106.177 103.326 107.169 103.968 108.619 103.968C110.267 103.968 111.389 103.068 111.389 101.844C111.389 100.856 110.77 100.233 109.505 99.9238L108.453 99.6652C107.613 99.4575 107.234 99.1759 107.234 98.6311C107.234 98.0218 107.88 97.5786 108.748 97.5786C109.699 97.5786 110.092 98.1049 110.281 98.5942L111.26 98.3172ZM120.289 96.7292H118.775V95.0303H117.685V96.7292H116.614V97.6525H117.685V102.084C117.685 103.321 118.682 103.912 119.606 103.912C120.012 103.912 120.271 103.839 120.418 103.783L120.197 102.804C120.104 102.823 119.957 102.86 119.717 102.86C119.236 102.86 118.775 102.712 118.775 101.789V97.6525H120.289V96.7292ZM124.992 103.968C126.913 103.968 128.205 102.509 128.205 100.312C128.205 98.0956 126.913 96.6368 124.992 96.6368C123.072 96.6368 121.779 98.0956 121.779 100.312C121.779 102.509 123.072 103.968 124.992 103.968ZM124.992 102.989C123.534 102.989 122.869 101.733 122.869 100.312C122.869 98.8897 123.534 97.6155 124.992 97.6155C126.451 97.6155 127.116 98.8897 127.116 100.312C127.116 101.733 126.451 102.989 124.992 102.989ZM51.518 118.32C51.1671 116.381 49.616 115.236 47.714 115.236C45.2949 115.236 43.5407 117.101 43.5407 120.093C43.5407 123.084 45.2949 124.949 47.714 124.949C49.616 124.949 51.1671 123.804 51.518 121.866H50.3731C50.0961 123.177 48.9697 123.878 47.714 123.878C45.9966 123.878 44.6486 122.549 44.6486 120.093C44.6486 117.637 45.9966 116.307 47.714 116.307C48.9697 116.307 50.0961 117.009 50.3731 118.32H51.518ZM56.361 124.968C58.2814 124.968 59.574 123.509 59.574 121.312C59.574 119.096 58.2814 117.637 56.361 117.637C54.4405 117.637 53.1479 119.096 53.1479 121.312C53.1479 123.509 54.4405 124.968 56.361 124.968ZM56.361 123.989C54.9022 123.989 54.2374 122.733 54.2374 121.312C54.2374 119.89 54.9022 118.616 56.361 118.616C57.8198 118.616 58.4845 119.89 58.4845 121.312C58.4845 122.733 57.8198 123.989 56.361 123.989ZM62.5866 115.366H61.4971V124.82H62.5866V115.366ZM65.9316 115.366H64.8421V124.82H65.9316V115.366ZM71.1601 124.968C72.6004 124.968 73.6529 124.248 73.9853 123.177L72.9328 122.881C72.6558 123.62 72.0141 123.989 71.1601 123.989C69.8813 123.989 68.9995 123.163 68.9488 121.644H74.0961V121.182C74.0961 118.542 72.5265 117.637 71.0493 117.637C69.1288 117.637 67.8547 119.151 67.8547 121.33C67.8547 123.509 69.1103 124.968 71.1601 124.968ZM68.9488 120.702C69.0226 119.599 69.8028 118.616 71.0493 118.616C72.2311 118.616 72.9882 119.502 72.9882 120.702H68.9488ZM78.8941 124.968C80.4637 124.968 81.4978 124.008 81.6825 122.752H80.593C80.3899 123.527 79.7436 123.989 78.8941 123.989C77.6015 123.989 76.7705 122.918 76.7705 121.275C76.7705 119.668 77.62 118.616 78.8941 118.616C79.8544 118.616 80.4268 119.206 80.593 119.853H81.6825C81.4978 118.523 80.3714 117.637 78.8757 117.637C76.9552 117.637 75.6811 119.151 75.6811 121.312C75.6811 123.435 76.8998 124.968 78.8941 124.968ZM86.619 117.729H85.1048V116.03H84.0153V117.729H82.9443V118.652H84.0153V123.084C84.0153 124.321 85.0124 124.912 85.9357 124.912C86.342 124.912 86.6005 124.839 86.7482 124.783L86.5266 123.804C86.4343 123.823 86.2866 123.86 86.0465 123.86C85.5664 123.86 85.1048 123.712 85.1048 122.789V118.652H86.619V117.729ZM88.5178 124.82H89.6073V117.729H88.5178V124.82ZM89.0718 116.547C89.4965 116.547 89.8474 116.215 89.8474 115.809C89.8474 115.402 89.4965 115.07 89.0718 115.07C88.6471 115.07 88.2962 115.402 88.2962 115.809C88.2962 116.215 88.6471 116.547 89.0718 116.547ZM94.7435 124.968C96.6639 124.968 97.9565 123.509 97.9565 121.312C97.9565 119.096 96.6639 117.637 94.7435 117.637C92.823 117.637 91.5304 119.096 91.5304 121.312C91.5304 123.509 92.823 124.968 94.7435 124.968ZM94.7435 123.989C93.2847 123.989 92.6199 122.733 92.6199 121.312C92.6199 119.89 93.2847 118.616 94.7435 118.616C96.2023 118.616 96.867 119.89 96.867 121.312C96.867 122.733 96.2023 123.989 94.7435 123.989ZM100.969 120.554C100.969 119.317 101.735 118.616 102.779 118.616C103.79 118.616 104.404 119.276 104.404 120.388V124.82H105.493V120.314C105.493 118.505 104.528 117.637 103.093 117.637C102.022 117.637 101.357 118.117 101.025 118.837H100.932V117.729H99.8796V124.82H100.969V120.554ZM112.767 119.317C112.425 118.311 111.659 117.637 110.255 117.637C108.76 117.637 107.652 118.486 107.652 119.687C107.652 120.665 108.233 121.321 109.535 121.625L110.717 121.902C111.433 122.069 111.77 122.41 111.77 122.9C111.77 123.509 111.123 124.008 110.108 124.008C109.217 124.008 108.658 123.624 108.464 122.863L107.43 123.121C107.684 124.326 108.677 124.968 110.126 124.968C111.774 124.968 112.896 124.068 112.896 122.844C112.896 121.856 112.277 121.233 111.013 120.924L109.96 120.665C109.12 120.457 108.741 120.176 108.741 119.631C108.741 119.022 109.388 118.579 110.255 118.579C111.206 118.579 111.599 119.105 111.788 119.594L112.767 119.317Z" fill="black"/>
<path d="M90.1654 31.907H66.141C64.2456 31.907 62.709 33.4436 62.709 35.339C62.709 37.2345 64.2456 38.7711 66.141 38.7711H90.1654C92.0609 38.7711 93.5975 37.2345 93.5975 35.339C93.5975 33.4436 92.0609 31.907 90.1654 31.907Z" stroke="#FF8A00" stroke-width="2.05923" stroke-linecap="round" stroke-linejoin="round"/>
<path d="M66.1426 38.771V55.9313C66.1426 56.8415 66.5042 57.7145 67.1478 58.3581C67.7914 59.0017 68.6644 59.3633 69.5746 59.3633H86.7349C87.6452 59.3633 88.5181 59.0017 89.1617 58.3581C89.8054 57.7145 90.167 56.8415 90.167 55.9313V38.771" stroke="#FF8A00" stroke-width="2.05923" stroke-linecap="round" stroke-linejoin="round"/>
<path d="M74.7188 45.6353H81.5829" stroke="#FF8A00" stroke-width="2.05923" stroke-linecap="round" stroke-linejoin="round"/>
</svg>
