<svg width="158" height="159" viewBox="0 0 158 159" fill="none" xmlns="http://www.w3.org/2000/svg">
<rect y="0.5" width="158" height="158" rx="4.84663" fill="#FAFAFA"/>
<path d="M55.8531 51.2613C58.5236 51.2613 60.6885 49.0964 60.6885 46.4258C60.6885 43.7553 58.5236 41.5903 55.8531 41.5903C53.1825 41.5903 51.0176 43.7553 51.0176 46.4258C51.0176 49.0964 53.1825 51.2613 55.8531 51.2613Z" stroke="#FF8A00" stroke-width="2.07235" stroke-linecap="round" stroke-linejoin="round"/>
<path d="M38.584 46.426L41.1744 49.8799C42.9564 52.0494 45.1971 53.7968 47.7353 54.9966C50.2735 56.1964 53.0461 56.8187 55.8536 56.8187C58.661 56.8187 61.4336 56.1964 63.9718 54.9966C66.51 53.7968 68.7507 52.0494 70.5327 49.8799L73.1232 46.426" stroke="#FF8A00" stroke-width="2.07235" stroke-linecap="round" stroke-linejoin="round"/>
<path d="M38.584 46.4256L41.1744 42.9717C42.9564 40.8023 45.1971 39.0548 47.7353 37.855C50.2735 36.6552 53.0461 36.033 55.8536 36.033C58.661 36.033 61.4336 36.6552 63.9718 37.855C66.51 39.0548 68.7507 40.8023 70.5327 42.9717L73.1232 46.4256" stroke="#FF8A00" stroke-width="2.07235" stroke-linecap="round" stroke-linejoin="round"/>
<path d="M91.4961 42.9723C91.4946 41.1087 91.924 39.27 92.7508 37.5998C93.5775 35.9297 94.7792 34.4732 96.262 33.3444C97.7447 32.2155 99.4684 31.4447 101.298 31.0922C103.128 30.7397 105.015 30.8151 106.811 31.3125C108.607 31.8098 110.264 32.7157 111.652 33.9593C113.04 35.2029 114.121 36.7505 114.812 38.4813C115.503 40.2122 115.784 42.0793 115.634 43.9368C115.484 45.7943 114.906 47.592 113.947 49.1894C112.965 50.4985 111.802 51.6614 110.493 52.6433C108.962 54.0849 107.781 55.8569 107.039 57.8242C106.503 58.8369 105.75 59.7186 104.833 60.4061C103.916 61.0936 102.859 61.57 101.737 61.801C100.615 62.0321 99.4553 62.0121 98.3416 61.7426C97.228 61.473 96.1878 60.9606 95.2954 60.2419" stroke="#FF8A00" stroke-width="2.07235" stroke-linecap="round" stroke-linejoin="round"/>
<path d="M98.4047 42.9723C98.3943 42.1056 98.6016 41.2501 99.0075 40.4842C99.4134 39.7183 100.005 39.0665 100.728 38.5885C101.451 38.1105 102.283 37.8215 103.146 37.7481C104.01 37.6747 104.878 37.8191 105.672 38.1682C106.465 38.5173 107.158 39.0599 107.688 39.7463C108.217 40.4327 108.566 41.2409 108.702 42.0969C108.838 42.953 108.757 43.8295 108.467 44.6462C108.176 45.4629 107.685 46.1937 107.039 46.7716" stroke="#FF8A00" stroke-width="2.07235" stroke-linecap="round" stroke-linejoin="round"/>
<path d="M35.2895 95.4185H34.0893L37.5609 104.873H38.7427L42.2143 95.4185H41.014L38.2072 103.377H38.0964L35.2895 95.4185ZM43.7992 104.873H44.8887V97.7821H43.7992V104.873ZM44.3532 96.6003C44.7779 96.6003 45.1287 96.2679 45.1287 95.8617C45.1287 95.4554 44.7779 95.123 44.3532 95.123C43.9285 95.123 43.5776 95.4554 43.5776 95.8617C43.5776 96.2679 43.9285 96.6003 44.3532 96.6003ZM49.8217 105.021C51.1882 105.021 51.6498 104.171 51.8899 103.784H52.0192V104.873H53.0717V95.4185H51.9822V98.9086H51.8899C51.6498 98.5392 51.2251 97.6898 49.8402 97.6898C48.049 97.6898 46.8118 99.1117 46.8118 101.346C46.8118 103.599 48.049 105.021 49.8217 105.021ZM49.9694 104.042C48.603 104.042 47.9013 102.842 47.9013 101.328C47.9013 99.8319 48.5845 98.6685 49.9694 98.6685C51.299 98.6685 52.0007 99.7395 52.0007 101.328C52.0007 102.934 51.2805 104.042 49.9694 104.042ZM58.4514 105.021C59.8917 105.021 60.9443 104.301 61.2767 103.23L60.2241 102.934C59.9471 103.673 59.3054 104.042 58.4514 104.042C57.1726 104.042 56.2909 103.216 56.2401 101.697H61.3875V101.235C61.3875 98.5946 59.8179 97.6898 58.3406 97.6898C56.4201 97.6898 55.146 99.204 55.146 101.383C55.146 103.562 56.4017 105.021 58.4514 105.021ZM56.2401 100.755C56.314 99.6518 57.0941 98.6685 58.3406 98.6685C59.5224 98.6685 60.2795 99.5549 60.2795 100.755H56.2401ZM66.1855 105.021C68.1059 105.021 69.3985 103.562 69.3985 101.365C69.3985 99.1486 68.1059 97.6898 66.1855 97.6898C64.265 97.6898 62.9724 99.1486 62.9724 101.365C62.9724 103.562 64.265 105.021 66.1855 105.021ZM66.1855 104.042C64.7267 104.042 64.0619 102.786 64.0619 101.365C64.0619 99.9426 64.7267 98.6685 66.1855 98.6685C67.6443 98.6685 68.309 99.9426 68.309 101.365C68.309 102.786 67.6443 104.042 66.1855 104.042ZM78.0078 104.227H79.0418V101.697H81.5717V100.663H79.0418V98.133H78.0078V100.663H75.4779V101.697H78.0078V104.227ZM88.519 104.873L89.47 102.195H93.2924L94.2434 104.873H95.4437L91.9721 95.4185H90.7903L87.3187 104.873H88.519ZM89.83 101.18L91.3443 96.9142H91.4181L92.9323 101.18H89.83ZM101.497 101.974C101.497 103.303 100.482 103.913 99.6692 103.913C98.7644 103.913 98.1181 103.248 98.1181 102.214V97.7821H97.0286V102.288C97.0286 104.097 97.9888 104.965 99.3184 104.965C100.389 104.965 101.091 104.393 101.423 103.673H101.497V104.873H102.587V97.7821H101.497V101.974ZM107.52 105.021C108.886 105.021 109.348 104.171 109.588 103.784H109.717V104.873H110.77V95.4185H109.68V98.9086H109.588C109.348 98.5392 108.923 97.6898 107.538 97.6898C105.747 97.6898 104.51 99.1117 104.51 101.346C104.51 103.599 105.747 105.021 107.52 105.021ZM107.668 104.042C106.301 104.042 105.599 102.842 105.599 101.328C105.599 99.8319 106.283 98.6685 107.668 98.6685C108.997 98.6685 109.699 99.7395 109.699 101.328C109.699 102.934 108.979 104.042 107.668 104.042ZM113.177 104.873H114.266V97.7821H113.177V104.873ZM113.731 96.6003C114.155 96.6003 114.506 96.2679 114.506 95.8617C114.506 95.4554 114.155 95.123 113.731 95.123C113.306 95.123 112.955 95.4554 112.955 95.8617C112.955 96.2679 113.306 96.6003 113.731 96.6003ZM119.402 105.021C121.323 105.021 122.615 103.562 122.615 101.365C122.615 99.1486 121.323 97.6898 119.402 97.6898C117.482 97.6898 116.189 99.1486 116.189 101.365C116.189 103.562 117.482 105.021 119.402 105.021ZM119.402 104.042C117.943 104.042 117.279 102.786 117.279 101.365C117.279 99.9426 117.943 98.6685 119.402 98.6685C120.861 98.6685 121.526 99.9426 121.526 101.365C121.526 102.786 120.861 104.042 119.402 104.042ZM39.9509 125.873H43.3671C45.6015 125.873 46.5248 124.784 46.5248 123.362C46.5248 121.866 45.4907 121.053 44.6228 120.998V120.906C45.4353 120.684 46.1555 120.149 46.1555 118.93C46.1555 117.545 45.2322 116.419 43.2563 116.419H39.9509V125.873ZM41.0958 124.857V121.57H43.4225C44.6598 121.57 45.4353 122.401 45.4353 123.362C45.4353 124.193 44.8629 124.857 43.3671 124.857H41.0958ZM41.0958 120.573V117.434H43.2563C44.512 117.434 45.066 118.099 45.066 118.93C45.066 119.927 44.2535 120.573 43.2194 120.573H41.0958ZM50.6049 126.039C51.8422 126.039 52.4885 125.374 52.7101 124.913H52.7655V125.873H53.8549V121.201C53.8549 118.948 52.1376 118.69 51.2328 118.69C50.1618 118.69 48.943 119.059 48.389 120.352L49.4231 120.721C49.6632 120.204 50.231 119.65 51.2697 119.65C52.2715 119.65 52.7655 120.181 52.7655 121.09V121.127C52.7655 121.654 52.2299 121.607 50.9373 121.774C49.6216 121.944 48.1859 122.235 48.1859 123.86C48.1859 125.245 49.2569 126.039 50.6049 126.039ZM50.7711 125.061C49.9032 125.061 49.2754 124.673 49.2754 123.916C49.2754 123.085 50.0325 122.826 50.8819 122.715C51.3436 122.66 52.5808 122.531 52.7655 122.309V123.306C52.7655 124.193 52.0637 125.061 50.7711 125.061ZM61.1262 120.37C60.7846 119.364 60.0183 118.69 58.6149 118.69C57.1191 118.69 56.0112 119.539 56.0112 120.74C56.0112 121.718 56.5928 122.374 57.8947 122.678L59.0765 122.955C59.7921 123.122 60.1291 123.463 60.1291 123.953C60.1291 124.562 59.4828 125.061 58.4671 125.061C57.5761 125.061 57.0176 124.677 56.8237 123.916L55.7896 124.174C56.0435 125.379 57.036 126.021 58.4856 126.021C60.1337 126.021 61.2555 125.121 61.2555 123.897C61.2555 122.909 60.6369 122.286 59.372 121.977L58.3194 121.718C57.4792 121.51 57.1006 121.229 57.1006 120.684C57.1006 120.075 57.747 119.632 58.6149 119.632C59.5658 119.632 59.9582 120.158 60.1475 120.647L61.1262 120.37ZM66.1285 126.021C67.5688 126.021 68.6214 125.301 68.9538 124.23L67.9012 123.934C67.6242 124.673 66.9825 125.042 66.1285 125.042C64.8497 125.042 63.968 124.216 63.9172 122.697H69.0646V122.235C69.0646 119.595 67.495 118.69 66.0177 118.69C64.0972 118.69 62.8231 120.204 62.8231 122.383C62.8231 124.562 64.0788 126.021 66.1285 126.021ZM63.9172 121.755C63.9911 120.652 64.7713 119.669 66.0177 119.669C67.1995 119.669 67.9566 120.555 67.9566 121.755H63.9172ZM73.6594 126.021C75.0259 126.021 75.4876 125.171 75.7276 124.784H75.8569V125.873H76.9094V116.419H75.82V119.909H75.7276C75.4876 119.539 75.0629 118.69 73.6779 118.69C71.8867 118.69 70.6495 120.112 70.6495 122.346C70.6495 124.599 71.8867 126.021 73.6594 126.021ZM73.8072 125.042C72.4407 125.042 71.739 123.842 71.739 122.328C71.739 120.832 72.4222 119.669 73.8072 119.669C75.1367 119.669 75.8384 120.74 75.8384 122.328C75.8384 123.934 75.1183 125.042 73.8072 125.042ZM88.5505 118.782H89.6585C89.6077 117.356 88.292 116.289 86.4639 116.289C84.6542 116.289 83.2324 117.342 83.2324 118.93C83.2324 120.204 84.1557 120.961 85.6329 121.386L86.7963 121.718C87.7934 121.995 88.6798 122.346 88.6798 123.288C88.6798 124.322 87.6826 125.005 86.3716 125.005C85.2451 125.005 84.248 124.507 84.1557 123.436H82.9738C83.0846 124.987 84.3403 126.039 86.3716 126.039C88.5505 126.039 89.7878 124.839 89.7878 123.306C89.7878 121.534 88.1074 120.961 87.1287 120.703L86.1684 120.444C85.4667 120.259 84.3403 119.89 84.3403 118.874C84.3403 117.97 85.1713 117.305 86.427 117.305C87.5718 117.305 88.4397 117.85 88.5505 118.782ZM94.8662 118.782H93.352V117.083H92.2625V118.782H91.1915V119.705H92.2625V124.137C92.2625 125.374 93.2597 125.965 94.183 125.965C94.5892 125.965 94.8477 125.892 94.9955 125.836L94.7739 124.857C94.6815 124.876 94.5338 124.913 94.2938 124.913C93.8136 124.913 93.352 124.765 93.352 123.842V119.705H94.8662V118.782ZM99.6619 126.021C101.102 126.021 102.155 125.301 102.487 124.23L101.435 123.934C101.158 124.673 100.516 125.042 99.6619 125.042C98.3831 125.042 97.5014 124.216 97.4506 122.697H102.598V122.235C102.598 119.595 101.028 118.69 99.5511 118.69C97.6306 118.69 96.3565 120.204 96.3565 122.383C96.3565 124.562 97.6122 126.021 99.6619 126.021ZM97.4506 121.755C97.5245 120.652 98.3047 119.669 99.5511 119.669C100.733 119.669 101.49 120.555 101.49 121.755H97.4506ZM104.515 128.532H105.605V124.784H105.697C105.937 125.171 106.399 126.021 107.765 126.021C109.538 126.021 110.775 124.599 110.775 122.346C110.775 120.112 109.538 118.69 107.747 118.69C106.362 118.69 105.937 119.539 105.697 119.909H105.568V118.782H104.515V128.532ZM105.586 122.328C105.586 120.74 106.288 119.669 107.618 119.669C109.003 119.669 109.686 120.832 109.686 122.328C109.686 123.842 108.984 125.042 107.618 125.042C106.306 125.042 105.586 123.934 105.586 122.328ZM117.72 120.37C117.378 119.364 116.612 118.69 115.209 118.69C113.713 118.69 112.605 119.539 112.605 120.74C112.605 121.718 113.187 122.374 114.488 122.678L115.67 122.955C116.386 123.122 116.723 123.463 116.723 123.953C116.723 124.562 116.076 125.061 115.061 125.061C114.17 125.061 113.611 124.677 113.417 123.916L112.383 124.174C112.637 125.379 113.63 126.021 115.079 126.021C116.727 126.021 117.849 125.121 117.849 123.897C117.849 122.909 117.231 122.286 115.966 121.977L114.913 121.718C114.073 121.51 113.694 121.229 113.694 120.684C113.694 120.075 114.341 119.632 115.209 119.632C116.16 119.632 116.552 120.158 116.741 120.647L117.72 120.37Z" fill="black"/>
</svg>
