<svg width="158" height="159" viewBox="0 0 158 159" fill="none" xmlns="http://www.w3.org/2000/svg">
<rect y="0.5" width="158" height="158" rx="4.84663" fill="#FAFAFA"/>
<path d="M33.2424 97.7821H34.3503C34.2996 96.3556 32.9839 95.2892 31.1557 95.2892C29.3461 95.2892 27.9242 96.3418 27.9242 97.9299C27.9242 99.204 28.8475 99.9611 30.3248 100.386L31.4881 100.718C32.4853 100.995 33.3717 101.346 33.3717 102.288C33.3717 103.322 32.3745 104.005 31.0634 104.005C29.937 104.005 28.9398 103.507 28.8475 102.436H27.6657C27.7765 103.987 29.0322 105.039 31.0634 105.039C33.2424 105.039 34.4796 103.839 34.4796 102.306C34.4796 100.534 32.7992 99.9611 31.8205 99.7026L30.8603 99.4441C30.1586 99.2594 29.0322 98.8901 29.0322 97.8745C29.0322 96.9696 29.8631 96.3049 31.1188 96.3049C32.2637 96.3049 33.1316 96.8496 33.2424 97.7821ZM37.5637 100.607C37.5637 99.3702 38.3532 98.6685 39.4288 98.6685C40.4537 98.6685 41.0723 99.3148 41.0723 100.441V104.873H42.1618V100.367C42.1618 98.5439 41.1923 97.6898 39.7427 97.6898C38.6255 97.6898 37.9885 98.1561 37.6561 98.8901H37.5637V95.4185H36.4742V104.873H37.5637V100.607ZM46.5016 105.039C47.7388 105.039 48.3851 104.374 48.6067 103.913H48.6621V104.873H49.7516V100.201C49.7516 97.9483 48.0342 97.6898 47.1294 97.6898C46.0584 97.6898 44.8396 98.0591 44.2857 99.3517L45.3197 99.7211C45.5598 99.204 46.1276 98.65 47.1663 98.65C48.1681 98.65 48.6621 99.1809 48.6621 100.09V100.127C48.6621 100.654 48.1266 100.607 46.8339 100.774C45.5183 100.944 44.0825 101.235 44.0825 102.86C44.0825 104.245 45.1536 105.039 46.5016 105.039ZM46.6678 104.061C45.7999 104.061 45.172 103.673 45.172 102.916C45.172 102.085 45.9291 101.826 46.7786 101.715C47.2402 101.66 48.4774 101.531 48.6621 101.309V102.306C48.6621 103.193 47.9604 104.061 46.6678 104.061ZM52.0001 104.873H53.0896V100.386C53.0896 99.4256 53.8467 98.7239 54.8808 98.7239C55.1716 98.7239 55.4717 98.7793 55.5456 98.7978V97.6898C55.4209 97.6806 55.1347 97.6713 54.9731 97.6713C54.1237 97.6713 53.3851 98.1515 53.1265 98.8532H53.0527V97.7821H52.0001V104.873ZM59.8542 105.021C61.2946 105.021 62.3471 104.301 62.6795 103.23L61.6269 102.934C61.35 103.673 60.7083 104.042 59.8542 104.042C58.5755 104.042 57.6937 103.216 57.6429 101.697H62.7903V101.235C62.7903 98.5946 61.2207 97.6898 59.7434 97.6898C57.823 97.6898 56.5488 99.204 56.5488 101.383C56.5488 103.562 57.8045 105.021 59.8542 105.021ZM57.6429 100.755C57.7168 99.6518 58.497 98.6685 59.7434 98.6685C60.9252 98.6685 61.6823 99.5549 61.6823 100.755H57.6429ZM68.7716 104.873H69.9165V101.18H71.9847C72.0678 101.18 72.1462 101.18 72.2247 101.175L74.219 104.873H75.5486L73.4111 100.968C74.616 100.557 75.1793 99.5733 75.1793 98.3176C75.1793 96.6465 74.1821 95.4185 71.9662 95.4185H68.7716V104.873ZM69.9165 100.146V96.4341H71.9293C73.4619 96.4341 74.0528 97.182 74.0528 98.3176C74.0528 99.4533 73.4619 100.146 71.9477 100.146H69.9165ZM80.0961 105.021C81.5365 105.021 82.589 104.301 82.9214 103.23L81.8689 102.934C81.5919 103.673 80.9502 104.042 80.0961 104.042C78.8174 104.042 77.9356 103.216 77.8848 101.697H83.0322V101.235C83.0322 98.5946 81.4626 97.6898 79.9853 97.6898C78.0649 97.6898 76.7907 99.204 76.7907 101.383C76.7907 103.562 78.0464 105.021 80.0961 105.021ZM77.8848 100.755C77.9587 99.6518 78.7389 98.6685 79.9853 98.6685C81.1672 98.6685 81.9243 99.5549 81.9243 100.755H77.8848ZM87.8302 105.021C89.3998 105.021 90.4339 104.061 90.6186 102.805H89.5291C89.3259 103.58 88.6796 104.042 87.8302 104.042C86.5376 104.042 85.7066 102.971 85.7066 101.328C85.7066 99.7211 86.5561 98.6685 87.8302 98.6685C88.7904 98.6685 89.3629 99.2594 89.5291 99.9057H90.6186C90.4339 98.5762 89.3075 97.6898 87.8117 97.6898C85.8913 97.6898 84.6171 99.204 84.6171 101.365C84.6171 103.488 85.8359 105.021 87.8302 105.021ZM92.4712 104.873H93.5607V97.7821H92.4712V104.873ZM93.0252 96.6003C93.4499 96.6003 93.8008 96.2679 93.8008 95.8617C93.8008 95.4554 93.4499 95.123 93.0252 95.123C92.6005 95.123 92.2496 95.4554 92.2496 95.8617C92.2496 96.2679 92.6005 96.6003 93.0252 96.6003ZM95.8162 107.532H96.9057V103.784H96.998C97.2381 104.171 97.6997 105.021 99.0662 105.021C100.839 105.021 102.076 103.599 102.076 101.346C102.076 99.1117 100.839 97.6898 99.0477 97.6898C97.6628 97.6898 97.2381 98.5392 96.998 98.9086H96.8688V97.7821H95.8162V107.532ZM96.8872 101.328C96.8872 99.7395 97.5889 98.6685 98.9185 98.6685C100.303 98.6685 100.987 99.8319 100.987 101.328C100.987 102.842 100.285 104.042 98.9185 104.042C97.6074 104.042 96.8872 102.934 96.8872 101.328ZM106.971 105.021C108.411 105.021 109.464 104.301 109.796 103.23L108.744 102.934C108.467 103.673 107.825 104.042 106.971 104.042C105.692 104.042 104.811 103.216 104.76 101.697H109.907V101.235C109.907 98.5946 108.338 97.6898 106.86 97.6898C104.94 97.6898 103.666 99.204 103.666 101.383C103.666 103.562 104.921 105.021 106.971 105.021ZM104.76 100.755C104.834 99.6518 105.614 98.6685 106.86 98.6685C108.042 98.6685 108.799 99.5549 108.799 100.755H104.76ZM116.847 99.3702C116.506 98.3638 115.739 97.6898 114.336 97.6898C112.84 97.6898 111.732 98.5392 111.732 99.7395C111.732 100.718 112.314 101.374 113.616 101.678L114.798 101.955C115.513 102.122 115.85 102.463 115.85 102.953C115.85 103.562 115.204 104.061 114.188 104.061C113.297 104.061 112.739 103.677 112.545 102.916L111.511 103.174C111.764 104.379 112.757 105.021 114.207 105.021C115.855 105.021 116.976 104.121 116.976 102.897C116.976 101.909 116.358 101.286 115.093 100.977L114.04 100.718C113.2 100.51 112.822 100.229 112.822 99.6841C112.822 99.0748 113.468 98.6316 114.336 98.6316C115.287 98.6316 115.679 99.1578 115.869 99.6472L116.847 99.3702ZM125.47 105.002C126.338 105.002 127.308 104.698 127.922 104.07L128.591 104.873H129.902L128.596 103.28C128.951 102.823 129.348 102.057 129.348 100.737H128.296C128.296 101.383 128.148 101.955 127.903 102.431L125.849 99.9242L126.541 99.4071C127.317 98.8347 127.797 98.2069 127.797 97.302C127.797 96.2495 126.929 95.3262 125.507 95.3262C124.122 95.3262 123.217 96.1941 123.217 97.4682C123.217 98.3084 123.674 98.9547 124.325 99.7395C123.222 100.506 122.46 101.217 122.46 102.362C122.46 103.894 123.605 105.002 125.47 105.002ZM127.271 103.28C126.749 103.77 126.089 104.042 125.433 104.042C124.307 104.042 123.568 103.248 123.568 102.362C123.568 102.103 123.808 101.438 124.658 100.811L125.009 100.552L127.271 103.28ZM125.179 99.1117C124.718 98.5485 124.325 98.013 124.325 97.4867C124.325 96.8958 124.824 96.2679 125.544 96.2679C126.227 96.2679 126.689 96.8219 126.689 97.302C126.689 97.9483 126.338 98.2992 125.803 98.65L125.179 99.1117ZM45.2028 116.419H44.0579V125.873H45.2028V116.419ZM48.7001 121.607C48.7001 120.37 49.4664 119.669 50.5097 119.669C51.5207 119.669 52.1347 120.329 52.1347 121.441V125.873H53.2242V121.367C53.2242 119.558 52.2594 118.69 50.8236 118.69C49.7526 118.69 49.0879 119.17 48.7555 119.89H48.6631V118.782H47.6106V125.873H48.7001V121.607ZM58.3373 128.68C60.0362 128.68 61.4026 127.904 61.4026 126.076V118.782H60.3501V119.909H60.2393C59.9992 119.539 59.556 118.69 58.1711 118.69C56.3799 118.69 55.1427 120.112 55.1427 122.291C55.1427 124.507 56.4353 125.762 58.1526 125.762C59.5376 125.762 59.9808 124.95 60.2208 124.562H60.3131V126.002C60.3131 127.184 59.4822 127.72 58.3373 127.72C57.0493 127.72 56.5969 127.041 56.306 126.649L55.4381 127.258C55.8813 128.001 56.7538 128.68 58.3373 128.68ZM58.3004 124.784C56.9339 124.784 56.2322 123.749 56.2322 122.272C56.2322 120.832 56.9154 119.669 58.3004 119.669C59.6299 119.669 60.3316 120.74 60.3316 122.272C60.3316 123.842 59.6114 124.784 58.3004 124.784ZM63.6569 125.873H64.7464V121.386C64.7464 120.426 65.5035 119.724 66.5376 119.724C66.8285 119.724 67.1285 119.779 67.2024 119.798V118.69C67.0778 118.681 66.7915 118.671 66.63 118.671C65.7805 118.671 65.0419 119.151 64.7834 119.853H64.7095V118.782H63.6569V125.873ZM71.5111 126.021C72.9514 126.021 74.004 125.301 74.3363 124.23L73.2838 123.934C73.0068 124.673 72.3651 125.042 71.5111 125.042C70.2323 125.042 69.3505 124.216 69.2998 122.697H74.4471V122.235C74.4471 119.595 72.8775 118.69 71.4003 118.69C69.4798 118.69 68.2057 120.204 68.2057 122.383C68.2057 124.562 69.4613 126.021 71.5111 126.021ZM69.2998 121.755C69.3736 120.652 70.1538 119.669 71.4003 119.669C72.5821 119.669 73.3392 120.555 73.3392 121.755H69.2998ZM79.042 126.021C80.4085 126.021 80.8701 125.171 81.1102 124.784H81.2394V125.873H82.292V116.419H81.2025V119.909H81.1102C80.8701 119.539 80.4454 118.69 79.0605 118.69C77.2693 118.69 76.0321 120.112 76.0321 122.346C76.0321 124.599 77.2693 126.021 79.042 126.021ZM79.1897 125.042C77.8233 125.042 77.1215 123.842 77.1215 122.328C77.1215 120.832 77.8048 119.669 79.1897 119.669C80.5193 119.669 81.221 120.74 81.221 122.328C81.221 123.934 80.5008 125.042 79.1897 125.042ZM84.6987 125.873H85.7882V118.782H84.6987V125.873ZM85.2526 117.6C85.6774 117.6 86.0282 117.268 86.0282 116.862C86.0282 116.455 85.6774 116.123 85.2526 116.123C84.8279 116.123 84.4771 116.455 84.4771 116.862C84.4771 117.268 84.8279 117.6 85.2526 117.6ZM91.0166 126.021C92.457 126.021 93.5095 125.301 93.8419 124.23L92.7894 123.934C92.5124 124.673 91.8707 125.042 91.0166 125.042C89.7379 125.042 88.8561 124.216 88.8053 122.697H93.9527V122.235C93.9527 119.595 92.3831 118.69 90.9058 118.69C88.9854 118.69 87.7112 120.204 87.7112 122.383C87.7112 124.562 88.9669 126.021 91.0166 126.021ZM88.8053 121.755C88.8792 120.652 89.6594 119.669 90.9058 119.669C92.0877 119.669 92.8448 120.555 92.8448 121.755H88.8053ZM96.9595 121.607C96.9595 120.37 97.7259 119.669 98.7692 119.669C99.7802 119.669 100.394 120.329 100.394 121.441V125.873H101.484V121.367C101.484 119.558 100.519 118.69 99.0831 118.69C98.0121 118.69 97.3473 119.17 97.0149 119.89H96.9226V118.782H95.87V125.873H96.9595V121.607ZM106.818 118.782H105.304V117.083H104.215V118.782H103.144V119.705H104.215V124.137C104.215 125.374 105.212 125.965 106.135 125.965C106.541 125.965 106.8 125.892 106.948 125.836L106.726 124.857C106.634 124.876 106.486 124.913 106.246 124.913C105.766 124.913 105.304 124.765 105.304 123.842V119.705H106.818V118.782ZM113.613 120.37C113.271 119.364 112.505 118.69 111.102 118.69C109.606 118.69 108.498 119.539 108.498 120.74C108.498 121.718 109.08 122.374 110.381 122.678L111.563 122.955C112.279 123.122 112.616 123.463 112.616 123.953C112.616 124.562 111.969 125.061 110.954 125.061C110.063 125.061 109.504 124.677 109.31 123.916L108.276 124.174C108.53 125.379 109.523 126.021 110.972 126.021C112.62 126.021 113.742 125.121 113.742 123.897C113.742 122.909 113.124 122.286 111.859 121.977L110.806 121.718C109.966 121.51 109.587 121.229 109.587 120.684C109.587 120.075 110.234 119.632 111.102 119.632C112.053 119.632 112.445 120.158 112.634 120.647L113.613 120.37Z" fill="black"/>
<path d="M68.2883 51.6066C71.1496 51.6066 73.4692 49.2871 73.4692 46.4257C73.4692 43.5644 71.1496 41.2449 68.2883 41.2449C65.427 41.2449 63.1074 43.5644 63.1074 46.4257C63.1074 49.2871 65.427 51.6066 68.2883 51.6066Z" stroke="#FF8A00" stroke-width="2.07235" stroke-linecap="round" stroke-linejoin="round"/>
<path d="M89.011 41.2451C91.8723 41.2451 94.1918 38.9255 94.1918 36.0642C94.1918 33.2029 91.8723 30.8833 89.011 30.8833C86.1496 30.8833 83.8301 33.2029 83.8301 36.0642C83.8301 38.9255 86.1496 41.2451 89.011 41.2451Z" stroke="#FF8A00" stroke-width="2.07235" stroke-linecap="round" stroke-linejoin="round"/>
<path d="M89.011 61.9684C91.8723 61.9684 94.1918 59.6489 94.1918 56.7876C94.1918 53.9262 91.8723 51.6067 89.011 51.6067C86.1496 51.6067 83.8301 53.9262 83.8301 56.7876C83.8301 59.6489 86.1496 61.9684 89.011 61.9684Z" stroke="#FF8A00" stroke-width="2.07235" stroke-linecap="round" stroke-linejoin="round"/>
<path d="M72.9512 44.1805L84.3491 38.3088" stroke="#FF8A00" stroke-width="2.07235" stroke-linecap="round" stroke-linejoin="round"/>
<path d="M72.9512 48.6707L84.3491 54.5423" stroke="#FF8A00" stroke-width="2.07235" stroke-linecap="round" stroke-linejoin="round"/>
</svg>
