<svg width="300" height="460" viewBox="0 0 300 460" fill="none" xmlns="http://www.w3.org/2000/svg">
<path d="M0 4.60315C0 2.41155 1.77665 0.634888 3.96825 0.634888H296.032C298.223 0.634888 300 2.41154 300 4.60314V455.397C300 457.588 298.223 459.365 296.032 459.365H3.96826C1.77665 459.365 0 457.588 0 455.397V4.60315Z" fill="white"/>
<path d="M27.38 91.5425C28.4758 91.5425 29.3641 90.6542 29.3641 89.5584C29.3641 88.4626 28.4758 87.5743 27.38 87.5743C26.2842 87.5743 25.3959 88.4626 25.3959 89.5584C25.3959 90.6542 26.2842 91.5425 27.38 91.5425Z" fill="black"/>
<path d="M43.4707 84.9632H46.3747V93.2063H47.4931V84.9632H50.3971V83.9711H43.4707V84.9632ZM51.9788 93.2063H53.043V86.2799H51.9788V93.2063ZM52.5199 85.1255C52.9348 85.1255 53.2775 84.8008 53.2775 84.404C53.2775 84.0072 52.9348 83.6825 52.5199 83.6825C52.105 83.6825 51.7623 84.0072 51.7623 84.404C51.7623 84.8008 52.105 85.1255 52.5199 85.1255ZM54.9922 93.2063H56.0564V88.8773C56.0564 87.8627 56.7959 87.1457 57.6256 87.1457C58.4328 87.1457 58.9965 87.6733 58.9965 88.4624V93.2063H60.0787V88.6969C60.0787 87.8041 60.6379 87.1457 61.6119 87.1457C62.3695 87.1457 63.0189 87.547 63.0189 88.5707V93.2063H64.0831V88.5707C64.0831 86.9428 63.2083 86.1897 61.9727 86.1897C60.9806 86.1897 60.2546 86.6452 59.8984 87.3621H59.8262C59.4835 86.6226 58.8792 86.1897 57.9684 86.1897C57.0665 86.1897 56.3991 86.6226 56.1105 87.3621H56.0203V86.2799H54.9922V93.2063ZM68.9329 93.3506C70.3398 93.3506 71.368 92.6471 71.6927 91.601L70.6645 91.3124C70.3939 92.0339 69.7671 92.3946 68.9329 92.3946C67.6838 92.3946 66.8225 91.5874 66.7729 90.1038H71.8009V89.6529C71.8009 87.0735 70.2677 86.1897 68.8247 86.1897C66.9488 86.1897 65.7042 87.6688 65.7042 89.7972C65.7042 91.9256 66.9307 93.3506 68.9329 93.3506ZM66.7729 89.1839C66.8451 88.1062 67.6072 87.1457 68.8247 87.1457C69.9791 87.1457 70.7186 88.0115 70.7186 89.1839H66.7729ZM73.4197 93.2063H74.484V88.8232C74.484 87.8852 75.2235 87.1998 76.2336 87.1998C76.5177 87.1998 76.8108 87.2539 76.8829 87.272V86.1897C76.7612 86.1807 76.4816 86.1717 76.3238 86.1717C75.4941 86.1717 74.7726 86.6406 74.52 87.3261H74.4479V86.2799H73.4197V93.2063ZM83.0507 87.8311C82.717 86.8481 81.9684 86.1897 80.5976 86.1897C79.1365 86.1897 78.0543 87.0194 78.0543 88.1919C78.0543 89.1479 78.6224 89.7882 79.8941 90.0858L81.0485 90.3564C81.7474 90.5187 82.0766 90.8524 82.0766 91.3304C82.0766 91.9256 81.4453 92.4126 80.4533 92.4126C79.5829 92.4126 79.0373 92.0384 78.8479 91.2943L77.8378 91.5468C78.0858 92.7238 79.0553 93.3506 80.4713 93.3506C82.0811 93.3506 83.1769 92.4713 83.1769 91.2763C83.1769 90.3113 82.5727 89.7025 81.3371 89.4004L80.309 89.1479C79.4882 88.9449 79.1185 88.6699 79.1185 88.1378C79.1185 87.5425 79.7498 87.1096 80.5976 87.1096C81.5265 87.1096 81.9098 87.6237 82.0947 88.1017L83.0507 87.8311ZM91.4347 86.2799H89.8835V85.5764C89.8835 84.891 90.1721 84.5303 90.8756 84.5303C91.1822 84.5303 91.3626 84.6024 91.4708 84.6385L91.7774 83.7186C91.6151 83.6464 91.2904 83.5382 90.7673 83.5382C89.7753 83.5382 88.8193 84.1334 88.8193 85.3239V86.2799H87.7009V87.1818H88.8193V93.2063H89.8835V87.1818H91.4347V86.2799ZM95.4548 93.3506C97.3307 93.3506 98.5934 91.9256 98.5934 89.7792C98.5934 87.6147 97.3307 86.1897 95.4548 86.1897C93.5789 86.1897 92.3163 87.6147 92.3163 89.7792C92.3163 91.9256 93.5789 93.3506 95.4548 93.3506ZM95.4548 92.3946C94.0299 92.3946 93.3805 91.1681 93.3805 89.7792C93.3805 88.3903 94.0299 87.1457 95.4548 87.1457C96.8798 87.1457 97.5291 88.3903 97.5291 89.7792C97.5291 91.1681 96.8798 92.3946 95.4548 92.3946ZM100.218 93.2063H101.282V88.8232C101.282 87.8852 102.022 87.1998 103.032 87.1998C103.316 87.1998 103.609 87.2539 103.681 87.272V86.1897C103.559 86.1807 103.28 86.1717 103.122 86.1717C102.292 86.1717 101.571 86.6406 101.318 87.3261H101.246V86.2799H100.218V93.2063ZM108.514 93.2063H109.578V88.8232C109.578 87.8852 110.318 87.1998 111.328 87.1998C111.612 87.1998 111.905 87.2539 111.977 87.272V86.1897C111.855 86.1807 111.576 86.1717 111.418 86.1717C110.588 86.1717 109.867 86.6406 109.614 87.3261H109.542V86.2799H108.514V93.2063ZM115.932 93.3506C117.339 93.3506 118.367 92.6471 118.692 91.601L117.664 91.3124C117.393 92.0339 116.766 92.3946 115.932 92.3946C114.683 92.3946 113.822 91.5874 113.772 90.1038H118.8V89.6529C118.8 87.0735 117.267 86.1897 115.824 86.1897C113.948 86.1897 112.703 87.6688 112.703 89.7972C112.703 91.9256 113.93 93.3506 115.932 93.3506ZM113.772 89.1839C113.844 88.1062 114.606 87.1457 115.824 87.1457C116.978 87.1457 117.718 88.0115 117.718 89.1839H113.772ZM123.233 93.3506C124.766 93.3506 125.776 92.4126 125.956 91.1861H124.892C124.694 91.9437 124.062 92.3946 123.233 92.3946C121.97 92.3946 121.158 91.3484 121.158 89.7431C121.158 88.1738 121.988 87.1457 123.233 87.1457C124.171 87.1457 124.73 87.7229 124.892 88.3542H125.956C125.776 87.0555 124.676 86.1897 123.215 86.1897C121.339 86.1897 120.094 87.6688 120.094 89.7792C120.094 91.8535 121.285 93.3506 123.233 93.3506ZM127.512 93.2063H128.576V86.2799H127.512V93.2063ZM128.053 85.1255C128.468 85.1255 128.811 84.8008 128.811 84.404C128.811 84.0072 128.468 83.6825 128.053 83.6825C127.638 83.6825 127.296 84.0072 127.296 84.404C127.296 84.8008 127.638 85.1255 128.053 85.1255ZM130.525 95.8037H131.59V92.1421H131.68C131.914 92.5209 132.365 93.3506 133.7 93.3506C135.432 93.3506 136.64 91.9617 136.64 89.7611C136.64 87.5786 135.432 86.1897 133.682 86.1897C132.329 86.1897 131.914 87.0194 131.68 87.3802H131.554V86.2799H130.525V95.8037ZM131.572 89.7431C131.572 88.1919 132.257 87.1457 133.556 87.1457C134.909 87.1457 135.576 88.2821 135.576 89.7431C135.576 91.2222 134.89 92.3946 133.556 92.3946C132.275 92.3946 131.572 91.3124 131.572 89.7431ZM141.168 93.3506C142.574 93.3506 143.603 92.6471 143.927 91.601L142.899 91.3124C142.629 92.0339 142.002 92.3946 141.168 92.3946C139.918 92.3946 139.057 91.5874 139.008 90.1038H144.036V89.6529C144.036 87.0735 142.502 86.1897 141.059 86.1897C139.183 86.1897 137.939 87.6688 137.939 89.7972C137.939 91.9256 139.165 93.3506 141.168 93.3506ZM139.008 89.1839C139.08 88.1062 139.842 87.1457 141.059 87.1457C142.214 87.1457 142.953 88.0115 142.953 89.1839H139.008ZM150.561 87.8311C150.227 86.8481 149.478 86.1897 148.107 86.1897C146.646 86.1897 145.564 87.0194 145.564 88.1919C145.564 89.1479 146.132 89.7882 147.404 90.0858L148.558 90.3564C149.257 90.5187 149.587 90.8524 149.587 91.3304C149.587 91.9256 148.955 92.4126 147.963 92.4126C147.093 92.4126 146.547 92.0384 146.358 91.2943L145.348 91.5468C145.596 92.7238 146.565 93.3506 147.981 93.3506C149.591 93.3506 150.687 92.4713 150.687 91.2763C150.687 90.3113 150.083 89.7025 148.847 89.4004L147.819 89.1479C146.998 88.9449 146.628 88.6699 146.628 88.1378C146.628 87.5425 147.26 87.1096 148.107 87.1096C149.036 87.1096 149.42 87.6237 149.605 88.1017L150.561 87.8311ZM155.86 93.2063H156.924V86.2799H155.86V93.2063ZM156.401 85.1255C156.816 85.1255 157.159 84.8008 157.159 84.404C157.159 84.0072 156.816 83.6825 156.401 83.6825C155.986 83.6825 155.644 84.0072 155.644 84.404C155.644 84.8008 155.986 85.1255 156.401 85.1255ZM159.938 89.0396C159.938 87.8311 160.686 87.1457 161.706 87.1457C162.693 87.1457 163.293 87.7905 163.293 88.8773V93.2063H164.357V88.8051C164.357 87.0375 163.415 86.1897 162.012 86.1897C160.966 86.1897 160.317 86.6587 159.992 87.3621H159.902V86.2799H158.874V93.2063H159.938V89.0396ZM171.717 86.2799H170.563L168.651 91.7994H168.579L166.667 86.2799H165.513L168.074 93.2063H169.156L171.717 86.2799ZM175.688 93.3506C177.564 93.3506 178.826 91.9256 178.826 89.7792C178.826 87.6147 177.564 86.1897 175.688 86.1897C173.812 86.1897 172.549 87.6147 172.549 89.7792C172.549 91.9256 173.812 93.3506 175.688 93.3506ZM175.688 92.3946C174.263 92.3946 173.614 91.1681 173.614 89.7792C173.614 88.3903 174.263 87.1457 175.688 87.1457C177.113 87.1457 177.762 88.3903 177.762 89.7792C177.762 91.1681 177.113 92.3946 175.688 92.3946ZM181.515 83.9711H180.451V93.2063H181.515V83.9711ZM189.128 86.2799H187.974L186.062 91.7994H185.99L184.078 86.2799H182.923L185.485 93.2063H186.567L189.128 86.2799ZM190.533 93.2063H191.597V86.2799H190.533V93.2063ZM191.074 85.1255C191.489 85.1255 191.832 84.8008 191.832 84.404C191.832 84.0072 191.489 83.6825 191.074 83.6825C190.659 83.6825 190.316 84.0072 190.316 84.404C190.316 84.8008 190.659 85.1255 191.074 85.1255ZM194.61 89.0396C194.61 87.8311 195.359 87.1457 196.378 87.1457C197.366 87.1457 197.965 87.7905 197.965 88.8773V93.2063H199.03V88.8051C199.03 87.0375 198.087 86.1897 196.685 86.1897C195.639 86.1897 194.989 86.6587 194.665 87.3621H194.574V86.2799H193.546V93.2063H194.61V89.0396ZM203.77 95.948C205.43 95.948 206.764 95.1904 206.764 93.4047V86.2799H205.736V87.3802H205.628C205.394 87.0194 204.961 86.1897 203.608 86.1897C201.858 86.1897 200.65 87.5786 200.65 89.707C200.65 91.8715 201.912 93.0981 203.59 93.0981C204.943 93.0981 205.375 92.3044 205.61 91.9256H205.7V93.3326C205.7 94.487 204.888 95.0101 203.77 95.0101C202.512 95.0101 202.07 94.3472 201.786 93.9639L200.938 94.5591C201.371 95.2851 202.223 95.948 203.77 95.948ZM203.734 92.1421C202.399 92.1421 201.714 91.132 201.714 89.689C201.714 88.2821 202.381 87.1457 203.734 87.1457C205.033 87.1457 205.718 88.1919 205.718 89.689C205.718 91.2222 205.015 92.1421 203.734 92.1421ZM212.428 93.2063H213.456V92.1421H213.583C213.817 92.5209 214.268 93.3506 215.603 93.3506C217.334 93.3506 218.543 91.9617 218.543 89.7611C218.543 87.5786 217.334 86.1897 215.585 86.1897C214.232 86.1897 213.817 87.0194 213.583 87.3802H213.492V83.9711H212.428V93.2063ZM213.474 89.7431C213.474 88.1919 214.16 87.1457 215.458 87.1457C216.811 87.1457 217.479 88.2821 217.479 89.7431C217.479 91.2222 216.793 92.3946 215.458 92.3946C214.178 92.3946 213.474 91.3124 213.474 89.7431ZM222.209 93.3686C223.417 93.3686 224.049 92.7193 224.265 92.2683H224.319V93.2063H225.384V88.6428C225.384 86.4422 223.706 86.1897 222.822 86.1897C221.776 86.1897 220.586 86.5505 220.044 87.8131L221.055 88.1738C221.289 87.6688 221.844 87.1277 222.858 87.1277C223.837 87.1277 224.319 87.6462 224.319 88.5346V88.5707C224.319 89.0847 223.796 89.0396 222.534 89.202C221.248 89.3688 219.846 89.6529 219.846 91.2402C219.846 92.593 220.892 93.3686 222.209 93.3686ZM222.371 92.4126C221.524 92.4126 220.91 92.0339 220.91 91.2943C220.91 90.4826 221.65 90.2301 222.48 90.1219C222.93 90.0678 224.139 89.9415 224.319 89.7251V90.6991C224.319 91.5649 223.634 92.4126 222.371 92.4126ZM227.326 93.2063H228.39V90.6134L229.134 89.9235L231.727 93.2063H233.08L229.937 89.238L232.864 86.2799H231.547L228.516 89.3643H228.39V83.9711H227.326V93.2063ZM234.233 93.2063H235.297V86.2799H234.233V93.2063ZM234.774 85.1255C235.189 85.1255 235.532 84.8008 235.532 84.404C235.532 84.0072 235.189 83.6825 234.774 83.6825C234.36 83.6825 234.017 84.0072 234.017 84.404C234.017 84.8008 234.36 85.1255 234.774 85.1255ZM238.311 89.0396C238.311 87.8311 239.059 87.1457 240.079 87.1457C241.066 87.1457 241.666 87.7905 241.666 88.8773V93.2063H242.73V88.8051C242.73 87.0375 241.788 86.1897 240.385 86.1897C239.339 86.1897 238.69 86.6587 238.365 87.3621H238.275V86.2799H237.247V93.2063H238.311V89.0396ZM247.471 95.948C249.13 95.948 250.465 95.1904 250.465 93.4047V86.2799H249.437V87.3802H249.328C249.094 87.0194 248.661 86.1897 247.308 86.1897C245.559 86.1897 244.35 87.5786 244.35 89.707C244.35 91.8715 245.613 93.0981 247.29 93.0981C248.643 93.0981 249.076 92.3044 249.31 91.9256H249.401V93.3326C249.401 94.487 248.589 95.0101 247.471 95.0101C246.212 95.0101 245.771 94.3472 245.486 93.9639L244.639 94.5591C245.072 95.2851 245.924 95.948 247.471 95.948ZM247.434 92.1421C246.1 92.1421 245.414 91.132 245.414 89.689C245.414 88.2821 246.082 87.1457 247.434 87.1457C248.733 87.1457 249.419 88.1919 249.419 89.689C249.419 91.2222 248.715 92.1421 247.434 92.1421ZM256.363 89.3102C256.363 91.5829 256.976 93.4769 258.077 95.0822H259.015C258.149 93.8917 257.463 91.4567 257.463 89.3102C257.463 87.1637 258.149 84.7287 259.015 83.5382H258.077C256.976 85.1435 256.363 87.0375 256.363 89.3102ZM263.25 93.3506C265.126 93.3506 266.389 91.9256 266.389 89.7792C266.389 87.6147 265.126 86.1897 263.25 86.1897C261.374 86.1897 260.111 87.6147 260.111 89.7792C260.111 91.9256 261.374 93.3506 263.25 93.3506ZM263.25 92.3946C261.825 92.3946 261.176 91.1681 261.176 89.7792C261.176 88.3903 261.825 87.1457 263.25 87.1457C264.675 87.1457 265.324 88.3903 265.324 89.7792C265.324 91.1681 264.675 92.3946 263.25 92.3946ZM268.013 93.2063H269.077V88.8232C269.077 87.8852 269.817 87.1998 270.827 87.1998C271.111 87.1998 271.404 87.2539 271.476 87.272V86.1897C271.354 86.1807 271.075 86.1717 270.917 86.1717C270.087 86.1717 269.366 86.6406 269.113 87.3261H269.041V86.2799H268.013V93.2063ZM45.8697 112.369C47.0782 112.369 47.7095 111.719 47.926 111.268H47.9801V112.206H49.0443V107.643C49.0443 105.442 47.3668 105.19 46.483 105.19C45.4368 105.19 44.2463 105.55 43.7052 106.813L44.7153 107.174C44.9498 106.669 45.5044 106.128 46.519 106.128C47.4976 106.128 47.9801 106.646 47.9801 107.535V107.571C47.9801 108.085 47.457 108.04 46.1944 108.202C44.9092 108.369 43.5068 108.653 43.5068 110.24C43.5068 111.593 44.5529 112.369 45.8697 112.369ZM46.032 111.413C45.1843 111.413 44.571 111.034 44.571 110.294C44.571 109.483 45.3105 109.23 46.1403 109.122C46.5912 109.068 47.7997 108.942 47.9801 108.725V109.699C47.9801 110.565 47.2947 111.413 46.032 111.413ZM52.0509 108.04C52.0509 106.831 52.7995 106.146 53.8186 106.146C54.8062 106.146 55.4059 106.791 55.4059 107.877V112.206H56.4701V107.805C56.4701 106.037 55.5277 105.19 54.1252 105.19C53.0791 105.19 52.4297 105.659 52.105 106.362H52.0148V105.28H50.9867V112.206H52.0509V108.04ZM58.8522 114.804C59.8127 114.804 60.4891 114.294 60.8904 113.216L63.8396 105.298L62.6761 105.28L60.7642 110.799H60.692L58.78 105.28H57.6256L60.187 112.242L59.9886 112.783C59.6008 113.839 59.1228 113.938 58.3471 113.739L58.0766 114.677C58.1848 114.732 58.4914 114.804 58.8522 114.804ZM71.8313 105.28H70.3522V103.62H69.288V105.28H68.2418V106.182H69.288V110.511C69.288 111.719 70.2621 112.296 71.1639 112.296C71.5608 112.296 71.8133 112.224 71.9576 112.17L71.7411 111.214C71.6509 111.232 71.5066 111.268 71.2722 111.268C70.8032 111.268 70.3522 111.124 70.3522 110.222V106.182H71.8313V105.28ZM73.4321 112.206H74.4964V105.28H73.4321V112.206ZM73.9733 104.125C74.3881 104.125 74.7308 103.801 74.7308 103.404C74.7308 103.007 74.3881 102.682 73.9733 102.682C73.5584 102.682 73.2157 103.007 73.2157 103.404C73.2157 103.801 73.5584 104.125 73.9733 104.125ZM76.4455 112.206H77.5098V107.877C77.5098 106.863 78.2493 106.146 79.079 106.146C79.8862 106.146 80.4499 106.673 80.4499 107.462V112.206H81.5321V107.697C81.5321 106.804 82.0913 106.146 83.0653 106.146C83.8229 106.146 84.4722 106.547 84.4722 107.571V112.206H85.5364V107.571C85.5364 105.943 84.6616 105.19 83.4261 105.19C82.434 105.19 81.708 105.645 81.3517 106.362H81.2796C80.9369 105.623 80.3326 105.19 79.4217 105.19C78.5199 105.19 77.8525 105.623 77.5639 106.362H77.4737V105.28H76.4455V112.206ZM90.3863 112.351C91.7932 112.351 92.8214 111.647 93.146 110.601L92.1179 110.312C91.8473 111.034 91.2205 111.395 90.3863 111.395C89.1372 111.395 88.2759 110.587 88.2263 109.104H93.2543V108.653C93.2543 106.074 91.7211 105.19 90.2781 105.19C88.4022 105.19 87.1576 106.669 87.1576 108.797C87.1576 110.926 88.3841 112.351 90.3863 112.351ZM88.2263 108.184C88.2984 107.106 89.0605 106.146 90.2781 106.146C91.4325 106.146 92.172 107.011 92.172 108.184H88.2263ZM98.5889 112.206H99.617V111.142H99.7433C99.9777 111.521 100.429 112.351 101.763 112.351C103.495 112.351 104.704 110.962 104.704 108.761C104.704 106.579 103.495 105.19 101.745 105.19C100.393 105.19 99.9777 106.019 99.7433 106.38H99.6531V102.971H98.5889V112.206ZM99.635 108.743C99.635 107.192 100.32 106.146 101.619 106.146C102.972 106.146 103.639 107.282 103.639 108.743C103.639 110.222 102.954 111.395 101.619 111.395C100.338 111.395 99.635 110.312 99.635 108.743ZM109.145 112.351C111.021 112.351 112.284 110.926 112.284 108.779C112.284 106.615 111.021 105.19 109.145 105.19C107.269 105.19 106.007 106.615 106.007 108.779C106.007 110.926 107.269 112.351 109.145 112.351ZM109.145 111.395C107.72 111.395 107.071 110.168 107.071 108.779C107.071 107.39 107.72 106.146 109.145 106.146C110.57 106.146 111.22 107.39 111.22 108.779C111.22 110.168 110.57 111.395 109.145 111.395ZM118.273 109.374C118.273 110.673 117.281 111.268 116.488 111.268C115.604 111.268 114.973 110.619 114.973 109.609V105.28H113.908V109.681C113.908 111.449 114.846 112.296 116.145 112.296C117.191 112.296 117.877 111.737 118.201 111.034H118.273V112.206H119.338V105.28H118.273V109.374ZM122.351 108.04C122.351 106.831 123.1 106.146 124.119 106.146C125.106 106.146 125.706 106.791 125.706 107.877V112.206H126.77V107.805C126.77 106.037 125.828 105.19 124.425 105.19C123.379 105.19 122.73 105.659 122.405 106.362H122.315V105.28H121.287V112.206H122.351V108.04ZM131.33 112.351C132.665 112.351 133.116 111.521 133.351 111.142H133.477V112.206H134.505V102.971H133.441V106.38H133.351C133.116 106.019 132.701 105.19 131.348 105.19C129.599 105.19 128.39 106.579 128.39 108.761C128.39 110.962 129.599 112.351 131.33 112.351ZM131.475 111.395C130.14 111.395 129.454 110.222 129.454 108.743C129.454 107.282 130.122 106.146 131.475 106.146C132.773 106.146 133.459 107.192 133.459 108.743C133.459 110.312 132.755 111.395 131.475 111.395ZM142.987 112.351C144.52 112.351 145.53 111.413 145.711 110.186H144.647C144.448 110.944 143.817 111.395 142.987 111.395C141.724 111.395 140.913 110.348 140.913 108.743C140.913 107.174 141.742 106.146 142.987 106.146C143.925 106.146 144.484 106.723 144.647 107.354H145.711C145.53 106.056 144.43 105.19 142.969 105.19C141.093 105.19 139.849 106.669 139.849 108.779C139.849 110.853 141.039 112.351 142.987 112.351ZM150.08 112.351C151.956 112.351 153.219 110.926 153.219 108.779C153.219 106.615 151.956 105.19 150.08 105.19C148.204 105.19 146.942 106.615 146.942 108.779C146.942 110.926 148.204 112.351 150.08 112.351ZM150.08 111.395C148.655 111.395 148.006 110.168 148.006 108.779C148.006 107.39 148.655 106.146 150.08 106.146C151.505 106.146 152.155 107.39 152.155 108.779C152.155 110.168 151.505 111.395 150.08 111.395ZM157.657 112.351C159.533 112.351 160.796 110.926 160.796 108.779C160.796 106.615 159.533 105.19 157.657 105.19C155.781 105.19 154.519 106.615 154.519 108.779C154.519 110.926 155.781 112.351 157.657 112.351ZM157.657 111.395C156.232 111.395 155.583 110.168 155.583 108.779C155.583 107.39 156.232 106.146 157.657 106.146C159.082 106.146 159.732 107.39 159.732 108.779C159.732 110.168 159.082 111.395 157.657 111.395ZM162.42 112.206H163.484V109.613L164.229 108.923L166.821 112.206H168.174L165.031 108.238L167.958 105.28H166.641L163.611 108.364H163.484V102.971H162.42V112.206ZM169.327 112.206H170.392V105.28H169.327V112.206ZM169.869 104.125C170.283 104.125 170.626 103.801 170.626 103.404C170.626 103.007 170.283 102.682 169.869 102.682C169.454 102.682 169.111 103.007 169.111 103.404C169.111 103.801 169.454 104.125 169.869 104.125ZM173.405 108.04C173.405 106.831 174.154 106.146 175.173 106.146C176.16 106.146 176.76 106.791 176.76 107.877V112.206H177.824V107.805C177.824 106.037 176.882 105.19 175.479 105.19C174.433 105.19 173.784 105.659 173.459 106.362H173.369V105.28H172.341V112.206H173.405V108.04ZM182.565 114.948C184.224 114.948 185.559 114.19 185.559 112.405V105.28H184.531V106.38H184.423C184.188 106.019 183.755 105.19 182.402 105.19C180.653 105.19 179.444 106.579 179.444 108.707C179.444 110.872 180.707 112.098 182.384 112.098C183.737 112.098 184.17 111.304 184.405 110.926H184.495V112.333C184.495 113.487 183.683 114.01 182.565 114.01C181.307 114.01 180.865 113.347 180.581 112.964L179.733 113.559C180.166 114.285 181.018 114.948 182.565 114.948ZM182.529 111.142C181.194 111.142 180.509 110.132 180.509 108.689C180.509 107.282 181.176 106.146 182.529 106.146C183.827 106.146 184.513 107.192 184.513 108.689C184.513 110.222 183.809 111.142 182.529 111.142ZM191.078 114.804H192.143V111.142H192.233C192.467 111.521 192.918 112.351 194.253 112.351C195.985 112.351 197.193 110.962 197.193 108.761C197.193 106.579 195.985 105.19 194.235 105.19C192.882 105.19 192.467 106.019 192.233 106.38H192.107V105.28H191.078V114.804ZM192.125 108.743C192.125 107.192 192.81 106.146 194.109 106.146C195.462 106.146 196.129 107.282 196.129 108.743C196.129 110.222 195.444 111.395 194.109 111.395C192.828 111.395 192.125 110.312 192.125 108.743ZM198.817 112.206H199.881V107.823C199.881 106.885 200.62 106.2 201.63 106.2C201.915 106.2 202.208 106.254 202.28 106.272V105.19C202.158 105.181 201.878 105.172 201.721 105.172C200.891 105.172 200.169 105.641 199.917 106.326H199.845V105.28H198.817V112.206ZM206.144 112.351C208.02 112.351 209.283 110.926 209.283 108.779C209.283 106.615 208.02 105.19 206.144 105.19C204.268 105.19 203.006 106.615 203.006 108.779C203.006 110.926 204.268 112.351 206.144 112.351ZM206.144 111.395C204.719 111.395 204.07 110.168 204.07 108.779C204.07 107.39 204.719 106.146 206.144 106.146C207.569 106.146 208.219 107.39 208.219 108.779C208.219 110.168 207.569 111.395 206.144 111.395ZM213.721 112.351C215.254 112.351 216.265 111.413 216.445 110.186H215.381C215.182 110.944 214.551 111.395 213.721 111.395C212.459 111.395 211.647 110.348 211.647 108.743C211.647 107.174 212.477 106.146 213.721 106.146C214.659 106.146 215.218 106.723 215.381 107.354H216.445C216.265 106.056 215.164 105.19 213.703 105.19C211.827 105.19 210.583 106.669 210.583 108.779C210.583 110.853 211.773 112.351 213.721 112.351ZM220.905 112.351C222.312 112.351 223.34 111.647 223.664 110.601L222.636 110.312C222.366 111.034 221.739 111.395 220.905 111.395C219.656 111.395 218.794 110.587 218.745 109.104H223.773V108.653C223.773 106.074 222.239 105.19 220.796 105.19C218.921 105.19 217.676 106.669 217.676 108.797C217.676 110.926 218.902 112.351 220.905 112.351ZM218.745 108.184C218.817 107.106 219.579 106.146 220.796 106.146C221.951 106.146 222.69 107.011 222.69 108.184H218.745ZM230.298 106.831C229.964 105.848 229.215 105.19 227.845 105.19C226.384 105.19 225.301 106.019 225.301 107.192C225.301 108.148 225.869 108.788 227.141 109.086L228.296 109.356C228.994 109.519 229.324 109.852 229.324 110.33C229.324 110.926 228.692 111.413 227.7 111.413C226.83 111.413 226.284 111.038 226.095 110.294L225.085 110.547C225.333 111.724 226.302 112.351 227.718 112.351C229.328 112.351 230.424 111.471 230.424 110.276C230.424 109.311 229.82 108.703 228.584 108.4L227.556 108.148C226.735 107.945 226.366 107.67 226.366 107.138C226.366 106.543 226.997 106.11 227.845 106.11C228.774 106.11 229.157 106.624 229.342 107.102L230.298 106.831ZM236.932 106.831C236.598 105.848 235.85 105.19 234.479 105.19C233.018 105.19 231.936 106.019 231.936 107.192C231.936 108.148 232.504 108.788 233.776 109.086L234.93 109.356C235.629 109.519 235.958 109.852 235.958 110.33C235.958 110.926 235.327 111.413 234.335 111.413C233.464 111.413 232.919 111.038 232.729 110.294L231.719 110.547C231.967 111.724 232.937 112.351 234.353 112.351C235.963 112.351 237.058 111.471 237.058 110.276C237.058 109.311 236.454 108.703 235.219 108.4L234.19 108.148C233.37 107.945 233 107.67 233 107.138C233 106.543 233.631 106.11 234.479 106.11C235.408 106.11 235.791 106.624 235.976 107.102L236.932 106.831ZM240.933 108.31C240.933 106.037 240.32 104.144 239.219 102.538H238.282C239.147 103.729 239.833 106.164 239.833 108.31C239.833 110.457 239.147 112.892 238.282 114.082H239.219C240.32 112.477 240.933 110.583 240.933 108.31Z" fill="black"/>
<path d="M27.38 141.543C28.4758 141.543 29.3641 140.654 29.3641 139.558C29.3641 138.463 28.4758 137.574 27.38 137.574C26.2842 137.574 25.3959 138.463 25.3959 139.558C25.3959 140.654 26.2842 141.543 27.38 141.543Z" fill="black"/>
<path d="M51.4072 136.857C51.0645 134.963 49.5493 133.845 47.6915 133.845C45.3286 133.845 43.615 135.666 43.615 138.589C43.615 141.511 45.3286 143.332 47.6915 143.332C49.5493 143.332 51.0645 142.214 51.4072 140.32H50.2889C50.0183 141.601 48.918 142.286 47.6915 142.286C46.014 142.286 44.6972 140.988 44.6972 138.589C44.6972 136.19 46.014 134.891 47.6915 134.891C48.918 134.891 50.0183 135.576 50.2889 136.857H51.4072ZM55.1083 143.369C56.3168 143.369 56.9481 142.719 57.1646 142.268H57.2187V143.206H58.2829V138.643C58.2829 136.442 56.6054 136.19 55.7216 136.19C54.6754 136.19 53.4849 136.55 52.9438 137.813L53.9539 138.174C54.1884 137.669 54.743 137.128 55.7576 137.128C56.7362 137.128 57.2187 137.646 57.2187 138.534V138.571C57.2187 139.085 56.6956 139.04 55.433 139.202C54.1478 139.369 52.7454 139.653 52.7454 141.24C52.7454 142.593 53.7915 143.369 55.1083 143.369ZM55.2706 142.413C54.4229 142.413 53.8096 142.034 53.8096 141.294C53.8096 140.483 54.5491 140.23 55.3788 140.122C55.8298 140.068 57.0383 139.941 57.2187 139.725V140.699C57.2187 141.565 56.5332 142.413 55.2706 142.413ZM63.2376 136.28H61.7585V134.62H60.6943V136.28H59.6481V137.182H60.6943V141.511C60.6943 142.719 61.6683 143.296 62.5702 143.296C62.967 143.296 63.2195 143.224 63.3638 143.17L63.1474 142.214C63.0572 142.232 62.9129 142.268 62.6784 142.268C62.2094 142.268 61.7585 142.124 61.7585 141.222V137.182H63.2376V136.28ZM67.668 143.35C69.075 143.35 70.1031 142.647 70.4278 141.601L69.3996 141.312C69.1291 142.034 68.5023 142.394 67.668 142.394C66.4189 142.394 65.5576 141.587 65.508 140.104H70.536V139.653C70.536 137.073 69.0028 136.19 67.5598 136.19C65.6839 136.19 64.4393 137.669 64.4393 139.797C64.4393 141.926 65.6659 143.35 67.668 143.35ZM65.508 139.184C65.5802 138.106 66.3423 137.146 67.5598 137.146C68.7142 137.146 69.4537 138.011 69.4537 139.184H65.508ZM74.9507 145.948C76.6101 145.948 77.9449 145.19 77.9449 143.405V136.28H76.9168V137.38H76.8085C76.5741 137.019 76.1412 136.19 74.7883 136.19C73.0387 136.19 71.8302 137.578 71.8302 139.707C71.8302 141.871 73.0928 143.098 74.7703 143.098C76.1231 143.098 76.556 142.304 76.7905 141.926H76.8807V143.332C76.8807 144.487 76.069 145.01 74.9507 145.01C73.6926 145.01 73.2506 144.347 72.9666 143.964L72.1188 144.559C72.5517 145.285 73.404 145.948 74.9507 145.948ZM74.9146 142.142C73.5798 142.142 72.8944 141.132 72.8944 139.689C72.8944 138.282 73.5618 137.146 74.9146 137.146C76.2133 137.146 76.8987 138.192 76.8987 139.689C76.8987 141.222 76.1953 142.142 74.9146 142.142ZM82.7068 143.35C84.5827 143.35 85.8453 141.926 85.8453 139.779C85.8453 137.615 84.5827 136.19 82.7068 136.19C80.8309 136.19 79.5683 137.615 79.5683 139.779C79.5683 141.926 80.8309 143.35 82.7068 143.35ZM82.7068 142.394C81.2818 142.394 80.6325 141.168 80.6325 139.779C80.6325 138.39 81.2818 137.146 82.7068 137.146C84.1318 137.146 84.7811 138.39 84.7811 139.779C84.7811 141.168 84.1318 142.394 82.7068 142.394ZM87.4698 143.206H88.5341V138.823C88.5341 137.885 89.2736 137.2 90.2837 137.2C90.5678 137.2 90.8609 137.254 90.933 137.272V136.19C90.8113 136.181 90.5317 136.172 90.3739 136.172C89.5442 136.172 88.8227 136.641 88.5701 137.326H88.498V136.28H87.4698V143.206ZM92.1945 143.206H93.2588V136.28H92.1945V143.206ZM92.7357 135.125C93.1505 135.125 93.4932 134.801 93.4932 134.404C93.4932 134.007 93.1505 133.682 92.7357 133.682C92.3208 133.682 91.9781 134.007 91.9781 134.404C91.9781 134.801 92.3208 135.125 92.7357 135.125ZM100.114 137.831C99.7805 136.848 99.0319 136.19 97.661 136.19C96.2 136.19 95.1178 137.019 95.1178 138.192C95.1178 139.148 95.6859 139.788 96.9576 140.086L98.112 140.356C98.8109 140.519 99.1401 140.852 99.1401 141.33C99.1401 141.926 98.5088 142.413 97.5167 142.413C96.6464 142.413 96.1008 142.038 95.9114 141.294L94.9013 141.547C95.1493 142.724 96.1188 143.35 97.5348 143.35C99.1446 143.35 100.24 142.471 100.24 141.276C100.24 140.311 99.6362 139.702 98.4006 139.4L97.3724 139.148C96.5517 138.945 96.182 138.67 96.182 138.138C96.182 137.542 96.8133 137.109 97.661 137.109C98.59 137.109 98.9733 137.624 99.1582 138.102L100.114 137.831ZM103.881 143.369C105.089 143.369 105.72 142.719 105.937 142.268H105.991V143.206H107.055V138.643C107.055 136.442 105.378 136.19 104.494 136.19C103.448 136.19 102.257 136.55 101.716 137.813L102.726 138.174C102.961 137.669 103.515 137.128 104.53 137.128C105.508 137.128 105.991 137.646 105.991 138.534V138.571C105.991 139.085 105.468 139.04 104.205 139.202C102.92 139.369 101.518 139.653 101.518 141.24C101.518 142.593 102.564 143.369 103.881 143.369ZM104.043 142.413C103.195 142.413 102.582 142.034 102.582 141.294C102.582 140.483 103.321 140.23 104.151 140.122C104.602 140.068 105.811 139.941 105.991 139.725V140.699C105.991 141.565 105.306 142.413 104.043 142.413ZM112.01 136.28H110.531V134.62H109.467V136.28H108.42V137.182H109.467V141.511C109.467 142.719 110.441 143.296 111.343 143.296C111.739 143.296 111.992 143.224 112.136 143.17L111.92 142.214C111.83 142.232 111.685 142.268 111.451 142.268C110.982 142.268 110.531 142.124 110.531 141.222V137.182H112.01V136.28ZM113.611 143.206H114.675V136.28H113.611V143.206ZM114.152 135.125C114.567 135.125 114.909 134.801 114.909 134.404C114.909 134.007 114.567 133.682 114.152 133.682C113.737 133.682 113.394 134.007 113.394 134.404C113.394 134.801 113.737 135.125 114.152 135.125ZM119.438 143.35C121.314 143.35 122.576 141.926 122.576 139.779C122.576 137.615 121.314 136.19 119.438 136.19C117.562 136.19 116.299 137.615 116.299 139.779C116.299 141.926 117.562 143.35 119.438 143.35ZM119.438 142.394C118.013 142.394 117.364 141.168 117.364 139.779C117.364 138.39 118.013 137.146 119.438 137.146C120.863 137.146 121.512 138.39 121.512 139.779C121.512 141.168 120.863 142.394 119.438 142.394ZM125.265 139.04C125.265 137.831 126.014 137.146 127.033 137.146C128.02 137.146 128.62 137.79 128.62 138.877V143.206H129.684V138.805C129.684 137.037 128.742 136.19 127.34 136.19C126.293 136.19 125.644 136.659 125.319 137.362H125.229V136.28H124.201V143.206H125.265V139.04ZM138.014 143.35C139.89 143.35 141.153 141.926 141.153 139.779C141.153 137.615 139.89 136.19 138.014 136.19C136.138 136.19 134.876 137.615 134.876 139.779C134.876 141.926 136.138 143.35 138.014 143.35ZM138.014 142.394C136.589 142.394 135.94 141.168 135.94 139.779C135.94 138.39 136.589 137.146 138.014 137.146C139.439 137.146 140.089 138.39 140.089 139.779C140.089 141.168 139.439 142.394 138.014 142.394ZM145.862 136.28H144.311V135.576C144.311 134.891 144.599 134.53 145.303 134.53C145.609 134.53 145.79 134.602 145.898 134.638L146.205 133.718C146.042 133.646 145.718 133.538 145.194 133.538C144.202 133.538 143.246 134.133 143.246 135.324V136.28H142.128V137.182H143.246V143.206H144.311V137.182H145.862V136.28ZM150.925 143.206H151.989V138.823C151.989 137.885 152.728 137.2 153.739 137.2C154.023 137.2 154.316 137.254 154.388 137.272V136.19C154.266 136.181 153.987 136.172 153.829 136.172C152.999 136.172 152.278 136.641 152.025 137.326H151.953V136.28H150.925V143.206ZM158.343 143.35C159.75 143.35 160.778 142.647 161.102 141.601L160.074 141.312C159.804 142.034 159.177 142.394 158.343 142.394C157.094 142.394 156.232 141.587 156.183 140.104H161.211V139.653C161.211 137.073 159.677 136.19 158.234 136.19C156.359 136.19 155.114 137.669 155.114 139.797C155.114 141.926 156.34 143.35 158.343 143.35ZM156.183 139.184C156.255 138.106 157.017 137.146 158.234 137.146C159.389 137.146 160.128 138.011 160.128 139.184H156.183ZM165.643 143.35C167.177 143.35 168.187 142.413 168.367 141.186H167.303C167.104 141.944 166.473 142.394 165.643 142.394C164.381 142.394 163.569 141.348 163.569 139.743C163.569 138.174 164.399 137.146 165.643 137.146C166.581 137.146 167.14 137.723 167.303 138.354H168.367C168.187 137.055 167.086 136.19 165.625 136.19C163.749 136.19 162.505 137.669 162.505 139.779C162.505 141.853 163.695 143.35 165.643 143.35ZM169.923 143.206H170.987V136.28H169.923V143.206ZM170.464 135.125C170.879 135.125 171.221 134.801 171.221 134.404C171.221 134.007 170.879 133.682 170.464 133.682C170.049 133.682 169.706 134.007 169.706 134.404C169.706 134.801 170.049 135.125 170.464 135.125ZM172.936 145.804H174V142.142H174.091C174.325 142.521 174.776 143.35 176.111 143.35C177.842 143.35 179.051 141.962 179.051 139.761C179.051 137.578 177.842 136.19 176.093 136.19C174.74 136.19 174.325 137.019 174.091 137.38H173.964V136.28H172.936V145.804ZM173.982 139.743C173.982 138.192 174.668 137.146 175.966 137.146C177.319 137.146 177.987 138.282 177.987 139.743C177.987 141.222 177.301 142.394 175.966 142.394C174.686 142.394 173.982 141.312 173.982 139.743ZM183.578 143.35C184.985 143.35 186.013 142.647 186.338 141.601L185.31 141.312C185.039 142.034 184.412 142.394 183.578 142.394C182.329 142.394 181.468 141.587 181.418 140.104H186.446V139.653C186.446 137.073 184.913 136.19 183.47 136.19C181.594 136.19 180.35 137.669 180.35 139.797C180.35 141.926 181.576 143.35 183.578 143.35ZM181.418 139.184C181.49 138.106 182.253 137.146 183.47 137.146C184.624 137.146 185.364 138.011 185.364 139.184H181.418ZM192.971 137.831C192.638 136.848 191.889 136.19 190.518 136.19C189.057 136.19 187.975 137.019 187.975 138.192C187.975 139.148 188.543 139.788 189.815 140.086L190.969 140.356C191.668 140.519 191.997 140.852 191.997 141.33C191.997 141.926 191.366 142.413 190.374 142.413C189.504 142.413 188.958 142.038 188.769 141.294L187.758 141.547C188.006 142.724 188.976 143.35 190.392 143.35C192.002 143.35 193.098 142.471 193.098 141.276C193.098 140.311 192.493 139.702 191.258 139.4L190.23 139.148C189.409 138.945 189.039 138.67 189.039 138.138C189.039 137.542 189.67 137.109 190.518 137.109C191.447 137.109 191.83 137.624 192.015 138.102L192.971 137.831Z" fill="black"/>
<path d="M27.38 176.463C28.4758 176.463 29.3641 175.575 29.3641 174.479C29.3641 173.383 28.4758 172.495 27.38 172.495C26.2842 172.495 25.3959 173.383 25.3959 174.479C25.3959 175.575 26.2842 176.463 27.38 176.463Z" fill="black"/>
<path d="M49.0263 171.201H50.1085C50.0589 169.807 48.7737 168.765 46.988 168.765C45.2203 168.765 43.8314 169.794 43.8314 171.345C43.8314 172.589 44.7333 173.329 46.1763 173.744L47.3127 174.069C48.2867 174.339 49.1525 174.682 49.1525 175.602C49.1525 176.612 48.1785 177.279 46.8978 177.279C45.7975 177.279 44.8235 176.792 44.7333 175.746H43.5789C43.6871 177.261 44.9137 178.289 46.8978 178.289C49.0263 178.289 50.2348 177.117 50.2348 175.62C50.2348 173.888 48.5934 173.329 47.6374 173.076L46.6994 172.824C46.014 172.644 44.9137 172.283 44.9137 171.291C44.9137 170.407 45.7254 169.758 46.9519 169.758C48.0703 169.758 48.918 170.29 49.0263 171.201ZM54.9414 171.201H53.4624V169.541H52.3981V171.201H51.352V172.102H52.3981V176.431C52.3981 177.64 53.3722 178.217 54.274 178.217C54.6709 178.217 54.9234 178.145 55.0677 178.091L54.8512 177.135C54.7611 177.153 54.6168 177.189 54.3823 177.189C53.9133 177.189 53.4624 177.045 53.4624 176.143V172.102H54.9414V171.201ZM59.3719 178.271C60.7788 178.271 61.807 177.568 62.1316 176.522L61.1035 176.233C60.8329 176.955 60.2061 177.315 59.3719 177.315C58.1228 177.315 57.2615 176.508 57.2119 175.024H62.2399V174.574C62.2399 171.994 60.7067 171.11 59.2637 171.11C57.3878 171.11 56.1432 172.589 56.1432 174.718C56.1432 176.846 57.3697 178.271 59.3719 178.271ZM57.2119 174.105C57.2841 173.027 58.0461 172.066 59.2637 172.066C60.4181 172.066 61.1576 172.932 61.1576 174.105H57.2119ZM63.8587 180.724H64.9229V177.063H65.0131C65.2476 177.442 65.6986 178.271 67.0333 178.271C68.7649 178.271 69.9735 176.882 69.9735 174.682C69.9735 172.499 68.7649 171.11 67.0153 171.11C65.6625 171.11 65.2476 171.94 65.0131 172.301H64.8869V171.201H63.8587V180.724ZM64.9049 174.664C64.9049 173.113 65.5903 172.066 66.889 172.066C68.2418 172.066 68.9092 173.203 68.9092 174.664C68.9092 176.143 68.2238 177.315 66.889 177.315C65.6084 177.315 64.9049 176.233 64.9049 174.664ZM75.3126 178.127H76.3407V177.063H76.467C76.7014 177.442 77.1524 178.271 78.4872 178.271C80.2188 178.271 81.4273 176.882 81.4273 174.682C81.4273 172.499 80.2188 171.11 78.4691 171.11C77.1163 171.11 76.7014 171.94 76.467 172.301H76.3768V168.892H75.3126V178.127ZM76.3587 174.664C76.3587 173.113 77.0442 172.066 78.3429 172.066C79.6957 172.066 80.3631 173.203 80.3631 174.664C80.3631 176.143 79.6776 177.315 78.3429 177.315C77.0622 177.315 76.3587 176.233 76.3587 174.664ZM83.4926 180.724C84.4531 180.724 85.1295 180.215 85.5308 179.137L88.4799 171.219L87.3165 171.201L85.4046 176.72H85.3324L83.4204 171.201H82.266L84.8274 178.163L84.6289 178.704C84.2411 179.759 83.7631 179.859 82.9875 179.66L82.717 180.598C82.8252 180.652 83.1318 180.724 83.4926 180.724ZM98.6542 171.201H99.7365C99.6869 169.807 98.4017 168.765 96.616 168.765C94.8483 168.765 93.4594 169.794 93.4594 171.345C93.4594 172.589 94.3613 173.329 95.8043 173.744L96.9407 174.069C97.9147 174.339 98.7805 174.682 98.7805 175.602C98.7805 176.612 97.8065 177.279 96.5258 177.279C95.4255 177.279 94.4515 176.792 94.3613 175.746H93.2069C93.3151 177.261 94.5417 178.289 96.5258 178.289C98.6542 178.289 99.8628 177.117 99.8628 175.62C99.8628 173.888 98.2213 173.329 97.2653 173.076L96.3274 172.824C95.642 172.644 94.5417 172.283 94.5417 171.291C94.5417 170.407 95.3534 169.758 96.5799 169.758C97.6982 169.758 98.546 170.29 98.6542 171.201ZM104.569 171.201H103.09V169.541H102.026V171.201H100.98V172.102H102.026V176.431C102.026 177.64 103 178.217 103.902 178.217C104.299 178.217 104.551 178.145 104.696 178.091L104.479 177.135C104.389 177.153 104.245 177.189 104.01 177.189C103.541 177.189 103.09 177.045 103.09 176.143V172.102H104.569V171.201ZM109 178.271C110.407 178.271 111.435 177.568 111.76 176.522L110.731 176.233C110.461 176.955 109.834 177.315 109 177.315C107.751 177.315 106.889 176.508 106.84 175.024H111.868V174.574C111.868 171.994 110.335 171.11 108.892 171.11C107.016 171.11 105.771 172.589 105.771 174.718C105.771 176.846 106.998 178.271 109 178.271ZM106.84 174.105C106.912 173.027 107.674 172.066 108.892 172.066C110.046 172.066 110.786 172.932 110.786 174.105H106.84ZM113.487 180.724H114.551V177.063H114.641C114.876 177.442 115.327 178.271 116.661 178.271C118.393 178.271 119.601 176.882 119.601 174.682C119.601 172.499 118.393 171.11 116.643 171.11C115.29 171.11 114.876 171.94 114.641 172.301H114.515V171.201H113.487V180.724ZM114.533 174.664C114.533 173.113 115.218 172.066 116.517 172.066C117.87 172.066 118.537 173.203 118.537 174.664C118.537 176.143 117.852 177.315 116.517 177.315C115.236 177.315 114.533 176.233 114.533 174.664ZM124.941 178.127H126.059V174.754H128.079C130.23 174.754 131.2 173.446 131.2 171.814C131.2 170.181 130.23 168.892 128.061 168.892H124.941V178.127ZM126.059 173.762V169.884H128.025C129.527 169.884 130.099 170.705 130.099 171.814C130.099 172.923 129.527 173.762 128.043 173.762H126.059ZM132.857 178.127H133.921V173.744C133.921 172.806 134.661 172.12 135.671 172.12C135.955 172.12 136.248 172.175 136.32 172.193V171.11C136.198 171.101 135.919 171.092 135.761 171.092C134.931 171.092 134.21 171.561 133.957 172.247H133.885V171.201H132.857V178.127ZM140.184 178.271C142.06 178.271 143.323 176.846 143.323 174.7C143.323 172.535 142.06 171.11 140.184 171.11C138.309 171.11 137.046 172.535 137.046 174.7C137.046 176.846 138.309 178.271 140.184 178.271ZM140.184 177.315C138.76 177.315 138.11 176.089 138.11 174.7C138.11 173.311 138.76 172.066 140.184 172.066C141.609 172.066 142.259 173.311 142.259 174.7C142.259 176.089 141.609 177.315 140.184 177.315ZM147.761 178.271C149.295 178.271 150.305 177.333 150.485 176.107H149.421C149.222 176.864 148.591 177.315 147.761 177.315C146.499 177.315 145.687 176.269 145.687 174.664C145.687 173.094 146.517 172.066 147.761 172.066C148.699 172.066 149.258 172.644 149.421 173.275H150.485C150.305 171.976 149.204 171.11 147.743 171.11C145.867 171.11 144.623 172.589 144.623 174.7C144.623 176.774 145.813 178.271 147.761 178.271ZM154.945 178.271C156.352 178.271 157.38 177.568 157.705 176.522L156.676 176.233C156.406 176.955 155.779 177.315 154.945 177.315C153.696 177.315 152.834 176.508 152.785 175.024H157.813V174.574C157.813 171.994 156.28 171.11 154.837 171.11C152.961 171.11 151.716 172.589 151.716 174.718C151.716 176.846 152.943 178.271 154.945 178.271ZM152.785 174.105C152.857 173.027 153.619 172.066 154.837 172.066C155.991 172.066 156.731 172.932 156.731 174.105H152.785ZM162.047 178.271C163.382 178.271 163.833 177.442 164.067 177.063H164.194V178.127H165.222V168.892H164.157V172.301H164.067C163.833 171.94 163.418 171.11 162.065 171.11C160.315 171.11 159.107 172.499 159.107 174.682C159.107 176.882 160.315 178.271 162.047 178.271ZM162.191 177.315C160.857 177.315 160.171 176.143 160.171 174.664C160.171 173.203 160.839 172.066 162.191 172.066C163.49 172.066 164.176 173.113 164.176 174.664C164.176 176.233 163.472 177.315 162.191 177.315ZM171.684 175.295C171.684 176.594 170.692 177.189 169.898 177.189C169.014 177.189 168.383 176.54 168.383 175.53V171.201H167.319V175.602C167.319 177.369 168.257 178.217 169.555 178.217C170.601 178.217 171.287 177.658 171.611 176.955H171.684V178.127H172.748V171.201H171.684V175.295ZM174.697 178.127H175.761V173.744C175.761 172.806 176.501 172.12 177.511 172.12C177.795 172.12 178.088 172.175 178.16 172.193V171.11C178.038 171.101 177.759 171.092 177.601 171.092C176.771 171.092 176.05 171.561 175.797 172.247H175.725V171.201H174.697V178.127ZM182.115 178.271C183.522 178.271 184.55 177.568 184.875 176.522L183.847 176.233C183.576 176.955 182.949 177.315 182.115 177.315C180.866 177.315 180.005 176.508 179.955 175.024H184.983V174.574C184.983 171.994 183.45 171.11 182.007 171.11C180.131 171.11 178.886 172.589 178.886 174.718C178.886 176.846 180.113 178.271 182.115 178.271ZM179.955 174.105C180.027 173.027 180.789 172.066 182.007 172.066C183.161 172.066 183.901 172.932 183.901 174.105H179.955Z" fill="black"/>
<path d="M27.38 209.796C28.4758 209.796 29.3641 208.908 29.3641 207.812C29.3641 206.717 28.4758 205.828 27.38 205.828C26.2842 205.828 25.3959 206.717 25.3959 207.812C25.3959 208.908 26.2842 209.796 27.38 209.796Z" fill="black"/>
<path d="M49.0263 204.534H50.1085C50.0589 203.14 48.7737 202.099 46.988 202.099C45.2203 202.099 43.8314 203.127 43.8314 204.678C43.8314 205.923 44.7333 206.662 46.1763 207.077L47.3127 207.402C48.2867 207.672 49.1525 208.015 49.1525 208.935C49.1525 209.945 48.1785 210.612 46.8978 210.612C45.7975 210.612 44.8235 210.125 44.7333 209.079H43.5789C43.6871 210.594 44.9137 211.623 46.8978 211.623C49.0263 211.623 50.2348 210.45 50.2348 208.953C50.2348 207.221 48.5934 206.662 47.6374 206.41L46.6994 206.157C46.014 205.977 44.9137 205.616 44.9137 204.624C44.9137 203.74 45.7254 203.091 46.9519 203.091C48.0703 203.091 48.918 203.623 49.0263 204.534ZM53.9674 211.623C55.1759 211.623 55.8072 210.973 56.0237 210.522H56.0778V211.46H57.142V206.897C57.142 204.696 55.4645 204.444 54.5807 204.444C53.5345 204.444 52.344 204.804 51.8029 206.067L52.813 206.428C53.0475 205.923 53.6021 205.382 54.6168 205.382C55.5953 205.382 56.0778 205.9 56.0778 206.788V206.825C56.0778 207.339 55.5547 207.294 54.2921 207.456C53.0069 207.623 51.6045 207.907 51.6045 209.494C51.6045 210.847 52.6507 211.623 53.9674 211.623ZM54.1297 210.667C53.282 210.667 52.6687 210.288 52.6687 209.548C52.6687 208.737 53.4082 208.484 54.238 208.376C54.6889 208.322 55.8974 208.195 56.0778 207.979V208.953C56.0778 209.819 55.3924 210.667 54.1297 210.667ZM64.5002 204.534H63.3458L61.4338 210.053H61.3617L59.4497 204.534H58.2953L60.8566 211.46H61.9389L64.5002 204.534ZM68.5609 211.605C69.9678 211.605 70.996 210.901 71.3206 209.855L70.2925 209.566C70.0219 210.288 69.3951 210.649 68.5609 210.649C67.3118 210.649 66.4505 209.841 66.4009 208.358H71.4289V207.907C71.4289 205.327 69.8957 204.444 68.4527 204.444C66.5768 204.444 65.3322 205.923 65.3322 208.051C65.3322 210.18 66.5587 211.605 68.5609 211.605ZM66.4009 207.438C66.473 206.36 67.2351 205.4 68.4527 205.4C69.6071 205.4 70.3466 206.265 70.3466 207.438H66.4009ZM76.7634 211.46H77.8818V207.853H79.902C79.9831 207.853 80.0598 207.853 80.1365 207.848L82.0845 211.46H83.3832L81.2954 207.645C82.4723 207.244 83.0225 206.283 83.0225 205.057C83.0225 203.424 82.0484 202.225 79.8839 202.225H76.7634V211.46ZM77.8818 206.843V203.217H79.8479C81.345 203.217 81.9222 203.948 81.9222 205.057C81.9222 206.166 81.345 206.843 79.8659 206.843H77.8818ZM87.5713 211.605C88.9782 211.605 90.0064 210.901 90.331 209.855L89.3029 209.566C89.0323 210.288 88.4055 210.649 87.5713 210.649C86.3222 210.649 85.4609 209.841 85.4113 208.358H90.4393V207.907C90.4393 205.327 88.9061 204.444 87.4631 204.444C85.5872 204.444 84.3426 205.923 84.3426 208.051C84.3426 210.18 85.5691 211.605 87.5713 211.605ZM85.4113 207.438C85.4835 206.36 86.2455 205.4 87.4631 205.4C88.6175 205.4 89.357 206.265 89.357 207.438H85.4113ZM94.872 211.605C96.4052 211.605 97.4153 210.667 97.5957 209.44H96.5314C96.333 210.198 95.7017 210.649 94.872 210.649C93.6094 210.649 92.7977 209.602 92.7977 207.997C92.7977 206.428 93.6274 205.4 94.872 205.4C95.8099 205.4 96.3691 205.977 96.5314 206.608H97.5957C97.4153 205.309 96.315 204.444 94.854 204.444C92.9781 204.444 91.7335 205.923 91.7335 208.033C91.7335 210.107 92.9239 211.605 94.872 211.605ZM99.1514 211.46H100.216V204.534H99.1514V211.46ZM99.6925 203.379C100.107 203.379 100.45 203.055 100.45 202.658C100.45 202.261 100.107 201.936 99.6925 201.936C99.2777 201.936 98.9349 202.261 98.9349 202.658C98.9349 203.055 99.2777 203.379 99.6925 203.379ZM102.165 214.058H103.229V210.396H103.319C103.554 210.775 104.005 211.605 105.339 211.605C107.071 211.605 108.28 210.216 108.28 208.015C108.28 205.832 107.071 204.444 105.321 204.444C103.969 204.444 103.554 205.273 103.319 205.634H103.193V204.534H102.165V214.058ZM103.211 207.997C103.211 206.446 103.896 205.4 105.195 205.4C106.548 205.4 107.215 206.536 107.215 207.997C107.215 209.476 106.53 210.649 105.195 210.649C103.914 210.649 103.211 209.566 103.211 207.997ZM112.807 211.605C114.214 211.605 115.242 210.901 115.567 209.855L114.539 209.566C114.268 210.288 113.641 210.649 112.807 210.649C111.558 210.649 110.697 209.841 110.647 208.358H115.675V207.907C115.675 205.327 114.142 204.444 112.699 204.444C110.823 204.444 109.578 205.923 109.578 208.051C109.578 210.18 110.805 211.605 112.807 211.605ZM110.647 207.438C110.719 206.36 111.481 205.4 112.699 205.4C113.853 205.4 114.593 206.265 114.593 207.438H110.647ZM122.2 206.085C121.866 205.102 121.118 204.444 119.747 204.444C118.286 204.444 117.204 205.273 117.204 206.446C117.204 207.402 117.772 208.042 119.043 208.34L120.198 208.61C120.897 208.773 121.226 209.106 121.226 209.584C121.226 210.18 120.595 210.667 119.603 210.667C118.732 210.667 118.187 210.292 117.997 209.548L116.987 209.801C117.235 210.978 118.205 211.605 119.621 211.605C121.23 211.605 122.326 210.725 122.326 209.53C122.326 208.565 121.722 207.956 120.486 207.654L119.458 207.402C118.638 207.199 118.268 206.924 118.268 206.392C118.268 205.796 118.899 205.364 119.747 205.364C120.676 205.364 121.059 205.878 121.244 206.356L122.2 206.085ZM130.584 204.534H129.033V203.83C129.033 203.145 129.321 202.784 130.025 202.784C130.331 202.784 130.512 202.856 130.62 202.892L130.927 201.972C130.764 201.9 130.44 201.792 129.917 201.792C128.925 201.792 127.969 202.387 127.969 203.578V204.534H126.85V205.436H127.969V211.46H129.033V205.436H130.584V204.534ZM134.604 211.605C136.48 211.605 137.743 210.18 137.743 208.033C137.743 205.869 136.48 204.444 134.604 204.444C132.728 204.444 131.466 205.869 131.466 208.033C131.466 210.18 132.728 211.605 134.604 211.605ZM134.604 210.649C133.179 210.649 132.53 209.422 132.53 208.033C132.53 206.644 133.179 205.4 134.604 205.4C136.029 205.4 136.678 206.644 136.678 208.033C136.678 209.422 136.029 210.649 134.604 210.649ZM139.367 211.46H140.431V207.077C140.431 206.139 141.171 205.454 142.181 205.454C142.465 205.454 142.758 205.508 142.83 205.526V204.444C142.709 204.435 142.429 204.426 142.271 204.426C141.441 204.426 140.72 204.895 140.467 205.58H140.395V204.534H139.367V211.46ZM148.728 202.225H147.663V211.46H148.728V202.225ZM152.715 211.623C153.923 211.623 154.555 210.973 154.771 210.522H154.825V211.46H155.89V206.897C155.89 204.696 154.212 204.444 153.328 204.444C152.282 204.444 151.092 204.804 150.55 206.067L151.561 206.428C151.795 205.923 152.35 205.382 153.364 205.382C154.343 205.382 154.825 205.9 154.825 206.788V206.825C154.825 207.339 154.302 207.294 153.04 207.456C151.754 207.623 150.352 207.907 150.352 209.494C150.352 210.847 151.398 211.623 152.715 211.623ZM152.877 210.667C152.03 210.667 151.416 210.288 151.416 209.548C151.416 208.737 152.156 208.484 152.985 208.376C153.436 208.322 154.645 208.195 154.825 207.979V208.953C154.825 209.819 154.14 210.667 152.877 210.667ZM160.844 204.534H159.365V202.874H158.301V204.534H157.255V205.436H158.301V209.765C158.301 210.973 159.275 211.55 160.177 211.55C160.574 211.55 160.826 211.478 160.97 211.424L160.754 210.468C160.664 210.486 160.52 210.522 160.285 210.522C159.816 210.522 159.365 210.378 159.365 209.476V205.436H160.844V204.534ZM165.275 211.605C166.682 211.605 167.71 210.901 168.034 209.855L167.006 209.566C166.736 210.288 166.109 210.649 165.275 210.649C164.026 210.649 163.164 209.841 163.115 208.358H168.143V207.907C168.143 205.327 166.609 204.444 165.166 204.444C163.291 204.444 162.046 205.923 162.046 208.051C162.046 210.18 163.273 211.605 165.275 211.605ZM163.115 207.438C163.187 206.36 163.949 205.4 165.166 205.4C166.321 205.4 167.06 206.265 167.06 207.438H163.115ZM169.762 211.46H170.826V207.077C170.826 206.139 171.565 205.454 172.575 205.454C172.859 205.454 173.153 205.508 173.225 205.526V204.444C173.103 204.435 172.823 204.426 172.666 204.426C171.836 204.426 171.114 204.895 170.862 205.58H170.79V204.534H169.762V211.46Z" fill="black"/>
<path d="M27.38 244.717C28.4758 244.717 29.3641 243.829 29.3641 242.733C29.3641 241.637 28.4758 240.749 27.38 240.749C26.2842 240.749 25.3959 241.637 25.3959 242.733C25.3959 243.829 26.2842 244.717 27.38 244.717Z" fill="black"/>
<path d="M44.3545 246.381L45.2835 243.765H49.0172L49.9462 246.381H51.1186L47.7276 237.146H46.5732L43.1821 246.381H44.3545ZM45.6352 242.773L47.1143 238.607H47.1864L48.6655 242.773H45.6352ZM57.2085 239.454H56.0541L54.1421 244.974H54.07L52.158 239.454H51.0036L53.5649 246.381H54.6472L57.2085 239.454ZM61.179 246.525C63.0549 246.525 64.3176 245.1 64.3176 242.954C64.3176 240.789 63.0549 239.364 61.179 239.364C59.3031 239.364 58.0405 240.789 58.0405 242.954C58.0405 245.1 59.3031 246.525 61.179 246.525ZM61.179 245.569C59.7541 245.569 59.1047 244.343 59.1047 242.954C59.1047 241.565 59.7541 240.32 61.179 240.32C62.604 240.32 63.2533 241.565 63.2533 242.954C63.2533 244.343 62.604 245.569 61.179 245.569ZM65.9421 246.381H67.0063V239.454H65.9421V246.381ZM66.4832 238.3C66.8981 238.3 67.2408 237.975 67.2408 237.579C67.2408 237.182 66.8981 236.857 66.4832 236.857C66.0683 236.857 65.7256 237.182 65.7256 237.579C65.7256 237.975 66.0683 238.3 66.4832 238.3ZM71.5709 246.525C72.9057 246.525 73.3566 245.695 73.5911 245.317H73.7174V246.381H74.7455V237.146H73.6813V240.555H73.5911C73.3566 240.194 72.9417 239.364 71.5889 239.364C69.8393 239.364 68.6308 240.753 68.6308 242.936C68.6308 245.136 69.8393 246.525 71.5709 246.525ZM71.7152 245.569C70.3804 245.569 69.695 244.397 69.695 242.918C69.695 241.457 70.3624 240.32 71.7152 240.32C73.0139 240.32 73.6993 241.366 73.6993 242.918C73.6993 244.487 72.9959 245.569 71.7152 245.569ZM84.7789 243.549C84.7789 244.848 83.7868 245.443 82.9932 245.443C82.1093 245.443 81.478 244.794 81.478 243.783V239.454H80.4138V243.856C80.4138 245.623 81.3517 246.471 82.6504 246.471C83.6966 246.471 84.382 245.912 84.7067 245.208H84.7789V246.381H85.8431V239.454H84.7789V243.549ZM92.6985 241.006C92.3648 240.023 91.6162 239.364 90.2454 239.364C88.7843 239.364 87.7021 240.194 87.7021 241.366C87.7021 242.322 88.2703 242.963 89.5419 243.26L90.6963 243.531C91.3953 243.693 91.7244 244.027 91.7244 244.505C91.7244 245.1 91.0931 245.587 90.1011 245.587C89.2308 245.587 88.6851 245.213 88.4957 244.469L87.4856 244.721C87.7336 245.898 88.7032 246.525 90.1191 246.525C91.729 246.525 92.8247 245.646 92.8247 244.451C92.8247 243.486 92.2205 242.877 90.9849 242.575L89.9568 242.322C89.1361 242.119 88.7663 241.844 88.7663 241.312C88.7663 240.717 89.3976 240.284 90.2454 240.284C91.1743 240.284 91.5576 240.798 91.7425 241.276L92.6985 241.006ZM94.4267 246.381H95.4909V239.454H94.4267V246.381ZM94.9678 238.3C95.3827 238.3 95.7254 237.975 95.7254 237.579C95.7254 237.182 95.3827 236.857 94.9678 236.857C94.553 236.857 94.2102 237.182 94.2102 237.579C94.2102 237.975 94.553 238.3 94.9678 238.3ZM98.5043 242.214C98.5043 241.006 99.2529 240.32 100.272 240.32C101.26 240.32 101.859 240.965 101.859 242.052V246.381H102.923V241.98C102.923 240.212 101.981 239.364 100.579 239.364C99.5324 239.364 98.8831 239.833 98.5584 240.537H98.4682V239.454H97.4401V246.381H98.5043V242.214ZM107.664 249.123C109.323 249.123 110.658 248.365 110.658 246.579V239.454H109.63V240.555H109.522C109.287 240.194 108.854 239.364 107.502 239.364C105.752 239.364 104.543 240.753 104.543 242.882C104.543 245.046 105.806 246.273 107.484 246.273C108.836 246.273 109.269 245.479 109.504 245.1H109.594V246.507C109.594 247.662 108.782 248.185 107.664 248.185C106.406 248.185 105.964 247.522 105.68 247.138L104.832 247.734C105.265 248.46 106.117 249.123 107.664 249.123ZM107.628 245.317C106.293 245.317 105.608 244.307 105.608 242.864C105.608 241.457 106.275 240.32 107.628 240.32C108.927 240.32 109.612 241.366 109.612 242.864C109.612 244.397 108.909 245.317 107.628 245.317ZM117.242 242.214C117.242 241.006 118.013 240.32 119.064 240.32C120.065 240.32 120.669 240.952 120.669 242.052V246.381H121.733V241.98C121.733 240.198 120.786 239.364 119.37 239.364C118.279 239.364 117.657 239.82 117.332 240.537H117.242V237.146H116.178V246.381H117.242V242.214ZM125.718 246.543C126.927 246.543 127.558 245.894 127.775 245.443H127.829V246.381H128.893V241.817C128.893 239.617 127.216 239.364 126.332 239.364C125.286 239.364 124.095 239.725 123.554 240.988L124.564 241.348C124.798 240.843 125.353 240.302 126.368 240.302C127.346 240.302 127.829 240.821 127.829 241.709V241.745C127.829 242.259 127.306 242.214 126.043 242.377C124.758 242.543 123.355 242.827 123.355 244.415C123.355 245.768 124.402 246.543 125.718 246.543ZM125.881 245.587C125.033 245.587 124.42 245.208 124.42 244.469C124.42 243.657 125.159 243.405 125.989 243.296C126.44 243.242 127.648 243.116 127.829 242.9V243.874C127.829 244.739 127.143 245.587 125.881 245.587ZM131.9 242.214C131.9 241.006 132.648 240.32 133.667 240.32C134.655 240.32 135.255 240.965 135.255 242.052V246.381H136.319V241.98C136.319 240.212 135.376 239.364 133.974 239.364C132.928 239.364 132.278 239.833 131.954 240.537H131.864V239.454H130.835V246.381H131.9V242.214ZM140.879 246.525C142.214 246.525 142.665 245.695 142.899 245.317H143.025V246.381H144.054V237.146H142.989V240.555H142.899C142.665 240.194 142.25 239.364 140.897 239.364C139.147 239.364 137.939 240.753 137.939 242.936C137.939 245.136 139.147 246.525 140.879 246.525ZM141.023 245.569C139.688 245.569 139.003 244.397 139.003 242.918C139.003 241.457 139.67 240.32 141.023 240.32C142.322 240.32 143.007 241.366 143.007 242.918C143.007 244.487 142.304 245.569 141.023 245.569ZM151.057 241.006C150.723 240.023 149.974 239.364 148.604 239.364C147.142 239.364 146.06 240.194 146.06 241.366C146.06 242.322 146.628 242.963 147.9 243.26L149.054 243.531C149.753 243.693 150.083 244.027 150.083 244.505C150.083 245.1 149.451 245.587 148.459 245.587C147.589 245.587 147.043 245.213 146.854 244.469L145.844 244.721C146.092 245.898 147.061 246.525 148.477 246.525C150.087 246.525 151.183 245.646 151.183 244.451C151.183 243.486 150.579 242.877 149.343 242.575L148.315 242.322C147.494 242.119 147.124 241.844 147.124 241.312C147.124 240.717 147.756 240.284 148.604 240.284C149.532 240.284 149.916 240.798 150.101 241.276L151.057 241.006ZM159.369 239.454H157.889V237.795H156.825V239.454H155.779V240.356H156.825V244.685C156.825 245.894 157.799 246.471 158.701 246.471C159.098 246.471 159.35 246.399 159.495 246.345L159.278 245.389C159.188 245.407 159.044 245.443 158.809 245.443C158.34 245.443 157.889 245.299 157.889 244.397V240.356H159.369V239.454ZM163.709 246.525C165.585 246.525 166.847 245.1 166.847 242.954C166.847 240.789 165.585 239.364 163.709 239.364C161.833 239.364 160.57 240.789 160.57 242.954C160.57 245.1 161.833 246.525 163.709 246.525ZM163.709 245.569C162.284 245.569 161.634 244.343 161.634 242.954C161.634 241.565 162.284 240.32 163.709 240.32C165.134 240.32 165.783 241.565 165.783 242.954C165.783 244.343 165.134 245.569 163.709 245.569ZM174.857 246.525C176.733 246.525 177.996 245.1 177.996 242.954C177.996 240.789 176.733 239.364 174.857 239.364C172.981 239.364 171.719 240.789 171.719 242.954C171.719 245.1 172.981 246.525 174.857 246.525ZM174.857 245.569C173.432 245.569 172.783 244.343 172.783 242.954C172.783 241.565 173.432 240.32 174.857 240.32C176.282 240.32 176.931 241.565 176.931 242.954C176.931 244.343 176.282 245.569 174.857 245.569ZM179.62 248.978H180.684V245.317H180.775C181.009 245.695 181.46 246.525 182.795 246.525C184.526 246.525 185.735 245.136 185.735 242.936C185.735 240.753 184.526 239.364 182.777 239.364C181.424 239.364 181.009 240.194 180.775 240.555H180.648V239.454H179.62V248.978ZM180.666 242.918C180.666 241.366 181.352 240.32 182.65 240.32C184.003 240.32 184.671 241.457 184.671 242.918C184.671 244.397 183.985 245.569 182.65 245.569C181.37 245.569 180.666 244.487 180.666 242.918ZM190.262 246.525C191.669 246.525 192.697 245.822 193.022 244.776L191.994 244.487C191.723 245.208 191.097 245.569 190.262 245.569C189.013 245.569 188.152 244.762 188.102 243.278H193.13V242.827C193.13 240.248 191.597 239.364 190.154 239.364C188.278 239.364 187.034 240.843 187.034 242.972C187.034 245.1 188.26 246.525 190.262 246.525ZM188.102 242.358C188.174 241.281 188.937 240.32 190.154 240.32C191.308 240.32 192.048 241.186 192.048 242.358H188.102ZM194.749 246.381H195.813V241.998C195.813 241.06 196.553 240.374 197.563 240.374C197.847 240.374 198.14 240.428 198.212 240.447V239.364C198.091 239.355 197.811 239.346 197.653 239.346C196.823 239.346 196.102 239.815 195.849 240.501H195.777V239.454H194.749V246.381ZM201.512 246.543C202.721 246.543 203.352 245.894 203.568 245.443H203.622V246.381H204.687V241.817C204.687 239.617 203.009 239.364 202.125 239.364C201.079 239.364 199.889 239.725 199.348 240.988L200.358 241.348C200.592 240.843 201.147 240.302 202.161 240.302C203.14 240.302 203.622 240.821 203.622 241.709V241.745C203.622 242.259 203.099 242.214 201.837 242.377C200.552 242.543 199.149 242.827 199.149 244.415C199.149 245.768 200.195 246.543 201.512 246.543ZM201.674 245.587C200.827 245.587 200.213 245.208 200.213 244.469C200.213 243.657 200.953 243.405 201.783 243.296C202.234 243.242 203.442 243.116 203.622 242.9V243.874C203.622 244.739 202.937 245.587 201.674 245.587ZM209.641 239.454H208.162V237.795H207.098V239.454H206.052V240.356H207.098V244.685C207.098 245.894 208.072 246.471 208.974 246.471C209.371 246.471 209.623 246.399 209.768 246.345L209.551 245.389C209.461 245.407 209.317 245.443 209.082 245.443C208.613 245.443 208.162 245.299 208.162 244.397V240.356H209.641V239.454ZM214.072 246.525C215.479 246.525 216.507 245.822 216.832 244.776L215.803 244.487C215.533 245.208 214.906 245.569 214.072 245.569C212.823 245.569 211.961 244.762 211.912 243.278H216.94V242.827C216.94 240.248 215.407 239.364 213.964 239.364C212.088 239.364 210.843 240.843 210.843 242.972C210.843 245.1 212.07 246.525 214.072 246.525ZM211.912 242.358C211.984 241.281 212.746 240.32 213.964 240.32C215.118 240.32 215.858 241.186 215.858 242.358H211.912ZM225.142 239.454H223.663V237.795H222.599V239.454H221.553V240.356H222.599V244.685C222.599 245.894 223.573 246.471 224.475 246.471C224.872 246.471 225.124 246.399 225.269 246.345L225.052 245.389C224.962 245.407 224.818 245.443 224.583 245.443C224.114 245.443 223.663 245.299 223.663 244.397V240.356H225.142V239.454ZM227.956 242.214C227.956 241.006 228.727 240.32 229.778 240.32C230.779 240.32 231.383 240.952 231.383 242.052V246.381H232.448V241.98C232.448 240.198 231.501 239.364 230.085 239.364C228.993 239.364 228.371 239.82 228.046 240.537H227.956V237.146H226.892V246.381H227.956V242.214ZM237.299 246.525C238.705 246.525 239.734 245.822 240.058 244.776L239.03 244.487C238.76 245.208 238.133 245.569 237.299 245.569C236.049 245.569 235.188 244.762 235.139 243.278H240.166V242.827C240.166 240.248 238.633 239.364 237.19 239.364C235.314 239.364 234.07 240.843 234.07 242.972C234.07 245.1 235.296 246.525 237.299 246.525ZM235.139 242.358C235.211 241.281 235.973 240.32 237.19 240.32C238.345 240.32 239.084 241.186 239.084 242.358H235.139ZM43.8314 265.381H44.8957V261.052C44.8957 260.037 45.6352 259.32 46.4649 259.32C47.2721 259.32 47.8358 259.848 47.8358 260.637V265.381H48.918V260.871C48.918 259.979 49.4772 259.32 50.4512 259.32C51.2088 259.32 51.8581 259.722 51.8581 260.745V265.381H52.9224V260.745C52.9224 259.117 52.0475 258.364 50.812 258.364C49.8199 258.364 49.0939 258.82 48.7377 259.537H48.6655C48.3228 258.797 47.7185 258.364 46.8076 258.364C45.9058 258.364 45.2384 258.797 44.9498 259.537H44.8596V258.454H43.8314V265.381ZM57.682 265.525C59.5579 265.525 60.8205 264.1 60.8205 261.954C60.8205 259.789 59.5579 258.364 57.682 258.364C55.8061 258.364 54.5435 259.789 54.5435 261.954C54.5435 264.1 55.8061 265.525 57.682 265.525ZM57.682 264.569C56.257 264.569 55.6077 263.343 55.6077 261.954C55.6077 260.565 56.257 259.32 57.682 259.32C59.107 259.32 59.7563 260.565 59.7563 261.954C59.7563 263.343 59.107 264.569 57.682 264.569ZM62.5893 265.381H63.6175V264.317H63.7437C63.9782 264.695 64.4292 265.525 65.7639 265.525C67.4955 265.525 68.7041 264.136 68.7041 261.936C68.7041 259.753 67.4955 258.364 65.7459 258.364C64.3931 258.364 63.9782 259.194 63.7437 259.555H63.6536V256.146H62.5893V265.381ZM63.6355 261.918C63.6355 260.366 64.3209 259.32 65.6196 259.32C66.9725 259.32 67.6398 260.457 67.6398 261.918C67.6398 263.397 66.9544 264.569 65.6196 264.569C64.339 264.569 63.6355 263.487 63.6355 261.918ZM70.3319 265.381H71.3962V258.454H70.3319V265.381ZM70.8731 257.3C71.2879 257.3 71.6306 256.975 71.6306 256.579C71.6306 256.182 71.2879 255.857 70.8731 255.857C70.4582 255.857 70.1155 256.182 70.1155 256.579C70.1155 256.975 70.4582 257.3 70.8731 257.3ZM74.4096 256.146H73.3453V265.381H74.4096V256.146ZM79.2628 265.525C80.6697 265.525 81.6978 264.822 82.0225 263.776L80.9944 263.487C80.7238 264.208 80.097 264.569 79.2628 264.569C78.0137 264.569 77.1524 263.762 77.1028 262.278H82.1307V261.827C82.1307 259.248 80.5975 258.364 79.1545 258.364C77.2786 258.364 76.0341 259.843 76.0341 261.972C76.0341 264.1 77.2606 265.525 79.2628 265.525ZM77.1028 261.358C77.1749 260.281 77.937 259.32 79.1545 259.32C80.3089 259.32 81.0485 260.186 81.0485 261.358H77.1028ZM87.321 267.978H88.3852V264.317H88.4754C88.7099 264.695 89.1609 265.525 90.4956 265.525C92.2272 265.525 93.4358 264.136 93.4358 261.936C93.4358 259.753 92.2272 258.364 90.4776 258.364C89.1248 258.364 88.7099 259.194 88.4754 259.555H88.3492V258.454H87.321V267.978ZM88.3672 261.918C88.3672 260.366 89.0526 259.32 90.3513 259.32C91.7042 259.32 92.3715 260.457 92.3715 261.918C92.3715 263.397 91.6861 264.569 90.3513 264.569C89.0707 264.569 88.3672 263.487 88.3672 261.918ZM96.1233 261.214C96.1233 260.006 96.8944 259.32 97.9451 259.32C98.9462 259.32 99.5505 259.952 99.5505 261.052V265.381H100.615V260.98C100.615 259.198 99.6677 258.364 98.2518 258.364C97.1605 258.364 96.5382 258.82 96.2135 259.537H96.1233V256.146H95.0591V265.381H96.1233V261.214ZM105.375 265.525C107.251 265.525 108.514 264.1 108.514 261.954C108.514 259.789 107.251 258.364 105.375 258.364C103.5 258.364 102.237 259.789 102.237 261.954C102.237 264.1 103.5 265.525 105.375 265.525ZM105.375 264.569C103.951 264.569 103.301 263.343 103.301 261.954C103.301 260.565 103.951 259.32 105.375 259.32C106.8 259.32 107.45 260.565 107.45 261.954C107.45 263.343 106.8 264.569 105.375 264.569ZM111.203 261.214C111.203 260.006 111.951 259.32 112.97 259.32C113.958 259.32 114.558 259.965 114.558 261.052V265.381H115.622V260.98C115.622 259.212 114.679 258.364 113.277 258.364C112.231 258.364 111.582 258.833 111.257 259.537H111.167V258.454H110.139V265.381H111.203V261.214ZM120.471 265.525C121.878 265.525 122.906 264.822 123.23 263.776L122.202 263.487C121.932 264.208 121.305 264.569 120.471 264.569C119.222 264.569 118.36 263.762 118.311 262.278H123.339V261.827C123.339 259.248 121.805 258.364 120.362 258.364C118.486 258.364 117.242 259.843 117.242 261.972C117.242 264.1 118.468 265.525 120.471 265.525ZM118.311 261.358C118.383 260.281 119.145 259.32 120.362 259.32C121.517 259.32 122.256 260.186 122.256 261.358H118.311ZM131.144 265.525C132.479 265.525 132.93 264.695 133.165 264.317H133.291V265.381H134.319V256.146H133.255V259.555H133.165C132.93 259.194 132.515 258.364 131.162 258.364C129.413 258.364 128.204 259.753 128.204 261.936C128.204 264.136 129.413 265.525 131.144 265.525ZM131.289 264.569C129.954 264.569 129.268 263.397 129.268 261.918C129.268 260.457 129.936 259.32 131.289 259.32C132.587 259.32 133.273 260.366 133.273 261.918C133.273 263.487 132.569 264.569 131.289 264.569ZM140.781 262.549C140.781 263.848 139.789 264.443 138.995 264.443C138.111 264.443 137.48 263.794 137.48 262.783V258.454H136.416V262.856C136.416 264.623 137.354 265.471 138.652 265.471C139.699 265.471 140.384 264.912 140.709 264.208H140.781V265.381H141.845V258.454H140.781V262.549ZM143.794 265.381H144.858V260.998C144.858 260.06 145.598 259.374 146.608 259.374C146.892 259.374 147.185 259.428 147.257 259.447V258.364C147.136 258.355 146.856 258.346 146.698 258.346C145.869 258.346 145.147 258.815 144.895 259.501H144.822V258.454H143.794V265.381ZM148.519 265.381H149.583V258.454H148.519V265.381ZM149.06 257.3C149.475 257.3 149.818 256.975 149.818 256.579C149.818 256.182 149.475 255.857 149.06 255.857C148.645 255.857 148.303 256.182 148.303 256.579C148.303 256.975 148.645 257.3 149.06 257.3ZM152.597 261.214C152.597 260.006 153.345 259.32 154.364 259.32C155.352 259.32 155.952 259.965 155.952 261.052V265.381H157.016V260.98C157.016 259.212 156.073 258.364 154.671 258.364C153.625 258.364 152.975 258.833 152.651 259.537H152.56V258.454H151.532V265.381H152.597V261.214ZM161.756 268.123C163.416 268.123 164.75 267.365 164.75 265.579V258.454H163.722V259.555H163.614C163.38 259.194 162.947 258.364 161.594 258.364C159.844 258.364 158.636 259.753 158.636 261.882C158.636 264.046 159.898 265.273 161.576 265.273C162.929 265.273 163.362 264.479 163.596 264.1H163.686V265.507C163.686 266.662 162.875 267.185 161.756 267.185C160.498 267.185 160.056 266.522 159.772 266.138L158.924 266.734C159.357 267.46 160.21 268.123 161.756 268.123ZM161.72 264.317C160.385 264.317 159.7 263.307 159.7 261.864C159.7 260.457 160.367 259.32 161.72 259.32C163.019 259.32 163.704 260.366 163.704 261.864C163.704 263.397 163.001 264.317 161.72 264.317ZM173.084 265.525C174.617 265.525 175.627 264.587 175.807 263.361H174.743C174.545 264.118 173.914 264.569 173.084 264.569C171.821 264.569 171.009 263.523 171.009 261.918C171.009 260.348 171.839 259.32 173.084 259.32C174.022 259.32 174.581 259.897 174.743 260.529H175.807C175.627 259.23 174.527 258.364 173.066 258.364C171.19 258.364 169.945 259.843 169.945 261.954C169.945 264.028 171.136 265.525 173.084 265.525ZM180.177 265.525C182.053 265.525 183.316 264.1 183.316 261.954C183.316 259.789 182.053 258.364 180.177 258.364C178.301 258.364 177.039 259.789 177.039 261.954C177.039 264.1 178.301 265.525 180.177 265.525ZM180.177 264.569C178.752 264.569 178.103 263.343 178.103 261.954C178.103 260.565 178.752 259.32 180.177 259.32C181.602 259.32 182.251 260.565 182.251 261.954C182.251 263.343 181.602 264.569 180.177 264.569ZM187.754 265.525C189.63 265.525 190.892 264.1 190.892 261.954C190.892 259.789 189.63 258.364 187.754 258.364C185.878 258.364 184.615 259.789 184.615 261.954C184.615 264.1 185.878 265.525 187.754 265.525ZM187.754 264.569C186.329 264.569 185.68 263.343 185.68 261.954C185.68 260.565 186.329 259.32 187.754 259.32C189.179 259.32 189.828 260.565 189.828 261.954C189.828 263.343 189.179 264.569 187.754 264.569ZM192.517 265.381H193.581V262.788L194.325 262.098L196.918 265.381H198.271L195.128 261.413L198.054 258.454H196.738L193.707 261.539H193.581V256.146H192.517V265.381ZM199.424 265.381H200.488V258.454H199.424V265.381ZM199.965 257.3C200.38 257.3 200.723 256.975 200.723 256.579C200.723 256.182 200.38 255.857 199.965 255.857C199.55 255.857 199.208 256.182 199.208 256.579C199.208 256.975 199.55 257.3 199.965 257.3ZM203.502 261.214C203.502 260.006 204.25 259.32 205.27 259.32C206.257 259.32 206.857 259.965 206.857 261.052V265.381H207.921V260.98C207.921 259.212 206.979 258.364 205.576 258.364C204.53 258.364 203.881 258.833 203.556 259.537H203.466V258.454H202.438V265.381H203.502V261.214ZM212.662 268.123C214.321 268.123 215.656 267.365 215.656 265.579V258.454H214.628V259.555H214.519C214.285 259.194 213.852 258.364 212.499 258.364C210.75 258.364 209.541 259.753 209.541 261.882C209.541 264.046 210.804 265.273 212.481 265.273C213.834 265.273 214.267 264.479 214.501 264.1H214.592V265.507C214.592 266.662 213.78 267.185 212.662 267.185C211.403 267.185 210.961 266.522 210.677 266.138L209.83 266.734C210.263 267.46 211.115 268.123 212.662 268.123ZM212.625 264.317C211.291 264.317 210.605 263.307 210.605 261.864C210.605 260.457 211.273 259.32 212.625 259.32C213.924 259.32 214.61 260.366 214.61 261.864C214.61 263.397 213.906 264.317 212.625 264.317Z" fill="black"/>
<path d="M24.9472 49.381H27.0384V44.477H31.8353V42.724H27.0384V39.59H32.3426V37.837H24.9472V49.381ZM37.3551 49.5501C39.373 49.5501 40.7596 48.5637 41.1204 47.0587L39.2152 46.8445C38.939 47.5772 38.2626 47.9605 37.3832 47.9605C36.0642 47.9605 35.1906 47.0925 35.1736 45.61H41.2049V44.9843C41.2049 41.9461 39.3786 40.6102 37.248 40.6102C34.7678 40.6102 33.1501 42.4309 33.1501 45.1027C33.1501 47.8196 34.7452 49.5501 37.3551 49.5501ZM35.1793 44.2347C35.2413 43.1299 36.0586 42.1998 37.2761 42.1998C38.4486 42.1998 39.2377 43.0566 39.249 44.2347H35.1793ZM45.4226 49.5557C46.7811 49.5557 47.5928 48.9188 47.9648 48.1916H48.0324V49.381H49.994V43.5864C49.994 41.2979 48.1282 40.6102 46.4767 40.6102C44.656 40.6102 43.2581 41.4219 42.8072 43.0002L44.7124 43.2708C44.9153 42.6789 45.4903 42.1716 46.488 42.1716C47.4349 42.1716 47.9535 42.6564 47.9535 43.5075V43.5413C47.9535 44.1276 47.3391 44.1557 45.8115 44.3192C44.1318 44.4996 42.5253 45.0012 42.5253 46.9516C42.5253 48.6538 43.7711 49.5557 45.4226 49.5557ZM45.9525 48.0564C45.1013 48.0564 44.4926 47.6674 44.4926 46.9177C44.4926 46.1342 45.1746 45.8073 46.0877 45.6777C46.6232 45.6044 47.6942 45.4691 47.9591 45.2549V46.2751C47.9591 47.239 47.1813 48.0564 45.9525 48.0564ZM56.3691 40.723H54.6612V38.6487H52.6207V40.723H51.3919V42.3013H52.6207V47.115C52.6094 48.744 53.7932 49.5444 55.3263 49.4994C55.9069 49.4824 56.3071 49.3697 56.527 49.2964L56.1831 47.7012C56.0704 47.7294 55.8393 47.7802 55.5856 47.7802C55.0727 47.7802 54.6612 47.5998 54.6612 46.7768V42.3013H56.3691V40.723ZM63.594 45.7397C63.594 47.0587 62.6527 47.7125 61.7508 47.7125C60.77 47.7125 60.1161 47.0192 60.1161 45.92V40.723H58.0757V46.2357C58.0757 48.3156 59.2594 49.4937 60.9617 49.4937C62.2581 49.4937 63.1713 48.8117 63.5658 47.8422H63.656V49.381H65.6345V40.723H63.594V45.7397ZM67.7328 49.381H69.7733V44.291C69.7733 43.1919 70.6019 42.414 71.7236 42.414C72.0674 42.414 72.4958 42.476 72.6705 42.5324V40.6553C72.4845 40.6215 72.1632 40.599 71.9378 40.599C70.9457 40.599 70.1171 41.1626 69.8015 42.166H69.7113V40.723H67.7328V49.381ZM77.5026 49.5501C79.5206 49.5501 80.9072 48.5637 81.268 47.0587L79.3627 46.8445C79.0865 47.5772 78.4101 47.9605 77.5308 47.9605C76.2118 47.9605 75.3381 47.0925 75.3212 45.61H81.3525V44.9843C81.3525 41.9461 79.5262 40.6102 77.3955 40.6102C74.9154 40.6102 73.2976 42.4309 73.2976 45.1027C73.2976 47.8196 74.8928 49.5501 77.5026 49.5501ZM75.3269 44.2347C75.3889 43.1299 76.2062 42.1998 77.4237 42.1998C78.5962 42.1998 79.3853 43.0566 79.3966 44.2347H75.3269ZM89.9217 43.0115C89.6399 41.5459 88.4675 40.6102 86.4382 40.6102C84.3527 40.6102 82.9322 41.6361 82.9378 43.237C82.9322 44.4996 83.7101 45.3338 85.3729 45.6777L86.8497 45.9877C87.6445 46.1624 88.0165 46.4837 88.0165 46.9741C88.0165 47.566 87.3739 48.0113 86.4044 48.0113C85.4687 48.0113 84.86 47.6054 84.6852 46.8275L82.6955 47.0192C82.9491 48.6088 84.285 49.5501 86.4101 49.5501C88.5746 49.5501 90.1021 48.4284 90.1078 46.7881C90.1021 45.5536 89.3073 44.7983 87.6727 44.4432L86.1959 44.1276C85.3165 43.9303 84.9671 43.6259 84.9727 43.1242C84.9671 42.538 85.6153 42.1322 86.4664 42.1322C87.4078 42.1322 87.9038 42.6451 88.0616 43.2144L89.9217 43.0115ZM95.8178 49.381H97.909V45.1534H100.04L102.306 49.381H104.639L102.142 44.804C103.501 44.2572 104.216 43.096 104.216 41.529C104.216 39.3251 102.796 37.837 100.147 37.837H95.8178V49.381ZM97.909 43.4173V39.5844H99.8255C101.387 39.5844 102.086 40.3002 102.086 41.529C102.086 42.7578 101.387 43.4173 99.8367 43.4173H97.909ZM109.76 49.5501C111.778 49.5501 113.165 48.5637 113.526 47.0587L111.62 46.8445C111.344 47.5772 110.668 47.9605 109.788 47.9605C108.469 47.9605 107.596 47.0925 107.579 45.61H113.61V44.9843C113.61 41.9461 111.784 40.6102 109.653 40.6102C107.173 40.6102 105.555 42.4309 105.555 45.1027C105.555 47.8196 107.15 49.5501 109.76 49.5501ZM107.584 44.2347C107.646 43.1299 108.464 42.1998 109.681 42.1998C110.854 42.1998 111.643 43.0566 111.654 44.2347H107.584ZM123.154 52.6277V40.723H121.148V42.1547H121.029C120.719 41.529 120.082 40.6102 118.555 40.6102C116.554 40.6102 114.981 42.1772 114.981 45.0632C114.981 47.9154 116.509 49.5332 118.549 49.5332C120.037 49.5332 120.708 48.6482 121.029 48.0169H121.114V52.6277H123.154ZM121.153 45.052C121.153 46.7317 120.421 47.8591 119.119 47.8591C117.771 47.8591 117.061 46.6754 117.061 45.052C117.061 43.4399 117.76 42.2843 119.119 42.2843C120.432 42.2843 121.153 43.3722 121.153 45.052ZM130.775 45.7397C130.775 47.0587 129.834 47.7125 128.932 47.7125C127.951 47.7125 127.297 47.0192 127.297 45.92V40.723H125.257V46.2357C125.257 48.3156 126.441 49.4937 128.143 49.4937C129.439 49.4937 130.353 48.8117 130.747 47.8422H130.837V49.381H132.816V40.723H130.775V45.7397ZM138.747 49.5501C140.765 49.5501 142.152 48.5637 142.512 47.0587L140.607 46.8445C140.331 47.5772 139.655 47.9605 138.775 47.9605C137.456 47.9605 136.583 47.0925 136.566 45.61H142.597V44.9843C142.597 41.9461 140.771 40.6102 138.64 40.6102C136.16 40.6102 134.542 42.4309 134.542 45.1027C134.542 47.8196 136.137 49.5501 138.747 49.5501ZM136.571 44.2347C136.633 43.1299 137.451 42.1998 138.668 42.1998C139.841 42.1998 140.63 43.0566 140.641 44.2347H136.571ZM151.166 43.0115C150.884 41.5459 149.712 40.6102 147.683 40.6102C145.597 40.6102 144.177 41.6361 144.182 43.237C144.177 44.4996 144.954 45.3338 146.617 45.6777L148.094 45.9877C148.889 46.1624 149.261 46.4837 149.261 46.9741C149.261 47.566 148.618 48.0113 147.649 48.0113C146.713 48.0113 146.104 47.6054 145.93 46.8275L143.94 47.0192C144.194 48.6088 145.529 49.5501 147.654 49.5501C149.819 49.5501 151.347 48.4284 151.352 46.7881C151.347 45.5536 150.552 44.7983 148.917 44.4432L147.44 44.1276C146.561 43.9303 146.211 43.6259 146.217 43.1242C146.211 42.538 146.86 42.1322 147.711 42.1322C148.652 42.1322 149.148 42.6451 149.306 43.2144L151.166 43.0115ZM157.358 40.723H155.65V38.6487H153.61V40.723H152.381V42.3013H153.61V47.115C153.598 48.744 154.782 49.5444 156.315 49.4994C156.896 49.4824 157.296 49.3697 157.516 49.2964L157.172 47.7012C157.059 47.7294 156.828 47.7802 156.575 47.7802C156.062 47.7802 155.65 47.5998 155.65 46.7768V42.3013H157.358V40.723ZM162.805 49.5501C164.823 49.5501 166.209 48.5637 166.57 47.0587L164.665 46.8445C164.389 47.5772 163.712 47.9605 162.833 47.9605C161.514 47.9605 160.64 47.0925 160.623 45.61H166.654V44.9843C166.654 41.9461 164.828 40.6102 162.697 40.6102C160.217 40.6102 158.6 42.4309 158.6 45.1027C158.6 47.8196 160.195 49.5501 162.805 49.5501ZM160.629 44.2347C160.691 43.1299 161.508 42.1998 162.726 42.1998C163.898 42.1998 164.687 43.0566 164.699 44.2347H160.629ZM171.594 49.5332C173.082 49.5332 173.753 48.6482 174.074 48.0169H174.198V49.381H176.204V37.837H174.158V42.1547H174.074C173.764 41.529 173.127 40.6102 171.599 40.6102C169.598 40.6102 168.026 42.1772 168.026 45.0632C168.026 47.9154 169.553 49.5332 171.594 49.5332ZM172.163 47.8591C170.816 47.8591 170.106 46.6754 170.106 45.052C170.106 43.4399 170.805 42.2843 172.163 42.2843C173.476 42.2843 174.198 43.3722 174.198 45.052C174.198 46.7317 173.465 47.8591 172.163 47.8591Z" fill="black"/>
<rect x="0.793651" y="1.42854" width="298.413" height="457.143" rx="3.1746" stroke="#FAFAFA" stroke-width="1.5873"/>
</svg>
