<svg width="300" height="460" viewBox="0 0 300 460" fill="none" xmlns="http://www.w3.org/2000/svg">
<path d="M0 4.60315C0 2.41155 1.77665 0.634888 3.96825 0.634888H296.032C298.223 0.634888 300 2.41154 300 4.60314V455.397C300 457.588 298.223 459.365 296.032 459.365H3.96826C1.77665 459.365 0 457.588 0 455.397V4.60315Z" fill="white"/>
<path d="M27.38 102.654C28.4758 102.654 29.3641 101.765 29.3641 100.669C29.3641 99.5737 28.4758 98.6853 27.38 98.6853C26.2842 98.6853 25.3959 99.5737 25.3959 100.669C25.3959 101.765 26.2842 102.654 27.38 102.654Z" fill="black"/>
<path d="M44.3545 95.0822H43.1821L46.5732 104.317H47.7276L51.1186 95.0822H49.9462L47.2045 102.856H47.0962L44.3545 95.0822ZM53.8062 104.48C55.0147 104.48 55.646 103.83 55.8625 103.379H55.9166V104.317H56.9808V99.7539C56.9808 97.5533 55.3033 97.3008 54.4195 97.3008C53.3733 97.3008 52.1828 97.6615 51.6417 98.9242L52.6518 99.2849C52.8863 98.7799 53.4409 98.2387 54.4555 98.2387C55.4341 98.2387 55.9166 98.7573 55.9166 99.6457V99.6817C55.9166 100.196 55.3935 100.151 54.1309 100.313C52.8457 100.48 51.4433 100.764 51.4433 102.351C51.4433 103.704 52.4895 104.48 53.8062 104.48ZM53.9685 103.524C53.1208 103.524 52.5075 103.145 52.5075 102.405C52.5075 101.594 53.247 101.341 54.0768 101.233C54.5277 101.179 55.7362 101.053 55.9166 100.836V101.81C55.9166 102.676 55.2312 103.524 53.9685 103.524ZM58.9232 104.317H59.9874V99.9343C59.9874 98.9963 60.727 98.3109 61.7371 98.3109C62.0212 98.3109 62.3143 98.365 62.3864 98.383V97.3008C62.2647 97.2918 61.9851 97.2828 61.8273 97.2828C60.9975 97.2828 60.276 97.7517 60.0235 98.4372H59.9514V97.391H58.9232V104.317ZM63.6479 104.317H64.7121V97.391H63.6479V104.317ZM64.189 96.2366C64.6039 96.2366 64.9466 95.9119 64.9466 95.5151C64.9466 95.1182 64.6039 94.7936 64.189 94.7936C63.7742 94.7936 63.4315 95.1182 63.4315 95.5151C63.4315 95.9119 63.7742 96.2366 64.189 96.2366ZM69.5653 104.462C70.9723 104.462 72.0004 103.758 72.3251 102.712L71.2969 102.423C71.0264 103.145 70.3996 103.506 69.5653 103.506C68.3162 103.506 67.455 102.699 67.4054 101.215H72.4333V100.764C72.4333 98.1846 70.9001 97.3008 69.4571 97.3008C67.5812 97.3008 66.3366 98.7799 66.3366 100.908C66.3366 103.037 67.5632 104.462 69.5653 104.462ZM67.4054 100.295C67.4775 99.2173 68.2396 98.2568 69.4571 98.2568C70.6115 98.2568 71.3511 99.1226 71.3511 100.295H67.4054ZM77.0644 97.391H75.5854V95.7315H74.5212V97.391H73.475V98.2929H74.5212V102.622C74.5212 103.83 75.4952 104.408 76.3971 104.408C76.7939 104.408 77.0464 104.335 77.1907 104.281L76.9743 103.325C76.8841 103.343 76.7398 103.379 76.5053 103.379C76.0363 103.379 75.5854 103.235 75.5854 102.333V98.2929H77.0644V97.391ZM79.3507 106.915C80.3112 106.915 80.9876 106.405 81.3889 105.327L84.3381 97.409L83.1747 97.391L81.2627 102.91H81.1905L79.2786 97.391H78.1242L80.6855 104.353L80.4871 104.895C80.0993 105.95 79.6213 106.049 78.8457 105.851L78.5751 106.789C78.6833 106.843 78.99 106.915 79.3507 106.915ZM92.1314 104.462C94.0073 104.462 95.2699 103.037 95.2699 100.89C95.2699 98.7258 94.0073 97.3008 92.1314 97.3008C90.2555 97.3008 88.9929 98.7258 88.9929 100.89C88.9929 103.037 90.2555 104.462 92.1314 104.462ZM92.1314 103.506C90.7064 103.506 90.0571 102.279 90.0571 100.89C90.0571 99.5014 90.7064 98.2568 92.1314 98.2568C93.5564 98.2568 94.2057 99.5014 94.2057 100.89C94.2057 102.279 93.5564 103.506 92.1314 103.506ZM99.9789 97.391H98.4276V96.6875C98.4276 96.0021 98.7162 95.6413 99.4197 95.6413C99.7263 95.6413 99.9067 95.7135 100.015 95.7496L100.322 94.8296C100.159 94.7575 99.8346 94.6493 99.3115 94.6493C98.3194 94.6493 97.3634 95.2445 97.3634 96.435V97.391H96.2451V98.2929H97.3634V104.317H98.4276V98.2929H99.9789V97.391ZM105.186 104.317H106.304V100.71H108.325C108.406 100.71 108.482 100.71 108.559 100.705L110.507 104.317H111.806L109.718 100.502C110.895 100.101 111.445 99.1406 111.445 97.9141C111.445 96.2817 110.471 95.0822 108.307 95.0822H105.186V104.317ZM106.304 99.6998V96.0742H108.27C109.768 96.0742 110.345 96.8048 110.345 97.9141C110.345 99.0234 109.768 99.6998 108.289 99.6998H106.304ZM115.994 104.462C117.401 104.462 118.429 103.758 118.754 102.712L117.726 102.423C117.455 103.145 116.828 103.506 115.994 103.506C114.745 103.506 113.884 102.699 113.834 101.215H118.862V100.764C118.862 98.1846 117.329 97.3008 115.886 97.3008C114.01 97.3008 112.765 98.7799 112.765 100.908C112.765 103.037 113.992 104.462 115.994 104.462ZM113.834 100.295C113.906 99.2173 114.668 98.2568 115.886 98.2568C117.04 98.2568 117.78 99.1226 117.78 100.295H113.834ZM123.295 104.462C124.828 104.462 125.838 103.524 126.018 102.297H124.954C124.756 103.055 124.124 103.506 123.295 103.506C122.032 103.506 121.22 102.46 121.22 100.854C121.22 99.2849 122.05 98.2568 123.295 98.2568C124.233 98.2568 124.792 98.834 124.954 99.4653H126.018C125.838 98.1666 124.738 97.3008 123.277 97.3008C121.401 97.3008 120.156 98.7799 120.156 100.89C120.156 102.965 121.347 104.462 123.295 104.462ZM127.574 104.317H128.638V97.391H127.574V104.317ZM128.115 96.2366C128.53 96.2366 128.873 95.9119 128.873 95.5151C128.873 95.1182 128.53 94.7936 128.115 94.7936C127.7 94.7936 127.358 95.1182 127.358 95.5151C127.358 95.9119 127.7 96.2366 128.115 96.2366ZM130.587 106.915H131.652V103.253H131.742C131.976 103.632 132.427 104.462 133.762 104.462C135.494 104.462 136.702 103.073 136.702 100.872C136.702 98.6897 135.494 97.3008 133.744 97.3008C132.391 97.3008 131.976 98.1305 131.742 98.4913H131.616V97.391H130.587V106.915ZM131.634 100.854C131.634 99.303 132.319 98.2568 133.618 98.2568C134.971 98.2568 135.638 99.3931 135.638 100.854C135.638 102.333 134.952 103.506 133.618 103.506C132.337 103.506 131.634 102.423 131.634 100.854ZM141.23 104.462C142.636 104.462 143.665 103.758 143.989 102.712L142.961 102.423C142.691 103.145 142.064 103.506 141.23 103.506C139.98 103.506 139.119 102.699 139.07 101.215H144.097V100.764C144.097 98.1846 142.564 97.3008 141.121 97.3008C139.245 97.3008 138.001 98.7799 138.001 100.908C138.001 103.037 139.227 104.462 141.23 104.462ZM139.07 100.295C139.142 99.2173 139.904 98.2568 141.121 98.2568C142.276 98.2568 143.015 99.1226 143.015 100.295H139.07ZM150.623 98.9422C150.289 97.9592 149.54 97.3008 148.169 97.3008C146.708 97.3008 145.626 98.1305 145.626 99.303C145.626 100.259 146.194 100.899 147.466 101.197L148.62 101.467C149.319 101.63 149.649 101.963 149.649 102.441C149.649 103.037 149.017 103.524 148.025 103.524C147.155 103.524 146.609 103.149 146.42 102.405L145.41 102.658C145.658 103.835 146.627 104.462 148.043 104.462C149.653 104.462 150.749 103.582 150.749 102.387C150.749 101.422 150.145 100.814 148.909 100.511L147.881 100.259C147.06 100.056 146.69 99.7809 146.69 99.2488C146.69 98.6536 147.322 98.2207 148.169 98.2207C149.098 98.2207 149.482 98.7348 149.667 99.2128L150.623 98.9422Z" fill="black"/>
<path d="M27.38 137.574C28.4758 137.574 29.3641 136.686 29.3641 135.59C29.3641 134.494 28.4758 133.606 27.38 133.606C26.2842 133.606 25.3959 134.494 25.3959 135.59C25.3959 136.686 26.2842 137.574 27.38 137.574Z" fill="black"/>
<path d="M45.0941 130.003H43.9757V139.238H45.0941V130.003ZM47.1921 139.238H48.2563V134.909C48.2563 133.894 48.9958 133.177 49.8255 133.177C50.6327 133.177 51.1964 133.705 51.1964 134.494V139.238H52.2786V134.729C52.2786 133.836 52.8378 133.177 53.8118 133.177C54.5694 133.177 55.2188 133.579 55.2188 134.602V139.238H56.283V134.602C56.283 132.974 55.4082 132.221 54.1726 132.221C53.1805 132.221 52.4545 132.677 52.0983 133.394H52.0261C51.6834 132.654 51.0791 132.221 50.1683 132.221C49.2664 132.221 48.599 132.654 48.3104 133.394H48.2202V132.312H47.1921V139.238ZM58.2288 141.835H59.293V138.174H59.3832C59.6177 138.552 60.0686 139.382 61.4034 139.382C63.135 139.382 64.3435 137.993 64.3435 135.793C64.3435 133.61 63.135 132.221 61.3853 132.221C60.0325 132.221 59.6177 133.051 59.3832 133.412H59.2569V132.312H58.2288V141.835ZM59.2749 135.775C59.2749 134.223 59.9604 133.177 61.2591 133.177C62.6119 133.177 63.2793 134.314 63.2793 135.775C63.2793 137.254 62.5938 138.426 61.2591 138.426C59.9784 138.426 59.2749 137.344 59.2749 135.775ZM65.9669 139.238H67.0311V134.855C67.0311 133.917 67.7706 133.231 68.7807 133.231C69.0648 133.231 69.3579 133.286 69.4301 133.304V132.221C69.3083 132.212 69.0287 132.203 68.8709 132.203C68.0412 132.203 67.3197 132.672 67.0672 133.358H66.995V132.312H65.9669V139.238ZM73.2946 139.382C75.1705 139.382 76.4331 137.957 76.4331 135.811C76.4331 133.646 75.1705 132.221 73.2946 132.221C71.4187 132.221 70.1561 133.646 70.1561 135.811C70.1561 137.957 71.4187 139.382 73.2946 139.382ZM73.2946 138.426C71.8696 138.426 71.2203 137.2 71.2203 135.811C71.2203 134.422 71.8696 133.177 73.2946 133.177C74.7196 133.177 75.3689 134.422 75.3689 135.811C75.3689 137.2 74.7196 138.426 73.2946 138.426ZM83.4734 132.312H82.319L80.407 137.831H80.3349L78.4229 132.312H77.2685L79.8298 139.238H80.9121L83.4734 132.312ZM87.5341 139.382C88.941 139.382 89.9692 138.679 90.2938 137.633L89.2657 137.344C88.9951 138.065 88.3683 138.426 87.5341 138.426C86.285 138.426 85.4237 137.619 85.3741 136.135H90.4021V135.685C90.4021 133.105 88.8689 132.221 87.4259 132.221C85.55 132.221 84.3054 133.7 84.3054 135.829C84.3054 137.957 85.5319 139.382 87.5341 139.382ZM85.3741 135.216C85.4463 134.138 86.2083 133.177 87.4259 133.177C88.5803 133.177 89.3198 134.043 89.3198 135.216H85.3741ZM103.168 132.889C102.825 130.995 101.31 129.876 99.4524 129.876C97.0895 129.876 95.3759 131.698 95.3759 134.62C95.3759 137.542 97.0895 139.364 99.4524 139.364C101.31 139.364 102.825 138.246 103.168 136.352H102.05C101.779 137.633 100.679 138.318 99.4524 138.318C97.7749 138.318 96.4582 137.019 96.4582 134.62C96.4582 132.221 97.7749 130.923 99.4524 130.923C100.679 130.923 101.779 131.608 102.05 132.889H103.168ZM107.645 139.382C109.521 139.382 110.783 137.957 110.783 135.811C110.783 133.646 109.521 132.221 107.645 132.221C105.769 132.221 104.506 133.646 104.506 135.811C104.506 137.957 105.769 139.382 107.645 139.382ZM107.645 138.426C106.22 138.426 105.57 137.2 105.57 135.811C105.57 134.422 106.22 133.177 107.645 133.177C109.07 133.177 109.719 134.422 109.719 135.811C109.719 137.2 109.07 138.426 107.645 138.426ZM115.222 139.382C117.098 139.382 118.36 137.957 118.36 135.811C118.36 133.646 117.098 132.221 115.222 132.221C113.346 132.221 112.083 133.646 112.083 135.811C112.083 137.957 113.346 139.382 115.222 139.382ZM115.222 138.426C113.797 138.426 113.147 137.2 113.147 135.811C113.147 134.422 113.797 133.177 115.222 133.177C116.647 133.177 117.296 134.422 117.296 135.811C117.296 137.2 116.647 138.426 115.222 138.426ZM119.985 139.238H121.049V136.645L121.793 135.955L124.386 139.238H125.739L122.596 135.27L125.522 132.312H124.205L121.175 135.396H121.049V130.003H119.985V139.238ZM126.892 139.238H127.956V132.312H126.892V139.238ZM127.433 131.157C127.848 131.157 128.191 130.832 128.191 130.436C128.191 130.039 127.848 129.714 127.433 129.714C127.018 129.714 126.676 130.039 126.676 130.436C126.676 130.832 127.018 131.157 127.433 131.157ZM130.97 135.071C130.97 133.863 131.718 133.177 132.737 133.177C133.725 133.177 134.325 133.822 134.325 134.909V139.238H135.389V134.837C135.389 133.069 134.446 132.221 133.044 132.221C131.998 132.221 131.348 132.69 131.024 133.394H130.933V132.312H129.905V139.238H130.97V135.071ZM140.129 141.98C141.789 141.98 143.123 141.222 143.123 139.436V132.312H142.095V133.412H141.987C141.753 133.051 141.32 132.221 139.967 132.221C138.217 132.221 137.009 133.61 137.009 135.739C137.009 137.903 138.271 139.13 139.949 139.13C141.302 139.13 141.735 138.336 141.969 137.957H142.059V139.364C142.059 140.519 141.248 141.042 140.129 141.042C138.871 141.042 138.429 140.379 138.145 139.995L137.297 140.591C137.73 141.317 138.583 141.98 140.129 141.98ZM140.093 138.174C138.758 138.174 138.073 137.164 138.073 135.721C138.073 134.314 138.74 133.177 140.093 133.177C141.392 133.177 142.077 134.223 142.077 135.721C142.077 137.254 141.374 138.174 140.093 138.174ZM149.166 139.238L150.095 136.622H153.829L154.758 139.238H155.93L152.539 130.003H151.385L147.994 139.238H149.166ZM150.447 135.63L151.926 131.464H151.998L153.477 135.63H150.447ZM157.369 139.238H158.397V138.174H158.523C158.757 138.552 159.208 139.382 160.543 139.382C162.275 139.382 163.483 137.993 163.483 135.793C163.483 133.61 162.275 132.221 160.525 132.221C159.172 132.221 158.757 133.051 158.523 133.412H158.433V130.003H157.369V139.238ZM158.415 135.775C158.415 134.223 159.1 133.177 160.399 133.177C161.752 133.177 162.419 134.314 162.419 135.775C162.419 137.254 161.734 138.426 160.399 138.426C159.118 138.426 158.415 137.344 158.415 135.775ZM165.111 139.238H166.175V132.312H165.111V139.238ZM165.652 131.157C166.067 131.157 166.41 130.832 166.41 130.436C166.41 130.039 166.067 129.714 165.652 129.714C165.237 129.714 164.895 130.039 164.895 130.436C164.895 130.832 165.237 131.157 165.652 131.157ZM169.189 130.003H168.125V139.238H169.189V130.003ZM171.138 139.238H172.202V132.312H171.138V139.238ZM171.679 131.157C172.094 131.157 172.437 130.832 172.437 130.436C172.437 130.039 172.094 129.714 171.679 129.714C171.264 129.714 170.922 130.039 170.922 130.436C170.922 130.832 171.264 131.157 171.679 131.157ZM177.164 132.312H175.685V130.652H174.62V132.312H173.574V133.213H174.62V137.542C174.62 138.751 175.594 139.328 176.496 139.328C176.893 139.328 177.146 139.256 177.29 139.202L177.073 138.246C176.983 138.264 176.839 138.3 176.604 138.3C176.136 138.3 175.685 138.156 175.685 137.254V133.213H177.164V132.312ZM179.45 141.835C180.41 141.835 181.087 141.326 181.488 140.248L184.437 132.33L183.274 132.312L181.362 137.831H181.29L179.378 132.312H178.223L180.785 139.274L180.586 139.815C180.198 140.87 179.72 140.97 178.945 140.771L178.674 141.709C178.783 141.763 179.089 141.835 179.45 141.835Z" fill="black"/>
<path d="M27.38 172.495C28.4758 172.495 29.3641 171.607 29.3641 170.511C29.3641 169.415 28.4758 168.527 27.38 168.527C26.2842 168.527 25.3959 169.415 25.3959 170.511C25.3959 171.607 26.2842 172.495 27.38 172.495Z" fill="black"/>
<path d="M45.0941 164.923H43.9757V174.159H45.0941V164.923ZM48.2563 169.992C48.2563 168.784 49.0048 168.098 50.024 168.098C51.0115 168.098 51.6113 168.743 51.6113 169.83V174.159H52.6755V169.758C52.6755 167.99 51.733 167.142 50.3306 167.142C49.2844 167.142 48.6351 167.611 48.3104 168.315H48.2202V167.232H47.1921V174.159H48.2563V169.992ZM57.434 174.303C58.9672 174.303 59.9773 173.365 60.1577 172.138H59.0934C58.895 172.896 58.2637 173.347 57.434 173.347C56.1714 173.347 55.3597 172.301 55.3597 170.695C55.3597 169.126 56.1894 168.098 57.434 168.098C58.3719 168.098 58.9311 168.675 59.0934 169.307H60.1577C59.9773 168.008 58.877 167.142 57.416 167.142C55.5401 167.142 54.2955 168.621 54.2955 170.732C54.2955 172.806 55.4859 174.303 57.434 174.303ZM61.7134 174.159H62.7776V169.776C62.7776 168.838 63.5171 168.152 64.5272 168.152C64.8113 168.152 65.1044 168.206 65.1766 168.224V167.142C65.0548 167.133 64.7753 167.124 64.6174 167.124C63.7877 167.124 63.0662 167.593 62.8137 168.278H62.7415V167.232H61.7134V174.159ZM69.1313 174.303C70.5382 174.303 71.5664 173.6 71.8911 172.553L70.8629 172.265C70.5924 172.986 69.9656 173.347 69.1313 173.347C67.8822 173.347 67.0209 172.54 66.9713 171.056H71.9993V170.605C71.9993 168.026 70.4661 167.142 69.0231 167.142C67.1472 167.142 65.9026 168.621 65.9026 170.75C65.9026 172.878 67.1292 174.303 69.1313 174.303ZM66.9713 170.136C67.0435 169.059 67.8056 168.098 69.0231 168.098C70.1775 168.098 70.917 168.964 70.917 170.136H66.9713ZM75.6564 174.321C76.8649 174.321 77.4962 173.672 77.7127 173.221H77.7668V174.159H78.831V169.595C78.831 167.395 77.1535 167.142 76.2697 167.142C75.2235 167.142 74.033 167.503 73.4919 168.765L74.502 169.126C74.7365 168.621 75.2911 168.08 76.3057 168.08C77.2843 168.08 77.7668 168.599 77.7668 169.487V169.523C77.7668 170.037 77.2437 169.992 75.9811 170.154C74.6959 170.321 73.2935 170.605 73.2935 172.193C73.2935 173.545 74.3397 174.321 75.6564 174.321ZM75.8187 173.365C74.971 173.365 74.3577 172.986 74.3577 172.247C74.3577 171.435 75.0972 171.183 75.927 171.074C76.3779 171.02 77.5864 170.894 77.7668 170.677V171.651C77.7668 172.517 77.0814 173.365 75.8187 173.365ZM85.6796 168.784C85.3459 167.8 84.5974 167.142 83.2265 167.142C81.7655 167.142 80.6832 167.972 80.6832 169.144C80.6832 170.1 81.2514 170.741 82.5231 171.038L83.6775 171.309C84.3764 171.471 84.7056 171.805 84.7056 172.283C84.7056 172.878 84.0743 173.365 83.0822 173.365C82.2119 173.365 81.6663 172.991 81.4769 172.247L80.4668 172.499C80.7148 173.676 81.6843 174.303 83.1003 174.303C84.7101 174.303 85.8059 173.424 85.8059 172.229C85.8059 171.264 85.2016 170.655 83.9661 170.353L82.9379 170.1C82.1172 169.897 81.7474 169.622 81.7474 169.09C81.7474 168.495 82.3787 168.062 83.2265 168.062C84.1554 168.062 84.5387 168.576 84.7236 169.054L85.6796 168.784ZM90.3119 174.303C91.7188 174.303 92.7469 173.6 93.0716 172.553L92.0435 172.265C91.7729 172.986 91.1461 173.347 90.3119 173.347C89.0628 173.347 88.2015 172.54 88.1519 171.056H93.1798V170.605C93.1798 168.026 91.6466 167.142 90.2036 167.142C88.3277 167.142 87.0832 168.621 87.0832 170.75C87.0832 172.878 88.3097 174.303 90.3119 174.303ZM88.1519 170.136C88.224 169.059 88.9861 168.098 90.2036 168.098C91.358 168.098 92.0976 168.964 92.0976 170.136H88.1519ZM105.946 167.809C105.603 165.916 104.088 164.797 102.23 164.797C99.8673 164.797 98.1537 166.619 98.1537 169.541C98.1537 172.463 99.8673 174.285 102.23 174.285C104.088 174.285 105.603 173.167 105.946 171.273H104.828C104.557 172.553 103.457 173.239 102.23 173.239C100.553 173.239 99.2359 171.94 99.2359 169.541C99.2359 167.142 100.553 165.843 102.23 165.843C103.457 165.843 104.557 166.529 104.828 167.809H105.946ZM111.974 171.327C111.974 172.626 110.982 173.221 110.188 173.221C109.304 173.221 108.673 172.571 108.673 171.561V167.232H107.609V171.633C107.609 173.401 108.547 174.249 109.845 174.249C110.892 174.249 111.577 173.69 111.902 172.986H111.974V174.159H113.038V167.232H111.974V171.327ZM116.051 164.923H114.987V174.159H116.051V164.923ZM118.001 174.159H119.065V167.232H118.001V174.159ZM118.542 166.078C118.957 166.078 119.299 165.753 119.299 165.356C119.299 164.96 118.957 164.635 118.542 164.635C118.127 164.635 117.784 164.96 117.784 165.356C117.784 165.753 118.127 166.078 118.542 166.078ZM122.078 169.992C122.078 168.784 122.827 168.098 123.846 168.098C124.833 168.098 125.433 168.743 125.433 169.83V174.159H126.497V169.758C126.497 167.99 125.555 167.142 124.153 167.142C123.106 167.142 122.457 167.611 122.132 168.315H122.042V167.232H121.014V174.159H122.078V169.992ZM130.48 174.321C131.689 174.321 132.32 173.672 132.537 173.221H132.591V174.159H133.655V169.595C133.655 167.395 131.977 167.142 131.094 167.142C130.047 167.142 128.857 167.503 128.316 168.765L129.326 169.126C129.56 168.621 130.115 168.08 131.13 168.08C132.108 168.08 132.591 168.599 132.591 169.487V169.523C132.591 170.037 132.068 169.992 130.805 170.154C129.52 170.321 128.117 170.605 128.117 172.193C128.117 173.545 129.164 174.321 130.48 174.321ZM130.643 173.365C129.795 173.365 129.182 172.986 129.182 172.247C129.182 171.435 129.921 171.183 130.751 171.074C131.202 171.02 132.41 170.894 132.591 170.677V171.651C132.591 172.517 131.905 173.365 130.643 173.365ZM135.597 174.159H136.662V169.776C136.662 168.838 137.401 168.152 138.411 168.152C138.695 168.152 138.988 168.206 139.061 168.224V167.142C138.939 167.133 138.659 167.124 138.501 167.124C137.672 167.124 136.95 167.593 136.698 168.278H136.625V167.232H135.597V174.159ZM141.218 176.756C142.179 176.756 142.855 176.247 143.256 175.169L146.206 167.25L145.042 167.232L143.13 172.752H143.058L141.146 167.232H139.992L142.553 174.195L142.355 174.736C141.967 175.791 141.489 175.89 140.713 175.692L140.443 176.63C140.551 176.684 140.858 176.756 141.218 176.756ZM151.329 174.159H152.448V171.164L153.602 169.866L156.813 174.159H158.166L154.288 169.09L158.166 164.923H156.705L152.556 169.505H152.448V164.923H151.329V174.159ZM160.533 169.992C160.533 168.784 161.282 168.098 162.301 168.098C163.288 168.098 163.888 168.743 163.888 169.83V174.159H164.952V169.758C164.952 167.99 164.01 167.142 162.607 167.142C161.561 167.142 160.912 167.611 160.587 168.315H160.497V167.232H159.469V174.159H160.533V169.992ZM169.711 174.303C171.587 174.303 172.849 172.878 172.849 170.732C172.849 168.567 171.587 167.142 169.711 167.142C167.835 167.142 166.572 168.567 166.572 170.732C166.572 172.878 167.835 174.303 169.711 174.303ZM169.711 173.347C168.286 173.347 167.636 172.12 167.636 170.732C167.636 169.343 168.286 168.098 169.711 168.098C171.136 168.098 171.785 169.343 171.785 170.732C171.785 172.12 171.136 173.347 169.711 173.347ZM175.807 174.159H176.854L178.369 168.838H178.477L179.992 174.159H181.038L183.149 167.232H182.03L180.533 172.517H180.461L179 167.232H177.864L176.385 172.535H176.313L174.815 167.232H173.697L175.807 174.159ZM185.62 164.923H184.556V174.159H185.62V164.923ZM190.473 174.303C191.88 174.303 192.908 173.6 193.233 172.553L192.205 172.265C191.934 172.986 191.307 173.347 190.473 173.347C189.224 173.347 188.363 172.54 188.313 171.056H193.341V170.605C193.341 168.026 191.808 167.142 190.365 167.142C188.489 167.142 187.244 168.621 187.244 170.75C187.244 172.878 188.471 174.303 190.473 174.303ZM188.313 170.136C188.385 169.059 189.147 168.098 190.365 168.098C191.519 168.098 192.259 168.964 192.259 170.136H188.313ZM197.575 174.303C198.91 174.303 199.361 173.473 199.596 173.094H199.722V174.159H200.75V164.923H199.686V168.333H199.596C199.361 167.972 198.946 167.142 197.593 167.142C195.844 167.142 194.635 168.531 194.635 170.714C194.635 172.914 195.844 174.303 197.575 174.303ZM197.72 173.347C196.385 173.347 195.699 172.175 195.699 170.695C195.699 169.234 196.367 168.098 197.72 168.098C199.018 168.098 199.704 169.144 199.704 170.695C199.704 172.265 199 173.347 197.72 173.347ZM205.643 176.9C207.302 176.9 208.637 176.143 208.637 174.357V167.232H207.609V168.333H207.5C207.266 167.972 206.833 167.142 205.48 167.142C203.731 167.142 202.522 168.531 202.522 170.659C202.522 172.824 203.785 174.05 205.462 174.05C206.815 174.05 207.248 173.257 207.482 172.878H207.573V174.285C207.573 175.439 206.761 175.962 205.643 175.962C204.385 175.962 203.943 175.3 203.659 174.916L202.811 175.512C203.244 176.238 204.096 176.9 205.643 176.9ZM205.607 173.094C204.272 173.094 203.586 172.084 203.586 170.641C203.586 169.234 204.254 168.098 205.607 168.098C206.905 168.098 207.591 169.144 207.591 170.641C207.591 172.175 206.887 173.094 205.607 173.094ZM213.489 174.303C214.896 174.303 215.924 173.6 216.249 172.553L215.221 172.265C214.95 172.986 214.323 173.347 213.489 173.347C212.24 173.347 211.379 172.54 211.329 171.056H216.357V170.605C216.357 168.026 214.824 167.142 213.381 167.142C211.505 167.142 210.26 168.621 210.26 170.75C210.26 172.878 211.487 174.303 213.489 174.303ZM211.329 170.136C211.401 169.059 212.163 168.098 213.381 168.098C214.535 168.098 215.275 168.964 215.275 170.136H211.329Z" fill="black"/>
<path d="M27.38 207.416C28.4758 207.416 29.3641 206.527 29.3641 205.431C29.3641 204.336 28.4758 203.447 27.38 203.447C26.2842 203.447 25.3959 204.336 25.3959 205.431C25.3959 206.527 26.2842 207.416 27.38 207.416Z" fill="black"/>
<path d="M43.9757 209.079H45.0941V204.949H50.0183V209.079H51.1366V199.844H50.0183V203.956H45.0941V199.844H43.9757V209.079ZM56.1353 209.223C57.5422 209.223 58.5704 208.52 58.895 207.474L57.8669 207.185C57.5963 207.907 56.9695 208.267 56.1353 208.267C54.8862 208.267 54.0249 207.46 53.9753 205.977H59.0033V205.526C59.0033 202.946 57.4701 202.063 56.0271 202.063C54.1512 202.063 52.9066 203.542 52.9066 205.67C52.9066 207.798 54.1331 209.223 56.1353 209.223ZM53.9753 205.057C54.0474 203.979 54.8095 203.018 56.0271 203.018C57.1815 203.018 57.921 203.884 57.921 205.057H53.9753ZM62.6604 209.241C63.8689 209.241 64.5002 208.592 64.7166 208.141H64.7708V209.079H65.835V204.516C65.835 202.315 64.1575 202.063 63.2736 202.063C62.2275 202.063 61.037 202.423 60.4959 203.686L61.506 204.047C61.7404 203.542 62.2951 203 63.3097 203C64.2882 203 64.7708 203.519 64.7708 204.407V204.443C64.7708 204.958 64.2477 204.912 62.985 205.075C61.6999 205.242 60.2974 205.526 60.2974 207.113C60.2974 208.466 61.3436 209.241 62.6604 209.241ZM62.8227 208.285C61.9749 208.285 61.3617 207.907 61.3617 207.167C61.3617 206.355 62.1012 206.103 62.9309 205.995C63.3819 205.941 64.5904 205.814 64.7708 205.598V206.572C64.7708 207.438 64.0853 208.285 62.8227 208.285ZM68.8416 199.844H67.7774V209.079H68.8416V199.844ZM73.803 202.153H72.324V200.493H71.2597V202.153H70.2136V203.055H71.2597V207.384C71.2597 208.592 72.2338 209.169 73.1356 209.169C73.5325 209.169 73.785 209.097 73.9293 209.043L73.7128 208.087C73.6227 208.105 73.4784 208.141 73.2439 208.141C72.7749 208.141 72.324 207.997 72.324 207.095V203.055H73.803V202.153ZM76.6169 204.912C76.6169 203.704 77.388 203.018 78.4387 203.018C79.4398 203.018 80.044 203.65 80.044 204.75V209.079H81.1082V204.678C81.1082 202.897 80.1613 202.063 78.7453 202.063C77.654 202.063 77.0318 202.518 76.7071 203.235H76.6169V199.844H75.5527V209.079H76.6169V204.912ZM88.6648 209.241C89.8733 209.241 90.5046 208.592 90.7211 208.141H90.7752V209.079H91.8394V204.516C91.8394 202.315 90.1619 202.063 89.2781 202.063C88.2319 202.063 87.0414 202.423 86.5003 203.686L87.5104 204.047C87.7449 203.542 88.2996 203 89.3142 203C90.2927 203 90.7752 203.519 90.7752 204.407V204.443C90.7752 204.958 90.2521 204.912 88.9895 205.075C87.7043 205.242 86.3019 205.526 86.3019 207.113C86.3019 208.466 87.3481 209.241 88.6648 209.241ZM88.8272 208.285C87.9794 208.285 87.3661 207.907 87.3661 207.167C87.3661 206.355 88.1057 206.103 88.9354 205.995C89.3863 205.941 90.5948 205.814 90.7752 205.598V206.572C90.7752 207.438 90.0898 208.285 88.8272 208.285ZM94.8461 204.912C94.8461 203.704 95.5946 203.018 96.6137 203.018C97.6013 203.018 98.201 203.663 98.201 204.75V209.079H99.2652V204.678C99.2652 202.91 98.3228 202.063 96.9204 202.063C95.8742 202.063 95.2248 202.531 94.9002 203.235H94.81V202.153H93.7818V209.079H94.8461V204.912ZM103.825 209.223C105.16 209.223 105.611 208.394 105.846 208.015H105.972V209.079H107V199.844H105.936V203.253H105.846C105.611 202.892 105.196 202.063 103.843 202.063C102.094 202.063 100.885 203.451 100.885 205.634C100.885 207.835 102.094 209.223 103.825 209.223ZM103.97 208.267C102.635 208.267 101.949 207.095 101.949 205.616C101.949 204.155 102.617 203.018 103.97 203.018C105.268 203.018 105.954 204.065 105.954 205.616C105.954 207.185 105.25 208.267 103.97 208.267ZM120.136 199.844H119.035V207.113H118.945L113.895 199.844H112.813V209.079H113.931V201.828H114.021L119.054 209.079H120.136V199.844ZM126.594 206.247C126.594 207.546 125.602 208.141 124.809 208.141C123.925 208.141 123.293 207.492 123.293 206.482V202.153H122.229V206.554C122.229 208.322 123.167 209.169 124.466 209.169C125.512 209.169 126.198 208.61 126.522 207.907H126.594V209.079H127.659V202.153H126.594V206.247ZM132.62 202.153H131.141V200.493H130.077V202.153H129.031V203.055H130.077V207.384C130.077 208.592 131.051 209.169 131.953 209.169C132.349 209.169 132.602 209.097 132.746 209.043L132.53 208.087C132.44 208.105 132.295 208.141 132.061 208.141C131.592 208.141 131.141 207.997 131.141 207.095V203.055H132.62V202.153ZM134.221 209.079H135.285V204.696C135.285 203.758 136.025 203.073 137.035 203.073C137.319 203.073 137.612 203.127 137.684 203.145V202.063C137.562 202.053 137.283 202.044 137.125 202.044C136.295 202.044 135.574 202.513 135.321 203.199H135.249V202.153H134.221V209.079ZM138.946 209.079H140.01V202.153H138.946V209.079ZM139.487 200.998C139.902 200.998 140.244 200.674 140.244 200.277C140.244 199.88 139.902 199.555 139.487 199.555C139.072 199.555 138.729 199.88 138.729 200.277C138.729 200.674 139.072 200.998 139.487 200.998ZM144.971 202.153H143.492V200.493H142.428V202.153H141.382V203.055H142.428V207.384C142.428 208.592 143.402 209.169 144.304 209.169C144.701 209.169 144.953 209.097 145.097 209.043L144.881 208.087C144.791 208.105 144.647 208.141 144.412 208.141C143.943 208.141 143.492 207.997 143.492 207.095V203.055H144.971V202.153ZM146.572 209.079H147.636V202.153H146.572V209.079ZM147.113 200.998C147.528 200.998 147.871 200.674 147.871 200.277C147.871 199.88 147.528 199.555 147.113 199.555C146.698 199.555 146.356 199.88 146.356 200.277C146.356 200.674 146.698 200.998 147.113 200.998ZM152.399 209.223C154.275 209.223 155.538 207.798 155.538 205.652C155.538 203.487 154.275 202.063 152.399 202.063C150.523 202.063 149.261 203.487 149.261 205.652C149.261 207.798 150.523 209.223 152.399 209.223ZM152.399 208.267C150.974 208.267 150.325 207.041 150.325 205.652C150.325 204.263 150.974 203.018 152.399 203.018C153.824 203.018 154.474 204.263 154.474 205.652C154.474 207.041 153.824 208.267 152.399 208.267ZM158.227 204.912C158.227 203.704 158.975 203.018 159.994 203.018C160.982 203.018 161.581 203.663 161.581 204.75V209.079H162.646V204.678C162.646 202.91 161.703 202.063 160.301 202.063C159.255 202.063 158.605 202.531 158.281 203.235H158.19V202.153H157.162V209.079H158.227V204.912ZM166.629 209.241C167.837 209.241 168.468 208.592 168.685 208.141H168.739V209.079H169.803V204.516C169.803 202.315 168.126 202.063 167.242 202.063C166.196 202.063 165.005 202.423 164.464 203.686L165.474 204.047C165.709 203.542 166.263 203 167.278 203C168.256 203 168.739 203.519 168.739 204.407V204.443C168.739 204.958 168.216 204.912 166.953 205.075C165.668 205.242 164.266 205.526 164.266 207.113C164.266 208.466 165.312 209.241 166.629 209.241ZM166.791 208.285C165.943 208.285 165.33 207.907 165.33 207.167C165.33 206.355 166.069 206.103 166.899 205.995C167.35 205.941 168.559 205.814 168.739 205.598V206.572C168.739 207.438 168.054 208.285 166.791 208.285ZM172.81 199.844H171.746V209.079H172.81V199.844ZM178.475 209.079H179.593V204.949H183.597V203.956H179.593V200.836H184.012V199.844H178.475V209.079ZM187.822 209.241C189.03 209.241 189.661 208.592 189.878 208.141H189.932V209.079H190.996V204.516C190.996 202.315 189.319 202.063 188.435 202.063C187.389 202.063 186.198 202.423 185.657 203.686L186.667 204.047C186.902 203.542 187.456 203 188.471 203C189.449 203 189.932 203.519 189.932 204.407V204.443C189.932 204.958 189.409 204.912 188.146 205.075C186.861 205.242 185.459 205.526 185.459 207.113C185.459 208.466 186.505 209.241 187.822 209.241ZM187.984 208.285C187.136 208.285 186.523 207.907 186.523 207.167C186.523 206.355 187.262 206.103 188.092 205.995C188.543 205.941 189.752 205.814 189.932 205.598V206.572C189.932 207.438 189.247 208.285 187.984 208.285ZM195.752 209.223C197.286 209.223 198.296 208.285 198.476 207.059H197.412C197.213 207.816 196.582 208.267 195.752 208.267C194.49 208.267 193.678 207.221 193.678 205.616C193.678 204.047 194.508 203.018 195.752 203.018C196.69 203.018 197.25 203.596 197.412 204.227H198.476C198.296 202.928 197.195 202.063 195.734 202.063C193.858 202.063 192.614 203.542 192.614 205.652C192.614 207.726 193.804 209.223 195.752 209.223ZM203.044 202.153H201.565V200.493H200.501V202.153H199.455V203.055H200.501V207.384C200.501 208.592 201.475 209.169 202.377 209.169C202.774 209.169 203.026 209.097 203.17 209.043L202.954 208.087C202.864 208.105 202.719 208.141 202.485 208.141C202.016 208.141 201.565 207.997 201.565 207.095V203.055H203.044V202.153ZM209.427 203.704C209.093 202.721 208.345 202.063 206.974 202.063C205.513 202.063 204.431 202.892 204.431 204.065C204.431 205.021 204.999 205.661 206.271 205.959L207.425 206.229C208.124 206.392 208.453 206.725 208.453 207.203C208.453 207.798 207.822 208.285 206.83 208.285C205.959 208.285 205.414 207.911 205.224 207.167L204.214 207.42C204.462 208.597 205.432 209.223 206.848 209.223C208.458 209.223 209.553 208.344 209.553 207.149C209.553 206.184 208.949 205.575 207.714 205.273L206.685 205.021C205.865 204.818 205.495 204.543 205.495 204.011C205.495 203.415 206.126 202.982 206.974 202.982C207.903 202.982 208.286 203.496 208.471 203.974L209.427 203.704Z" fill="black"/>
<path d="M27.38 242.336C28.4758 242.336 29.3641 241.448 29.3641 240.352C29.3641 239.256 28.4758 238.368 27.38 238.368C26.2842 238.368 25.3959 239.256 25.3959 240.352C25.3959 241.448 26.2842 242.336 27.38 242.336Z" fill="black"/>
<path d="M43.9757 244H45.0941V240.392H47.1143C47.1954 240.392 47.2721 240.392 47.3488 240.388L49.2968 244H50.5955L48.5077 240.185C49.6846 239.783 50.2348 238.823 50.2348 237.596C50.2348 235.964 49.2607 234.765 47.0962 234.765H43.9757V244ZM45.0941 239.382V235.757H47.0602C48.5573 235.757 49.1345 236.487 49.1345 237.596C49.1345 238.706 48.5573 239.382 47.0782 239.382H45.0941ZM54.7836 244.144C56.1905 244.144 57.2187 243.441 57.5433 242.394L56.5152 242.106C56.2446 242.827 55.6178 243.188 54.7836 243.188C53.5345 243.188 52.6732 242.381 52.6236 240.897H57.6516V240.446C57.6516 237.867 56.1184 236.983 54.6754 236.983C52.7995 236.983 51.5549 238.462 51.5549 240.591C51.5549 242.719 52.7814 244.144 54.7836 244.144ZM52.6236 239.977C52.6958 238.9 53.4578 237.939 54.6754 237.939C55.8298 237.939 56.5693 238.805 56.5693 239.977H52.6236ZM62.0843 244.144C63.6175 244.144 64.6276 243.206 64.808 241.98H63.7437C63.5453 242.737 62.914 243.188 62.0843 243.188C60.8217 243.188 60.01 242.142 60.01 240.537C60.01 238.967 60.8397 237.939 62.0843 237.939C63.0222 237.939 63.5814 238.516 63.7437 239.148H64.808C64.6276 237.849 63.5273 236.983 62.0663 236.983C60.1903 236.983 58.9458 238.462 58.9458 240.573C58.9458 242.647 60.1362 244.144 62.0843 244.144ZM66.3637 244H67.4279V237.073H66.3637V244ZM66.9048 235.919C67.3197 235.919 67.6624 235.594 67.6624 235.197C67.6624 234.801 67.3197 234.476 66.9048 234.476C66.49 234.476 66.1472 234.801 66.1472 235.197C66.1472 235.594 66.49 235.919 66.9048 235.919ZM69.3771 246.597H70.4413V242.936H70.5315C70.766 243.314 71.2169 244.144 72.5517 244.144C74.2833 244.144 75.4918 242.755 75.4918 240.555C75.4918 238.372 74.2833 236.983 72.5336 236.983C71.1808 236.983 70.766 237.813 70.5315 238.174H70.4052V237.073H69.3771V246.597ZM70.4233 240.537C70.4233 238.985 71.1087 237.939 72.4074 237.939C73.7602 237.939 74.4276 239.076 74.4276 240.537C74.4276 242.016 73.7422 243.188 72.4074 243.188C71.1267 243.188 70.4233 242.106 70.4233 240.537ZM80.0192 244.144C81.4261 244.144 82.4543 243.441 82.779 242.394L81.7508 242.106C81.4803 242.827 80.8535 243.188 80.0192 243.188C78.7701 243.188 77.9088 242.381 77.8592 240.897H82.8872V240.446C82.8872 237.867 81.354 236.983 79.911 236.983C78.0351 236.983 76.7905 238.462 76.7905 240.591C76.7905 242.719 78.0171 244.144 80.0192 244.144ZM77.8592 239.977C77.9314 238.9 78.6935 237.939 79.911 237.939C81.0654 237.939 81.8049 238.805 81.8049 239.977H77.8592ZM89.4123 238.625C89.0786 237.642 88.33 236.983 86.9592 236.983C85.4981 236.983 84.4159 237.813 84.4159 238.985C84.4159 239.941 84.984 240.582 86.2557 240.879L87.4101 241.15C88.109 241.312 88.4382 241.646 88.4382 242.124C88.4382 242.719 87.8069 243.206 86.8149 243.206C85.9445 243.206 85.3989 242.832 85.2095 242.088L84.1994 242.34C84.4474 243.517 85.4169 244.144 86.8329 244.144C88.4427 244.144 89.5385 243.265 89.5385 242.07C89.5385 241.105 88.9343 240.496 87.6987 240.194L86.6706 239.941C85.8498 239.738 85.4801 239.463 85.4801 238.931C85.4801 238.336 86.1114 237.903 86.9592 237.903C87.8881 237.903 88.2714 238.417 88.4563 238.895L89.4123 238.625ZM96.2812 244H97.3273L98.8425 238.679H98.9507L100.466 244H101.512L103.622 237.073H102.504L101.007 242.358H100.935L99.4738 237.073H98.3374L96.8584 242.376H96.7862L95.2891 237.073H94.1708L96.2812 244ZM105.029 244H106.094V237.073H105.029V244ZM105.57 235.919C105.985 235.919 106.328 235.594 106.328 235.197C106.328 234.801 105.985 234.476 105.57 234.476C105.156 234.476 104.813 234.801 104.813 235.197C104.813 235.594 105.156 235.919 105.57 235.919ZM111.055 237.073H109.576V235.414H108.512V237.073H107.466V237.975H108.512V242.304C108.512 243.513 109.486 244.09 110.388 244.09C110.784 244.09 111.037 244.018 111.181 243.964L110.965 243.008C110.875 243.026 110.73 243.062 110.496 243.062C110.027 243.062 109.576 242.918 109.576 242.016V237.975H111.055V237.073ZM113.869 239.833C113.869 238.625 114.64 237.939 115.691 237.939C116.692 237.939 117.296 238.57 117.296 239.671V244H118.36V239.599C118.36 237.817 117.413 236.983 115.997 236.983C114.906 236.983 114.284 237.439 113.959 238.156H113.869V234.765H112.805V244H113.869V239.833ZM124.023 244H125.141V239.869H129.146V238.877H125.141V235.757H129.56V234.765H124.023V244ZM133.37 244.162C134.578 244.162 135.21 243.513 135.426 243.062H135.48V244H136.544V239.436C136.544 237.236 134.867 236.983 133.983 236.983C132.937 236.983 131.746 237.344 131.205 238.607L132.215 238.967C132.45 238.462 133.004 237.921 134.019 237.921C134.998 237.921 135.48 238.44 135.48 239.328V239.364C135.48 239.878 134.957 239.833 133.694 239.995C132.409 240.162 131.007 240.446 131.007 242.034C131.007 243.386 132.053 244.162 133.37 244.162ZM133.532 243.206C132.684 243.206 132.071 242.827 132.071 242.088C132.071 241.276 132.811 241.024 133.64 240.915C134.091 240.861 135.3 240.735 135.48 240.519V241.493C135.48 242.358 134.795 243.206 133.532 243.206ZM143.393 238.625C143.059 237.642 142.311 236.983 140.94 236.983C139.479 236.983 138.397 237.813 138.397 238.985C138.397 239.941 138.965 240.582 140.236 240.879L141.391 241.15C142.09 241.312 142.419 241.646 142.419 242.124C142.419 242.719 141.788 243.206 140.796 243.206C139.925 243.206 139.38 242.832 139.19 242.088L138.18 242.34C138.428 243.517 139.398 244.144 140.814 244.144C142.423 244.144 143.519 243.265 143.519 242.07C143.519 241.105 142.915 240.496 141.679 240.194L140.651 239.941C139.83 239.738 139.461 239.463 139.461 238.931C139.461 238.336 140.092 237.903 140.94 237.903C141.869 237.903 142.252 238.417 142.437 238.895L143.393 238.625ZM148.133 237.073H146.654V235.414H145.59V237.073H144.544V237.975H145.59V242.304C145.59 243.513 146.564 244.09 147.466 244.09C147.863 244.09 148.115 244.018 148.26 243.964L148.043 243.008C147.953 243.026 147.809 243.062 147.574 243.062C147.105 243.062 146.654 242.918 146.654 242.016V237.975H148.133V237.073ZM152.564 244.144C153.971 244.144 154.999 243.441 155.324 242.394L154.295 242.106C154.025 242.827 153.398 243.188 152.564 243.188C151.315 243.188 150.453 242.381 150.404 240.897H155.432V240.446C155.432 237.867 153.899 236.983 152.456 236.983C150.58 236.983 149.335 238.462 149.335 240.591C149.335 242.719 150.562 244.144 152.564 244.144ZM150.404 239.977C150.476 238.9 151.238 237.939 152.456 237.939C153.61 237.939 154.35 238.805 154.35 239.977H150.404ZM157.051 244H158.115V239.617C158.115 238.679 158.854 237.993 159.865 237.993C160.149 237.993 160.442 238.047 160.514 238.065V236.983C160.392 236.974 160.113 236.965 159.955 236.965C159.125 236.965 158.403 237.434 158.151 238.12H158.079V237.073H157.051V244ZM165.491 244H166.609V240.627H168.63C170.781 240.627 171.75 239.319 171.75 237.687C171.75 236.054 170.781 234.765 168.612 234.765H165.491V244ZM166.609 239.635V235.757H168.576C170.077 235.757 170.65 236.577 170.65 237.687C170.65 238.796 170.077 239.635 168.594 239.635H166.609ZM173.407 244H174.472V239.617C174.472 238.679 175.211 237.993 176.221 237.993C176.505 237.993 176.798 238.047 176.871 238.065V236.983C176.749 236.974 176.469 236.965 176.311 236.965C175.482 236.965 174.76 237.434 174.508 238.12H174.435V237.073H173.407V244ZM180.825 244.144C182.232 244.144 183.26 243.441 183.585 242.394L182.557 242.106C182.286 242.827 181.659 243.188 180.825 243.188C179.576 243.188 178.715 242.381 178.665 240.897H183.693V240.446C183.693 237.867 182.16 236.983 180.717 236.983C178.841 236.983 177.597 238.462 177.597 240.591C177.597 242.719 178.823 244.144 180.825 244.144ZM178.665 239.977C178.737 238.9 179.499 237.939 180.717 237.939C181.871 237.939 182.611 238.805 182.611 239.977H178.665ZM185.312 246.597H186.376V242.936H186.467C186.701 243.314 187.152 244.144 188.487 244.144C190.218 244.144 191.427 242.755 191.427 240.555C191.427 238.372 190.218 236.983 188.469 236.983C187.116 236.983 186.701 237.813 186.467 238.174H186.34V237.073H185.312V246.597ZM186.358 240.537C186.358 238.985 187.044 237.939 188.342 237.939C189.695 237.939 190.363 239.076 190.363 240.537C190.363 242.016 189.677 243.188 188.342 243.188C187.062 243.188 186.358 242.106 186.358 240.537ZM195.088 244.162C196.297 244.162 196.928 243.513 197.145 243.062H197.199V244H198.263V239.436C198.263 237.236 196.586 236.983 195.702 236.983C194.656 236.983 193.465 237.344 192.924 238.607L193.934 238.967C194.169 238.462 194.723 237.921 195.738 237.921C196.716 237.921 197.199 238.44 197.199 239.328V239.364C197.199 239.878 196.676 239.833 195.413 239.995C194.128 240.162 192.726 240.446 192.726 242.034C192.726 243.386 193.772 244.162 195.088 244.162ZM195.251 243.206C194.403 243.206 193.79 242.827 193.79 242.088C193.79 241.276 194.529 241.024 195.359 240.915C195.81 240.861 197.018 240.735 197.199 240.519V241.493C197.199 242.358 196.513 243.206 195.251 243.206ZM200.205 244H201.27V239.617C201.27 238.679 202.009 237.993 203.019 237.993C203.303 237.993 203.596 238.047 203.669 238.065V236.983C203.547 236.974 203.267 236.965 203.109 236.965C202.28 236.965 201.558 237.434 201.306 238.12H201.234V237.073H200.205V244ZM206.968 244.162C208.177 244.162 208.808 243.513 209.025 243.062H209.079V244H210.143V239.436C210.143 237.236 208.465 236.983 207.582 236.983C206.535 236.983 205.345 237.344 204.804 238.607L205.814 238.967C206.048 238.462 206.603 237.921 207.618 237.921C208.596 237.921 209.079 238.44 209.079 239.328V239.364C209.079 239.878 208.556 239.833 207.293 239.995C206.008 240.162 204.605 240.446 204.605 242.034C204.605 243.386 205.652 244.162 206.968 244.162ZM207.131 243.206C206.283 243.206 205.67 242.827 205.67 242.088C205.67 241.276 206.409 241.024 207.239 240.915C207.69 240.861 208.898 240.735 209.079 240.519V241.493C209.079 242.358 208.393 243.206 207.131 243.206ZM215.098 237.073H213.619V235.414H212.554V237.073H211.508V237.975H212.554V242.304C212.554 243.513 213.528 244.09 214.43 244.09C214.827 244.09 215.08 244.018 215.224 243.964L215.007 243.008C214.917 243.026 214.773 243.062 214.539 243.062C214.07 243.062 213.619 242.918 213.619 242.016V237.975H215.098V237.073ZM216.698 244H217.763V237.073H216.698V244ZM217.24 235.919C217.654 235.919 217.997 235.594 217.997 235.197C217.997 234.801 217.654 234.476 217.24 234.476C216.825 234.476 216.482 234.801 216.482 235.197C216.482 235.594 216.825 235.919 217.24 235.919ZM222.526 244.144C224.402 244.144 225.664 242.719 225.664 240.573C225.664 238.408 224.402 236.983 222.526 236.983C220.65 236.983 219.387 238.408 219.387 240.573C219.387 242.719 220.65 244.144 222.526 244.144ZM222.526 243.188C221.101 243.188 220.451 241.962 220.451 240.573C220.451 239.184 221.101 237.939 222.526 237.939C223.951 237.939 224.6 239.184 224.6 240.573C224.6 241.962 223.951 243.188 222.526 243.188ZM228.353 239.833C228.353 238.625 229.102 237.939 230.121 237.939C231.108 237.939 231.708 238.584 231.708 239.671V244H232.772V239.599C232.772 237.831 231.83 236.983 230.427 236.983C229.381 236.983 228.732 237.452 228.407 238.156H228.317V237.073H227.289V244H228.353V239.833ZM241.301 237.073H239.821V235.414H238.757V237.073H237.711V237.975H238.757V242.304C238.757 243.513 239.731 244.09 240.633 244.09C241.03 244.09 241.283 244.018 241.427 243.964L241.21 243.008C241.12 243.026 240.976 243.062 240.741 243.062C240.272 243.062 239.821 242.918 239.821 242.016V237.975H241.301V237.073ZM242.901 244H243.966V237.073H242.901V244ZM243.443 235.919C243.857 235.919 244.2 235.594 244.2 235.197C244.2 234.801 243.857 234.476 243.443 234.476C243.028 234.476 242.685 234.801 242.685 235.197C242.685 235.594 243.028 235.919 243.443 235.919ZM245.915 244H246.979V239.671C246.979 238.656 247.719 237.939 248.548 237.939C249.355 237.939 249.919 238.467 249.919 239.256V244H251.001V239.49C251.001 238.598 251.561 237.939 252.535 237.939C253.292 237.939 253.941 238.34 253.941 239.364V244H255.006V239.364C255.006 237.736 254.131 236.983 252.895 236.983C251.903 236.983 251.177 237.439 250.821 238.156H250.749C250.406 237.416 249.802 236.983 248.891 236.983C247.989 236.983 247.322 237.416 247.033 238.156H246.943V237.073H245.915V244ZM259.856 244.144C261.262 244.144 262.291 243.441 262.615 242.394L261.587 242.106C261.317 242.827 260.69 243.188 259.856 243.188C258.606 243.188 257.745 242.381 257.696 240.897H262.723V240.446C262.723 237.867 261.19 236.983 259.747 236.983C257.871 236.983 256.627 238.462 256.627 240.591C256.627 242.719 257.853 244.144 259.856 244.144ZM257.696 239.977C257.768 238.9 258.53 237.939 259.747 237.939C260.902 237.939 261.641 238.805 261.641 239.977H257.696ZM269.249 238.625C268.915 237.642 268.166 236.983 266.795 236.983C265.334 236.983 264.252 237.813 264.252 238.985C264.252 239.941 264.82 240.582 266.092 240.879L267.246 241.15C267.945 241.312 268.275 241.646 268.275 242.124C268.275 242.719 267.643 243.206 266.651 243.206C265.781 243.206 265.235 242.832 265.046 242.088L264.036 242.34C264.284 243.517 265.253 244.144 266.669 244.144C268.279 244.144 269.375 243.265 269.375 242.07C269.375 241.105 268.771 240.496 267.535 240.194L266.507 239.941C265.686 239.738 265.316 239.463 265.316 238.931C265.316 238.336 265.948 237.903 266.795 237.903C267.724 237.903 268.108 238.417 268.293 238.895L269.249 238.625Z" fill="black"/>
<path d="M27.38 275.669C28.4758 275.669 29.3641 274.781 29.3641 273.685C29.3641 272.59 28.4758 271.701 27.38 271.701C26.2842 271.701 25.3959 272.59 25.3959 273.685C25.3959 274.781 26.2842 275.669 27.38 275.669Z" fill="black"/>
<path d="M43.9757 277.333H45.0941V273.726H47.1143C47.1954 273.726 47.2721 273.726 47.3488 273.721L49.2968 277.333H50.5955L48.5077 273.518C49.6846 273.117 50.2348 272.156 50.2348 270.93C50.2348 269.298 49.2607 268.098 47.0962 268.098H43.9757V277.333ZM45.0941 272.716V269.09H47.0602C48.5573 269.09 49.1345 269.821 49.1345 270.93C49.1345 272.039 48.5573 272.716 47.0782 272.716H45.0941ZM54.7836 277.478C56.1905 277.478 57.2187 276.774 57.5433 275.728L56.5152 275.439C56.2446 276.161 55.6178 276.522 54.7836 276.522C53.5345 276.522 52.6732 275.714 52.6236 274.231H57.6516V273.78C57.6516 271.2 56.1184 270.317 54.6754 270.317C52.7995 270.317 51.5549 271.796 51.5549 273.924C51.5549 276.053 52.7814 277.478 54.7836 277.478ZM52.6236 273.311C52.6958 272.233 53.4578 271.273 54.6754 271.273C55.8298 271.273 56.5693 272.138 56.5693 273.311H52.6236ZM62.0843 277.478C63.6175 277.478 64.6276 276.54 64.808 275.313H63.7437C63.5453 276.071 62.914 276.522 62.0843 276.522C60.8217 276.522 60.01 275.475 60.01 273.87C60.01 272.301 60.8397 271.273 62.0843 271.273C63.0222 271.273 63.5814 271.85 63.7437 272.481H64.808C64.6276 271.182 63.5273 270.317 62.0663 270.317C60.1903 270.317 58.9458 271.796 58.9458 273.906C58.9458 275.98 60.1362 277.478 62.0843 277.478ZM66.3637 277.333H67.4279V270.407H66.3637V277.333ZM66.9048 269.252C67.3197 269.252 67.6624 268.928 67.6624 268.531C67.6624 268.134 67.3197 267.809 66.9048 267.809C66.49 267.809 66.1472 268.134 66.1472 268.531C66.1472 268.928 66.49 269.252 66.9048 269.252ZM69.3771 279.931H70.4413V276.269H70.5315C70.766 276.648 71.2169 277.478 72.5517 277.478C74.2833 277.478 75.4918 276.089 75.4918 273.888C75.4918 271.706 74.2833 270.317 72.5336 270.317C71.1808 270.317 70.766 271.146 70.5315 271.507H70.4052V270.407H69.3771V279.931ZM70.4233 273.87C70.4233 272.319 71.1087 271.273 72.4074 271.273C73.7602 271.273 74.4276 272.409 74.4276 273.87C74.4276 275.349 73.7422 276.522 72.4074 276.522C71.1267 276.522 70.4233 275.439 70.4233 273.87ZM80.0192 277.478C81.4261 277.478 82.4543 276.774 82.779 275.728L81.7508 275.439C81.4803 276.161 80.8535 276.522 80.0192 276.522C78.7701 276.522 77.9088 275.714 77.8592 274.231H82.8872V273.78C82.8872 271.2 81.354 270.317 79.911 270.317C78.0351 270.317 76.7905 271.796 76.7905 273.924C76.7905 276.053 78.0171 277.478 80.0192 277.478ZM77.8592 273.311C77.9314 272.233 78.6935 271.273 79.911 271.273C81.0654 271.273 81.8049 272.138 81.8049 273.311H77.8592ZM89.4123 271.958C89.0786 270.975 88.33 270.317 86.9592 270.317C85.4981 270.317 84.4159 271.146 84.4159 272.319C84.4159 273.275 84.984 273.915 86.2557 274.213L87.4101 274.483C88.109 274.646 88.4382 274.979 88.4382 275.457C88.4382 276.053 87.8069 276.54 86.8149 276.54C85.9445 276.54 85.3989 276.165 85.2095 275.421L84.1994 275.674C84.4474 276.851 85.4169 277.478 86.8329 277.478C88.4427 277.478 89.5385 276.598 89.5385 275.403C89.5385 274.438 88.9343 273.829 87.6987 273.527L86.6706 273.275C85.8498 273.072 85.4801 272.797 85.4801 272.265C85.4801 271.669 86.1114 271.237 86.9592 271.237C87.8881 271.237 88.2714 271.751 88.4563 272.229L89.4123 271.958ZM96.2812 277.333H97.3273L98.8425 272.012H98.9507L100.466 277.333H101.512L103.622 270.407H102.504L101.007 275.692H100.935L99.4738 270.407H98.3374L96.8584 275.71H96.7862L95.2891 270.407H94.1708L96.2812 277.333ZM105.029 277.333H106.094V270.407H105.029V277.333ZM105.57 269.252C105.985 269.252 106.328 268.928 106.328 268.531C106.328 268.134 105.985 267.809 105.57 267.809C105.156 267.809 104.813 268.134 104.813 268.531C104.813 268.928 105.156 269.252 105.57 269.252ZM111.055 270.407H109.576V268.747H108.512V270.407H107.466V271.309H108.512V275.638C108.512 276.846 109.486 277.423 110.388 277.423C110.784 277.423 111.037 277.351 111.181 277.297L110.965 276.341C110.875 276.359 110.73 276.395 110.496 276.395C110.027 276.395 109.576 276.251 109.576 275.349V271.309H111.055V270.407ZM113.869 273.167C113.869 271.958 114.64 271.273 115.691 271.273C116.692 271.273 117.296 271.904 117.296 273.004V277.333H118.36V272.932C118.36 271.151 117.413 270.317 115.997 270.317C114.906 270.317 114.284 270.772 113.959 271.489H113.869V268.098H112.805V277.333H113.869V273.167ZM124.023 277.333H129.434V276.341H125.141V268.098H124.023V277.333ZM133.925 277.478C135.332 277.478 136.361 276.774 136.685 275.728L135.657 275.439C135.386 276.161 134.76 276.522 133.925 276.522C132.676 276.522 131.815 275.714 131.765 274.231H136.793V273.78C136.793 271.2 135.26 270.317 133.817 270.317C131.941 270.317 130.697 271.796 130.697 273.924C130.697 276.053 131.923 277.478 133.925 277.478ZM131.765 273.311C131.838 272.233 132.6 271.273 133.817 271.273C134.972 271.273 135.711 272.138 135.711 273.311H131.765ZM143.319 271.958C142.985 270.975 142.236 270.317 140.865 270.317C139.404 270.317 138.322 271.146 138.322 272.319C138.322 273.275 138.89 273.915 140.162 274.213L141.316 274.483C142.015 274.646 142.344 274.979 142.344 275.457C142.344 276.053 141.713 276.54 140.721 276.54C139.851 276.54 139.305 276.165 139.116 275.421L138.106 275.674C138.354 276.851 139.323 277.478 140.739 277.478C142.349 277.478 143.445 276.598 143.445 275.403C143.445 274.438 142.841 273.829 141.605 273.527L140.577 273.275C139.756 273.072 139.386 272.797 139.386 272.265C139.386 271.669 140.018 271.237 140.865 271.237C141.794 271.237 142.178 271.751 142.363 272.229L143.319 271.958ZM149.953 271.958C149.619 270.975 148.871 270.317 147.5 270.317C146.039 270.317 144.957 271.146 144.957 272.319C144.957 273.275 145.525 273.915 146.796 274.213L147.951 274.483C148.65 274.646 148.979 274.979 148.979 275.457C148.979 276.053 148.348 276.54 147.356 276.54C146.485 276.54 145.94 276.165 145.75 275.421L144.74 275.674C144.988 276.851 145.958 277.478 147.374 277.478C148.983 277.478 150.079 276.598 150.079 275.403C150.079 274.438 149.475 273.829 148.239 273.527L147.211 273.275C146.391 273.072 146.021 272.797 146.021 272.265C146.021 271.669 146.652 271.237 147.5 271.237C148.429 271.237 148.812 271.751 148.997 272.229L149.953 271.958ZM156.515 268.098H155.397V277.333H156.515V268.098ZM159.677 273.167C159.677 271.958 160.426 271.273 161.445 271.273C162.433 271.273 163.032 271.917 163.032 273.004V277.333H164.097V272.932C164.097 271.164 163.154 270.317 161.752 270.317C160.706 270.317 160.056 270.786 159.732 271.489H159.641V270.407H158.613V277.333H159.677V273.167ZM168.837 280.075C170.497 280.075 171.831 279.317 171.831 277.532V270.407H170.803V271.507H170.695C170.46 271.146 170.028 270.317 168.675 270.317C166.925 270.317 165.717 271.706 165.717 273.834C165.717 275.998 166.979 277.225 168.657 277.225C170.01 277.225 170.442 276.431 170.677 276.053H170.767V277.46C170.767 278.614 169.955 279.137 168.837 279.137C167.579 279.137 167.137 278.474 166.853 278.091L166.005 278.686C166.438 279.412 167.29 280.075 168.837 280.075ZM168.801 276.269C167.466 276.269 166.781 275.259 166.781 273.816C166.781 272.409 167.448 271.273 168.801 271.273C170.1 271.273 170.785 272.319 170.785 273.816C170.785 275.349 170.082 276.269 168.801 276.269ZM173.779 277.333H174.844V272.95C174.844 272.012 175.583 271.327 176.593 271.327C176.877 271.327 177.17 271.381 177.243 271.399V270.317C177.121 270.308 176.841 270.299 176.683 270.299C175.854 270.299 175.132 270.768 174.88 271.453H174.807V270.407H173.779V277.333ZM181.197 277.478C182.604 277.478 183.632 276.774 183.957 275.728L182.929 275.439C182.658 276.161 182.032 276.522 181.197 276.522C179.948 276.522 179.087 275.714 179.037 274.231H184.065V273.78C184.065 271.2 182.532 270.317 181.089 270.317C179.213 270.317 177.969 271.796 177.969 273.924C177.969 276.053 179.195 277.478 181.197 277.478ZM179.037 273.311C179.109 272.233 179.872 271.273 181.089 271.273C182.243 271.273 182.983 272.138 182.983 273.311H179.037ZM188.3 277.478C189.634 277.478 190.085 276.648 190.32 276.269H190.446V277.333H191.474V268.098H190.41V271.507H190.32C190.085 271.146 189.67 270.317 188.318 270.317C186.568 270.317 185.359 271.706 185.359 273.888C185.359 276.089 186.568 277.478 188.3 277.478ZM188.444 276.522C187.109 276.522 186.424 275.349 186.424 273.87C186.424 272.409 187.091 271.273 188.444 271.273C189.743 271.273 190.428 272.319 190.428 273.87C190.428 275.439 189.725 276.522 188.444 276.522ZM193.571 277.333H194.635V270.407H193.571V277.333ZM194.112 269.252C194.527 269.252 194.87 268.928 194.87 268.531C194.87 268.134 194.527 267.809 194.112 267.809C193.697 267.809 193.355 268.134 193.355 268.531C193.355 268.928 193.697 269.252 194.112 269.252ZM199.488 277.478C200.895 277.478 201.924 276.774 202.248 275.728L201.22 275.439C200.949 276.161 200.323 276.522 199.488 276.522C198.239 276.522 197.378 275.714 197.328 274.231H202.356V273.78C202.356 271.2 200.823 270.317 199.38 270.317C197.504 270.317 196.26 271.796 196.26 273.924C196.26 276.053 197.486 277.478 199.488 277.478ZM197.328 273.311C197.401 272.233 198.163 271.273 199.38 271.273C200.535 271.273 201.274 272.138 201.274 273.311H197.328ZM205.04 273.167C205.04 271.958 205.788 271.273 206.807 271.273C207.795 271.273 208.394 271.917 208.394 273.004V277.333H209.459V272.932C209.459 271.164 208.516 270.317 207.114 270.317C206.068 270.317 205.418 270.786 205.094 271.489H205.003V270.407H203.975V277.333H205.04V273.167ZM214.416 270.407H212.937V268.747H211.872V270.407H210.826V271.309H211.872V275.638C211.872 276.846 212.846 277.423 213.748 277.423C214.145 277.423 214.398 277.351 214.542 277.297L214.325 276.341C214.235 276.359 214.091 276.395 213.856 276.395C213.387 276.395 212.937 276.251 212.937 275.349V271.309H214.416V270.407ZM220.799 271.958C220.465 270.975 219.716 270.317 218.346 270.317C216.885 270.317 215.802 271.146 215.802 272.319C215.802 273.275 216.37 273.915 217.642 274.213L218.796 274.483C219.495 274.646 219.825 274.979 219.825 275.457C219.825 276.053 219.193 276.54 218.201 276.54C217.331 276.54 216.785 276.165 216.596 275.421L215.586 275.674C215.834 276.851 216.803 277.478 218.219 277.478C219.829 277.478 220.925 276.598 220.925 275.403C220.925 274.438 220.321 273.829 219.085 273.527L218.057 273.275C217.236 273.072 216.866 272.797 216.866 272.265C216.866 271.669 217.498 271.237 218.346 271.237C219.274 271.237 219.658 271.751 219.843 272.229L220.799 271.958Z" fill="black"/>
<path d="M32.2242 37.8368V45.204C32.2242 46.6527 31.2152 47.6898 29.6313 47.6898C28.0418 47.6898 27.0384 46.6527 27.0384 45.204V37.8368H24.9472V45.3788C24.9472 47.8589 26.8073 49.5556 29.6313 49.5556C32.4441 49.5556 34.3154 47.8589 34.3154 45.3788V37.8368H32.2242ZM43.3413 43.0114C43.0594 41.5458 41.887 40.6101 39.8578 40.6101C37.7722 40.6101 36.3517 41.636 36.3574 43.2368C36.3517 44.4995 37.1296 45.3337 38.7924 45.6775L40.2692 45.9876C41.064 46.1623 41.436 46.4836 41.436 46.974C41.436 47.5658 40.7935 48.0111 39.8239 48.0111C38.8882 48.0111 38.2795 47.6053 38.1047 46.8274L36.115 47.0191C36.3686 48.6086 37.7045 49.55 39.8296 49.55C41.9941 49.55 43.5216 48.4283 43.5273 46.788C43.5216 45.5535 42.7268 44.7982 41.0922 44.4431L39.6154 44.1274C38.736 43.9301 38.3866 43.6258 38.3922 43.1241C38.3866 42.5379 39.0348 42.132 39.8859 42.132C40.8273 42.132 41.3233 42.645 41.4811 43.2143L43.3413 43.0114ZM49.0428 49.55C51.0607 49.55 52.4474 48.5635 52.8081 47.0585L50.9029 46.8443C50.6267 47.5771 49.9503 47.9604 49.071 47.9604C47.752 47.9604 46.8783 47.0923 46.8614 45.6099H52.8927V44.9842C52.8927 41.946 51.0664 40.6101 48.9357 40.6101C46.4555 40.6101 44.8378 42.4308 44.8378 45.1026C44.8378 47.8195 46.433 49.55 49.0428 49.55ZM46.867 44.2345C46.929 43.1297 47.7464 42.1997 48.9639 42.1997C50.1363 42.1997 50.9255 43.0565 50.9367 44.2345H46.867ZM54.6189 49.3809H56.6594V44.2909C56.6594 43.1917 57.488 42.4139 58.6097 42.4139C58.9536 42.4139 59.382 42.4759 59.5567 42.5322V40.6552C59.3707 40.6214 59.0494 40.5988 58.8239 40.5988C57.8319 40.5988 57.0033 41.1625 56.6876 42.1659H56.5974V40.7229H54.6189V49.3809ZM72.6734 41.5233H74.804C74.4489 39.2573 72.4873 37.679 69.9339 37.679C66.9126 37.679 64.6467 39.8999 64.6467 43.6201C64.6467 47.2727 66.8112 49.5387 69.9959 49.5387C72.8537 49.5387 74.8999 47.7011 74.8999 44.7249V43.3383H70.2157V44.9729H72.8763C72.8425 46.6189 71.7433 47.6617 70.0072 47.6617C68.0738 47.6617 66.7492 46.213 66.7492 43.5976C66.7492 40.9991 68.0963 39.556 69.9621 39.556C71.3544 39.556 72.3013 40.3001 72.6734 41.5233ZM80.6085 49.55C83.145 49.55 84.7571 47.7631 84.7571 45.0857C84.7571 42.4026 83.145 40.6101 80.6085 40.6101C78.0719 40.6101 76.4598 42.4026 76.4598 45.0857C76.4598 47.7631 78.0719 49.55 80.6085 49.55ZM80.6197 47.9153C79.2162 47.9153 78.5285 46.664 78.5285 45.08C78.5285 43.4961 79.2162 42.2279 80.6197 42.2279C82.0007 42.2279 82.6884 43.4961 82.6884 45.08C82.6884 46.664 82.0007 47.9153 80.6197 47.9153ZM88.9804 49.5556C90.3388 49.5556 91.1505 48.9186 91.5226 48.1915H91.5902V49.3809H93.5518V43.5863C93.5518 41.2978 91.686 40.6101 90.0345 40.6101C88.2138 40.6101 86.8159 41.4218 86.365 43.0001L88.2702 43.2707C88.4731 42.6788 89.048 42.1715 90.0457 42.1715C90.9927 42.1715 91.5113 42.6562 91.5113 43.5074V43.5412C91.5113 44.1274 90.8969 44.1556 89.3693 44.3191C87.6896 44.4995 86.0831 45.0011 86.0831 46.9514C86.0831 48.6537 87.3288 49.5556 88.9804 49.5556ZM89.5102 48.0562C88.6591 48.0562 88.0503 47.6673 88.0503 46.9176C88.0503 46.1341 88.7324 45.8072 89.6455 45.6775C90.181 45.6043 91.252 45.469 91.5169 45.2548V46.275C91.5169 47.2389 90.7391 48.0562 89.5102 48.0562ZM97.644 37.8368H95.6035V49.3809H97.644V37.8368ZM106.585 43.0114C106.303 41.5458 105.131 40.6101 103.102 40.6101C101.016 40.6101 99.5958 41.636 99.6014 43.2368C99.5958 44.4995 100.374 45.3337 102.036 45.6775L103.513 45.9876C104.308 46.1623 104.68 46.4836 104.68 46.974C104.68 47.5658 104.037 48.0111 103.068 48.0111C102.132 48.0111 101.524 47.6053 101.349 46.8274L99.359 47.0191C99.6127 48.6086 100.949 49.55 103.074 49.55C105.238 49.55 106.766 48.4283 106.771 46.788C106.766 45.5535 105.971 44.7982 104.336 44.4431L102.859 44.1274C101.98 43.9301 101.631 43.6258 101.636 43.1241C101.631 42.5379 102.279 42.132 103.13 42.132C104.071 42.132 104.567 42.645 104.725 43.2143L106.585 43.0114Z" fill="black"/>
<rect x="0.793651" y="1.42854" width="298.413" height="457.143" rx="3.1746" stroke="#FAFAFA" stroke-width="1.5873"/>
</svg>
