<svg width="300" height="226" viewBox="0 0 300 226" fill="none" xmlns="http://www.w3.org/2000/svg">
<path d="M0 3.96826C0 1.77665 1.77665 0 3.96825 0H296.032C298.223 0 300 1.77665 300 3.96825V221.429C300 223.62 298.223 225.397 296.032 225.397H3.96826C1.77665 225.397 0 223.62 0 221.429V3.96826Z" fill="white"/>
<path d="M27.38 94.0823C28.4758 94.0823 29.3641 93.194 29.3641 92.0982C29.3641 91.0024 28.4758 90.1141 27.38 90.1141C26.2842 90.1141 25.3959 91.0024 25.3959 92.0982C25.3959 93.194 26.2842 94.0823 27.38 94.0823Z" fill="black"/>
<path d="M46.8257 95.7461C49.6395 95.7461 51.2268 93.9965 51.2268 91.1105C51.2268 88.2425 49.6395 86.5109 46.9519 86.5109H43.9757V95.7461H46.8257ZM45.0941 94.754V87.5029H46.8798C49.0443 87.5029 50.1446 88.8738 50.1446 91.1105C50.1446 93.3651 49.0443 94.754 46.7535 94.754H45.0941ZM52.9584 95.7461H54.0226V88.8197H52.9584V95.7461ZM53.4996 87.6653C53.9144 87.6653 54.2571 87.3406 54.2571 86.9438C54.2571 86.547 53.9144 86.2223 53.4996 86.2223C53.0847 86.2223 52.742 86.547 52.742 86.9438C52.742 87.3406 53.0847 87.6653 53.4996 87.6653ZM59.0562 88.8197H57.505V88.1162C57.505 87.4308 57.7936 87.07 58.4971 87.07C58.8037 87.07 58.9841 87.1422 59.0923 87.1783L59.399 86.2584C59.2366 86.1862 58.9119 86.078 58.3889 86.078C57.3968 86.078 56.4408 86.6732 56.4408 87.8637V88.8197H55.3225V89.7216H56.4408V95.7461H57.505V89.7216H59.0562V88.8197ZM63.6321 88.8197H62.0809V88.1162C62.0809 87.4308 62.3695 87.07 63.073 87.07C63.3796 87.07 63.56 87.1422 63.6682 87.1783L63.9748 86.2584C63.8125 86.1862 63.4878 86.078 62.9647 86.078C61.9727 86.078 61.0167 86.6732 61.0167 87.8637V88.8197H59.8984V89.7216H61.0167V95.7461H62.0809V89.7216H63.6321V88.8197ZM65.1236 95.7461H66.1878V88.8197H65.1236V95.7461ZM65.6647 87.6653C66.0796 87.6653 66.4223 87.3406 66.4223 86.9438C66.4223 86.547 66.0796 86.2223 65.6647 86.2223C65.2499 86.2223 64.9072 86.547 64.9072 86.9438C64.9072 87.3406 65.2499 87.6653 65.6647 87.6653ZM70.9509 95.8904C72.484 95.8904 73.4941 94.9524 73.6745 93.7259H72.6103C72.4119 94.4835 71.7806 94.9344 70.9509 94.9344C69.6882 94.9344 68.8765 93.8882 68.8765 92.2829C68.8765 90.7136 69.7063 89.6855 70.9509 89.6855C71.8888 89.6855 72.448 90.2627 72.6103 90.894H73.6745C73.4941 89.5953 72.3939 88.7295 70.9328 88.7295C69.0569 88.7295 67.8123 90.2086 67.8123 92.319C67.8123 94.3933 69.0028 95.8904 70.9509 95.8904ZM79.5953 92.9142C79.5953 94.2129 78.6033 94.8081 77.8096 94.8081C76.9258 94.8081 76.2945 94.1588 76.2945 93.1487V88.8197H75.2303V93.2208C75.2303 94.9885 76.1682 95.8363 77.4669 95.8363C78.5131 95.8363 79.1985 95.2771 79.5232 94.5737H79.5953V95.7461H80.6596V88.8197H79.5953V92.9142ZM83.6729 86.5109H82.6087V95.7461H83.6729V86.5109ZM88.6344 88.8197H87.1553V87.1602H86.0911V88.8197H85.0449V89.7216H86.0911V94.0506C86.0911 95.2591 87.0651 95.8363 87.967 95.8363C88.3638 95.8363 88.6164 95.7641 88.7607 95.71L88.5442 94.754C88.454 94.7721 88.3097 94.8081 88.0752 94.8081C87.6063 94.8081 87.1553 94.6638 87.1553 93.762V89.7216H88.6344V88.8197ZM90.9206 98.3435C91.8811 98.3435 92.5576 97.8339 92.9589 96.7562L95.908 88.8377L94.7446 88.8197L92.8326 94.3392H92.7605L90.8485 88.8197H89.6941L92.2554 95.7822L92.057 96.3233C91.6692 97.3785 91.1912 97.4777 90.4156 97.2793L90.145 98.2172C90.2533 98.2713 90.5599 98.3435 90.9206 98.3435ZM103.9 88.8197H102.421V87.1602H101.356V88.8197H100.31V89.7216H101.356V94.0506C101.356 95.2591 102.331 95.8363 103.232 95.8363C103.629 95.8363 103.882 95.7641 104.026 95.71L103.81 94.754C103.719 94.7721 103.575 94.8081 103.341 94.8081C102.872 94.8081 102.421 94.6638 102.421 93.762V89.7216H103.9V88.8197ZM108.24 95.8904C110.116 95.8904 111.379 94.4654 111.379 92.319C111.379 90.1545 110.116 88.7295 108.24 88.7295C106.364 88.7295 105.102 90.1545 105.102 92.319C105.102 94.4654 106.364 95.8904 108.24 95.8904ZM108.24 94.9344C106.815 94.9344 106.166 93.7079 106.166 92.319C106.166 90.9301 106.815 89.6855 108.24 89.6855C109.665 89.6855 110.314 90.9301 110.314 92.319C110.314 93.7079 109.665 94.9344 108.24 94.9344ZM116.575 95.7461H117.639V91.4171C117.639 90.4025 118.378 89.6855 119.208 89.6855C120.015 89.6855 120.579 90.2131 120.579 91.0022V95.7461H121.661V91.2367C121.661 90.3439 122.22 89.6855 123.194 89.6855C123.952 89.6855 124.601 90.0868 124.601 91.1105V95.7461H125.665V91.1105C125.665 89.4826 124.791 88.7295 123.555 88.7295C122.563 88.7295 121.837 89.1849 121.481 89.9019H121.409C121.066 89.1624 120.462 88.7295 119.551 88.7295C118.649 88.7295 117.981 89.1624 117.693 89.9019H117.603V88.8197H116.575V95.7461ZM129.649 95.9084C130.858 95.9084 131.489 95.2591 131.706 94.8081H131.76V95.7461H132.824V91.1826C132.824 88.982 131.147 88.7295 130.263 88.7295C129.217 88.7295 128.026 89.0902 127.485 90.3529L128.495 90.7136C128.73 90.2086 129.284 89.6674 130.299 89.6674C131.277 89.6674 131.76 90.186 131.76 91.0744V91.1105C131.76 91.6245 131.237 91.5794 129.974 91.7418C128.689 91.9086 127.287 92.1927 127.287 93.78C127.287 95.1328 128.333 95.9084 129.649 95.9084ZM129.812 94.9524C128.964 94.9524 128.351 94.5737 128.351 93.8341C128.351 93.0224 129.09 92.7699 129.92 92.6617C130.371 92.6076 131.579 92.4813 131.76 92.2649V93.2389C131.76 94.1047 131.074 94.9524 129.812 94.9524ZM137.779 88.8197H136.3V87.1602H135.235V88.8197H134.189V89.7216H135.235V94.0506C135.235 95.2591 136.209 95.8363 137.111 95.8363C137.508 95.8363 137.761 95.7641 137.905 95.71L137.689 94.754C137.598 94.7721 137.454 94.8081 137.22 94.8081C136.751 94.8081 136.3 94.6638 136.3 93.762V89.7216H137.779V88.8197ZM142.119 95.8904C143.652 95.8904 144.662 94.9524 144.843 93.7259H143.778C143.58 94.4835 142.949 94.9344 142.119 94.9344C140.856 94.9344 140.045 93.8882 140.045 92.2829C140.045 90.7136 140.874 89.6855 142.119 89.6855C143.057 89.6855 143.616 90.2627 143.778 90.894H144.843C144.662 89.5953 143.562 88.7295 142.101 88.7295C140.225 88.7295 138.98 90.2086 138.98 92.319C138.98 94.3933 140.171 95.8904 142.119 95.8904ZM147.463 91.5794C147.463 90.3709 148.234 89.6855 149.284 89.6855C150.286 89.6855 150.89 90.3168 150.89 91.4171V95.7461H151.954V91.3449C151.954 89.5637 151.007 88.7295 149.591 88.7295C148.5 88.7295 147.877 89.1849 147.553 89.9019H147.463V86.5109H146.398V95.7461H147.463V91.5794ZM160.485 88.8197H159.006V87.1602H157.941V88.8197H156.895V89.7216H157.941V94.0506C157.941 95.2591 158.915 95.8363 159.817 95.8363C160.214 95.8363 160.467 95.7641 160.611 95.71L160.394 94.754C160.304 94.7721 160.16 94.8081 159.925 94.8081C159.456 94.8081 159.006 94.6638 159.006 93.762V89.7216H160.485V88.8197ZM163.298 91.5794C163.298 90.3709 164.07 89.6855 165.12 89.6855C166.121 89.6855 166.726 90.3168 166.726 91.4171V95.7461H167.79V91.3449C167.79 89.5637 166.843 88.7295 165.427 88.7295C164.336 88.7295 163.713 89.1849 163.389 89.9019H163.298V86.5109H162.234V95.7461H163.298V91.5794ZM172.641 95.8904C174.048 95.8904 175.076 95.1869 175.4 94.1408L174.372 93.8522C174.102 94.5737 173.475 94.9344 172.641 94.9344C171.392 94.9344 170.53 94.1272 170.481 92.6436H175.509V92.1927C175.509 89.6133 173.976 88.7295 172.533 88.7295C170.657 88.7295 169.412 90.2086 169.412 92.337C169.412 94.4654 170.639 95.8904 172.641 95.8904ZM170.481 91.7237C170.553 90.646 171.315 89.6855 172.533 89.6855C173.687 89.6855 174.426 90.5513 174.426 91.7237H170.481ZM185.605 90.3709C185.272 89.3879 184.523 88.7295 183.152 88.7295C181.691 88.7295 180.609 89.5592 180.609 90.7317C180.609 91.6877 181.177 92.328 182.449 92.6256L183.603 92.8962C184.302 93.0585 184.631 93.3922 184.631 93.8702C184.631 94.4654 184 94.9524 183.008 94.9524C182.138 94.9524 181.592 94.5782 181.402 93.8341L180.392 94.0866C180.64 95.2636 181.61 95.8904 183.026 95.8904C184.636 95.8904 185.731 95.0111 185.731 93.8161C185.731 92.8511 185.127 92.2423 183.892 91.9402L182.864 91.6877C182.043 91.4847 181.673 91.2097 181.673 90.6776C181.673 90.0823 182.304 89.6494 183.152 89.6494C184.081 89.6494 184.464 90.1635 184.649 90.6415L185.605 90.3709ZM187.333 98.3435H188.398V94.6819H188.488C188.722 95.0607 189.173 95.8904 190.508 95.8904C192.24 95.8904 193.448 94.5015 193.448 92.3009C193.448 90.1184 192.24 88.7295 190.49 88.7295C189.137 88.7295 188.722 89.5592 188.488 89.92H188.362V88.8197H187.333V98.3435ZM188.38 92.2829C188.38 90.7317 189.065 89.6855 190.364 89.6855C191.717 89.6855 192.384 90.8219 192.384 92.2829C192.384 93.762 191.699 94.9344 190.364 94.9344C189.083 94.9344 188.38 93.8522 188.38 92.2829ZM197.976 95.8904C199.383 95.8904 200.411 95.1869 200.735 94.1408L199.707 93.8522C199.437 94.5737 198.81 94.9344 197.976 94.9344C196.726 94.9344 195.865 94.1272 195.816 92.6436H200.844V92.1927C200.844 89.6133 199.31 88.7295 197.867 88.7295C195.991 88.7295 194.747 90.2086 194.747 92.337C194.747 94.4654 195.973 95.8904 197.976 95.8904ZM195.816 91.7237C195.888 90.646 196.65 89.6855 197.867 89.6855C199.022 89.6855 199.761 90.5513 199.761 91.7237H195.816ZM205.366 95.8904C206.773 95.8904 207.802 95.1869 208.126 94.1408L207.098 93.8522C206.827 94.5737 206.201 94.9344 205.366 94.9344C204.117 94.9344 203.256 94.1272 203.206 92.6436H208.234V92.1927C208.234 89.6133 206.701 88.7295 205.258 88.7295C203.382 88.7295 202.138 90.2086 202.138 92.337C202.138 94.4654 203.364 95.8904 205.366 95.8904ZM203.206 91.7237C203.279 90.646 204.041 89.6855 205.258 89.6855C206.413 89.6855 207.152 90.5513 207.152 91.7237H203.206ZM212.469 95.8904C213.804 95.8904 214.254 95.0607 214.489 94.6819H214.615V95.7461H215.643V86.5109H214.579V89.92H214.489C214.254 89.5592 213.84 88.7295 212.487 88.7295C210.737 88.7295 209.529 90.1184 209.529 92.3009C209.529 94.5015 210.737 95.8904 212.469 95.8904ZM212.613 94.9344C211.278 94.9344 210.593 93.762 210.593 92.2829C210.593 90.8219 211.26 89.6855 212.613 89.6855C213.912 89.6855 214.597 90.7317 214.597 92.2829C214.597 93.8522 213.894 94.9344 212.613 94.9344ZM224.125 95.8904C226.001 95.8904 227.264 94.4654 227.264 92.319C227.264 90.1545 226.001 88.7295 224.125 88.7295C222.25 88.7295 220.987 90.1545 220.987 92.319C220.987 94.4654 222.25 95.8904 224.125 95.8904ZM224.125 94.9344C222.701 94.9344 222.051 93.7079 222.051 92.319C222.051 90.9301 222.701 89.6855 224.125 89.6855C225.55 89.6855 226.2 90.9301 226.2 92.319C226.2 93.7079 225.55 94.9344 224.125 94.9344ZM231.973 88.8197H230.422V88.1162C230.422 87.4308 230.71 87.07 231.414 87.07C231.72 87.07 231.901 87.1422 232.009 87.1783L232.316 86.2584C232.153 86.1862 231.829 86.078 231.306 86.078C230.313 86.078 229.357 86.6732 229.357 87.8637V88.8197H228.239V89.7216H229.357V95.7461H230.422V89.7216H231.973V88.8197ZM240.048 88.8197H238.569V87.1602H237.505V88.8197H236.459V89.7216H237.505V94.0506C237.505 95.2591 238.479 95.8363 239.381 95.8363C239.778 95.8363 240.03 95.7641 240.174 95.71L239.958 94.754C239.868 94.7721 239.723 94.8081 239.489 94.8081C239.02 94.8081 238.569 94.6638 238.569 93.762V89.7216H240.048V88.8197ZM242.862 91.5794C242.862 90.3709 243.633 89.6855 244.684 89.6855C245.685 89.6855 246.289 90.3168 246.289 91.4171V95.7461H247.353V91.3449C247.353 89.5637 246.406 88.7295 244.99 88.7295C243.899 88.7295 243.277 89.1849 242.952 89.9019H242.862V86.5109H241.798V95.7461H242.862V91.5794ZM252.204 95.8904C253.611 95.8904 254.639 95.1869 254.964 94.1408L253.936 93.8522C253.665 94.5737 253.038 94.9344 252.204 94.9344C250.955 94.9344 250.094 94.1272 250.044 92.6436H255.072V92.1927C255.072 89.6133 253.539 88.7295 252.096 88.7295C250.22 88.7295 248.976 90.2086 248.976 92.337C248.976 94.4654 250.202 95.8904 252.204 95.8904ZM250.044 91.7237C250.116 90.646 250.878 89.6855 252.096 89.6855C253.25 89.6855 253.99 90.5513 253.99 91.7237H250.044ZM43.1821 105.511L46.519 110.94V114.746H47.6374V110.94L50.9743 105.511H49.6936L47.1323 109.822H47.0241L44.4628 105.511H43.1821ZM54.1106 114.89C55.9865 114.89 57.2491 113.465 57.2491 111.319C57.2491 109.154 55.9865 107.729 54.1106 107.729C52.2347 107.729 50.9721 109.154 50.9721 111.319C50.9721 113.465 52.2347 114.89 54.1106 114.89ZM54.1106 113.934C52.6856 113.934 52.0363 112.708 52.0363 111.319C52.0363 109.93 52.6856 108.685 54.1106 108.685C55.5355 108.685 56.1849 109.93 56.1849 111.319C56.1849 112.708 55.5355 113.934 54.1106 113.934ZM63.2387 111.914C63.2387 113.213 62.2466 113.808 61.453 113.808C60.5691 113.808 59.9378 113.159 59.9378 112.149V107.82H58.8736V112.221C58.8736 113.989 59.8116 114.836 61.1103 114.836C62.1564 114.836 62.8419 114.277 63.1665 113.574H63.2387V114.746H64.3029V107.82H63.2387V111.914ZM65.2465 106.503H68.1505V114.746H69.2689V106.503H72.1729V105.511H65.2465V106.503ZM77.1772 111.914C77.1772 113.213 76.1851 113.808 75.3915 113.808C74.5076 113.808 73.8763 113.159 73.8763 112.149V107.82H72.8121V112.221C72.8121 113.989 73.7501 114.836 75.0488 114.836C76.0949 114.836 76.7804 114.277 77.105 113.574H77.1772V114.746H78.2414V107.82H77.1772V111.914ZM80.3349 114.746H81.363V113.682H81.4893C81.7238 114.061 82.1747 114.89 83.5095 114.89C85.2411 114.89 86.4496 113.502 86.4496 111.301C86.4496 109.118 85.2411 107.729 83.4914 107.729C82.1386 107.729 81.7238 108.559 81.4893 108.92H81.3991V105.511H80.3349V114.746ZM81.3811 111.283C81.3811 109.732 82.0665 108.685 83.3652 108.685C84.718 108.685 85.3854 109.822 85.3854 111.283C85.3854 112.762 84.7 113.934 83.3652 113.934C82.0845 113.934 81.3811 112.852 81.3811 111.283ZM90.9815 114.89C92.3885 114.89 93.4166 114.187 93.7413 113.141L92.7131 112.852C92.4426 113.574 91.8158 113.934 90.9815 113.934C89.7324 113.934 88.8711 113.127 88.8215 111.644H93.8495V111.193C93.8495 108.613 92.3163 107.729 90.8733 107.729C88.9974 107.729 87.7528 109.209 87.7528 111.337C87.7528 113.465 88.9794 114.89 90.9815 114.89ZM88.8215 110.724C88.8937 109.646 89.6558 108.685 90.8733 108.685C92.0277 108.685 92.7672 109.551 92.7672 110.724H88.8215ZM102.052 107.82H100.573V106.16H99.5088V107.82H98.4626V108.722H99.5088V113.051C99.5088 114.259 100.483 114.836 101.385 114.836C101.781 114.836 102.034 114.764 102.178 114.71L101.962 113.754C101.872 113.772 101.727 113.808 101.493 113.808C101.024 113.808 100.573 113.664 100.573 112.762V108.722H102.052V107.82ZM108.018 111.914C108.018 113.213 107.026 113.808 106.232 113.808C105.348 113.808 104.717 113.159 104.717 112.149V107.82H103.653V112.221C103.653 113.989 104.591 114.836 105.89 114.836C106.936 114.836 107.621 114.277 107.946 113.574H108.018V114.746H109.082V107.82H108.018V111.914ZM114.044 107.82H112.565V106.16H111.5V107.82H110.454V108.722H111.5V113.051C111.5 114.259 112.474 114.836 113.376 114.836C113.773 114.836 114.026 114.764 114.17 114.71L113.953 113.754C113.863 113.772 113.719 113.808 113.484 113.808C113.015 113.808 112.565 113.664 112.565 112.762V108.722H114.044V107.82ZM118.384 114.89C120.26 114.89 121.522 113.465 121.522 111.319C121.522 109.154 120.26 107.729 118.384 107.729C116.508 107.729 115.245 109.154 115.245 111.319C115.245 113.465 116.508 114.89 118.384 114.89ZM118.384 113.934C116.959 113.934 116.31 112.708 116.31 111.319C116.31 109.93 116.959 108.685 118.384 108.685C119.809 108.685 120.458 109.93 120.458 111.319C120.458 112.708 119.809 113.934 118.384 113.934ZM123.147 114.746H124.211V110.363C124.211 109.425 124.951 108.74 125.961 108.74C126.245 108.74 126.538 108.794 126.61 108.812V107.729C126.488 107.72 126.209 107.711 126.051 107.711C125.221 107.711 124.5 108.18 124.247 108.866H124.175V107.82H123.147V114.746ZM127.872 114.746H128.936V107.82H127.872V114.746ZM128.413 106.665C128.828 106.665 129.17 106.341 129.17 105.944C129.17 105.547 128.828 105.222 128.413 105.222C127.998 105.222 127.655 105.547 127.655 105.944C127.655 106.341 127.998 106.665 128.413 106.665ZM132.923 114.908C134.132 114.908 134.763 114.259 134.98 113.808H135.034V114.746H136.098V110.183C136.098 107.982 134.42 107.729 133.537 107.729C132.49 107.729 131.3 108.09 130.759 109.353L131.769 109.714C132.003 109.209 132.558 108.667 133.573 108.667C134.551 108.667 135.034 109.186 135.034 110.074V110.11C135.034 110.625 134.511 110.579 133.248 110.742C131.963 110.909 130.56 111.193 130.56 112.78C130.56 114.133 131.607 114.908 132.923 114.908ZM133.086 113.952C132.238 113.952 131.625 113.574 131.625 112.834C131.625 112.022 132.364 111.77 133.194 111.662C133.645 111.608 134.853 111.481 135.034 111.265V112.239C135.034 113.105 134.348 113.952 133.086 113.952ZM139.105 105.511H138.04V114.746H139.105V105.511ZM145.96 109.371C145.626 108.388 144.878 107.729 143.507 107.729C142.046 107.729 140.963 108.559 140.963 109.732C140.963 110.688 141.532 111.328 142.803 111.626L143.958 111.896C144.657 112.059 144.986 112.392 144.986 112.87C144.986 113.465 144.355 113.952 143.362 113.952C142.492 113.952 141.947 113.578 141.757 112.834L140.747 113.087C140.995 114.264 141.965 114.89 143.381 114.89C144.99 114.89 146.086 114.011 146.086 112.816C146.086 111.851 145.482 111.242 144.246 110.94L143.218 110.688C142.397 110.485 142.028 110.21 142.028 109.678C142.028 109.082 142.659 108.649 143.507 108.649C144.436 108.649 144.819 109.163 145.004 109.641L145.96 109.371Z" fill="black"/>
<path d="M27.38 144.082C28.4758 144.082 29.3641 143.194 29.3641 142.098C29.3641 141.002 28.4758 140.114 27.38 140.114C26.2842 140.114 25.3959 141.002 25.3959 142.098C25.3959 143.194 26.2842 144.082 27.38 144.082Z" fill="black"/>
<path d="M43.4707 137.503H46.3747V145.746H47.4931V137.503H50.3971V136.511H43.4707V137.503ZM53.7882 145.89C55.6641 145.89 56.9267 144.465 56.9267 142.319C56.9267 140.154 55.6641 138.729 53.7882 138.729C51.9123 138.729 50.6496 140.154 50.6496 142.319C50.6496 144.465 51.9123 145.89 53.7882 145.89ZM53.7882 144.934C52.3632 144.934 51.7138 143.708 51.7138 142.319C51.7138 140.93 52.3632 139.685 53.7882 139.685C55.2131 139.685 55.8625 140.93 55.8625 142.319C55.8625 143.708 55.2131 144.934 53.7882 144.934ZM61.365 145.89C63.2409 145.89 64.5036 144.465 64.5036 142.319C64.5036 140.154 63.2409 138.729 61.365 138.729C59.4891 138.729 58.2265 140.154 58.2265 142.319C58.2265 144.465 59.4891 145.89 61.365 145.89ZM61.365 144.934C59.9401 144.934 59.2907 143.708 59.2907 142.319C59.2907 140.93 59.9401 139.685 61.365 139.685C62.79 139.685 63.4394 140.93 63.4394 142.319C63.4394 143.708 62.79 144.934 61.365 144.934ZM69.6995 145.746H70.7637V141.417C70.7637 140.402 71.5033 139.685 72.333 139.685C73.1402 139.685 73.7038 140.213 73.7038 141.002V145.746H74.7861V141.237C74.7861 140.344 75.3452 139.685 76.3193 139.685C77.0769 139.685 77.7262 140.087 77.7262 141.11V145.746H78.7904V141.11C78.7904 139.483 77.9156 138.729 76.68 138.729C75.688 138.729 74.962 139.185 74.6057 139.902H74.5336C74.1908 139.162 73.5866 138.729 72.6757 138.729C71.7738 138.729 71.1064 139.162 70.8178 139.902H70.7276V138.82H69.6995V145.746ZM82.7745 145.908C83.983 145.908 84.6143 145.259 84.8307 144.808H84.8848V145.746H85.9491V141.183C85.9491 138.982 84.2716 138.729 83.3877 138.729C82.3416 138.729 81.1511 139.09 80.61 140.353L81.6201 140.714C81.8545 140.209 82.4092 139.667 83.4238 139.667C84.4023 139.667 84.8848 140.186 84.8848 141.074V141.11C84.8848 141.625 84.3618 141.579 83.0991 141.742C81.814 141.909 80.4115 142.193 80.4115 143.78C80.4115 145.133 81.4577 145.908 82.7745 145.908ZM82.9368 144.952C82.089 144.952 81.4758 144.574 81.4758 143.834C81.4758 143.022 82.2153 142.77 83.045 142.662C83.496 142.608 84.7045 142.481 84.8848 142.265V143.239C84.8848 144.105 84.1994 144.952 82.9368 144.952ZM88.9557 141.579C88.9557 140.371 89.7042 139.685 90.7234 139.685C91.7109 139.685 92.3107 140.33 92.3107 141.417V145.746H93.3749V141.345C93.3749 139.577 92.4324 138.729 91.03 138.729C89.9838 138.729 89.3345 139.198 89.0098 139.902H88.9196V138.82H87.8915V145.746H88.9557V141.579ZM95.757 148.343C96.7175 148.343 97.3939 147.834 97.7952 146.756L100.744 138.838L99.5809 138.82L97.6689 144.339H97.5968L95.6848 138.82H94.5304L97.0917 145.782L96.8933 146.323C96.5055 147.378 96.0275 147.478 95.2519 147.279L94.9813 148.217C95.0896 148.271 95.3962 148.343 95.757 148.343ZM108.736 138.82H107.257V137.16H106.193V138.82H105.147V139.722H106.193V144.051C106.193 145.259 107.167 145.836 108.069 145.836C108.466 145.836 108.718 145.764 108.862 145.71L108.646 144.754C108.556 144.772 108.411 144.808 108.177 144.808C107.708 144.808 107.257 144.664 107.257 143.762V139.722H108.736V138.82ZM114.702 142.914C114.702 144.213 113.71 144.808 112.916 144.808C112.032 144.808 111.401 144.159 111.401 143.149V138.82H110.337V143.221C110.337 144.989 111.275 145.836 112.574 145.836C113.62 145.836 114.305 145.277 114.63 144.574H114.702V145.746H115.766V138.82H114.702V142.914ZM120.728 138.82H119.249V137.16H118.184V138.82H117.138V139.722H118.184V144.051C118.184 145.259 119.158 145.836 120.06 145.836C120.457 145.836 120.71 145.764 120.854 145.71L120.637 144.754C120.547 144.772 120.403 144.808 120.168 144.808C119.7 144.808 119.249 144.664 119.249 143.762V139.722H120.728V138.82ZM125.068 145.89C126.944 145.89 128.206 144.465 128.206 142.319C128.206 140.154 126.944 138.729 125.068 138.729C123.192 138.729 121.929 140.154 121.929 142.319C121.929 144.465 123.192 145.89 125.068 145.89ZM125.068 144.934C123.643 144.934 122.994 143.708 122.994 142.319C122.994 140.93 123.643 139.685 125.068 139.685C126.493 139.685 127.142 140.93 127.142 142.319C127.142 143.708 126.493 144.934 125.068 144.934ZM129.831 145.746H130.895V141.363C130.895 140.425 131.635 139.74 132.645 139.74C132.929 139.74 133.222 139.794 133.294 139.812V138.729C133.172 138.72 132.893 138.711 132.735 138.711C131.905 138.711 131.184 139.18 130.931 139.866H130.859V138.82H129.831V145.746ZM134.556 145.746H135.62V138.82H134.556V145.746ZM135.097 137.665C135.512 137.665 135.854 137.341 135.854 136.944C135.854 136.547 135.512 136.222 135.097 136.222C134.682 136.222 134.339 136.547 134.339 136.944C134.339 137.341 134.682 137.665 135.097 137.665ZM139.607 145.908C140.816 145.908 141.447 145.259 141.664 144.808H141.718V145.746H142.782V141.183C142.782 138.982 141.104 138.729 140.221 138.729C139.174 138.729 137.984 139.09 137.443 140.353L138.453 140.714C138.687 140.209 139.242 139.667 140.257 139.667C141.235 139.667 141.718 140.186 141.718 141.074V141.11C141.718 141.625 141.195 141.579 139.932 141.742C138.647 141.909 137.244 142.193 137.244 143.78C137.244 145.133 138.291 145.908 139.607 145.908ZM139.77 144.952C138.922 144.952 138.309 144.574 138.309 143.834C138.309 143.022 139.048 142.77 139.878 142.662C140.329 142.608 141.537 142.481 141.718 142.265V143.239C141.718 144.105 141.032 144.952 139.77 144.952ZM145.789 136.511H144.724V145.746H145.789V136.511ZM152.644 140.371C152.31 139.388 151.562 138.729 150.191 138.729C148.73 138.729 147.648 139.559 147.648 140.732C147.648 141.688 148.216 142.328 149.487 142.626L150.642 142.896C151.341 143.059 151.67 143.392 151.67 143.87C151.67 144.465 151.039 144.952 150.047 144.952C149.176 144.952 148.631 144.578 148.441 143.834L147.431 144.087C147.679 145.264 148.649 145.89 150.065 145.89C151.674 145.89 152.77 145.011 152.77 143.816C152.77 142.851 152.166 142.242 150.93 141.94L149.902 141.688C149.082 141.485 148.712 141.21 148.712 140.678C148.712 140.082 149.343 139.649 150.191 139.649C151.12 139.649 151.503 140.163 151.688 140.641L152.644 140.371ZM161.028 138.82H159.477V138.116C159.477 137.431 159.765 137.07 160.469 137.07C160.775 137.07 160.956 137.142 161.064 137.178L161.371 136.258C161.208 136.186 160.884 136.078 160.361 136.078C159.369 136.078 158.413 136.673 158.413 137.864V138.82H157.294V139.722H158.413V145.746H159.477V139.722H161.028V138.82ZM165.048 145.89C166.924 145.89 168.187 144.465 168.187 142.319C168.187 140.154 166.924 138.729 165.048 138.729C163.172 138.729 161.91 140.154 161.91 142.319C161.91 144.465 163.172 145.89 165.048 145.89ZM165.048 144.934C163.623 144.934 162.974 143.708 162.974 142.319C162.974 140.93 163.623 139.685 165.048 139.685C166.473 139.685 167.122 140.93 167.122 142.319C167.122 143.708 166.473 144.934 165.048 144.934ZM169.811 145.746H170.875V141.363C170.875 140.425 171.615 139.74 172.625 139.74C172.909 139.74 173.202 139.794 173.274 139.812V138.729C173.153 138.72 172.873 138.711 172.715 138.711C171.885 138.711 171.164 139.18 170.911 139.866H170.839V138.82H169.811V145.746ZM181.12 138.82H179.64V137.16H178.576V138.82H177.53V139.722H178.576V144.051C178.576 145.259 179.55 145.836 180.452 145.836C180.849 145.836 181.101 145.764 181.246 145.71L181.029 144.754C180.939 144.772 180.795 144.808 180.56 144.808C180.091 144.808 179.64 144.664 179.64 143.762V139.722H181.12V138.82ZM183.933 141.579C183.933 140.371 184.704 139.685 185.755 139.685C186.756 139.685 187.36 140.317 187.36 141.417V145.746H188.425V141.345C188.425 139.564 187.478 138.729 186.062 138.729C184.971 138.729 184.348 139.185 184.024 139.902H183.933V136.511H182.869V145.746H183.933V141.579ZM193.276 145.89C194.683 145.89 195.711 145.187 196.035 144.141L195.007 143.852C194.737 144.574 194.11 144.934 193.276 144.934C192.027 144.934 191.165 144.127 191.116 142.644H196.144V142.193C196.144 139.613 194.61 138.729 193.167 138.729C191.292 138.729 190.047 140.209 190.047 142.337C190.047 144.465 191.274 145.89 193.276 145.89ZM191.116 141.724C191.188 140.646 191.95 139.685 193.167 139.685C194.322 139.685 195.061 140.551 195.061 141.724H191.116ZM206.24 140.371C205.906 139.388 205.158 138.729 203.787 138.729C202.326 138.729 201.244 139.559 201.244 140.732C201.244 141.688 201.812 142.328 203.084 142.626L204.238 142.896C204.937 143.059 205.266 143.392 205.266 143.87C205.266 144.465 204.635 144.952 203.643 144.952C202.772 144.952 202.227 144.578 202.037 143.834L201.027 144.087C201.275 145.264 202.245 145.89 203.661 145.89C205.271 145.89 206.366 145.011 206.366 143.816C206.366 142.851 205.762 142.242 204.527 141.94L203.498 141.688C202.678 141.485 202.308 141.21 202.308 140.678C202.308 140.082 202.939 139.649 203.787 139.649C204.716 139.649 205.099 140.163 205.284 140.641L206.24 140.371ZM210.007 145.908C211.215 145.908 211.846 145.259 212.063 144.808H212.117V145.746H213.181V141.183C213.181 138.982 211.504 138.729 210.62 138.729C209.574 138.729 208.383 139.09 207.842 140.353L208.852 140.714C209.087 140.209 209.641 139.667 210.656 139.667C211.634 139.667 212.117 140.186 212.117 141.074V141.11C212.117 141.625 211.594 141.579 210.331 141.742C209.046 141.909 207.644 142.193 207.644 143.78C207.644 145.133 208.69 145.908 210.007 145.908ZM210.169 144.952C209.321 144.952 208.708 144.574 208.708 143.834C208.708 143.022 209.447 142.77 210.277 142.662C210.728 142.608 211.937 142.481 212.117 142.265V143.239C212.117 144.105 211.432 144.952 210.169 144.952ZM215.124 145.746H216.188V141.417C216.188 140.402 216.927 139.685 217.757 139.685C218.564 139.685 219.128 140.213 219.128 141.002V145.746H220.21V141.237C220.21 140.344 220.769 139.685 221.743 139.685C222.501 139.685 223.15 140.087 223.15 141.11V145.746H224.215V141.11C224.215 139.483 223.34 138.729 222.104 138.729C221.112 138.729 220.386 139.185 220.03 139.902H219.958C219.615 139.162 219.011 138.729 218.1 138.729C217.198 138.729 216.531 139.162 216.242 139.902H216.152V138.82H215.124V145.746ZM229.064 145.89C230.471 145.89 231.499 145.187 231.824 144.141L230.796 143.852C230.525 144.574 229.899 144.934 229.064 144.934C227.815 144.934 226.954 144.127 226.904 142.644H231.932V142.193C231.932 139.613 230.399 138.729 228.956 138.729C227.08 138.729 225.836 140.209 225.836 142.337C225.836 144.465 227.062 145.89 229.064 145.89ZM226.904 141.724C226.977 140.646 227.739 139.685 228.956 139.685C230.111 139.685 230.85 140.551 230.85 141.724H226.904ZM239.738 145.89C241.073 145.89 241.524 145.061 241.758 144.682H241.885V145.746H242.913V136.511H241.848V139.92H241.758C241.524 139.559 241.109 138.729 239.756 138.729C238.006 138.729 236.798 140.118 236.798 142.301C236.798 144.502 238.006 145.89 239.738 145.89ZM239.882 144.934C238.548 144.934 237.862 143.762 237.862 142.283C237.862 140.822 238.53 139.685 239.882 139.685C241.181 139.685 241.866 140.732 241.866 142.283C241.866 143.852 241.163 144.934 239.882 144.934ZM245.01 145.746H246.074V138.82H245.01V145.746ZM245.551 137.665C245.966 137.665 246.308 137.341 246.308 136.944C246.308 136.547 245.966 136.222 245.551 136.222C245.136 136.222 244.793 136.547 244.793 136.944C244.793 137.341 245.136 137.665 245.551 137.665ZM252.929 140.371C252.595 139.388 251.847 138.729 250.476 138.729C249.015 138.729 247.933 139.559 247.933 140.732C247.933 141.688 248.501 142.328 249.773 142.626L250.927 142.896C251.626 143.059 251.955 143.392 251.955 143.87C251.955 144.465 251.324 144.952 250.332 144.952C249.461 144.952 248.916 144.578 248.726 143.834L247.716 144.087C247.964 145.264 248.934 145.89 250.35 145.89C251.96 145.89 253.055 145.011 253.055 143.816C253.055 142.851 252.451 142.242 251.216 141.94L250.187 141.688C249.367 141.485 248.997 141.21 248.997 140.678C248.997 140.082 249.628 139.649 250.476 139.649C251.405 139.649 251.788 140.163 251.973 140.641L252.929 140.371ZM255.722 141.579C255.722 140.371 256.493 139.685 257.543 139.685C258.544 139.685 259.149 140.317 259.149 141.417V145.746H260.213V141.345C260.213 139.564 259.266 138.729 257.85 138.729C256.759 138.729 256.136 139.185 255.812 139.902H255.722V136.511H254.657V145.746H255.722V141.579Z" fill="black"/>
<path d="M27.38 179.003C28.4758 179.003 29.3641 178.115 29.3641 177.019C29.3641 175.923 28.4758 175.035 27.38 175.035C26.2842 175.035 25.3959 175.923 25.3959 177.019C25.3959 178.115 26.2842 179.003 27.38 179.003Z" fill="black"/>
<path d="M46.8257 180.667C49.6395 180.667 51.2268 178.917 51.2268 176.031C51.2268 173.163 49.6395 171.432 46.9519 171.432H43.9757V180.667H46.8257ZM45.0941 179.675V172.424H46.8798C49.0443 172.424 50.1446 173.794 50.1446 176.031C50.1446 178.286 49.0443 179.675 46.7535 179.675H45.0941ZM52.9584 180.667H54.0226V173.74H52.9584V180.667ZM53.4996 172.586C53.9144 172.586 54.2571 172.261 54.2571 171.864C54.2571 171.468 53.9144 171.143 53.4996 171.143C53.0847 171.143 52.742 171.468 52.742 171.864C52.742 172.261 53.0847 172.586 53.4996 172.586ZM59.0562 173.74H57.505V173.037C57.505 172.351 57.7936 171.991 58.4971 171.991C58.8037 171.991 58.9841 172.063 59.0923 172.099L59.399 171.179C59.2366 171.107 58.9119 170.999 58.3889 170.999C57.3968 170.999 56.4408 171.594 56.4408 172.784V173.74H55.3225V174.642H56.4408V180.667H57.505V174.642H59.0562V173.74ZM63.6321 173.74H62.0809V173.037C62.0809 172.351 62.3695 171.991 63.073 171.991C63.3796 171.991 63.56 172.063 63.6682 172.099L63.9748 171.179C63.8125 171.107 63.4878 170.999 62.9647 170.999C61.9727 170.999 61.0167 171.594 61.0167 172.784V173.74H59.8984V174.642H61.0167V180.667H62.0809V174.642H63.6321V173.74ZM65.1236 180.667H66.1878V173.74H65.1236V180.667ZM65.6647 172.586C66.0796 172.586 66.4223 172.261 66.4223 171.864C66.4223 171.468 66.0796 171.143 65.6647 171.143C65.2499 171.143 64.9072 171.468 64.9072 171.864C64.9072 172.261 65.2499 172.586 65.6647 172.586ZM70.9509 180.811C72.484 180.811 73.4941 179.873 73.6745 178.647H72.6103C72.4119 179.404 71.7806 179.855 70.9509 179.855C69.6882 179.855 68.8765 178.809 68.8765 177.204C68.8765 175.634 69.7063 174.606 70.9509 174.606C71.8888 174.606 72.448 175.183 72.6103 175.815H73.6745C73.4941 174.516 72.3939 173.65 70.9328 173.65C69.0569 173.65 67.8123 175.129 67.8123 177.24C67.8123 179.314 69.0028 180.811 70.9509 180.811ZM79.5953 177.835C79.5953 179.134 78.6033 179.729 77.8096 179.729C76.9258 179.729 76.2945 179.079 76.2945 178.069V173.74H75.2303V178.141C75.2303 179.909 76.1682 180.757 77.4669 180.757C78.5131 180.757 79.1985 180.198 79.5232 179.494H79.5953V180.667H80.6596V173.74H79.5953V177.835ZM83.6729 171.432H82.6087V180.667H83.6729V171.432ZM88.6344 173.74H87.1553V172.081H86.0911V173.74H85.0449V174.642H86.0911V178.971C86.0911 180.18 87.0651 180.757 87.967 180.757C88.3638 180.757 88.6164 180.685 88.7607 180.631L88.5442 179.675C88.454 179.693 88.3097 179.729 88.0752 179.729C87.6063 179.729 87.1553 179.584 87.1553 178.683V174.642H88.6344V173.74ZM96.8189 173.74H95.3398V172.081H94.2756V173.74H93.2295V174.642H94.2756V178.971C94.2756 180.18 95.2497 180.757 96.1515 180.757C96.5484 180.757 96.8009 180.685 96.9452 180.631L96.7287 179.675C96.6385 179.693 96.4942 179.729 96.2598 179.729C95.7908 179.729 95.3398 179.584 95.3398 178.683V174.642H96.8189V173.74ZM101.159 180.811C103.035 180.811 104.298 179.386 104.298 177.24C104.298 175.075 103.035 173.65 101.159 173.65C99.2833 173.65 98.0207 175.075 98.0207 177.24C98.0207 179.386 99.2833 180.811 101.159 180.811ZM101.159 179.855C99.7342 179.855 99.0849 178.629 99.0849 177.24C99.0849 175.851 99.7342 174.606 101.159 174.606C102.584 174.606 103.234 175.851 103.234 177.24C103.234 178.629 102.584 179.855 101.159 179.855ZM109.494 183.264H110.558V179.603H110.648C110.883 179.981 111.333 180.811 112.668 180.811C114.4 180.811 115.608 179.422 115.608 177.222C115.608 175.039 114.4 173.65 112.65 173.65C111.297 173.65 110.883 174.48 110.648 174.841H110.522V173.74H109.494V183.264ZM110.54 177.204C110.54 175.652 111.225 174.606 112.524 174.606C113.877 174.606 114.544 175.743 114.544 177.204C114.544 178.683 113.859 179.855 112.524 179.855C111.243 179.855 110.54 178.773 110.54 177.204ZM117.232 180.667H118.296V176.284C118.296 175.346 119.036 174.66 120.046 174.66C120.33 174.66 120.623 174.714 120.695 174.732V173.65C120.573 173.641 120.294 173.632 120.136 173.632C119.306 173.632 118.585 174.101 118.332 174.787H118.26V173.74H117.232V180.667ZM124.559 180.811C126.435 180.811 127.698 179.386 127.698 177.24C127.698 175.075 126.435 173.65 124.559 173.65C122.684 173.65 121.421 175.075 121.421 177.24C121.421 179.386 122.684 180.811 124.559 180.811ZM124.559 179.855C123.135 179.855 122.485 178.629 122.485 177.24C122.485 175.851 123.135 174.606 124.559 174.606C125.984 174.606 126.634 175.851 126.634 177.24C126.634 178.629 125.984 179.855 124.559 179.855ZM132.136 180.811C133.67 180.811 134.68 179.873 134.86 178.647H133.796C133.597 179.404 132.966 179.855 132.136 179.855C130.874 179.855 130.062 178.809 130.062 177.204C130.062 175.634 130.892 174.606 132.136 174.606C133.074 174.606 133.633 175.183 133.796 175.815H134.86C134.68 174.516 133.579 173.65 132.118 173.65C130.242 173.65 128.998 175.129 128.998 177.24C128.998 179.314 130.188 180.811 132.136 180.811ZM140.781 177.835C140.781 179.134 139.789 179.729 138.995 179.729C138.111 179.729 137.48 179.079 137.48 178.069V173.74H136.416V178.141C136.416 179.909 137.354 180.757 138.652 180.757C139.699 180.757 140.384 180.198 140.709 179.494H140.781V180.667H141.845V173.74H140.781V177.835ZM143.794 180.667H144.858V176.284C144.858 175.346 145.598 174.66 146.608 174.66C146.892 174.66 147.185 174.714 147.257 174.732V173.65C147.136 173.641 146.856 173.632 146.698 173.632C145.869 173.632 145.147 174.101 144.895 174.787H144.822V173.74H143.794V180.667ZM151.212 180.811C152.619 180.811 153.647 180.108 153.972 179.061L152.944 178.773C152.673 179.494 152.046 179.855 151.212 179.855C149.963 179.855 149.102 179.048 149.052 177.564H154.08V177.113C154.08 174.534 152.547 173.65 151.104 173.65C149.228 173.65 147.983 175.129 147.983 177.258C147.983 179.386 149.21 180.811 151.212 180.811ZM149.052 176.644C149.124 175.567 149.886 174.606 151.104 174.606C152.258 174.606 152.998 175.472 152.998 176.644H149.052ZM159.27 180.667H160.335V173.74H159.27V180.667ZM159.812 172.586C160.226 172.586 160.569 172.261 160.569 171.864C160.569 171.468 160.226 171.143 159.812 171.143C159.397 171.143 159.054 171.468 159.054 171.864C159.054 172.261 159.397 172.586 159.812 172.586ZM163.348 176.5C163.348 175.292 164.097 174.606 165.116 174.606C166.103 174.606 166.703 175.251 166.703 176.338V180.667H167.767V176.266C167.767 174.498 166.825 173.65 165.422 173.65C164.376 173.65 163.727 174.119 163.402 174.823H163.312V173.74H162.284V180.667H163.348V176.5ZM172.508 183.408C174.167 183.408 175.502 182.651 175.502 180.865V173.74H174.474V174.841H174.366C174.131 174.48 173.698 173.65 172.345 173.65C170.596 173.65 169.387 175.039 169.387 177.167C169.387 179.332 170.65 180.559 172.327 180.559C173.68 180.559 174.113 179.765 174.348 179.386H174.438V180.793C174.438 181.947 173.626 182.47 172.508 182.47C171.25 182.47 170.808 181.808 170.524 181.424L169.676 182.02C170.109 182.746 170.961 183.408 172.508 183.408ZM172.472 179.603C171.137 179.603 170.451 178.592 170.451 177.149C170.451 175.743 171.119 174.606 172.472 174.606C173.77 174.606 174.456 175.652 174.456 177.149C174.456 178.683 173.752 179.603 172.472 179.603ZM177.45 180.667H178.514V176.284C178.514 175.346 179.254 174.66 180.264 174.66C180.548 174.66 180.841 174.714 180.913 174.732V173.65C180.791 173.641 180.512 173.632 180.354 173.632C179.524 173.632 178.803 174.101 178.55 174.787H178.478V173.74H177.45V180.667ZM184.868 180.811C186.275 180.811 187.303 180.108 187.628 179.061L186.6 178.773C186.329 179.494 185.702 179.855 184.868 179.855C183.619 179.855 182.758 179.048 182.708 177.564H187.736V177.113C187.736 174.534 186.203 173.65 184.76 173.65C182.884 173.65 181.639 175.129 181.639 177.258C181.639 179.386 182.866 180.811 184.868 180.811ZM182.708 176.644C182.78 175.567 183.542 174.606 184.76 174.606C185.914 174.606 186.654 175.472 186.654 176.644H182.708ZM191.97 180.811C193.305 180.811 193.756 179.981 193.99 179.603H194.117V180.667H195.145V171.432H194.081V174.841H193.99C193.756 174.48 193.341 173.65 191.988 173.65C190.239 173.65 189.03 175.039 189.03 177.222C189.03 179.422 190.239 180.811 191.97 180.811ZM192.115 179.855C190.78 179.855 190.094 178.683 190.094 177.204C190.094 175.743 190.762 174.606 192.115 174.606C193.413 174.606 194.099 175.652 194.099 177.204C194.099 178.773 193.395 179.855 192.115 179.855ZM197.242 180.667H198.306V173.74H197.242V180.667ZM197.783 172.586C198.198 172.586 198.54 172.261 198.54 171.864C198.54 171.468 198.198 171.143 197.783 171.143C197.368 171.143 197.025 171.468 197.025 171.864C197.025 172.261 197.368 172.586 197.783 172.586ZM203.159 180.811C204.566 180.811 205.594 180.108 205.919 179.061L204.891 178.773C204.62 179.494 203.993 179.855 203.159 179.855C201.91 179.855 201.049 179.048 200.999 177.564H206.027V177.113C206.027 174.534 204.494 173.65 203.051 173.65C201.175 173.65 199.93 175.129 199.93 177.258C199.93 179.386 201.157 180.811 203.159 180.811ZM200.999 176.644C201.071 175.567 201.833 174.606 203.051 174.606C204.205 174.606 204.945 175.472 204.945 176.644H200.999ZM208.71 176.5C208.71 175.292 209.459 174.606 210.478 174.606C211.465 174.606 212.065 175.251 212.065 176.338V180.667H213.129V176.266C213.129 174.498 212.187 173.65 210.784 173.65C209.738 173.65 209.089 174.119 208.764 174.823H208.674V173.74H207.646V180.667H208.71V176.5ZM218.086 173.74H216.607V172.081H215.543V173.74H214.497V174.642H215.543V178.971C215.543 180.18 216.517 180.757 217.419 180.757C217.816 180.757 218.068 180.685 218.213 180.631L217.996 179.675C217.906 179.693 217.762 179.729 217.527 179.729C217.058 179.729 216.607 179.584 216.607 178.683V174.642H218.086V173.74ZM224.469 175.292C224.136 174.309 223.387 173.65 222.016 173.65C220.555 173.65 219.473 174.48 219.473 175.652C219.473 176.608 220.041 177.249 221.313 177.546L222.467 177.817C223.166 177.979 223.495 178.313 223.495 178.791C223.495 179.386 222.864 179.873 221.872 179.873C221.002 179.873 220.456 179.499 220.267 178.755L219.256 179.007C219.504 180.184 220.474 180.811 221.89 180.811C223.5 180.811 224.596 179.932 224.596 178.737C224.596 177.772 223.991 177.163 222.756 176.861L221.728 176.608C220.907 176.405 220.537 176.13 220.537 175.598C220.537 175.003 221.168 174.57 222.016 174.57C222.945 174.57 223.328 175.084 223.513 175.562L224.469 175.292ZM48.7377 194.292C48.404 193.309 47.6554 192.65 46.2846 192.65C44.8235 192.65 43.7413 193.48 43.7413 194.652C43.7413 195.608 44.3094 196.249 45.5811 196.546L46.7355 196.817C47.4344 196.979 47.7636 197.313 47.7636 197.791C47.7636 198.386 47.1323 198.873 46.1403 198.873C45.2699 198.873 44.7243 198.499 44.5349 197.755L43.5248 198.007C43.7728 199.184 44.7423 199.811 46.1583 199.811C47.7681 199.811 48.8639 198.932 48.8639 197.737C48.8639 196.772 48.2597 196.163 47.0241 195.861L45.996 195.608C45.1752 195.405 44.8055 195.13 44.8055 194.598C44.8055 194.003 45.4368 193.57 46.2846 193.57C47.2135 193.57 47.5968 194.084 47.7817 194.562L48.7377 194.292ZM53.2797 199.811C55.1556 199.811 56.4183 198.386 56.4183 196.24C56.4183 194.075 55.1556 192.65 53.2797 192.65C51.4038 192.65 50.1412 194.075 50.1412 196.24C50.1412 198.386 51.4038 199.811 53.2797 199.811ZM53.2797 198.855C51.8548 198.855 51.2054 197.629 51.2054 196.24C51.2054 194.851 51.8548 193.606 53.2797 193.606C54.7047 193.606 55.354 194.851 55.354 196.24C55.354 197.629 54.7047 198.855 53.2797 198.855ZM58.0428 199.667H59.107V195.338C59.107 194.323 59.8465 193.606 60.6762 193.606C61.4834 193.606 62.0471 194.134 62.0471 194.923V199.667H63.1293V195.157C63.1293 194.265 63.6885 193.606 64.6625 193.606C65.4201 193.606 66.0695 194.007 66.0695 195.031V199.667H67.1337V195.031C67.1337 193.403 66.2588 192.65 65.0233 192.65C64.0312 192.65 63.3052 193.106 62.949 193.823H62.8768C62.5341 193.083 61.9298 192.65 61.019 192.65C60.1171 192.65 59.4497 193.083 59.1611 193.823H59.0709V192.74H58.0428V199.667ZM71.9835 199.811C73.3904 199.811 74.4186 199.108 74.7432 198.061L73.7151 197.773C73.4445 198.494 72.8177 198.855 71.9835 198.855C70.7344 198.855 69.8731 198.048 69.8235 196.564H74.8515V196.113C74.8515 193.534 73.3183 192.65 71.8753 192.65C69.9994 192.65 68.7548 194.129 68.7548 196.258C68.7548 198.386 69.9813 199.811 71.9835 199.811ZM69.8235 195.644C69.8957 194.567 70.6577 193.606 71.8753 193.606C73.0297 193.606 73.7692 194.472 73.7692 195.644H69.8235ZM79.4826 192.74H78.0035V191.081H76.9393V192.74H75.8931V193.642H76.9393V197.971C76.9393 199.18 77.9133 199.757 78.8152 199.757C79.212 199.757 79.4646 199.685 79.6089 199.631L79.3924 198.675C79.3022 198.693 79.1579 198.729 78.9234 198.729C78.4545 198.729 78.0035 198.584 78.0035 197.683V193.642H79.4826V192.74ZM81.0834 199.667H82.1476V192.74H81.0834V199.667ZM81.6246 191.586C82.0394 191.586 82.3821 191.261 82.3821 190.864C82.3821 190.468 82.0394 190.143 81.6246 190.143C81.2097 190.143 80.867 190.468 80.867 190.864C80.867 191.261 81.2097 191.586 81.6246 191.586ZM84.0968 199.667H85.161V195.338C85.161 194.323 85.9006 193.606 86.7303 193.606C87.5375 193.606 88.1012 194.134 88.1012 194.923V199.667H89.1834V195.157C89.1834 194.265 89.7426 193.606 90.7166 193.606C91.4742 193.606 92.1235 194.007 92.1235 195.031V199.667H93.1877V195.031C93.1877 193.403 92.3129 192.65 91.0773 192.65C90.0853 192.65 89.3593 193.106 89.003 193.823H88.9309C88.5882 193.083 87.9839 192.65 87.073 192.65C86.1711 192.65 85.5038 193.083 85.2152 193.823H85.125V192.74H84.0968V199.667ZM98.0376 199.811C99.4445 199.811 100.473 199.108 100.797 198.061L99.7692 197.773C99.4986 198.494 98.8718 198.855 98.0376 198.855C96.7885 198.855 95.9272 198.048 95.8776 196.564H100.906V196.113C100.906 193.534 99.3724 192.65 97.9293 192.65C96.0534 192.65 94.8089 194.129 94.8089 196.258C94.8089 198.386 96.0354 199.811 98.0376 199.811ZM95.8776 195.644C95.9497 194.567 96.7118 193.606 97.9293 193.606C99.0838 193.606 99.8233 194.472 99.8233 195.644H95.8776ZM107.431 194.292C107.097 193.309 106.348 192.65 104.978 192.65C103.516 192.65 102.434 193.48 102.434 194.652C102.434 195.608 103.002 196.249 104.274 196.546L105.428 196.817C106.127 196.979 106.457 197.313 106.457 197.791C106.457 198.386 105.825 198.873 104.833 198.873C103.963 198.873 103.417 198.499 103.228 197.755L102.218 198.007C102.466 199.184 103.435 199.811 104.851 199.811C106.461 199.811 107.557 198.932 107.557 197.737C107.557 196.772 106.953 196.163 105.717 195.861L104.689 195.608C103.868 195.405 103.498 195.13 103.498 194.598C103.498 194.003 104.13 193.57 104.978 193.57C105.906 193.57 106.29 194.084 106.475 194.562L107.431 194.292Z" fill="black"/>
<path d="M24.9472 48.7461H27.0384V44.8455H29.248C31.9142 44.8455 33.3459 43.2447 33.3459 41.0238C33.3459 38.8198 31.9311 37.2021 29.2762 37.2021H24.9472V48.7461ZM27.0384 43.1263V38.9495H28.9549C30.5219 38.9495 31.2153 39.795 31.2153 41.0238C31.2153 42.2526 30.5219 43.1263 28.9662 43.1263H27.0384ZM37.4086 48.9208C38.7671 48.9208 39.5787 48.2839 39.9508 47.5567H40.0184V48.7461H41.98V42.9515C41.98 40.663 40.1142 39.9753 38.4627 39.9753C36.642 39.9753 35.2441 40.787 34.7932 42.3653L36.6984 42.6359C36.9013 42.044 37.4762 41.5367 38.4739 41.5367C39.4209 41.5367 39.9395 42.0215 39.9395 42.8726V42.9064C39.9395 43.4927 39.3251 43.5208 37.7975 43.6843C36.1178 43.8647 34.5113 44.3664 34.5113 46.3167C34.5113 48.019 35.757 48.9208 37.4086 48.9208ZM37.9385 47.4215C37.0873 47.4215 36.4785 47.0325 36.4785 46.2828C36.4785 45.4993 37.1606 45.1724 38.0737 45.0428C38.6092 44.9695 39.6802 44.8342 39.9451 44.62V45.6403C39.9451 46.6041 39.1673 47.4215 37.9385 47.4215ZM44.0318 48.7461H46.0722V40.0881H44.0318V48.7461ZM45.0576 38.8593C45.7059 38.8593 46.2357 38.3632 46.2357 37.7545C46.2357 37.1401 45.7059 36.644 45.0576 36.644C44.4038 36.644 43.8739 37.1401 43.8739 37.7545C43.8739 38.3632 44.4038 38.8593 45.0576 38.8593ZM50.211 43.673C50.211 42.4217 50.9663 41.7002 52.0429 41.7002C53.097 41.7002 53.7283 42.3935 53.7283 43.549V48.7461H55.7688V43.2334C55.7745 41.1591 54.5907 39.9753 52.8039 39.9753C51.5075 39.9753 50.6169 40.5954 50.2223 41.5593H50.1208V40.0881H48.1705V48.7461H50.211V43.673ZM61.8706 48.7461H63.9618V44.8455H66.1714C68.8376 44.8455 70.2693 43.2447 70.2693 41.0238C70.2693 38.8198 68.8545 37.2021 66.1996 37.2021H61.8706V48.7461ZM63.9618 43.1263V38.9495H65.8783C67.4453 38.9495 68.1386 39.795 68.1386 41.0238C68.1386 42.2526 67.4453 43.1263 65.8896 43.1263H63.9618ZM75.6481 48.9152C78.1847 48.9152 79.7968 47.1284 79.7968 44.4509C79.7968 41.7678 78.1847 39.9753 75.6481 39.9753C73.1116 39.9753 71.4995 41.7678 71.4995 44.4509C71.4995 47.1284 73.1116 48.9152 75.6481 48.9152ZM75.6594 47.2805C74.2559 47.2805 73.5682 46.0292 73.5682 44.4453C73.5682 42.8614 74.2559 41.5931 75.6594 41.5931C77.0404 41.5931 77.7281 42.8614 77.7281 44.4453C77.7281 46.0292 77.0404 47.2805 75.6594 47.2805ZM81.5287 48.7461H83.5691V40.0881H81.5287V48.7461ZM82.5545 38.8593C83.2028 38.8593 83.7326 38.3632 83.7326 37.7545C83.7326 37.1401 83.2028 36.644 82.5545 36.644C81.9007 36.644 81.3708 37.1401 81.3708 37.7545C81.3708 38.3632 81.9007 38.8593 82.5545 38.8593ZM87.7079 43.673C87.7079 42.4217 88.4632 41.7002 89.5399 41.7002C90.5939 41.7002 91.2252 42.3935 91.2252 43.549V48.7461H93.2657V43.2334C93.2714 41.1591 92.0877 39.9753 90.3008 39.9753C89.0044 39.9753 88.1138 40.5954 87.7192 41.5593H87.6177V40.0881H85.6674V48.7461H87.7079V43.673ZM99.6634 40.0881H97.9555V38.0138H95.915V40.0881H94.6862V41.6664H95.915V46.4801C95.9037 48.1091 97.0874 48.9096 98.6206 48.8645C99.2012 48.8476 99.6014 48.7348 99.8212 48.6615L99.4774 47.0663C99.3647 47.0945 99.1336 47.1453 98.8799 47.1453C98.367 47.1453 97.9555 46.9649 97.9555 46.1419V41.6664H99.6634V40.0881ZM108.089 42.3766C107.807 40.911 106.635 39.9753 104.605 39.9753C102.52 39.9753 101.099 41.0012 101.105 42.6021C101.099 43.8647 101.877 44.6989 103.54 45.0428L105.017 45.3528C105.812 45.5275 106.184 45.8488 106.184 46.3392C106.184 46.9311 105.541 47.3764 104.572 47.3764C103.636 47.3764 103.027 46.9705 102.852 46.1927L100.863 46.3843C101.116 47.9739 102.452 48.9152 104.577 48.9152C106.742 48.9152 108.269 47.7935 108.275 46.1532C108.269 44.9188 107.474 44.1634 105.84 43.8083L104.363 43.4927C103.484 43.2954 103.134 42.991 103.14 42.4893C103.134 41.9031 103.782 41.4973 104.634 41.4973C105.575 41.4973 106.071 42.0102 106.229 42.5795L108.089 42.3766Z" fill="black"/>
<path d="M114.537 42.9741C114.537 45.815 115.304 48.1824 116.679 50.1891H117.852C116.769 48.701 115.913 45.6572 115.913 42.9741C115.913 40.291 116.769 37.2472 117.852 35.7591H116.679C115.304 37.7658 114.537 40.1332 114.537 42.9741ZM120.469 37.2021H119.003L123.242 48.7461H124.685L128.924 37.2021H127.458L124.031 46.9198H123.896L120.469 37.2021ZM132.283 48.949C133.794 48.949 134.583 48.1373 134.853 47.5737H134.921V48.7461H136.251V43.0417C136.251 40.291 134.155 39.9753 133.05 39.9753C131.742 39.9753 130.254 40.4263 129.578 42.0046L130.84 42.4555C131.133 41.8242 131.827 41.1478 133.095 41.1478C134.318 41.1478 134.921 41.796 134.921 42.9064V42.9515C134.921 43.5941 134.267 43.5378 132.689 43.7407C131.083 43.9492 129.329 44.3044 129.329 46.2885C129.329 47.9795 130.637 48.949 132.283 48.949ZM132.486 47.754C131.426 47.754 130.66 47.2805 130.66 46.3561C130.66 45.3415 131.584 45.0259 132.621 44.8906C133.185 44.8229 134.696 44.6651 134.921 44.3945V45.6121C134.921 46.6943 134.064 47.754 132.486 47.754ZM140.01 37.2021H138.679V48.7461H140.01V37.2021ZM142.446 48.7461H143.776V40.0881H142.446V48.7461ZM143.123 38.6451C143.641 38.6451 144.07 38.2392 144.07 37.7432C144.07 37.2472 143.641 36.8413 143.123 36.8413C142.604 36.8413 142.176 37.2472 142.176 37.7432C142.176 38.2392 142.604 38.6451 143.123 38.6451ZM149.482 48.9265C151.151 48.9265 151.714 47.8893 152.007 47.4158H152.165V48.7461H153.45V37.2021H152.12V41.4634H152.007C151.714 41.0125 151.196 39.9753 149.505 39.9753C147.318 39.9753 145.807 41.7115 145.807 44.4396C145.807 47.1904 147.318 48.9265 149.482 48.9265ZM149.663 47.7315C147.994 47.7315 147.137 46.2659 147.137 44.4171C147.137 42.5908 147.972 41.1703 149.663 41.1703C151.286 41.1703 152.143 42.4781 152.143 44.4171C152.143 46.3787 151.263 47.7315 149.663 47.7315ZM158.619 48.949C160.13 48.949 160.919 48.1373 161.19 47.5737H161.257V48.7461H162.588V43.0417C162.588 40.291 160.491 39.9753 159.386 39.9753C158.078 39.9753 156.59 40.4263 155.914 42.0046L157.176 42.4555C157.469 41.8242 158.163 41.1478 159.431 41.1478C160.654 41.1478 161.257 41.796 161.257 42.9064V42.9515C161.257 43.5941 160.603 43.5378 159.025 43.7407C157.419 43.9492 155.666 44.3044 155.666 46.2885C155.666 47.9795 156.973 48.949 158.619 48.949ZM158.822 47.754C157.763 47.754 156.996 47.2805 156.996 46.3561C156.996 45.3415 157.92 45.0259 158.958 44.8906C159.521 44.8229 161.032 44.6651 161.257 44.3945V45.6121C161.257 46.6943 160.401 47.754 158.822 47.754ZM168.781 40.0881H166.932V38.0138H165.602V40.0881H164.294V41.2154H165.602V46.6267C165.602 48.1373 166.819 48.8588 167.947 48.8588C168.443 48.8588 168.758 48.7686 168.939 48.701L168.668 47.506C168.555 47.5286 168.375 47.5737 168.082 47.5737C167.496 47.5737 166.932 47.3933 166.932 46.2659V41.2154H168.781V40.0881ZM174.319 48.9265C176.078 48.9265 177.363 48.0471 177.769 46.7394L176.484 46.3787C176.145 47.2805 175.362 47.7315 174.319 47.7315C172.758 47.7315 171.681 46.7225 171.619 44.868H177.904V44.3044C177.904 41.0801 175.987 39.9753 174.184 39.9753C171.839 39.9753 170.283 41.8242 170.283 44.4847C170.283 47.1453 171.816 48.9265 174.319 48.9265ZM171.619 43.7181C171.709 42.371 172.662 41.1703 174.184 41.1703C175.627 41.1703 176.551 42.2526 176.551 43.7181H171.619ZM183.197 48.9265C184.865 48.9265 185.429 47.8893 185.722 47.4158H185.88V48.7461H187.165V37.2021H185.835V41.4634H185.722C185.429 41.0125 184.91 39.9753 183.219 39.9753C181.032 39.9753 179.522 41.7115 179.522 44.4396C179.522 47.1904 181.032 48.9265 183.197 48.9265ZM183.377 47.7315C181.709 47.7315 180.852 46.2659 180.852 44.4171C180.852 42.5908 181.686 41.1703 183.377 41.1703C185.001 41.1703 185.857 42.4781 185.857 44.4171C185.857 46.3787 184.978 47.7315 183.377 47.7315ZM192.627 43.876C192.627 41.0351 191.86 38.6676 190.485 36.661H189.313C190.395 38.1491 191.252 41.1929 191.252 43.876C191.252 46.559 190.395 49.6029 189.313 51.091H190.485C191.86 49.0843 192.627 46.7169 192.627 43.876Z" fill="#FF8A00"/>
<rect x="0.793651" y="0.793651" width="298.413" height="223.81" rx="3.1746" stroke="#FAFAFA" stroke-width="1.5873"/>
</svg>
