<svg width="378" height="284" viewBox="0 0 378 284" fill="none" xmlns="http://www.w3.org/2000/svg">
<path d="M0 5.00001C0 2.23858 2.23858 0 5 0H373C375.761 0 378 2.23858 378 5V279C378 281.761 375.761 284 373 284H5C2.23858 284 0 281.761 0 279V5.00001Z" fill="white"/>
<path d="M34.5 118.864C35.8807 118.864 37 117.744 37 116.364C37 114.983 35.8807 113.864 34.5 113.864C33.1193 113.864 32 114.983 32 116.364C32 117.744 33.1193 118.864 34.5 118.864Z" fill="black"/>
<path d="M59 121C62.5455 121 64.5455 118.795 64.5455 115.159C64.5455 111.545 62.5455 109.364 59.1591 109.364H55.4091V121H59ZM56.8182 119.75V110.614H59.0682C61.7955 110.614 63.1818 112.341 63.1818 115.159C63.1818 118 61.7955 119.75 58.9091 119.75H56.8182ZM66.7273 121H68.0682V112.273H66.7273V121ZM67.4091 110.818C67.9318 110.818 68.3636 110.409 68.3636 109.909C68.3636 109.409 67.9318 109 67.4091 109C66.8864 109 66.4545 109.409 66.4545 109.909C66.4545 110.409 66.8864 110.818 67.4091 110.818ZM74.4105 112.273H72.456V111.386C72.456 110.523 72.8196 110.068 73.706 110.068C74.0923 110.068 74.3196 110.159 74.456 110.205L74.8423 109.045C74.6378 108.955 74.2287 108.818 73.5696 108.818C72.3196 108.818 71.1151 109.568 71.1151 111.068V112.273H69.706V113.409H71.1151V121H72.456V113.409H74.4105V112.273ZM80.1761 112.273H78.2216V111.386C78.2216 110.523 78.5852 110.068 79.4716 110.068C79.858 110.068 80.0852 110.159 80.2216 110.205L80.608 109.045C80.4034 108.955 79.9943 108.818 79.3352 108.818C78.0852 108.818 76.8807 109.568 76.8807 111.068V112.273H75.4716V113.409H76.8807V121H78.2216V113.409H80.1761V112.273ZM82.0554 121H83.3963V112.273H82.0554V121ZM82.7372 110.818C83.2599 110.818 83.6918 110.409 83.6918 109.909C83.6918 109.409 83.2599 109 82.7372 109C82.2145 109 81.7827 109.409 81.7827 109.909C81.7827 110.409 82.2145 110.818 82.7372 110.818ZM89.3977 121.182C91.3295 121.182 92.6023 120 92.8295 118.455H91.4886C91.2386 119.409 90.4432 119.977 89.3977 119.977C87.8068 119.977 86.7841 118.659 86.7841 116.636C86.7841 114.659 87.8295 113.364 89.3977 113.364C90.5795 113.364 91.2841 114.091 91.4886 114.886H92.8295C92.6023 113.25 91.2159 112.159 89.375 112.159C87.0114 112.159 85.4432 114.023 85.4432 116.682C85.4432 119.295 86.9432 121.182 89.3977 121.182ZM100.29 117.432C100.29 119.068 99.0398 119.818 98.0398 119.818C96.9261 119.818 96.1307 119 96.1307 117.727V112.273H94.7898V117.818C94.7898 120.045 95.9716 121.114 97.608 121.114C98.9261 121.114 99.7898 120.409 100.199 119.523H100.29V121H101.631V112.273H100.29V117.432ZM105.428 109.364H104.087V121H105.428V109.364ZM111.679 112.273H109.815V110.182H108.474V112.273H107.156V113.409H108.474V118.864C108.474 120.386 109.702 121.114 110.838 121.114C111.338 121.114 111.656 121.023 111.838 120.955L111.565 119.75C111.452 119.773 111.27 119.818 110.974 119.818C110.384 119.818 109.815 119.636 109.815 118.5V113.409H111.679V112.273ZM114.56 124.273C115.77 124.273 116.622 123.631 117.128 122.273L120.844 112.295L119.378 112.273L116.969 119.227H116.878L114.469 112.273H113.014L116.241 121.045L115.991 121.727C115.503 123.057 114.901 123.182 113.923 122.932L113.582 124.114C113.719 124.182 114.105 124.273 114.56 124.273ZM130.913 112.273H129.05V110.182H127.709V112.273H126.391V113.409H127.709V118.864C127.709 120.386 128.936 121.114 130.072 121.114C130.572 121.114 130.891 121.023 131.072 120.955L130.8 119.75C130.686 119.773 130.504 119.818 130.209 119.818C129.618 119.818 129.05 119.636 129.05 118.5V113.409H130.913V112.273ZM136.382 121.182C138.746 121.182 140.337 119.386 140.337 116.682C140.337 113.955 138.746 112.159 136.382 112.159C134.018 112.159 132.428 113.955 132.428 116.682C132.428 119.386 134.018 121.182 136.382 121.182ZM136.382 119.977C134.587 119.977 133.768 118.432 133.768 116.682C133.768 114.932 134.587 113.364 136.382 113.364C138.178 113.364 138.996 114.932 138.996 116.682C138.996 118.432 138.178 119.977 136.382 119.977ZM146.884 121H148.224V115.545C148.224 114.267 149.156 113.364 150.202 113.364C151.219 113.364 151.929 114.028 151.929 115.023V121H153.293V115.318C153.293 114.193 153.997 113.364 155.224 113.364C156.179 113.364 156.997 113.869 156.997 115.159V121H158.338V115.159C158.338 113.108 157.236 112.159 155.679 112.159C154.429 112.159 153.514 112.733 153.065 113.636H152.974C152.543 112.705 151.781 112.159 150.634 112.159C149.497 112.159 148.656 112.705 148.293 113.636H148.179V112.273H146.884V121ZM163.358 121.205C164.881 121.205 165.676 120.386 165.949 119.818H166.017V121H167.358V115.25C167.358 112.477 165.244 112.159 164.131 112.159C162.812 112.159 161.312 112.614 160.631 114.205L161.903 114.659C162.199 114.023 162.898 113.341 164.176 113.341C165.409 113.341 166.017 113.994 166.017 115.114V115.159C166.017 115.807 165.358 115.75 163.767 115.955C162.148 116.165 160.381 116.523 160.381 118.523C160.381 120.227 161.699 121.205 163.358 121.205ZM163.562 120C162.494 120 161.722 119.523 161.722 118.591C161.722 117.568 162.653 117.25 163.699 117.114C164.267 117.045 165.79 116.886 166.017 116.614V117.841C166.017 118.932 165.153 120 163.562 120ZM173.601 112.273H171.737V110.182H170.396V112.273H169.078V113.409H170.396V118.864C170.396 120.386 171.624 121.114 172.76 121.114C173.26 121.114 173.578 121.023 173.76 120.955L173.487 119.75C173.374 119.773 173.192 119.818 172.896 119.818C172.305 119.818 171.737 119.636 171.737 118.5V113.409H173.601V112.273ZM179.07 121.182C181.001 121.182 182.274 120 182.501 118.455H181.161C180.911 119.409 180.115 119.977 179.07 119.977C177.479 119.977 176.456 118.659 176.456 116.636C176.456 114.659 177.501 113.364 179.07 113.364C180.251 113.364 180.956 114.091 181.161 114.886H182.501C182.274 113.25 180.888 112.159 179.047 112.159C176.683 112.159 175.115 114.023 175.115 116.682C175.115 119.295 176.615 121.182 179.07 121.182ZM185.803 115.75C185.803 114.227 186.774 113.364 188.098 113.364C189.359 113.364 190.121 114.159 190.121 115.545V121H191.462V115.455C191.462 113.21 190.268 112.159 188.484 112.159C187.109 112.159 186.325 112.733 185.916 113.636H185.803V109.364H184.462V121H185.803V115.75ZM202.21 112.273H200.347V110.182H199.006V112.273H197.688V113.409H199.006V118.864C199.006 120.386 200.233 121.114 201.369 121.114C201.869 121.114 202.188 121.023 202.369 120.955L202.097 119.75C201.983 119.773 201.801 119.818 201.506 119.818C200.915 119.818 200.347 119.636 200.347 118.5V113.409H202.21V112.273ZM205.756 115.75C205.756 114.227 206.727 113.364 208.051 113.364C209.312 113.364 210.074 114.159 210.074 115.545V121H211.415V115.455C211.415 113.21 210.222 112.159 208.438 112.159C207.062 112.159 206.278 112.733 205.869 113.636H205.756V109.364H204.415V121H205.756V115.75ZM217.527 121.182C219.3 121.182 220.595 120.295 221.004 118.977L219.709 118.614C219.368 119.523 218.578 119.977 217.527 119.977C215.953 119.977 214.868 118.96 214.805 117.091H221.141V116.523C221.141 113.273 219.209 112.159 217.391 112.159C215.027 112.159 213.459 114.023 213.459 116.705C213.459 119.386 215.004 121.182 217.527 121.182ZM214.805 115.932C214.896 114.574 215.857 113.364 217.391 113.364C218.845 113.364 219.777 114.455 219.777 115.932H214.805ZM233.862 114.227C233.442 112.989 232.499 112.159 230.771 112.159C228.93 112.159 227.567 113.205 227.567 114.682C227.567 115.886 228.283 116.693 229.885 117.068L231.339 117.409C232.22 117.614 232.635 118.034 232.635 118.636C232.635 119.386 231.839 120 230.589 120C229.493 120 228.805 119.528 228.567 118.591L227.294 118.909C227.607 120.392 228.828 121.182 230.612 121.182C232.641 121.182 234.021 120.074 234.021 118.568C234.021 117.352 233.26 116.585 231.703 116.205L230.408 115.886C229.374 115.631 228.908 115.284 228.908 114.614C228.908 113.864 229.703 113.318 230.771 113.318C231.942 113.318 232.425 113.966 232.658 114.568L233.862 114.227ZM236.04 124.273H237.381V119.659H237.494C237.79 120.136 238.358 121.182 240.04 121.182C242.222 121.182 243.744 119.432 243.744 116.659C243.744 113.909 242.222 112.159 240.017 112.159C238.312 112.159 237.79 113.205 237.494 113.659H237.335V112.273H236.04V124.273ZM237.358 116.636C237.358 114.682 238.222 113.364 239.858 113.364C241.562 113.364 242.403 114.795 242.403 116.636C242.403 118.5 241.54 119.977 239.858 119.977C238.244 119.977 237.358 118.614 237.358 116.636ZM249.449 121.182C251.222 121.182 252.517 120.295 252.926 118.977L251.631 118.614C251.29 119.523 250.5 119.977 249.449 119.977C247.875 119.977 246.79 118.96 246.727 117.091H253.062V116.523C253.062 113.273 251.131 112.159 249.312 112.159C246.949 112.159 245.381 114.023 245.381 116.705C245.381 119.386 246.926 121.182 249.449 121.182ZM246.727 115.932C246.818 114.574 247.778 113.364 249.312 113.364C250.767 113.364 251.699 114.455 251.699 115.932H246.727ZM258.761 121.182C260.534 121.182 261.83 120.295 262.239 118.977L260.943 118.614C260.602 119.523 259.812 119.977 258.761 119.977C257.188 119.977 256.102 118.96 256.04 117.091H262.375V116.523C262.375 113.273 260.443 112.159 258.625 112.159C256.261 112.159 254.693 114.023 254.693 116.705C254.693 119.386 256.239 121.182 258.761 121.182ZM256.04 115.932C256.131 114.574 257.091 113.364 258.625 113.364C260.08 113.364 261.011 114.455 261.011 115.932H256.04ZM267.71 121.182C269.392 121.182 269.96 120.136 270.256 119.659H270.415V121H271.71V109.364H270.369V113.659H270.256C269.96 113.205 269.438 112.159 267.733 112.159C265.528 112.159 264.006 113.909 264.006 116.659C264.006 119.432 265.528 121.182 267.71 121.182ZM267.892 119.977C266.21 119.977 265.347 118.5 265.347 116.636C265.347 114.795 266.188 113.364 267.892 113.364C269.528 113.364 270.392 114.682 270.392 116.636C270.392 118.614 269.506 119.977 267.892 119.977ZM282.398 121.182C284.761 121.182 286.352 119.386 286.352 116.682C286.352 113.955 284.761 112.159 282.398 112.159C280.034 112.159 278.443 113.955 278.443 116.682C278.443 119.386 280.034 121.182 282.398 121.182ZM282.398 119.977C280.602 119.977 279.784 118.432 279.784 116.682C279.784 114.932 280.602 113.364 282.398 113.364C284.193 113.364 285.011 114.932 285.011 116.682C285.011 118.432 284.193 119.977 282.398 119.977ZM292.286 112.273H290.331V111.386C290.331 110.523 290.695 110.068 291.581 110.068C291.967 110.068 292.195 110.159 292.331 110.205L292.717 109.045C292.513 108.955 292.104 108.818 291.445 108.818C290.195 108.818 288.99 109.568 288.99 111.068V112.273H287.581V113.409H288.99V121H290.331V113.409H292.286V112.273ZM302.46 112.273H300.597V110.182H299.256V112.273H297.938V113.409H299.256V118.864C299.256 120.386 300.483 121.114 301.619 121.114C302.119 121.114 302.438 121.023 302.619 120.955L302.347 119.75C302.233 119.773 302.051 119.818 301.756 119.818C301.165 119.818 300.597 119.636 300.597 118.5V113.409H302.46V112.273ZM306.006 115.75C306.006 114.227 306.977 113.364 308.301 113.364C309.562 113.364 310.324 114.159 310.324 115.545V121H311.665V115.455C311.665 113.21 310.472 112.159 308.688 112.159C307.312 112.159 306.528 112.733 306.119 113.636H306.006V109.364H304.665V121H306.006V115.75ZM317.777 121.182C319.55 121.182 320.845 120.295 321.254 118.977L319.959 118.614C319.618 119.523 318.828 119.977 317.777 119.977C316.203 119.977 315.118 118.96 315.055 117.091H321.391V116.523C321.391 113.273 319.459 112.159 317.641 112.159C315.277 112.159 313.709 114.023 313.709 116.705C313.709 119.386 315.254 121.182 317.777 121.182ZM315.055 115.932C315.146 114.574 316.107 113.364 317.641 113.364C319.095 113.364 320.027 114.455 320.027 115.932H315.055ZM54.4091 133.364L58.6136 140.205V145H60.0227V140.205L64.2273 133.364H62.6136L59.3864 138.795H59.25L56.0227 133.364H54.4091ZM68.179 145.182C70.5426 145.182 72.1335 143.386 72.1335 140.682C72.1335 137.955 70.5426 136.159 68.179 136.159C65.8153 136.159 64.2244 137.955 64.2244 140.682C64.2244 143.386 65.8153 145.182 68.179 145.182ZM68.179 143.977C66.3835 143.977 65.5653 142.432 65.5653 140.682C65.5653 138.932 66.3835 137.364 68.179 137.364C69.9744 137.364 70.7926 138.932 70.7926 140.682C70.7926 142.432 69.9744 143.977 68.179 143.977ZM79.6804 141.432C79.6804 143.068 78.4304 143.818 77.4304 143.818C76.3168 143.818 75.5213 143 75.5213 141.727V136.273H74.1804V141.818C74.1804 144.045 75.3622 145.114 76.9986 145.114C78.3168 145.114 79.1804 144.409 79.5895 143.523H79.6804V145H81.0213V136.273H79.6804V141.432ZM82.2102 134.614H85.8693V145H87.2784V134.614H90.9375V133.364H82.2102V134.614ZM97.2429 141.432C97.2429 143.068 95.9929 143.818 94.9929 143.818C93.8793 143.818 93.0838 143 93.0838 141.727V136.273H91.7429V141.818C91.7429 144.045 92.9247 145.114 94.5611 145.114C95.8793 145.114 96.7429 144.409 97.152 143.523H97.2429V145H98.5838V136.273H97.2429V141.432ZM101.222 145H102.517V143.659H102.676C102.972 144.136 103.54 145.182 105.222 145.182C107.403 145.182 108.926 143.432 108.926 140.659C108.926 137.909 107.403 136.159 105.199 136.159C103.494 136.159 102.972 137.205 102.676 137.659H102.562V133.364H101.222V145ZM102.54 140.636C102.54 138.682 103.403 137.364 105.04 137.364C106.744 137.364 107.585 138.795 107.585 140.636C107.585 142.5 106.722 143.977 105.04 143.977C103.426 143.977 102.54 142.614 102.54 140.636ZM114.636 145.182C116.409 145.182 117.705 144.295 118.114 142.977L116.818 142.614C116.477 143.523 115.688 143.977 114.636 143.977C113.062 143.977 111.977 142.96 111.915 141.091H118.25V140.523C118.25 137.273 116.318 136.159 114.5 136.159C112.136 136.159 110.568 138.023 110.568 140.705C110.568 143.386 112.114 145.182 114.636 145.182ZM111.915 139.932C112.006 138.574 112.966 137.364 114.5 137.364C115.955 137.364 116.886 138.455 116.886 139.932H111.915ZM128.585 136.273H126.722V134.182H125.381V136.273H124.062V137.409H125.381V142.864C125.381 144.386 126.608 145.114 127.744 145.114C128.244 145.114 128.562 145.023 128.744 144.955L128.472 143.75C128.358 143.773 128.176 143.818 127.881 143.818C127.29 143.818 126.722 143.636 126.722 142.5V137.409H128.585V136.273ZM136.102 141.432C136.102 143.068 134.852 143.818 133.852 143.818C132.739 143.818 131.943 143 131.943 141.727V136.273H130.602V141.818C130.602 144.045 131.784 145.114 133.42 145.114C134.739 145.114 135.602 144.409 136.011 143.523H136.102V145H137.443V136.273H136.102V141.432ZM143.695 136.273H141.831V134.182H140.49V136.273H139.172V137.409H140.49V142.864C140.49 144.386 141.717 145.114 142.854 145.114C143.354 145.114 143.672 145.023 143.854 144.955L143.581 143.75C143.467 143.773 143.286 143.818 142.99 143.818C142.399 143.818 141.831 143.636 141.831 142.5V137.409H143.695V136.273ZM149.163 145.182C151.527 145.182 153.118 143.386 153.118 140.682C153.118 137.955 151.527 136.159 149.163 136.159C146.8 136.159 145.209 137.955 145.209 140.682C145.209 143.386 146.8 145.182 149.163 145.182ZM149.163 143.977C147.368 143.977 146.55 142.432 146.55 140.682C146.55 138.932 147.368 137.364 149.163 137.364C150.959 137.364 151.777 138.932 151.777 140.682C151.777 142.432 150.959 143.977 149.163 143.977ZM155.165 145H156.506V139.477C156.506 138.295 157.438 137.432 158.71 137.432C159.068 137.432 159.438 137.5 159.528 137.523V136.159C159.375 136.148 159.023 136.136 158.824 136.136C157.778 136.136 156.869 136.727 156.551 137.591H156.46V136.273H155.165V145ZM161.118 145H162.459V136.273H161.118V145ZM161.8 134.818C162.322 134.818 162.754 134.409 162.754 133.909C162.754 133.409 162.322 133 161.8 133C161.277 133 160.845 133.409 160.845 133.909C160.845 134.409 161.277 134.818 161.8 134.818ZM167.483 145.205C169.006 145.205 169.801 144.386 170.074 143.818H170.142V145H171.483V139.25C171.483 136.477 169.369 136.159 168.256 136.159C166.938 136.159 165.438 136.614 164.756 138.205L166.028 138.659C166.324 138.023 167.023 137.341 168.301 137.341C169.534 137.341 170.142 137.994 170.142 139.114V139.159C170.142 139.807 169.483 139.75 167.892 139.955C166.273 140.165 164.506 140.523 164.506 142.523C164.506 144.227 165.824 145.205 167.483 145.205ZM167.688 144C166.619 144 165.847 143.523 165.847 142.591C165.847 141.568 166.778 141.25 167.824 141.114C168.392 141.045 169.915 140.886 170.142 140.614V141.841C170.142 142.932 169.278 144 167.688 144ZM175.271 133.364H173.93V145H175.271V133.364ZM183.909 138.227C183.489 136.989 182.545 136.159 180.818 136.159C178.977 136.159 177.614 137.205 177.614 138.682C177.614 139.886 178.33 140.693 179.932 141.068L181.386 141.409C182.267 141.614 182.682 142.034 182.682 142.636C182.682 143.386 181.886 144 180.636 144C179.54 144 178.852 143.528 178.614 142.591L177.341 142.909C177.653 144.392 178.875 145.182 180.659 145.182C182.688 145.182 184.068 144.074 184.068 142.568C184.068 141.352 183.307 140.585 181.75 140.205L180.455 139.886C179.42 139.631 178.955 139.284 178.955 138.614C178.955 137.864 179.75 137.318 180.818 137.318C181.989 137.318 182.472 137.966 182.705 138.568L183.909 138.227Z" fill="black"/>
<path d="M34.5 181.864C35.8807 181.864 37 180.744 37 179.364C37 177.983 35.8807 176.864 34.5 176.864C33.1193 176.864 32 177.983 32 179.364C32 180.744 33.1193 181.864 34.5 181.864Z" fill="black"/>
<path d="M54.7727 173.614H58.4318V184H59.8409V173.614H63.5V172.364H54.7727V173.614ZM67.7727 184.182C70.1364 184.182 71.7273 182.386 71.7273 179.682C71.7273 176.955 70.1364 175.159 67.7727 175.159C65.4091 175.159 63.8182 176.955 63.8182 179.682C63.8182 182.386 65.4091 184.182 67.7727 184.182ZM67.7727 182.977C65.9773 182.977 65.1591 181.432 65.1591 179.682C65.1591 177.932 65.9773 176.364 67.7727 176.364C69.5682 176.364 70.3864 177.932 70.3864 179.682C70.3864 181.432 69.5682 182.977 67.7727 182.977ZM77.3196 184.182C79.6832 184.182 81.2741 182.386 81.2741 179.682C81.2741 176.955 79.6832 175.159 77.3196 175.159C74.956 175.159 73.3651 176.955 73.3651 179.682C73.3651 182.386 74.956 184.182 77.3196 184.182ZM77.3196 182.977C75.5241 182.977 74.706 181.432 74.706 179.682C74.706 177.932 75.5241 176.364 77.3196 176.364C79.1151 176.364 79.9332 177.932 79.9332 179.682C79.9332 181.432 79.1151 182.977 77.3196 182.977ZM87.821 184H89.1619V178.545C89.1619 177.267 90.0938 176.364 91.1392 176.364C92.1562 176.364 92.8665 177.028 92.8665 178.023V184H94.2301V178.318C94.2301 177.193 94.9347 176.364 96.1619 176.364C97.1165 176.364 97.9347 176.869 97.9347 178.159V184H99.2756V178.159C99.2756 176.108 98.1733 175.159 96.6165 175.159C95.3665 175.159 94.4517 175.733 94.0028 176.636H93.9119C93.4801 175.705 92.7188 175.159 91.571 175.159C90.4347 175.159 89.5938 175.705 89.2301 176.636H89.1165V175.273H87.821V184ZM104.295 184.205C105.818 184.205 106.614 183.386 106.886 182.818H106.955V184H108.295V178.25C108.295 175.477 106.182 175.159 105.068 175.159C103.75 175.159 102.25 175.614 101.568 177.205L102.841 177.659C103.136 177.023 103.835 176.341 105.114 176.341C106.347 176.341 106.955 176.994 106.955 178.114V178.159C106.955 178.807 106.295 178.75 104.705 178.955C103.085 179.165 101.318 179.523 101.318 181.523C101.318 183.227 102.636 184.205 104.295 184.205ZM104.5 183C103.432 183 102.659 182.523 102.659 181.591C102.659 180.568 103.591 180.25 104.636 180.114C105.205 180.045 106.727 179.886 106.955 179.614V180.841C106.955 181.932 106.091 183 104.5 183ZM112.084 178.75C112.084 177.227 113.027 176.364 114.311 176.364C115.555 176.364 116.311 177.176 116.311 178.545V184H117.652V178.455C117.652 176.227 116.464 175.159 114.697 175.159C113.379 175.159 112.561 175.75 112.152 176.636H112.038V175.273H110.743V184H112.084V178.75ZM120.653 187.273C121.864 187.273 122.716 186.631 123.222 185.273L126.938 175.295L125.472 175.273L123.062 182.227H122.972L120.562 175.273H119.108L122.335 184.045L122.085 184.727C121.597 186.057 120.994 186.182 120.017 185.932L119.676 187.114C119.812 187.182 120.199 187.273 120.653 187.273ZM137.007 175.273H135.143V173.182H133.803V175.273H132.484V176.409H133.803V181.864C133.803 183.386 135.03 184.114 136.166 184.114C136.666 184.114 136.984 184.023 137.166 183.955L136.893 182.75C136.78 182.773 136.598 182.818 136.303 182.818C135.712 182.818 135.143 182.636 135.143 181.5V176.409H137.007V175.273ZM144.524 180.432C144.524 182.068 143.274 182.818 142.274 182.818C141.161 182.818 140.365 182 140.365 180.727V175.273H139.024V180.818C139.024 183.045 140.206 184.114 141.842 184.114C143.161 184.114 144.024 183.409 144.433 182.523H144.524V184H145.865V175.273H144.524V180.432ZM152.116 175.273H150.253V173.182H148.912V175.273H147.594V176.409H148.912V181.864C148.912 183.386 150.139 184.114 151.276 184.114C151.776 184.114 152.094 184.023 152.276 183.955L152.003 182.75C151.889 182.773 151.707 182.818 151.412 182.818C150.821 182.818 150.253 182.636 150.253 181.5V176.409H152.116V175.273ZM157.585 184.182C159.949 184.182 161.54 182.386 161.54 179.682C161.54 176.955 159.949 175.159 157.585 175.159C155.222 175.159 153.631 176.955 153.631 179.682C153.631 182.386 155.222 184.182 157.585 184.182ZM157.585 182.977C155.79 182.977 154.972 181.432 154.972 179.682C154.972 177.932 155.79 176.364 157.585 176.364C159.381 176.364 160.199 177.932 160.199 179.682C160.199 181.432 159.381 182.977 157.585 182.977ZM163.587 184H164.928V178.477C164.928 177.295 165.859 176.432 167.132 176.432C167.49 176.432 167.859 176.5 167.95 176.523V175.159C167.797 175.148 167.445 175.136 167.246 175.136C166.2 175.136 165.291 175.727 164.973 176.591H164.882V175.273H163.587V184ZM169.54 184H170.881V175.273H169.54V184ZM170.222 173.818C170.744 173.818 171.176 173.409 171.176 172.909C171.176 172.409 170.744 172 170.222 172C169.699 172 169.267 172.409 169.267 172.909C169.267 173.409 169.699 173.818 170.222 173.818ZM175.905 184.205C177.428 184.205 178.223 183.386 178.496 182.818H178.564V184H179.905V178.25C179.905 175.477 177.791 175.159 176.678 175.159C175.359 175.159 173.859 175.614 173.178 177.205L174.45 177.659C174.746 177.023 175.445 176.341 176.723 176.341C177.956 176.341 178.564 176.994 178.564 178.114V178.159C178.564 178.807 177.905 178.75 176.314 178.955C174.695 179.165 172.928 179.523 172.928 181.523C172.928 183.227 174.246 184.205 175.905 184.205ZM176.109 183C175.041 183 174.268 182.523 174.268 181.591C174.268 180.568 175.2 180.25 176.246 180.114C176.814 180.045 178.337 179.886 178.564 179.614V180.841C178.564 181.932 177.7 183 176.109 183ZM183.693 172.364H182.352V184H183.693V172.364ZM192.331 177.227C191.911 175.989 190.967 175.159 189.24 175.159C187.399 175.159 186.036 176.205 186.036 177.682C186.036 178.886 186.751 179.693 188.354 180.068L189.808 180.409C190.689 180.614 191.104 181.034 191.104 181.636C191.104 182.386 190.308 183 189.058 183C187.962 183 187.274 182.528 187.036 181.591L185.763 181.909C186.075 183.392 187.297 184.182 189.081 184.182C191.109 184.182 192.49 183.074 192.49 181.568C192.49 180.352 191.729 179.585 190.172 179.205L188.876 178.886C187.842 178.631 187.376 178.284 187.376 177.614C187.376 176.864 188.172 176.318 189.24 176.318C190.411 176.318 190.893 176.966 191.126 177.568L192.331 177.227ZM202.895 175.273H200.94V174.386C200.94 173.523 201.304 173.068 202.19 173.068C202.577 173.068 202.804 173.159 202.94 173.205L203.327 172.045C203.122 171.955 202.713 171.818 202.054 171.818C200.804 171.818 199.599 172.568 199.599 174.068V175.273H198.19V176.409H199.599V184H200.94V176.409H202.895V175.273ZM207.96 184.182C210.324 184.182 211.915 182.386 211.915 179.682C211.915 176.955 210.324 175.159 207.96 175.159C205.597 175.159 204.006 176.955 204.006 179.682C204.006 182.386 205.597 184.182 207.96 184.182ZM207.96 182.977C206.165 182.977 205.347 181.432 205.347 179.682C205.347 177.932 206.165 176.364 207.96 176.364C209.756 176.364 210.574 177.932 210.574 179.682C210.574 181.432 209.756 182.977 207.96 182.977ZM213.962 184H215.303V178.477C215.303 177.295 216.234 176.432 217.507 176.432C217.865 176.432 218.234 176.5 218.325 176.523V175.159C218.172 175.148 217.82 175.136 217.621 175.136C216.575 175.136 215.666 175.727 215.348 176.591H215.257V175.273H213.962V184ZM228.21 175.273H226.347V173.182H225.006V175.273H223.688V176.409H225.006V181.864C225.006 183.386 226.233 184.114 227.369 184.114C227.869 184.114 228.188 184.023 228.369 183.955L228.097 182.75C227.983 182.773 227.801 182.818 227.506 182.818C226.915 182.818 226.347 182.636 226.347 181.5V176.409H228.21V175.273ZM231.756 178.75C231.756 177.227 232.727 176.364 234.051 176.364C235.312 176.364 236.074 177.159 236.074 178.545V184H237.415V178.455C237.415 176.21 236.222 175.159 234.438 175.159C233.062 175.159 232.278 175.733 231.869 176.636H231.756V172.364H230.415V184H231.756V178.75ZM243.527 184.182C245.3 184.182 246.595 183.295 247.004 181.977L245.709 181.614C245.368 182.523 244.578 182.977 243.527 182.977C241.953 182.977 240.868 181.96 240.805 180.091H247.141V179.523C247.141 176.273 245.209 175.159 243.391 175.159C241.027 175.159 239.459 177.023 239.459 179.705C239.459 182.386 241.004 184.182 243.527 184.182ZM240.805 178.932C240.896 177.574 241.857 176.364 243.391 176.364C244.845 176.364 245.777 177.455 245.777 178.932H240.805ZM259.862 177.227C259.442 175.989 258.499 175.159 256.771 175.159C254.93 175.159 253.567 176.205 253.567 177.682C253.567 178.886 254.283 179.693 255.885 180.068L257.339 180.409C258.22 180.614 258.635 181.034 258.635 181.636C258.635 182.386 257.839 183 256.589 183C255.493 183 254.805 182.528 254.567 181.591L253.294 181.909C253.607 183.392 254.828 184.182 256.612 184.182C258.641 184.182 260.021 183.074 260.021 181.568C260.021 180.352 259.26 179.585 257.703 179.205L256.408 178.886C255.374 178.631 254.908 178.284 254.908 177.614C254.908 176.864 255.703 176.318 256.771 176.318C257.942 176.318 258.425 176.966 258.658 177.568L259.862 177.227ZM264.608 184.205C266.131 184.205 266.926 183.386 267.199 182.818H267.267V184H268.608V178.25C268.608 175.477 266.494 175.159 265.381 175.159C264.062 175.159 262.562 175.614 261.881 177.205L263.153 177.659C263.449 177.023 264.148 176.341 265.426 176.341C266.659 176.341 267.267 176.994 267.267 178.114V178.159C267.267 178.807 266.608 178.75 265.017 178.955C263.398 179.165 261.631 179.523 261.631 181.523C261.631 183.227 262.949 184.205 264.608 184.205ZM264.812 183C263.744 183 262.972 182.523 262.972 181.591C262.972 180.568 263.903 180.25 264.949 180.114C265.517 180.045 267.04 179.886 267.267 179.614V180.841C267.267 181.932 266.403 183 264.812 183ZM271.055 184H272.396V178.545C272.396 177.267 273.328 176.364 274.374 176.364C275.391 176.364 276.101 177.028 276.101 178.023V184H277.464V178.318C277.464 177.193 278.169 176.364 279.396 176.364C280.351 176.364 281.169 176.869 281.169 178.159V184H282.51V178.159C282.51 176.108 281.408 175.159 279.851 175.159C278.601 175.159 277.686 175.733 277.237 176.636H277.146C276.714 175.705 275.953 175.159 274.805 175.159C273.669 175.159 272.828 175.705 272.464 176.636H272.351V175.273H271.055V184ZM288.621 184.182C290.393 184.182 291.689 183.295 292.098 181.977L290.803 181.614C290.462 182.523 289.672 182.977 288.621 182.977C287.047 182.977 285.962 181.96 285.899 180.091H292.234V179.523C292.234 176.273 290.303 175.159 288.484 175.159C286.121 175.159 284.553 177.023 284.553 179.705C284.553 182.386 286.098 184.182 288.621 184.182ZM285.899 178.932C285.99 177.574 286.95 176.364 288.484 176.364C289.939 176.364 290.871 177.455 290.871 178.932H285.899ZM302.07 184.182C303.751 184.182 304.32 183.136 304.615 182.659H304.774V184H306.07V172.364H304.729V176.659H304.615C304.32 176.205 303.797 175.159 302.092 175.159C299.888 175.159 298.365 176.909 298.365 179.659C298.365 182.432 299.888 184.182 302.07 184.182ZM302.251 182.977C300.57 182.977 299.706 181.5 299.706 179.636C299.706 177.795 300.547 176.364 302.251 176.364C303.888 176.364 304.751 177.682 304.751 179.636C304.751 181.614 303.865 182.977 302.251 182.977ZM308.712 184H310.053V175.273H308.712V184ZM309.393 173.818C309.916 173.818 310.348 173.409 310.348 172.909C310.348 172.409 309.916 172 309.393 172C308.871 172 308.439 172.409 308.439 172.909C308.439 173.409 308.871 173.818 309.393 173.818ZM318.69 177.227C318.27 175.989 317.327 175.159 315.599 175.159C313.759 175.159 312.395 176.205 312.395 177.682C312.395 178.886 313.111 179.693 314.713 180.068L316.168 180.409C317.048 180.614 317.463 181.034 317.463 181.636C317.463 182.386 316.668 183 315.418 183C314.321 183 313.634 182.528 313.395 181.591L312.122 181.909C312.435 183.392 313.656 184.182 315.44 184.182C317.469 184.182 318.849 183.074 318.849 181.568C318.849 180.352 318.088 179.585 316.531 179.205L315.236 178.886C314.202 178.631 313.736 178.284 313.736 177.614C313.736 176.864 314.531 176.318 315.599 176.318C316.77 176.318 317.253 176.966 317.486 177.568L318.69 177.227ZM322.209 178.75C322.209 177.227 323.18 176.364 324.504 176.364C325.766 176.364 326.527 177.159 326.527 178.545V184H327.868V178.455C327.868 176.21 326.675 175.159 324.891 175.159C323.516 175.159 322.732 175.733 322.322 176.636H322.209V172.364H320.868V184H322.209V178.75Z" fill="black"/>
<path d="M34.5 225.864C35.8807 225.864 37 224.744 37 223.364C37 221.983 35.8807 220.864 34.5 220.864C33.1193 220.864 32 221.983 32 223.364C32 224.744 33.1193 225.864 34.5 225.864Z" fill="black"/>
<path d="M59 228C62.5455 228 64.5455 225.795 64.5455 222.159C64.5455 218.545 62.5455 216.364 59.1591 216.364H55.4091V228H59ZM56.8182 226.75V217.614H59.0682C61.7955 217.614 63.1818 219.341 63.1818 222.159C63.1818 225 61.7955 226.75 58.9091 226.75H56.8182ZM66.7273 228H68.0682V219.273H66.7273V228ZM67.4091 217.818C67.9318 217.818 68.3636 217.409 68.3636 216.909C68.3636 216.409 67.9318 216 67.4091 216C66.8864 216 66.4545 216.409 66.4545 216.909C66.4545 217.409 66.8864 217.818 67.4091 217.818ZM74.4105 219.273H72.456V218.386C72.456 217.523 72.8196 217.068 73.706 217.068C74.0923 217.068 74.3196 217.159 74.456 217.205L74.8423 216.045C74.6378 215.955 74.2287 215.818 73.5696 215.818C72.3196 215.818 71.1151 216.568 71.1151 218.068V219.273H69.706V220.409H71.1151V228H72.456V220.409H74.4105V219.273ZM80.1761 219.273H78.2216V218.386C78.2216 217.523 78.5852 217.068 79.4716 217.068C79.858 217.068 80.0852 217.159 80.2216 217.205L80.608 216.045C80.4034 215.955 79.9943 215.818 79.3352 215.818C78.0852 215.818 76.8807 216.568 76.8807 218.068V219.273H75.4716V220.409H76.8807V228H78.2216V220.409H80.1761V219.273ZM82.0554 228H83.3963V219.273H82.0554V228ZM82.7372 217.818C83.2599 217.818 83.6918 217.409 83.6918 216.909C83.6918 216.409 83.2599 216 82.7372 216C82.2145 216 81.7827 216.409 81.7827 216.909C81.7827 217.409 82.2145 217.818 82.7372 217.818ZM89.3977 228.182C91.3295 228.182 92.6023 227 92.8295 225.455H91.4886C91.2386 226.409 90.4432 226.977 89.3977 226.977C87.8068 226.977 86.7841 225.659 86.7841 223.636C86.7841 221.659 87.8295 220.364 89.3977 220.364C90.5795 220.364 91.2841 221.091 91.4886 221.886H92.8295C92.6023 220.25 91.2159 219.159 89.375 219.159C87.0114 219.159 85.4432 221.023 85.4432 223.682C85.4432 226.295 86.9432 228.182 89.3977 228.182ZM100.29 224.432C100.29 226.068 99.0398 226.818 98.0398 226.818C96.9261 226.818 96.1307 226 96.1307 224.727V219.273H94.7898V224.818C94.7898 227.045 95.9716 228.114 97.608 228.114C98.9261 228.114 99.7898 227.409 100.199 226.523H100.29V228H101.631V219.273H100.29V224.432ZM105.428 216.364H104.087V228H105.428V216.364ZM111.679 219.273H109.815V217.182H108.474V219.273H107.156V220.409H108.474V225.864C108.474 227.386 109.702 228.114 110.838 228.114C111.338 228.114 111.656 228.023 111.838 227.955L111.565 226.75C111.452 226.773 111.27 226.818 110.974 226.818C110.384 226.818 109.815 226.636 109.815 225.5V220.409H111.679V219.273ZM121.991 219.273H120.128V217.182H118.787V219.273H117.469V220.409H118.787V225.864C118.787 227.386 120.014 228.114 121.151 228.114C121.651 228.114 121.969 228.023 122.151 227.955L121.878 226.75C121.764 226.773 121.582 226.818 121.287 226.818C120.696 226.818 120.128 226.636 120.128 225.5V220.409H121.991V219.273ZM127.46 228.182C129.824 228.182 131.415 226.386 131.415 223.682C131.415 220.955 129.824 219.159 127.46 219.159C125.097 219.159 123.506 220.955 123.506 223.682C123.506 226.386 125.097 228.182 127.46 228.182ZM127.46 226.977C125.665 226.977 124.847 225.432 124.847 223.682C124.847 221.932 125.665 220.364 127.46 220.364C129.256 220.364 130.074 221.932 130.074 223.682C130.074 225.432 129.256 226.977 127.46 226.977ZM137.962 231.273H139.303V226.659H139.416C139.712 227.136 140.28 228.182 141.962 228.182C144.143 228.182 145.666 226.432 145.666 223.659C145.666 220.909 144.143 219.159 141.939 219.159C140.234 219.159 139.712 220.205 139.416 220.659H139.257V219.273H137.962V231.273ZM139.28 223.636C139.28 221.682 140.143 220.364 141.78 220.364C143.484 220.364 144.325 221.795 144.325 223.636C144.325 225.5 143.462 226.977 141.78 226.977C140.166 226.977 139.28 225.614 139.28 223.636ZM147.712 228H149.053V222.477C149.053 221.295 149.984 220.432 151.257 220.432C151.615 220.432 151.984 220.5 152.075 220.523V219.159C151.922 219.148 151.57 219.136 151.371 219.136C150.325 219.136 149.416 219.727 149.098 220.591H149.007V219.273H147.712V228ZM156.945 228.182C159.308 228.182 160.899 226.386 160.899 223.682C160.899 220.955 159.308 219.159 156.945 219.159C154.581 219.159 152.99 220.955 152.99 223.682C152.99 226.386 154.581 228.182 156.945 228.182ZM156.945 226.977C155.149 226.977 154.331 225.432 154.331 223.682C154.331 221.932 155.149 220.364 156.945 220.364C158.74 220.364 159.558 221.932 159.558 223.682C159.558 225.432 158.74 226.977 156.945 226.977ZM166.491 228.182C168.423 228.182 169.696 227 169.923 225.455H168.582C168.332 226.409 167.537 226.977 166.491 226.977C164.901 226.977 163.878 225.659 163.878 223.636C163.878 221.659 164.923 220.364 166.491 220.364C167.673 220.364 168.378 221.091 168.582 221.886H169.923C169.696 220.25 168.31 219.159 166.469 219.159C164.105 219.159 162.537 221.023 162.537 223.682C162.537 226.295 164.037 228.182 166.491 228.182ZM177.384 224.432C177.384 226.068 176.134 226.818 175.134 226.818C174.02 226.818 173.224 226 173.224 224.727V219.273H171.884V224.818C171.884 227.045 173.065 228.114 174.702 228.114C176.02 228.114 176.884 227.409 177.293 226.523H177.384V228H178.724V219.273H177.384V224.432ZM181.18 228H182.521V222.477C182.521 221.295 183.453 220.432 184.726 220.432C185.084 220.432 185.453 220.5 185.544 220.523V219.159C185.391 219.148 185.038 219.136 184.839 219.136C183.794 219.136 182.885 219.727 182.567 220.591H182.476V219.273H181.18V228ZM190.527 228.182C192.3 228.182 193.595 227.295 194.004 225.977L192.709 225.614C192.368 226.523 191.578 226.977 190.527 226.977C188.953 226.977 187.868 225.96 187.805 224.091H194.141V223.523C194.141 220.273 192.209 219.159 190.391 219.159C188.027 219.159 186.459 221.023 186.459 223.705C186.459 226.386 188.004 228.182 190.527 228.182ZM187.805 222.932C187.896 221.574 188.857 220.364 190.391 220.364C191.845 220.364 192.777 221.455 192.777 222.932H187.805ZM200.68 228H202.021V219.273H200.68V228ZM201.362 217.818C201.885 217.818 202.317 217.409 202.317 216.909C202.317 216.409 201.885 216 201.362 216C200.839 216 200.408 216.409 200.408 216.909C200.408 217.409 200.839 217.818 201.362 217.818ZM205.818 222.75C205.818 221.227 206.761 220.364 208.045 220.364C209.29 220.364 210.045 221.176 210.045 222.545V228H211.386V222.455C211.386 220.227 210.199 219.159 208.432 219.159C207.114 219.159 206.295 219.75 205.886 220.636H205.773V219.273H204.477V228H205.818V222.75ZM217.359 231.455C219.45 231.455 221.132 230.5 221.132 228.25V219.273H219.837V220.659H219.7C219.405 220.205 218.859 219.159 217.155 219.159C214.95 219.159 213.428 220.909 213.428 223.591C213.428 226.318 215.018 227.864 217.132 227.864C218.837 227.864 219.382 226.864 219.678 226.386H219.791V228.159C219.791 229.614 218.768 230.273 217.359 230.273C215.774 230.273 215.217 229.438 214.859 228.955L213.791 229.705C214.337 230.619 215.411 231.455 217.359 231.455ZM217.314 226.659C215.632 226.659 214.768 225.386 214.768 223.568C214.768 221.795 215.609 220.364 217.314 220.364C218.95 220.364 219.814 221.682 219.814 223.568C219.814 225.5 218.928 226.659 217.314 226.659ZM223.587 228H224.928V222.477C224.928 221.295 225.859 220.432 227.132 220.432C227.49 220.432 227.859 220.5 227.95 220.523V219.159C227.797 219.148 227.445 219.136 227.246 219.136C226.2 219.136 225.291 219.727 224.973 220.591H224.882V219.273H223.587V228ZM232.933 228.182C234.706 228.182 236.001 227.295 236.411 225.977L235.115 225.614C234.774 226.523 233.984 226.977 232.933 226.977C231.359 226.977 230.274 225.96 230.212 224.091H236.547V223.523C236.547 220.273 234.615 219.159 232.797 219.159C230.433 219.159 228.865 221.023 228.865 223.705C228.865 226.386 230.411 228.182 232.933 228.182ZM230.212 222.932C230.303 221.574 231.263 220.364 232.797 220.364C234.251 220.364 235.183 221.455 235.183 222.932H230.212ZM241.882 228.182C243.564 228.182 244.132 227.136 244.428 226.659H244.587V228H245.882V216.364H244.541V220.659H244.428C244.132 220.205 243.609 219.159 241.905 219.159C239.7 219.159 238.178 220.909 238.178 223.659C238.178 226.432 239.7 228.182 241.882 228.182ZM242.064 226.977C240.382 226.977 239.518 225.5 239.518 223.636C239.518 221.795 240.359 220.364 242.064 220.364C243.7 220.364 244.564 221.682 244.564 223.636C244.564 225.614 243.678 226.977 242.064 226.977ZM248.524 228H249.865V219.273H248.524V228ZM249.206 217.818C249.729 217.818 250.161 217.409 250.161 216.909C250.161 216.409 249.729 216 249.206 216C248.683 216 248.251 216.409 248.251 216.909C248.251 217.409 248.683 217.818 249.206 217.818ZM255.98 228.182C257.753 228.182 259.048 227.295 259.457 225.977L258.162 225.614C257.821 226.523 257.031 226.977 255.98 226.977C254.406 226.977 253.321 225.96 253.259 224.091H259.594V223.523C259.594 220.273 257.662 219.159 255.844 219.159C253.48 219.159 251.912 221.023 251.912 223.705C251.912 226.386 253.457 228.182 255.98 228.182ZM253.259 222.932C253.349 221.574 254.31 220.364 255.844 220.364C257.298 220.364 258.23 221.455 258.23 222.932H253.259ZM262.974 222.75C262.974 221.227 263.918 220.364 265.202 220.364C266.446 220.364 267.202 221.176 267.202 222.545V228H268.543V222.455C268.543 220.227 267.355 219.159 265.588 219.159C264.27 219.159 263.452 219.75 263.043 220.636H262.929V219.273H261.634V228H262.974V222.75ZM274.788 219.273H272.925V217.182H271.584V219.273H270.266V220.409H271.584V225.864C271.584 227.386 272.811 228.114 273.947 228.114C274.447 228.114 274.766 228.023 274.947 227.955L274.675 226.75C274.561 226.773 274.379 226.818 274.084 226.818C273.493 226.818 272.925 226.636 272.925 225.5V220.409H274.788V219.273ZM282.831 221.227C282.411 219.989 281.467 219.159 279.74 219.159C277.899 219.159 276.536 220.205 276.536 221.682C276.536 222.886 277.251 223.693 278.854 224.068L280.308 224.409C281.189 224.614 281.604 225.034 281.604 225.636C281.604 226.386 280.808 227 279.558 227C278.462 227 277.774 226.528 277.536 225.591L276.263 225.909C276.575 227.392 277.797 228.182 279.581 228.182C281.609 228.182 282.99 227.074 282.99 225.568C282.99 224.352 282.229 223.585 280.672 223.205L279.376 222.886C278.342 222.631 277.876 222.284 277.876 221.614C277.876 220.864 278.672 220.318 279.74 220.318C280.911 220.318 281.393 220.966 281.626 221.568L282.831 221.227ZM61.4091 245.227C60.9886 243.989 60.0455 243.159 58.3182 243.159C56.4773 243.159 55.1136 244.205 55.1136 245.682C55.1136 246.886 55.8295 247.693 57.4318 248.068L58.8864 248.409C59.767 248.614 60.1818 249.034 60.1818 249.636C60.1818 250.386 59.3864 251 58.1364 251C57.0398 251 56.3523 250.528 56.1136 249.591L54.8409 249.909C55.1534 251.392 56.375 252.182 58.1591 252.182C60.1875 252.182 61.5682 251.074 61.5682 249.568C61.5682 248.352 60.8068 247.585 59.25 247.205L57.9545 246.886C56.9205 246.631 56.4545 246.284 56.4545 245.614C56.4545 244.864 57.25 244.318 58.3182 244.318C59.4886 244.318 59.9716 244.966 60.2045 245.568L61.4091 245.227ZM67.1321 252.182C69.4957 252.182 71.0866 250.386 71.0866 247.682C71.0866 244.955 69.4957 243.159 67.1321 243.159C64.7685 243.159 63.1776 244.955 63.1776 247.682C63.1776 250.386 64.7685 252.182 67.1321 252.182ZM67.1321 250.977C65.3366 250.977 64.5185 249.432 64.5185 247.682C64.5185 245.932 65.3366 244.364 67.1321 244.364C68.9276 244.364 69.7457 245.932 69.7457 247.682C69.7457 249.432 68.9276 250.977 67.1321 250.977ZM73.1335 252H74.4744V246.545C74.4744 245.267 75.4062 244.364 76.4517 244.364C77.4688 244.364 78.179 245.028 78.179 246.023V252H79.5426V246.318C79.5426 245.193 80.2472 244.364 81.4744 244.364C82.429 244.364 83.2472 244.869 83.2472 246.159V252H84.5881V246.159C84.5881 244.108 83.4858 243.159 81.929 243.159C80.679 243.159 79.7642 243.733 79.3153 244.636H79.2244C78.7926 243.705 78.0312 243.159 76.8835 243.159C75.7472 243.159 74.9062 243.705 74.5426 244.636H74.429V243.273H73.1335V252ZM90.6989 252.182C92.4716 252.182 93.767 251.295 94.1761 249.977L92.8807 249.614C92.5398 250.523 91.75 250.977 90.6989 250.977C89.125 250.977 88.0398 249.96 87.9773 248.091H94.3125V247.523C94.3125 244.273 92.3807 243.159 90.5625 243.159C88.1989 243.159 86.6307 245.023 86.6307 247.705C86.6307 250.386 88.1761 252.182 90.6989 252.182ZM87.9773 246.932C88.0682 245.574 89.0284 244.364 90.5625 244.364C92.017 244.364 92.9489 245.455 92.9489 246.932H87.9773ZM100.148 243.273H98.2841V241.182H96.9432V243.273H95.625V244.409H96.9432V249.864C96.9432 251.386 98.1705 252.114 99.3068 252.114C99.8068 252.114 100.125 252.023 100.307 251.955L100.034 250.75C99.9205 250.773 99.7386 250.818 99.4432 250.818C98.8523 250.818 98.2841 250.636 98.2841 249.5V244.409H100.148V243.273ZM102.165 252H103.506V243.273H102.165V252ZM102.847 241.818C103.369 241.818 103.801 241.409 103.801 240.909C103.801 240.409 103.369 240 102.847 240C102.324 240 101.892 240.409 101.892 240.909C101.892 241.409 102.324 241.818 102.847 241.818ZM105.962 252H107.303V246.545C107.303 245.267 108.234 244.364 109.28 244.364C110.297 244.364 111.007 245.028 111.007 246.023V252H112.371V246.318C112.371 245.193 113.075 244.364 114.303 244.364C115.257 244.364 116.075 244.869 116.075 246.159V252H117.416V246.159C117.416 244.108 116.314 243.159 114.757 243.159C113.507 243.159 112.592 243.733 112.143 244.636H112.053C111.621 243.705 110.859 243.159 109.712 243.159C108.575 243.159 107.734 243.705 107.371 244.636H107.257V243.273H105.962V252ZM123.527 252.182C125.3 252.182 126.595 251.295 127.004 249.977L125.709 249.614C125.368 250.523 124.578 250.977 123.527 250.977C121.953 250.977 120.868 249.96 120.805 248.091H127.141V247.523C127.141 244.273 125.209 243.159 123.391 243.159C121.027 243.159 119.459 245.023 119.459 247.705C119.459 250.386 121.004 252.182 123.527 252.182ZM120.805 246.932C120.896 245.574 121.857 244.364 123.391 244.364C124.845 244.364 125.777 245.455 125.777 246.932H120.805ZM135.362 245.227C134.942 243.989 133.999 243.159 132.271 243.159C130.43 243.159 129.067 244.205 129.067 245.682C129.067 246.886 129.783 247.693 131.385 248.068L132.839 248.409C133.72 248.614 134.135 249.034 134.135 249.636C134.135 250.386 133.339 251 132.089 251C130.993 251 130.305 250.528 130.067 249.591L128.794 249.909C129.107 251.392 130.328 252.182 132.112 252.182C134.141 252.182 135.521 251.074 135.521 249.568C135.521 248.352 134.76 247.585 133.203 247.205L131.908 246.886C130.874 246.631 130.408 246.284 130.408 245.614C130.408 244.864 131.203 244.318 132.271 244.318C133.442 244.318 133.925 244.966 134.158 245.568L135.362 245.227Z" fill="black"/>
<path d="M31.4347 61H34.0696V56.0852H36.8537C40.2131 56.0852 42.017 54.0682 42.017 51.2699C42.017 48.4929 40.2344 46.4545 36.8892 46.4545H31.4347V61ZM34.0696 53.919V48.6562H36.4844C38.4588 48.6562 39.3324 49.7216 39.3324 51.2699C39.3324 52.8182 38.4588 53.919 36.4986 53.919H34.0696ZM47.136 61.2202C48.8477 61.2202 49.8704 60.4176 50.3391 59.5014H50.4244V61H52.896V53.6989C52.896 50.8153 50.5451 49.9489 48.4641 49.9489C46.1701 49.9489 44.4087 50.9716 43.8406 52.9602L46.2411 53.3011C46.4968 52.5554 47.2212 51.9162 48.4783 51.9162C49.6715 51.9162 50.3249 52.527 50.3249 53.5994V53.642C50.3249 54.3807 49.5508 54.4162 47.6261 54.6222C45.5096 54.8494 43.4854 55.4815 43.4854 57.9389C43.4854 60.0838 45.055 61.2202 47.136 61.2202ZM47.8036 59.331C46.7312 59.331 45.9641 58.8409 45.9641 57.8963C45.9641 56.9091 46.8235 56.4972 47.9741 56.3338C48.6488 56.2415 49.9982 56.071 50.332 55.8011V57.0866C50.332 58.3011 49.3519 59.331 47.8036 59.331ZM55.4812 61H58.0522V50.0909H55.4812V61ZM56.7738 48.5426C57.5906 48.5426 58.2582 47.9176 58.2582 47.1506C58.2582 46.3764 57.5906 45.7514 56.7738 45.7514C55.9499 45.7514 55.2823 46.3764 55.2823 47.1506C55.2823 47.9176 55.9499 48.5426 56.7738 48.5426ZM63.267 54.608C63.267 53.0312 64.2188 52.1222 65.5753 52.1222C66.9034 52.1222 67.6989 52.9957 67.6989 54.4517V61H70.2699V54.054C70.277 51.4403 68.7855 49.9489 66.5341 49.9489C64.9006 49.9489 63.7784 50.7301 63.2812 51.9446H63.1534V50.0909H60.696V61H63.267V54.608ZM77.9581 61H80.593V56.0852H83.3771C86.7365 56.0852 88.5405 54.0682 88.5405 51.2699C88.5405 48.4929 86.7578 46.4545 83.4126 46.4545H77.9581V61ZM80.593 53.919V48.6562H83.0078C84.9822 48.6562 85.8558 49.7216 85.8558 51.2699C85.8558 52.8182 84.9822 53.919 83.022 53.919H80.593ZM95.3178 61.2131C98.5138 61.2131 100.545 58.9616 100.545 55.5881C100.545 52.2074 98.5138 49.9489 95.3178 49.9489C92.1218 49.9489 90.0906 52.2074 90.0906 55.5881C90.0906 58.9616 92.1218 61.2131 95.3178 61.2131ZM95.332 59.1534C93.5636 59.1534 92.6971 57.5767 92.6971 55.581C92.6971 53.5852 93.5636 51.9872 95.332 51.9872C97.0721 51.9872 97.9386 53.5852 97.9386 55.581C97.9386 57.5767 97.0721 59.1534 95.332 59.1534ZM102.727 61H105.298V50.0909H102.727V61ZM104.02 48.5426C104.837 48.5426 105.504 47.9176 105.504 47.1506C105.504 46.3764 104.837 45.7514 104.02 45.7514C103.196 45.7514 102.528 46.3764 102.528 47.1506C102.528 47.9176 103.196 48.5426 104.02 48.5426ZM110.513 54.608C110.513 53.0312 111.465 52.1222 112.821 52.1222C114.15 52.1222 114.945 52.9957 114.945 54.4517V61H117.516V54.054C117.523 51.4403 116.032 49.9489 113.78 49.9489C112.147 49.9489 111.025 50.7301 110.527 51.9446H110.4V50.0909H107.942V61H110.513V54.608ZM125.577 50.0909H123.425V47.4773H120.854V50.0909H119.306V52.0795H120.854V58.1449C120.84 60.1974 122.331 61.206 124.263 61.1491C124.995 61.1278 125.499 60.9858 125.776 60.8935L125.343 58.8835C125.201 58.919 124.909 58.983 124.59 58.983C123.944 58.983 123.425 58.7557 123.425 57.7188V52.0795H125.577V50.0909ZM136.193 52.9744C135.838 51.1278 134.361 49.9489 131.804 49.9489C129.176 49.9489 127.386 51.2415 127.393 53.2585C127.386 54.8494 128.366 55.9006 130.462 56.3338L132.322 56.7244C133.324 56.9446 133.793 57.3494 133.793 57.9673C133.793 58.7131 132.983 59.2741 131.761 59.2741C130.582 59.2741 129.815 58.7628 129.595 57.7827L127.088 58.0241C127.408 60.027 129.091 61.2131 131.768 61.2131C134.496 61.2131 136.42 59.7997 136.428 57.733C136.42 56.1776 135.419 55.2259 133.359 54.7784L131.499 54.3807C130.391 54.1321 129.95 53.7486 129.957 53.1165C129.95 52.3778 130.767 51.8665 131.839 51.8665C133.026 51.8665 133.651 52.5128 133.849 53.2301L136.193 52.9744Z" fill="black"/>
<path d="M144.318 53.7273C144.318 57.3068 145.284 60.2898 147.017 62.8182H148.494C147.131 60.9432 146.051 57.108 146.051 53.7273C146.051 50.3466 147.131 46.5114 148.494 44.6364H147.017C145.284 47.1648 144.318 50.1477 144.318 53.7273ZM151.792 46.4545H149.945L155.286 61H157.104L162.445 46.4545H160.598L156.28 58.6989H156.11L151.792 46.4545ZM166.678 61.2557C168.581 61.2557 169.576 60.233 169.917 59.5227H170.002V61H171.678V53.8125C171.678 50.3466 169.036 49.9489 167.644 49.9489C165.996 49.9489 164.121 50.517 163.269 52.5057L164.86 53.0739C165.229 52.2784 166.103 51.4261 167.701 51.4261C169.242 51.4261 170.002 52.2429 170.002 53.642V53.6989C170.002 54.5085 169.178 54.4375 167.189 54.6932C165.165 54.956 162.956 55.4034 162.956 57.9034C162.956 60.0341 164.604 61.2557 166.678 61.2557ZM166.934 59.75C165.598 59.75 164.632 59.1534 164.632 57.9886C164.632 56.7102 165.797 56.3125 167.104 56.142C167.814 56.0568 169.718 55.858 170.002 55.517V57.0511C170.002 58.4148 168.922 59.75 166.934 59.75ZM176.413 46.4545H174.737V61H176.413V46.4545ZM179.483 61H181.159V50.0909H179.483V61ZM180.336 48.2727C180.989 48.2727 181.529 47.7614 181.529 47.1364C181.529 46.5114 180.989 46 180.336 46C179.682 46 179.142 46.5114 179.142 47.1364C179.142 47.7614 179.682 48.2727 180.336 48.2727ZM188.349 61.2273C190.451 61.2273 191.161 59.9205 191.531 59.3239H191.729V61H193.349V46.4545H191.673V51.8239H191.531C191.161 51.2557 190.508 49.9489 188.377 49.9489C185.621 49.9489 183.718 52.1364 183.718 55.5739C183.718 59.0398 185.621 61.2273 188.349 61.2273ZM188.576 59.7216C186.474 59.7216 185.394 57.875 185.394 55.5455C185.394 53.2443 186.445 51.4545 188.576 51.4545C190.621 51.4545 191.701 53.1023 191.701 55.5455C191.701 58.017 190.593 59.7216 188.576 59.7216ZM199.862 61.2557C201.765 61.2557 202.759 60.233 203.1 59.5227H203.185V61H204.862V53.8125C204.862 50.3466 202.219 49.9489 200.827 49.9489C199.18 49.9489 197.305 50.517 196.452 52.5057L198.043 53.0739C198.413 52.2784 199.286 51.4261 200.884 51.4261C202.425 51.4261 203.185 52.2429 203.185 53.642V53.6989C203.185 54.5085 202.362 54.4375 200.373 54.6932C198.349 54.956 196.14 55.4034 196.14 57.9034C196.14 60.0341 197.788 61.2557 199.862 61.2557ZM200.117 59.75C198.782 59.75 197.816 59.1534 197.816 57.9886C197.816 56.7102 198.981 56.3125 200.288 56.142C200.998 56.0568 202.901 55.858 203.185 55.517V57.0511C203.185 58.4148 202.106 59.75 200.117 59.75ZM212.665 50.0909H210.336V47.4773H208.659V50.0909H207.012V51.5114H208.659V58.3295C208.659 60.233 210.194 61.142 211.614 61.142C212.239 61.142 212.637 61.0284 212.864 60.9432L212.523 59.4375C212.381 59.4659 212.154 59.5227 211.784 59.5227C211.046 59.5227 210.336 59.2955 210.336 57.875V51.5114H212.665V50.0909ZM219.643 61.2273C221.859 61.2273 223.478 60.1193 223.99 58.4716L222.37 58.017C221.944 59.1534 220.957 59.7216 219.643 59.7216C217.676 59.7216 216.319 58.4503 216.241 56.1136H224.16V55.4034C224.16 51.3409 221.745 49.9489 219.473 49.9489C216.518 49.9489 214.558 52.2784 214.558 55.6307C214.558 58.983 216.49 61.2273 219.643 61.2273ZM216.241 54.6648C216.355 52.9673 217.555 51.4545 219.473 51.4545C221.291 51.4545 222.456 52.8182 222.456 54.6648H216.241ZM230.829 61.2273C232.931 61.2273 233.642 59.9205 234.011 59.3239H234.21V61H235.829V46.4545H234.153V51.8239H234.011C233.642 51.2557 232.988 49.9489 230.858 49.9489C228.102 49.9489 226.199 52.1364 226.199 55.5739C226.199 59.0398 228.102 61.2273 230.829 61.2273ZM231.056 59.7216C228.954 59.7216 227.875 57.875 227.875 55.5455C227.875 53.2443 228.926 51.4545 231.056 51.4545C233.102 51.4545 234.181 53.1023 234.181 55.5455C234.181 58.017 233.074 59.7216 231.056 59.7216ZM242.711 54.8636C242.711 51.2841 241.745 48.3011 240.012 45.7727H238.535C239.899 47.6477 240.978 51.483 240.978 54.8636C240.978 58.2443 239.899 62.0795 238.535 63.9545H240.012C241.745 61.4261 242.711 58.4432 242.711 54.8636Z" fill="#FF8A00"/>
<rect x="1" y="1" width="376" height="282" rx="4" stroke="#FAFAFA" stroke-width="2"/>
</svg>
