<svg width="378" height="380" viewBox="0 0 378 380" fill="none" xmlns="http://www.w3.org/2000/svg">
<path d="M0 5C0 2.23858 2.23858 0 5 0H373C375.761 0 378 2.23858 378 5V375C378 377.761 375.761 380 373 380H5C2.23858 380 0 377.761 0 375V5Z" fill="white"/>
<path d="M34.5 114.864C35.8807 114.864 37 113.744 37 112.364C37 110.983 35.8807 109.864 34.5 109.864C33.1193 109.864 32 110.983 32 112.364C32 113.744 33.1193 114.864 34.5 114.864Z" fill="black"/>
<path d="M54.7727 106.614H58.4318V117H59.8409V106.614H63.5V105.364H54.7727V106.614ZM65.4929 117H66.8338V108.273H65.4929V117ZM66.1747 106.818C66.6974 106.818 67.1293 106.409 67.1293 105.909C67.1293 105.409 66.6974 105 66.1747 105C65.652 105 65.2202 105.409 65.2202 105.909C65.2202 106.409 65.652 106.818 66.1747 106.818ZM69.2898 117H70.6307V111.545C70.6307 110.267 71.5625 109.364 72.608 109.364C73.625 109.364 74.3352 110.028 74.3352 111.023V117H75.6989V111.318C75.6989 110.193 76.4034 109.364 77.6307 109.364C78.5852 109.364 79.4034 109.869 79.4034 111.159V117H80.7443V111.159C80.7443 109.108 79.642 108.159 78.0852 108.159C76.8352 108.159 75.9205 108.733 75.4716 109.636H75.3807C74.9489 108.705 74.1875 108.159 73.0398 108.159C71.9034 108.159 71.0625 108.705 70.6989 109.636H70.5852V108.273H69.2898V117ZM86.8551 117.182C88.6278 117.182 89.9233 116.295 90.3324 114.977L89.0369 114.614C88.696 115.523 87.9062 115.977 86.8551 115.977C85.2812 115.977 84.196 114.96 84.1335 113.091H90.4688V112.523C90.4688 109.273 88.5369 108.159 86.7188 108.159C84.3551 108.159 82.7869 110.023 82.7869 112.705C82.7869 115.386 84.3324 117.182 86.8551 117.182ZM84.1335 111.932C84.2244 110.574 85.1847 109.364 86.7188 109.364C88.1733 109.364 89.1051 110.455 89.1051 111.932H84.1335ZM92.5085 117H93.8494V111.477C93.8494 110.295 94.7812 109.432 96.054 109.432C96.4119 109.432 96.7812 109.5 96.8722 109.523V108.159C96.7188 108.148 96.3665 108.136 96.1676 108.136C95.1222 108.136 94.2131 108.727 93.8949 109.591H93.804V108.273H92.5085V117ZM104.643 110.227C104.223 108.989 103.28 108.159 101.553 108.159C99.7116 108.159 98.348 109.205 98.348 110.682C98.348 111.886 99.0639 112.693 100.666 113.068L102.121 113.409C103.001 113.614 103.416 114.034 103.416 114.636C103.416 115.386 102.621 116 101.371 116C100.274 116 99.5866 115.528 99.348 114.591L98.0753 114.909C98.3878 116.392 99.6094 117.182 101.393 117.182C103.422 117.182 104.803 116.074 104.803 114.568C104.803 113.352 104.041 112.585 102.484 112.205L101.189 111.886C100.155 111.631 99.6889 111.284 99.6889 110.614C99.6889 109.864 100.484 109.318 101.553 109.318C102.723 109.318 103.206 109.966 103.439 110.568L104.643 110.227ZM115.207 108.273H113.253V107.386C113.253 106.523 113.616 106.068 114.503 106.068C114.889 106.068 115.116 106.159 115.253 106.205L115.639 105.045C115.435 104.955 115.026 104.818 114.366 104.818C113.116 104.818 111.912 105.568 111.912 107.068V108.273H110.503V109.409H111.912V117H113.253V109.409H115.207V108.273ZM120.273 117.182C122.636 117.182 124.227 115.386 124.227 112.682C124.227 109.955 122.636 108.159 120.273 108.159C117.909 108.159 116.318 109.955 116.318 112.682C116.318 115.386 117.909 117.182 120.273 117.182ZM120.273 115.977C118.477 115.977 117.659 114.432 117.659 112.682C117.659 110.932 118.477 109.364 120.273 109.364C122.068 109.364 122.886 110.932 122.886 112.682C122.886 114.432 122.068 115.977 120.273 115.977ZM126.274 117H127.615V111.477C127.615 110.295 128.547 109.432 129.82 109.432C130.178 109.432 130.547 109.5 130.638 109.523V108.159C130.484 108.148 130.132 108.136 129.933 108.136C128.888 108.136 127.979 108.727 127.661 109.591H127.57V108.273H126.274V117ZM136.727 117H138.068V111.477C138.068 110.295 139 109.432 140.273 109.432C140.631 109.432 141 109.5 141.091 109.523V108.159C140.938 108.148 140.585 108.136 140.386 108.136C139.341 108.136 138.432 108.727 138.114 109.591H138.023V108.273H136.727V117ZM146.074 117.182C147.847 117.182 149.142 116.295 149.551 114.977L148.256 114.614C147.915 115.523 147.125 115.977 146.074 115.977C144.5 115.977 143.415 114.96 143.352 113.091H149.688V112.523C149.688 109.273 147.756 108.159 145.938 108.159C143.574 108.159 142.006 110.023 142.006 112.705C142.006 115.386 143.551 117.182 146.074 117.182ZM143.352 111.932C143.443 110.574 144.403 109.364 145.938 109.364C147.392 109.364 148.324 110.455 148.324 111.932H143.352ZM155.273 117.182C157.205 117.182 158.477 116 158.705 114.455H157.364C157.114 115.409 156.318 115.977 155.273 115.977C153.682 115.977 152.659 114.659 152.659 112.636C152.659 110.659 153.705 109.364 155.273 109.364C156.455 109.364 157.159 110.091 157.364 110.886H158.705C158.477 109.25 157.091 108.159 155.25 108.159C152.886 108.159 151.318 110.023 151.318 112.682C151.318 115.295 152.818 117.182 155.273 117.182ZM160.665 117H162.006V108.273H160.665V117ZM161.347 106.818C161.869 106.818 162.301 106.409 162.301 105.909C162.301 105.409 161.869 105 161.347 105C160.824 105 160.392 105.409 160.392 105.909C160.392 106.409 160.824 106.818 161.347 106.818ZM164.462 120.273H165.803V115.659H165.916C166.212 116.136 166.78 117.182 168.462 117.182C170.643 117.182 172.166 115.432 172.166 112.659C172.166 109.909 170.643 108.159 168.439 108.159C166.734 108.159 166.212 109.205 165.916 109.659H165.757V108.273H164.462V120.273ZM165.78 112.636C165.78 110.682 166.643 109.364 168.28 109.364C169.984 109.364 170.825 110.795 170.825 112.636C170.825 114.5 169.962 115.977 168.28 115.977C166.666 115.977 165.78 114.614 165.78 112.636ZM177.871 117.182C179.643 117.182 180.939 116.295 181.348 114.977L180.053 114.614C179.712 115.523 178.922 115.977 177.871 115.977C176.297 115.977 175.212 114.96 175.149 113.091H181.484V112.523C181.484 109.273 179.553 108.159 177.734 108.159C175.371 108.159 173.803 110.023 173.803 112.705C173.803 115.386 175.348 117.182 177.871 117.182ZM175.149 111.932C175.24 110.574 176.2 109.364 177.734 109.364C179.189 109.364 180.121 110.455 180.121 111.932H175.149ZM189.706 110.227C189.286 108.989 188.342 108.159 186.615 108.159C184.774 108.159 183.411 109.205 183.411 110.682C183.411 111.886 184.126 112.693 185.729 113.068L187.183 113.409C188.064 113.614 188.479 114.034 188.479 114.636C188.479 115.386 187.683 116 186.433 116C185.337 116 184.649 115.528 184.411 114.591L183.138 114.909C183.45 116.392 184.672 117.182 186.456 117.182C188.484 117.182 189.865 116.074 189.865 114.568C189.865 113.352 189.104 112.585 187.547 112.205L186.251 111.886C185.217 111.631 184.751 111.284 184.751 110.614C184.751 109.864 185.547 109.318 186.615 109.318C187.786 109.318 188.268 109.966 188.501 110.568L189.706 110.227ZM196.384 117H197.724V108.273H196.384V117ZM197.065 106.818C197.588 106.818 198.02 106.409 198.02 105.909C198.02 105.409 197.588 105 197.065 105C196.543 105 196.111 105.409 196.111 105.909C196.111 106.409 196.543 106.818 197.065 106.818ZM201.521 111.75C201.521 110.227 202.464 109.364 203.749 109.364C204.993 109.364 205.749 110.176 205.749 111.545V117H207.089V111.455C207.089 109.227 205.902 108.159 204.135 108.159C202.817 108.159 201.999 108.75 201.589 109.636H201.476V108.273H200.18V117H201.521V111.75ZM216.364 108.273H214.909L212.5 115.227H212.409L210 108.273H208.545L211.773 117H213.136L216.364 108.273ZM221.366 117.182C223.73 117.182 225.321 115.386 225.321 112.682C225.321 109.955 223.73 108.159 221.366 108.159C219.003 108.159 217.412 109.955 217.412 112.682C217.412 115.386 219.003 117.182 221.366 117.182ZM221.366 115.977C219.571 115.977 218.753 114.432 218.753 112.682C218.753 110.932 219.571 109.364 221.366 109.364C223.162 109.364 223.98 110.932 223.98 112.682C223.98 114.432 223.162 115.977 221.366 115.977ZM228.709 105.364H227.368V117H228.709V105.364ZM238.301 108.273H236.847L234.438 115.227H234.347L231.938 108.273H230.483L233.71 117H235.074L238.301 108.273ZM240.071 117H241.412V108.273H240.071V117ZM240.753 106.818C241.276 106.818 241.707 106.409 241.707 105.909C241.707 105.409 241.276 105 240.753 105C240.23 105 239.798 105.409 239.798 105.909C239.798 106.409 240.23 106.818 240.753 106.818ZM245.209 111.75C245.209 110.227 246.152 109.364 247.436 109.364C248.68 109.364 249.436 110.176 249.436 111.545V117H250.777V111.455C250.777 109.227 249.589 108.159 247.822 108.159C246.504 108.159 245.686 108.75 245.277 109.636H245.163V108.273H243.868V117H245.209V111.75ZM256.75 120.455C258.841 120.455 260.523 119.5 260.523 117.25V108.273H259.227V109.659H259.091C258.795 109.205 258.25 108.159 256.545 108.159C254.341 108.159 252.818 109.909 252.818 112.591C252.818 115.318 254.409 116.864 256.523 116.864C258.227 116.864 258.773 115.864 259.068 115.386H259.182V117.159C259.182 118.614 258.159 119.273 256.75 119.273C255.165 119.273 254.608 118.438 254.25 117.955L253.182 118.705C253.727 119.619 254.801 120.455 256.75 120.455ZM256.705 115.659C255.023 115.659 254.159 114.386 254.159 112.568C254.159 110.795 255 109.364 256.705 109.364C258.341 109.364 259.205 110.682 259.205 112.568C259.205 114.5 258.318 115.659 256.705 115.659ZM267.659 117H268.955V115.659H269.114C269.409 116.136 269.977 117.182 271.659 117.182C273.841 117.182 275.364 115.432 275.364 112.659C275.364 109.909 273.841 108.159 271.636 108.159C269.932 108.159 269.409 109.205 269.114 109.659H269V105.364H267.659V117ZM268.977 112.636C268.977 110.682 269.841 109.364 271.477 109.364C273.182 109.364 274.023 110.795 274.023 112.636C274.023 114.5 273.159 115.977 271.477 115.977C269.864 115.977 268.977 114.614 268.977 112.636ZM279.983 117.205C281.506 117.205 282.301 116.386 282.574 115.818H282.642V117H283.983V111.25C283.983 108.477 281.869 108.159 280.756 108.159C279.438 108.159 277.938 108.614 277.256 110.205L278.528 110.659C278.824 110.023 279.523 109.341 280.801 109.341C282.034 109.341 282.642 109.994 282.642 111.114V111.159C282.642 111.807 281.983 111.75 280.392 111.955C278.773 112.165 277.006 112.523 277.006 114.523C277.006 116.227 278.324 117.205 279.983 117.205ZM280.188 116C279.119 116 278.347 115.523 278.347 114.591C278.347 113.568 279.278 113.25 280.324 113.114C280.892 113.045 282.415 112.886 282.642 112.614V113.841C282.642 114.932 281.778 116 280.188 116ZM286.43 117H287.771V113.733L288.709 112.864L291.976 117H293.68L289.72 112L293.408 108.273H291.749L287.93 112.159H287.771V105.364H286.43V117ZM295.134 117H296.474V108.273H295.134V117ZM295.815 106.818C296.338 106.818 296.77 106.409 296.77 105.909C296.77 105.409 296.338 105 295.815 105C295.293 105 294.861 105.409 294.861 105.909C294.861 106.409 295.293 106.818 295.815 106.818ZM300.271 111.75C300.271 110.227 301.214 109.364 302.499 109.364C303.743 109.364 304.499 110.176 304.499 111.545V117H305.839V111.455C305.839 109.227 304.652 108.159 302.885 108.159C301.567 108.159 300.749 108.75 300.339 109.636H300.226V108.273H298.93V117H300.271V111.75ZM311.812 120.455C313.903 120.455 315.585 119.5 315.585 117.25V108.273H314.29V109.659H314.153C313.858 109.205 313.312 108.159 311.608 108.159C309.403 108.159 307.881 109.909 307.881 112.591C307.881 115.318 309.472 116.864 311.585 116.864C313.29 116.864 313.835 115.864 314.131 115.386H314.244V117.159C314.244 118.614 313.222 119.273 311.812 119.273C310.227 119.273 309.67 118.438 309.312 117.955L308.244 118.705C308.79 119.619 309.864 120.455 311.812 120.455ZM311.767 115.659C310.085 115.659 309.222 114.386 309.222 112.568C309.222 110.795 310.062 109.364 311.767 109.364C313.403 109.364 314.267 110.682 314.267 112.568C314.267 114.5 313.381 115.659 311.767 115.659ZM323.017 112.091C323.017 114.955 323.79 117.341 325.176 119.364H326.358C325.267 117.864 324.403 114.795 324.403 112.091C324.403 109.386 325.267 106.318 326.358 104.818H325.176C323.79 106.841 323.017 109.227 323.017 112.091ZM331.695 117.182C334.058 117.182 335.649 115.386 335.649 112.682C335.649 109.955 334.058 108.159 331.695 108.159C329.331 108.159 327.74 109.955 327.74 112.682C327.74 115.386 329.331 117.182 331.695 117.182ZM331.695 115.977C329.899 115.977 329.081 114.432 329.081 112.682C329.081 110.932 329.899 109.364 331.695 109.364C333.49 109.364 334.308 110.932 334.308 112.682C334.308 114.432 333.49 115.977 331.695 115.977ZM337.696 117H339.037V111.477C339.037 110.295 339.969 109.432 341.241 109.432C341.599 109.432 341.969 109.5 342.06 109.523V108.159C341.906 108.148 341.554 108.136 341.355 108.136C340.31 108.136 339.401 108.727 339.082 109.591H338.991V108.273H337.696V117ZM57.7955 141.205C59.3182 141.205 60.1136 140.386 60.3864 139.818H60.4545V141H61.7955V135.25C61.7955 132.477 59.6818 132.159 58.5682 132.159C57.25 132.159 55.75 132.614 55.0682 134.205L56.3409 134.659C56.6364 134.023 57.3352 133.341 58.6136 133.341C59.8466 133.341 60.4545 133.994 60.4545 135.114V135.159C60.4545 135.807 59.7955 135.75 58.2045 135.955C56.5852 136.165 54.8182 136.523 54.8182 138.523C54.8182 140.227 56.1364 141.205 57.7955 141.205ZM58 140C56.9318 140 56.1591 139.523 56.1591 138.591C56.1591 137.568 57.0909 137.25 58.1364 137.114C58.7045 137.045 60.2273 136.886 60.4545 136.614V137.841C60.4545 138.932 59.5909 140 58 140ZM65.5838 135.75C65.5838 134.227 66.527 133.364 67.8111 133.364C69.0554 133.364 69.8111 134.176 69.8111 135.545V141H71.152V135.455C71.152 133.227 69.9645 132.159 68.1974 132.159C66.8793 132.159 66.0611 132.75 65.652 133.636H65.5384V132.273H64.2429V141H65.5838V135.75ZM74.1534 144.273C75.3636 144.273 76.2159 143.631 76.7216 142.273L80.4375 132.295L78.9716 132.273L76.5625 139.227H76.4716L74.0625 132.273H72.608L75.8352 141.045L75.5852 141.727C75.0966 143.057 74.4943 143.182 73.517 142.932L73.1761 144.114C73.3125 144.182 73.6989 144.273 74.1534 144.273ZM90.5071 132.273H88.6435V130.182H87.3026V132.273H85.9844V133.409H87.3026V138.864C87.3026 140.386 88.5298 141.114 89.6662 141.114C90.1662 141.114 90.4844 141.023 90.6662 140.955L90.3935 139.75C90.2798 139.773 90.098 139.818 89.8026 139.818C89.2116 139.818 88.6435 139.636 88.6435 138.5V133.409H90.5071V132.273ZM92.5241 141H93.8651V132.273H92.5241V141ZM93.206 130.818C93.7287 130.818 94.1605 130.409 94.1605 129.909C94.1605 129.409 93.7287 129 93.206 129C92.6832 129 92.2514 129.409 92.2514 129.909C92.2514 130.409 92.6832 130.818 93.206 130.818ZM96.321 141H97.6619V135.545C97.6619 134.267 98.5938 133.364 99.6392 133.364C100.656 133.364 101.366 134.028 101.366 135.023V141H102.73V135.318C102.73 134.193 103.435 133.364 104.662 133.364C105.616 133.364 106.435 133.869 106.435 135.159V141H107.776V135.159C107.776 133.108 106.673 132.159 105.116 132.159C103.866 132.159 102.952 132.733 102.503 133.636H102.412C101.98 132.705 101.219 132.159 100.071 132.159C98.9347 132.159 98.0938 132.705 97.7301 133.636H97.6165V132.273H96.321V141ZM113.886 141.182C115.659 141.182 116.955 140.295 117.364 138.977L116.068 138.614C115.727 139.523 114.938 139.977 113.886 139.977C112.312 139.977 111.227 138.96 111.165 137.091H117.5V136.523C117.5 133.273 115.568 132.159 113.75 132.159C111.386 132.159 109.818 134.023 109.818 136.705C109.818 139.386 111.364 141.182 113.886 141.182ZM111.165 135.932C111.256 134.574 112.216 133.364 113.75 133.364C115.205 133.364 116.136 134.455 116.136 135.932H111.165ZM124.222 141H125.517V139.659H125.676C125.972 140.136 126.54 141.182 128.222 141.182C130.403 141.182 131.926 139.432 131.926 136.659C131.926 133.909 130.403 132.159 128.199 132.159C126.494 132.159 125.972 133.205 125.676 133.659H125.562V129.364H124.222V141ZM125.54 136.636C125.54 134.682 126.403 133.364 128.04 133.364C129.744 133.364 130.585 134.795 130.585 136.636C130.585 138.5 129.722 139.977 128.04 139.977C126.426 139.977 125.54 138.614 125.54 136.636ZM137.523 141.182C139.886 141.182 141.477 139.386 141.477 136.682C141.477 133.955 139.886 132.159 137.523 132.159C135.159 132.159 133.568 133.955 133.568 136.682C133.568 139.386 135.159 141.182 137.523 141.182ZM137.523 139.977C135.727 139.977 134.909 138.432 134.909 136.682C134.909 134.932 135.727 133.364 137.523 133.364C139.318 133.364 140.136 134.932 140.136 136.682C140.136 138.432 139.318 139.977 137.523 139.977ZM149.024 137.432C149.024 139.068 147.774 139.818 146.774 139.818C145.661 139.818 144.865 139 144.865 137.727V132.273H143.524V137.818C143.524 140.045 144.706 141.114 146.342 141.114C147.661 141.114 148.524 140.409 148.933 139.523H149.024V141H150.365V132.273H149.024V137.432ZM154.162 135.75C154.162 134.227 155.105 133.364 156.389 133.364C157.634 133.364 158.389 134.176 158.389 135.545V141H159.73V135.455C159.73 133.227 158.543 132.159 156.776 132.159C155.457 132.159 154.639 132.75 154.23 133.636H154.116V132.273H152.821V141H154.162V135.75ZM165.476 141.182C167.158 141.182 167.726 140.136 168.021 139.659H168.18V141H169.476V129.364H168.135V133.659H168.021C167.726 133.205 167.203 132.159 165.499 132.159C163.294 132.159 161.771 133.909 161.771 136.659C161.771 139.432 163.294 141.182 165.476 141.182ZM165.658 139.977C163.976 139.977 163.112 138.5 163.112 136.636C163.112 134.795 163.953 133.364 165.658 133.364C167.294 133.364 168.158 134.682 168.158 136.636C168.158 138.614 167.271 139.977 165.658 139.977ZM180.163 141.182C182.095 141.182 183.368 140 183.595 138.455H182.254C182.004 139.409 181.209 139.977 180.163 139.977C178.572 139.977 177.55 138.659 177.55 136.636C177.55 134.659 178.595 133.364 180.163 133.364C181.345 133.364 182.05 134.091 182.254 134.886H183.595C183.368 133.25 181.982 132.159 180.141 132.159C177.777 132.159 176.209 134.023 176.209 136.682C176.209 139.295 177.709 141.182 180.163 141.182ZM189.101 141.182C191.464 141.182 193.055 139.386 193.055 136.682C193.055 133.955 191.464 132.159 189.101 132.159C186.737 132.159 185.146 133.955 185.146 136.682C185.146 139.386 186.737 141.182 189.101 141.182ZM189.101 139.977C187.305 139.977 186.487 138.432 186.487 136.682C186.487 134.932 187.305 133.364 189.101 133.364C190.896 133.364 191.714 134.932 191.714 136.682C191.714 138.432 190.896 139.977 189.101 139.977ZM198.648 141.182C201.011 141.182 202.602 139.386 202.602 136.682C202.602 133.955 201.011 132.159 198.648 132.159C196.284 132.159 194.693 133.955 194.693 136.682C194.693 139.386 196.284 141.182 198.648 141.182ZM198.648 139.977C196.852 139.977 196.034 138.432 196.034 136.682C196.034 134.932 196.852 133.364 198.648 133.364C200.443 133.364 201.261 134.932 201.261 136.682C201.261 138.432 200.443 139.977 198.648 139.977ZM204.649 141H205.99V137.733L206.928 136.864L210.195 141H211.899L207.939 136L211.626 132.273H209.967L206.149 136.159H205.99V129.364H204.649V141ZM213.352 141H214.693V132.273H213.352V141ZM214.034 130.818C214.557 130.818 214.989 130.409 214.989 129.909C214.989 129.409 214.557 129 214.034 129C213.511 129 213.08 129.409 213.08 129.909C213.08 130.409 213.511 130.818 214.034 130.818ZM218.49 135.75C218.49 134.227 219.433 133.364 220.717 133.364C221.962 133.364 222.717 134.176 222.717 135.545V141H224.058V135.455C224.058 133.227 222.871 132.159 221.104 132.159C219.786 132.159 218.967 132.75 218.558 133.636H218.445V132.273H217.149V141H218.49V135.75ZM230.031 144.455C232.122 144.455 233.804 143.5 233.804 141.25V132.273H232.509V133.659H232.372C232.077 133.205 231.531 132.159 229.827 132.159C227.622 132.159 226.099 133.909 226.099 136.591C226.099 139.318 227.69 140.864 229.804 140.864C231.509 140.864 232.054 139.864 232.349 139.386H232.463V141.159C232.463 142.614 231.44 143.273 230.031 143.273C228.446 143.273 227.889 142.438 227.531 141.955L226.463 142.705C227.009 143.619 228.082 144.455 230.031 144.455ZM229.986 139.659C228.304 139.659 227.44 138.386 227.44 136.568C227.44 134.795 228.281 133.364 229.986 133.364C231.622 133.364 232.486 134.682 232.486 136.568C232.486 138.5 231.599 139.659 229.986 139.659ZM240.759 144.273H242.099V139.659H242.213C242.509 140.136 243.077 141.182 244.759 141.182C246.94 141.182 248.463 139.432 248.463 136.659C248.463 133.909 246.94 132.159 244.736 132.159C243.031 132.159 242.509 133.205 242.213 133.659H242.054V132.273H240.759V144.273ZM242.077 136.636C242.077 134.682 242.94 133.364 244.577 133.364C246.281 133.364 247.122 134.795 247.122 136.636C247.122 138.5 246.259 139.977 244.577 139.977C242.963 139.977 242.077 138.614 242.077 136.636ZM250.509 141H251.849V135.477C251.849 134.295 252.781 133.432 254.054 133.432C254.412 133.432 254.781 133.5 254.872 133.523V132.159C254.719 132.148 254.366 132.136 254.168 132.136C253.122 132.136 252.213 132.727 251.895 133.591H251.804V132.273H250.509V141ZM259.741 141.182C262.105 141.182 263.696 139.386 263.696 136.682C263.696 133.955 262.105 132.159 259.741 132.159C257.378 132.159 255.787 133.955 255.787 136.682C255.787 139.386 257.378 141.182 259.741 141.182ZM259.741 139.977C257.946 139.977 257.128 138.432 257.128 136.682C257.128 134.932 257.946 133.364 259.741 133.364C261.537 133.364 262.355 134.932 262.355 136.682C262.355 138.432 261.537 139.977 259.741 139.977ZM269.288 141.182C271.22 141.182 272.493 140 272.72 138.455H271.379C271.129 139.409 270.334 139.977 269.288 139.977C267.697 139.977 266.675 138.659 266.675 136.636C266.675 134.659 267.72 133.364 269.288 133.364C270.47 133.364 271.175 134.091 271.379 134.886H272.72C272.493 133.25 271.107 132.159 269.266 132.159C266.902 132.159 265.334 134.023 265.334 136.682C265.334 139.295 266.834 141.182 269.288 141.182ZM278.339 141.182C280.112 141.182 281.408 140.295 281.817 138.977L280.521 138.614C280.18 139.523 279.391 139.977 278.339 139.977C276.766 139.977 275.68 138.96 275.618 137.091H281.953V136.523C281.953 133.273 280.021 132.159 278.203 132.159C275.839 132.159 274.271 134.023 274.271 136.705C274.271 139.386 275.817 141.182 278.339 141.182ZM275.618 135.932C275.709 134.574 276.669 133.364 278.203 133.364C279.658 133.364 280.589 134.455 280.589 135.932H275.618ZM290.175 134.227C289.754 132.989 288.811 132.159 287.084 132.159C285.243 132.159 283.879 133.205 283.879 134.682C283.879 135.886 284.595 136.693 286.197 137.068L287.652 137.409C288.533 137.614 288.947 138.034 288.947 138.636C288.947 139.386 288.152 140 286.902 140C285.805 140 285.118 139.528 284.879 138.591L283.607 138.909C283.919 140.392 285.141 141.182 286.925 141.182C288.953 141.182 290.334 140.074 290.334 138.568C290.334 137.352 289.572 136.585 288.016 136.205L286.72 135.886C285.686 135.631 285.22 135.284 285.22 134.614C285.22 133.864 286.016 133.318 287.084 133.318C288.254 133.318 288.737 133.966 288.97 134.568L290.175 134.227ZM298.534 134.227C298.114 132.989 297.17 132.159 295.443 132.159C293.602 132.159 292.239 133.205 292.239 134.682C292.239 135.886 292.955 136.693 294.557 137.068L296.011 137.409C296.892 137.614 297.307 138.034 297.307 138.636C297.307 139.386 296.511 140 295.261 140C294.165 140 293.477 139.528 293.239 138.591L291.966 138.909C292.278 140.392 293.5 141.182 295.284 141.182C297.312 141.182 298.693 140.074 298.693 138.568C298.693 137.352 297.932 136.585 296.375 136.205L295.08 135.886C294.045 135.631 293.58 135.284 293.58 134.614C293.58 133.864 294.375 133.318 295.443 133.318C296.614 133.318 297.097 133.966 297.33 134.568L298.534 134.227ZM303.575 136.091C303.575 133.227 302.803 130.841 301.416 128.818H300.234C301.325 130.318 302.189 133.386 302.189 136.091C302.189 138.795 301.325 141.864 300.234 143.364H301.416C302.803 141.341 303.575 138.955 303.575 136.091Z" fill="black"/>
<path d="M34.5 177.864C35.8807 177.864 37 176.744 37 175.364C37 173.983 35.8807 172.864 34.5 172.864C33.1193 172.864 32 173.983 32 175.364C32 176.744 33.1193 177.864 34.5 177.864Z" fill="black"/>
<path d="M64.7727 172C64.3409 169.614 62.4318 168.205 60.0909 168.205C57.1136 168.205 54.9545 170.5 54.9545 174.182C54.9545 177.864 57.1136 180.159 60.0909 180.159C62.4318 180.159 64.3409 178.75 64.7727 176.364H63.3636C63.0227 177.977 61.6364 178.841 60.0909 178.841C57.9773 178.841 56.3182 177.205 56.3182 174.182C56.3182 171.159 57.9773 169.523 60.0909 169.523C61.6364 169.523 63.0227 170.386 63.3636 172H64.7727ZM69.4361 180.205C70.9588 180.205 71.7543 179.386 72.027 178.818H72.0952V180H73.4361V174.25C73.4361 171.477 71.3224 171.159 70.2088 171.159C68.8906 171.159 67.3906 171.614 66.7088 173.205L67.9815 173.659C68.277 173.023 68.9759 172.341 70.2543 172.341C71.4872 172.341 72.0952 172.994 72.0952 174.114V174.159C72.0952 174.807 71.4361 174.75 69.8452 174.955C68.2259 175.165 66.4588 175.523 66.4588 177.523C66.4588 179.227 67.777 180.205 69.4361 180.205ZM69.6406 179C68.5724 179 67.7997 178.523 67.7997 177.591C67.7997 176.568 68.7315 176.25 69.777 176.114C70.3452 176.045 71.8679 175.886 72.0952 175.614V176.841C72.0952 177.932 71.2315 179 69.6406 179ZM79.679 171.273H77.8153V169.182H76.4744V171.273H75.1562V172.409H76.4744V177.864C76.4744 179.386 77.7017 180.114 78.8381 180.114C79.3381 180.114 79.6562 180.023 79.8381 179.955L79.5653 178.75C79.4517 178.773 79.2699 178.818 78.9744 178.818C78.3835 178.818 77.8153 178.636 77.8153 177.5V172.409H79.679V171.273ZM85.2614 180.182C87.0341 180.182 88.3295 179.295 88.7386 177.977L87.4432 177.614C87.1023 178.523 86.3125 178.977 85.2614 178.977C83.6875 178.977 82.6023 177.96 82.5398 176.091H88.875V175.523C88.875 172.273 86.9432 171.159 85.125 171.159C82.7614 171.159 81.1932 173.023 81.1932 175.705C81.1932 178.386 82.7386 180.182 85.2614 180.182ZM82.5398 174.932C82.6307 173.574 83.5909 172.364 85.125 172.364C86.5795 172.364 87.5114 173.455 87.5114 174.932H82.5398ZM94.4375 183.455C96.5284 183.455 98.2102 182.5 98.2102 180.25V171.273H96.9148V172.659H96.7784C96.483 172.205 95.9375 171.159 94.233 171.159C92.0284 171.159 90.5057 172.909 90.5057 175.591C90.5057 178.318 92.0966 179.864 94.2102 179.864C95.9148 179.864 96.4602 178.864 96.7557 178.386H96.8693V180.159C96.8693 181.614 95.8466 182.273 94.4375 182.273C92.8523 182.273 92.2955 181.438 91.9375 180.955L90.8693 181.705C91.4148 182.619 92.4886 183.455 94.4375 183.455ZM94.392 178.659C92.7102 178.659 91.8466 177.386 91.8466 175.568C91.8466 173.795 92.6875 172.364 94.392 172.364C96.0284 172.364 96.892 173.682 96.892 175.568C96.892 177.5 96.0057 178.659 94.392 178.659ZM104.21 180.182C106.574 180.182 108.165 178.386 108.165 175.682C108.165 172.955 106.574 171.159 104.21 171.159C101.847 171.159 100.256 172.955 100.256 175.682C100.256 178.386 101.847 180.182 104.21 180.182ZM104.21 178.977C102.415 178.977 101.597 177.432 101.597 175.682C101.597 173.932 102.415 172.364 104.21 172.364C106.006 172.364 106.824 173.932 106.824 175.682C106.824 177.432 106.006 178.977 104.21 178.977ZM110.212 180H111.553V174.477C111.553 173.295 112.484 172.432 113.757 172.432C114.115 172.432 114.484 172.5 114.575 172.523V171.159C114.422 171.148 114.07 171.136 113.871 171.136C112.825 171.136 111.916 171.727 111.598 172.591H111.507V171.273H110.212V180ZM116.165 180H117.506V171.273H116.165V180ZM116.847 169.818C117.369 169.818 117.801 169.409 117.801 168.909C117.801 168.409 117.369 168 116.847 168C116.324 168 115.892 168.409 115.892 168.909C115.892 169.409 116.324 169.818 116.847 169.818ZM126.143 173.227C125.723 171.989 124.78 171.159 123.053 171.159C121.212 171.159 119.848 172.205 119.848 173.682C119.848 174.886 120.564 175.693 122.166 176.068L123.621 176.409C124.501 176.614 124.916 177.034 124.916 177.636C124.916 178.386 124.121 179 122.871 179C121.774 179 121.087 178.528 120.848 177.591L119.575 177.909C119.888 179.392 121.109 180.182 122.893 180.182C124.922 180.182 126.303 179.074 126.303 177.568C126.303 176.352 125.541 175.585 123.984 175.205L122.689 174.886C121.655 174.631 121.189 174.284 121.189 173.614C121.189 172.864 121.984 172.318 123.053 172.318C124.223 172.318 124.706 172.966 124.939 173.568L126.143 173.227ZM130.889 180.205C132.412 180.205 133.207 179.386 133.48 178.818H133.548V180H134.889V174.25C134.889 171.477 132.776 171.159 131.662 171.159C130.344 171.159 128.844 171.614 128.162 173.205L129.435 173.659C129.73 173.023 130.429 172.341 131.707 172.341C132.94 172.341 133.548 172.994 133.548 174.114V174.159C133.548 174.807 132.889 174.75 131.298 174.955C129.679 175.165 127.912 175.523 127.912 177.523C127.912 179.227 129.23 180.205 130.889 180.205ZM131.094 179C130.026 179 129.253 178.523 129.253 177.591C129.253 176.568 130.185 176.25 131.23 176.114C131.798 176.045 133.321 175.886 133.548 175.614V176.841C133.548 177.932 132.685 179 131.094 179ZM141.132 171.273H139.268V169.182H137.928V171.273H136.609V172.409H137.928V177.864C137.928 179.386 139.155 180.114 140.291 180.114C140.791 180.114 141.109 180.023 141.291 179.955L141.018 178.75C140.905 178.773 140.723 178.818 140.428 178.818C139.837 178.818 139.268 178.636 139.268 177.5V172.409H141.132V171.273ZM143.149 180H144.49V171.273H143.149V180ZM143.831 169.818C144.354 169.818 144.786 169.409 144.786 168.909C144.786 168.409 144.354 168 143.831 168C143.308 168 142.876 168.409 142.876 168.909C142.876 169.409 143.308 169.818 143.831 169.818ZM150.491 180.182C152.855 180.182 154.446 178.386 154.446 175.682C154.446 172.955 152.855 171.159 150.491 171.159C148.128 171.159 146.537 172.955 146.537 175.682C146.537 178.386 148.128 180.182 150.491 180.182ZM150.491 178.977C148.696 178.977 147.878 177.432 147.878 175.682C147.878 173.932 148.696 172.364 150.491 172.364C152.287 172.364 153.105 173.932 153.105 175.682C153.105 177.432 152.287 178.977 150.491 178.977ZM157.834 174.75C157.834 173.227 158.777 172.364 160.061 172.364C161.305 172.364 162.061 173.176 162.061 174.545V180H163.402V174.455C163.402 172.227 162.214 171.159 160.447 171.159C159.129 171.159 158.311 171.75 157.902 172.636H157.788V171.273H156.493V180H157.834V174.75ZM173.898 180.182C176.261 180.182 177.852 178.386 177.852 175.682C177.852 172.955 176.261 171.159 173.898 171.159C171.534 171.159 169.943 172.955 169.943 175.682C169.943 178.386 171.534 180.182 173.898 180.182ZM173.898 178.977C172.102 178.977 171.284 177.432 171.284 175.682C171.284 173.932 172.102 172.364 173.898 172.364C175.693 172.364 176.511 173.932 176.511 175.682C176.511 177.432 175.693 178.977 173.898 178.977ZM183.786 171.273H181.831V170.386C181.831 169.523 182.195 169.068 183.081 169.068C183.467 169.068 183.695 169.159 183.831 169.205L184.217 168.045C184.013 167.955 183.604 167.818 182.945 167.818C181.695 167.818 180.49 168.568 180.49 170.068V171.273H179.081V172.409H180.49V180H181.831V172.409H183.786V171.273ZM190.165 180H191.506V174.477C191.506 173.295 192.438 172.432 193.71 172.432C194.068 172.432 194.438 172.5 194.528 172.523V171.159C194.375 171.148 194.023 171.136 193.824 171.136C192.778 171.136 191.869 171.727 191.551 172.591H191.46V171.273H190.165V180ZM199.511 180.182C201.284 180.182 202.58 179.295 202.989 177.977L201.693 177.614C201.352 178.523 200.562 178.977 199.511 178.977C197.938 178.977 196.852 177.96 196.79 176.091H203.125V175.523C203.125 172.273 201.193 171.159 199.375 171.159C197.011 171.159 195.443 173.023 195.443 175.705C195.443 178.386 196.989 180.182 199.511 180.182ZM196.79 174.932C196.881 173.574 197.841 172.364 199.375 172.364C200.83 172.364 201.761 173.455 201.761 174.932H196.79ZM208.71 180.182C210.642 180.182 211.915 179 212.142 177.455H210.801C210.551 178.409 209.756 178.977 208.71 178.977C207.119 178.977 206.097 177.659 206.097 175.636C206.097 173.659 207.142 172.364 208.71 172.364C209.892 172.364 210.597 173.091 210.801 173.886H212.142C211.915 172.25 210.528 171.159 208.688 171.159C206.324 171.159 204.756 173.023 204.756 175.682C204.756 178.295 206.256 180.182 208.71 180.182ZM214.102 180H215.443V171.273H214.102V180ZM214.784 169.818C215.307 169.818 215.739 169.409 215.739 168.909C215.739 168.409 215.307 168 214.784 168C214.261 168 213.83 168.409 213.83 168.909C213.83 169.409 214.261 169.818 214.784 169.818ZM217.899 183.273H219.24V178.659H219.354C219.649 179.136 220.217 180.182 221.899 180.182C224.081 180.182 225.604 178.432 225.604 175.659C225.604 172.909 224.081 171.159 221.876 171.159C220.172 171.159 219.649 172.205 219.354 172.659H219.195V171.273H217.899V183.273ZM219.217 175.636C219.217 173.682 220.081 172.364 221.717 172.364C223.422 172.364 224.263 173.795 224.263 175.636C224.263 177.5 223.399 178.977 221.717 178.977C220.104 178.977 219.217 177.614 219.217 175.636ZM231.308 180.182C233.081 180.182 234.376 179.295 234.786 177.977L233.49 177.614C233.149 178.523 232.359 178.977 231.308 178.977C229.734 178.977 228.649 177.96 228.587 176.091H234.922V175.523C234.922 172.273 232.99 171.159 231.172 171.159C228.808 171.159 227.24 173.023 227.24 175.705C227.24 178.386 228.786 180.182 231.308 180.182ZM228.587 174.932C228.678 173.574 229.638 172.364 231.172 172.364C232.626 172.364 233.558 173.455 233.558 174.932H228.587ZM243.143 173.227C242.723 171.989 241.78 171.159 240.053 171.159C238.212 171.159 236.848 172.205 236.848 173.682C236.848 174.886 237.564 175.693 239.166 176.068L240.621 176.409C241.501 176.614 241.916 177.034 241.916 177.636C241.916 178.386 241.121 179 239.871 179C238.774 179 238.087 178.528 237.848 177.591L236.575 177.909C236.888 179.392 238.109 180.182 239.893 180.182C241.922 180.182 243.303 179.074 243.303 177.568C243.303 176.352 242.541 175.585 240.984 175.205L239.689 174.886C238.655 174.631 238.189 174.284 238.189 173.614C238.189 172.864 238.984 172.318 240.053 172.318C241.223 172.318 241.706 172.966 241.939 173.568L243.143 173.227Z" fill="black"/>
<path d="M34.5 221.864C35.8807 221.864 37 220.744 37 219.364C37 217.983 35.8807 216.864 34.5 216.864C33.1193 216.864 32 217.983 32 219.364C32 220.744 33.1193 221.864 34.5 221.864Z" fill="black"/>
<path d="M61.7727 215.273H63.1364C63.0739 213.517 61.4545 212.205 59.2045 212.205C56.9773 212.205 55.2273 213.5 55.2273 215.455C55.2273 217.023 56.3636 217.955 58.1818 218.477L59.6136 218.886C60.8409 219.227 61.9318 219.659 61.9318 220.818C61.9318 222.091 60.7045 222.932 59.0909 222.932C57.7045 222.932 56.4773 222.318 56.3636 221H54.9091C55.0455 222.909 56.5909 224.205 59.0909 224.205C61.7727 224.205 63.2955 222.727 63.2955 220.841C63.2955 218.659 61.2273 217.955 60.0227 217.636L58.8409 217.318C57.9773 217.091 56.5909 216.636 56.5909 215.386C56.5909 214.273 57.6136 213.455 59.1591 213.455C60.5682 213.455 61.6364 214.125 61.7727 215.273ZM69.2259 215.273H67.3622V213.182H66.0213V215.273H64.7031V216.409H66.0213V221.864C66.0213 223.386 67.2486 224.114 68.3849 224.114C68.8849 224.114 69.2031 224.023 69.3849 223.955L69.1122 222.75C68.9986 222.773 68.8168 222.818 68.5213 222.818C67.9304 222.818 67.3622 222.636 67.3622 221.5V216.409H69.2259V215.273ZM74.8082 224.182C76.581 224.182 77.8764 223.295 78.2855 221.977L76.9901 221.614C76.6491 222.523 75.8594 222.977 74.8082 222.977C73.2344 222.977 72.1491 221.96 72.0866 220.091H78.4219V219.523C78.4219 216.273 76.4901 215.159 74.6719 215.159C72.3082 215.159 70.7401 217.023 70.7401 219.705C70.7401 222.386 72.2855 224.182 74.8082 224.182ZM72.0866 218.932C72.1776 217.574 73.1378 216.364 74.6719 216.364C76.1264 216.364 77.0582 217.455 77.0582 218.932H72.0866ZM80.4616 227.273H81.8026V222.659H81.9162C82.2116 223.136 82.7798 224.182 84.4616 224.182C86.6435 224.182 88.1662 222.432 88.1662 219.659C88.1662 216.909 86.6435 215.159 84.4389 215.159C82.7344 215.159 82.2116 216.205 81.9162 216.659H81.7571V215.273H80.4616V227.273ZM81.7798 219.636C81.7798 217.682 82.6435 216.364 84.2798 216.364C85.9844 216.364 86.8253 217.795 86.8253 219.636C86.8253 221.5 85.9616 222.977 84.2798 222.977C82.6662 222.977 81.7798 221.614 81.7798 219.636ZM94.8935 224H96.1889V222.659H96.348C96.6435 223.136 97.2116 224.182 98.8935 224.182C101.075 224.182 102.598 222.432 102.598 219.659C102.598 216.909 101.075 215.159 98.8707 215.159C97.1662 215.159 96.6435 216.205 96.348 216.659H96.2344V212.364H94.8935V224ZM96.2116 219.636C96.2116 217.682 97.0753 216.364 98.7116 216.364C100.416 216.364 101.257 217.795 101.257 219.636C101.257 221.5 100.393 222.977 98.7116 222.977C97.098 222.977 96.2116 221.614 96.2116 219.636ZM105.2 227.273C106.411 227.273 107.263 226.631 107.768 225.273L111.484 215.295L110.018 215.273L107.609 222.227H107.518L105.109 215.273H103.655L106.882 224.045L106.632 224.727C106.143 226.057 105.541 226.182 104.564 225.932L104.223 227.114C104.359 227.182 104.746 227.273 105.2 227.273ZM124.304 215.273H125.668C125.605 213.517 123.986 212.205 121.736 212.205C119.509 212.205 117.759 213.5 117.759 215.455C117.759 217.023 118.895 217.955 120.713 218.477L122.145 218.886C123.372 219.227 124.463 219.659 124.463 220.818C124.463 222.091 123.236 222.932 121.622 222.932C120.236 222.932 119.009 222.318 118.895 221H117.44C117.577 222.909 119.122 224.205 121.622 224.205C124.304 224.205 125.827 222.727 125.827 220.841C125.827 218.659 123.759 217.955 122.554 217.636L121.372 217.318C120.509 217.091 119.122 216.636 119.122 215.386C119.122 214.273 120.145 213.455 121.69 213.455C123.099 213.455 124.168 214.125 124.304 215.273ZM131.757 215.273H129.893V213.182H128.553V215.273H127.234V216.409H128.553V221.864C128.553 223.386 129.78 224.114 130.916 224.114C131.416 224.114 131.734 224.023 131.916 223.955L131.643 222.75C131.53 222.773 131.348 222.818 131.053 222.818C130.462 222.818 129.893 222.636 129.893 221.5V216.409H131.757V215.273ZM137.339 224.182C139.112 224.182 140.408 223.295 140.817 221.977L139.521 221.614C139.18 222.523 138.391 222.977 137.339 222.977C135.766 222.977 134.68 221.96 134.618 220.091H140.953V219.523C140.953 216.273 139.021 215.159 137.203 215.159C134.839 215.159 133.271 217.023 133.271 219.705C133.271 222.386 134.817 224.182 137.339 224.182ZM134.618 218.932C134.709 217.574 135.669 216.364 137.203 216.364C138.658 216.364 139.589 217.455 139.589 218.932H134.618ZM142.993 227.273H144.334V222.659H144.447C144.743 223.136 145.311 224.182 146.993 224.182C149.175 224.182 150.697 222.432 150.697 219.659C150.697 216.909 149.175 215.159 146.97 215.159C145.266 215.159 144.743 216.205 144.447 216.659H144.288V215.273H142.993V227.273ZM144.311 219.636C144.311 217.682 145.175 216.364 146.811 216.364C148.516 216.364 149.357 217.795 149.357 219.636C149.357 221.5 148.493 222.977 146.811 222.977C145.197 222.977 144.311 221.614 144.311 219.636ZM157.425 224H158.834V219.75H161.379C164.089 219.75 165.311 218.102 165.311 216.045C165.311 213.989 164.089 212.364 161.357 212.364H157.425V224ZM158.834 218.5V213.614H161.311C163.203 213.614 163.925 214.648 163.925 216.045C163.925 217.443 163.203 218.5 161.334 218.5H158.834ZM167.399 224H168.74V218.477C168.74 217.295 169.672 216.432 170.945 216.432C171.303 216.432 171.672 216.5 171.763 216.523V215.159C171.609 215.148 171.257 215.136 171.058 215.136C170.013 215.136 169.104 215.727 168.786 216.591H168.695V215.273H167.399V224ZM176.632 224.182C178.996 224.182 180.587 222.386 180.587 219.682C180.587 216.955 178.996 215.159 176.632 215.159C174.268 215.159 172.678 216.955 172.678 219.682C172.678 222.386 174.268 224.182 176.632 224.182ZM176.632 222.977C174.837 222.977 174.018 221.432 174.018 219.682C174.018 217.932 174.837 216.364 176.632 216.364C178.428 216.364 179.246 217.932 179.246 219.682C179.246 221.432 178.428 222.977 176.632 222.977ZM186.179 224.182C188.111 224.182 189.384 223 189.611 221.455H188.27C188.02 222.409 187.224 222.977 186.179 222.977C184.588 222.977 183.565 221.659 183.565 219.636C183.565 217.659 184.611 216.364 186.179 216.364C187.361 216.364 188.065 217.091 188.27 217.886H189.611C189.384 216.25 187.997 215.159 186.156 215.159C183.793 215.159 182.224 217.023 182.224 219.682C182.224 222.295 183.724 224.182 186.179 224.182ZM195.23 224.182C197.003 224.182 198.298 223.295 198.707 221.977L197.412 221.614C197.071 222.523 196.281 222.977 195.23 222.977C193.656 222.977 192.571 221.96 192.509 220.091H198.844V219.523C198.844 216.273 196.912 215.159 195.094 215.159C192.73 215.159 191.162 217.023 191.162 219.705C191.162 222.386 192.707 224.182 195.23 224.182ZM192.509 218.932C192.599 217.574 193.56 216.364 195.094 216.364C196.548 216.364 197.48 217.455 197.48 218.932H192.509ZM204.179 224.182C205.861 224.182 206.429 223.136 206.724 222.659H206.884V224H208.179V212.364H206.838V216.659H206.724C206.429 216.205 205.906 215.159 204.202 215.159C201.997 215.159 200.474 216.909 200.474 219.659C200.474 222.432 201.997 224.182 204.179 224.182ZM204.361 222.977C202.679 222.977 201.815 221.5 201.815 219.636C201.815 217.795 202.656 216.364 204.361 216.364C205.997 216.364 206.861 217.682 206.861 219.636C206.861 221.614 205.974 222.977 204.361 222.977ZM216.321 220.432C216.321 222.068 215.071 222.818 214.071 222.818C212.957 222.818 212.162 222 212.162 220.727V215.273H210.821V220.818C210.821 223.045 212.003 224.114 213.639 224.114C214.957 224.114 215.821 223.409 216.23 222.523H216.321V224H217.662V215.273H216.321V220.432ZM220.118 224H221.459V218.477C221.459 217.295 222.391 216.432 223.663 216.432C224.021 216.432 224.391 216.5 224.482 216.523V215.159C224.328 215.148 223.976 215.136 223.777 215.136C222.732 215.136 221.822 215.727 221.504 216.591H221.413V215.273H220.118V224ZM229.464 224.182C231.237 224.182 232.533 223.295 232.942 221.977L231.646 221.614C231.305 222.523 230.516 222.977 229.464 222.977C227.891 222.977 226.805 221.96 226.743 220.091H233.078V219.523C233.078 216.273 231.146 215.159 229.328 215.159C226.964 215.159 225.396 217.023 225.396 219.705C225.396 222.386 226.942 224.182 229.464 224.182ZM226.743 218.932C226.834 217.574 227.794 216.364 229.328 216.364C230.783 216.364 231.714 217.455 231.714 218.932H226.743Z" fill="black"/>
<path d="M34.5 263.864C35.8807 263.864 37 262.744 37 261.364C37 259.983 35.8807 258.864 34.5 258.864C33.1193 258.864 32 259.983 32 261.364C32 262.744 33.1193 263.864 34.5 263.864Z" fill="black"/>
<path d="M61.7727 257.273H63.1364C63.0739 255.517 61.4545 254.205 59.2045 254.205C56.9773 254.205 55.2273 255.5 55.2273 257.455C55.2273 259.023 56.3636 259.955 58.1818 260.477L59.6136 260.886C60.8409 261.227 61.9318 261.659 61.9318 262.818C61.9318 264.091 60.7045 264.932 59.0909 264.932C57.7045 264.932 56.4773 264.318 56.3636 263H54.9091C55.0455 264.909 56.5909 266.205 59.0909 266.205C61.7727 266.205 63.2955 264.727 63.2955 262.841C63.2955 260.659 61.2273 259.955 60.0227 259.636L58.8409 259.318C57.9773 259.091 56.5909 258.636 56.5909 257.386C56.5909 256.273 57.6136 255.455 59.1591 255.455C60.5682 255.455 61.6364 256.125 61.7727 257.273ZM67.9986 266.205C69.5213 266.205 70.3168 265.386 70.5895 264.818H70.6577V266H71.9986V260.25C71.9986 257.477 69.8849 257.159 68.7713 257.159C67.4531 257.159 65.9531 257.614 65.2713 259.205L66.544 259.659C66.8395 259.023 67.5384 258.341 68.8168 258.341C70.0497 258.341 70.6577 258.994 70.6577 260.114V260.159C70.6577 260.807 69.9986 260.75 68.4077 260.955C66.7884 261.165 65.0213 261.523 65.0213 263.523C65.0213 265.227 66.3395 266.205 67.9986 266.205ZM68.2031 265C67.1349 265 66.3622 264.523 66.3622 263.591C66.3622 262.568 67.294 262.25 68.3395 262.114C68.9077 262.045 70.4304 261.886 70.6577 261.614V262.841C70.6577 263.932 69.794 265 68.2031 265ZM81.2699 257.273H79.8153L77.4062 264.227H77.3153L74.9062 257.273H73.4517L76.679 266H78.0426L81.2699 257.273ZM86.3864 266.182C88.1591 266.182 89.4545 265.295 89.8636 263.977L88.5682 263.614C88.2273 264.523 87.4375 264.977 86.3864 264.977C84.8125 264.977 83.7273 263.96 83.6648 262.091H90V261.523C90 258.273 88.0682 257.159 86.25 257.159C83.8864 257.159 82.3182 259.023 82.3182 261.705C82.3182 264.386 83.8636 266.182 86.3864 266.182ZM83.6648 260.932C83.7557 259.574 84.7159 258.364 86.25 258.364C87.7045 258.364 88.6364 259.455 88.6364 260.932H83.6648ZM96.7216 266H98.1307V261.455H100.676C100.778 261.455 100.875 261.455 100.972 261.449L103.426 266H105.062L102.432 261.193C103.915 260.688 104.608 259.477 104.608 257.932C104.608 255.875 103.381 254.364 100.653 254.364H96.7216V266ZM98.1307 260.182V255.614H100.608C102.494 255.614 103.222 256.534 103.222 257.932C103.222 259.33 102.494 260.182 100.631 260.182H98.1307ZM110.339 266.182C112.112 266.182 113.408 265.295 113.817 263.977L112.521 263.614C112.18 264.523 111.391 264.977 110.339 264.977C108.766 264.977 107.68 263.96 107.618 262.091H113.953V261.523C113.953 258.273 112.021 257.159 110.203 257.159C107.839 257.159 106.271 259.023 106.271 261.705C106.271 264.386 107.817 266.182 110.339 266.182ZM107.618 260.932C107.709 259.574 108.669 258.364 110.203 258.364C111.658 258.364 112.589 259.455 112.589 260.932H107.618ZM119.538 266.182C121.47 266.182 122.743 265 122.97 263.455H121.629C121.379 264.409 120.584 264.977 119.538 264.977C117.947 264.977 116.925 263.659 116.925 261.636C116.925 259.659 117.97 258.364 119.538 258.364C120.72 258.364 121.425 259.091 121.629 259.886H122.97C122.743 258.25 121.357 257.159 119.516 257.159C117.152 257.159 115.584 259.023 115.584 261.682C115.584 264.295 117.084 266.182 119.538 266.182ZM124.93 266H126.271V257.273H124.93V266ZM125.612 255.818C126.135 255.818 126.567 255.409 126.567 254.909C126.567 254.409 126.135 254 125.612 254C125.089 254 124.658 254.409 124.658 254.909C124.658 255.409 125.089 255.818 125.612 255.818ZM128.727 269.273H130.068V264.659H130.182C130.477 265.136 131.045 266.182 132.727 266.182C134.909 266.182 136.432 264.432 136.432 261.659C136.432 258.909 134.909 257.159 132.705 257.159C131 257.159 130.477 258.205 130.182 258.659H130.023V257.273H128.727V269.273ZM130.045 261.636C130.045 259.682 130.909 258.364 132.545 258.364C134.25 258.364 135.091 259.795 135.091 261.636C135.091 263.5 134.227 264.977 132.545 264.977C130.932 264.977 130.045 263.614 130.045 261.636ZM142.136 266.182C143.909 266.182 145.205 265.295 145.614 263.977L144.318 263.614C143.977 264.523 143.188 264.977 142.136 264.977C140.562 264.977 139.477 263.96 139.415 262.091H145.75V261.523C145.75 258.273 143.818 257.159 142 257.159C139.636 257.159 138.068 259.023 138.068 261.705C138.068 264.386 139.614 266.182 142.136 266.182ZM139.415 260.932C139.506 259.574 140.466 258.364 142 258.364C143.455 258.364 144.386 259.455 144.386 260.932H139.415ZM153.972 259.227C153.551 257.989 152.608 257.159 150.881 257.159C149.04 257.159 147.676 258.205 147.676 259.682C147.676 260.886 148.392 261.693 149.994 262.068L151.449 262.409C152.33 262.614 152.744 263.034 152.744 263.636C152.744 264.386 151.949 265 150.699 265C149.602 265 148.915 264.528 148.676 263.591L147.403 263.909C147.716 265.392 148.938 266.182 150.722 266.182C152.75 266.182 154.131 265.074 154.131 263.568C154.131 262.352 153.369 261.585 151.812 261.205L150.517 260.886C149.483 260.631 149.017 260.284 149.017 259.614C149.017 258.864 149.812 258.318 150.881 258.318C152.051 258.318 152.534 258.966 152.767 259.568L153.972 259.227ZM164.536 257.273H162.581V256.386C162.581 255.523 162.945 255.068 163.831 255.068C164.217 255.068 164.445 255.159 164.581 255.205L164.967 254.045C164.763 253.955 164.354 253.818 163.695 253.818C162.445 253.818 161.24 254.568 161.24 256.068V257.273H159.831V258.409H161.24V266H162.581V258.409H164.536V257.273ZM169.601 266.182C171.964 266.182 173.555 264.386 173.555 261.682C173.555 258.955 171.964 257.159 169.601 257.159C167.237 257.159 165.646 258.955 165.646 261.682C165.646 264.386 167.237 266.182 169.601 266.182ZM169.601 264.977C167.805 264.977 166.987 263.432 166.987 261.682C166.987 259.932 167.805 258.364 169.601 258.364C171.396 258.364 172.214 259.932 172.214 261.682C172.214 263.432 171.396 264.977 169.601 264.977ZM175.602 266H176.943V260.477C176.943 259.295 177.875 258.432 179.148 258.432C179.506 258.432 179.875 258.5 179.966 258.523V257.159C179.812 257.148 179.46 257.136 179.261 257.136C178.216 257.136 177.307 257.727 176.989 258.591H176.898V257.273H175.602V266ZM187.396 254.364H186.055V266H187.396V254.364ZM192.42 266.205C193.943 266.205 194.739 265.386 195.011 264.818H195.08V266H196.42V260.25C196.42 257.477 194.307 257.159 193.193 257.159C191.875 257.159 190.375 257.614 189.693 259.205L190.966 259.659C191.261 259.023 191.96 258.341 193.239 258.341C194.472 258.341 195.08 258.994 195.08 260.114V260.159C195.08 260.807 194.42 260.75 192.83 260.955C191.21 261.165 189.443 261.523 189.443 263.523C189.443 265.227 190.761 266.205 192.42 266.205ZM192.625 265C191.557 265 190.784 264.523 190.784 263.591C190.784 262.568 191.716 262.25 192.761 262.114C193.33 262.045 194.852 261.886 195.08 261.614V262.841C195.08 263.932 194.216 265 192.625 265ZM202.663 257.273H200.8V255.182H199.459V257.273H198.141V258.409H199.459V263.864C199.459 265.386 200.686 266.114 201.822 266.114C202.322 266.114 202.641 266.023 202.822 265.955L202.55 264.75C202.436 264.773 202.254 264.818 201.959 264.818C201.368 264.818 200.8 264.636 200.8 263.5V258.409H202.663V257.273ZM208.246 266.182C210.018 266.182 211.314 265.295 211.723 263.977L210.428 263.614C210.087 264.523 209.297 264.977 208.246 264.977C206.672 264.977 205.587 263.96 205.524 262.091H211.859V261.523C211.859 258.273 209.928 257.159 208.109 257.159C205.746 257.159 204.178 259.023 204.178 261.705C204.178 264.386 205.723 266.182 208.246 266.182ZM205.524 260.932C205.615 259.574 206.575 258.364 208.109 258.364C209.564 258.364 210.496 259.455 210.496 260.932H205.524ZM213.899 266H215.24V260.477C215.24 259.295 216.172 258.432 217.445 258.432C217.803 258.432 218.172 258.5 218.263 258.523V257.159C218.109 257.148 217.757 257.136 217.558 257.136C216.513 257.136 215.604 257.727 215.286 258.591H215.195V257.273H213.899V266Z" fill="black"/>
<path d="M34.5 307.864C35.8807 307.864 37 306.744 37 305.364C37 303.983 35.8807 302.864 34.5 302.864C33.1193 302.864 32 303.983 32 305.364C32 306.744 33.1193 307.864 34.5 307.864Z" fill="black"/>
<path d="M55.8864 310L57.0568 306.705H61.7614L62.9318 310H64.4091L60.1364 298.364H58.6818L54.4091 310H55.8864ZM57.5 305.455L59.3636 300.205H59.4545L61.3182 305.455H57.5ZM72.0824 301.273H70.6278L68.2188 308.227H68.1278L65.7188 301.273H64.2642L67.4915 310H68.8551L72.0824 301.273ZM77.0852 310.182C79.4489 310.182 81.0398 308.386 81.0398 305.682C81.0398 302.955 79.4489 301.159 77.0852 301.159C74.7216 301.159 73.1307 302.955 73.1307 305.682C73.1307 308.386 74.7216 310.182 77.0852 310.182ZM77.0852 308.977C75.2898 308.977 74.4716 307.432 74.4716 305.682C74.4716 303.932 75.2898 302.364 77.0852 302.364C78.8807 302.364 79.6989 303.932 79.6989 305.682C79.6989 307.432 78.8807 308.977 77.0852 308.977ZM83.0866 310H84.4276V301.273H83.0866V310ZM83.7685 299.818C84.2912 299.818 84.723 299.409 84.723 298.909C84.723 298.409 84.2912 298 83.7685 298C83.2457 298 82.8139 298.409 82.8139 298.909C82.8139 299.409 83.2457 299.818 83.7685 299.818ZM90.179 310.182C91.8608 310.182 92.429 309.136 92.7244 308.659H92.8835V310H94.179V298.364H92.8381V302.659H92.7244C92.429 302.205 91.9062 301.159 90.2017 301.159C87.9972 301.159 86.4744 302.909 86.4744 305.659C86.4744 308.432 87.9972 310.182 90.179 310.182ZM90.3608 308.977C88.679 308.977 87.8153 307.5 87.8153 305.636C87.8153 303.795 88.6562 302.364 90.3608 302.364C91.9972 302.364 92.8608 303.682 92.8608 305.636C92.8608 307.614 91.9744 308.977 90.3608 308.977ZM106.821 306.432C106.821 308.068 105.571 308.818 104.571 308.818C103.457 308.818 102.662 308 102.662 306.727V301.273H101.321V306.818C101.321 309.045 102.503 310.114 104.139 310.114C105.457 310.114 106.321 309.409 106.73 308.523H106.821V310H108.162V301.273H106.821V306.432ZM116.8 303.227C116.379 301.989 115.436 301.159 113.709 301.159C111.868 301.159 110.504 302.205 110.504 303.682C110.504 304.886 111.22 305.693 112.822 306.068L114.277 306.409C115.158 306.614 115.572 307.034 115.572 307.636C115.572 308.386 114.777 309 113.527 309C112.43 309 111.743 308.528 111.504 307.591L110.232 307.909C110.544 309.392 111.766 310.182 113.55 310.182C115.578 310.182 116.959 309.074 116.959 307.568C116.959 306.352 116.197 305.585 114.641 305.205L113.345 304.886C112.311 304.631 111.845 304.284 111.845 303.614C111.845 302.864 112.641 302.318 113.709 302.318C114.879 302.318 115.362 302.966 115.595 303.568L116.8 303.227ZM118.977 310H120.318V301.273H118.977V310ZM119.659 299.818C120.182 299.818 120.614 299.409 120.614 298.909C120.614 298.409 120.182 298 119.659 298C119.136 298 118.705 298.409 118.705 298.909C118.705 299.409 119.136 299.818 119.659 299.818ZM124.115 304.75C124.115 303.227 125.058 302.364 126.342 302.364C127.587 302.364 128.342 303.176 128.342 304.545V310H129.683V304.455C129.683 302.227 128.496 301.159 126.729 301.159C125.411 301.159 124.592 301.75 124.183 302.636H124.07V301.273H122.774V310H124.115V304.75ZM135.656 313.455C137.747 313.455 139.429 312.5 139.429 310.25V301.273H138.134V302.659H137.997C137.702 302.205 137.156 301.159 135.452 301.159C133.247 301.159 131.724 302.909 131.724 305.591C131.724 308.318 133.315 309.864 135.429 309.864C137.134 309.864 137.679 308.864 137.974 308.386H138.088V310.159C138.088 311.614 137.065 312.273 135.656 312.273C134.071 312.273 133.514 311.438 133.156 310.955L132.088 311.705C132.634 312.619 133.707 313.455 135.656 313.455ZM135.611 308.659C133.929 308.659 133.065 307.386 133.065 305.568C133.065 303.795 133.906 302.364 135.611 302.364C137.247 302.364 138.111 303.682 138.111 305.568C138.111 307.5 137.224 308.659 135.611 308.659ZM147.724 304.75C147.724 303.227 148.696 302.364 150.02 302.364C151.281 302.364 152.043 303.159 152.043 304.545V310H153.384V304.455C153.384 302.21 152.19 301.159 150.406 301.159C149.031 301.159 148.247 301.733 147.838 302.636H147.724V298.364H146.384V310H147.724V304.75ZM158.405 310.205C159.928 310.205 160.723 309.386 160.996 308.818H161.064V310H162.405V304.25C162.405 301.477 160.291 301.159 159.178 301.159C157.859 301.159 156.359 301.614 155.678 303.205L156.95 303.659C157.246 303.023 157.945 302.341 159.223 302.341C160.456 302.341 161.064 302.994 161.064 304.114V304.159C161.064 304.807 160.405 304.75 158.814 304.955C157.195 305.165 155.428 305.523 155.428 307.523C155.428 309.227 156.746 310.205 158.405 310.205ZM158.609 309C157.541 309 156.768 308.523 156.768 307.591C156.768 306.568 157.7 306.25 158.746 306.114C159.314 306.045 160.837 305.886 161.064 305.614V306.841C161.064 307.932 160.2 309 158.609 309ZM166.193 304.75C166.193 303.227 167.136 302.364 168.42 302.364C169.665 302.364 170.42 303.176 170.42 304.545V310H171.761V304.455C171.761 302.227 170.574 301.159 168.807 301.159C167.489 301.159 166.67 301.75 166.261 302.636H166.148V301.273H164.852V310H166.193V304.75ZM177.507 310.182C179.189 310.182 179.757 309.136 180.053 308.659H180.212V310H181.507V298.364H180.166V302.659H180.053C179.757 302.205 179.234 301.159 177.53 301.159C175.325 301.159 173.803 302.909 173.803 305.659C173.803 308.432 175.325 310.182 177.507 310.182ZM177.689 308.977C176.007 308.977 175.143 307.5 175.143 305.636C175.143 303.795 175.984 302.364 177.689 302.364C179.325 302.364 180.189 303.682 180.189 305.636C180.189 307.614 179.303 308.977 177.689 308.977ZM190.331 303.227C189.911 301.989 188.967 301.159 187.24 301.159C185.399 301.159 184.036 302.205 184.036 303.682C184.036 304.886 184.751 305.693 186.354 306.068L187.808 306.409C188.689 306.614 189.104 307.034 189.104 307.636C189.104 308.386 188.308 309 187.058 309C185.962 309 185.274 308.528 185.036 307.591L183.763 307.909C184.075 309.392 185.297 310.182 187.081 310.182C189.109 310.182 190.49 309.074 190.49 307.568C190.49 306.352 189.729 305.585 188.172 305.205L186.876 304.886C185.842 304.631 185.376 304.284 185.376 303.614C185.376 302.864 186.172 302.318 187.24 302.318C188.411 302.318 188.893 302.966 189.126 303.568L190.331 303.227ZM200.804 301.273H198.94V299.182H197.599V301.273H196.281V302.409H197.599V307.864C197.599 309.386 198.827 310.114 199.963 310.114C200.463 310.114 200.781 310.023 200.963 309.955L200.69 308.75C200.577 308.773 200.395 308.818 200.099 308.818C199.509 308.818 198.94 308.636 198.94 307.5V302.409H200.804V301.273ZM206.273 310.182C208.636 310.182 210.227 308.386 210.227 305.682C210.227 302.955 208.636 301.159 206.273 301.159C203.909 301.159 202.318 302.955 202.318 305.682C202.318 308.386 203.909 310.182 206.273 310.182ZM206.273 308.977C204.477 308.977 203.659 307.432 203.659 305.682C203.659 303.932 204.477 302.364 206.273 302.364C208.068 302.364 208.886 303.932 208.886 305.682C208.886 307.432 208.068 308.977 206.273 308.977ZM220.32 310.182C222.683 310.182 224.274 308.386 224.274 305.682C224.274 302.955 222.683 301.159 220.32 301.159C217.956 301.159 216.365 302.955 216.365 305.682C216.365 308.386 217.956 310.182 220.32 310.182ZM220.32 308.977C218.524 308.977 217.706 307.432 217.706 305.682C217.706 303.932 218.524 302.364 220.32 302.364C222.115 302.364 222.933 303.932 222.933 305.682C222.933 307.432 222.115 308.977 220.32 308.977ZM226.321 313.273H227.662V308.659H227.776C228.071 309.136 228.639 310.182 230.321 310.182C232.503 310.182 234.026 308.432 234.026 305.659C234.026 302.909 232.503 301.159 230.298 301.159C228.594 301.159 228.071 302.205 227.776 302.659H227.616V301.273H226.321V313.273ZM227.639 305.636C227.639 303.682 228.503 302.364 230.139 302.364C231.844 302.364 232.685 303.795 232.685 305.636C232.685 307.5 231.821 308.977 230.139 308.977C228.526 308.977 227.639 307.614 227.639 305.636ZM239.73 310.182C241.503 310.182 242.798 309.295 243.207 307.977L241.912 307.614C241.571 308.523 240.781 308.977 239.73 308.977C238.156 308.977 237.071 307.96 237.009 306.091H243.344V305.523C243.344 302.273 241.412 301.159 239.594 301.159C237.23 301.159 235.662 303.023 235.662 305.705C235.662 308.386 237.207 310.182 239.73 310.182ZM237.009 304.932C237.099 303.574 238.06 302.364 239.594 302.364C241.048 302.364 241.98 303.455 241.98 304.932H237.009ZM245.384 310H246.724V304.477C246.724 303.295 247.656 302.432 248.929 302.432C249.287 302.432 249.656 302.5 249.747 302.523V301.159C249.594 301.148 249.241 301.136 249.043 301.136C247.997 301.136 247.088 301.727 246.77 302.591H246.679V301.273H245.384V310ZM253.905 310.205C255.428 310.205 256.223 309.386 256.496 308.818H256.564V310H257.905V304.25C257.905 301.477 255.791 301.159 254.678 301.159C253.359 301.159 251.859 301.614 251.178 303.205L252.45 303.659C252.746 303.023 253.445 302.341 254.723 302.341C255.956 302.341 256.564 302.994 256.564 304.114V304.159C256.564 304.807 255.905 304.75 254.314 304.955C252.695 305.165 250.928 305.523 250.928 307.523C250.928 309.227 252.246 310.205 253.905 310.205ZM254.109 309C253.041 309 252.268 308.523 252.268 307.591C252.268 306.568 253.2 306.25 254.246 306.114C254.814 306.045 256.337 305.886 256.564 305.614V306.841C256.564 307.932 255.7 309 254.109 309ZM264.148 301.273H262.284V299.182H260.943V301.273H259.625V302.409H260.943V307.864C260.943 309.386 262.17 310.114 263.307 310.114C263.807 310.114 264.125 310.023 264.307 309.955L264.034 308.75C263.92 308.773 263.739 308.818 263.443 308.818C262.852 308.818 262.284 308.636 262.284 307.5V302.409H264.148V301.273ZM269.73 310.182C271.503 310.182 272.798 309.295 273.207 307.977L271.912 307.614C271.571 308.523 270.781 308.977 269.73 308.977C268.156 308.977 267.071 307.96 267.009 306.091H273.344V305.523C273.344 302.273 271.412 301.159 269.594 301.159C267.23 301.159 265.662 303.023 265.662 305.705C265.662 308.386 267.207 310.182 269.73 310.182ZM267.009 304.932C267.099 303.574 268.06 302.364 269.594 302.364C271.048 302.364 271.98 303.455 271.98 304.932H267.009ZM283.679 301.273H281.815V299.182H280.474V301.273H279.156V302.409H280.474V307.864C280.474 309.386 281.702 310.114 282.838 310.114C283.338 310.114 283.656 310.023 283.838 309.955L283.565 308.75C283.452 308.773 283.27 308.818 282.974 308.818C282.384 308.818 281.815 308.636 281.815 307.5V302.409H283.679V301.273ZM287.224 304.75C287.224 303.227 288.196 302.364 289.52 302.364C290.781 302.364 291.543 303.159 291.543 304.545V310H292.884V304.455C292.884 302.21 291.69 301.159 289.906 301.159C288.531 301.159 287.747 301.733 287.338 302.636H287.224V298.364H285.884V310H287.224V304.75ZM298.996 310.182C300.768 310.182 302.064 309.295 302.473 307.977L301.178 307.614C300.837 308.523 300.047 308.977 298.996 308.977C297.422 308.977 296.337 307.96 296.274 306.091H302.609V305.523C302.609 302.273 300.678 301.159 298.859 301.159C296.496 301.159 294.928 303.023 294.928 305.705C294.928 308.386 296.473 310.182 298.996 310.182ZM296.274 304.932C296.365 303.574 297.325 302.364 298.859 302.364C300.314 302.364 301.246 303.455 301.246 304.932H296.274ZM55.2273 334H56.5682V328.545C56.5682 327.267 57.5 326.364 58.5455 326.364C59.5625 326.364 60.2727 327.028 60.2727 328.023V334H61.6364V328.318C61.6364 327.193 62.3409 326.364 63.5682 326.364C64.5227 326.364 65.3409 326.869 65.3409 328.159V334H66.6818V328.159C66.6818 326.108 65.5795 325.159 64.0227 325.159C62.7727 325.159 61.858 325.733 61.4091 326.636H61.3182C60.8864 325.705 60.125 325.159 58.9773 325.159C57.8409 325.159 57 325.705 56.6364 326.636H56.5227V325.273H55.2273V334ZM72.679 334.182C75.0426 334.182 76.6335 332.386 76.6335 329.682C76.6335 326.955 75.0426 325.159 72.679 325.159C70.3153 325.159 68.7244 326.955 68.7244 329.682C68.7244 332.386 70.3153 334.182 72.679 334.182ZM72.679 332.977C70.8835 332.977 70.0653 331.432 70.0653 329.682C70.0653 327.932 70.8835 326.364 72.679 326.364C74.4744 326.364 75.2926 327.932 75.2926 329.682C75.2926 331.432 74.4744 332.977 72.679 332.977ZM78.8622 334H80.1577V332.659H80.3168C80.6122 333.136 81.1804 334.182 82.8622 334.182C85.044 334.182 86.5668 332.432 86.5668 329.659C86.5668 326.909 85.044 325.159 82.8395 325.159C81.1349 325.159 80.6122 326.205 80.3168 326.659H80.2031V322.364H78.8622V334ZM80.1804 329.636C80.1804 327.682 81.044 326.364 82.6804 326.364C84.3849 326.364 85.2259 327.795 85.2259 329.636C85.2259 331.5 84.3622 332.977 82.6804 332.977C81.0668 332.977 80.1804 331.614 80.1804 329.636ZM88.6179 334H89.9588V325.273H88.6179V334ZM89.2997 323.818C89.8224 323.818 90.2543 323.409 90.2543 322.909C90.2543 322.409 89.8224 322 89.2997 322C88.777 322 88.3452 322.409 88.3452 322.909C88.3452 323.409 88.777 323.818 89.2997 323.818ZM93.7557 322.364H92.4148V334H93.7557V322.364ZM99.8707 334.182C101.643 334.182 102.939 333.295 103.348 331.977L102.053 331.614C101.712 332.523 100.922 332.977 99.8707 332.977C98.2969 332.977 97.2116 331.96 97.1491 330.091H103.484V329.523C103.484 326.273 101.553 325.159 99.7344 325.159C97.3707 325.159 95.8026 327.023 95.8026 329.705C95.8026 332.386 97.348 334.182 99.8707 334.182ZM97.1491 328.932C97.2401 327.574 98.2003 326.364 99.7344 326.364C101.189 326.364 102.121 327.455 102.121 328.932H97.1491ZM110.024 337.273H111.365V332.659H111.479C111.774 333.136 112.342 334.182 114.024 334.182C116.206 334.182 117.729 332.432 117.729 329.659C117.729 326.909 116.206 325.159 114.001 325.159C112.297 325.159 111.774 326.205 111.479 326.659H111.32V325.273H110.024V337.273ZM111.342 329.636C111.342 327.682 112.206 326.364 113.842 326.364C115.547 326.364 116.388 327.795 116.388 329.636C116.388 331.5 115.524 332.977 113.842 332.977C112.229 332.977 111.342 331.614 111.342 329.636ZM121.115 328.75C121.115 327.227 122.087 326.364 123.411 326.364C124.672 326.364 125.433 327.159 125.433 328.545V334H126.774V328.455C126.774 326.21 125.581 325.159 123.797 325.159C122.422 325.159 121.638 325.733 121.229 326.636H121.115V322.364H119.774V334H121.115V328.75ZM132.773 334.182C135.136 334.182 136.727 332.386 136.727 329.682C136.727 326.955 135.136 325.159 132.773 325.159C130.409 325.159 128.818 326.955 128.818 329.682C128.818 332.386 130.409 334.182 132.773 334.182ZM132.773 332.977C130.977 332.977 130.159 331.432 130.159 329.682C130.159 327.932 130.977 326.364 132.773 326.364C134.568 326.364 135.386 327.932 135.386 329.682C135.386 331.432 134.568 332.977 132.773 332.977ZM140.115 328.75C140.115 327.227 141.058 326.364 142.342 326.364C143.587 326.364 144.342 327.176 144.342 328.545V334H145.683V328.455C145.683 326.227 144.496 325.159 142.729 325.159C141.411 325.159 140.592 325.75 140.183 326.636H140.07V325.273H138.774V334H140.115V328.75ZM151.793 334.182C153.565 334.182 154.861 333.295 155.27 331.977L153.974 331.614C153.634 332.523 152.844 332.977 151.793 332.977C150.219 332.977 149.134 331.96 149.071 330.091H155.406V329.523C155.406 326.273 153.474 325.159 151.656 325.159C149.293 325.159 147.724 327.023 147.724 329.705C147.724 332.386 149.27 334.182 151.793 334.182ZM149.071 328.932C149.162 327.574 150.122 326.364 151.656 326.364C153.111 326.364 154.043 327.455 154.043 328.932H149.071ZM165.241 334.182C166.923 334.182 167.491 333.136 167.787 332.659H167.946V334H169.241V322.364H167.901V326.659H167.787C167.491 326.205 166.969 325.159 165.264 325.159C163.06 325.159 161.537 326.909 161.537 329.659C161.537 332.432 163.06 334.182 165.241 334.182ZM165.423 332.977C163.741 332.977 162.878 331.5 162.878 329.636C162.878 327.795 163.719 326.364 165.423 326.364C167.06 326.364 167.923 327.682 167.923 329.636C167.923 331.614 167.037 332.977 165.423 332.977ZM177.384 330.432C177.384 332.068 176.134 332.818 175.134 332.818C174.02 332.818 173.224 332 173.224 330.727V325.273H171.884V330.818C171.884 333.045 173.065 334.114 174.702 334.114C176.02 334.114 176.884 333.409 177.293 332.523H177.384V334H178.724V325.273H177.384V330.432ZM181.18 334H182.521V328.477C182.521 327.295 183.453 326.432 184.726 326.432C185.084 326.432 185.453 326.5 185.544 326.523V325.159C185.391 325.148 185.038 325.136 184.839 325.136C183.794 325.136 182.885 325.727 182.567 326.591H182.476V325.273H181.18V334ZM187.134 334H188.474V325.273H187.134V334ZM187.815 323.818C188.338 323.818 188.77 323.409 188.77 322.909C188.77 322.409 188.338 322 187.815 322C187.293 322 186.861 322.409 186.861 322.909C186.861 323.409 187.293 323.818 187.815 323.818ZM192.271 328.75C192.271 327.227 193.214 326.364 194.499 326.364C195.743 326.364 196.499 327.176 196.499 328.545V334H197.839V328.455C197.839 326.227 196.652 325.159 194.885 325.159C193.567 325.159 192.749 325.75 192.339 326.636H192.226V325.273H190.93V334H192.271V328.75ZM203.812 337.455C205.903 337.455 207.585 336.5 207.585 334.25V325.273H206.29V326.659H206.153C205.858 326.205 205.312 325.159 203.608 325.159C201.403 325.159 199.881 326.909 199.881 329.591C199.881 332.318 201.472 333.864 203.585 333.864C205.29 333.864 205.835 332.864 206.131 332.386H206.244V334.159C206.244 335.614 205.222 336.273 203.812 336.273C202.227 336.273 201.67 335.438 201.312 334.955L200.244 335.705C200.79 336.619 201.864 337.455 203.812 337.455ZM203.767 332.659C202.085 332.659 201.222 331.386 201.222 329.568C201.222 327.795 202.062 326.364 203.767 326.364C205.403 326.364 206.267 327.682 206.267 329.568C206.267 331.5 205.381 332.659 203.767 332.659ZM218.085 334.182C220.017 334.182 221.29 333 221.517 331.455H220.176C219.926 332.409 219.131 332.977 218.085 332.977C216.494 332.977 215.472 331.659 215.472 329.636C215.472 327.659 216.517 326.364 218.085 326.364C219.267 326.364 219.972 327.091 220.176 327.886H221.517C221.29 326.25 219.903 325.159 218.062 325.159C215.699 325.159 214.131 327.023 214.131 329.682C214.131 332.295 215.631 334.182 218.085 334.182ZM227.023 334.182C229.386 334.182 230.977 332.386 230.977 329.682C230.977 326.955 229.386 325.159 227.023 325.159C224.659 325.159 223.068 326.955 223.068 329.682C223.068 332.386 224.659 334.182 227.023 334.182ZM227.023 332.977C225.227 332.977 224.409 331.432 224.409 329.682C224.409 327.932 225.227 326.364 227.023 326.364C228.818 326.364 229.636 327.932 229.636 329.682C229.636 331.432 228.818 332.977 227.023 332.977ZM236.57 334.182C238.933 334.182 240.524 332.386 240.524 329.682C240.524 326.955 238.933 325.159 236.57 325.159C234.206 325.159 232.615 326.955 232.615 329.682C232.615 332.386 234.206 334.182 236.57 334.182ZM236.57 332.977C234.774 332.977 233.956 331.432 233.956 329.682C233.956 327.932 234.774 326.364 236.57 326.364C238.365 326.364 239.183 327.932 239.183 329.682C239.183 331.432 238.365 332.977 236.57 332.977ZM242.571 334H243.912V330.733L244.849 329.864L248.116 334H249.821L245.861 329L249.548 325.273H247.889L244.071 329.159H243.912V322.364H242.571V334ZM251.274 334H252.615V325.273H251.274V334ZM251.956 323.818C252.479 323.818 252.911 323.409 252.911 322.909C252.911 322.409 252.479 322 251.956 322C251.433 322 251.001 322.409 251.001 322.909C251.001 323.409 251.433 323.818 251.956 323.818ZM256.412 328.75C256.412 327.227 257.355 326.364 258.639 326.364C259.884 326.364 260.639 327.176 260.639 328.545V334H261.98V328.455C261.98 326.227 260.793 325.159 259.026 325.159C257.707 325.159 256.889 325.75 256.48 326.636H256.366V325.273H255.071V334H256.412V328.75ZM267.953 337.455C270.044 337.455 271.726 336.5 271.726 334.25V325.273H270.43V326.659H270.294C269.999 326.205 269.453 325.159 267.749 325.159C265.544 325.159 264.021 326.909 264.021 329.591C264.021 332.318 265.612 333.864 267.726 333.864C269.43 333.864 269.976 332.864 270.271 332.386H270.385V334.159C270.385 335.614 269.362 336.273 267.953 336.273C266.368 336.273 265.811 335.438 265.453 334.955L264.385 335.705C264.93 336.619 266.004 337.455 267.953 337.455ZM267.908 332.659C266.226 332.659 265.362 331.386 265.362 329.568C265.362 327.795 266.203 326.364 267.908 326.364C269.544 326.364 270.408 327.682 270.408 329.568C270.408 331.5 269.521 332.659 267.908 332.659Z" fill="black"/>
<path d="M31.4347 61H34.0696V54.821H40.1136V52.6122H34.0696V48.6634H40.7528V46.4545H31.4347V61ZM47.0685 61.2131C49.6112 61.2131 51.3583 59.9702 51.8129 58.0739L49.4123 57.804C49.0643 58.7273 48.212 59.2102 47.104 59.2102C45.4421 59.2102 44.3413 58.1165 44.32 56.2486H51.9194V55.4602C51.9194 51.6321 49.6183 49.9489 46.9336 49.9489C43.8086 49.9489 41.7702 52.2429 41.7702 55.6094C41.7702 59.0327 43.7802 61.2131 47.0685 61.2131ZM44.3271 54.5156C44.4052 53.1236 45.435 51.9517 46.9691 51.9517C48.4464 51.9517 49.4407 53.0312 49.4549 54.5156H44.3271ZM57.2337 61.2202C58.9453 61.2202 59.968 60.4176 60.4368 59.5014H60.522V61H62.9936V53.6989C62.9936 50.8153 60.6428 49.9489 58.5618 49.9489C56.2678 49.9489 54.5064 50.9716 53.9382 52.9602L56.3388 53.3011C56.5945 52.5554 57.3189 51.9162 58.576 51.9162C59.7692 51.9162 60.4226 52.527 60.4226 53.5994V53.642C60.4226 54.3807 59.6484 54.4162 57.7237 54.6222C55.6072 54.8494 53.5831 55.4815 53.5831 57.9389C53.5831 60.0838 55.1527 61.2202 57.2337 61.2202ZM57.9013 59.331C56.8288 59.331 56.0618 58.8409 56.0618 57.8963C56.0618 56.9091 56.9212 56.4972 58.0717 56.3338C58.7464 56.2415 60.0959 56.071 60.4297 55.8011V57.0866C60.4297 58.3011 59.4496 59.331 57.9013 59.331ZM71.0263 50.0909H68.8743V47.4773H66.3033V50.0909H64.755V52.0795H66.3033V58.1449C66.2891 60.1974 67.7805 61.206 69.7124 61.1491C70.4439 61.1278 70.9482 60.9858 71.2251 60.8935L70.7919 58.8835C70.6499 58.919 70.3587 58.983 70.0391 58.983C69.3928 58.983 68.8743 58.7557 68.8743 57.7188V52.0795H71.0263V50.0909ZM80.1296 56.4119C80.1296 58.0739 78.9435 58.8977 77.8072 58.8977C76.5714 58.8977 75.7475 58.0241 75.7475 56.6392V50.0909H73.1765V57.0369C73.1765 59.6577 74.668 61.142 76.8129 61.142C78.4464 61.142 79.5969 60.2827 80.0941 59.0611H80.2077V61H82.7006V50.0909H80.1296V56.4119ZM85.3445 61H87.9155V54.5866C87.9155 53.2017 88.9595 52.2216 90.3729 52.2216C90.8061 52.2216 91.3459 52.2997 91.5661 52.3707V50.0057C91.3317 49.9631 90.9268 49.9347 90.6428 49.9347C89.3928 49.9347 88.3487 50.6449 87.951 51.9091H87.8374V50.0909H85.3445V61ZM97.6545 61.2131C100.197 61.2131 101.944 59.9702 102.399 58.0739L99.9982 57.804C99.6502 58.7273 98.7979 59.2102 97.69 59.2102C96.0281 59.2102 94.9272 58.1165 94.9059 56.2486H102.505V55.4602C102.505 51.6321 100.204 49.9489 97.5195 49.9489C94.3945 49.9489 92.3562 52.2429 92.3562 55.6094C92.3562 59.0327 94.3661 61.2131 97.6545 61.2131ZM94.913 54.5156C94.9911 53.1236 96.021 51.9517 97.555 51.9517C99.0323 51.9517 100.027 53.0312 100.041 54.5156H94.913ZM113.303 52.9744C112.947 51.1278 111.47 49.9489 108.913 49.9489C106.286 49.9489 104.496 51.2415 104.503 53.2585C104.496 54.8494 105.476 55.9006 107.571 56.3338L109.432 56.7244C110.433 56.9446 110.902 57.3494 110.902 57.9673C110.902 58.7131 110.092 59.2741 108.871 59.2741C107.692 59.2741 106.925 58.7628 106.705 57.7827L104.197 58.0241C104.517 60.027 106.2 61.2131 108.878 61.2131C111.605 61.2131 113.53 59.7997 113.537 57.733C113.53 56.1776 112.528 55.2259 110.469 54.7784L108.608 54.3807C107.5 54.1321 107.06 53.7486 107.067 53.1165C107.06 52.3778 107.876 51.8665 108.949 51.8665C110.135 51.8665 110.76 52.5128 110.959 53.2301L113.303 52.9744ZM120.732 61H123.366V55.6733H126.051L128.906 61H131.847L128.7 55.233C130.412 54.544 131.314 53.081 131.314 51.1065C131.314 48.3295 129.524 46.4545 126.186 46.4545H120.732V61ZM123.366 53.4858V48.6562H125.781C127.749 48.6562 128.629 49.5582 128.629 51.1065C128.629 52.6548 127.749 53.4858 125.795 53.4858H123.366ZM138.299 61.2131C140.842 61.2131 142.589 59.9702 143.043 58.0739L140.643 57.804C140.295 58.7273 139.442 59.2102 138.335 59.2102C136.673 59.2102 135.572 58.1165 135.55 56.2486H143.15V55.4602C143.15 51.6321 140.849 49.9489 138.164 49.9489C135.039 49.9489 133.001 52.2429 133.001 55.6094C133.001 59.0327 135.011 61.2131 138.299 61.2131ZM135.558 54.5156C135.636 53.1236 136.665 51.9517 138.2 51.9517C139.677 51.9517 140.671 53.0312 140.685 54.5156H135.558ZM155.176 65.0909V50.0909H152.647V51.8949H152.498C152.108 51.1065 151.305 49.9489 149.38 49.9489C146.859 49.9489 144.877 51.9233 144.877 55.5597C144.877 59.1534 146.802 61.1918 149.373 61.1918C151.248 61.1918 152.093 60.0767 152.498 59.2812H152.605V65.0909H155.176ZM152.654 55.5455C152.654 57.6619 151.731 59.0824 150.091 59.0824C148.393 59.0824 147.498 57.5909 147.498 55.5455C147.498 53.5142 148.379 52.0582 150.091 52.0582C151.745 52.0582 152.654 53.429 152.654 55.5455ZM164.778 56.4119C164.778 58.0739 163.592 58.8977 162.456 58.8977C161.22 58.8977 160.396 58.0241 160.396 56.6392V50.0909H157.825V57.0369C157.825 59.6577 159.316 61.142 161.461 61.142C163.095 61.142 164.245 60.2827 164.743 59.0611H164.856V61H167.349V50.0909H164.778V56.4119ZM174.822 61.2131C177.365 61.2131 179.112 59.9702 179.567 58.0739L177.166 57.804C176.818 58.7273 175.966 59.2102 174.858 59.2102C173.196 59.2102 172.095 58.1165 172.074 56.2486H179.673V55.4602C179.673 51.6321 177.372 49.9489 174.688 49.9489C171.562 49.9489 169.524 52.2429 169.524 55.6094C169.524 59.0327 171.534 61.2131 174.822 61.2131ZM172.081 54.5156C172.159 53.1236 173.189 51.9517 174.723 51.9517C176.2 51.9517 177.195 53.0312 177.209 54.5156H172.081ZM190.471 52.9744C190.115 51.1278 188.638 49.9489 186.081 49.9489C183.453 49.9489 181.664 51.2415 181.671 53.2585C181.664 54.8494 182.644 55.9006 184.739 56.3338L186.6 56.7244C187.601 56.9446 188.07 57.3494 188.07 57.9673C188.07 58.7131 187.26 59.2741 186.039 59.2741C184.86 59.2741 184.093 58.7628 183.873 57.7827L181.365 58.0241C181.685 60.027 183.368 61.2131 186.046 61.2131C188.773 61.2131 190.698 59.7997 190.705 57.733C190.698 56.1776 189.696 55.2259 187.637 54.7784L185.776 54.3807C184.668 54.1321 184.228 53.7486 184.235 53.1165C184.228 52.3778 185.044 51.8665 186.117 51.8665C187.303 51.8665 187.928 52.5128 188.127 53.2301L190.471 52.9744ZM198.272 50.0909H196.12V47.4773H193.549V50.0909H192.001V52.0795H193.549V58.1449C193.535 60.1974 195.027 61.206 196.958 61.1491C197.69 61.1278 198.194 60.9858 198.471 60.8935L198.038 58.8835C197.896 58.919 197.605 58.983 197.285 58.983C196.639 58.983 196.12 58.7557 196.12 57.7188V52.0795H198.272V50.0909ZM205.135 61.2131C207.678 61.2131 209.425 59.9702 209.879 58.0739L207.479 57.804C207.131 58.7273 206.278 59.2102 205.17 59.2102C203.509 59.2102 202.408 58.1165 202.386 56.2486H209.986V55.4602C209.986 51.6321 207.685 49.9489 205 49.9489C201.875 49.9489 199.837 52.2429 199.837 55.6094C199.837 59.0327 201.847 61.2131 205.135 61.2131ZM202.393 54.5156C202.472 53.1236 203.501 51.9517 205.036 51.9517C206.513 51.9517 207.507 53.0312 207.521 54.5156H202.393ZM216.209 61.1918C218.084 61.1918 218.929 60.0767 219.334 59.2812H219.49V61H222.019V46.4545H219.441V51.8949H219.334C218.944 51.1065 218.141 49.9489 216.216 49.9489C213.695 49.9489 211.713 51.9233 211.713 55.5597C211.713 59.1534 213.638 61.1918 216.209 61.1918ZM216.926 59.0824C215.229 59.0824 214.334 57.5909 214.334 55.5455C214.334 53.5142 215.215 52.0582 216.926 52.0582C218.581 52.0582 219.49 53.429 219.49 55.5455C219.49 57.6619 218.567 59.0824 216.926 59.0824Z" fill="black"/>
<rect x="1" y="1" width="376" height="378" rx="4" stroke="#FAFAFA" stroke-width="2"/>
</svg>
