<svg width="373" height="464" viewBox="0 0 373 464" fill="none" xmlns="http://www.w3.org/2000/svg">
<g clip-path="url(#clip0)">
<path d="M0 5C0 2.23858 2.23858 0 5 0H368C370.761 0 373 2.23858 373 5V459C373 461.761 370.761 464 368 464H5.00001C2.23858 464 0 461.761 0 459V5Z" fill="white"/>
<path d="M38 88.3597C38 85.3996 40.3996 83 43.3597 83H170.921C173.881 83 176.281 85.3996 176.281 88.3597V215.921C176.281 218.881 173.881 221.281 170.921 221.281H43.3597C40.3996 221.281 38 218.881 38 215.921V88.3597Z" fill="#FEB000"/>
<path d="M38 248.079C38 245.119 40.3996 242.719 43.3597 242.719H170.921C173.881 242.719 176.281 245.119 176.281 248.079V375.64C176.281 378.6 173.881 381 170.921 381H43.3597C40.3996 381 38 378.6 38 375.64V248.079Z" fill="#666666"/>
<path d="M197.72 88.3597C197.72 85.3996 200.119 83 203.079 83H330.641C333.601 83 336 85.3996 336 88.3597V215.921C336 218.881 333.601 221.281 330.641 221.281H203.079C200.119 221.281 197.72 218.881 197.72 215.921V88.3597Z" fill="#FE9A05"/>
<path d="M197.72 248.079C197.72 245.119 200.119 242.719 203.079 242.719H330.641C333.601 242.719 336 245.119 336 248.079V375.64C336 378.6 333.601 381 330.641 381H203.079C200.119 381 197.72 378.6 197.72 375.64V248.079Z" fill="#231F20"/>
<path d="M73.8991 156.669H75.5435L76.1602 152.914H78.1815L78.4487 151.27H76.4274L76.9619 148.036H78.9969L79.2641 146.391H77.2291L77.8458 142.636H76.2013L75.5846 146.391H72.2957L72.9124 142.636H71.2679L70.6513 146.391H68.63L68.3627 148.036H70.384L69.8496 151.27H67.8146L67.5474 152.914H69.5824L68.9657 156.669H70.6102L71.2268 152.914H74.5157L73.8991 156.669ZM71.494 151.27L72.0285 148.036H75.3174L74.783 151.27H71.494ZM85.931 146.144H83.663V145.199C83.663 144.267 84.0467 143.76 85.0471 143.76C85.4719 143.76 85.7734 143.856 85.9653 143.918L86.4449 142.259C86.1571 142.15 85.561 141.979 84.7319 141.979C83.0669 141.979 81.6075 142.951 81.6075 144.925V146.144H79.9836V147.789H81.6075V156.669H83.663V147.789H85.931V146.144ZM92.1662 156.881C94.4616 156.881 96.0855 155.751 96.5515 154.038L94.6124 153.688C94.2424 154.682 93.3516 155.189 92.1868 155.189C90.4327 155.189 89.2542 154.052 89.1994 152.023H96.6817V151.297C96.6817 147.494 94.4068 146.007 92.0224 146.007C89.0897 146.007 87.1575 148.241 87.1575 151.475C87.1575 154.744 89.0623 156.881 92.1662 156.881ZM89.2062 150.489C89.2884 148.995 90.371 147.7 92.0361 147.7C93.6257 147.7 94.6672 148.878 94.674 150.489H89.2062ZM99.1192 156.669H101.12V155.031H101.291C101.661 155.703 102.415 156.875 104.334 156.875C106.882 156.875 108.732 154.833 108.732 151.427C108.732 148.015 106.855 146.007 104.313 146.007C102.36 146.007 101.654 147.2 101.291 147.851H101.168V142.636H99.1192V156.669ZM101.127 151.407C101.127 149.207 102.086 147.748 103.874 147.748C105.731 147.748 106.663 149.317 106.663 151.407C106.663 153.517 105.704 155.127 103.874 155.127C102.113 155.127 101.127 153.62 101.127 151.407ZM115.891 156.902C119.132 156.902 121.03 154.257 121.03 149.66C121.03 145.096 119.105 142.444 115.891 142.444C112.671 142.444 110.752 145.089 110.745 149.66C110.745 154.25 112.643 156.895 115.891 156.902ZM115.891 155.073C113.993 155.073 112.849 153.168 112.849 149.66C112.856 146.165 114 144.24 115.891 144.24C117.775 144.24 118.926 146.165 118.926 149.66C118.926 153.168 117.782 155.073 115.891 155.073ZM128.346 156.902C131.587 156.902 133.485 154.257 133.485 149.66C133.485 145.096 131.56 142.444 128.346 142.444C125.126 142.444 123.207 145.089 123.2 149.66C123.2 154.25 125.098 156.895 128.346 156.902ZM128.346 155.073C126.448 155.073 125.304 153.168 125.304 149.66C125.311 146.165 126.455 144.24 128.346 144.24C130.23 144.24 131.381 146.165 131.381 149.66C131.381 153.168 130.237 155.073 128.346 155.073ZM140.801 156.902C144.042 156.902 145.94 154.257 145.94 149.66C145.94 145.096 144.015 142.444 140.801 142.444C137.581 142.444 135.662 145.089 135.655 149.66C135.655 154.25 137.553 156.895 140.801 156.902ZM140.801 155.073C138.903 155.073 137.759 153.168 137.759 149.66C137.766 146.165 138.91 144.24 140.801 144.24C142.685 144.24 143.836 146.165 143.836 149.66C143.836 153.168 142.692 155.073 140.801 155.073Z" fill="white"/>
<path d="M70.8371 316.389H72.4816L73.0983 312.634H75.1196L75.3868 310.989H73.3655L73.8999 307.755H75.9349L76.2022 306.111H74.1672L74.7838 302.356H73.1394L72.5227 306.111H69.2338L69.8505 302.356H68.206L67.5893 306.111H65.568L65.3008 307.755H67.3221L66.7877 310.989H64.7526L64.4854 312.634H66.5204L65.9038 316.389H67.5482L68.1649 312.634H71.4538L70.8371 316.389ZM68.4321 310.989L68.9666 307.755H72.2555L71.721 310.989H68.4321ZM82.732 316.58C85.6646 316.608 87.6106 314.497 87.6037 311.805C87.6106 309.119 85.6578 307.193 83.2254 307.193C81.7454 307.193 80.4641 307.906 79.7446 309.091H79.6418C79.6487 305.905 80.8546 304.014 82.9102 304.014C84.26 304.014 85.1096 304.836 85.3974 306.001H87.4873C87.1652 303.781 85.418 302.164 82.9102 302.164C79.6487 302.164 77.6137 304.966 77.6137 309.845C77.6068 315.011 80.2379 316.56 82.732 316.58ZM82.7252 314.799C81.0944 314.799 79.9022 313.429 79.9022 311.853C79.909 310.284 81.1561 308.913 82.7731 308.913C84.3765 308.913 85.555 310.208 85.5482 311.832C85.555 313.49 84.3285 314.799 82.7252 314.799ZM94.9987 316.58C97.9313 316.608 99.8772 314.497 99.8704 311.805C99.8772 309.119 97.9244 307.193 95.492 307.193C94.012 307.193 92.7307 307.906 92.0112 309.091H91.9084C91.9153 305.905 93.1212 304.014 95.1768 304.014C96.5266 304.014 97.3763 304.836 97.664 306.001H99.7539C99.4318 303.781 97.6846 302.164 95.1768 302.164C91.9153 302.164 89.8803 304.966 89.8803 309.845C89.8734 315.011 92.5046 316.56 94.9987 316.58ZM94.9918 314.799C93.3611 314.799 92.1688 313.429 92.1688 311.853C92.1757 310.284 93.4227 308.913 95.0398 308.913C96.6431 308.913 97.8216 310.208 97.8148 311.832C97.8216 313.49 96.5952 314.799 94.9918 314.799ZM107.265 316.58C110.198 316.608 112.144 314.497 112.137 311.805C112.144 309.119 110.191 307.193 107.759 307.193C106.279 307.193 104.997 307.906 104.278 309.091H104.175C104.182 305.905 105.388 304.014 107.443 304.014C108.793 304.014 109.643 304.836 109.931 306.001H112.021C111.698 303.781 109.951 302.164 107.443 302.164C104.182 302.164 102.147 304.966 102.147 309.845C102.14 315.011 104.771 316.56 107.265 316.58ZM107.258 314.799C105.628 314.799 104.435 313.429 104.435 311.853C104.442 310.284 105.689 308.913 107.306 308.913C108.91 308.913 110.088 310.208 110.081 311.832C110.088 313.49 108.862 314.799 107.258 314.799ZM119.532 316.58C122.465 316.608 124.41 314.497 124.404 311.805C124.41 309.119 122.458 307.193 120.025 307.193C118.545 307.193 117.264 307.906 116.544 309.091H116.442C116.449 305.905 117.654 304.014 119.71 304.014C121.06 304.014 121.91 304.836 122.197 306.001H124.287C123.965 303.781 122.218 302.164 119.71 302.164C116.449 302.164 114.414 304.966 114.414 309.845C114.407 315.011 117.038 316.56 119.532 316.58ZM119.525 314.799C117.894 314.799 116.702 313.429 116.702 311.853C116.709 310.284 117.956 308.913 119.573 308.913C121.176 308.913 122.355 310.208 122.348 311.832C122.355 313.49 121.128 314.799 119.525 314.799ZM131.799 316.58C134.731 316.608 136.677 314.497 136.67 311.805C136.677 309.119 134.724 307.193 132.292 307.193C130.812 307.193 129.531 307.906 128.811 309.091H128.708C128.715 305.905 129.921 304.014 131.977 304.014C133.326 304.014 134.176 304.836 134.464 306.001H136.554C136.232 303.781 134.484 302.164 131.977 302.164C128.715 302.164 126.68 304.966 126.68 309.845C126.673 315.011 129.304 316.56 131.799 316.58ZM131.792 314.799C130.161 314.799 128.969 313.429 128.969 311.853C128.976 310.284 130.223 308.913 131.84 308.913C133.443 308.913 134.622 310.208 134.615 311.832C134.622 313.49 133.395 314.799 131.792 314.799ZM144.065 316.58C146.998 316.608 148.944 314.497 148.937 311.805C148.944 309.119 146.991 307.193 144.558 307.193C143.078 307.193 141.797 307.906 141.078 309.091H140.975C140.982 305.905 142.188 304.014 144.243 304.014C145.593 304.014 146.443 304.836 146.731 306.001H148.82C148.498 303.781 146.751 302.164 144.243 302.164C140.982 302.164 138.947 304.966 138.947 309.845C138.94 315.011 141.571 316.56 144.065 316.58ZM144.058 314.799C142.428 314.799 141.235 313.429 141.235 311.853C141.242 310.284 142.489 308.913 144.106 308.913C145.71 308.913 146.888 310.208 146.881 311.832C146.888 313.49 145.662 314.799 144.058 314.799Z" fill="white"/>
<path d="M234.446 156.669H236.091L236.708 152.914H238.729L238.996 151.27H236.975L237.509 148.036H239.544L239.811 146.391H237.776L238.393 142.636H236.749L236.132 146.391H232.843L233.46 142.636H231.815L231.199 146.391H229.177L228.91 148.036H230.931L230.397 151.27H228.362L228.095 152.914H230.13L229.513 156.669H231.158L231.774 152.914H235.063L234.446 156.669ZM232.041 151.27L232.576 148.036H235.865L235.33 151.27H232.041ZM246.478 146.144H244.21V145.199C244.21 144.267 244.594 143.76 245.594 143.76C246.019 143.76 246.321 143.856 246.513 143.918L246.992 142.259C246.705 142.15 246.108 141.979 245.279 141.979C243.614 141.979 242.155 142.951 242.155 144.925V146.144H240.531V147.789H242.155V156.669H244.21V147.789H246.478V146.144ZM252.714 156.881C255.009 156.881 256.633 155.751 257.099 154.038L255.16 153.688C254.79 154.682 253.899 155.189 252.734 155.189C250.98 155.189 249.802 154.052 249.747 152.023H257.229V151.297C257.229 147.494 254.954 146.007 252.57 146.007C249.637 146.007 247.705 148.241 247.705 151.475C247.705 154.744 249.61 156.881 252.714 156.881ZM249.754 150.489C249.836 148.995 250.918 147.7 252.583 147.7C254.173 147.7 255.215 148.878 255.221 150.489H249.754ZM264.141 142.444C261.195 142.417 259.269 144.534 259.269 147.193C259.276 149.872 261.215 151.804 263.648 151.804C265.134 151.804 266.409 151.078 267.128 149.899H267.238C267.231 153.127 266.018 155.011 263.963 155.011C262.62 155.011 261.756 154.189 261.482 152.99H259.393C259.701 155.258 261.455 156.861 263.963 156.861C267.224 156.861 269.266 154.058 269.266 149.146C269.259 144.02 266.642 142.465 264.141 142.444ZM264.148 144.226C265.772 144.226 266.971 145.603 266.971 147.145C266.978 148.707 265.71 150.077 264.107 150.077C262.496 150.077 261.332 148.789 261.325 147.165C261.325 145.535 262.538 144.226 264.148 144.226ZM274.832 156.902C276.572 156.902 277.552 156.018 277.942 155.23H278.025V156.669H280.025V149.68C280.025 146.617 277.613 146.007 275.942 146.007C274.037 146.007 272.283 146.775 271.597 148.693L273.523 149.132C273.824 148.385 274.592 147.666 275.969 147.666C277.291 147.666 277.97 148.358 277.97 149.55V149.598C277.97 150.345 277.202 150.331 275.311 150.55C273.317 150.783 271.275 151.304 271.275 153.695C271.275 155.765 272.831 156.902 274.832 156.902ZM275.277 155.258C274.119 155.258 273.283 154.737 273.283 153.723C273.283 152.626 274.256 152.236 275.441 152.078C276.106 151.989 277.682 151.811 277.977 151.516V152.873C277.977 154.12 276.983 155.258 275.277 155.258ZM287.612 156.902C290.853 156.902 292.751 154.257 292.751 149.66C292.751 145.096 290.826 142.444 287.612 142.444C284.392 142.444 282.473 145.089 282.466 149.66C282.466 154.25 284.364 156.895 287.612 156.902ZM287.612 155.073C285.714 155.073 284.57 153.168 284.57 149.66C284.577 146.165 285.721 144.24 287.612 144.24C289.496 144.24 290.647 146.165 290.647 149.66C290.647 153.168 289.503 155.073 287.612 155.073ZM299.814 156.861C302.637 156.861 304.651 154.867 304.644 152.133C304.651 149.42 302.76 147.446 300.204 147.446C299.163 147.446 298.197 147.844 297.648 148.378H297.566L298.012 144.452H303.966V142.636H296.251L295.463 149.707L297.402 149.995C297.929 149.522 298.875 149.2 299.725 149.2C301.39 149.214 302.595 150.461 302.595 152.174C302.595 153.86 301.424 155.079 299.814 155.079C298.457 155.079 297.381 154.216 297.272 153.01H295.216C295.298 155.244 297.237 156.861 299.814 156.861Z" fill="white"/>
<path d="M234.899 316.389H236.543L237.16 312.634H239.181L239.448 310.989H237.427L237.961 307.755H239.996L240.264 306.111H238.229L238.845 302.356H237.201L236.584 306.111H233.295L233.912 302.356H232.268L231.651 306.111H229.63L229.362 307.755H231.384L230.849 310.989H228.814L228.547 312.634H230.582L229.965 316.389H231.61L232.226 312.634H235.515L234.899 316.389ZM232.494 310.989L233.028 307.755H236.317L235.783 310.989H232.494ZM241.894 316.389H251.131V314.573H244.813V314.47L247.602 311.551C250.172 308.954 250.905 307.714 250.905 306.145C250.905 303.891 249.068 302.164 246.424 302.164C243.799 302.164 241.881 303.863 241.881 306.426H243.902C243.895 304.918 244.868 303.932 246.382 303.932C247.808 303.932 248.89 304.809 248.89 306.207C248.89 307.447 248.15 308.338 246.643 309.934L241.894 314.854V316.389ZM258.613 316.58C261.477 316.58 263.581 314.867 263.574 312.538C263.581 310.763 262.505 309.489 260.641 309.201V309.091C262.108 308.714 263.06 307.563 263.053 305.987C263.06 303.925 261.368 302.164 258.668 302.164C256.092 302.164 254.022 303.719 253.954 306.001H256.003C256.051 304.713 257.263 303.932 258.641 303.932C260.073 303.932 261.011 304.802 261.004 306.097C261.011 307.454 259.922 308.344 258.366 308.344H257.181V310.071H258.366C260.312 310.071 261.436 311.058 261.436 312.469C261.436 313.833 260.251 314.758 258.599 314.758C257.078 314.758 255.893 313.977 255.811 312.73H253.659C253.748 315.018 255.776 316.58 258.613 316.58ZM271.488 302.356H269.425L265.924 304.644V306.673L269.282 304.48H269.364V316.389H271.488V302.356ZM280.32 305.864H278.052V304.918C278.052 303.987 278.436 303.48 279.436 303.48C279.861 303.48 280.162 303.575 280.354 303.637L280.834 301.979C280.546 301.869 279.95 301.698 279.121 301.698C277.456 301.698 275.996 302.671 275.996 304.644V305.864H274.372V307.508H275.996V316.389H278.052V307.508H280.32V305.864ZM282.406 316.389H291.643V314.573H285.325V314.47L288.114 311.551C290.683 308.954 291.417 307.714 291.417 306.145C291.417 303.891 289.58 302.164 286.935 302.164C284.311 302.164 282.393 303.863 282.393 306.426H284.414C284.407 304.918 285.38 303.932 286.894 303.932C288.32 303.932 289.402 304.809 289.402 306.207C289.402 307.447 288.662 308.338 287.155 309.934L282.406 314.854V316.389ZM299.125 316.622C302.366 316.622 304.264 313.977 304.264 309.379C304.264 304.816 302.339 302.164 299.125 302.164C295.905 302.164 293.986 304.809 293.979 309.379C293.979 313.97 295.877 316.615 299.125 316.622ZM299.125 314.792C297.227 314.792 296.083 312.887 296.083 309.379C296.09 305.885 297.234 303.959 299.125 303.959C301.009 303.959 302.16 305.885 302.16 309.379C302.16 312.887 301.016 314.792 299.125 314.792Z" fill="white"/>
<rect x="1" y="1" width="371" height="464" rx="4" stroke="#FAFAFA" stroke-width="2"/>
</g>
<defs>
<clipPath id="clip0">
<path d="M0 5C0 2.23858 2.23858 0 5 0H368C370.761 0 373 2.23858 373 5V459C373 461.761 370.761 464 368 464H5.00001C2.23858 464 0 461.761 0 459V5Z" fill="white"/>
</clipPath>
</defs>
</svg>
