<svg width="786" height="250" viewBox="0 0 786 250" fill="none" xmlns="http://www.w3.org/2000/svg">
<path d="M0 5C0 2.23857 2.23858 0 5 0H781C783.761 0 786 2.23858 786 5V245C786 247.761 783.761 250 781 250H4.99999C2.23856 250 0 247.761 0 245V5Z" fill="white"/>
<path d="M50 55C50 52.2386 52.2386 50 55 50H195C197.761 50 200 52.2386 200 55V195C200 197.761 197.761 200 195 200H55C52.2386 200 50 197.761 50 195V55Z" fill="#FEB000"/>
<path d="M225 55C225 52.2386 227.239 50 230 50H370C372.761 50 375 52.2386 375 55V195C375 197.761 372.761 200 370 200H230C227.239 200 225 197.761 225 195V55Z" fill="#FE9A05"/>
<path d="M400 55C400 52.2386 402.239 50 405 50H545C547.761 50 550 52.2386 550 55V195C550 197.761 547.761 200 545 200H405C402.239 200 400 197.761 400 195V55Z" fill="#666666"/>
<path d="M575 55C575 52.2386 577.239 50 580 50H720C722.761 50 725 52.2386 725 55V195C725 197.761 722.761 200 720 200H580C577.239 200 575 197.761 575 195V55Z" fill="#231F20"/>
<path d="M93.9898 132H95.5239L96.0992 128.497H97.9848L98.2341 126.963H96.3485L96.847 123.946H98.7455L98.9948 122.412H97.0963L97.6716 118.909H96.1375L95.5622 122.412H92.4941L93.0693 118.909H91.5352L90.96 122.412H89.0743L88.825 123.946H90.7107L90.2121 126.963H88.3137L88.0644 128.497H89.9628L89.3875 132H90.9216L91.4969 128.497H94.5651L93.9898 132ZM91.7462 126.963L92.2448 123.946H95.3129L94.8144 126.963H91.7462ZM105.214 122.182H103.098V121.3C103.098 120.43 103.456 119.957 104.39 119.957C104.786 119.957 105.067 120.047 105.246 120.104L105.694 118.558C105.425 118.455 104.869 118.295 104.096 118.295C102.542 118.295 101.181 119.203 101.181 121.044V122.182H99.6659V123.716H101.181V132H103.098V123.716H105.214V122.182ZM111.031 132.198C113.172 132.198 114.687 131.143 115.122 129.545L113.313 129.219C112.968 130.146 112.137 130.619 111.05 130.619C109.414 130.619 108.314 129.558 108.263 127.666H115.243V126.989C115.243 123.441 113.121 122.054 110.897 122.054C108.161 122.054 106.358 124.138 106.358 127.155C106.358 130.204 108.135 132.198 111.031 132.198ZM108.27 126.234C108.346 124.841 109.356 123.633 110.91 123.633C112.392 123.633 113.364 124.732 113.37 126.234H108.27ZM117.517 132H119.384V130.472H119.544C119.889 131.099 120.592 132.192 122.382 132.192C124.759 132.192 126.485 130.287 126.485 127.11C126.485 123.927 124.734 122.054 122.362 122.054C120.541 122.054 119.882 123.166 119.544 123.773H119.429V118.909H117.517V132ZM119.39 127.091C119.39 125.039 120.285 123.678 121.953 123.678C123.686 123.678 124.555 125.141 124.555 127.091C124.555 129.06 123.66 130.562 121.953 130.562C120.311 130.562 119.39 129.156 119.39 127.091ZM133.163 132.217C136.187 132.217 137.957 129.75 137.957 125.461C137.957 121.204 136.161 118.73 133.163 118.73C130.159 118.73 128.369 121.197 128.363 125.461C128.363 129.744 130.134 132.211 133.163 132.217ZM133.163 130.511C131.393 130.511 130.325 128.734 130.325 125.461C130.332 122.201 131.399 120.405 133.163 120.405C134.921 120.405 135.995 122.201 135.995 125.461C135.995 128.734 134.928 130.511 133.163 130.511ZM144.783 132.217C147.806 132.217 149.577 129.75 149.577 125.461C149.577 121.204 147.78 118.73 144.783 118.73C141.778 118.73 139.989 121.197 139.982 125.461C139.982 129.744 141.753 132.211 144.783 132.217ZM144.783 130.511C143.012 130.511 141.945 128.734 141.945 125.461C141.951 122.201 143.018 120.405 144.783 120.405C146.54 120.405 147.614 122.201 147.614 125.461C147.614 128.734 146.547 130.511 144.783 130.511ZM156.402 132.217C159.425 132.217 161.196 129.75 161.196 125.461C161.196 121.204 159.4 118.73 156.402 118.73C153.397 118.73 151.608 121.197 151.601 125.461C151.601 129.744 153.372 132.211 156.402 132.217ZM156.402 130.511C154.631 130.511 153.564 128.734 153.564 125.461C153.57 122.201 154.638 120.405 156.402 120.405C158.16 120.405 159.233 122.201 159.233 125.461C159.233 128.734 158.166 130.511 156.402 130.511Z" fill="white"/>
<path d="M270.316 132H271.85L272.425 128.497H274.311L274.56 126.963H272.675L273.173 123.946H275.072L275.321 122.412H273.422L273.998 118.909H272.464L271.888 122.412H268.82L269.396 118.909H267.861L267.286 122.412H265.4L265.151 123.946H267.037L266.538 126.963H264.64L264.391 128.497H266.289L265.714 132H267.248L267.823 128.497H270.891L270.316 132ZM268.072 126.963L268.571 123.946H271.639L271.141 126.963H268.072ZM281.54 122.182H279.425V121.3C279.425 120.43 279.783 119.957 280.716 119.957C281.112 119.957 281.393 120.047 281.572 120.104L282.02 118.558C281.751 118.455 281.195 118.295 280.422 118.295C278.869 118.295 277.507 119.203 277.507 121.044V122.182H275.992V123.716H277.507V132H279.425V123.716H281.54V122.182ZM287.357 132.198C289.498 132.198 291.013 131.143 291.448 129.545L289.639 129.219C289.294 130.146 288.463 130.619 287.376 130.619C285.74 130.619 284.641 129.558 284.589 127.666H291.57V126.989C291.57 123.441 289.447 122.054 287.223 122.054C284.487 122.054 282.685 124.138 282.685 127.155C282.685 130.204 284.462 132.198 287.357 132.198ZM284.596 126.234C284.672 124.841 285.682 123.633 287.236 123.633C288.719 123.633 289.69 124.732 289.697 126.234H284.596ZM298.017 118.73C295.269 118.705 293.473 120.68 293.473 123.16C293.479 125.659 295.288 127.462 297.557 127.462C298.944 127.462 300.133 126.784 300.804 125.685H300.907C300.9 128.695 299.769 130.453 297.851 130.453C296.598 130.453 295.793 129.686 295.537 128.567H293.588C293.875 130.683 295.512 132.179 297.851 132.179C300.894 132.179 302.799 129.565 302.799 124.982C302.792 120.2 300.351 118.749 298.017 118.73ZM298.024 120.392C299.539 120.392 300.657 121.677 300.657 123.115C300.664 124.572 299.481 125.851 297.986 125.851C296.483 125.851 295.397 124.649 295.39 123.134C295.39 121.613 296.522 120.392 298.024 120.392ZM307.991 132.217C309.614 132.217 310.528 131.393 310.893 130.658H310.969V132H312.836V125.48C312.836 122.623 310.586 122.054 309.026 122.054C307.249 122.054 305.613 122.77 304.974 124.56L306.77 124.969C307.051 124.272 307.767 123.601 309.052 123.601C310.285 123.601 310.918 124.246 310.918 125.359V125.403C310.918 126.1 310.202 126.087 308.438 126.292C306.578 126.509 304.673 126.995 304.673 129.226C304.673 131.156 306.124 132.217 307.991 132.217ZM308.406 130.683C307.326 130.683 306.546 130.197 306.546 129.251C306.546 128.229 307.454 127.864 308.56 127.717C309.18 127.634 310.65 127.468 310.925 127.193V128.459C310.925 129.622 309.998 130.683 308.406 130.683ZM319.913 132.217C322.937 132.217 324.707 129.75 324.707 125.461C324.707 121.204 322.911 118.73 319.913 118.73C316.909 118.73 315.119 121.197 315.113 125.461C315.113 129.744 316.884 132.211 319.913 132.217ZM319.913 130.511C318.143 130.511 317.075 128.734 317.075 125.461C317.082 122.201 318.149 120.405 319.913 120.405C321.671 120.405 322.745 122.201 322.745 125.461C322.745 128.734 321.678 130.511 319.913 130.511ZM331.296 132.179C333.93 132.179 335.809 130.319 335.802 127.768C335.809 125.237 334.045 123.396 331.66 123.396C330.689 123.396 329.788 123.767 329.276 124.266H329.199L329.615 120.603H335.17V118.909H327.972L327.237 125.506L329.046 125.774C329.538 125.333 330.42 125.033 331.213 125.033C332.766 125.045 333.891 126.209 333.891 127.807C333.891 129.379 332.798 130.517 331.296 130.517C330.03 130.517 329.027 129.712 328.925 128.587H327.007C327.084 130.67 328.893 132.179 331.296 132.179Z" fill="white"/>
<path d="M441.633 132H443.167L443.743 128.497H445.628L445.878 126.963H443.992L444.491 123.946H446.389L446.638 122.412H444.74L445.315 118.909H443.781L443.206 122.412H440.138L440.713 118.909H439.179L438.604 122.412H436.718L436.469 123.946H438.354L437.856 126.963H435.957L435.708 128.497H437.606L437.031 132H438.565L439.14 128.497H442.209L441.633 132ZM439.39 126.963L439.888 123.946H442.956L442.458 126.963H439.39ZM452.73 132.179C455.466 132.205 457.281 130.236 457.275 127.724C457.281 125.218 455.459 123.422 453.19 123.422C451.809 123.422 450.614 124.087 449.943 125.192H449.847C449.854 122.22 450.979 120.456 452.896 120.456C454.155 120.456 454.948 121.223 455.216 122.31H457.166C456.866 120.239 455.236 118.73 452.896 118.73C449.854 118.73 447.955 121.344 447.955 125.896C447.949 130.715 450.403 132.16 452.73 132.179ZM452.724 130.517C451.202 130.517 450.09 129.239 450.09 127.768C450.096 126.305 451.26 125.026 452.768 125.026C454.264 125.026 455.363 126.234 455.357 127.749C455.363 129.296 454.219 130.517 452.724 130.517ZM464.173 132.179C466.909 132.205 468.724 130.236 468.718 127.724C468.724 125.218 466.903 123.422 464.634 123.422C463.253 123.422 462.058 124.087 461.386 125.192H461.29C461.297 122.22 462.422 120.456 464.339 120.456C465.599 120.456 466.391 121.223 466.66 122.31H468.609C468.309 120.239 466.679 118.73 464.339 118.73C461.297 118.73 459.398 121.344 459.398 125.896C459.392 130.715 461.847 132.16 464.173 132.179ZM464.167 130.517C462.646 130.517 461.533 129.239 461.533 127.768C461.54 126.305 462.703 125.026 464.212 125.026C465.707 125.026 466.807 126.234 466.8 127.749C466.807 129.296 465.663 130.517 464.167 130.517ZM475.617 132.179C478.352 132.205 480.168 130.236 480.161 127.724C480.168 125.218 478.346 123.422 476.077 123.422C474.696 123.422 473.501 124.087 472.83 125.192H472.734C472.74 122.22 473.865 120.456 475.783 120.456C477.042 120.456 477.835 121.223 478.103 122.31H480.053C479.752 120.239 478.122 118.73 475.783 118.73C472.74 118.73 470.842 121.344 470.842 125.896C470.835 130.715 473.29 132.16 475.617 132.179ZM475.61 130.517C474.089 130.517 472.977 129.239 472.977 127.768C472.983 126.305 474.146 125.026 475.655 125.026C477.151 125.026 478.25 126.234 478.244 127.749C478.25 129.296 477.106 130.517 475.61 130.517ZM487.06 132.179C489.796 132.205 491.611 130.236 491.605 127.724C491.611 125.218 489.789 123.422 487.52 123.422C486.14 123.422 484.944 124.087 484.273 125.192H484.177C484.184 122.22 485.309 120.456 487.226 120.456C488.485 120.456 489.278 121.223 489.547 122.31H491.496C491.196 120.239 489.566 118.73 487.226 118.73C484.184 118.73 482.285 121.344 482.285 125.896C482.279 130.715 484.733 132.16 487.06 132.179ZM487.054 130.517C485.532 130.517 484.42 129.239 484.42 127.768C484.426 126.305 485.59 125.026 487.098 125.026C488.594 125.026 489.694 126.234 489.687 127.749C489.694 129.296 488.549 130.517 487.054 130.517ZM498.503 132.179C501.239 132.205 503.055 130.236 503.048 127.724C503.055 125.218 501.233 123.422 498.964 123.422C497.583 123.422 496.388 124.087 495.716 125.192H495.621C495.627 122.22 496.752 120.456 498.67 120.456C499.929 120.456 500.721 121.223 500.99 122.31H502.939C502.639 120.239 501.009 118.73 498.67 118.73C495.627 118.73 493.729 121.344 493.729 125.896C493.722 130.715 496.177 132.16 498.503 132.179ZM498.497 130.517C496.976 130.517 495.863 129.239 495.863 127.768C495.87 126.305 497.033 125.026 498.542 125.026C500.037 125.026 501.137 126.234 501.131 127.749C501.137 129.296 499.993 130.517 498.497 130.517ZM509.947 132.179C512.683 132.205 514.498 130.236 514.491 127.724C514.498 125.218 512.676 123.422 510.407 123.422C509.026 123.422 507.831 124.087 507.16 125.192H507.064C507.07 122.22 508.195 120.456 510.113 120.456C511.372 120.456 512.165 121.223 512.433 122.31H514.383C514.082 120.239 512.452 118.73 510.113 118.73C507.07 118.73 505.172 121.344 505.172 125.896C505.165 130.715 507.62 132.16 509.947 132.179ZM509.94 130.517C508.419 130.517 507.307 129.239 507.307 127.768C507.313 126.305 508.477 125.026 509.985 125.026C511.481 125.026 512.58 126.234 512.574 127.749C512.58 129.296 511.436 130.517 509.94 130.517Z" fill="white"/>
<path d="M620.238 132H621.772L622.347 128.497H624.233L624.482 126.963H622.597L623.095 123.946H624.994L625.243 122.412H623.344L623.92 118.909H622.386L621.81 122.412H618.742L619.317 118.909H617.783L617.208 122.412H615.322L615.073 123.946H616.959L616.46 126.963H614.562L614.312 128.497H616.211L615.636 132H617.17L617.745 128.497H620.813L620.238 132ZM617.994 126.963L618.493 123.946H621.561L621.062 126.963H617.994ZM626.764 132H635.381V130.306H629.487V130.21L632.089 127.487C634.486 125.065 635.17 123.908 635.17 122.444C635.17 120.341 633.457 118.73 630.989 118.73C628.541 118.73 626.751 120.315 626.751 122.706H628.637C628.631 121.3 629.538 120.379 630.951 120.379C632.28 120.379 633.29 121.197 633.29 122.501C633.29 123.658 632.6 124.489 631.194 125.979L626.764 130.568V132ZM642.361 132.179C645.033 132.179 646.995 130.581 646.989 128.408C646.995 126.752 645.991 125.563 644.253 125.295V125.192C645.621 124.841 646.509 123.767 646.503 122.297C646.509 120.373 644.93 118.73 642.412 118.73C640.008 118.73 638.078 120.181 638.014 122.31H639.925C639.97 121.108 641.101 120.379 642.386 120.379C643.722 120.379 644.598 121.191 644.592 122.399C644.598 123.665 643.582 124.496 642.131 124.496H641.025V126.107H642.131C643.946 126.107 644.994 127.027 644.994 128.344C644.994 129.616 643.888 130.479 642.348 130.479C640.929 130.479 639.823 129.75 639.746 128.587H637.739C637.822 130.722 639.714 132.179 642.361 132.179ZM654.371 118.909H652.447L649.181 121.044V122.936L652.313 120.891H652.39V132H654.371V118.909ZM662.611 122.182H660.495V121.3C660.495 120.43 660.853 119.957 661.786 119.957C662.182 119.957 662.464 120.047 662.643 120.104L663.09 118.558C662.822 118.455 662.266 118.295 661.492 118.295C659.939 118.295 658.577 119.203 658.577 121.044V122.182H657.062V123.716H658.577V132H660.495V123.716H662.611V122.182ZM664.557 132H673.174V130.306H667.28V130.21L669.882 127.487C672.279 125.065 672.963 123.908 672.963 122.444C672.963 120.341 671.25 118.73 668.782 118.73C666.334 118.73 664.544 120.315 664.544 122.706H666.43C666.424 121.3 667.331 120.379 668.744 120.379C670.073 120.379 671.083 121.197 671.083 122.501C671.083 123.658 670.393 124.489 668.987 125.979L664.557 130.568V132ZM680.154 132.217C683.177 132.217 684.948 129.75 684.948 125.461C684.948 121.204 683.152 118.73 680.154 118.73C677.149 118.73 675.36 121.197 675.353 125.461C675.353 129.744 677.124 132.211 680.154 132.217ZM680.154 130.511C678.383 130.511 677.316 128.734 677.316 125.461C677.322 122.201 678.389 120.405 680.154 120.405C681.911 120.405 682.985 122.201 682.985 125.461C682.985 128.734 681.918 130.511 680.154 130.511Z" fill="white"/>
</svg>
