<svg width="378" height="264" viewBox="0 0 378 264" fill="none" xmlns="http://www.w3.org/2000/svg">
<path d="M0 5C0 2.23857 2.23858 0 5 0H373C375.761 0 378 2.23858 378 5V259C378 261.761 375.761 264 373 264H5C2.23858 264 0 261.761 0 259V5Z" fill="white"/>
<path d="M34.5 118.864C35.8807 118.864 37 117.744 37 116.364C37 114.983 35.8807 113.864 34.5 113.864C33.1193 113.864 32 114.983 32 116.364C32 117.744 33.1193 118.864 34.5 118.864Z" fill="black"/>
<path d="M59 121C62.5455 121 64.5455 118.795 64.5455 115.159C64.5455 111.545 62.5455 109.364 59.1591 109.364H55.4091V121H59ZM56.8182 119.75V110.614H59.0682C61.7955 110.614 63.1818 112.341 63.1818 115.159C63.1818 118 61.7955 119.75 58.9091 119.75H56.8182ZM66.7273 121H68.0682V112.273H66.7273V121ZM67.4091 110.818C67.9318 110.818 68.3636 110.409 68.3636 109.909C68.3636 109.409 67.9318 109 67.4091 109C66.8864 109 66.4545 109.409 66.4545 109.909C66.4545 110.409 66.8864 110.818 67.4091 110.818ZM74.4105 112.273H72.456V111.386C72.456 110.523 72.8196 110.068 73.706 110.068C74.0923 110.068 74.3196 110.159 74.456 110.205L74.8423 109.045C74.6378 108.955 74.2287 108.818 73.5696 108.818C72.3196 108.818 71.1151 109.568 71.1151 111.068V112.273H69.706V113.409H71.1151V121H72.456V113.409H74.4105V112.273ZM80.1761 112.273H78.2216V111.386C78.2216 110.523 78.5852 110.068 79.4716 110.068C79.858 110.068 80.0852 110.159 80.2216 110.205L80.608 109.045C80.4034 108.955 79.9943 108.818 79.3352 108.818C78.0852 108.818 76.8807 109.568 76.8807 111.068V112.273H75.4716V113.409H76.8807V121H78.2216V113.409H80.1761V112.273ZM82.0554 121H83.3963V112.273H82.0554V121ZM82.7372 110.818C83.2599 110.818 83.6918 110.409 83.6918 109.909C83.6918 109.409 83.2599 109 82.7372 109C82.2145 109 81.7827 109.409 81.7827 109.909C81.7827 110.409 82.2145 110.818 82.7372 110.818ZM89.3977 121.182C91.3295 121.182 92.6023 120 92.8295 118.455H91.4886C91.2386 119.409 90.4432 119.977 89.3977 119.977C87.8068 119.977 86.7841 118.659 86.7841 116.636C86.7841 114.659 87.8295 113.364 89.3977 113.364C90.5795 113.364 91.2841 114.091 91.4886 114.886H92.8295C92.6023 113.25 91.2159 112.159 89.375 112.159C87.0114 112.159 85.4432 114.023 85.4432 116.682C85.4432 119.295 86.9432 121.182 89.3977 121.182ZM100.29 117.432C100.29 119.068 99.0398 119.818 98.0398 119.818C96.9261 119.818 96.1307 119 96.1307 117.727V112.273H94.7898V117.818C94.7898 120.045 95.9716 121.114 97.608 121.114C98.9261 121.114 99.7898 120.409 100.199 119.523H100.29V121H101.631V112.273H100.29V117.432ZM105.428 109.364H104.087V121H105.428V109.364ZM111.679 112.273H109.815V110.182H108.474V112.273H107.156V113.409H108.474V118.864C108.474 120.386 109.702 121.114 110.838 121.114C111.338 121.114 111.656 121.023 111.838 120.955L111.565 119.75C111.452 119.773 111.27 119.818 110.974 119.818C110.384 119.818 109.815 119.636 109.815 118.5V113.409H111.679V112.273ZM121.991 112.273H120.128V110.182H118.787V112.273H117.469V113.409H118.787V118.864C118.787 120.386 120.014 121.114 121.151 121.114C121.651 121.114 121.969 121.023 122.151 120.955L121.878 119.75C121.764 119.773 121.582 119.818 121.287 119.818C120.696 119.818 120.128 119.636 120.128 118.5V113.409H121.991V112.273ZM127.46 121.182C129.824 121.182 131.415 119.386 131.415 116.682C131.415 113.955 129.824 112.159 127.46 112.159C125.097 112.159 123.506 113.955 123.506 116.682C123.506 119.386 125.097 121.182 127.46 121.182ZM127.46 119.977C125.665 119.977 124.847 118.432 124.847 116.682C124.847 114.932 125.665 113.364 127.46 113.364C129.256 113.364 130.074 114.932 130.074 116.682C130.074 118.432 129.256 119.977 127.46 119.977ZM143.462 117.432C143.462 119.068 142.212 119.818 141.212 119.818C140.098 119.818 139.303 119 139.303 117.727V112.273H137.962V117.818C137.962 120.045 139.143 121.114 140.78 121.114C142.098 121.114 142.962 120.409 143.371 119.523H143.462V121H144.803V112.273H143.462V117.432ZM153.44 114.227C153.02 112.989 152.077 112.159 150.349 112.159C148.509 112.159 147.145 113.205 147.145 114.682C147.145 115.886 147.861 116.693 149.463 117.068L150.918 117.409C151.798 117.614 152.213 118.034 152.213 118.636C152.213 119.386 151.418 120 150.168 120C149.071 120 148.384 119.528 148.145 118.591L146.872 118.909C147.185 120.392 148.406 121.182 150.19 121.182C152.219 121.182 153.599 120.074 153.599 118.568C153.599 117.352 152.838 116.585 151.281 116.205L149.986 115.886C148.952 115.631 148.486 115.284 148.486 114.614C148.486 113.864 149.281 113.318 150.349 113.318C151.52 113.318 152.003 113.966 152.236 114.568L153.44 114.227ZM159.277 121.182C161.05 121.182 162.345 120.295 162.754 118.977L161.459 118.614C161.118 119.523 160.328 119.977 159.277 119.977C157.703 119.977 156.618 118.96 156.555 117.091H162.891V116.523C162.891 113.273 160.959 112.159 159.141 112.159C156.777 112.159 155.209 114.023 155.209 116.705C155.209 119.386 156.754 121.182 159.277 121.182ZM156.555 115.932C156.646 114.574 157.607 113.364 159.141 113.364C160.595 113.364 161.527 114.455 161.527 115.932H156.555ZM172.976 121.182C174.908 121.182 176.18 120 176.408 118.455H175.067C174.817 119.409 174.021 119.977 172.976 119.977C171.385 119.977 170.362 118.659 170.362 116.636C170.362 114.659 171.408 113.364 172.976 113.364C174.158 113.364 174.862 114.091 175.067 114.886H176.408C176.18 113.25 174.794 112.159 172.953 112.159C170.589 112.159 169.021 114.023 169.021 116.682C169.021 119.295 170.521 121.182 172.976 121.182ZM181.913 121.182C184.277 121.182 185.868 119.386 185.868 116.682C185.868 113.955 184.277 112.159 181.913 112.159C179.55 112.159 177.959 113.955 177.959 116.682C177.959 119.386 179.55 121.182 181.913 121.182ZM181.913 119.977C180.118 119.977 179.3 118.432 179.3 116.682C179.3 114.932 180.118 113.364 181.913 113.364C183.709 113.364 184.527 114.932 184.527 116.682C184.527 118.432 183.709 119.977 181.913 119.977ZM187.915 121H189.256V115.545C189.256 114.267 190.188 113.364 191.233 113.364C192.25 113.364 192.96 114.028 192.96 115.023V121H194.324V115.318C194.324 114.193 195.028 113.364 196.256 113.364C197.21 113.364 198.028 113.869 198.028 115.159V121H199.369V115.159C199.369 113.108 198.267 112.159 196.71 112.159C195.46 112.159 194.545 112.733 194.097 113.636H194.006C193.574 112.705 192.812 112.159 191.665 112.159C190.528 112.159 189.688 112.705 189.324 113.636H189.21V112.273H187.915V121ZM201.821 124.273H203.162V119.659H203.276C203.571 120.136 204.139 121.182 205.821 121.182C208.003 121.182 209.526 119.432 209.526 116.659C209.526 113.909 208.003 112.159 205.798 112.159C204.094 112.159 203.571 113.205 203.276 113.659H203.116V112.273H201.821V124.273ZM203.139 116.636C203.139 114.682 204.003 113.364 205.639 113.364C207.344 113.364 208.185 114.795 208.185 116.636C208.185 118.5 207.321 119.977 205.639 119.977C204.026 119.977 203.139 118.614 203.139 116.636ZM212.912 109.364H211.571V121H212.912V109.364ZM219.027 121.182C220.8 121.182 222.095 120.295 222.504 118.977L221.209 118.614C220.868 119.523 220.078 119.977 219.027 119.977C217.453 119.977 216.368 118.96 216.305 117.091H222.641V116.523C222.641 113.273 220.709 112.159 218.891 112.159C216.527 112.159 214.959 114.023 214.959 116.705C214.959 119.386 216.504 121.182 219.027 121.182ZM216.305 115.932C216.396 114.574 217.357 113.364 218.891 113.364C220.345 113.364 221.277 114.455 221.277 115.932H216.305ZM225.446 112.273H223.901L226.673 116.636L223.901 121H225.446L227.537 117.614L229.628 121H231.173L228.355 116.636L231.173 112.273H229.628L227.537 115.841L225.446 112.273ZM240.155 121.205C241.678 121.205 242.473 120.386 242.746 119.818H242.814V121H244.155V115.25C244.155 112.477 242.041 112.159 240.928 112.159C239.609 112.159 238.109 112.614 237.428 114.205L238.7 114.659C238.996 114.023 239.695 113.341 240.973 113.341C242.206 113.341 242.814 113.994 242.814 115.114V115.159C242.814 115.807 242.155 115.75 240.564 115.955C238.945 116.165 237.178 116.523 237.178 118.523C237.178 120.227 238.496 121.205 240.155 121.205ZM240.359 120C239.291 120 238.518 119.523 238.518 118.591C238.518 117.568 239.45 117.25 240.496 117.114C241.064 117.045 242.587 116.886 242.814 116.614V117.841C242.814 118.932 241.95 120 240.359 120ZM246.602 124.273H247.943V119.659H248.057C248.352 120.136 248.92 121.182 250.602 121.182C252.784 121.182 254.307 119.432 254.307 116.659C254.307 113.909 252.784 112.159 250.58 112.159C248.875 112.159 248.352 113.205 248.057 113.659H247.898V112.273H246.602V124.273ZM247.92 116.636C247.92 114.682 248.784 113.364 250.42 113.364C252.125 113.364 252.966 114.795 252.966 116.636C252.966 118.5 252.102 119.977 250.42 119.977C248.807 119.977 247.92 118.614 247.92 116.636ZM256.352 124.273H257.693V119.659H257.807C258.102 120.136 258.67 121.182 260.352 121.182C262.534 121.182 264.057 119.432 264.057 116.659C264.057 113.909 262.534 112.159 260.33 112.159C258.625 112.159 258.102 113.205 257.807 113.659H257.648V112.273H256.352V124.273ZM257.67 116.636C257.67 114.682 258.534 113.364 260.17 113.364C261.875 113.364 262.716 114.795 262.716 116.636C262.716 118.5 261.852 119.977 260.17 119.977C258.557 119.977 257.67 118.614 257.67 116.636ZM272.284 114.227C271.864 112.989 270.92 112.159 269.193 112.159C267.352 112.159 265.989 113.205 265.989 114.682C265.989 115.886 266.705 116.693 268.307 117.068L269.761 117.409C270.642 117.614 271.057 118.034 271.057 118.636C271.057 119.386 270.261 120 269.011 120C267.915 120 267.227 119.528 266.989 118.591L265.716 118.909C266.028 120.392 267.25 121.182 269.034 121.182C271.062 121.182 272.443 120.074 272.443 118.568C272.443 117.352 271.682 116.585 270.125 116.205L268.83 115.886C267.795 115.631 267.33 115.284 267.33 114.614C267.33 113.864 268.125 113.318 269.193 113.318C270.364 113.318 270.847 113.966 271.08 114.568L272.284 114.227ZM275.439 121.091C276.001 121.091 276.462 120.631 276.462 120.068C276.462 119.506 276.001 119.045 275.439 119.045C274.876 119.045 274.416 119.506 274.416 120.068C274.416 120.631 274.876 121.091 275.439 121.091ZM284.027 109.364H282.55L286.822 121H288.277L292.55 109.364H291.072L287.618 119.159H287.482L284.027 109.364ZM294.18 121H295.521V112.273H294.18V121ZM294.862 110.818C295.385 110.818 295.817 110.409 295.817 109.909C295.817 109.409 295.385 109 294.862 109C294.339 109 293.908 109.409 293.908 109.909C293.908 110.409 294.339 110.818 294.862 110.818ZM301.273 121.182C302.955 121.182 303.523 120.136 303.818 119.659H303.977V121H305.273V109.364H303.932V113.659H303.818C303.523 113.205 303 112.159 301.295 112.159C299.091 112.159 297.568 113.909 297.568 116.659C297.568 119.432 299.091 121.182 301.273 121.182ZM301.455 119.977C299.773 119.977 298.909 118.5 298.909 116.636C298.909 114.795 299.75 113.364 301.455 113.364C303.091 113.364 303.955 114.682 303.955 116.636C303.955 118.614 303.068 119.977 301.455 119.977ZM311.574 121.182C313.347 121.182 314.642 120.295 315.051 118.977L313.756 118.614C313.415 119.523 312.625 119.977 311.574 119.977C310 119.977 308.915 118.96 308.852 117.091H315.188V116.523C315.188 113.273 313.256 112.159 311.438 112.159C309.074 112.159 307.506 114.023 307.506 116.705C307.506 119.386 309.051 121.182 311.574 121.182ZM308.852 115.932C308.943 114.574 309.903 113.364 311.438 113.364C312.892 113.364 313.824 114.455 313.824 115.932H308.852ZM320.773 121.182C323.136 121.182 324.727 119.386 324.727 116.682C324.727 113.955 323.136 112.159 320.773 112.159C318.409 112.159 316.818 113.955 316.818 116.682C316.818 119.386 318.409 121.182 320.773 121.182ZM320.773 119.977C318.977 119.977 318.159 118.432 318.159 116.682C318.159 114.932 318.977 113.364 320.773 113.364C322.568 113.364 323.386 114.932 323.386 116.682C323.386 118.432 322.568 119.977 320.773 119.977ZM332.956 114.227C332.536 112.989 331.592 112.159 329.865 112.159C328.024 112.159 326.661 113.205 326.661 114.682C326.661 115.886 327.376 116.693 328.979 117.068L330.433 117.409C331.314 117.614 331.729 118.034 331.729 118.636C331.729 119.386 330.933 120 329.683 120C328.587 120 327.899 119.528 327.661 118.591L326.388 118.909C326.7 120.392 327.922 121.182 329.706 121.182C331.734 121.182 333.115 120.074 333.115 118.568C333.115 117.352 332.354 116.585 330.797 116.205L329.501 115.886C328.467 115.631 328.001 115.284 328.001 114.614C328.001 113.864 328.797 113.318 329.865 113.318C331.036 113.318 331.518 113.966 331.751 114.568L332.956 114.227ZM58.5227 145.159C59.5909 145.159 60.7841 144.784 61.5398 144.011L62.3636 145H63.9773L62.3693 143.04C62.8068 142.477 63.2955 141.534 63.2955 139.909H62C62 140.705 61.8182 141.409 61.517 141.994L58.9886 138.909L59.8409 138.273C60.7955 137.568 61.3864 136.795 61.3864 135.682C61.3864 134.386 60.3182 133.25 58.5682 133.25C56.8636 133.25 55.75 134.318 55.75 135.886C55.75 136.92 56.3125 137.716 57.1136 138.682C55.7557 139.625 54.8182 140.5 54.8182 141.909C54.8182 143.795 56.2273 145.159 58.5227 145.159ZM60.7386 143.04C60.0966 143.642 59.2841 143.977 58.4773 143.977C57.0909 143.977 56.1818 143 56.1818 141.909C56.1818 141.591 56.4773 140.773 57.5227 140L57.9545 139.682L60.7386 143.04ZM58.1648 137.909C57.5966 137.216 57.1136 136.557 57.1136 135.909C57.1136 135.182 57.7273 134.409 58.6136 134.409C59.4545 134.409 60.0227 135.091 60.0227 135.682C60.0227 136.477 59.5909 136.909 58.9318 137.341L58.1648 137.909ZM69.9616 145H71.3026V139.477C71.3026 138.295 72.2344 137.432 73.5071 137.432C73.8651 137.432 74.2344 137.5 74.3253 137.523V136.159C74.1719 136.148 73.8196 136.136 73.6207 136.136C72.5753 136.136 71.6662 136.727 71.348 137.591H71.2571V136.273H69.9616V145ZM79.3082 145.182C81.081 145.182 82.3764 144.295 82.7855 142.977L81.4901 142.614C81.1491 143.523 80.3594 143.977 79.3082 143.977C77.7344 143.977 76.6491 142.96 76.5866 141.091H82.9219V140.523C82.9219 137.273 80.9901 136.159 79.1719 136.159C76.8082 136.159 75.2401 138.023 75.2401 140.705C75.2401 143.386 76.7855 145.182 79.3082 145.182ZM76.5866 139.932C76.6776 138.574 77.6378 137.364 79.1719 137.364C80.6264 137.364 81.5582 138.455 81.5582 139.932H76.5866ZM88.5071 145.182C90.4389 145.182 91.7116 144 91.9389 142.455H90.598C90.348 143.409 89.5526 143.977 88.5071 143.977C86.9162 143.977 85.8935 142.659 85.8935 140.636C85.8935 138.659 86.9389 137.364 88.5071 137.364C89.6889 137.364 90.3935 138.091 90.598 138.886H91.9389C91.7116 137.25 90.3253 136.159 88.4844 136.159C86.1207 136.159 84.5526 138.023 84.5526 140.682C84.5526 143.295 86.0526 145.182 88.5071 145.182ZM93.8991 145H95.2401V136.273H93.8991V145ZM94.581 134.818C95.1037 134.818 95.5355 134.409 95.5355 133.909C95.5355 133.409 95.1037 133 94.581 133C94.0582 133 93.6264 133.409 93.6264 133.909C93.6264 134.409 94.0582 134.818 94.581 134.818ZM97.696 148.273H99.0369V143.659H99.1506C99.446 144.136 100.014 145.182 101.696 145.182C103.878 145.182 105.401 143.432 105.401 140.659C105.401 137.909 103.878 136.159 101.673 136.159C99.9688 136.159 99.446 137.205 99.1506 137.659H98.9915V136.273H97.696V148.273ZM99.0142 140.636C99.0142 138.682 99.8778 137.364 101.514 137.364C103.219 137.364 104.06 138.795 104.06 140.636C104.06 142.5 103.196 143.977 101.514 143.977C99.9006 143.977 99.0142 142.614 99.0142 140.636ZM111.105 145.182C112.878 145.182 114.173 144.295 114.582 142.977L113.287 142.614C112.946 143.523 112.156 143.977 111.105 143.977C109.531 143.977 108.446 142.96 108.384 141.091H114.719V140.523C114.719 137.273 112.787 136.159 110.969 136.159C108.605 136.159 107.037 138.023 107.037 140.705C107.037 143.386 108.582 145.182 111.105 145.182ZM108.384 139.932C108.474 138.574 109.435 137.364 110.969 137.364C112.423 137.364 113.355 138.455 113.355 139.932H108.384ZM121.44 145H122.736V143.659H122.895C123.19 144.136 123.759 145.182 125.44 145.182C127.622 145.182 129.145 143.432 129.145 140.659C129.145 137.909 127.622 136.159 125.418 136.159C123.713 136.159 123.19 137.205 122.895 137.659H122.781V133.364H121.44V145ZM122.759 140.636C122.759 138.682 123.622 137.364 125.259 137.364C126.963 137.364 127.804 138.795 127.804 140.636C127.804 142.5 126.94 143.977 125.259 143.977C123.645 143.977 122.759 142.614 122.759 140.636ZM134.741 145.182C137.105 145.182 138.696 143.386 138.696 140.682C138.696 137.955 137.105 136.159 134.741 136.159C132.378 136.159 130.787 137.955 130.787 140.682C130.787 143.386 132.378 145.182 134.741 145.182ZM134.741 143.977C132.946 143.977 132.128 142.432 132.128 140.682C132.128 138.932 132.946 137.364 134.741 137.364C136.537 137.364 137.355 138.932 137.355 140.682C137.355 142.432 136.537 143.977 134.741 143.977ZM144.288 145.182C146.652 145.182 148.243 143.386 148.243 140.682C148.243 137.955 146.652 136.159 144.288 136.159C141.925 136.159 140.334 137.955 140.334 140.682C140.334 143.386 141.925 145.182 144.288 145.182ZM144.288 143.977C142.493 143.977 141.675 142.432 141.675 140.682C141.675 138.932 142.493 137.364 144.288 137.364C146.084 137.364 146.902 138.932 146.902 140.682C146.902 142.432 146.084 143.977 144.288 143.977ZM150.29 145H151.631V141.733L152.568 140.864L155.835 145H157.54L153.58 140L157.267 136.273H155.608L151.79 140.159H151.631V133.364H150.29V145ZM165.175 138.227C164.754 136.989 163.811 136.159 162.084 136.159C160.243 136.159 158.879 137.205 158.879 138.682C158.879 139.886 159.595 140.693 161.197 141.068L162.652 141.409C163.533 141.614 163.947 142.034 163.947 142.636C163.947 143.386 163.152 144 161.902 144C160.805 144 160.118 143.528 159.879 142.591L158.607 142.909C158.919 144.392 160.141 145.182 161.925 145.182C163.953 145.182 165.334 144.074 165.334 142.568C165.334 141.352 164.572 140.585 163.016 140.205L161.72 139.886C160.686 139.631 160.22 139.284 160.22 138.614C160.22 137.864 161.016 137.318 162.084 137.318C163.254 137.318 163.737 137.966 163.97 138.568L165.175 138.227ZM174.42 145.205C175.943 145.205 176.739 144.386 177.011 143.818H177.08V145H178.42V139.25C178.42 136.477 176.307 136.159 175.193 136.159C173.875 136.159 172.375 136.614 171.693 138.205L172.966 138.659C173.261 138.023 173.96 137.341 175.239 137.341C176.472 137.341 177.08 137.994 177.08 139.114V139.159C177.08 139.807 176.42 139.75 174.83 139.955C173.21 140.165 171.443 140.523 171.443 142.523C171.443 144.227 172.761 145.205 174.42 145.205ZM174.625 144C173.557 144 172.784 143.523 172.784 142.591C172.784 141.568 173.716 141.25 174.761 141.114C175.33 141.045 176.852 140.886 177.08 140.614V141.841C177.08 142.932 176.216 144 174.625 144ZM180.868 145H182.209V139.477C182.209 138.295 183.141 137.432 184.413 137.432C184.771 137.432 185.141 137.5 185.232 137.523V136.159C185.078 136.148 184.726 136.136 184.527 136.136C183.482 136.136 182.572 136.727 182.254 137.591H182.163V136.273H180.868V145ZM190.214 145.182C191.987 145.182 193.283 144.295 193.692 142.977L192.396 142.614C192.055 143.523 191.266 143.977 190.214 143.977C188.641 143.977 187.555 142.96 187.493 141.091H193.828V140.523C193.828 137.273 191.896 136.159 190.078 136.159C187.714 136.159 186.146 138.023 186.146 140.705C186.146 143.386 187.692 145.182 190.214 145.182ZM187.493 139.932C187.584 138.574 188.544 137.364 190.078 137.364C191.533 137.364 192.464 138.455 192.464 139.932H187.493ZM204.027 145.182C205.8 145.182 207.095 144.295 207.504 142.977L206.209 142.614C205.868 143.523 205.078 143.977 204.027 143.977C202.453 143.977 201.368 142.96 201.305 141.091H207.641V140.523C207.641 137.273 205.709 136.159 203.891 136.159C201.527 136.159 199.959 138.023 199.959 140.705C199.959 143.386 201.504 145.182 204.027 145.182ZM201.305 139.932C201.396 138.574 202.357 137.364 203.891 137.364C205.345 137.364 206.277 138.455 206.277 139.932H201.305ZM212.249 145.205C213.771 145.205 214.567 144.386 214.839 143.818H214.908V145H216.249V139.25C216.249 136.477 214.135 136.159 213.021 136.159C211.703 136.159 210.203 136.614 209.521 138.205L210.794 138.659C211.089 138.023 211.788 137.341 213.067 137.341C214.3 137.341 214.908 137.994 214.908 139.114V139.159C214.908 139.807 214.249 139.75 212.658 139.955C211.038 140.165 209.271 140.523 209.271 142.523C209.271 144.227 210.589 145.205 212.249 145.205ZM212.453 144C211.385 144 210.612 143.523 210.612 142.591C210.612 141.568 211.544 141.25 212.589 141.114C213.158 141.045 214.68 140.886 214.908 140.614V141.841C214.908 142.932 214.044 144 212.453 144ZM224.878 138.227C224.457 136.989 223.514 136.159 221.787 136.159C219.946 136.159 218.582 137.205 218.582 138.682C218.582 139.886 219.298 140.693 220.901 141.068L222.355 141.409C223.236 141.614 223.651 142.034 223.651 142.636C223.651 143.386 222.855 144 221.605 144C220.509 144 219.821 143.528 219.582 142.591L218.31 142.909C218.622 144.392 219.844 145.182 221.628 145.182C223.656 145.182 225.037 144.074 225.037 142.568C225.037 141.352 224.276 140.585 222.719 140.205L221.423 139.886C220.389 139.631 219.923 139.284 219.923 138.614C219.923 137.864 220.719 137.318 221.787 137.318C222.957 137.318 223.44 137.966 223.673 138.568L224.878 138.227ZM227.055 145H228.396V136.273H227.055V145ZM227.737 134.818C228.26 134.818 228.692 134.409 228.692 133.909C228.692 133.409 228.26 133 227.737 133C227.214 133 226.783 133.409 226.783 133.909C226.783 134.409 227.214 134.818 227.737 134.818ZM234.511 145.182C236.284 145.182 237.58 144.295 237.989 142.977L236.693 142.614C236.352 143.523 235.562 143.977 234.511 143.977C232.938 143.977 231.852 142.96 231.79 141.091H238.125V140.523C238.125 137.273 236.193 136.159 234.375 136.159C232.011 136.159 230.443 138.023 230.443 140.705C230.443 143.386 231.989 145.182 234.511 145.182ZM231.79 139.932C231.881 138.574 232.841 137.364 234.375 137.364C235.83 137.364 236.761 138.455 236.761 139.932H231.79ZM240.165 145H241.506V139.477C241.506 138.295 242.438 137.432 243.71 137.432C244.068 137.432 244.438 137.5 244.528 137.523V136.159C244.375 136.148 244.023 136.136 243.824 136.136C242.778 136.136 241.869 136.727 241.551 137.591H241.46V136.273H240.165V145ZM254.413 136.273H252.55V134.182H251.209V136.273H249.891V137.409H251.209V142.864C251.209 144.386 252.436 145.114 253.572 145.114C254.072 145.114 254.391 145.023 254.572 144.955L254.3 143.75C254.186 143.773 254.004 143.818 253.709 143.818C253.118 143.818 252.55 143.636 252.55 142.5V137.409H254.413V136.273ZM259.882 145.182C262.246 145.182 263.837 143.386 263.837 140.682C263.837 137.955 262.246 136.159 259.882 136.159C257.518 136.159 255.928 137.955 255.928 140.682C255.928 143.386 257.518 145.182 259.882 145.182ZM259.882 143.977C258.087 143.977 257.268 142.432 257.268 140.682C257.268 138.932 258.087 137.364 259.882 137.364C261.678 137.364 262.496 138.932 262.496 140.682C262.496 142.432 261.678 143.977 259.882 143.977ZM275.884 141.432C275.884 143.068 274.634 143.818 273.634 143.818C272.52 143.818 271.724 143 271.724 141.727V136.273H270.384V141.818C270.384 144.045 271.565 145.114 273.202 145.114C274.52 145.114 275.384 144.409 275.793 143.523H275.884V145H277.224V136.273H275.884V141.432ZM285.862 138.227C285.442 136.989 284.499 136.159 282.771 136.159C280.93 136.159 279.567 137.205 279.567 138.682C279.567 139.886 280.283 140.693 281.885 141.068L283.339 141.409C284.22 141.614 284.635 142.034 284.635 142.636C284.635 143.386 283.839 144 282.589 144C281.493 144 280.805 143.528 280.567 142.591L279.294 142.909C279.607 144.392 280.828 145.182 282.612 145.182C284.641 145.182 286.021 144.074 286.021 142.568C286.021 141.352 285.26 140.585 283.703 140.205L282.408 139.886C281.374 139.631 280.908 139.284 280.908 138.614C280.908 137.864 281.703 137.318 282.771 137.318C283.942 137.318 284.425 137.966 284.658 138.568L285.862 138.227ZM291.699 145.182C293.472 145.182 294.767 144.295 295.176 142.977L293.881 142.614C293.54 143.523 292.75 143.977 291.699 143.977C290.125 143.977 289.04 142.96 288.977 141.091H295.312V140.523C295.312 137.273 293.381 136.159 291.562 136.159C289.199 136.159 287.631 138.023 287.631 140.705C287.631 143.386 289.176 145.182 291.699 145.182ZM288.977 139.932C289.068 138.574 290.028 137.364 291.562 137.364C293.017 137.364 293.949 138.455 293.949 139.932H288.977Z" fill="black"/>
<path d="M34.5 181.864C35.8807 181.864 37 180.744 37 179.364C37 177.983 35.8807 176.864 34.5 176.864C33.1193 176.864 32 177.983 32 179.364C32 180.744 33.1193 181.864 34.5 181.864Z" fill="black"/>
<path d="M59 184C62.5455 184 64.5455 181.795 64.5455 178.159C64.5455 174.545 62.5455 172.364 59.1591 172.364H55.4091V184H59ZM56.8182 182.75V173.614H59.0682C61.7955 173.614 63.1818 175.341 63.1818 178.159C63.1818 181 61.7955 182.75 58.9091 182.75H56.8182ZM66.7273 184H68.0682V175.273H66.7273V184ZM67.4091 173.818C67.9318 173.818 68.3636 173.409 68.3636 172.909C68.3636 172.409 67.9318 172 67.4091 172C66.8864 172 66.4545 172.409 66.4545 172.909C66.4545 173.409 66.8864 173.818 67.4091 173.818ZM74.4105 175.273H72.456V174.386C72.456 173.523 72.8196 173.068 73.706 173.068C74.0923 173.068 74.3196 173.159 74.456 173.205L74.8423 172.045C74.6378 171.955 74.2287 171.818 73.5696 171.818C72.3196 171.818 71.1151 172.568 71.1151 174.068V175.273H69.706V176.409H71.1151V184H72.456V176.409H74.4105V175.273ZM80.1761 175.273H78.2216V174.386C78.2216 173.523 78.5852 173.068 79.4716 173.068C79.858 173.068 80.0852 173.159 80.2216 173.205L80.608 172.045C80.4034 171.955 79.9943 171.818 79.3352 171.818C78.0852 171.818 76.8807 172.568 76.8807 174.068V175.273H75.4716V176.409H76.8807V184H78.2216V176.409H80.1761V175.273ZM82.0554 184H83.3963V175.273H82.0554V184ZM82.7372 173.818C83.2599 173.818 83.6918 173.409 83.6918 172.909C83.6918 172.409 83.2599 172 82.7372 172C82.2145 172 81.7827 172.409 81.7827 172.909C81.7827 173.409 82.2145 173.818 82.7372 173.818ZM89.3977 184.182C91.3295 184.182 92.6023 183 92.8295 181.455H91.4886C91.2386 182.409 90.4432 182.977 89.3977 182.977C87.8068 182.977 86.7841 181.659 86.7841 179.636C86.7841 177.659 87.8295 176.364 89.3977 176.364C90.5795 176.364 91.2841 177.091 91.4886 177.886H92.8295C92.6023 176.25 91.2159 175.159 89.375 175.159C87.0114 175.159 85.4432 177.023 85.4432 179.682C85.4432 182.295 86.9432 184.182 89.3977 184.182ZM100.29 180.432C100.29 182.068 99.0398 182.818 98.0398 182.818C96.9261 182.818 96.1307 182 96.1307 180.727V175.273H94.7898V180.818C94.7898 183.045 95.9716 184.114 97.608 184.114C98.9261 184.114 99.7898 183.409 100.199 182.523H100.29V184H101.631V175.273H100.29V180.432ZM105.428 172.364H104.087V184H105.428V172.364ZM111.679 175.273H109.815V173.182H108.474V175.273H107.156V176.409H108.474V181.864C108.474 183.386 109.702 184.114 110.838 184.114C111.338 184.114 111.656 184.023 111.838 183.955L111.565 182.75C111.452 182.773 111.27 182.818 110.974 182.818C110.384 182.818 109.815 182.636 109.815 181.5V176.409H111.679V175.273ZM114.56 187.273C115.77 187.273 116.622 186.631 117.128 185.273L120.844 175.295L119.378 175.273L116.969 182.227H116.878L114.469 175.273H113.014L116.241 184.045L115.991 184.727C115.503 186.057 114.901 186.182 113.923 185.932L113.582 187.114C113.719 187.182 114.105 187.273 114.56 187.273ZM130.913 175.273H129.05V173.182H127.709V175.273H126.391V176.409H127.709V181.864C127.709 183.386 128.936 184.114 130.072 184.114C130.572 184.114 130.891 184.023 131.072 183.955L130.8 182.75C130.686 182.773 130.504 182.818 130.209 182.818C129.618 182.818 129.05 182.636 129.05 181.5V176.409H130.913V175.273ZM136.382 184.182C138.746 184.182 140.337 182.386 140.337 179.682C140.337 176.955 138.746 175.159 136.382 175.159C134.018 175.159 132.428 176.955 132.428 179.682C132.428 182.386 134.018 184.182 136.382 184.182ZM136.382 182.977C134.587 182.977 133.768 181.432 133.768 179.682C133.768 177.932 134.587 176.364 136.382 176.364C138.178 176.364 138.996 177.932 138.996 179.682C138.996 181.432 138.178 182.977 136.382 182.977ZM152.384 180.432C152.384 182.068 151.134 182.818 150.134 182.818C149.02 182.818 148.224 182 148.224 180.727V175.273H146.884V180.818C146.884 183.045 148.065 184.114 149.702 184.114C151.02 184.114 151.884 183.409 152.293 182.523H152.384V184H153.724V175.273H152.384V180.432ZM162.362 177.227C161.942 175.989 160.999 175.159 159.271 175.159C157.43 175.159 156.067 176.205 156.067 177.682C156.067 178.886 156.783 179.693 158.385 180.068L159.839 180.409C160.72 180.614 161.135 181.034 161.135 181.636C161.135 182.386 160.339 183 159.089 183C157.993 183 157.305 182.528 157.067 181.591L155.794 181.909C156.107 183.392 157.328 184.182 159.112 184.182C161.141 184.182 162.521 183.074 162.521 181.568C162.521 180.352 161.76 179.585 160.203 179.205L158.908 178.886C157.874 178.631 157.408 178.284 157.408 177.614C157.408 176.864 158.203 176.318 159.271 176.318C160.442 176.318 160.925 176.966 161.158 177.568L162.362 177.227ZM168.199 184.182C169.972 184.182 171.267 183.295 171.676 181.977L170.381 181.614C170.04 182.523 169.25 182.977 168.199 182.977C166.625 182.977 165.54 181.96 165.477 180.091H171.812V179.523C171.812 176.273 169.881 175.159 168.062 175.159C165.699 175.159 164.131 177.023 164.131 179.705C164.131 182.386 165.676 184.182 168.199 184.182ZM165.477 178.932C165.568 177.574 166.528 176.364 168.062 176.364C169.517 176.364 170.449 177.455 170.449 178.932H165.477ZM178.352 184H179.693V178.545C179.693 177.267 180.625 176.364 181.67 176.364C182.688 176.364 183.398 177.028 183.398 178.023V184H184.761V178.318C184.761 177.193 185.466 176.364 186.693 176.364C187.648 176.364 188.466 176.869 188.466 178.159V184H189.807V178.159C189.807 176.108 188.705 175.159 187.148 175.159C185.898 175.159 184.983 175.733 184.534 176.636H184.443C184.011 175.705 183.25 175.159 182.102 175.159C180.966 175.159 180.125 175.705 179.761 176.636H179.648V175.273H178.352V184ZM195.804 184.182C198.168 184.182 199.759 182.386 199.759 179.682C199.759 176.955 198.168 175.159 195.804 175.159C193.44 175.159 191.849 176.955 191.849 179.682C191.849 182.386 193.44 184.182 195.804 184.182ZM195.804 182.977C194.009 182.977 193.19 181.432 193.19 179.682C193.19 177.932 194.009 176.364 195.804 176.364C197.599 176.364 198.418 177.932 198.418 179.682C198.418 181.432 197.599 182.977 195.804 182.977ZM201.987 184H203.283V182.659H203.442C203.737 183.136 204.305 184.182 205.987 184.182C208.169 184.182 209.692 182.432 209.692 179.659C209.692 176.909 208.169 175.159 205.964 175.159C204.26 175.159 203.737 176.205 203.442 176.659H203.328V172.364H201.987V184ZM203.305 179.636C203.305 177.682 204.169 176.364 205.805 176.364C207.51 176.364 208.351 177.795 208.351 179.636C208.351 181.5 207.487 182.977 205.805 182.977C204.192 182.977 203.305 181.614 203.305 179.636ZM211.743 184H213.084V175.273H211.743V184ZM212.425 173.818C212.947 173.818 213.379 173.409 213.379 172.909C213.379 172.409 212.947 172 212.425 172C211.902 172 211.47 172.409 211.47 172.909C211.47 173.409 211.902 173.818 212.425 173.818ZM216.881 172.364H215.54V184H216.881V172.364ZM222.996 184.182C224.768 184.182 226.064 183.295 226.473 181.977L225.178 181.614C224.837 182.523 224.047 182.977 222.996 182.977C221.422 182.977 220.337 181.96 220.274 180.091H226.609V179.523C226.609 176.273 224.678 175.159 222.859 175.159C220.496 175.159 218.928 177.023 218.928 179.705C218.928 182.386 220.473 184.182 222.996 184.182ZM220.274 178.932C220.365 177.574 221.325 176.364 222.859 176.364C224.314 176.364 225.246 177.455 225.246 178.932H220.274ZM235.126 184H236.445L238.354 177.295H238.49L240.399 184H241.717L244.376 175.273H242.967L241.081 181.932H240.99L239.149 175.273H237.717L235.854 181.955H235.763L233.876 175.273H232.467L235.126 184ZM247.49 178.75C247.49 177.227 248.462 176.364 249.786 176.364C251.047 176.364 251.808 177.159 251.808 178.545V184H253.149V178.455C253.149 176.21 251.956 175.159 250.172 175.159C248.797 175.159 248.013 175.733 247.604 176.636H247.49V172.364H246.149V184H247.49V178.75ZM255.602 184H256.943V175.273H255.602V184ZM256.284 173.818C256.807 173.818 257.239 173.409 257.239 172.909C257.239 172.409 256.807 172 256.284 172C255.761 172 255.33 172.409 255.33 172.909C255.33 173.409 255.761 173.818 256.284 173.818ZM260.74 172.364H259.399V184H260.74V172.364ZM266.855 184.182C268.628 184.182 269.923 183.295 270.332 181.977L269.037 181.614C268.696 182.523 267.906 182.977 266.855 182.977C265.281 182.977 264.196 181.96 264.134 180.091H270.469V179.523C270.469 176.273 268.537 175.159 266.719 175.159C264.355 175.159 262.787 177.023 262.787 179.705C262.787 182.386 264.332 184.182 266.855 184.182ZM264.134 178.932C264.224 177.574 265.185 176.364 266.719 176.364C268.173 176.364 269.105 177.455 269.105 178.932H264.134ZM58.7727 208.182C60.7045 208.182 61.9773 207 62.2045 205.455H60.8636C60.6136 206.409 59.8182 206.977 58.7727 206.977C57.1818 206.977 56.1591 205.659 56.1591 203.636C56.1591 201.659 57.2045 200.364 58.7727 200.364C59.9545 200.364 60.6591 201.091 60.8636 201.886H62.2045C61.9773 200.25 60.5909 199.159 58.75 199.159C56.3864 199.159 54.8182 201.023 54.8182 203.682C54.8182 206.295 56.3182 208.182 58.7727 208.182ZM67.7102 208.182C70.0739 208.182 71.6648 206.386 71.6648 203.682C71.6648 200.955 70.0739 199.159 67.7102 199.159C65.3466 199.159 63.7557 200.955 63.7557 203.682C63.7557 206.386 65.3466 208.182 67.7102 208.182ZM67.7102 206.977C65.9148 206.977 65.0966 205.432 65.0966 203.682C65.0966 201.932 65.9148 200.364 67.7102 200.364C69.5057 200.364 70.3239 201.932 70.3239 203.682C70.3239 205.432 69.5057 206.977 67.7102 206.977ZM77.2571 208.182C79.6207 208.182 81.2116 206.386 81.2116 203.682C81.2116 200.955 79.6207 199.159 77.2571 199.159C74.8935 199.159 73.3026 200.955 73.3026 203.682C73.3026 206.386 74.8935 208.182 77.2571 208.182ZM77.2571 206.977C75.4616 206.977 74.6435 205.432 74.6435 203.682C74.6435 201.932 75.4616 200.364 77.2571 200.364C79.0526 200.364 79.8707 201.932 79.8707 203.682C79.8707 205.432 79.0526 206.977 77.2571 206.977ZM83.2585 208H84.5994V204.733L85.5369 203.864L88.804 208H90.5085L86.5483 203L90.2358 199.273H88.5767L84.7585 203.159H84.5994V196.364H83.2585V208ZM91.9616 208H93.3026V199.273H91.9616V208ZM92.6435 197.818C93.1662 197.818 93.598 197.409 93.598 196.909C93.598 196.409 93.1662 196 92.6435 196C92.1207 196 91.6889 196.409 91.6889 196.909C91.6889 197.409 92.1207 197.818 92.6435 197.818ZM97.0994 202.75C97.0994 201.227 98.0426 200.364 99.3267 200.364C100.571 200.364 101.327 201.176 101.327 202.545V208H102.668V202.455C102.668 200.227 101.48 199.159 99.7131 199.159C98.3949 199.159 97.5767 199.75 97.1676 200.636H97.054V199.273H95.7585V208H97.0994V202.75ZM108.641 211.455C110.732 211.455 112.413 210.5 112.413 208.25V199.273H111.118V200.659H110.982C110.686 200.205 110.141 199.159 108.436 199.159C106.232 199.159 104.709 200.909 104.709 203.591C104.709 206.318 106.3 207.864 108.413 207.864C110.118 207.864 110.663 206.864 110.959 206.386H111.072V208.159C111.072 209.614 110.05 210.273 108.641 210.273C107.055 210.273 106.499 209.438 106.141 208.955L105.072 209.705C105.618 210.619 106.692 211.455 108.641 211.455ZM108.595 206.659C106.913 206.659 106.05 205.386 106.05 203.568C106.05 201.795 106.891 200.364 108.595 200.364C110.232 200.364 111.095 201.682 111.095 203.568C111.095 205.5 110.209 206.659 108.595 206.659Z" fill="black"/>
<path d="M31.4347 61H34.0696V56.0852H36.8537C40.2131 56.0852 42.017 54.0682 42.017 51.2699C42.017 48.4929 40.2344 46.4545 36.8892 46.4545H31.4347V61ZM34.0696 53.919V48.6562H36.4844C38.4588 48.6562 39.3324 49.7216 39.3324 51.2699C39.3324 52.8182 38.4588 53.919 36.4986 53.919H34.0696ZM47.136 61.2202C48.8477 61.2202 49.8704 60.4176 50.3391 59.5014H50.4244V61H52.896V53.6989C52.896 50.8153 50.5451 49.9489 48.4641 49.9489C46.1701 49.9489 44.4087 50.9716 43.8406 52.9602L46.2411 53.3011C46.4968 52.5554 47.2212 51.9162 48.4783 51.9162C49.6715 51.9162 50.3249 52.527 50.3249 53.5994V53.642C50.3249 54.3807 49.5508 54.4162 47.6261 54.6222C45.5096 54.8494 43.4854 55.4815 43.4854 57.9389C43.4854 60.0838 45.055 61.2202 47.136 61.2202ZM47.8036 59.331C46.7312 59.331 45.9641 58.8409 45.9641 57.8963C45.9641 56.9091 46.8235 56.4972 47.9741 56.3338C48.6488 56.2415 49.9982 56.071 50.332 55.8011V57.0866C50.332 58.3011 49.3519 59.331 47.8036 59.331ZM55.4812 61H58.0522V50.0909H55.4812V61ZM56.7738 48.5426C57.5906 48.5426 58.2582 47.9176 58.2582 47.1506C58.2582 46.3764 57.5906 45.7514 56.7738 45.7514C55.9499 45.7514 55.2823 46.3764 55.2823 47.1506C55.2823 47.9176 55.9499 48.5426 56.7738 48.5426ZM63.267 54.608C63.267 53.0312 64.2188 52.1222 65.5753 52.1222C66.9034 52.1222 67.6989 52.9957 67.6989 54.4517V61H70.2699V54.054C70.277 51.4403 68.7855 49.9489 66.5341 49.9489C64.9006 49.9489 63.7784 50.7301 63.2812 51.9446H63.1534V50.0909H60.696V61H63.267V54.608ZM77.9581 61H80.593V56.0852H83.3771C86.7365 56.0852 88.5405 54.0682 88.5405 51.2699C88.5405 48.4929 86.7578 46.4545 83.4126 46.4545H77.9581V61ZM80.593 53.919V48.6562H83.0078C84.9822 48.6562 85.8558 49.7216 85.8558 51.2699C85.8558 52.8182 84.9822 53.919 83.022 53.919H80.593ZM95.3178 61.2131C98.5138 61.2131 100.545 58.9616 100.545 55.5881C100.545 52.2074 98.5138 49.9489 95.3178 49.9489C92.1218 49.9489 90.0906 52.2074 90.0906 55.5881C90.0906 58.9616 92.1218 61.2131 95.3178 61.2131ZM95.332 59.1534C93.5636 59.1534 92.6971 57.5767 92.6971 55.581C92.6971 53.5852 93.5636 51.9872 95.332 51.9872C97.0721 51.9872 97.9386 53.5852 97.9386 55.581C97.9386 57.5767 97.0721 59.1534 95.332 59.1534ZM102.727 61H105.298V50.0909H102.727V61ZM104.02 48.5426C104.837 48.5426 105.504 47.9176 105.504 47.1506C105.504 46.3764 104.837 45.7514 104.02 45.7514C103.196 45.7514 102.528 46.3764 102.528 47.1506C102.528 47.9176 103.196 48.5426 104.02 48.5426ZM110.513 54.608C110.513 53.0312 111.465 52.1222 112.821 52.1222C114.15 52.1222 114.945 52.9957 114.945 54.4517V61H117.516V54.054C117.523 51.4403 116.032 49.9489 113.78 49.9489C112.147 49.9489 111.025 50.7301 110.527 51.9446H110.4V50.0909H107.942V61H110.513V54.608ZM125.577 50.0909H123.425V47.4773H120.854V50.0909H119.306V52.0795H120.854V58.1449C120.84 60.1974 122.331 61.206 124.263 61.1491C124.995 61.1278 125.499 60.9858 125.776 60.8935L125.343 58.8835C125.201 58.919 124.909 58.983 124.59 58.983C123.944 58.983 123.425 58.7557 123.425 57.7188V52.0795H125.577V50.0909ZM136.193 52.9744C135.838 51.1278 134.361 49.9489 131.804 49.9489C129.176 49.9489 127.386 51.2415 127.393 53.2585C127.386 54.8494 128.366 55.9006 130.462 56.3338L132.322 56.7244C133.324 56.9446 133.793 57.3494 133.793 57.9673C133.793 58.7131 132.983 59.2741 131.761 59.2741C130.582 59.2741 129.815 58.7628 129.595 57.7827L127.088 58.0241C127.408 60.027 129.091 61.2131 131.768 61.2131C134.496 61.2131 136.42 59.7997 136.428 57.733C136.42 56.1776 135.419 55.2259 133.359 54.7784L131.499 54.3807C130.391 54.1321 129.95 53.7486 129.957 53.1165C129.95 52.3778 130.767 51.8665 131.839 51.8665C133.026 51.8665 133.651 52.5128 133.849 53.2301L136.193 52.9744Z" fill="black"/>
<path d="M144.318 53.7273C144.318 57.3068 145.284 60.2898 147.017 62.8182H148.494C147.131 60.9432 146.051 57.108 146.051 53.7273C146.051 50.3466 147.131 46.5114 148.494 44.6364H147.017C145.284 47.1648 144.318 50.1477 144.318 53.7273ZM155.684 61C160.115 61 162.615 58.2443 162.615 53.6989C162.615 49.1818 160.115 46.4545 155.882 46.4545H151.195V61H155.684ZM152.956 59.4375V48.017H155.769C159.178 48.017 160.911 50.1761 160.911 53.6989C160.911 57.25 159.178 59.4375 155.57 59.4375H152.956ZM165.343 61H167.019V50.0909H165.343V61ZM166.195 48.2727C166.848 48.2727 167.388 47.7614 167.388 47.1364C167.388 46.5114 166.848 46 166.195 46C165.542 46 165.002 46.5114 165.002 47.1364C165.002 47.7614 165.542 48.2727 166.195 48.2727ZM177.816 52.5341C177.29 50.9858 176.112 49.9489 173.952 49.9489C171.651 49.9489 169.947 51.2557 169.947 53.1023C169.947 54.608 170.842 55.6165 172.844 56.0852L174.663 56.5114C175.763 56.767 176.282 57.2926 176.282 58.0455C176.282 58.983 175.288 59.75 173.725 59.75C172.354 59.75 171.495 59.1605 171.197 57.9886L169.606 58.3864C169.996 60.2401 171.523 61.2273 173.754 61.2273C176.289 61.2273 178.015 59.8423 178.015 57.9602C178.015 56.4403 177.063 55.4815 175.117 55.0057L173.498 54.608C172.205 54.2884 171.623 53.8551 171.623 53.017C171.623 52.0795 172.617 51.3977 173.952 51.3977C175.415 51.3977 176.019 52.2074 176.31 52.9602L177.816 52.5341ZM184.97 61.2273C187.385 61.2273 188.975 59.75 189.26 57.8182H187.583C187.271 59.0114 186.277 59.7216 184.97 59.7216C182.981 59.7216 181.703 58.0739 181.703 55.5455C181.703 53.0739 183.01 51.4545 184.97 51.4545C186.447 51.4545 187.328 52.3636 187.583 53.358H189.26C188.975 51.3125 187.243 49.9489 184.941 49.9489C181.987 49.9489 180.027 52.2784 180.027 55.6023C180.027 58.8693 181.902 61.2273 184.97 61.2273ZM196.142 61.2273C199.096 61.2273 201.085 58.983 201.085 55.6023C201.085 52.1932 199.096 49.9489 196.142 49.9489C193.187 49.9489 191.199 52.1932 191.199 55.6023C191.199 58.983 193.187 61.2273 196.142 61.2273ZM196.142 59.7216C193.897 59.7216 192.875 57.7898 192.875 55.6023C192.875 53.4148 193.897 51.4545 196.142 51.4545C198.386 51.4545 199.409 53.4148 199.409 55.6023C199.409 57.7898 198.386 59.7216 196.142 59.7216ZM212.173 50.0909H210.355L207.344 58.7841H207.23L204.219 50.0909H202.401L206.435 61H208.139L212.173 50.0909ZM218.569 61.2273C220.785 61.2273 222.404 60.1193 222.915 58.4716L221.296 58.017C220.87 59.1534 219.883 59.7216 218.569 59.7216C216.602 59.7216 215.245 58.4503 215.167 56.1136H223.086V55.4034C223.086 51.3409 220.671 49.9489 218.398 49.9489C215.444 49.9489 213.484 52.2784 213.484 55.6307C213.484 58.983 215.415 61.2273 218.569 61.2273ZM215.167 54.6648C215.281 52.9673 216.481 51.4545 218.398 51.4545C220.217 51.4545 221.381 52.8182 221.381 54.6648H215.167ZM225.636 61H227.312V54.0966C227.312 52.6193 228.477 51.5398 230.067 51.5398C230.515 51.5398 230.977 51.625 231.09 51.6534V49.9489C230.898 49.9347 230.458 49.9205 230.21 49.9205C228.903 49.9205 227.766 50.6591 227.369 51.7386H227.255V50.0909H225.636V61ZM237.319 61.2273C239.535 61.2273 241.154 60.1193 241.665 58.4716L240.046 58.017C239.62 59.1534 238.633 59.7216 237.319 59.7216C235.352 59.7216 233.995 58.4503 233.917 56.1136H241.836V55.4034C241.836 51.3409 239.421 49.9489 237.148 49.9489C234.194 49.9489 232.234 52.2784 232.234 55.6307C232.234 58.983 234.165 61.2273 237.319 61.2273ZM233.917 54.6648C234.031 52.9673 235.231 51.4545 237.148 51.4545C238.967 51.4545 240.131 52.8182 240.131 54.6648H233.917ZM248.505 61.2273C250.607 61.2273 251.317 59.9205 251.687 59.3239H251.886V61H253.505V46.4545H251.829V51.8239H251.687C251.317 51.2557 250.664 49.9489 248.533 49.9489C245.778 49.9489 243.874 52.1364 243.874 55.5739C243.874 59.0398 245.778 61.2273 248.505 61.2273ZM248.732 59.7216C246.63 59.7216 245.55 57.875 245.55 55.5455C245.55 53.2443 246.602 51.4545 248.732 51.4545C250.778 51.4545 251.857 53.1023 251.857 55.5455C251.857 58.017 250.749 59.7216 248.732 59.7216ZM260.387 54.8636C260.387 51.2841 259.421 48.3011 257.688 45.7727H256.211C257.575 47.6477 258.654 51.483 258.654 54.8636C258.654 58.2443 257.575 62.0795 256.211 63.9545H257.688C259.421 61.4261 260.387 58.4432 260.387 54.8636Z" fill="#FF8A00"/>
<rect x="1" y="1" width="376" height="262" rx="4" stroke="#FAFAFA" stroke-width="2"/>
</svg>
