<svg width="990" height="600" viewBox="0 0 990 600" fill="none" xmlns="http://www.w3.org/2000/svg">
<g clip-path="url(#clip0)">
<path d="M0 5C0 2.23857 2.23858 0 5 0H985C987.761 0 990 2.23858 990 5V595C990 597.761 987.761 600 985 600H4.99998C2.23855 600 0 597.761 0 595V5Z" fill="white"/>
<path d="M36.4091 138.364V150H37.7273V141.159H37.8409L41.4773 150H42.75L46.3864 141.159H46.5V150H47.8182V138.364H46.1364L42.1818 148.023H42.0455L38.0909 138.364H36.4091ZM54.1207 150.182C55.8935 150.182 57.1889 149.295 57.598 147.977L56.3026 147.614C55.9616 148.523 55.1719 148.977 54.1207 148.977C52.5469 148.977 51.4616 147.96 51.3991 146.091H57.7344V145.523C57.7344 142.273 55.8026 141.159 53.9844 141.159C51.6207 141.159 50.0526 143.023 50.0526 145.705C50.0526 148.386 51.598 150.182 54.1207 150.182ZM51.3991 144.932C51.4901 143.574 52.4503 142.364 53.9844 142.364C55.4389 142.364 56.3707 143.455 56.3707 144.932H51.3991ZM63.0696 150.182C64.7514 150.182 65.3196 149.136 65.6151 148.659H65.7741V150H67.0696V138.364H65.7287V142.659H65.6151C65.3196 142.205 64.7969 141.159 63.0923 141.159C60.8878 141.159 59.3651 142.909 59.3651 145.659C59.3651 148.432 60.8878 150.182 63.0696 150.182ZM63.2514 148.977C61.5696 148.977 60.706 147.5 60.706 145.636C60.706 143.795 61.5469 142.364 63.2514 142.364C64.8878 142.364 65.7514 143.682 65.7514 145.636C65.7514 147.614 64.8651 148.977 63.2514 148.977ZM69.7116 150H71.0526V141.273H69.7116V150ZM70.3935 139.818C70.9162 139.818 71.348 139.409 71.348 138.909C71.348 138.409 70.9162 138 70.3935 138C69.8707 138 69.4389 138.409 69.4389 138.909C69.4389 139.409 69.8707 139.818 70.3935 139.818ZM79.0085 146.432C79.0085 148.068 77.7585 148.818 76.7585 148.818C75.6449 148.818 74.8494 148 74.8494 146.727V141.273H73.5085V146.818C73.5085 149.045 74.6903 150.114 76.3267 150.114C77.6449 150.114 78.5085 149.409 78.9176 148.523H79.0085V150H80.3494V141.273H79.0085V146.432ZM82.8054 150H84.1463V144.545C84.1463 143.267 85.0781 142.364 86.1236 142.364C87.1406 142.364 87.8509 143.028 87.8509 144.023V150H89.2145V144.318C89.2145 143.193 89.919 142.364 91.1463 142.364C92.1009 142.364 92.919 142.869 92.919 144.159V150H94.2599V144.159C94.2599 142.108 93.1577 141.159 91.6009 141.159C90.3509 141.159 89.4361 141.733 88.9872 142.636H88.8963C88.4645 141.705 87.7031 141.159 86.5554 141.159C85.419 141.159 84.5781 141.705 84.2145 142.636H84.1009V141.273H82.8054V150ZM104.757 150.182C107.121 150.182 108.712 148.386 108.712 145.682C108.712 142.955 107.121 141.159 104.757 141.159C102.393 141.159 100.803 142.955 100.803 145.682C100.803 148.386 102.393 150.182 104.757 150.182ZM104.757 148.977C102.962 148.977 102.143 147.432 102.143 145.682C102.143 143.932 102.962 142.364 104.757 142.364C106.553 142.364 107.371 143.932 107.371 145.682C107.371 147.432 106.553 148.977 104.757 148.977ZM114.645 141.273H112.69V140.386C112.69 139.523 113.054 139.068 113.94 139.068C114.327 139.068 114.554 139.159 114.69 139.205L115.077 138.045C114.872 137.955 114.463 137.818 113.804 137.818C112.554 137.818 111.349 138.568 111.349 140.068V141.273H109.94V142.409H111.349V150H112.69V142.409H114.645V141.273ZM37.8182 160.364H36.4091V172H37.8182V160.364ZM41.8026 166.75C41.8026 165.227 42.7457 164.364 44.0298 164.364C45.2741 164.364 46.0298 165.176 46.0298 166.545V172H47.3707V166.455C47.3707 164.227 46.1832 163.159 44.4162 163.159C43.098 163.159 42.2798 163.75 41.8707 164.636H41.7571V163.273H40.4616V172H41.8026V166.75ZM56.0028 165.227C55.5824 163.989 54.6392 163.159 52.9119 163.159C51.071 163.159 49.7074 164.205 49.7074 165.682C49.7074 166.886 50.4233 167.693 52.0256 168.068L53.4801 168.409C54.3608 168.614 54.7756 169.034 54.7756 169.636C54.7756 170.386 53.9801 171 52.7301 171C51.6335 171 50.946 170.528 50.7074 169.591L49.4347 169.909C49.7472 171.392 50.9688 172.182 52.7528 172.182C54.7812 172.182 56.1619 171.074 56.1619 169.568C56.1619 168.352 55.4006 167.585 53.8438 167.205L52.5483 166.886C51.5142 166.631 51.0483 166.284 51.0483 165.614C51.0483 164.864 51.8438 164.318 52.9119 164.318C54.0824 164.318 54.5653 164.966 54.7983 165.568L56.0028 165.227ZM61.9759 163.273H60.1122V161.182H58.7713V163.273H57.4531V164.409H58.7713V169.864C58.7713 171.386 59.9986 172.114 61.1349 172.114C61.6349 172.114 61.9531 172.023 62.1349 171.955L61.8622 170.75C61.7486 170.773 61.5668 170.818 61.2713 170.818C60.6804 170.818 60.1122 170.636 60.1122 169.5V164.409H61.9759V163.273ZM63.9929 172H65.3338V166.477C65.3338 165.295 66.2656 164.432 67.5384 164.432C67.8963 164.432 68.2656 164.5 68.3565 164.523V163.159C68.2031 163.148 67.8509 163.136 67.652 163.136C66.6065 163.136 65.6974 163.727 65.3793 164.591H65.2884V163.273H63.9929V172ZM75.446 168.432C75.446 170.068 74.196 170.818 73.196 170.818C72.0824 170.818 71.2869 170 71.2869 168.727V163.273H69.946V168.818C69.946 171.045 71.1278 172.114 72.7642 172.114C74.0824 172.114 74.946 171.409 75.3551 170.523H75.446V172H76.7869V163.273H75.446V168.432ZM82.7884 172.182C84.7202 172.182 85.9929 171 86.2202 169.455H84.8793C84.6293 170.409 83.8338 170.977 82.7884 170.977C81.1974 170.977 80.1747 169.659 80.1747 167.636C80.1747 165.659 81.2202 164.364 82.7884 164.364C83.9702 164.364 84.6747 165.091 84.8793 165.886H86.2202C85.9929 164.25 84.6065 163.159 82.7656 163.159C80.402 163.159 78.8338 165.023 78.8338 167.682C78.8338 170.295 80.3338 172.182 82.7884 172.182ZM91.9759 163.273H90.1122V161.182H88.7713V163.273H87.4531V164.409H88.7713V169.864C88.7713 171.386 89.9986 172.114 91.1349 172.114C91.6349 172.114 91.9531 172.023 92.1349 171.955L91.8622 170.75C91.7486 170.773 91.5668 170.818 91.2713 170.818C90.6804 170.818 90.1122 170.636 90.1122 169.5V164.409H91.9759V163.273ZM93.9929 172H95.3338V163.273H93.9929V172ZM94.6747 161.818C95.1974 161.818 95.6293 161.409 95.6293 160.909C95.6293 160.409 95.1974 160 94.6747 160C94.152 160 93.7202 160.409 93.7202 160.909C93.7202 161.409 94.152 161.818 94.6747 161.818ZM101.335 172.182C103.699 172.182 105.29 170.386 105.29 167.682C105.29 164.955 103.699 163.159 101.335 163.159C98.9716 163.159 97.3807 164.955 97.3807 167.682C97.3807 170.386 98.9716 172.182 101.335 172.182ZM101.335 170.977C99.5398 170.977 98.7216 169.432 98.7216 167.682C98.7216 165.932 99.5398 164.364 101.335 164.364C103.131 164.364 103.949 165.932 103.949 167.682C103.949 169.432 103.131 170.977 101.335 170.977ZM108.678 166.75C108.678 165.227 109.621 164.364 110.905 164.364C112.149 164.364 112.905 165.176 112.905 166.545V172H114.246V166.455C114.246 164.227 113.058 163.159 111.291 163.159C109.973 163.159 109.155 163.75 108.746 164.636H108.632V163.273H107.337V172H108.678V166.75Z" fill="black"/>
<path d="M35.7727 223.614H39.4318V234H40.8409V223.614H44.5V222.364H35.7727V223.614ZM48.7727 234.182C51.1364 234.182 52.7273 232.386 52.7273 229.682C52.7273 226.955 51.1364 225.159 48.7727 225.159C46.4091 225.159 44.8182 226.955 44.8182 229.682C44.8182 232.386 46.4091 234.182 48.7727 234.182ZM48.7727 232.977C46.9773 232.977 46.1591 231.432 46.1591 229.682C46.1591 227.932 46.9773 226.364 48.7727 226.364C50.5682 226.364 51.3864 227.932 51.3864 229.682C51.3864 231.432 50.5682 232.977 48.7727 232.977ZM58.5696 225.273H56.706V223.182H55.3651V225.273H54.0469V226.409H55.3651V231.864C55.3651 233.386 56.5923 234.114 57.7287 234.114C58.2287 234.114 58.5469 234.023 58.7287 233.955L58.456 232.75C58.3423 232.773 58.1605 232.818 57.8651 232.818C57.2741 232.818 56.706 232.636 56.706 231.5V226.409H58.5696V225.273ZM63.1548 234.205C64.6776 234.205 65.473 233.386 65.7457 232.818H65.8139V234H67.1548V228.25C67.1548 225.477 65.0412 225.159 63.9276 225.159C62.6094 225.159 61.1094 225.614 60.4276 227.205L61.7003 227.659C61.9957 227.023 62.6946 226.341 63.973 226.341C65.206 226.341 65.8139 226.994 65.8139 228.114V228.159C65.8139 228.807 65.1548 228.75 63.5639 228.955C61.9446 229.165 60.1776 229.523 60.1776 231.523C60.1776 233.227 61.4957 234.205 63.1548 234.205ZM63.3594 233C62.2912 233 61.5185 232.523 61.5185 231.591C61.5185 230.568 62.4503 230.25 63.4957 230.114C64.0639 230.045 65.5866 229.886 65.8139 229.614V230.841C65.8139 231.932 64.9503 233 63.3594 233ZM70.9432 222.364H69.6023V234H70.9432V222.364ZM79.2401 228.75C79.2401 227.227 80.1832 226.364 81.4673 226.364C82.7116 226.364 83.4673 227.176 83.4673 228.545V234H84.8082V228.455C84.8082 226.227 83.6207 225.159 81.8537 225.159C80.5355 225.159 79.7173 225.75 79.3082 226.636H79.1946V225.273H77.8991V234H79.2401V228.75ZM90.804 234.182C93.1676 234.182 94.7585 232.386 94.7585 229.682C94.7585 226.955 93.1676 225.159 90.804 225.159C88.4403 225.159 86.8494 226.955 86.8494 229.682C86.8494 232.386 88.4403 234.182 90.804 234.182ZM90.804 232.977C89.0085 232.977 88.1903 231.432 88.1903 229.682C88.1903 227.932 89.0085 226.364 90.804 226.364C92.5994 226.364 93.4176 227.932 93.4176 229.682C93.4176 231.432 92.5994 232.977 90.804 232.977ZM97.7827 234.091C98.3452 234.091 98.8054 233.631 98.8054 233.068C98.8054 232.506 98.3452 232.045 97.7827 232.045C97.2202 232.045 96.7599 232.506 96.7599 233.068C96.7599 233.631 97.2202 234.091 97.7827 234.091ZM109.257 234.182C111.621 234.182 113.212 232.386 113.212 229.682C113.212 226.955 111.621 225.159 109.257 225.159C106.893 225.159 105.303 226.955 105.303 229.682C105.303 232.386 106.893 234.182 109.257 234.182ZM109.257 232.977C107.462 232.977 106.643 231.432 106.643 229.682C106.643 227.932 107.462 226.364 109.257 226.364C111.053 226.364 111.871 227.932 111.871 229.682C111.871 231.432 111.053 232.977 109.257 232.977ZM119.145 225.273H117.19V224.386C117.19 223.523 117.554 223.068 118.44 223.068C118.827 223.068 119.054 223.159 119.19 223.205L119.577 222.045C119.372 221.955 118.963 221.818 118.304 221.818C117.054 221.818 115.849 222.568 115.849 224.068V225.273H114.44V226.409H115.849V234H117.19V226.409H119.145V225.273ZM36.4091 256H37.8182V251.455H40.3636C40.4659 251.455 40.5625 251.455 40.6591 251.449L43.1136 256H44.75L42.1193 251.193C43.6023 250.688 44.2955 249.477 44.2955 247.932C44.2955 245.875 43.0682 244.364 40.3409 244.364H36.4091V256ZM37.8182 250.182V245.614H40.2955C42.1818 245.614 42.9091 246.534 42.9091 247.932C42.9091 249.33 42.1818 250.182 40.3182 250.182H37.8182ZM50.027 256.182C51.7997 256.182 53.0952 255.295 53.5043 253.977L52.2088 253.614C51.8679 254.523 51.0781 254.977 50.027 254.977C48.4531 254.977 47.3679 253.96 47.3054 252.091H53.6406V251.523C53.6406 248.273 51.7088 247.159 49.8906 247.159C47.527 247.159 45.9588 249.023 45.9588 251.705C45.9588 254.386 47.5043 256.182 50.027 256.182ZM47.3054 250.932C47.3963 249.574 48.3565 248.364 49.8906 248.364C51.3452 248.364 52.277 249.455 52.277 250.932H47.3054ZM59.2259 256.182C61.1577 256.182 62.4304 255 62.6577 253.455H61.3168C61.0668 254.409 60.2713 254.977 59.2259 254.977C57.6349 254.977 56.6122 253.659 56.6122 251.636C56.6122 249.659 57.6577 248.364 59.2259 248.364C60.4077 248.364 61.1122 249.091 61.3168 249.886H62.6577C62.4304 248.25 61.044 247.159 59.2031 247.159C56.8395 247.159 55.2713 249.023 55.2713 251.682C55.2713 254.295 56.7713 256.182 59.2259 256.182ZM64.6179 256H65.9588V247.273H64.6179V256ZM65.2997 245.818C65.8224 245.818 66.2543 245.409 66.2543 244.909C66.2543 244.409 65.8224 244 65.2997 244C64.777 244 64.3452 244.409 64.3452 244.909C64.3452 245.409 64.777 245.818 65.2997 245.818ZM68.4148 259.273H69.7557V254.659H69.8693C70.1648 255.136 70.733 256.182 72.4148 256.182C74.5966 256.182 76.1193 254.432 76.1193 251.659C76.1193 248.909 74.5966 247.159 72.392 247.159C70.6875 247.159 70.1648 248.205 69.8693 248.659H69.7102V247.273H68.4148V259.273ZM69.733 251.636C69.733 249.682 70.5966 248.364 72.233 248.364C73.9375 248.364 74.7784 249.795 74.7784 251.636C74.7784 253.5 73.9148 254.977 72.233 254.977C70.6193 254.977 69.733 253.614 69.733 251.636ZM81.8239 256.182C83.5966 256.182 84.892 255.295 85.3011 253.977L84.0057 253.614C83.6648 254.523 82.875 254.977 81.8239 254.977C80.25 254.977 79.1648 253.96 79.1023 252.091H85.4375V251.523C85.4375 248.273 83.5057 247.159 81.6875 247.159C79.3239 247.159 77.7557 249.023 77.7557 251.705C77.7557 254.386 79.3011 256.182 81.8239 256.182ZM79.1023 250.932C79.1932 249.574 80.1534 248.364 81.6875 248.364C83.142 248.364 84.0739 249.455 84.0739 250.932H79.1023ZM93.6591 249.227C93.2386 247.989 92.2955 247.159 90.5682 247.159C88.7273 247.159 87.3636 248.205 87.3636 249.682C87.3636 250.886 88.0795 251.693 89.6818 252.068L91.1364 252.409C92.017 252.614 92.4318 253.034 92.4318 253.636C92.4318 254.386 91.6364 255 90.3864 255C89.2898 255 88.6023 254.528 88.3636 253.591L87.0909 253.909C87.4034 255.392 88.625 256.182 90.4091 256.182C92.4375 256.182 93.8182 255.074 93.8182 253.568C93.8182 252.352 93.0568 251.585 91.5 251.205L90.2045 250.886C89.1705 250.631 88.7045 250.284 88.7045 249.614C88.7045 248.864 89.5 248.318 90.5682 248.318C91.7386 248.318 92.2216 248.966 92.4545 249.568L93.6591 249.227Z" fill="black"/>
<path d="M45.7727 310C45.3409 307.614 43.4318 306.205 41.0909 306.205C38.1136 306.205 35.9545 308.5 35.9545 312.182C35.9545 315.864 38.1136 318.159 41.0909 318.159C43.4318 318.159 45.3409 316.75 45.7727 314.364H44.3636C44.0227 315.977 42.6364 316.841 41.0909 316.841C38.9773 316.841 37.3182 315.205 37.3182 312.182C37.3182 309.159 38.9773 307.523 41.0909 307.523C42.6364 307.523 44.0227 308.386 44.3636 310H45.7727ZM50.4361 318.205C51.9588 318.205 52.7543 317.386 53.027 316.818H53.0952V318H54.4361V312.25C54.4361 309.477 52.3224 309.159 51.2088 309.159C49.8906 309.159 48.3906 309.614 47.7088 311.205L48.9815 311.659C49.277 311.023 49.9759 310.341 51.2543 310.341C52.4872 310.341 53.0952 310.994 53.0952 312.114V312.159C53.0952 312.807 52.4361 312.75 50.8452 312.955C49.2259 313.165 47.4588 313.523 47.4588 315.523C47.4588 317.227 48.777 318.205 50.4361 318.205ZM50.6406 317C49.5724 317 48.7997 316.523 48.7997 315.591C48.7997 314.568 49.7315 314.25 50.777 314.114C51.3452 314.045 52.8679 313.886 53.0952 313.614V314.841C53.0952 315.932 52.2315 317 50.6406 317ZM60.679 309.273H58.8153V307.182H57.4744V309.273H56.1562V310.409H57.4744V315.864C57.4744 317.386 58.7017 318.114 59.8381 318.114C60.3381 318.114 60.6562 318.023 60.8381 317.955L60.5653 316.75C60.4517 316.773 60.2699 316.818 59.9744 316.818C59.3835 316.818 58.8153 316.636 58.8153 315.5V310.409H60.679V309.273ZM66.2614 318.182C68.0341 318.182 69.3295 317.295 69.7386 315.977L68.4432 315.614C68.1023 316.523 67.3125 316.977 66.2614 316.977C64.6875 316.977 63.6023 315.96 63.5398 314.091H69.875V313.523C69.875 310.273 67.9432 309.159 66.125 309.159C63.7614 309.159 62.1932 311.023 62.1932 313.705C62.1932 316.386 63.7386 318.182 66.2614 318.182ZM63.5398 312.932C63.6307 311.574 64.5909 310.364 66.125 310.364C67.5795 310.364 68.5114 311.455 68.5114 312.932H63.5398ZM75.4375 321.455C77.5284 321.455 79.2102 320.5 79.2102 318.25V309.273H77.9148V310.659H77.7784C77.483 310.205 76.9375 309.159 75.233 309.159C73.0284 309.159 71.5057 310.909 71.5057 313.591C71.5057 316.318 73.0966 317.864 75.2102 317.864C76.9148 317.864 77.4602 316.864 77.7557 316.386H77.8693V318.159C77.8693 319.614 76.8466 320.273 75.4375 320.273C73.8523 320.273 73.2955 319.438 72.9375 318.955L71.8693 319.705C72.4148 320.619 73.4886 321.455 75.4375 321.455ZM75.392 316.659C73.7102 316.659 72.8466 315.386 72.8466 313.568C72.8466 311.795 73.6875 310.364 75.392 310.364C77.0284 310.364 77.892 311.682 77.892 313.568C77.892 315.5 77.0057 316.659 75.392 316.659ZM85.2102 318.182C87.5739 318.182 89.1648 316.386 89.1648 313.682C89.1648 310.955 87.5739 309.159 85.2102 309.159C82.8466 309.159 81.2557 310.955 81.2557 313.682C81.2557 316.386 82.8466 318.182 85.2102 318.182ZM85.2102 316.977C83.4148 316.977 82.5966 315.432 82.5966 313.682C82.5966 311.932 83.4148 310.364 85.2102 310.364C87.0057 310.364 87.8239 311.932 87.8239 313.682C87.8239 315.432 87.0057 316.977 85.2102 316.977ZM91.2116 318H92.5526V312.477C92.5526 311.295 93.4844 310.432 94.7571 310.432C95.1151 310.432 95.4844 310.5 95.5753 310.523V309.159C95.4219 309.148 95.0696 309.136 94.8707 309.136C93.8253 309.136 92.9162 309.727 92.598 310.591H92.5071V309.273H91.2116V318ZM97.1648 318H98.5057V309.273H97.1648V318ZM97.8466 307.818C98.3693 307.818 98.8011 307.409 98.8011 306.909C98.8011 306.409 98.3693 306 97.8466 306C97.3239 306 96.892 306.409 96.892 306.909C96.892 307.409 97.3239 307.818 97.8466 307.818ZM107.143 311.227C106.723 309.989 105.78 309.159 104.053 309.159C102.212 309.159 100.848 310.205 100.848 311.682C100.848 312.886 101.564 313.693 103.166 314.068L104.621 314.409C105.501 314.614 105.916 315.034 105.916 315.636C105.916 316.386 105.121 317 103.871 317C102.774 317 102.087 316.528 101.848 315.591L100.575 315.909C100.888 317.392 102.109 318.182 103.893 318.182C105.922 318.182 107.303 317.074 107.303 315.568C107.303 314.352 106.541 313.585 104.984 313.205L103.689 312.886C102.655 312.631 102.189 312.284 102.189 311.614C102.189 310.864 102.984 310.318 104.053 310.318C105.223 310.318 105.706 310.966 105.939 311.568L107.143 311.227ZM111.889 318.205C113.412 318.205 114.207 317.386 114.48 316.818H114.548V318H115.889V312.25C115.889 309.477 113.776 309.159 112.662 309.159C111.344 309.159 109.844 309.614 109.162 311.205L110.435 311.659C110.73 311.023 111.429 310.341 112.707 310.341C113.94 310.341 114.548 310.994 114.548 312.114V312.159C114.548 312.807 113.889 312.75 112.298 312.955C110.679 313.165 108.912 313.523 108.912 315.523C108.912 317.227 110.23 318.205 111.889 318.205ZM112.094 317C111.026 317 110.253 316.523 110.253 315.591C110.253 314.568 111.185 314.25 112.23 314.114C112.798 314.045 114.321 313.886 114.548 313.614V314.841C114.548 315.932 113.685 317 112.094 317ZM122.132 309.273H120.268V307.182H118.928V309.273H117.609V310.409H118.928V315.864C118.928 317.386 120.155 318.114 121.291 318.114C121.791 318.114 122.109 318.023 122.291 317.955L122.018 316.75C121.905 316.773 121.723 316.818 121.428 316.818C120.837 316.818 120.268 316.636 120.268 315.5V310.409H122.132V309.273ZM124.149 318H125.49V309.273H124.149V318ZM124.831 307.818C125.354 307.818 125.786 307.409 125.786 306.909C125.786 306.409 125.354 306 124.831 306C124.308 306 123.876 306.409 123.876 306.909C123.876 307.409 124.308 307.818 124.831 307.818ZM131.491 318.182C133.855 318.182 135.446 316.386 135.446 313.682C135.446 310.955 133.855 309.159 131.491 309.159C129.128 309.159 127.537 310.955 127.537 313.682C127.537 316.386 129.128 318.182 131.491 318.182ZM131.491 316.977C129.696 316.977 128.878 315.432 128.878 313.682C128.878 311.932 129.696 310.364 131.491 310.364C133.287 310.364 134.105 311.932 134.105 313.682C134.105 315.432 133.287 316.977 131.491 316.977ZM138.834 312.75C138.834 311.227 139.777 310.364 141.061 310.364C142.305 310.364 143.061 311.176 143.061 312.545V318H144.402V312.455C144.402 310.227 143.214 309.159 141.447 309.159C140.129 309.159 139.311 309.75 138.902 310.636H138.788V309.273H137.493V318H138.834V312.75Z" fill="black"/>
<path d="M42.7727 433.273H44.1364C44.0739 431.517 42.4545 430.205 40.2045 430.205C37.9773 430.205 36.2273 431.5 36.2273 433.455C36.2273 435.023 37.3636 435.955 39.1818 436.477L40.6136 436.886C41.8409 437.227 42.9318 437.659 42.9318 438.818C42.9318 440.091 41.7045 440.932 40.0909 440.932C38.7045 440.932 37.4773 440.318 37.3636 439H35.9091C36.0455 440.909 37.5909 442.205 40.0909 442.205C42.7727 442.205 44.2955 440.727 44.2955 438.841C44.2955 436.659 42.2273 435.955 41.0227 435.636L39.8409 435.318C38.9773 435.091 37.5909 434.636 37.5909 433.386C37.5909 432.273 38.6136 431.455 40.1591 431.455C41.5682 431.455 42.6364 432.125 42.7727 433.273ZM48.9986 442.205C50.5213 442.205 51.3168 441.386 51.5895 440.818H51.6577V442H52.9986V436.25C52.9986 433.477 50.8849 433.159 49.7713 433.159C48.4531 433.159 46.9531 433.614 46.2713 435.205L47.544 435.659C47.8395 435.023 48.5384 434.341 49.8168 434.341C51.0497 434.341 51.6577 434.994 51.6577 436.114V436.159C51.6577 436.807 50.9986 436.75 49.4077 436.955C47.7884 437.165 46.0213 437.523 46.0213 439.523C46.0213 441.227 47.3395 442.205 48.9986 442.205ZM49.2031 441C48.1349 441 47.3622 440.523 47.3622 439.591C47.3622 438.568 48.294 438.25 49.3395 438.114C49.9077 438.045 51.4304 437.886 51.6577 437.614V438.841C51.6577 439.932 50.794 441 49.2031 441ZM62.2699 433.273H60.8153L58.4062 440.227H58.3153L55.9062 433.273H54.4517L57.679 442H59.0426L62.2699 433.273ZM64.0398 442H65.3807V433.273H64.0398V442ZM64.7216 431.818C65.2443 431.818 65.6761 431.409 65.6761 430.909C65.6761 430.409 65.2443 430 64.7216 430C64.1989 430 63.767 430.409 63.767 430.909C63.767 431.409 64.1989 431.818 64.7216 431.818ZM69.1776 436.75C69.1776 435.227 70.1207 434.364 71.4048 434.364C72.6491 434.364 73.4048 435.176 73.4048 436.545V442H74.7457V436.455C74.7457 434.227 73.5582 433.159 71.7912 433.159C70.473 433.159 69.6548 433.75 69.2457 434.636H69.1321V433.273H67.8366V442H69.1776V436.75ZM80.7188 445.455C82.8097 445.455 84.4915 444.5 84.4915 442.25V433.273H83.196V434.659H83.0597C82.7642 434.205 82.2188 433.159 80.5142 433.159C78.3097 433.159 76.7869 434.909 76.7869 437.591C76.7869 440.318 78.3778 441.864 80.4915 441.864C82.196 441.864 82.7415 440.864 83.0369 440.386H83.1506V442.159C83.1506 443.614 82.1278 444.273 80.7188 444.273C79.1335 444.273 78.5767 443.438 78.2188 442.955L77.1506 443.705C77.696 444.619 78.7699 445.455 80.7188 445.455ZM80.6733 440.659C78.9915 440.659 78.1278 439.386 78.1278 437.568C78.1278 435.795 78.9688 434.364 80.6733 434.364C82.3097 434.364 83.1733 435.682 83.1733 437.568C83.1733 439.5 82.2869 440.659 80.6733 440.659ZM91.6278 442H93.0369V437.455H95.5824C95.6847 437.455 95.7812 437.455 95.8778 437.449L98.3324 442H99.9688L97.3381 437.193C98.821 436.688 99.5142 435.477 99.5142 433.932C99.5142 431.875 98.2869 430.364 95.5597 430.364H91.6278V442ZM93.0369 436.182V431.614H95.5142C97.4006 431.614 98.1278 432.534 98.1278 433.932C98.1278 435.33 97.4006 436.182 95.5369 436.182H93.0369ZM105.246 442.182C107.018 442.182 108.314 441.295 108.723 439.977L107.428 439.614C107.087 440.523 106.297 440.977 105.246 440.977C103.672 440.977 102.587 439.96 102.524 438.091H108.859V437.523C108.859 434.273 106.928 433.159 105.109 433.159C102.746 433.159 101.178 435.023 101.178 437.705C101.178 440.386 102.723 442.182 105.246 442.182ZM102.524 436.932C102.615 435.574 103.575 434.364 105.109 434.364C106.564 434.364 107.496 435.455 107.496 436.932H102.524ZM114.445 442.182C116.376 442.182 117.649 441 117.876 439.455H116.536C116.286 440.409 115.49 440.977 114.445 440.977C112.854 440.977 111.831 439.659 111.831 437.636C111.831 435.659 112.876 434.364 114.445 434.364C115.626 434.364 116.331 435.091 116.536 435.886H117.876C117.649 434.25 116.263 433.159 114.422 433.159C112.058 433.159 110.49 435.023 110.49 437.682C110.49 440.295 111.99 442.182 114.445 442.182ZM119.837 442H121.178V433.273H119.837V442ZM120.518 431.818C121.041 431.818 121.473 431.409 121.473 430.909C121.473 430.409 121.041 430 120.518 430C119.996 430 119.564 430.409 119.564 430.909C119.564 431.409 119.996 431.818 120.518 431.818ZM123.634 445.273H124.974V440.659H125.088C125.384 441.136 125.952 442.182 127.634 442.182C129.815 442.182 131.338 440.432 131.338 437.659C131.338 434.909 129.815 433.159 127.611 433.159C125.906 433.159 125.384 434.205 125.088 434.659H124.929V433.273H123.634V445.273ZM124.952 437.636C124.952 435.682 125.815 434.364 127.452 434.364C129.156 434.364 129.997 435.795 129.997 437.636C129.997 439.5 129.134 440.977 127.452 440.977C125.838 440.977 124.952 439.614 124.952 437.636ZM137.043 442.182C138.815 442.182 140.111 441.295 140.52 439.977L139.224 439.614C138.884 440.523 138.094 440.977 137.043 440.977C135.469 440.977 134.384 439.96 134.321 438.091H140.656V437.523C140.656 434.273 138.724 433.159 136.906 433.159C134.543 433.159 132.974 435.023 132.974 437.705C132.974 440.386 134.52 442.182 137.043 442.182ZM134.321 436.932C134.412 435.574 135.372 434.364 136.906 434.364C138.361 434.364 139.293 435.455 139.293 436.932H134.321ZM148.878 435.227C148.457 433.989 147.514 433.159 145.787 433.159C143.946 433.159 142.582 434.205 142.582 435.682C142.582 436.886 143.298 437.693 144.901 438.068L146.355 438.409C147.236 438.614 147.651 439.034 147.651 439.636C147.651 440.386 146.855 441 145.605 441C144.509 441 143.821 440.528 143.582 439.591L142.31 439.909C142.622 441.392 143.844 442.182 145.628 442.182C147.656 442.182 149.037 441.074 149.037 439.568C149.037 438.352 148.276 437.585 146.719 437.205L145.423 436.886C144.389 436.631 143.923 436.284 143.923 435.614C143.923 434.864 144.719 434.318 145.787 434.318C146.957 434.318 147.44 434.966 147.673 435.568L148.878 435.227Z" fill="black"/>
<path d="M37.8182 368.364H36.4091V380H37.8182V368.364ZM41.8026 374.75C41.8026 373.227 42.7457 372.364 44.0298 372.364C45.2741 372.364 46.0298 373.176 46.0298 374.545V380H47.3707V374.455C47.3707 372.227 46.1832 371.159 44.4162 371.159C43.098 371.159 42.2798 371.75 41.8707 372.636H41.7571V371.273H40.4616V380H41.8026V374.75ZM50.0028 380H51.2983V378.659H51.4574C51.7528 379.136 52.321 380.182 54.0028 380.182C56.1847 380.182 57.7074 378.432 57.7074 375.659C57.7074 372.909 56.1847 371.159 53.9801 371.159C52.2756 371.159 51.7528 372.205 51.4574 372.659H51.3438V368.364H50.0028V380ZM51.321 375.636C51.321 373.682 52.1847 372.364 53.821 372.364C55.5256 372.364 56.3665 373.795 56.3665 375.636C56.3665 377.5 55.5028 378.977 53.821 378.977C52.2074 378.977 51.321 377.614 51.321 375.636ZM65.2585 376.432C65.2585 378.068 64.0085 378.818 63.0085 378.818C61.8949 378.818 61.0994 378 61.0994 376.727V371.273H59.7585V376.818C59.7585 379.045 60.9403 380.114 62.5767 380.114C63.8949 380.114 64.7585 379.409 65.1676 378.523H65.2585V380H66.5994V371.273H65.2585V376.432ZM69.0554 380H70.3963V371.273H69.0554V380ZM69.7372 369.818C70.2599 369.818 70.6918 369.409 70.6918 368.909C70.6918 368.409 70.2599 368 69.7372 368C69.2145 368 68.7827 368.409 68.7827 368.909C68.7827 369.409 69.2145 369.818 69.7372 369.818ZM74.1932 368.364H72.8523V380H74.1932V368.364ZM80.4446 371.273H78.581V369.182H77.2401V371.273H75.9219V372.409H77.2401V377.864C77.2401 379.386 78.4673 380.114 79.6037 380.114C80.1037 380.114 80.4219 380.023 80.6037 379.955L80.331 378.75C80.2173 378.773 80.0355 378.818 79.7401 378.818C79.1491 378.818 78.581 378.636 78.581 377.5V372.409H80.4446V371.273ZM86.5071 369.614H90.1662V380H91.5753V369.614H95.2344V368.364H86.5071V369.614ZM97.2273 380H98.5682V371.273H97.2273V380ZM97.9091 369.818C98.4318 369.818 98.8636 369.409 98.8636 368.909C98.8636 368.409 98.4318 368 97.9091 368C97.3864 368 96.9545 368.409 96.9545 368.909C96.9545 369.409 97.3864 369.818 97.9091 369.818ZM101.024 380H102.365V374.545C102.365 373.267 103.297 372.364 104.342 372.364C105.359 372.364 106.07 373.028 106.07 374.023V380H107.433V374.318C107.433 373.193 108.138 372.364 109.365 372.364C110.32 372.364 111.138 372.869 111.138 374.159V380H112.479V374.159C112.479 372.108 111.376 371.159 109.82 371.159C108.57 371.159 107.655 371.733 107.206 372.636H107.115C106.683 371.705 105.922 371.159 104.774 371.159C103.638 371.159 102.797 371.705 102.433 372.636H102.32V371.273H101.024V380ZM118.589 380.182C120.362 380.182 121.658 379.295 122.067 377.977L120.771 377.614C120.43 378.523 119.641 378.977 118.589 378.977C117.016 378.977 115.93 377.96 115.868 376.091H122.203V375.523C122.203 372.273 120.271 371.159 118.453 371.159C116.089 371.159 114.521 373.023 114.521 375.705C114.521 378.386 116.067 380.182 118.589 380.182ZM115.868 374.932C115.959 373.574 116.919 372.364 118.453 372.364C119.908 372.364 120.839 373.455 120.839 374.932H115.868ZM124.243 380H125.584V374.477C125.584 373.295 126.516 372.432 127.788 372.432C128.146 372.432 128.516 372.5 128.607 372.523V371.159C128.453 371.148 128.101 371.136 127.902 371.136C126.857 371.136 125.947 371.727 125.629 372.591H125.538V371.273H124.243V380Z" fill="black"/>
<path d="M36.4091 504H37.8182V498.795H44.0227V504H45.4318V492.364H44.0227V497.545H37.8182V492.364H36.4091V504ZM50.6392 504.205C52.1619 504.205 52.9574 503.386 53.2301 502.818H53.2983V504H54.6392V498.25C54.6392 495.477 52.5256 495.159 51.4119 495.159C50.0938 495.159 48.5938 495.614 47.9119 497.205L49.1847 497.659C49.4801 497.023 50.179 496.341 51.4574 496.341C52.6903 496.341 53.2983 496.994 53.2983 498.114V498.159C53.2983 498.807 52.6392 498.75 51.0483 498.955C49.429 499.165 47.6619 499.523 47.6619 501.523C47.6619 503.227 48.9801 504.205 50.6392 504.205ZM50.8438 503C49.7756 503 49.0028 502.523 49.0028 501.591C49.0028 500.568 49.9347 500.25 50.9801 500.114C51.5483 500.045 53.071 499.886 53.2983 499.614V500.841C53.2983 501.932 52.4347 503 50.8438 503ZM58.4276 498.75C58.4276 497.227 59.3707 496.364 60.6548 496.364C61.8991 496.364 62.6548 497.176 62.6548 498.545V504H63.9957V498.455C63.9957 496.227 62.8082 495.159 61.0412 495.159C59.723 495.159 58.9048 495.75 58.4957 496.636H58.3821V495.273H57.0866V504H58.4276V498.75ZM69.7415 504.182C71.4233 504.182 71.9915 503.136 72.2869 502.659H72.446V504H73.7415V492.364H72.4006V496.659H72.2869C71.9915 496.205 71.4688 495.159 69.7642 495.159C67.5597 495.159 66.0369 496.909 66.0369 499.659C66.0369 502.432 67.5597 504.182 69.7415 504.182ZM69.9233 502.977C68.2415 502.977 67.3778 501.5 67.3778 499.636C67.3778 497.795 68.2188 496.364 69.9233 496.364C71.5597 496.364 72.4233 497.682 72.4233 499.636C72.4233 501.614 71.5369 502.977 69.9233 502.977ZM82.5653 497.227C82.1449 495.989 81.2017 495.159 79.4744 495.159C77.6335 495.159 76.2699 496.205 76.2699 497.682C76.2699 498.886 76.9858 499.693 78.5881 500.068L80.0426 500.409C80.9233 500.614 81.3381 501.034 81.3381 501.636C81.3381 502.386 80.5426 503 79.2926 503C78.196 503 77.5085 502.528 77.2699 501.591L75.9972 501.909C76.3097 503.392 77.5312 504.182 79.3153 504.182C81.3438 504.182 82.7244 503.074 82.7244 501.568C82.7244 500.352 81.9631 499.585 80.4062 499.205L79.1108 498.886C78.0767 498.631 77.6108 498.284 77.6108 497.614C77.6108 496.864 78.4062 496.318 79.4744 496.318C80.6449 496.318 81.1278 496.966 81.3608 497.568L82.5653 497.227ZM89.4247 504H90.8338V498.795H95.8793V497.545H90.8338V493.614H96.402V492.364H89.4247V504ZM98.5398 504H99.8807V498.477C99.8807 497.295 100.812 496.432 102.085 496.432C102.443 496.432 102.812 496.5 102.903 496.523V495.159C102.75 495.148 102.398 495.136 102.199 495.136C101.153 495.136 100.244 495.727 99.9261 496.591H99.8352V495.273H98.5398V504ZM107.886 504.182C109.659 504.182 110.955 503.295 111.364 501.977L110.068 501.614C109.727 502.523 108.938 502.977 107.886 502.977C106.312 502.977 105.227 501.96 105.165 500.091H111.5V499.523C111.5 496.273 109.568 495.159 107.75 495.159C105.386 495.159 103.818 497.023 103.818 499.705C103.818 502.386 105.364 504.182 107.886 504.182ZM105.165 498.932C105.256 497.574 106.216 496.364 107.75 496.364C109.205 496.364 110.136 497.455 110.136 498.932H105.165ZM117.199 504.182C118.972 504.182 120.267 503.295 120.676 501.977L119.381 501.614C119.04 502.523 118.25 502.977 117.199 502.977C115.625 502.977 114.54 501.96 114.477 500.091H120.812V499.523C120.812 496.273 118.881 495.159 117.062 495.159C114.699 495.159 113.131 497.023 113.131 499.705C113.131 502.386 114.676 504.182 117.199 504.182ZM114.477 498.932C114.568 497.574 115.528 496.364 117.062 496.364C118.517 496.364 119.449 497.455 119.449 498.932H114.477ZM46.2273 520.182C46.2273 516.5 44.0682 514.205 41.0909 514.205C38.1136 514.205 35.9545 516.5 35.9545 520.182C35.9545 523.864 38.1136 526.159 41.0909 526.159C44.0682 526.159 46.2273 523.864 46.2273 520.182ZM44.8636 520.182C44.8636 523.205 43.2045 524.841 41.0909 524.841C38.9773 524.841 37.3182 523.205 37.3182 520.182C37.3182 517.159 38.9773 515.523 41.0909 515.523C43.2045 515.523 44.8636 517.159 44.8636 520.182ZM48.4148 529.273H49.7557V524.659H49.8693C50.1648 525.136 50.733 526.182 52.4148 526.182C54.5966 526.182 56.1193 524.432 56.1193 521.659C56.1193 518.909 54.5966 517.159 52.392 517.159C50.6875 517.159 50.1648 518.205 49.8693 518.659H49.7102V517.273H48.4148V529.273ZM49.733 521.636C49.733 519.682 50.5966 518.364 52.233 518.364C53.9375 518.364 54.7784 519.795 54.7784 521.636C54.7784 523.5 53.9148 524.977 52.233 524.977C50.6193 524.977 49.733 523.614 49.733 521.636ZM61.8239 526.182C63.5966 526.182 64.892 525.295 65.3011 523.977L64.0057 523.614C63.6648 524.523 62.875 524.977 61.8239 524.977C60.25 524.977 59.1648 523.96 59.1023 522.091H65.4375V521.523C65.4375 518.273 63.5057 517.159 61.6875 517.159C59.3239 517.159 57.7557 519.023 57.7557 521.705C57.7557 524.386 59.3011 526.182 61.8239 526.182ZM59.1023 520.932C59.1932 519.574 60.1534 518.364 61.6875 518.364C63.142 518.364 64.0739 519.455 64.0739 520.932H59.1023ZM67.4773 526H68.8182V520.477C68.8182 519.295 69.75 518.432 71.0227 518.432C71.3807 518.432 71.75 518.5 71.8409 518.523V517.159C71.6875 517.148 71.3352 517.136 71.1364 517.136C70.0909 517.136 69.1818 517.727 68.8636 518.591H68.7727V517.273H67.4773V526ZM75.9986 526.205C77.5213 526.205 78.3168 525.386 78.5895 524.818H78.6577V526H79.9986V520.25C79.9986 517.477 77.8849 517.159 76.7713 517.159C75.4531 517.159 73.9531 517.614 73.2713 519.205L74.544 519.659C74.8395 519.023 75.5384 518.341 76.8168 518.341C78.0497 518.341 78.6577 518.994 78.6577 520.114V520.159C78.6577 520.807 77.9986 520.75 76.4077 520.955C74.7884 521.165 73.0213 521.523 73.0213 523.523C73.0213 525.227 74.3395 526.205 75.9986 526.205ZM76.2031 525C75.1349 525 74.3622 524.523 74.3622 523.591C74.3622 522.568 75.294 522.25 76.3395 522.114C76.9077 522.045 78.4304 521.886 78.6577 521.614V522.841C78.6577 523.932 77.794 525 76.2031 525ZM86.2415 517.273H84.3778V515.182H83.0369V517.273H81.7188V518.409H83.0369V523.864C83.0369 525.386 84.2642 526.114 85.4006 526.114C85.9006 526.114 86.2188 526.023 86.4006 525.955L86.1278 524.75C86.0142 524.773 85.8324 524.818 85.5369 524.818C84.946 524.818 84.3778 524.636 84.3778 523.5V518.409H86.2415V517.273ZM88.2585 526H89.5994V517.273H88.2585V526ZM88.9403 515.818C89.4631 515.818 89.8949 515.409 89.8949 514.909C89.8949 514.409 89.4631 514 88.9403 514C88.4176 514 87.9858 514.409 87.9858 514.909C87.9858 515.409 88.4176 515.818 88.9403 515.818ZM95.6009 526.182C97.9645 526.182 99.5554 524.386 99.5554 521.682C99.5554 518.955 97.9645 517.159 95.6009 517.159C93.2372 517.159 91.6463 518.955 91.6463 521.682C91.6463 524.386 93.2372 526.182 95.6009 526.182ZM95.6009 524.977C93.8054 524.977 92.9872 523.432 92.9872 521.682C92.9872 519.932 93.8054 518.364 95.6009 518.364C97.3963 518.364 98.2145 519.932 98.2145 521.682C98.2145 523.432 97.3963 524.977 95.6009 524.977ZM102.943 520.75C102.943 519.227 103.886 518.364 105.17 518.364C106.415 518.364 107.17 519.176 107.17 520.545V526H108.511V520.455C108.511 518.227 107.324 517.159 105.557 517.159C104.239 517.159 103.42 517.75 103.011 518.636H102.898V517.273H101.602V526H102.943V520.75Z" fill="black"/>
<path d="M710.033 59L710.993 56.1307H715.368L716.334 59H718.584L714.482 47.3636H711.879L707.783 59H710.033ZM711.561 54.4375L713.135 49.75H713.226L714.8 54.4375H711.561ZM722.082 47.3636H720.026V59H722.082V47.3636ZM728.061 59.1705C730.095 59.1705 731.493 58.1761 731.857 56.6591L729.936 56.4432C729.658 57.1818 728.976 57.5682 728.089 57.5682C726.76 57.5682 725.879 56.6932 725.862 55.1989H731.942V54.5682C731.942 51.5057 730.101 50.1591 727.953 50.1591C725.453 50.1591 723.822 51.9943 723.822 54.6875C723.822 57.4261 725.43 59.1705 728.061 59.1705ZM725.868 53.8125C725.93 52.6989 726.754 51.7614 727.982 51.7614C729.163 51.7614 729.959 52.625 729.97 53.8125H725.868ZM735.192 50.2727H733.01L735.601 54.6364L732.942 59H735.124L736.953 55.858L738.8 59H740.964L738.288 54.6364L740.919 50.2727H738.743L736.953 53.4943L735.192 50.2727ZM744.99 59.1761C746.359 59.1761 747.178 58.5341 747.553 57.8011H747.621V59H749.598V53.1591C749.598 50.8523 747.717 50.1591 746.053 50.1591C744.217 50.1591 742.808 50.9773 742.354 52.5682L744.274 52.8409C744.479 52.2443 745.058 51.733 746.064 51.733C747.018 51.733 747.541 52.2216 747.541 53.0795V53.1136C747.541 53.7045 746.922 53.733 745.382 53.8977C743.689 54.0795 742.07 54.5852 742.07 56.5511C742.07 58.267 743.325 59.1761 744.99 59.1761ZM745.524 57.6648C744.666 57.6648 744.053 57.2727 744.053 56.517C744.053 55.7273 744.74 55.3977 745.661 55.267C746.2 55.1932 747.28 55.0568 747.547 54.8409V55.8693C747.547 56.8409 746.763 57.6648 745.524 57.6648Z" fill="black"/>
<path d="M711.667 160L712.691 157.116H716.808L717.832 160H719.125L715.386 149.818H714.113L710.375 160H711.667ZM713.079 156.023L714.71 151.429H714.789L716.42 156.023H713.079ZM725.364 156.878C725.364 158.31 724.27 158.966 723.395 158.966C722.421 158.966 721.725 158.25 721.725 157.136V152.364H720.551V157.216C720.551 159.165 721.585 160.099 723.017 160.099C724.171 160.099 724.926 159.483 725.284 158.707H725.364V160H726.537V152.364H725.364V156.878ZM731.57 160.159C733.041 160.159 733.538 159.244 733.797 158.827H733.936V160H735.07V149.818H733.896V153.577H733.797C733.538 153.179 733.081 152.264 731.59 152.264C729.661 152.264 728.328 153.795 728.328 156.202C728.328 158.628 729.661 160.159 731.57 160.159ZM731.729 159.105C730.257 159.105 729.502 157.812 729.502 156.182C729.502 154.571 730.237 153.318 731.729 153.318C733.161 153.318 733.916 154.472 733.916 156.182C733.916 157.912 733.141 159.105 731.729 159.105ZM737.381 160H738.555V152.364H737.381V160ZM737.978 151.091C738.435 151.091 738.813 150.733 738.813 150.295C738.813 149.858 738.435 149.5 737.978 149.5C737.521 149.5 737.143 149.858 737.143 150.295C737.143 150.733 737.521 151.091 737.978 151.091ZM743.806 160.159C745.874 160.159 747.266 158.588 747.266 156.222C747.266 153.835 745.874 152.264 743.806 152.264C741.738 152.264 740.346 153.835 740.346 156.222C740.346 158.588 741.738 160.159 743.806 160.159ZM743.806 159.105C742.235 159.105 741.519 157.753 741.519 156.222C741.519 154.69 742.235 153.318 743.806 153.318C745.377 153.318 746.093 154.69 746.093 156.222C746.093 157.753 745.377 159.105 743.806 159.105Z" fill="black"/>
<path d="M717.987 236.364H719.18C719.125 234.827 717.708 233.679 715.74 233.679C713.791 233.679 712.259 234.812 712.259 236.523C712.259 237.895 713.254 238.71 714.845 239.168L716.097 239.526C717.171 239.824 718.126 240.202 718.126 241.216C718.126 242.33 717.052 243.065 715.64 243.065C714.427 243.065 713.353 242.528 713.254 241.375H711.981C712.1 243.045 713.453 244.179 715.64 244.179C717.987 244.179 719.319 242.886 719.319 241.236C719.319 239.327 717.509 238.71 716.455 238.432L715.421 238.153C714.666 237.955 713.453 237.557 713.453 236.463C713.453 235.489 714.347 234.773 715.7 234.773C716.933 234.773 717.867 235.359 717.987 236.364ZM721.187 244H722.36V239.227C722.36 238.109 723.176 237.318 724.091 237.318C724.98 237.318 725.602 237.9 725.602 238.77V244H726.795V239.028C726.795 238.044 727.412 237.318 728.485 237.318C729.321 237.318 730.037 237.761 730.037 238.889V244H731.21V238.889C731.21 237.094 730.245 236.264 728.883 236.264C727.789 236.264 726.989 236.766 726.596 237.557H726.517C726.139 236.741 725.473 236.264 724.468 236.264C723.474 236.264 722.738 236.741 722.42 237.557H722.321V236.364H721.187V244ZM735.602 244.179C736.935 244.179 737.631 243.463 737.869 242.966H737.929V244H739.102V238.969C739.102 236.543 737.253 236.264 736.278 236.264C735.125 236.264 733.812 236.662 733.216 238.054L734.33 238.452C734.588 237.895 735.2 237.298 736.318 237.298C737.397 237.298 737.929 237.87 737.929 238.849V238.889C737.929 239.456 737.352 239.406 735.96 239.585C734.543 239.769 732.997 240.082 732.997 241.832C732.997 243.324 734.151 244.179 735.602 244.179ZM735.781 243.125C734.847 243.125 734.17 242.707 734.17 241.892C734.17 240.997 734.986 240.719 735.901 240.599C736.398 240.54 737.73 240.401 737.929 240.162V241.236C737.929 242.19 737.173 243.125 735.781 243.125ZM742.417 233.818H741.244V244H742.417V233.818ZM745.739 233.818H744.566V244H745.739V233.818Z" fill="black"/>
<path d="M735.875 307.625L727.125 316.375L722.75 312" stroke="#17B432" stroke-width="2" stroke-linecap="round" stroke-linejoin="round"/>
<path d="M734.625 430.375L723.375 441.625" stroke="#F52A2A" stroke-width="2" stroke-linecap="round" stroke-linejoin="round"/>
<path d="M734.625 441.625L723.375 430.375" stroke="#F52A2A" stroke-width="2" stroke-linecap="round" stroke-linejoin="round"/>
<path d="M735.875 369.625L727.125 378.375L722.75 374" stroke="#17B432" stroke-width="2" stroke-linecap="round" stroke-linejoin="round"/>
<path d="M735.875 504.625L727.125 513.375L722.75 509" stroke="#17B432" stroke-width="2" stroke-linecap="round" stroke-linejoin="round"/>
<path d="M240.808 49.1307H244.405V59H246.496V49.1307H250.092V47.3636H240.808V49.1307ZM253.115 59.1761C254.484 59.1761 255.303 58.5341 255.678 57.8011H255.746V59H257.723V53.1591C257.723 50.8523 255.842 50.1591 254.178 50.1591C252.342 50.1591 250.933 50.9773 250.479 52.5682L252.399 52.8409C252.604 52.2443 253.183 51.733 254.189 51.733C255.143 51.733 255.666 52.2216 255.666 53.0795V53.1136C255.666 53.7045 255.047 53.733 253.507 53.8977C251.814 54.0795 250.195 54.5852 250.195 56.5511C250.195 58.267 251.45 59.1761 253.115 59.1761ZM253.649 57.6648C252.791 57.6648 252.178 57.2727 252.178 56.517C252.178 55.7273 252.865 55.3977 253.786 55.267C254.325 55.1932 255.405 55.0568 255.672 54.8409V55.8693C255.672 56.8409 254.888 57.6648 253.649 57.6648ZM266.689 52.5795C266.405 51.1023 265.223 50.1591 263.178 50.1591C261.075 50.1591 259.643 51.1932 259.649 52.8068C259.643 54.0795 260.428 54.9205 262.104 55.267L263.592 55.5795C264.393 55.7557 264.768 56.0795 264.768 56.5739C264.768 57.1705 264.121 57.6193 263.143 57.6193C262.2 57.6193 261.587 57.2102 261.411 56.4261L259.405 56.6193C259.661 58.2216 261.007 59.1705 263.149 59.1705C265.331 59.1705 266.871 58.0398 266.876 56.3864C266.871 55.142 266.07 54.3807 264.422 54.0227L262.933 53.7045C262.047 53.5057 261.695 53.1989 261.7 52.6932C261.695 52.1023 262.348 51.6932 263.206 51.6932C264.155 51.6932 264.655 52.2102 264.814 52.7841L266.689 52.5795ZM272.93 50.2727H271.209V48.1818H269.152V50.2727H267.913V51.8636H269.152V56.7159C269.141 58.358 270.334 59.1648 271.879 59.1193C272.464 59.1023 272.868 58.9886 273.089 58.9148L272.743 57.3068C272.629 57.3352 272.396 57.3864 272.141 57.3864C271.624 57.3864 271.209 57.2045 271.209 56.375V51.8636H272.93V50.2727ZM275.929 62.2727C277.531 62.2727 278.457 61.4489 278.952 60.0568L282.457 50.2841L280.259 50.2727L278.241 56.8636H278.151L276.139 50.2727H273.957L277.122 59.1818L276.946 59.6534C276.565 60.6477 275.963 60.7159 275.065 60.4545L274.588 62.0568C274.866 62.1705 275.366 62.2727 275.929 62.2727Z" fill="black"/>
<path d="M214.13 149.818H212.837L216.576 160H217.849L221.587 149.818H220.295L217.272 158.389H217.153L214.13 149.818ZM223.014 160H224.188V152.364H223.014V160ZM223.611 151.091C224.068 151.091 224.446 150.733 224.446 150.295C224.446 149.858 224.068 149.5 223.611 149.5C223.153 149.5 222.776 149.858 222.776 150.295C222.776 150.733 223.153 151.091 223.611 151.091ZM229.22 160.159C230.692 160.159 231.189 159.244 231.447 158.827H231.587V160H232.72V149.818H231.547V153.577H231.447C231.189 153.179 230.731 152.264 229.24 152.264C227.311 152.264 225.979 153.795 225.979 156.202C225.979 158.628 227.311 160.159 229.22 160.159ZM229.379 159.105C227.908 159.105 227.152 157.812 227.152 156.182C227.152 154.571 227.888 153.318 229.379 153.318C230.811 153.318 231.567 154.472 231.567 156.182C231.567 157.912 230.791 159.105 229.379 159.105ZM238.234 160.159C239.785 160.159 240.918 159.384 241.276 158.23L240.143 157.912C239.844 158.707 239.153 159.105 238.234 159.105C236.856 159.105 235.907 158.215 235.852 156.58H241.396V156.082C241.396 153.239 239.705 152.264 238.114 152.264C236.046 152.264 234.674 153.895 234.674 156.241C234.674 158.588 236.026 160.159 238.234 160.159ZM235.852 155.565C235.932 154.377 236.772 153.318 238.114 153.318C239.387 153.318 240.202 154.273 240.202 155.565H235.852ZM246.283 160.159C248.351 160.159 249.743 158.588 249.743 156.222C249.743 153.835 248.351 152.264 246.283 152.264C244.214 152.264 242.822 153.835 242.822 156.222C242.822 158.588 244.214 160.159 246.283 160.159ZM246.283 159.105C244.712 159.105 243.996 157.753 243.996 156.222C243.996 154.69 244.712 153.318 246.283 153.318C247.854 153.318 248.57 154.69 248.57 156.222C248.57 157.753 247.854 159.105 246.283 159.105ZM256.943 154.074C256.575 152.99 255.75 152.264 254.238 152.264C252.628 152.264 251.434 153.179 251.434 154.472C251.434 155.526 252.061 156.232 253.463 156.56L254.736 156.858C255.506 157.037 255.869 157.405 255.869 157.932C255.869 158.588 255.173 159.125 254.079 159.125C253.12 159.125 252.518 158.712 252.309 157.892L251.196 158.17C251.469 159.468 252.538 160.159 254.099 160.159C255.874 160.159 257.082 159.19 257.082 157.872C257.082 156.808 256.416 156.137 255.054 155.804L253.92 155.526C253.015 155.302 252.608 154.999 252.608 154.412C252.608 153.756 253.304 153.278 254.238 153.278C255.263 153.278 255.685 153.845 255.889 154.372L256.943 154.074ZM262.448 149.341H261.374L258.093 161.531H259.166L262.448 149.341ZM265.231 149.818H263.998V160H265.231V149.818ZM267.544 160H268.717V155.227C268.717 154.109 269.532 153.318 270.447 153.318C271.337 153.318 271.958 153.9 271.958 154.77V160H273.152V155.028C273.152 154.044 273.768 153.318 274.842 153.318C275.677 153.318 276.393 153.761 276.393 154.889V160H277.566V154.889C277.566 153.094 276.602 152.264 275.24 152.264C274.146 152.264 273.345 152.766 272.953 153.557H272.873C272.495 152.741 271.829 152.264 270.825 152.264C269.831 152.264 269.095 152.741 268.777 153.557H268.677V152.364H267.544V160ZM281.959 160.179C283.291 160.179 283.987 159.463 284.226 158.966H284.285V160H285.459V154.969C285.459 152.543 283.609 152.264 282.635 152.264C281.481 152.264 280.169 152.662 279.572 154.054L280.686 154.452C280.945 153.895 281.556 153.298 282.675 153.298C283.753 153.298 284.285 153.87 284.285 154.849V154.889C284.285 155.456 283.709 155.406 282.317 155.585C280.9 155.769 279.354 156.082 279.354 157.832C279.354 159.324 280.507 160.179 281.959 160.179ZM282.138 159.125C281.203 159.125 280.527 158.707 280.527 157.892C280.527 156.997 281.342 156.719 282.257 156.599C282.754 156.54 284.087 156.401 284.285 156.162V157.236C284.285 158.19 283.53 159.125 282.138 159.125ZM290.683 163.023C292.512 163.023 293.984 162.188 293.984 160.219V152.364H292.85V153.577H292.731C292.472 153.179 291.995 152.264 290.504 152.264C288.575 152.264 287.242 153.795 287.242 156.142C287.242 158.528 288.634 159.881 290.484 159.881C291.975 159.881 292.453 159.006 292.711 158.588H292.81V160.139C292.81 161.412 291.916 161.989 290.683 161.989C289.296 161.989 288.808 161.258 288.495 160.835L287.56 161.491C288.038 162.292 288.977 163.023 290.683 163.023ZM290.643 158.827C289.171 158.827 288.416 157.713 288.416 156.122C288.416 154.571 289.151 153.318 290.643 153.318C292.075 153.318 292.83 154.472 292.83 156.122C292.83 157.812 292.055 158.827 290.643 158.827ZM299.333 160.159C300.884 160.159 302.018 159.384 302.376 158.23L301.242 157.912C300.944 158.707 300.253 159.105 299.333 159.105C297.956 159.105 297.006 158.215 296.952 156.58H302.495V156.082C302.495 153.239 300.805 152.264 299.214 152.264C297.146 152.264 295.774 153.895 295.774 156.241C295.774 158.588 297.126 160.159 299.333 160.159ZM296.952 155.565C297.031 154.377 297.872 153.318 299.214 153.318C300.487 153.318 301.302 154.273 301.302 155.565H296.952ZM309.689 154.074C309.321 152.99 308.496 152.264 306.984 152.264C305.374 152.264 304.18 153.179 304.18 154.472C304.18 155.526 304.807 156.232 306.209 156.56L307.482 156.858C308.252 157.037 308.615 157.405 308.615 157.932C308.615 158.588 307.919 159.125 306.825 159.125C305.866 159.125 305.264 158.712 305.055 157.892L303.942 158.17C304.215 159.468 305.284 160.159 306.845 160.159C308.62 160.159 309.828 159.19 309.828 157.872C309.828 156.808 309.162 156.137 307.8 155.804L306.666 155.526C305.761 155.302 305.354 154.999 305.354 154.412C305.354 153.756 306.05 153.278 306.984 153.278C308.009 153.278 308.431 153.845 308.635 154.372L309.689 154.074Z" fill="black"/>
<path d="M243.523 244H249.489V242.906H244.756V233.818H243.523V244ZM253.486 244.179C254.818 244.179 255.514 243.463 255.753 242.966H255.813V244H256.986V238.969C256.986 236.543 255.137 236.264 254.162 236.264C253.009 236.264 251.696 236.662 251.1 238.054L252.213 238.452C252.472 237.895 253.083 237.298 254.202 237.298C255.281 237.298 255.813 237.87 255.813 238.849V238.889C255.813 239.456 255.236 239.406 253.844 239.585C252.427 239.769 250.881 240.082 250.881 241.832C250.881 243.324 252.034 244.179 253.486 244.179ZM253.665 243.125C252.73 243.125 252.054 242.707 252.054 241.892C252.054 240.997 252.87 240.719 253.784 240.599C254.282 240.54 255.614 240.401 255.813 240.162V241.236C255.813 242.19 255.057 243.125 253.665 243.125ZM259.128 244H260.301V239.168C260.301 238.134 261.116 237.378 262.23 237.378C262.543 237.378 262.866 237.438 262.946 237.457V236.264C262.812 236.254 262.503 236.244 262.329 236.244C261.415 236.244 260.619 236.761 260.341 237.517H260.261V236.364H259.128V244ZM267.187 247.023C269.016 247.023 270.488 246.188 270.488 244.219V236.364H269.354V237.577H269.235C268.976 237.179 268.499 236.264 267.008 236.264C265.079 236.264 263.746 237.795 263.746 240.142C263.746 242.528 265.138 243.881 266.988 243.881C268.479 243.881 268.956 243.006 269.215 242.588H269.314V244.139C269.314 245.412 268.419 245.989 267.187 245.989C265.799 245.989 265.312 245.258 264.999 244.835L264.064 245.491C264.542 246.292 265.481 247.023 267.187 247.023ZM267.147 242.827C265.675 242.827 264.919 241.713 264.919 240.122C264.919 238.571 265.655 237.318 267.147 237.318C268.579 237.318 269.334 238.472 269.334 240.122C269.334 241.812 268.559 242.827 267.147 242.827ZM275.837 244.159C277.388 244.159 278.522 243.384 278.88 242.23L277.746 241.912C277.448 242.707 276.757 243.105 275.837 243.105C274.46 243.105 273.51 242.215 273.456 240.58H278.999V240.082C278.999 237.239 277.309 236.264 275.718 236.264C273.65 236.264 272.277 237.895 272.277 240.241C272.277 242.588 273.63 244.159 275.837 244.159ZM273.456 239.565C273.535 238.377 274.375 237.318 275.718 237.318C276.991 237.318 277.806 238.273 277.806 239.565H273.456Z" fill="black"/>
<path d="M267.875 307.625L259.125 316.375L254.75 312" stroke="#17B432" stroke-width="2" stroke-linecap="round" stroke-linejoin="round"/>
<path d="M267.875 431.625L259.125 440.375L254.75 436" stroke="#17B432" stroke-width="2" stroke-linecap="round" stroke-linejoin="round"/>
<path d="M266.625 368.375L255.375 379.625" stroke="#F52A2A" stroke-width="2" stroke-linecap="round" stroke-linejoin="round"/>
<path d="M266.625 379.625L255.375 368.375" stroke="#F52A2A" stroke-width="2" stroke-linecap="round" stroke-linejoin="round"/>
<path d="M266.625 503.375L255.375 514.625" stroke="#F52A2A" stroke-width="2" stroke-linecap="round" stroke-linejoin="round"/>
<path d="M266.625 514.625L255.375 503.375" stroke="#F52A2A" stroke-width="2" stroke-linecap="round" stroke-linejoin="round"/>
<path d="M35.233 83H36.4659V79.2812H38.6932C41.0646 79.2812 42.1335 77.8395 42.1335 76.0398C42.1335 74.2401 41.0646 72.8182 38.6733 72.8182H35.233V83ZM36.4659 78.1875V73.9119H38.6335C40.2891 73.9119 40.9205 74.8168 40.9205 76.0398C40.9205 77.2628 40.2891 78.1875 38.6534 78.1875H36.4659ZM46.2077 83.179C47.5401 83.179 48.2362 82.4631 48.4748 81.9659H48.5344V83H49.7077V77.9688C49.7077 75.5426 47.8583 75.2642 46.8839 75.2642C45.7305 75.2642 44.418 75.6619 43.8214 77.054L44.935 77.4517C45.1935 76.8949 45.805 76.2983 46.9237 76.2983C48.0025 76.2983 48.5344 76.87 48.5344 77.8494V77.8892C48.5344 78.456 47.9577 78.4062 46.5657 78.5852C45.1488 78.7692 43.6026 79.0824 43.6026 80.8324C43.6026 82.3239 44.756 83.179 46.2077 83.179ZM46.3867 82.125C45.4521 82.125 44.7759 81.7074 44.7759 80.892C44.7759 79.9972 45.5913 79.7188 46.506 79.5994C47.0032 79.5398 48.3356 79.4006 48.5344 79.1619V80.2358C48.5344 81.1903 47.7788 82.125 46.3867 82.125ZM51.8493 83H53.0225V78.1676C53.0225 77.1335 53.8379 76.3778 54.9515 76.3778C55.2647 76.3778 55.5879 76.4375 55.6674 76.4574V75.2642C55.5332 75.2543 55.225 75.2443 55.051 75.2443C54.1362 75.2443 53.3407 75.7614 53.0623 76.517H52.9828V75.3636H51.8493V83ZM59.3054 83.179C60.6378 83.179 61.3338 82.4631 61.5724 81.9659H61.6321V83H62.8054V77.9688C62.8054 75.5426 60.956 75.2642 59.9815 75.2642C58.8281 75.2642 57.5156 75.6619 56.919 77.054L58.0327 77.4517C58.2912 76.8949 58.9027 76.2983 60.0213 76.2983C61.1001 76.2983 61.6321 76.87 61.6321 77.8494V77.8892C61.6321 78.456 61.0554 78.4062 59.6634 78.5852C58.2464 78.7692 56.7003 79.0824 56.7003 80.8324C56.7003 82.3239 57.8537 83.179 59.3054 83.179ZM59.4844 82.125C58.5497 82.125 57.8736 81.7074 57.8736 80.892C57.8736 79.9972 58.6889 79.7188 59.6037 79.5994C60.1009 79.5398 61.4332 79.4006 61.6321 79.1619V80.2358C61.6321 81.1903 60.8764 82.125 59.4844 82.125ZM64.9469 83H66.1202V78.2273C66.1202 77.1087 66.9355 76.3182 67.8503 76.3182C68.7402 76.3182 69.3617 76.8999 69.3617 77.7699V83H70.5549V78.0284C70.5549 77.044 71.1713 76.3182 72.2452 76.3182C73.0804 76.3182 73.7963 76.7607 73.7963 77.8892V83H74.9696V77.8892C74.9696 76.0945 74.0051 75.2642 72.6429 75.2642C71.5492 75.2642 70.7488 75.7663 70.356 76.5568H70.2765C69.8986 75.7415 69.2324 75.2642 68.2282 75.2642C67.2338 75.2642 66.498 75.7415 66.1799 76.5568H66.0804V75.3636H64.9469V83ZM80.3166 83.1591C81.8677 83.1591 83.0012 82.3835 83.3592 81.2301L82.2257 80.9119C81.9274 81.7074 81.2363 82.1051 80.3166 82.1051C78.9395 82.1051 77.9899 81.2152 77.9352 79.5795H83.4785V79.0824C83.4785 76.2386 81.7882 75.2642 80.1973 75.2642C78.1291 75.2642 76.7569 76.8949 76.7569 79.2415C76.7569 81.5881 78.1092 83.1591 80.3166 83.1591ZM77.9352 78.5653C78.0147 77.3771 78.8549 76.3182 80.1973 76.3182C81.47 76.3182 82.2853 77.2727 82.2853 78.5653H77.9352ZM88.5843 75.3636H86.9537V73.5341H85.7804V75.3636H84.627V76.358H85.7804V81.1307C85.7804 82.4631 86.8542 83.0994 87.8485 83.0994C88.286 83.0994 88.5645 83.0199 88.7235 82.9602L88.4849 81.9062C88.3855 81.9261 88.2264 81.9659 87.9679 81.9659C87.4508 81.9659 86.9537 81.8068 86.9537 80.8125V76.358H88.5843V75.3636ZM93.4689 83.1591C95.0201 83.1591 96.1536 82.3835 96.5115 81.2301L95.378 80.9119C95.0797 81.7074 94.3887 82.1051 93.4689 82.1051C92.0918 82.1051 91.1422 81.2152 91.0875 79.5795H96.6309V79.0824C96.6309 76.2386 94.9405 75.2642 93.3496 75.2642C91.2814 75.2642 89.9093 76.8949 89.9093 79.2415C89.9093 81.5881 91.2615 83.1591 93.4689 83.1591ZM91.0875 78.5653C91.1671 77.3771 92.0073 76.3182 93.3496 76.3182C94.6223 76.3182 95.4377 77.2727 95.4377 78.5653H91.0875ZM98.4157 83H99.589V78.1676C99.589 77.1335 100.404 76.3778 101.518 76.3778C101.831 76.3778 102.154 76.4375 102.234 76.4574V75.2642C102.1 75.2543 101.791 75.2443 101.617 75.2443C100.703 75.2443 99.9071 75.7614 99.6287 76.517H99.5492V75.3636H98.4157V83ZM109.034 77.0739C108.666 75.9901 107.841 75.2642 106.329 75.2642C104.718 75.2642 103.525 76.179 103.525 77.4716C103.525 78.5256 104.152 79.2315 105.554 79.5597L106.826 79.858C107.597 80.0369 107.96 80.4048 107.96 80.9318C107.96 81.5881 107.264 82.125 106.17 82.125C105.211 82.125 104.609 81.7124 104.4 80.892L103.287 81.1705C103.56 82.468 104.629 83.1591 106.19 83.1591C107.965 83.1591 109.173 82.1896 109.173 80.8722C109.173 79.8082 108.507 79.1371 107.145 78.804L106.011 78.5256C105.106 78.3018 104.699 77.9986 104.699 77.4119C104.699 76.7557 105.395 76.2784 106.329 76.2784C107.353 76.2784 107.776 76.8452 107.98 77.3722L109.034 77.0739Z" fill="#FF8A00"/>
<path d="M117.668 56H118.9V52.2812H121.128C123.499 52.2812 124.568 50.8395 124.568 49.0398C124.568 47.2401 123.499 45.8182 121.108 45.8182H117.668V56ZM118.9 51.1875V46.9119H121.068C122.724 46.9119 123.355 47.8168 123.355 49.0398C123.355 50.2628 122.724 51.1875 121.088 51.1875H118.9ZM126.395 56H127.568V51.1676C127.568 50.1335 128.384 49.3778 129.497 49.3778C129.811 49.3778 130.134 49.4375 130.213 49.4574V48.2642C130.079 48.2543 129.771 48.2443 129.597 48.2443C128.682 48.2443 127.887 48.7614 127.608 49.517H127.529V48.3636H126.395V56ZM134.474 56.1591C136.542 56.1591 137.934 54.5881 137.934 52.2216C137.934 49.8352 136.542 48.2642 134.474 48.2642C132.406 48.2642 131.014 49.8352 131.014 52.2216C131.014 54.5881 132.406 56.1591 134.474 56.1591ZM134.474 55.1051C132.903 55.1051 132.187 53.7528 132.187 52.2216C132.187 50.6903 132.903 49.3182 134.474 49.3182C136.045 49.3182 136.761 50.6903 136.761 52.2216C136.761 53.7528 136.045 55.1051 134.474 55.1051ZM142.609 56.1591C144.08 56.1591 144.578 55.2443 144.836 54.8267H144.975V56H146.109V45.8182H144.935V49.5767H144.836C144.578 49.179 144.12 48.2642 142.629 48.2642C140.7 48.2642 139.367 49.7955 139.367 52.2017C139.367 54.6278 140.7 56.1591 142.609 56.1591ZM142.768 55.1051C141.296 55.1051 140.541 53.8125 140.541 52.1818C140.541 50.571 141.276 49.3182 142.768 49.3182C144.2 49.3182 144.955 50.4716 144.955 52.1818C144.955 53.9119 144.18 55.1051 142.768 55.1051ZM153.233 52.8778C153.233 54.3097 152.139 54.9659 151.264 54.9659C150.29 54.9659 149.594 54.25 149.594 53.1364V48.3636H148.421V53.2159C148.421 55.1648 149.455 56.0994 150.886 56.0994C152.04 56.0994 152.796 55.483 153.153 54.7074H153.233V56H154.406V48.3636H153.233V52.8778ZM159.658 56.1591C161.348 56.1591 162.462 55.125 162.66 53.7727H161.487C161.268 54.608 160.572 55.1051 159.658 55.1051C158.266 55.1051 157.371 53.9517 157.371 52.1818C157.371 50.4517 158.285 49.3182 159.658 49.3182C160.692 49.3182 161.308 49.9545 161.487 50.6506H162.66C162.462 49.2188 161.248 48.2642 159.638 48.2642C157.57 48.2642 156.197 49.8949 156.197 52.2216C156.197 54.5085 157.51 56.1591 159.658 56.1591ZM167.697 48.3636H166.066V46.5341H164.893V48.3636H163.739V49.358H164.893V54.1307C164.893 55.4631 165.967 56.0994 166.961 56.0994C167.398 56.0994 167.677 56.0199 167.836 55.9602L167.597 54.9062C167.498 54.9261 167.339 54.9659 167.08 54.9659C166.563 54.9659 166.066 54.8068 166.066 53.8125V49.358H167.697V48.3636ZM174.734 50.0739C174.366 48.9901 173.541 48.2642 172.029 48.2642C170.419 48.2642 169.225 49.179 169.225 50.4716C169.225 51.5256 169.852 52.2315 171.254 52.5597L172.527 52.858C173.297 53.0369 173.66 53.4048 173.66 53.9318C173.66 54.5881 172.964 55.125 171.87 55.125C170.911 55.125 170.309 54.7124 170.1 53.892L168.987 54.1705C169.26 55.468 170.329 56.1591 171.89 56.1591C173.665 56.1591 174.873 55.1896 174.873 53.8722C174.873 52.8082 174.207 52.1371 172.845 51.804L171.711 51.5256C170.806 51.3018 170.399 50.9986 170.399 50.4119C170.399 49.7557 171.095 49.2784 172.029 49.2784C173.054 49.2784 173.476 49.8452 173.68 50.3722L174.734 50.0739Z" fill="#FF8A00"/>
<path d="M384.368 47.3636L388.601 54.6591V59H390.703V54.6591L394.936 47.3636H392.555L389.709 52.5114H389.595L386.749 47.3636H384.368ZM398.52 59.1705C401.077 59.1705 402.702 57.3693 402.702 54.6705C402.702 51.9659 401.077 50.1591 398.52 50.1591C395.963 50.1591 394.338 51.9659 394.338 54.6705C394.338 57.3693 395.963 59.1705 398.52 59.1705ZM398.531 57.5227C397.116 57.5227 396.423 56.2614 396.423 54.6648C396.423 53.0682 397.116 51.7898 398.531 51.7898C399.923 51.7898 400.616 53.0682 400.616 54.6648C400.616 56.2614 399.923 57.5227 398.531 57.5227ZM410.01 55.3295C410.01 56.6591 409.061 57.3182 408.152 57.3182C407.163 57.3182 406.504 56.6193 406.504 55.5114V50.2727H404.447V55.8295C404.447 57.9261 405.641 59.1136 407.357 59.1136C408.663 59.1136 409.584 58.4261 409.982 57.4489H410.072V59H412.067V50.2727H410.01V55.3295ZM412.949 49.1307H416.545V59H418.636V49.1307H422.233V47.3636H412.949V49.1307ZM428.307 55.3295C428.307 56.6591 427.358 57.3182 426.449 57.3182C425.46 57.3182 424.801 56.6193 424.801 55.5114V50.2727H422.744V55.8295C422.744 57.9261 423.938 59.1136 425.653 59.1136C426.96 59.1136 427.881 58.4261 428.278 57.4489H428.369V59H430.364V50.2727H428.307V55.3295ZM432.57 59H434.592V57.625H434.712C435.036 58.2614 435.712 59.1534 437.212 59.1534C439.268 59.1534 440.808 57.5227 440.808 54.6477C440.808 51.7386 439.223 50.1591 437.206 50.1591C435.666 50.1591 435.024 51.0852 434.712 51.7159H434.626V47.3636H432.57V59ZM434.587 54.6364C434.587 52.9432 435.314 51.8466 436.638 51.8466C438.007 51.8466 438.712 53.0114 438.712 54.6364C438.712 56.2727 437.996 57.4659 436.638 57.4659C435.325 57.4659 434.587 56.3295 434.587 54.6364ZM446.42 59.1705C448.455 59.1705 449.852 58.1761 450.216 56.6591L448.295 56.4432C448.017 57.1818 447.335 57.5682 446.449 57.5682C445.119 57.5682 444.239 56.6932 444.222 55.1989H450.301V54.5682C450.301 51.5057 448.46 50.1591 446.312 50.1591C443.812 50.1591 442.182 51.9943 442.182 54.6875C442.182 57.4261 443.79 59.1705 446.42 59.1705ZM444.227 53.8125C444.29 52.6989 445.114 51.7614 446.341 51.7614C447.523 51.7614 448.318 52.625 448.33 53.8125H444.227Z" fill="black"/>
<path d="M396.003 149.818H394.71L398.449 160H399.722L403.46 149.818H402.168L399.145 158.389H399.026L396.003 149.818ZM404.887 160H406.061V152.364H404.887V160ZM405.484 151.091C405.941 151.091 406.319 150.733 406.319 150.295C406.319 149.858 405.941 149.5 405.484 149.5C405.027 149.5 404.649 149.858 404.649 150.295C404.649 150.733 405.027 151.091 405.484 151.091ZM411.093 160.159C412.565 160.159 413.062 159.244 413.32 158.827H413.46V160H414.593V149.818H413.42V153.577H413.32C413.062 153.179 412.604 152.264 411.113 152.264C409.184 152.264 407.852 153.795 407.852 156.202C407.852 158.628 409.184 160.159 411.093 160.159ZM411.252 159.105C409.781 159.105 409.025 157.812 409.025 156.182C409.025 154.571 409.761 153.318 411.252 153.318C412.684 153.318 413.44 154.472 413.44 156.182C413.44 157.912 412.664 159.105 411.252 159.105ZM420.107 160.159C421.658 160.159 422.791 159.384 423.149 158.23L422.016 157.912C421.717 158.707 421.026 159.105 420.107 159.105C418.729 159.105 417.78 158.215 417.725 156.58H423.269V156.082C423.269 153.239 421.578 152.264 419.987 152.264C417.919 152.264 416.547 153.895 416.547 156.241C416.547 158.588 417.899 160.159 420.107 160.159ZM417.725 155.565C417.805 154.377 418.645 153.318 419.987 153.318C421.26 153.318 422.075 154.273 422.075 155.565H417.725ZM428.156 160.159C430.224 160.159 431.616 158.588 431.616 156.222C431.616 153.835 430.224 152.264 428.156 152.264C426.087 152.264 424.695 153.835 424.695 156.222C424.695 158.588 426.087 160.159 428.156 160.159ZM428.156 159.105C426.585 159.105 425.869 157.753 425.869 156.222C425.869 154.69 426.585 153.318 428.156 153.318C429.727 153.318 430.443 154.69 430.443 156.222C430.443 157.753 429.727 159.105 428.156 159.105ZM438.816 154.074C438.448 152.99 437.623 152.264 436.111 152.264C434.501 152.264 433.307 153.179 433.307 154.472C433.307 155.526 433.934 156.232 435.336 156.56L436.609 156.858C437.379 157.037 437.742 157.405 437.742 157.932C437.742 158.588 437.046 159.125 435.952 159.125C434.993 159.125 434.391 158.712 434.182 157.892L433.069 158.17C433.342 159.468 434.411 160.159 435.972 160.159C437.747 160.159 438.955 159.19 438.955 157.872C438.955 156.808 438.289 156.137 436.927 155.804L435.793 155.526C434.888 155.302 434.481 154.999 434.481 154.412C434.481 153.756 435.177 153.278 436.111 153.278C437.136 153.278 437.558 153.845 437.762 154.372L438.816 154.074Z" fill="black"/>
<path d="M382.899 233.818H381.606L385.345 244H386.617L390.356 233.818H389.063L386.041 242.389H385.921L382.899 233.818ZM394.274 244.159C395.825 244.159 396.958 243.384 397.316 242.23L396.183 241.912C395.884 242.707 395.193 243.105 394.274 243.105C392.896 243.105 391.947 242.215 391.892 240.58H397.436V240.082C397.436 237.239 395.745 236.264 394.154 236.264C392.086 236.264 390.714 237.895 390.714 240.241C390.714 242.588 392.066 244.159 394.274 244.159ZM391.892 239.565C391.972 238.377 392.812 237.318 394.154 237.318C395.427 237.318 396.242 238.273 396.242 239.565H391.892ZM399.22 244H400.394V239.168C400.394 238.134 401.209 237.378 402.323 237.378C402.636 237.378 402.959 237.438 403.039 237.457V236.264C402.904 236.254 402.596 236.244 402.422 236.244C401.507 236.244 400.712 236.761 400.433 237.517H400.354V236.364H399.22V244ZM405.417 246.864C406.476 246.864 407.222 246.302 407.665 245.114L410.916 236.384L409.633 236.364L407.525 242.449H407.446L405.338 236.364H404.065L406.889 244.04L406.67 244.636C406.243 245.8 405.716 245.909 404.861 245.69L404.562 246.724C404.682 246.784 405.02 246.864 405.417 246.864ZM416.565 244H422.531V242.906H417.798V233.818H416.565V244ZM426.528 244.179C427.86 244.179 428.556 243.463 428.795 242.966H428.855V244H430.028V238.969C430.028 236.543 428.179 236.264 427.204 236.264C426.051 236.264 424.738 236.662 424.142 238.054L425.255 238.452C425.514 237.895 426.125 237.298 427.244 237.298C428.323 237.298 428.855 237.87 428.855 238.849V238.889C428.855 239.456 428.278 239.406 426.886 239.585C425.469 239.769 423.923 240.082 423.923 241.832C423.923 243.324 425.076 244.179 426.528 244.179ZM426.707 243.125C425.772 243.125 425.096 242.707 425.096 241.892C425.096 240.997 425.912 240.719 426.826 240.599C427.324 240.54 428.656 240.401 428.855 240.162V241.236C428.855 242.19 428.099 243.125 426.707 243.125ZM432.17 244H433.343V239.168C433.343 238.134 434.158 237.378 435.272 237.378C435.585 237.378 435.908 237.438 435.988 237.457V236.264C435.854 236.254 435.545 236.244 435.371 236.244C434.456 236.244 433.661 236.761 433.383 237.517H433.303V236.364H432.17V244ZM440.229 247.023C442.058 247.023 443.53 246.188 443.53 244.219V236.364H442.396V237.577H442.277C442.018 237.179 441.541 236.264 440.05 236.264C438.121 236.264 436.788 237.795 436.788 240.142C436.788 242.528 438.18 243.881 440.03 243.881C441.521 243.881 441.998 243.006 442.257 242.588H442.356V244.139C442.356 245.412 441.461 245.989 440.229 245.989C438.841 245.989 438.354 245.258 438.041 244.835L437.106 245.491C437.584 246.292 438.523 247.023 440.229 247.023ZM440.189 242.827C438.717 242.827 437.961 241.713 437.961 240.122C437.961 238.571 438.697 237.318 440.189 237.318C441.621 237.318 442.376 238.472 442.376 240.122C442.376 241.812 441.601 242.827 440.189 242.827ZM448.879 244.159C450.43 244.159 451.564 243.384 451.922 242.23L450.788 241.912C450.49 242.707 449.799 243.105 448.879 243.105C447.502 243.105 446.552 242.215 446.498 240.58H452.041V240.082C452.041 237.239 450.351 236.264 448.76 236.264C446.692 236.264 445.319 237.895 445.319 240.241C445.319 242.588 446.672 244.159 448.879 244.159ZM446.498 239.565C446.577 238.377 447.417 237.318 448.76 237.318C450.032 237.318 450.848 238.273 450.848 239.565H446.498Z" fill="black"/>
<path d="M422.625 306.375L411.375 317.625" stroke="#F52A2A" stroke-width="2" stroke-linecap="round" stroke-linejoin="round"/>
<path d="M422.625 317.625L411.375 306.375" stroke="#F52A2A" stroke-width="2" stroke-linecap="round" stroke-linejoin="round"/>
<path d="M423.875 431.625L415.125 440.375L410.75 436" stroke="#17B432" stroke-width="2" stroke-linecap="round" stroke-linejoin="round"/>
<path d="M422.625 368.375L411.375 379.625" stroke="#F52A2A" stroke-width="2" stroke-linecap="round" stroke-linejoin="round"/>
<path d="M422.625 379.625L411.375 368.375" stroke="#F52A2A" stroke-width="2" stroke-linecap="round" stroke-linejoin="round"/>
<path d="M422.625 503.375L411.375 514.625" stroke="#F52A2A" stroke-width="2" stroke-linecap="round" stroke-linejoin="round"/>
<path d="M422.625 514.625L411.375 503.375" stroke="#F52A2A" stroke-width="2" stroke-linecap="round" stroke-linejoin="round"/>
<path d="M542.61 47.3636L546.843 54.6591V59H548.945V54.6591L553.178 47.3636H550.798L547.951 52.5114H547.837L544.991 47.3636H542.61ZM559.502 55.3295C559.502 56.6591 558.553 57.3182 557.644 57.3182C556.656 57.3182 555.996 56.6193 555.996 55.5114V50.2727H553.94V55.8295C553.94 57.9261 555.133 59.1136 556.849 59.1136C558.156 59.1136 559.076 58.4261 559.474 57.4489H559.565V59H561.559V50.2727H559.502V55.3295ZM563.674 59H565.731V53.6932C565.731 52.6193 566.447 51.892 567.333 51.892C568.202 51.892 568.799 52.4773 568.799 53.375V59H570.816V53.5568C570.816 52.5739 571.401 51.892 572.396 51.892C573.225 51.892 573.884 52.3807 573.884 53.4602V59H575.947V53.142C575.947 51.1932 574.822 50.1591 573.219 50.1591C571.952 50.1591 570.987 50.7841 570.6 51.7557H570.509C570.174 50.767 569.327 50.1591 568.151 50.1591C566.981 50.1591 566.106 50.7614 565.742 51.7557H565.64V50.2727H563.674V59ZM578.033 59H580.09V53.6932C580.09 52.6193 580.806 51.892 581.692 51.892C582.562 51.892 583.158 52.4773 583.158 53.375V59H585.175V53.5568C585.175 52.5739 585.761 51.892 586.755 51.892C587.585 51.892 588.244 52.3807 588.244 53.4602V59H590.306V53.142C590.306 51.1932 589.181 50.1591 587.579 50.1591C586.312 50.1591 585.346 50.7841 584.96 51.7557H584.869C584.533 50.767 583.687 50.1591 582.511 50.1591C581.34 50.1591 580.465 50.7614 580.102 51.7557H579.999V50.2727H578.033V59ZM594.45 47.3636H592.393V59H594.45V47.3636ZM597.843 62.2727C599.445 62.2727 600.371 61.4489 600.866 60.0568L604.371 50.2841L602.173 50.2727L600.156 56.8636H600.065L598.053 50.2727H595.871L599.036 59.1818L598.86 59.6534C598.479 60.6477 597.877 60.7159 596.979 60.4545L596.502 62.0568C596.781 62.1705 597.281 62.2727 597.843 62.2727Z" fill="black"/>
<path d="M552.003 149.818H550.71L554.449 160H555.722L559.46 149.818H558.168L555.145 158.389H555.026L552.003 149.818ZM560.887 160H562.061V152.364H560.887V160ZM561.484 151.091C561.941 151.091 562.319 150.733 562.319 150.295C562.319 149.858 561.941 149.5 561.484 149.5C561.027 149.5 560.649 149.858 560.649 150.295C560.649 150.733 561.027 151.091 561.484 151.091ZM567.093 160.159C568.565 160.159 569.062 159.244 569.32 158.827H569.46V160H570.593V149.818H569.42V153.577H569.32C569.062 153.179 568.604 152.264 567.113 152.264C565.184 152.264 563.852 153.795 563.852 156.202C563.852 158.628 565.184 160.159 567.093 160.159ZM567.252 159.105C565.781 159.105 565.025 157.812 565.025 156.182C565.025 154.571 565.761 153.318 567.252 153.318C568.684 153.318 569.44 154.472 569.44 156.182C569.44 157.912 568.664 159.105 567.252 159.105ZM576.107 160.159C577.658 160.159 578.791 159.384 579.149 158.23L578.016 157.912C577.717 158.707 577.026 159.105 576.107 159.105C574.729 159.105 573.78 158.215 573.725 156.58H579.269V156.082C579.269 153.239 577.578 152.264 575.987 152.264C573.919 152.264 572.547 153.895 572.547 156.241C572.547 158.588 573.899 160.159 576.107 160.159ZM573.725 155.565C573.805 154.377 574.645 153.318 575.987 153.318C577.26 153.318 578.075 154.273 578.075 155.565H573.725ZM584.156 160.159C586.224 160.159 587.616 158.588 587.616 156.222C587.616 153.835 586.224 152.264 584.156 152.264C582.087 152.264 580.695 153.835 580.695 156.222C580.695 158.588 582.087 160.159 584.156 160.159ZM584.156 159.105C582.585 159.105 581.869 157.753 581.869 156.222C581.869 154.69 582.585 153.318 584.156 153.318C585.727 153.318 586.443 154.69 586.443 156.222C586.443 157.753 585.727 159.105 584.156 159.105ZM594.816 154.074C594.448 152.99 593.623 152.264 592.111 152.264C590.501 152.264 589.307 153.179 589.307 154.472C589.307 155.526 589.934 156.232 591.336 156.56L592.609 156.858C593.379 157.037 593.742 157.405 593.742 157.932C593.742 158.588 593.046 159.125 591.952 159.125C590.993 159.125 590.391 158.712 590.182 157.892L589.069 158.17C589.342 159.468 590.411 160.159 591.972 160.159C593.747 160.159 594.955 159.19 594.955 157.872C594.955 156.808 594.289 156.137 592.927 155.804L591.793 155.526C590.888 155.302 590.481 154.999 590.481 154.412C590.481 153.756 591.177 153.278 592.111 153.278C593.136 153.278 593.558 153.845 593.762 154.372L594.816 154.074Z" fill="black"/>
<path d="M555.523 244H561.489V242.906H556.756V233.818H555.523V244ZM565.486 244.179C566.818 244.179 567.514 243.463 567.753 242.966H567.813V244H568.986V238.969C568.986 236.543 567.137 236.264 566.162 236.264C565.009 236.264 563.696 236.662 563.1 238.054L564.213 238.452C564.472 237.895 565.083 237.298 566.202 237.298C567.281 237.298 567.813 237.87 567.813 238.849V238.889C567.813 239.456 567.236 239.406 565.844 239.585C564.427 239.769 562.881 240.082 562.881 241.832C562.881 243.324 564.034 244.179 565.486 244.179ZM565.665 243.125C564.73 243.125 564.054 242.707 564.054 241.892C564.054 240.997 564.87 240.719 565.784 240.599C566.282 240.54 567.614 240.401 567.813 240.162V241.236C567.813 242.19 567.057 243.125 565.665 243.125ZM571.128 244H572.301V239.168C572.301 238.134 573.116 237.378 574.23 237.378C574.543 237.378 574.866 237.438 574.946 237.457V236.264C574.812 236.254 574.503 236.244 574.329 236.244C573.415 236.244 572.619 236.761 572.341 237.517H572.261V236.364H571.128V244ZM579.187 247.023C581.016 247.023 582.488 246.188 582.488 244.219V236.364H581.354V237.577H581.235C580.976 237.179 580.499 236.264 579.008 236.264C577.079 236.264 575.746 237.795 575.746 240.142C575.746 242.528 577.138 243.881 578.988 243.881C580.479 243.881 580.956 243.006 581.215 242.588H581.314V244.139C581.314 245.412 580.419 245.989 579.187 245.989C577.799 245.989 577.312 245.258 576.999 244.835L576.064 245.491C576.542 246.292 577.481 247.023 579.187 247.023ZM579.147 242.827C577.675 242.827 576.919 241.713 576.919 240.122C576.919 238.571 577.655 237.318 579.147 237.318C580.579 237.318 581.334 238.472 581.334 240.122C581.334 241.812 580.559 242.827 579.147 242.827ZM587.837 244.159C589.388 244.159 590.522 243.384 590.88 242.23L589.746 241.912C589.448 242.707 588.757 243.105 587.837 243.105C586.46 243.105 585.51 242.215 585.456 240.58H590.999V240.082C590.999 237.239 589.309 236.264 587.718 236.264C585.65 236.264 584.277 237.895 584.277 240.241C584.277 242.588 585.63 244.159 587.837 244.159ZM585.456 239.565C585.535 238.377 586.375 237.318 587.718 237.318C588.991 237.318 589.806 238.273 589.806 239.565H585.456Z" fill="black"/>
<path d="M579.875 307.625L571.125 316.375L566.75 312" stroke="#17B432" stroke-width="2" stroke-linecap="round" stroke-linejoin="round"/>
<path d="M579.875 431.625L571.125 440.375L566.75 436" stroke="#17B432" stroke-width="2" stroke-linecap="round" stroke-linejoin="round"/>
<path d="M578.625 368.375L567.375 379.625" stroke="#F52A2A" stroke-width="2" stroke-linecap="round" stroke-linejoin="round"/>
<path d="M578.625 379.625L567.375 368.375" stroke="#F52A2A" stroke-width="2" stroke-linecap="round" stroke-linejoin="round"/>
<path d="M578.625 503.375L567.375 514.625" stroke="#F52A2A" stroke-width="2" stroke-linecap="round" stroke-linejoin="round"/>
<path d="M578.625 514.625L567.375 503.375" stroke="#F52A2A" stroke-width="2" stroke-linecap="round" stroke-linejoin="round"/>
<path d="M862.21 59H866.92C869.585 59 870.892 57.642 870.892 55.8295C870.892 54.0682 869.642 53.0341 868.403 52.9716V52.858C869.54 52.5909 870.438 51.7955 870.438 50.3807C870.438 48.6477 869.188 47.3636 866.665 47.3636H862.21V59ZM864.318 57.2386V53.8295H866.642C867.943 53.8295 868.75 54.625 868.75 55.6648C868.75 56.5909 868.114 57.2386 866.585 57.2386H864.318ZM864.318 52.3125V49.1023H866.449C867.688 49.1023 868.33 49.7557 868.33 50.6534C868.33 51.6761 867.5 52.3125 866.403 52.3125H864.318ZM876.442 59.1705C878.999 59.1705 880.624 57.3693 880.624 54.6705C880.624 51.9659 878.999 50.1591 876.442 50.1591C873.885 50.1591 872.26 51.9659 872.26 54.6705C872.26 57.3693 873.885 59.1705 876.442 59.1705ZM876.453 57.5227C875.038 57.5227 874.345 56.2614 874.345 54.6648C874.345 53.0682 875.038 51.7898 876.453 51.7898C877.845 51.7898 878.538 53.0682 878.538 54.6648C878.538 56.2614 877.845 57.5227 876.453 57.5227ZM886.176 59.1705C888.733 59.1705 890.358 57.3693 890.358 54.6705C890.358 51.9659 888.733 50.1591 886.176 50.1591C883.619 50.1591 881.994 51.9659 881.994 54.6705C881.994 57.3693 883.619 59.1705 886.176 59.1705ZM886.188 57.5227C884.773 57.5227 884.08 56.2614 884.08 54.6648C884.08 53.0682 884.773 51.7898 886.188 51.7898C887.58 51.7898 888.273 53.0682 888.273 54.6648C888.273 56.2614 887.58 57.5227 886.188 57.5227ZM892.104 59H894.161V56.0682L894.911 55.267L897.581 59H900.041L896.462 54.0398L899.842 50.2727H897.439L894.303 53.7784H894.161V47.3636H892.104V59ZM908.111 52.5795C907.827 51.1023 906.645 50.1591 904.599 50.1591C902.497 50.1591 901.065 51.1932 901.071 52.8068C901.065 54.0795 901.849 54.9205 903.526 55.267L905.014 55.5795C905.815 55.7557 906.19 56.0795 906.19 56.5739C906.19 57.1705 905.543 57.6193 904.565 57.6193C903.622 57.6193 903.009 57.2102 902.832 56.4261L900.827 56.6193C901.082 58.2216 902.429 59.1705 904.571 59.1705C906.753 59.1705 908.293 58.0398 908.298 56.3864C908.293 55.142 907.491 54.3807 905.844 54.0227L904.355 53.7045C903.469 53.5057 903.116 53.1989 903.122 52.6932C903.116 52.1023 903.77 51.6932 904.628 51.6932C905.577 51.6932 906.077 52.2102 906.236 52.7841L908.111 52.5795Z" fill="black"/>
<path d="M861.771 150.912H864.973V160H866.206V150.912H869.407V149.818H861.771V150.912ZM873.245 160.159C874.796 160.159 875.93 159.384 876.288 158.23L875.154 157.912C874.856 158.707 874.165 159.105 873.245 159.105C871.868 159.105 870.919 158.215 870.864 156.58H876.407V156.082C876.407 153.239 874.717 152.264 873.126 152.264C871.058 152.264 869.686 153.895 869.686 156.241C869.686 158.588 871.038 160.159 873.245 160.159ZM870.864 155.565C870.943 154.377 871.784 153.318 873.126 153.318C874.399 153.318 875.214 154.273 875.214 155.565H870.864ZM878.862 152.364H877.51L879.936 156.182L877.51 160H878.862L880.691 157.037L882.521 160H883.873L881.407 156.182L883.873 152.364H882.521L880.691 155.486L878.862 152.364ZM888.869 152.364H887.238V150.534H886.065V152.364H884.911V153.358H886.065V158.131C886.065 159.463 887.138 160.099 888.133 160.099C888.57 160.099 888.849 160.02 889.008 159.96L888.769 158.906C888.67 158.926 888.511 158.966 888.252 158.966C887.735 158.966 887.238 158.807 887.238 157.812V153.358H888.869V152.364ZM895.446 156.878C895.446 158.31 894.352 158.966 893.477 158.966C892.503 158.966 891.807 158.25 891.807 157.136V152.364H890.633V157.216C890.633 159.165 891.668 160.099 893.099 160.099C894.253 160.099 895.008 159.483 895.366 158.707H895.446V160H896.619V152.364H895.446V156.878ZM901.015 160.179C902.348 160.179 903.044 159.463 903.282 158.966H903.342V160H904.515V154.969C904.515 152.543 902.666 152.264 901.691 152.264C900.538 152.264 899.226 152.662 898.629 154.054L899.743 154.452C900.001 153.895 900.613 153.298 901.731 153.298C902.81 153.298 903.342 153.87 903.342 154.849V154.889C903.342 155.456 902.765 155.406 901.373 155.585C899.956 155.769 898.41 156.082 898.41 157.832C898.41 159.324 899.564 160.179 901.015 160.179ZM901.194 159.125C900.26 159.125 899.584 158.707 899.584 157.892C899.584 156.997 900.399 156.719 901.314 156.599C901.811 156.54 903.143 156.401 903.342 156.162V157.236C903.342 158.19 902.586 159.125 901.194 159.125ZM907.83 149.818H906.657V160H907.83V149.818Z" fill="black"/>
<path d="M860.271 233.818V244H861.424V236.264H861.524L864.706 244H865.819L869.001 236.264H869.101V244H870.254V233.818H868.782L865.322 242.27H865.203L861.743 233.818H860.271ZM875.769 244.159C877.32 244.159 878.453 243.384 878.811 242.23L877.678 241.912C877.38 242.707 876.688 243.105 875.769 243.105C874.392 243.105 873.442 242.215 873.387 240.58H878.931V240.082C878.931 237.239 877.24 236.264 875.649 236.264C873.581 236.264 872.209 237.895 872.209 240.241C872.209 242.588 873.561 244.159 875.769 244.159ZM873.387 239.565C873.467 238.377 874.307 237.318 875.649 237.318C876.922 237.318 877.737 238.273 877.737 239.565H873.387ZM883.599 244.159C885.071 244.159 885.568 243.244 885.826 242.827H885.965V244H887.099V233.818H885.926V237.577H885.826C885.568 237.179 885.11 236.264 883.619 236.264C881.69 236.264 880.358 237.795 880.358 240.202C880.358 242.628 881.69 244.159 883.599 244.159ZM883.758 243.105C882.286 243.105 881.531 241.812 881.531 240.182C881.531 238.571 882.267 237.318 883.758 237.318C885.19 237.318 885.946 238.472 885.946 240.182C885.946 241.912 885.17 243.105 883.758 243.105ZM889.411 244H890.584V236.364H889.411V244ZM890.007 235.091C890.465 235.091 890.843 234.733 890.843 234.295C890.843 233.858 890.465 233.5 890.007 233.5C889.55 233.5 889.172 233.858 889.172 234.295C889.172 234.733 889.55 235.091 890.007 235.091ZM897.546 240.878C897.546 242.31 896.452 242.966 895.577 242.966C894.602 242.966 893.906 242.25 893.906 241.136V236.364H892.733V241.216C892.733 243.165 893.767 244.099 895.199 244.099C896.352 244.099 897.108 243.483 897.466 242.707H897.546V244H898.719V236.364H897.546V240.878ZM900.868 244H902.041V239.227C902.041 238.109 902.856 237.318 903.771 237.318C904.661 237.318 905.283 237.9 905.283 238.77V244H906.476V239.028C906.476 238.044 907.092 237.318 908.166 237.318C909.001 237.318 909.717 237.761 909.717 238.889V244H910.891V238.889C910.891 237.094 909.926 236.264 908.564 236.264C907.47 236.264 906.67 236.766 906.277 237.557H906.197C905.82 236.741 905.153 236.264 904.149 236.264C903.155 236.264 902.419 236.741 902.101 237.557H902.001V236.364H900.868V244Z" fill="black"/>
<path d="M891.875 307.625L883.125 316.375L878.75 312" stroke="#17B432" stroke-width="2" stroke-linecap="round" stroke-linejoin="round"/>
<path d="M890.625 430.375L879.375 441.625" stroke="#F52A2A" stroke-width="2" stroke-linecap="round" stroke-linejoin="round"/>
<path d="M890.625 441.625L879.375 430.375" stroke="#F52A2A" stroke-width="2" stroke-linecap="round" stroke-linejoin="round"/>
<path d="M890.625 368.375L879.375 379.625" stroke="#F52A2A" stroke-width="2" stroke-linecap="round" stroke-linejoin="round"/>
<path d="M890.625 379.625L879.375 368.375" stroke="#F52A2A" stroke-width="2" stroke-linecap="round" stroke-linejoin="round"/>
<path d="M890.625 503.375L879.375 514.625" stroke="#F52A2A" stroke-width="2" stroke-linecap="round" stroke-linejoin="round"/>
<path d="M890.625 514.625L879.375 503.375" stroke="#F52A2A" stroke-width="2" stroke-linecap="round" stroke-linejoin="round"/>
<line x1="36" y1="95" x2="954" y2="95.0001" stroke="#FAFAFA" stroke-width="2" stroke-linecap="round"/>
<line x1="184" y1="41" x2="184" y2="559" stroke="#FAFAFA" stroke-width="2" stroke-linecap="round"/>
<line x1="340" y1="41" x2="340" y2="559" stroke="#FAFAFA" stroke-width="2" stroke-linecap="round"/>
<line x1="496" y1="41" x2="496" y2="559" stroke="#FAFAFA" stroke-width="2" stroke-linecap="round"/>
<line x1="652" y1="41" x2="652" y2="559" stroke="#FAFAFA" stroke-width="2" stroke-linecap="round"/>
<line x1="808" y1="41" x2="808" y2="559" stroke="#FAFAFA" stroke-width="2" stroke-linecap="round"/>
<line x1="174.752" y1="83.6648" x2="35.6648" y2="41.2482" stroke="#FAFAFA" stroke-width="2" stroke-linecap="round"/>
<rect x="1" y="1" width="988" height="598" rx="4" stroke="#FAFAFA" stroke-width="2"/>
</g>
<defs>
<clipPath id="clip0">
<path d="M0 5C0 2.23857 2.23858 0 5 0H985C987.761 0 990 2.23858 990 5V595C990 597.761 987.761 600 985 600H4.99998C2.23855 600 0 597.761 0 595V5Z" fill="white"/>
</clipPath>
</defs>
</svg>
