<svg width="335" height="287" viewBox="0 0 335 287" fill="none" xmlns="http://www.w3.org/2000/svg">
<path d="M0 106.526V15.8177C0 7.0818 7.94036 0 17.7353 0H208.882C218.677 0 226.618 7.0818 226.618 15.8177V72.0585C226.618 80.7944 218.677 87.8762 208.882 87.8762H42.3676C20.9272 87.8762 8.071 98.4682 2.43942 107.026C1.87965 107.876 0 107.512 0 106.526Z" fill="#F6F6F6"/>
<g opacity="0.8">
<path d="M27.6051 23H28.696V22.169C28.696 21.5256 28.9773 20.9844 29.3224 20.4773L28.6918 20.0256C28.0398 20.5497 27.6051 21.4574 27.6051 22.1818V23ZM29.7784 23H30.8693V22.169C30.8693 21.5256 31.1506 20.9844 31.4957 20.4773L30.8651 20.0256C30.2131 20.5497 29.7784 21.4574 29.7784 22.1818V23ZM64.3376 58.2727H63.2467V59.1037C63.2467 59.7642 62.957 60.3054 62.6246 60.7955L63.2553 61.2472C63.9115 60.7188 64.3376 59.8153 64.3376 59.0909V58.2727ZM66.5067 58.2727H65.4158V59.1037C65.4158 59.7642 65.126 60.3054 64.7936 60.7955L65.4243 61.2472C66.0805 60.7188 66.5067 59.8153 66.5067 59.0909V58.2727Z" fill="#FF8A00"/>
<path d="M38.0578 29H39.3873L41.224 22.4631H41.2921L43.1288 29H44.4541L46.8788 20.2727H45.4896L43.7936 27.0355H43.7126L41.9441 20.2727H40.572L38.8035 27.0312H38.7225L37.0223 20.2727H35.6373L38.0578 29ZM49.6113 25.1136C49.6113 24.0696 50.2718 23.473 51.1795 23.473C52.0573 23.473 52.5815 24.0312 52.5815 24.9901V29H53.8556V24.8366C53.8556 23.2045 52.9607 22.3693 51.6141 22.3693C50.5957 22.3693 49.982 22.8125 49.6752 23.5199H49.5943V20.2727H48.3372V29H49.6113V25.1136ZM58.7369 29.1321C60.1645 29.1321 61.1744 28.429 61.4642 27.3636L60.2582 27.1463C60.0281 27.7642 59.4741 28.0795 58.7497 28.0795C57.6588 28.0795 56.9259 27.3722 56.8918 26.1108H61.5452V25.6591C61.5452 23.294 60.1304 22.3693 58.6474 22.3693C56.8236 22.3693 55.6219 23.7585 55.6219 25.7699C55.6219 27.8026 56.8065 29.1321 58.7369 29.1321ZM56.896 25.1562C56.9472 24.2273 57.6205 23.4219 58.656 23.4219C59.6446 23.4219 60.2923 24.1548 60.2966 25.1562H56.896ZM64.593 25.1136C64.593 24.0696 65.2322 23.473 66.1186 23.473C66.9837 23.473 67.5078 24.0398 67.5078 24.9901V29H68.7819V24.8366C68.7819 23.2173 67.8913 22.3693 66.5533 22.3693C65.5689 22.3693 64.9254 22.8253 64.6229 23.5199H64.5419V22.4545H63.3189V29H64.593V25.1136ZM75.8056 29H77.101L78.4306 24.2741H78.5286L79.8581 29H81.1578L83.0797 22.4545H81.763L80.4888 27.2401H80.4249L79.1465 22.4545H77.8297L76.5428 27.2614H76.4789L75.1962 22.4545H73.8794L75.8056 29ZM86.5537 29.1449C87.6361 29.1449 88.2455 28.5952 88.4884 28.1051H88.5395V29H89.7838V24.6534C89.7838 22.7486 88.2838 22.3693 87.244 22.3693C86.0594 22.3693 84.9685 22.8466 84.5423 24.0398L85.7398 24.3125C85.9273 23.848 86.4046 23.4006 87.2611 23.4006C88.0835 23.4006 88.5054 23.831 88.5054 24.5724V24.6023C88.5054 25.0668 88.0281 25.0582 86.852 25.1946C85.6119 25.3395 84.3421 25.6634 84.3421 27.1506C84.3421 28.4375 85.3094 29.1449 86.5537 29.1449ZM86.8307 28.1222C86.1105 28.1222 85.5906 27.7983 85.5906 27.1676C85.5906 26.4858 86.1958 26.2429 86.933 26.1449C87.3463 26.0895 88.3264 25.9787 88.5097 25.7955V26.6392C88.5097 27.4148 87.8918 28.1222 86.8307 28.1222ZM96.7457 24.0526C96.4815 23.0341 95.6847 22.3693 94.2699 22.3693C92.7912 22.3693 91.7429 23.1491 91.7429 24.3082C91.7429 25.2372 92.3054 25.8551 93.5327 26.1278L94.6406 26.3707C95.2713 26.5114 95.5653 26.7926 95.5653 27.2017C95.5653 27.7088 95.0241 28.1051 94.1889 28.1051C93.4261 28.1051 92.9361 27.777 92.7827 27.1335L91.5511 27.321C91.7642 28.4801 92.7273 29.1321 94.1974 29.1321C95.7784 29.1321 96.8736 28.2926 96.8736 27.108C96.8736 26.1832 96.2855 25.6122 95.0838 25.3352L94.044 25.0966C93.3239 24.9261 93.0128 24.6832 93.017 24.2401C93.0128 23.7372 93.5582 23.3793 94.2827 23.3793C95.0753 23.3793 95.4418 23.8182 95.5909 24.2571L96.7457 24.0526ZM105.226 22.4545H103.883V20.8864H102.609V22.4545H101.65V23.4773H102.609V27.3423C102.605 28.5312 103.513 29.1065 104.518 29.0852C104.923 29.081 105.196 29.0043 105.345 28.9489L105.115 27.8963C105.03 27.9134 104.872 27.9517 104.667 27.9517C104.254 27.9517 103.883 27.8153 103.883 27.0781V23.4773H105.226V22.4545ZM108.41 25.1136C108.41 24.0696 109.07 23.473 109.978 23.473C110.856 23.473 111.38 24.0312 111.38 24.9901V29H112.654V24.8366C112.654 23.2045 111.759 22.3693 110.413 22.3693C109.394 22.3693 108.781 22.8125 108.474 23.5199H108.393V20.2727H107.136V29H108.41V25.1136ZM117.536 29.1321C118.963 29.1321 119.973 28.429 120.263 27.3636L119.057 27.1463C118.827 27.7642 118.273 28.0795 117.548 28.0795C116.457 28.0795 115.724 27.3722 115.69 26.1108H120.344V25.6591C120.344 23.294 118.929 22.3693 117.446 22.3693C115.622 22.3693 114.42 23.7585 114.42 25.7699C114.42 27.8026 115.605 29.1321 117.536 29.1321ZM115.695 25.1562C115.746 24.2273 116.419 23.4219 117.455 23.4219C118.443 23.4219 119.091 24.1548 119.095 25.1562H115.695ZM126.927 20.2727H125.653V29H126.927V20.2727ZM130.906 29.1449C131.989 29.1449 132.598 28.5952 132.841 28.1051H132.892V29H134.136V24.6534C134.136 22.7486 132.636 22.3693 131.597 22.3693C130.412 22.3693 129.321 22.8466 128.895 24.0398L130.092 24.3125C130.28 23.848 130.757 23.4006 131.614 23.4006C132.436 23.4006 132.858 23.831 132.858 24.5724V24.6023C132.858 25.0668 132.381 25.0582 131.205 25.1946C129.965 25.3395 128.695 25.6634 128.695 27.1506C128.695 28.4375 129.662 29.1449 130.906 29.1449ZM131.183 28.1222C130.463 28.1222 129.943 27.7983 129.943 27.1676C129.943 26.4858 130.548 26.2429 131.286 26.1449C131.699 26.0895 132.679 25.9787 132.862 25.7955V26.6392C132.862 27.4148 132.244 28.1222 131.183 28.1222ZM141.098 24.0526C140.834 23.0341 140.037 22.3693 138.623 22.3693C137.144 22.3693 136.096 23.1491 136.096 24.3082C136.096 25.2372 136.658 25.8551 137.885 26.1278L138.993 26.3707C139.624 26.5114 139.918 26.7926 139.918 27.2017C139.918 27.7088 139.377 28.1051 138.542 28.1051C137.779 28.1051 137.289 27.777 137.135 27.1335L135.904 27.321C136.117 28.4801 137.08 29.1321 138.55 29.1321C140.131 29.1321 141.226 28.2926 141.226 27.108C141.226 26.1832 140.638 25.6122 139.436 25.3352L138.397 25.0966C137.677 24.9261 137.365 24.6832 137.37 24.2401C137.365 23.7372 137.911 23.3793 138.635 23.3793C139.428 23.3793 139.794 23.8182 139.944 24.2571L141.098 24.0526ZM146.043 22.4545H144.7V20.8864H143.426V22.4545H142.467V23.4773H143.426V27.3423C143.422 28.5312 144.329 29.1065 145.335 29.0852C145.74 29.081 146.013 29.0043 146.162 28.9489L145.932 27.8963C145.847 27.9134 145.689 27.9517 145.484 27.9517C145.071 27.9517 144.7 27.8153 144.7 27.0781V23.4773H146.043V22.4545ZM154.403 22.4545H153.061V20.8864H151.787V22.4545H150.828V23.4773H151.787V27.3423C151.782 28.5312 152.69 29.1065 153.696 29.0852C154.101 29.081 154.373 29.0043 154.522 28.9489L154.292 27.8963C154.207 27.9134 154.049 27.9517 153.845 27.9517C153.432 27.9517 153.061 27.8153 153.061 27.0781V23.4773H154.403V22.4545ZM156.173 29H157.447V22.4545H156.173V29ZM156.816 21.4446C157.255 21.4446 157.621 21.1037 157.621 20.6861C157.621 20.2685 157.255 19.9233 156.816 19.9233C156.373 19.9233 156.011 20.2685 156.011 20.6861C156.011 21.1037 156.373 21.4446 156.816 21.4446ZM159.521 29H160.795V24.9645C160.795 24.0824 161.413 23.4688 162.137 23.4688C162.845 23.4688 163.335 23.9375 163.335 24.6491V29H164.605V24.8281C164.605 24.0398 165.086 23.4688 165.917 23.4688C166.591 23.4688 167.144 23.8438 167.144 24.7301V29H168.419V24.6108C168.419 23.1151 167.583 22.3693 166.399 22.3693C165.457 22.3693 164.75 22.821 164.434 23.5199H164.366C164.081 22.804 163.48 22.3693 162.606 22.3693C161.741 22.3693 161.098 22.7997 160.825 23.5199H160.744V22.4545H159.521V29ZM173.307 29.1321C174.735 29.1321 175.745 28.429 176.035 27.3636L174.829 27.1463C174.599 27.7642 174.045 28.0795 173.32 28.0795C172.229 28.0795 171.496 27.3722 171.462 26.1108H176.116V25.6591C176.116 23.294 174.701 22.3693 173.218 22.3693C171.394 22.3693 170.192 23.7585 170.192 25.7699C170.192 27.8026 171.377 29.1321 173.307 29.1321ZM171.466 25.1562C171.518 24.2273 172.191 23.4219 173.226 23.4219C174.215 23.4219 174.863 24.1548 174.867 25.1562H171.466ZM28.6619 50.4545C29.7145 50.4545 30.3793 49.9048 30.7585 48.8736L33.4645 41.4673L32.0881 41.4545L30.4304 46.5341H30.3622L28.7045 41.4545H27.3409L29.7358 48.0852L29.5781 48.5199C29.2543 49.3892 28.7983 49.4616 28.0994 49.2699L27.7926 50.3139C27.946 50.3821 28.2784 50.4545 28.6619 50.4545ZM37.5479 48.1321C39.393 48.1321 40.599 46.7812 40.599 44.7571C40.599 42.7202 39.393 41.3693 37.5479 41.3693C35.7027 41.3693 34.4967 42.7202 34.4967 44.7571C34.4967 46.7812 35.7027 48.1321 37.5479 48.1321ZM37.5521 47.0625C36.3462 47.0625 35.7837 46.0099 35.7837 44.7528C35.7837 43.5 36.3462 42.4347 37.5521 42.4347C38.7496 42.4347 39.3121 43.5 39.3121 44.7528C39.3121 46.0099 38.7496 47.0625 37.5521 47.0625ZM46.5275 45.2855C46.5318 46.3977 45.7051 46.9261 44.9892 46.9261C44.2008 46.9261 43.6554 46.3551 43.6554 45.4645V41.4545H42.3812V45.6179C42.3812 47.2415 43.2718 48.0852 44.5289 48.0852C45.5133 48.0852 46.1824 47.5653 46.4849 46.8665H46.5531V48H47.8059V41.4545H46.5275V45.2855ZM56.4691 41.4545H55.1268V39.8864H53.8526V41.4545H52.8938V42.4773H53.8526V46.3423C53.8484 47.5312 54.7561 48.1065 55.7617 48.0852C56.1666 48.081 56.4393 48.0043 56.5884 47.9489L56.3583 46.8963C56.2731 46.9134 56.1154 46.9517 55.9109 46.9517C55.4975 46.9517 55.1268 46.8153 55.1268 46.0781V42.4773H56.4691V41.4545ZM58.2386 48H59.5127V44.0028C59.5127 43.1463 60.1732 42.5284 61.0766 42.5284C61.3408 42.5284 61.6391 42.5753 61.7414 42.6051V41.3864C61.6136 41.3693 61.3621 41.3565 61.2002 41.3565C60.4332 41.3565 59.7769 41.7912 59.5383 42.4943H59.4701V41.4545H58.2386V48ZM63.204 48H64.4782V41.4545H63.204V48ZM63.8475 40.4446C64.2864 40.4446 64.6529 40.1037 64.6529 39.6861C64.6529 39.2685 64.2864 38.9233 63.8475 38.9233C63.4043 38.9233 63.0421 39.2685 63.0421 39.6861C63.0421 40.1037 63.4043 40.4446 63.8475 40.4446ZM69.3733 48.1321C70.8009 48.1321 71.8108 47.429 72.1006 46.3636L70.8946 46.1463C70.6645 46.7642 70.1106 47.0795 69.3861 47.0795C68.2952 47.0795 67.5623 46.3722 67.5282 45.1108H72.1816V44.6591C72.1816 42.294 70.7668 41.3693 69.2838 41.3693C67.46 41.3693 66.2583 42.7585 66.2583 44.7699C66.2583 46.8026 67.4429 48.1321 69.3733 48.1321ZM67.5324 44.1562C67.5836 43.2273 68.2569 42.4219 69.2924 42.4219C70.281 42.4219 70.9287 43.1548 70.933 44.1562H67.5324ZM76.4056 48.1278C77.5988 48.1278 78.0675 47.3991 78.2976 46.9815H78.4041V48H79.6485V39.2727H78.3743V42.5156H78.2976C78.0675 42.1108 77.6328 41.3693 76.4141 41.3693C74.8331 41.3693 73.6698 42.6179 73.6698 44.7401C73.6698 46.858 74.8161 48.1278 76.4056 48.1278ZM76.6868 47.0412C75.549 47.0412 74.9567 46.0398 74.9567 44.7273C74.9567 43.4276 75.5363 42.4517 76.6868 42.4517C77.799 42.4517 78.3956 43.3594 78.3956 44.7273C78.3956 46.1037 77.7863 47.0412 76.6868 47.0412ZM88.4182 41.4545H87.0759V39.8864H85.8017V41.4545H84.8429V42.4773H85.8017V46.3423C85.7974 47.5312 86.7051 48.1065 87.7108 48.0852C88.1156 48.081 88.3884 48.0043 88.5375 47.9489L88.3074 46.8963C88.2222 46.9134 88.0645 46.9517 87.8599 46.9517C87.4466 46.9517 87.0759 46.8153 87.0759 46.0781V42.4773H88.4182V41.4545ZM92.8744 48.1321C94.7196 48.1321 95.9256 46.7812 95.9256 44.7571C95.9256 42.7202 94.7196 41.3693 92.8744 41.3693C91.0292 41.3693 89.8233 42.7202 89.8233 44.7571C89.8233 46.7812 91.0292 48.1321 92.8744 48.1321ZM92.8787 47.0625C91.6727 47.0625 91.1102 46.0099 91.1102 44.7528C91.1102 43.5 91.6727 42.4347 92.8787 42.4347C94.0761 42.4347 94.6386 43.5 94.6386 44.7528C94.6386 46.0099 94.0761 47.0625 92.8787 47.0625ZM104.001 48.1321C105.548 48.1321 106.549 47.2031 106.69 45.929H105.45C105.288 46.6364 104.738 47.054 104.009 47.054C102.931 47.054 102.236 46.1548 102.236 44.7273C102.236 43.3253 102.944 42.4432 104.009 42.4432C104.819 42.4432 105.313 42.9545 105.45 43.5682H106.69C106.553 42.2472 105.475 41.3693 103.988 41.3693C102.143 41.3693 100.95 42.7585 100.95 44.7571C100.95 46.7301 102.1 48.1321 104.001 48.1321ZM111.169 48.1321C113.014 48.1321 114.22 46.7812 114.22 44.7571C114.22 42.7202 113.014 41.3693 111.169 41.3693C109.324 41.3693 108.118 42.7202 108.118 44.7571C108.118 46.7812 109.324 48.1321 111.169 48.1321ZM111.174 47.0625C109.968 47.0625 109.405 46.0099 109.405 44.7528C109.405 43.5 109.968 42.4347 111.174 42.4347C112.371 42.4347 112.933 43.5 112.933 44.7528C112.933 46.0099 112.371 47.0625 111.174 47.0625ZM118.76 48.1321C120.605 48.1321 121.811 46.7812 121.811 44.7571C121.811 42.7202 120.605 41.3693 118.76 41.3693C116.915 41.3693 115.709 42.7202 115.709 44.7571C115.709 46.7812 116.915 48.1321 118.76 48.1321ZM118.764 47.0625C117.558 47.0625 116.996 46.0099 116.996 44.7528C116.996 43.5 117.558 42.4347 118.764 42.4347C119.961 42.4347 120.524 43.5 120.524 44.7528C120.524 46.0099 119.961 47.0625 118.764 47.0625ZM123.593 48H124.867V45.6776L125.502 45.0426L127.727 48H129.291L126.461 44.2628L129.112 41.4545H127.586L124.978 44.2244H124.867V39.2727H123.593V48ZM139.073 43.0526C138.809 42.0341 138.012 41.3693 136.598 41.3693C135.119 41.3693 134.071 42.1491 134.071 43.3082C134.071 44.2372 134.633 44.8551 135.86 45.1278L136.968 45.3707C137.599 45.5114 137.893 45.7926 137.893 46.2017C137.893 46.7088 137.352 47.1051 136.517 47.1051C135.754 47.1051 135.264 46.777 135.11 46.1335L133.879 46.321C134.092 47.4801 135.055 48.1321 136.525 48.1321C138.106 48.1321 139.201 47.2926 139.201 46.108C139.201 45.1832 138.613 44.6122 137.411 44.3352L136.372 44.0966C135.652 43.9261 135.34 43.6832 135.345 43.2401C135.34 42.7372 135.886 42.3793 136.61 42.3793C137.403 42.3793 137.769 42.8182 137.919 43.2571L139.073 43.0526ZM143.719 48.1321C145.564 48.1321 146.77 46.7812 146.77 44.7571C146.77 42.7202 145.564 41.3693 143.719 41.3693C141.874 41.3693 140.668 42.7202 140.668 44.7571C140.668 46.7812 141.874 48.1321 143.719 48.1321ZM143.724 47.0625C142.518 47.0625 141.955 46.0099 141.955 44.7528C141.955 43.5 142.518 42.4347 143.724 42.4347C144.921 42.4347 145.483 43.5 145.483 44.7528C145.483 46.0099 144.921 47.0625 143.724 47.0625ZM148.553 48H149.827V43.9645C149.827 43.0824 150.445 42.4688 151.169 42.4688C151.876 42.4688 152.367 42.9375 152.367 43.6491V48H153.636V43.8281C153.636 43.0398 154.118 42.4688 154.949 42.4688C155.622 42.4688 156.176 42.8438 156.176 43.7301V48H157.45V43.6108C157.45 42.1151 156.615 41.3693 155.43 41.3693C154.489 41.3693 153.781 41.821 153.466 42.5199H153.398C153.112 41.804 152.511 41.3693 151.638 41.3693C150.773 41.3693 150.129 41.7997 149.857 42.5199H149.776V41.4545H148.553V48ZM162.339 48.1321C163.767 48.1321 164.777 47.429 165.066 46.3636L163.86 46.1463C163.63 46.7642 163.076 47.0795 162.352 47.0795C161.261 47.0795 160.528 46.3722 160.494 45.1108H165.147V44.6591C165.147 42.294 163.733 41.3693 162.25 41.3693C160.426 41.3693 159.224 42.7585 159.224 44.7699C159.224 46.8026 160.409 48.1321 162.339 48.1321ZM160.498 44.1562C160.549 43.2273 161.223 42.4219 162.258 42.4219C163.247 42.4219 163.895 43.1548 163.899 44.1562H160.498ZM169.976 41.4545H168.634V39.8864H167.36V41.4545H166.401V42.4773H167.36V46.3423C167.356 47.5312 168.263 48.1065 169.269 48.0852C169.674 48.081 169.947 48.0043 170.096 47.9489L169.866 46.8963C169.78 46.9134 169.623 46.9517 169.418 46.9517C169.005 46.9517 168.634 46.8153 168.634 46.0781V42.4773H169.976V41.4545ZM173.161 44.1136C173.161 43.0696 173.821 42.473 174.729 42.473C175.607 42.473 176.131 43.0312 176.131 43.9901V48H177.405V43.8366C177.405 42.2045 176.51 41.3693 175.164 41.3693C174.145 41.3693 173.531 41.8125 173.225 42.5199H173.144V39.2727H171.887V48H173.161V44.1136ZM179.465 48H180.739V41.4545H179.465V48ZM180.109 40.4446C180.548 40.4446 180.914 40.1037 180.914 39.6861C180.914 39.2685 180.548 38.9233 180.109 38.9233C179.666 38.9233 179.303 39.2685 179.303 39.6861C179.303 40.1037 179.666 40.4446 180.109 40.4446ZM184.088 44.1136C184.088 43.0696 184.727 42.473 185.613 42.473C186.478 42.473 187.002 43.0398 187.002 43.9901V48H188.277V43.8366C188.277 42.2173 187.386 41.3693 186.048 41.3693C185.064 41.3693 184.42 41.8253 184.118 42.5199H184.037V41.4545H182.814V48H184.088V44.1136ZM193.09 50.5909C194.756 50.5909 196.043 49.8281 196.043 48.1449V41.4545H194.794V42.5156H194.701C194.475 42.1108 194.023 41.3693 192.804 41.3693C191.223 41.3693 190.06 42.6179 190.06 44.7017C190.06 46.7898 191.249 47.902 192.796 47.902C193.997 47.902 194.462 47.2244 194.692 46.8068H194.773V48.0938C194.773 49.1207 194.07 49.5639 193.103 49.5639C192.041 49.5639 191.628 49.0312 191.402 48.6562L190.307 49.108C190.652 49.9091 191.526 50.5909 193.09 50.5909ZM193.077 46.8452C191.939 46.8452 191.347 45.9716 191.347 44.6847C191.347 43.4276 191.926 42.4517 193.077 42.4517C194.189 42.4517 194.786 43.3594 194.786 44.6847C194.786 46.0355 194.176 46.8452 193.077 46.8452ZM29.1307 63.1136C29.1307 62.0696 29.7699 61.473 30.6562 61.473C31.5213 61.473 32.0455 62.0398 32.0455 62.9901V67H33.3196V62.8366C33.3196 61.2173 32.429 60.3693 31.0909 60.3693C30.1065 60.3693 29.4631 60.8253 29.1605 61.5199H29.0795V60.4545H27.8565V67H29.1307V63.1136ZM38.2094 67.1321C39.637 67.1321 40.6469 66.429 40.9367 65.3636L39.7307 65.1463C39.5006 65.7642 38.9466 66.0795 38.2222 66.0795C37.1313 66.0795 36.3984 65.3722 36.3643 64.1108H41.0177V63.6591C41.0177 61.294 39.6029 60.3693 38.1199 60.3693C36.2961 60.3693 35.0944 61.7585 35.0944 63.7699C35.0944 65.8026 36.279 67.1321 38.2094 67.1321ZM36.3685 63.1562C36.4197 62.2273 37.093 61.4219 38.1285 61.4219C39.1171 61.4219 39.7648 62.1548 39.7691 63.1562H36.3685ZM44.1987 67H45.4941L46.8237 62.2741H46.9217L48.2513 67H49.551L51.4728 60.4545H50.1561L48.8819 65.2401H48.818L47.5396 60.4545H46.2228L44.9359 65.2614H44.872L43.5893 60.4545H42.2726L44.1987 67ZM54.4355 64.4901H55.6542V64.4091C55.6713 63.429 55.9525 62.9901 56.6769 62.5426C57.4397 62.0824 57.9085 61.4347 57.9085 60.4759C57.9085 59.0909 56.8602 58.1534 55.2963 58.1534C53.8602 58.1534 52.7096 58.9929 52.6542 60.527H53.9497C54.0008 59.6236 54.6443 59.2273 55.2963 59.2273C56.0207 59.2273 56.6088 59.7088 56.6088 60.4631C56.6088 61.098 56.2125 61.5455 55.7054 61.8608C54.9127 62.3466 54.444 62.8281 54.4355 64.4091V64.4901ZM55.0789 67.081C55.5434 67.081 55.9312 66.7017 55.9312 66.2287C55.9312 65.7642 55.5434 65.3807 55.0789 65.3807C54.6102 65.3807 54.2267 65.7642 54.2267 66.2287C54.2267 66.7017 54.6102 67.081 55.0789 67.081Z" fill="black"/>
</g>
<path d="M0 286.024V195.316C0 186.58 7.94036 179.498 17.7353 179.498H208.882C218.677 179.498 226.618 186.58 226.618 195.316V251.557C226.618 260.293 218.677 267.374 208.882 267.374H42.3676C20.9272 267.374 8.071 277.966 2.43942 286.524C1.87965 287.375 0 287.01 0 286.024Z" fill="#F6F6F6"/>
<g opacity="0.8">
<path d="M27.6051 205H28.696V204.169C28.696 203.526 28.9773 202.984 29.3224 202.477L28.6918 202.026C28.0398 202.55 27.6051 203.457 27.6051 204.182V205ZM29.7784 205H30.8693V204.169C30.8693 203.526 31.1506 202.984 31.4957 202.477L30.8651 202.026C30.2131 202.55 29.7784 203.457 29.7784 204.182V205ZM64.3376 240.273H63.2467V241.104C63.2467 241.764 62.957 242.305 62.6246 242.795L63.2553 243.247C63.9115 242.719 64.3376 241.815 64.3376 241.091V240.273ZM66.5067 240.273H65.4158V241.104C65.4158 241.764 65.126 242.305 64.7936 242.795L65.4243 243.247C66.0805 242.719 66.5067 241.815 66.5067 241.091V240.273Z" fill="#FF8A00"/>
<path d="M38.0578 211H39.3873L41.224 204.463H41.2921L43.1288 211H44.4541L46.8788 202.273H45.4896L43.7936 209.036H43.7126L41.9441 202.273H40.572L38.8035 209.031H38.7225L37.0223 202.273H35.6373L38.0578 211ZM49.6113 207.114C49.6113 206.07 50.2718 205.473 51.1795 205.473C52.0573 205.473 52.5815 206.031 52.5815 206.99V211H53.8556V206.837C53.8556 205.205 52.9607 204.369 51.6141 204.369C50.5957 204.369 49.982 204.812 49.6752 205.52H49.5943V202.273H48.3372V211H49.6113V207.114ZM58.7369 211.132C60.1645 211.132 61.1744 210.429 61.4642 209.364L60.2582 209.146C60.0281 209.764 59.4741 210.08 58.7497 210.08C57.6588 210.08 56.9259 209.372 56.8918 208.111H61.5452V207.659C61.5452 205.294 60.1304 204.369 58.6474 204.369C56.8236 204.369 55.6219 205.759 55.6219 207.77C55.6219 209.803 56.8065 211.132 58.7369 211.132ZM56.896 207.156C56.9472 206.227 57.6205 205.422 58.656 205.422C59.6446 205.422 60.2923 206.155 60.2966 207.156H56.896ZM64.593 207.114C64.593 206.07 65.2322 205.473 66.1186 205.473C66.9837 205.473 67.5078 206.04 67.5078 206.99V211H68.7819V206.837C68.7819 205.217 67.8913 204.369 66.5533 204.369C65.5689 204.369 64.9254 204.825 64.6229 205.52H64.5419V204.455H63.3189V211H64.593V207.114ZM75.8056 211H77.101L78.4306 206.274H78.5286L79.8581 211H81.1578L83.0797 204.455H81.763L80.4888 209.24H80.4249L79.1465 204.455H77.8297L76.5428 209.261H76.4789L75.1962 204.455H73.8794L75.8056 211ZM86.5537 211.145C87.6361 211.145 88.2455 210.595 88.4884 210.105H88.5395V211H89.7838V206.653C89.7838 204.749 88.2838 204.369 87.244 204.369C86.0594 204.369 84.9685 204.847 84.5423 206.04L85.7398 206.312C85.9273 205.848 86.4046 205.401 87.2611 205.401C88.0835 205.401 88.5054 205.831 88.5054 206.572V206.602C88.5054 207.067 88.0281 207.058 86.852 207.195C85.6119 207.339 84.3421 207.663 84.3421 209.151C84.3421 210.438 85.3094 211.145 86.5537 211.145ZM86.8307 210.122C86.1105 210.122 85.5906 209.798 85.5906 209.168C85.5906 208.486 86.1958 208.243 86.933 208.145C87.3463 208.089 88.3264 207.979 88.5097 207.795V208.639C88.5097 209.415 87.8918 210.122 86.8307 210.122ZM96.7457 206.053C96.4815 205.034 95.6847 204.369 94.2699 204.369C92.7912 204.369 91.7429 205.149 91.7429 206.308C91.7429 207.237 92.3054 207.855 93.5327 208.128L94.6406 208.371C95.2713 208.511 95.5653 208.793 95.5653 209.202C95.5653 209.709 95.0241 210.105 94.1889 210.105C93.4261 210.105 92.9361 209.777 92.7827 209.134L91.5511 209.321C91.7642 210.48 92.7273 211.132 94.1974 211.132C95.7784 211.132 96.8736 210.293 96.8736 209.108C96.8736 208.183 96.2855 207.612 95.0838 207.335L94.044 207.097C93.3239 206.926 93.0128 206.683 93.017 206.24C93.0128 205.737 93.5582 205.379 94.2827 205.379C95.0753 205.379 95.4418 205.818 95.5909 206.257L96.7457 206.053ZM105.226 204.455H103.883V202.886H102.609V204.455H101.65V205.477H102.609V209.342C102.605 210.531 103.513 211.107 104.518 211.085C104.923 211.081 105.196 211.004 105.345 210.949L105.115 209.896C105.03 209.913 104.872 209.952 104.667 209.952C104.254 209.952 103.883 209.815 103.883 209.078V205.477H105.226V204.455ZM108.41 207.114C108.41 206.07 109.07 205.473 109.978 205.473C110.856 205.473 111.38 206.031 111.38 206.99V211H112.654V206.837C112.654 205.205 111.759 204.369 110.413 204.369C109.394 204.369 108.781 204.812 108.474 205.52H108.393V202.273H107.136V211H108.41V207.114ZM117.536 211.132C118.963 211.132 119.973 210.429 120.263 209.364L119.057 209.146C118.827 209.764 118.273 210.08 117.548 210.08C116.457 210.08 115.724 209.372 115.69 208.111H120.344V207.659C120.344 205.294 118.929 204.369 117.446 204.369C115.622 204.369 114.42 205.759 114.42 207.77C114.42 209.803 115.605 211.132 117.536 211.132ZM115.695 207.156C115.746 206.227 116.419 205.422 117.455 205.422C118.443 205.422 119.091 206.155 119.095 207.156H115.695ZM126.927 202.273H125.653V211H126.927V202.273ZM130.906 211.145C131.989 211.145 132.598 210.595 132.841 210.105H132.892V211H134.136V206.653C134.136 204.749 132.636 204.369 131.597 204.369C130.412 204.369 129.321 204.847 128.895 206.04L130.092 206.312C130.28 205.848 130.757 205.401 131.614 205.401C132.436 205.401 132.858 205.831 132.858 206.572V206.602C132.858 207.067 132.381 207.058 131.205 207.195C129.965 207.339 128.695 207.663 128.695 209.151C128.695 210.438 129.662 211.145 130.906 211.145ZM131.183 210.122C130.463 210.122 129.943 209.798 129.943 209.168C129.943 208.486 130.548 208.243 131.286 208.145C131.699 208.089 132.679 207.979 132.862 207.795V208.639C132.862 209.415 132.244 210.122 131.183 210.122ZM141.098 206.053C140.834 205.034 140.037 204.369 138.623 204.369C137.144 204.369 136.096 205.149 136.096 206.308C136.096 207.237 136.658 207.855 137.885 208.128L138.993 208.371C139.624 208.511 139.918 208.793 139.918 209.202C139.918 209.709 139.377 210.105 138.542 210.105C137.779 210.105 137.289 209.777 137.135 209.134L135.904 209.321C136.117 210.48 137.08 211.132 138.55 211.132C140.131 211.132 141.226 210.293 141.226 209.108C141.226 208.183 140.638 207.612 139.436 207.335L138.397 207.097C137.677 206.926 137.365 206.683 137.37 206.24C137.365 205.737 137.911 205.379 138.635 205.379C139.428 205.379 139.794 205.818 139.944 206.257L141.098 206.053ZM146.043 204.455H144.7V202.886H143.426V204.455H142.467V205.477H143.426V209.342C143.422 210.531 144.329 211.107 145.335 211.085C145.74 211.081 146.013 211.004 146.162 210.949L145.932 209.896C145.847 209.913 145.689 209.952 145.484 209.952C145.071 209.952 144.7 209.815 144.7 209.078V205.477H146.043V204.455ZM154.403 204.455H153.061V202.886H151.787V204.455H150.828V205.477H151.787V209.342C151.782 210.531 152.69 211.107 153.696 211.085C154.101 211.081 154.373 211.004 154.522 210.949L154.292 209.896C154.207 209.913 154.049 209.952 153.845 209.952C153.432 209.952 153.061 209.815 153.061 209.078V205.477H154.403V204.455ZM156.173 211H157.447V204.455H156.173V211ZM156.816 203.445C157.255 203.445 157.621 203.104 157.621 202.686C157.621 202.268 157.255 201.923 156.816 201.923C156.373 201.923 156.011 202.268 156.011 202.686C156.011 203.104 156.373 203.445 156.816 203.445ZM159.521 211H160.795V206.964C160.795 206.082 161.413 205.469 162.137 205.469C162.845 205.469 163.335 205.938 163.335 206.649V211H164.605V206.828C164.605 206.04 165.086 205.469 165.917 205.469C166.591 205.469 167.144 205.844 167.144 206.73V211H168.419V206.611C168.419 205.115 167.583 204.369 166.399 204.369C165.457 204.369 164.75 204.821 164.434 205.52H164.366C164.081 204.804 163.48 204.369 162.606 204.369C161.741 204.369 161.098 204.8 160.825 205.52H160.744V204.455H159.521V211ZM173.307 211.132C174.735 211.132 175.745 210.429 176.035 209.364L174.829 209.146C174.599 209.764 174.045 210.08 173.32 210.08C172.229 210.08 171.496 209.372 171.462 208.111H176.116V207.659C176.116 205.294 174.701 204.369 173.218 204.369C171.394 204.369 170.192 205.759 170.192 207.77C170.192 209.803 171.377 211.132 173.307 211.132ZM171.466 207.156C171.518 206.227 172.191 205.422 173.226 205.422C174.215 205.422 174.863 206.155 174.867 207.156H171.466ZM28.6619 232.455C29.7145 232.455 30.3793 231.905 30.7585 230.874L33.4645 223.467L32.0881 223.455L30.4304 228.534H30.3622L28.7045 223.455H27.3409L29.7358 230.085L29.5781 230.52C29.2543 231.389 28.7983 231.462 28.0994 231.27L27.7926 232.314C27.946 232.382 28.2784 232.455 28.6619 232.455ZM37.5479 230.132C39.393 230.132 40.599 228.781 40.599 226.757C40.599 224.72 39.393 223.369 37.5479 223.369C35.7027 223.369 34.4967 224.72 34.4967 226.757C34.4967 228.781 35.7027 230.132 37.5479 230.132ZM37.5521 229.062C36.3462 229.062 35.7837 228.01 35.7837 226.753C35.7837 225.5 36.3462 224.435 37.5521 224.435C38.7496 224.435 39.3121 225.5 39.3121 226.753C39.3121 228.01 38.7496 229.062 37.5521 229.062ZM46.5275 227.286C46.5318 228.398 45.7051 228.926 44.9892 228.926C44.2008 228.926 43.6554 228.355 43.6554 227.464V223.455H42.3812V227.618C42.3812 229.241 43.2718 230.085 44.5289 230.085C45.5133 230.085 46.1824 229.565 46.4849 228.866H46.5531V230H47.8059V223.455H46.5275V227.286ZM56.4691 223.455H55.1268V221.886H53.8526V223.455H52.8938V224.477H53.8526V228.342C53.8484 229.531 54.7561 230.107 55.7617 230.085C56.1666 230.081 56.4393 230.004 56.5884 229.949L56.3583 228.896C56.2731 228.913 56.1154 228.952 55.9109 228.952C55.4975 228.952 55.1268 228.815 55.1268 228.078V224.477H56.4691V223.455ZM58.2386 230H59.5127V226.003C59.5127 225.146 60.1732 224.528 61.0766 224.528C61.3408 224.528 61.6391 224.575 61.7414 224.605V223.386C61.6136 223.369 61.3621 223.357 61.2002 223.357C60.4332 223.357 59.7769 223.791 59.5383 224.494H59.4701V223.455H58.2386V230ZM63.204 230H64.4782V223.455H63.204V230ZM63.8475 222.445C64.2864 222.445 64.6529 222.104 64.6529 221.686C64.6529 221.268 64.2864 220.923 63.8475 220.923C63.4043 220.923 63.0421 221.268 63.0421 221.686C63.0421 222.104 63.4043 222.445 63.8475 222.445ZM69.3733 230.132C70.8009 230.132 71.8108 229.429 72.1006 228.364L70.8946 228.146C70.6645 228.764 70.1106 229.08 69.3861 229.08C68.2952 229.08 67.5623 228.372 67.5282 227.111H72.1816V226.659C72.1816 224.294 70.7668 223.369 69.2838 223.369C67.46 223.369 66.2583 224.759 66.2583 226.77C66.2583 228.803 67.4429 230.132 69.3733 230.132ZM67.5324 226.156C67.5836 225.227 68.2569 224.422 69.2924 224.422C70.281 224.422 70.9287 225.155 70.933 226.156H67.5324ZM76.4056 230.128C77.5988 230.128 78.0675 229.399 78.2976 228.982H78.4041V230H79.6485V221.273H78.3743V224.516H78.2976C78.0675 224.111 77.6328 223.369 76.4141 223.369C74.8331 223.369 73.6698 224.618 73.6698 226.74C73.6698 228.858 74.8161 230.128 76.4056 230.128ZM76.6868 229.041C75.549 229.041 74.9567 228.04 74.9567 226.727C74.9567 225.428 75.5363 224.452 76.6868 224.452C77.799 224.452 78.3956 225.359 78.3956 226.727C78.3956 228.104 77.7863 229.041 76.6868 229.041ZM88.4182 223.455H87.0759V221.886H85.8017V223.455H84.8429V224.477H85.8017V228.342C85.7974 229.531 86.7051 230.107 87.7108 230.085C88.1156 230.081 88.3884 230.004 88.5375 229.949L88.3074 228.896C88.2222 228.913 88.0645 228.952 87.8599 228.952C87.4466 228.952 87.0759 228.815 87.0759 228.078V224.477H88.4182V223.455ZM92.8744 230.132C94.7196 230.132 95.9256 228.781 95.9256 226.757C95.9256 224.72 94.7196 223.369 92.8744 223.369C91.0292 223.369 89.8233 224.72 89.8233 226.757C89.8233 228.781 91.0292 230.132 92.8744 230.132ZM92.8787 229.062C91.6727 229.062 91.1102 228.01 91.1102 226.753C91.1102 225.5 91.6727 224.435 92.8787 224.435C94.0761 224.435 94.6386 225.5 94.6386 226.753C94.6386 228.01 94.0761 229.062 92.8787 229.062ZM104.001 230.132C105.548 230.132 106.549 229.203 106.69 227.929H105.45C105.288 228.636 104.738 229.054 104.009 229.054C102.931 229.054 102.236 228.155 102.236 226.727C102.236 225.325 102.944 224.443 104.009 224.443C104.819 224.443 105.313 224.955 105.45 225.568H106.69C106.553 224.247 105.475 223.369 103.988 223.369C102.143 223.369 100.95 224.759 100.95 226.757C100.95 228.73 102.1 230.132 104.001 230.132ZM111.169 230.132C113.014 230.132 114.22 228.781 114.22 226.757C114.22 224.72 113.014 223.369 111.169 223.369C109.324 223.369 108.118 224.72 108.118 226.757C108.118 228.781 109.324 230.132 111.169 230.132ZM111.174 229.062C109.968 229.062 109.405 228.01 109.405 226.753C109.405 225.5 109.968 224.435 111.174 224.435C112.371 224.435 112.933 225.5 112.933 226.753C112.933 228.01 112.371 229.062 111.174 229.062ZM118.76 230.132C120.605 230.132 121.811 228.781 121.811 226.757C121.811 224.72 120.605 223.369 118.76 223.369C116.915 223.369 115.709 224.72 115.709 226.757C115.709 228.781 116.915 230.132 118.76 230.132ZM118.764 229.062C117.558 229.062 116.996 228.01 116.996 226.753C116.996 225.5 117.558 224.435 118.764 224.435C119.961 224.435 120.524 225.5 120.524 226.753C120.524 228.01 119.961 229.062 118.764 229.062ZM123.593 230H124.867V227.678L125.502 227.043L127.727 230H129.291L126.461 226.263L129.112 223.455H127.586L124.978 226.224H124.867V221.273H123.593V230ZM139.073 225.053C138.809 224.034 138.012 223.369 136.598 223.369C135.119 223.369 134.071 224.149 134.071 225.308C134.071 226.237 134.633 226.855 135.86 227.128L136.968 227.371C137.599 227.511 137.893 227.793 137.893 228.202C137.893 228.709 137.352 229.105 136.517 229.105C135.754 229.105 135.264 228.777 135.11 228.134L133.879 228.321C134.092 229.48 135.055 230.132 136.525 230.132C138.106 230.132 139.201 229.293 139.201 228.108C139.201 227.183 138.613 226.612 137.411 226.335L136.372 226.097C135.652 225.926 135.34 225.683 135.345 225.24C135.34 224.737 135.886 224.379 136.61 224.379C137.403 224.379 137.769 224.818 137.919 225.257L139.073 225.053ZM143.719 230.132C145.564 230.132 146.77 228.781 146.77 226.757C146.77 224.72 145.564 223.369 143.719 223.369C141.874 223.369 140.668 224.72 140.668 226.757C140.668 228.781 141.874 230.132 143.719 230.132ZM143.724 229.062C142.518 229.062 141.955 228.01 141.955 226.753C141.955 225.5 142.518 224.435 143.724 224.435C144.921 224.435 145.483 225.5 145.483 226.753C145.483 228.01 144.921 229.062 143.724 229.062ZM148.553 230H149.827V225.964C149.827 225.082 150.445 224.469 151.169 224.469C151.876 224.469 152.367 224.938 152.367 225.649V230H153.636V225.828C153.636 225.04 154.118 224.469 154.949 224.469C155.622 224.469 156.176 224.844 156.176 225.73V230H157.45V225.611C157.45 224.115 156.615 223.369 155.43 223.369C154.489 223.369 153.781 223.821 153.466 224.52H153.398C153.112 223.804 152.511 223.369 151.638 223.369C150.773 223.369 150.129 223.8 149.857 224.52H149.776V223.455H148.553V230ZM162.339 230.132C163.767 230.132 164.777 229.429 165.066 228.364L163.86 228.146C163.63 228.764 163.076 229.08 162.352 229.08C161.261 229.08 160.528 228.372 160.494 227.111H165.147V226.659C165.147 224.294 163.733 223.369 162.25 223.369C160.426 223.369 159.224 224.759 159.224 226.77C159.224 228.803 160.409 230.132 162.339 230.132ZM160.498 226.156C160.549 225.227 161.223 224.422 162.258 224.422C163.247 224.422 163.895 225.155 163.899 226.156H160.498ZM169.976 223.455H168.634V221.886H167.36V223.455H166.401V224.477H167.36V228.342C167.356 229.531 168.263 230.107 169.269 230.085C169.674 230.081 169.947 230.004 170.096 229.949L169.866 228.896C169.78 228.913 169.623 228.952 169.418 228.952C169.005 228.952 168.634 228.815 168.634 228.078V224.477H169.976V223.455ZM173.161 226.114C173.161 225.07 173.821 224.473 174.729 224.473C175.607 224.473 176.131 225.031 176.131 225.99V230H177.405V225.837C177.405 224.205 176.51 223.369 175.164 223.369C174.145 223.369 173.531 223.812 173.225 224.52H173.144V221.273H171.887V230H173.161V226.114ZM179.465 230H180.739V223.455H179.465V230ZM180.109 222.445C180.548 222.445 180.914 222.104 180.914 221.686C180.914 221.268 180.548 220.923 180.109 220.923C179.666 220.923 179.303 221.268 179.303 221.686C179.303 222.104 179.666 222.445 180.109 222.445ZM184.088 226.114C184.088 225.07 184.727 224.473 185.613 224.473C186.478 224.473 187.002 225.04 187.002 225.99V230H188.277V225.837C188.277 224.217 187.386 223.369 186.048 223.369C185.064 223.369 184.42 223.825 184.118 224.52H184.037V223.455H182.814V230H184.088V226.114ZM193.09 232.591C194.756 232.591 196.043 231.828 196.043 230.145V223.455H194.794V224.516H194.701C194.475 224.111 194.023 223.369 192.804 223.369C191.223 223.369 190.06 224.618 190.06 226.702C190.06 228.79 191.249 229.902 192.796 229.902C193.997 229.902 194.462 229.224 194.692 228.807H194.773V230.094C194.773 231.121 194.07 231.564 193.103 231.564C192.041 231.564 191.628 231.031 191.402 230.656L190.307 231.108C190.652 231.909 191.526 232.591 193.09 232.591ZM193.077 228.845C191.939 228.845 191.347 227.972 191.347 226.685C191.347 225.428 191.926 224.452 193.077 224.452C194.189 224.452 194.786 225.359 194.786 226.685C194.786 228.036 194.176 228.845 193.077 228.845ZM29.1307 245.114C29.1307 244.07 29.7699 243.473 30.6562 243.473C31.5213 243.473 32.0455 244.04 32.0455 244.99V249H33.3196V244.837C33.3196 243.217 32.429 242.369 31.0909 242.369C30.1065 242.369 29.4631 242.825 29.1605 243.52H29.0795V242.455H27.8565V249H29.1307V245.114ZM38.2094 249.132C39.637 249.132 40.6469 248.429 40.9367 247.364L39.7307 247.146C39.5006 247.764 38.9466 248.08 38.2222 248.08C37.1313 248.08 36.3984 247.372 36.3643 246.111H41.0177V245.659C41.0177 243.294 39.6029 242.369 38.1199 242.369C36.2961 242.369 35.0944 243.759 35.0944 245.77C35.0944 247.803 36.279 249.132 38.2094 249.132ZM36.3685 245.156C36.4197 244.227 37.093 243.422 38.1285 243.422C39.1171 243.422 39.7648 244.155 39.7691 245.156H36.3685ZM44.1987 249H45.4941L46.8237 244.274H46.9217L48.2513 249H49.551L51.4728 242.455H50.1561L48.8819 247.24H48.818L47.5396 242.455H46.2228L44.9359 247.261H44.872L43.5893 242.455H42.2726L44.1987 249ZM54.4355 246.49H55.6542V246.409C55.6713 245.429 55.9525 244.99 56.6769 244.543C57.4397 244.082 57.9085 243.435 57.9085 242.476C57.9085 241.091 56.8602 240.153 55.2963 240.153C53.8602 240.153 52.7096 240.993 52.6542 242.527H53.9497C54.0008 241.624 54.6443 241.227 55.2963 241.227C56.0207 241.227 56.6088 241.709 56.6088 242.463C56.6088 243.098 56.2125 243.545 55.7054 243.861C54.9127 244.347 54.444 244.828 54.4355 246.409V246.49ZM55.0789 249.081C55.5434 249.081 55.9312 248.702 55.9312 248.229C55.9312 247.764 55.5434 247.381 55.0789 247.381C54.6102 247.381 54.2267 247.764 54.2267 248.229C54.2267 248.702 54.6102 249.081 55.0789 249.081Z" fill="black"/>
</g>
<path d="M335 183.651V111.251C335 104.278 327.06 98.6254 317.265 98.6254H126.118C116.323 98.6254 108.382 104.278 108.382 111.251V156.14C108.382 163.113 116.323 168.765 126.118 168.765H292.632C314.073 168.765 326.929 177.219 332.561 184.05C333.12 184.729 335 184.438 335 183.651Z" fill="#F6F6F6"/>
<g opacity="0.8">
<path d="M125.605 123H126.696V122.169C126.696 121.526 126.977 120.984 127.322 120.477L126.692 120.026C126.04 120.55 125.605 121.457 125.605 122.182V123ZM127.778 123H128.869V122.169C128.869 121.526 129.151 120.984 129.496 120.477L128.865 120.026C128.213 120.55 127.778 121.457 127.778 122.182V123ZM218.508 139.273H217.417V140.104C217.417 140.764 217.127 141.305 216.795 141.795L217.426 142.247C218.082 141.719 218.508 140.815 218.508 140.091V139.273ZM220.677 139.273H219.586V140.104C219.586 140.764 219.296 141.305 218.964 141.795L219.595 142.247C220.251 141.719 220.677 140.815 220.677 140.091V139.273Z" fill="#FF8A00"/>
<path d="M136.058 129H137.387L139.224 122.463H139.292L141.129 129H142.454L144.879 120.273H143.49L141.794 127.036H141.713L139.944 120.273H138.572L136.804 127.031H136.723L135.022 120.273H133.637L136.058 129ZM147.611 125.114C147.611 124.07 148.272 123.473 149.179 123.473C150.057 123.473 150.581 124.031 150.581 124.99V129H151.856V124.837C151.856 123.205 150.961 122.369 149.614 122.369C148.596 122.369 147.982 122.812 147.675 123.52H147.594V120.273H146.337V129H147.611V125.114ZM155.821 129.145C156.903 129.145 157.513 128.595 157.755 128.105H157.807V129H159.051V124.653C159.051 122.749 157.551 122.369 156.511 122.369C155.326 122.369 154.236 122.847 153.809 124.04L155.007 124.312C155.194 123.848 155.672 123.401 156.528 123.401C157.351 123.401 157.772 123.831 157.772 124.572V124.602C157.772 125.067 157.295 125.058 156.119 125.195C154.879 125.339 153.609 125.663 153.609 127.151C153.609 128.438 154.576 129.145 155.821 129.145ZM156.098 128.122C155.378 128.122 154.858 127.798 154.858 127.168C154.858 126.486 155.463 126.243 156.2 126.145C156.613 126.089 157.593 125.979 157.777 125.795V126.639C157.777 127.415 157.159 128.122 156.098 128.122ZM164.163 122.455H162.821V120.886H161.547V122.455H160.588V123.477H161.547V127.342C161.543 128.531 162.45 129.107 163.456 129.085C163.861 129.081 164.134 129.004 164.283 128.949L164.053 127.896C163.967 127.913 163.81 127.952 163.605 127.952C163.192 127.952 162.821 127.815 162.821 127.078V123.477H164.163V122.455ZM169.469 129H170.743V126.678L171.378 126.043L173.602 129H175.166L172.336 125.263L174.987 122.455H173.461L170.854 125.224H170.743V120.273H169.469V129ZM176.508 129H177.782V122.455H176.508V129ZM177.152 121.445C177.591 121.445 177.957 121.104 177.957 120.686C177.957 120.268 177.591 119.923 177.152 119.923C176.709 119.923 176.346 120.268 176.346 120.686C176.346 121.104 176.709 121.445 177.152 121.445ZM181.131 125.114C181.131 124.07 181.77 123.473 182.656 123.473C183.521 123.473 184.045 124.04 184.045 124.99V129H185.32V124.837C185.32 123.217 184.429 122.369 183.091 122.369C182.107 122.369 181.463 122.825 181.161 123.52H181.08V122.455H179.857V129H181.131V125.114ZM189.839 129.128C191.032 129.128 191.501 128.399 191.731 127.982H191.837V129H193.082V120.273H191.807V123.516H191.731C191.501 123.111 191.066 122.369 189.847 122.369C188.266 122.369 187.103 123.618 187.103 125.74C187.103 127.858 188.249 129.128 189.839 129.128ZM190.12 128.041C188.982 128.041 188.39 127.04 188.39 125.727C188.39 124.428 188.969 123.452 190.12 123.452C191.232 123.452 191.829 124.359 191.829 125.727C191.829 127.104 191.219 128.041 190.12 128.041ZM201.553 129.132C203.398 129.132 204.604 127.781 204.604 125.757C204.604 123.72 203.398 122.369 201.553 122.369C199.708 122.369 198.502 123.72 198.502 125.757C198.502 127.781 199.708 129.132 201.553 129.132ZM201.557 128.062C200.351 128.062 199.789 127.01 199.789 125.753C199.789 124.5 200.351 123.435 201.557 123.435C202.755 123.435 203.317 124.5 203.317 125.753C203.317 127.01 202.755 128.062 201.557 128.062ZM209.501 122.455H208.091V121.866C208.091 121.287 208.33 120.972 208.952 120.972C209.216 120.972 209.403 121.031 209.523 121.07L209.821 120.038C209.642 119.97 209.271 119.864 208.756 119.864C207.72 119.864 206.813 120.469 206.813 121.696V122.455H205.803V123.477H206.813V129H208.091V123.477H209.501V122.455ZM217.469 129.132C219.016 129.132 220.017 128.203 220.158 126.929H218.918C218.756 127.636 218.206 128.054 217.477 128.054C216.399 128.054 215.705 127.155 215.705 125.727C215.705 124.325 216.412 123.443 217.477 123.443C218.287 123.443 218.781 123.955 218.918 124.568H220.158C220.022 123.247 218.943 122.369 217.456 122.369C215.611 122.369 214.418 123.759 214.418 125.757C214.418 127.73 215.568 129.132 217.469 129.132ZM224.638 129.132C226.483 129.132 227.689 127.781 227.689 125.757C227.689 123.72 226.483 122.369 224.638 122.369C222.792 122.369 221.586 123.72 221.586 125.757C221.586 127.781 222.792 129.132 224.638 129.132ZM224.642 128.062C223.436 128.062 222.873 127.01 222.873 125.753C222.873 124.5 223.436 123.435 224.642 123.435C225.839 123.435 226.402 124.5 226.402 125.753C226.402 127.01 225.839 128.062 224.642 128.062ZM232.228 129.132C234.073 129.132 235.279 127.781 235.279 125.757C235.279 123.72 234.073 122.369 232.228 122.369C230.383 122.369 229.177 123.72 229.177 125.757C229.177 127.781 230.383 129.132 232.228 129.132ZM232.232 128.062C231.026 128.062 230.464 127.01 230.464 125.753C230.464 124.5 231.026 123.435 232.232 123.435C233.43 123.435 233.992 124.5 233.992 125.753C233.992 127.01 233.43 128.062 232.232 128.062ZM237.061 129H238.336V126.678L238.97 126.043L241.195 129H242.759L239.929 125.263L242.58 122.455H241.054L238.446 125.224H238.336V120.273H237.061V129ZM244.101 129H245.375V122.455H244.101V129ZM244.745 121.445C245.183 121.445 245.55 121.104 245.55 120.686C245.55 120.268 245.183 119.923 244.745 119.923C244.301 119.923 243.939 120.268 243.939 120.686C243.939 121.104 244.301 121.445 244.745 121.445ZM248.723 125.114C248.723 124.07 249.363 123.473 250.249 123.473C251.114 123.473 251.638 124.04 251.638 124.99V129H252.912V124.837C252.912 123.217 252.022 122.369 250.684 122.369C249.699 122.369 249.056 122.825 248.753 123.52H248.672V122.455H247.449V129H248.723V125.114ZM257.726 131.591C259.392 131.591 260.679 130.828 260.679 129.145V122.455H259.43V123.516H259.336C259.11 123.111 258.659 122.369 257.44 122.369C255.859 122.369 254.696 123.618 254.696 125.702C254.696 127.79 255.885 128.902 257.432 128.902C258.633 128.902 259.098 128.224 259.328 127.807H259.409V129.094C259.409 130.121 258.706 130.564 257.738 130.564C256.677 130.564 256.264 130.031 256.038 129.656L254.943 130.108C255.288 130.909 256.162 131.591 257.726 131.591ZM257.713 127.845C256.575 127.845 255.983 126.972 255.983 125.685C255.983 124.428 256.562 123.452 257.713 123.452C258.825 123.452 259.422 124.359 259.422 125.685C259.422 127.036 258.812 127.845 257.713 127.845ZM269.339 122.455H267.996V120.886H266.722V122.455H265.763V123.477H266.722V127.342C266.718 128.531 267.626 129.107 268.631 129.085C269.036 129.081 269.309 129.004 269.458 128.949L269.228 127.896C269.143 127.913 268.985 127.952 268.78 127.952C268.367 127.952 267.996 127.815 267.996 127.078V123.477H269.339V122.455ZM275.254 126.286C275.259 127.398 274.432 127.926 273.716 127.926C272.928 127.926 272.382 127.355 272.382 126.464V122.455H271.108V126.618C271.108 128.241 271.999 129.085 273.256 129.085C274.24 129.085 274.909 128.565 275.212 127.866H275.28V129H276.533V122.455H275.254V126.286ZM281.66 122.455H280.318V120.886H279.044V122.455H278.085V123.477H279.044V127.342C279.039 128.531 279.947 129.107 280.953 129.085C281.358 129.081 281.63 129.004 281.78 128.949L281.549 127.896C281.464 127.913 281.307 127.952 281.102 127.952C280.689 127.952 280.318 127.815 280.318 127.078V123.477H281.66V122.455ZM286.116 129.132C287.962 129.132 289.168 127.781 289.168 125.757C289.168 123.72 287.962 122.369 286.116 122.369C284.271 122.369 283.065 123.72 283.065 125.757C283.065 127.781 284.271 129.132 286.116 129.132ZM286.121 128.062C284.915 128.062 284.352 127.01 284.352 125.753C284.352 124.5 284.915 123.435 286.121 123.435C287.318 123.435 287.881 124.5 287.881 125.753C287.881 127.01 287.318 128.062 286.121 128.062ZM290.95 129H292.224V125.003C292.224 124.146 292.884 123.528 293.788 123.528C294.052 123.528 294.35 123.575 294.453 123.605V122.386C294.325 122.369 294.073 122.357 293.911 122.357C293.144 122.357 292.488 122.791 292.25 123.494H292.181V122.455H290.95V129ZM295.915 129H297.189V122.455H295.915V129ZM296.559 121.445C296.998 121.445 297.364 121.104 297.364 120.686C297.364 120.268 296.998 119.923 296.559 119.923C296.116 119.923 295.753 120.268 295.753 120.686C295.753 121.104 296.116 121.445 296.559 121.445ZM301.168 129.145C302.251 129.145 302.86 128.595 303.103 128.105H303.154V129H304.399V124.653C304.399 122.749 302.899 122.369 301.859 122.369C300.674 122.369 299.583 122.847 299.157 124.04L300.354 124.312C300.542 123.848 301.019 123.401 301.876 123.401C302.698 123.401 303.12 123.831 303.12 124.572V124.602C303.12 125.067 302.643 125.058 301.467 125.195C300.227 125.339 298.957 125.663 298.957 127.151C298.957 128.438 299.924 129.145 301.168 129.145ZM301.445 128.122C300.725 128.122 300.205 127.798 300.205 127.168C300.205 126.486 300.81 126.243 301.548 126.145C301.961 126.089 302.941 125.979 303.124 125.795V126.639C303.124 127.415 302.506 128.122 301.445 128.122ZM307.73 120.273H306.456V129H307.73V120.273ZM314.709 124.053C314.445 123.034 313.648 122.369 312.233 122.369C310.754 122.369 309.706 123.149 309.706 124.308C309.706 125.237 310.268 125.855 311.496 126.128L312.604 126.371C313.234 126.511 313.528 126.793 313.528 127.202C313.528 127.709 312.987 128.105 312.152 128.105C311.389 128.105 310.899 127.777 310.746 127.134L309.514 127.321C309.727 128.48 310.69 129.132 312.16 129.132C313.741 129.132 314.837 128.293 314.837 127.108C314.837 126.183 314.248 125.612 313.047 125.335L312.007 125.097C311.287 124.926 310.976 124.683 310.98 124.24C310.976 123.737 311.521 123.379 312.246 123.379C313.038 123.379 313.405 123.818 313.554 124.257L314.709 124.053ZM128.307 148.128C129.5 148.128 129.969 147.399 130.199 146.982H130.305V148H131.55V139.273H130.276V142.516H130.199C129.969 142.111 129.534 141.369 128.315 141.369C126.734 141.369 125.571 142.618 125.571 144.74C125.571 146.858 126.717 148.128 128.307 148.128ZM128.588 147.041C127.45 147.041 126.858 146.04 126.858 144.727C126.858 143.428 127.438 142.452 128.588 142.452C129.7 142.452 130.297 143.359 130.297 144.727C130.297 146.104 129.688 147.041 128.588 147.041ZM136.485 148.132C138.331 148.132 139.536 146.781 139.536 144.757C139.536 142.72 138.331 141.369 136.485 141.369C134.64 141.369 133.434 142.72 133.434 144.757C133.434 146.781 134.64 148.132 136.485 148.132ZM136.49 147.062C135.284 147.062 134.721 146.01 134.721 144.753C134.721 143.5 135.284 142.435 136.49 142.435C137.687 142.435 138.25 143.5 138.25 144.753C138.25 146.01 137.687 147.062 136.49 147.062ZM145.66 150.455C146.712 150.455 147.377 149.905 147.756 148.874L150.462 141.467L149.086 141.455L147.428 146.534H147.36L145.703 141.455H144.339L146.734 148.085L146.576 148.52C146.252 149.389 145.796 149.462 145.097 149.27L144.791 150.314C144.944 150.382 145.276 150.455 145.66 150.455ZM154.546 148.132C156.391 148.132 157.597 146.781 157.597 144.757C157.597 142.72 156.391 141.369 154.546 141.369C152.701 141.369 151.495 142.72 151.495 144.757C151.495 146.781 152.701 148.132 154.546 148.132ZM154.55 147.062C153.344 147.062 152.782 146.01 152.782 144.753C152.782 143.5 153.344 142.435 154.55 142.435C155.748 142.435 156.31 143.5 156.31 144.753C156.31 146.01 155.748 147.062 154.55 147.062ZM163.525 145.286C163.53 146.398 162.703 146.926 161.987 146.926C161.199 146.926 160.653 146.355 160.653 145.464V141.455H159.379V145.618C159.379 147.241 160.27 148.085 161.527 148.085C162.511 148.085 163.18 147.565 163.483 146.866H163.551V148H164.804V141.455H163.525V145.286ZM170.412 150.455H171.686V146.982H171.763C171.993 147.399 172.461 148.128 173.655 148.128C175.24 148.128 176.39 146.858 176.39 144.74C176.39 142.618 175.223 141.369 173.642 141.369C172.427 141.369 171.988 142.111 171.763 142.516H171.656V141.455H170.412V150.455ZM171.66 144.727C171.66 143.359 172.257 142.452 173.369 142.452C174.524 142.452 175.103 143.428 175.103 144.727C175.103 146.04 174.507 147.041 173.369 147.041C172.274 147.041 171.66 146.104 171.66 144.727ZM178.178 148H179.452V144.003C179.452 143.146 180.113 142.528 181.016 142.528C181.28 142.528 181.579 142.575 181.681 142.605V141.386C181.553 141.369 181.302 141.357 181.14 141.357C180.373 141.357 179.716 141.791 179.478 142.494H179.409V141.455H178.178V148ZM185.73 148.132C187.158 148.132 188.168 147.429 188.457 146.364L187.251 146.146C187.021 146.764 186.467 147.08 185.743 147.08C184.652 147.08 183.919 146.372 183.885 145.111H188.538V144.659C188.538 142.294 187.124 141.369 185.641 141.369C183.817 141.369 182.615 142.759 182.615 144.77C182.615 146.803 183.8 148.132 185.73 148.132ZM183.889 144.156C183.94 143.227 184.614 142.422 185.649 142.422C186.638 142.422 187.285 143.155 187.29 144.156H183.889ZM193.427 141.455H192.017V140.866C192.017 140.287 192.255 139.972 192.877 139.972C193.142 139.972 193.329 140.031 193.448 140.07L193.747 139.038C193.568 138.97 193.197 138.864 192.681 138.864C191.646 138.864 190.738 139.469 190.738 140.696V141.455H189.728V142.477H190.738V148H192.017V142.477H193.427V141.455ZM197.665 148.132C199.092 148.132 200.102 147.429 200.392 146.364L199.186 146.146C198.956 146.764 198.402 147.08 197.678 147.08C196.587 147.08 195.854 146.372 195.82 145.111H200.473V144.659C200.473 142.294 199.058 141.369 197.575 141.369C195.752 141.369 194.55 142.759 194.55 144.77C194.55 146.803 195.735 148.132 197.665 148.132ZM195.824 144.156C195.875 143.227 196.548 142.422 197.584 142.422C198.573 142.422 199.22 143.155 199.225 144.156H195.824ZM202.247 148H203.521V144.003C203.521 143.146 204.182 142.528 205.085 142.528C205.349 142.528 205.647 142.575 205.75 142.605V141.386C205.622 141.369 205.37 141.357 205.208 141.357C204.441 141.357 203.785 141.791 203.547 142.494H203.478V141.455H202.247V148ZM208.606 145.49H209.825V145.409C209.842 144.429 210.123 143.99 210.847 143.543C211.61 143.082 212.079 142.435 212.079 141.476C212.079 140.091 211.03 139.153 209.467 139.153C208.03 139.153 206.88 139.993 206.825 141.527H208.12C208.171 140.624 208.815 140.227 209.467 140.227C210.191 140.227 210.779 140.709 210.779 141.463C210.779 142.098 210.383 142.545 209.876 142.861C209.083 143.347 208.614 143.828 208.606 145.409V145.49ZM209.249 148.081C209.714 148.081 210.102 147.702 210.102 147.229C210.102 146.764 209.714 146.381 209.249 146.381C208.78 146.381 208.397 146.764 208.397 147.229C208.397 147.702 208.78 148.081 209.249 148.081Z" fill="black"/>
</g>
</svg>
