<svg width="378" height="400" viewBox="0 0 378 400" fill="none" xmlns="http://www.w3.org/2000/svg">
<path d="M0 5C0 2.23857 2.23858 0 5 0H373C375.761 0 378 2.23858 378 5V395C378 397.761 375.761 400 373 400H5C2.23858 400 0 397.761 0 395V5Z" fill="white"/>
<path d="M34.5 128.864C35.8807 128.864 37 127.744 37 126.364C37 124.983 35.8807 123.864 34.5 123.864C33.1193 123.864 32 124.983 32 126.364C32 127.744 33.1193 128.864 34.5 128.864Z" fill="black"/>
<path d="M55.8864 119.364H54.4091L58.6818 131H60.1364L64.4091 119.364H62.9318L59.4773 129.159H59.3409L55.8864 119.364ZM67.7955 131.205C69.3182 131.205 70.1136 130.386 70.3864 129.818H70.4545V131H71.7955V125.25C71.7955 122.477 69.6818 122.159 68.5682 122.159C67.25 122.159 65.75 122.614 65.0682 124.205L66.3409 124.659C66.6364 124.023 67.3352 123.341 68.6136 123.341C69.8466 123.341 70.4545 123.994 70.4545 125.114V125.159C70.4545 125.807 69.7955 125.75 68.2045 125.955C66.5852 126.165 64.8182 126.523 64.8182 128.523C64.8182 130.227 66.1364 131.205 67.7955 131.205ZM68 130C66.9318 130 66.1591 129.523 66.1591 128.591C66.1591 127.568 67.0909 127.25 68.1364 127.114C68.7045 127.045 70.2273 126.886 70.4545 126.614V127.841C70.4545 128.932 69.5909 130 68 130ZM74.2429 131H75.5838V125.477C75.5838 124.295 76.5156 123.432 77.7884 123.432C78.1463 123.432 78.5156 123.5 78.6065 123.523V122.159C78.4531 122.148 78.1009 122.136 77.902 122.136C76.8565 122.136 75.9474 122.727 75.6293 123.591H75.5384V122.273H74.2429V131ZM80.196 131H81.5369V122.273H80.196V131ZM80.8778 120.818C81.4006 120.818 81.8324 120.409 81.8324 119.909C81.8324 119.409 81.4006 119 80.8778 119C80.3551 119 79.9233 119.409 79.9233 119.909C79.9233 120.409 80.3551 120.818 80.8778 120.818ZM87.652 131.182C89.4247 131.182 90.7202 130.295 91.1293 128.977L89.8338 128.614C89.4929 129.523 88.7031 129.977 87.652 129.977C86.0781 129.977 84.9929 128.96 84.9304 127.091H91.2656V126.523C91.2656 123.273 89.3338 122.159 87.5156 122.159C85.152 122.159 83.5838 124.023 83.5838 126.705C83.5838 129.386 85.1293 131.182 87.652 131.182ZM84.9304 125.932C85.0213 124.574 85.9815 123.364 87.5156 123.364C88.9702 123.364 89.902 124.455 89.902 125.932H84.9304ZM97.1009 122.273H95.2372V120.182H93.8963V122.273H92.5781V123.409H93.8963V128.864C93.8963 130.386 95.1236 131.114 96.2599 131.114C96.7599 131.114 97.0781 131.023 97.2599 130.955L96.9872 129.75C96.8736 129.773 96.6918 129.818 96.3963 129.818C95.8054 129.818 95.2372 129.636 95.2372 128.5V123.409H97.1009V122.273ZM99.9815 134.273C101.192 134.273 102.044 133.631 102.55 132.273L106.266 122.295L104.8 122.273L102.391 129.227H102.3L99.8906 122.273H98.4361L101.663 131.045L101.413 131.727C100.925 133.057 100.322 133.182 99.3452 132.932L99.0043 134.114C99.1406 134.182 99.527 134.273 99.9815 134.273ZM116.085 131.182C118.449 131.182 120.04 129.386 120.04 126.682C120.04 123.955 118.449 122.159 116.085 122.159C113.722 122.159 112.131 123.955 112.131 126.682C112.131 129.386 113.722 131.182 116.085 131.182ZM116.085 129.977C114.29 129.977 113.472 128.432 113.472 126.682C113.472 124.932 114.29 123.364 116.085 123.364C117.881 123.364 118.699 124.932 118.699 126.682C118.699 128.432 117.881 129.977 116.085 129.977ZM125.973 122.273H124.018V121.386C124.018 120.523 124.382 120.068 125.268 120.068C125.655 120.068 125.882 120.159 126.018 120.205L126.405 119.045C126.2 118.955 125.791 118.818 125.132 118.818C123.882 118.818 122.678 119.568 122.678 121.068V122.273H121.268V123.409H122.678V131H124.018V123.409H125.973V122.273ZM132.534 131H133.943V126.455H136.489C136.591 126.455 136.688 126.455 136.784 126.449L139.239 131H140.875L138.244 126.193C139.727 125.688 140.42 124.477 140.42 122.932C140.42 120.875 139.193 119.364 136.466 119.364H132.534V131ZM133.943 125.182V120.614H136.42C138.307 120.614 139.034 121.534 139.034 122.932C139.034 124.33 138.307 125.182 136.443 125.182H133.943ZM146.152 131.182C147.925 131.182 149.22 130.295 149.629 128.977L148.334 128.614C147.993 129.523 147.203 129.977 146.152 129.977C144.578 129.977 143.493 128.96 143.43 127.091H149.766V126.523C149.766 123.273 147.834 122.159 146.016 122.159C143.652 122.159 142.084 124.023 142.084 126.705C142.084 129.386 143.629 131.182 146.152 131.182ZM143.43 125.932C143.521 124.574 144.482 123.364 146.016 123.364C147.47 123.364 148.402 124.455 148.402 125.932H143.43ZM155.351 131.182C157.283 131.182 158.555 130 158.783 128.455H157.442C157.192 129.409 156.396 129.977 155.351 129.977C153.76 129.977 152.737 128.659 152.737 126.636C152.737 124.659 153.783 123.364 155.351 123.364C156.533 123.364 157.237 124.091 157.442 124.886H158.783C158.555 123.25 157.169 122.159 155.328 122.159C152.964 122.159 151.396 124.023 151.396 126.682C151.396 129.295 152.896 131.182 155.351 131.182ZM160.743 131H162.084V122.273H160.743V131ZM161.425 120.818C161.947 120.818 162.379 120.409 162.379 119.909C162.379 119.409 161.947 119 161.425 119C160.902 119 160.47 119.409 160.47 119.909C160.47 120.409 160.902 120.818 161.425 120.818ZM164.54 134.273H165.881V129.659H165.994C166.29 130.136 166.858 131.182 168.54 131.182C170.722 131.182 172.244 129.432 172.244 126.659C172.244 123.909 170.722 122.159 168.517 122.159C166.812 122.159 166.29 123.205 165.994 123.659H165.835V122.273H164.54V134.273ZM165.858 126.636C165.858 124.682 166.722 123.364 168.358 123.364C170.062 123.364 170.903 124.795 170.903 126.636C170.903 128.5 170.04 129.977 168.358 129.977C166.744 129.977 165.858 128.614 165.858 126.636ZM177.949 131.182C179.722 131.182 181.017 130.295 181.426 128.977L180.131 128.614C179.79 129.523 179 129.977 177.949 129.977C176.375 129.977 175.29 128.96 175.227 127.091H181.562V126.523C181.562 123.273 179.631 122.159 177.812 122.159C175.449 122.159 173.881 124.023 173.881 126.705C173.881 129.386 175.426 131.182 177.949 131.182ZM175.227 125.932C175.318 124.574 176.278 123.364 177.812 123.364C179.267 123.364 180.199 124.455 180.199 125.932H175.227ZM189.784 124.227C189.364 122.989 188.42 122.159 186.693 122.159C184.852 122.159 183.489 123.205 183.489 124.682C183.489 125.886 184.205 126.693 185.807 127.068L187.261 127.409C188.142 127.614 188.557 128.034 188.557 128.636C188.557 129.386 187.761 130 186.511 130C185.415 130 184.727 129.528 184.489 128.591L183.216 128.909C183.528 130.392 184.75 131.182 186.534 131.182C188.562 131.182 189.943 130.074 189.943 128.568C189.943 127.352 189.182 126.585 187.625 126.205L186.33 125.886C185.295 125.631 184.83 125.284 184.83 124.614C184.83 123.864 185.625 123.318 186.693 123.318C187.864 123.318 188.347 123.966 188.58 124.568L189.784 124.227Z" fill="black"/>
<path d="M34.5 172.864C35.8807 172.864 37 171.744 37 170.364C37 168.983 35.8807 167.864 34.5 167.864C33.1193 167.864 32 168.983 32 170.364C32 171.744 33.1193 172.864 34.5 172.864Z" fill="black"/>
<path d="M56.8182 163.364H55.4091V175H56.8182V163.364ZM59.4616 175H60.8026V169.545C60.8026 168.267 61.7344 167.364 62.7798 167.364C63.7969 167.364 64.5071 168.028 64.5071 169.023V175H65.8707V169.318C65.8707 168.193 66.5753 167.364 67.8026 167.364C68.7571 167.364 69.5753 167.869 69.5753 169.159V175H70.9162V169.159C70.9162 167.108 69.8139 166.159 68.2571 166.159C67.0071 166.159 66.0923 166.733 65.6435 167.636H65.5526C65.1207 166.705 64.3594 166.159 63.2116 166.159C62.0753 166.159 61.2344 166.705 60.8707 167.636H60.7571V166.273H59.4616V175ZM73.3679 178.273H74.7088V173.659H74.8224C75.1179 174.136 75.6861 175.182 77.3679 175.182C79.5497 175.182 81.0724 173.432 81.0724 170.659C81.0724 167.909 79.5497 166.159 77.3452 166.159C75.6406 166.159 75.1179 167.205 74.8224 167.659H74.6634V166.273H73.3679V178.273ZM74.6861 170.636C74.6861 168.682 75.5497 167.364 77.1861 167.364C78.8906 167.364 79.7315 168.795 79.7315 170.636C79.7315 172.5 78.8679 173.977 77.1861 173.977C75.5724 173.977 74.6861 172.614 74.6861 170.636ZM83.1179 175H84.4588V169.477C84.4588 168.295 85.3906 167.432 86.6634 167.432C87.0213 167.432 87.3906 167.5 87.4815 167.523V166.159C87.3281 166.148 86.9759 166.136 86.777 166.136C85.7315 166.136 84.8224 166.727 84.5043 167.591H84.4134V166.273H83.1179V175ZM92.3509 175.182C94.7145 175.182 96.3054 173.386 96.3054 170.682C96.3054 167.955 94.7145 166.159 92.3509 166.159C89.9872 166.159 88.3963 167.955 88.3963 170.682C88.3963 173.386 89.9872 175.182 92.3509 175.182ZM92.3509 173.977C90.5554 173.977 89.7372 172.432 89.7372 170.682C89.7372 168.932 90.5554 167.364 92.3509 167.364C94.1463 167.364 94.9645 168.932 94.9645 170.682C94.9645 172.432 94.1463 173.977 92.3509 173.977ZM105.176 166.273H103.722L101.312 173.227H101.222L98.8125 166.273H97.358L100.585 175H101.949L105.176 166.273ZM110.293 175.182C112.065 175.182 113.361 174.295 113.77 172.977L112.474 172.614C112.134 173.523 111.344 173.977 110.293 173.977C108.719 173.977 107.634 172.96 107.571 171.091H113.906V170.523C113.906 167.273 111.974 166.159 110.156 166.159C107.793 166.159 106.224 168.023 106.224 170.705C106.224 173.386 107.77 175.182 110.293 175.182ZM107.571 169.932C107.662 168.574 108.622 167.364 110.156 167.364C111.611 167.364 112.543 168.455 112.543 169.932H107.571ZM129.991 167C129.56 164.614 127.651 163.205 125.31 163.205C122.332 163.205 120.173 165.5 120.173 169.182C120.173 172.864 122.332 175.159 125.31 175.159C127.651 175.159 129.56 173.75 129.991 171.364H128.582C128.241 172.977 126.855 173.841 125.31 173.841C123.196 173.841 121.537 172.205 121.537 169.182C121.537 166.159 123.196 164.523 125.31 164.523C126.855 164.523 128.241 165.386 128.582 167H129.991ZM135.632 175.182C137.996 175.182 139.587 173.386 139.587 170.682C139.587 167.955 137.996 166.159 135.632 166.159C133.268 166.159 131.678 167.955 131.678 170.682C131.678 173.386 133.268 175.182 135.632 175.182ZM135.632 173.977C133.837 173.977 133.018 172.432 133.018 170.682C133.018 168.932 133.837 167.364 135.632 167.364C137.428 167.364 138.246 168.932 138.246 170.682C138.246 172.432 137.428 173.977 135.632 173.977ZM145.179 175.182C147.543 175.182 149.134 173.386 149.134 170.682C149.134 167.955 147.543 166.159 145.179 166.159C142.815 166.159 141.224 167.955 141.224 170.682C141.224 173.386 142.815 175.182 145.179 175.182ZM145.179 173.977C143.384 173.977 142.565 172.432 142.565 170.682C142.565 168.932 143.384 167.364 145.179 167.364C146.974 167.364 147.793 168.932 147.793 170.682C147.793 172.432 146.974 173.977 145.179 173.977ZM151.18 175H152.521V171.733L153.459 170.864L156.726 175H158.43L154.47 170L158.158 166.273H156.499L152.68 170.159H152.521V163.364H151.18V175ZM159.884 175H161.224V166.273H159.884V175ZM160.565 164.818C161.088 164.818 161.52 164.409 161.52 163.909C161.52 163.409 161.088 163 160.565 163C160.043 163 159.611 163.409 159.611 163.909C159.611 164.409 160.043 164.818 160.565 164.818ZM165.021 169.75C165.021 168.227 165.964 167.364 167.249 167.364C168.493 167.364 169.249 168.176 169.249 169.545V175H170.589V169.455C170.589 167.227 169.402 166.159 167.635 166.159C166.317 166.159 165.499 166.75 165.089 167.636H164.976V166.273H163.68V175H165.021V169.75ZM176.562 178.455C178.653 178.455 180.335 177.5 180.335 175.25V166.273H179.04V167.659H178.903C178.608 167.205 178.062 166.159 176.358 166.159C174.153 166.159 172.631 167.909 172.631 170.591C172.631 173.318 174.222 174.864 176.335 174.864C178.04 174.864 178.585 173.864 178.881 173.386H178.994V175.159C178.994 176.614 177.972 177.273 176.562 177.273C174.977 177.273 174.42 176.438 174.062 175.955L172.994 176.705C173.54 177.619 174.614 178.455 176.562 178.455ZM176.517 173.659C174.835 173.659 173.972 172.386 173.972 170.568C173.972 168.795 174.812 167.364 176.517 167.364C178.153 167.364 179.017 168.682 179.017 170.568C179.017 172.5 178.131 173.659 176.517 173.659ZM187.949 175L189.119 171.705H193.824L194.994 175H196.472L192.199 163.364H190.744L186.472 175H187.949ZM189.562 170.455L191.426 165.205H191.517L193.381 170.455H189.562ZM198.284 175H199.58V173.659H199.739C200.034 174.136 200.602 175.182 202.284 175.182C204.466 175.182 205.989 173.432 205.989 170.659C205.989 167.909 204.466 166.159 202.261 166.159C200.557 166.159 200.034 167.205 199.739 167.659H199.625V163.364H198.284V175ZM199.602 170.636C199.602 168.682 200.466 167.364 202.102 167.364C203.807 167.364 204.648 168.795 204.648 170.636C204.648 172.5 203.784 173.977 202.102 173.977C200.489 173.977 199.602 172.614 199.602 170.636ZM208.04 175H209.381V166.273H208.04V175ZM208.722 164.818C209.244 164.818 209.676 164.409 209.676 163.909C209.676 163.409 209.244 163 208.722 163C208.199 163 207.767 163.409 207.767 163.909C207.767 164.409 208.199 164.818 208.722 164.818ZM213.178 163.364H211.837V175H213.178V163.364ZM215.634 175H216.974V166.273H215.634V175ZM216.315 164.818C216.838 164.818 217.27 164.409 217.27 163.909C217.27 163.409 216.838 163 216.315 163C215.793 163 215.361 163.409 215.361 163.909C215.361 164.409 215.793 164.818 216.315 164.818ZM223.226 166.273H221.362V164.182H220.021V166.273H218.703V167.409H220.021V172.864C220.021 174.386 221.249 175.114 222.385 175.114C222.885 175.114 223.203 175.023 223.385 174.955L223.112 173.75C222.999 173.773 222.817 173.818 222.521 173.818C221.93 173.818 221.362 173.636 221.362 172.5V167.409H223.226V166.273ZM226.107 178.273C227.317 178.273 228.169 177.631 228.675 176.273L232.391 166.295L230.925 166.273L228.516 173.227H228.425L226.016 166.273H224.561L227.788 175.045L227.538 175.727C227.05 177.057 226.447 177.182 225.47 176.932L225.129 178.114C225.266 178.182 225.652 178.273 226.107 178.273Z" fill="black"/>
<path d="M34.5 216.864C35.8807 216.864 37 215.744 37 214.364C37 212.983 35.8807 211.864 34.5 211.864C33.1193 211.864 32 212.983 32 214.364C32 215.744 33.1193 216.864 34.5 216.864Z" fill="black"/>
<path d="M56.8182 207.364H55.4091V219H56.8182V207.364ZM60.8026 213.75C60.8026 212.227 61.7457 211.364 63.0298 211.364C64.2741 211.364 65.0298 212.176 65.0298 213.545V219H66.3707V213.455C66.3707 211.227 65.1832 210.159 63.4162 210.159C62.098 210.159 61.2798 210.75 60.8707 211.636H60.7571V210.273H59.4616V219H60.8026V213.75ZM72.3665 219.182C74.2983 219.182 75.571 218 75.7983 216.455H74.4574C74.2074 217.409 73.4119 217.977 72.3665 217.977C70.7756 217.977 69.7528 216.659 69.7528 214.636C69.7528 212.659 70.7983 211.364 72.3665 211.364C73.5483 211.364 74.2528 212.091 74.4574 212.886H75.7983C75.571 211.25 74.1847 210.159 72.3438 210.159C69.9801 210.159 68.4119 212.023 68.4119 214.682C68.4119 217.295 69.9119 219.182 72.3665 219.182ZM77.7585 219H79.0994V213.477C79.0994 212.295 80.0312 211.432 81.304 211.432C81.6619 211.432 82.0312 211.5 82.1222 211.523V210.159C81.9688 210.148 81.6165 210.136 81.4176 210.136C80.3722 210.136 79.4631 210.727 79.1449 211.591H79.054V210.273H77.7585V219ZM87.1051 219.182C88.8778 219.182 90.1733 218.295 90.5824 216.977L89.2869 216.614C88.946 217.523 88.1562 217.977 87.1051 217.977C85.5312 217.977 84.446 216.96 84.3835 215.091H90.7188V214.523C90.7188 211.273 88.7869 210.159 86.9688 210.159C84.6051 210.159 83.0369 212.023 83.0369 214.705C83.0369 217.386 84.5824 219.182 87.1051 219.182ZM84.3835 213.932C84.4744 212.574 85.4347 211.364 86.9688 211.364C88.4233 211.364 89.3551 212.455 89.3551 213.932H84.3835ZM95.3267 219.205C96.8494 219.205 97.6449 218.386 97.9176 217.818H97.9858V219H99.3267V213.25C99.3267 210.477 97.2131 210.159 96.0994 210.159C94.7812 210.159 93.2812 210.614 92.5994 212.205L93.8722 212.659C94.1676 212.023 94.8665 211.341 96.1449 211.341C97.3778 211.341 97.9858 211.994 97.9858 213.114V213.159C97.9858 213.807 97.3267 213.75 95.7358 213.955C94.1165 214.165 92.3494 214.523 92.3494 216.523C92.3494 218.227 93.6676 219.205 95.3267 219.205ZM95.5312 218C94.4631 218 93.6903 217.523 93.6903 216.591C93.6903 215.568 94.6222 215.25 95.6676 215.114C96.2358 215.045 97.7585 214.886 97.9858 214.614V215.841C97.9858 216.932 97.1222 218 95.5312 218ZM107.956 212.227C107.536 210.989 106.592 210.159 104.865 210.159C103.024 210.159 101.661 211.205 101.661 212.682C101.661 213.886 102.376 214.693 103.979 215.068L105.433 215.409C106.314 215.614 106.729 216.034 106.729 216.636C106.729 217.386 105.933 218 104.683 218C103.587 218 102.899 217.528 102.661 216.591L101.388 216.909C101.7 218.392 102.922 219.182 104.706 219.182C106.734 219.182 108.115 218.074 108.115 216.568C108.115 215.352 107.354 214.585 105.797 214.205L104.501 213.886C103.467 213.631 103.001 213.284 103.001 212.614C103.001 211.864 103.797 211.318 104.865 211.318C106.036 211.318 106.518 211.966 106.751 212.568L107.956 212.227ZM113.793 219.182C115.565 219.182 116.861 218.295 117.27 216.977L115.974 216.614C115.634 217.523 114.844 217.977 113.793 217.977C112.219 217.977 111.134 216.96 111.071 215.091H117.406V214.523C117.406 211.273 115.474 210.159 113.656 210.159C111.293 210.159 109.724 212.023 109.724 214.705C109.724 217.386 111.27 219.182 113.793 219.182ZM111.071 213.932C111.162 212.574 112.122 211.364 113.656 211.364C115.111 211.364 116.043 212.455 116.043 213.932H111.071ZM133.491 211C133.06 208.614 131.151 207.205 128.81 207.205C125.832 207.205 123.673 209.5 123.673 213.182C123.673 216.864 125.832 219.159 128.81 219.159C131.151 219.159 133.06 217.75 133.491 215.364H132.082C131.741 216.977 130.355 217.841 128.81 217.841C126.696 217.841 125.037 216.205 125.037 213.182C125.037 210.159 126.696 208.523 128.81 208.523C130.355 208.523 131.741 209.386 132.082 211H133.491ZM141.087 215.432C141.087 217.068 139.837 217.818 138.837 217.818C137.723 217.818 136.928 217 136.928 215.727V210.273H135.587V215.818C135.587 218.045 136.768 219.114 138.405 219.114C139.723 219.114 140.587 218.409 140.996 217.523H141.087V219H142.428V210.273H141.087V215.432ZM146.224 207.364H144.884V219H146.224V207.364ZM148.68 219H150.021V210.273H148.68V219ZM149.362 208.818C149.885 208.818 150.317 208.409 150.317 207.909C150.317 207.409 149.885 207 149.362 207C148.839 207 148.408 207.409 148.408 207.909C148.408 208.409 148.839 208.818 149.362 208.818ZM153.818 213.75C153.818 212.227 154.761 211.364 156.045 211.364C157.29 211.364 158.045 212.176 158.045 213.545V219H159.386V213.455C159.386 211.227 158.199 210.159 156.432 210.159C155.114 210.159 154.295 210.75 153.886 211.636H153.773V210.273H152.477V219H153.818V213.75ZM164.405 219.205C165.928 219.205 166.723 218.386 166.996 217.818H167.064V219H168.405V213.25C168.405 210.477 166.291 210.159 165.178 210.159C163.859 210.159 162.359 210.614 161.678 212.205L162.95 212.659C163.246 212.023 163.945 211.341 165.223 211.341C166.456 211.341 167.064 211.994 167.064 213.114V213.159C167.064 213.807 166.405 213.75 164.814 213.955C163.195 214.165 161.428 214.523 161.428 216.523C161.428 218.227 162.746 219.205 164.405 219.205ZM164.609 218C163.541 218 162.768 217.523 162.768 216.591C162.768 215.568 163.7 215.25 164.746 215.114C165.314 215.045 166.837 214.886 167.064 214.614V215.841C167.064 216.932 166.2 218 164.609 218ZM170.852 219H172.193V213.477C172.193 212.295 173.125 211.432 174.398 211.432C174.756 211.432 175.125 211.5 175.216 211.523V210.159C175.062 210.148 174.71 210.136 174.511 210.136C173.466 210.136 172.557 210.727 172.239 211.591H172.148V210.273H170.852V219ZM177.935 222.273C179.145 222.273 179.997 221.631 180.503 220.273L184.219 210.295L182.753 210.273L180.344 217.227H180.253L177.844 210.273H176.389L179.616 219.045L179.366 219.727C178.878 221.057 178.276 221.182 177.298 220.932L176.957 222.114C177.094 222.182 177.48 222.273 177.935 222.273ZM190.675 219H192.084V215.227L193.538 213.591L197.584 219H199.288L194.402 212.614L199.288 207.364H197.447L192.22 213.136H192.084V207.364H190.675V219ZM202.271 213.75C202.271 212.227 203.214 211.364 204.499 211.364C205.743 211.364 206.499 212.176 206.499 213.545V219H207.839V213.455C207.839 211.227 206.652 210.159 204.885 210.159C203.567 210.159 202.749 210.75 202.339 211.636H202.226V210.273H200.93V219H202.271V213.75ZM213.835 219.182C216.199 219.182 217.79 217.386 217.79 214.682C217.79 211.955 216.199 210.159 213.835 210.159C211.472 210.159 209.881 211.955 209.881 214.682C209.881 217.386 211.472 219.182 213.835 219.182ZM213.835 217.977C212.04 217.977 211.222 216.432 211.222 214.682C211.222 212.932 212.04 211.364 213.835 211.364C215.631 211.364 216.449 212.932 216.449 214.682C216.449 216.432 215.631 217.977 213.835 217.977ZM221.517 219H222.835L224.744 212.295H224.881L226.79 219H228.108L230.767 210.273H229.358L227.472 216.932H227.381L225.54 210.273H224.108L222.244 216.955H222.153L220.267 210.273H218.858L221.517 219ZM233.881 207.364H232.54V219H233.881V207.364ZM239.996 219.182C241.768 219.182 243.064 218.295 243.473 216.977L242.178 216.614C241.837 217.523 241.047 217.977 239.996 217.977C238.422 217.977 237.337 216.96 237.274 215.091H243.609V214.523C243.609 211.273 241.678 210.159 239.859 210.159C237.496 210.159 235.928 212.023 235.928 214.705C235.928 217.386 237.473 219.182 239.996 219.182ZM237.274 213.932C237.365 212.574 238.325 211.364 239.859 211.364C241.314 211.364 242.246 212.455 242.246 213.932H237.274ZM248.945 219.182C250.626 219.182 251.195 218.136 251.49 217.659H251.649V219H252.945V207.364H251.604V211.659H251.49C251.195 211.205 250.672 210.159 248.967 210.159C246.763 210.159 245.24 211.909 245.24 214.659C245.24 217.432 246.763 219.182 248.945 219.182ZM249.126 217.977C247.445 217.977 246.581 216.5 246.581 214.636C246.581 212.795 247.422 211.364 249.126 211.364C250.763 211.364 251.626 212.682 251.626 214.636C251.626 216.614 250.74 217.977 249.126 217.977ZM259.109 222.455C261.2 222.455 262.882 221.5 262.882 219.25V210.273H261.587V211.659H261.45C261.155 211.205 260.609 210.159 258.905 210.159C256.7 210.159 255.178 211.909 255.178 214.591C255.178 217.318 256.768 218.864 258.882 218.864C260.587 218.864 261.132 217.864 261.428 217.386H261.541V219.159C261.541 220.614 260.518 221.273 259.109 221.273C257.524 221.273 256.967 220.438 256.609 219.955L255.541 220.705C256.087 221.619 257.161 222.455 259.109 222.455ZM259.064 217.659C257.382 217.659 256.518 216.386 256.518 214.568C256.518 212.795 257.359 211.364 259.064 211.364C260.7 211.364 261.564 212.682 261.564 214.568C261.564 216.5 260.678 217.659 259.064 217.659ZM268.996 219.182C270.768 219.182 272.064 218.295 272.473 216.977L271.178 216.614C270.837 217.523 270.047 217.977 268.996 217.977C267.422 217.977 266.337 216.96 266.274 215.091H272.609V214.523C272.609 211.273 270.678 210.159 268.859 210.159C266.496 210.159 264.928 212.023 264.928 214.705C264.928 217.386 266.473 219.182 268.996 219.182ZM266.274 213.932C266.365 212.574 267.325 211.364 268.859 211.364C270.314 211.364 271.246 212.455 271.246 213.932H266.274Z" fill="black"/>
<path d="M34.5 260.864C35.8807 260.864 37 259.744 37 258.364C37 256.983 35.8807 255.864 34.5 255.864C33.1193 255.864 32 256.983 32 258.364C32 259.744 33.1193 260.864 34.5 260.864Z" fill="black"/>
<path d="M55.4091 263H56.8182V257.795H63.0227V263H64.4318V251.364H63.0227V256.545H56.8182V251.364H55.4091V263ZM70.7301 263.182C72.5028 263.182 73.7983 262.295 74.2074 260.977L72.9119 260.614C72.571 261.523 71.7812 261.977 70.7301 261.977C69.1562 261.977 68.071 260.96 68.0085 259.091H74.3438V258.523C74.3438 255.273 72.4119 254.159 70.5938 254.159C68.2301 254.159 66.6619 256.023 66.6619 258.705C66.6619 261.386 68.2074 263.182 70.7301 263.182ZM68.0085 257.932C68.0994 256.574 69.0597 255.364 70.5938 255.364C72.0483 255.364 72.9801 256.455 72.9801 257.932H68.0085ZM78.9517 263.205C80.4744 263.205 81.2699 262.386 81.5426 261.818H81.6108V263H82.9517V257.25C82.9517 254.477 80.8381 254.159 79.7244 254.159C78.4062 254.159 76.9062 254.614 76.2244 256.205L77.4972 256.659C77.7926 256.023 78.4915 255.341 79.7699 255.341C81.0028 255.341 81.6108 255.994 81.6108 257.114V257.159C81.6108 257.807 80.9517 257.75 79.3608 257.955C77.7415 258.165 75.9744 258.523 75.9744 260.523C75.9744 262.227 77.2926 263.205 78.9517 263.205ZM79.1562 262C78.0881 262 77.3153 261.523 77.3153 260.591C77.3153 259.568 78.2472 259.25 79.2926 259.114C79.8608 259.045 81.3835 258.886 81.6108 258.614V259.841C81.6108 260.932 80.7472 262 79.1562 262ZM86.7401 251.364H85.3991V263H86.7401V251.364ZM92.9915 254.273H91.1278V252.182H89.7869V254.273H88.4688V255.409H89.7869V260.864C89.7869 262.386 91.0142 263.114 92.1506 263.114C92.6506 263.114 92.9688 263.023 93.1506 262.955L92.8778 261.75C92.7642 261.773 92.5824 261.818 92.2869 261.818C91.696 261.818 91.1278 261.636 91.1278 260.5V255.409H92.9915V254.273ZM96.5369 257.75C96.5369 256.227 97.5085 255.364 98.8324 255.364C100.094 255.364 100.855 256.159 100.855 257.545V263H102.196V257.455C102.196 255.21 101.003 254.159 99.2188 254.159C97.8438 254.159 97.0597 254.733 96.6506 255.636H96.5369V251.364H95.196V263H96.5369V257.75ZM111.717 263.205C113.24 263.205 114.036 262.386 114.308 261.818H114.376V263H115.717V257.25C115.717 254.477 113.604 254.159 112.49 254.159C111.172 254.159 109.672 254.614 108.99 256.205L110.263 256.659C110.558 256.023 111.257 255.341 112.536 255.341C113.768 255.341 114.376 255.994 114.376 257.114V257.159C114.376 257.807 113.717 257.75 112.126 257.955C110.507 258.165 108.74 258.523 108.74 260.523C108.74 262.227 110.058 263.205 111.717 263.205ZM111.922 262C110.854 262 110.081 261.523 110.081 260.591C110.081 259.568 111.013 259.25 112.058 259.114C112.626 259.045 114.149 258.886 114.376 258.614V259.841C114.376 260.932 113.513 262 111.922 262ZM119.506 257.75C119.506 256.227 120.449 255.364 121.733 255.364C122.977 255.364 123.733 256.176 123.733 257.545V263H125.074V257.455C125.074 255.227 123.886 254.159 122.119 254.159C120.801 254.159 119.983 254.75 119.574 255.636H119.46V254.273H118.165V263H119.506V257.75ZM130.82 263.182C132.501 263.182 133.07 262.136 133.365 261.659H133.524V263H134.82V251.364H133.479V255.659H133.365C133.07 255.205 132.547 254.159 130.842 254.159C128.638 254.159 127.115 255.909 127.115 258.659C127.115 261.432 128.638 263.182 130.82 263.182ZM131.001 261.977C129.32 261.977 128.456 260.5 128.456 258.636C128.456 256.795 129.297 255.364 131.001 255.364C132.638 255.364 133.501 256.682 133.501 258.636C133.501 260.614 132.615 261.977 131.001 261.977ZM151.371 251.364H149.984V260.523H149.871L143.507 251.364H142.143V263H143.553V253.864H143.666L150.007 263H151.371V251.364ZM159.509 259.432C159.509 261.068 158.259 261.818 157.259 261.818C156.145 261.818 155.349 261 155.349 259.727V254.273H154.009V259.818C154.009 262.045 155.19 263.114 156.827 263.114C158.145 263.114 159.009 262.409 159.418 261.523H159.509V263H160.849V254.273H159.509V259.432ZM167.101 254.273H165.237V252.182H163.896V254.273H162.578V255.409H163.896V260.864C163.896 262.386 165.124 263.114 166.26 263.114C166.76 263.114 167.078 263.023 167.26 262.955L166.987 261.75C166.874 261.773 166.692 261.818 166.396 261.818C165.805 261.818 165.237 261.636 165.237 260.5V255.409H167.101V254.273ZM169.118 263H170.459V257.477C170.459 256.295 171.391 255.432 172.663 255.432C173.021 255.432 173.391 255.5 173.482 255.523V254.159C173.328 254.148 172.976 254.136 172.777 254.136C171.732 254.136 170.822 254.727 170.504 255.591H170.413V254.273H169.118V263ZM175.071 263H176.412V254.273H175.071V263ZM175.753 252.818C176.276 252.818 176.707 252.409 176.707 251.909C176.707 251.409 176.276 251 175.753 251C175.23 251 174.798 251.409 174.798 251.909C174.798 252.409 175.23 252.818 175.753 252.818ZM182.663 254.273H180.8V252.182H179.459V254.273H178.141V255.409H179.459V260.864C179.459 262.386 180.686 263.114 181.822 263.114C182.322 263.114 182.641 263.023 182.822 262.955L182.55 261.75C182.436 261.773 182.254 261.818 181.959 261.818C181.368 261.818 180.8 261.636 180.8 260.5V255.409H182.663V254.273ZM184.68 263H186.021V254.273H184.68V263ZM185.362 252.818C185.885 252.818 186.317 252.409 186.317 251.909C186.317 251.409 185.885 251 185.362 251C184.839 251 184.408 251.409 184.408 251.909C184.408 252.409 184.839 252.818 185.362 252.818ZM192.023 263.182C194.386 263.182 195.977 261.386 195.977 258.682C195.977 255.955 194.386 254.159 192.023 254.159C189.659 254.159 188.068 255.955 188.068 258.682C188.068 261.386 189.659 263.182 192.023 263.182ZM192.023 261.977C190.227 261.977 189.409 260.432 189.409 258.682C189.409 256.932 190.227 255.364 192.023 255.364C193.818 255.364 194.636 256.932 194.636 258.682C194.636 260.432 193.818 261.977 192.023 261.977ZM199.365 257.75C199.365 256.227 200.308 255.364 201.592 255.364C202.837 255.364 203.592 256.176 203.592 257.545V263H204.933V257.455C204.933 255.227 203.746 254.159 201.979 254.159C200.661 254.159 199.842 254.75 199.433 255.636H199.32V254.273H198.024V263H199.365V257.75ZM209.952 263.205C211.474 263.205 212.27 262.386 212.543 261.818H212.611V263H213.952V257.25C213.952 254.477 211.838 254.159 210.724 254.159C209.406 254.159 207.906 254.614 207.224 256.205L208.497 256.659C208.793 256.023 209.491 255.341 210.77 255.341C212.003 255.341 212.611 255.994 212.611 257.114V257.159C212.611 257.807 211.952 257.75 210.361 257.955C208.741 258.165 206.974 258.523 206.974 260.523C206.974 262.227 208.293 263.205 209.952 263.205ZM210.156 262C209.088 262 208.315 261.523 208.315 260.591C208.315 259.568 209.247 259.25 210.293 259.114C210.861 259.045 212.384 258.886 212.611 258.614V259.841C212.611 260.932 211.747 262 210.156 262ZM217.74 251.364H216.399V263H217.74V251.364ZM224.878 263H226.287V257.795H231.332V256.545H226.287V252.614H231.855V251.364H224.878V263ZM236.655 263.205C238.178 263.205 238.973 262.386 239.246 261.818H239.314V263H240.655V257.25C240.655 254.477 238.541 254.159 237.428 254.159C236.109 254.159 234.609 254.614 233.928 256.205L235.2 256.659C235.496 256.023 236.195 255.341 237.473 255.341C238.706 255.341 239.314 255.994 239.314 257.114V257.159C239.314 257.807 238.655 257.75 237.064 257.955C235.445 258.165 233.678 258.523 233.678 260.523C233.678 262.227 234.996 263.205 236.655 263.205ZM236.859 262C235.791 262 235.018 261.523 235.018 260.591C235.018 259.568 235.95 259.25 236.996 259.114C237.564 259.045 239.087 258.886 239.314 258.614V259.841C239.314 260.932 238.45 262 236.859 262ZM246.648 263.182C248.58 263.182 249.852 262 250.08 260.455H248.739C248.489 261.409 247.693 261.977 246.648 261.977C245.057 261.977 244.034 260.659 244.034 258.636C244.034 256.659 245.08 255.364 246.648 255.364C247.83 255.364 248.534 256.091 248.739 256.886H250.08C249.852 255.25 248.466 254.159 246.625 254.159C244.261 254.159 242.693 256.023 242.693 258.682C242.693 261.295 244.193 263.182 246.648 263.182ZM255.835 254.273H253.972V252.182H252.631V254.273H251.312V255.409H252.631V260.864C252.631 262.386 253.858 263.114 254.994 263.114C255.494 263.114 255.812 263.023 255.994 262.955L255.722 261.75C255.608 261.773 255.426 261.818 255.131 261.818C254.54 261.818 253.972 261.636 253.972 260.5V255.409H255.835V254.273ZM263.878 256.227C263.457 254.989 262.514 254.159 260.787 254.159C258.946 254.159 257.582 255.205 257.582 256.682C257.582 257.886 258.298 258.693 259.901 259.068L261.355 259.409C262.236 259.614 262.651 260.034 262.651 260.636C262.651 261.386 261.855 262 260.605 262C259.509 262 258.821 261.528 258.582 260.591L257.31 260.909C257.622 262.392 258.844 263.182 260.628 263.182C262.656 263.182 264.037 262.074 264.037 260.568C264.037 259.352 263.276 258.585 261.719 258.205L260.423 257.886C259.389 257.631 258.923 257.284 258.923 256.614C258.923 255.864 259.719 255.318 260.787 255.318C261.957 255.318 262.44 255.966 262.673 256.568L263.878 256.227Z" fill="black"/>
<path d="M34.5 304.864C35.8807 304.864 37 303.744 37 302.364C37 300.983 35.8807 299.864 34.5 299.864C33.1193 299.864 32 300.983 32 302.364C32 303.744 33.1193 304.864 34.5 304.864Z" fill="black"/>
<path d="M55.4091 307H56.8182V302.455H59.3636C59.4659 302.455 59.5625 302.455 59.6591 302.449L62.1136 307H63.75L61.1193 302.193C62.6023 301.688 63.2955 300.477 63.2955 298.932C63.2955 296.875 62.0682 295.364 59.3409 295.364H55.4091V307ZM56.8182 301.182V296.614H59.2955C61.1818 296.614 61.9091 297.534 61.9091 298.932C61.9091 300.33 61.1818 301.182 59.3182 301.182H56.8182ZM69.027 307.182C70.7997 307.182 72.0952 306.295 72.5043 304.977L71.2088 304.614C70.8679 305.523 70.0781 305.977 69.027 305.977C67.4531 305.977 66.3679 304.96 66.3054 303.091H72.6406V302.523C72.6406 299.273 70.7088 298.159 68.8906 298.159C66.527 298.159 64.9588 300.023 64.9588 302.705C64.9588 305.386 66.5043 307.182 69.027 307.182ZM66.3054 301.932C66.3963 300.574 67.3565 299.364 68.8906 299.364C70.3452 299.364 71.277 300.455 71.277 301.932H66.3054ZM78.2259 307.182C80.1577 307.182 81.4304 306 81.6577 304.455H80.3168C80.0668 305.409 79.2713 305.977 78.2259 305.977C76.6349 305.977 75.6122 304.659 75.6122 302.636C75.6122 300.659 76.6577 299.364 78.2259 299.364C79.4077 299.364 80.1122 300.091 80.3168 300.886H81.6577C81.4304 299.25 80.044 298.159 78.2031 298.159C75.8395 298.159 74.2713 300.023 74.2713 302.682C74.2713 305.295 75.7713 307.182 78.2259 307.182ZM83.6179 307H84.9588V298.273H83.6179V307ZM84.2997 296.818C84.8224 296.818 85.2543 296.409 85.2543 295.909C85.2543 295.409 84.8224 295 84.2997 295C83.777 295 83.3452 295.409 83.3452 295.909C83.3452 296.409 83.777 296.818 84.2997 296.818ZM87.4148 310.273H88.7557V305.659H88.8693C89.1648 306.136 89.733 307.182 91.4148 307.182C93.5966 307.182 95.1193 305.432 95.1193 302.659C95.1193 299.909 93.5966 298.159 91.392 298.159C89.6875 298.159 89.1648 299.205 88.8693 299.659H88.7102V298.273H87.4148V310.273ZM88.733 302.636C88.733 300.682 89.5966 299.364 91.233 299.364C92.9375 299.364 93.7784 300.795 93.7784 302.636C93.7784 304.5 92.9148 305.977 91.233 305.977C89.6193 305.977 88.733 304.614 88.733 302.636ZM100.824 307.182C102.597 307.182 103.892 306.295 104.301 304.977L103.006 304.614C102.665 305.523 101.875 305.977 100.824 305.977C99.25 305.977 98.1648 304.96 98.1023 303.091H104.438V302.523C104.438 299.273 102.506 298.159 100.688 298.159C98.3239 298.159 96.7557 300.023 96.7557 302.705C96.7557 305.386 98.3011 307.182 100.824 307.182ZM98.1023 301.932C98.1932 300.574 99.1534 299.364 100.688 299.364C102.142 299.364 103.074 300.455 103.074 301.932H98.1023ZM112.659 300.227C112.239 298.989 111.295 298.159 109.568 298.159C107.727 298.159 106.364 299.205 106.364 300.682C106.364 301.886 107.08 302.693 108.682 303.068L110.136 303.409C111.017 303.614 111.432 304.034 111.432 304.636C111.432 305.386 110.636 306 109.386 306C108.29 306 107.602 305.528 107.364 304.591L106.091 304.909C106.403 306.392 107.625 307.182 109.409 307.182C111.438 307.182 112.818 306.074 112.818 304.568C112.818 303.352 112.057 302.585 110.5 302.205L109.205 301.886C108.17 301.631 107.705 301.284 107.705 300.614C107.705 299.864 108.5 299.318 109.568 299.318C110.739 299.318 111.222 299.966 111.455 300.568L112.659 300.227ZM121.314 307H122.632L124.541 300.295H124.678L126.587 307H127.905L130.564 298.273H129.155L127.268 304.932H127.178L125.337 298.273H123.905L122.041 304.955H121.95L120.064 298.273H118.655L121.314 307ZM132.337 307H133.678V298.273H132.337V307ZM133.018 296.818C133.541 296.818 133.973 296.409 133.973 295.909C133.973 295.409 133.541 295 133.018 295C132.496 295 132.064 295.409 132.064 295.909C132.064 296.409 132.496 296.818 133.018 296.818ZM139.929 298.273H138.065V296.182H136.724V298.273H135.406V299.409H136.724V304.864C136.724 306.386 137.952 307.114 139.088 307.114C139.588 307.114 139.906 307.023 140.088 306.955L139.815 305.75C139.702 305.773 139.52 305.818 139.224 305.818C138.634 305.818 138.065 305.636 138.065 304.5V299.409H139.929V298.273ZM143.474 301.75C143.474 300.227 144.446 299.364 145.77 299.364C147.031 299.364 147.793 300.159 147.793 301.545V307H149.134V301.455C149.134 299.21 147.94 298.159 146.156 298.159C144.781 298.159 143.997 298.733 143.588 299.636H143.474V295.364H142.134V307H143.474V301.75ZM156.268 307H157.678V301.795H162.723V300.545H157.678V296.614H163.246V295.364H156.268V307ZM168.045 307.205C169.568 307.205 170.364 306.386 170.636 305.818H170.705V307H172.045V301.25C172.045 298.477 169.932 298.159 168.818 298.159C167.5 298.159 166 298.614 165.318 300.205L166.591 300.659C166.886 300.023 167.585 299.341 168.864 299.341C170.097 299.341 170.705 299.994 170.705 301.114V301.159C170.705 301.807 170.045 301.75 168.455 301.955C166.835 302.165 165.068 302.523 165.068 304.523C165.068 306.227 166.386 307.205 168.045 307.205ZM168.25 306C167.182 306 166.409 305.523 166.409 304.591C166.409 303.568 167.341 303.25 168.386 303.114C168.955 303.045 170.477 302.886 170.705 302.614V303.841C170.705 304.932 169.841 306 168.25 306ZM180.675 300.227C180.254 298.989 179.311 298.159 177.584 298.159C175.743 298.159 174.379 299.205 174.379 300.682C174.379 301.886 175.095 302.693 176.697 303.068L178.152 303.409C179.033 303.614 179.447 304.034 179.447 304.636C179.447 305.386 178.652 306 177.402 306C176.305 306 175.618 305.528 175.379 304.591L174.107 304.909C174.419 306.392 175.641 307.182 177.425 307.182C179.453 307.182 180.834 306.074 180.834 304.568C180.834 303.352 180.072 302.585 178.516 302.205L177.22 301.886C176.186 301.631 175.72 301.284 175.72 300.614C175.72 299.864 176.516 299.318 177.584 299.318C178.754 299.318 179.237 299.966 179.47 300.568L180.675 300.227ZM186.648 298.273H184.784V296.182H183.443V298.273H182.125V299.409H183.443V304.864C183.443 306.386 184.67 307.114 185.807 307.114C186.307 307.114 186.625 307.023 186.807 306.955L186.534 305.75C186.42 305.773 186.239 305.818 185.943 305.818C185.352 305.818 184.784 305.636 184.784 304.5V299.409H186.648V298.273ZM192.23 307.182C194.003 307.182 195.298 306.295 195.707 304.977L194.412 304.614C194.071 305.523 193.281 305.977 192.23 305.977C190.656 305.977 189.571 304.96 189.509 303.091H195.844V302.523C195.844 299.273 193.912 298.159 192.094 298.159C189.73 298.159 188.162 300.023 188.162 302.705C188.162 305.386 189.707 307.182 192.23 307.182ZM189.509 301.932C189.599 300.574 190.56 299.364 192.094 299.364C193.548 299.364 194.48 300.455 194.48 301.932H189.509ZM197.884 307H199.224V301.477C199.224 300.295 200.156 299.432 201.429 299.432C201.787 299.432 202.156 299.5 202.247 299.523V298.159C202.094 298.148 201.741 298.136 201.543 298.136C200.497 298.136 199.588 298.727 199.27 299.591H199.179V298.273H197.884V307ZM208.518 307H209.928V302.75H212.473C215.183 302.75 216.405 301.102 216.405 299.045C216.405 296.989 215.183 295.364 212.45 295.364H208.518V307ZM209.928 301.5V296.614H212.405C214.297 296.614 215.018 297.648 215.018 299.045C215.018 300.443 214.297 301.5 212.428 301.5H209.928ZM218.493 307H219.834V301.477C219.834 300.295 220.766 299.432 222.038 299.432C222.396 299.432 222.766 299.5 222.857 299.523V298.159C222.703 298.148 222.351 298.136 222.152 298.136C221.107 298.136 220.197 298.727 219.879 299.591H219.788V298.273H218.493V307ZM227.839 307.182C229.612 307.182 230.908 306.295 231.317 304.977L230.021 304.614C229.68 305.523 228.891 305.977 227.839 305.977C226.266 305.977 225.18 304.96 225.118 303.091H231.453V302.523C231.453 299.273 229.521 298.159 227.703 298.159C225.339 298.159 223.771 300.023 223.771 302.705C223.771 305.386 225.317 307.182 227.839 307.182ZM225.118 301.932C225.209 300.574 226.169 299.364 227.703 299.364C229.158 299.364 230.089 300.455 230.089 301.932H225.118ZM233.493 310.273H234.834V305.659H234.947C235.243 306.136 235.811 307.182 237.493 307.182C239.675 307.182 241.197 305.432 241.197 302.659C241.197 299.909 239.675 298.159 237.47 298.159C235.766 298.159 235.243 299.205 234.947 299.659H234.788V298.273H233.493V310.273ZM234.811 302.636C234.811 300.682 235.675 299.364 237.311 299.364C239.016 299.364 239.857 300.795 239.857 302.636C239.857 304.5 238.993 305.977 237.311 305.977C235.697 305.977 234.811 304.614 234.811 302.636ZM245.811 307.205C247.334 307.205 248.129 306.386 248.402 305.818H248.47V307H249.811V301.25C249.811 298.477 247.697 298.159 246.584 298.159C245.266 298.159 243.766 298.614 243.084 300.205L244.357 300.659C244.652 300.023 245.351 299.341 246.629 299.341C247.862 299.341 248.47 299.994 248.47 301.114V301.159C248.47 301.807 247.811 301.75 246.22 301.955C244.601 302.165 242.834 302.523 242.834 304.523C242.834 306.227 244.152 307.205 245.811 307.205ZM246.016 306C244.947 306 244.175 305.523 244.175 304.591C244.175 303.568 245.107 303.25 246.152 303.114C246.72 303.045 248.243 302.886 248.47 302.614V303.841C248.47 304.932 247.607 306 246.016 306ZM252.259 307H253.599V301.477C253.599 300.295 254.531 299.432 255.804 299.432C256.162 299.432 256.531 299.5 256.622 299.523V298.159C256.469 298.148 256.116 298.136 255.918 298.136C254.872 298.136 253.963 298.727 253.645 299.591H253.554V298.273H252.259V307ZM260.78 307.205C262.303 307.205 263.098 306.386 263.371 305.818H263.439V307H264.78V301.25C264.78 298.477 262.666 298.159 261.553 298.159C260.234 298.159 258.734 298.614 258.053 300.205L259.325 300.659C259.621 300.023 260.32 299.341 261.598 299.341C262.831 299.341 263.439 299.994 263.439 301.114V301.159C263.439 301.807 262.78 301.75 261.189 301.955C259.57 302.165 257.803 302.523 257.803 304.523C257.803 306.227 259.121 307.205 260.78 307.205ZM260.984 306C259.916 306 259.143 305.523 259.143 304.591C259.143 303.568 260.075 303.25 261.121 303.114C261.689 303.045 263.212 302.886 263.439 302.614V303.841C263.439 304.932 262.575 306 260.984 306ZM271.023 298.273H269.159V296.182H267.818V298.273H266.5V299.409H267.818V304.864C267.818 306.386 269.045 307.114 270.182 307.114C270.682 307.114 271 307.023 271.182 306.955L270.909 305.75C270.795 305.773 270.614 305.818 270.318 305.818C269.727 305.818 269.159 305.636 269.159 304.5V299.409H271.023V298.273ZM273.04 307H274.381V298.273H273.04V307ZM273.722 296.818C274.244 296.818 274.676 296.409 274.676 295.909C274.676 295.409 274.244 295 273.722 295C273.199 295 272.767 295.409 272.767 295.909C272.767 296.409 273.199 296.818 273.722 296.818ZM280.382 307.182C282.746 307.182 284.337 305.386 284.337 302.682C284.337 299.955 282.746 298.159 280.382 298.159C278.018 298.159 276.428 299.955 276.428 302.682C276.428 305.386 278.018 307.182 280.382 307.182ZM280.382 305.977C278.587 305.977 277.768 304.432 277.768 302.682C277.768 300.932 278.587 299.364 280.382 299.364C282.178 299.364 282.996 300.932 282.996 302.682C282.996 304.432 282.178 305.977 280.382 305.977ZM287.724 301.75C287.724 300.227 288.668 299.364 289.952 299.364C291.196 299.364 291.952 300.176 291.952 301.545V307H293.293V301.455C293.293 299.227 292.105 298.159 290.338 298.159C289.02 298.159 288.202 298.75 287.793 299.636H287.679V298.273H286.384V307H287.724V301.75ZM304.038 298.273H302.175V296.182H300.834V298.273H299.516V299.409H300.834V304.864C300.834 306.386 302.061 307.114 303.197 307.114C303.697 307.114 304.016 307.023 304.197 306.955L303.925 305.75C303.811 305.773 303.629 305.818 303.334 305.818C302.743 305.818 302.175 305.636 302.175 304.5V299.409H304.038V298.273ZM306.055 307H307.396V298.273H306.055V307ZM306.737 296.818C307.26 296.818 307.692 296.409 307.692 295.909C307.692 295.409 307.26 295 306.737 295C306.214 295 305.783 295.409 305.783 295.909C305.783 296.409 306.214 296.818 306.737 296.818ZM309.852 307H311.193V301.545C311.193 300.267 312.125 299.364 313.17 299.364C314.188 299.364 314.898 300.028 314.898 301.023V307H316.261V301.318C316.261 300.193 316.966 299.364 318.193 299.364C319.148 299.364 319.966 299.869 319.966 301.159V307H321.307V301.159C321.307 299.108 320.205 298.159 318.648 298.159C317.398 298.159 316.483 298.733 316.034 299.636H315.943C315.511 298.705 314.75 298.159 313.602 298.159C312.466 298.159 311.625 298.705 311.261 299.636H311.148V298.273H309.852V307ZM327.418 307.182C329.19 307.182 330.486 306.295 330.895 304.977L329.599 304.614C329.259 305.523 328.469 305.977 327.418 305.977C325.844 305.977 324.759 304.96 324.696 303.091H331.031V302.523C331.031 299.273 329.099 298.159 327.281 298.159C324.918 298.159 323.349 300.023 323.349 302.705C323.349 305.386 324.895 307.182 327.418 307.182ZM324.696 301.932C324.787 300.574 325.747 299.364 327.281 299.364C328.736 299.364 329.668 300.455 329.668 301.932H324.696ZM339.253 300.227C338.832 298.989 337.889 298.159 336.162 298.159C334.321 298.159 332.957 299.205 332.957 300.682C332.957 301.886 333.673 302.693 335.276 303.068L336.73 303.409C337.611 303.614 338.026 304.034 338.026 304.636C338.026 305.386 337.23 306 335.98 306C334.884 306 334.196 305.528 333.957 304.591L332.685 304.909C332.997 306.392 334.219 307.182 336.003 307.182C338.031 307.182 339.412 306.074 339.412 304.568C339.412 303.352 338.651 302.585 337.094 302.205L335.798 301.886C334.764 301.631 334.298 301.284 334.298 300.614C334.298 299.864 335.094 299.318 336.162 299.318C337.332 299.318 337.815 299.966 338.048 300.568L339.253 300.227Z" fill="black"/>
<path d="M34.5 346.864C35.8807 346.864 37 345.744 37 344.364C37 342.983 35.8807 341.864 34.5 341.864C33.1193 341.864 32 342.983 32 344.364C32 345.744 33.1193 346.864 34.5 346.864Z" fill="black"/>
<path d="M55.4091 349H56.8182V344.455H59.3636C59.4659 344.455 59.5625 344.455 59.6591 344.449L62.1136 349H63.75L61.1193 344.193C62.6023 343.688 63.2955 342.477 63.2955 340.932C63.2955 338.875 62.0682 337.364 59.3409 337.364H55.4091V349ZM56.8182 343.182V338.614H59.2955C61.1818 338.614 61.9091 339.534 61.9091 340.932C61.9091 342.33 61.1818 343.182 59.3182 343.182H56.8182ZM69.027 349.182C70.7997 349.182 72.0952 348.295 72.5043 346.977L71.2088 346.614C70.8679 347.523 70.0781 347.977 69.027 347.977C67.4531 347.977 66.3679 346.96 66.3054 345.091H72.6406V344.523C72.6406 341.273 70.7088 340.159 68.8906 340.159C66.527 340.159 64.9588 342.023 64.9588 344.705C64.9588 347.386 66.5043 349.182 69.027 349.182ZM66.3054 343.932C66.3963 342.574 67.3565 341.364 68.8906 341.364C70.3452 341.364 71.277 342.455 71.277 343.932H66.3054ZM78.2259 349.182C80.1577 349.182 81.4304 348 81.6577 346.455H80.3168C80.0668 347.409 79.2713 347.977 78.2259 347.977C76.6349 347.977 75.6122 346.659 75.6122 344.636C75.6122 342.659 76.6577 341.364 78.2259 341.364C79.4077 341.364 80.1122 342.091 80.3168 342.886H81.6577C81.4304 341.25 80.044 340.159 78.2031 340.159C75.8395 340.159 74.2713 342.023 74.2713 344.682C74.2713 347.295 75.7713 349.182 78.2259 349.182ZM83.6179 349H84.9588V340.273H83.6179V349ZM84.2997 338.818C84.8224 338.818 85.2543 338.409 85.2543 337.909C85.2543 337.409 84.8224 337 84.2997 337C83.777 337 83.3452 337.409 83.3452 337.909C83.3452 338.409 83.777 338.818 84.2997 338.818ZM87.4148 352.273H88.7557V347.659H88.8693C89.1648 348.136 89.733 349.182 91.4148 349.182C93.5966 349.182 95.1193 347.432 95.1193 344.659C95.1193 341.909 93.5966 340.159 91.392 340.159C89.6875 340.159 89.1648 341.205 88.8693 341.659H88.7102V340.273H87.4148V352.273ZM88.733 344.636C88.733 342.682 89.5966 341.364 91.233 341.364C92.9375 341.364 93.7784 342.795 93.7784 344.636C93.7784 346.5 92.9148 347.977 91.233 347.977C89.6193 347.977 88.733 346.614 88.733 344.636ZM100.824 349.182C102.597 349.182 103.892 348.295 104.301 346.977L103.006 346.614C102.665 347.523 101.875 347.977 100.824 347.977C99.25 347.977 98.1648 346.96 98.1023 345.091H104.438V344.523C104.438 341.273 102.506 340.159 100.688 340.159C98.3239 340.159 96.7557 342.023 96.7557 344.705C96.7557 347.386 98.3011 349.182 100.824 349.182ZM98.1023 343.932C98.1932 342.574 99.1534 341.364 100.688 341.364C102.142 341.364 103.074 342.455 103.074 343.932H98.1023ZM112.659 342.227C112.239 340.989 111.295 340.159 109.568 340.159C107.727 340.159 106.364 341.205 106.364 342.682C106.364 343.886 107.08 344.693 108.682 345.068L110.136 345.409C111.017 345.614 111.432 346.034 111.432 346.636C111.432 347.386 110.636 348 109.386 348C108.29 348 107.602 347.528 107.364 346.591L106.091 346.909C106.403 348.392 107.625 349.182 109.409 349.182C111.438 349.182 112.818 348.074 112.818 346.568C112.818 345.352 112.057 344.585 110.5 344.205L109.205 343.886C108.17 343.631 107.705 343.284 107.705 342.614C107.705 341.864 108.5 341.318 109.568 341.318C110.739 341.318 111.222 341.966 111.455 342.568L112.659 342.227ZM121.314 349H122.632L124.541 342.295H124.678L126.587 349H127.905L130.564 340.273H129.155L127.268 346.932H127.178L125.337 340.273H123.905L122.041 346.955H121.95L120.064 340.273H118.655L121.314 349ZM132.337 349H133.678V340.273H132.337V349ZM133.018 338.818C133.541 338.818 133.973 338.409 133.973 337.909C133.973 337.409 133.541 337 133.018 337C132.496 337 132.064 337.409 132.064 337.909C132.064 338.409 132.496 338.818 133.018 338.818ZM139.929 340.273H138.065V338.182H136.724V340.273H135.406V341.409H136.724V346.864C136.724 348.386 137.952 349.114 139.088 349.114C139.588 349.114 139.906 349.023 140.088 348.955L139.815 347.75C139.702 347.773 139.52 347.818 139.224 347.818C138.634 347.818 138.065 347.636 138.065 346.5V341.409H139.929V340.273ZM143.474 343.75C143.474 342.227 144.446 341.364 145.77 341.364C147.031 341.364 147.793 342.159 147.793 343.545V349H149.134V343.455C149.134 341.21 147.94 340.159 146.156 340.159C144.781 340.159 143.997 340.733 143.588 341.636H143.474V337.364H142.134V349H143.474V343.75ZM156.268 349H163.087V347.75H157.678V337.364H156.268V349ZM168.746 349.182C170.518 349.182 171.814 348.295 172.223 346.977L170.928 346.614C170.587 347.523 169.797 347.977 168.746 347.977C167.172 347.977 166.087 346.96 166.024 345.091H172.359V344.523C172.359 341.273 170.428 340.159 168.609 340.159C166.246 340.159 164.678 342.023 164.678 344.705C164.678 347.386 166.223 349.182 168.746 349.182ZM166.024 343.932C166.115 342.574 167.075 341.364 168.609 341.364C170.064 341.364 170.996 342.455 170.996 343.932H166.024ZM180.581 342.227C180.161 340.989 179.217 340.159 177.49 340.159C175.649 340.159 174.286 341.205 174.286 342.682C174.286 343.886 175.001 344.693 176.604 345.068L178.058 345.409C178.939 345.614 179.354 346.034 179.354 346.636C179.354 347.386 178.558 348 177.308 348C176.212 348 175.524 347.528 175.286 346.591L174.013 346.909C174.325 348.392 175.547 349.182 177.331 349.182C179.359 349.182 180.74 348.074 180.74 346.568C180.74 345.352 179.979 344.585 178.422 344.205L177.126 343.886C176.092 343.631 175.626 343.284 175.626 342.614C175.626 341.864 176.422 341.318 177.49 341.318C178.661 341.318 179.143 341.966 179.376 342.568L180.581 342.227ZM188.94 342.227C188.52 340.989 187.577 340.159 185.849 340.159C184.009 340.159 182.645 341.205 182.645 342.682C182.645 343.886 183.361 344.693 184.963 345.068L186.418 345.409C187.298 345.614 187.713 346.034 187.713 346.636C187.713 347.386 186.918 348 185.668 348C184.571 348 183.884 347.528 183.645 346.591L182.372 346.909C182.685 348.392 183.906 349.182 185.69 349.182C187.719 349.182 189.099 348.074 189.099 346.568C189.099 345.352 188.338 344.585 186.781 344.205L185.486 343.886C184.452 343.631 183.986 343.284 183.986 342.614C183.986 341.864 184.781 341.318 185.849 341.318C187.02 341.318 187.503 341.966 187.736 342.568L188.94 342.227ZM197.209 337.364H195.8V349H197.209V337.364ZM201.193 343.75C201.193 342.227 202.136 341.364 203.42 341.364C204.665 341.364 205.42 342.176 205.42 343.545V349H206.761V343.455C206.761 341.227 205.574 340.159 203.807 340.159C202.489 340.159 201.67 340.75 201.261 341.636H201.148V340.273H199.852V349H201.193V343.75ZM212.734 352.455C214.825 352.455 216.507 351.5 216.507 349.25V340.273H215.212V341.659H215.075C214.78 341.205 214.234 340.159 212.53 340.159C210.325 340.159 208.803 341.909 208.803 344.591C208.803 347.318 210.393 348.864 212.507 348.864C214.212 348.864 214.757 347.864 215.053 347.386H215.166V349.159C215.166 350.614 214.143 351.273 212.734 351.273C211.149 351.273 210.592 350.438 210.234 349.955L209.166 350.705C209.712 351.619 210.786 352.455 212.734 352.455ZM212.689 347.659C211.007 347.659 210.143 346.386 210.143 344.568C210.143 342.795 210.984 341.364 212.689 341.364C214.325 341.364 215.189 342.682 215.189 344.568C215.189 346.5 214.303 347.659 212.689 347.659ZM218.962 349H220.303V343.477C220.303 342.295 221.234 341.432 222.507 341.432C222.865 341.432 223.234 341.5 223.325 341.523V340.159C223.172 340.148 222.82 340.136 222.621 340.136C221.575 340.136 220.666 340.727 220.348 341.591H220.257V340.273H218.962V349ZM228.308 349.182C230.081 349.182 231.376 348.295 231.786 346.977L230.49 346.614C230.149 347.523 229.359 347.977 228.308 347.977C226.734 347.977 225.649 346.96 225.587 345.091H231.922V344.523C231.922 341.273 229.99 340.159 228.172 340.159C225.808 340.159 224.24 342.023 224.24 344.705C224.24 347.386 225.786 349.182 228.308 349.182ZM225.587 343.932C225.678 342.574 226.638 341.364 228.172 341.364C229.626 341.364 230.558 342.455 230.558 343.932H225.587ZM237.257 349.182C238.939 349.182 239.507 348.136 239.803 347.659H239.962V349H241.257V337.364H239.916V341.659H239.803C239.507 341.205 238.984 340.159 237.28 340.159C235.075 340.159 233.553 341.909 233.553 344.659C233.553 347.432 235.075 349.182 237.257 349.182ZM237.439 347.977C235.757 347.977 234.893 346.5 234.893 344.636C234.893 342.795 235.734 341.364 237.439 341.364C239.075 341.364 239.939 342.682 239.939 344.636C239.939 346.614 239.053 347.977 237.439 347.977ZM243.899 349H245.24V340.273H243.899V349ZM244.581 338.818C245.104 338.818 245.536 338.409 245.536 337.909C245.536 337.409 245.104 337 244.581 337C244.058 337 243.626 337.409 243.626 337.909C243.626 338.409 244.058 338.818 244.581 338.818ZM251.355 349.182C253.128 349.182 254.423 348.295 254.832 346.977L253.537 346.614C253.196 347.523 252.406 347.977 251.355 347.977C249.781 347.977 248.696 346.96 248.634 345.091H254.969V344.523C254.969 341.273 253.037 340.159 251.219 340.159C248.855 340.159 247.287 342.023 247.287 344.705C247.287 347.386 248.832 349.182 251.355 349.182ZM248.634 343.932C248.724 342.574 249.685 341.364 251.219 341.364C252.673 341.364 253.605 342.455 253.605 343.932H248.634ZM258.349 343.75C258.349 342.227 259.293 341.364 260.577 341.364C261.821 341.364 262.577 342.176 262.577 343.545V349H263.918V343.455C263.918 341.227 262.73 340.159 260.963 340.159C259.645 340.159 258.827 340.75 258.418 341.636H258.304V340.273H257.009V349H258.349V343.75ZM270.163 340.273H268.3V338.182H266.959V340.273H265.641V341.409H266.959V346.864C266.959 348.386 268.186 349.114 269.322 349.114C269.822 349.114 270.141 349.023 270.322 348.955L270.05 347.75C269.936 347.773 269.754 347.818 269.459 347.818C268.868 347.818 268.3 347.636 268.3 346.5V341.409H270.163V340.273ZM278.206 342.227C277.786 340.989 276.842 340.159 275.115 340.159C273.274 340.159 271.911 341.205 271.911 342.682C271.911 343.886 272.626 344.693 274.229 345.068L275.683 345.409C276.564 345.614 276.979 346.034 276.979 346.636C276.979 347.386 276.183 348 274.933 348C273.837 348 273.149 347.528 272.911 346.591L271.638 346.909C271.95 348.392 273.172 349.182 274.956 349.182C276.984 349.182 278.365 348.074 278.365 346.568C278.365 345.352 277.604 344.585 276.047 344.205L274.751 343.886C273.717 343.631 273.251 343.284 273.251 342.614C273.251 341.864 274.047 341.318 275.115 341.318C276.286 341.318 276.768 341.966 277.001 342.568L278.206 342.227Z" fill="black"/>
<path d="M40.6037 46.4545V55.7372C40.6037 57.5625 39.3324 58.8693 37.3366 58.8693C35.3338 58.8693 34.0696 57.5625 34.0696 55.7372V46.4545H31.4347V55.9574C31.4347 59.0824 33.7784 61.2202 37.3366 61.2202C40.8807 61.2202 43.2386 59.0824 43.2386 55.9574V46.4545H40.6037ZM54.6112 52.9744C54.256 51.1278 52.7788 49.9489 50.2219 49.9489C47.5941 49.9489 45.8043 51.2415 45.8114 53.2585C45.8043 54.8494 46.7844 55.9006 48.8796 56.3338L50.7404 56.7244C51.7418 56.9446 52.2106 57.3494 52.2106 57.9673C52.2106 58.7131 51.4009 59.2741 50.1793 59.2741C49.0004 59.2741 48.2333 58.7628 48.0131 57.7827L45.506 58.0241C45.8256 60.027 47.5089 61.2131 50.1864 61.2131C52.9137 61.2131 54.8384 59.7997 54.8455 57.733C54.8384 56.1776 53.837 55.2259 51.7773 54.7784L49.9165 54.3807C48.8086 54.1321 48.3683 53.7486 48.3754 53.1165C48.3683 52.3778 49.185 51.8665 50.2575 51.8665C51.4435 51.8665 52.0685 52.5128 52.2674 53.2301L54.6112 52.9744ZM61.7951 61.2131C64.3377 61.2131 66.0849 59.9702 66.5394 58.0739L64.1388 57.804C63.7908 58.7273 62.9386 59.2102 61.8306 59.2102C60.1687 59.2102 59.0678 58.1165 59.0465 56.2486H66.646V55.4602C66.646 51.6321 64.3448 49.9489 61.6602 49.9489C58.5352 49.9489 56.4968 52.2429 56.4968 55.6094C56.4968 59.0327 58.5067 61.2131 61.7951 61.2131ZM59.0536 54.5156C59.1317 53.1236 60.1616 51.9517 61.6957 51.9517C63.1729 51.9517 64.1673 53.0312 64.1815 54.5156H59.0536ZM68.821 61H71.392V54.5866C71.392 53.2017 72.4361 52.2216 73.8494 52.2216C74.2827 52.2216 74.8224 52.2997 75.0426 52.3707V50.0057C74.8082 49.9631 74.4034 49.9347 74.1193 49.9347C72.8693 49.9347 71.8253 50.6449 71.4276 51.9091H71.3139V50.0909H68.821V61ZM91.5696 51.0994H94.2543C93.8068 48.2443 91.3352 46.2557 88.1179 46.2557C84.3111 46.2557 81.456 49.054 81.456 53.7415C81.456 58.3438 84.1832 61.1989 88.196 61.1989C91.7969 61.1989 94.375 58.8835 94.375 55.1335V53.3864H88.473V55.446H91.8253C91.7827 57.5199 90.3977 58.8338 88.2102 58.8338C85.7741 58.8338 84.1051 57.0085 84.1051 53.7131C84.1051 50.4389 85.8026 48.6207 88.1534 48.6207C89.9077 48.6207 91.1009 49.5582 91.5696 51.0994ZM101.568 61.2131C104.764 61.2131 106.795 58.9616 106.795 55.5881C106.795 52.2074 104.764 49.9489 101.568 49.9489C98.3718 49.9489 96.3406 52.2074 96.3406 55.5881C96.3406 58.9616 98.3718 61.2131 101.568 61.2131ZM101.582 59.1534C99.8136 59.1534 98.9471 57.5767 98.9471 55.581C98.9471 53.5852 99.8136 51.9872 101.582 51.9872C103.322 51.9872 104.189 53.5852 104.189 55.581C104.189 57.5767 103.322 59.1534 101.582 59.1534ZM112.116 61.2202C113.828 61.2202 114.851 60.4176 115.32 59.5014H115.405V61H117.876V53.6989C117.876 50.8153 115.526 49.9489 113.445 49.9489C111.151 49.9489 109.389 50.9716 108.821 52.9602L111.222 53.3011C111.477 52.5554 112.202 51.9162 113.459 51.9162C114.652 51.9162 115.305 52.527 115.305 53.5994V53.642C115.305 54.3807 114.531 54.4162 112.607 54.6222C110.49 54.8494 108.466 55.4815 108.466 57.9389C108.466 60.0838 110.036 61.2202 112.116 61.2202ZM112.784 59.331C111.712 59.331 110.945 58.8409 110.945 57.8963C110.945 56.9091 111.804 56.4972 112.955 56.3338C113.629 56.2415 114.979 56.071 115.312 55.8011V57.0866C115.312 58.3011 114.332 59.331 112.784 59.331ZM123.033 46.4545H120.462V61H123.033V46.4545ZM134.299 52.9744C133.944 51.1278 132.466 49.9489 129.909 49.9489C127.282 49.9489 125.492 51.2415 125.499 53.2585C125.492 54.8494 126.472 55.9006 128.567 56.3338L130.428 56.7244C131.429 56.9446 131.898 57.3494 131.898 57.9673C131.898 58.7131 131.088 59.2741 129.867 59.2741C128.688 59.2741 127.921 58.7628 127.701 57.7827L125.194 58.0241C125.513 60.027 127.196 61.2131 129.874 61.2131C132.601 61.2131 134.526 59.7997 134.533 57.733C134.526 56.1776 133.525 55.2259 131.465 54.7784L129.604 54.3807C128.496 54.1321 128.056 53.7486 128.063 53.1165C128.056 52.3778 128.873 51.8665 129.945 51.8665C131.131 51.8665 131.756 52.5128 131.955 53.2301L134.299 52.9744Z" fill="black"/>
<rect x="1" y="1" width="376" height="398" rx="4" stroke="#FAFAFA" stroke-width="2"/>
</svg>
