<svg width="300" height="210" viewBox="0 0 300 210" fill="none" xmlns="http://www.w3.org/2000/svg">
<path d="M0 3.96826C0 1.77666 1.77665 0 3.96825 0H296.032C298.223 0 300 1.77665 300 3.96825V205.556C300 207.747 298.223 209.524 296.032 209.524H3.96826C1.77665 209.524 0 207.747 0 205.556V3.96826Z" fill="white"/>
<path d="M27.38 94.0823C28.4758 94.0823 29.3641 93.194 29.3641 92.0982C29.3641 91.0024 28.4758 90.1141 27.38 90.1141C26.2842 90.1141 25.3959 91.0024 25.3959 92.0982C25.3959 93.194 26.2842 94.0823 27.38 94.0823Z" fill="black"/>
<path d="M46.8257 95.7461C49.6395 95.7461 51.2268 93.9965 51.2268 91.1105C51.2268 88.2425 49.6395 86.5109 46.9519 86.5109H43.9757V95.7461H46.8257ZM45.0941 94.754V87.5029H46.8798C49.0443 87.5029 50.1446 88.8738 50.1446 91.1105C50.1446 93.3651 49.0443 94.754 46.7535 94.754H45.0941ZM52.9584 95.7461H54.0226V88.8197H52.9584V95.7461ZM53.4996 87.6653C53.9144 87.6653 54.2571 87.3406 54.2571 86.9438C54.2571 86.547 53.9144 86.2223 53.4996 86.2223C53.0847 86.2223 52.742 86.547 52.742 86.9438C52.742 87.3406 53.0847 87.6653 53.4996 87.6653ZM59.0562 88.8197H57.505V88.1162C57.505 87.4308 57.7936 87.07 58.4971 87.07C58.8037 87.07 58.9841 87.1422 59.0923 87.1783L59.399 86.2584C59.2366 86.1862 58.9119 86.078 58.3889 86.078C57.3968 86.078 56.4408 86.6732 56.4408 87.8637V88.8197H55.3225V89.7216H56.4408V95.7461H57.505V89.7216H59.0562V88.8197ZM63.6321 88.8197H62.0809V88.1162C62.0809 87.4308 62.3695 87.07 63.073 87.07C63.3796 87.07 63.56 87.1422 63.6682 87.1783L63.9748 86.2584C63.8125 86.1862 63.4878 86.078 62.9647 86.078C61.9727 86.078 61.0167 86.6732 61.0167 87.8637V88.8197H59.8984V89.7216H61.0167V95.7461H62.0809V89.7216H63.6321V88.8197ZM65.1236 95.7461H66.1878V88.8197H65.1236V95.7461ZM65.6647 87.6653C66.0796 87.6653 66.4223 87.3406 66.4223 86.9438C66.4223 86.547 66.0796 86.2223 65.6647 86.2223C65.2499 86.2223 64.9072 86.547 64.9072 86.9438C64.9072 87.3406 65.2499 87.6653 65.6647 87.6653ZM70.9509 95.8904C72.484 95.8904 73.4941 94.9524 73.6745 93.7259H72.6103C72.4119 94.4835 71.7806 94.9344 70.9509 94.9344C69.6882 94.9344 68.8765 93.8882 68.8765 92.2829C68.8765 90.7136 69.7063 89.6855 70.9509 89.6855C71.8888 89.6855 72.448 90.2627 72.6103 90.894H73.6745C73.4941 89.5953 72.3939 88.7295 70.9328 88.7295C69.0569 88.7295 67.8123 90.2086 67.8123 92.319C67.8123 94.3933 69.0028 95.8904 70.9509 95.8904ZM79.5953 92.9142C79.5953 94.2129 78.6033 94.8081 77.8096 94.8081C76.9258 94.8081 76.2945 94.1588 76.2945 93.1487V88.8197H75.2303V93.2208C75.2303 94.9885 76.1682 95.8363 77.4669 95.8363C78.5131 95.8363 79.1985 95.2771 79.5232 94.5737H79.5953V95.7461H80.6596V88.8197H79.5953V92.9142ZM83.6729 86.5109H82.6087V95.7461H83.6729V86.5109ZM88.6344 88.8197H87.1553V87.1602H86.0911V88.8197H85.0449V89.7216H86.0911V94.0506C86.0911 95.2591 87.0651 95.8363 87.967 95.8363C88.3638 95.8363 88.6164 95.7641 88.7607 95.71L88.5442 94.754C88.454 94.7721 88.3097 94.8081 88.0752 94.8081C87.6063 94.8081 87.1553 94.6638 87.1553 93.762V89.7216H88.6344V88.8197ZM96.8189 88.8197H95.3398V87.1602H94.2756V88.8197H93.2294V89.7216H94.2756V94.0506C94.2756 95.2591 95.2497 95.8363 96.1515 95.8363C96.5484 95.8363 96.8009 95.7641 96.9452 95.71L96.7287 94.754C96.6385 94.7721 96.4942 94.8081 96.2598 94.8081C95.7908 94.8081 95.3398 94.6638 95.3398 93.762V89.7216H96.8189V88.8197ZM101.159 95.8904C103.035 95.8904 104.298 94.4654 104.298 92.319C104.298 90.1545 103.035 88.7295 101.159 88.7295C99.2833 88.7295 98.0207 90.1545 98.0207 92.319C98.0207 94.4654 99.2833 95.8904 101.159 95.8904ZM101.159 94.9344C99.7342 94.9344 99.0849 93.7079 99.0849 92.319C99.0849 90.9301 99.7342 89.6855 101.159 89.6855C102.584 89.6855 103.234 90.9301 103.234 92.319C103.234 93.7079 102.584 94.9344 101.159 94.9344ZM113.859 92.9142C113.859 94.2129 112.867 94.8081 112.073 94.8081C111.189 94.8081 110.558 94.1588 110.558 93.1487V88.8197H109.494V93.2208C109.494 94.9885 110.432 95.8363 111.73 95.8363C112.776 95.8363 113.462 95.2771 113.787 94.5737H113.859V95.7461H114.923V88.8197H113.859V92.9142ZM121.778 90.3709C121.445 89.3879 120.696 88.7295 119.325 88.7295C117.864 88.7295 116.782 89.5592 116.782 90.7317C116.782 91.6877 117.35 92.328 118.622 92.6256L119.776 92.8962C120.475 93.0585 120.804 93.3922 120.804 93.8702C120.804 94.4654 120.173 94.9524 119.181 94.9524C118.311 94.9524 117.765 94.5782 117.576 93.8341L116.565 94.0866C116.814 95.2636 117.783 95.8904 119.199 95.8904C120.809 95.8904 121.905 95.0111 121.905 93.8161C121.905 92.8511 121.3 92.2423 120.065 91.9402L119.037 91.6877C118.216 91.4847 117.846 91.2097 117.846 90.6776C117.846 90.0823 118.477 89.6494 119.325 89.6494C120.254 89.6494 120.637 90.1635 120.822 90.6415L121.778 90.3709ZM126.411 95.8904C127.818 95.8904 128.846 95.1869 129.17 94.1408L128.142 93.8522C127.872 94.5737 127.245 94.9344 126.411 94.9344C125.161 94.9344 124.3 94.1272 124.251 92.6436H129.279V92.1927C129.279 89.6133 127.745 88.7295 126.302 88.7295C124.426 88.7295 123.182 90.2086 123.182 92.337C123.182 94.4654 124.408 95.8904 126.411 95.8904ZM124.251 91.7237C124.323 90.646 125.085 89.6855 126.302 89.6855C127.457 89.6855 128.196 90.5513 128.196 91.7237H124.251ZM137.283 95.8904C138.816 95.8904 139.826 94.9524 140.006 93.7259H138.942C138.744 94.4835 138.112 94.9344 137.283 94.9344C136.02 94.9344 135.208 93.8882 135.208 92.2829C135.208 90.7136 136.038 89.6855 137.283 89.6855C138.221 89.6855 138.78 90.2627 138.942 90.894H140.006C139.826 89.5953 138.726 88.7295 137.265 88.7295C135.389 88.7295 134.144 90.2086 134.144 92.319C134.144 94.3933 135.335 95.8904 137.283 95.8904ZM144.376 95.8904C146.252 95.8904 147.514 94.4654 147.514 92.319C147.514 90.1545 146.252 88.7295 144.376 88.7295C142.5 88.7295 141.237 90.1545 141.237 92.319C141.237 94.4654 142.5 95.8904 144.376 95.8904ZM144.376 94.9344C142.951 94.9344 142.302 93.7079 142.302 92.319C142.302 90.9301 142.951 89.6855 144.376 89.6855C145.801 89.6855 146.45 90.9301 146.45 92.319C146.45 93.7079 145.801 94.9344 144.376 94.9344ZM149.139 95.7461H150.203V91.4171C150.203 90.4025 150.943 89.6855 151.772 89.6855C152.58 89.6855 153.143 90.2131 153.143 91.0022V95.7461H154.226V91.2367C154.226 90.3439 154.785 89.6855 155.759 89.6855C156.516 89.6855 157.166 90.0868 157.166 91.1105V95.7461H158.23V91.1105C158.23 89.4826 157.355 88.7295 156.12 88.7295C155.127 88.7295 154.401 89.1849 154.045 89.9019H153.973C153.63 89.1624 153.026 88.7295 152.115 88.7295C151.213 88.7295 150.546 89.1624 150.257 89.9019H150.167V88.8197H149.139V95.7461ZM160.176 98.3435H161.24V94.6819H161.33C161.565 95.0607 162.016 95.8904 163.35 95.8904C165.082 95.8904 166.29 94.5015 166.29 92.3009C166.29 90.1184 165.082 88.7295 163.332 88.7295C161.979 88.7295 161.565 89.5592 161.33 89.92H161.204V88.8197H160.176V98.3435ZM161.222 92.2829C161.222 90.7317 161.907 89.6855 163.206 89.6855C164.559 89.6855 165.226 90.8219 165.226 92.2829C165.226 93.762 164.541 94.9344 163.206 94.9344C161.925 94.9344 161.222 93.8522 161.222 92.2829ZM168.978 86.5109H167.914V95.7461H168.978V86.5109ZM173.831 95.8904C175.238 95.8904 176.266 95.1869 176.591 94.1408L175.563 93.8522C175.292 94.5737 174.665 94.9344 173.831 94.9344C172.582 94.9344 171.721 94.1272 171.671 92.6436H176.699V92.1927C176.699 89.6133 175.166 88.7295 173.723 88.7295C171.847 88.7295 170.603 90.2086 170.603 92.337C170.603 94.4654 171.829 95.8904 173.831 95.8904ZM171.671 91.7237C171.743 90.646 172.505 89.6855 173.723 89.6855C174.877 89.6855 175.617 90.5513 175.617 91.7237H171.671ZM178.926 88.8197H177.699L179.9 92.2829L177.699 95.7461H178.926L180.585 93.0585L182.245 95.7461H183.471L181.234 92.2829L183.471 88.8197H182.245L180.585 91.6516L178.926 88.8197ZM190.599 95.9084C191.808 95.9084 192.439 95.2591 192.656 94.8081H192.71V95.7461H193.774V91.1826C193.774 88.982 192.096 88.7295 191.213 88.7295C190.166 88.7295 188.976 89.0902 188.435 90.3529L189.445 90.7136C189.679 90.2086 190.234 89.6675 191.249 89.6675C192.227 89.6675 192.71 90.186 192.71 91.0744V91.1105C192.71 91.6245 192.187 91.5794 190.924 91.7418C189.639 91.9086 188.236 92.1927 188.236 93.78C188.236 95.1328 189.283 95.9084 190.599 95.9084ZM190.762 94.9524C189.914 94.9524 189.301 94.5737 189.301 93.8341C189.301 93.0224 190.04 92.7699 190.87 92.6617C191.321 92.6076 192.529 92.4813 192.71 92.2649V93.2389C192.71 94.1047 192.024 94.9524 190.762 94.9524ZM195.716 98.3435H196.781V94.6819H196.871C197.105 95.0607 197.556 95.8904 198.891 95.8904C200.623 95.8904 201.831 94.5015 201.831 92.3009C201.831 90.1184 200.623 88.7295 198.873 88.7295C197.52 88.7295 197.105 89.5592 196.871 89.92H196.745V88.8197H195.716V98.3435ZM196.763 92.2829C196.763 90.7317 197.448 89.6855 198.747 89.6855C200.099 89.6855 200.767 90.8219 200.767 92.2829C200.767 93.762 200.081 94.9344 198.747 94.9344C197.466 94.9344 196.763 93.8522 196.763 92.2829ZM203.454 98.3435H204.519V94.6819H204.609C204.843 95.0607 205.294 95.8904 206.629 95.8904C208.361 95.8904 209.569 94.5015 209.569 92.3009C209.569 90.1184 208.361 88.7295 206.611 88.7295C205.258 88.7295 204.843 89.5592 204.609 89.92H204.483V88.8197H203.454V98.3435ZM204.501 92.2829C204.501 90.7317 205.186 89.6855 206.485 89.6855C207.838 89.6855 208.505 90.8219 208.505 92.2829C208.505 93.762 207.82 94.9344 206.485 94.9344C205.204 94.9344 204.501 93.8522 204.501 92.2829ZM216.099 90.3709C215.765 89.3879 215.017 88.7295 213.646 88.7295C212.185 88.7295 211.102 89.5592 211.102 90.7317C211.102 91.6877 211.671 92.328 212.942 92.6256L214.097 92.8962C214.796 93.0585 215.125 93.3922 215.125 93.8702C215.125 94.4654 214.493 94.9524 213.501 94.9524C212.631 94.9524 212.085 94.5782 211.896 93.8341L210.886 94.0866C211.134 95.2636 212.103 95.8904 213.519 95.8904C215.129 95.8904 216.225 95.0111 216.225 93.8161C216.225 92.8511 215.621 92.2423 214.385 91.9402L213.357 91.6877C212.536 91.4847 212.167 91.2097 212.167 90.6776C212.167 90.0823 212.798 89.6494 213.646 89.6494C214.575 89.6494 214.958 90.1635 215.143 90.6415L216.099 90.3709ZM218.603 95.8182C219.049 95.8182 219.414 95.453 219.414 95.0066C219.414 94.5601 219.049 94.1949 218.603 94.1949C218.156 94.1949 217.791 94.5601 217.791 95.0066C217.791 95.453 218.156 95.8182 218.603 95.8182ZM225.419 86.5109H224.246L227.637 95.7461H228.792L232.183 86.5109H231.01L228.268 94.2851H228.16L225.419 86.5109ZM233.477 95.7461H234.541V88.8197H233.477V95.7461ZM234.018 87.6653C234.433 87.6653 234.775 87.3406 234.775 86.9438C234.775 86.547 234.433 86.2223 234.018 86.2223C233.603 86.2223 233.26 86.547 233.26 86.9438C233.26 87.3406 233.603 87.6653 234.018 87.6653ZM239.106 95.8904C240.44 95.8904 240.891 95.0607 241.126 94.6819H241.252V95.7461H242.28V86.5109H241.216V89.92H241.126C240.891 89.5592 240.476 88.7295 239.124 88.7295C237.374 88.7295 236.166 90.1184 236.166 92.3009C236.166 94.5015 237.374 95.8904 239.106 95.8904ZM239.25 94.9344C237.915 94.9344 237.23 93.762 237.23 92.2829C237.23 90.8219 237.897 89.6855 239.25 89.6855C240.549 89.6855 241.234 90.7317 241.234 92.2829C241.234 93.8522 240.531 94.9344 239.25 94.9344ZM247.281 95.8904C248.688 95.8904 249.716 95.1869 250.041 94.1408L249.013 93.8522C248.742 94.5737 248.115 94.9344 247.281 94.9344C246.032 94.9344 245.171 94.1272 245.121 92.6436H250.149V92.1927C250.149 89.6133 248.616 88.7295 247.173 88.7295C245.297 88.7295 244.052 90.2086 244.052 92.337C244.052 94.4654 245.279 95.8904 247.281 95.8904ZM245.121 91.7237C245.193 90.646 245.955 89.6855 247.173 89.6855C248.327 89.6855 249.067 90.5513 249.067 91.7237H245.121ZM254.582 95.8904C256.458 95.8904 257.72 94.4654 257.72 92.319C257.72 90.1545 256.458 88.7295 254.582 88.7295C252.706 88.7295 251.443 90.1545 251.443 92.319C251.443 94.4654 252.706 95.8904 254.582 95.8904ZM254.582 94.9344C253.157 94.9344 252.507 93.7079 252.507 92.319C252.507 90.9301 253.157 89.6855 254.582 89.6855C256.007 89.6855 256.656 90.9301 256.656 92.319C256.656 93.7079 256.007 94.9344 254.582 94.9344ZM264.251 90.3709C263.917 89.3879 263.169 88.7295 261.798 88.7295C260.337 88.7295 259.255 89.5592 259.255 90.7317C259.255 91.6877 259.823 92.328 261.094 92.6256L262.249 92.8962C262.948 93.0585 263.277 93.3922 263.277 93.8702C263.277 94.4654 262.646 94.9524 261.654 94.9524C260.783 94.9524 260.238 94.5782 260.048 93.8341L259.038 94.0866C259.286 95.2636 260.256 95.8904 261.672 95.8904C263.282 95.8904 264.377 95.0111 264.377 93.8161C264.377 92.8511 263.773 92.2423 262.537 91.9402L261.509 91.6877C260.689 91.4847 260.319 91.2097 260.319 90.6776C260.319 90.0823 260.95 89.6494 261.798 89.6494C262.727 89.6494 263.11 90.1635 263.295 90.6415L264.251 90.3709ZM46.4469 114.872C47.2947 114.872 48.2416 114.575 48.8414 113.961L49.4952 114.746H50.7759L49.4997 113.19C49.847 112.744 50.2348 111.995 50.2348 110.706H49.2066C49.2066 111.337 49.0623 111.896 48.8233 112.361L46.8167 109.912L47.4931 109.407C48.2506 108.848 48.7196 108.235 48.7196 107.351C48.7196 106.323 47.8719 105.421 46.483 105.421C45.1301 105.421 44.2463 106.268 44.2463 107.513C44.2463 108.334 44.6927 108.965 45.3286 109.732C44.2508 110.48 43.5068 111.175 43.5068 112.293C43.5068 113.79 44.6251 114.872 46.4469 114.872ZM48.2055 113.19C47.696 113.668 47.0511 113.934 46.4108 113.934C45.3105 113.934 44.589 113.159 44.589 112.293C44.589 112.04 44.8235 111.391 45.6532 110.778L45.996 110.525L48.2055 113.19ZM46.1628 109.118C45.7119 108.568 45.3286 108.045 45.3286 107.531C45.3286 106.954 45.8156 106.341 46.519 106.341C47.1864 106.341 47.6374 106.882 47.6374 107.351C47.6374 107.982 47.2947 108.325 46.7716 108.667L46.1628 109.118ZM55.5254 114.746H56.5896V110.363C56.5896 109.425 57.3291 108.74 58.3392 108.74C58.6233 108.74 58.9164 108.794 58.9886 108.812V107.729C58.8668 107.72 58.5873 107.711 58.4294 107.711C57.5997 107.711 56.8782 108.18 56.6257 108.866H56.5535V107.82H55.5254V114.746ZM62.9433 114.89C64.3503 114.89 65.3784 114.187 65.7031 113.141L64.6749 112.852C64.4044 113.574 63.7776 113.934 62.9433 113.934C61.6942 113.934 60.8329 113.127 60.7833 111.644H65.8113V111.193C65.8113 108.613 64.2781 107.729 62.8351 107.729C60.9592 107.729 59.7146 109.209 59.7146 111.337C59.7146 113.465 60.9412 114.89 62.9433 114.89ZM60.7833 110.724C60.8555 109.646 61.6176 108.685 62.8351 108.685C63.9895 108.685 64.729 109.551 64.729 110.724H60.7833ZM70.244 114.89C71.7772 114.89 72.7873 113.952 72.9677 112.726H71.9035C71.705 113.483 71.0737 113.934 70.244 113.934C68.9814 113.934 68.1697 112.888 68.1697 111.283C68.1697 109.714 68.9994 108.685 70.244 108.685C71.182 108.685 71.7411 109.263 71.9035 109.894H72.9677C72.7873 108.595 71.687 107.729 70.226 107.729C68.3501 107.729 67.1055 109.209 67.1055 111.319C67.1055 113.393 68.296 114.89 70.244 114.89ZM74.5234 114.746H75.5876V107.82H74.5234V114.746ZM75.0645 106.665C75.4794 106.665 75.8221 106.341 75.8221 105.944C75.8221 105.547 75.4794 105.222 75.0645 105.222C74.6497 105.222 74.307 105.547 74.307 105.944C74.307 106.341 74.6497 106.665 75.0645 106.665ZM77.5368 117.343H78.601V113.682H78.6912C78.9257 114.061 79.3766 114.89 80.7114 114.89C82.443 114.89 83.6515 113.502 83.6515 111.301C83.6515 109.118 82.443 107.729 80.6934 107.729C79.3406 107.729 78.9257 108.559 78.6912 108.92H78.5649V107.82H77.5368V117.343ZM78.583 111.283C78.583 109.732 79.2684 108.685 80.5671 108.685C81.9199 108.685 82.5873 109.822 82.5873 111.283C82.5873 112.762 81.9019 113.934 80.5671 113.934C79.2864 113.934 78.583 112.852 78.583 111.283ZM88.1789 114.89C89.5859 114.89 90.614 114.187 90.9387 113.141L89.9105 112.852C89.64 113.574 89.0132 113.934 88.1789 113.934C86.9298 113.934 86.0685 113.127 86.0189 111.644H91.0469V111.193C91.0469 108.613 89.5137 107.729 88.0707 107.729C86.1948 107.729 84.9502 109.209 84.9502 111.337C84.9502 113.465 86.1768 114.89 88.1789 114.89ZM86.0189 110.724C86.0911 109.646 86.8532 108.685 88.0707 108.685C89.2251 108.685 89.9647 109.551 89.9647 110.724H86.0189ZM96.3815 114.746H97.4096V113.682H97.5359C97.7704 114.061 98.2213 114.89 99.5561 114.89C101.288 114.89 102.496 113.502 102.496 111.301C102.496 109.118 101.288 107.729 99.5381 107.729C98.1853 107.729 97.7704 108.559 97.5359 108.92H97.4457V105.511H96.3815V114.746ZM97.4277 111.283C97.4277 109.732 98.1131 108.685 99.4118 108.685C100.765 108.685 101.432 109.822 101.432 111.283C101.432 112.762 100.747 113.934 99.4118 113.934C98.1311 113.934 97.4277 112.852 97.4277 111.283ZM106.938 114.89C108.814 114.89 110.076 113.465 110.076 111.319C110.076 109.154 108.814 107.729 106.938 107.729C105.062 107.729 103.799 109.154 103.799 111.319C103.799 113.465 105.062 114.89 106.938 114.89ZM106.938 113.934C105.513 113.934 104.864 112.708 104.864 111.319C104.864 109.93 105.513 108.685 106.938 108.685C108.363 108.685 109.012 109.93 109.012 111.319C109.012 112.708 108.363 113.934 106.938 113.934ZM114.515 114.89C116.391 114.89 117.653 113.465 117.653 111.319C117.653 109.154 116.391 107.729 114.515 107.729C112.639 107.729 111.376 109.154 111.376 111.319C111.376 113.465 112.639 114.89 114.515 114.89ZM114.515 113.934C113.09 113.934 112.441 112.708 112.441 111.319C112.441 109.93 113.09 108.685 114.515 108.685C115.94 108.685 116.589 109.93 116.589 111.319C116.589 112.708 115.94 113.934 114.515 113.934ZM119.278 114.746H120.342V112.153L121.086 111.463L123.679 114.746H125.032L121.889 110.778L124.815 107.82H123.499L120.468 110.904H120.342V105.511H119.278V114.746ZM131.091 109.371C130.758 108.388 130.009 107.729 128.638 107.729C127.177 107.729 126.095 108.559 126.095 109.732C126.095 110.688 126.663 111.328 127.935 111.626L129.089 111.896C129.788 112.059 130.117 112.392 130.117 112.87C130.117 113.465 129.486 113.952 128.494 113.952C127.624 113.952 127.078 113.578 126.889 112.834L125.878 113.087C126.126 114.264 127.096 114.89 128.512 114.89C130.122 114.89 131.218 114.011 131.218 112.816C131.218 111.851 130.613 111.242 129.378 110.94L128.35 110.688C127.529 110.485 127.159 110.21 127.159 109.678C127.159 109.082 127.79 108.649 128.638 108.649C129.567 108.649 129.95 109.163 130.135 109.641L131.091 109.371ZM138.429 114.908C139.638 114.908 140.269 114.259 140.485 113.808H140.54V114.746H141.604V110.183C141.604 107.982 139.926 107.729 139.042 107.729C137.996 107.729 136.806 108.09 136.265 109.353L137.275 109.714C137.509 109.209 138.064 108.667 139.079 108.667C140.057 108.667 140.54 109.186 140.54 110.074V110.11C140.54 110.625 140.017 110.579 138.754 110.742C137.469 110.909 136.066 111.193 136.066 112.78C136.066 114.133 137.112 114.908 138.429 114.908ZM138.592 113.952C137.744 113.952 137.131 113.574 137.131 112.834C137.131 112.022 137.87 111.77 138.7 111.662C139.151 111.608 140.359 111.481 140.54 111.265V112.239C140.54 113.105 139.854 113.952 138.592 113.952ZM143.546 114.746H144.61V110.363C144.61 109.425 145.35 108.74 146.36 108.74C146.644 108.74 146.937 108.794 147.009 108.812V107.729C146.888 107.72 146.608 107.711 146.45 107.711C145.621 107.711 144.899 108.18 144.647 108.866H144.574V107.82H143.546V114.746ZM150.964 114.89C152.371 114.89 153.399 114.187 153.724 113.141L152.696 112.852C152.425 113.574 151.798 113.934 150.964 113.934C149.715 113.934 148.854 113.127 148.804 111.644H153.832V111.193C153.832 108.613 152.299 107.729 150.856 107.729C148.98 107.729 147.735 109.209 147.735 111.337C147.735 113.465 148.962 114.89 150.964 114.89ZM148.804 110.724C148.876 109.646 149.638 108.685 150.856 108.685C152.01 108.685 152.75 109.551 152.75 110.724H148.804ZM161.926 114.89C163.333 114.89 164.362 114.187 164.686 113.141L163.658 112.852C163.387 113.574 162.761 113.934 161.926 113.934C160.677 113.934 159.816 113.127 159.766 111.644H164.794V111.193C164.794 108.613 163.261 107.729 161.818 107.729C159.942 107.729 158.698 109.209 158.698 111.337C158.698 113.465 159.924 114.89 161.926 114.89ZM159.766 110.724C159.839 109.646 160.601 108.685 161.818 108.685C162.973 108.685 163.712 109.551 163.712 110.724H159.766ZM168.452 114.908C169.66 114.908 170.291 114.259 170.508 113.808H170.562V114.746H171.626V110.183C171.626 107.982 169.949 107.729 169.065 107.729C168.019 107.729 166.828 108.09 166.287 109.353L167.297 109.714C167.532 109.209 168.086 108.667 169.101 108.667C170.079 108.667 170.562 109.186 170.562 110.074V110.11C170.562 110.625 170.039 110.579 168.776 110.742C167.491 110.909 166.089 111.193 166.089 112.78C166.089 114.133 167.135 114.908 168.452 114.908ZM168.614 113.952C167.766 113.952 167.153 113.574 167.153 112.834C167.153 112.022 167.892 111.77 168.722 111.662C169.173 111.608 170.382 111.481 170.562 111.265V112.239C170.562 113.105 169.876 113.952 168.614 113.952ZM178.475 109.371C178.141 108.388 177.393 107.729 176.022 107.729C174.561 107.729 173.478 108.559 173.478 109.732C173.478 110.688 174.047 111.328 175.318 111.626L176.473 111.896C177.172 112.059 177.501 112.392 177.501 112.87C177.501 113.465 176.869 113.952 175.877 113.952C175.007 113.952 174.461 113.578 174.272 112.834L173.262 113.087C173.51 114.264 174.479 114.89 175.895 114.89C177.505 114.89 178.601 114.011 178.601 112.816C178.601 111.851 177.997 111.242 176.761 110.94L175.733 110.688C174.912 110.485 174.543 110.21 174.543 109.678C174.543 109.082 175.174 108.649 176.022 108.649C176.951 108.649 177.334 109.163 177.519 109.641L178.475 109.371ZM180.203 114.746H181.267V107.82H180.203V114.746ZM180.744 106.665C181.159 106.665 181.502 106.341 181.502 105.944C181.502 105.547 181.159 105.222 180.744 105.222C180.329 105.222 179.987 105.547 179.987 105.944C179.987 106.341 180.329 106.665 180.744 106.665ZM186.12 114.89C187.527 114.89 188.555 114.187 188.88 113.141L187.852 112.852C187.581 113.574 186.955 113.934 186.12 113.934C184.871 113.934 184.01 113.127 183.96 111.644H188.988V111.193C188.988 108.613 187.455 107.729 186.012 107.729C184.136 107.729 182.892 109.209 182.892 111.337C182.892 113.465 184.118 114.89 186.12 114.89ZM183.96 110.724C184.033 109.646 184.795 108.685 186.012 108.685C187.167 108.685 187.906 109.551 187.906 110.724H183.96ZM190.607 114.746H191.671V110.363C191.671 109.425 192.411 108.74 193.421 108.74C193.705 108.74 193.998 108.794 194.07 108.812V107.729C193.949 107.72 193.669 107.711 193.511 107.711C192.682 107.711 191.96 108.18 191.708 108.866H191.635V107.82H190.607V114.746ZM201.916 107.82H200.437V106.16H199.372V107.82H198.326V108.722H199.372V113.051C199.372 114.259 200.346 114.836 201.248 114.836C201.645 114.836 201.898 114.764 202.042 114.71L201.825 113.754C201.735 113.772 201.591 113.808 201.356 113.808C200.888 113.808 200.437 113.664 200.437 112.762V108.722H201.916V107.82ZM206.256 114.89C208.132 114.89 209.394 113.465 209.394 111.319C209.394 109.154 208.132 107.729 206.256 107.729C204.38 107.729 203.117 109.154 203.117 111.319C203.117 113.465 204.38 114.89 206.256 114.89ZM206.256 113.934C204.831 113.934 204.182 112.708 204.182 111.319C204.182 109.93 204.831 108.685 206.256 108.685C207.681 108.685 208.33 109.93 208.33 111.319C208.33 112.708 207.681 113.934 206.256 113.934ZM218.955 111.914C218.955 113.213 217.963 113.808 217.17 113.808C216.286 113.808 215.655 113.159 215.655 112.149V107.82H214.59V112.221C214.59 113.989 215.528 114.836 216.827 114.836C217.873 114.836 218.559 114.277 218.883 113.574H218.955V114.746H220.02V107.82H218.955V111.914ZM226.875 109.371C226.541 108.388 225.793 107.729 224.422 107.729C222.961 107.729 221.879 108.559 221.879 109.732C221.879 110.688 222.447 111.328 223.718 111.626L224.873 111.896C225.572 112.059 225.901 112.392 225.901 112.87C225.901 113.465 225.27 113.952 224.278 113.952C223.407 113.952 222.862 113.578 222.672 112.834L221.662 113.087C221.91 114.264 222.88 114.89 224.296 114.89C225.906 114.89 227.001 114.011 227.001 112.816C227.001 111.851 226.397 111.242 225.161 110.94L224.133 110.688C223.313 110.485 222.943 110.21 222.943 109.678C222.943 109.082 223.574 108.649 224.422 108.649C225.351 108.649 225.734 109.163 225.919 109.641L226.875 109.371ZM231.507 114.89C232.914 114.89 233.942 114.187 234.267 113.141L233.239 112.852C232.968 113.574 232.342 113.934 231.507 113.934C230.258 113.934 229.397 113.127 229.347 111.644H234.375V111.193C234.375 108.613 232.842 107.729 231.399 107.729C229.523 107.729 228.279 109.209 228.279 111.337C228.279 113.465 229.505 114.89 231.507 114.89ZM229.347 110.724C229.419 109.646 230.182 108.685 231.399 108.685C232.553 108.685 233.293 109.551 233.293 110.724H229.347Z" fill="black"/>
<path d="M27.38 144.082C28.4758 144.082 29.3641 143.194 29.3641 142.098C29.3641 141.002 28.4758 140.114 27.38 140.114C26.2842 140.114 25.3959 141.002 25.3959 142.098C25.3959 143.194 26.2842 144.082 27.38 144.082Z" fill="black"/>
<path d="M46.8257 145.746C49.6395 145.746 51.2268 143.996 51.2268 141.11C51.2268 138.242 49.6395 136.511 46.9519 136.511H43.9757V145.746H46.8257ZM45.0941 144.754V137.503H46.8798C49.0443 137.503 50.1446 138.874 50.1446 141.11C50.1446 143.365 49.0443 144.754 46.7535 144.754H45.0941ZM52.9584 145.746H54.0226V138.82H52.9584V145.746ZM53.4996 137.665C53.9144 137.665 54.2571 137.341 54.2571 136.944C54.2571 136.547 53.9144 136.222 53.4996 136.222C53.0847 136.222 52.742 136.547 52.742 136.944C52.742 137.341 53.0847 137.665 53.4996 137.665ZM59.0562 138.82H57.505V138.116C57.505 137.431 57.7936 137.07 58.4971 137.07C58.8037 137.07 58.9841 137.142 59.0923 137.178L59.399 136.258C59.2366 136.186 58.9119 136.078 58.3889 136.078C57.3968 136.078 56.4408 136.673 56.4408 137.864V138.82H55.3225V139.722H56.4408V145.746H57.505V139.722H59.0562V138.82ZM63.6321 138.82H62.0809V138.116C62.0809 137.431 62.3695 137.07 63.073 137.07C63.3796 137.07 63.56 137.142 63.6682 137.178L63.9748 136.258C63.8125 136.186 63.4878 136.078 62.9647 136.078C61.9727 136.078 61.0167 136.673 61.0167 137.864V138.82H59.8984V139.722H61.0167V145.746H62.0809V139.722H63.6321V138.82ZM65.1236 145.746H66.1878V138.82H65.1236V145.746ZM65.6647 137.665C66.0796 137.665 66.4223 137.341 66.4223 136.944C66.4223 136.547 66.0796 136.222 65.6647 136.222C65.2499 136.222 64.9072 136.547 64.9072 136.944C64.9072 137.341 65.2499 137.665 65.6647 137.665ZM70.9509 145.89C72.484 145.89 73.4941 144.952 73.6745 143.726H72.6103C72.4119 144.483 71.7806 144.934 70.9509 144.934C69.6882 144.934 68.8765 143.888 68.8765 142.283C68.8765 140.714 69.7063 139.685 70.9509 139.685C71.8888 139.685 72.448 140.263 72.6103 140.894H73.6745C73.4941 139.595 72.3939 138.729 70.9328 138.729C69.0569 138.729 67.8123 140.209 67.8123 142.319C67.8123 144.393 69.0028 145.89 70.9509 145.89ZM79.5953 142.914C79.5953 144.213 78.6033 144.808 77.8096 144.808C76.9258 144.808 76.2945 144.159 76.2945 143.149V138.82H75.2303V143.221C75.2303 144.989 76.1682 145.836 77.4669 145.836C78.5131 145.836 79.1985 145.277 79.5232 144.574H79.5953V145.746H80.6596V138.82H79.5953V142.914ZM83.6729 136.511H82.6087V145.746H83.6729V136.511ZM88.6344 138.82H87.1553V137.16H86.0911V138.82H85.0449V139.722H86.0911V144.051C86.0911 145.259 87.0651 145.836 87.967 145.836C88.3638 145.836 88.6164 145.764 88.7607 145.71L88.5442 144.754C88.454 144.772 88.3097 144.808 88.0752 144.808C87.6063 144.808 87.1553 144.664 87.1553 143.762V139.722H88.6344V138.82ZM90.9206 148.343C91.8811 148.343 92.5575 147.834 92.9589 146.756L95.908 138.838L94.7446 138.82L92.8326 144.339H92.7605L90.8485 138.82H89.6941L92.2554 145.782L92.057 146.323C91.6692 147.378 91.1912 147.478 90.4156 147.279L90.145 148.217C90.2533 148.271 90.5599 148.343 90.9206 148.343ZM103.9 138.82H102.421V137.16H101.356V138.82H100.31V139.722H101.356V144.051C101.356 145.259 102.331 145.836 103.232 145.836C103.629 145.836 103.882 145.764 104.026 145.71L103.81 144.754C103.719 144.772 103.575 144.808 103.341 144.808C102.872 144.808 102.421 144.664 102.421 143.762V139.722H103.9V138.82ZM108.24 145.89C110.116 145.89 111.379 144.465 111.379 142.319C111.379 140.154 110.116 138.729 108.24 138.729C106.364 138.729 105.102 140.154 105.102 142.319C105.102 144.465 106.364 145.89 108.24 145.89ZM108.24 144.934C106.815 144.934 106.166 143.708 106.166 142.319C106.166 140.93 106.815 139.685 108.24 139.685C109.665 139.685 110.314 140.93 110.314 142.319C110.314 143.708 109.665 144.934 108.24 144.934ZM120.94 142.914C120.94 144.213 119.948 144.808 119.154 144.808C118.27 144.808 117.639 144.159 117.639 143.149V138.82H116.575V143.221C116.575 144.989 117.512 145.836 118.811 145.836C119.857 145.836 120.543 145.277 120.867 144.574H120.94V145.746H122.004V138.82H120.94V142.914ZM128.859 140.371C128.525 139.388 127.777 138.729 126.406 138.729C124.945 138.729 123.863 139.559 123.863 140.732C123.863 141.688 124.431 142.328 125.703 142.626L126.857 142.896C127.556 143.059 127.885 143.392 127.885 143.87C127.885 144.465 127.254 144.952 126.262 144.952C125.391 144.952 124.846 144.578 124.656 143.834L123.646 144.087C123.894 145.264 124.864 145.89 126.28 145.89C127.89 145.89 128.985 145.011 128.985 143.816C128.985 142.851 128.381 142.242 127.146 141.94L126.117 141.688C125.297 141.485 124.927 141.21 124.927 140.678C124.927 140.082 125.558 139.649 126.406 139.649C127.335 139.649 127.718 140.163 127.903 140.641L128.859 140.371ZM133.491 145.89C134.898 145.89 135.927 145.187 136.251 144.141L135.223 143.852C134.952 144.574 134.326 144.934 133.491 144.934C132.242 144.934 131.381 144.127 131.331 142.644H136.359V142.193C136.359 139.613 134.826 138.729 133.383 138.729C131.507 138.729 130.263 140.209 130.263 142.337C130.263 144.465 131.489 145.89 133.491 145.89ZM131.331 141.724C131.404 140.646 132.166 139.685 133.383 139.685C134.538 139.685 135.277 140.551 135.277 141.724H131.331ZM141.55 145.746H142.614V141.417C142.614 140.402 143.353 139.685 144.183 139.685C144.99 139.685 145.554 140.213 145.554 141.002V145.746H146.636V141.237C146.636 140.344 147.195 139.685 148.169 139.685C148.927 139.685 149.576 140.087 149.576 141.11V145.746H150.641V141.11C150.641 139.483 149.766 138.729 148.53 138.729C147.538 138.729 146.812 139.185 146.456 139.902H146.384C146.041 139.162 145.437 138.729 144.526 138.729C143.624 138.729 142.957 139.162 142.668 139.902H142.578V138.82H141.55V145.746ZM155.4 145.89C157.276 145.89 158.539 144.465 158.539 142.319C158.539 140.154 157.276 138.729 155.4 138.729C153.524 138.729 152.262 140.154 152.262 142.319C152.262 144.465 153.524 145.89 155.4 145.89ZM155.4 144.934C153.975 144.934 153.326 143.708 153.326 142.319C153.326 140.93 153.975 139.685 155.4 139.685C156.825 139.685 157.475 140.93 157.475 142.319C157.475 143.708 156.825 144.934 155.4 144.934ZM160.308 145.746H161.336V144.682H161.462C161.696 145.061 162.147 145.89 163.482 145.89C165.214 145.89 166.422 144.502 166.422 142.301C166.422 140.118 165.214 138.729 163.464 138.729C162.111 138.729 161.696 139.559 161.462 139.92H161.372V136.511H160.308V145.746ZM161.354 142.283C161.354 140.732 162.039 139.685 163.338 139.685C164.691 139.685 165.358 140.822 165.358 142.283C165.358 143.762 164.673 144.934 163.338 144.934C162.057 144.934 161.354 143.852 161.354 142.283ZM168.05 145.746H169.114V138.82H168.05V145.746ZM168.591 137.665C169.006 137.665 169.349 137.341 169.349 136.944C169.349 136.547 169.006 136.222 168.591 136.222C168.176 136.222 167.834 136.547 167.834 136.944C167.834 137.341 168.176 137.665 168.591 137.665ZM172.128 136.511H171.064V145.746H172.128V136.511ZM176.981 145.89C178.388 145.89 179.416 145.187 179.741 144.141L178.713 143.852C178.442 144.574 177.815 144.934 176.981 144.934C175.732 144.934 174.871 144.127 174.821 142.644H179.849V142.193C179.849 139.613 178.316 138.729 176.873 138.729C174.997 138.729 173.752 140.209 173.752 142.337C173.752 144.465 174.979 145.89 176.981 145.89ZM174.821 141.724C174.893 140.646 175.655 139.685 176.873 139.685C178.027 139.685 178.767 140.551 178.767 141.724H174.821ZM186.609 145.746H187.655L189.17 140.425H189.278L190.793 145.746H191.839L193.95 138.82H192.831L191.334 144.105H191.262L189.801 138.82H188.665L187.186 144.123H187.114L185.616 138.82H184.498L186.609 145.746ZM196.421 141.579C196.421 140.371 197.192 139.685 198.243 139.685C199.244 139.685 199.848 140.317 199.848 141.417V145.746H200.912V141.345C200.912 139.564 199.965 138.729 198.549 138.729C197.458 138.729 196.836 139.185 196.511 139.902H196.421V136.511H195.357V145.746H196.421V141.579ZM202.859 145.746H203.923V138.82H202.859V145.746ZM203.4 137.665C203.815 137.665 204.158 137.341 204.158 136.944C204.158 136.547 203.815 136.222 203.4 136.222C202.985 136.222 202.643 136.547 202.643 136.944C202.643 137.341 202.985 137.665 203.4 137.665ZM206.937 136.511H205.873V145.746H206.937V136.511ZM211.79 145.89C213.197 145.89 214.225 145.187 214.55 144.141L213.522 143.852C213.251 144.574 212.624 144.934 211.79 144.934C210.541 144.934 209.68 144.127 209.63 142.644H214.658V142.193C214.658 139.613 213.125 138.729 211.682 138.729C209.806 138.729 208.561 140.209 208.561 142.337C208.561 144.465 209.788 145.89 211.79 145.89ZM209.63 141.724C209.702 140.646 210.464 139.685 211.682 139.685C212.836 139.685 213.576 140.551 213.576 141.724H209.63ZM46.6453 164.89C48.1785 164.89 49.1886 163.952 49.369 162.726H48.3048C48.1063 163.483 47.475 163.934 46.6453 163.934C45.3827 163.934 44.571 162.888 44.571 161.283C44.571 159.714 45.4007 158.685 46.6453 158.685C47.5833 158.685 48.1424 159.263 48.3048 159.894H49.369C49.1886 158.595 48.0883 157.729 46.6273 157.729C44.7514 157.729 43.5068 159.209 43.5068 161.319C43.5068 163.393 44.6972 164.89 46.6453 164.89ZM53.7386 164.89C55.6145 164.89 56.8771 163.465 56.8771 161.319C56.8771 159.154 55.6145 157.729 53.7386 157.729C51.8627 157.729 50.6 159.154 50.6 161.319C50.6 163.465 51.8627 164.89 53.7386 164.89ZM53.7386 163.934C52.3136 163.934 51.6642 162.708 51.6642 161.319C51.6642 159.93 52.3136 158.685 53.7386 158.685C55.1635 158.685 55.8129 159.93 55.8129 161.319C55.8129 162.708 55.1635 163.934 53.7386 163.934ZM61.3154 164.89C63.1913 164.89 64.454 163.465 64.454 161.319C64.454 159.154 63.1913 157.729 61.3154 157.729C59.4395 157.729 58.1769 159.154 58.1769 161.319C58.1769 163.465 59.4395 164.89 61.3154 164.89ZM61.3154 163.934C59.8905 163.934 59.2411 162.708 59.2411 161.319C59.2411 159.93 59.8905 158.685 61.3154 158.685C62.7404 158.685 63.3898 159.93 63.3898 161.319C63.3898 162.708 62.7404 163.934 61.3154 163.934ZM66.0785 164.746H67.1427V162.153L67.8867 161.463L70.4796 164.746H71.8324L68.6894 160.778L71.616 157.82H70.2993L67.2689 160.904H67.1427V155.511H66.0785V164.746ZM72.9857 164.746H74.0499V157.82H72.9857V164.746ZM73.5268 156.665C73.9417 156.665 74.2844 156.341 74.2844 155.944C74.2844 155.547 73.9417 155.222 73.5268 155.222C73.112 155.222 72.7693 155.547 72.7693 155.944C72.7693 156.341 73.112 156.665 73.5268 156.665ZM77.0633 160.579C77.0633 159.371 77.8119 158.685 78.831 158.685C79.8186 158.685 80.4183 159.33 80.4183 160.417V164.746H81.4825V160.345C81.4825 158.577 80.5401 157.729 79.1376 157.729C78.0915 157.729 77.4421 158.198 77.1174 158.902H77.0272V157.82H75.9991V164.746H77.0633V160.579ZM86.223 167.488C87.8824 167.488 89.2172 166.73 89.2172 164.945V157.82H88.1891V158.92H88.0809C87.8464 158.559 87.4135 157.729 86.0607 157.729C84.311 157.729 83.1025 159.118 83.1025 161.247C83.1025 163.411 84.3651 164.638 86.0426 164.638C87.3954 164.638 87.8283 163.844 88.0628 163.465H88.153V164.872C88.153 166.027 87.3413 166.55 86.223 166.55C84.9649 166.55 84.523 165.887 84.2389 165.504L83.3911 166.099C83.824 166.825 84.6763 167.488 86.223 167.488ZM86.1869 163.682C84.8521 163.682 84.1667 162.672 84.1667 161.229C84.1667 159.822 84.8341 158.685 86.1869 158.685C87.4856 158.685 88.171 159.732 88.171 161.229C88.171 162.762 87.4676 163.682 86.1869 163.682Z" fill="black"/>
<path d="M24.9472 48.7461H27.0384V44.8455H29.248C31.9142 44.8455 33.3459 43.2447 33.3459 41.0238C33.3459 38.8198 31.9311 37.2021 29.2762 37.2021H24.9472V48.7461ZM27.0384 43.1263V38.9495H28.9549C30.5219 38.9495 31.2153 39.795 31.2153 41.0238C31.2153 42.2526 30.5219 43.1263 28.9662 43.1263H27.0384ZM37.4086 48.9208C38.7671 48.9208 39.5787 48.2839 39.9508 47.5567H40.0184V48.7461H41.98V42.9515C41.98 40.663 40.1142 39.9754 38.4627 39.9754C36.642 39.9754 35.2441 40.787 34.7932 42.3653L36.6984 42.6359C36.9013 42.044 37.4762 41.5367 38.4739 41.5367C39.4209 41.5367 39.9395 42.0215 39.9395 42.8726V42.9064C39.9395 43.4927 39.3251 43.5209 37.7975 43.6843C36.1178 43.8647 34.5113 44.3664 34.5113 46.3167C34.5113 48.019 35.757 48.9208 37.4086 48.9208ZM37.9385 47.4215C37.0873 47.4215 36.4785 47.0325 36.4785 46.2828C36.4785 45.4993 37.1606 45.1724 38.0737 45.0428C38.6092 44.9695 39.6802 44.8342 39.9451 44.62V45.6403C39.9451 46.6041 39.1673 47.4215 37.9385 47.4215ZM44.0318 48.7461H46.0722V40.0881H44.0318V48.7461ZM45.0576 38.8593C45.7059 38.8593 46.2357 38.3632 46.2357 37.7545C46.2357 37.1401 45.7059 36.644 45.0576 36.644C44.4038 36.644 43.8739 37.1401 43.8739 37.7545C43.8739 38.3632 44.4038 38.8593 45.0576 38.8593ZM50.211 43.673C50.211 42.4217 50.9663 41.7002 52.0429 41.7002C53.097 41.7002 53.7283 42.3935 53.7283 43.549V48.7461H55.7688V43.2334C55.7745 41.1591 54.5907 39.9754 52.8039 39.9754C51.5075 39.9754 50.6169 40.5954 50.2223 41.5593H50.1208V40.0881H48.1705V48.7461H50.211V43.673ZM61.8706 48.7461H63.9618V44.8455H66.1714C68.8376 44.8455 70.2693 43.2447 70.2693 41.0238C70.2693 38.8198 68.8545 37.2021 66.1996 37.2021H61.8706V48.7461ZM63.9618 43.1263V38.9495H65.8783C67.4453 38.9495 68.1386 39.795 68.1386 41.0238C68.1386 42.2526 67.4453 43.1263 65.8896 43.1263H63.9618ZM75.6481 48.9152C78.1847 48.9152 79.7968 47.1284 79.7968 44.4509C79.7968 41.7678 78.1847 39.9754 75.6481 39.9754C73.1116 39.9754 71.4995 41.7678 71.4995 44.4509C71.4995 47.1284 73.1116 48.9152 75.6481 48.9152ZM75.6594 47.2805C74.2559 47.2805 73.5682 46.0292 73.5682 44.4453C73.5682 42.8614 74.2559 41.5931 75.6594 41.5931C77.0404 41.5931 77.7281 42.8614 77.7281 44.4453C77.7281 46.0292 77.0404 47.2805 75.6594 47.2805ZM81.5287 48.7461H83.5691V40.0881H81.5287V48.7461ZM82.5545 38.8593C83.2028 38.8593 83.7326 38.3632 83.7326 37.7545C83.7326 37.1401 83.2028 36.644 82.5545 36.644C81.9007 36.644 81.3708 37.1401 81.3708 37.7545C81.3708 38.3632 81.9007 38.8593 82.5545 38.8593ZM87.7079 43.673C87.7079 42.4217 88.4632 41.7002 89.5398 41.7002C90.5939 41.7002 91.2252 42.3935 91.2252 43.549V48.7461H93.2657V43.2334C93.2714 41.1591 92.0876 39.9754 90.3008 39.9754C89.0044 39.9754 88.1138 40.5954 87.7192 41.5593H87.6177V40.0881H85.6674V48.7461H87.7079V43.673ZM99.6634 40.0881H97.9555V38.0138H95.915V40.0881H94.6862V41.6664H95.915V46.4801C95.9037 48.1091 97.0874 48.9096 98.6206 48.8645C99.2012 48.8476 99.6014 48.7348 99.8212 48.6615L99.4774 47.0663C99.3647 47.0945 99.1336 47.1453 98.8799 47.1453C98.367 47.1453 97.9555 46.9649 97.9555 46.1419V41.6664H99.6634V40.0881ZM108.089 42.3766C107.807 40.911 106.635 39.9754 104.605 39.9754C102.52 39.9754 101.099 41.0012 101.105 42.6021C101.099 43.8647 101.877 44.6989 103.54 45.0428L105.017 45.3528C105.812 45.5275 106.184 45.8488 106.184 46.3392C106.184 46.9311 105.541 47.3764 104.572 47.3764C103.636 47.3764 103.027 46.9705 102.852 46.1927L100.863 46.3843C101.116 47.9739 102.452 48.9152 104.577 48.9152C106.742 48.9152 108.269 47.7935 108.275 46.1532C108.269 44.9188 107.474 44.1634 105.84 43.8083L104.363 43.4927C103.484 43.2954 103.134 42.991 103.14 42.4893C103.134 41.9031 103.782 41.4973 104.634 41.4973C105.575 41.4973 106.071 42.0102 106.229 42.5795L108.089 42.3766Z" fill="black"/>
<path d="M114.537 42.9741C114.537 45.815 115.304 48.1824 116.679 50.1891H117.852C116.769 48.701 115.913 45.6572 115.913 42.9741C115.913 40.291 116.769 37.2472 117.852 35.7591H116.679C115.304 37.7658 114.537 40.1332 114.537 42.9741ZM123.557 48.7461C127.075 48.7461 129.059 46.559 129.059 42.9515C129.059 39.3666 127.075 37.2021 123.715 37.2021H119.995V48.7461H123.557ZM121.393 47.506V38.4422H123.625C126.331 38.4422 127.706 40.1557 127.706 42.9515C127.706 45.7699 126.331 47.506 123.467 47.506H121.393ZM131.223 48.7461H132.554V40.0881H131.223V48.7461ZM131.9 38.6451C132.418 38.6451 132.847 38.2392 132.847 37.7432C132.847 37.2472 132.418 36.8413 131.9 36.8413C131.381 36.8413 130.953 37.2472 130.953 37.7432C130.953 38.2392 131.381 38.6451 131.9 38.6451ZM141.123 42.0271C140.706 40.7983 139.77 39.9754 138.057 39.9754C136.23 39.9754 134.877 41.0125 134.877 42.4781C134.877 43.673 135.588 44.4735 137.177 44.8455L138.62 45.1837C139.494 45.3866 139.905 45.8037 139.905 46.4012C139.905 47.1453 139.116 47.754 137.876 47.754C136.788 47.754 136.106 47.2862 135.869 46.3561L134.607 46.6718C134.917 48.143 136.129 48.9265 137.899 48.9265C139.911 48.9265 141.281 47.8273 141.281 46.3336C141.281 45.1273 140.525 44.3664 138.981 43.9887L137.696 43.673C136.67 43.4194 136.208 43.0755 136.208 42.4104C136.208 41.6664 136.997 41.1252 138.057 41.1252C139.218 41.1252 139.697 41.7678 139.928 42.3653L141.123 42.0271ZM146.801 48.9265C148.717 48.9265 149.98 47.754 150.205 46.2208H148.875C148.627 47.1678 147.838 47.7315 146.801 47.7315C145.222 47.7315 144.208 46.4238 144.208 44.4171C144.208 42.4555 145.245 41.1703 146.801 41.1703C147.973 41.1703 148.672 41.8918 148.875 42.681H150.205C149.98 41.0576 148.604 39.9754 146.778 39.9754C144.433 39.9754 142.877 41.8242 142.877 44.4622C142.877 47.0551 144.365 48.9265 146.801 48.9265ZM155.667 48.9265C158.012 48.9265 159.59 47.1453 159.59 44.4622C159.59 41.7566 158.012 39.9754 155.667 39.9754C153.322 39.9754 151.744 41.7566 151.744 44.4622C151.744 47.1453 153.322 48.9265 155.667 48.9265ZM155.667 47.7315C153.886 47.7315 153.074 46.1983 153.074 44.4622C153.074 42.7261 153.886 41.1703 155.667 41.1703C157.448 41.1703 158.26 42.7261 158.26 44.4622C158.26 46.1983 157.448 47.7315 155.667 47.7315ZM168.391 40.0881H166.948L164.558 46.9874H164.467L162.077 40.0881H160.634L163.836 48.7461H165.189L168.391 40.0881ZM173.466 48.9265C175.225 48.9265 176.51 48.0471 176.916 46.7394L175.631 46.3787C175.293 47.2805 174.509 47.7315 173.466 47.7315C171.905 47.7315 170.828 46.7225 170.766 44.868H177.051V44.3044C177.051 41.0801 175.135 39.9754 173.331 39.9754C170.986 39.9754 169.431 41.8242 169.431 44.4847C169.431 47.1453 170.964 48.9265 173.466 48.9265ZM170.766 43.7181C170.857 42.371 171.809 41.1703 173.331 41.1703C174.774 41.1703 175.699 42.2526 175.699 43.7181H170.766ZM179.075 48.7461H180.405V43.2672C180.405 42.0948 181.33 41.238 182.592 41.238C182.947 41.238 183.314 41.3056 183.404 41.3282V39.9754C183.252 39.9641 182.902 39.9528 182.705 39.9528C181.668 39.9528 180.766 40.539 180.45 41.3958H180.36V40.0881H179.075V48.7461ZM188.347 48.9265C190.106 48.9265 191.391 48.0471 191.797 46.7394L190.512 46.3787C190.174 47.2805 189.39 47.7315 188.347 47.7315C186.786 47.7315 185.709 46.7225 185.647 44.868H191.932V44.3044C191.932 41.0801 190.016 39.9754 188.212 39.9754C185.867 39.9754 184.312 41.8242 184.312 44.4847C184.312 47.1453 185.845 48.9265 188.347 48.9265ZM185.647 43.7181C185.738 42.371 186.69 41.1703 188.212 41.1703C189.655 41.1703 190.58 42.2526 190.58 43.7181H185.647ZM197.225 48.9265C198.894 48.9265 199.457 47.8893 199.75 47.4158H199.908V48.7461H201.193V37.2021H199.863V41.4634H199.75C199.457 41.0125 198.939 39.9754 197.248 39.9754C195.061 39.9754 193.55 41.7115 193.55 44.4396C193.55 47.1904 195.061 48.9265 197.225 48.9265ZM197.406 47.7315C195.737 47.7315 194.88 46.2659 194.88 44.4171C194.88 42.5908 195.715 41.1703 197.406 41.1703C199.029 41.1703 199.886 42.4781 199.886 44.4171C199.886 46.3787 199.006 47.7315 197.406 47.7315ZM206.655 43.876C206.655 41.0351 205.889 38.6676 204.514 36.661H203.341C204.423 38.1491 205.28 41.1929 205.28 43.876C205.28 46.559 204.423 49.6029 203.341 51.091H204.514C205.889 49.0843 206.655 46.7169 206.655 43.876Z" fill="#FF8A00"/>
<rect x="0.793651" y="0.793651" width="298.413" height="207.937" rx="3.1746" stroke="#FAFAFA" stroke-width="1.5873"/>
</svg>
