<svg width="373" height="466" viewBox="0 0 373 466" fill="none" xmlns="http://www.w3.org/2000/svg">
<rect width="373" height="466" rx="5" fill="#0F0F0F"/>
<path d="M50 54C50 51.2386 52.2386 49 55 49H174C176.761 49 179 51.2386 179 54V173C179 175.761 176.761 178 174 178H55C52.2386 178 50 175.761 50 173V54Z" fill="#FAFF0C"/>
<path d="M199 54C199 51.2386 201.239 49 204 49H323C325.761 49 328 51.2386 328 54V173C328 175.761 325.761 178 323 178H204C201.239 178 199 175.761 199 173V54Z" fill="#006CEB"/>
<path d="M50 203C50 200.239 52.2386 198 55 198H323C325.761 198 328 200.239 328 203V293C328 295.761 325.761 298 323 298H55C52.2386 298 50 295.761 50 293V203Z" fill="#99BDD7"/>
<path d="M50 323C50 320.239 52.2386 318 55 318H323C325.761 318 328 320.239 328 323V413C328 415.761 325.761 418 323 418H55C52.2386 418 50 415.761 50 413V323Z" fill="#0C1E33"/>
<path d="M87.6952 118H89.3145L89.9218 114.303H91.9122L92.1753 112.683H90.1849L90.7112 109.499H92.7151L92.9782 107.879H90.9743L91.5816 104.182H89.9623L89.355 107.879H86.1164L86.7236 104.182H85.1043L84.4971 107.879H82.5067L82.2435 109.499H84.2339L83.7077 112.683H81.7037L81.4406 114.303H83.4445L82.8373 118H84.4566L85.0638 114.303H88.3025L87.6952 118ZM85.327 112.683L85.8532 109.499H89.0919L88.5656 112.683H85.327ZM99.5432 107.636H97.3099V106.705C97.3099 105.788 97.6878 105.288 98.6729 105.288C99.0912 105.288 99.3881 105.383 99.577 105.444L100.049 103.811C99.7659 103.703 99.1789 103.534 98.3625 103.534C96.7229 103.534 95.2858 104.492 95.2858 106.435V107.636H93.6867V109.256H95.2858V118H97.3099V109.256H99.5432V107.636ZM104.325 118.229C106.039 118.229 107.004 117.359 107.388 116.583H107.469V118H109.44V111.118C109.44 108.102 107.065 107.501 105.418 107.501C103.543 107.501 101.815 108.257 101.141 110.146L103.037 110.578C103.333 109.843 104.089 109.134 105.445 109.134C106.748 109.134 107.415 109.816 107.415 110.99V111.037C107.415 111.772 106.66 111.759 104.798 111.975C102.834 112.204 100.824 112.717 100.824 115.072C100.824 117.109 102.355 118.229 104.325 118.229ZM104.764 116.61C103.624 116.61 102.8 116.097 102.8 115.099C102.8 114.019 103.759 113.635 104.926 113.479C105.58 113.392 107.132 113.216 107.422 112.926V114.262C107.422 115.49 106.444 116.61 104.764 116.61ZM117.059 107.636H114.826V106.705C114.826 105.788 115.203 105.288 116.188 105.288C116.607 105.288 116.904 105.383 117.093 105.444L117.565 103.811C117.282 103.703 116.695 103.534 115.878 103.534C114.239 103.534 112.801 104.492 112.801 106.435V107.636H111.202V109.256H112.801V118H114.826V109.256H117.059V107.636ZM124.073 107.636H121.839V106.705C121.839 105.788 122.217 105.288 123.202 105.288C123.62 105.288 123.917 105.383 124.106 105.444L124.579 103.811C124.295 103.703 123.708 103.534 122.892 103.534C121.252 103.534 119.815 104.492 119.815 106.435V107.636H118.216V109.256H119.815V118H121.839V109.256H124.073V107.636ZM130.938 118.229C134.129 118.229 135.998 115.625 135.998 111.098C135.998 106.604 134.102 103.993 130.938 103.993C127.767 103.993 125.877 106.597 125.871 111.098C125.871 115.618 127.74 118.223 130.938 118.229ZM130.938 116.428C129.069 116.428 127.942 114.552 127.942 111.098C127.949 107.657 129.076 105.761 130.938 105.761C132.793 105.761 133.927 107.657 133.927 111.098C133.927 114.552 132.8 116.428 130.938 116.428ZM142.784 118.209C145.233 118.209 146.819 116.738 147.042 114.721H145.078C144.822 115.841 143.951 116.502 142.798 116.502C141.091 116.502 139.991 115.078 139.991 112.818C139.991 110.598 141.111 109.202 142.798 109.202C144.08 109.202 144.862 110.011 145.078 110.983H147.042C146.826 108.891 145.119 107.501 142.764 107.501C139.842 107.501 137.953 109.701 137.953 112.865C137.953 115.989 139.775 118.209 142.784 118.209Z" fill="#0C1E33"/>
<path d="M228.719 118H230.338L230.945 114.303H232.936L233.199 112.683H231.208L231.735 109.499H233.738L234.002 107.879H231.998L232.605 104.182H230.986L230.378 107.879H227.14L227.747 104.182H226.128L225.52 107.879H223.53L223.267 109.499H225.257L224.731 112.683H222.727L222.464 114.303H224.468L223.861 118H225.48L226.087 114.303H229.326L228.719 118ZM226.35 112.683L226.877 109.499H230.115L229.589 112.683H226.35ZM240.418 118.229C243.61 118.229 245.479 115.625 245.479 111.098C245.479 106.604 243.583 103.993 240.418 103.993C237.247 103.993 235.358 106.597 235.351 111.098C235.351 115.618 237.22 118.223 240.418 118.229ZM240.418 116.428C238.549 116.428 237.422 114.552 237.422 111.098C237.429 107.657 238.556 105.761 240.418 105.761C242.274 105.761 243.407 107.657 243.407 111.098C243.407 114.552 242.28 116.428 240.418 116.428ZM252.683 118.229C255.874 118.229 257.743 115.625 257.743 111.098C257.743 106.604 255.847 103.993 252.683 103.993C249.512 103.993 247.622 106.597 247.616 111.098C247.616 115.618 249.485 118.223 252.683 118.229ZM252.683 116.428C250.814 116.428 249.687 114.552 249.687 111.098C249.694 107.657 250.821 105.761 252.683 105.761C254.538 105.761 255.672 107.657 255.672 111.098C255.672 114.552 254.545 116.428 252.683 116.428ZM264.961 118.189C267.849 118.216 269.765 116.138 269.758 113.486C269.765 110.841 267.842 108.945 265.447 108.945C263.989 108.945 262.728 109.647 262.019 110.814H261.918C261.925 107.677 263.112 105.815 265.136 105.815C266.466 105.815 267.302 106.624 267.586 107.771H269.643C269.326 105.585 267.606 103.993 265.136 103.993C261.925 103.993 259.921 106.752 259.921 111.556C259.914 116.644 262.505 118.169 264.961 118.189ZM264.954 116.435C263.348 116.435 262.174 115.085 262.174 113.533C262.181 111.988 263.409 110.639 265.001 110.639C266.58 110.639 267.741 111.914 267.734 113.513C267.741 115.146 266.533 116.435 264.954 116.435ZM276.608 118.209C279.057 118.209 280.643 116.738 280.866 114.721H278.902C278.646 115.841 277.776 116.502 276.622 116.502C274.915 116.502 273.815 115.078 273.815 112.818C273.815 110.598 274.935 109.202 276.622 109.202C277.904 109.202 278.686 110.011 278.902 110.983H280.866C280.65 108.891 278.943 107.501 276.588 107.501C273.666 107.501 271.777 109.701 271.777 112.865C271.777 115.989 273.599 118.209 276.608 118.209ZM287.49 118.209C289.75 118.209 291.349 117.096 291.808 115.409L289.898 115.065C289.534 116.043 288.657 116.543 287.51 116.543C285.783 116.543 284.622 115.423 284.568 113.425H291.936V112.71C291.936 108.966 289.696 107.501 287.348 107.501C284.46 107.501 282.558 109.701 282.558 112.886C282.558 116.104 284.433 118.209 287.49 118.209ZM284.575 111.914C284.656 110.443 285.722 109.168 287.362 109.168C288.927 109.168 289.952 110.328 289.959 111.914H284.575ZM294.336 118H296.307V116.387H296.475C296.84 117.049 297.582 118.202 299.471 118.202C301.981 118.202 303.803 116.192 303.803 112.838C303.803 109.478 301.954 107.501 299.451 107.501C297.528 107.501 296.833 108.675 296.475 109.316H296.354V104.182H294.336V118ZM296.313 112.818C296.313 110.652 297.258 109.215 299.019 109.215C300.847 109.215 301.765 110.76 301.765 112.818C301.765 114.896 300.82 116.482 299.019 116.482C297.285 116.482 296.313 114.998 296.313 112.818Z" fill="white"/>
<path d="M154.568 252H156.188L156.795 248.303H158.785L159.048 246.683H157.058L157.584 243.499H159.588L159.851 241.879H157.847L158.455 238.182H156.835L156.228 241.879H152.989L153.597 238.182H151.977L151.37 241.879H149.38L149.117 243.499H151.107L150.581 246.683H148.577L148.314 248.303H150.318L149.71 252H151.33L151.937 248.303H155.176L154.568 252ZM152.2 246.683L152.726 243.499H155.965L155.439 246.683H152.2ZM166.052 237.993C163.151 237.966 161.255 240.051 161.255 242.669C161.261 245.307 163.171 247.21 165.566 247.21C167.03 247.21 168.285 246.494 168.994 245.334H169.102C169.095 248.512 167.901 250.367 165.877 250.367C164.554 250.367 163.704 249.558 163.434 248.377H161.376C161.68 250.61 163.407 252.189 165.877 252.189C169.088 252.189 171.099 249.429 171.099 244.592C171.092 239.545 168.515 238.013 166.052 237.993ZM166.059 239.747C167.658 239.747 168.839 241.103 168.839 242.621C168.845 244.16 167.597 245.509 166.018 245.509C164.433 245.509 163.286 244.241 163.279 242.642C163.279 241.036 164.473 239.747 166.059 239.747ZM178.131 237.993C175.23 237.966 173.334 240.051 173.334 242.669C173.341 245.307 175.25 247.21 177.645 247.21C179.109 247.21 180.364 246.494 181.073 245.334H181.181C181.174 248.512 179.98 250.367 177.956 250.367C176.633 250.367 175.783 249.558 175.513 248.377H173.455C173.759 250.61 175.486 252.189 177.956 252.189C181.167 252.189 183.178 249.429 183.178 244.592C183.171 239.545 180.594 238.013 178.131 237.993ZM178.138 239.747C179.737 239.747 180.918 241.103 180.918 242.621C180.924 244.16 179.676 245.509 178.097 245.509C176.512 245.509 175.365 244.241 175.358 242.642C175.358 241.036 176.552 239.747 178.138 239.747ZM185.804 252H187.774V250.387H187.943C188.307 251.049 189.05 252.202 190.939 252.202C193.449 252.202 195.271 250.192 195.271 246.838C195.271 243.478 193.422 241.501 190.919 241.501C188.996 241.501 188.301 242.675 187.943 243.316H187.822V238.182H185.804V252ZM187.781 246.818C187.781 244.652 188.726 243.215 190.487 243.215C192.315 243.215 193.233 244.76 193.233 246.818C193.233 248.896 192.288 250.482 190.487 250.482C188.753 250.482 187.781 248.998 187.781 246.818ZM201.415 252.202C203.305 252.202 204.047 251.049 204.411 250.387H204.58V252H206.55V238.182H204.533V243.316H204.411C204.047 242.675 203.359 241.501 201.429 241.501C198.926 241.501 197.084 243.478 197.084 246.838C197.084 250.192 198.899 252.202 201.415 252.202ZM201.861 250.482C200.059 250.482 199.121 248.896 199.121 246.818C199.121 244.76 200.039 243.215 201.861 243.215C203.622 243.215 204.566 244.652 204.566 246.818C204.566 248.998 203.602 250.482 201.861 250.482ZM213.309 252.202C215.198 252.202 215.94 251.049 216.305 250.387H216.473V252H218.444V238.182H216.426V243.316H216.305C215.94 242.675 215.252 241.501 213.323 241.501C210.819 241.501 208.977 243.478 208.977 246.838C208.977 250.192 210.792 252.202 213.309 252.202ZM213.754 250.482C211.953 250.482 211.015 248.896 211.015 246.818C211.015 244.76 211.933 243.215 213.754 243.215C215.515 243.215 216.46 244.652 216.46 246.818C216.46 248.998 215.495 250.482 213.754 250.482ZM221.762 252H223.941L229.953 240.031V238.182H220.817V239.97H227.794V240.071L221.762 252Z" fill="#0C1E33"/>
<path d="M155.655 372H157.274L157.881 368.303H159.872L160.135 366.683H158.144L158.671 363.499H160.675L160.938 361.879H158.934L159.541 358.182H157.922L157.314 361.879H154.076L154.683 358.182H153.064L152.457 361.879H150.466L150.203 363.499H152.193L151.667 366.683H149.663L149.4 368.303H151.404L150.797 372H152.416L153.023 368.303H156.262L155.655 372ZM153.286 366.683L153.813 363.499H157.051L156.525 366.683H153.286ZM167.354 372.229C170.546 372.229 172.415 369.625 172.415 365.098C172.415 360.604 170.519 357.993 167.354 357.993C164.183 357.993 162.294 360.597 162.287 365.098C162.287 369.618 164.156 372.223 167.354 372.229ZM167.354 370.428C165.485 370.428 164.359 368.552 164.359 365.098C164.365 361.657 165.492 359.761 167.354 359.761C169.21 359.761 170.343 361.657 170.343 365.098C170.343 368.552 169.216 370.428 167.354 370.428ZM179.201 372.209C181.65 372.209 183.235 370.738 183.458 368.721H181.495C181.238 369.841 180.368 370.502 179.214 370.502C177.507 370.502 176.407 369.078 176.407 366.818C176.407 364.598 177.527 363.202 179.214 363.202C180.496 363.202 181.279 364.011 181.495 364.983H183.458C183.242 362.891 181.535 361.501 179.18 361.501C176.259 361.501 174.37 363.701 174.37 366.865C174.37 369.989 176.191 372.209 179.201 372.209ZM190.831 358.182H188.8L185.352 360.435V362.433L188.658 360.273H188.739V372H190.831V358.182ZM199.063 372.209C201.323 372.209 202.922 371.096 203.381 369.409L201.471 369.065C201.107 370.043 200.23 370.543 199.083 370.543C197.356 370.543 196.195 369.423 196.141 367.425H203.509V366.71C203.509 362.966 201.269 361.501 198.921 361.501C196.033 361.501 194.13 363.701 194.13 366.886C194.13 370.104 196.006 372.209 199.063 372.209ZM196.148 365.914C196.229 364.443 197.295 363.168 198.934 363.168C200.5 363.168 201.525 364.328 201.532 365.914H196.148ZM210.531 372.189C213.351 372.189 215.423 370.502 215.416 368.208C215.423 366.461 214.363 365.206 212.528 364.922V364.814C213.972 364.443 214.91 363.31 214.903 361.758C214.91 359.727 213.243 357.993 210.585 357.993C208.048 357.993 206.01 359.525 205.943 361.771H207.96C208.008 360.503 209.202 359.734 210.558 359.734C211.968 359.734 212.893 360.591 212.886 361.866C212.893 363.202 211.82 364.079 210.288 364.079H209.121V365.779H210.288C212.204 365.779 213.311 366.751 213.311 368.141C213.311 369.483 212.144 370.394 210.518 370.394C209.02 370.394 207.852 369.625 207.771 368.397H205.653C205.741 370.651 207.738 372.189 210.531 372.189ZM222.777 372.189C225.597 372.189 227.669 370.502 227.662 368.208C227.669 366.461 226.61 365.206 224.774 364.922V364.814C226.218 364.443 227.156 363.31 227.149 361.758C227.156 359.727 225.489 357.993 222.831 357.993C220.294 357.993 218.257 359.525 218.189 361.771H220.206C220.254 360.503 221.448 359.734 222.804 359.734C224.214 359.734 225.139 360.591 225.132 361.866C225.139 363.202 224.066 364.079 222.534 364.079H221.367V365.779H222.534C224.45 365.779 225.557 366.751 225.557 368.141C225.557 369.483 224.39 370.394 222.764 370.394C221.266 370.394 220.098 369.625 220.018 368.397H217.899C217.987 370.651 219.984 372.189 222.777 372.189Z" fill="white"/>
</svg>
