<svg width="1194" height="370" viewBox="0 0 1194 370" fill="none" xmlns="http://www.w3.org/2000/svg">
<path fill-rule="evenodd" clip-rule="evenodd" d="M453.527 68.0174C454.648 57.2467 464.091 49 475.371 49C480.144 49 484.56 50.4806 488.166 52.9808C490.344 51.6097 492.921 50.8071 495.69 50.8071C500.415 50.8071 504.576 53.1262 507.166 56.6618C507.738 56.5594 508.329 56.5043 508.937 56.5043C514.698 56.5043 519.309 61.2214 519.309 66.9666M453.527 68.0174C449.492 70.5665 446.809 75.085 446.809 80.2389C446.809 86.9257 451.324 92.555 457.472 94.1788L457.825 94.272L510.972 94.6413L511.034 94.639C518.708 94.3604 524.8 88.0024 524.8 80.2389C524.8 75.5553 522.586 71.3929 519.153 68.7592C519.255 68.1793 519.309 67.5806 519.309 66.9666M475.371 54.7772C466.429 54.7772 459.374 61.6051 459.196 69.843L459.157 71.6335L457.537 72.395C454.619 73.7657 452.586 76.7535 452.586 80.2389C452.586 84.1503 455.143 87.4288 458.622 88.5002L510.882 88.8633C515.382 88.6692 519.023 84.9138 519.023 80.2389C519.023 76.8941 517.155 74.0078 514.43 72.5683L512.062 71.3176L513.13 68.8621C513.389 68.2657 513.532 67.6301 513.532 66.9666C513.532 64.3466 511.442 62.2815 508.937 62.2815C508.291 62.2815 507.665 62.4289 507.072 62.6998L504.526 63.8632L503.283 61.3552C501.871 58.5053 498.99 56.5842 495.69 56.5842C493.541 56.5842 491.58 57.3999 490.068 58.7579L488.175 60.4588L486.249 58.7944C483.375 56.3102 479.572 54.7772 475.371 54.7772Z" fill="#3A95FF"/>
<path d="M467.807 113.94C469.131 111.349 469.29 99.54 469.29 99.54C469.29 99.54 459.862 106.497 458.538 109.088C457.215 111.679 458.217 114.865 460.776 116.205C463.336 117.545 466.483 116.531 467.807 113.94Z" fill="#3A95FF"/>
<path d="M487.163 113.94C488.487 111.349 488.646 99.54 488.646 99.54C488.646 99.54 479.218 106.497 477.895 109.088C476.571 111.679 477.573 114.865 480.132 116.205C482.692 117.545 485.84 116.531 487.163 113.94Z" fill="#3A95FF"/>
<path d="M500.979 116.205C503.539 117.545 506.686 116.53 508.01 113.94C509.334 111.349 509.493 99.54 509.493 99.54C509.493 99.54 500.065 106.497 498.741 109.088C497.418 111.679 498.42 114.865 500.979 116.205Z" fill="#3A95FF"/>
<path d="M465.244 135.8C467.803 137.14 470.951 136.125 472.275 133.534C473.599 130.944 473.758 119.135 473.758 119.135C473.758 119.135 464.33 126.092 463.006 128.683C461.682 131.274 462.684 134.46 465.244 135.8Z" fill="#3A95FF"/>
<path d="M484.6 135.8C487.16 137.14 490.308 136.125 491.631 133.534C492.955 130.944 493.114 119.135 493.114 119.135C493.114 119.135 483.686 126.092 482.362 128.683C481.039 131.274 482.041 134.46 484.6 135.8Z" fill="#3A95FF"/>
<path fill-rule="evenodd" clip-rule="evenodd" d="M453.553 249.592C454.679 238.78 464.158 230.501 475.482 230.501C480.273 230.501 484.707 231.987 488.326 234.497C490.513 233.121 493.099 232.315 495.879 232.315C500.623 232.315 504.799 234.643 507.4 238.192C507.974 238.09 508.568 238.034 509.178 238.034C514.961 238.034 519.59 242.77 519.59 248.537M453.553 249.592C449.503 252.151 446.809 256.687 446.809 261.861C446.809 268.574 451.342 274.225 457.513 275.855L457.867 275.948L511.22 276.319L511.283 276.317C518.987 276.037 525.103 269.654 525.103 261.861C525.103 257.159 522.879 252.981 519.433 250.337C519.535 249.755 519.59 249.154 519.59 248.537M475.482 236.301C466.505 236.301 459.423 243.155 459.244 251.425L459.205 253.222L457.578 253.987C454.649 255.363 452.608 258.362 452.608 261.861C452.608 265.787 455.176 269.079 458.668 270.154L511.13 270.519C515.648 270.324 519.303 266.554 519.303 261.861C519.303 258.503 517.427 255.606 514.692 254.161L512.315 252.905L513.387 250.44C513.647 249.841 513.79 249.203 513.79 248.537C513.79 245.907 511.693 243.834 509.178 243.834C508.529 243.834 507.901 243.982 507.305 244.254L504.75 245.422L503.502 242.904C502.084 240.043 499.192 238.115 495.879 238.115C493.722 238.115 491.753 238.933 490.236 240.297L488.335 242.004L486.402 240.333C483.516 237.839 479.699 236.301 475.482 236.301Z" fill="#3A95FF"/>
<path d="M462.528 292.566C462.179 293.362 462.602 294.153 463.448 294.38C464.295 294.607 465.068 294.094 465.163 293.231L465.683 289.601L468.274 292.625C468.592 292.965 468.846 293.202 469.184 293.293C469.946 293.497 470.782 293.086 470.973 292.375C471.142 291.743 470.793 291.184 470.338 290.85L467.016 288.35L471.154 287.808C471.715 287.747 472.287 287.477 472.456 286.845C472.647 286.134 472.171 285.371 471.409 285.167C471.028 285.064 470.7 285.103 470.245 285.278L466.488 286.599L467.865 283.157C468.214 282.362 467.791 281.571 466.945 281.344C466.098 281.117 465.326 281.629 465.23 282.493L464.71 286.122L462.119 283.098C461.812 282.72 461.59 282.533 461.209 282.431C460.447 282.227 459.611 282.637 459.42 283.348C459.261 283.941 459.61 284.5 460.065 284.834L463.377 287.374L459.249 287.876C458.731 287.948 458.106 288.247 457.948 288.839C457.757 289.55 458.222 290.353 458.984 290.557C459.365 290.659 459.704 290.581 460.148 290.446L463.905 289.125L462.528 292.566Z" fill="#99BDD7"/>
<path d="M469.277 314.33C468.928 315.125 469.351 315.916 470.197 316.143C471.044 316.37 471.817 315.858 471.912 314.994L472.432 311.365L475.023 314.389C475.341 314.728 475.595 314.966 475.933 315.056C476.695 315.261 477.531 314.85 477.722 314.139C477.891 313.507 477.542 312.947 477.087 312.614L473.766 310.114L477.903 309.572C478.464 309.511 479.036 309.241 479.205 308.608C479.396 307.897 478.92 307.135 478.158 306.93C477.777 306.828 477.449 306.867 476.994 307.042L473.237 308.363L474.614 304.921C474.963 304.126 474.54 303.335 473.694 303.108C472.847 302.881 472.075 303.393 471.979 304.257L471.459 307.886L468.868 304.862C468.561 304.483 468.339 304.297 467.958 304.195C467.196 303.99 466.36 304.401 466.169 305.112C466.01 305.705 466.359 306.264 466.814 306.598L470.126 309.137L465.998 309.64C465.48 309.712 464.855 310.01 464.697 310.603C464.506 311.314 464.971 312.116 465.733 312.321C466.114 312.423 466.453 312.344 466.897 312.209L470.654 310.888L469.277 314.33Z" fill="#99BDD7"/>
<path d="M489.522 314.33C489.173 315.125 489.596 315.916 490.443 316.143C491.289 316.37 492.062 315.858 492.157 314.994L492.677 311.365L495.268 314.389C495.586 314.728 495.84 314.966 496.178 315.056C496.94 315.261 497.776 314.85 497.967 314.139C498.137 313.507 497.787 312.947 497.333 312.614L494.011 310.114L498.148 309.572C498.709 309.511 499.281 309.241 499.45 308.608C499.641 307.897 499.165 307.135 498.403 306.93C498.022 306.828 497.694 306.867 497.239 307.042L493.482 308.363L494.859 304.921C495.208 304.126 494.785 303.335 493.939 303.108C493.092 302.881 492.32 303.393 492.224 304.257L491.704 307.886L489.113 304.862C488.806 304.483 488.584 304.297 488.203 304.195C487.441 303.99 486.605 304.401 486.414 305.112C486.255 305.705 486.604 306.264 487.059 306.598L490.371 309.137L486.244 309.64C485.725 309.712 485.101 310.01 484.942 310.603C484.751 311.314 485.216 312.116 485.978 312.321C486.359 312.423 486.698 312.344 487.142 312.209L490.899 310.888L489.522 314.33Z" fill="#99BDD7"/>
<path d="M483.092 291.856C482.575 292.554 482.811 293.419 483.586 293.828C484.361 294.237 485.228 293.909 485.513 293.088L486.826 289.665L488.681 293.189C488.915 293.591 489.11 293.879 489.42 294.042C490.118 294.411 491.024 294.196 491.368 293.545C491.674 292.966 491.458 292.343 491.088 291.917L488.405 288.741L492.559 289.132C493.12 289.197 493.737 289.061 494.043 288.482C494.386 287.831 494.092 286.982 493.394 286.613C493.046 286.429 492.717 286.394 492.235 286.463L488.278 286.917L490.385 283.867C490.902 283.169 490.666 282.304 489.891 281.894C489.116 281.485 488.249 281.813 487.964 282.634L486.651 286.057L484.796 282.533C484.581 282.096 484.405 281.864 484.057 281.68C483.359 281.312 482.453 281.527 482.109 282.178C481.822 282.72 482.038 283.343 482.408 283.769L485.072 286.981L480.937 286.554C480.415 286.51 479.74 286.662 479.453 287.204C479.11 287.855 479.385 288.741 480.082 289.109C480.431 289.293 480.779 289.292 481.242 289.259L485.199 288.806L483.092 291.856Z" fill="#99BDD7"/>
<path d="M503.337 291.856C502.82 292.554 503.056 293.419 503.831 293.828C504.606 294.237 505.473 293.909 505.758 293.088L507.071 289.665L508.926 293.189C509.161 293.591 509.355 293.879 509.665 294.042C510.363 294.411 511.269 294.196 511.613 293.545C511.919 292.966 511.703 292.343 511.333 291.917L508.65 288.741L512.804 289.132C513.365 289.197 513.982 289.061 514.288 288.482C514.632 287.831 514.337 286.982 513.64 286.613C513.291 286.429 512.962 286.394 512.48 286.463L508.523 286.917L510.63 283.867C511.147 283.169 510.911 282.304 510.136 281.894C509.361 281.485 508.494 281.813 508.209 282.634L506.896 286.057L505.041 282.533C504.826 282.096 504.651 281.864 504.302 281.68C503.604 281.312 502.698 281.527 502.354 282.178C502.067 282.72 502.284 283.343 502.653 283.769L505.317 286.981L501.182 286.554C500.66 286.51 499.985 286.662 499.699 287.204C499.355 287.855 499.63 288.741 500.328 289.109C500.676 289.293 501.024 289.292 501.487 289.259L505.444 288.806L503.337 291.856Z" fill="#99BDD7"/>
<path d="M972.187 72.2886C972.219 72.4344 972.29 72.5705 972.393 72.683C972.496 72.7955 972.627 72.8804 972.773 72.929L983.604 76.5308L977.372 89.2071C977.294 89.3783 977.278 89.5717 977.327 89.7559C977.377 89.9402 977.488 90.1047 977.644 90.2229C977.801 90.3412 977.992 90.4063 978.188 90.4077C978.384 90.4092 978.573 90.347 978.724 90.231L999.241 72.523C999.358 72.4287 999.446 72.3053 999.496 72.1656C999.546 72.0258 999.556 71.8748 999.525 71.7281C999.494 71.5814 999.423 71.4442 999.32 71.3308C999.217 71.2174 999.085 71.1318 998.938 71.0829L988.269 67.535L994.13 54.7134C994.204 54.541 994.214 54.3484 994.16 54.1663C994.107 53.9842 993.992 53.8231 993.835 53.7085C993.677 53.594 993.486 53.5326 993.291 53.5341C993.097 53.5357 992.91 53.6001 992.761 53.7171L972.462 71.4952C972.347 71.5903 972.261 71.7138 972.213 71.8532C972.164 71.9926 972.156 72.1428 972.187 72.2886Z" fill="#FAFF0C"/>
<path d="M972.187 72.2886C972.219 72.4344 972.29 72.5705 972.393 72.683C972.496 72.7955 972.627 72.8804 972.773 72.929L983.604 76.5308L977.372 89.2071C977.294 89.3783 977.278 89.5717 977.327 89.7559C977.377 89.9402 977.488 90.1047 977.644 90.2229C977.801 90.3412 977.992 90.4063 978.188 90.4077C978.384 90.4092 978.573 90.347 978.724 90.231L999.241 72.523C999.358 72.4287 999.446 72.3053 999.496 72.1656C999.546 72.0258 999.556 71.8748 999.525 71.7281C999.494 71.5814 999.423 71.4442 999.32 71.3308C999.217 71.2174 999.085 71.1318 998.938 71.0829L988.269 67.535L994.13 54.7134C994.204 54.541 994.214 54.3484 994.16 54.1663C994.107 53.9842 993.992 53.8231 993.835 53.7085C993.677 53.594 993.486 53.5326 993.291 53.5341C993.097 53.5357 992.91 53.6001 992.761 53.7171L972.462 71.4952C972.347 71.5903 972.261 71.7138 972.213 71.8532C972.164 71.9926 972.156 72.1428 972.187 72.2886Z" stroke="#0F0F0F"/>
<path d="M918.456 95.6786C918.514 95.9448 918.643 96.1934 918.831 96.3988C919.019 96.6043 919.259 96.7593 919.526 96.8482L939.306 103.426L927.925 126.575C927.781 126.888 927.752 127.241 927.842 127.577C927.933 127.914 928.137 128.214 928.422 128.43C928.707 128.646 929.056 128.765 929.414 128.767C929.772 128.77 930.117 128.656 930.394 128.445L967.862 96.1066C968.075 95.9344 968.236 95.7091 968.327 95.4539C968.418 95.1988 968.436 94.923 968.379 94.655C968.323 94.3871 968.194 94.1366 968.006 93.9295C967.817 93.7224 967.576 93.5661 967.308 93.4768L947.824 86.9977L958.528 63.5831C958.662 63.2682 958.681 62.9165 958.583 62.584C958.485 62.2515 958.276 61.9572 957.988 61.7481C957.7 61.5389 957.351 61.4268 956.996 61.4296C956.64 61.4324 956.299 61.55 956.026 61.7637L918.958 94.2297C918.748 94.4034 918.591 94.629 918.502 94.8835C918.414 95.1381 918.398 95.4124 918.456 95.6786Z" fill="#FAFF0C"/>
<path fill-rule="evenodd" clip-rule="evenodd" d="M928.858 254.31C930.064 242.729 940.217 233.862 952.346 233.862C957.478 233.862 962.227 235.454 966.103 238.143C968.446 236.668 971.216 235.805 974.193 235.805C979.274 235.805 983.747 238.299 986.532 242.1C987.147 241.99 987.783 241.931 988.437 241.931C994.631 241.931 999.589 247.003 999.589 253.18M928.858 254.31C924.52 257.051 921.635 261.91 921.635 267.451C921.635 274.641 926.49 280.694 933.1 282.44L933.48 282.54L990.624 282.937L990.692 282.935C998.943 282.635 1005.49 275.799 1005.49 267.451C1005.49 262.415 1003.11 257.94 999.422 255.108C999.531 254.484 999.589 253.841 999.589 253.18M952.346 240.074C942.732 240.074 935.146 247.416 934.954 256.273L934.913 258.198L933.17 259.017C930.033 260.491 927.847 263.704 927.847 267.451C927.847 271.657 930.596 275.182 934.337 276.334L990.528 276.724C995.367 276.516 999.282 272.478 999.282 267.451C999.282 263.855 997.273 260.751 994.343 259.204L991.797 257.859L992.945 255.219C993.224 254.577 993.377 253.894 993.377 253.18C993.377 250.363 991.131 248.143 988.437 248.143C987.742 248.143 987.069 248.301 986.431 248.593L983.694 249.844L982.358 247.147C980.839 244.083 977.741 242.017 974.193 242.017C971.883 242.017 969.774 242.894 968.148 244.354L966.112 246.183L964.042 244.393C960.951 241.722 956.863 240.074 952.346 240.074Z" fill="#3A95FF"/>
<path d="M975.39 283.321C975.41 283.411 975.454 283.495 975.517 283.564C975.58 283.633 975.661 283.686 975.752 283.716L982.428 285.936L978.586 293.749C978.538 293.855 978.528 293.974 978.559 294.087C978.589 294.201 978.658 294.302 978.754 294.375C978.85 294.448 978.968 294.488 979.089 294.489C979.21 294.49 979.326 294.452 979.42 294.38L992.066 283.465C992.138 283.407 992.192 283.331 992.223 283.245C992.254 283.159 992.26 283.066 992.241 282.975C992.222 282.885 992.178 282.8 992.115 282.73C992.051 282.661 991.97 282.608 991.879 282.578L985.303 280.391L988.916 272.488C988.961 272.381 988.967 272.263 988.934 272.151C988.901 272.038 988.831 271.939 988.734 271.868C988.636 271.798 988.519 271.76 988.399 271.761C988.279 271.762 988.163 271.801 988.071 271.874L975.56 282.832C975.489 282.89 975.436 282.967 975.406 283.052C975.376 283.138 975.371 283.231 975.39 283.321Z" fill="#FAFF0C"/>
<path d="M940.651 293.688C940.687 293.852 940.767 294.005 940.883 294.132C940.998 294.258 941.146 294.354 941.311 294.409L953.503 298.463L946.488 312.732C946.399 312.924 946.382 313.142 946.437 313.349C946.493 313.557 946.618 313.742 946.794 313.875C946.97 314.008 947.185 314.081 947.406 314.083C947.626 314.085 947.839 314.015 948.01 313.884L971.104 293.951C971.236 293.845 971.335 293.706 971.391 293.549C971.447 293.392 971.458 293.222 971.423 293.057C971.389 292.892 971.309 292.737 971.193 292.61C971.077 292.482 970.928 292.386 970.763 292.33L958.753 288.337L965.351 273.904C965.434 273.71 965.445 273.494 965.385 273.289C965.325 273.084 965.196 272.902 965.018 272.773C964.841 272.644 964.626 272.575 964.407 272.577C964.188 272.579 963.977 272.651 963.809 272.783L940.961 292.795C940.831 292.902 940.734 293.041 940.68 293.198C940.626 293.354 940.616 293.524 940.651 293.688Z" fill="#FAFF0C"/>
<path fill-rule="evenodd" clip-rule="evenodd" d="M739.088 93.4808C749.518 93.4808 757.973 85.0282 757.973 74.6013C757.973 64.1744 749.518 55.7217 739.088 55.7217C728.659 55.7217 720.204 64.1744 720.204 74.6013C720.204 76.3391 721.613 77.7479 723.351 77.7479C725.09 77.7479 726.499 76.3391 726.499 74.6013C726.499 67.65 732.135 62.0149 739.088 62.0149C746.042 62.0149 751.678 67.65 751.678 74.6013C751.678 81.5525 746.042 87.1876 739.088 87.1876H679.287C677.549 87.1876 676.14 88.5964 676.14 90.3342C676.14 92.0721 677.549 93.4808 679.287 93.4808H739.088Z" fill="#99BDD7"/>
<path fill-rule="evenodd" clip-rule="evenodd" d="M704.467 82.4676C710.551 82.4676 715.483 77.5369 715.483 71.4545C715.483 65.3721 710.551 60.4414 704.467 60.4414C700.011 60.4414 696.047 63.1109 694.33 67.1381C693.648 68.7367 694.392 70.5851 695.991 71.2666C697.59 71.9481 699.439 71.2047 700.12 69.606C700.857 67.8788 702.556 66.7346 704.467 66.7346C707.074 66.7346 709.188 68.8478 709.188 71.4545C709.188 74.0612 707.074 76.1744 704.467 76.1744H676.14C674.401 76.1744 672.992 77.5832 672.992 79.321C672.992 81.0588 674.401 82.4676 676.14 82.4676H704.467Z" fill="#99BDD7"/>
<path fill-rule="evenodd" clip-rule="evenodd" d="M732.793 104.493C738.008 104.493 742.235 108.72 742.235 113.933C742.235 119.147 738.008 123.373 732.793 123.373C727.578 123.373 723.351 119.147 723.351 113.933C723.351 112.195 721.942 110.787 720.203 110.787C718.465 110.787 717.056 112.195 717.056 113.933C717.056 122.622 724.102 129.666 732.793 129.666C741.485 129.666 748.53 122.622 748.53 113.933C748.53 105.244 741.485 98.2002 732.793 98.2002H684.008C682.27 98.2002 680.86 99.609 680.86 101.347C680.86 103.085 682.27 104.493 684.008 104.493H732.793Z" fill="#99BDD7"/>
<path d="M735.637 234.022C734.591 234.022 733.604 234.275 732.709 234.704C730.922 230.91 727.244 228.298 722.985 228.298C720.214 228.298 717.693 229.409 715.772 231.225C712.541 228.287 708.273 226.482 703.579 226.482C693.641 226.482 685.576 234.497 685.371 244.458C681.645 246.299 679.057 250.305 679.057 254.964C679.057 260.349 682.511 264.864 687.187 266.163L737.54 266.531C743.367 266.309 748.03 261.223 748.03 254.964C748.03 250.496 745.652 246.626 742.172 244.692C742.56 243.753 742.785 242.722 742.785 241.631C742.785 237.428 739.585 234.022 735.637 234.022Z" fill="#0F0F0F"/>
<path fill-rule="evenodd" clip-rule="evenodd" d="M682.757 242.845C683.756 232.168 692.67 223.779 703.578 223.779C708.151 223.779 712.368 225.269 715.799 227.766C717.87 226.402 720.329 225.595 722.985 225.595C727.552 225.595 731.515 227.956 733.955 231.474C734.498 231.373 735.06 231.319 735.637 231.319C741.235 231.319 745.488 236.097 745.488 241.63C745.488 242.289 745.427 242.93 745.313 243.55C748.63 246.175 750.733 250.335 750.733 254.964C750.733 262.533 745.059 268.949 737.643 269.232L737.582 269.234L686.809 268.863L686.463 268.767C680.554 267.126 676.354 261.496 676.354 254.964C676.354 249.895 678.878 245.389 682.757 242.845ZM703.578 229.185C695.136 229.185 688.248 235.998 688.073 244.513L688.039 246.153L686.568 246.88C683.786 248.255 681.759 251.309 681.759 254.964C681.759 259.07 684.302 262.391 687.593 263.463L737.494 263.828C741.706 263.635 745.327 259.89 745.327 254.964C745.327 251.458 743.465 248.502 740.859 247.055L738.754 245.885L739.674 243.659C739.935 243.028 740.082 242.346 740.082 241.63C740.082 238.759 737.936 236.724 735.637 236.724C735.034 236.724 734.445 236.869 733.88 237.14L731.425 238.32L730.264 235.856C728.872 232.902 726.084 231 722.985 231C720.961 231 719.09 231.808 717.628 233.189L715.807 234.91L713.953 233.224C711.192 230.714 707.563 229.185 703.578 229.185Z" fill="#3A95FF"/>
<path fill-rule="evenodd" clip-rule="evenodd" d="M743.334 287.042C752.072 287.042 759.156 279.961 759.156 271.225C759.156 262.489 752.072 255.407 743.334 255.407C734.596 255.407 727.512 262.489 727.512 271.225C727.512 272.681 728.693 273.861 730.149 273.861C731.606 273.861 732.786 272.681 732.786 271.225C732.786 265.401 737.509 260.68 743.334 260.68C749.16 260.68 753.882 265.401 753.882 271.225C753.882 277.049 749.16 281.77 743.334 281.77H693.232C691.775 281.77 690.595 282.95 690.595 284.406C690.595 285.862 691.775 287.042 693.232 287.042H743.334Z" fill="#99BDD7"/>
<path fill-rule="evenodd" clip-rule="evenodd" d="M714.327 277.816C719.424 277.816 723.556 273.685 723.556 268.589C723.556 263.493 719.424 259.362 714.327 259.362C710.594 259.362 707.273 261.599 705.834 264.973C705.263 266.312 705.886 267.861 707.226 268.432C708.565 269.003 710.114 268.38 710.685 267.041C711.303 265.593 712.726 264.635 714.327 264.635C716.511 264.635 718.282 266.405 718.282 268.589C718.282 270.773 716.511 272.544 714.327 272.544H690.594C689.138 272.544 687.957 273.724 687.957 275.18C687.957 276.636 689.138 277.816 690.594 277.816H714.327Z" fill="#99BDD7"/>
<path fill-rule="evenodd" clip-rule="evenodd" d="M738.06 296.269C742.429 296.269 745.971 299.81 745.971 304.177C745.971 308.545 742.429 312.086 738.06 312.086C733.691 312.086 730.149 308.545 730.149 304.177C730.149 302.721 728.968 301.541 727.512 301.541C726.056 301.541 724.875 302.721 724.875 304.177C724.875 311.457 730.778 317.359 738.06 317.359C745.342 317.359 751.245 311.457 751.245 304.177C751.245 296.898 745.342 290.996 738.06 290.996H697.187C695.73 290.996 694.55 292.176 694.55 293.632C694.55 295.088 695.73 296.269 697.187 296.269H738.06Z" fill="#99BDD7"/>
<path fill-rule="evenodd" clip-rule="evenodd" d="M742.076 304.179C742.076 301.962 740.279 300.163 738.059 300.163H732.662C733.526 301.271 734.042 302.664 734.042 304.179C734.042 306.395 735.839 308.194 738.059 308.194C740.279 308.194 742.076 306.395 742.076 304.179ZM722.361 300.163C721.496 301.271 720.98 302.664 720.98 304.179C720.98 313.61 728.628 321.253 738.059 321.253C747.49 321.253 755.138 313.61 755.138 304.179C755.138 294.747 747.49 287.104 738.059 287.104H697.186C693.58 287.104 690.655 290.026 690.655 293.633C690.655 297.241 693.58 300.163 697.186 300.163H722.361ZM745.97 304.179C745.97 299.811 742.428 296.27 738.059 296.27H697.186C695.73 296.27 694.549 295.089 694.549 293.633C694.549 292.177 695.73 290.997 697.186 290.997H738.059C745.341 290.997 751.244 296.899 751.244 304.179C751.244 311.458 745.341 317.36 738.059 317.36C730.777 317.36 724.874 311.458 724.874 304.179C724.874 302.723 726.055 301.542 727.511 301.542C728.967 301.542 730.148 302.723 730.148 304.179C730.148 308.546 733.69 312.087 738.059 312.087C742.428 312.087 745.97 308.546 745.97 304.179Z" fill="#0F0F0F"/>
<ellipse cx="743.122" cy="271.172" rx="10.7451" ry="10.5532" fill="#0F0F0F"/>
<path fill-rule="evenodd" clip-rule="evenodd" d="M250.181 67.1426C247.913 67.1426 246.075 65.3042 246.075 63.0379V56.4679C246.075 54.1997 247.913 52.3613 250.181 52.3613C252.45 52.3613 254.288 54.1997 254.288 56.4679V63.0379C254.288 65.3042 252.448 67.1426 250.181 67.1426ZM250.181 81.2066C242.927 81.2066 237.012 87.1217 237.012 94.377C237.012 101.632 242.927 107.547 250.181 107.547C257.433 107.547 263.349 101.633 263.349 94.377C263.349 87.1207 257.433 81.2066 250.181 81.2066ZM229.135 94.377C229.135 82.7719 238.576 73.3289 250.181 73.3289C261.784 73.3289 271.227 82.77 271.227 94.377C271.227 105.984 261.784 115.425 250.181 115.425C238.576 115.425 229.135 105.982 229.135 94.377ZM246.075 125.713C246.075 123.444 247.913 121.606 250.181 121.606C252.448 121.606 254.288 123.444 254.288 125.713V132.281C254.288 134.551 252.45 136.389 250.181 136.389C247.913 136.389 246.075 134.551 246.075 132.281V125.713ZM269.436 75.119C267.833 73.5151 267.833 70.9157 269.436 69.3118L274.082 64.6657C275.684 63.0636 278.285 63.0636 279.889 64.6657C281.493 66.2696 281.493 68.8708 279.889 70.4729L275.243 75.119C273.641 76.7229 271.041 76.7229 269.436 75.119ZM225.118 113.635C226.722 112.029 229.321 112.029 230.925 113.635C232.529 115.235 232.529 117.836 230.925 119.438L226.279 124.086C224.677 125.688 222.076 125.688 220.472 124.086C218.868 122.484 218.87 119.881 220.472 118.279L225.118 113.635ZM277.412 94.3757C277.412 92.1075 279.25 90.2692 281.518 90.2692H288.088C290.356 90.2692 292.195 92.1075 292.195 94.3757C292.195 96.6439 290.356 98.4804 288.088 98.4804H281.518C279.25 98.4804 277.412 96.6439 277.412 94.3757ZM218.842 90.2692C221.11 90.2692 222.948 92.1075 222.948 94.3757C222.948 96.6439 221.11 98.4804 218.844 98.4804H212.274C210.005 98.4804 208.167 96.6439 208.167 94.3757C208.167 92.1075 210.005 90.2692 212.274 90.2692H218.842ZM269.435 113.633C271.039 112.031 273.641 112.031 275.243 113.633L279.889 118.28C281.493 119.88 281.493 122.483 279.889 124.085C278.285 125.687 275.686 125.687 274.082 124.085L269.435 119.439C267.832 117.835 267.832 115.236 269.435 113.633ZM230.926 69.3128C232.53 70.9167 232.53 73.516 230.926 75.12C229.322 76.7257 226.723 76.7257 225.119 75.12L220.473 70.4738C218.869 68.8718 218.869 66.2705 220.473 64.6685C222.077 63.0646 224.676 63.0646 226.28 64.6685L230.926 69.3128Z" fill="#FAFF0C"/>
<path fill-rule="evenodd" clip-rule="evenodd" d="M241.546 258.613C235.605 256.098 228.709 258.892 226.193 264.835C223.678 270.778 226.472 277.674 232.414 280.189C238.354 282.703 245.251 279.91 247.767 273.966C250.282 268.023 247.487 261.127 241.546 258.613ZM219.741 262.104C223.764 252.598 234.771 248.137 244.277 252.16C253.782 256.183 258.243 267.19 254.219 276.697C250.195 286.205 239.187 290.664 229.683 286.642C220.177 282.618 215.717 271.61 219.741 262.104Z" fill="#FAFF0C"/>
<path d="M246.422 247.092C244.564 246.305 243.695 244.162 244.481 242.306L246.759 236.924C247.545 235.066 249.688 234.198 251.546 234.984C253.404 235.771 254.273 237.914 253.486 239.772L251.208 245.153C250.423 247.01 248.278 247.878 246.422 247.092Z" fill="#FAFF0C"/>
<path d="M227.54 291.703C225.682 290.917 223.538 291.785 222.752 293.643L220.475 299.023C219.688 300.883 220.556 303.026 222.414 303.812C224.272 304.598 226.415 303.73 227.202 301.871L229.479 296.49C230.266 294.633 229.396 292.489 227.54 291.703Z" fill="#FAFF0C"/>
<path d="M259.428 260.301C258.672 258.432 259.573 256.303 261.441 255.544L266.858 253.349C268.725 252.593 270.856 253.494 271.614 255.363C272.372 257.233 271.47 259.363 269.601 260.12L264.185 262.314C262.316 263.073 260.187 262.172 259.428 260.301Z" fill="#FAFF0C"/>
<path d="M214.53 278.496C213.773 276.625 211.644 275.724 209.773 276.483L204.357 278.676C202.49 279.433 201.586 281.565 202.344 283.433C203.102 285.301 205.233 286.203 207.101 285.446L212.518 283.25C214.387 282.494 215.289 280.363 214.53 278.496Z" fill="#FAFF0C"/>
<path d="M214.673 259.957C215.459 258.099 214.591 255.956 212.733 255.17L207.353 252.892C205.495 252.106 203.352 252.975 202.566 254.832C201.779 256.69 202.648 258.832 204.506 259.618L209.888 261.896C211.744 262.682 213.887 261.815 214.673 259.957Z" fill="#FAFF0C"/>
<path d="M246.075 291.849C247.944 291.092 250.075 291.994 250.831 293.862L253.026 299.278C253.785 301.145 252.883 303.277 251.014 304.034C249.144 304.79 247.015 303.889 246.257 302.02L244.062 296.604C243.304 294.734 244.205 292.605 246.075 291.849Z" fill="#FAFF0C"/>
<path d="M227.883 246.949C229.753 246.191 230.654 244.062 229.897 242.192L227.701 236.777C226.943 234.907 224.814 234.006 222.944 234.764C221.075 235.52 220.173 237.651 220.932 239.519L223.126 244.935C223.884 246.807 226.013 247.708 227.883 246.949Z" fill="#FAFF0C"/>
<path d="M280.566 276.955C279.432 276.955 278.362 277.222 277.393 277.676C275.456 273.673 271.471 270.918 266.855 270.918C263.853 270.918 261.121 272.09 259.039 274.005C255.538 270.907 250.913 269.003 245.826 269.003C235.057 269.003 226.318 277.457 226.096 287.963C222.059 289.906 219.254 294.132 219.254 299.046C219.254 304.726 222.997 309.489 228.064 310.859L282.628 311.248C288.941 311.013 293.994 305.648 293.994 299.046C293.994 294.333 291.418 290.251 287.647 288.211C288.067 287.221 288.311 286.133 288.311 284.982C288.311 280.549 284.844 276.955 280.566 276.955Z" fill="#0F0F0F"/>
<path fill-rule="evenodd" clip-rule="evenodd" d="M223.406 286.277C224.481 274.986 234.141 266.218 245.826 266.218C250.778 266.218 255.35 267.803 259.064 270.467C261.308 268.998 263.977 268.133 266.855 268.133C271.753 268.133 276.032 270.616 278.66 274.353C279.274 274.235 279.911 274.17 280.566 274.17C286.475 274.17 291.097 279.105 291.097 284.982C291.097 285.68 291.03 286.359 290.906 287.015C294.484 289.759 296.78 294.139 296.78 299.047C296.78 307.067 290.62 313.738 282.731 314.031L282.67 314.034L227.685 313.642L227.337 313.548C221.032 311.843 216.469 305.96 216.469 299.047C216.469 293.67 219.226 288.93 223.406 286.277ZM245.826 271.789C236.53 271.789 229.07 279.074 228.881 288.023L228.845 289.732L227.304 290.474C224.227 291.954 222.04 295.207 222.04 299.047C222.04 303.367 224.8 306.929 228.47 308.077L282.582 308.462C287.295 308.255 291.209 304.208 291.209 299.047C291.209 295.363 289.199 292.218 286.322 290.661L284.092 289.455L285.083 287.122C285.367 286.454 285.526 285.735 285.526 284.982C285.526 281.993 283.213 279.741 280.566 279.741C279.876 279.741 279.208 279.902 278.574 280.199L276.084 281.364L274.886 278.889C273.375 275.768 270.317 273.704 266.855 273.704C264.599 273.704 262.528 274.581 260.925 276.056L259.075 277.757L257.193 276.091C254.18 273.424 250.205 271.789 245.826 271.789Z" fill="#3A95FF"/>
</svg>
