<svg width="786" height="250" viewBox="0 0 786 250" fill="none" xmlns="http://www.w3.org/2000/svg">
<rect width="786" height="250" rx="5" fill="#090909"/>
<path d="M50 55C50 52.2386 52.2386 50 55 50H195C197.761 50 200 52.2386 200 55V195C200 197.761 197.761 200 195 200H55C52.2386 200 50 197.761 50 195V55Z" fill="#FAFF0C"/>
<path d="M225 55C225 52.2386 227.239 50 230 50H370C372.761 50 375 52.2386 375 55V195C375 197.761 372.761 200 370 200H230C227.239 200 225 197.761 225 195V55Z" fill="#006CEB"/>
<path d="M400 55C400 52.2386 402.239 50 405 50H545C547.761 50 550 52.2386 550 55V195C550 197.761 547.761 200 545 200H405C402.239 200 400 197.761 400 195V55Z" fill="#99BDD7"/>
<path d="M575 55C575 52.2386 577.239 50 580 50H720C722.761 50 725 52.2386 725 55V195C725 197.761 722.761 200 720 200H580C577.239 200 575 197.761 575 195V55Z" fill="#0C1E33"/>
<path d="M99.606 132H101.14L101.715 128.497H103.601L103.85 126.963H101.965L102.463 123.946H104.362L104.611 122.412H102.713L103.288 118.909H101.754L101.178 122.412H98.1103L98.6855 118.909H97.1515L96.5762 122.412H94.6905L94.4412 123.946H96.3269L95.8283 126.963H93.9299L93.6806 128.497H95.579L95.0037 132H96.5378L97.1131 128.497H100.181L99.606 132ZM97.3624 126.963L97.861 123.946H100.929L100.431 126.963H97.3624ZM110.83 122.182H108.715V121.3C108.715 120.43 109.073 119.957 110.006 119.957C110.402 119.957 110.683 120.047 110.862 120.104L111.31 118.558C111.041 118.455 110.485 118.295 109.712 118.295C108.159 118.295 106.797 119.203 106.797 121.044V122.182H105.282V123.716H106.797V132H108.715V123.716H110.83V122.182ZM115.361 132.217C116.984 132.217 117.898 131.393 118.263 130.658H118.339V132H120.206V125.48C120.206 122.623 117.956 122.054 116.396 122.054C114.619 122.054 112.983 122.77 112.344 124.56L114.14 124.969C114.421 124.272 115.137 123.601 116.422 123.601C117.656 123.601 118.288 124.246 118.288 125.359V125.403C118.288 126.1 117.572 126.087 115.808 126.292C113.948 126.509 112.043 126.995 112.043 129.226C112.043 131.156 113.494 132.217 115.361 132.217ZM115.776 130.683C114.696 130.683 113.916 130.197 113.916 129.251C113.916 128.229 114.824 127.864 115.93 127.717C116.55 127.634 118.02 127.468 118.295 127.193V128.459C118.295 129.622 117.368 130.683 115.776 130.683ZM127.424 122.182H125.308V121.3C125.308 120.43 125.666 119.957 126.6 119.957C126.996 119.957 127.277 120.047 127.456 120.104L127.904 118.558C127.635 118.455 127.079 118.295 126.306 118.295C124.752 118.295 123.391 119.203 123.391 121.044V122.182H121.876V123.716H123.391V132H125.308V123.716H127.424V122.182ZM134.069 122.182H131.953V121.3C131.953 120.43 132.311 119.957 133.244 119.957C133.64 119.957 133.922 120.047 134.101 120.104L134.548 118.558C134.28 118.455 133.724 118.295 132.95 118.295C131.397 118.295 130.035 119.203 130.035 121.044V122.182H128.52V123.716H130.035V132H131.953V123.716H134.069V122.182ZM140.573 132.217C143.596 132.217 145.367 129.75 145.367 125.461C145.367 121.204 143.57 118.73 140.573 118.73C137.568 118.73 135.779 121.197 135.772 125.461C135.772 129.744 137.543 132.211 140.573 132.217ZM140.573 130.511C138.802 130.511 137.735 128.734 137.735 125.461C137.741 122.201 138.808 120.405 140.573 120.405C142.33 120.405 143.404 122.201 143.404 125.461C143.404 128.734 142.337 130.511 140.573 130.511ZM151.795 132.198C154.116 132.198 155.618 130.805 155.829 128.893H153.969C153.726 129.955 152.901 130.581 151.808 130.581C150.191 130.581 149.149 129.232 149.149 127.091C149.149 124.988 150.21 123.665 151.808 123.665C153.023 123.665 153.764 124.432 153.969 125.352H155.829C155.624 123.371 154.007 122.054 151.776 122.054C149.009 122.054 147.219 124.138 147.219 127.136C147.219 130.095 148.945 132.198 151.795 132.198Z" fill="#0C1E33"/>
<path d="M267.6 132H269.134L269.71 128.497H271.595L271.844 126.963H269.959L270.457 123.946H272.356L272.605 122.412H270.707L271.282 118.909H269.748L269.173 122.412H266.104L266.68 118.909H265.146L264.57 122.412H262.685L262.435 123.946H264.321L263.822 126.963H261.924L261.675 128.497H263.573L262.998 132H264.532L265.107 128.497H268.175L267.6 132ZM265.357 126.963L265.855 123.946H268.923L268.425 126.963H265.357ZM278.684 132.217C281.707 132.217 283.478 129.75 283.478 125.461C283.478 121.204 281.682 118.73 278.684 118.73C275.68 118.73 273.89 121.197 273.884 125.461C273.884 129.744 275.654 132.211 278.684 132.217ZM278.684 130.511C276.913 130.511 275.846 128.734 275.846 125.461C275.852 122.201 276.92 120.405 278.684 120.405C280.442 120.405 281.516 122.201 281.516 125.461C281.516 128.734 280.448 130.511 278.684 130.511ZM290.303 132.217C293.327 132.217 295.097 129.75 295.097 125.461C295.097 121.204 293.301 118.73 290.303 118.73C287.299 118.73 285.509 121.197 285.503 125.461C285.503 129.744 287.273 132.211 290.303 132.217ZM290.303 130.511C288.532 130.511 287.465 128.734 287.465 125.461C287.471 122.201 288.539 120.405 290.303 120.405C292.061 120.405 293.135 122.201 293.135 125.461C293.135 128.734 292.067 130.511 290.303 130.511ZM301.935 132.179C304.671 132.205 306.486 130.236 306.48 127.724C306.486 125.218 304.664 123.422 302.395 123.422C301.015 123.422 299.819 124.087 299.148 125.192H299.052C299.059 122.22 300.184 120.456 302.101 120.456C303.36 120.456 304.153 121.223 304.422 122.31H306.371C306.071 120.239 304.441 118.73 302.101 118.73C299.059 118.73 297.16 121.344 297.16 125.896C297.154 130.715 299.608 132.16 301.935 132.179ZM301.929 130.517C300.407 130.517 299.295 129.239 299.295 127.768C299.301 126.305 300.465 125.026 301.973 125.026C303.469 125.026 304.569 126.234 304.562 127.749C304.569 129.296 303.424 130.517 301.929 130.517ZM312.969 132.198C315.29 132.198 316.792 130.805 317.003 128.893H315.143C314.9 129.955 314.075 130.581 312.982 130.581C311.365 130.581 310.323 129.232 310.323 127.091C310.323 124.988 311.384 123.665 312.982 123.665C314.197 123.665 314.938 124.432 315.143 125.352H317.003C316.798 123.371 315.181 122.054 312.95 122.054C310.182 122.054 308.393 124.138 308.393 127.136C308.393 130.095 310.118 132.198 312.969 132.198ZM323.278 132.198C325.419 132.198 326.934 131.143 327.369 129.545L325.56 129.219C325.215 130.146 324.384 130.619 323.297 130.619C321.661 130.619 320.561 129.558 320.51 127.666H327.49V126.989C327.49 123.441 325.368 122.054 323.144 122.054C320.408 122.054 318.605 124.138 318.605 127.155C318.605 130.204 320.382 132.198 323.278 132.198ZM320.517 126.234C320.593 124.841 321.603 123.633 323.157 123.633C324.64 123.633 325.611 124.732 325.618 126.234H320.517ZM329.764 132H331.631V130.472H331.791C332.136 131.099 332.839 132.192 334.629 132.192C337.007 132.192 338.732 130.287 338.732 127.11C338.732 123.927 336.981 122.054 334.61 122.054C332.788 122.054 332.129 123.166 331.791 123.773H331.676V118.909H329.764V132ZM331.637 127.091C331.637 125.039 332.532 123.678 334.2 123.678C335.933 123.678 336.802 125.141 336.802 127.091C336.802 129.06 335.907 130.562 334.2 130.562C332.558 130.562 331.637 129.156 331.637 127.091Z" fill="white"/>
<path d="M442.407 132H443.941L444.516 128.497H446.402L446.651 126.963H444.765L445.264 123.946H447.162L447.412 122.412H445.513L446.089 118.909H444.555L443.979 122.412H440.911L441.486 118.909H439.952L439.377 122.412H437.491L437.242 123.946H439.128L438.629 126.963H436.731L436.481 128.497H438.38L437.805 132H439.339L439.914 128.497H442.982L442.407 132ZM440.163 126.963L440.662 123.946H443.73L443.231 126.963H440.163ZM453.286 118.73C450.537 118.705 448.741 120.68 448.741 123.16C448.748 125.659 450.557 127.462 452.826 127.462C454.213 127.462 455.402 126.784 456.073 125.685H456.175C456.169 128.695 455.037 130.453 453.12 130.453C451.867 130.453 451.062 129.686 450.806 128.567H448.856C449.144 130.683 450.78 132.179 453.12 132.179C456.162 132.179 458.067 129.565 458.067 124.982C458.061 120.2 455.619 118.749 453.286 118.73ZM453.292 120.392C454.807 120.392 455.926 121.677 455.926 123.115C455.932 124.572 454.75 125.851 453.254 125.851C451.752 125.851 450.665 124.649 450.659 123.134C450.659 121.613 451.79 120.392 453.292 120.392ZM464.729 118.73C461.981 118.705 460.185 120.68 460.185 123.16C460.191 125.659 462 127.462 464.269 127.462C465.656 127.462 466.845 126.784 467.516 125.685H467.619C467.612 128.695 466.481 130.453 464.563 130.453C463.31 130.453 462.505 129.686 462.249 128.567H460.3C460.587 130.683 462.224 132.179 464.563 132.179C467.606 132.179 469.511 129.565 469.511 124.982C469.504 120.2 467.062 118.749 464.729 118.73ZM464.736 120.392C466.251 120.392 467.369 121.677 467.369 123.115C467.376 124.572 466.193 125.851 464.697 125.851C463.195 125.851 462.109 124.649 462.102 123.134C462.102 121.613 463.234 120.392 464.736 120.392ZM471.999 132H473.865V130.472H474.025C474.37 131.099 475.073 132.192 476.863 132.192C479.241 132.192 480.967 130.287 480.967 127.11C480.967 123.927 479.215 122.054 476.844 122.054C475.022 122.054 474.364 123.166 474.025 123.773H473.91V118.909H471.999V132ZM473.872 127.091C473.872 125.039 474.767 123.678 476.435 123.678C478.167 123.678 479.036 125.141 479.036 127.091C479.036 129.06 478.142 130.562 476.435 130.562C474.792 130.562 473.872 129.156 473.872 127.091ZM486.788 132.192C488.578 132.192 489.281 131.099 489.626 130.472H489.786V132H491.653V118.909H489.741V123.773H489.626C489.281 123.166 488.629 122.054 486.801 122.054C484.43 122.054 482.685 123.927 482.685 127.11C482.685 130.287 484.404 132.192 486.788 132.192ZM487.21 130.562C485.504 130.562 484.615 129.06 484.615 127.091C484.615 125.141 485.484 123.678 487.21 123.678C488.879 123.678 489.773 125.039 489.773 127.091C489.773 129.156 488.859 130.562 487.21 130.562ZM498.056 132.192C499.846 132.192 500.549 131.099 500.894 130.472H501.054V132H502.92V118.909H501.009V123.773H500.894C500.549 123.166 499.897 122.054 498.069 122.054C495.697 122.054 493.952 123.927 493.952 127.11C493.952 130.287 495.672 132.192 498.056 132.192ZM498.478 130.562C496.771 130.562 495.883 129.06 495.883 127.091C495.883 125.141 496.752 123.678 498.478 123.678C500.146 123.678 501.041 125.039 501.041 127.091C501.041 129.156 500.127 130.562 498.478 130.562ZM506.064 132H508.128L513.824 120.661V118.909H505.169V120.603H511.778V120.699L506.064 132Z" fill="white"/>
<path d="M618.41 132H619.944L620.519 128.497H622.405L622.654 126.963H620.768L621.267 123.946H623.165L623.415 122.412H621.516L622.092 118.909H620.557L619.982 122.412H616.914L617.489 118.909H615.955L615.38 122.412H613.494L613.245 123.946H615.131L614.632 126.963H612.734L612.484 128.497H614.383L613.807 132H615.342L615.917 128.497H618.985L618.41 132ZM616.166 126.963L616.665 123.946H619.733L619.234 126.963H616.166ZM629.494 132.217C632.517 132.217 634.288 129.75 634.288 125.461C634.288 121.204 632.491 118.73 629.494 118.73C626.489 118.73 624.699 121.197 624.693 125.461C624.693 129.744 626.464 132.211 629.494 132.217ZM629.494 130.511C627.723 130.511 626.655 128.734 626.655 125.461C626.662 122.201 627.729 120.405 629.494 120.405C631.251 120.405 632.325 122.201 632.325 125.461C632.325 128.734 631.258 130.511 629.494 130.511ZM640.716 132.198C643.037 132.198 644.539 130.805 644.75 128.893H642.89C642.647 129.955 641.822 130.581 640.729 130.581C639.112 130.581 638.07 129.232 638.07 127.091C638.07 124.988 639.131 123.665 640.729 123.665C641.944 123.665 642.685 124.432 642.89 125.352H644.75C644.545 123.371 642.928 122.054 640.697 122.054C637.929 122.054 636.14 124.138 636.14 127.136C636.14 130.095 637.866 132.198 640.716 132.198ZM651.735 118.909H649.811L646.544 121.044V122.936L649.676 120.891H649.753V132H651.735V118.909ZM659.533 132.198C661.674 132.198 663.189 131.143 663.624 129.545L661.815 129.219C661.47 130.146 660.639 130.619 659.552 130.619C657.916 130.619 656.816 129.558 656.765 127.666H663.745V126.989C663.745 123.441 661.623 122.054 659.399 122.054C656.663 122.054 654.86 124.138 654.86 127.155C654.86 130.204 656.637 132.198 659.533 132.198ZM656.772 126.234C656.848 124.841 657.858 123.633 659.411 123.633C660.894 123.633 661.866 124.732 661.872 126.234H656.772ZM670.398 132.179C673.07 132.179 675.032 130.581 675.026 128.408C675.032 126.752 674.028 125.563 672.29 125.295V125.192C673.658 124.841 674.546 123.767 674.54 122.297C674.546 120.373 672.967 118.73 670.449 118.73C668.046 118.73 666.115 120.181 666.051 122.31H667.962C668.007 121.108 669.139 120.379 670.423 120.379C671.759 120.379 672.635 121.191 672.629 122.399C672.635 123.665 671.619 124.496 670.168 124.496H669.062V126.107H670.168C671.983 126.107 673.031 127.027 673.031 128.344C673.031 129.616 671.926 130.479 670.385 130.479C668.966 130.479 667.86 129.75 667.783 128.587H665.776C665.859 130.722 667.752 132.179 670.398 132.179ZM681.999 132.179C684.671 132.179 686.634 130.581 686.627 128.408C686.634 126.752 685.63 125.563 683.891 125.295V125.192C685.259 124.841 686.148 123.767 686.141 122.297C686.148 120.373 684.569 118.73 682.051 118.73C679.647 118.73 677.717 120.181 677.653 122.31H679.564C679.609 121.108 680.74 120.379 682.025 120.379C683.361 120.379 684.237 121.191 684.23 122.399C684.237 123.665 683.22 124.496 681.769 124.496H680.663V126.107H681.769C683.585 126.107 684.633 127.027 684.633 128.344C684.633 129.616 683.527 130.479 681.987 130.479C680.568 130.479 679.462 129.75 679.385 128.587H677.378C677.461 130.722 679.353 132.179 681.999 132.179Z" fill="white"/>
</svg>
