<svg width="345" height="201" viewBox="0 0 345 201" fill="none" xmlns="http://www.w3.org/2000/svg">
<rect x="183" width="50" height="201" rx="2" fill="#FAFF0C"/>
<rect x="239" width="50" height="201" rx="2" fill="#99BDD7"/>
<rect x="295" width="50" height="201" rx="2" fill="#0C1E33"/>
<rect width="177" height="201" rx="2" fill="#006CEB"/>
<path d="M17.532 29H15.96V20.624H19.14C19.956 20.624 20.58 20.856 21.012 21.32C21.444 21.784 21.66 22.416 21.66 23.216C21.66 23.832 21.516 24.352 21.228 24.776C20.948 25.192 20.544 25.456 20.016 25.568L21.804 29H20.076L18.48 25.748H17.532V29ZM18.816 24.524C19.24 24.524 19.544 24.44 19.728 24.272C19.912 24.096 20.004 23.82 20.004 23.444V22.988C20.004 22.612 19.912 22.34 19.728 22.172C19.544 21.996 19.24 21.908 18.816 21.908H17.532V24.524H18.816ZM27.8233 29L27.2353 26.876H24.7513L24.1753 29H22.5913L24.9433 20.624H27.1273L29.4913 29H27.8233ZM26.0473 22.172H25.9513L25.0273 25.592H26.9713L26.0473 22.172ZM30.8066 29V27.824H32.6906V21.8H30.8066V20.624H36.1346V21.8H34.2506V27.824H36.1346V29H30.8066ZM39.5739 22.988H39.4539V29H38.1099V20.624H40.0419L42.2379 26.636H42.3579V20.624H43.7019V29H41.7699L39.5739 22.988ZM47.5612 29V25.94L44.8372 20.624H46.5892L47.5612 22.64L48.3172 24.356H48.4012L49.1692 22.64L50.1532 20.624H51.8452L49.1212 25.94V29H47.5612ZM60.5719 20.624H63.4879C64.2799 20.624 64.8879 20.824 65.3119 21.224C65.7439 21.616 65.9599 22.152 65.9599 22.832C65.9599 23.312 65.8399 23.696 65.5999 23.984C65.3679 24.272 65.0359 24.48 64.6039 24.608V24.668C65.1079 24.788 65.5039 25.008 65.7919 25.328C66.0879 25.64 66.2359 26.084 66.2359 26.66C66.2359 27.012 66.1759 27.332 66.0559 27.62C65.9439 27.9 65.7799 28.144 65.5639 28.352C65.3559 28.56 65.0999 28.72 64.7959 28.832C64.4999 28.944 64.1639 29 63.7879 29H60.5719V20.624ZM63.3079 27.86C63.7479 27.86 64.0759 27.78 64.2919 27.62C64.5159 27.452 64.6279 27.168 64.6279 26.768V26.372C64.6279 25.98 64.5159 25.704 64.2919 25.544C64.0759 25.376 63.7479 25.292 63.3079 25.292H62.1079V27.86H63.3079ZM63.1039 24.2C63.5279 24.2 63.8399 24.124 64.0399 23.972C64.2479 23.82 64.3519 23.556 64.3519 23.18V22.784C64.3519 22.408 64.2479 22.144 64.0399 21.992C63.8399 21.84 63.5279 21.764 63.1039 21.764H62.1079V24.2H63.1039ZM68.2472 29V20.624H69.8192V27.704H73.5272V29H68.2472ZM76.7985 20.624V25.844C76.7985 26.156 76.8065 26.436 76.8225 26.684C76.8465 26.932 76.8985 27.144 76.9785 27.32C77.0665 27.488 77.1945 27.62 77.3625 27.716C77.5385 27.812 77.7785 27.86 78.0825 27.86C78.3865 27.86 78.6225 27.812 78.7905 27.716C78.9665 27.62 79.0945 27.488 79.1745 27.32C79.2625 27.144 79.3145 26.932 79.3305 26.684C79.3545 26.436 79.3665 26.156 79.3665 25.844V20.624H80.9385V25.604C80.9385 26.196 80.9025 26.712 80.8305 27.152C80.7585 27.592 80.6185 27.96 80.4105 28.256C80.2025 28.552 79.9105 28.776 79.5345 28.928C79.1665 29.072 78.6825 29.144 78.0825 29.144C77.4825 29.144 76.9945 29.072 76.6185 28.928C76.2505 28.776 75.9625 28.552 75.7545 28.256C75.5465 27.96 75.4065 27.592 75.3345 27.152C75.2625 26.712 75.2265 26.196 75.2265 25.604V20.624H76.7985ZM82.9138 29V20.624H88.2058V21.92H84.4858V24.104H88.0738V25.4H84.4858V27.704H88.2058V29H82.9138Z" fill="#E4E2CB"/>
<path d="M17.088 162H16.08V153.624H19.128C19.904 153.624 20.496 153.836 20.904 154.26C21.312 154.684 21.516 155.276 21.516 156.036C21.516 156.716 21.34 157.26 20.988 157.668C20.636 158.076 20.124 158.312 19.452 158.376L21.588 162H20.46L18.42 158.424H17.088V162ZM19.104 157.572C19.528 157.572 19.856 157.468 20.088 157.26C20.328 157.044 20.448 156.74 20.448 156.348V155.724C20.448 155.332 20.328 155.032 20.088 154.824C19.856 154.608 19.528 154.5 19.104 154.5H17.088V157.572H19.104ZM27.7633 160.884H27.7033C27.6313 161.044 27.5473 161.2 27.4513 161.352C27.3553 161.504 27.2313 161.64 27.0793 161.76C26.9353 161.872 26.7593 161.964 26.5513 162.036C26.3433 162.108 26.0953 162.144 25.8073 162.144C24.8953 162.144 24.2153 161.776 23.7673 161.04C23.3273 160.304 23.1073 159.248 23.1073 157.872C23.1073 156.432 23.3513 155.34 23.8393 154.596C24.3273 153.852 25.0793 153.48 26.0953 153.48C26.4873 153.48 26.8273 153.532 27.1153 153.636C27.4033 153.74 27.6473 153.88 27.8473 154.056C28.0553 154.232 28.2273 154.432 28.3633 154.656C28.4993 154.872 28.6113 155.092 28.6993 155.316L27.8353 155.712C27.7633 155.528 27.6793 155.356 27.5833 155.196C27.4953 155.028 27.3833 154.884 27.2473 154.764C27.1193 154.636 26.9633 154.536 26.7793 154.464C26.5953 154.392 26.3793 154.356 26.1313 154.356C25.4593 154.356 24.9633 154.608 24.6433 155.112C24.3313 155.616 24.1753 156.288 24.1753 157.128V158.424C24.1753 158.848 24.2073 159.236 24.2713 159.588C24.3353 159.932 24.4393 160.232 24.5833 160.488C24.7353 160.744 24.9273 160.944 25.1593 161.088C25.3993 161.224 25.6913 161.292 26.0353 161.292C26.5793 161.292 27.0033 161.128 27.3073 160.8C27.6113 160.472 27.7633 160.048 27.7633 159.528V158.664H25.9993V157.86H28.6993V162H27.7633V160.884ZM30.9266 153.624H33.7706C34.4906 153.624 35.0546 153.82 35.4626 154.212C35.8706 154.604 36.0746 155.128 36.0746 155.784C36.0746 156.288 35.9506 156.684 35.7026 156.972C35.4626 157.26 35.1506 157.464 34.7666 157.584V157.62C35.2386 157.732 35.6266 157.944 35.9306 158.256C36.2346 158.56 36.3866 159.004 36.3866 159.588C36.3866 159.924 36.3306 160.24 36.2186 160.536C36.1066 160.832 35.9466 161.088 35.7386 161.304C35.5386 161.52 35.2986 161.692 35.0186 161.82C34.7466 161.94 34.4506 162 34.1306 162H30.9266V153.624ZM33.8306 161.124C34.2946 161.124 34.6586 161.02 34.9226 160.812C35.1866 160.604 35.3186 160.284 35.3186 159.852V159.36C35.3186 158.936 35.1866 158.62 34.9226 158.412C34.6586 158.196 34.2946 158.088 33.8306 158.088H31.9346V161.124H33.8306ZM33.6626 157.26C34.0866 157.26 34.4186 157.168 34.6586 156.984C34.8986 156.792 35.0186 156.504 35.0186 156.12V155.652C35.0186 155.268 34.8986 154.98 34.6586 154.788C34.4186 154.596 34.0866 154.5 33.6626 154.5H31.9346V157.26H33.6626ZM46.6012 158.856V157.848H50.0812V158.856H46.6012ZM63.2119 162.144C62.6999 162.144 62.2599 162.048 61.8919 161.856C61.5239 161.656 61.2199 161.372 60.9799 161.004C60.7399 160.636 60.5639 160.184 60.4519 159.648C60.3399 159.112 60.2839 158.5 60.2839 157.812C60.2839 157.132 60.3399 156.524 60.4519 155.988C60.5639 155.444 60.7399 154.988 60.9799 154.62C61.2199 154.252 61.5239 153.972 61.8919 153.78C62.2599 153.58 62.6999 153.48 63.2119 153.48C63.7239 153.48 64.1639 153.58 64.5319 153.78C64.8999 153.972 65.2039 154.252 65.4439 154.62C65.6839 154.988 65.8599 155.444 65.9719 155.988C66.0839 156.524 66.1399 157.132 66.1399 157.812C66.1399 158.5 66.0839 159.112 65.9719 159.648C65.8599 160.184 65.6839 160.636 65.4439 161.004C65.2039 161.372 64.8999 161.656 64.5319 161.856C64.1639 162.048 63.7239 162.144 63.2119 162.144ZM63.2119 161.268C63.5479 161.268 63.8359 161.204 64.0759 161.076C64.3159 160.94 64.5079 160.752 64.6519 160.512C64.8039 160.272 64.9159 159.984 64.9879 159.648C65.0599 159.304 65.0959 158.92 65.0959 158.496V157.128C65.0959 156.712 65.0599 156.332 64.9879 155.988C64.9159 155.644 64.8039 155.352 64.6519 155.112C64.5079 154.872 64.3159 154.688 64.0759 154.56C63.8359 154.424 63.5479 154.356 63.2119 154.356C62.8759 154.356 62.5879 154.424 62.3479 154.56C62.1079 154.688 61.9119 154.872 61.7599 155.112C61.6159 155.352 61.5079 155.644 61.4359 155.988C61.3639 156.332 61.3279 156.712 61.3279 157.128V158.496C61.3279 158.92 61.3639 159.304 61.4359 159.648C61.5079 159.984 61.6159 160.272 61.7599 160.512C61.9119 160.752 62.1079 160.94 62.3479 161.076C62.5879 161.204 62.8759 161.268 63.2119 161.268ZM63.2119 158.52C62.9319 158.52 62.7359 158.464 62.6239 158.352C62.5199 158.24 62.4679 158.104 62.4679 157.944V157.68C62.4679 157.52 62.5199 157.384 62.6239 157.272C62.7359 157.16 62.9319 157.104 63.2119 157.104C63.4919 157.104 63.6839 157.16 63.7879 157.272C63.8999 157.384 63.9559 157.52 63.9559 157.68V157.944C63.9559 158.104 63.8999 158.24 63.7879 158.352C63.6839 158.464 63.4919 158.52 63.2119 158.52ZM75.5025 162V161.124H77.9025V154.368H77.8185L75.7065 156.336L75.1185 155.7L77.3385 153.624H78.9105V161.124H81.1185V162H75.5025ZM85.1578 157.176C85.7418 157.176 86.1778 157.048 86.4658 156.792C86.7618 156.528 86.9098 156.192 86.9098 155.784V155.7C86.9098 155.252 86.7658 154.916 86.4778 154.692C86.1978 154.468 85.8298 154.356 85.3738 154.356C84.9258 154.356 84.5618 154.456 84.2818 154.656C84.0098 154.848 83.7858 155.104 83.6098 155.424L82.8538 154.848C82.9578 154.68 83.0858 154.516 83.2378 154.356C83.3898 154.188 83.5658 154.04 83.7658 153.912C83.9738 153.784 84.2098 153.68 84.4738 153.6C84.7458 153.52 85.0538 153.48 85.3978 153.48C85.7578 153.48 86.0938 153.528 86.4058 153.624C86.7178 153.712 86.9898 153.848 87.2218 154.032C87.4538 154.208 87.6338 154.428 87.7618 154.692C87.8978 154.956 87.9658 155.256 87.9658 155.592C87.9658 155.864 87.9218 156.108 87.8338 156.324C87.7538 156.54 87.6378 156.728 87.4858 156.888C87.3418 157.048 87.1698 157.184 86.9698 157.296C86.7698 157.408 86.5578 157.492 86.3338 157.548V157.596C86.5658 157.644 86.7898 157.724 87.0058 157.836C87.2218 157.94 87.4138 158.08 87.5818 158.256C87.7498 158.424 87.8818 158.632 87.9778 158.88C88.0818 159.12 88.1338 159.396 88.1338 159.708C88.1338 160.068 88.0618 160.4 87.9178 160.704C87.7818 161 87.5858 161.256 87.3298 161.472C87.0818 161.68 86.7778 161.844 86.4178 161.964C86.0658 162.084 85.6738 162.144 85.2418 162.144C84.8738 162.144 84.5458 162.104 84.2578 162.024C83.9778 161.944 83.7258 161.836 83.5018 161.7C83.2858 161.564 83.0938 161.412 82.9258 161.244C82.7658 161.076 82.6218 160.9 82.4938 160.716L83.2498 160.14C83.3618 160.308 83.4778 160.46 83.5978 160.596C83.7178 160.732 83.8538 160.852 84.0058 160.956C84.1658 161.052 84.3458 161.128 84.5458 161.184C84.7458 161.24 84.9778 161.268 85.2418 161.268C85.8338 161.268 86.2858 161.132 86.5978 160.86C86.9178 160.588 87.0778 160.2 87.0778 159.696V159.6C87.0778 159.104 86.9218 158.72 86.6098 158.448C86.3058 158.176 85.8458 158.04 85.2298 158.04H84.2338V157.176H85.1578ZM92.9531 162.144C92.4651 162.144 92.0371 162.084 91.6691 161.964C91.3011 161.836 90.9931 161.664 90.7451 161.448C90.5051 161.232 90.3211 160.976 90.1931 160.68C90.0731 160.384 90.0131 160.064 90.0131 159.72C90.0131 159.144 90.1691 158.688 90.4811 158.352C90.7931 158.016 91.2051 157.78 91.7171 157.644V157.548C91.2691 157.396 90.9131 157.152 90.6491 156.816C90.3931 156.472 90.2651 156.06 90.2651 155.58C90.2651 154.94 90.5011 154.432 90.9731 154.056C91.4451 153.672 92.1051 153.48 92.9531 153.48C93.8011 153.48 94.4611 153.672 94.9331 154.056C95.4051 154.432 95.6411 154.94 95.6411 155.58C95.6411 156.06 95.5091 156.472 95.2451 156.816C94.9891 157.152 94.6371 157.396 94.1891 157.548V157.644C94.7011 157.78 95.1131 158.016 95.4251 158.352C95.7371 158.688 95.8931 159.144 95.8931 159.72C95.8931 160.064 95.8291 160.384 95.7011 160.68C95.5811 160.976 95.3971 161.232 95.1491 161.448C94.9011 161.664 94.5931 161.836 94.2251 161.964C93.8651 162.084 93.4411 162.144 92.9531 162.144ZM92.9531 161.292C93.5451 161.292 94.0091 161.16 94.3451 160.896C94.6811 160.632 94.8491 160.26 94.8491 159.78V159.516C94.8491 159.036 94.6811 158.664 94.3451 158.4C94.0171 158.136 93.5531 158.004 92.9531 158.004C92.3531 158.004 91.8851 158.136 91.5491 158.4C91.2211 158.664 91.0571 159.036 91.0571 159.516V159.78C91.0571 160.26 91.2251 160.632 91.5611 160.896C91.8971 161.16 92.3611 161.292 92.9531 161.292ZM92.9531 157.188C93.4971 157.188 93.9091 157.072 94.1891 156.84C94.4771 156.608 94.6211 156.276 94.6211 155.844V155.676C94.6211 155.244 94.4731 154.912 94.1771 154.68C93.8891 154.448 93.4811 154.332 92.9531 154.332C92.4251 154.332 92.0131 154.448 91.7171 154.68C91.4291 154.912 91.2851 155.244 91.2851 155.676V155.844C91.2851 156.276 91.4251 156.608 91.7051 156.84C91.9931 157.072 92.4091 157.188 92.9531 157.188ZM110.668 162H105.076V160.968L107.872 158.448C108.28 158.08 108.616 157.704 108.88 157.32C109.144 156.928 109.276 156.516 109.276 156.084V155.94C109.276 155.436 109.144 155.048 108.88 154.776C108.616 154.496 108.224 154.356 107.704 154.356C107.192 154.356 106.796 154.488 106.516 154.752C106.244 155.008 106.04 155.352 105.904 155.784L105.004 155.448C105.084 155.2 105.192 154.96 105.328 154.728C105.472 154.488 105.652 154.276 105.868 154.092C106.084 153.908 106.344 153.76 106.648 153.648C106.96 153.536 107.32 153.48 107.728 153.48C108.144 153.48 108.512 153.54 108.832 153.66C109.16 153.78 109.432 153.948 109.648 154.164C109.872 154.38 110.04 154.636 110.152 154.932C110.272 155.228 110.332 155.552 110.332 155.904C110.332 156.224 110.284 156.524 110.188 156.804C110.1 157.084 109.972 157.352 109.804 157.608C109.644 157.864 109.448 158.116 109.216 158.364C108.992 158.604 108.74 158.844 108.46 159.084L106.12 161.124H110.668V162ZM114.899 157.176C115.483 157.176 115.919 157.048 116.207 156.792C116.503 156.528 116.651 156.192 116.651 155.784V155.7C116.651 155.252 116.507 154.916 116.219 154.692C115.939 154.468 115.571 154.356 115.115 154.356C114.667 154.356 114.303 154.456 114.023 154.656C113.751 154.848 113.527 155.104 113.351 155.424L112.595 154.848C112.699 154.68 112.827 154.516 112.979 154.356C113.131 154.188 113.307 154.04 113.507 153.912C113.715 153.784 113.951 153.68 114.215 153.6C114.487 153.52 114.795 153.48 115.139 153.48C115.499 153.48 115.835 153.528 116.147 153.624C116.459 153.712 116.731 153.848 116.963 154.032C117.195 154.208 117.375 154.428 117.503 154.692C117.639 154.956 117.707 155.256 117.707 155.592C117.707 155.864 117.663 156.108 117.575 156.324C117.495 156.54 117.379 156.728 117.227 156.888C117.083 157.048 116.911 157.184 116.711 157.296C116.511 157.408 116.299 157.492 116.075 157.548V157.596C116.307 157.644 116.531 157.724 116.747 157.836C116.963 157.94 117.155 158.08 117.323 158.256C117.491 158.424 117.623 158.632 117.719 158.88C117.823 159.12 117.875 159.396 117.875 159.708C117.875 160.068 117.803 160.4 117.659 160.704C117.523 161 117.327 161.256 117.071 161.472C116.823 161.68 116.519 161.844 116.159 161.964C115.807 162.084 115.415 162.144 114.983 162.144C114.615 162.144 114.287 162.104 113.999 162.024C113.719 161.944 113.467 161.836 113.243 161.7C113.027 161.564 112.835 161.412 112.667 161.244C112.507 161.076 112.363 160.9 112.235 160.716L112.991 160.14C113.103 160.308 113.219 160.46 113.339 160.596C113.459 160.732 113.595 160.852 113.747 160.956C113.907 161.052 114.087 161.128 114.287 161.184C114.487 161.24 114.719 161.268 114.983 161.268C115.575 161.268 116.027 161.132 116.339 160.86C116.659 160.588 116.819 160.2 116.819 159.696V159.6C116.819 159.104 116.663 158.72 116.351 158.448C116.047 158.176 115.587 158.04 114.971 158.04H113.975V157.176H114.899ZM125.106 154.5H121.362L121.122 157.704H121.206C121.414 157.424 121.646 157.204 121.902 157.044C122.158 156.876 122.51 156.792 122.958 156.792C123.326 156.792 123.662 156.852 123.966 156.972C124.278 157.084 124.546 157.252 124.77 157.476C124.994 157.7 125.17 157.972 125.298 158.292C125.426 158.604 125.49 158.964 125.49 159.372C125.49 159.78 125.426 160.156 125.298 160.5C125.17 160.836 124.982 161.128 124.734 161.376C124.486 161.616 124.186 161.804 123.834 161.94C123.482 162.076 123.082 162.144 122.634 162.144C122.282 162.144 121.966 162.104 121.686 162.024C121.414 161.944 121.17 161.836 120.954 161.7C120.746 161.564 120.562 161.412 120.402 161.244C120.242 161.076 120.098 160.9 119.97 160.716L120.726 160.14C120.838 160.308 120.95 160.46 121.062 160.596C121.182 160.732 121.318 160.852 121.47 160.956C121.622 161.052 121.794 161.128 121.986 161.184C122.178 161.24 122.402 161.268 122.658 161.268C123.234 161.268 123.674 161.112 123.978 160.8C124.29 160.488 124.446 160.056 124.446 159.504V159.408C124.446 158.856 124.29 158.424 123.978 158.112C123.666 157.8 123.218 157.644 122.634 157.644C122.234 157.644 121.922 157.712 121.698 157.848C121.482 157.984 121.282 158.152 121.098 158.352L120.246 158.232L120.546 153.624H125.106V154.5ZM20.232 177.196H16.968V181H15.96V172.624H16.968V176.32H20.232V172.624H21.24V181H20.232V177.196ZM23.5153 181V172.624H28.6753V173.5H24.5233V176.32H28.5313V177.196H24.5233V180.124H28.6753V181H23.5153ZM36.7706 181H35.6306L34.6346 179.332L33.5306 177.508H33.4826L32.3426 179.332L31.2866 181H30.1826L32.9186 176.728L30.3386 172.624H31.4786L32.4506 174.244L33.4946 175.936H33.5426L34.5746 174.244L35.5826 172.624H36.6866L34.0946 176.716L36.7706 181ZM46.6012 177.856V176.848H50.0812V177.856H46.6012ZM61.3879 178.408H59.8039V177.616H61.5319L61.8079 176.008H60.2359V175.216H61.9519L62.4079 172.624H63.2839L61.8079 181H60.9319L61.3879 178.408ZM64.6159 172.624H65.4919L65.0359 175.216H66.6199V176.008H64.8919L64.6159 177.616H66.1879V178.408H64.4719L64.0159 181H63.1399L64.6159 172.624ZM70.6472 181.144C70.1352 181.144 69.6952 181.048 69.3272 180.856C68.9592 180.656 68.6552 180.372 68.4152 180.004C68.1752 179.636 67.9992 179.184 67.8872 178.648C67.7752 178.112 67.7192 177.5 67.7192 176.812C67.7192 176.132 67.7752 175.524 67.8872 174.988C67.9992 174.444 68.1752 173.988 68.4152 173.62C68.6552 173.252 68.9592 172.972 69.3272 172.78C69.6952 172.58 70.1352 172.48 70.6472 172.48C71.1592 172.48 71.5992 172.58 71.9672 172.78C72.3352 172.972 72.6392 173.252 72.8792 173.62C73.1192 173.988 73.2952 174.444 73.4072 174.988C73.5192 175.524 73.5752 176.132 73.5752 176.812C73.5752 177.5 73.5192 178.112 73.4072 178.648C73.2952 179.184 73.1192 179.636 72.8792 180.004C72.6392 180.372 72.3352 180.656 71.9672 180.856C71.5992 181.048 71.1592 181.144 70.6472 181.144ZM70.6472 180.268C70.9832 180.268 71.2712 180.204 71.5112 180.076C71.7512 179.94 71.9432 179.752 72.0872 179.512C72.2392 179.272 72.3512 178.984 72.4232 178.648C72.4952 178.304 72.5312 177.92 72.5312 177.496V176.128C72.5312 175.712 72.4952 175.332 72.4232 174.988C72.3512 174.644 72.2392 174.352 72.0872 174.112C71.9432 173.872 71.7512 173.688 71.5112 173.56C71.2712 173.424 70.9832 173.356 70.6472 173.356C70.3112 173.356 70.0232 173.424 69.7832 173.56C69.5432 173.688 69.3472 173.872 69.1952 174.112C69.0512 174.352 68.9432 174.644 68.8712 174.988C68.7992 175.332 68.7632 175.712 68.7632 176.128V177.496C68.7632 177.92 68.7992 178.304 68.8712 178.648C68.9432 178.984 69.0512 179.272 69.1952 179.512C69.3472 179.752 69.5432 179.94 69.7832 180.076C70.0232 180.204 70.3112 180.268 70.6472 180.268ZM70.6472 177.52C70.3672 177.52 70.1712 177.464 70.0592 177.352C69.9552 177.24 69.9032 177.104 69.9032 176.944V176.68C69.9032 176.52 69.9552 176.384 70.0592 176.272C70.1712 176.16 70.3672 176.104 70.6472 176.104C70.9272 176.104 71.1192 176.16 71.2232 176.272C71.3352 176.384 71.3912 176.52 71.3912 176.68V176.944C71.3912 177.104 71.3352 177.24 71.2232 177.352C71.1192 177.464 70.9272 177.52 70.6472 177.52ZM78.0825 181.144C77.5705 181.144 77.1305 181.048 76.7625 180.856C76.3945 180.656 76.0905 180.372 75.8505 180.004C75.6105 179.636 75.4345 179.184 75.3225 178.648C75.2105 178.112 75.1545 177.5 75.1545 176.812C75.1545 176.132 75.2105 175.524 75.3225 174.988C75.4345 174.444 75.6105 173.988 75.8505 173.62C76.0905 173.252 76.3945 172.972 76.7625 172.78C77.1305 172.58 77.5705 172.48 78.0825 172.48C78.5945 172.48 79.0345 172.58 79.4025 172.78C79.7705 172.972 80.0745 173.252 80.3145 173.62C80.5545 173.988 80.7305 174.444 80.8425 174.988C80.9545 175.524 81.0105 176.132 81.0105 176.812C81.0105 177.5 80.9545 178.112 80.8425 178.648C80.7305 179.184 80.5545 179.636 80.3145 180.004C80.0745 180.372 79.7705 180.656 79.4025 180.856C79.0345 181.048 78.5945 181.144 78.0825 181.144ZM78.0825 180.268C78.4185 180.268 78.7065 180.204 78.9465 180.076C79.1865 179.94 79.3785 179.752 79.5225 179.512C79.6745 179.272 79.7865 178.984 79.8585 178.648C79.9305 178.304 79.9665 177.92 79.9665 177.496V176.128C79.9665 175.712 79.9305 175.332 79.8585 174.988C79.7865 174.644 79.6745 174.352 79.5225 174.112C79.3785 173.872 79.1865 173.688 78.9465 173.56C78.7065 173.424 78.4185 173.356 78.0825 173.356C77.7465 173.356 77.4585 173.424 77.2185 173.56C76.9785 173.688 76.7825 173.872 76.6305 174.112C76.4865 174.352 76.3785 174.644 76.3065 174.988C76.2345 175.332 76.1985 175.712 76.1985 176.128V177.496C76.1985 177.92 76.2345 178.304 76.3065 178.648C76.3785 178.984 76.4865 179.272 76.6305 179.512C76.7825 179.752 76.9785 179.94 77.2185 180.076C77.4585 180.204 77.7465 180.268 78.0825 180.268ZM78.0825 177.52C77.8025 177.52 77.6065 177.464 77.4945 177.352C77.3905 177.24 77.3385 177.104 77.3385 176.944V176.68C77.3385 176.52 77.3905 176.384 77.4945 176.272C77.6065 176.16 77.8025 176.104 78.0825 176.104C78.3625 176.104 78.5545 176.16 78.6585 176.272C78.7705 176.384 78.8265 176.52 78.8265 176.68V176.944C78.8265 177.104 78.7705 177.24 78.6585 177.352C78.5545 177.464 78.3625 177.52 78.0825 177.52ZM85.5298 181.144C85.0898 181.144 84.6938 181.072 84.3418 180.928C83.9898 180.776 83.6898 180.564 83.4418 180.292C83.2018 180.012 83.0138 179.672 82.8778 179.272C82.7498 178.872 82.6858 178.424 82.6858 177.928C82.6858 177.304 82.7778 176.72 82.9618 176.176C83.1538 175.624 83.3938 175.124 83.6818 174.676C83.9778 174.22 84.3058 173.82 84.6658 173.476C85.0258 173.124 85.3778 172.84 85.7218 172.624H87.0178C86.5618 172.952 86.1538 173.272 85.7938 173.584C85.4418 173.896 85.1298 174.224 84.8578 174.568C84.5858 174.904 84.3578 175.268 84.1738 175.66C83.9898 176.044 83.8378 176.48 83.7178 176.968L83.7778 176.992C83.9778 176.648 84.2418 176.364 84.5698 176.14C84.8978 175.908 85.3218 175.792 85.8418 175.792C86.2098 175.792 86.5458 175.852 86.8498 175.972C87.1538 176.092 87.4178 176.264 87.6418 176.488C87.8658 176.712 88.0378 176.984 88.1578 177.304C88.2858 177.624 88.3498 177.98 88.3498 178.372C88.3498 178.78 88.2818 179.156 88.1458 179.5C88.0098 179.836 87.8178 180.128 87.5698 180.376C87.3298 180.616 87.0338 180.804 86.6818 180.94C86.3378 181.076 85.9538 181.144 85.5298 181.144ZM85.5178 180.292C86.0938 180.292 86.5378 180.136 86.8498 179.824C87.1698 179.512 87.3298 179.072 87.3298 178.504V178.408C87.3298 177.84 87.1698 177.4 86.8498 177.088C86.5378 176.776 86.0938 176.62 85.5178 176.62C84.9418 176.62 84.4938 176.776 84.1738 177.088C83.8618 177.4 83.7058 177.84 83.7058 178.408V178.504C83.7058 179.072 83.8618 179.512 84.1738 179.824C84.4938 180.136 84.9418 180.292 85.5178 180.292ZM93.2291 181.144C92.2051 181.144 91.4411 180.772 90.9371 180.028C90.4411 179.284 90.1931 178.212 90.1931 176.812C90.1931 175.412 90.4411 174.34 90.9371 173.596C91.4411 172.852 92.2051 172.48 93.2291 172.48C93.6131 172.48 93.9451 172.532 94.2251 172.636C94.5051 172.74 94.7451 172.88 94.9451 173.056C95.1451 173.232 95.3131 173.432 95.4491 173.656C95.5851 173.872 95.7051 174.092 95.8091 174.316L94.9451 174.712C94.8731 174.528 94.7891 174.356 94.6931 174.196C94.5971 174.028 94.4811 173.884 94.3451 173.764C94.2171 173.636 94.0611 173.536 93.8771 173.464C93.7011 173.392 93.4851 173.356 93.2291 173.356C92.5651 173.356 92.0691 173.608 91.7411 174.112C91.4211 174.616 91.2611 175.288 91.2611 176.128V177.496C91.2611 178.336 91.4211 179.008 91.7411 179.512C92.0691 180.016 92.5651 180.268 93.2291 180.268C93.4851 180.268 93.7011 180.232 93.8771 180.16C94.0611 180.088 94.2171 179.992 94.3451 179.872C94.4811 179.744 94.5971 179.6 94.6931 179.44C94.7891 179.272 94.8731 179.096 94.9451 178.912L95.8091 179.308C95.7051 179.54 95.5851 179.764 95.4491 179.98C95.3131 180.196 95.1451 180.392 94.9451 180.568C94.7451 180.744 94.5051 180.884 94.2251 180.988C93.9451 181.092 93.6131 181.144 93.2291 181.144ZM97.8684 181V172.624H103.028V173.5H98.8764V176.32H102.884V177.196H98.8764V180.124H103.028V181H97.8684ZM105.28 172.624H108.124C108.844 172.624 109.408 172.82 109.816 173.212C110.224 173.604 110.428 174.128 110.428 174.784C110.428 175.288 110.304 175.684 110.056 175.972C109.816 176.26 109.504 176.464 109.12 176.584V176.62C109.592 176.732 109.98 176.944 110.284 177.256C110.588 177.56 110.74 178.004 110.74 178.588C110.74 178.924 110.684 179.24 110.572 179.536C110.46 179.832 110.3 180.088 110.092 180.304C109.892 180.52 109.652 180.692 109.372 180.82C109.1 180.94 108.804 181 108.484 181H105.28V172.624ZM108.184 180.124C108.648 180.124 109.012 180.02 109.276 179.812C109.54 179.604 109.672 179.284 109.672 178.852V178.36C109.672 177.936 109.54 177.62 109.276 177.412C109.012 177.196 108.648 177.088 108.184 177.088H106.288V180.124H108.184ZM108.016 176.26C108.44 176.26 108.772 176.168 109.012 175.984C109.252 175.792 109.372 175.504 109.372 175.12V174.652C109.372 174.268 109.252 173.98 109.012 173.788C108.772 173.596 108.44 173.5 108.016 173.5H106.288V176.26H108.016Z" fill="#E4E2CB"/>
</svg>
