<svg width="378" height="519" viewBox="0 0 378 519" fill="none" xmlns="http://www.w3.org/2000/svg">
<path d="M54.34 56.104C54.7413 56.104 55.082 56.0387 55.362 55.908C55.6513 55.768 55.8847 55.586 56.062 55.362C56.2487 55.1287 56.384 54.8673 56.468 54.578C56.5613 54.2793 56.608 53.9667 56.608 53.64V53.472H57.784V53.64C57.784 54.1347 57.7093 54.6013 57.56 55.04C57.4107 55.4693 57.1913 55.8473 56.902 56.174C56.6127 56.4913 56.2533 56.7433 55.824 56.93C55.3947 57.1073 54.9 57.196 54.34 57.196C53.2573 57.196 52.4127 56.8553 51.806 56.174C51.1993 55.4927 50.896 54.4987 50.896 53.192V51.008C50.896 49.7387 51.1993 48.754 51.806 48.054C52.4127 47.354 53.2573 47.004 54.34 47.004C54.9 47.004 55.3947 47.0973 55.824 47.284C56.2533 47.4613 56.6127 47.7133 56.902 48.04C57.1913 48.3573 57.4107 48.7353 57.56 49.174C57.7093 49.6033 57.784 50.0653 57.784 50.56V50.728H56.608V50.56C56.5987 50.2427 56.5473 49.9347 56.454 49.636C56.37 49.3373 56.2347 49.076 56.048 48.852C55.8707 48.6187 55.642 48.4367 55.362 48.306C55.082 48.166 54.7413 48.096 54.34 48.096C53.584 48.096 53.0147 48.3713 52.632 48.922C52.2587 49.4727 52.072 50.196 52.072 51.092V53.108C52.072 54.0693 52.2587 54.8113 52.632 55.334C53.0147 55.8473 53.584 56.104 54.34 56.104ZM62.2123 51.008C62.2123 49.7387 62.5156 48.754 63.1223 48.054C63.7289 47.354 64.5736 47.004 65.6563 47.004C66.7389 47.004 67.5836 47.354 68.1903 48.054C68.7969 48.754 69.1003 49.7387 69.1003 51.008V53.192C69.1003 54.4987 68.7969 55.4927 68.1903 56.174C67.5836 56.8553 66.7389 57.196 65.6563 57.196C64.5736 57.196 63.7289 56.8553 63.1223 56.174C62.5156 55.4927 62.2123 54.4987 62.2123 53.192V51.008ZM65.6563 56.104C66.4123 56.104 66.9769 55.8473 67.3503 55.334C67.7329 54.8113 67.9243 54.0693 67.9243 53.108V51.092C67.9243 50.196 67.7329 49.4727 67.3503 48.922C66.9769 48.3713 66.4123 48.096 65.6563 48.096C64.9003 48.096 64.3309 48.3713 63.9483 48.922C63.5749 49.4727 63.3883 50.196 63.3883 51.092V53.108C63.3883 54.0693 63.5749 54.8113 63.9483 55.334C64.3309 55.8473 64.9003 56.104 65.6563 56.104ZM73.9625 47.2H75.1385V55.908H80.2625V57H73.9625V47.2ZM84.9568 51.008C84.9568 49.7387 85.2601 48.754 85.8668 48.054C86.4735 47.354 87.3181 47.004 88.4008 47.004C89.4835 47.004 90.3281 47.354 90.9348 48.054C91.5415 48.754 91.8448 49.7387 91.8448 51.008V53.192C91.8448 54.4987 91.5415 55.4927 90.9348 56.174C90.3281 56.8553 89.4835 57.196 88.4008 57.196C87.3181 57.196 86.4735 56.8553 85.8668 56.174C85.2601 55.4927 84.9568 54.4987 84.9568 53.192V51.008ZM88.4008 56.104C89.1568 56.104 89.7215 55.8473 90.0948 55.334C90.4775 54.8113 90.6688 54.0693 90.6688 53.108V51.092C90.6688 50.196 90.4775 49.4727 90.0948 48.922C89.7215 48.3713 89.1568 48.096 88.4008 48.096C87.6448 48.096 87.0755 48.3713 86.6928 48.922C86.3195 49.4727 86.1328 50.196 86.1328 51.092V53.108C86.1328 54.0693 86.3195 54.8113 86.6928 55.334C87.0755 55.8473 87.6448 56.104 88.4008 56.104ZM97.5891 47.2V53.696C97.5891 54.4893 97.7711 55.0913 98.1351 55.502C98.5084 55.9033 99.0544 56.104 99.7731 56.104C100.492 56.104 101.033 55.9033 101.397 55.502C101.77 55.0913 101.957 54.4893 101.957 53.696V47.2H103.133V53.696C103.133 54.8347 102.834 55.7027 102.237 56.3C101.64 56.8973 100.818 57.196 99.7731 57.196C98.7277 57.196 97.9064 56.8973 97.3091 56.3C96.7117 55.7027 96.4131 54.8347 96.4131 53.696V47.2H97.5891ZM114.211 57H113.035V53.724C113.035 53.4813 112.979 53.2947 112.867 53.164C112.755 53.0333 112.559 52.968 112.279 52.968H109.227V57H108.051V47.2H111.551C112.055 47.2 112.494 47.2747 112.867 47.424C113.241 47.564 113.549 47.7553 113.791 47.998C114.043 48.2407 114.23 48.5253 114.351 48.852C114.482 49.1693 114.547 49.5053 114.547 49.86V50.28C114.547 50.644 114.445 51.008 114.239 51.372C114.043 51.736 113.735 52.016 113.315 52.212V52.38C113.595 52.4267 113.815 52.5387 113.973 52.716C114.132 52.8933 114.211 53.1453 114.211 53.472V57ZM109.227 51.876H111.411C112.074 51.876 112.564 51.736 112.881 51.456C113.208 51.1667 113.371 50.7467 113.371 50.196V49.944C113.371 49.4493 113.208 49.0527 112.881 48.754C112.564 48.446 112.074 48.292 111.411 48.292H109.227V51.876ZM124.828 50.028C124.828 49.7107 124.762 49.4307 124.632 49.188C124.51 48.9453 124.342 48.7447 124.128 48.586C123.913 48.4273 123.666 48.306 123.386 48.222C123.106 48.138 122.812 48.096 122.504 48.096C122.233 48.096 121.976 48.1333 121.734 48.208C121.491 48.2733 121.272 48.3713 121.076 48.502C120.889 48.6327 120.74 48.796 120.628 48.992C120.516 49.1787 120.46 49.398 120.46 49.65V49.734C120.46 50.0047 120.516 50.238 120.628 50.434C120.74 50.6207 120.903 50.784 121.118 50.924C121.342 51.0547 121.617 51.1667 121.944 51.26C122.27 51.344 122.653 51.4187 123.092 51.484C124.118 51.6427 124.874 51.946 125.36 52.394C125.845 52.8327 126.088 53.4253 126.088 54.172V54.34C126.088 54.76 126.013 55.1473 125.864 55.502C125.724 55.8473 125.509 56.146 125.22 56.398C124.94 56.65 124.59 56.846 124.17 56.986C123.75 57.126 123.264 57.196 122.714 57.196C122.088 57.196 121.533 57.1073 121.048 56.93C120.572 56.7433 120.17 56.4913 119.844 56.174C119.526 55.8473 119.284 55.4693 119.116 55.04C118.948 54.6013 118.864 54.1253 118.864 53.612V53.192H120.04V53.528C120.04 54.3867 120.273 55.0307 120.74 55.46C121.216 55.8893 121.874 56.104 122.714 56.104C123.442 56.104 123.988 55.9453 124.352 55.628C124.725 55.3013 124.912 54.872 124.912 54.34V54.256C124.912 53.7427 124.72 53.3507 124.338 53.08C123.964 52.8093 123.353 52.6133 122.504 52.492C122.009 52.4267 121.561 52.3287 121.16 52.198C120.768 52.058 120.432 51.8807 120.152 51.666C119.872 51.442 119.657 51.176 119.508 50.868C119.358 50.56 119.284 50.196 119.284 49.776V49.608C119.284 49.2253 119.363 48.8753 119.522 48.558C119.68 48.2407 119.9 47.9653 120.18 47.732C120.469 47.4987 120.81 47.3213 121.202 47.2C121.603 47.0693 122.042 47.004 122.518 47.004C123.068 47.004 123.558 47.0833 123.988 47.242C124.426 47.4007 124.795 47.6153 125.094 47.886C125.392 48.1473 125.616 48.46 125.766 48.824C125.924 49.1787 126.004 49.552 126.004 49.944V50.532H124.828V50.028Z" fill="#F9F8F4"/>
<line opacity="0.3" x1="50.5" y1="79.5" x2="327.5" y2="79.5" stroke="#F9F8F4" stroke-linecap="round"/>
<path d="M50 105C50 102.239 52.2386 100 55 100H174C176.761 100 179 102.239 179 105V224C179 226.761 176.761 229 174 229H55C52.2386 229 50 226.761 50 224V105Z" fill="#FAFF0C"/>
<path d="M199 105C199 102.239 201.239 100 204 100H323C325.761 100 328 102.239 328 105V224C328 226.761 325.761 229 323 229H204C201.239 229 199 226.761 199 224V105Z" fill="#006CEB"/>
<path d="M50 254C50 251.239 52.2386 249 55 249H323C325.761 249 328 251.239 328 254V344C328 346.761 325.761 349 323 349H55C52.2386 349 50 346.761 50 344V254Z" fill="#99BDD7"/>
<path d="M50 374C50 371.239 52.2386 369 55 369H323C325.761 369 328 371.239 328 374V464C328 466.761 325.761 469 323 469H55C52.2386 469 50 466.761 50 464V374Z" fill="#0C1E33"/>
<path d="M81.9048 169.164V166.968H79.9608V169.164H78.6648V166.968H76.6848V165.672H78.6648V163.728H76.6848V162.432H78.6648V160.236H79.9608V162.432H81.9048V160.236H83.2008V162.432H85.1808V163.728H83.2008V165.672H85.1808V166.968H83.2008V169.164H81.9048ZM81.9048 163.728H79.9608V165.672H81.9048V163.728ZM87.9223 162.072H90.6763V159.804C90.6763 159.396 90.8023 159.06 91.0543 158.796C91.3183 158.532 91.6543 158.4 92.0623 158.4H95.5903V159.696H92.5663C92.2423 159.696 92.0803 159.876 92.0803 160.236V162.072H95.8063V163.368H92.0803V171H90.6763V163.368H87.9223V162.072ZM105.514 169.488H105.298C105.01 170.088 104.608 170.532 104.092 170.82C103.588 171.108 103.054 171.252 102.49 171.252C101.902 171.252 101.356 171.156 100.852 170.964C100.348 170.76 99.9038 170.466 99.5198 170.082C99.1478 169.686 98.8538 169.206 98.6378 168.642C98.4218 168.078 98.3138 167.424 98.3138 166.68V166.392C98.3138 165.66 98.4218 165.012 98.6378 164.448C98.8538 163.884 99.1478 163.41 99.5198 163.026C99.9038 162.63 100.348 162.33 100.852 162.126C101.356 161.922 101.89 161.82 102.454 161.82C103.066 161.82 103.618 161.958 104.11 162.234C104.614 162.498 105.01 162.912 105.298 163.476H105.514V162.072H106.918V169.164C106.918 169.524 107.08 169.704 107.404 169.704H107.854V171H106.9C106.492 171 106.156 170.868 105.892 170.604C105.64 170.34 105.514 170.004 105.514 169.596V169.488ZM102.634 169.92C103.054 169.92 103.438 169.842 103.786 169.686C104.146 169.53 104.452 169.308 104.704 169.02C104.956 168.732 105.154 168.39 105.298 167.994C105.442 167.586 105.514 167.136 105.514 166.644V166.428C105.514 165.948 105.442 165.51 105.298 165.114C105.154 164.706 104.95 164.358 104.686 164.07C104.434 163.782 104.128 163.56 103.768 163.404C103.42 163.236 103.042 163.152 102.634 163.152C102.214 163.152 101.83 163.23 101.482 163.386C101.134 163.542 100.828 163.764 100.564 164.052C100.312 164.328 100.114 164.67 99.9698 165.078C99.8258 165.474 99.7538 165.912 99.7538 166.392V166.68C99.7538 167.7 100.018 168.498 100.546 169.074C101.086 169.638 101.782 169.92 102.634 169.92ZM109.965 162.072H112.719V159.804C112.719 159.396 112.845 159.06 113.097 158.796C113.361 158.532 113.697 158.4 114.105 158.4H117.633V159.696H114.609C114.285 159.696 114.123 159.876 114.123 160.236V162.072H117.849V163.368H114.123V171H112.719V163.368H109.965V162.072ZM120.987 162.072H123.741V159.804C123.741 159.396 123.867 159.06 124.119 158.796C124.383 158.532 124.719 158.4 125.127 158.4H128.655V159.696H125.631C125.307 159.696 125.145 159.876 125.145 160.236V162.072H128.871V163.368H125.145V171H123.741V163.368H120.987V162.072ZM131.612 163.296C131.612 161.664 132.002 160.398 132.782 159.498C133.562 158.598 134.648 158.148 136.04 158.148C137.432 158.148 138.518 158.598 139.298 159.498C140.078 160.398 140.468 161.664 140.468 163.296V166.104C140.468 167.784 140.078 169.062 139.298 169.938C138.518 170.814 137.432 171.252 136.04 171.252C134.648 171.252 133.562 170.814 132.782 169.938C132.002 169.062 131.612 167.784 131.612 166.104V163.296ZM136.04 169.884C137.012 169.884 137.738 169.548 138.218 168.876C138.71 168.192 138.956 167.232 138.956 165.996V163.404C138.956 162.828 138.896 162.306 138.776 161.838C138.656 161.358 138.47 160.95 138.218 160.614C137.978 160.266 137.672 159.996 137.3 159.804C136.94 159.612 136.52 159.516 136.04 159.516C135.548 159.516 135.122 159.612 134.762 159.804C134.402 159.996 134.096 160.266 133.844 160.614C133.604 160.95 133.424 161.358 133.304 161.838C133.184 162.306 133.124 162.828 133.124 163.404V165.996C133.124 167.232 133.364 168.192 133.844 168.876C134.336 169.548 135.068 169.884 136.04 169.884ZM134.888 164.7C134.888 164.388 135.002 164.118 135.23 163.89C135.458 163.662 135.728 163.548 136.04 163.548C136.352 163.548 136.622 163.662 136.85 163.89C137.078 164.118 137.192 164.388 137.192 164.7C137.192 165.012 137.078 165.282 136.85 165.51C136.622 165.738 136.352 165.852 136.04 165.852C135.728 165.852 135.458 165.738 135.23 165.51C135.002 165.282 134.888 165.012 134.888 164.7ZM151.472 167.832C151.376 168.324 151.208 168.78 150.968 169.2C150.74 169.62 150.446 169.986 150.086 170.298C149.726 170.598 149.306 170.832 148.826 171C148.346 171.168 147.812 171.252 147.224 171.252C146.6 171.252 146.006 171.15 145.442 170.946C144.89 170.742 144.404 170.448 143.984 170.064C143.564 169.668 143.228 169.188 142.976 168.624C142.736 168.06 142.616 167.412 142.616 166.68V166.464C142.616 165.744 142.736 165.096 142.976 164.52C143.228 163.944 143.564 163.458 143.984 163.062C144.404 162.666 144.89 162.36 145.442 162.144C146.006 161.928 146.6 161.82 147.224 161.82C147.788 161.82 148.31 161.904 148.79 162.072C149.27 162.24 149.69 162.48 150.05 162.792C150.422 163.092 150.722 163.452 150.95 163.872C151.19 164.292 151.352 164.748 151.436 165.24L150.032 165.564C149.996 165.252 149.906 164.952 149.762 164.664C149.63 164.364 149.444 164.106 149.204 163.89C148.976 163.662 148.694 163.482 148.358 163.35C148.022 163.218 147.632 163.152 147.188 163.152C146.756 163.152 146.348 163.236 145.964 163.404C145.592 163.56 145.262 163.788 144.974 164.088C144.686 164.376 144.458 164.724 144.29 165.132C144.134 165.54 144.056 165.984 144.056 166.464V166.68C144.056 167.184 144.134 167.64 144.29 168.048C144.458 168.444 144.686 168.78 144.974 169.056C145.262 169.332 145.598 169.548 145.982 169.704C146.366 169.848 146.78 169.92 147.224 169.92C147.668 169.92 148.052 169.854 148.376 169.722C148.712 169.578 148.994 169.398 149.222 169.182C149.462 168.954 149.648 168.696 149.78 168.408C149.924 168.12 150.02 167.82 150.068 167.508L151.472 167.832Z" fill="#0C1E33"/>
<path d="M231.351 169.164V166.968H229.407V169.164H228.111V166.968H226.131V165.672H228.111V163.728H226.131V162.432H228.111V160.236H229.407V162.432H231.351V160.236H232.647V162.432H234.627V163.728H232.647V165.672H234.627V166.968H232.647V169.164H231.351ZM231.351 163.728H229.407V165.672H231.351V163.728ZM236.973 163.296C236.973 161.664 237.363 160.398 238.143 159.498C238.923 158.598 240.009 158.148 241.401 158.148C242.793 158.148 243.879 158.598 244.659 159.498C245.439 160.398 245.829 161.664 245.829 163.296V166.104C245.829 167.784 245.439 169.062 244.659 169.938C243.879 170.814 242.793 171.252 241.401 171.252C240.009 171.252 238.923 170.814 238.143 169.938C237.363 169.062 236.973 167.784 236.973 166.104V163.296ZM241.401 169.884C242.373 169.884 243.099 169.548 243.579 168.876C244.071 168.192 244.317 167.232 244.317 165.996V163.404C244.317 162.828 244.257 162.306 244.137 161.838C244.017 161.358 243.831 160.95 243.579 160.614C243.339 160.266 243.033 159.996 242.661 159.804C242.301 159.612 241.881 159.516 241.401 159.516C240.909 159.516 240.483 159.612 240.123 159.804C239.763 159.996 239.457 160.266 239.205 160.614C238.965 160.95 238.785 161.358 238.665 161.838C238.545 162.306 238.485 162.828 238.485 163.404V165.996C238.485 167.232 238.725 168.192 239.205 168.876C239.697 169.548 240.429 169.884 241.401 169.884ZM240.249 164.7C240.249 164.388 240.363 164.118 240.591 163.89C240.819 163.662 241.089 163.548 241.401 163.548C241.713 163.548 241.983 163.662 242.211 163.89C242.439 164.118 242.553 164.388 242.553 164.7C242.553 165.012 242.439 165.282 242.211 165.51C241.983 165.738 241.713 165.852 241.401 165.852C241.089 165.852 240.819 165.738 240.591 165.51C240.363 165.282 240.249 165.012 240.249 164.7ZM247.994 163.296C247.994 161.664 248.384 160.398 249.164 159.498C249.944 158.598 251.03 158.148 252.422 158.148C253.814 158.148 254.9 158.598 255.68 159.498C256.46 160.398 256.85 161.664 256.85 163.296V166.104C256.85 167.784 256.46 169.062 255.68 169.938C254.9 170.814 253.814 171.252 252.422 171.252C251.03 171.252 249.944 170.814 249.164 169.938C248.384 169.062 247.994 167.784 247.994 166.104V163.296ZM252.422 169.884C253.394 169.884 254.12 169.548 254.6 168.876C255.092 168.192 255.338 167.232 255.338 165.996V163.404C255.338 162.828 255.278 162.306 255.158 161.838C255.038 161.358 254.852 160.95 254.6 160.614C254.36 160.266 254.054 159.996 253.682 159.804C253.322 159.612 252.902 159.516 252.422 159.516C251.93 159.516 251.504 159.612 251.144 159.804C250.784 159.996 250.478 160.266 250.226 160.614C249.986 160.95 249.806 161.358 249.686 161.838C249.566 162.306 249.506 162.828 249.506 163.404V165.996C249.506 167.232 249.746 168.192 250.226 168.876C250.718 169.548 251.45 169.884 252.422 169.884ZM251.27 164.7C251.27 164.388 251.384 164.118 251.612 163.89C251.84 163.662 252.11 163.548 252.422 163.548C252.734 163.548 253.004 163.662 253.232 163.89C253.46 164.118 253.574 164.388 253.574 164.7C253.574 165.012 253.46 165.282 253.232 165.51C253.004 165.738 252.734 165.852 252.422 165.852C252.11 165.852 251.84 165.738 251.612 165.51C251.384 165.282 251.27 165.012 251.27 164.7ZM266.089 162.072C266.089 161.292 265.849 160.668 265.369 160.2C264.889 159.72 264.223 159.48 263.371 159.48C262.963 159.48 262.585 159.552 262.237 159.696C261.901 159.84 261.607 160.05 261.355 160.326C261.115 160.59 260.923 160.908 260.779 161.28C260.647 161.652 260.581 162.06 260.581 162.504V164.376H260.797C261.085 163.848 261.493 163.434 262.021 163.134C262.561 162.834 263.161 162.684 263.821 162.684C264.397 162.684 264.931 162.78 265.423 162.972C265.915 163.152 266.335 163.422 266.683 163.782C267.043 164.142 267.319 164.58 267.511 165.096C267.715 165.6 267.817 166.176 267.817 166.824V167.04C267.817 167.664 267.703 168.234 267.475 168.75C267.259 169.266 266.953 169.71 266.557 170.082C266.173 170.454 265.711 170.742 265.171 170.946C264.643 171.15 264.067 171.252 263.443 171.252C262.819 171.252 262.237 171.15 261.697 170.946C261.169 170.742 260.707 170.46 260.311 170.1C259.927 169.728 259.621 169.29 259.393 168.786C259.177 168.27 259.069 167.706 259.069 167.094V162.504C259.069 161.844 259.183 161.244 259.411 160.704C259.639 160.164 259.951 159.708 260.347 159.336C260.743 158.952 261.199 158.658 261.715 158.454C262.243 158.25 262.807 158.148 263.407 158.148C264.007 158.148 264.565 158.238 265.081 158.418C265.597 158.598 266.041 158.862 266.413 159.21C266.785 159.546 267.073 159.96 267.277 160.452C267.493 160.932 267.601 161.472 267.601 162.072H266.089ZM263.443 169.92C263.875 169.92 264.265 169.854 264.613 169.722C264.973 169.578 265.279 169.38 265.531 169.128C265.783 168.876 265.975 168.576 266.107 168.228C266.239 167.88 266.305 167.496 266.305 167.076V166.86C266.305 166.44 266.233 166.056 266.089 165.708C265.945 165.36 265.747 165.06 265.495 164.808C265.243 164.556 264.937 164.364 264.577 164.232C264.229 164.088 263.851 164.016 263.443 164.016C263.035 164.016 262.657 164.088 262.309 164.232C261.961 164.376 261.655 164.574 261.391 164.826C261.139 165.078 260.941 165.372 260.797 165.708C260.653 166.044 260.581 166.404 260.581 166.788V167.13C260.581 167.526 260.647 167.898 260.779 168.246C260.911 168.582 261.103 168.876 261.355 169.128C261.607 169.38 261.907 169.578 262.255 169.722C262.615 169.854 263.011 169.92 263.443 169.92ZM278.875 167.832C278.779 168.324 278.611 168.78 278.371 169.2C278.143 169.62 277.849 169.986 277.489 170.298C277.129 170.598 276.709 170.832 276.229 171C275.749 171.168 275.215 171.252 274.627 171.252C274.003 171.252 273.409 171.15 272.845 170.946C272.293 170.742 271.807 170.448 271.387 170.064C270.967 169.668 270.631 169.188 270.379 168.624C270.139 168.06 270.019 167.412 270.019 166.68V166.464C270.019 165.744 270.139 165.096 270.379 164.52C270.631 163.944 270.967 163.458 271.387 163.062C271.807 162.666 272.293 162.36 272.845 162.144C273.409 161.928 274.003 161.82 274.627 161.82C275.191 161.82 275.713 161.904 276.193 162.072C276.673 162.24 277.093 162.48 277.453 162.792C277.825 163.092 278.125 163.452 278.353 163.872C278.593 164.292 278.755 164.748 278.839 165.24L277.435 165.564C277.399 165.252 277.309 164.952 277.165 164.664C277.033 164.364 276.847 164.106 276.607 163.89C276.379 163.662 276.097 163.482 275.761 163.35C275.425 163.218 275.035 163.152 274.591 163.152C274.159 163.152 273.751 163.236 273.367 163.404C272.995 163.56 272.665 163.788 272.377 164.088C272.089 164.376 271.861 164.724 271.693 165.132C271.537 165.54 271.459 165.984 271.459 166.464V166.68C271.459 167.184 271.537 167.64 271.693 168.048C271.861 168.444 272.089 168.78 272.377 169.056C272.665 169.332 273.001 169.548 273.385 169.704C273.769 169.848 274.183 169.92 274.627 169.92C275.071 169.92 275.455 169.854 275.779 169.722C276.115 169.578 276.397 169.398 276.625 169.182C276.865 168.954 277.051 168.696 277.183 168.408C277.327 168.12 277.423 167.82 277.471 167.508L278.875 167.832ZM282.57 166.968C282.606 167.856 282.882 168.57 283.398 169.11C283.914 169.65 284.634 169.92 285.558 169.92C285.978 169.92 286.344 169.872 286.656 169.776C286.968 169.68 287.232 169.548 287.448 169.38C287.676 169.212 287.856 169.02 287.988 168.804C288.132 168.576 288.246 168.336 288.33 168.084L289.662 168.444C289.41 169.272 288.942 169.95 288.258 170.478C287.586 170.994 286.674 171.252 285.522 171.252C284.886 171.252 284.298 171.144 283.758 170.928C283.23 170.7 282.774 170.382 282.39 169.974C282.006 169.566 281.706 169.08 281.49 168.516C281.274 167.952 281.166 167.328 281.166 166.644V166.212C281.166 165.588 281.274 165.006 281.49 164.466C281.718 163.926 282.03 163.464 282.426 163.08C282.822 162.684 283.284 162.378 283.812 162.162C284.352 161.934 284.934 161.82 285.558 161.82C286.29 161.82 286.92 161.958 287.448 162.234C287.988 162.498 288.426 162.828 288.762 163.224C289.11 163.62 289.362 164.052 289.518 164.52C289.686 164.988 289.77 165.42 289.77 165.816V166.968H282.57ZM285.558 163.152C285.162 163.152 284.79 163.218 284.442 163.35C284.106 163.47 283.806 163.644 283.542 163.872C283.29 164.1 283.08 164.37 282.912 164.682C282.756 164.982 282.654 165.312 282.606 165.672H288.366C288.342 165.288 288.246 164.94 288.078 164.628C287.922 164.316 287.712 164.052 287.448 163.836C287.196 163.62 286.902 163.452 286.566 163.332C286.242 163.212 285.906 163.152 285.558 163.152ZM293.646 171H292.242V158.4H293.646V163.476H293.862C294.174 162.936 294.606 162.528 295.158 162.252C295.71 161.964 296.31 161.82 296.958 161.82C297.51 161.82 298.032 161.922 298.524 162.126C299.016 162.33 299.448 162.624 299.82 163.008C300.204 163.392 300.504 163.866 300.72 164.43C300.948 164.994 301.062 165.636 301.062 166.356V166.716C301.062 167.448 300.954 168.096 300.738 168.66C300.522 169.224 300.222 169.698 299.838 170.082C299.466 170.466 299.028 170.76 298.524 170.964C298.02 171.156 297.486 171.252 296.922 171.252C296.634 171.252 296.34 171.216 296.04 171.144C295.74 171.084 295.452 170.988 295.176 170.856C294.912 170.712 294.666 170.544 294.438 170.352C294.21 170.148 294.018 169.908 293.862 169.632H293.646V171ZM296.634 169.92C297.066 169.92 297.462 169.848 297.822 169.704C298.182 169.548 298.494 169.332 298.758 169.056C299.034 168.78 299.244 168.444 299.388 168.048C299.544 167.652 299.622 167.208 299.622 166.716V166.356C299.622 165.876 299.544 165.444 299.388 165.06C299.244 164.664 299.034 164.328 298.758 164.052C298.494 163.764 298.176 163.542 297.804 163.386C297.444 163.23 297.054 163.152 296.634 163.152C296.214 163.152 295.824 163.236 295.464 163.404C295.104 163.56 294.786 163.782 294.51 164.07C294.246 164.358 294.036 164.706 293.88 165.114C293.724 165.51 293.646 165.948 293.646 166.428V166.644C293.646 167.136 293.724 167.586 293.88 167.994C294.036 168.39 294.246 168.732 294.51 169.02C294.786 169.308 295.104 169.53 295.464 169.686C295.824 169.842 296.214 169.92 296.634 169.92Z" fill="white"/>
<path d="M156.905 303.164V300.968H154.961V303.164H153.665V300.968H151.685V299.672H153.665V297.728H151.685V296.432H153.665V294.236H154.961V296.432H156.905V294.236H158.201V296.432H160.181V297.728H158.201V299.672H160.181V300.968H158.201V303.164H156.905ZM156.905 297.728H154.961V299.672H156.905V297.728ZM164.308 301.328C164.308 302.108 164.548 302.738 165.028 303.218C165.508 303.686 166.174 303.92 167.026 303.92C167.434 303.92 167.806 303.848 168.142 303.704C168.49 303.56 168.784 303.356 169.024 303.092C169.276 302.816 169.468 302.498 169.6 302.138C169.744 301.766 169.816 301.352 169.816 300.896V299.024H169.6C169.324 299.552 168.928 299.966 168.412 300.266C167.896 300.566 167.296 300.716 166.612 300.716C166.024 300.716 165.484 300.626 164.992 300.446C164.5 300.266 164.074 300.002 163.714 299.654C163.354 299.294 163.072 298.862 162.868 298.358C162.676 297.854 162.58 297.278 162.58 296.63V296.414C162.58 295.79 162.688 295.22 162.904 294.704C163.12 294.176 163.42 293.726 163.804 293.354C164.2 292.97 164.662 292.676 165.19 292.472C165.73 292.256 166.318 292.148 166.954 292.148C167.59 292.148 168.172 292.256 168.7 292.472C169.24 292.676 169.702 292.964 170.086 293.336C170.482 293.708 170.788 294.152 171.004 294.668C171.22 295.184 171.328 295.748 171.328 296.36V300.896C171.328 301.568 171.214 302.174 170.986 302.714C170.77 303.242 170.464 303.698 170.068 304.082C169.684 304.454 169.228 304.742 168.7 304.946C168.172 305.15 167.602 305.252 166.99 305.252C166.378 305.252 165.814 305.162 165.298 304.982C164.782 304.802 164.338 304.544 163.966 304.208C163.594 303.86 163.306 303.446 163.102 302.966C162.898 302.474 162.796 301.928 162.796 301.328H164.308ZM166.954 293.48C166.522 293.48 166.126 293.552 165.766 293.696C165.418 293.84 165.118 294.044 164.866 294.308C164.614 294.572 164.422 294.884 164.29 295.244C164.158 295.592 164.092 295.97 164.092 296.378V296.594C164.092 297.014 164.164 297.398 164.308 297.746C164.452 298.082 164.65 298.376 164.902 298.628C165.154 298.868 165.454 299.054 165.802 299.186C166.15 299.318 166.534 299.384 166.954 299.384C167.362 299.384 167.74 299.318 168.088 299.186C168.436 299.042 168.736 298.85 168.988 298.61C169.252 298.37 169.456 298.082 169.6 297.746C169.744 297.41 169.816 297.05 169.816 296.666V296.324C169.816 295.928 169.75 295.556 169.618 295.208C169.486 294.86 169.294 294.56 169.042 294.308C168.79 294.044 168.484 293.84 168.124 293.696C167.776 293.552 167.386 293.48 166.954 293.48ZM175.33 301.328C175.33 302.108 175.57 302.738 176.05 303.218C176.53 303.686 177.196 303.92 178.048 303.92C178.456 303.92 178.828 303.848 179.164 303.704C179.512 303.56 179.806 303.356 180.046 303.092C180.298 302.816 180.49 302.498 180.622 302.138C180.766 301.766 180.838 301.352 180.838 300.896V299.024H180.622C180.346 299.552 179.95 299.966 179.434 300.266C178.918 300.566 178.318 300.716 177.634 300.716C177.046 300.716 176.506 300.626 176.014 300.446C175.522 300.266 175.096 300.002 174.736 299.654C174.376 299.294 174.094 298.862 173.89 298.358C173.698 297.854 173.602 297.278 173.602 296.63V296.414C173.602 295.79 173.71 295.22 173.926 294.704C174.142 294.176 174.442 293.726 174.826 293.354C175.222 292.97 175.684 292.676 176.212 292.472C176.752 292.256 177.34 292.148 177.976 292.148C178.612 292.148 179.194 292.256 179.722 292.472C180.262 292.676 180.724 292.964 181.108 293.336C181.504 293.708 181.81 294.152 182.026 294.668C182.242 295.184 182.35 295.748 182.35 296.36V300.896C182.35 301.568 182.236 302.174 182.008 302.714C181.792 303.242 181.486 303.698 181.09 304.082C180.706 304.454 180.25 304.742 179.722 304.946C179.194 305.15 178.624 305.252 178.012 305.252C177.4 305.252 176.836 305.162 176.32 304.982C175.804 304.802 175.36 304.544 174.988 304.208C174.616 303.86 174.328 303.446 174.124 302.966C173.92 302.474 173.818 301.928 173.818 301.328H175.33ZM177.976 293.48C177.544 293.48 177.148 293.552 176.788 293.696C176.44 293.84 176.14 294.044 175.888 294.308C175.636 294.572 175.444 294.884 175.312 295.244C175.18 295.592 175.114 295.97 175.114 296.378V296.594C175.114 297.014 175.186 297.398 175.33 297.746C175.474 298.082 175.672 298.376 175.924 298.628C176.176 298.868 176.476 299.054 176.824 299.186C177.172 299.318 177.556 299.384 177.976 299.384C178.384 299.384 178.762 299.318 179.11 299.186C179.458 299.042 179.758 298.85 180.01 298.61C180.274 298.37 180.478 298.082 180.622 297.746C180.766 297.41 180.838 297.05 180.838 296.666V296.324C180.838 295.928 180.772 295.556 180.64 295.208C180.508 294.86 180.316 294.56 180.064 294.308C179.812 294.044 179.506 293.84 179.146 293.696C178.798 293.552 178.408 293.48 177.976 293.48ZM186.135 305H184.731V292.4H186.135V297.476H186.351C186.663 296.936 187.095 296.528 187.647 296.252C188.199 295.964 188.799 295.82 189.447 295.82C189.999 295.82 190.521 295.922 191.013 296.126C191.505 296.33 191.937 296.624 192.309 297.008C192.693 297.392 192.993 297.866 193.209 298.43C193.437 298.994 193.551 299.636 193.551 300.356V300.716C193.551 301.448 193.443 302.096 193.227 302.66C193.011 303.224 192.711 303.698 192.327 304.082C191.955 304.466 191.517 304.76 191.013 304.964C190.509 305.156 189.975 305.252 189.411 305.252C189.123 305.252 188.829 305.216 188.529 305.144C188.229 305.084 187.941 304.988 187.665 304.856C187.401 304.712 187.155 304.544 186.927 304.352C186.699 304.148 186.507 303.908 186.351 303.632H186.135V305ZM189.123 303.92C189.555 303.92 189.951 303.848 190.311 303.704C190.671 303.548 190.983 303.332 191.247 303.056C191.523 302.78 191.733 302.444 191.877 302.048C192.033 301.652 192.111 301.208 192.111 300.716V300.356C192.111 299.876 192.033 299.444 191.877 299.06C191.733 298.664 191.523 298.328 191.247 298.052C190.983 297.764 190.665 297.542 190.293 297.386C189.933 297.23 189.543 297.152 189.123 297.152C188.703 297.152 188.313 297.236 187.953 297.404C187.593 297.56 187.275 297.782 186.999 298.07C186.735 298.358 186.525 298.706 186.369 299.114C186.213 299.51 186.135 299.948 186.135 300.428V300.644C186.135 301.136 186.213 301.586 186.369 301.994C186.525 302.39 186.735 302.732 186.999 303.02C187.275 303.308 187.593 303.53 187.953 303.686C188.313 303.842 188.703 303.92 189.123 303.92ZM202.989 303.632H202.773C202.629 303.908 202.443 304.148 202.215 304.352C201.999 304.556 201.759 304.724 201.495 304.856C201.243 304.988 200.973 305.084 200.685 305.144C200.397 305.216 200.121 305.252 199.857 305.252C199.257 305.252 198.699 305.15 198.183 304.946C197.667 304.742 197.211 304.448 196.815 304.064C196.431 303.68 196.125 303.206 195.897 302.642C195.681 302.066 195.573 301.412 195.573 300.68V300.392C195.573 299.672 195.687 299.03 195.915 298.466C196.143 297.89 196.449 297.41 196.833 297.026C197.217 296.63 197.667 296.33 198.183 296.126C198.699 295.922 199.245 295.82 199.821 295.82C200.433 295.82 201.003 295.958 201.531 296.234C202.071 296.498 202.485 296.912 202.773 297.476H202.989V292.4H204.393V305H202.989V303.632ZM200.001 303.92C200.421 303.92 200.811 303.842 201.171 303.686C201.531 303.53 201.843 303.308 202.107 303.02C202.383 302.732 202.599 302.39 202.755 301.994C202.911 301.586 202.989 301.136 202.989 300.644V300.428C202.989 299.948 202.911 299.51 202.755 299.114C202.599 298.706 202.383 298.358 202.107 298.07C201.843 297.782 201.525 297.56 201.153 297.404C200.793 297.236 200.409 297.152 200.001 297.152C199.581 297.152 199.185 297.23 198.813 297.386C198.453 297.542 198.135 297.764 197.859 298.052C197.595 298.34 197.385 298.682 197.229 299.078C197.085 299.474 197.013 299.912 197.013 300.392V300.68C197.013 301.184 197.085 301.634 197.229 302.03C197.385 302.426 197.595 302.768 197.859 303.056C198.135 303.332 198.453 303.548 198.813 303.704C199.173 303.848 199.569 303.92 200.001 303.92ZM214.01 303.632H213.794C213.65 303.908 213.464 304.148 213.236 304.352C213.02 304.556 212.78 304.724 212.516 304.856C212.264 304.988 211.994 305.084 211.706 305.144C211.418 305.216 211.142 305.252 210.878 305.252C210.278 305.252 209.72 305.15 209.204 304.946C208.688 304.742 208.232 304.448 207.836 304.064C207.452 303.68 207.146 303.206 206.918 302.642C206.702 302.066 206.594 301.412 206.594 300.68V300.392C206.594 299.672 206.708 299.03 206.936 298.466C207.164 297.89 207.47 297.41 207.854 297.026C208.238 296.63 208.688 296.33 209.204 296.126C209.72 295.922 210.266 295.82 210.842 295.82C211.454 295.82 212.024 295.958 212.552 296.234C213.092 296.498 213.506 296.912 213.794 297.476H214.01V292.4H215.414V305H214.01V303.632ZM211.022 303.92C211.442 303.92 211.832 303.842 212.192 303.686C212.552 303.53 212.864 303.308 213.128 303.02C213.404 302.732 213.62 302.39 213.776 301.994C213.932 301.586 214.01 301.136 214.01 300.644V300.428C214.01 299.948 213.932 299.51 213.776 299.114C213.62 298.706 213.404 298.358 213.128 298.07C212.864 297.782 212.546 297.56 212.174 297.404C211.814 297.236 211.43 297.152 211.022 297.152C210.602 297.152 210.206 297.23 209.834 297.386C209.474 297.542 209.156 297.764 208.88 298.052C208.616 298.34 208.406 298.682 208.25 299.078C208.106 299.474 208.034 299.912 208.034 300.392V300.68C208.034 301.184 208.106 301.634 208.25 302.03C208.406 302.426 208.616 302.768 208.88 303.056C209.156 303.332 209.474 303.548 209.834 303.704C210.194 303.848 210.59 303.92 211.022 303.92ZM217.85 292.4H226.274V294.596L220.964 302.624C220.712 303.008 220.52 303.338 220.388 303.614C220.256 303.89 220.19 304.172 220.19 304.46V305H218.714V304.352C218.714 304.136 218.732 303.932 218.768 303.74C218.816 303.548 218.882 303.356 218.966 303.164C219.062 302.96 219.176 302.75 219.308 302.534C219.452 302.306 219.62 302.048 219.812 301.76L224.978 294.02V293.804H217.85V292.4Z" fill="#0C1E33"/>
<path d="M156.905 423.164V420.968H154.961V423.164H153.665V420.968H151.685V419.672H153.665V417.728H151.685V416.432H153.665V414.236H154.961V416.432H156.905V414.236H158.201V416.432H160.181V417.728H158.201V419.672H160.181V420.968H158.201V423.164H156.905ZM156.905 417.728H154.961V419.672H156.905V417.728ZM162.526 417.296C162.526 415.664 162.916 414.398 163.696 413.498C164.476 412.598 165.562 412.148 166.954 412.148C168.346 412.148 169.432 412.598 170.212 413.498C170.992 414.398 171.382 415.664 171.382 417.296V420.104C171.382 421.784 170.992 423.062 170.212 423.938C169.432 424.814 168.346 425.252 166.954 425.252C165.562 425.252 164.476 424.814 163.696 423.938C162.916 423.062 162.526 421.784 162.526 420.104V417.296ZM166.954 423.884C167.926 423.884 168.652 423.548 169.132 422.876C169.624 422.192 169.87 421.232 169.87 419.996V417.404C169.87 416.828 169.81 416.306 169.69 415.838C169.57 415.358 169.384 414.95 169.132 414.614C168.892 414.266 168.586 413.996 168.214 413.804C167.854 413.612 167.434 413.516 166.954 413.516C166.462 413.516 166.036 413.612 165.676 413.804C165.316 413.996 165.01 414.266 164.758 414.614C164.518 414.95 164.338 415.358 164.218 415.838C164.098 416.306 164.038 416.828 164.038 417.404V419.996C164.038 421.232 164.278 422.192 164.758 422.876C165.25 423.548 165.982 423.884 166.954 423.884ZM165.802 418.7C165.802 418.388 165.916 418.118 166.144 417.89C166.372 417.662 166.642 417.548 166.954 417.548C167.266 417.548 167.536 417.662 167.764 417.89C167.992 418.118 168.106 418.388 168.106 418.7C168.106 419.012 167.992 419.282 167.764 419.51C167.536 419.738 167.266 419.852 166.954 419.852C166.642 419.852 166.372 419.738 166.144 419.51C165.916 419.282 165.802 419.012 165.802 418.7ZM182.386 421.832C182.29 422.324 182.122 422.78 181.882 423.2C181.654 423.62 181.36 423.986 181 424.298C180.64 424.598 180.22 424.832 179.74 425C179.26 425.168 178.726 425.252 178.138 425.252C177.514 425.252 176.92 425.15 176.356 424.946C175.804 424.742 175.318 424.448 174.898 424.064C174.478 423.668 174.142 423.188 173.89 422.624C173.65 422.06 173.53 421.412 173.53 420.68V420.464C173.53 419.744 173.65 419.096 173.89 418.52C174.142 417.944 174.478 417.458 174.898 417.062C175.318 416.666 175.804 416.36 176.356 416.144C176.92 415.928 177.514 415.82 178.138 415.82C178.702 415.82 179.224 415.904 179.704 416.072C180.184 416.24 180.604 416.48 180.964 416.792C181.336 417.092 181.636 417.452 181.864 417.872C182.104 418.292 182.266 418.748 182.35 419.24L180.946 419.564C180.91 419.252 180.82 418.952 180.676 418.664C180.544 418.364 180.358 418.106 180.118 417.89C179.89 417.662 179.608 417.482 179.272 417.35C178.936 417.218 178.546 417.152 178.102 417.152C177.67 417.152 177.262 417.236 176.878 417.404C176.506 417.56 176.176 417.788 175.888 418.088C175.6 418.376 175.372 418.724 175.204 419.132C175.048 419.54 174.97 419.984 174.97 420.464V420.68C174.97 421.184 175.048 421.64 175.204 422.048C175.372 422.444 175.6 422.78 175.888 423.056C176.176 423.332 176.512 423.548 176.896 423.704C177.28 423.848 177.694 423.92 178.138 423.92C178.582 423.92 178.966 423.854 179.29 423.722C179.626 423.578 179.908 423.398 180.136 423.182C180.376 422.954 180.562 422.696 180.694 422.408C180.838 422.12 180.934 421.82 180.982 421.508L182.386 421.832ZM188.331 423.596V413.066H188.115L186.045 417.8H184.551V417.692L186.909 412.4H189.843V423.596H193.407V425H184.767V423.596H188.331ZM197.103 420.968C197.139 421.856 197.415 422.57 197.931 423.11C198.447 423.65 199.167 423.92 200.091 423.92C200.511 423.92 200.877 423.872 201.189 423.776C201.501 423.68 201.765 423.548 201.981 423.38C202.209 423.212 202.389 423.02 202.521 422.804C202.665 422.576 202.779 422.336 202.863 422.084L204.195 422.444C203.943 423.272 203.475 423.95 202.791 424.478C202.119 424.994 201.207 425.252 200.055 425.252C199.419 425.252 198.831 425.144 198.291 424.928C197.763 424.7 197.307 424.382 196.923 423.974C196.539 423.566 196.239 423.08 196.023 422.516C195.807 421.952 195.699 421.328 195.699 420.644V420.212C195.699 419.588 195.807 419.006 196.023 418.466C196.251 417.926 196.563 417.464 196.959 417.08C197.355 416.684 197.817 416.378 198.345 416.162C198.885 415.934 199.467 415.82 200.091 415.82C200.823 415.82 201.453 415.958 201.981 416.234C202.521 416.498 202.959 416.828 203.295 417.224C203.643 417.62 203.895 418.052 204.051 418.52C204.219 418.988 204.303 419.42 204.303 419.816V420.968H197.103ZM200.091 417.152C199.695 417.152 199.323 417.218 198.975 417.35C198.639 417.47 198.339 417.644 198.075 417.872C197.823 418.1 197.613 418.37 197.445 418.682C197.289 418.982 197.187 419.312 197.139 419.672H202.899C202.875 419.288 202.779 418.94 202.611 418.628C202.455 418.316 202.245 418.052 201.981 417.836C201.729 417.62 201.435 417.452 201.099 417.332C200.775 417.212 200.439 417.152 200.091 417.152ZM209.798 418.736V416.648L213.902 414.02V413.804H206.774V412.4H215.198V414.704L211.094 417.332V417.548H211.814C212.294 417.548 212.756 417.626 213.2 417.782C213.644 417.938 214.034 418.166 214.37 418.466C214.718 418.766 214.994 419.138 215.198 419.582C215.414 420.014 215.522 420.518 215.522 421.094V421.418C215.522 421.958 215.414 422.462 215.198 422.93C214.982 423.398 214.682 423.806 214.298 424.154C213.914 424.49 213.458 424.76 212.93 424.964C212.414 425.156 211.85 425.252 211.238 425.252C210.53 425.252 209.894 425.144 209.33 424.928C208.766 424.712 208.286 424.418 207.89 424.046C207.494 423.662 207.188 423.218 206.972 422.714C206.768 422.198 206.666 421.652 206.666 421.076V420.104H208.178V420.968C208.178 421.424 208.25 421.832 208.394 422.192C208.55 422.54 208.76 422.84 209.024 423.092C209.3 423.332 209.624 423.518 209.996 423.65C210.368 423.782 210.77 423.848 211.202 423.848C211.598 423.848 211.964 423.782 212.3 423.65C212.648 423.518 212.948 423.338 213.2 423.11C213.452 422.87 213.65 422.594 213.794 422.282C213.938 421.958 214.01 421.616 214.01 421.256V421.148C214.01 420.392 213.77 419.804 213.29 419.384C212.81 418.952 212.21 418.736 211.49 418.736H209.798ZM220.82 418.736V416.648L224.924 414.02V413.804H217.796V412.4H226.22V414.704L222.116 417.332V417.548H222.836C223.316 417.548 223.778 417.626 224.222 417.782C224.666 417.938 225.056 418.166 225.392 418.466C225.74 418.766 226.016 419.138 226.22 419.582C226.436 420.014 226.544 420.518 226.544 421.094V421.418C226.544 421.958 226.436 422.462 226.22 422.93C226.004 423.398 225.704 423.806 225.32 424.154C224.936 424.49 224.48 424.76 223.952 424.964C223.436 425.156 222.872 425.252 222.26 425.252C221.552 425.252 220.916 425.144 220.352 424.928C219.788 424.712 219.308 424.418 218.912 424.046C218.516 423.662 218.21 423.218 217.994 422.714C217.79 422.198 217.688 421.652 217.688 421.076V420.104H219.2V420.968C219.2 421.424 219.272 421.832 219.416 422.192C219.572 422.54 219.782 422.84 220.046 423.092C220.322 423.332 220.646 423.518 221.018 423.65C221.39 423.782 221.792 423.848 222.224 423.848C222.62 423.848 222.986 423.782 223.322 423.65C223.67 423.518 223.97 423.338 224.222 423.11C224.474 422.87 224.672 422.594 224.816 422.282C224.96 421.958 225.032 421.616 225.032 421.256V421.148C225.032 420.392 224.792 419.804 224.312 419.384C223.832 418.952 223.232 418.736 222.512 418.736H220.82Z" fill="white"/>
</svg>
