<svg width="786" height="300" viewBox="0 0 786 300" fill="none" xmlns="http://www.w3.org/2000/svg">
<path d="M54.34 56.104C54.7413 56.104 55.082 56.0387 55.362 55.908C55.6513 55.768 55.8847 55.586 56.062 55.362C56.2487 55.1287 56.384 54.8673 56.468 54.578C56.5613 54.2793 56.608 53.9667 56.608 53.64V53.472H57.784V53.64C57.784 54.1347 57.7093 54.6013 57.56 55.04C57.4107 55.4693 57.1913 55.8473 56.902 56.174C56.6127 56.4913 56.2533 56.7433 55.824 56.93C55.3947 57.1073 54.9 57.196 54.34 57.196C53.2573 57.196 52.4127 56.8553 51.806 56.174C51.1993 55.4927 50.896 54.4987 50.896 53.192V51.008C50.896 49.7387 51.1993 48.754 51.806 48.054C52.4127 47.354 53.2573 47.004 54.34 47.004C54.9 47.004 55.3947 47.0973 55.824 47.284C56.2533 47.4613 56.6127 47.7133 56.902 48.04C57.1913 48.3573 57.4107 48.7353 57.56 49.174C57.7093 49.6033 57.784 50.0653 57.784 50.56V50.728H56.608V50.56C56.5987 50.2427 56.5473 49.9347 56.454 49.636C56.37 49.3373 56.2347 49.076 56.048 48.852C55.8707 48.6187 55.642 48.4367 55.362 48.306C55.082 48.166 54.7413 48.096 54.34 48.096C53.584 48.096 53.0147 48.3713 52.632 48.922C52.2587 49.4727 52.072 50.196 52.072 51.092V53.108C52.072 54.0693 52.2587 54.8113 52.632 55.334C53.0147 55.8473 53.584 56.104 54.34 56.104ZM62.2123 51.008C62.2123 49.7387 62.5156 48.754 63.1223 48.054C63.7289 47.354 64.5736 47.004 65.6563 47.004C66.7389 47.004 67.5836 47.354 68.1903 48.054C68.7969 48.754 69.1003 49.7387 69.1003 51.008V53.192C69.1003 54.4987 68.7969 55.4927 68.1903 56.174C67.5836 56.8553 66.7389 57.196 65.6563 57.196C64.5736 57.196 63.7289 56.8553 63.1223 56.174C62.5156 55.4927 62.2123 54.4987 62.2123 53.192V51.008ZM65.6563 56.104C66.4123 56.104 66.9769 55.8473 67.3503 55.334C67.7329 54.8113 67.9243 54.0693 67.9243 53.108V51.092C67.9243 50.196 67.7329 49.4727 67.3503 48.922C66.9769 48.3713 66.4123 48.096 65.6563 48.096C64.9003 48.096 64.3309 48.3713 63.9483 48.922C63.5749 49.4727 63.3883 50.196 63.3883 51.092V53.108C63.3883 54.0693 63.5749 54.8113 63.9483 55.334C64.3309 55.8473 64.9003 56.104 65.6563 56.104ZM73.9625 47.2H75.1385V55.908H80.2625V57H73.9625V47.2ZM84.9568 51.008C84.9568 49.7387 85.2601 48.754 85.8668 48.054C86.4735 47.354 87.3181 47.004 88.4008 47.004C89.4835 47.004 90.3281 47.354 90.9348 48.054C91.5415 48.754 91.8448 49.7387 91.8448 51.008V53.192C91.8448 54.4987 91.5415 55.4927 90.9348 56.174C90.3281 56.8553 89.4835 57.196 88.4008 57.196C87.3181 57.196 86.4735 56.8553 85.8668 56.174C85.2601 55.4927 84.9568 54.4987 84.9568 53.192V51.008ZM88.4008 56.104C89.1568 56.104 89.7215 55.8473 90.0948 55.334C90.4775 54.8113 90.6688 54.0693 90.6688 53.108V51.092C90.6688 50.196 90.4775 49.4727 90.0948 48.922C89.7215 48.3713 89.1568 48.096 88.4008 48.096C87.6448 48.096 87.0755 48.3713 86.6928 48.922C86.3195 49.4727 86.1328 50.196 86.1328 51.092V53.108C86.1328 54.0693 86.3195 54.8113 86.6928 55.334C87.0755 55.8473 87.6448 56.104 88.4008 56.104ZM97.5891 47.2V53.696C97.5891 54.4893 97.7711 55.0913 98.1351 55.502C98.5084 55.9033 99.0544 56.104 99.7731 56.104C100.492 56.104 101.033 55.9033 101.397 55.502C101.77 55.0913 101.957 54.4893 101.957 53.696V47.2H103.133V53.696C103.133 54.8347 102.834 55.7027 102.237 56.3C101.64 56.8973 100.818 57.196 99.7731 57.196C98.7277 57.196 97.9064 56.8973 97.3091 56.3C96.7117 55.7027 96.4131 54.8347 96.4131 53.696V47.2H97.5891ZM114.211 57H113.035V53.724C113.035 53.4813 112.979 53.2947 112.867 53.164C112.755 53.0333 112.559 52.968 112.279 52.968H109.227V57H108.051V47.2H111.551C112.055 47.2 112.494 47.2747 112.867 47.424C113.241 47.564 113.549 47.7553 113.791 47.998C114.043 48.2407 114.23 48.5253 114.351 48.852C114.482 49.1693 114.547 49.5053 114.547 49.86V50.28C114.547 50.644 114.445 51.008 114.239 51.372C114.043 51.736 113.735 52.016 113.315 52.212V52.38C113.595 52.4267 113.815 52.5387 113.973 52.716C114.132 52.8933 114.211 53.1453 114.211 53.472V57ZM109.227 51.876H111.411C112.074 51.876 112.564 51.736 112.881 51.456C113.208 51.1667 113.371 50.7467 113.371 50.196V49.944C113.371 49.4493 113.208 49.0527 112.881 48.754C112.564 48.446 112.074 48.292 111.411 48.292H109.227V51.876ZM124.828 50.028C124.828 49.7107 124.762 49.4307 124.632 49.188C124.51 48.9453 124.342 48.7447 124.128 48.586C123.913 48.4273 123.666 48.306 123.386 48.222C123.106 48.138 122.812 48.096 122.504 48.096C122.233 48.096 121.976 48.1333 121.734 48.208C121.491 48.2733 121.272 48.3713 121.076 48.502C120.889 48.6327 120.74 48.796 120.628 48.992C120.516 49.1787 120.46 49.398 120.46 49.65V49.734C120.46 50.0047 120.516 50.238 120.628 50.434C120.74 50.6207 120.903 50.784 121.118 50.924C121.342 51.0547 121.617 51.1667 121.944 51.26C122.27 51.344 122.653 51.4187 123.092 51.484C124.118 51.6427 124.874 51.946 125.36 52.394C125.845 52.8327 126.088 53.4253 126.088 54.172V54.34C126.088 54.76 126.013 55.1473 125.864 55.502C125.724 55.8473 125.509 56.146 125.22 56.398C124.94 56.65 124.59 56.846 124.17 56.986C123.75 57.126 123.264 57.196 122.714 57.196C122.088 57.196 121.533 57.1073 121.048 56.93C120.572 56.7433 120.17 56.4913 119.844 56.174C119.526 55.8473 119.284 55.4693 119.116 55.04C118.948 54.6013 118.864 54.1253 118.864 53.612V53.192H120.04V53.528C120.04 54.3867 120.273 55.0307 120.74 55.46C121.216 55.8893 121.874 56.104 122.714 56.104C123.442 56.104 123.988 55.9453 124.352 55.628C124.725 55.3013 124.912 54.872 124.912 54.34V54.256C124.912 53.7427 124.72 53.3507 124.338 53.08C123.964 52.8093 123.353 52.6133 122.504 52.492C122.009 52.4267 121.561 52.3287 121.16 52.198C120.768 52.058 120.432 51.8807 120.152 51.666C119.872 51.442 119.657 51.176 119.508 50.868C119.358 50.56 119.284 50.196 119.284 49.776V49.608C119.284 49.2253 119.363 48.8753 119.522 48.558C119.68 48.2407 119.9 47.9653 120.18 47.732C120.469 47.4987 120.81 47.3213 121.202 47.2C121.603 47.0693 122.042 47.004 122.518 47.004C123.068 47.004 123.558 47.0833 123.988 47.242C124.426 47.4007 124.795 47.6153 125.094 47.886C125.392 48.1473 125.616 48.46 125.766 48.824C125.924 49.1787 126.004 49.552 126.004 49.944V50.532H124.828V50.028Z" fill="white"/>
<line opacity="0.3" x1="50.5" y1="79.5" x2="735.5" y2="79.5" stroke="white" stroke-linecap="round"/>
<path d="M50 105C50 102.239 52.2386 100 55 100H195C197.761 100 200 102.239 200 105V245C200 247.761 197.761 250 195 250H55C52.2386 250 50 247.761 50 245V105Z" fill="#FAFF0C"/>
<path d="M225 105C225 102.239 227.239 100 230 100H370C372.761 100 375 102.239 375 105V245C375 247.761 372.761 250 370 250H230C227.239 250 225 247.761 225 245V105Z" fill="#006CEB"/>
<path d="M400 105C400 102.239 402.239 100 405 100H545C547.761 100 550 102.239 550 105V245C550 247.761 547.761 250 545 250H405C402.239 250 400 247.761 400 245V105Z" fill="#99BDD7"/>
<path d="M575 105C575 102.239 577.239 100 580 100H720C722.761 100 725 102.239 725 105V245C725 247.761 722.761 250 720 250H580C577.239 250 575 247.761 575 245V105Z" fill="#0C1E33"/>
<path d="M92.9048 177.164V174.968H90.9608V177.164H89.6648V174.968H87.6848V173.672H89.6648V171.728H87.6848V170.432H89.6648V168.236H90.9608V170.432H92.9048V168.236H94.2008V170.432H96.1808V171.728H94.2008V173.672H96.1808V174.968H94.2008V177.164H92.9048ZM92.9048 171.728H90.9608V173.672H92.9048V171.728ZM98.9223 170.072H101.676V167.804C101.676 167.396 101.802 167.06 102.054 166.796C102.318 166.532 102.654 166.4 103.062 166.4H106.59V167.696H103.566C103.242 167.696 103.08 167.876 103.08 168.236V170.072H106.806V171.368H103.08V179H101.676V171.368H98.9223V170.072ZM116.514 177.488H116.298C116.01 178.088 115.608 178.532 115.092 178.82C114.588 179.108 114.054 179.252 113.49 179.252C112.902 179.252 112.356 179.156 111.852 178.964C111.348 178.76 110.904 178.466 110.52 178.082C110.148 177.686 109.854 177.206 109.638 176.642C109.422 176.078 109.314 175.424 109.314 174.68V174.392C109.314 173.66 109.422 173.012 109.638 172.448C109.854 171.884 110.148 171.41 110.52 171.026C110.904 170.63 111.348 170.33 111.852 170.126C112.356 169.922 112.89 169.82 113.454 169.82C114.066 169.82 114.618 169.958 115.11 170.234C115.614 170.498 116.01 170.912 116.298 171.476H116.514V170.072H117.918V177.164C117.918 177.524 118.08 177.704 118.404 177.704H118.854V179H117.9C117.492 179 117.156 178.868 116.892 178.604C116.64 178.34 116.514 178.004 116.514 177.596V177.488ZM113.634 177.92C114.054 177.92 114.438 177.842 114.786 177.686C115.146 177.53 115.452 177.308 115.704 177.02C115.956 176.732 116.154 176.39 116.298 175.994C116.442 175.586 116.514 175.136 116.514 174.644V174.428C116.514 173.948 116.442 173.51 116.298 173.114C116.154 172.706 115.95 172.358 115.686 172.07C115.434 171.782 115.128 171.56 114.768 171.404C114.42 171.236 114.042 171.152 113.634 171.152C113.214 171.152 112.83 171.23 112.482 171.386C112.134 171.542 111.828 171.764 111.564 172.052C111.312 172.328 111.114 172.67 110.97 173.078C110.826 173.474 110.754 173.912 110.754 174.392V174.68C110.754 175.7 111.018 176.498 111.546 177.074C112.086 177.638 112.782 177.92 113.634 177.92ZM120.965 170.072H123.719V167.804C123.719 167.396 123.845 167.06 124.097 166.796C124.361 166.532 124.697 166.4 125.105 166.4H128.633V167.696H125.609C125.285 167.696 125.123 167.876 125.123 168.236V170.072H128.849V171.368H125.123V179H123.719V171.368H120.965V170.072ZM131.987 170.072H134.741V167.804C134.741 167.396 134.867 167.06 135.119 166.796C135.383 166.532 135.719 166.4 136.127 166.4H139.655V167.696H136.631C136.307 167.696 136.145 167.876 136.145 168.236V170.072H139.871V171.368H136.145V179H134.741V171.368H131.987V170.072ZM142.612 171.296C142.612 169.664 143.002 168.398 143.782 167.498C144.562 166.598 145.648 166.148 147.04 166.148C148.432 166.148 149.518 166.598 150.298 167.498C151.078 168.398 151.468 169.664 151.468 171.296V174.104C151.468 175.784 151.078 177.062 150.298 177.938C149.518 178.814 148.432 179.252 147.04 179.252C145.648 179.252 144.562 178.814 143.782 177.938C143.002 177.062 142.612 175.784 142.612 174.104V171.296ZM147.04 177.884C148.012 177.884 148.738 177.548 149.218 176.876C149.71 176.192 149.956 175.232 149.956 173.996V171.404C149.956 170.828 149.896 170.306 149.776 169.838C149.656 169.358 149.47 168.95 149.218 168.614C148.978 168.266 148.672 167.996 148.3 167.804C147.94 167.612 147.52 167.516 147.04 167.516C146.548 167.516 146.122 167.612 145.762 167.804C145.402 167.996 145.096 168.266 144.844 168.614C144.604 168.95 144.424 169.358 144.304 169.838C144.184 170.306 144.124 170.828 144.124 171.404V173.996C144.124 175.232 144.364 176.192 144.844 176.876C145.336 177.548 146.068 177.884 147.04 177.884ZM145.888 172.7C145.888 172.388 146.002 172.118 146.23 171.89C146.458 171.662 146.728 171.548 147.04 171.548C147.352 171.548 147.622 171.662 147.85 171.89C148.078 172.118 148.192 172.388 148.192 172.7C148.192 173.012 148.078 173.282 147.85 173.51C147.622 173.738 147.352 173.852 147.04 173.852C146.728 173.852 146.458 173.738 146.23 173.51C146.002 173.282 145.888 173.012 145.888 172.7ZM162.472 175.832C162.376 176.324 162.208 176.78 161.968 177.2C161.74 177.62 161.446 177.986 161.086 178.298C160.726 178.598 160.306 178.832 159.826 179C159.346 179.168 158.812 179.252 158.224 179.252C157.6 179.252 157.006 179.15 156.442 178.946C155.89 178.742 155.404 178.448 154.984 178.064C154.564 177.668 154.228 177.188 153.976 176.624C153.736 176.06 153.616 175.412 153.616 174.68V174.464C153.616 173.744 153.736 173.096 153.976 172.52C154.228 171.944 154.564 171.458 154.984 171.062C155.404 170.666 155.89 170.36 156.442 170.144C157.006 169.928 157.6 169.82 158.224 169.82C158.788 169.82 159.31 169.904 159.79 170.072C160.27 170.24 160.69 170.48 161.05 170.792C161.422 171.092 161.722 171.452 161.95 171.872C162.19 172.292 162.352 172.748 162.436 173.24L161.032 173.564C160.996 173.252 160.906 172.952 160.762 172.664C160.63 172.364 160.444 172.106 160.204 171.89C159.976 171.662 159.694 171.482 159.358 171.35C159.022 171.218 158.632 171.152 158.188 171.152C157.756 171.152 157.348 171.236 156.964 171.404C156.592 171.56 156.262 171.788 155.974 172.088C155.686 172.376 155.458 172.724 155.29 173.132C155.134 173.54 155.056 173.984 155.056 174.464V174.68C155.056 175.184 155.134 175.64 155.29 176.048C155.458 176.444 155.686 176.78 155.974 177.056C156.262 177.332 156.598 177.548 156.982 177.704C157.366 177.848 157.78 177.92 158.224 177.92C158.668 177.92 159.052 177.854 159.376 177.722C159.712 177.578 159.994 177.398 160.222 177.182C160.462 176.954 160.648 176.696 160.78 176.408C160.924 176.12 161.02 175.82 161.068 175.508L162.472 175.832Z" fill="#0C1E33"/>
<path d="M268.405 177.164V174.968H266.461V177.164H265.165V174.968H263.185V173.672H265.165V171.728H263.185V170.432H265.165V168.236H266.461V170.432H268.405V168.236H269.701V170.432H271.681V171.728H269.701V173.672H271.681V174.968H269.701V177.164H268.405ZM268.405 171.728H266.461V173.672H268.405V171.728ZM274.026 171.296C274.026 169.664 274.416 168.398 275.196 167.498C275.976 166.598 277.062 166.148 278.454 166.148C279.846 166.148 280.932 166.598 281.712 167.498C282.492 168.398 282.882 169.664 282.882 171.296V174.104C282.882 175.784 282.492 177.062 281.712 177.938C280.932 178.814 279.846 179.252 278.454 179.252C277.062 179.252 275.976 178.814 275.196 177.938C274.416 177.062 274.026 175.784 274.026 174.104V171.296ZM278.454 177.884C279.426 177.884 280.152 177.548 280.632 176.876C281.124 176.192 281.37 175.232 281.37 173.996V171.404C281.37 170.828 281.31 170.306 281.19 169.838C281.07 169.358 280.884 168.95 280.632 168.614C280.392 168.266 280.086 167.996 279.714 167.804C279.354 167.612 278.934 167.516 278.454 167.516C277.962 167.516 277.536 167.612 277.176 167.804C276.816 167.996 276.51 168.266 276.258 168.614C276.018 168.95 275.838 169.358 275.718 169.838C275.598 170.306 275.538 170.828 275.538 171.404V173.996C275.538 175.232 275.778 176.192 276.258 176.876C276.75 177.548 277.482 177.884 278.454 177.884ZM277.302 172.7C277.302 172.388 277.416 172.118 277.644 171.89C277.872 171.662 278.142 171.548 278.454 171.548C278.766 171.548 279.036 171.662 279.264 171.89C279.492 172.118 279.606 172.388 279.606 172.7C279.606 173.012 279.492 173.282 279.264 173.51C279.036 173.738 278.766 173.852 278.454 173.852C278.142 173.852 277.872 173.738 277.644 173.51C277.416 173.282 277.302 173.012 277.302 172.7ZM285.048 171.296C285.048 169.664 285.438 168.398 286.218 167.498C286.998 166.598 288.084 166.148 289.476 166.148C290.868 166.148 291.954 166.598 292.734 167.498C293.514 168.398 293.904 169.664 293.904 171.296V174.104C293.904 175.784 293.514 177.062 292.734 177.938C291.954 178.814 290.868 179.252 289.476 179.252C288.084 179.252 286.998 178.814 286.218 177.938C285.438 177.062 285.048 175.784 285.048 174.104V171.296ZM289.476 177.884C290.448 177.884 291.174 177.548 291.654 176.876C292.146 176.192 292.392 175.232 292.392 173.996V171.404C292.392 170.828 292.332 170.306 292.212 169.838C292.092 169.358 291.906 168.95 291.654 168.614C291.414 168.266 291.108 167.996 290.736 167.804C290.376 167.612 289.956 167.516 289.476 167.516C288.984 167.516 288.558 167.612 288.198 167.804C287.838 167.996 287.532 168.266 287.28 168.614C287.04 168.95 286.86 169.358 286.74 169.838C286.62 170.306 286.56 170.828 286.56 171.404V173.996C286.56 175.232 286.8 176.192 287.28 176.876C287.772 177.548 288.504 177.884 289.476 177.884ZM288.324 172.7C288.324 172.388 288.438 172.118 288.666 171.89C288.894 171.662 289.164 171.548 289.476 171.548C289.788 171.548 290.058 171.662 290.286 171.89C290.514 172.118 290.628 172.388 290.628 172.7C290.628 173.012 290.514 173.282 290.286 173.51C290.058 173.738 289.788 173.852 289.476 173.852C289.164 173.852 288.894 173.738 288.666 173.51C288.438 173.282 288.324 173.012 288.324 172.7ZM303.143 170.072C303.143 169.292 302.903 168.668 302.423 168.2C301.943 167.72 301.277 167.48 300.425 167.48C300.017 167.48 299.639 167.552 299.291 167.696C298.955 167.84 298.661 168.05 298.409 168.326C298.169 168.59 297.977 168.908 297.833 169.28C297.701 169.652 297.635 170.06 297.635 170.504V172.376H297.851C298.139 171.848 298.547 171.434 299.075 171.134C299.615 170.834 300.215 170.684 300.875 170.684C301.451 170.684 301.985 170.78 302.477 170.972C302.969 171.152 303.389 171.422 303.737 171.782C304.097 172.142 304.373 172.58 304.565 173.096C304.769 173.6 304.871 174.176 304.871 174.824V175.04C304.871 175.664 304.757 176.234 304.529 176.75C304.313 177.266 304.007 177.71 303.611 178.082C303.227 178.454 302.765 178.742 302.225 178.946C301.697 179.15 301.121 179.252 300.497 179.252C299.873 179.252 299.291 179.15 298.751 178.946C298.223 178.742 297.761 178.46 297.365 178.1C296.981 177.728 296.675 177.29 296.447 176.786C296.231 176.27 296.123 175.706 296.123 175.094V170.504C296.123 169.844 296.237 169.244 296.465 168.704C296.693 168.164 297.005 167.708 297.401 167.336C297.797 166.952 298.253 166.658 298.769 166.454C299.297 166.25 299.861 166.148 300.461 166.148C301.061 166.148 301.619 166.238 302.135 166.418C302.651 166.598 303.095 166.862 303.467 167.21C303.839 167.546 304.127 167.96 304.331 168.452C304.547 168.932 304.655 169.472 304.655 170.072H303.143ZM300.497 177.92C300.929 177.92 301.319 177.854 301.667 177.722C302.027 177.578 302.333 177.38 302.585 177.128C302.837 176.876 303.029 176.576 303.161 176.228C303.293 175.88 303.359 175.496 303.359 175.076V174.86C303.359 174.44 303.287 174.056 303.143 173.708C302.999 173.36 302.801 173.06 302.549 172.808C302.297 172.556 301.991 172.364 301.631 172.232C301.283 172.088 300.905 172.016 300.497 172.016C300.089 172.016 299.711 172.088 299.363 172.232C299.015 172.376 298.709 172.574 298.445 172.826C298.193 173.078 297.995 173.372 297.851 173.708C297.707 174.044 297.635 174.404 297.635 174.788V175.13C297.635 175.526 297.701 175.898 297.833 176.246C297.965 176.582 298.157 176.876 298.409 177.128C298.661 177.38 298.961 177.578 299.309 177.722C299.669 177.854 300.065 177.92 300.497 177.92ZM315.929 175.832C315.833 176.324 315.665 176.78 315.425 177.2C315.197 177.62 314.903 177.986 314.543 178.298C314.183 178.598 313.763 178.832 313.283 179C312.803 179.168 312.269 179.252 311.681 179.252C311.057 179.252 310.463 179.15 309.899 178.946C309.347 178.742 308.861 178.448 308.441 178.064C308.021 177.668 307.685 177.188 307.433 176.624C307.193 176.06 307.073 175.412 307.073 174.68V174.464C307.073 173.744 307.193 173.096 307.433 172.52C307.685 171.944 308.021 171.458 308.441 171.062C308.861 170.666 309.347 170.36 309.899 170.144C310.463 169.928 311.057 169.82 311.681 169.82C312.245 169.82 312.767 169.904 313.247 170.072C313.727 170.24 314.147 170.48 314.507 170.792C314.879 171.092 315.179 171.452 315.407 171.872C315.647 172.292 315.809 172.748 315.893 173.24L314.489 173.564C314.453 173.252 314.363 172.952 314.219 172.664C314.087 172.364 313.901 172.106 313.661 171.89C313.433 171.662 313.151 171.482 312.815 171.35C312.479 171.218 312.089 171.152 311.645 171.152C311.213 171.152 310.805 171.236 310.421 171.404C310.049 171.56 309.719 171.788 309.431 172.088C309.143 172.376 308.915 172.724 308.747 173.132C308.591 173.54 308.513 173.984 308.513 174.464V174.68C308.513 175.184 308.591 175.64 308.747 176.048C308.915 176.444 309.143 176.78 309.431 177.056C309.719 177.332 310.055 177.548 310.439 177.704C310.823 177.848 311.237 177.92 311.681 177.92C312.125 177.92 312.509 177.854 312.833 177.722C313.169 177.578 313.451 177.398 313.679 177.182C313.919 176.954 314.105 176.696 314.237 176.408C314.381 176.12 314.477 175.82 314.525 175.508L315.929 175.832ZM319.624 174.968C319.66 175.856 319.936 176.57 320.452 177.11C320.968 177.65 321.688 177.92 322.612 177.92C323.032 177.92 323.398 177.872 323.71 177.776C324.022 177.68 324.286 177.548 324.502 177.38C324.73 177.212 324.91 177.02 325.042 176.804C325.186 176.576 325.3 176.336 325.384 176.084L326.716 176.444C326.464 177.272 325.996 177.95 325.312 178.478C324.64 178.994 323.728 179.252 322.576 179.252C321.94 179.252 321.352 179.144 320.812 178.928C320.284 178.7 319.828 178.382 319.444 177.974C319.06 177.566 318.76 177.08 318.544 176.516C318.328 175.952 318.22 175.328 318.22 174.644V174.212C318.22 173.588 318.328 173.006 318.544 172.466C318.772 171.926 319.084 171.464 319.48 171.08C319.876 170.684 320.338 170.378 320.866 170.162C321.406 169.934 321.988 169.82 322.612 169.82C323.344 169.82 323.974 169.958 324.502 170.234C325.042 170.498 325.48 170.828 325.816 171.224C326.164 171.62 326.416 172.052 326.572 172.52C326.74 172.988 326.824 173.42 326.824 173.816V174.968H319.624ZM322.612 171.152C322.216 171.152 321.844 171.218 321.496 171.35C321.16 171.47 320.86 171.644 320.596 171.872C320.344 172.1 320.134 172.37 319.966 172.682C319.81 172.982 319.708 173.312 319.66 173.672H325.42C325.396 173.288 325.3 172.94 325.132 172.628C324.976 172.316 324.766 172.052 324.502 171.836C324.25 171.62 323.956 171.452 323.62 171.332C323.296 171.212 322.96 171.152 322.612 171.152ZM330.7 179H329.296V166.4H330.7V171.476H330.916C331.228 170.936 331.66 170.528 332.212 170.252C332.764 169.964 333.364 169.82 334.012 169.82C334.564 169.82 335.086 169.922 335.578 170.126C336.07 170.33 336.502 170.624 336.874 171.008C337.258 171.392 337.558 171.866 337.774 172.43C338.002 172.994 338.116 173.636 338.116 174.356V174.716C338.116 175.448 338.008 176.096 337.792 176.66C337.576 177.224 337.276 177.698 336.892 178.082C336.52 178.466 336.082 178.76 335.578 178.964C335.074 179.156 334.54 179.252 333.976 179.252C333.688 179.252 333.394 179.216 333.094 179.144C332.794 179.084 332.506 178.988 332.23 178.856C331.966 178.712 331.72 178.544 331.492 178.352C331.264 178.148 331.072 177.908 330.916 177.632H330.7V179ZM333.688 177.92C334.12 177.92 334.516 177.848 334.876 177.704C335.236 177.548 335.548 177.332 335.812 177.056C336.088 176.78 336.298 176.444 336.442 176.048C336.598 175.652 336.676 175.208 336.676 174.716V174.356C336.676 173.876 336.598 173.444 336.442 173.06C336.298 172.664 336.088 172.328 335.812 172.052C335.548 171.764 335.23 171.542 334.858 171.386C334.498 171.23 334.108 171.152 333.688 171.152C333.268 171.152 332.878 171.236 332.518 171.404C332.158 171.56 331.84 171.782 331.564 172.07C331.3 172.358 331.09 172.706 330.934 173.114C330.778 173.51 330.7 173.948 330.7 174.428V174.644C330.7 175.136 330.778 175.586 330.934 175.994C331.09 176.39 331.3 176.732 331.564 177.02C331.84 177.308 332.158 177.53 332.518 177.686C332.878 177.842 333.268 177.92 333.688 177.92Z" fill="white"/>
<path d="M442.905 180.164V177.968H440.961V180.164H439.665V177.968H437.685V176.672H439.665V174.728H437.685V173.432H439.665V171.236H440.961V173.432H442.905V171.236H444.201V173.432H446.181V174.728H444.201V176.672H446.181V177.968H444.201V180.164H442.905ZM442.905 174.728H440.961V176.672H442.905V174.728ZM450.308 178.328C450.308 179.108 450.548 179.738 451.028 180.218C451.508 180.686 452.174 180.92 453.026 180.92C453.434 180.92 453.806 180.848 454.142 180.704C454.49 180.56 454.784 180.356 455.024 180.092C455.276 179.816 455.468 179.498 455.6 179.138C455.744 178.766 455.816 178.352 455.816 177.896V176.024H455.6C455.324 176.552 454.928 176.966 454.412 177.266C453.896 177.566 453.296 177.716 452.612 177.716C452.024 177.716 451.484 177.626 450.992 177.446C450.5 177.266 450.074 177.002 449.714 176.654C449.354 176.294 449.072 175.862 448.868 175.358C448.676 174.854 448.58 174.278 448.58 173.63V173.414C448.58 172.79 448.688 172.22 448.904 171.704C449.12 171.176 449.42 170.726 449.804 170.354C450.2 169.97 450.662 169.676 451.19 169.472C451.73 169.256 452.318 169.148 452.954 169.148C453.59 169.148 454.172 169.256 454.7 169.472C455.24 169.676 455.702 169.964 456.086 170.336C456.482 170.708 456.788 171.152 457.004 171.668C457.22 172.184 457.328 172.748 457.328 173.36V177.896C457.328 178.568 457.214 179.174 456.986 179.714C456.77 180.242 456.464 180.698 456.068 181.082C455.684 181.454 455.228 181.742 454.7 181.946C454.172 182.15 453.602 182.252 452.99 182.252C452.378 182.252 451.814 182.162 451.298 181.982C450.782 181.802 450.338 181.544 449.966 181.208C449.594 180.86 449.306 180.446 449.102 179.966C448.898 179.474 448.796 178.928 448.796 178.328H450.308ZM452.954 170.48C452.522 170.48 452.126 170.552 451.766 170.696C451.418 170.84 451.118 171.044 450.866 171.308C450.614 171.572 450.422 171.884 450.29 172.244C450.158 172.592 450.092 172.97 450.092 173.378V173.594C450.092 174.014 450.164 174.398 450.308 174.746C450.452 175.082 450.65 175.376 450.902 175.628C451.154 175.868 451.454 176.054 451.802 176.186C452.15 176.318 452.534 176.384 452.954 176.384C453.362 176.384 453.74 176.318 454.088 176.186C454.436 176.042 454.736 175.85 454.988 175.61C455.252 175.37 455.456 175.082 455.6 174.746C455.744 174.41 455.816 174.05 455.816 173.666V173.324C455.816 172.928 455.75 172.556 455.618 172.208C455.486 171.86 455.294 171.56 455.042 171.308C454.79 171.044 454.484 170.84 454.124 170.696C453.776 170.552 453.386 170.48 452.954 170.48ZM461.33 178.328C461.33 179.108 461.57 179.738 462.05 180.218C462.53 180.686 463.196 180.92 464.048 180.92C464.456 180.92 464.828 180.848 465.164 180.704C465.512 180.56 465.806 180.356 466.046 180.092C466.298 179.816 466.49 179.498 466.622 179.138C466.766 178.766 466.838 178.352 466.838 177.896V176.024H466.622C466.346 176.552 465.95 176.966 465.434 177.266C464.918 177.566 464.318 177.716 463.634 177.716C463.046 177.716 462.506 177.626 462.014 177.446C461.522 177.266 461.096 177.002 460.736 176.654C460.376 176.294 460.094 175.862 459.89 175.358C459.698 174.854 459.602 174.278 459.602 173.63V173.414C459.602 172.79 459.71 172.22 459.926 171.704C460.142 171.176 460.442 170.726 460.826 170.354C461.222 169.97 461.684 169.676 462.212 169.472C462.752 169.256 463.34 169.148 463.976 169.148C464.612 169.148 465.194 169.256 465.722 169.472C466.262 169.676 466.724 169.964 467.108 170.336C467.504 170.708 467.81 171.152 468.026 171.668C468.242 172.184 468.35 172.748 468.35 173.36V177.896C468.35 178.568 468.236 179.174 468.008 179.714C467.792 180.242 467.486 180.698 467.09 181.082C466.706 181.454 466.25 181.742 465.722 181.946C465.194 182.15 464.624 182.252 464.012 182.252C463.4 182.252 462.836 182.162 462.32 181.982C461.804 181.802 461.36 181.544 460.988 181.208C460.616 180.86 460.328 180.446 460.124 179.966C459.92 179.474 459.818 178.928 459.818 178.328H461.33ZM463.976 170.48C463.544 170.48 463.148 170.552 462.788 170.696C462.44 170.84 462.14 171.044 461.888 171.308C461.636 171.572 461.444 171.884 461.312 172.244C461.18 172.592 461.114 172.97 461.114 173.378V173.594C461.114 174.014 461.186 174.398 461.33 174.746C461.474 175.082 461.672 175.376 461.924 175.628C462.176 175.868 462.476 176.054 462.824 176.186C463.172 176.318 463.556 176.384 463.976 176.384C464.384 176.384 464.762 176.318 465.11 176.186C465.458 176.042 465.758 175.85 466.01 175.61C466.274 175.37 466.478 175.082 466.622 174.746C466.766 174.41 466.838 174.05 466.838 173.666V173.324C466.838 172.928 466.772 172.556 466.64 172.208C466.508 171.86 466.316 171.56 466.064 171.308C465.812 171.044 465.506 170.84 465.146 170.696C464.798 170.552 464.408 170.48 463.976 170.48ZM472.135 182H470.731V169.4H472.135V174.476H472.351C472.663 173.936 473.095 173.528 473.647 173.252C474.199 172.964 474.799 172.82 475.447 172.82C475.999 172.82 476.521 172.922 477.013 173.126C477.505 173.33 477.937 173.624 478.309 174.008C478.693 174.392 478.993 174.866 479.209 175.43C479.437 175.994 479.551 176.636 479.551 177.356V177.716C479.551 178.448 479.443 179.096 479.227 179.66C479.011 180.224 478.711 180.698 478.327 181.082C477.955 181.466 477.517 181.76 477.013 181.964C476.509 182.156 475.975 182.252 475.411 182.252C475.123 182.252 474.829 182.216 474.529 182.144C474.229 182.084 473.941 181.988 473.665 181.856C473.401 181.712 473.155 181.544 472.927 181.352C472.699 181.148 472.507 180.908 472.351 180.632H472.135V182ZM475.123 180.92C475.555 180.92 475.951 180.848 476.311 180.704C476.671 180.548 476.983 180.332 477.247 180.056C477.523 179.78 477.733 179.444 477.877 179.048C478.033 178.652 478.111 178.208 478.111 177.716V177.356C478.111 176.876 478.033 176.444 477.877 176.06C477.733 175.664 477.523 175.328 477.247 175.052C476.983 174.764 476.665 174.542 476.293 174.386C475.933 174.23 475.543 174.152 475.123 174.152C474.703 174.152 474.313 174.236 473.953 174.404C473.593 174.56 473.275 174.782 472.999 175.07C472.735 175.358 472.525 175.706 472.369 176.114C472.213 176.51 472.135 176.948 472.135 177.428V177.644C472.135 178.136 472.213 178.586 472.369 178.994C472.525 179.39 472.735 179.732 472.999 180.02C473.275 180.308 473.593 180.53 473.953 180.686C474.313 180.842 474.703 180.92 475.123 180.92ZM488.989 180.632H488.773C488.629 180.908 488.443 181.148 488.215 181.352C487.999 181.556 487.759 181.724 487.495 181.856C487.243 181.988 486.973 182.084 486.685 182.144C486.397 182.216 486.121 182.252 485.857 182.252C485.257 182.252 484.699 182.15 484.183 181.946C483.667 181.742 483.211 181.448 482.815 181.064C482.431 180.68 482.125 180.206 481.897 179.642C481.681 179.066 481.573 178.412 481.573 177.68V177.392C481.573 176.672 481.687 176.03 481.915 175.466C482.143 174.89 482.449 174.41 482.833 174.026C483.217 173.63 483.667 173.33 484.183 173.126C484.699 172.922 485.245 172.82 485.821 172.82C486.433 172.82 487.003 172.958 487.531 173.234C488.071 173.498 488.485 173.912 488.773 174.476H488.989V169.4H490.393V182H488.989V180.632ZM486.001 180.92C486.421 180.92 486.811 180.842 487.171 180.686C487.531 180.53 487.843 180.308 488.107 180.02C488.383 179.732 488.599 179.39 488.755 178.994C488.911 178.586 488.989 178.136 488.989 177.644V177.428C488.989 176.948 488.911 176.51 488.755 176.114C488.599 175.706 488.383 175.358 488.107 175.07C487.843 174.782 487.525 174.56 487.153 174.404C486.793 174.236 486.409 174.152 486.001 174.152C485.581 174.152 485.185 174.23 484.813 174.386C484.453 174.542 484.135 174.764 483.859 175.052C483.595 175.34 483.385 175.682 483.229 176.078C483.085 176.474 483.013 176.912 483.013 177.392V177.68C483.013 178.184 483.085 178.634 483.229 179.03C483.385 179.426 483.595 179.768 483.859 180.056C484.135 180.332 484.453 180.548 484.813 180.704C485.173 180.848 485.569 180.92 486.001 180.92ZM500.01 180.632H499.794C499.65 180.908 499.464 181.148 499.236 181.352C499.02 181.556 498.78 181.724 498.516 181.856C498.264 181.988 497.994 182.084 497.706 182.144C497.418 182.216 497.142 182.252 496.878 182.252C496.278 182.252 495.72 182.15 495.204 181.946C494.688 181.742 494.232 181.448 493.836 181.064C493.452 180.68 493.146 180.206 492.918 179.642C492.702 179.066 492.594 178.412 492.594 177.68V177.392C492.594 176.672 492.708 176.03 492.936 175.466C493.164 174.89 493.47 174.41 493.854 174.026C494.238 173.63 494.688 173.33 495.204 173.126C495.72 172.922 496.266 172.82 496.842 172.82C497.454 172.82 498.024 172.958 498.552 173.234C499.092 173.498 499.506 173.912 499.794 174.476H500.01V169.4H501.414V182H500.01V180.632ZM497.022 180.92C497.442 180.92 497.832 180.842 498.192 180.686C498.552 180.53 498.864 180.308 499.128 180.02C499.404 179.732 499.62 179.39 499.776 178.994C499.932 178.586 500.01 178.136 500.01 177.644V177.428C500.01 176.948 499.932 176.51 499.776 176.114C499.62 175.706 499.404 175.358 499.128 175.07C498.864 174.782 498.546 174.56 498.174 174.404C497.814 174.236 497.43 174.152 497.022 174.152C496.602 174.152 496.206 174.23 495.834 174.386C495.474 174.542 495.156 174.764 494.88 175.052C494.616 175.34 494.406 175.682 494.25 176.078C494.106 176.474 494.034 176.912 494.034 177.392V177.68C494.034 178.184 494.106 178.634 494.25 179.03C494.406 179.426 494.616 179.768 494.88 180.056C495.156 180.332 495.474 180.548 495.834 180.704C496.194 180.848 496.59 180.92 497.022 180.92ZM503.85 169.4H512.274V171.596L506.964 179.624C506.712 180.008 506.52 180.338 506.388 180.614C506.256 180.89 506.19 181.172 506.19 181.46V182H504.714V181.352C504.714 181.136 504.732 180.932 504.768 180.74C504.816 180.548 504.882 180.356 504.966 180.164C505.062 179.96 505.176 179.75 505.308 179.534C505.452 179.306 505.62 179.048 505.812 178.76L510.978 171.02V170.804H503.85V169.4Z" fill="white"/>
<path d="M617.905 180.164V177.968H615.961V180.164H614.665V177.968H612.685V176.672H614.665V174.728H612.685V173.432H614.665V171.236H615.961V173.432H617.905V171.236H619.201V173.432H621.181V174.728H619.201V176.672H621.181V177.968H619.201V180.164H617.905ZM617.905 174.728H615.961V176.672H617.905V174.728ZM623.526 174.296C623.526 172.664 623.916 171.398 624.696 170.498C625.476 169.598 626.562 169.148 627.954 169.148C629.346 169.148 630.432 169.598 631.212 170.498C631.992 171.398 632.382 172.664 632.382 174.296V177.104C632.382 178.784 631.992 180.062 631.212 180.938C630.432 181.814 629.346 182.252 627.954 182.252C626.562 182.252 625.476 181.814 624.696 180.938C623.916 180.062 623.526 178.784 623.526 177.104V174.296ZM627.954 180.884C628.926 180.884 629.652 180.548 630.132 179.876C630.624 179.192 630.87 178.232 630.87 176.996V174.404C630.87 173.828 630.81 173.306 630.69 172.838C630.57 172.358 630.384 171.95 630.132 171.614C629.892 171.266 629.586 170.996 629.214 170.804C628.854 170.612 628.434 170.516 627.954 170.516C627.462 170.516 627.036 170.612 626.676 170.804C626.316 170.996 626.01 171.266 625.758 171.614C625.518 171.95 625.338 172.358 625.218 172.838C625.098 173.306 625.038 173.828 625.038 174.404V176.996C625.038 178.232 625.278 179.192 625.758 179.876C626.25 180.548 626.982 180.884 627.954 180.884ZM626.802 175.7C626.802 175.388 626.916 175.118 627.144 174.89C627.372 174.662 627.642 174.548 627.954 174.548C628.266 174.548 628.536 174.662 628.764 174.89C628.992 175.118 629.106 175.388 629.106 175.7C629.106 176.012 628.992 176.282 628.764 176.51C628.536 176.738 628.266 176.852 627.954 176.852C627.642 176.852 627.372 176.738 627.144 176.51C626.916 176.282 626.802 176.012 626.802 175.7ZM643.386 178.832C643.29 179.324 643.122 179.78 642.882 180.2C642.654 180.62 642.36 180.986 642 181.298C641.64 181.598 641.22 181.832 640.74 182C640.26 182.168 639.726 182.252 639.138 182.252C638.514 182.252 637.92 182.15 637.356 181.946C636.804 181.742 636.318 181.448 635.898 181.064C635.478 180.668 635.142 180.188 634.89 179.624C634.65 179.06 634.53 178.412 634.53 177.68V177.464C634.53 176.744 634.65 176.096 634.89 175.52C635.142 174.944 635.478 174.458 635.898 174.062C636.318 173.666 636.804 173.36 637.356 173.144C637.92 172.928 638.514 172.82 639.138 172.82C639.702 172.82 640.224 172.904 640.704 173.072C641.184 173.24 641.604 173.48 641.964 173.792C642.336 174.092 642.636 174.452 642.864 174.872C643.104 175.292 643.266 175.748 643.35 176.24L641.946 176.564C641.91 176.252 641.82 175.952 641.676 175.664C641.544 175.364 641.358 175.106 641.118 174.89C640.89 174.662 640.608 174.482 640.272 174.35C639.936 174.218 639.546 174.152 639.102 174.152C638.67 174.152 638.262 174.236 637.878 174.404C637.506 174.56 637.176 174.788 636.888 175.088C636.6 175.376 636.372 175.724 636.204 176.132C636.048 176.54 635.97 176.984 635.97 177.464V177.68C635.97 178.184 636.048 178.64 636.204 179.048C636.372 179.444 636.6 179.78 636.888 180.056C637.176 180.332 637.512 180.548 637.896 180.704C638.28 180.848 638.694 180.92 639.138 180.92C639.582 180.92 639.966 180.854 640.29 180.722C640.626 180.578 640.908 180.398 641.136 180.182C641.376 179.954 641.562 179.696 641.694 179.408C641.838 179.12 641.934 178.82 641.982 178.508L643.386 178.832ZM649.331 180.596V170.066H649.115L647.045 174.8H645.551V174.692L647.909 169.4H650.843V180.596H654.407V182H645.767V180.596H649.331ZM658.103 177.968C658.139 178.856 658.415 179.57 658.931 180.11C659.447 180.65 660.167 180.92 661.091 180.92C661.511 180.92 661.877 180.872 662.189 180.776C662.501 180.68 662.765 180.548 662.981 180.38C663.209 180.212 663.389 180.02 663.521 179.804C663.665 179.576 663.779 179.336 663.863 179.084L665.195 179.444C664.943 180.272 664.475 180.95 663.791 181.478C663.119 181.994 662.207 182.252 661.055 182.252C660.419 182.252 659.831 182.144 659.291 181.928C658.763 181.7 658.307 181.382 657.923 180.974C657.539 180.566 657.239 180.08 657.023 179.516C656.807 178.952 656.699 178.328 656.699 177.644V177.212C656.699 176.588 656.807 176.006 657.023 175.466C657.251 174.926 657.563 174.464 657.959 174.08C658.355 173.684 658.817 173.378 659.345 173.162C659.885 172.934 660.467 172.82 661.091 172.82C661.823 172.82 662.453 172.958 662.981 173.234C663.521 173.498 663.959 173.828 664.295 174.224C664.643 174.62 664.895 175.052 665.051 175.52C665.219 175.988 665.303 176.42 665.303 176.816V177.968H658.103ZM661.091 174.152C660.695 174.152 660.323 174.218 659.975 174.35C659.639 174.47 659.339 174.644 659.075 174.872C658.823 175.1 658.613 175.37 658.445 175.682C658.289 175.982 658.187 176.312 658.139 176.672H663.899C663.875 176.288 663.779 175.94 663.611 175.628C663.455 175.316 663.245 175.052 662.981 174.836C662.729 174.62 662.435 174.452 662.099 174.332C661.775 174.212 661.439 174.152 661.091 174.152ZM670.798 175.736V173.648L674.902 171.02V170.804H667.774V169.4H676.198V171.704L672.094 174.332V174.548H672.814C673.294 174.548 673.756 174.626 674.2 174.782C674.644 174.938 675.034 175.166 675.37 175.466C675.718 175.766 675.994 176.138 676.198 176.582C676.414 177.014 676.522 177.518 676.522 178.094V178.418C676.522 178.958 676.414 179.462 676.198 179.93C675.982 180.398 675.682 180.806 675.298 181.154C674.914 181.49 674.458 181.76 673.93 181.964C673.414 182.156 672.85 182.252 672.238 182.252C671.53 182.252 670.894 182.144 670.33 181.928C669.766 181.712 669.286 181.418 668.89 181.046C668.494 180.662 668.188 180.218 667.972 179.714C667.768 179.198 667.666 178.652 667.666 178.076V177.104H669.178V177.968C669.178 178.424 669.25 178.832 669.394 179.192C669.55 179.54 669.76 179.84 670.024 180.092C670.3 180.332 670.624 180.518 670.996 180.65C671.368 180.782 671.77 180.848 672.202 180.848C672.598 180.848 672.964 180.782 673.3 180.65C673.648 180.518 673.948 180.338 674.2 180.11C674.452 179.87 674.65 179.594 674.794 179.282C674.938 178.958 675.01 178.616 675.01 178.256V178.148C675.01 177.392 674.77 176.804 674.29 176.384C673.81 175.952 673.21 175.736 672.49 175.736H670.798ZM681.82 175.736V173.648L685.924 171.02V170.804H678.796V169.4H687.22V171.704L683.116 174.332V174.548H683.836C684.316 174.548 684.778 174.626 685.222 174.782C685.666 174.938 686.056 175.166 686.392 175.466C686.74 175.766 687.016 176.138 687.22 176.582C687.436 177.014 687.544 177.518 687.544 178.094V178.418C687.544 178.958 687.436 179.462 687.22 179.93C687.004 180.398 686.704 180.806 686.32 181.154C685.936 181.49 685.48 181.76 684.952 181.964C684.436 182.156 683.872 182.252 683.26 182.252C682.552 182.252 681.916 182.144 681.352 181.928C680.788 181.712 680.308 181.418 679.912 181.046C679.516 180.662 679.21 180.218 678.994 179.714C678.79 179.198 678.688 178.652 678.688 178.076V177.104H680.2V177.968C680.2 178.424 680.272 178.832 680.416 179.192C680.572 179.54 680.782 179.84 681.046 180.092C681.322 180.332 681.646 180.518 682.018 180.65C682.39 180.782 682.792 180.848 683.224 180.848C683.62 180.848 683.986 180.782 684.322 180.65C684.67 180.518 684.97 180.338 685.222 180.11C685.474 179.87 685.672 179.594 685.816 179.282C685.96 178.958 686.032 178.616 686.032 178.256V178.148C686.032 177.392 685.792 176.804 685.312 176.384C684.832 175.952 684.232 175.736 683.512 175.736H681.82Z" fill="white"/>
</svg>
