<svg width="1194" height="370" viewBox="0 0 1194 370" fill="none" xmlns="http://www.w3.org/2000/svg">
<path fill-rule="evenodd" clip-rule="evenodd" d="M453.527 68.0174C454.648 57.2467 464.091 49 475.371 49C480.144 49 484.56 50.4806 488.166 52.9808C490.344 51.6097 492.921 50.8071 495.69 50.8071C500.415 50.8071 504.576 53.1262 507.166 56.6618C507.738 56.5594 508.329 56.5043 508.937 56.5043C514.698 56.5043 519.309 61.2214 519.309 66.9666M453.527 68.0174C449.492 70.5665 446.809 75.085 446.809 80.2389C446.809 86.9257 451.324 92.555 457.472 94.1788L457.825 94.272L510.972 94.6413L511.034 94.639C518.708 94.3604 524.8 88.0024 524.8 80.2389C524.8 75.5553 522.586 71.3929 519.153 68.7592C519.255 68.1793 519.309 67.5806 519.309 66.9666M475.371 54.7772C466.429 54.7772 459.374 61.6051 459.196 69.843L459.157 71.6335L457.537 72.395C454.619 73.7657 452.586 76.7535 452.586 80.2389C452.586 84.1503 455.143 87.4288 458.622 88.5002L510.882 88.8633C515.382 88.6692 519.023 84.9138 519.023 80.2389C519.023 76.8941 517.155 74.0078 514.43 72.5683L512.062 71.3176L513.13 68.8621C513.389 68.2657 513.532 67.6301 513.532 66.9666C513.532 64.3466 511.442 62.2815 508.937 62.2815C508.291 62.2815 507.665 62.4289 507.072 62.6998L504.526 63.8632L503.283 61.3552C501.871 58.5053 498.99 56.5842 495.69 56.5842C493.541 56.5842 491.58 57.3999 490.068 58.7579L488.175 60.4588L486.249 58.7944C483.375 56.3102 479.572 54.7772 475.371 54.7772Z" fill="#3A95FF"/>
<path d="M467.806 113.94C469.13 111.349 469.289 99.5402 469.289 99.5402C469.289 99.5402 459.861 106.497 458.537 109.088C457.214 111.679 458.216 114.865 460.775 116.205C463.335 117.545 466.482 116.531 467.806 113.94Z" fill="#3A95FF"/>
<path d="M487.163 113.94C488.487 111.349 488.646 99.5402 488.646 99.5402C488.646 99.5402 479.218 106.497 477.895 109.088C476.571 111.679 477.573 114.865 480.132 116.205C482.692 117.545 485.84 116.531 487.163 113.94Z" fill="#3A95FF"/>
<path d="M500.98 116.205C503.54 117.545 506.687 116.531 508.011 113.94C509.335 111.349 509.494 99.5402 509.494 99.5402C509.494 99.5402 500.066 106.497 498.742 109.088C497.419 111.679 498.421 114.865 500.98 116.205Z" fill="#3A95FF"/>
<path d="M465.244 135.799C467.803 137.139 470.951 136.125 472.275 133.534C473.599 130.943 473.758 119.134 473.758 119.134C473.758 119.134 464.33 126.092 463.006 128.682C461.682 131.273 462.684 134.459 465.244 135.799Z" fill="#3A95FF"/>
<path d="M484.601 135.799C487.161 137.139 490.308 136.125 491.632 133.534C492.956 130.943 493.115 119.134 493.115 119.134C493.115 119.134 483.687 126.092 482.363 128.682C481.04 131.273 482.042 134.459 484.601 135.799Z" fill="#3A95FF"/>
<path fill-rule="evenodd" clip-rule="evenodd" d="M453.553 249.592C454.679 238.78 464.158 230.501 475.482 230.501C480.273 230.501 484.707 231.988 488.326 234.497C490.513 233.121 493.099 232.315 495.879 232.315C500.623 232.315 504.799 234.643 507.4 238.193C507.974 238.09 508.568 238.035 509.178 238.035C514.961 238.035 519.59 242.77 519.59 248.537M453.553 249.592C449.503 252.151 446.809 256.687 446.809 261.861C446.809 268.574 451.342 274.225 457.513 275.855L457.867 275.949L511.22 276.319L511.283 276.317C518.987 276.037 525.103 269.655 525.103 261.861C525.103 257.159 522.879 252.981 519.433 250.337C519.535 249.755 519.59 249.154 519.59 248.537M475.482 236.301C466.505 236.301 459.423 243.155 459.244 251.425L459.205 253.222L457.578 253.987C454.649 255.363 452.608 258.362 452.608 261.861C452.608 265.788 455.176 269.079 458.668 270.155L511.13 270.519C515.648 270.324 519.303 266.554 519.303 261.861C519.303 258.503 517.427 255.606 514.692 254.161L512.315 252.905L513.387 250.44C513.647 249.842 513.79 249.204 513.79 248.537C513.79 245.907 511.693 243.834 509.178 243.834C508.529 243.834 507.901 243.982 507.305 244.254L504.75 245.422L503.502 242.904C502.084 240.043 499.192 238.115 495.879 238.115C493.722 238.115 491.753 238.934 490.236 240.297L488.335 242.004L486.402 240.334C483.516 237.84 479.699 236.301 475.482 236.301Z" fill="#3A95FF"/>
<path d="M462.529 292.567C462.18 293.362 462.603 294.153 463.449 294.38C464.296 294.607 465.068 294.094 465.164 293.231L465.684 289.602L468.275 292.626C468.593 292.965 468.847 293.202 469.185 293.293C469.947 293.497 470.783 293.087 470.974 292.375C471.143 291.743 470.794 291.184 470.339 290.85L467.017 288.35L471.155 287.809C471.716 287.747 472.288 287.477 472.457 286.845C472.648 286.134 472.172 285.371 471.41 285.167C471.029 285.065 470.701 285.104 470.246 285.278L466.489 286.599L467.866 283.158C468.215 282.362 467.792 281.571 466.946 281.344C466.099 281.117 465.327 281.63 465.231 282.493L464.711 286.123L462.12 283.099C461.813 282.72 461.591 282.533 461.21 282.431C460.448 282.227 459.612 282.638 459.421 283.349C459.262 283.941 459.611 284.501 460.066 284.834L463.378 287.374L459.25 287.876C458.732 287.949 458.107 288.247 457.949 288.84C457.758 289.551 458.223 290.353 458.985 290.557C459.366 290.659 459.705 290.581 460.149 290.446L463.906 289.125L462.529 292.567Z" fill="#99BDD7"/>
<path d="M469.277 314.33C468.928 315.126 469.351 315.917 470.197 316.144C471.044 316.371 471.817 315.858 471.912 314.995L472.432 311.365L475.023 314.389C475.341 314.729 475.595 314.966 475.933 315.057C476.695 315.261 477.531 314.85 477.722 314.139C477.891 313.507 477.542 312.948 477.087 312.614L473.766 310.114L477.903 309.572C478.464 309.511 479.036 309.241 479.205 308.609C479.396 307.898 478.92 307.135 478.158 306.931C477.777 306.828 477.449 306.867 476.994 307.042L473.237 308.363L474.614 304.921C474.963 304.126 474.54 303.335 473.694 303.108C472.847 302.881 472.075 303.393 471.979 304.257L471.459 307.886L468.868 304.862C468.561 304.484 468.339 304.297 467.958 304.195C467.196 303.991 466.36 304.401 466.169 305.112C466.01 305.705 466.359 306.264 466.814 306.598L470.126 309.138L465.998 309.64C465.48 309.713 464.855 310.011 464.697 310.603C464.506 311.314 464.971 312.117 465.733 312.321C466.114 312.423 466.453 312.345 466.897 312.21L470.654 310.889L469.277 314.33Z" fill="#99BDD7"/>
<path d="M489.523 314.33C489.174 315.126 489.597 315.917 490.443 316.144C491.29 316.371 492.063 315.858 492.158 314.995L492.678 311.365L495.269 314.389C495.587 314.729 495.841 314.966 496.179 315.057C496.941 315.261 497.777 314.85 497.968 314.139C498.137 313.507 497.788 312.948 497.334 312.614L494.012 310.114L498.149 309.572C498.71 309.511 499.282 309.241 499.451 308.609C499.642 307.898 499.166 307.135 498.404 306.931C498.023 306.828 497.695 306.867 497.24 307.042L493.483 308.363L494.86 304.921C495.209 304.126 494.786 303.335 493.94 303.108C493.093 302.881 492.321 303.393 492.225 304.257L491.705 307.886L489.114 304.862C488.807 304.484 488.585 304.297 488.204 304.195C487.442 303.991 486.606 304.401 486.415 305.112C486.256 305.705 486.605 306.264 487.06 306.598L490.372 309.138L486.245 309.64C485.726 309.713 485.102 310.011 484.943 310.603C484.752 311.314 485.217 312.117 485.979 312.321C486.36 312.423 486.699 312.345 487.143 312.21L490.9 310.889L489.523 314.33Z" fill="#99BDD7"/>
<path d="M483.092 291.856C482.575 292.554 482.811 293.419 483.586 293.829C484.361 294.238 485.228 293.91 485.513 293.089L486.826 289.666L488.681 293.19C488.915 293.591 489.11 293.879 489.42 294.043C490.118 294.411 491.024 294.197 491.368 293.546C491.674 292.967 491.458 292.344 491.088 291.918L488.405 288.742L492.559 289.133C493.12 289.198 493.737 289.061 494.043 288.483C494.386 287.832 494.092 286.982 493.394 286.614C493.046 286.43 492.717 286.395 492.235 286.464L488.278 286.918L490.385 283.868C490.902 283.17 490.666 282.305 489.891 281.895C489.116 281.486 488.249 281.814 487.964 282.635L486.651 286.058L484.796 282.534C484.581 282.096 484.405 281.865 484.057 281.681C483.359 281.313 482.453 281.527 482.109 282.178C481.822 282.721 482.038 283.344 482.408 283.77L485.072 286.982L480.937 286.555C480.415 286.51 479.74 286.663 479.453 287.205C479.11 287.856 479.385 288.742 480.082 289.11C480.431 289.294 480.779 289.293 481.242 289.26L485.199 288.806L483.092 291.856Z" fill="#99BDD7"/>
<path d="M503.338 291.856C502.821 292.554 503.057 293.419 503.832 293.829C504.607 294.238 505.474 293.91 505.759 293.089L507.072 289.666L508.927 293.19C509.162 293.591 509.356 293.879 509.666 294.043C510.364 294.411 511.27 294.197 511.614 293.546C511.92 292.967 511.704 292.344 511.334 291.918L508.651 288.742L512.805 289.133C513.366 289.198 513.983 289.061 514.289 288.483C514.633 287.832 514.338 286.982 513.641 286.614C513.292 286.43 512.963 286.395 512.481 286.464L508.524 286.918L510.631 283.868C511.148 283.17 510.912 282.305 510.137 281.895C509.362 281.486 508.495 281.814 508.21 282.635L506.897 286.058L505.042 282.534C504.827 282.096 504.652 281.865 504.303 281.681C503.605 281.313 502.699 281.527 502.355 282.178C502.068 282.721 502.284 283.344 502.654 283.77L505.318 286.982L501.183 286.555C500.661 286.51 499.986 286.663 499.699 287.205C499.356 287.856 499.631 288.742 500.329 289.11C500.677 289.294 501.025 289.293 501.488 289.26L505.445 288.806L503.338 291.856Z" fill="#99BDD7"/>
<path d="M972.187 72.2882C972.219 72.4339 972.29 72.57 972.393 72.6825C972.496 72.795 972.627 72.88 972.773 72.9286L983.604 76.5303L977.372 89.2066C977.294 89.3779 977.278 89.5712 977.327 89.7555C977.377 89.9398 977.488 90.1043 977.644 90.2225C977.801 90.3407 977.992 90.4058 978.188 90.4073C978.384 90.4088 978.573 90.3465 978.724 90.2306L999.241 72.5225C999.358 72.4282 999.446 72.3048 999.496 72.1651C999.546 72.0254 999.556 71.8744 999.525 71.7277C999.494 71.5809 999.423 71.4438 999.32 71.3304C999.217 71.217 999.085 71.1314 998.938 71.0825L988.269 67.5346L994.13 54.7129C994.204 54.5405 994.214 54.348 994.16 54.1659C994.107 53.9838 993.992 53.8226 993.835 53.7081C993.677 53.5935 993.486 53.5322 993.291 53.5337C993.097 53.5353 992.91 53.5997 992.761 53.7166L972.462 71.4947C972.347 71.5898 972.261 71.7134 972.213 71.8528C972.164 71.9922 972.156 72.1424 972.187 72.2882Z" fill="#FAFF0C"/>
<path d="M972.187 72.2882C972.219 72.4339 972.29 72.57 972.393 72.6825C972.496 72.795 972.627 72.88 972.773 72.9286L983.604 76.5303L977.372 89.2066C977.294 89.3779 977.278 89.5712 977.327 89.7555C977.377 89.9398 977.488 90.1043 977.644 90.2225C977.801 90.3407 977.992 90.4058 978.188 90.4073C978.384 90.4088 978.573 90.3465 978.724 90.2306L999.241 72.5225C999.358 72.4282 999.446 72.3048 999.496 72.1651C999.546 72.0254 999.556 71.8744 999.525 71.7277C999.494 71.5809 999.423 71.4438 999.32 71.3304C999.217 71.217 999.085 71.1314 998.938 71.0825L988.269 67.5346L994.13 54.7129C994.204 54.5405 994.214 54.348 994.16 54.1659C994.107 53.9838 993.992 53.8226 993.835 53.7081C993.677 53.5935 993.486 53.5322 993.291 53.5337C993.097 53.5353 992.91 53.5997 992.761 53.7166L972.462 71.4947C972.347 71.5898 972.261 71.7134 972.213 71.8528C972.164 71.9922 972.156 72.1424 972.187 72.2882Z" stroke="black"/>
<path d="M918.457 95.6784C918.515 95.9446 918.644 96.1931 918.832 96.3986C919.02 96.6041 919.26 96.7591 919.527 96.8479L939.307 103.425L927.926 126.575C927.782 126.887 927.753 127.24 927.843 127.577C927.934 127.913 928.138 128.214 928.423 128.43C928.708 128.646 929.057 128.765 929.415 128.767C929.773 128.77 930.118 128.656 930.395 128.445L967.863 96.1064C968.076 95.9342 968.237 95.7089 968.328 95.4537C968.419 95.1985 968.437 94.9228 968.38 94.6548C968.324 94.3869 968.195 94.1364 968.007 93.9293C967.818 93.7222 967.577 93.5659 967.309 93.4765L947.825 86.9974L958.529 63.5829C958.663 63.268 958.682 62.9163 958.584 62.5838C958.486 62.2513 958.277 61.957 957.989 61.7478C957.701 61.5386 957.352 61.4265 956.997 61.4294C956.641 61.4322 956.3 61.5498 956.027 61.7634L918.959 94.2294C918.749 94.4031 918.592 94.6288 918.503 94.8833C918.415 95.1379 918.399 95.4122 918.457 95.6784Z" fill="#FAFF0C"/>
<path fill-rule="evenodd" clip-rule="evenodd" d="M928.858 254.31C930.064 242.729 940.217 233.862 952.346 233.862C957.478 233.862 962.227 235.454 966.103 238.143C968.446 236.668 971.216 235.805 974.193 235.805C979.274 235.805 983.747 238.299 986.532 242.101C987.147 241.99 987.783 241.931 988.437 241.931C994.631 241.931 999.589 247.003 999.589 253.181M928.858 254.31C924.52 257.051 921.635 261.91 921.635 267.451C921.635 274.641 926.49 280.694 933.1 282.44L933.48 282.54L990.624 282.937L990.692 282.935C998.943 282.635 1005.49 275.799 1005.49 267.451C1005.49 262.415 1003.11 257.94 999.422 255.108C999.531 254.485 999.589 253.841 999.589 253.181M952.346 240.074C942.732 240.074 935.146 247.416 934.954 256.273L934.913 258.198L933.17 259.017C930.033 260.491 927.847 263.704 927.847 267.451C927.847 271.657 930.596 275.182 934.337 276.334L990.528 276.724C995.367 276.516 999.282 272.478 999.282 267.451C999.282 263.855 997.273 260.751 994.343 259.204L991.797 257.859L992.945 255.219C993.224 254.577 993.377 253.894 993.377 253.181C993.377 250.363 991.131 248.143 988.437 248.143C987.742 248.143 987.069 248.301 986.431 248.593L983.694 249.844L982.358 247.147C980.839 244.083 977.741 242.017 974.193 242.017C971.883 242.017 969.774 242.894 968.148 244.354L966.112 246.183L964.042 244.394C960.951 241.722 956.863 240.074 952.346 240.074Z" fill="#3A95FF"/>
<path d="M975.389 283.321C975.409 283.411 975.453 283.495 975.516 283.564C975.579 283.634 975.66 283.686 975.751 283.716L982.427 285.936L978.585 293.75C978.537 293.855 978.527 293.974 978.558 294.088C978.588 294.201 978.657 294.303 978.753 294.376C978.849 294.449 978.967 294.489 979.088 294.49C979.209 294.491 979.325 294.452 979.419 294.381L992.065 283.466C992.137 283.408 992.191 283.332 992.222 283.245C992.253 283.159 992.259 283.066 992.24 282.976C992.221 282.885 992.177 282.801 992.114 282.731C992.05 282.661 991.969 282.608 991.878 282.578L985.302 280.391L988.915 272.488C988.96 272.382 988.966 272.263 988.933 272.151C988.9 272.039 988.83 271.939 988.733 271.869C988.635 271.798 988.518 271.76 988.398 271.761C988.278 271.762 988.162 271.802 988.07 271.874L975.559 282.832C975.488 282.891 975.435 282.967 975.405 283.053C975.375 283.139 975.37 283.231 975.389 283.321Z" fill="#FAFF0C"/>
<path d="M940.65 293.688C940.686 293.852 940.766 294.005 940.882 294.132C940.997 294.259 941.145 294.354 941.31 294.409L953.502 298.463L946.487 312.732C946.398 312.925 946.381 313.142 946.436 313.35C946.492 313.557 946.617 313.742 946.793 313.876C946.969 314.009 947.184 314.082 947.405 314.084C947.625 314.085 947.838 314.015 948.009 313.885L971.103 293.952C971.235 293.846 971.334 293.707 971.39 293.55C971.446 293.392 971.457 293.222 971.422 293.057C971.388 292.892 971.308 292.738 971.192 292.61C971.076 292.482 970.927 292.386 970.762 292.331L958.752 288.337L965.35 273.905C965.433 273.711 965.444 273.494 965.384 273.289C965.324 273.084 965.195 272.903 965.017 272.774C964.84 272.645 964.625 272.576 964.406 272.578C964.187 272.579 963.976 272.652 963.808 272.784L940.96 292.795C940.83 292.902 940.733 293.041 940.679 293.198C940.625 293.355 940.615 293.524 940.65 293.688Z" fill="#FAFF0C"/>
<path fill-rule="evenodd" clip-rule="evenodd" d="M739.089 93.4808C749.519 93.4808 757.974 85.0282 757.974 74.6013C757.974 64.1744 749.519 55.7217 739.089 55.7217C728.66 55.7217 720.205 64.1744 720.205 74.6013C720.205 76.3391 721.614 77.7479 723.352 77.7479C725.091 77.7479 726.5 76.3391 726.5 74.6013C726.5 67.65 732.136 62.0149 739.089 62.0149C746.043 62.0149 751.679 67.65 751.679 74.6013C751.679 81.5525 746.043 87.1876 739.089 87.1876H679.288C677.55 87.1876 676.141 88.5964 676.141 90.3342C676.141 92.0721 677.55 93.4808 679.288 93.4808H739.089Z" fill="#99BDD7"/>
<path fill-rule="evenodd" clip-rule="evenodd" d="M704.467 82.468C710.551 82.468 715.483 77.5372 715.483 71.4549C715.483 65.3725 710.551 60.4418 704.467 60.4418C700.011 60.4418 696.047 63.1113 694.33 67.1384C693.648 68.7371 694.392 70.5855 695.991 71.267C697.59 71.9485 699.439 71.205 700.12 69.6064C700.857 67.8792 702.556 66.735 704.467 66.735C707.074 66.735 709.188 68.8482 709.188 71.4549C709.188 74.0616 707.074 76.1748 704.467 76.1748H676.14C674.401 76.1748 672.992 77.5836 672.992 79.3214C672.992 81.0592 674.401 82.468 676.14 82.468H704.467Z" fill="#99BDD7"/>
<path fill-rule="evenodd" clip-rule="evenodd" d="M732.792 104.494C738.007 104.494 742.234 108.72 742.234 113.934C742.234 119.147 738.007 123.373 732.792 123.373C727.577 123.373 723.35 119.147 723.35 113.934C723.35 112.196 721.941 110.787 720.202 110.787C718.464 110.787 717.055 112.196 717.055 113.934C717.055 122.623 724.101 129.667 732.792 129.667C741.484 129.667 748.529 122.623 748.529 113.934C748.529 105.244 741.484 98.2006 732.792 98.2006H684.007C682.269 98.2006 680.859 99.6094 680.859 101.347C680.859 103.085 682.269 104.494 684.007 104.494H732.792Z" fill="#99BDD7"/>
<path d="M735.637 234.021C734.591 234.021 733.604 234.274 732.709 234.704C730.922 230.909 727.244 228.297 722.985 228.297C720.214 228.297 717.693 229.409 715.772 231.224C712.541 228.287 708.273 226.482 703.579 226.482C693.641 226.482 685.576 234.496 685.371 244.457C681.645 246.298 679.057 250.305 679.057 254.964C679.057 260.348 682.511 264.864 687.187 266.163L737.54 266.531C743.367 266.308 748.03 261.222 748.03 254.964C748.03 250.495 745.652 246.625 742.172 244.692C742.56 243.753 742.785 242.722 742.785 241.63C742.785 237.428 739.585 234.021 735.637 234.021Z" fill="black"/>
<path fill-rule="evenodd" clip-rule="evenodd" d="M682.757 242.844C683.756 232.168 692.67 223.779 703.578 223.779C708.151 223.779 712.368 225.269 715.799 227.766C717.87 226.402 720.329 225.594 722.985 225.594C727.552 225.594 731.515 227.956 733.955 231.473C734.498 231.372 735.06 231.318 735.637 231.318C741.235 231.318 745.488 236.097 745.488 241.63C745.488 242.288 745.427 242.93 745.313 243.549C748.63 246.175 750.733 250.334 750.733 254.964C750.733 262.532 745.059 268.948 737.643 269.232L737.582 269.234L686.809 268.863L686.463 268.767C680.554 267.125 676.354 261.495 676.354 254.964C676.354 249.894 678.878 245.388 682.757 242.844ZM703.578 229.185C695.136 229.185 688.248 235.998 688.073 244.512L688.039 246.153L686.568 246.88C683.786 248.255 681.759 251.309 681.759 254.964C681.759 259.07 684.302 262.391 687.593 263.463L737.494 263.827C741.706 263.634 745.327 259.89 745.327 254.964C745.327 251.458 743.465 248.502 740.859 247.054L738.754 245.884L739.674 243.659C739.935 243.027 740.082 242.346 740.082 241.63C740.082 238.759 737.936 236.724 735.637 236.724C735.034 236.724 734.445 236.868 733.88 237.14L731.425 238.32L730.264 235.856C728.872 232.901 726.084 231 722.985 231C720.961 231 719.09 231.807 717.628 233.189L715.807 234.909L713.953 233.224C711.192 230.713 707.563 229.185 703.578 229.185Z" fill="#3A95FF"/>
<path fill-rule="evenodd" clip-rule="evenodd" d="M743.333 287.042C752.071 287.042 759.155 279.96 759.155 271.224C759.155 262.488 752.071 255.406 743.333 255.406C734.595 255.406 727.511 262.488 727.511 271.224C727.511 272.68 728.692 273.86 730.148 273.86C731.605 273.86 732.785 272.68 732.785 271.224C732.785 265.4 737.508 260.679 743.333 260.679C749.159 260.679 753.881 265.4 753.881 271.224C753.881 277.048 749.159 281.769 743.333 281.769H693.231C691.774 281.769 690.594 282.949 690.594 284.405C690.594 285.861 691.774 287.042 693.231 287.042H743.333Z" fill="#99BDD7"/>
<path fill-rule="evenodd" clip-rule="evenodd" d="M714.327 277.816C719.424 277.816 723.556 273.685 723.556 268.589C723.556 263.493 719.424 259.362 714.327 259.362C710.594 259.362 707.273 261.598 705.834 264.972C705.263 266.312 705.886 267.86 707.226 268.431C708.565 269.002 710.114 268.379 710.685 267.04C711.303 265.593 712.726 264.634 714.327 264.634C716.511 264.634 718.282 266.405 718.282 268.589C718.282 270.773 716.511 272.543 714.327 272.543H690.594C689.138 272.543 687.957 273.723 687.957 275.179C687.957 276.635 689.138 277.816 690.594 277.816H714.327Z" fill="#99BDD7"/>
<path fill-rule="evenodd" clip-rule="evenodd" d="M738.059 296.268C742.428 296.268 745.97 299.809 745.97 304.177C745.97 308.545 742.428 312.086 738.059 312.086C733.69 312.086 730.148 308.545 730.148 304.177C730.148 302.721 728.967 301.541 727.511 301.541C726.055 301.541 724.874 302.721 724.874 304.177C724.874 311.457 730.777 317.358 738.059 317.358C745.341 317.358 751.244 311.457 751.244 304.177C751.244 296.897 745.341 290.996 738.059 290.996H697.186C695.729 290.996 694.549 292.176 694.549 293.632C694.549 295.088 695.729 296.268 697.186 296.268H738.059Z" fill="#99BDD7"/>
<path fill-rule="evenodd" clip-rule="evenodd" d="M742.075 304.178C742.075 301.961 740.278 300.163 738.058 300.163H732.661C733.525 301.27 734.041 302.664 734.041 304.178C734.041 306.394 735.838 308.193 738.058 308.193C740.278 308.193 742.075 306.394 742.075 304.178ZM722.36 300.163C721.495 301.27 720.979 302.664 720.979 304.178C720.979 313.609 728.627 321.253 738.058 321.253C747.489 321.253 755.137 313.609 755.137 304.178C755.137 294.746 747.489 287.103 738.058 287.103H697.185C693.579 287.103 690.654 290.025 690.654 293.633C690.654 297.24 693.579 300.163 697.185 300.163H722.36ZM745.969 304.178C745.969 299.81 742.427 296.269 738.058 296.269H697.185C695.729 296.269 694.548 295.089 694.548 293.633C694.548 292.177 695.729 290.996 697.185 290.996H738.058C745.34 290.996 751.243 296.898 751.243 304.178C751.243 311.458 745.34 317.359 738.058 317.359C730.776 317.359 724.873 311.458 724.873 304.178C724.873 302.722 726.054 301.541 727.51 301.541C728.966 301.541 730.147 302.722 730.147 304.178C730.147 308.546 733.689 312.087 738.058 312.087C742.427 312.087 745.969 308.546 745.969 304.178Z" fill="black"/>
<ellipse cx="743.122" cy="271.172" rx="10.7451" ry="10.5532" fill="black"/>
<path fill-rule="evenodd" clip-rule="evenodd" d="M250.182 67.1421C247.914 67.1421 246.076 65.3038 246.076 63.0374V56.4674C246.076 54.1992 247.914 52.3608 250.182 52.3608C252.451 52.3608 254.289 54.1992 254.289 56.4674V63.0374C254.289 65.3038 252.449 67.1421 250.182 67.1421ZM250.182 81.2061C242.928 81.2061 237.013 87.1212 237.013 94.3765C237.013 101.632 242.928 107.547 250.182 107.547C257.434 107.547 263.35 101.633 263.35 94.3765C263.35 87.1202 257.434 81.2061 250.182 81.2061ZM229.136 94.3765C229.136 82.7714 238.577 73.3284 250.182 73.3284C261.785 73.3284 271.228 82.7695 271.228 94.3765C271.228 105.983 261.785 115.425 250.182 115.425C238.577 115.425 229.136 105.982 229.136 94.3765ZM246.076 125.712C246.076 123.444 247.914 121.606 250.182 121.606C252.449 121.606 254.289 123.444 254.289 125.712V132.28C254.289 134.55 252.451 136.389 250.182 136.389C247.914 136.389 246.076 134.55 246.076 132.28V125.712ZM269.436 75.1185C267.834 73.5146 267.834 70.9152 269.436 69.3113L274.083 64.6652C275.685 63.0631 278.286 63.0631 279.89 64.6652C281.494 66.2691 281.494 68.8703 279.89 70.4724L275.244 75.1185C273.642 76.7224 271.042 76.7224 269.436 75.1185ZM225.119 113.634C226.723 112.029 229.322 112.029 230.926 113.634C232.53 115.235 232.53 117.836 230.926 119.438L226.28 124.086C224.678 125.688 222.077 125.688 220.473 124.086C218.869 122.484 218.871 119.881 220.473 118.279L225.119 113.634ZM277.413 94.3752C277.413 92.1071 279.251 90.2687 281.519 90.2687H288.089C290.357 90.2687 292.196 92.1071 292.196 94.3752C292.196 96.6434 290.357 98.4799 288.089 98.4799H281.519C279.251 98.4799 277.413 96.6434 277.413 94.3752ZM218.843 90.2687C221.111 90.2687 222.949 92.1071 222.949 94.3752C222.949 96.6434 221.111 98.4799 218.845 98.4799H212.274C210.006 98.4799 208.168 96.6434 208.168 94.3752C208.168 92.1071 210.006 90.2687 212.274 90.2687H218.843ZM269.436 113.633C271.04 112.031 273.642 112.031 275.244 113.633L279.89 118.279C281.494 119.879 281.494 122.482 279.89 124.084C278.286 125.686 275.686 125.686 274.083 124.084L269.436 119.438C267.833 117.834 267.833 115.235 269.436 113.633ZM230.927 69.3123C232.531 70.9162 232.531 73.5156 230.927 75.1195C229.323 76.7252 226.724 76.7252 225.12 75.1195L220.474 70.4733C218.87 68.8713 218.87 66.2701 220.474 64.668C222.078 63.0641 224.677 63.0641 226.281 64.668L230.927 69.3123Z" fill="#FAFF0C"/>
<path fill-rule="evenodd" clip-rule="evenodd" d="M241.547 258.612C235.606 256.098 228.71 258.892 226.194 264.835C223.679 270.778 226.473 277.674 232.415 280.188C238.355 282.703 245.252 279.91 247.768 273.966C250.283 268.022 247.488 261.127 241.547 258.612ZM219.742 262.104C223.765 252.598 234.772 248.136 244.278 252.16C253.783 256.182 258.244 267.19 254.22 276.697C250.196 286.204 239.188 290.664 229.684 286.641C220.178 282.618 215.718 271.61 219.742 262.104Z" fill="#FAFF0C"/>
<path d="M246.423 247.092C244.565 246.306 243.696 244.162 244.482 242.306L246.76 236.924C247.546 235.066 249.689 234.198 251.547 234.984C253.405 235.771 254.274 237.914 253.487 239.772L251.209 245.153C250.424 247.01 248.279 247.878 246.423 247.092Z" fill="#FAFF0C"/>
<path d="M227.54 291.703C225.682 290.917 223.538 291.785 222.752 293.643L220.475 299.023C219.688 300.883 220.556 303.026 222.414 303.812C224.272 304.599 226.415 303.73 227.202 301.871L229.479 296.491C230.266 294.633 229.396 292.489 227.54 291.703Z" fill="#FAFF0C"/>
<path d="M259.428 260.301C258.672 258.432 259.573 256.303 261.441 255.545L266.858 253.35C268.725 252.593 270.856 253.495 271.614 255.363C272.372 257.233 271.47 259.364 269.601 260.12L264.185 262.315C262.316 263.073 260.187 262.172 259.428 260.301Z" fill="#FAFF0C"/>
<path d="M214.532 278.497C213.775 276.625 211.646 275.724 209.775 276.483L204.359 278.677C202.492 279.433 201.588 281.565 202.346 283.433C203.104 285.302 205.235 286.204 207.103 285.447L212.52 283.25C214.389 282.494 215.291 280.363 214.532 278.497Z" fill="#FAFF0C"/>
<path d="M214.674 259.958C215.46 258.1 214.592 255.956 212.734 255.17L207.354 252.893C205.496 252.107 203.353 252.975 202.567 254.833C201.78 256.691 202.649 258.832 204.507 259.619L209.889 261.897C211.745 262.682 213.888 261.815 214.674 259.958Z" fill="#FAFF0C"/>
<path d="M246.077 291.848C247.946 291.092 250.077 291.994 250.833 293.862L253.028 299.278C253.787 301.145 252.885 303.277 251.016 304.034C249.146 304.79 247.017 303.889 246.259 302.02L244.064 296.604C243.306 294.734 244.207 292.605 246.077 291.848Z" fill="#FAFF0C"/>
<path d="M227.884 246.949C229.754 246.191 230.655 244.062 229.898 242.192L227.702 236.777C226.944 234.907 224.815 234.006 222.945 234.764C221.076 235.52 220.174 237.651 220.933 239.519L223.127 244.936C223.885 246.807 226.014 247.708 227.884 246.949Z" fill="#FAFF0C"/>
<path d="M280.566 276.956C279.432 276.956 278.362 277.223 277.393 277.676C275.456 273.674 271.471 270.918 266.855 270.918C263.853 270.918 261.121 272.091 259.039 274.006C255.538 270.907 250.913 269.003 245.826 269.003C235.057 269.003 226.318 277.457 226.096 287.964C222.059 289.906 219.254 294.132 219.254 299.047C219.254 304.727 222.997 309.489 228.064 310.86L282.628 311.248C288.941 311.013 293.994 305.648 293.994 299.047C293.994 294.334 291.418 290.251 287.647 288.211C288.067 287.221 288.311 286.133 288.311 284.982C288.311 280.55 284.844 276.956 280.566 276.956Z" fill="black"/>
<path fill-rule="evenodd" clip-rule="evenodd" d="M223.406 286.278C224.481 274.987 234.141 266.218 245.826 266.218C250.778 266.218 255.35 267.803 259.064 270.467C261.308 268.999 263.977 268.133 266.855 268.133C271.753 268.133 276.032 270.616 278.66 274.354C279.274 274.235 279.911 274.171 280.566 274.171C286.475 274.171 291.097 279.106 291.097 284.982C291.097 285.68 291.03 286.359 290.906 287.015C294.484 289.76 296.78 294.139 296.78 299.047C296.78 307.068 290.62 313.738 282.731 314.031L282.67 314.034L227.685 313.643L227.337 313.549C221.032 311.844 216.469 305.961 216.469 299.047C216.469 293.67 219.226 288.93 223.406 286.278ZM245.826 271.789C236.53 271.789 229.07 279.074 228.881 288.023L228.845 289.733L227.304 290.474C224.227 291.954 222.04 295.207 222.04 299.047C222.04 303.367 224.8 306.929 228.47 308.077L282.582 308.462C287.295 308.256 291.209 304.208 291.209 299.047C291.209 295.363 289.199 292.218 286.322 290.661L284.092 289.456L285.083 287.123C285.367 286.454 285.526 285.735 285.526 284.982C285.526 281.993 283.213 279.741 280.566 279.741C279.876 279.741 279.208 279.902 278.574 280.199L276.084 281.364L274.886 278.89C273.375 275.769 270.317 273.704 266.855 273.704C264.599 273.704 262.528 274.581 260.925 276.056L259.075 277.757L257.193 276.092C254.18 273.425 250.205 271.789 245.826 271.789Z" fill="#3A95FF"/>
</svg>
